<svg id="_Ebene_" data-name="&lt;Ebene&gt;" xmlns="http://www.w3.org/2000/svg" viewBox="0 0 695.59 153.14"><path d="M109.42,105c0,15.39-5.86,28-17,36.56-9.71,7.46-23.27,11.58-38.2,11.58-20.9,0-41.5-7.94-53.75-20.71L0,131.89l23.53-23.78.54.6c7.85,8.73,20,14.6,30.19,14.6,7.06,0,18.91-1.91,18.91-14.7,0-10.2-10.14-13.47-28.55-19.41l-.43-.14C26,83.19,7.33,73.67,7.33,47.59c0-31.31,28-45.33,55.76-45.33,17,0,34.64,6.6,47.08,17.66l.59.52-23,24.28-.55-.65c-6.1-7.16-16-12-24.71-12-4.48,0-19.11,1-19.11,13.49,0,8.82,7.71,11.66,21.35,15.94C83.59,67.61,109.42,76,109.42,105Zm373-87.53a16.49,16.49,0,0,1-1.46,6.9,17.74,17.74,0,0,1-3.88,5.53,17.91,17.91,0,0,1-5.82,3.69A18.86,18.86,0,0,1,464.2,35a17.79,17.79,0,0,1-13-5.15A16.61,16.61,0,0,1,446,17.47a16.85,16.85,0,0,1,1.36-6.69,15.75,15.75,0,0,1,3.88-5.54A21,21,0,0,1,457,1.46,17.47,17.47,0,0,1,464.2,0a19.06,19.06,0,0,1,7.09,1.36,18.08,18.08,0,0,1,5.82,3.69A17.74,17.74,0,0,1,481,10.58,16.51,16.51,0,0,1,482.45,17.47ZM692,76.22a66.45,66.45,0,0,1,3.77,23.22v4.07a36.86,36.86,0,0,1-.2,3.88H622.05a17.77,17.77,0,0,0,2.54,7.74,22.11,22.11,0,0,0,5.5,6,27,27,0,0,0,7.54,4,26.61,26.61,0,0,0,8.66,1.42,28.12,28.12,0,0,0,13.45-3,26.6,26.6,0,0,0,9-7.64l23.22,14.67a47,47,0,0,1-18.84,16q-11.72,5.6-27.2,5.6a65,65,0,0,1-21.59-3.56,52.58,52.58,0,0,1-17.83-10.39,48,48,0,0,1-12-16.81,56.08,56.08,0,0,1-4.38-22.81,57.1,57.1,0,0,1,4.27-22.51A51.14,51.14,0,0,1,606,59a51.8,51.8,0,0,1,17.32-10.89,59.19,59.19,0,0,1,21.59-3.88A54.74,54.74,0,0,1,665.44,48a45,45,0,0,1,16.09,10.9A50.42,50.42,0,0,1,692,76.22M665,86.61A20,20,0,0,0,660,73q-5-5.7-15-5.71a25.36,25.36,0,0,0-9,1.53A23.27,23.27,0,0,0,629,73a20.7,20.7,0,0,0-4.88,6.21,18,18,0,0,0-2,7.44ZM563,77.44a37.38,37.38,0,0,0-9.58-6.52,26.47,26.47,0,0,0-11.61-2.65,20.32,20.32,0,0,0-8.66,1.84,6.44,6.44,0,0,0-4,6.31q0,4.27,4.38,6.11a96.39,96.39,0,0,0,14.16,4.08,76.4,76.4,0,0,1,11.51,3.46A40.79,40.79,0,0,1,569.74,96a28.39,28.39,0,0,1,7.54,9,26.29,26.29,0,0,1,2.85,12.63q0,9.59-3.87,16.2a31.63,31.63,0,0,1-10.09,10.69,43.33,43.33,0,0,1-13.95,5.91,67.07,67.07,0,0,1-15.48,1.83,76.49,76.49,0,0,1-24.35-4,51.18,51.18,0,0,1-19.86-11.71l18.74-19.76a37.47,37.47,0,0,0,11,8.14,30.51,30.51,0,0,0,13.86,3.26,18.2,18.2,0,0,0,8-1.93q4-1.94,4-6.83,0-4.68-4.89-6.92A88.27,88.27,0,0,0,528,107.79a77.51,77.51,0,0,1-10.59-3.26,33.4,33.4,0,0,1-9.48-5.5,27.26,27.26,0,0,1-6.82-8.55,26.16,26.16,0,0,1-2.65-12.23q0-9.16,3.87-15.58a32.83,32.83,0,0,1,10-10.49,44.32,44.32,0,0,1,13.55-6,58.42,58.42,0,0,1,14.77-1.94,71.18,71.18,0,0,1,22.3,3.57,48.28,48.28,0,0,1,18.44,10.69Zm-115.53,71.5V47.49H480.9V148.94ZM431.87,75a27.46,27.46,0,0,0-4.38-.81c-1.43-.13-2.82-.2-4.18-.2A24,24,0,0,0,412,76.41a23,23,0,0,0-7.33,5.9,22.3,22.3,0,0,0-4,7.51,25,25,0,0,0-1.22,7.11v52H366.07V47.62h32.18V62.28h.41a33.12,33.12,0,0,1,11-12.71,28.26,28.26,0,0,1,16.5-4.93,36.73,36.73,0,0,1,4,.21,15,15,0,0,1,3.16.61Zm-118.44,74V93.53a44.63,44.63,0,0,0-.71-8.15,22.84,22.84,0,0,0-2.34-6.82,12.18,12.18,0,0,0-4.58-4.68,14.5,14.5,0,0,0-7.44-1.74,16.81,16.81,0,0,0-7.84,1.74,16,16,0,0,0-5.61,4.78,21.91,21.91,0,0,0-3.36,7,30.54,30.54,0,0,0-1.12,8.25v55H246.82V47.49h32.39V61.55h.41a33.65,33.65,0,0,1,4.79-6.42,28.78,28.78,0,0,1,6.92-5.4A43.17,43.17,0,0,1,300,46.07a34.1,34.1,0,0,1,10-1.43q10.18,0,17.32,3.67a33.16,33.16,0,0,1,11.51,9.47,37.46,37.46,0,0,1,6.31,13.34,60.52,60.52,0,0,1,1.94,15.08v62.74Zm-119.82,0V134.89h-.41a28.41,28.41,0,0,1-4.79,6.51,29.94,29.94,0,0,1-6.92,5.3,42.11,42.11,0,0,1-8.76,3.67,35.2,35.2,0,0,1-10.09,1.42q-10.19,0-17.21-3.66A33.37,33.37,0,0,1,134,138.65a37.31,37.31,0,0,1-6.31-13.24,59.93,59.93,0,0,1-1.94-15.17V47.49h33.61v55a51.71,51.71,0,0,0,.62,8.14,20.06,20.06,0,0,0,2.34,6.93,12.87,12.87,0,0,0,4.58,4.79,14.44,14.44,0,0,0,7.54,1.73q8.76,0,13.34-6.52a25.85,25.85,0,0,0,4.59-15.28V47.49h33.4V148.94Z" style="fill:#fff"/></svg>