<?xml version="1.0" encoding="utf-8"?>
<!-- Generator: Adobe Illustrator 23.0.2, SVG Export Plug-In . SVG Version: 6.00 Build 0)  -->
<svg version="1.1" id="_x3C_Ebene_x3E_" xmlns="http://www.w3.org/2000/svg" xmlns:xlink="http://www.w3.org/1999/xlink" x="0px"
	 y="0px" viewBox="0 0 849 306.2" style="enable-background:new 0 0 849 306.2;" xml:space="preserve">
<style type="text/css">
	.st0{fill:#E6003C;}
	.st1{opacity:0;fill:#FFFFFF;}
</style>
<path class="st0" d="M186.4,181.7c0,15.4-5.9,28-17,36.6c-9.7,7.5-23.3,11.6-38.2,11.6c-20.9,0-41.5-7.9-53.7-20.7l-0.5-0.5
	l23.5-23.8l0.5,0.6c7.9,8.7,20,14.6,30.2,14.6c7.1,0,18.9-1.9,18.9-14.7c0-10.2-10.1-13.5-28.5-19.4l-0.4-0.1
	c-18.2-5.9-36.9-15.4-36.9-41.5c0-31.3,28-45.3,55.8-45.3c17,0,34.6,6.6,47.1,17.7l0.6,0.5l-23,24.3l-0.6-0.6
	c-6.1-7.2-16-12-24.7-12c-4.5,0-19.1,1-19.1,13.5c0,8.8,7.7,11.7,21.3,15.9C160.6,144.3,186.4,152.6,186.4,181.7z M559.4,94.2
	c0,2.5-0.5,4.8-1.5,6.9c-1,2.1-2.3,4-3.9,5.5c-1.6,1.6-3.6,2.8-5.8,3.7c-2.3,0.9-4.6,1.4-7.1,1.4c-5.2,0-9.5-1.7-13-5.1
	c-3.5-3.4-5.2-7.5-5.2-12.3c0-2.3,0.5-4.6,1.4-6.7c0.9-2.1,2.2-4,3.9-5.5c1.7-1.6,3.6-2.8,5.8-3.8c2.2-1,4.6-1.5,7.2-1.5
	c2.5,0,4.8,0.5,7.1,1.4c2.3,0.9,4.2,2.1,5.8,3.7c1.6,1.6,2.9,3.4,3.9,5.5C558.9,89.4,559.4,91.7,559.4,94.2z M769,152.9
	c2.5,6.8,3.8,14.5,3.8,23.2c0,1.4,0,2.7,0,4.1c0,1.4-0.1,2.6-0.2,3.9H699c0.3,2.9,1.1,5.4,2.5,7.7c1.4,2.3,3.3,4.3,5.5,6
	c2.2,1.7,4.8,3,7.5,4c2.8,1,5.7,1.4,8.7,1.4c5.3,0,9.8-1,13.4-3c3.7-2,6.7-4.5,9-7.6l23.2,14.7c-4.8,6.9-11,12.3-18.8,16
	c-7.8,3.7-16.9,5.6-27.2,5.6c-7.6,0-14.8-1.2-21.6-3.6c-6.8-2.4-12.7-5.8-17.8-10.4c-5.1-4.5-9.1-10.2-12-16.8
	c-2.9-6.7-4.4-14.3-4.4-22.8c0-8.3,1.4-15.8,4.3-22.5c2.9-6.7,6.7-12.4,11.6-17.1c4.9-4.7,10.7-8.3,17.3-10.9
	c6.7-2.6,13.9-3.9,21.6-3.9c7.5,0,14.3,1.3,20.6,3.8c6.2,2.5,11.6,6.1,16.1,10.9C763,140.3,766.5,146.1,769,152.9 M742,163.3
	c0-5.3-1.7-9.8-5-13.6c-3.3-3.8-8.3-5.7-15-5.7c-3.3,0-6.2,0.5-9,1.5c-2.7,1-5.1,2.4-7.1,4.2c-2,1.8-3.7,3.8-4.9,6.2
	c-1.2,2.4-1.9,4.9-2,7.4H742z M640,154.1c-2.7-2.6-5.9-4.8-9.6-6.5c-3.7-1.8-7.5-2.6-11.6-2.6c-3.1,0-6,0.6-8.7,1.8
	c-2.6,1.2-4,3.3-4,6.3c0,2.9,1.5,4.9,4.4,6.1c2.9,1.2,7.6,2.6,14.2,4.1c3.8,0.8,7.6,2,11.5,3.5c3.9,1.5,7.4,3.5,10.5,5.9
	c3.1,2.4,5.6,5.4,7.5,9c1.9,3.5,2.9,7.7,2.9,12.6c0,6.4-1.3,11.8-3.9,16.2c-2.6,4.4-5.9,8-10.1,10.7c-4.1,2.7-8.8,4.7-14,5.9
	c-5.2,1.2-10.3,1.8-15.5,1.8c-8.3,0-16.4-1.3-24.3-4c-7.9-2.6-14.6-6.5-19.9-11.7l18.7-19.8c3,3.3,6.7,6,11,8.1
	c4.3,2.2,9,3.3,13.9,3.3c2.7,0,5.4-0.6,8-1.9c2.6-1.3,4-3.6,4-6.8c0-3.1-1.6-5.4-4.9-6.9c-3.3-1.5-8.4-3.1-15.3-4.7
	c-3.5-0.8-7.1-1.9-10.6-3.3c-3.5-1.4-6.7-3.2-9.5-5.5c-2.8-2.3-5.1-5.2-6.8-8.6c-1.8-3.4-2.6-7.5-2.6-12.2c0-6.1,1.3-11.3,3.9-15.6
	c2.6-4.3,5.9-7.8,10-10.5c4.1-2.7,8.6-4.7,13.5-6c5-1.3,9.9-1.9,14.8-1.9c7.6,0,15,1.2,22.3,3.6c7.3,2.4,13.4,5.9,18.4,10.7
	L640,154.1z M524.5,225.6V124.2h33.4v101.4H524.5z M508.8,151.7c-1.5-0.4-3-0.7-4.4-0.8c-1.4-0.1-2.8-0.2-4.2-0.2
	c-4.5,0-8.3,0.8-11.3,2.4c-3.1,1.6-5.5,3.6-7.3,5.9c-1.8,2.3-3.2,4.8-4,7.5c-0.8,2.7-1.2,5.1-1.2,7.1v52h-33.4V124.3h32.2V139h0.4
	c2.6-5.2,6.2-9.4,11-12.7c4.8-3.3,10.3-4.9,16.5-4.9c1.4,0,2.7,0.1,4,0.2c1.3,0.1,2.3,0.3,3.2,0.6L508.8,151.7z M390.4,225.6v-55.4
	c0-2.9-0.2-5.6-0.7-8.1c-0.5-2.6-1.3-4.9-2.3-6.8c-1.1-2-2.6-3.5-4.6-4.7c-2-1.2-4.4-1.7-7.4-1.7c-3,0-5.6,0.6-7.8,1.7
	c-2.2,1.2-4.1,2.8-5.6,4.8c-1.5,2-2.6,4.4-3.4,7c-0.7,2.6-1.1,5.4-1.1,8.3v55h-33.6V124.2h32.4v14.1h0.4c1.2-2.2,2.8-4.3,4.8-6.4
	c2-2.1,4.3-3.9,6.9-5.4c2.6-1.5,5.5-2.7,8.7-3.7c3.1-0.9,6.4-1.4,10-1.4c6.8,0,12.6,1.2,17.3,3.7c4.8,2.4,8.6,5.6,11.5,9.5
	c2.9,3.9,5,8.3,6.3,13.3c1.3,5,1.9,10.1,1.9,15.1v62.7H390.4z M270.6,225.6v-14.1h-0.4c-1.2,2.3-2.8,4.5-4.8,6.5
	c-2,2-4.3,3.8-6.9,5.3c-2.6,1.5-5.6,2.7-8.8,3.7c-3.2,0.9-6.6,1.4-10.1,1.4c-6.8,0-12.5-1.2-17.2-3.7c-4.7-2.4-8.5-5.6-11.4-9.5
	c-2.9-3.9-5-8.3-6.3-13.2c-1.3-5-1.9-10-1.9-15.2v-62.7h33.6v55c0,2.9,0.2,5.6,0.6,8.1c0.4,2.6,1.2,4.9,2.3,6.9
	c1.2,2,2.7,3.6,4.6,4.8c1.9,1.2,4.4,1.7,7.5,1.7c5.8,0,10.3-2.2,13.3-6.5c3.1-4.3,4.6-9.4,4.6-15.3v-54.8h33.4v101.4H270.6z"/>
<rect class="st1" width="849" height="306.2"/>
</svg>
