<svg id="Atoms-Logos-NFON-Light" xmlns="http://www.w3.org/2000/svg" xmlns:xlink="http://www.w3.org/1999/xlink" width="120.307" height="28" viewBox="0 0 120.307 28">
  <defs>
    <clipPath id="clip-path">
      <rect id="Rectangle_259" data-name="Rectangle 259" width="120.307" height="28" fill="none"/>
    </clipPath>
  </defs>
  <path id="Path_150" data-name="Path 150" d="M0,23.725H8.424L17.5,14.654,30.841,28l4.212-4.212L21.707,10.442,17.5,6.23ZM23.786,0,19.514,4.212,32.86,17.558l4.212,4.212,4.212-4.212L54.534,4.309H46.109l-9.037,9.037Z" fill="#fff"/>
  <g id="Group_2" data-name="Group 2">
    <g id="Group_1" data-name="Group 1" clip-path="url(#clip-path)">
      <path id="Path_151" data-name="Path 151" d="M201.884,9.854V25.28L190.952,9.854h-1.179V27.294h1.179V11.868l10.931,15.426h1.179V9.854ZM178.442,26.41a7.7,7.7,0,0,1-7.541-7.836,7.547,7.547,0,1,1,15.083,0,7.688,7.688,0,0,1-7.541,7.836m0,1.13a8.8,8.8,0,0,0,8.745-8.966,8.736,8.736,0,1,0-17.466,0,8.777,8.777,0,0,0,8.721,8.966M168.336,10.983V9.854h-8.917V27.294H160.6V18.672h6.412V17.518H160.6V10.983Zm-11.9-1.13h-1.179V25.28L144.325,9.854h-1.179V27.294h1.179V11.868l10.931,15.426h1.179" transform="translate(-82.756 -5.554)" fill="#fff"/>
    </g>
  </g>
</svg>
