<?xml version="1.0" encoding="UTF-8" standalone="no"?>
<svg
   xmlns:dc="http://purl.org/dc/elements/1.1/"
   xmlns:cc="http://creativecommons.org/ns#"
   xmlns:rdf="http://www.w3.org/1999/02/22-rdf-syntax-ns#"
   xmlns:svg="http://www.w3.org/2000/svg"
   xmlns="http://www.w3.org/2000/svg"
   xmlns:sodipodi="http://sodipodi.sourceforge.net/DTD/sodipodi-0.dtd"
   xmlns:inkscape="http://www.inkscape.org/namespaces/inkscape"
   id="Ebene_1"
   data-name="Ebene 1"
   viewBox="0 0 144.55065 56.561241"
   version="1.1"
   sodipodi:docname="logo-chess.svg"
   width="144.55066"
   height="56.561241"
   inkscape:version="0.92.4 (5da689c313, 2019-01-14)">
  <metadata
     id="metadata123">
    <rdf:RDF>
      <cc:Work
         rdf:about="">
        <dc:format>image/svg+xml</dc:format>
        <dc:type
           rdf:resource="http://purl.org/dc/dcmitype/StillImage" />
        <dc:title>icon_mic_all_off_solid_Zeichenfläche 1</dc:title>
      </cc:Work>
    </rdf:RDF>
  </metadata>
  <sodipodi:namedview
     pagecolor="#ffffff"
     bordercolor="#666666"
     borderopacity="1"
     objecttolerance="10"
     gridtolerance="10"
     guidetolerance="10"
     inkscape:pageopacity="0"
     inkscape:pageshadow="2"
     inkscape:window-width="657"
     inkscape:window-height="480"
     id="namedview121"
     showgrid="false"
     fit-margin-top="0"
     fit-margin-left="0"
     fit-margin-right="0"
     fit-margin-bottom="0"
     inkscape:zoom="2.2654714"
     inkscape:cx="72.880002"
     inkscape:cy="29.223263"
     inkscape:window-x="1642"
     inkscape:window-y="1531"
     inkscape:window-maximized="0"
     inkscape:current-layer="Ebene_1" />
  <defs
     id="defs58">
    <clipPath
       id="clip-path">
      <rect
         width="162.88"
         height="74.57"
         style="fill:none"
         id="rect2"
         x="0"
         y="0" />
    </clipPath>
    <clipPath
       id="clip-path-2">
      <rect
         x="8.5600004"
         y="9.9399996"
         width="144.56"
         height="56.560001"
         style="fill:none"
         id="rect5" />
    </clipPath>
    <clipPath
       id="clip-path-7">
      <path
         d="m 127.51,12.58 a 10.92,10.92 0 0 0 -4.25,3.57 c 0,0 -4.18,6.09 -5.88,6.92 1.7,-0.83 7.61,1.42 7.61,1.42 a 8.44,8.44 0 0 0 6.62,-0.67 10.18,10.18 0 0 0 5.08,-4.82 c 0.95,-2.06 0.9,-3.8 -0.05,-5.23 a 5,5 0 0 0 -3.94,-2.2 8.08,8.08 0 0 0 -0.85,0 9.73,9.73 0 0 0 -4.34,1.1"
         style="fill:none"
         id="path8"
         inkscape:connector-curvature="0" />
    </clipPath>
    <radialGradient
       id="Unbenannter_Verlauf_5"
       cx="-195.81"
       cy="495.42001"
       r="1"
       gradientTransform="matrix(9.47,0,0,-9.47,1987.16,4709.54)"
       gradientUnits="userSpaceOnUse">
      <stop
         offset="0"
         stop-color="#edf1c6"
         id="stop11" />
      <stop
         offset="1"
         stop-color="#47962b"
         id="stop13" />
    </radialGradient>
    <clipPath
       id="clip-path-8">
      <path
         d="m 127.44,12.59 a 11.11,11.11 0 0 0 -4.18,3.51 6.5,6.5 0 0 0 -1.35,4.77 4.35,4.35 0 0 0 3.09,3.63 c 0,0 7.7,2.57 8.49,4.76 -0.79,-2.19 3.18,-10.36 3.18,-10.36 a 5.11,5.11 0 0 0 -0.06,-5.15 5,5 0 0 0 -3.9,-2.22 c -0.31,0 -0.61,0 -0.91,0 a 9.61,9.61 0 0 0 -4.37,1.11"
         style="fill:none"
         id="path16"
         inkscape:connector-curvature="0" />
    </clipPath>
    <radialGradient
       id="Unbenannter_Verlauf_2"
       cx="-193.87"
       cy="499.14001"
       r="1"
       gradientTransform="matrix(8.61,0,0,-8.61,1799.44,4314.02)"
       gradientUnits="userSpaceOnUse">
      <stop
         offset="0"
         stop-color="#edf1c6"
         id="stop19" />
      <stop
         offset="0.12"
         stop-color="#e4ecbe"
         id="stop21" />
      <stop
         offset="0.3"
         stop-color="#cde0a8"
         id="stop23" />
      <stop
         offset="0.53"
         stop-color="#a7cb85"
         id="stop25" />
      <stop
         offset="0.8"
         stop-color="#73ae54"
         id="stop27" />
      <stop
         offset="1"
         stop-color="#47962b"
         id="stop29" />
    </radialGradient>
    <clipPath
       id="clip-path-9">
      <path
         d="m 104.5,22 a 5.57,5.57 0 0 0 -2.5,2.91 5.47,5.47 0 0 0 -0.23,3.6 5,5 0 0 0 1.87,2.84 4.73,4.73 0 0 0 3.6,0.9 5.44,5.44 0 0 0 3.79,-2.38 c 0,0 4,-6 6.32,-6.8 -2.28,0.79 -8.69,-1.52 -8.69,-1.52 a 4.72,4.72 0 0 0 -1.59,-0.28 5.12,5.12 0 0 0 -2.6,0.75"
         style="fill:none"
         id="path32"
         inkscape:connector-curvature="0" />
    </clipPath>
    <radialGradient
       id="Unbenannter_Verlauf_3"
       cx="-201.53"
       cy="540.71997"
       r="1"
       gradientTransform="matrix(0,4.74,4.74,0,-2454.14,979.93)"
       gradientUnits="userSpaceOnUse">
      <stop
         offset="0"
         stop-color="#d4e5f7"
         id="stop35" />
      <stop
         offset="0.1"
         stop-color="#cbdef3"
         id="stop37" />
      <stop
         offset="0.26"
         stop-color="#b2cce8"
         id="stop39" />
      <stop
         offset="0.46"
         stop-color="#8aafd7"
         id="stop41" />
      <stop
         offset="0.69"
         stop-color="#5387be"
         id="stop43" />
      <stop
         offset="0.95"
         stop-color="#0d53a0"
         id="stop45" />
      <stop
         offset="1"
         stop-color="#004a9a"
         id="stop47" />
    </radialGradient>
    <clipPath
       id="clip-path-10">
      <path
         d="m 129.07,38.55 a 11.08,11.08 0 0 0 -1.63,7.24 11.43,11.43 0 0 0 3.84,7.47 12.22,12.22 0 0 0 9.35,3.21 11.2,11.2 0 0 0 9.46,-5.86 10.87,10.87 0 0 0 0.23,-10.54 11.86,11.86 0 0 0 -7.3,-6.35 c 0,0 -9.07,-2.79 -9.52,-4.46 0.45,1.67 -4.43,9.29 -4.43,9.29"
         style="fill:none"
         id="path50"
         inkscape:connector-curvature="0" />
    </clipPath>
    <radialGradient
       id="Unbenannter_Verlauf_4"
       cx="-209.92999"
       cy="489.84"
       r="1"
       gradientTransform="matrix(0,12.41,12.41,0,-5934.36,2647.93)"
       gradientUnits="userSpaceOnUse">
      <stop
         offset="0"
         stop-color="#fff8b6"
         id="stop53" />
      <stop
         offset="1"
         stop-color="#f49800"
         id="stop55" />
    </radialGradient>
  </defs>
  <g
     clip-path="url(#clip-path)"
     id="g64"
     transform="translate(-8.56,-9.9470208)">
    <path
       d="m 117.38,23.07 c 1.7,-0.82 7.61,1.42 7.61,1.42 a 8.43,8.43 0 0 0 6.62,-0.67 10.18,10.18 0 0 0 5.08,-4.82 c 0.95,-2.06 0.9,-3.8 -0.05,-5.23 a 5,5 0 0 0 -3.94,-2.2 9.28,9.28 0 0 0 -5.19,1.05 10.92,10.92 0 0 0 -4.25,3.57 c 0,0 -4.18,6.1 -5.88,6.92"
       style="fill:#ffffff"
       id="path62"
       inkscape:connector-curvature="0" />
  </g>
  <g
     clip-path="url(#clip-path-2)"
     id="g68"
     transform="translate(-8.56,-9.9470208)">
    <path
       d="m 117.38,23.07 c 1.7,-0.82 7.61,1.42 7.61,1.42 a 8.43,8.43 0 0 0 6.62,-0.67 10.18,10.18 0 0 0 5.08,-4.82 c 0.95,-2.06 0.9,-3.8 -0.05,-5.23 a 5,5 0 0 0 -3.94,-2.2 9.28,9.28 0 0 0 -5.19,1.05 10.92,10.92 0 0 0 -4.25,3.57 c 0,0 -4.18,6.06 -5.88,6.88 z"
       style="fill:none;stroke:#ffffff;stroke-width:3.08100009px;stroke-linecap:round;stroke-linejoin:round"
       id="path66"
       inkscape:connector-curvature="0" />
  </g>
  <g
     clip-path="url(#clip-path)"
     id="g72"
     transform="translate(-8.56,-9.9470208)">
    <path
       d="m 133.5,29.26 c -0.79,-2.19 3.18,-10.36 3.18,-10.36 a 5.11,5.11 0 0 0 -0.06,-5.15 5,5 0 0 0 -3.9,-2.22 9.3,9.3 0 0 0 -5.28,1.06 11.11,11.11 0 0 0 -4.18,3.51 6.5,6.5 0 0 0 -1.35,4.77 4.35,4.35 0 0 0 3.09,3.63 c 0,0 7.7,2.57 8.49,4.76"
       style="fill:#ffffff"
       id="path70"
       inkscape:connector-curvature="0" />
  </g>
  <g
     clip-path="url(#clip-path-2)"
     id="g76"
     transform="translate(-8.56,-9.9470208)">
    <path
       d="m 133.5,29.26 c -0.79,-2.19 3.18,-10.36 3.18,-10.36 a 5.11,5.11 0 0 0 -0.06,-5.15 5,5 0 0 0 -3.9,-2.22 9.3,9.3 0 0 0 -5.28,1.06 11.11,11.11 0 0 0 -4.18,3.51 6.5,6.5 0 0 0 -1.35,4.77 4.35,4.35 0 0 0 3.09,3.63 c 0,0 7.71,2.57 8.5,4.76 z"
       style="fill:none;stroke:#ffffff;stroke-width:3.08100009px;stroke-linecap:round;stroke-linejoin:round"
       id="path74"
       inkscape:connector-curvature="0" />
  </g>
  <g
     clip-path="url(#clip-path)"
     id="g84"
     transform="translate(-8.56,-9.9470208)">
    <path
       d="m 117.38,23.07 c -2.28,0.79 -8.68,-1.52 -8.68,-1.52 a 4.87,4.87 0 0 0 -4.2,0.47 5.57,5.57 0 0 0 -2.5,2.89 5.47,5.47 0 0 0 -0.23,3.6 5,5 0 0 0 1.87,2.84 4.69,4.69 0 0 0 3.6,0.9 5.44,5.44 0 0 0 3.79,-2.38 c 0,0 4,-6 6.32,-6.8"
       style="fill:#ffffff"
       id="path78"
       inkscape:connector-curvature="0" />
    <path
       d="m 117.38,23.07 c -2.28,0.79 -8.68,-1.52 -8.68,-1.52 a 4.87,4.87 0 0 0 -4.2,0.47 5.57,5.57 0 0 0 -2.5,2.89 5.47,5.47 0 0 0 -0.23,3.6 5,5 0 0 0 1.87,2.84 4.69,4.69 0 0 0 3.6,0.9 5.44,5.44 0 0 0 3.79,-2.38 c 0,0 4.07,-6.01 6.35,-6.8 z"
       style="fill:none;stroke:#ffffff;stroke-width:3.08100009px;stroke-linecap:round;stroke-linejoin:round"
       id="path80"
       inkscape:connector-curvature="0" />
    <path
       d="m 133.5,29.26 c 0.45,1.67 9.52,4.46 9.52,4.46 a 11.83,11.83 0 0 1 7.3,6.35 10.87,10.87 0 0 1 -0.23,10.54 11.2,11.2 0 0 1 -9.46,5.86 12.22,12.22 0 0 1 -9.35,-3.21 11.45,11.45 0 0 1 -3.84,-7.47 11,11 0 0 1 1.63,-7.24 c 0,0 4.88,-7.62 4.43,-9.29"
       style="fill:#ffffff"
       id="path82"
       inkscape:connector-curvature="0" />
  </g>
  <g
     clip-path="url(#clip-path-2)"
     id="g88"
     transform="translate(-8.56,-9.9470208)">
    <path
       d="m 133.5,29.26 c 0.45,1.67 9.52,4.46 9.52,4.46 a 11.83,11.83 0 0 1 7.3,6.35 10.87,10.87 0 0 1 -0.23,10.54 11.2,11.2 0 0 1 -9.46,5.86 12.22,12.22 0 0 1 -9.35,-3.21 11.45,11.45 0 0 1 -3.84,-7.47 11,11 0 0 1 1.63,-7.24 c 0,0 4.93,-7.62 4.43,-9.29 z"
       style="fill:none;stroke:#ffffff;stroke-width:3.08100009px;stroke-linecap:round;stroke-linejoin:round"
       id="path86"
       inkscape:connector-curvature="0" />
  </g>
  <g
     clip-path="url(#clip-path-7)"
     id="g92"
     transform="translate(-8.56,-9.9470208)">
    <rect
       x="117.38"
       y="11.48"
       width="20.27"
       height="13.71"
       style="fill:url(#Unbenannter_Verlauf_5)"
       id="rect90" />
  </g>
  <g
     clip-path="url(#clip-path-8)"
     id="g96"
     transform="translate(-8.56,-9.9470208)">
    <rect
       x="121.67"
       y="11.48"
       width="15.93"
       height="17.780001"
       style="fill:url(#Unbenannter_Verlauf_2)"
       id="rect94" />
  </g>
  <g
     clip-path="url(#clip-path-9)"
     id="g100"
     transform="translate(-8.56,-9.9470208)">
    <rect
       x="101.64"
       y="17.559999"
       width="15.57"
       height="18.6"
       transform="rotate(-71.85,109.42017,26.861678)"
       style="fill:url(#Unbenannter_Verlauf_3)"
       id="rect98" />
  </g>
  <g
     clip-path="url(#clip-path-10)"
     id="g104"
     transform="translate(-8.56,-9.9470208)">
    <rect
       x="122.68"
       y="26.889999"
       width="33.82"
       height="32.189999"
       transform="rotate(-71.85,139.5831,42.980694)"
       style="fill:url(#Unbenannter_Verlauf_4)"
       id="rect102" />
  </g>
  <g
     clip-path="url(#clip-path)"
     id="g118"
     transform="translate(-8.56,-9.9470208)">
    <path
       d="M 11.34,40.93 A 6.21,6.21 0 0 0 8.56,46 v 13.36 a 6.2,6.2 0 0 0 2.78,5.06 10.69,10.69 0 0 0 6.66,2.07 10.79,10.79 0 0 0 6.63,-2.06 6.2,6.2 0 0 0 2.78,-5.06 v -2.29 l -6.22,1.52 v 0.77 A 2,2 0 0 1 20.27,61 3.78,3.78 0 0 1 17.97,61.7 3.75,3.75 0 0 1 15.64,61 2,2 0 0 1 14.74,59.33 V 46 a 2,2 0 0 1 0.9,-1.65 3.63,3.63 0 0 1 2.36,-0.7 3.55,3.55 0 0 1 2.29,0.73 2,2 0 0 1 0.9,1.62 v 1.6 h 6.19 V 46 A 6.21,6.21 0 0 0 24.6,40.93 10.73,10.73 0 0 0 18,38.87 10.77,10.77 0 0 0 11.37,40.93"
       style="fill:#ffffff"
       id="path106"
       inkscape:connector-curvature="0" />
    <path
       d="m 36.59,31.31 -5.53,1.39 v 33.79 h 6.19 V 46 a 2,2 0 0 1 0.9,-1.64 3.55,3.55 0 0 1 2.32,-0.72 3.62,3.62 0 0 1 2.3,0.73 2,2 0 0 1 0.93,1.63 v 20.49 h 6.18 V 46 a 6.18,6.18 0 0 0 -2.78,-5.07 10.74,10.74 0 0 0 -6.62,-2.06 7.47,7.47 0 0 0 -3.23,0.79 v -8.51 z"
       style="fill:#ffffff"
       id="path108"
       inkscape:connector-curvature="0" />
    <path
       d="M 66.77,59.37 A 2,2 0 0 1 65.84,61 3.78,3.78 0 0 1 63.54,61.7 3.69,3.69 0 0 1 61.21,61 2,2 0 0 1 60.31,59.34 V 58 l 7,-3.4 A 11.62,11.62 0 0 0 71.7,51.2 9.13,9.13 0 0 0 73,46 6.21,6.21 0 0 0 70.22,40.94 11.68,11.68 0 0 0 56.97,40.94 6.2,6.2 0 0 0 54.13,46 v 13.36 a 6.19,6.19 0 0 0 2.79,5.06 11.66,11.66 0 0 0 13.25,0 A 6.19,6.19 0 0 0 73,59.37 V 57.08 L 66.77,58.6 Z M 60.31,46 a 2,2 0 0 1 0.91,-1.64 4,4 0 0 1 4.61,0 2,2 0 0 1 0.94,1.64 4.94,4.94 0 0 1 -1.5,4 23.93,23.93 0 0 1 -5,2.65 z"
       style="fill:#ffffff"
       id="path110"
       inkscape:connector-curvature="0" />
    <path
       d="m 92.37,53.38 -6.14,-3.59 c -2,-1.27 -3,-2.63 -3,-4.06 a 2,2 0 0 1 0.9,-1.66 4.11,4.11 0 0 1 4.62,0 2,2 0 0 1 0.93,1.64 v 0.88 h 6.18 v -0.9 a 6.19,6.19 0 0 0 -2.78,-5 11.68,11.68 0 0 0 -13.25,0 6.2,6.2 0 0 0 -2.79,5 7.63,7.63 0 0 0 3.41,6.31 c 0,0 6.14,3.52 6.14,3.52 2,1.2 3.08,2.5 3.08,3.86 A 2,2 0 0 1 88.74,61 4.15,4.15 0 0 1 84.11,61 2,2 0 0 1 83.22,59.36 V 58 L 77,57 v 2.38 a 6.17,6.17 0 0 0 2.79,5.06 11.68,11.68 0 0 0 13.25,0 6.16,6.16 0 0 0 2.78,-5.05 c 0,-2.28 -1.17,-4.3 -3.48,-6"
       style="fill:#ffffff"
       id="path112"
       inkscape:connector-curvature="0" />
    <path
       d="m 114.75,53.38 -6.14,-3.59 c -2,-1.27 -3,-2.63 -3,-4.06 a 2,2 0 0 1 0.9,-1.66 4.13,4.13 0 0 1 4.63,0 1.92,1.92 0 0 1 0.93,1.64 h 6.18 v 0 a 6.2,6.2 0 0 0 -2.79,-5 11.67,11.67 0 0 0 -13.24,0 6.17,6.17 0 0 0 -2.79,5 7.65,7.65 0 0 0 3.39,6.29 l 6.18,3.49 c 2,1.2 3.08,2.5 3.08,3.86 a 2,2 0 0 1 -0.93,1.65 4.15,4.15 0 0 1 -4.63,0 2,2 0 0 1 -0.9,-1.64 V 58 l -6.18,-1 v 2.38 a 6.15,6.15 0 0 0 2.79,5.06 11.67,11.67 0 0 0 13.24,0 6.17,6.17 0 0 0 2.79,-5.05 c 0,-2.28 -1.17,-4.3 -3.48,-6"
       style="fill:#ffffff"
       id="path114"
       inkscape:connector-curvature="0" />
    <path
       d="m 128.2,65.43 a 3.65,3.65 0 0 1 -6.24,-2.6 3.65,3.65 0 0 1 3.65,-3.65 3.52,3.52 0 0 1 2.59,1.07 3.48,3.48 0 0 1 1.07,2.58 3.54,3.54 0 0 1 -1.07,2.6 m -4.82,-4.82 a 3,3 0 0 0 -0.92,2.23 3.09,3.09 0 0 0 0.92,2.24 3.14,3.14 0 0 0 4.46,0 3.08,3.08 0 0 0 0.91,-2.24 3.14,3.14 0 0 0 -5.37,-2.23 m 2.16,0.2 a 3.18,3.18 0 0 1 1.09,0.14 1,1 0 0 1 0.63,1 0.89,0.89 0 0 1 -0.39,0.8 1.57,1.57 0 0 1 -0.59,0.19 0.93,0.93 0 0 1 0.69,0.4 1,1 0 0 1 0.22,0.62 v 0.29 c 0,0.1 0,0.2 0,0.3 a 0.58,0.58 0 0 0 0,0.21 v 0 h -0.66 c 0,0 0,0 0,0 V 64.63 64.3 a 1,1 0 0 0 -0.37,-0.92 1.68,1.68 0 0 0 -0.79,-0.13 h -0.56 v 1.58 h -0.71 v -4 z m 0.76,0.63 a 1.84,1.84 0 0 0 -0.86,-0.15 h -0.6 v 1.46 h 0.64 a 1.89,1.89 0 0 0 0.67,-0.09 0.72,0.72 0 0 0 0.15,-1.22"
       style="fill:#ffffff"
       id="path116"
       inkscape:connector-curvature="0" />
  </g>
</svg>
