<?xml version="1.0" encoding="utf-8"?>
<!-- Generator: Adobe Illustrator 24.1.3, SVG Export Plug-In . SVG Version: 6.00 Build 0)  -->
<svg version="1.1" id="Ebene_1" xmlns="http://www.w3.org/2000/svg" xmlns:xlink="http://www.w3.org/1999/xlink" x="0px" y="0px"
	 viewBox="0 0 242 40" style="enable-background:new 0 0 242 40;" xml:space="preserve">
<style type="text/css">
	.st0{fill:#FFFFFF;}
</style>
<g>
	<path class="st0" d="M79.33,6.7c-7.63,0-13.69,6.1-13.69,13.56v18.11c0,0.95,0.75,1.63,1.7,1.63c0.82,0,1.64-0.68,1.64-1.63V20.26
		c0-5.7,4.63-10.24,10.35-10.31c5.65,0.07,10.22,4.61,10.22,10.31v18.11c0,0.95,0.75,1.63,1.64,1.63c0.88,0,1.63-0.68,1.63-1.63
		V20.26C92.82,12.8,86.82,6.7,79.33,6.7z"/>
	<path class="st0" d="M17.17,9.95c3.2,0,6.2,1.08,8.58,2.98c0.75,0.54,1.7,0.34,2.25-0.27c0.61-0.75,0.48-1.76-0.2-2.24
		c-2.93-2.31-6.68-3.66-10.63-3.66C7.63,6.77,0,14.09,0,23.32C0,32.67,7.63,40,17.17,40c3.95,0,7.7-1.36,10.49-3.53
		c0.82-0.61,0.95-1.63,0.34-2.37c-0.54-0.61-1.5-0.81-2.25-0.27c-2.38,1.83-5.38,2.92-8.58,2.92c-7.77,0-13.9-5.97-13.9-13.43
		C3.27,15.99,9.4,9.95,17.17,9.95z"/>
	<path class="st0" d="M181.05,26.61l-10.28,10.34c-0.68,0.68-0.68,1.79,0,2.48c0.33,0.33,0.77,0.51,1.23,0.51
		c0.47,0,0.9-0.18,1.23-0.51l10.29-10.34c0.68-0.68,0.68-1.79,0-2.48S181.73,25.93,181.05,26.61z"/>
	<path class="st0" d="M181.05,20.21c0.33,0.33,0.77,0.51,1.23,0.51c0.47,0,0.9-0.18,1.23-0.51c0.68-0.68,0.68-1.79,0-2.48
		L173.23,7.39c-0.68-0.68-1.78-0.68-2.46,0c-0.68,0.68-0.68,1.79,0,2.48L181.05,20.21z"/>
	<path class="st0" d="M229.96,20.74c0.47,0,0.9-0.18,1.23-0.51l10.29-10.36c0.68-0.68,0.68-1.8,0-2.48s-1.78-0.68-2.46,0
		l-10.28,10.36c-0.68,0.68-0.68,1.8,0,2.48C229.06,20.56,229.5,20.74,229.96,20.74z"/>
	<path class="st0" d="M231.2,26.65c-0.68-0.68-1.78-0.68-2.46,0c-0.68,0.68-0.68,1.8,0,2.48l10.29,10.36
		c0.33,0.33,0.77,0.51,1.23,0.51c0.47,0,0.9-0.18,1.23-0.51c0.68-0.68,0.68-1.8,0-2.48L231.2,26.65z"/>
	<path class="st0" d="M200.17,7.39l-10.28,10.34c-0.68,0.68-0.68,1.79,0,2.48c0.33,0.33,0.77,0.51,1.23,0.51s0.9-0.18,1.23-0.51
		l10.29-10.34c0.68-0.68,0.68-1.79,0-2.48C201.96,6.71,200.85,6.71,200.17,7.39z"/>
	<path class="st0" d="M192.35,26.61c-0.68-0.68-1.78-0.68-2.46,0c-0.68,0.68-0.68,1.79,0,2.48l10.29,10.34
		c0.33,0.33,0.77,0.51,1.23,0.51c0.47,0,0.9-0.18,1.23-0.51c0.68-0.68,0.68-1.79,0-2.48L192.35,26.61z"/>
	<path class="st0" d="M219.9,26.65l-10.28,10.36c-0.68,0.68-0.68,1.8,0,2.48c0.33,0.33,0.77,0.51,1.23,0.51
		c0.47,0,0.9-0.18,1.23-0.51l10.29-10.36c0.68-0.68,0.68-1.8,0-2.48S220.58,25.96,219.9,26.65z"/>
	<path class="st0" d="M219.9,20.23c0.33,0.33,0.77,0.51,1.23,0.51c0.47,0,0.9-0.18,1.23-0.51c0.68-0.68,0.68-1.8,0-2.48L212.08,7.39
		c-0.68-0.68-1.78-0.68-2.46,0s-0.68,1.8,0,2.48L219.9,20.23z"/>
	<path class="st0" d="M111.42,8.68h-6.18V1.85c0-0.53-0.18-0.97-0.53-1.32C104.37,0.18,103.92,0,103.39,0
		c-0.54,0-0.98,0.18-1.33,0.52c-0.35,0.35-0.52,0.79-0.52,1.32v6.83h-4.51c-0.49,0-0.92,0.16-1.27,0.49s-0.53,0.74-0.53,1.23
		s0.18,0.9,0.53,1.23s0.77,0.49,1.27,0.49h4.51v20.8c0,2.26,0.4,3.9,1.2,4.92c0.8,1.03,1.64,1.64,2.5,1.85
		c0.87,0.21,1.85,0.31,2.97,0.31c0.91,0,1.69-0.19,2.35-0.58c0.66-0.39,0.99-0.87,0.99-1.45c0-0.41-0.13-0.77-0.4-1.08
		c-0.27-0.31-0.59-0.46-0.96-0.46c-0.21,0-0.49,0.05-0.86,0.15c-0.37,0.1-0.68,0.15-0.93,0.15c-0.95,0-1.71-0.28-2.29-0.83
		c-0.58-0.55-0.87-1.61-0.87-3.17v-20.6h6.18c0.49,0,0.91-0.15,1.24-0.46c0.33-0.31,0.49-0.71,0.49-1.2c0-0.45-0.18-0.86-0.53-1.23
		C112.28,8.86,111.88,8.68,111.42,8.68z"/>
	<path class="st0" d="M160.96,8.46c-2.27-1.16-4.75-1.75-7.35-1.75c-2.64,0-5.16,0.68-7.5,2.03c-2.34,1.34-4.24,3.31-5.64,5.86
		c-1.41,2.54-2.12,5.55-2.12,8.95c0,3.23,0.72,6.11,2.15,8.57s3.45,4.4,6,5.76c2.56,1.37,5.55,2.06,8.89,2.06
		c2.34,0,4.59-0.52,6.69-1.56c2.1-1.03,3.87-2.37,5.26-3.99c0.42-0.4,0.62-0.81,0.62-1.23c0-0.38-0.16-0.72-0.48-1.03
		c-0.67-0.64-1.51-0.61-2.39,0.07c-1,1.29-2.36,2.38-4.04,3.22s-3.61,1.27-5.73,1.27c-2.74,0-5.14-0.59-7.15-1.75
		s-3.58-2.76-4.66-4.77c-1.08-2-1.63-4.3-1.63-6.83V23.2h25.04c0.48,0,0.91-0.16,1.27-0.48l0.02-0.01c0.36-0.32,0.55-0.72,0.55-1.18
		c-0.04-3.06-0.79-5.74-2.22-7.97C165.11,11.34,163.23,9.62,160.96,8.46z M142.18,20.11l0.03-0.17c0.62-3.16,2.04-5.62,4.23-7.32
		c2.19-1.69,4.6-2.54,7.17-2.54c1.77,0,3.5,0.37,5.16,1.11s3.06,1.83,4.17,3.25s1.78,3.1,2.01,5.01v0.66H142.18z"/>
	<path class="st0" d="M53.59,8.46c-2.27-1.16-4.75-1.75-7.35-1.75c-2.64,0-5.16,0.68-7.5,2.03c-2.34,1.34-4.24,3.31-5.64,5.86
		c-1.41,2.54-2.12,5.55-2.12,8.95c0,3.23,0.72,6.11,2.15,8.57c1.43,2.46,3.45,4.4,6,5.76c2.56,1.37,5.55,2.06,8.89,2.06
		c2.34,0,4.59-0.52,6.69-1.56c2.1-1.03,3.87-2.37,5.26-3.99c0.42-0.4,0.62-0.81,0.62-1.23c0-0.38-0.16-0.72-0.48-1.03
		c-0.67-0.64-1.51-0.61-2.39,0.07c-1,1.29-2.36,2.38-4.04,3.22s-3.61,1.27-5.73,1.27c-2.74,0-5.14-0.59-7.15-1.75
		c-2.01-1.16-3.58-2.76-4.66-4.77c-1.08-2-1.63-4.3-1.63-6.83V23.2h25.04c0.48,0,0.91-0.16,1.27-0.48l0.02-0.01
		c0.36-0.32,0.55-0.72,0.55-1.18c-0.04-3.06-0.79-5.74-2.22-7.97C57.74,11.34,55.86,9.62,53.59,8.46z M34.81,20.11l0.03-0.17
		c0.62-3.16,2.04-5.62,4.23-7.32c2.19-1.69,4.6-2.54,7.17-2.54c1.77,0,3.5,0.37,5.16,1.11s3.06,1.83,4.17,3.25s1.78,3.1,2.01,5.01
		v0.66H34.81z"/>
	<path class="st0" d="M137.51,8.01c-1.75-0.84-3.72-1.31-5.8-1.31c-7.63,0-13.69,6.1-13.69,13.56v18.11c0,0.95,0.75,1.63,1.7,1.63
		c0.82,0,1.63-0.68,1.63-1.63V20.26c0-5.7,4.63-10.24,10.36-10.31c1.43,0.02,2.78,0.32,4.01,0.85c0,0,1.72,0.78,2.39-0.57
		S137.51,8.01,137.51,8.01z"/>
</g>
</svg>
