<svg xmlns="http://www.w3.org/2000/svg" viewBox="0 0 500 500"><path d="M429.7 312.5V132.8c0-25.8-21-46.9-46.9-46.9H117.2c-25.8 0-46.9 21-46.9 46.9V207H43c-6.5 0-11.7 5.2-11.7 11.7s5.2 11.7 11.7 11.7h27.3v82H31.2V328c0 34.5 28 62.5 62.5 62.5h312.5c34.5 0 62.5-28 62.5-62.5v-15.6h-39zm-328.1-82h139.7l-30.8 30.8c-4.6 4.6-4.6 12 0 16.6 2.3 2.3 5.3 3.4 8.3 3.4s6-1.1 8.3-3.4l59.1-59.1-59.2-59.1c-4.6-4.6-12-4.6-16.6 0-4.6 4.6-4.6 12 0 16.6l30.8 30.8H101.6v-74.2c0-8.6 7-15.6 15.6-15.6h265.6c8.6 0 15.6 7 15.6 15.6v179.7H101.6v-82.1zm304.6 128.9H93.8c-11.5 0-21.6-6.3-27.1-15.6h366.6c-5.4 9.3-15.5 15.6-27.1 15.6z" style="fill:#0019a5"/></svg>
