<svg id="icon" xmlns="http://www.w3.org/2000/svg" viewBox="0 0 192 192"><defs><style>.cls-1{fill:none;}</style></defs><rect class="cls-1" width="192" height="192"/><rect class="cls-1" width="192" height="192"/><path d="M153.38,112.23a24.89,24.89,0,0,0-37.61,32.62c.35.39.7.78,1.07,1.15H75.33a25,25,0,1,0-18.21,8h77.94a24.89,24.89,0,0,0,18.32-41.79ZM57.12,146a16.94,16.94,0,1,1,16.93-16.95h0A17,17,0,0,1,57.12,146Zm78,0A16.94,16.94,0,1,1,152,129v.09A16.94,16.94,0,0,1,135.1,146Z"/><path d="M55.5,68H126V88.4l24.9-24.9L126,38.6V59H55.5a4.5,4.5,0,0,0,0,9Z"/></svg>