<svg id="Ebene_1" data-name="Ebene 1" xmlns="http://www.w3.org/2000/svg" viewBox="0 0 64 64"><path d="M0 0h64v64H0z" fill="none"/><path d="M50.83 16l5.58-5.59a2 2 0 0 0-2.82-2.82L48 13.17l-5.58-5.58a2 2 0 0 0-2.83 2.82L45.17 16l-5.58 5.59a2 2 0 0 0 0 2.82A2 2 0 0 0 41 25a2 2 0 0 0 1.42-.59L48 18.83l5.59 5.58A2 2 0 0 0 55 25a2 2 0 0 0 1.42-3.41zM43 37.94a2 2 0 0 0-2.79 0l-2.71 2.73-3.7-3.15a74 74 0 0 1-7-7l-3.18-3.73 2.73-2.72a2 2 0 0 0 0-2.8l-9.85-9.85a2 2 0 0 0-2.8 0L11 14.21a2.26 2.26 0 0 0-.28.35 4.94 4.94 0 0 0-1 2.91c-.6 3.32 5.69 12.62 15.11 22s18.73 15.72 22 15.11a4.94 4.94 0 0 0 2.91-1 3 3 0 0 0 .35-.27l2.76-2.76a2 2 0 0 0 0-2.8z"/></svg>