<svg id="Ebene_1" data-name="Ebene 1" xmlns="http://www.w3.org/2000/svg" viewBox="0 0 64 64"><path d="M0 0h64v64H0z" fill="none"/><path d="M27.71 57.31L31 59.93V46H20.11a35.48 35.48 0 0 0 7.6 11.31zM17.3 31H31V20H19.34a35.83 35.83 0 0 0-2.04 11zm-.07-11H6.7A27.74 27.74 0 0 0 4 31h11.3a38 38 0 0 1 1.93-11zm2.1 24H31V33H17.3a35.82 35.82 0 0 0 2.03 11zm17-37.28L33 4.08V18h10.9a35.61 35.61 0 0 0-7.61-11.28zM15.3 33H4a27.74 27.74 0 0 0 2.7 11h10.52a37.67 37.67 0 0 1-1.92-11zm4.82-15H31V4.09l-3.29 2.63A35.66 35.66 0 0 0 20.12 18zm24.57 2H33v11h13.72a35.7 35.7 0 0 0-2.03-11zm4 11H60a27.92 27.92 0 0 0-2.7-11H46.8a37.91 37.91 0 0 1 1.92 11zM26.33 58.76A37.57 37.57 0 0 1 17.94 46H7.76A28 28 0 0 0 27.4 59.62l-1-.78zM33 46v13.93l3.29-2.62A35.79 35.79 0 0 0 43.92 46zm4.67 12.76l-.09.07-1 .79A28 28 0 0 0 56.24 46H46.08a37.8 37.8 0 0 1-8.41 12.76zM26.33 5.27l.09-.07 1-.82A28 28 0 0 0 7.76 18H18a37.82 37.82 0 0 1 8.33-12.73zm11.34 0A37.8 37.8 0 0 1 46.07 18h10.17A28 28 0 0 0 36.56 4.38l1 .82zm9 27.73H33v11h11.7a35.69 35.69 0 0 0 2.02-11zm2 0a37.9 37.9 0 0 1-1.91 11H57.3A27.75 27.75 0 0 0 60 33z"/></svg>