<svg id="Ebene_1" data-name="Ebene 1" xmlns="http://www.w3.org/2000/svg" viewBox="0 0 64 64"><path d="M0 0h64v64H0z" fill="none"/><path d="M38.21 23l12.4-12.4L44 4h16v16l-6.6-6.6L41 25.81a2 2 0 0 1-2.8-2.8zM7.49 16.22c-.57 4.1 6.22 13.72 16.4 23.9s19.8 17 23.9 16.41A6.16 6.16 0 0 0 51.47 55l2.83-2.83a2.13 2.13 0 0 0 0-2.82L43.69 38.71a2.13 2.13 0 0 0-2.82 0L38 41.54a49.82 49.82 0 0 1-8.49-7.07A49.82 49.82 0 0 1 22.48 26l2.83-2.83a2.15 2.15 0 0 0 0-2.83L14.7 9.72a2.15 2.15 0 0 0-2.83 0l-2.82 2.83a6.08 6.08 0 0 0-1.56 3.67z"/></svg>