<svg id="Ebene_1" data-name="Ebene 1" xmlns="http://www.w3.org/2000/svg" viewBox="0 0 64 64"><path d="M0 0h64v64H0z" fill="none"/><path d="M36 57h-8v-8c-1 .07-2 .16-3 .29V58a2.1 2.1 0 0 0 2.13 2.06h9.74A2.1 2.1 0 0 0 39 58v-8.72q-1.52-.2-3-.3zm23.71-23.81C50 28.91 42.77 18.77 41.33 7.86a4.08 4.08 0 0 0-3-3.2A28.06 28.06 0 0 0 32.05 4a30.7 30.7 0 0 0-6.26.66 4.07 4.07 0 0 0-3 3.2C21.19 18.42 14.9 28.63 5.24 32.8c-1.45.63-3.13 1.05-3.13 3.62a27.31 27.31 0 0 0 3.7 13.28 3 3 0 0 0 2.76 1.5 3.44 3.44 0 0 0 1.25-.2A61.13 61.13 0 0 1 32 46.82a68.24 68.24 0 0 1 21.63 3.94 6.11 6.11 0 0 0 1.89.34 3 3 0 0 0 2.66-1.28 29.84 29.84 0 0 0 3.67-13 3.76 3.76 0 0 0-2.14-3.63zm-1.12 6.44l-6.39-2-.6 1.91 6.6 2.09c-.16.68-.34 1.35-.55 2L51 41.5l-.61 1.9L57 45.49a26.64 26.64 0 0 1-1.22 2.6h-.18a2.94 2.94 0 0 1-1-.19c-8.38-2.79-15.55-4.09-22.57-4.09a64.55 64.55 0 0 0-23.25 4.37H8.4a29.08 29.08 0 0 1-1.34-2.76l6.51-2.06-.57-1.91-6.63 2.1c-.23-.67-.41-1.33-.58-2l6.59-2.09-.61-1.9-6.38 2a21.13 21.13 0 0 1-.25-3.16 1.6 1.6 0 0 1 0-.28 8.32 8.32 0 0 1 .86-.36l.47-.2C16.49 31.21 23.88 20.77 25.72 8.3c.06-.43.63-.69.68-.7.83-.18 1.65-.3 2.47-.4V14h2V7h2v7h2V7.14a23.39 23.39 0 0 1 2.78.45 1.2 1.2 0 0 1 .71.66c1.59 12.13 9.5 23 20.14 27.68a.73.73 0 0 1 .39.78 28.31 28.31 0 0 1-.3 2.92zM31.87 20a10 10 0 1 0 10 10 10 10 0 0 0-10-10zm0 18a8 8 0 1 1 8-8 8 8 0 0 1-8 8z"/></svg>