<svg id="Ebene_1" data-name="Ebene 1" xmlns="http://www.w3.org/2000/svg" viewBox="0 0 64 64"><path fill="none" d="M0 0h64v64H0z"/><path d="M32 46a10 10 0 0 1-6.89-2.85L42 26.21V36a10.18 10.18 0 0 1-10 10zm15.45-14H44v4a12 12 0 0 1-20.37 8.59l-2.12 2.12A15 15 0 0 0 30 50.88V55h-8a2 2 0 0 0-2 2v3h24v-3a2 2 0 0 0-2-2h-8v-4.12A15 15 0 0 0 47 36v-1h.44a1.5 1.5 0 0 0 0-3zM57.57 4.49a1.51 1.51 0 0 0-2.12 0L42 17.94V14A10.18 10.18 0 0 0 32 4a10.18 10.18 0 0 0-10 10v22a8.69 8.69 0 0 0 .18 1.76l-1.67 1.67A11.73 11.73 0 0 1 20 36v-4h-3.45a1.5 1.5 0 1 0 0 3H17v1a14.9 14.9 0 0 0 1.16 5.74L4.45 55.49A1.5 1.5 0 1 0 6.12 58a1.55 1.55 0 0 0 .33-.3l.07-.07 51-51a1.5 1.5 0 0 0 .05-2.14z"/></svg>