<svg id="Ebene_1" data-name="Ebene 1" xmlns="http://www.w3.org/2000/svg" viewBox="0 0 64 64"><defs><style>.cls-1{fill:none;}</style></defs><rect class="cls-1" width="64" height="64"/><path d="M60,9H4a2,2,0,0,0-2,2V53a2,2,0,0,0,2,2H60a2,2,0,0,0,2-2V11A2,2,0,0,0,60,9ZM19,38a2,2,0,0,1-2,2H15V50a1,1,0,0,1-2,0V40H11a2,2,0,0,1-2-2V26a2,2,0,0,1,2-2h2V14a1,1,0,0,1,2,0V24h2a2,2,0,0,1,2,2Zm18,6a2,2,0,0,1-2,2H33v4a1,1,0,0,1-2,0V46H29a2,2,0,0,1-2-2V32a2,2,0,0,1,2-2h2V14a1,1,0,0,1,2,0V30h2a2,2,0,0,1,2,2ZM55,32a2,2,0,0,1-2,2H51V50a1,1,0,0,1-2,0V34H47a2,2,0,0,1-2-2V20a2,2,0,0,1,2-2h2V14a1,1,0,0,1,2,0v4h2a2,2,0,0,1,2,2Z"/></svg>