<svg id="icon" xmlns="http://www.w3.org/2000/svg" viewBox="0 0 192 192"><defs><style>.cls-1{fill:none;}</style></defs><rect class="cls-1" width="192" height="192"/><circle cx="95.85" cy="32" r="24"/><path d="M144,95.7a13.69,13.69,0,0,0-1.58-5.18c-.37-.6-.75-1.27-1.2-1.87a3.25,3.25,0,0,1-.37-.52,19.52,19.52,0,0,0-1.65-1.87,38.6,38.6,0,0,0-8.48-6.15c-.9-.45-1.8-1-2.77-1.42-8.48-4-19.73-6.67-32-6.67A80.34,80.34,0,0,0,71,75.9a60.74,60.74,0,0,0-7.12,2.85c-1,.45-1.87.9-2.78,1.42a37.15,37.15,0,0,0-8.47,6.15A19.43,19.43,0,0,0,51,88.2a3.25,3.25,0,0,0-.37.52,13.62,13.62,0,0,0-1.2,1.88A10.66,10.66,0,0,0,48,95.85V120h96Z"/><path d="M168,136H24a8,8,0,0,0,0,16H40v24H152V152h16a8,8,0,0,0,0-16Z"/></svg>