<svg id="Ebene_1" data-name="Ebene 1" xmlns="http://www.w3.org/2000/svg" viewBox="0 0 64 64"><path d="M0 0h64v64H0z" fill="none"/><path d="M47.38 16.27l1.08-2.33a1 1 0 0 0-.46-1.33l-3.63-1.69a1 1 0 0 0-1.32.49l-.82 1.75a25 25 0 0 0-7.21-2v-1.7H29v1.72a25.12 25.12 0 0 0-7 1.92L21 11a1 1 0 0 0-1.32-.49L16 12.15a1 1 0 0 0-.48 1.33l1.25 2.69A25 25 0 0 0 32 61h.09a25 25 0 0 0 15.29-44.7zm.26 35.2A22 22 0 0 1 32.09 58H32a22 22 0 1 1 22-22.09 21.7 21.7 0 0 1-6.36 15.56zM34.77 36A2.77 2.77 0 1 0 32 38.74a3.08 3.08 0 0 0 1.25-.26l12.41 12.41 1.25-1.34L34.5 37.14a2.48 2.48 0 0 0 .27-1.14zM32 16v15.51A4.43 4.43 0 0 1 36.47 36v.62l11.46 11.45A19.64 19.64 0 0 0 52 35.92 20 20 0 0 0 32 16zm5-11a2 2 0 0 0-2-2h-6a2 2 0 0 0-2 2v2.46h10z"/></svg>