<svg id="Ebene_1" data-name="Ebene 1" xmlns="http://www.w3.org/2000/svg" viewBox="0 0 64 64"><path fill="none" d="M0 0h64v64H0z"/><path d="M38 53v1.1a6 6 0 0 1-12 0V53zm17.8-4.9l-4.3-21.2a22.48 22.48 0 0 0-2-6.3L19.23 51H54a1.87 1.87 0 0 0 2-1.72 1.61 1.61 0 0 0 0-.38zm3.73-43.64a1.51 1.51 0 0 0-2.12 0L46.24 15.62A18.22 18.22 0 0 0 37 9.8V9a4.79 4.79 0 0 0-4.57-5H32a5 5 0 0 0-5 5v1c-7.7 1.9-13.3 9-14.5 16.9L8.2 48.1l-.2.8A1.87 1.87 0 0 0 9.62 51a1.61 1.61 0 0 0 .38 0h.86l-6.42 6.43a1.5 1.5 0 1 0 1.67 2.49 1.55 1.55 0 0 0 .33-.3l.07-.07 53-53a1.5 1.5 0 0 0 .02-2.09z"/></svg>