<svg id="Ebene_1" data-name="Ebene 1" xmlns="http://www.w3.org/2000/svg" viewBox="0 0 64 64"><path d="M0,0H64V64H0Z" style="fill:none"/><path d="M50,4H8A2,2,0,0,0,6,6V58a2,2,0,0,0,2,2H50a2,2,0,0,0,2-2V6A2,2,0,0,0,50,4ZM13,57H9V7h4Zm36,0H15V7H49Zm5-15V56h2a1,1,0,0,0,1-1V41.82A3.05,3.05,0,0,1,56,42ZM56,8H54V24h2a1,1,0,0,0,1-1V9A1,1,0,0,0,56,8ZM54,26V40h2a1,1,0,0,0,1-1V25.82A3.05,3.05,0,0,1,56,26ZM43.47,37.86A4.89,4.89,0,0,0,38.67,33H25.79A4.89,4.89,0,0,0,21,37.86v1.8H43.47ZM32,31a5.12,5.12,0,0,0,5-5.31V21.31a5,5,0,1,0-10,0v4.38A5.12,5.12,0,0,0,32,31Z"/></svg>
