<svg id="Ebene_1" data-name="Ebene 1" xmlns="http://www.w3.org/2000/svg" viewBox="0 0 64 64"><path fill="none" d="M0 0h64v64H0z"/><path d="M52 32a20.13 20.13 0 0 0-.33-3.55l6.78-5.64a28.07 28.07 0 0 0-5.26-9.11l-8.27 3a20 20 0 0 0-6.16-3.55l-1.5-8.7a27.78 27.78 0 0 0-10.52 0l-1.5 8.69a19.85 19.85 0 0 0-6.16 3.55l-8.27-3a28.07 28.07 0 0 0-5.26 9.11l6.78 5.64a19.26 19.26 0 0 0 0 7.1L5.55 41.2a28.07 28.07 0 0 0 5.26 9.11l8.27-3a20 20 0 0 0 6.16 3.55l1.5 8.69a27.78 27.78 0 0 0 10.52 0l1.5-8.69a19.85 19.85 0 0 0 6.16-3.55l8.27 3a28.07 28.07 0 0 0 5.26-9.11l-6.78-5.64A19.33 19.33 0 0 0 52 32zm2.86 10.12a25 25 0 0 1-2.67 4.62L46 44.44l-1.64-.6L43 45a16.84 16.84 0 0 1-5.23 3l-1.64.59-.3 1.72-1.13 6.56a25.08 25.08 0 0 1-5.34 0L28.2 50.3l-.3-1.72-1.64-.58A17 17 0 0 1 21 45l-1.34-1.13-1.64.6-6.24 2.3a24.49 24.49 0 0 1-2.68-4.62l5.11-4.26 1.34-1.12-.26-1.77a16.35 16.35 0 0 1 0-6l.31-1.72-1.34-1.12-5.12-4.28a24.49 24.49 0 0 1 2.68-4.62l6.24 2.3 1.64.6L21 19a16.84 16.84 0 0 1 5.23-3l1.64-.59.3-1.72 1.13-6.56C30.2 7 31.1 7 32 7a26.53 26.53 0 0 1 2.67.14l1.13 6.56.3 1.72 1.64.59A16.76 16.76 0 0 1 43 19l1.33 1.13 1.64-.6 6.24-2.3a25 25 0 0 1 2.67 4.62l-5.11 4.26-1.34 1.12.29 1.77a16.2 16.2 0 0 1 0 6l-.31 1.72 1.34 1.12zM32 19.49A12.52 12.52 0 1 0 44.52 32 12.52 12.52 0 0 0 32 19.49zm0 22A9.52 9.52 0 1 1 41.52 32 9.53 9.53 0 0 1 32 41.52z"/></svg>