<svg id="Ebene_1" data-name="Ebene 1" xmlns="http://www.w3.org/2000/svg" viewBox="0 0 64 64"><path fill="none" d="M0 0h64v64H0z"/><path d="M48.12 57.21c-7 0-20.53-13-24.5-16.92C17.05 33.73 6.16 21.8 6.93 15.71a9.69 9.69 0 0 1 2.55-5.83l2.12-2.12a3.63 3.63 0 0 1 5 0l10.55 10.61a3.63 3.63 0 0 1 0 5l-2 2a56.19 56.19 0 0 0 6.2 7.23 56.19 56.19 0 0 0 7.23 6.2l2-2a3.65 3.65 0 0 1 5 0l10.57 10.56a3.65 3.65 0 0 1 0 5l-2.83 2.83a7.76 7.76 0 0 1-4.61 2 3.81 3.81 0 0 1-.59.02zm-34-47.41a.54.54 0 0 0-.35.09L11.6 12a6.7 6.7 0 0 0-1.69 4c-.33 2.64 3.62 10 15.83 22.17 11.08 11.08 19.22 16 22.38 16h.28A5 5 0 0 0 51.19 53L54 50.19a.75.75 0 0 0 0-.71l-10.58-10.6a.73.73 0 0 0-.7 0l-3.66 3.66-1-.6a51.13 51.13 0 0 1-8.77-7.3A51.07 51.07 0 0 1 22 25.86l-.6-1L25 21.2a.73.73 0 0 0 0-.7L14.43 9.88a.57.57 0 0 0-.36-.09z"/></svg>