<svg id="Ebene_1" data-name="Ebene 1" xmlns="http://www.w3.org/2000/svg" viewBox="0 0 64 64"><path fill="none" d="M0 0h64v64H0z"/><path d="M26 28h25v6H26zm.5 12h6a.47.47 0 0 0 .5-.44V37.5a.47.47 0 0 0-.44-.5H26.5a.47.47 0 0 0-.5.44v2.06a.47.47 0 0 0 .44.5zm24-3h-6a.47.47 0 0 0-.5.44v2.06a.47.47 0 0 0 .44.5h6.06a.47.47 0 0 0 .5-.44V37.5a.47.47 0 0 0-.44-.5zm-9 0h-6a.47.47 0 0 0-.5.44v2.06a.47.47 0 0 0 .44.5h6.06a.47.47 0 0 0 .5-.44V37.5a.47.47 0 0 0-.44-.5zm-15 8h6a.47.47 0 0 0 .5-.44V42.5a.47.47 0 0 0-.44-.5H26.5a.47.47 0 0 0-.5.44v2.06a.47.47 0 0 0 .44.5zm24-3h-6a.47.47 0 0 0-.5.44v2.06a.47.47 0 0 0 .44.5h6.06a.47.47 0 0 0 .5-.44V42.5a.47.47 0 0 0-.44-.5zm-9 0h-6a.47.47 0 0 0-.5.44v2.06a.47.47 0 0 0 .44.5h6.06a.47.47 0 0 0 .5-.44V42.5a.47.47 0 0 0-.44-.5zm-15 8h6a.47.47 0 0 0 .5-.44V47.5a.47.47 0 0 0-.44-.5H26.5a.47.47 0 0 0-.5.44v2.06a.47.47 0 0 0 .44.5zm24-3h-6a.47.47 0 0 0-.5.44v2.06a.47.47 0 0 0 .44.5h6.06a.47.47 0 0 0 .5-.44V47.5a.47.47 0 0 0-.44-.5zm-9 0h-6a.47.47 0 0 0-.5.44v2.06a.47.47 0 0 0 .44.5h6.06a.47.47 0 0 0 .5-.44V47.5a.47.47 0 0 0-.44-.5zM27 7h25v12h3V6a2 2 0 0 0-2-2H26a2 2 0 0 0-2 2v13h3z"/><path d="M58 21H6a2 2 0 0 0-2 2v33a2 2 0 0 0 2 2h52a2 2 0 0 0 2-2V23a2 2 0 0 0-2-2zM18 55H7V24h11zm39 0H20V24h37z"/></svg>