<svg xmlns="http://www.w3.org/2000/svg" viewBox="0 0 262 229.83"><defs><style>.cls-1{fill:#ebf6fd;}.cls-2{fill:#065574;}.cls-3{fill:#fefefe;}.cls-4{fill:#dceffb;}.cls-5{fill:#137693;}.cls-6{fill:#147694;}.cls-7{fill:#a0d6f5;}.cls-8{fill:#075674;}.cls-9{fill:#014462;}.cls-10{fill:#eaf5fc;}.cls-11{fill:#9ebfd0;}.cls-12{fill:#2d98bd;}.cls-13{fill:#4187a3;}.cls-14{fill:#034563;}.cls-15{fill:#064866;}.cls-16{fill:#0eb5e9;}.cls-17{fill:#d1e2ec;}.cls-18{fill:#9fd6f5;}.cls-19{fill:#9bd3f2;}.cls-20{fill:#3e86a2;}.cls-21{fill:#064d6b;}.cls-22{fill:#6298b2;}.cls-23{fill:#aacad7;}.cls-24{fill:#e8f5fd;}.cls-25{fill:#18b9eb;}.cls-26{fill:#fdfefe;}</style></defs><g id="Layer_2" data-name="Layer 2"><g id="Layer_1-2" data-name="Layer 1"><path class="cls-1" d="M244.88,98.54c2,.89,4.15,1.62,6.07,2.7a20.85,20.85,0,0,1,8.66,9,45.36,45.36,0,0,1,2.14,6.69c.07.23.17.45.25.67v6.5c-.09.47-.19.94-.28,1.42-1.43,7.3-3.17,14.5-6.73,21.13a38.2,38.2,0,0,1-10.34,12.31c-4.2,3.24-8.63,6.18-13,9.18-7.22,4.95-14.57,9.72-21.7,14.79-4.65,3.32-9.07,7-13.47,10.61-4.15,3.44-8.17,7-12.16,10.65-3.21,2.9-6.28,5.94-9.44,8.89-1.64,1.53-3.28,3.06-5,4.45A54.85,54.85,0,0,1,157.52,225a56.64,56.64,0,0,1-16.26,4.39c-1.09.12-2.17.33-3.26.49H127c-.2-.16-.38-.45-.59-.47a59.44,59.44,0,0,1-15.26-3.78,57.71,57.71,0,0,1-22.82-15.5A48.06,48.06,0,0,1,79,194.64l47.71-9.28c0,.5,0,.9,0,1.31a12.21,12.21,0,0,0,1.14,6.06c2.65,5.6,5.27,11.21,7.91,16.82.76,1.6,1.52,3.19,2.35,4.91.2-.33.32-.5.41-.68,3.38-7.19,6.78-14.36,10.12-21.57a9.14,9.14,0,0,0,.87-5.83c-.38-1.72-1-3.39-1.56-5.08l7.71-1.49q22.08-4.26,44.16-8.53c3.22-.62,3.9-3.31,3.48-5.92,0-.16-.34-.27-.52-.41a4.77,4.77,0,0,0-.8-.49q-13.62-4.85-27.25-9.65l-31.85-11.23c-.09-.58-.17-1.15-.27-1.73q-1.58-9.53-3.17-19c1.36-.1,2.72-.27,4.08-.28,1.15,0,2.31.25,3.46.23s2.12-.37,3.18-.36a38.61,38.61,0,0,1,3.84.45V124c.38,0,.67.06.95.06q36.78,0,73.54,0a1.49,1.49,0,0,0,1.47-.86q2.46-4.12,5-8.22c.17-.28.54-.44.82-.66,1.08,2.87,2.2,5.72,3.22,8.61a1.47,1.47,0,0,0,1.72,1.13c1.87-.07,3.75,0,5.62,0h3.81c-.43-1.38-.79-2.56-1.17-3.74q-3-9.36-6-18.72Z"/><path class="cls-2" d="M11.7,152.7c-.31-2-.68-4.07-.93-6.11q-1.61-13.51-3.17-27L4.75,95.14,1.6,68.36Q.94,62.72.27,57.08A4.21,4.21,0,0,0,0,56.33V54.58s.1,0,.11-.06c1-4.06,4.19-5.55,8.55-4.84,9.93,1.63,19.92,3,29.88,4.41,1.15.17,2.31.31,3.46.46,2.75.43,5.5.86,8.25,1.27l28.12,4.11,31.08,4.53c4.77.71,9.53,1.45,14.31,2.11,4,.56,6.61,2.91,7.29,6.9q3.13,18.39,6.22,36.78a4.43,4.43,0,0,0,.18.59l1.05,5.9.27,2.38.23.88.44,2.8q1.59,9.53,3.17,19c.1.58.18,1.15.27,1.73-.32,0-.65.13-1,.15l-19.8,1.35c-7.76.52-15.52,1-23.29,1.55-9.29.64-18.58,1.31-27.88,1.94-6.72.46-13.44.88-20.17,1.33q-14.37,1-28.75,2C18.57,152.13,15.14,152.42,11.7,152.7ZM127.26,77.07c-.16-1.27-.33-2.55-.49-3.82-.22-1.79-.23-1.75-2-2-2.93-.31-5.86-.7-8.78-1.06l-15.21-1.92-12.86-1.6-15-1.89c-4.4-.55-8.81-1.11-13.22-1.65l-13-1.61L36.1,60.24c-3.66-.46-7.31-.94-11-1.41L13.91,57.41c-2-.25-4.06-.47-6.19-.71l1.09,7.82a2.77,2.77,0,0,0,0,.5c.81,6.09,1.64,12.18,2.44,18.28,1.13,8.75,2.23,17.5,3.36,26.25q1.81,14.16,3.65,28.34c.31,2.38.63,4.76.95,7.24l118.52-5.88a3.42,3.42,0,0,0,0-.57c-.86-5.08-1.73-10.17-2.58-15.25q-2.7-16-5.39-32C128.93,86.65,128.09,81.86,127.26,77.07Z"/><path class="cls-3" d="M127.5,229.83h0Z"/><path class="cls-4" d="M109.45,64.46,78.37,59.93,50.25,55.82c-2.75-.41-5.5-.84-8.25-1.27A35,35,0,0,1,43.16,43.6a31.85,31.85,0,0,1,5.67-10.7A33.77,33.77,0,0,1,61.71,22.76,50.8,50.8,0,0,1,67,21.08a1.07,1.07,0,0,1,.26.26Q70.14,27.42,73,33.5l2.4,5c.52-1.07.93-1.87,1.31-2.69q3.54-7.48,7.07-15a33.8,33.8,0,0,1,10,2.69,34.85,34.85,0,0,1,13.34,9.12A23.25,23.25,0,0,1,113,45.41c.83,6.22-.84,12-3.11,17.64C109.71,63.5,109.6,64,109.45,64.46Z"/><path class="cls-5" d="M196,84.81q26.18,0,52.35,0a8,8,0,0,1,1.37.23,14.53,14.53,0,0,0-1,1.24c-1.46,2.32-2.89,4.65-4.34,7q-5.1,8.16-10.21,16.33c-1.32,2.1-2.7,4.16-4.05,6.24-.29,0-.58,0-.87,0H174.25c-.33,0-.66,0-1-.05a6.59,6.59,0,0,1,.49-.86q6.51-8.86,13-17.72C189.85,93.11,193,89,196,84.81Zm-7.3,24.77.51-.77c.11-.91-.28-1.28-1.2-1.24-1.26.07-1.71.53-1.8,2,.28.25.55.71.83.72.61,0,1.52.42,1.67-.72Zm-1.75-3,.5-.73c-.22-.33-.37-.87-.66-1-1.64-.47-2.46.18-2.58,1.92-.08.74.4.79.95.77.78,0,1.65.14,1.8-1Zm4,5.51.26-.54c-.13-.31-.17-.8-.39-.9a2,2,0,0,0-2.86,1.67c-.07.72.38.81.94.77.83,0,1.84.28,2.05-1Zm36-2.76.51-1c-.15-.31-.21-.78-.45-.91-1.47-.77-2.89.13-3.05,1.87.26.26.56.78.76.75.77-.13,1.87.65,2.23-.72Zm-44,2.23c-.12-.31-.16-.8-.38-.91a2,2,0,0,0-2.87,1.67c.07,1.33,1.09.69,1.69.74C182.43,113.14,183,112.54,183,111.55Zm9.5-4.74c.1.24.15.62.32.7a2.06,2.06,0,0,0,2.92-1.67c-.22-.33-.38-.87-.67-1C193.43,104.42,192.62,105.07,192.5,106.81Zm37,4.53c-.12-1-.64-1.26-2-1a1.57,1.57,0,0,0-1.21,2c0,.23,0,.6.13.66A2.09,2.09,0,0,0,229.5,111.34Zm-12.24,1c.05.23,0,.6.15.67a2.29,2.29,0,0,0,3.33-1.64c-.14-.31-.21-.79-.45-.91C218.79,109.65,217.38,110.55,217.26,112.3Zm7.74-.79-.07-1c-2.35-.4-3,0-3.42,1.83.35,1.4,1.49.71,2.24.72S225,112.39,225,111.51Zm-11.5-6.71c.22.34.45,1,.65,1a8.63,8.63,0,0,0,2.92-.53c.39-.17.46-1.08.68-1.66-.15-.39-.19-1-.45-1.14A2.64,2.64,0,0,0,213.5,104.8Zm-6.5-1.23c-.15-.39-.18-1-.46-1.13-1.81-1-3.67.25-3.78,2.37l0,1.2c-2.18.18-2.79.64-3,2.34l0,1.2c-.33,0-.67,0-1,0a2.4,2.4,0,0,0-1.79,2.5c.08.3.06.74.25.88,1.48,1,3.85-.25,4-2.14l-.27-1.24c2.29-.06,2.94-.56,3.27-2.51.08-.75-.35-1-1-1.06.6-.06,1.21-.14,1.82-.19A2,2,0,0,0,207,103.57Zm8,3.54c-.14-.32-.18-.79-.42-.93a2.81,2.81,0,0,0-4.07,2.17l.51,1.22c-2.41.05-3.16.63-3.27,2.52.19.32.39.93.56.92a10.74,10.74,0,0,0,2.95-.44c.3-.1.34-1,.49-1.5.72-.5.42-1,0-1.48C214.07,109.53,214.84,108.94,215,107.11Zm-5.52.16c-.09-.38,0-1-.29-1.11a2.64,2.64,0,0,0-3.94,2.37l0,1c-2.09.1-2.92.79-3,2.53.15.31.21.79.46.91a2.77,2.77,0,0,0,4-2.16c0-.41,0-.82,0-1.23.32,0,.65,0,1,0A2.33,2.33,0,0,0,209.48,107.27ZM208,104.8c.14.32.19.79.43.92a2.78,2.78,0,0,0,4.06-2.17c-.2-.4-.31-1-.61-1.15A2.78,2.78,0,0,0,208,104.8Zm8.51-3.56c0,.24,0,.61.08.7a2.78,2.78,0,0,0,4.15-2.09c-.21-.39-.35-1.06-.64-1.14C218.35,98.25,216.48,98.68,216.52,101.24Zm-5.52,0c.16.26.26.66.48.76a2.78,2.78,0,0,0,4-2.18c-.28-.39-.49-1-.87-1.13A2.61,2.61,0,0,0,211,101.25Zm-1-1.41c-.25-.41-.41-1.06-.75-1.17-2-.67-3.58.46-3.75,2.59.13.24.19.6.38.71A2.81,2.81,0,0,0,210,99.84ZM199.24,86.58a2.52,2.52,0,0,0-2.71,1.26c-1.63,2.4-3.44,4.68-5.13,7a6.47,6.47,0,0,0-.57,1.43l1.39.27a1.64,1.64,0,0,0,.38,0l.25,0q22.49,0,45,0a2.12,2.12,0,0,0,1.44-.9c1.67-2.44,3.27-4.92,4.86-7.41a5.68,5.68,0,0,0,.43-1.34,6,6,0,0,0-1.34-.33Q221.23,86.56,199.24,86.58Z"/><path class="cls-6" d="M156.67,104.57a89.65,89.65,0,0,1,12.21-16.79c3.66-3.85,7.61-7.42,11.47-11.07a2.52,2.52,0,0,1,1.55-.57c5.15,0,10.31,0,15.46,0,.24,0,.47.3.71.45-1.61,1.3-3.31,2.5-4.81,3.91a106.58,106.58,0,0,0-15.37,17.62,108.86,108.86,0,0,0-9,16.37,1.59,1.59,0,0,1-1.13.82c-5.45,0-10.9,0-16.35,0Q154,109.94,156.67,104.57Z"/><path class="cls-7" d="M83.79,20.81q-3.54,7.49-7.07,15c-.38.82-.79,1.62-1.31,2.69l-2.4-5q-2.88-6.08-5.75-12.16a1.07,1.07,0,0,0-.26-.26c-.71-1.68-1.45-3.34-2.15-5a11.49,11.49,0,1,1,21.93-6.2A12.27,12.27,0,0,1,85.54,17C85,18.25,84.37,19.53,83.79,20.81ZM74.9,15.34A4.29,4.29,0,0,0,79.25,11a4.38,4.38,0,1,0-8.75.05A4.28,4.28,0,0,0,74.9,15.34Z"/><path class="cls-8" d="M230.17,115.86c1.35-2.08,2.73-4.14,4.05-6.24q5.13-8.16,10.21-16.33c1.45-2.33,2.88-4.66,4.34-7a14.53,14.53,0,0,1,1-1.24,12.43,12.43,0,0,1-2.34,9.23,46.14,46.14,0,0,0-2.54,4.24l-1.91,3a4,4,0,0,0-.85.79q-3.13,5.2-6.19,10.46a4,4,0,0,0-.18,1.49c-.28.22-.65.38-.82.66q-2.52,4.09-5,8.22a1.49,1.49,0,0,1-1.47.86q-36.77,0-73.54,0c-.28,0-.57,0-.95-.06v-1.14l0-3.06,0-.18,16.38,0,56.72,0c.39,0,1-.09,1.14-.35C228.91,118.15,229.52,117,230.17,115.86Z"/><path class="cls-9" d="M170.33,119.55l-16.38,0c-1.26-.13-2.63.29-3.71-.75,0-.72,0-1.45,0-2.17.56-.33,1.2-.58,1.18-1.39,5.45,0,10.9,0,16.35,0a1.59,1.59,0,0,0,1.13-.82,108.86,108.86,0,0,1,9-16.37,106.58,106.58,0,0,1,15.37-17.62c1.5-1.41,3.2-2.61,4.81-3.91q-1,4.13-2,8.23c-3.09,4.16-6.19,8.3-9.26,12.46q-6.54,8.85-13,17.72a6.59,6.59,0,0,0-.49.86C172.28,117.08,171.31,118.32,170.33,119.55Z"/><path class="cls-10" d="M151.43,115.29c0,.81-.62,1.06-1.18,1.39-1.29-.12-2.58-.31-3.88-.32-1,0-2.09.23-3.14.3a5.62,5.62,0,0,1-2.39,0,2.62,2.62,0,0,0-2.34.12l-1.05-5.9,5.28-1.75,13.32-4.48a2.52,2.52,0,0,1,.62,0Q154,109.93,151.43,115.29Z"/><path class="cls-11" d="M11.7,152.7c3.44-.28,6.87-.57,10.31-.81q14.39-1,28.75-2c6.73-.45,13.45-.87,20.17-1.33,9.3-.63,18.59-1.3,27.88-1.94,7.77-.53,15.53-1,23.29-1.55l19.8-1.35c.33,0,.66-.1,1-.15l31.85,11.23q13.64,4.81,27.25,9.65a4.77,4.77,0,0,1,.8.49q-5.31,1-10.63,2Q180.58,169,169,171.05l-28.52,5a14.56,14.56,0,0,0-8,1.33,2.44,2.44,0,0,1-.72.16c-2.53.46-5.06.93-7.59,1.38L104,182.56q-13.91,2.46-27.8,4.9c-1.88.33-3.77.82-5.59-.25l-20.46-12L11.73,152.7Zm129.86-6.6-.06.23-4.35.25c-2.65.17-5.3.33-8,.52-4.38.32-8.76.66-13.14,1-2.94.2-5.88.33-8.82.53-4.63.31-9.26.66-13.89,1-2.74.19-5.47.34-8.2.53-4.42.31-8.84.66-13.27,1-2.81.19-5.63.33-8.44.53-4.39.3-8.76.66-13.15,1-2.94.2-5.88.34-8.82.53-4.71.32-9.43.64-14.14,1a6.74,6.74,0,0,0-1.54.54c.35.41.62,1,1.05,1.19,3,1.64,6,3.21,9,4.8,6.91,3.66,13.83,7.3,20.71,11a6.31,6.31,0,0,0,4,.63c2.21-.3,4.42-.64,6.64-.93,4.1-.53,8.21-1,12.32-1.56s8.28-1.14,12.43-1.7,8.05-1,12.07-1.55,8.28-1.15,12.42-1.7,8-1,12.08-1.55,8.28-1.15,12.42-1.7,8.05-1,12.07-1.55,8.29-1.13,12.43-1.7c1.64-.23,3.28-.46,4.91-.74.31-.05.57-.36.86-.55a8.82,8.82,0,0,0-.77-.84,2.89,2.89,0,0,0-.7-.25c-8.13-2.93-16.25-5.88-24.39-8.78C144.12,146.72,142.83,146.45,141.56,146.1Zm12.95,24.83a10.4,10.4,0,0,0-1.07-.75c-4.33-2-8.65-4.05-13-6a6.11,6.11,0,0,0-2.9-.24c-2,.2-3.92.56-5.89.85l-9.68,1.4-11.16,1.6-5.18.8a2.35,2.35,0,0,0,1,.88c3.92,2,7.86,4,11.77,6a6.87,6.87,0,0,0,4.46.7c4.72-.79,9.44-1.61,14.17-2.41C142.71,172.88,148.41,172,154.51,170.93Z"/><path class="cls-12" d="M11.73,152.7l38.4,22.54,20.46,12c1.82,1.07,3.71.58,5.59.25q13.91-2.43,27.8-4.9l20.2-3.59c2.53-.45,5.06-.92,7.59-1.38a2.44,2.44,0,0,0,.72-.16,14.56,14.56,0,0,1,8-1.33,12.37,12.37,0,0,1,7.45,5.2c.53,1.69,1.18,3.36,1.56,5.08a9.14,9.14,0,0,1-.87,5.83c-3.34,7.21-6.74,14.38-10.12,21.57-.09.18-.21.35-.41.68-.83-1.72-1.59-3.31-2.35-4.91-2.64-5.61-5.26-11.22-7.91-16.82a12.21,12.21,0,0,1-1.14-6.06c0-.41,0-.81,0-1.31L79,194.64l-4.79.93c-2.49.48-4.32-1-6.24-2.16Q55.6,185.9,43.24,178.33c-7.89-4.83-15.78-9.65-23.64-14.54a34.16,34.16,0,0,1-5.37-3.91C12.22,158,11.65,155.42,11.73,152.7ZM139,183a4,4,0,0,0-3.93.75,4.24,4.24,0,0,0-.79.58,4.29,4.29,0,0,0-.27,5.11,4.36,4.36,0,0,0,4.89,1.83,4.47,4.47,0,0,0,3.15-4.19A4.27,4.27,0,0,0,139,183Z"/><path class="cls-13" d="M148,181.3a12.37,12.37,0,0,0-7.45-5.2l28.52-5q11.56-2.06,23.13-4.14,5.32-1,10.63-2c.18.14.49.25.52.41.42,2.61-.26,5.3-3.48,5.92q-22.08,4.31-44.16,8.53Z"/><path class="cls-14" d="M235.75,114.32a4,4,0,0,1,.18-1.49q3-5.26,6.19-10.46a4,4,0,0,1,.85-.79q3,9.36,6,18.72c.38,1.18.74,2.36,1.17,3.74h-3.81c-1.87,0-3.75-.05-5.62,0a1.47,1.47,0,0,1-1.72-1.13C238,120,236.83,117.19,235.75,114.32Z"/><path class="cls-15" d="M154,119.78c0,1,0,2,0,3.06a38.61,38.61,0,0,0-3.84-.45c-1.06,0-2.12.35-3.18.36s-2.31-.24-3.46-.23c-1.36,0-2.72.18-4.08.28-.15-.93-.29-1.87-.44-2.8,1.45,0,2.91.15,4.37.12,1.89-.05,3.78-.24,5.68-.31C150.69,119.76,152.34,119.79,154,119.78Z"/><path class="cls-1" d="M127.26,77.07c.83,4.79,1.67,9.58,2.48,14.38q2.72,16,5.39,32c.85,5.08,1.72,10.17,2.58,15.25a3.42,3.42,0,0,1,0,.57L19.2,145.13c-.32-2.48-.64-4.86-.95-7.24q-1.83-14.17-3.65-28.34c-1.13-8.75-2.23-17.5-3.36-26.25C10.44,77.2,9.61,71.11,8.8,65a2.77,2.77,0,0,1,0-.5c3.43.35,6.87.68,10.3,1Q29,66.6,39,67.66l20,2.15,17.73,1.9L96.5,73.83l17.61,1.88Zm-21.88,43.29c-.27-2.35-.47-4.45-.79-6.52,0-.31-.64-.72-1-.75-2.89-.21-5.79-.38-8.69-.49-4.85-.2-9.71-.34-14.56-.51-4.56-.16-9.12-.36-13.69-.49-4.15-.13-8.31-.19-12.46-.3-.93,0-1.86-.15-3-.24L52,119c1.4.12,2.63.3,3.86.33,4.62.11,9.23.17,13.84.26,3.45.07,6.9.17,10.34.25,4.24.09,8.48.19,12.72.24,3.16,0,6.32,0,9.49,0C103.19,120.12,104.12,120.26,105.38,120.36Zm-7.15,4.46L61.66,124l.42,4.52H98.57ZM67.49,95.35a12.53,12.53,0,0,0,6.58,10.06c5.93,3.47,12.68.07,13.11-6.68a12.51,12.51,0,0,0-6.66-12.36C74.17,82.75,67.5,86.77,67.49,95.35Z"/><path class="cls-16" d="M127.26,77.07l-13.15-1.36L96.5,73.83,76.65,71.71l-17.73-1.9L39,67.66Q29,66.6,19.11,65.56c-3.43-.36-6.87-.69-10.3-1C8.46,62,8.1,59.44,7.72,56.7c2.13.24,4.16.46,6.19.71l11.22,1.42c3.66.47,7.31,1,11,1.41l10.62,1.33,13,1.61c4.41.54,8.82,1.1,13.22,1.65l15,1.89,12.86,1.6,15.21,1.92c2.92.36,5.85.75,8.78,1.06,1.82.2,1.83.16,2,2C126.93,74.52,127.1,75.8,127.26,77.07Zm-8.67-3.93a5.72,5.72,0,0,0-1.31-.88c-.13,0-.68.6-.63.68a2.94,2.94,0,0,0,.95,1C117.7,74,118.09,73.53,118.59,73.14Zm4.7-.76c-.42.57-.8.9-.74,1.06a4.6,4.6,0,0,0,.77,1.07c.24-.23.68-.47.66-.67A6.11,6.11,0,0,0,123.29,72.38Zm-1.83,1.11c-.49-.41-.77-.78-1.13-.89-.19,0-.51.36-.77.57a5.46,5.46,0,0,0,.9,1C120.54,74.24,121,73.83,121.46,73.49Z"/><path class="cls-15" d="M138.5,116.74a2.62,2.62,0,0,1,2.34-.12,5.62,5.62,0,0,0,2.39,0c1.05-.07,2.1-.31,3.14-.3,1.3,0,2.59.2,3.88.32,0,.72,0,1.45,0,2.17-.58.14-1.15.32-1.74.41a11.7,11.7,0,0,1-1.45,0l-1-.06c-1,0-2.07-.14-3.11-.15-1.4,0-2.8,0-4.2.05Z"/><path class="cls-17" d="M138.77,119.12c1.4,0,2.8-.07,4.2-.05,1,0,2.07.1,3.11.15l1,.06a11.7,11.7,0,0,0,1.45,0c.59-.09,1.16-.27,1.74-.41,1.08,1,2.45.62,3.71.75l0,.18c-1.64,0-3.29,0-4.93,0-1.9.07-3.79.26-5.68.31-1.46,0-2.92-.08-4.37-.12Z"/><path class="cls-18" d="M199.24,86.58q22,0,44,0a6,6,0,0,1,1.34.33,5.68,5.68,0,0,1-.43,1.34c-1.59,2.49-3.19,5-4.86,7.41a2.12,2.12,0,0,1-1.44.9q-22.5.06-45,0l-.25,0a3.33,3.33,0,0,1,.26-1.26C195,92.37,197.1,89.48,199.24,86.58Z"/><path class="cls-19" d="M170.33,119.55c1-1.23,1.95-2.47,2.92-3.7.34,0,.67.05,1,.05H229.3c.29,0,.58,0,.87,0-.65,1.13-1.26,2.29-2,3.36-.18.26-.75.35-1.14.35Z"/><path class="cls-15" d="M199.24,86.58c-2.14,2.9-4.28,5.79-6.38,8.72a3.33,3.33,0,0,0-.26,1.26,1.64,1.64,0,0,1-.38,0l-1.39-.27a6.47,6.47,0,0,1,.57-1.43c1.69-2.36,3.5-4.64,5.13-7A2.52,2.52,0,0,1,199.24,86.58Z"/><path class="cls-20" d="M205.5,101.26c.17-2.13,1.73-3.26,3.75-2.59.34.11.5.76.75,1.17a3.17,3.17,0,0,1-3.5,1.49A8.26,8.26,0,0,0,205.5,101.26Z"/><path class="cls-20" d="M206.72,109.6l0,1.23c-1.15,1.67-2.74,1.78-4.49,1.25.11-1.74.94-2.43,3-2.53Z"/><path class="cls-20" d="M207.75,112.09c.11-1.89.86-2.47,3.27-2.52l.72,0c.43.49.73,1,0,1.48C210.79,112.44,209.8,112.69,207.75,112.09Z"/><path class="cls-20" d="M211,101.25a2.61,2.61,0,0,1,3.62-2.55c.38.14.59.74.87,1.13C214.38,101.51,212.73,101.51,211,101.25Z"/><path class="cls-20" d="M201,109.59l.27,1.24c-1.05,1.67-2.55,1.8-4.25,1.26a2.4,2.4,0,0,1,1.79-2.5c.33,0,.67,0,1,0Z"/><path class="cls-20" d="M216.52,101.24c0-2.56,1.83-3,3.59-2.53.29.08.43.75.64,1.14C219.74,101.54,218.17,101.51,216.52,101.24Z"/><path class="cls-20" d="M208,104.8a2.78,2.78,0,0,1,3.88-2.4c.3.1.41.75.61,1.15-.82,1.38-2.13,1.44-3.51,1.3C208.66,104.82,208.33,104.82,208,104.8Z"/><path class="cls-20" d="M203.23,106c.67,0,1.1.31,1,1.06-1.14,1.7-2.72,1.84-4.49,1.27.25-1.7.86-2.16,3-2.34Z"/><path class="cls-20" d="M205.25,108.53a2.64,2.64,0,0,1,3.94-2.37c.24.15.2.73.29,1.11a2.8,2.8,0,0,1-2.86,1.33A8.86,8.86,0,0,0,205.25,108.53Z"/><path class="cls-20" d="M210.51,108.35a2.81,2.81,0,0,1,4.07-2.17c.24.14.28.61.42.93C213.87,108.87,212.26,108.86,210.51,108.35Z"/><path class="cls-20" d="M202.76,104.81c.11-2.12,2-3.32,3.78-2.37.28.14.31.74.46,1.13a2.82,2.82,0,0,1-3.14,1.29C203.5,104.81,203.13,104.83,202.76,104.81Z"/><path class="cls-20" d="M213.5,104.8a2.64,2.64,0,0,1,3.8-2.37c.26.12.3.75.45,1.14-.71,1.27-1.86,1.43-3.14,1.29C214.24,104.81,213.87,104.82,213.5,104.8Z"/><path class="cls-20" d="M224,109.29c.16-1.74,1.58-2.64,3.05-1.87.24.13.3.6.45.91l-.51,1h0Z"/><path class="cls-20" d="M221.51,112.3c.39-1.85,1.07-2.23,3.42-1.83,0,.33,0,.69.07,1C224.05,112.75,222.72,112.27,221.51,112.3Z"/><path class="cls-20" d="M217.26,112.3c.12-1.75,1.53-2.65,3-1.88.24.12.31.6.45.91C219.83,112.52,218.54,112.41,217.26,112.3Z"/><path class="cls-20" d="M226.26,112.31a1.57,1.57,0,0,1,1.21-2c1.39-.25,1.91,0,2,1C228.7,112.6,227.45,112.37,226.26,112.31Z"/><path class="cls-20" d="M184.25,106.81c.12-1.74.94-2.39,2.58-1.92.29.08.44.62.66,1l-.5.73h0Z"/><path class="cls-20" d="M186.25,109.57c.09-1.47.54-1.93,1.8-2,.92,0,1.31.33,1.2,1.24l-.51.77h-2.49Z"/><path class="cls-20" d="M192.5,106.81c.12-1.74.93-2.39,2.57-1.92.29.08.45.62.67,1C194.93,107.05,193.7,106.89,192.5,106.81Z"/><path class="cls-20" d="M188,112.31a2,2,0,0,1,2.86-1.67c.22.1.26.59.39.9l-.26.54h0Z"/><path class="cls-20" d="M179.75,112.31a2,2,0,0,1,2.87-1.67c.22.11.26.6.38.91C182.11,112.63,180.9,112.36,179.75,112.31Z"/><path class="cls-21" d="M202.76,104.81c.37,0,.74,0,1.1,0a2.82,2.82,0,0,0,3.14-1.29,2,2,0,0,1-1.95,2.26c-.61,0-1.22.13-1.82.19h-.43C202.79,105.61,202.77,105.21,202.76,104.81Z"/><path class="cls-21" d="M199.76,108.35c1.77.57,3.35.43,4.49-1.27-.33,2-1,2.45-3.27,2.51l-1.19,0Z"/><path class="cls-21" d="M210.51,108.35c1.75.51,3.36.52,4.49-1.24-.16,1.83-.93,2.42-3.26,2.48l-.72,0Z"/><path class="cls-21" d="M213.5,104.8c.37,0,.74,0,1.11.06,1.28.14,2.43,0,3.14-1.29-.22.58-.29,1.49-.68,1.66a8.63,8.63,0,0,1-2.92.53C214,105.77,213.72,105.14,213.5,104.8Z"/><path class="cls-21" d="M205.25,108.53a8.86,8.86,0,0,1,1.37.07,2.8,2.8,0,0,0,2.86-1.33,2.33,2.33,0,0,1-1.78,2.29c-.32,0-.65,0-1,0l-1.44,0C205.28,109.21,205.26,108.87,205.25,108.53Z"/><path class="cls-21" d="M208,104.8c.32,0,.65,0,1,0,1.38.14,2.69.08,3.51-1.3a2.78,2.78,0,0,1-4.06,2.17C208.2,105.59,208.15,105.12,208,104.8Z"/><path class="cls-14" d="M202.26,112.08c1.75.53,3.34.42,4.49-1.25a2.77,2.77,0,0,1-4,2.16C202.47,112.87,202.41,112.39,202.26,112.08Z"/><path class="cls-14" d="M216.52,101.24c1.65.27,3.22.3,4.23-1.39a2.78,2.78,0,0,1-4.15,2.09C216.48,101.85,216.54,101.48,216.52,101.24Z"/><path class="cls-14" d="M197,112.09c1.7.54,3.2.41,4.25-1.26-.15,1.89-2.52,3.18-4,2.14C197.06,112.83,197.08,112.39,197,112.09Z"/><path class="cls-14" d="M211,101.25c1.73.26,3.38.26,4.49-1.42a2.78,2.78,0,0,1-4,2.18C211.26,101.91,211.16,101.51,211,101.25Z"/><path class="cls-14" d="M205.5,101.26a8.26,8.26,0,0,1,1,.07,3.17,3.17,0,0,0,3.5-1.49,2.81,2.81,0,0,1-4.12,2.13C205.69,101.86,205.63,101.5,205.5,101.26Z"/><path class="cls-14" d="M207.75,112.09c2.05.6,3,.35,4-1-.15.52-.19,1.4-.49,1.5a10.74,10.74,0,0,1-2.95.44C208.14,113,207.94,112.41,207.75,112.09Z"/><path class="cls-15" d="M217.26,112.3c1.28.11,2.57.22,3.48-1a2.29,2.29,0,0,1-3.33,1.64C217.28,112.9,217.31,112.53,217.26,112.3Z"/><path class="cls-21" d="M226.26,112.31c1.19.06,2.44.29,3.24-1a2.09,2.09,0,0,1-3.11,1.63C226.26,112.91,226.29,112.54,226.26,112.31Z"/><path class="cls-15" d="M221.51,112.3c1.21,0,2.54.45,3.49-.79,0,.88-.45,1.53-1.25,1.51S221.86,113.7,221.51,112.3Z"/><path class="cls-21" d="M179.75,112.31c1.15,0,2.36.32,3.25-.76-.05,1-.57,1.59-1.56,1.5C180.84,113,179.82,113.64,179.75,112.31Z"/><path class="cls-21" d="M192.5,106.81c1.2.08,2.43.24,3.24-1a2.06,2.06,0,0,1-2.92,1.67C192.65,107.43,192.6,107.05,192.5,106.81Z"/><path class="cls-21" d="M224,109.29l3,0c-.36,1.37-1.46.59-2.23.72C224.56,110.07,224.26,109.55,224,109.29Z"/><path class="cls-21" d="M188,112.31l3-.24c-.21,1.29-1.22,1-2.05,1C188.38,113.12,187.93,113,188,112.31Z"/><path class="cls-21" d="M184.25,106.81l2.75-.24c-.15,1.15-1,1-1.8,1C184.65,107.6,184.17,107.55,184.25,106.81Z"/><path class="cls-15" d="M186.25,109.57h2.5c-.15,1.14-1.06.73-1.67.72C186.8,110.28,186.53,109.82,186.25,109.57Z"/><path class="cls-21" d="M227,109.32l.51-1Z"/><path class="cls-15" d="M188.74,109.58l.51-.77Z"/><path class="cls-21" d="M187,106.57c.17-.24.34-.48.5-.73Z"/><path class="cls-21" d="M191,112.08l.26-.54Z"/><path class="cls-22" d="M141.56,146.1c1.27.35,2.56.62,3.8,1.07,8.14,2.9,16.26,5.85,24.39,8.78a2.89,2.89,0,0,1,.7.25,8.82,8.82,0,0,1,.77.84c-.29.19-.55.5-.86.55-1.63.28-3.27.51-4.91.74-4.14.57-8.28,1.15-12.43,1.7s-8.05,1-12.07,1.55-8.28,1.15-12.42,1.7-8,1-12.08,1.55-8.28,1.15-12.42,1.7-8,1-12.07,1.55-8.29,1.15-12.43,1.7-8.22,1-12.32,1.56c-2.22.29-4.43.63-6.64.93a6.31,6.31,0,0,1-4-.63c-6.88-3.71-13.8-7.35-20.71-11-3-1.59-6.05-3.16-9-4.8-.43-.24-.7-.78-1.05-1.19a6.74,6.74,0,0,1,1.54-.54c4.71-.36,9.43-.68,14.14-1,2.94-.19,5.88-.33,8.82-.53,4.39-.3,8.76-.66,13.15-1,2.81-.2,5.63-.34,8.44-.53,4.43-.31,8.85-.66,13.27-1,2.73-.19,5.46-.34,8.2-.53,4.63-.32,9.26-.67,13.89-1,2.94-.2,5.88-.33,8.82-.53,4.38-.31,8.76-.65,13.14-1,2.65-.19,5.3-.35,8-.52l4.35-.25Z"/><path class="cls-23" d="M154.51,170.93c-6.1,1-11.8,1.95-17.49,2.91-4.73.8-9.45,1.62-14.17,2.41a6.87,6.87,0,0,1-4.46-.7c-3.91-2.06-7.85-4-11.77-6a2.35,2.35,0,0,1-1-.88l5.18-.8,11.16-1.6,9.68-1.4c2-.29,3.92-.65,5.89-.85a6.11,6.11,0,0,1,2.9.24c4.38,1.91,8.7,4,13,6A10.4,10.4,0,0,1,154.51,170.93Z"/><path class="cls-24" d="M139,183a4.27,4.27,0,0,1,3.05,4.08,4.47,4.47,0,0,1-3.15,4.19,4.36,4.36,0,0,1-4.89-1.83,4.29,4.29,0,0,1,.27-5.11,4.24,4.24,0,0,1,.79-.58Z"/><path class="cls-13" d="M139,183l-3.93.75A4,4,0,0,1,139,183Z"/><path class="cls-7" d="M105.38,120.36c-1.26-.1-2.19-.24-3.13-.25-3.17,0-6.33,0-9.49,0-4.24,0-8.48-.15-12.72-.24-3.44-.08-6.89-.18-10.34-.25-4.61-.09-9.22-.15-13.84-.26-1.23,0-2.46-.21-3.86-.33l-.85-7.92c1.17.09,2.1.22,3,.24,4.15.11,8.31.17,12.46.3,4.57.13,9.13.33,13.69.49,4.85.17,9.71.31,14.56.51,2.9.11,5.8.28,8.69.49.37,0,1,.44,1,.75C104.91,115.91,105.11,118,105.38,120.36Z"/><path class="cls-7" d="M98.23,124.82l.34,3.68H62.08L61.66,124Z"/><path class="cls-25" d="M67.49,95.35c0-8.58,6.68-12.6,13-9a12.51,12.51,0,0,1,6.66,12.36c-.43,6.75-7.18,10.15-13.11,6.68A12.53,12.53,0,0,1,67.49,95.35Zm10.52,10c4,.09,6.54-1.81,7.49-5,1.61-5.32-1.89-11.83-7.31-13.59A6.9,6.9,0,0,0,69,92.38a10.24,10.24,0,0,0,.8,6.21C71.56,102.46,74.39,105,78,105.36Z"/><path class="cls-17" d="M118.59,73.14c-.5.39-.89.83-1,.77a2.94,2.94,0,0,1-.95-1c-.05-.08.5-.72.63-.68A5.72,5.72,0,0,1,118.59,73.14Z"/><path class="cls-17" d="M123.29,72.38a6.11,6.11,0,0,1,.69,1.46c0,.2-.42.44-.66.67a4.6,4.6,0,0,1-.77-1.07C122.49,73.28,122.87,73,123.29,72.38Z"/><path class="cls-17" d="M121.46,73.49c-.49.34-.92.75-1,.69a5.46,5.46,0,0,1-.9-1c.26-.21.58-.62.77-.57C120.69,72.71,121,73.08,121.46,73.49Z"/><path class="cls-26" d="M78,105.36c-3.62-.33-6.45-2.9-8.24-6.77a10.24,10.24,0,0,1-.8-6.21,6.9,6.9,0,0,1,9.22-5.57c5.42,1.76,8.92,8.27,7.31,13.59C84.55,103.55,82,105.45,78,105.36Z"/></g></g></svg>