<?xml version="1.0" encoding="utf-8"?>
<!-- Generator: Adobe Illustrator 24.0.2, SVG Export Plug-In . SVG Version: 6.00 Build 0)  -->
<svg
  version="1.1" id="Ebene_1" xmlns="http://www.w3.org/2000/svg" xmlns:xlink="http://www.w3.org/1999/xlink" x="0px"
  y="0px"
  viewBox="0 0 448.3 123.2" style="enable-background:new 0 0 448.3 123.2;" xml:space="preserve"
>
<style type="text/css">
	.st0 {
    fill: #F59C00;
  }

  .st1 {
    fill: #EF7D00;
  }

  .st2 {
    fill: #CB6C00;
  }

  .st3 {
    fill: #A55900;
  }

  .st4 {
    fill: #7D4400;
  }
</style>
  <g>
	<path
    d="M424.5,41.4v3.1h2.9c0.8,0,1.5-0.2,1.7-1.4c0.2-1.5-0.9-1.7-1.7-1.7H424.5z M423.3,40.3h4c1.4,0,2.7,0.3,2.9,2.3
		c0,1.2-0.3,1.6-1.2,2.3c0.9,0.6,0.9,0.7,1.1,2.3c0.1,1.2-0.1,1.4,0.4,2.2h-1.4l-0.2-1.1c-0.2-1.1,0.3-2.7-1.5-2.7h-3v3.9h-1.2V40.3
		z M426.3,37.8c-4,0-7.2,3.2-7.2,7.2c0,4,3.2,7.2,7.2,7.2c4,0,7.2-3.2,7.2-7.2C433.6,41.1,430.3,37.8,426.3,37.8 M426.3,53.2
		c-4.5,0-8.2-3.6-8.2-8.2c0-4.5,3.6-8.2,8.2-8.2c4.5,0,8.2,3.7,8.2,8.2C434.5,49.6,430.8,53.2,426.3,53.2"
  />
</g>
  <path class="st0" d="M22.7,62.3 M158.6,86.6H13.8l0.5-2.5h143.3l8.4-21.8h2L158.6,86.6z" />
  <polygon class="st1" points="162.1,62.3 166,62.3 157.6,84.1 153.1,84.1 " />
  <polygon class="st2" points="152.6,62.3 162.1,62.3 153.1,84.1 144.2,84.1 " />
  <polygon class="st3" points="132.8,62.3 152.6,62.3 144.2,84.1 124.4,84.1 " />
  <polygon class="st4" points="14.3,84.1 22.7,62.3 132.8,62.3 124.4,84.1 " />
  <path
    d="M317.8,61.9l2.2-5.8c0.1-0.2,0.3-0.5,0.5-0.6c0.2-0.2,0.5-0.3,0.7-0.3h24.5l3.4-8.9h-25.3c-2.3,0-4.7,0.9-7,2.6
	c-2.3,1.7-3.9,3.8-4.9,6.3L300,86.4h8.4l6-15.6h25.3l3.4-8.9H317.8z"
  />
  <path
    d="M209.2,61.9l2.5-6.7c0.9-2.5,0.9-4.6-0.1-6.3c-1-1.7-2.7-2.6-4.9-2.6H178l-3.4,8.9h27.8c0.6,0,0.8,0.3,0.5,0.9l-1.9,4.9
	c-0.1,0.2-0.3,0.5-0.5,0.6c-0.2,0.2-0.5,0.3-0.7,0.3H172l-9.4,24.5h8.4l6-15.6h20.3c2.3,0,4.7-0.9,7-2.6
	C206.6,66.4,208.2,64.3,209.2,61.9"
  />
  <path
    d="M295,46.3h-16.9c-2.8,0-5.4,1-7.9,3c-2.1,1.7-4,4.2-5.9,7.4c-1.5,2.6-3,5.8-4.4,9.6c-2.2,5.9-3.3,10.5-3.2,13.8
	c0.2,4.2,2.2,6.3,6,6.3h16.9c3.9,0,7.5-2.1,10.8-6.3c2.7-3.3,5.1-7.9,7.4-13.8c2.3-6,3.4-10.6,3.3-13.8
	C301.1,48.4,299,46.3,295,46.3z M291.8,58c-0.3,1.9-1.2,4.6-2.6,8.3c-1.4,3.5-2.6,6.3-3.8,8.2c-1.2,1.9-2.2,2.9-3.2,2.9H267
	c-1,0-1.3-1-1-2.9c0.3-1.9,1.1-4.7,2.5-8.3c1.4-3.8,2.7-6.6,3.8-8.4c1.1-1.8,2.2-2.7,3.3-2.7h15.2C291.8,55.2,292.1,56.1,291.8,58z"
  />
  <path
    d="M377.5,56.1c0.1-0.2,0.3-0.5,0.5-0.6c0.2-0.2,0.5-0.3,0.7-0.3h28.7l3.4-8.9h-29.6c-2.3,0-4.7,0.9-7,2.6
	c-2.3,1.7-3.9,3.8-4.9,6.3l-2.5,6.7c-0.9,2.5-0.9,4.6,0.1,6.3c1,1.7,2.6,2.6,5,2.6h20.3c0.2,0,0.4,0.1,0.5,0.3
	c0.1,0.2,0.1,0.4,0,0.7l-1.9,4.9c-0.2,0.6-0.6,0.9-1.2,0.9h-28.7l-3.4,8.9h29.6c2.3,0,4.7-0.9,7-2.6c2.3-1.8,3.9-3.8,4.8-6.3
	l2.6-6.7c0.9-2.5,0.9-4.6-0.1-6.3c-1-1.7-2.6-2.6-5-2.6h-20.3c-0.2,0-0.4-0.1-0.5-0.3c-0.1-0.2-0.1-0.4,0-0.6L377.5,56.1z"
  />
  <polygon points="355.5,46.3 340.2,86.4 348.6,86.4 363.9,46.3 " />
  <path
    d="M249.5,46.3h-28.7l-3.4,8.9h27.8c0.6,0,0.8,0.3,0.5,0.9l-1.9,4.9c-0.1,0.2-0.3,0.5-0.5,0.6c-0.2,0.2-0.5,0.3-0.7,0.3h-27.8
	l-9.4,24.5h8.4l6-15.6h19.4c0.5,0,0.6,0.3,0.5,0.9l-3.5,14.7h8.4l3.9-15.6c0.3-1.1,0.4-1.9,0.5-2.5c0.1-0.9,0-1.5-0.4-1.9
	c0.7-0.4,1.3-1.1,1.9-1.9c0.6-0.8,1.1-1.7,1.4-2.5l2.5-6.7c0.9-2.5,0.9-4.6-0.1-6.3C253.4,47.2,251.8,46.3,249.5,46.3"
  />
  <path
    d="M111.1,15.2H94.2c-2.8,0-5.4,1-7.9,3c-2.1,1.7-4.1,4.2-5.9,7.4c-1.5,2.6-3,5.8-4.4,9.6c-2.2,5.9-3.3,10.5-3.2,13.8
	c0.2,4.2,2.2,6.3,6,6.3h16.9c3.9,0,7.5-2.1,10.8-6.3c2.7-3.3,5.1-7.9,7.4-13.8c2.3-6,3.4-10.6,3.3-13.8
	C117.2,17.3,115.2,15.2,111.1,15.2z M108,27c-0.3,1.9-1.2,4.6-2.6,8.3c-1.4,3.6-2.6,6.3-3.8,8.2c-1.2,1.9-2.3,2.9-3.2,2.9H83.2
	c-1,0-1.3-1-1-2.9c0.3-1.9,1.1-4.7,2.5-8.3c1.4-3.8,2.7-6.6,3.8-8.4c1.1-1.8,2.2-2.7,3.3-2.7h15.2C107.9,24.1,108.3,25.1,108,27z"
  />
  <polygon points="180.8,28.6 172.3,28.6 162.1,55.3 170.6,55.3 " />
  <polygon points="60.3,30.8 43.4,30.8 49.4,15.2 40.9,15.2 25.6,55.3 34.1,55.3 40,39.7 56.9,39.7 " />
  <path
    d="M152.5,30.8h-20.3c-0.2,0-0.4-0.1-0.5-0.3c-0.1-0.2-0.1-0.4,0-0.6l1.9-4.9c0.1-0.2,0.3-0.5,0.5-0.6c0.2-0.2,0.5-0.3,0.7-0.3
	H198l3.4-8.9h-64.1c-2.3,0-4.7,0.9-7,2.6c-2.3,1.7-3.9,3.8-4.9,6.3l-2.5,6.7c-0.9,2.5-0.9,4.6,0.1,6.3c1,1.7,2.6,2.6,5,2.6h20.3
	c0.2,0,0.4,0.1,0.5,0.3c0.1,0.2,0.1,0.4,0,0.7l-1.9,4.9c-0.2,0.6-0.6,0.9-1.2,0.9h-28.7l-3.4,8.9h29.6c2.3,0,4.7-0.9,7-2.6
	c2.3-1.8,3.9-3.8,4.8-6.3l2.6-6.7c0.9-2.5,0.9-4.6-0.1-6.3C156.5,31.7,154.8,30.8,152.5,30.8"
  />
  <polygon points="70.5,15.2 55.2,55.3 63.6,55.3 78.9,15.2 " />
  <g>
	<path
    d="M155,106.5l4.8-13.1h3.8c1.4,0,2.4,0.3,3,0.8c0.6,0.5,0.9,1.3,0.7,2.4c-0.1,0.8-0.4,1.4-0.8,1.9c-0.4,0.5-1.1,0.9-1.9,1.2
		c0.5,0.2,0.9,0.6,1.1,1.1c0.2,0.5,0.3,1.1,0.2,1.8c-0.2,1.3-0.8,2.3-1.8,3c-1,0.7-2.5,1-4.4,1H155z M158.2,104.5h2.3
		c0.9,0,1.6-0.2,2.1-0.6s0.9-1,1-1.7c0.1-0.6-0.1-1-0.4-1.3c-0.4-0.3-0.9-0.4-1.8-0.4h-1.8L158.2,104.5z M160.3,98.6h1.6
		c0.9,0,1.7-0.2,2.1-0.5c0.5-0.3,0.8-0.8,0.9-1.6c0.1-0.4-0.1-0.8-0.4-1c-0.3-0.2-0.8-0.3-1.4-0.3h-1.6L160.3,98.6z"
  />
    <path
      d="M177.2,97.1l-3.4,9.4h-2.1l0.3-0.9c-0.6,0.4-1.1,0.6-1.5,0.8c-0.5,0.2-0.9,0.3-1.3,0.3c-0.7,0-1.3-0.2-1.7-0.6
		c-0.4-0.4-0.5-1-0.4-1.7c0-0.2,0.1-0.3,0.1-0.6c0.1-0.2,0.1-0.5,0.3-0.8l2.1-5.8h2.3l-2.2,5.8c-0.1,0.2-0.2,0.5-0.2,0.7
		c-0.1,0.2-0.1,0.4-0.1,0.5c0,0.3,0,0.5,0.1,0.6c0.1,0.1,0.4,0.2,0.7,0.2c0.2,0,0.4,0,0.6-0.1c0.2,0,0.4-0.1,0.7-0.2
		c0.2-0.1,0.4-0.2,0.5-0.3s0.4-0.2,0.6-0.4l2.6-6.9H177.2z"
    />
    <path
      d="M176,105l1.6-1.2c0.3,0.4,0.6,0.7,0.9,0.9c0.3,0.2,0.7,0.3,1,0.3c0.4,0,0.8-0.1,1.1-0.3c0.3-0.2,0.5-0.5,0.5-0.8
		c0.1-0.5-0.3-1-1.2-1.4c-0.2-0.1-0.3-0.1-0.4-0.2c-0.6-0.3-1.1-0.7-1.3-1.1c-0.2-0.4-0.3-0.9-0.2-1.5c0.1-0.8,0.5-1.4,1.1-1.9
		c0.7-0.5,1.4-0.8,2.4-0.8c0.7,0,1.4,0.1,1.9,0.4c0.5,0.3,0.9,0.7,1.2,1.2l-1.6,1c-0.2-0.4-0.4-0.6-0.7-0.8c-0.3-0.2-0.6-0.2-1-0.2
		c-0.3,0-0.6,0.1-0.9,0.3c-0.2,0.2-0.4,0.4-0.4,0.7c-0.1,0.4,0.3,0.8,1.1,1.3c0.1,0,0.1,0.1,0.1,0.1c0.9,0.5,1.4,0.9,1.7,1.3
		c0.2,0.4,0.3,0.9,0.2,1.5c-0.1,0.9-0.6,1.6-1.3,2.2c-0.7,0.6-1.6,0.9-2.6,0.9c-0.7,0-1.3-0.1-1.9-0.4
		C176.9,106,176.4,105.6,176,105z"
    />
    <path d="M183.8,106.5l3.5-9.4h2.2l-3.4,9.4H183.8z M187.9,95.4l0.7-2h2.2l-0.7,2H187.9z" />
    <path
      d="M188.3,106.5l3.4-9.4h2.1l-0.3,0.9c0.6-0.4,1.1-0.6,1.5-0.8c0.5-0.2,0.9-0.3,1.3-0.3c0.7,0,1.3,0.2,1.7,0.7
		c0.4,0.4,0.5,1,0.4,1.7c0,0.1-0.1,0.3-0.1,0.6c-0.1,0.2-0.2,0.5-0.3,0.8l-2.1,5.8h-2.2l2.1-5.8c0.1-0.3,0.2-0.5,0.2-0.7
		c0.1-0.2,0.1-0.4,0.1-0.5c0-0.3,0-0.5-0.1-0.6c-0.1-0.1-0.4-0.2-0.7-0.2c-0.3,0-0.7,0.1-1.1,0.2c-0.4,0.2-0.8,0.4-1.3,0.7l-2.5,6.9
		H188.3z"
    />
    <path
      d="M204.4,103.7l1.5,1.1c-0.5,0.6-1.1,1.1-1.8,1.4c-0.7,0.3-1.4,0.5-2.2,0.5c-1.1,0-2-0.3-2.5-1c-0.5-0.7-0.7-1.6-0.5-2.9
		c0.2-1.7,0.9-3.2,1.9-4.3c1-1.1,2.1-1.6,3.5-1.6c1.1,0,1.9,0.3,2.4,1c0.5,0.7,0.7,1.6,0.5,2.8c0,0.2-0.1,0.4-0.1,0.6
		c0,0.2-0.1,0.5-0.2,0.9l-5.7,0c-0.1,0.1-0.1,0.3-0.1,0.4c0,0.1-0.1,0.2-0.1,0.3c-0.1,0.7,0,1.2,0.2,1.5c0.2,0.3,0.6,0.5,1.2,0.5
		c0.4,0,0.7-0.1,1.1-0.3C203.7,104.5,204,104.2,204.4,103.7z M201.6,100.6l3.5,0c0-0.1,0-0.1,0-0.2c0-0.1,0-0.2,0-0.3
		c0.1-0.6,0-1-0.2-1.2c-0.2-0.3-0.6-0.4-1-0.4c-0.5,0-0.9,0.2-1.4,0.5C202.2,99.4,201.9,99.9,201.6,100.6z"
    />
    <path
      d="M206.8,105l1.6-1.2c0.3,0.4,0.6,0.7,0.9,0.9c0.3,0.2,0.7,0.3,1,0.3c0.4,0,0.8-0.1,1.1-0.3c0.3-0.2,0.5-0.5,0.5-0.8
		c0.1-0.5-0.3-1-1.2-1.4c-0.2-0.1-0.3-0.1-0.4-0.2c-0.6-0.3-1.1-0.7-1.3-1.1c-0.2-0.4-0.3-0.9-0.2-1.5c0.1-0.8,0.5-1.4,1.1-1.9
		c0.7-0.5,1.4-0.8,2.4-0.8c0.7,0,1.4,0.1,1.9,0.4c0.5,0.3,0.9,0.7,1.2,1.2l-1.6,1c-0.2-0.4-0.4-0.6-0.7-0.8c-0.3-0.2-0.6-0.2-1-0.2
		c-0.3,0-0.6,0.1-0.9,0.3c-0.2,0.2-0.4,0.4-0.4,0.7c-0.1,0.4,0.3,0.8,1.1,1.3c0.1,0,0.1,0.1,0.1,0.1c0.9,0.5,1.4,0.9,1.7,1.3
		c0.2,0.4,0.3,0.9,0.2,1.5c-0.1,0.9-0.6,1.6-1.3,2.2c-0.7,0.6-1.6,0.9-2.6,0.9c-0.7,0-1.3-0.1-1.9-0.4
		C207.6,106,207.2,105.6,206.8,105z"
    />
    <path
      d="M214.5,105l1.6-1.2c0.3,0.4,0.6,0.7,0.9,0.9c0.3,0.2,0.7,0.3,1,0.3c0.4,0,0.8-0.1,1.1-0.3c0.3-0.2,0.5-0.5,0.5-0.8
		c0.1-0.5-0.3-1-1.2-1.4c-0.2-0.1-0.3-0.1-0.4-0.2c-0.6-0.3-1.1-0.7-1.3-1.1c-0.2-0.4-0.3-0.9-0.2-1.5c0.1-0.8,0.5-1.4,1.1-1.9
		c0.7-0.5,1.4-0.8,2.4-0.8c0.7,0,1.4,0.1,1.9,0.4c0.5,0.3,0.9,0.7,1.2,1.2l-1.6,1c-0.2-0.4-0.4-0.6-0.7-0.8c-0.3-0.2-0.6-0.2-1-0.2
		c-0.3,0-0.6,0.1-0.9,0.3c-0.2,0.2-0.4,0.4-0.4,0.7c-0.1,0.4,0.3,0.8,1.1,1.3c0.1,0,0.1,0.1,0.1,0.1c0.9,0.5,1.4,0.9,1.7,1.3
		c0.2,0.4,0.3,0.9,0.2,1.5c-0.1,0.9-0.6,1.6-1.3,2.2c-0.7,0.6-1.6,0.9-2.6,0.9c-0.7,0-1.3-0.1-1.9-0.4
		C215.4,106,214.9,105.6,214.5,105z"
    />
    <path
      d="M227.7,106.5l4.8-13.1h3c1.7,0,2.9,0.3,3.7,0.8c0.7,0.6,1,1.4,0.8,2.6c-0.2,1.4-0.8,2.4-1.7,3.2c-1,0.7-2.2,1.1-3.8,1.1
		h-2.3l-2,5.4H227.7z M232.9,99h1.5c0.9,0,1.7-0.2,2.2-0.5c0.5-0.3,0.8-0.9,0.9-1.6c0.1-0.5,0-0.9-0.4-1.2c-0.3-0.3-0.8-0.4-1.6-0.4
		h-1.3L232.9,99z"
    />
    <path
      d="M237.9,106.5l3.4-9.4h2.1l-0.6,1.5c0.4-0.6,0.8-1,1.2-1.2c0.4-0.3,0.9-0.4,1.3-0.4c0.1,0,0.2,0,0.4,0c0.1,0,0.1,0,0.1,0
		l-0.8,2.3c0,0-0.1,0-0.1,0c0,0-0.1,0-0.2,0c-0.5,0-0.9,0.1-1.4,0.4c-0.4,0.3-0.8,0.6-1.2,1.2l-2.1,5.7H237.9z"
    />
    <path
      d="M244.8,102.9c0.2-1.8,0.9-3.2,1.9-4.3c1-1.1,2.2-1.7,3.5-1.7c1.2,0,2,0.3,2.6,1c0.5,0.7,0.7,1.6,0.6,2.8
		c-0.1,0.8-0.4,1.6-0.7,2.4c-0.4,0.8-0.8,1.5-1.3,2.1c-0.4,0.5-0.9,0.9-1.5,1.1c-0.6,0.3-1.2,0.4-1.9,0.4c-1.2,0-2-0.3-2.6-1
		C244.8,105,244.6,104.1,244.8,102.9z M249.9,98.7c-0.3,0-0.6,0.1-0.9,0.2c-0.3,0.1-0.5,0.4-0.7,0.6c-0.3,0.4-0.6,1-0.9,1.6
		c-0.3,0.6-0.4,1.2-0.5,1.8c-0.1,0.6,0,1.1,0.1,1.4c0.2,0.3,0.5,0.4,1,0.4c0.3,0,0.7-0.1,0.9-0.3c0.3-0.2,0.5-0.4,0.8-0.8
		c0.3-0.5,0.6-1,0.8-1.6c0.2-0.6,0.4-1.2,0.5-1.7c0.1-0.6,0-1-0.2-1.3C250.7,98.9,250.4,98.7,249.9,98.7z"
    />
    <path d="M254.7,106.5l0.1-9.4h2.2l-0.4,6.6l3.6-6.6h2.3l-5.5,9.4H254.7z" />
    <path d="M260.6,106.5l3.5-9.4h2.2l-3.4,9.4H260.6z M264.8,95.4l0.7-2h2.2l-0.7,2H264.8z" />
    <path
      d="M270.7,106.5l0.4-1.1c-0.4,0.4-0.8,0.7-1.3,0.9c-0.5,0.2-1,0.3-1.5,0.3c-0.9,0-1.5-0.3-1.9-1c-0.4-0.7-0.5-1.6-0.4-2.8
		c0.1-0.8,0.4-1.6,0.7-2.4c0.4-0.8,0.8-1.4,1.4-2c0.5-0.5,1-0.9,1.5-1.1c0.5-0.3,1.1-0.4,1.7-0.4c0.6,0,1,0.1,1.4,0.4
		c0.4,0.2,0.7,0.6,0.9,1l1.8-4.9h2.3l-4.8,13.1H270.7z M271.6,103.7l1.4-3.9c-0.1-0.4-0.3-0.6-0.6-0.8c-0.3-0.2-0.6-0.3-1-0.3
		c-0.8,0-1.4,0.4-2.1,1.3c-0.6,0.8-1,1.9-1.2,3.2c-0.1,0.6,0,1,0.2,1.3c0.2,0.3,0.5,0.4,1,0.4c0.3,0,0.7-0.1,1-0.3
		C270.7,104.4,271.2,104.1,271.6,103.7z"
    />
    <path d="M275.1,106.5l3.5-9.4h2.2l-3.4,9.4H275.1z M279.2,95.4l0.7-2h2.2l-0.7,2H279.2z" />
    <path
      d="M279.6,106.5l3.4-9.4h2.1l-0.3,0.9c0.6-0.4,1.1-0.6,1.5-0.8c0.5-0.2,0.9-0.3,1.3-0.3c0.7,0,1.3,0.2,1.7,0.7
		c0.4,0.4,0.5,1,0.4,1.7c0,0.1-0.1,0.3-0.1,0.6c-0.1,0.2-0.2,0.5-0.3,0.8l-2.1,5.8H285l2.1-5.8c0.1-0.3,0.2-0.5,0.2-0.7
		c0.1-0.2,0.1-0.4,0.1-0.5c0-0.3,0-0.5-0.1-0.6c-0.1-0.1-0.4-0.2-0.7-0.2c-0.3,0-0.7,0.1-1.1,0.2c-0.4,0.2-0.8,0.4-1.3,0.7l-2.5,6.9
		H279.6z"
    />
    <path
      d="M292,102.3c-0.3-0.3-0.4-0.6-0.5-0.9s-0.1-0.7-0.1-1.1c0.1-0.9,0.6-1.7,1.3-2.4c0.7-0.6,1.6-1,2.6-1c0.5,0,0.9,0.1,1.2,0.2
		c0.3,0.1,0.7,0.3,0.9,0.6c0.3-0.3,0.6-0.5,0.9-0.7c0.3-0.1,0.6-0.2,1-0.2h0.1l-0.2,1.7c-0.1,0-0.1,0-0.2-0.1c-0.1,0-0.2,0-0.3,0
		c-0.1,0-0.2,0-0.3,0c-0.1,0-0.2,0.1-0.2,0.1c0.1,0.2,0.2,0.4,0.2,0.7c0,0.3,0,0.6,0,0.9c-0.1,0.9-0.6,1.7-1.3,2.3
		c-0.7,0.6-1.6,0.9-2.6,0.9c-0.3,0-0.6,0-0.8-0.1c-0.3-0.1-0.5-0.1-0.7-0.2c-0.3,0.1-0.5,0.3-0.6,0.4c-0.1,0.1-0.2,0.3-0.2,0.4
		c0,0.3,0.3,0.5,1.1,0.6c0.3,0.1,0.5,0.1,0.7,0.1c1.3,0.3,2,0.6,2.4,1c0.3,0.4,0.5,0.9,0.4,1.7c-0.1,0.9-0.6,1.5-1.3,2
		c-0.8,0.5-1.8,0.7-3,0.7c-1.3,0-2.2-0.2-2.9-0.7c-0.7-0.5-1-1.1-0.9-1.9c0.1-0.5,0.3-0.9,0.7-1.3c0.4-0.3,0.9-0.6,1.6-0.7
		c-0.3-0.1-0.5-0.2-0.6-0.5c-0.1-0.2-0.2-0.5-0.1-0.8c0-0.3,0.2-0.6,0.6-1C290.9,102.8,291.4,102.5,292,102.3z M291.7,106
		c-0.4,0.2-0.7,0.4-0.9,0.6c-0.2,0.2-0.3,0.4-0.4,0.7c0,0.3,0.1,0.6,0.4,0.8c0.3,0.2,0.8,0.3,1.4,0.3c0.7,0,1.2-0.1,1.6-0.3
		c0.4-0.2,0.6-0.5,0.6-0.8c0.1-0.5-0.7-0.9-2.4-1.2C291.9,106,291.8,106,291.7,106z M295.2,98.5c-0.5,0-0.8,0.2-1.2,0.5
		c-0.3,0.3-0.5,0.8-0.6,1.3c-0.1,0.4,0,0.7,0.2,1c0.2,0.2,0.5,0.4,0.9,0.4c0.5,0,0.9-0.2,1.2-0.5c0.3-0.3,0.5-0.8,0.6-1.4
		c0.1-0.4,0-0.7-0.2-0.9C295.9,98.6,295.6,98.5,295.2,98.5z"
    />
    <path
      d="M303.4,105l1.6-1.2c0.3,0.4,0.6,0.7,0.9,0.9c0.3,0.2,0.7,0.3,1,0.3c0.4,0,0.8-0.1,1.1-0.3c0.3-0.2,0.5-0.5,0.5-0.8
		c0.1-0.5-0.3-1-1.2-1.4c-0.2-0.1-0.3-0.1-0.4-0.2c-0.6-0.3-1.1-0.7-1.3-1.1c-0.2-0.4-0.3-0.9-0.2-1.5c0.1-0.8,0.5-1.4,1.1-1.9
		c0.7-0.5,1.4-0.8,2.4-0.8c0.7,0,1.4,0.1,1.9,0.4c0.5,0.3,0.9,0.7,1.2,1.2l-1.6,1c-0.2-0.4-0.4-0.6-0.7-0.8c-0.3-0.2-0.6-0.2-1-0.2
		c-0.3,0-0.6,0.1-0.9,0.3c-0.2,0.2-0.4,0.4-0.4,0.7c-0.1,0.4,0.3,0.8,1.1,1.3c0.1,0,0.1,0.1,0.1,0.1c0.9,0.5,1.4,0.9,1.7,1.3
		c0.2,0.4,0.3,0.9,0.2,1.5c-0.1,0.9-0.5,1.6-1.3,2.2c-0.7,0.6-1.6,0.9-2.6,0.9c-0.7,0-1.3-0.1-1.9-0.4
		C304.2,106,303.8,105.6,303.4,105z"
    />
    <path d="M311.1,106.5l3.5-9.4h2.2l-3.4,9.4H311.1z M315.2,95.4l0.7-2h2.2l-0.7,2H315.2z" />
    <path
      d="M315.6,106.5l3.4-9.4h2.1l-0.3,0.9c0.6-0.4,1.1-0.6,1.5-0.8c0.5-0.2,0.9-0.3,1.3-0.3c0.7,0,1.3,0.2,1.7,0.7
		c0.4,0.4,0.5,1,0.4,1.7c0,0.1-0.1,0.3-0.1,0.6c-0.1,0.2-0.2,0.5-0.3,0.8l-2.1,5.8h-2.2l2.1-5.8c0.1-0.3,0.2-0.5,0.2-0.7
		c0.1-0.2,0.1-0.4,0.1-0.5c0-0.3,0-0.5-0.1-0.6c-0.1-0.1-0.4-0.2-0.7-0.2c-0.3,0-0.7,0.1-1.1,0.2c-0.4,0.2-0.8,0.4-1.3,0.7l-2.5,6.9
		H315.6z"
    />
    <path
      d="M331.8,103.5l1.5,1.2c-0.5,0.7-1.1,1.2-1.7,1.5c-0.7,0.4-1.4,0.5-2.1,0.5c-1.2,0-2.1-0.3-2.6-1c-0.5-0.7-0.7-1.7-0.6-2.9
		c0.1-0.9,0.4-1.7,0.8-2.5c0.4-0.8,0.9-1.5,1.5-2c0.5-0.4,0.9-0.7,1.5-0.9c0.5-0.2,1.1-0.3,1.6-0.3c0.9,0,1.6,0.2,2.2,0.7
		c0.5,0.5,0.8,1.2,0.9,2.1l-2,0.5c0-0.5-0.1-0.9-0.4-1.2c-0.2-0.3-0.5-0.4-1-0.4c-0.3,0-0.6,0.1-0.9,0.3c-0.3,0.2-0.6,0.4-0.8,0.8
		c-0.3,0.4-0.6,1-0.8,1.6c-0.3,0.6-0.4,1.2-0.5,1.7c-0.1,0.6,0,1,0.2,1.3c0.2,0.3,0.5,0.5,0.9,0.5c0.5,0,0.9-0.1,1.3-0.4
		C331.2,104.3,331.5,103.9,331.8,103.5z"
    />
    <path
      d="M340.1,103.7l1.5,1.1c-0.5,0.6-1.1,1.1-1.8,1.4c-0.7,0.3-1.4,0.5-2.2,0.5c-1.1,0-2-0.3-2.5-1c-0.5-0.7-0.7-1.6-0.5-2.9
		c0.2-1.7,0.9-3.2,1.9-4.3c1-1.1,2.1-1.6,3.5-1.6c1.1,0,1.9,0.3,2.4,1c0.5,0.7,0.7,1.6,0.5,2.8c0,0.2-0.1,0.4-0.1,0.6
		c0,0.2-0.1,0.5-0.2,0.9l-5.7,0c-0.1,0.1-0.1,0.3-0.1,0.4c0,0.1-0.1,0.2-0.1,0.3c-0.1,0.7,0,1.2,0.2,1.5c0.2,0.3,0.6,0.5,1.2,0.5
		c0.4,0,0.7-0.1,1.1-0.3C339.4,104.5,339.7,104.2,340.1,103.7z M337.3,100.6l3.5,0c0-0.1,0-0.1,0-0.2c0-0.1,0-0.2,0-0.3
		c0.1-0.6,0-1-0.2-1.2c-0.2-0.3-0.6-0.4-1-0.4c-0.5,0-0.9,0.2-1.4,0.5C337.9,99.4,337.6,99.9,337.3,100.6z"
    />
    <path
      d="M348.9,106.5l0.7-1.8h2.1l3.4-9.2l-2.5,0.4l0.5-1.4c0.8-0.1,1.4-0.3,2-0.5c0.6-0.2,1.1-0.4,1.5-0.7h1.7l-4.2,11.5h2.2
		l-0.7,1.8H348.9z"
    />
    <path
      d="M366.9,100.9c-0.4,0.3-0.9,0.5-1.3,0.7c-0.4,0.1-0.9,0.2-1.3,0.2c-1.2,0-2.1-0.4-2.7-1.1c-0.6-0.7-0.9-1.7-0.7-2.9
		c0.2-1.4,0.8-2.5,1.7-3.4c1-0.9,2.1-1.3,3.5-1.3c1.4,0,2.5,0.4,3.2,1.3c0.7,0.9,0.9,2.2,0.6,3.8c-0.1,1-0.4,2.1-0.9,3.1
		c-0.4,1-1,1.9-1.7,2.8c-0.7,0.8-1.4,1.4-2.2,1.9c-0.8,0.4-1.7,0.6-2.6,0.6c-0.7,0-1.3-0.1-1.8-0.3c-0.6-0.2-1.1-0.6-1.5-1l1.5-1.4
		c0.3,0.3,0.7,0.5,1,0.6c0.3,0.1,0.7,0.2,1,0.2c0.9,0,1.8-0.3,2.5-1C365.9,103.2,366.5,102.2,366.9,100.9z M367.7,98.6
		c0-0.1,0-0.1,0-0.2c0-0.1,0-0.2,0-0.3c0.1-1,0-1.7-0.3-2.3c-0.3-0.5-0.9-0.8-1.6-0.8c-0.7,0-1.3,0.3-1.8,0.8
		c-0.5,0.5-0.8,1.2-0.9,2c-0.1,0.7,0,1.2,0.4,1.6c0.3,0.4,0.8,0.6,1.5,0.6c0.5,0,0.9-0.1,1.4-0.4C366.9,99.4,367.3,99.1,367.7,98.6z
		"
    />
    <path
      d="M377.7,100.9c-0.4,0.3-0.9,0.5-1.3,0.7c-0.4,0.1-0.9,0.2-1.3,0.2c-1.2,0-2.1-0.4-2.7-1.1c-0.6-0.7-0.9-1.7-0.7-2.9
		c0.2-1.4,0.8-2.5,1.7-3.4c1-0.9,2.1-1.3,3.5-1.3c1.4,0,2.5,0.4,3.2,1.3c0.7,0.9,0.9,2.2,0.6,3.8c-0.1,1-0.4,2.1-0.9,3.1
		c-0.4,1-1,1.9-1.7,2.8c-0.7,0.8-1.4,1.4-2.2,1.9c-0.8,0.4-1.7,0.6-2.6,0.6c-0.7,0-1.3-0.1-1.8-0.3c-0.6-0.2-1.1-0.6-1.5-1l1.5-1.4
		c0.3,0.3,0.7,0.5,1,0.6c0.3,0.1,0.7,0.2,1,0.2c0.9,0,1.8-0.3,2.5-1C376.6,103.2,377.2,102.2,377.7,100.9z M378.4,98.6
		c0-0.1,0-0.1,0-0.2c0-0.1,0-0.2,0-0.3c0.1-1,0-1.7-0.3-2.3c-0.3-0.5-0.9-0.8-1.6-0.8c-0.7,0-1.3,0.3-1.8,0.8
		c-0.5,0.5-0.8,1.2-0.9,2c-0.1,0.7,0,1.2,0.4,1.6c0.3,0.4,0.8,0.6,1.5,0.6c0.5,0,0.9-0.1,1.4-0.4C377.6,99.4,378,99.1,378.4,98.6z"
    />
    <path
      d="M388.4,100.9c-0.4,0.3-0.9,0.5-1.3,0.7c-0.4,0.1-0.9,0.2-1.3,0.2c-1.2,0-2.1-0.4-2.7-1.1c-0.6-0.7-0.9-1.7-0.7-2.9
		c0.2-1.4,0.8-2.5,1.7-3.4c1-0.9,2.1-1.3,3.5-1.3c1.4,0,2.5,0.4,3.2,1.3c0.7,0.9,0.9,2.2,0.6,3.8c-0.1,1-0.4,2.1-0.9,3.1
		c-0.4,1-1,1.9-1.7,2.8c-0.7,0.8-1.4,1.4-2.2,1.9c-0.8,0.4-1.7,0.6-2.6,0.6c-0.7,0-1.3-0.1-1.8-0.3c-0.6-0.2-1.1-0.6-1.5-1l1.5-1.4
		c0.3,0.3,0.7,0.5,1,0.6c0.3,0.1,0.7,0.2,1,0.2c0.9,0,1.8-0.3,2.5-1C387.3,103.2,387.9,102.2,388.4,100.9z M389.1,98.6
		c0-0.1,0-0.1,0-0.2c0-0.1,0-0.2,0-0.3c0.1-1,0-1.7-0.3-2.3c-0.3-0.5-0.9-0.8-1.6-0.8c-0.7,0-1.3,0.3-1.8,0.8
		c-0.5,0.5-0.8,1.2-0.9,2c-0.1,0.7,0,1.2,0.4,1.6c0.3,0.4,0.8,0.6,1.5,0.6c0.5,0,0.9-0.1,1.4-0.4C388.3,99.4,388.7,99.1,389.1,98.6z
		"
    />
</g>
</svg>
