<?xml version="1.0" encoding="UTF-8"?><svg id="Ebene_1" xmlns="http://www.w3.org/2000/svg" xmlns:xlink="http://www.w3.org/1999/xlink" viewBox="0 0 24 24"><defs><style>.cls-1{fill:none;}.cls-2{clip-path:url(#clippath);}.cls-3{fill:#0019a5;}.cls-4{clip-path:url(#clippath-1);}</style><clipPath id="clippath"><rect class="cls-1" width="24" height="24"/></clipPath><clipPath id="clippath-1"><rect class="cls-1" width="24" height="24"/></clipPath></defs><g class="cls-2"><g class="cls-4"><path class="cls-3" d="M9.18,8.65c.15,.15,.15,.38,0,.53-.08,.07-.17,.11-.27,.11s-.19-.04-.27-.11l-2.65-2.65-2.65,2.65c-.07,.07-.17,.11-.27,.11s-.19-.04-.27-.11c-.15-.15-.15-.39,0-.53l2.65-2.65L2.82,3.35c-.15-.15-.15-.38,0-.53,.15-.15,.39-.15,.53,0l2.65,2.65,2.65-2.65c.15-.15,.38-.15,.53,0,.15,.15,.15,.39,0,.53l-2.65,2.65,2.65,2.65Z"/><path class="cls-3" d="M8.98,22.13c-.17,0-.32-.12-.36-.29-.05-.2,.08-.4,.28-.45,2.45-.58,5.23-2.34,7.82-4.96,2.42-2.45,4.06-4.98,4.72-7.33,.64-2.24,.32-4.07-.91-5.3l-1.52-1.51c-.53-.52-1.33-.57-1.78-.11l-2.28,2.3c-.46,.46-.4,1.26,.13,1.78l1.59,1.58c1.46,1.44,.72,4.22-1.8,6.77-2.53,2.55-5.31,3.33-6.76,1.88l-1.59-1.58c-.26-.26-.59-.41-.94-.42-.33-.02-.63,.1-.84,.31l-2.28,2.3c-.46,.46-.4,1.26,.13,1.78l1.52,1.51c.2,.2,.44,.39,.69,.55,.18,.11,.23,.34,.12,.52-.11,.18-.34,.23-.52,.12-.3-.19-.58-.41-.82-.65l-1.52-1.51c-.82-.81-.88-2.09-.13-2.84l2.28-2.3c.37-.37,.86-.56,1.41-.54,.53,.02,1.04,.25,1.43,.64l1.59,1.58c1.14,1.13,3.49,.36,5.7-1.88,2.21-2.23,2.95-4.58,1.81-5.71l-1.59-1.58c-.82-.81-.88-2.09-.13-2.84l2.28-2.3c.75-.75,2.02-.71,2.84,.11l1.52,1.51c1.42,1.4,1.81,3.55,1.11,6.03-.7,2.47-2.4,5.12-4.91,7.65-2.69,2.72-5.6,4.55-8.18,5.16-.03,0-.06,0-.09,0"/><path class="cls-3" d="M7.5,21.75c0,.41-.34,.75-.75,.75s-.75-.34-.75-.75,.34-.75,.75-.75,.75,.34,.75,.75"/></g></g></svg>