<svg id="icon" xmlns="http://www.w3.org/2000/svg" viewBox="0 0 192 192"><defs><style>.cls-1{fill:none;}</style></defs><rect class="cls-1" width="192" height="192"/><path d="M149.5,102.9a7.73,7.73,0,0,0-5.4-2.2,8.21,8.21,0,0,0-5.6,2.2L120,121.4,70.2,71.5,88.7,53.2A8.31,8.31,0,0,0,91,47.6a7.82,7.82,0,0,0-2.3-5.4L48.8,2.3A7.41,7.41,0,0,0,43.4,0a7.87,7.87,0,0,0-5.6,2.3l-26,26a38.57,38.57,0,0,0,0,54.6h0l75.7,75.7a7.78,7.78,0,0,0,11-11L22.8,71.9a23.27,23.27,0,0,1-.1-32.7L43.4,18.7,72.3,47.6,53.8,66.1a7.41,7.41,0,0,0-2.3,5.4,8.31,8.31,0,0,0,2.3,5.6l60.8,60.8a7.73,7.73,0,0,0,5.4,2.2,8.4,8.4,0,0,0,5.6-2.2l18.5-18.5,28.7,28.7-20.5,20.5c-10.2,10.2-22.1,10.5-31.9.8a7.85,7.85,0,0,0-11,0,7.76,7.76,0,0,0,0,11c7.9,7.7,17,11.6,26.3,11.6s19.2-4.1,27.5-12.4l26-26a7.87,7.87,0,0,0,2.3-5.6,7.25,7.25,0,0,0-2.3-5.4Z"/></svg>