<svg id="icon" xmlns="http://www.w3.org/2000/svg" viewBox="0 0 192 192"><defs><style>.cls-1{fill:none;}</style></defs><rect class="cls-1" width="192" height="192"/><path d="M26.6,0A15.17,15.17,0,0,0,11.4,15.1a14.9,14.9,0,0,0,4.5,10.7A15.15,15.15,0,0,0,41.8,15.1h0A15.3,15.3,0,0,0,26.6,0Zm0,21.2a6.15,6.15,0,0,1-6.2-6.1A6.21,6.21,0,0,1,26.6,9a6.06,6.06,0,0,1,6.1,6.1A6.19,6.19,0,0,1,26.6,21.2Z"/><path d="M71.8,30.3h0A15.19,15.19,0,0,0,87,15.1h0A15.17,15.17,0,0,0,71.8,0h0A15.22,15.22,0,0,0,61.1,4.4a14.9,14.9,0,0,0-4.5,10.7A15.32,15.32,0,0,0,71.8,30.3ZM67.4,10.7A6.56,6.56,0,0,1,71.8,9h0a6.06,6.06,0,0,1,6.1,6.1h0a6.22,6.22,0,0,1-1.8,4.3,5.82,5.82,0,0,1-4.3,1.8h0a6.15,6.15,0,0,1-6.2-6.1A7.2,7.2,0,0,1,67.4,10.7Z"/><path d="M117.1,30.3a15.09,15.09,0,0,0,15.1-15.1h0a15.26,15.26,0,0,0-30.4,0,14.9,14.9,0,0,0,4.5,10.7A15.82,15.82,0,0,0,117.1,30.3Zm0-21.3a6.1,6.1,0,1,1,0,12.2,5.53,5.53,0,0,1-4.4-1.8,5.82,5.82,0,0,1-1.8-4.3A6.21,6.21,0,0,1,117.1,9Z"/><path d="M26.6,40.2A15.17,15.17,0,0,0,11.4,55.3,15.39,15.39,0,0,0,26.6,70.5,15.24,15.24,0,0,0,41.7,55.3h0A15.15,15.15,0,0,0,26.6,40.2Zm0,21.4a6.66,6.66,0,0,1-4.4-1.8,6.15,6.15,0,0,1,4.4-10.5,6.06,6.06,0,0,1,6.1,6.1h0A6.35,6.35,0,0,1,26.6,61.6Z"/><path d="M117.1,70.6a15.24,15.24,0,0,0,15.1-15.2h0a15.26,15.26,0,0,0-30.4,0A15.61,15.61,0,0,0,117.1,70.6Zm0-21.4a6.06,6.06,0,0,1,6.1,6.1h0a6.15,6.15,0,0,1-6.1,6.2,6.15,6.15,0,1,1,0-12.3Z"/><path d="M26.6,80.4h0A15.32,15.32,0,0,0,11.4,95.6a14.9,14.9,0,0,0,4.5,10.7A15.15,15.15,0,0,0,41.8,95.6h0A15.19,15.19,0,0,0,26.6,80.4Zm0,21.4a6.66,6.66,0,0,1-4.4-1.8,6.15,6.15,0,0,1,4.4-10.5h0a6.41,6.41,0,0,1,4.3,1.8,6.66,6.66,0,0,1,1.8,4.4A6.19,6.19,0,0,1,26.6,101.8Z"/><path d="M179.7,140.3,168.2,94.4c0-.2-.1-.5-.1-.7l-.3-.9a13.14,13.14,0,0,0-5.8-7.5,12.87,12.87,0,0,0-9.4-1.5l-9.5,1.6a12.56,12.56,0,0,0-14.8-8.1L118.6,79h-.5l-.8.2a9,9,0,0,0-2.7-2.1,12.4,12.4,0,0,0-9.4-1.5l-9.5,1.6-7-26.3A17.16,17.16,0,0,0,71.8,37.4h-.1A17.41,17.41,0,0,0,54.3,54.8a41,41,0,0,0,1.2,7L68,107.4l-7.6,1.9a12.42,12.42,0,0,0-7.9,5.9,12.7,12.7,0,0,0-1.5,9.7l10.7,42.5a19.85,19.85,0,0,0,8.8,12L90.1,191a6.68,6.68,0,0,0,3,1h.7a6.79,6.79,0,0,0,6.4-4.6,6.89,6.89,0,0,0-3-7.9L77.7,167.8a5.85,5.85,0,0,1-2.8-3.7L64.4,122.4l7.1-1.8,5.1,18.6a6.87,6.87,0,0,0,8.3,4.8h0a6.66,6.66,0,0,0,4.8-8.1v-.1l-5.2-19.2-.3-1L68.7,58.3c-.3-1.2-.7-2.9-.8-3.6A4.71,4.71,0,0,1,69,52.1,3.86,3.86,0,0,1,71.7,51h.1a3.76,3.76,0,0,1,3.7,3c0,.1,0,.1.1.2l14,53.1a6.78,6.78,0,0,0,13.1-3.4L99.2,90.6l8.2-1.5,1.2,4.9a1.7,1.7,0,0,0,.1.7l2.5,9.8h0a6.68,6.68,0,0,0,8.1,4.9h.1a6.82,6.82,0,0,0,5-8.1l-2.3-9.1,8.2-1.4,2.5,9.9a.37.37,0,0,1,.1.3l.9,3.6a6.78,6.78,0,0,0,8.2,4.9,6.68,6.68,0,0,0,4.9-8.1v-.1l-.7-2.7,8.5-1.5.3.8,10.4,41.6.9,3.8a24.46,24.46,0,0,1-2.8,18.3,24.09,24.09,0,0,1-11,9.7,6.78,6.78,0,1,0,5.7,12.3A37.83,37.83,0,0,0,175,168.5,36.93,36.93,0,0,0,179.7,140.3Z"/></svg>