<svg id="icon" xmlns="http://www.w3.org/2000/svg" viewBox="0 0 192 192"><defs><style>.cls-1{fill:none;}</style></defs><rect class="cls-1" width="192" height="192"/><path d="M67.2,57.6v102a6.6,6.6,0,0,0,13.2,0V57.6a6.6,6.6,0,0,0-13.2,0Z"/><path d="M111.7,57.6v102a6.59,6.59,0,0,0,6.6,6.6,6.43,6.43,0,0,0,6.6-6.4V57.6a6.6,6.6,0,0,0-13.2,0Z"/><path d="M161.2,23.3h-43V13.8A13.83,13.83,0,0,0,104.4,0H87.6A13.83,13.83,0,0,0,73.8,13.8v9.5h-43a16,16,0,0,0-16,16h0V55.4A6.59,6.59,0,0,0,21.4,62H28V176a16,16,0,0,0,16,16H148a16,16,0,0,0,16-16,6.6,6.6,0,1,0-13.2,0,2.8,2.8,0,0,1-2.8,2.8H44a2.8,2.8,0,0,1-2.8-2.8V55.3a6.59,6.59,0,0,0-6.6-6.6H28V39.2a2.8,2.8,0,0,1,2.8-2.8H161.3a2.8,2.8,0,0,1,2.8,2.8v9.6h-6.5a6.62,6.62,0,0,0-6.7,6.6V151a6.6,6.6,0,0,0,13.2,0V62.1h6.6a6.59,6.59,0,0,0,6.6-6.6V39.2a16,16,0,0,0-16.1-15.9ZM82.7,13.8a5,5,0,0,1,5-5h16.9a5,5,0,0,1,5,5v9.5H82.7Z"/></svg>