<svg id="icon" xmlns="http://www.w3.org/2000/svg" viewBox="0 0 192 192"><defs><style>.cls-1{fill:none;}</style></defs><rect class="cls-1" width="192" height="192"/><path d="M161.6,187.3a7,7,0,0,1-4.7-1.9l-33.1-33.1a6.72,6.72,0,0,1,9.5-9.5l21.6,21.6V147.5a6.7,6.7,0,0,1,6.7-6.7,17.12,17.12,0,0,0,17.1-16.9V35a17.05,17.05,0,0,0-17.1-16.9H30.4A17.12,17.12,0,0,0,13.3,35v88.9a17.05,17.05,0,0,0,17.1,16.9h71.2a6.7,6.7,0,1,1,0,13.4H30.4A30.34,30.34,0,0,1,0,124V35A30.34,30.34,0,0,1,30.3,4.7H161.5a30.28,30.28,0,0,1,30.4,30.2v89a30.69,30.69,0,0,1-23.7,29.7v27.1a6.66,6.66,0,0,1-4.1,6.2A7.27,7.27,0,0,1,161.6,187.3Z"/><path d="M133.9,110.7H58.1a31.3,31.3,0,1,1,31.1-34,6.67,6.67,0,0,1-13.3,1.1A17.83,17.83,0,1,0,58.2,97.3H134a18,18,0,1,0-17.7-19.5A6.67,6.67,0,0,1,103,76.7h0a31.32,31.32,0,1,1,30.9,34Z"/></svg>