<svg id="icon" xmlns="http://www.w3.org/2000/svg" viewBox="0 0 192 192"><defs><style>.cls-1{fill:none;}</style></defs><rect class="cls-1" width="192" height="192"/><path d="M139.1,105.7a39.26,39.26,0,0,0-39.3,36,8.48,8.48,0,1,0,16.9,1.5h0A22.5,22.5,0,1,1,139,167.8H43.4a22.7,22.7,0,1,1,22.4-24.7,8.48,8.48,0,1,0,16.9-1.5h0a39.55,39.55,0,1,0-39.2,43h95.8a39.57,39.57,0,1,0,4.8-79C142.3,105.6,140.7,105.6,139.1,105.7Z"/><path d="M188,38.1,159.7,9.8a8.49,8.49,0,0,0-12,12l17.7,17.6H8.4a8.4,8.4,0,0,0,0,16.8h157L147.1,74.6a8.34,8.34,0,0,0,11.8,11.8l29-28.9A13.73,13.73,0,0,0,188,38.1Z"/></svg>