<svg id="einstellungen__2secondary" data-name="einstellungen _2secondary" xmlns="http://www.w3.org/2000/svg" width="36" height="36.015" viewBox="0 0 36 36.015">
  <path id="Path_1745" data-name="Path 1745" d="M20.574,36.015H15.426a1.276,1.276,0,0,1-1.283-1.283V32.953A15.107,15.107,0,0,1,10.163,31.3L8.909,32.559a1.3,1.3,0,0,1-1.823,0L3.441,28.928a1.27,1.27,0,0,1-.379-.9,1.245,1.245,0,0,1,.379-.9L4.7,25.866a15.107,15.107,0,0,1-1.648-3.981H1.283A1.31,1.31,0,0,1,0,20.574V15.426a1.285,1.285,0,0,1,1.283-1.283H3.062A15.107,15.107,0,0,1,4.71,10.163L3.456,8.909A1.27,1.27,0,0,1,3.077,8a1.245,1.245,0,0,1,.379-.9L7.1,3.456A1.27,1.27,0,0,1,8,3.077a1.245,1.245,0,0,1,.9.379L10.163,4.71a15.833,15.833,0,0,1,3.981-1.648V1.283A1.288,1.288,0,0,1,15.441,0h5.147a1.276,1.276,0,0,1,1.283,1.283V3.062A15.107,15.107,0,0,1,25.852,4.71l1.254-1.254a1.27,1.27,0,0,1,.9-.379,1.245,1.245,0,0,1,.9.379L32.544,7.1a1.3,1.3,0,0,1,0,1.823L31.29,10.177a15.107,15.107,0,0,1,1.648,3.981h1.779A1.276,1.276,0,0,1,36,15.441v5.147a1.276,1.276,0,0,1-1.283,1.283H32.953A15.107,15.107,0,0,1,31.3,25.852l1.254,1.254a1.3,1.3,0,0,1,0,1.823l-3.631,3.631a1.3,1.3,0,0,1-1.823,0L25.852,31.3a15.107,15.107,0,0,1-3.981,1.648v1.779A1.288,1.288,0,0,1,20.574,36.015Zm-3.849-2.566H19.29V31.932a1.283,1.283,0,0,1,1.05-1.269,12.65,12.65,0,0,0,4.943-2.056,1.281,1.281,0,0,1,1.633.146L28,29.832l1.823-1.823-1.079-1.079a1.281,1.281,0,0,1-.146-1.633,12.834,12.834,0,0,0,2.056-4.943,1.283,1.283,0,0,1,1.269-1.05h1.516V16.739H31.917a1.283,1.283,0,0,1-1.269-1.05,12.65,12.65,0,0,0-2.056-4.943,1.281,1.281,0,0,1,.146-1.633l1.079-1.079L28,6.211,26.916,7.29a1.281,1.281,0,0,1-1.633.146A12.834,12.834,0,0,0,20.34,5.38a1.283,1.283,0,0,1-1.05-1.269V2.566H16.724V4.1a1.283,1.283,0,0,1-1.05,1.269,12.65,12.65,0,0,0-4.943,2.056A1.281,1.281,0,0,1,9.1,7.276L8.019,6.2,6.182,8,7.261,9.084a1.281,1.281,0,0,1,.146,1.633,12.561,12.561,0,0,0-2.041,4.957A1.283,1.283,0,0,1,4.1,16.724H2.566V19.29H4.1a1.283,1.283,0,0,1,1.269,1.05,12.65,12.65,0,0,0,2.056,4.943,1.281,1.281,0,0,1-.146,1.633L6.2,28l1.823,1.823L9.1,28.739a1.281,1.281,0,0,1,1.633-.146,12.834,12.834,0,0,0,4.943,2.056,1.283,1.283,0,0,1,1.05,1.269v1.531Z" fill="#fff"/>
  <path id="Path_1746" data-name="Path 1746" d="M63.194,73.488A10.294,10.294,0,1,1,73.488,63.194,10.311,10.311,0,0,1,63.194,73.488Zm0-18.007a7.713,7.713,0,1,0,7.713,7.713A7.716,7.716,0,0,0,63.194,55.481Z" transform="translate(-45.187 -45.187)" fill="#fff"/>
</svg>
