<svg id="icon" xmlns="http://www.w3.org/2000/svg" viewBox="0 0 192 192"><defs><style>.cls-1{fill:none;}</style></defs><rect class="cls-1" width="192" height="192"/><path d="M129.2,69a21.7,21.7,0,1,1,21.7-21.7A21.68,21.68,0,0,1,129.2,69Zm-1.1-35.1a13.45,13.45,0,1,0,2.4,0Z"/><path d="M160.5,100.2H97.9a4,4,0,0,1-4.1-3.9v-.2A35.28,35.28,0,0,1,106.4,69a4.12,4.12,0,1,1,5.2,6.4A26.69,26.69,0,0,0,102.2,92h53.7a27.56,27.56,0,0,0-9.5-16.8,4.11,4.11,0,0,1,.1-5.8,4.22,4.22,0,0,1,5.1-.5A35,35,0,0,1,164.3,96a4,4,0,0,1-3.9,4.1C160.7,100.2,160.6,100.2,160.5,100.2Z"/><path d="M187,74.2H166a4,4,0,0,1-4.1-3.9v-.2A4.06,4.06,0,0,1,166,66h16.6a26.82,26.82,0,0,0-9.5-16.6,4.15,4.15,0,0,1,5.3-6.4l.1.1a35.23,35.23,0,0,1,12.6,27,4,4,0,0,1-3.9,4.1Z"/><path d="M160,42.6a4.11,4.11,0,0,1-1-8.1,13.44,13.44,0,1,0-16.2-16.4,4.27,4.27,0,0,1-5,2.9,4.06,4.06,0,0,1-2.9-5v-.1a21.48,21.48,0,1,1,41.4,11.5,21.74,21.74,0,0,1-15.4,15.1Z"/><path d="M108.4,192c-7.4,0-14.7-3.1-21-9.2a6.15,6.15,0,1,1,8.7-8.7h0c7.8,7.7,17.3,7.4,25.4-.6l16.3-16.3L115,134.3,100.3,149a6.16,6.16,0,0,1-8.7,0L43.2,100.6a5.73,5.73,0,0,1-1.7-4.3,6.56,6.56,0,0,1,1.7-4.4L58,77.1l-23-23L18.6,70.4a18.35,18.35,0,0,0,0,26l60.2,60.1a6.19,6.19,0,0,1-8.6,8.9l-.2-.2-60.1-60a30.78,30.78,0,0,1,0-43.5h0L30.7,40.9a6,6,0,0,1,8.6,0L71,72.7a6.16,6.16,0,0,1,0,8.7L56.3,96.1,96,135.8l14.7-14.7a6.2,6.2,0,0,1,4.4-1.8h0a6.22,6.22,0,0,1,4.3,1.8l31.5,31.5a6.16,6.16,0,0,1,0,8.7l-20.7,20.8C123.7,188.7,116,192,108.4,192Z"/></svg>