<svg id="icon" xmlns="http://www.w3.org/2000/svg" viewBox="0 0 192 192"><defs><style>.cls-1{fill:none;}</style></defs><rect class="cls-1" width="192" height="192"/><path d="M56.9,139.4H6a5.94,5.94,0,0,1-4.2-1.7A5.78,5.78,0,0,1,0,133.3V100C0,79.8,13.2,66.2,32.9,66H158.1A33.9,33.9,0,0,1,192,99.9v33.5a5.79,5.79,0,0,1-1.8,4.2,6,6,0,0,1-4.2,1.8H134.8a6,6,0,0,1-6-6V108.7h-45a6,6,0,0,1,0-12h51.1a6.13,6.13,0,0,1,4.2,1.7,6.41,6.41,0,0,1,1.8,4.3v24.6H180V99.9A22,22,0,0,0,158.1,78H33c-13.1.1-21,8.3-21,22v27.4H50.9V102.7a6,6,0,0,1,6-6h0a6,6,0,0,1,6,6v30.7a5.62,5.62,0,0,1-1.8,4.2A6,6,0,0,1,56.9,139.4Z"/></svg>