<svg id="icon" xmlns="http://www.w3.org/2000/svg" viewBox="0 0 192 192"><defs><style>.cls-1{fill:none;}</style></defs><rect class="cls-1" x="0.4" y="0.4" width="191.2" height="191.2"/><path d="M182,11.3l-7.1-4.7a22.18,22.18,0,0,0-30.7,6.1c0,.1-.1.1-.1.2L126.7,39.2h-.1l-62.4,94a4.55,4.55,0,0,0-.8,1.9L56,172.7a.9.9,0,0,0-.1.5c-.8,5.7-1.2,11.6,3.6,14.6a8.06,8.06,0,0,0,4.6,1.4c3.3,0,6.8-1.8,10.1-3.6l.7-.4,31.6-21.5a4,4,0,0,0,1.4-1.5l50.7-76.3a5.39,5.39,0,1,0-8.2-7,3.59,3.59,0,0,0-.7,1L99.6,155.4,71.8,174.3l-4.6-3,6.5-33.1,58.9-88.8L163,69.6a5.28,5.28,0,0,0,7.3-1.4v-.1L190,38.4l.6-1.2A21.74,21.74,0,0,0,182,11.3Zm-1.2,21.9L164.4,57.8,138.5,40.7l14.5-22a12.4,12.4,0,0,1,7.4-5,11.28,11.28,0,0,1,8.7,1.8l7.1,4.6A11.77,11.77,0,0,1,180.8,33.2Z"/><path d="M42.5,178.4H6.1a5.4,5.4,0,1,0-1.5,10.7,3.79,3.79,0,0,0,1.5,0H42.5a5.4,5.4,0,0,0,0-10.7Z"/></svg>