<svg id="icon" xmlns="http://www.w3.org/2000/svg" viewBox="0 0 192 192"><defs><style>.cls-1{fill:none;}</style></defs><rect class="cls-1" width="192" height="192"/><path d="M127.9,48.7H24.8A24.8,24.8,0,0,0,0,73.5v84.3a24.8,24.8,0,0,0,24.8,24.8H127.9a24.8,24.8,0,0,0,24.8-24.8V73.5A24.8,24.8,0,0,0,127.9,48.7Zm12.4,109.1a12.46,12.46,0,0,1-12.4,12.4H24.8a12.46,12.46,0,0,1-12.4-12.4V73.5A12.46,12.46,0,0,1,24.8,61.1H127.9a12.46,12.46,0,0,1,12.4,12.4v84.3Z"/><path d="M167.2,9.4H64.1A24.8,24.8,0,0,0,39.3,34.2h0a6.2,6.2,0,1,0,12.4,0A12.46,12.46,0,0,1,64.1,21.8H167.2a12.46,12.46,0,0,1,12.4,12.4v84.3a12.46,12.46,0,0,1-12.4,12.4,6.2,6.2,0,1,0,0,12.4A24.8,24.8,0,0,0,192,118.5V34.2A24.8,24.8,0,0,0,167.2,9.4Z"/></svg>