<svg id="Component_41" data-name="Component 41" xmlns="http://www.w3.org/2000/svg" width="36" height="36" viewBox="0 0 36 36">
  <path id="AdressBook_2secondary" d="M23.13,25.29a4,4,0,1,0-6.5,0,4.633,4.633,0,0,0-2.406,4.04v1.64a1.143,1.143,0,1,0,2.286,0V29.33a2.409,2.409,0,0,1,2.446-2.36H20.81a2.406,2.406,0,0,1,2.446,2.36v1.64a1.143,1.143,0,1,0,2.286,0V29.33A4.642,4.642,0,0,0,23.13,25.29Zm-3.251-4.034a1.714,1.714,0,1,1-1.714,1.714,1.719,1.719,0,0,1,1.714-1.714ZM32.5,14.97H7.359A3.431,3.431,0,0,0,3.93,18.4V32.684a3.431,3.431,0,0,0,3.429,3.429H32.5a3.431,3.431,0,0,0,3.429-3.429V18.4A3.431,3.431,0,0,0,32.5,14.97Zm1.143,17.714A1.146,1.146,0,0,1,32.5,33.827H7.359a1.146,1.146,0,0,1-1.143-1.143V18.4a1.146,1.146,0,0,1,1.143-1.143H32.5A1.146,1.146,0,0,1,33.644,18.4ZM6.787,12.113A1.146,1.146,0,0,1,7.93,10.97h24a1.143,1.143,0,0,1,0,2.286h-24A1.143,1.143,0,0,1,6.787,12.113Zm2.286-4A1.146,1.146,0,0,1,10.216,6.97H29.644a1.143,1.143,0,1,1,0,2.286H10.216A1.143,1.143,0,0,1,9.073,8.113Z" transform="translate(-1.93 -2.97)" fill="#fff"/>
  <rect id="Rectangle_1173" data-name="Rectangle 1173" width="36" height="36" fill="none"/>
</svg>
