<svg xmlns="http://www.w3.org/2000/svg" width="62.629" height="61.492" viewBox="0 0 62.629 61.492">
  <path id="Person__1Primary" data-name="Person _1Primary" d="M98.041,92.765a1.135,1.135,0,0,0,.481-1.53C94.864,84.224,87.023,79.2,77.549,77.4a19.931,19.931,0,1,0-15.406,0C48.909,79.939,39.1,88.859,39.1,99.455a1.137,1.137,0,1,0,2.274,0c0-11.3,12.768-20.492,28.465-20.492,11.791,0,22.5,5.364,26.658,13.336A1.156,1.156,0,0,0,98.041,92.765ZM52.188,59.024a17.65,17.65,0,1,1,17.65,17.65A17.666,17.666,0,0,1,52.188,59.024ZM101.729,98.3a2.274,2.274,0,1,1-2.274-2.274A2.277,2.277,0,0,1,101.729,98.3Z" transform="translate(-39.1 -39.1)" fill="rgba(0,25,165,0.2)"/>
</svg>
