<?xml version="1.0" encoding="UTF-8"?><svg id="icon" xmlns="http://www.w3.org/2000/svg" viewBox="0 0 192 192"><defs><style>.cls-1{fill:none;}.cls-2{fill:#fff;}</style></defs><rect class="cls-1" width="192" height="192"/><g><path class="cls-2" d="M152.89,16H39.11c-3.91,0-7.11,3-7.11,6.67V169.33c0,3.67,3.2,6.67,7.11,6.67h113.78c3.91,0,7.11-3,7.11-6.67V22.67c0-3.67-3.2-6.67-7.11-6.67Zm-.89,152H40V24h112V168Z"/><circle class="cls-2" cx="132" cy="44" r="12"/><path class="cls-2" d="M52,128h24c2.21,0,4-1.79,4-4s-1.79-4-4-4h-24c-2.21,0-4,1.79-4,4s1.79,4,4,4Z"/><path class="cls-2" d="M52,144h24c2.21,0,4-1.79,4-4s-1.79-4-4-4h-24c-2.21,0-4,1.79-4,4s1.79,4,4,4Z"/><path class="cls-2" d="M92,128h48c2.21,0,4-1.79,4-4s-1.79-4-4-4h-48c-2.21,0-4,1.79-4,4s1.79,4,4,4Z"/><path class="cls-2" d="M92,144h48c2.21,0,4-1.79,4-4s-1.79-4-4-4h-48c-2.21,0-4,1.79-4,4s1.79,4,4,4Z"/><path class="cls-2" d="M52,112h24c2.21,0,4-1.79,4-4s-1.79-4-4-4h-24c-2.21,0-4,1.79-4,4s1.79,4,4,4Z"/><path class="cls-2" d="M92,112h48c2.21,0,4-1.79,4-4s-1.79-4-4-4h-48c-2.21,0-4,1.79-4,4s1.79,4,4,4Z"/></g></svg>