<svg id="icon" xmlns="http://www.w3.org/2000/svg" viewBox="0 0 192 192"><defs><style>.cls-1{fill:none;}</style></defs><rect class="cls-1" width="192" height="192"/><path d="M100,139c17.4,0,31.5-14.9,31.5-33.3V89.1a6,6,0,0,0-12,0v16.6c0,11.8-8.7,21.3-19.5,21.3s-19.4-9.5-19.4-21.3V33.3C80.6,21.5,89.3,12,100,12s19.5,9.5,19.5,21.3V57.7a6,6,0,0,0,12,0h0V33.3C131.5,14.9,117.4,0,100,0S68.6,14.9,68.6,33.3v72.4C68.6,124.1,82.7,139,100,139Z"/><path d="M157.9,74.4h-9.1a6,6,0,0,0-6,6V108a42.5,42.5,0,0,1-84.9,0V80.4a6,6,0,0,0-6-6H42.2a6,6,0,0,0,0,12h3.7V108a54.51,54.51,0,0,0,48.5,54v18H70.9a6,6,0,1,0,0,12h59.2a6,6,0,1,0,0-12H106.4V162a54.39,54.39,0,0,0,48.4-54V86.4h3.1a6,6,0,0,0,0-12Z"/></svg>