<svg xmlns="http://www.w3.org/2000/svg" width="24" height="23.313" viewBox="0 0 24 23.313">
  <g id="pfeil_rechts__1primary" data-name="pfeil rechts _1primary" transform="translate(0 -3.565)">
    <circle id="Ellipse_138" data-name="Ellipse 138" cx="0.855" cy="0.855" r="0.855" transform="translate(0 18.227)" fill="#245891"/>
    <path id="Path_3603" data-name="Path 3603" d="M11.49,26.878a2.255,2.255,0,0,1-.865-.175,2.207,2.207,0,0,1-1.39-2.032V19.52H3.217a.428.428,0,1,1,0-.855H10.09v6.007a1.336,1.336,0,0,0,.855,1.235,1.27,1.27,0,0,0,1.409-.253l10.43-10.43L12.355,4.793a1.272,1.272,0,0,0-1.409-.253,1.332,1.332,0,0,0-.855,1.235v6.007H.428a.428.428,0,1,1,0-.855h8.8V5.775a2.207,2.207,0,0,1,1.39-2.032,2.122,2.122,0,0,1,2.352.437L24,15.214,12.967,26.256A2.077,2.077,0,0,1,11.49,26.878Z" transform="translate(0)" fill="#245891"/>
  </g>
</svg>
