<svg id="icon" xmlns="http://www.w3.org/2000/svg" viewBox="0 0 192 192"><defs><style>.cls-1{fill:none;}</style></defs><rect class="cls-1" width="192" height="192"/><path d="M27.3,192.1a13.2,13.2,0,0,1-9.6-4L3.8,174.3a13.6,13.6,0,0,1,0-19.2L73.6,85.4a61.61,61.61,0,1,1,29.5,31.4,6,6,0,1,1,4.23-11.23,6.26,6.26,0,0,1,1.07.53,49.52,49.52,0,1,0-13-79.4C80.6,41.5,76.8,65.1,86.1,84.1A5.9,5.9,0,0,1,85,91L12.3,163.6a1.61,1.61,0,0,0,0,2.2l13.9,13.8a1.5,1.5,0,0,0,2.1,0L85,123a5.89,5.89,0,0,1,8.34-.16c.06,0,.11.11.16.16a6.1,6.1,0,0,1,0,8.5L36.8,188.1A13.17,13.17,0,0,1,27.3,192.1Z"/></svg>