<svg id="Component_40" data-name="Component 40" xmlns="http://www.w3.org/2000/svg" width="36" height="36" viewBox="0 0 36 36">
  <g id="Freunde_2Secondary" transform="translate(-36.1 -100.6)">
    <path id="Path_1741" data-name="Path 1741" d="M173.732,143.68a4.292,4.292,0,1,0-6.68,0,4.438,4.438,0,0,0-2.952,3.882v6.021a1.143,1.143,0,0,0,2.285,0v-6.021c0-1.238,1.831-2.278,4.006-2.278s4.006,1.04,4.006,2.278v6.021a1.143,1.143,0,0,0,2.285,0v-6.021A4.427,4.427,0,0,0,173.732,143.68Zm-5.339-2.688a2,2,0,1,1,2,2A2,2,0,0,1,168.392,140.992Z" transform="translate(-115.845 -26.042)" fill="#fff"/>
    <path id="Path_1742" data-name="Path 1742" d="M49.215,117.558a1.153,1.153,0,0,0-.344-1.582c-.2-.125-.41-.234-.63-.344a4.294,4.294,0,1,0-6.577.029,4.288,4.288,0,0,0-2.564,3.86v8.013a1.143,1.143,0,1,0,2.285,0v-8.006c0-1.348,1.458-2.285,3.545-2.285a5.091,5.091,0,0,1,2.7.667A1.147,1.147,0,0,0,49.215,117.558ZM44.938,110.9a2,2,0,1,1-2,2A2,2,0,0,1,44.938,110.9Z" transform="translate(0 0)" fill="#fff"/>
    <path id="Path_1743" data-name="Path 1743" d="M328.028,115.861a4.25,4.25,0,0,0,1.018-2.769,4.292,4.292,0,1,0-7.6,2.739,4.745,4.745,0,0,0-.63.344,1.145,1.145,0,1,0,1.238,1.926,5.091,5.091,0,0,1,2.7-.667c2.087,0,3.545.945,3.545,2.285v8.013a1.143,1.143,0,1,0,2.285,0v-8.02A4.285,4.285,0,0,0,328.028,115.861Zm-3.274-4.775a2,2,0,1,1-2,2A2,2,0,0,1,324.754,111.085Z" transform="translate(-260.598 -0.185)" fill="#fff"/>
  </g>
  <rect id="Rectangle_1172" data-name="Rectangle 1172" width="36" height="36" fill="none"/>
</svg>
