<svg id="Component_42" data-name="Component 42" xmlns="http://www.w3.org/2000/svg" width="36" height="36" viewBox="0 0 36 36">
  <path id="Konferenz_Anruf_2Secondary" data-name="Konferenz Anruf_2Secondary" d="M43.79,52.34a.849.849,0,0,0,.938-.743c.123-1.082,1.234-1.789,2.821-1.789,1.652,0,2.987.772,3.1,1.789a.848.848,0,0,0,.837.75.512.512,0,0,0,.1-.007.846.846,0,0,0,.743-.938A3.578,3.578,0,0,0,50.1,48.639a3.35,3.35,0,0,0,.83-2.215,3.384,3.384,0,1,0-5.9,2.251A3.472,3.472,0,0,0,43.04,51.4.865.865,0,0,0,43.79,52.34Zm3.759-7.6a1.688,1.688,0,1,1-1.688,1.688A1.691,1.691,0,0,1,47.549,44.735Zm9.488,7.6a.853.853,0,0,0,.938-.743c.123-1.089,1.234-1.789,2.821-1.789,1.652,0,2.987.772,3.1,1.789a.848.848,0,0,0,.837.75.512.512,0,0,0,.1-.007.846.846,0,0,0,.743-.938,3.578,3.578,0,0,0-2.237-2.763,3.35,3.35,0,0,0,.83-2.215,3.384,3.384,0,1,0-5.9,2.251A3.472,3.472,0,0,0,56.287,51.4.865.865,0,0,0,57.037,52.34Zm2.071-5.916A1.688,1.688,0,1,1,60.8,48.112,1.691,1.691,0,0,1,59.108,46.423Zm-9,15.744a3.35,3.35,0,0,0,.83-2.215,3.384,3.384,0,1,0-5.9,2.251,3.472,3.472,0,0,0-1.984,2.727.846.846,0,1,0,1.681.195c.123-1.082,1.234-1.789,2.821-1.789,1.652,0,2.987.772,3.1,1.789a.848.848,0,0,0,.837.75.512.512,0,0,0,.1-.007.846.846,0,0,0,.743-.938A3.554,3.554,0,0,0,50.1,62.167Zm-2.554-3.9a1.688,1.688,0,1,1-1.688,1.688A1.691,1.691,0,0,1,47.549,58.264Zm15.8,3.9a3.35,3.35,0,0,0,.83-2.215,3.384,3.384,0,1,0-5.9,2.251,3.472,3.472,0,0,0-1.984,2.727.846.846,0,1,0,1.681.195c.123-1.082,1.234-1.789,2.821-1.789,1.652,0,2.987.772,3.1,1.789a.848.848,0,0,0,.837.75.511.511,0,0,0,.1-.007.846.846,0,0,0,.743-.938A3.554,3.554,0,0,0,63.35,62.167Zm-4.243-2.215A1.688,1.688,0,1,1,60.8,61.64,1.691,1.691,0,0,1,59.108,59.952ZM65.587,39.1H43.047A3.948,3.948,0,0,0,39.1,43.047V65.594a3.948,3.948,0,0,0,3.947,3.947H65.594a3.948,3.948,0,0,0,3.947-3.947V43.047A3.958,3.958,0,0,0,65.587,39.1Zm1.7,26.487a1.691,1.691,0,0,1-1.688,1.688H43.047a1.691,1.691,0,0,1-1.688-1.688V43.047a1.691,1.691,0,0,1,1.688-1.688H65.594a1.691,1.691,0,0,1,1.688,1.688v22.54Zm-1.407-11.27a.841.841,0,0,1-.844.844h-9.87v9.863a.844.844,0,1,1-1.688,0V55.161H43.61a.844.844,0,0,1,0-1.688h9.863V43.609a.844.844,0,0,1,1.688,0v9.863h9.863A.847.847,0,0,1,65.876,54.317Z" transform="translate(-36.1 -36.1)" fill="#fff"/>
  <rect id="Rectangle_1174" data-name="Rectangle 1174" width="36" height="36" fill="none"/>
</svg>
