<svg id="icon" xmlns="http://www.w3.org/2000/svg" viewBox="0 0 192 192"><rect width="192" height="192" style="fill:none"/><path d="M96,155.8a6,6,0,0,0,6-6V135.4a13,13,0,1,0-12,0v14.4A6,6,0,0,0,96,155.8Z"/><path d="M153.8,79.5H140.5V53.3a44.5,44.5,0,0,0-89,0V79.5H38.2c-8.6,0-15.6,7.8-15.6,17.4v68.9c0,9.5,7,17.4,15.6,17.4a6,6,0,0,0,6-6,5.9,5.9,0,0,0-6-6c-1.7,0-3.6-2.3-3.6-5.4V96.9c0-3.1,1.9-5.4,3.6-5.4H153.8c1.7,0,3.6,2.3,3.6,5.4v68.9c0,3.1-1.9,5.4-3.6,5.4H63a6,6,0,0,0-6,6,6,6,0,0,0,6,6h90.8c8.6,0,15.6-7.9,15.6-17.4V96.9C169.4,87.3,162.4,79.5,153.8,79.5ZM63.5,53.3a32.5,32.5,0,0,1,65,0V79.5h-65Z"/></svg>
