<svg id="icon" xmlns="http://www.w3.org/2000/svg" viewBox="0 0 192 192"><defs><style>.cls-1{fill:none;}</style></defs><rect class="cls-1" width="192" height="192"/><path d="M184,106.3a8,8,0,0,0-8,8h0v57.2a3.33,3.33,0,0,1-3.3,3.3H19.4a3.33,3.33,0,0,1-3.3-3.3V113.7a8,8,0,0,0-16,0v57.8a19.42,19.42,0,0,0,19.4,19.4H172.7a19.42,19.42,0,0,0,19.4-19.4V114.3a8.18,8.18,0,0,0-8.1-8Z"/><path d="M86.8,143.5a13,13,0,0,0,8.3,3.7H97a13.49,13.49,0,0,0,8.3-3.7l45.4-45.4a8,8,0,0,0,.2-11.2l-.2-.2a8.15,8.15,0,0,0-11.4,0L104,122V9.1a8,8,0,1,0-16,0V122L52.8,86.8a8.15,8.15,0,0,0-11.4,0A8,8,0,0,0,41.2,98l.2.2Z"/></svg>