<svg id="icon" xmlns="http://www.w3.org/2000/svg" viewBox="0 0 192 192"><defs><style>.cls-1{fill:none;}</style></defs><rect class="cls-1" width="192" height="192"/><path d="M183.9,2a5.8,5.8,0,0,0-8.2-.2l-.2.2-44,44V33.3C131.5,14.9,117.4,0,100,0S68.6,14.9,68.6,33.3v72.4c0,1,0,2,.1,3l-9.5,9.5A43.34,43.34,0,0,1,57.9,108V80.4a6,6,0,0,0-6-6H42.2a6,6,0,0,0,0,12h3.7V108a53.8,53.8,0,0,0,3.8,19.7L8.1,169.4a5.89,5.89,0,0,0-.16,8.34l.16.16a6,6,0,0,0,8.4,0l39.1-39.1A53.87,53.87,0,0,0,94.4,162v18H70.9a6,6,0,1,0,0,12h59.2a6,6,0,1,0,0-12H106.4V162a54.39,54.39,0,0,0,48.4-54V86.4h3.1a6,6,0,0,0,0-12h-9.1a6,6,0,0,0-6,6V108a42.4,42.4,0,0,1-78.6,22.2l8.3-8.3C77.9,132.1,88.2,139,100,139c17.4,0,31.5-14.9,31.5-33.3V89.1a6,6,0,0,0-12,0v16.6c0,11.8-8.7,21.3-19.5,21.3-8.5,0-15.7-6-18.3-14.3L183.9,10.5a5.89,5.89,0,0,0,.16-8.34ZM80.6,33.3C80.6,21.5,89.3,12,100,12s19.5,9.5,19.5,21.3V57.9L80.6,96.8Z"/></svg>