<svg id="icon" xmlns="http://www.w3.org/2000/svg" viewBox="0 0 192 192"><defs><style>.cls-1{fill:none;}</style></defs><rect class="cls-1" width="192" height="192"/><path d="M186.4,113.6A5.6,5.6,0,0,0,192,108h0V55.1a13.49,13.49,0,0,0-13.5-13.5H146.8V14.9A13.49,13.49,0,0,0,133.3,1.4H58.8A13.5,13.5,0,0,0,45.2,14.8V41.6H13.5A13.49,13.49,0,0,0,0,55.1v74.5a13.6,13.6,0,0,0,13.5,13.5H45.2v34a13.49,13.49,0,0,0,13.5,13.5h74.5a13.5,13.5,0,0,0,13.6-13.4V143.1h31.7A13.6,13.6,0,0,0,192,129.6a5.6,5.6,0,0,0-11.2,0,2.3,2.3,0,0,1-2.3,2.3H146.8V113.6a5.7,5.7,0,0,0-5.6-5.6H50.8a5.7,5.7,0,0,0-5.6,5.6v18.3H13.5a2.3,2.3,0,0,1-2.3-2.3h0V55.1a2.3,2.3,0,0,1,2.2-2.4H45.2V67.6H38.6A5.6,5.6,0,0,0,33,73.2a5.7,5.7,0,0,0,5.6,5.6H153.4a5.7,5.7,0,0,0,5.6-5.6,5.6,5.6,0,0,0-5.6-5.6h-6.6V52.7h31.7a2.3,2.3,0,0,1,2.3,2.3v53a5.6,5.6,0,0,0,5.6,5.6Zm-130,5.6h79.2v57.9a2.39,2.39,0,0,1-2.4,2.4H58.8a2.39,2.39,0,0,1-2.4-2.4Zm0-51.6V14.9a2.39,2.39,0,0,1,2.4-2.4h74.4a2.39,2.39,0,0,1,2.4,2.4V67.6Z"/><path d="M74.4,136.5h43.2a3.7,3.7,0,0,0,0-7.4H74.4a3.7,3.7,0,0,0,0,7.4Z"/><path d="M74.4,153.4h43.2a3.8,3.8,0,0,0,0-7.5H74.4a3.8,3.8,0,0,0,0,7.5Z"/><path d="M74.4,170.2h43.2a3.8,3.8,0,0,0,0-7.5H74.4a3.8,3.8,0,0,0,0,7.5Z"/></svg>