<svg id="anruf__2secondary" data-name="anruf  _2secondary" xmlns="http://www.w3.org/2000/svg" width="32" height="32" viewBox="0 0 32 32">
  <path id="anruf__2secondary-2" data-name="anruf  _2secondary" d="M9.556,31.4H9.5a7.986,7.986,0,0,1-5.815-2.305L1.514,26.88a3.558,3.558,0,0,1-.155-5.012l3.354-3.315a3.268,3.268,0,0,1,2.331-.945h.013a3.818,3.818,0,0,1,2.655,1.14L12,21.066a2.154,2.154,0,0,0,1.541.583h.013c1.645,0,3.833-1.2,5.866-3.212,2.02-2.033,3.212-4.235,3.212-5.879a2.05,2.05,0,0,0-.583-1.541L19.734,8.724a3.764,3.764,0,0,1-1.14-2.655,3.352,3.352,0,0,1,.945-2.357L22.855.358A3.574,3.574,0,0,1,27.88.514L30.095,2.7A8.039,8.039,0,0,1,32.4,8.517C32.426,13,29.564,18.45,24.565,23.5l-.078.078C19.463,28.551,14.023,31.4,9.556,31.4ZM7.043,19.939a.958.958,0,0,0-.686.272L3,23.526a1.242,1.242,0,0,0,.168,1.722L5.36,27.463a5.662,5.662,0,0,0,4.157,1.606c3.885.013,8.715-2.59,13.326-7.161l.065-.065c4.571-4.61,7.174-9.467,7.161-13.326A5.62,5.62,0,0,0,28.463,4.36L26.248,2.171A1.241,1.241,0,0,0,24.526,2L21.2,5.357a.986.986,0,0,0-.272.7,1.454,1.454,0,0,0,.453,1.01L23.7,9.359a4.354,4.354,0,0,1,1.269,3.186c.013,2.279-1.412,5.025-3.9,7.537-2.512,2.486-5.271,3.9-7.537,3.9a4.406,4.406,0,0,1-3.186-1.269L8.053,20.392a1.38,1.38,0,0,0-1.01-.453ZM23.671,22.736Z" transform="translate(-0.4 0.6)" fill="#fff"/>
</svg>
