<svg id="Person__2Secondary" data-name="Person _2Secondary" xmlns="http://www.w3.org/2000/svg" width="21" height="20.612" viewBox="0 0 21 20.612">
  <path id="Person__2Secondary-2" data-name="Person _2Secondary" d="M53.269,51.626a6.806,6.806,0,1,0-7.339,0C41.9,52.707,39.1,55.535,39.1,58.935a.777.777,0,0,0,1.553,0c0-3.43,4.013-6.223,8.947-6.223s8.947,2.793,8.947,6.223a.777.777,0,0,0,1.553,0C60.1,55.535,57.3,52.707,53.269,51.626Zm-8.922-5.72A5.252,5.252,0,1,1,49.6,51.153,5.257,5.257,0,0,1,44.347,45.906Z" transform="translate(-39.1 -39.1)" fill="#fff"/>
</svg>
