<svg id="icon" xmlns="http://www.w3.org/2000/svg" viewBox="0 0 192 192"><defs><style>.cls-1{fill:none;}</style></defs><rect class="cls-1" width="192" height="192"/><path d="M141.5,47.4H66.9L85.5,28.8A6,6,0,0,0,77,20.3L50.8,46.6a9.8,9.8,0,0,0,0,13.8L77,86.7a6.2,6.2,0,0,0,8.5,0,6.1,6.1,0,0,0,0-8.5L66.8,59.4h74.7a37.3,37.3,0,0,1,17.6,70.2,6,6,0,0,0,2.8,11.3,6,6,0,0,0,2.9-.8,49.3,49.3,0,0,0-23.3-92.7Z"/><path d="M114.5,106.8a6,6,0,0,0-8.5,8.5L124.7,134H49.3A37.2,37.2,0,0,1,34,62.8a6,6,0,1,0-5-11h0A49.3,49.3,0,0,0,49.3,146h75.4L106,164.7a6.1,6.1,0,0,0,0,8.5,6.2,6.2,0,0,0,8.5,0l26.2-26.3a9.8,9.8,0,0,0,0-13.8Z"/></svg>