<svg id="icon" xmlns="http://www.w3.org/2000/svg" viewBox="0 0 192 192"><defs><style>.cls-1{fill:none;}</style></defs><rect class="cls-1" width="192" height="192"/><path d="M96,108a6,6,0,0,1-6-6V6a6,6,0,0,1,12,0v96A6,6,0,0,1,96,108Z"/><path d="M96,192A90.11,90.11,0,0,1,6,102,89.18,89.18,0,0,1,24.2,47.7a90.9,90.9,0,0,1,46.2-32,6,6,0,0,1,7.4,4,6.11,6.11,0,0,1-4,7.5,78.61,78.61,0,0,0-40,27.7A76.78,76.78,0,0,0,18,102a78,78,0,0,0,156,0,76.78,76.78,0,0,0-15.8-47.1,78.61,78.61,0,0,0-40-27.7,6.11,6.11,0,0,1-4-7.5,6,6,0,0,1,7.4-4,90.9,90.9,0,0,1,46.2,32A89.18,89.18,0,0,1,186,102,90.11,90.11,0,0,1,96,192Z"/></svg>