<svg id="Component_10_2" data-name="Component 10 – 2" xmlns="http://www.w3.org/2000/svg" width="171.542" height="24" viewBox="0 0 171.542 24">
  <g id="Group_211" data-name="Group 211" transform="translate(37.28)">
    <g id="Group_205" data-name="Group 205">
      <g id="Group_181" data-name="Group 181" transform="translate(0 0.553)">
        <g id="Group_180" data-name="Group 180">
          <path id="Path_1720" data-name="Path 1720" d="M239.515,5.713H235.8V3.5h9.723V5.713h-3.715V15.879h-2.293Z" transform="translate(-235.8 -3.5)" fill="#f2f4ff"/>
        </g>
      </g>
      <g id="Group_183" data-name="Group 183" transform="translate(8.727 3.747)">
        <g id="Group_182" data-name="Group 182">
          <path id="Path_1721" data-name="Path 1721" d="M299.759,30.23a4.2,4.2,0,0,1-4.158,2.83,4.481,4.481,0,0,1-4.6-4.68,4.481,4.481,0,0,1,4.6-4.68,4.4,4.4,0,0,1,4.427,4.506,5.5,5.5,0,0,1-.047.632l-.032.253h-6.735A2.381,2.381,0,0,0,295.6,31.21a2.057,2.057,0,0,0,1.85-.964h2.308Zm-1.945-2.656a2.21,2.21,0,0,0-2.213-2.04,2.381,2.381,0,0,0-2.387,2.04Z" transform="translate(-291 -23.7)" fill="#f2f4ff"/>
        </g>
      </g>
      <g id="Group_185" data-name="Group 185" transform="translate(19.067 0.553)">
        <g id="Group_184" data-name="Group 184">
          <path id="Path_1722" data-name="Path 1722" d="M356.4,3.5h2.213V15.879H356.4Z" transform="translate(-356.4 -3.5)" fill="#f2f4ff"/>
        </g>
      </g>
      <g id="Group_187" data-name="Group 187" transform="translate(22.593 3.747)">
        <g id="Group_186" data-name="Group 186">
          <path id="Path_1723" data-name="Path 1723" d="M387.459,30.23a4.2,4.2,0,0,1-4.158,2.83,4.481,4.481,0,0,1-4.6-4.68,4.481,4.481,0,0,1,4.6-4.68,4.4,4.4,0,0,1,4.427,4.506,5.491,5.491,0,0,1-.047.632l-.032.253h-6.719a2.381,2.381,0,0,0,2.387,2.119,2.057,2.057,0,0,0,1.85-.964h2.292Zm-1.945-2.656a2.21,2.21,0,0,0-2.213-2.04,2.38,2.38,0,0,0-2.387,2.04Z" transform="translate(-378.7 -23.7)" fill="#f2f4ff"/>
        </g>
      </g>
      <g id="Group_189" data-name="Group 189" transform="translate(32.158 0.364)">
        <g id="Group_188" data-name="Group 188">
          <path id="Path_1724" data-name="Path 1724" d="M440.7,7.976h-1.5V5.842h1.5V4.513A2.075,2.075,0,0,1,442.915,2.3h1.945V4.245h-1.328a.608.608,0,0,0-.617.617v.964h1.945V7.944h-1.945v6.893H440.7Z" transform="translate(-439.2 -2.3)" fill="#f2f4ff"/>
        </g>
      </g>
      <g id="Group_191" data-name="Group 191" transform="translate(38.134 3.747)">
        <g id="Group_190" data-name="Group 190">
          <path id="Path_1725" data-name="Path 1725" d="M486.2,28.379a4.6,4.6,0,1,1-9.2,0,4.6,4.6,0,1,1,9.2,0Zm-2.213,0a2.4,2.4,0,1,0-4.775,0,2.4,2.4,0,1,0,4.775,0Z" transform="translate(-477 -23.699)" fill="#f2f4ff"/>
        </g>
      </g>
      <g id="Group_193" data-name="Group 193" transform="translate(48.648 3.715)">
        <g id="Group_192" data-name="Group 192" transform="translate(0)">
          <path id="Path_1726" data-name="Path 1726" d="M543.5,23.69h2.039l.174.885h.095A3.1,3.1,0,0,1,548.29,23.5a3.509,3.509,0,0,1,3.542,3.794v5.391h-2.214V27.468a1.945,1.945,0,1,0-3.889,0v5.217h-2.213v-9Z" transform="translate(-543.5 -23.5)" fill="#f2f4ff"/>
        </g>
      </g>
      <g id="Group_195" data-name="Group 195" transform="translate(62.198 3.747)">
        <g id="Group_194" data-name="Group 194">
          <path id="Path_1727" data-name="Path 1727" d="M638.038,29.518A4.186,4.186,0,0,1,633.8,33.06a4.481,4.481,0,0,1-4.6-4.68,4.481,4.481,0,0,1,4.6-4.68,4.183,4.183,0,0,1,4.237,3.447h-2.214a2.065,2.065,0,0,0-2.039-1.407A2.448,2.448,0,0,0,631.4,28.4a2.448,2.448,0,0,0,2.387,2.656,2.021,2.021,0,0,0,2.039-1.5h2.214Z" transform="translate(-629.2 -23.7)" fill="#f2f4ff"/>
        </g>
      </g>
      <g id="Group_197" data-name="Group 197" transform="translate(71.779 3.763)">
        <g id="Group_196" data-name="Group 196">
          <path id="Path_1728" data-name="Path 1728" d="M695.729,32.085h-.095a3.012,3.012,0,0,1-.617.538,3.524,3.524,0,0,1-1.945.538c-2.055,0-3.273-1.249-3.273-2.735,0-1.771,1.233-3,3.716-3h2.039v-.174a1.532,1.532,0,0,0-1.6-1.676,1.512,1.512,0,0,0-1.6,1.154h-2.214c.19-1.486,1.391-2.925,3.794-2.925a3.5,3.5,0,0,1,3.794,3.447v5.739h-1.85Zm-.174-3h-1.85c-1.154,0-1.676.443-1.676,1.154s.506,1.154,1.407,1.154a1.909,1.909,0,0,0,2.119-2.04Z" transform="translate(-689.8 -23.8)" fill="#f2f4ff"/>
        </g>
      </g>
      <g id="Group_199" data-name="Group 199" transform="translate(58.656 3.905)">
        <g id="Group_198" data-name="Group 198">
          <path id="Path_1729" data-name="Path 1729" d="M606.8,24.7h2.213v9.012H606.8Z" transform="translate(-606.8 -24.7)" fill="#f2f4ff"/>
        </g>
      </g>
      <g id="Group_202" data-name="Group 202" transform="translate(58.451)">
        <g id="Group_201" data-name="Group 201">
          <g id="Group_200" data-name="Group 200">
            <ellipse id="Ellipse_7" data-name="Ellipse 7" cx="1.312" cy="1.312" rx="1.312" ry="1.312" fill="#f2f4ff"/>
          </g>
        </g>
      </g>
      <g id="Group_204" data-name="Group 204" transform="translate(41.85 0.111)">
        <g id="Group_203" data-name="Group 203">
          <path id="Path_1730" data-name="Path 1730" d="M502.176.7h2.308L502.35,3.261H500.5Z" transform="translate(-500.5 -0.7)" fill="#f2f4ff"/>
        </g>
      </g>
    </g>
    <g id="Group_210" data-name="Group 210" transform="translate(1.075 18.466)">
      <g id="Group_209" data-name="Group 209">
        <g id="Group_206" data-name="Group 206">
          <ellipse id="Ellipse_8" data-name="Ellipse 8" cx="2.767" cy="2.767" rx="2.767" ry="2.767" fill="#f2f4ff"/>
        </g>
        <g id="Group_207" data-name="Group 207" transform="translate(6.498)">
          <ellipse id="Ellipse_9" data-name="Ellipse 9" cx="2.767" cy="2.767" rx="2.767" ry="2.767" fill="#f2f4ff"/>
        </g>
        <g id="Group_208" data-name="Group 208" transform="translate(12.996)">
          <ellipse id="Ellipse_10" data-name="Ellipse 10" cx="2.767" cy="2.767" rx="2.767" ry="2.767" fill="#f2f4ff"/>
        </g>
      </g>
    </g>
  </g>
  <g id="Group_212" data-name="Group 212" transform="translate(0 0.553)">
    <path id="Path_1731" data-name="Path 1731" d="M0,15.864V3.5H7.794V4.543H1.107V9.1H7.431V10.14H1.107v4.68H7.794v1.043Z" transform="translate(0 -3.5)" fill="#f2f4ff"/>
    <path id="Path_1732" data-name="Path 1732" d="M62.2,4.827a.735.735,0,0,1,1.47,0,.735.735,0,1,1-1.47,0Zm.206,11.542V7.547h1.043v8.838H62.406Z" transform="translate(-52.366 -4.005)" fill="#f2f4ff"/>
    <path id="Path_1733" data-name="Path 1733" d="M86,33.8V24.974h.885l.158,1.2h.095A3.394,3.394,0,0,1,89.921,24.8,3.429,3.429,0,0,1,93.4,28.515v5.3H92.356V28.5a2.562,2.562,0,0,0-2.561-2.719A2.723,2.723,0,0,0,87.059,28.5v5.3Z" transform="translate(-72.403 -21.432)" fill="#f2f4ff"/>
    <path id="Path_1734" data-name="Path 1734" d="M143.8,29.3c0-2.735,1.818-4.6,4.174-4.6a4.012,4.012,0,0,1,3.984,4.237,7,7,0,0,1-.047.854h-7.051a3.16,3.16,0,0,0,3.13,3.115,2.731,2.731,0,0,0,2.593-1.66h1.107a3.745,3.745,0,0,1-3.715,2.656C145.618,33.9,143.8,32.036,143.8,29.3Zm7.1-.49a2.987,2.987,0,0,0-2.941-3.115,3.162,3.162,0,0,0-3.13,3.115Z" transform="translate(-121.065 -21.348)" fill="#f2f4ff"/>
    <path id="Path_1735" data-name="Path 1735" d="M795.4,15.864V3.5h2.1L801.6,14.63h.348L806.04,3.5h2.119V15.879h-1.107V4.923H806.7l-4.047,10.941h-1.771L796.854,4.923h-.348V15.864Z" transform="translate(-669.645 -3.5)" fill="#f2f4ff"/>
    <path id="Path_1736" data-name="Path 1736" d="M890.6,31.3c0-1.66,1.091-2.751,3.447-2.751h2.561v-.411a2.144,2.144,0,0,0-2.292-2.356c-1.47,0-2.292.791-2.387,1.755h-1.059c.095-1.439,1.265-2.735,3.447-2.735a3.074,3.074,0,0,1,3.336,3.336v5.676h-.9l-.142-1.312h-.095a3.243,3.243,0,0,1-2.893,1.486A2.74,2.74,0,0,1,890.6,31.3Zm6.008-1.36v-.411h-2.561c-1.644,0-2.387.727-2.387,1.771,0,1.028.711,1.692,1.945,1.692A2.825,2.825,0,0,0,896.608,29.938Z" transform="translate(-749.794 -21.432)" fill="#f2f4ff"/>
    <path id="Path_1737" data-name="Path 1737" d="M950.9,34.722V25.9h.885l.158.885h.095a1.694,1.694,0,0,1,1.676-.885h1.628v1h-1.5a1.759,1.759,0,0,0-1.9,1.945v5.9H950.9Z" transform="translate(-800.56 -22.358)" fill="#f2f4ff"/>
    <path id="Path_1738" data-name="Path 1738" d="M988,15.864V3.5h1.044v7.621l4.316-4.079h1.36l-4.585,4.332,4.759,4.506h-1.36l-4.49-4.253v4.253H988Z" transform="translate(-831.794 -3.5)" fill="#f2f4ff"/>
    <path id="Path_1739" data-name="Path 1739" d="M1033.4,29.3c0-2.735,1.818-4.6,4.174-4.6a4.012,4.012,0,0,1,3.984,4.237,6.993,6.993,0,0,1-.047.854h-7.067a3.159,3.159,0,0,0,3.13,3.115,2.731,2.731,0,0,0,2.593-1.66h1.107a3.745,3.745,0,0,1-3.715,2.656C1035.218,33.9,1033.4,32.036,1033.4,29.3Zm7.1-.49a3,3,0,0,0-2.941-3.115,3.163,3.163,0,0,0-3.131,3.115Z" transform="translate(-870.017 -21.348)" fill="#f2f4ff"/>
  </g>
</svg>
