<svg xmlns="http://www.w3.org/2000/svg" width="271.825" height="277.971" viewBox="0 0 271.825 277.971">
  <path id="B2B_o2_Business_Logo_mit_Claim_RGB_PrimaryBlue_vertikal_202105" data-name="B2B_o2 Business_Logo_mit_Claim_RGB_PrimaryBlue_vertikal_202105" d="M120.635,117.386c33.634,0,56.923-26.593,56.923-58.693C177.558,24.626,154.7,0,120.635,0S63.476,24.626,63.476,58.693C63.476,90.793,86.765,117.386,120.635,117.386Zm0-100.687c21.971,0,34.952,20.672,34.952,41.994,0,20-10.779,41.994-34.952,41.994S85.447,78.677,85.447,58.693c0-21.321,12.9-41.994,35.188-41.994Zm67.407,118.016h20.279v7.868H175.316v-8.359c4.622-4.485,21.479-18.568,21.479-27.675,0-4.544-4.052-6.688-8.1-6.688a21.479,21.479,0,0,0-11.447,3.934l-.787-8.261a32.985,32.985,0,0,1,14.713-3.56c9.461,0,15.578,4.78,15.578,14.516,0,10.582-10.582,20.259-18.705,28.225ZM28.347,196.3a9.972,9.972,0,0,0,4.583-3.934,11.546,11.546,0,0,0,1.79-6.432,11.8,11.8,0,0,0-1.751-6.511,11.152,11.152,0,0,0-5.153-4.209,20.652,20.652,0,0,0-8.143-1.495H3.17a3.206,3.206,0,0,0-2.36.806A3.186,3.186,0,0,0,0,176.866v45.1H19.3a20.771,20.771,0,0,0,12.9-3.639,12.47,12.47,0,0,0,4.7-10.582,11.487,11.487,0,0,0-2.321-7.12,12.746,12.746,0,0,0-6.235-4.327ZM9.838,180.957h7.868q7.376,0,7.376,6.373a6.471,6.471,0,0,1-1.77,4.878,7.317,7.317,0,0,1-5.33,1.711H9.838Zm9.4,33.654h-9.4V201.079h9.835a7.553,7.553,0,0,1,5.448,1.751,6.55,6.55,0,0,1,1.79,4.839c-.039,4.76-2.577,7-7.612,7Zm53.854,7.3h-5.9l-.315-5.547a13.139,13.139,0,0,1-4.839,4.74,12.824,12.824,0,0,1-6.373,1.652,11.133,11.133,0,0,1-6.038-1.613,10.444,10.444,0,0,1-3.934-4.485,14.87,14.87,0,0,1-1.377-6.53V190.457a2.085,2.085,0,0,1,2.321-2.4h7.14v20.83a7.553,7.553,0,0,0,1.416,4.819,5.193,5.193,0,0,0,4.347,1.79,5.9,5.9,0,0,0,4.839-2.1,9.107,9.107,0,0,0,1.672-5.9V188.018h9.481v31.471a2.439,2.439,0,0,1-.59,1.751,2.262,2.262,0,0,1-1.79.728Zm198.66-10.366a9.5,9.5,0,0,1-3.934,8.261,19.551,19.551,0,0,1-11.388,2.813,42.685,42.685,0,0,1-5.232-.315,21.42,21.42,0,0,1-4.249-.885,3.619,3.619,0,0,1-1.849-1,2.655,2.655,0,0,1-.452-1.652v-4.78a52.5,52.5,0,0,0,5.9,1.239,39.106,39.106,0,0,0,5.665.452,9.48,9.48,0,0,0,5-1.023,3.049,3.049,0,0,0,1.613-2.636,2.282,2.282,0,0,0-.61-1.672,3.933,3.933,0,0,0-1.652-1.023,29.115,29.115,0,0,0-2.931-.865l-3.363-.924a16.916,16.916,0,0,1-7.592-3.639,8.537,8.537,0,0,1-2.655-6.589,8.418,8.418,0,0,1,3.816-7.494,20.4,20.4,0,0,1,11.054-2.478,35.915,35.915,0,0,1,4.839.315,21.735,21.735,0,0,1,3.934.806,2.97,2.97,0,0,1,1.711.9,3.147,3.147,0,0,1,.393,1.751v4.426a46.555,46.555,0,0,0-5.409-.983,44.177,44.177,0,0,0-5.389-.354c-3.934,0-5.9.964-5.9,2.872a2.3,2.3,0,0,0,1.377,2.085,19.434,19.434,0,0,0,4.032,1.436l3.8.983a24.491,24.491,0,0,1,4.976,1.672,8.3,8.3,0,0,1,3.363,2.99,9.52,9.52,0,0,1,1.18,5.37Zm-33.438-5.37a10.936,10.936,0,0,1-2.636,13.631,19.669,19.669,0,0,1-11.389,2.813,42.685,42.685,0,0,1-5.232-.315,21.421,21.421,0,0,1-4.249-.885,3.54,3.54,0,0,1-1.849-1,2.655,2.655,0,0,1-.452-1.652v-4.78a52.145,52.145,0,0,0,5.9,1.239,39.578,39.578,0,0,0,5.684.452,9.4,9.4,0,0,0,4.976-1.023,3.009,3.009,0,0,0,1.613-2.636,2.341,2.341,0,0,0-.59-1.672,3.934,3.934,0,0,0-1.652-1.023,29.113,29.113,0,0,0-2.931-.865l-3.383-.924a16.936,16.936,0,0,1-7.573-3.639A8.536,8.536,0,0,1,211.9,197.3a8.418,8.418,0,0,1,3.816-7.553,20.4,20.4,0,0,1,11.054-2.478,35.92,35.92,0,0,1,4.839.315,21.735,21.735,0,0,1,3.934.806,2.97,2.97,0,0,1,1.711.9,3.147,3.147,0,0,1,.393,1.751v4.426a47.347,47.347,0,0,0-5.409-.983,44.494,44.494,0,0,0-5.409-.354c-3.934,0-5.9.964-5.9,2.872a2.262,2.262,0,0,0,1.377,2.085,19.02,19.02,0,0,0,3.934,1.436l3.776.983a24.294,24.294,0,0,1,5,1.672,8.3,8.3,0,0,1,3.324,3.049ZM94.731,222.617A42.682,42.682,0,0,1,89.5,222.3a20.887,20.887,0,0,1-4.229-.885,3.6,3.6,0,0,1-1.869-1,2.793,2.793,0,0,1-.452-1.652v-4.78a53.46,53.46,0,0,0,5.9,1.239,39.142,39.142,0,0,0,5.684.452,9.441,9.441,0,0,0,4.976-1.023,3.049,3.049,0,0,0,1.613-2.636,2.341,2.341,0,0,0-.59-1.672,4.308,4.308,0,0,0-1.652-1.023c-.708-.256-1.692-.551-2.95-.865l-3.481-.865a16.719,16.719,0,0,1-7.573-3.639,9.321,9.321,0,0,1,1.259-14.142A20.279,20.279,0,0,1,97.17,187.33a35.92,35.92,0,0,1,4.839.315,21.381,21.381,0,0,1,3.934.806,2.97,2.97,0,0,1,1.711.9,3.147,3.147,0,0,1,.393,1.751v4.426a46.562,46.562,0,0,0-5.409-.983,44.181,44.181,0,0,0-5.389-.354c-3.934,0-5.9.964-5.9,2.872a2.282,2.282,0,0,0,1.357,2.085,19.865,19.865,0,0,0,4.032,1.436l3.8.983a24.074,24.074,0,0,1,4.976,1.672,8.3,8.3,0,0,1,3.363,2.99,10.877,10.877,0,0,1-2.636,13.631,19.551,19.551,0,0,1-11.546,2.813Zm31.628-.708h-9.5V190.438a2.1,2.1,0,0,1,2.38-2.4h7.081Zm29.819-25.57a5.193,5.193,0,0,0-4.347-1.79,6.176,6.176,0,0,0-5.035,2.144,8.871,8.871,0,0,0-1.751,5.9v19.492h-9.461V190.615c0-1.593.767-2.4,2.3-2.4h5.9l.334,5.763a13.454,13.454,0,0,1,4.917-4.78,13.179,13.179,0,0,1,6.53-1.672,11.113,11.113,0,0,1,6.058,1.613,10.542,10.542,0,0,1,3.934,4.445,14.85,14.85,0,0,1,1.357,6.491v22.089h-7a2.3,2.3,0,0,1-1.751-.629,2.38,2.38,0,0,1-.629-1.751V201.276a7.553,7.553,0,0,0-1.4-4.937Zm-39.339-17.073a5.468,5.468,0,0,1-.787-2.891,5.271,5.271,0,0,1,.767-2.793,5.7,5.7,0,0,1,1.967-1.967,5.389,5.389,0,0,1,2.793-.728,5.507,5.507,0,0,1,2.773.728,5.37,5.37,0,0,1,1.967,1.967,5.448,5.448,0,0,1,.747,2.793,5.665,5.665,0,0,1-.747,2.852,5.271,5.271,0,0,1-1.967,1.967,5.527,5.527,0,0,1-2.773.747,5.389,5.389,0,0,1-2.793-.747,5.9,5.9,0,0,1-2.006-1.928Zm82.277,10.267a16.7,16.7,0,0,0-8.556-2.2,17.033,17.033,0,0,0-8.674,2.2,15.617,15.617,0,0,0-5.9,6.235,19.3,19.3,0,0,0-2.183,9.3,17.84,17.84,0,0,0,2.282,9.323,15.735,15.735,0,0,0,6.629,6.058,21.2,21.2,0,0,0,9.461,1.967,30.921,30.921,0,0,0,5.37-.452,28.441,28.441,0,0,0,4.524-1.082,3.8,3.8,0,0,0,1.829-1.2,2.714,2.714,0,0,0,.413-1.534V213.51a33.87,33.87,0,0,1-10.857,2.1,12.136,12.136,0,0,1-7.376-1.967,8.359,8.359,0,0,1-3.147-6.2h24a15.285,15.285,0,0,0,.275-2.872,18.194,18.194,0,0,0-2.144-8.949,15.618,15.618,0,0,0-6-6.1Zm-16.129,11.8a8.4,8.4,0,0,1,2.478-5.507,7.356,7.356,0,0,1,5.094-1.849,7.533,7.533,0,0,1,5.153,1.967,8.163,8.163,0,0,1,2.5,5.468ZM85.132,274.111a14.416,14.416,0,0,0,2.773-.787v2.2a2.734,2.734,0,0,1,0,.629,1.1,1.1,0,0,1-.334.492,2.813,2.813,0,0,1-.865.472,13.163,13.163,0,0,1-2.38.531,17.883,17.883,0,0,1-2.891.216,12.706,12.706,0,0,1-6.235-1.456,10.051,10.051,0,0,1-4.111-4.091,12.647,12.647,0,0,1-1.456-6.2,12.785,12.785,0,0,1,1.416-6.137A9.658,9.658,0,0,1,75.14,255.9a13.159,13.159,0,0,1,6.333-1.456,18.453,18.453,0,0,1,2.734.2,16.19,16.19,0,0,1,2.321.452,2.694,2.694,0,0,1,.924.433.905.905,0,0,1,.354.492,2.833,2.833,0,0,1,0,.669v2.2a18.666,18.666,0,0,0-5.665-.983,7.337,7.337,0,0,0-8.084,8.143A9.835,9.835,0,0,0,75,270.57a6.589,6.589,0,0,0,2.734,2.832,8.832,8.832,0,0,0,4.268.983,17.524,17.524,0,0,0,3.068-.3Zm26.986.275a1.692,1.692,0,0,1-1.554-.669,4.229,4.229,0,0,1-.413-2.282v-8.694a7.868,7.868,0,0,0-2.518-6.156,11.565,11.565,0,0,0-7.769-2.223,26.905,26.905,0,0,0-3.58.236,18.687,18.687,0,0,0-2.813.551,1.75,1.75,0,0,0-.983.59,1.967,1.967,0,0,0-.236,1.062v1.967a26.745,26.745,0,0,1,3.619-.728,30.35,30.35,0,0,1,3.619-.256,6.963,6.963,0,0,1,4.8,1.337,5.586,5.586,0,0,1,1.475,4.131c-.964,0-2.085-.138-3.363-.138a16.719,16.719,0,0,0-8.772,1.967,6.216,6.216,0,0,0-3.147,5.743,6.628,6.628,0,0,0,.983,3.619,6.923,6.923,0,0,0,2.754,2.5,8.556,8.556,0,0,0,3.934.9,9.952,9.952,0,0,0,4.622-1.042,7.258,7.258,0,0,0,3.088-2.97,4.6,4.6,0,0,0,4.917,3.934,6.846,6.846,0,0,0,1.829-.236,1.534,1.534,0,0,0,.826-.511,1.475,1.475,0,0,0,.236-.885V274.17l-.747.177A5.894,5.894,0,0,1,112.118,274.386Zm-6.393-5.9a6.392,6.392,0,0,1-.806,3.186,5.9,5.9,0,0,1-2.223,2.223,6.1,6.1,0,0,1-3.147.806,5.468,5.468,0,0,1-2.478-.531,3.933,3.933,0,0,1-1.652-1.515,4.288,4.288,0,0,1-.59-2.242,3.265,3.265,0,0,1,2.085-3.285,16.523,16.523,0,0,1,6.2-.885h2.616Zm30.507-9.835a10.306,10.306,0,0,1,.964,4.5v14.4h-2.95a1.534,1.534,0,0,1-1.082-.374,1.455,1.455,0,0,1-.374-1.082V263.843a6.727,6.727,0,0,0-1.22-4.249A4.445,4.445,0,0,0,127.795,258a5.33,5.33,0,0,0-4.386,1.967,8.379,8.379,0,0,0-1.515,5.291v12.352h-4.347V256.29a1.455,1.455,0,0,1,.374-1.082,1.4,1.4,0,0,1,1.023-.354h2.577l.138,3.934a8.556,8.556,0,0,1,3.127-3.245,8.655,8.655,0,0,1,4.445-1.141,7.868,7.868,0,0,1,4.249,1.1,7.219,7.219,0,0,1,2.793,3.029Zm37.372-14.26h-2.95v14.457a7.986,7.986,0,0,0-2.99-3.167,8.458,8.458,0,0,0-4.445-1.141A9.559,9.559,0,0,0,158.085,256a10.11,10.11,0,0,0-3.7,4.091,13.237,13.237,0,0,0-1.357,6.137,13.414,13.414,0,0,0,1.357,6.176,10.169,10.169,0,0,0,3.7,4.111,9.382,9.382,0,0,0,5.134,1.456,8.222,8.222,0,0,0,4.583-1.259,8.655,8.655,0,0,0,3.049-3.364v4.209h4.209V245.669a1.357,1.357,0,0,0-.374-1.023,1.416,1.416,0,0,0-.944-.374Zm-3.717,26.258a6.038,6.038,0,0,1-2.1,2.754,6.176,6.176,0,0,1-3.481.983,5.783,5.783,0,0,1-4.858-2.2,9.461,9.461,0,0,1-1.731-6.038,9.343,9.343,0,0,1,1.731-5.9,5.9,5.9,0,0,1,4.858-2.183,5.763,5.763,0,0,1,4.76,2.164,9.323,9.323,0,0,1,1.731,6.019,11.506,11.506,0,0,1-.767,4.288Zm27.222-14.614a11.113,11.113,0,0,0-5.9-1.495,11.231,11.231,0,0,0-5.9,1.495,10.209,10.209,0,0,0-3.934,4.15,13,13,0,0,0-1.357,6.039,13.178,13.178,0,0,0,1.357,6.078,10.129,10.129,0,0,0,3.934,4.17,11.231,11.231,0,0,0,5.9,1.495,11.113,11.113,0,0,0,5.9-1.495,10.13,10.13,0,0,0,3.934-4.17,13.178,13.178,0,0,0,1.357-6.078,13,13,0,0,0-1.357-6.038,10.208,10.208,0,0,0-3.8-4.268Zm0,14.595a5.9,5.9,0,0,1-5.724,3.836,6.392,6.392,0,0,1-3.56-.983,6.019,6.019,0,0,1-2.262-2.852,11.605,11.605,0,0,1-.767-4.406,11.388,11.388,0,0,1,.767-4.367,6.058,6.058,0,0,1,2.262-2.832,6.392,6.392,0,0,1,3.56-.983,5.724,5.724,0,0,1,4.78,2.183,9.461,9.461,0,0,1,1.711,5.9,11.6,11.6,0,0,1-.728,4.386Z" transform="translate(0.004)" fill="#0019a5"/>
</svg>
