<svg id="B2B_o2_Business_Logo_mit_Claim_CMYK_Weiss_horizontal_202105_1_" data-name="B2B_o2 Business_Logo_mit_Claim_CMYK_Weiss_horizontal_202105 (1)" xmlns="http://www.w3.org/2000/svg" width="117.507" height="35" viewBox="0 0 117.507 35">
  <path id="B2B_o2_Business_Logo_mit_Claim_CMYK_Weiss_horizontal_202105_1_2" data-name="B2B_o2 Business_Logo_mit_Claim_CMYK_Weiss_horizontal_202105 (1)" d="M0,8.914a8,8,0,1,0,16,0C16,4.112,12.784.656,8.016.656,3.213.656,0,4.112,0,8.914m3.075,0c0-3.006,1.831-5.908,4.941-5.908,3.075,0,4.906,2.9,4.906,5.908,0,2.8-1.52,5.908-4.906,5.908-3.421-.035-4.941-3.11-4.941-5.908M15.721,20.661V19.487c.656-.622,3.006-2.591,3.006-3.87,0-.656-.553-.933-1.14-.933a3.38,3.38,0,0,0-1.624.553l-.1-1.175a4.689,4.689,0,0,1,2.073-.484,1.913,1.913,0,0,1,2.177,2.038c0,1.486-1.486,2.833-2.626,3.973h2.833V20.7h-4.6Zm96.708-3.49a6.376,6.376,0,0,0,3.766-.933,3.15,3.15,0,0,0,1.313-2.73,2.892,2.892,0,0,0-.449-1.762,3.057,3.057,0,0,0-1.106-1,7.751,7.751,0,0,0-1.658-.553l-1.244-.311A5.359,5.359,0,0,1,111.7,9.4a.735.735,0,0,1-.449-.691c0-.622.656-.967,1.969-.967a17.109,17.109,0,0,1,1.8.1,13.883,13.883,0,0,1,1.8.311V6.7a.924.924,0,0,0-.138-.587c-.069-.138-.276-.207-.553-.311a7.763,7.763,0,0,0-1.313-.276,12.276,12.276,0,0,0-1.589-.1,6.683,6.683,0,0,0-3.662.829,2.817,2.817,0,0,0-1.278,2.488,2.812,2.812,0,0,0,.9,2.177,5.553,5.553,0,0,0,2.522,1.209l1.106.311c.415.1.76.207.967.276a1.265,1.265,0,0,1,.553.346.729.729,0,0,1,.207.553.988.988,0,0,1-.518.864,2.966,2.966,0,0,1-1.658.346,12.617,12.617,0,0,1-1.9-.138,17.461,17.461,0,0,1-1.935-.415v1.624a.877.877,0,0,0,.138.553,1.276,1.276,0,0,0,.622.346,6.023,6.023,0,0,0,1.417.276,14.93,14.93,0,0,0,1.728.1m-10.642,0a6.376,6.376,0,0,0,3.766-.933,3.15,3.15,0,0,0,1.313-2.73,2.892,2.892,0,0,0-.449-1.762,3.4,3.4,0,0,0-1.106-1,6.216,6.216,0,0,0-1.658-.553l-1.244-.311a5.359,5.359,0,0,1-1.347-.484.735.735,0,0,1-.449-.691c0-.622.656-.967,1.969-.967a17.109,17.109,0,0,1,1.8.1,13.882,13.882,0,0,1,1.8.311V6.7a.924.924,0,0,0-.138-.587c-.069-.138-.276-.207-.553-.311a7.763,7.763,0,0,0-1.313-.276,12.276,12.276,0,0,0-1.589-.1,6.683,6.683,0,0,0-3.662.829,2.817,2.817,0,0,0-1.278,2.488,2.812,2.812,0,0,0,.9,2.177,5.552,5.552,0,0,0,2.522,1.209l1.106.311c.415.1.76.207.967.276a1.265,1.265,0,0,1,.553.346.729.729,0,0,1,.207.553.988.988,0,0,1-.518.864,2.966,2.966,0,0,1-1.658.346,12.617,12.617,0,0,1-1.9-.138,17.461,17.461,0,0,1-1.935-.415v1.624a.877.877,0,0,0,.138.553,1.276,1.276,0,0,0,.622.346,6.023,6.023,0,0,0,1.417.276,14.487,14.487,0,0,0,1.728.1M90.592,7.636a2.439,2.439,0,0,1,1.693.622,2.6,2.6,0,0,1,.829,1.8H88.07A2.93,2.93,0,0,1,88.9,8.223a2.52,2.52,0,0,1,1.693-.587m5.494,3.559a6.008,6.008,0,0,0-.726-2.971,5.284,5.284,0,0,0-4.8-2.764,5.616,5.616,0,0,0-2.868.726,5.264,5.264,0,0,0-2,2.073,6.415,6.415,0,0,0-.726,3.075,5.94,5.94,0,0,0,.795,3.11,4.971,4.971,0,0,0,2.211,2,7.126,7.126,0,0,0,3.144.691A10.1,10.1,0,0,0,92.873,17a9.548,9.548,0,0,0,1.486-.346c.311-.138.518-.242.587-.38a.833.833,0,0,0,.138-.518v-1.52a11.67,11.67,0,0,1-3.593.691,4.125,4.125,0,0,1-2.453-.691,2.778,2.778,0,0,1-1.071-2.073h7.947a2.5,2.5,0,0,0,.173-.967M79.018,5.459a4.345,4.345,0,0,0-3.8,2.142l-.1-1.9H73.144c-.518,0-.76.276-.76.795V16.964h3.144v-6.5a3.006,3.006,0,0,1,.587-1.935,2.061,2.061,0,0,1,1.658-.691,1.774,1.774,0,0,1,1.451.587,2.444,2.444,0,0,1,.449,1.555v6.15a.722.722,0,0,0,.795.795h2.349V9.64A4.757,4.757,0,0,0,82.369,7.5a3.567,3.567,0,0,0-3.351-2.038M66.165,16.964h3.144V5.7H66.96a.712.712,0,0,0-.795.795ZM67.754,3.7a1.847,1.847,0,0,0,1.624-.933,1.711,1.711,0,0,0,.242-.933A1.711,1.711,0,0,0,69.378.9a1.809,1.809,0,0,0-.691-.656A1.881,1.881,0,0,0,67.754,0a1.711,1.711,0,0,0-.933.242A2.094,2.094,0,0,0,66.13.9a1.711,1.711,0,0,0-.242.933,1.832,1.832,0,0,0,.242.967,1.809,1.809,0,0,0,.691.656,1.711,1.711,0,0,0,.933.242M58.806,17.172a6.376,6.376,0,0,0,3.766-.933,3.15,3.15,0,0,0,1.313-2.73,2.892,2.892,0,0,0-.449-1.762,3.057,3.057,0,0,0-1.106-1,7.75,7.75,0,0,0-1.658-.553l-1.244-.311A5.359,5.359,0,0,1,58.08,9.4a.735.735,0,0,1-.449-.691c0-.622.656-.967,1.969-.967a17.109,17.109,0,0,1,1.8.1,13.882,13.882,0,0,1,1.8.311V6.7a.924.924,0,0,0-.138-.587c-.069-.138-.276-.207-.553-.311a7.763,7.763,0,0,0-1.313-.276,12.275,12.275,0,0,0-1.589-.1,6.683,6.683,0,0,0-3.662.829,2.817,2.817,0,0,0-1.278,2.488,2.812,2.812,0,0,0,.9,2.177,5.553,5.553,0,0,0,2.522,1.209l1.106.311c.415.1.76.207.967.276a1.265,1.265,0,0,1,.553.346.729.729,0,0,1,.207.553.988.988,0,0,1-.518.864,2.966,2.966,0,0,1-1.658.346,12.617,12.617,0,0,1-1.9-.138,17.461,17.461,0,0,1-1.935-.415v1.624a.877.877,0,0,0,.138.553,1.276,1.276,0,0,0,.622.346,6.023,6.023,0,0,0,1.417.276,14.93,14.93,0,0,0,1.728.1m-9.5-5.01a3,3,0,0,1-.553,1.935,1.965,1.965,0,0,1-1.589.691,1.774,1.774,0,0,1-1.451-.587,2.483,2.483,0,0,1-.449-1.589V5.7H42.878c-.518,0-.76.276-.76.795v6.5a5.012,5.012,0,0,0,.449,2.177,3.431,3.431,0,0,0,1.313,1.486,3.848,3.848,0,0,0,2,.518,4.091,4.091,0,0,0,2.108-.553,4.562,4.562,0,0,0,1.589-1.555l.1,1.9h1.969a.68.68,0,0,0,.553-.207.813.813,0,0,0,.207-.587V5.7H49.269v6.461ZM30.716,14.546V10.054h3.248a2.5,2.5,0,0,1,1.8.587,2.194,2.194,0,0,1,.587,1.589c0,1.52-.829,2.315-2.522,2.315Zm0-6.876V3.386h2.591c1.624,0,2.453.691,2.453,2.108a2.223,2.223,0,0,1-.587,1.624,2.4,2.4,0,0,1-1.762.553Zm-3.282,9.294h6.392A6.931,6.931,0,0,0,38.11,15.79a4.166,4.166,0,0,0,1.555-3.524,3.686,3.686,0,0,0-.76-2.349,4.069,4.069,0,0,0-2.073-1.451,3.283,3.283,0,0,0,1.52-1.313,3.978,3.978,0,0,0,.587-2.142,4.1,4.1,0,0,0-.587-2.177,3.55,3.55,0,0,0-1.693-1.382,7.141,7.141,0,0,0-2.73-.484H28.47a1.166,1.166,0,0,0-.795.276,1.105,1.105,0,0,0-.276.795V16.964ZM113.81,33.791c-1.382,0-2.177-1.037-2.177-2.73s.795-2.73,2.177-2.73c1.347,0,2.142,1.037,2.142,2.73s-.795,2.73-2.142,2.73m0,1.14a3.586,3.586,0,0,0,3.662-3.9,3.668,3.668,0,1,0-7.325,0,3.532,3.532,0,0,0,3.662,3.9m-9.052-1.14c-1.382,0-2.177-1.037-2.177-2.73s.795-2.73,2.177-2.73c1.347,0,2.142,1,2.142,2.73,0,1.693-.795,2.73-2.142,2.73m2.142-9.985v4.8a2.647,2.647,0,0,0-2.453-1.417c-1.866,0-3.386,1.52-3.386,3.87,0,2.384,1.52,3.9,3.386,3.9a2.7,2.7,0,0,0,2.522-1.52L107,34.827h1.347V24.289a.4.4,0,0,0-.449-.449h-1ZM93.011,27.157a2.806,2.806,0,0,0-2.522,1.451L90.454,27.3H89.59c-.311,0-.449.173-.449.484v7.014h1.451V30.716c0-1.451.656-2.384,1.969-2.384,1.209,0,1.658.829,1.658,1.935v4.077a.437.437,0,0,0,.484.484h.967v-4.8a2.635,2.635,0,0,0-2.66-2.868m-9.916,6.737a1.419,1.419,0,0,1-1.555-1.417c0-1.106,1.071-1.382,2.73-1.382h.864v.726a1.968,1.968,0,0,1-2.038,2.073m4.181-.1c-.518,0-.656-.311-.656-.967V29.956c0-1.658-1-2.764-3.421-2.764a7.773,7.773,0,0,0-2.108.276c-.346.1-.415.242-.415.553v.691a9.678,9.678,0,0,1,2.419-.311c1.52,0,2.073.587,2.073,1.8a10.753,10.753,0,0,0-1.106-.035c-2.453,0-3.939.829-3.939,2.522A2.358,2.358,0,0,0,82.68,35a2.76,2.76,0,0,0,2.557-1.347,1.535,1.535,0,0,0,1.624,1.313,2.481,2.481,0,0,0,.587-.069c.311-.1.346-.242.346-.449v-.656a2.572,2.572,0,0,0-.518,0m-10.3,1.14a6.188,6.188,0,0,0,1.762-.242c.415-.138.415-.311.415-.518v-.726a5.673,5.673,0,0,1-1.935.346,2.482,2.482,0,0,1-2.66-2.764,2.425,2.425,0,0,1,2.695-2.695,7.266,7.266,0,0,1,1.866.311v-.726c0-.207,0-.38-.449-.518a5.874,5.874,0,0,0-1.658-.207,3.62,3.62,0,0,0-3.9,3.87,3.593,3.593,0,0,0,3.87,3.87" fill="#fff" fill-rule="evenodd"/>
</svg>
