<?xml version="1.0" encoding="utf-8"?>
<!-- Generator: Adobe Illustrator 24.0.0, SVG Export Plug-In . SVG Version: 6.00 Build 0)  -->
<svg version="1.1" id="Ebene_1" xmlns="http://www.w3.org/2000/svg" xmlns:xlink="http://www.w3.org/1999/xlink" x="0px" y="0px"
	 viewBox="0 0 276.8 11.6" style="enable-background:new 0 0 276.8 11.6;" xml:space="preserve">
<style type="text/css">
	.st0{fill:none;}
	.st1{fill:#FFFFFF;}
</style>
<rect class="st0" width="276.8" height="11.6"/>
<path class="st1" d="M4.1,10.1L1.6,2.3h1.5l1.1,4c0.1,0.4,0.2,0.9,0.4,1.3s0.2,0.8,0.4,1.3h0C5,8.4,5.2,7.9,5.3,7.5s0.2-0.8,0.3-1.3
	l1.1-4h1.4l-2.4,7.9L4.1,10.1z"/>
<path class="st1" d="M9.8,10.1V2.3h1.4v7.8H9.8z"/>
<path class="st1" d="M13.9,10.1V2.3h2.7c0.4,0,0.8,0,1.1,0.1c0.3,0.1,0.6,0.2,0.9,0.4c0.3,0.2,0.5,0.4,0.6,0.7
	c0.2,0.3,0.2,0.7,0.2,1.1c0,0.5-0.1,1-0.4,1.5c-0.3,0.4-0.7,0.6-1.1,0.8l1.9,3.3h-1.6L16.5,7h-1.2v3.1H13.9z M15.3,5.9h1.1
	c0.4,0,0.9-0.1,1.2-0.3c0.3-0.2,0.4-0.6,0.4-1c0-0.4-0.1-0.7-0.4-1c-0.4-0.2-0.8-0.3-1.2-0.3h-1.1L15.3,5.9z"/>
<path class="st1" d="M23.1,10.1V3.5h-2.3V2.3h5.9v1.2h-2.3v6.7L23.1,10.1z"/>
<path class="st1" d="M31.7,10.3c-0.4,0-0.8-0.1-1.2-0.2c-0.3-0.1-0.7-0.3-0.9-0.6c-0.3-0.3-0.5-0.7-0.6-1.1
	c-0.2-0.5-0.2-1.1-0.2-1.6V2.3h1.4v4.5c0,0.4,0,0.7,0.1,1.1c0.1,0.3,0.2,0.5,0.3,0.7c0.1,0.2,0.3,0.3,0.5,0.4
	c0.2,0.1,0.4,0.1,0.7,0.1c0.2,0,0.4,0,0.7-0.1c0.2-0.1,0.4-0.2,0.5-0.4c0.2-0.2,0.3-0.5,0.3-0.7c0.1-0.3,0.1-0.7,0.1-1.1V2.3h1.3
	v4.4c0,0.6-0.1,1.1-0.2,1.6c-0.1,0.4-0.3,0.8-0.6,1.1c-0.3,0.3-0.6,0.5-0.9,0.6C32.6,10.2,32.1,10.3,31.7,10.3z"/>
<path class="st1" d="M37.3,10.1V2.3h4.7v1.2h-3.3v2h2.8v1.2h-2.8V9h3.4v1.2L37.3,10.1z"/>
<path class="st1" d="M44.5,10.1V2.3h1.4v6.7h3.3v1.2H44.5z"/>
<path class="st1" d="M51.2,10.1V2.3h1.3v6.7h3.3v1.2H51.2z"/>
<path class="st1" d="M58,10.1V2.3h4.7v1.2h-3.3v2h2.8v1.2h-2.8V9h3.4v1.2L58,10.1z"/>
<path class="st1" d="M69.8,10.1V3.5h-2.2V2.3h5.9v1.2h-2.3v6.7L69.8,10.1z"/>
<path class="st1" d="M75.5,10.1V2.3h4.7v1.2h-3.3v2h2.8v1.2h-2.8V9h3.4v1.2L75.5,10.1z"/>
<path class="st1" d="M82.7,10.1V2.3H84v6.7h3.3v1.2H82.7z"/>
<path class="st1" d="M89.4,10.1V2.3h4.7v1.2h-3.3v2h2.8v1.2h-2.8V9h3.5v1.2L89.4,10.1z"/>
<path class="st1" d="M96.6,10.1V2.3h4.7v1.2H98v2.2h2.8v1.2H98v3.3L96.6,10.1z"/>
<path class="st1" d="M106.3,10.3c-0.5,0-1-0.1-1.4-0.3c-0.4-0.2-0.8-0.5-1.1-0.8c-0.3-0.4-0.6-0.8-0.7-1.3c-0.2-0.6-0.3-1.1-0.2-1.7
	c0-0.6,0.1-1.2,0.2-1.7c0.1-0.5,0.4-0.9,0.7-1.3c0.3-0.3,0.7-0.6,1.1-0.8c0.4-0.2,0.9-0.3,1.4-0.3c0.5,0,1,0.1,1.4,0.3
	c0.4,0.2,0.8,0.4,1.1,0.8c0.3,0.4,0.6,0.8,0.8,1.3c0.2,0.5,0.3,1.1,0.2,1.7c0,0.6-0.1,1.2-0.2,1.7c-0.2,0.5-0.4,0.9-0.7,1.3
	c-0.3,0.4-0.7,0.6-1.1,0.8C107.3,10.2,106.8,10.3,106.3,10.3z M106.3,9.1c0.3,0,0.6-0.1,0.8-0.2c0.3-0.1,0.5-0.3,0.6-0.6
	c0.2-0.3,0.3-0.6,0.4-0.9c0.1-0.4,0.1-0.8,0.1-1.2c0-0.7-0.1-1.5-0.6-2.1c-0.6-0.8-1.7-1-2.6-0.4c-0.2,0.1-0.3,0.3-0.4,0.4
	c-0.4,0.6-0.6,1.3-0.6,2.1c0,0.4,0,0.8,0.2,1.2c0.1,0.3,0.2,0.6,0.4,0.9c0.2,0.2,0.4,0.4,0.6,0.6C105.7,9,106,9.1,106.3,9.1z"/>
<path class="st1" d="M112.1,10.1V2.3h1.4l2.4,4.4l0.8,1.7h0.1c0-0.4-0.1-0.8-0.1-1.3s-0.1-0.9-0.1-1.4V2.3h1.3v7.8h-1.4l-2.4-4.4
	L113.3,4h-0.1c0,0.4,0.1,0.9,0.1,1.3s0.1,0.9,0.1,1.3v3.4H112.1z"/>
<path class="st1" d="M119.6,10.1l2.6-7.9h1.6l2.6,7.9h-1.5L124.2,8h-2.6l-0.6,2.1H119.6z M122.2,5.9l-0.3,1h2l-0.3-1
	c-0.1-0.4-0.2-0.8-0.4-1.3s-0.2-0.9-0.3-1.3l0,0l-0.4,1.3C122.5,5.1,122.4,5.5,122.2,5.9L122.2,5.9z"/>
<path class="st1" d="M128,10.1V2.3h1.4l2.4,4.4l0.8,1.7h0.1c0-0.4-0.1-0.8-0.1-1.3c0-0.5-0.1-0.9-0.1-1.4V2.3h1.3v7.8h-1.4L130,5.7
	L129.2,4l0,0c0,0.4,0.1,0.9,0.1,1.3s0.1,0.9,0.1,1.3v3.4H128z"/>
<path class="st1" d="M136.6,10.1V2.3h1.4v6.7h3.3v1.2H136.6z"/>
<path class="st1" d="M142.3,10.1l2.6-7.9h1.6l2.6,7.9h-1.5L147,8h-2.6l-0.6,2.1H142.3z M145,5.9l-0.3,1h2l-0.3-1
	c-0.1-0.4-0.2-0.8-0.4-1.3s-0.2-0.9-0.3-1.3l0,0c-0.1,0.4-0.2,0.9-0.3,1.3S145.1,5.5,145,5.9L145,5.9z"/>
<path class="st1" d="M153.9,10.3c-0.5,0-1-0.1-1.5-0.3c-0.4-0.2-0.8-0.4-1.2-0.8c-0.3-0.4-0.6-0.8-0.8-1.3c-0.2-0.6-0.3-1.1-0.3-1.7
	c0-0.6,0.1-1.2,0.3-1.7c0.2-0.5,0.4-0.9,0.8-1.3c0.3-0.3,0.7-0.6,1.2-0.8c0.5-0.2,1-0.3,1.5-0.3c0.5,0,1,0.1,1.4,0.3
	c0.4,0.2,0.7,0.4,1,0.7L155.6,4c-0.2-0.2-0.4-0.4-0.7-0.5c-0.3-0.1-0.6-0.2-0.9-0.2c-0.3,0-0.7,0.1-1,0.2c-0.3,0.1-0.5,0.3-0.7,0.6
	c-0.2,0.3-0.4,0.6-0.5,0.9c-0.1,0.4-0.2,0.8-0.2,1.2c0,0.8,0.2,1.5,0.6,2.1c0.4,0.5,1.1,0.8,1.8,0.8c0.2,0,0.4,0,0.6-0.1
	c0.2-0.1,0.3-0.1,0.5-0.3V7h-1.5V5.9h2.7v3.5c-0.3,0.3-0.7,0.5-1.1,0.7C154.9,10.2,154.4,10.3,153.9,10.3z"/>
<path class="st1" d="M158.9,10.1V2.3h4.7v1.2h-3.3v2h2.8v1.2h-2.8V9h3.4v1.2L158.9,10.1z"/>
<path class="st1" d="M168.7,7.6v-1h2.9v1H168.7z"/>
<path class="st1" d="M176.8,10.1V2.3h2.1c1-0.1,2,0.3,2.8,1c0.7,0.8,1.1,1.8,1,2.9c0,0.6-0.1,1.2-0.3,1.7c-0.2,0.5-0.4,0.9-0.7,1.2
	c-0.3,0.3-0.7,0.6-1.2,0.8c-0.5,0.2-1,0.3-1.6,0.3L176.8,10.1z M178.2,9h0.6c0.7,0,1.4-0.2,1.8-0.7c0.5-0.6,0.7-1.4,0.6-2.1
	c0.1-0.8-0.2-1.5-0.6-2.1c-0.5-0.5-1.2-0.7-1.8-0.7h-0.6V9z"/>
<path class="st1" d="M185,10.1V2.3h1.4v7.8H185z"/>
<path class="st1" d="M188.1,10.1l2.6-7.9h1.6l2.6,7.9h-1.5L192.8,8h-2.6l-0.6,2.1H188.1z M190.7,5.9l-0.3,1h2l-0.3-1
	c-0.1-0.4-0.2-0.8-0.4-1.3s-0.2-0.9-0.3-1.3l0,0c-0.1,0.4-0.2,0.9-0.3,1.3S190.9,5.5,190.7,5.9L190.7,5.9z"/>
<path class="st1" d="M196.6,10.1V2.3h1.4v6.7h3.3v1.2H196.6z"/>
<path class="st1" d="M205.9,10.3c-0.5,0-1-0.1-1.4-0.3c-0.4-0.2-0.8-0.5-1.1-0.8c-0.3-0.4-0.6-0.8-0.7-1.3c-0.2-0.6-0.3-1.1-0.2-1.7
	c0-0.6,0.1-1.1,0.2-1.7c0.2-0.5,0.4-0.9,0.7-1.3c0.3-0.3,0.7-0.6,1.1-0.8c0.4-0.2,0.9-0.3,1.4-0.3c0.5,0,1,0.1,1.4,0.3
	c0.4,0.2,0.8,0.4,1.1,0.8c0.3,0.4,0.6,0.8,0.7,1.3c0.2,0.5,0.3,1.1,0.3,1.7c0,0.6-0.1,1.2-0.3,1.7c-0.1,0.5-0.4,0.9-0.7,1.3
	c-0.3,0.4-0.7,0.6-1.1,0.8C206.9,10.2,206.4,10.3,205.9,10.3z M205.9,9.1c0.3,0,0.6-0.1,0.8-0.2c0.3-0.1,0.5-0.3,0.6-0.6
	c0.2-0.3,0.3-0.6,0.4-0.9c0.1-0.4,0.2-0.8,0.1-1.2c0-0.7-0.2-1.5-0.6-2.1c-0.6-0.8-1.7-1-2.6-0.4c-0.2,0.1-0.3,0.3-0.4,0.4
	c-0.4,0.6-0.6,1.3-0.6,2.1c0,0.4,0,0.8,0.1,1.2c0.1,0.3,0.2,0.6,0.4,0.9c0.2,0.2,0.4,0.4,0.6,0.6C205.3,9,205.6,9.1,205.9,9.1z"/>
<path class="st1" d="M215,10.3c-0.5,0-1-0.1-1.5-0.3c-0.4-0.2-0.8-0.4-1.2-0.8c-0.3-0.4-0.6-0.8-0.8-1.3c-0.2-0.6-0.3-1.1-0.3-1.7
	c0-0.6,0.1-1.2,0.3-1.8c0.2-0.5,0.4-0.9,0.8-1.3c0.3-0.4,0.7-0.6,1.2-0.8c0.5-0.2,1-0.3,1.5-0.3c0.5,0,1,0.1,1.4,0.3
	c0.4,0.2,0.7,0.4,0.9,0.7L216.6,4c-0.2-0.2-0.4-0.4-0.7-0.5c-0.3-0.1-0.6-0.2-0.9-0.2c-0.3,0-0.7,0.1-1,0.2
	c-0.3,0.1-0.5,0.3-0.7,0.6c-0.2,0.3-0.4,0.6-0.5,0.9c-0.1,0.4-0.2,0.8-0.2,1.2c0,0.8,0.2,1.5,0.6,2.1c0.6,0.7,1.6,0.9,2.4,0.7
	c0.2,0,0.3-0.1,0.5-0.3V7h-1.5V5.9h2.7v3.5c-0.3,0.3-0.6,0.5-1,0.7C216,10.2,215.5,10.3,215,10.3z"/>
<path class="st1" d="M224.6,10.1V3.5h-2.3V2.3h5.9v1.2H226v6.7L224.6,10.1z"/>
<path class="st1" d="M230.3,10.1V2.3h4.7v1.2h-3.3v2h2.8v1.2h-2.8V9h3.5v1.2L230.3,10.1z"/>
<path class="st1" d="M237.5,10.1V2.3h1.4v6.7h3.3v1.2H237.5z"/>
<path class="st1" d="M244.2,10.1V2.3h4.7v1.2h-3.4v2h2.8v1.2h-2.8V9h3.5v1.2L244.2,10.1z"/>
<path class="st1" d="M251.4,10.1V2.3h1.4v3.6l0,0l2.8-3.6h1.6l-2.4,3.1l2.9,4.8H256l-2.2-3.7l-1.1,1.4v2.3L251.4,10.1z"/>
<path class="st1" d="M262,10.3c-0.5,0-1-0.1-1.4-0.3c-0.4-0.2-0.8-0.5-1.1-0.8c-0.3-0.4-0.6-0.8-0.7-1.3c-0.2-0.6-0.2-1.1-0.2-1.7
	c0-0.6,0.1-1.2,0.3-1.7c0.1-0.5,0.4-0.9,0.7-1.3c0.3-0.3,0.7-0.6,1.1-0.8c0.9-0.4,1.9-0.4,2.8,0c0.4,0.2,0.8,0.4,1.1,0.8
	c0.3,0.4,0.6,0.8,0.7,1.3c0.2,0.6,0.3,1.1,0.2,1.7c0,0.6-0.1,1.2-0.2,1.7c-0.2,0.5-0.4,0.9-0.7,1.3c-0.3,0.4-0.7,0.6-1.1,0.8
	C263,10.2,262.5,10.3,262,10.3z M262,9.1c0.3,0,0.6-0.1,0.8-0.2c0.3-0.1,0.5-0.3,0.6-0.6c0.2-0.3,0.3-0.6,0.4-0.9
	C264,7,264,6.6,264,6.2c0-0.7-0.1-1.5-0.5-2.1c-0.6-0.8-1.7-1-2.6-0.4c-0.2,0.1-0.3,0.3-0.4,0.4c-0.4,0.6-0.6,1.3-0.5,2.1
	c0,0.4,0,0.8,0.1,1.2c0.1,0.3,0.2,0.6,0.4,0.9c0.2,0.2,0.4,0.4,0.6,0.6C261.4,9,261.7,9.1,262,9.1z"/>
<path class="st1" d="M267.7,10.1V2.3h1.6l1.4,3.8c0.1,0.2,0.2,0.5,0.2,0.8s0.2,0.5,0.3,0.8l0,0c0.1-0.2,0.2-0.5,0.2-0.8
	s0.2-0.5,0.2-0.8l1.4-3.8h1.6v7.9h-1.3V6.5c0-0.2,0-0.4,0-0.6s0-0.4,0-0.7l0.1-0.6c0-0.2,0-0.4,0.1-0.6h0.1l-0.6,1.8l-1.4,3.5h-0.8
	l-1.3-3.5L268.8,4h0c0,0.2,0,0.4,0,0.6l0.1,0.6c0,0.2,0,0.4,0,0.7s0,0.4,0,0.6v3.6H267.7z"/>
</svg>
