<svg id="Ebene_1" data-name="Ebene 1" xmlns="http://www.w3.org/2000/svg" viewBox="0 0 222.19 30.53"><path d="M3.47,11.32,0,.2H2.09L3.66,5.8q.27.94.48,1.8c.14.57.31,1.17.5,1.82h.07c.19-.65.36-1.25.5-1.82s.3-1.17.47-1.8L7.23.2h2L5.8,11.32Z" style="fill:#fff"/><path d="M11.25,11.32V.2h2V11.32Z" style="fill:#fff"/><path d="M16.71,11.32V.2h3.76a7.43,7.43,0,0,1,1.61.17,3.74,3.74,0,0,1,1.3.56,2.63,2.63,0,0,1,.85,1,3.47,3.47,0,0,1,.32,1.56A3.3,3.3,0,0,1,24,5.56a3.39,3.39,0,0,1-1.61,1.12L25,11.32H22.78L20.38,7h-1.7v4.35Zm2-5.91h1.58A2.78,2.78,0,0,0,22,4.93a1.71,1.71,0,0,0,.6-1.43A1.46,1.46,0,0,0,22,2.16a3.37,3.37,0,0,0-1.75-.38H18.68Z" style="fill:#fff"/><path d="M29.41,11.32V1.87H26.2V.2h8.4V1.87H31.38v9.45Z" style="fill:#fff"/><path d="M41.28,11.53a5.31,5.31,0,0,1-1.75-.28,3.31,3.31,0,0,1-1.32-.9,4.14,4.14,0,0,1-.85-1.57,7.92,7.92,0,0,1-.3-2.34V.2h2V6.6a6.56,6.56,0,0,0,.16,1.52,2.68,2.68,0,0,0,.46,1,1.75,1.75,0,0,0,.71.54,2.65,2.65,0,0,0,.92.16,2.75,2.75,0,0,0,.93-.16,1.75,1.75,0,0,0,.73-.54,2.69,2.69,0,0,0,.48-1,6,6,0,0,0,.17-1.52V.2h1.88V6.44a8.33,8.33,0,0,1-.28,2.34,4.14,4.14,0,0,1-.85,1.57,3.25,3.25,0,0,1-1.32.9A5.29,5.29,0,0,1,41.28,11.53Z" style="fill:#fff"/><path d="M48.91,11.32V.2h6.7V1.87H50.88V4.71h4V6.38h-4V9.66h4.9v1.66Z" style="fill:#fff"/><path d="M58.72,11.32V.2h2V9.66h4.62v1.66Z" style="fill:#fff"/><path d="M67.92,11.32V.2h2V9.66h4.62v1.66Z" style="fill:#fff"/><path d="M77.11,11.32V.2h6.7V1.87H79.08V4.71h4V6.38h-4V9.66H84v1.66Z" style="fill:#fff"/><path d="M93.23,11.32V1.87H90V.2h8.4V1.87H95.2v9.45Z" style="fill:#fff"/><path d="M100.93,11.32V.2h6.7V1.87H102.9V4.71h4V6.38h-4V9.66h4.9v1.66Z" style="fill:#fff"/><path d="M110.74,11.32V.2h2V9.66h4.62v1.66Z" style="fill:#fff"/><path d="M119.93,11.32V.2h6.7V1.87h-4.72V4.71h4V6.38h-4V9.66h4.89v1.66Z" style="fill:#fff"/><path d="M129.74,11.32V.2h6.72V1.87h-4.75V5h4V6.68h-4v4.64Z" style="fill:#fff"/><path d="M143.22,11.53a4.93,4.93,0,0,1-2-.4A4.33,4.33,0,0,1,139.69,10a5.21,5.21,0,0,1-1-1.83,7.57,7.57,0,0,1-.36-2.43,7.43,7.43,0,0,1,.36-2.4,5.06,5.06,0,0,1,1-1.8A4.35,4.35,0,0,1,141.24.39a5.25,5.25,0,0,1,4,0,4.57,4.57,0,0,1,1.56,1.12,5.08,5.08,0,0,1,1,1.8,7.43,7.43,0,0,1,.36,2.4,7.57,7.57,0,0,1-.36,2.43,5.22,5.22,0,0,1-1,1.83,4.55,4.55,0,0,1-1.56,1.16A4.94,4.94,0,0,1,143.22,11.53Zm0-1.72a2.44,2.44,0,0,0,1.19-.29,2.63,2.63,0,0,0,.91-.82,4.19,4.19,0,0,0,.57-1.3,6.3,6.3,0,0,0,.21-1.69,4.86,4.86,0,0,0-.78-2.93,2.61,2.61,0,0,0-4.2,0,4.93,4.93,0,0,0-.77,2.93,6.3,6.3,0,0,0,.21,1.69,4,4,0,0,0,.57,1.3,2.63,2.63,0,0,0,.91.82A2.43,2.43,0,0,0,143.22,9.81Z" style="fill:#fff"/><path d="M151,11.32V.2h2l3.47,6.26,1.14,2.36h.06c0-.58-.09-1.2-.16-1.86s-.09-1.3-.09-1.93V.2h1.89V11.32h-2l-3.46-6.25L152.73,2.7h-.07c.05.59.1,1.21.16,1.86s.09,1.28.09,1.9v4.86Z" style="fill:#fff"/><path d="M161.4,11.32,165,.2h2.31L171,11.32h-2.07l-.87-3h-3.74l-.87,3Zm3.72-5.91-.39,1.36h2.84l-.39-1.36c-.18-.59-.36-1.2-.52-1.82s-.33-1.24-.49-1.86h-.06l-.48,1.86C165.47,4.21,165.3,4.82,165.12,5.41Z" style="fill:#fff"/><path d="M173,11.32V.2h2l3.47,6.26,1.14,2.36h.07c-.05-.58-.1-1.2-.16-1.86a18.22,18.22,0,0,1-.1-1.93V.2h1.89V11.32h-2l-3.47-6.25L174.69,2.7h-.07c0,.59.1,1.21.17,1.86s.09,1.28.09,1.9v4.86Z" style="fill:#fff"/><path d="M184.81,11.32V.2h2V9.66h4.62v1.66Z" style="fill:#fff"/><path d="M192.56,11.32,196.18.2h2.31l3.62,11.12H200l-.87-3h-3.74l-.87,3Zm3.72-5.91-.39,1.36h2.84l-.39-1.36c-.18-.59-.36-1.2-.52-1.82s-.33-1.24-.48-1.86h-.07q-.24.94-.48,1.86C196.63,4.21,196.46,4.82,196.28,5.41Z" style="fill:#fff"/><path d="M208.64,11.53a5.66,5.66,0,0,1-2.08-.38,4.72,4.72,0,0,1-1.67-1.1,5.2,5.2,0,0,1-1.1-1.81,7.35,7.35,0,0,1-.39-2.44,6.9,6.9,0,0,1,.41-2.44,5.42,5.42,0,0,1,1.12-1.83A4.65,4.65,0,0,1,206.59.39,5.45,5.45,0,0,1,208.66,0a4.27,4.27,0,0,1,2,.43,5.34,5.34,0,0,1,1.35,1L211,2.69A3.92,3.92,0,0,0,210,2a2.7,2.7,0,0,0-1.31-.28,3.17,3.17,0,0,0-1.35.28,2.85,2.85,0,0,0-1,.8,3.45,3.45,0,0,0-.67,1.26,5.52,5.52,0,0,0-.24,1.69,4.64,4.64,0,0,0,.86,3,3,3,0,0,0,2.54,1.08,3,3,0,0,0,.9-.13,2,2,0,0,0,.7-.36V6.92h-2.11V5.3h3.87v4.9a4.48,4.48,0,0,1-1.48.94A5.3,5.3,0,0,1,208.64,11.53Z" style="fill:#fff"/><path d="M215.32,11.32V.2H222V1.87h-4.73V4.71h4V6.38h-4V9.66h4.9v1.66Z" style="fill:#fff"/><path d="M44.46,30.32V19.2h3a5.49,5.49,0,0,1,4,1.38,5.51,5.51,0,0,1,1.43,4.13,7.48,7.48,0,0,1-.37,2.43,4.54,4.54,0,0,1-1,1.76A4.34,4.34,0,0,1,49.75,30a6.38,6.38,0,0,1-2.22.36Zm2-1.6h.86a3.37,3.37,0,0,0,2.61-1,4.35,4.35,0,0,0,.91-3,4.07,4.07,0,0,0-.92-3,3.44,3.44,0,0,0-2.6-.94h-.86Z" style="fill:#fff"/><path d="M55.74,30.32V19.2h2V30.32Z" style="fill:#fff"/><path d="M59.75,30.32,63.38,19.2h2.31l3.62,11.12H67.23l-.86-3H62.63l-.87,3Zm3.73-5.91-.39,1.36h2.84l-.39-1.36c-.19-.59-.36-1.2-.52-1.82s-.33-1.24-.49-1.86h-.07c-.16.63-.31,1.25-.47,1.86S63.66,23.82,63.48,24.41Z" style="fill:#fff"/><path d="M71.35,30.32V19.2h2v9.46H78v1.66Z" style="fill:#fff"/><path d="M84.34,30.53a4.94,4.94,0,0,1-2-.4A4.42,4.42,0,0,1,80.8,29a5.37,5.37,0,0,1-1-1.83,7.57,7.57,0,0,1-.36-2.43,7.43,7.43,0,0,1,.36-2.4,5.22,5.22,0,0,1,1-1.8,4.44,4.44,0,0,1,1.55-1.12,4.94,4.94,0,0,1,2-.39,5,5,0,0,1,2,.39,4.44,4.44,0,0,1,1.55,1.12,5.08,5.08,0,0,1,1,1.8,7.43,7.43,0,0,1,.36,2.4,7.57,7.57,0,0,1-.36,2.43,5.22,5.22,0,0,1-1,1.83,4.42,4.42,0,0,1-1.55,1.16A5,5,0,0,1,84.34,30.53Zm0-1.72a2.47,2.47,0,0,0,1.19-.29,2.7,2.7,0,0,0,.9-.82A4.2,4.2,0,0,0,87,26.4a6.75,6.75,0,0,0,.2-1.69,4.93,4.93,0,0,0-.77-2.93,2.61,2.61,0,0,0-4.2,0,4.86,4.86,0,0,0-.78,2.93,6.3,6.3,0,0,0,.21,1.69,4,4,0,0,0,.58,1.3,2.6,2.6,0,0,0,.9.82A2.44,2.44,0,0,0,84.34,28.81Z" style="fill:#fff"/><path d="M96.8,30.53a5.75,5.75,0,0,1-2.09-.38,4.77,4.77,0,0,1-1.66-1.1A5.05,5.05,0,0,1,92,27.24a7.1,7.1,0,0,1-.39-2.44A6.9,6.9,0,0,1,92,22.36a5.4,5.4,0,0,1,1.11-1.83,4.69,4.69,0,0,1,1.67-1.14A5.43,5.43,0,0,1,96.81,19a4.28,4.28,0,0,1,2,.43,5.34,5.34,0,0,1,1.35,1l-1.05,1.28a4,4,0,0,0-.95-.69,2.66,2.66,0,0,0-1.3-.28,3.11,3.11,0,0,0-1.35.28,2.88,2.88,0,0,0-1,.8,3.78,3.78,0,0,0-.67,1.26,5.52,5.52,0,0,0-.24,1.69,4.7,4.7,0,0,0,.86,3,3.46,3.46,0,0,0,3.45.95,1.88,1.88,0,0,0,.69-.36v-2.4H96.47V24.3h3.88v4.9a4.43,4.43,0,0,1-1.49.94A5.22,5.22,0,0,1,96.8,30.53Z" style="fill:#fff"/><path d="M109.79,30.32V20.87h-3.22V19.2H115v1.67h-3.21v9.45Z" style="fill:#fff"/><path d="M117.49,30.32V19.2h6.69v1.67h-4.72v2.84h4v1.67h-4v3.28h4.89v1.66Z" style="fill:#fff"/><path d="M127.29,30.32V19.2h2v9.46h4.62v1.66Z" style="fill:#fff"/><path d="M136.49,30.32V19.2h6.7v1.67h-4.73v2.84h4v1.67h-4v3.28h4.9v1.66Z" style="fill:#fff"/><path d="M146.3,30.32V19.2h2v5.05h0l4-5.05h2.19l-3.42,4.34,4,6.78h-2.18l-3-5.23-1.6,2v3.25Z" style="fill:#fff"/><path d="M161,30.53a4.9,4.9,0,0,1-2-.4A4.33,4.33,0,0,1,157.49,29a5.39,5.39,0,0,1-1-1.83,7.87,7.87,0,0,1-.35-2.43,7.72,7.72,0,0,1,.35-2.4,5.24,5.24,0,0,1,1-1.8A4.35,4.35,0,0,1,159,19.39a5.25,5.25,0,0,1,4,0,4.57,4.57,0,0,1,1.56,1.12,5.24,5.24,0,0,1,1,1.8,7.43,7.43,0,0,1,.36,2.4,7.57,7.57,0,0,1-.36,2.43,5.39,5.39,0,0,1-1,1.83A4.55,4.55,0,0,1,163,30.13,4.94,4.94,0,0,1,161,30.53Zm0-1.72a2.47,2.47,0,0,0,1.19-.29,2.6,2.6,0,0,0,.9-.82,4,4,0,0,0,.58-1.3,6.3,6.3,0,0,0,.21-1.69,4.86,4.86,0,0,0-.78-2.93,2.61,2.61,0,0,0-4.2,0,4.93,4.93,0,0,0-.77,2.93,6.75,6.75,0,0,0,.2,1.69,4.2,4.2,0,0,0,.58,1.3,2.7,2.7,0,0,0,.9.82A2.47,2.47,0,0,0,161,28.81Z" style="fill:#fff"/><path d="M168.83,30.32V19.2h2.22l2,5.44c.12.36.24.71.35,1.08s.23.74.36,1.1h.07c.12-.36.24-.73.35-1.1s.22-.72.34-1.08l1.92-5.44h2.25V30.32h-1.82V25.24c0-.26,0-.55,0-.85s0-.62.06-.93.05-.62.08-.92.06-.58.09-.84H177l-.9,2.59-1.82,5h-1.18l-1.83-5-.89-2.59h-.06c0,.26,0,.54.07.84l.09.92c0,.31,0,.62.07.93s0,.59,0,.85v5.08Z" style="fill:#fff"/></svg>