<svg id="Ebene_1" data-name="Ebene 1" xmlns="http://www.w3.org/2000/svg" viewBox="0 0 283.46 43.55"><polygon points="19.88 15.92 17.83 15.92 17.83 28.36 25.03 28.36 25.03 26.6 19.88 26.6 19.88 15.92" style="fill:#fff"/><path d="M33.6,22.51a3.82,3.82,0,0,0-2-2.65,3.74,3.74,0,0,0-1.6-.35,3.49,3.49,0,0,0-2.87,1.36A5.08,5.08,0,0,0,26,24.16a4.74,4.74,0,0,0,1,3.16,3.73,3.73,0,0,0,3,1.3,3.55,3.55,0,0,0,3-1.36,2.7,2.7,0,0,0,.49-1.16H31.77a1.34,1.34,0,0,1-.8,1,2.38,2.38,0,0,1-.81.14,1.94,1.94,0,0,1-1.93-1.31A4.09,4.09,0,0,1,28,24.53h5.87A8.27,8.27,0,0,0,33.6,22.51ZM28,23.24a2.56,2.56,0,0,1,1.12-2.1,1.68,1.68,0,0,1,.83-.21A1.73,1.73,0,0,1,31.55,22a3.33,3.33,0,0,1,.33,1.27H28Z" style="fill:#fff"/><path d="M38.19,16.92H37.7l-1.34,1.79v1.07H35V21.2h1.38v4.67a6.23,6.23,0,0,0,.14,1.55A1.46,1.46,0,0,0,37.8,28.5a3.88,3.88,0,0,0,.7.06,3.51,3.51,0,0,0,1.29-.19v-1.5a2.62,2.62,0,0,1-.71.13.79.79,0,0,1-.77-.35,2.56,2.56,0,0,1-.11-1v-4.5h1.59V19.77H38.2V16.92Z" style="fill:#fff"/><path d="M41.78,18.16h1c0,.86-.36,1.37-1,1.53v1.08a3,3,0,0,0,1.38-.69,2.33,2.33,0,0,0,.67-1A5.22,5.22,0,0,0,44,17.48V15.92H41.78Z" style="fill:#fff"/><path d="M50.16,23.71a10,10,0,0,0-2.08-.62,4.25,4.25,0,0,1-1-.31,1,1,0,0,1-.44-.42.92.92,0,0,1-.1-.44.9.9,0,0,1,.22-.61,1.07,1.07,0,0,1,.58-.37,2.33,2.33,0,0,1,.53-.06c.85,0,1.34.36,1.45,1.08h1.93a2.52,2.52,0,0,0-.48-1.32,3.42,3.42,0,0,0-2.86-1.14,3.57,3.57,0,0,0-2.32.7A2.2,2.2,0,0,0,44.69,22c0,1.29.85,2.12,2.53,2.5.72.16,1.18.27,1.39.34a1.54,1.54,0,0,1,.93.66,1.14,1.14,0,0,1-.75,1.66,2.61,2.61,0,0,1-.64.08A1.83,1.83,0,0,1,47,26.91a1.48,1.48,0,0,1-.51-1H44.56q.4,2.7,3.54,2.7a3.75,3.75,0,0,0,2.5-.76,2.51,2.51,0,0,0,1-2A2.27,2.27,0,0,0,50.16,23.71Z" style="fill:#fff"/><path d="M64.06,19.88a3.33,3.33,0,0,0-1.59-.37,3,3,0,0,0-2.59,1.23v-1H58V31.59h1.83V27.41a2.71,2.71,0,0,0,1.58,1.09,3.24,3.24,0,0,0,.89.12,3.41,3.41,0,0,0,2.72-1.23,5,5,0,0,0,1-3.32,5.85,5.85,0,0,0-.44-2.34A3.63,3.63,0,0,0,64.06,19.88Zm-.46,6.45a1.82,1.82,0,0,1-1.54.77,1.91,1.91,0,0,1-1.27-.46,2.14,2.14,0,0,1-.74-1.2,5.12,5.12,0,0,1-.17-1.4,2.84,2.84,0,0,1,1.27-2.77,1.86,1.86,0,0,1,.91-.22,1.83,1.83,0,0,1,1.61.89,3.91,3.91,0,0,1,.56,2.17A3.68,3.68,0,0,1,63.6,26.33Z" style="fill:#fff"/><path d="M73.52,19.77A4.27,4.27,0,0,0,72,19.51a3.82,3.82,0,0,0-3.13,1.39,4.73,4.73,0,0,0-1,3.1,5.62,5.62,0,0,0,.51,2.47,3.6,3.6,0,0,0,2,1.88,4.63,4.63,0,0,0,1.6.27,4.12,4.12,0,0,0,2-.49,3.66,3.66,0,0,0,1.78-2.26,6.26,6.26,0,0,0,.25-1.8,5.44,5.44,0,0,0-.49-2.42A3.62,3.62,0,0,0,73.52,19.77Zm0,6.65a1.89,1.89,0,0,1-1.52.67,2.1,2.1,0,0,1-1.18-.35,2.25,2.25,0,0,1-.92-1.36A5.37,5.37,0,0,1,69.71,24c0-1.43.46-2.37,1.39-2.8A2,2,0,0,1,72,21a2,2,0,0,1,1.62.78A3.55,3.55,0,0,1,74.19,24,3.68,3.68,0,0,1,73.49,26.42Z" style="fill:#fff"/><polygon points="85.45 25.98 84.03 19.77 82.08 19.77 80.73 26.04 79.22 19.77 77.15 19.77 79.66 28.36 81.67 28.36 83.04 22.21 84.47 28.36 86.45 28.36 88.96 19.77 86.97 19.77 85.45 25.98" style="fill:#fff"/><path d="M97.65,22.51a3.82,3.82,0,0,0-2-2.65,3.74,3.74,0,0,0-1.6-.35,3.49,3.49,0,0,0-2.87,1.36,5.08,5.08,0,0,0-1.07,3.29,4.74,4.74,0,0,0,1,3.16,3.73,3.73,0,0,0,3,1.3,3.52,3.52,0,0,0,3-1.36,2.7,2.7,0,0,0,.49-1.16H95.81a1.34,1.34,0,0,1-.8,1,2.38,2.38,0,0,1-.81.14,1.94,1.94,0,0,1-1.93-1.31A3.86,3.86,0,0,1,92,24.53H97.9A9.37,9.37,0,0,0,97.65,22.51ZM92,23.24a2.56,2.56,0,0,1,1.12-2.1,1.68,1.68,0,0,1,.83-.21A1.73,1.73,0,0,1,95.6,22a3.33,3.33,0,0,1,.33,1.27H92Z" style="fill:#fff"/><path d="M101.87,21.19V19.77H100.1v8.59h1.83V24.89a5.91,5.91,0,0,1,.32-2.32,2,2,0,0,1,1.92-1.23c.16,0,.4,0,.72.05V19.52l-.41,0A2.83,2.83,0,0,0,101.87,21.19Z" style="fill:#fff"/><path d="M117.22,19.84a3.31,3.31,0,0,0-1.5-.34,2.91,2.91,0,0,0-2.49,1.28V15.91H111.4V28.35h1.83V24.21a5.74,5.74,0,0,1,.24-2,1.81,1.81,0,0,1,1.1-1.08,2.08,2.08,0,0,1,.63-.09,1.39,1.39,0,0,1,1.3.65,3,3,0,0,1,.25,1.43v5.24h1.83V22.82a4.45,4.45,0,0,0-.36-2.05A2.44,2.44,0,0,0,117.22,19.84Z" style="fill:#fff"/><rect x="121.23" y="15.91" width="1.94" height="1.87" style="fill:#fff"/><rect x="121.29" y="19.77" width="1.83" height="8.58" style="fill:#fff"/><path d="M131.54,20.77a2.72,2.72,0,0,0-1.48-1.13,3.22,3.22,0,0,0-1-.14,3.38,3.38,0,0,0-2.68,1.21,4.82,4.82,0,0,0-1,3.25,4.81,4.81,0,0,0,1,3.16,3.17,3.17,0,0,0,2.57,1.15A2.67,2.67,0,0,0,131.36,27v.45c0,1.43-.38,2.3-1.13,2.6a2.38,2.38,0,0,1-.93.16,2.08,2.08,0,0,1-1.44-.41,1,1,0,0,1-.23-.49h-1.89a2.11,2.11,0,0,0,1,1.69,4.84,4.84,0,0,0,2.58.57,3.63,3.63,0,0,0,3.26-1.5,3.54,3.54,0,0,0,.54-1.32,10.92,10.92,0,0,0,.15-2.06v-7h-1.72v1ZM130.76,26a1.73,1.73,0,0,1-1.44.71,1.78,1.78,0,0,1-1.16-.42,2.25,2.25,0,0,1-.73-1.12,4.6,4.6,0,0,1-.16-1.27c0-1.38.4-2.28,1.21-2.7a1.79,1.79,0,0,1,.84-.19,1.82,1.82,0,0,1,1.36.57,3,3,0,0,1,.73,2.21A3.54,3.54,0,0,1,130.76,26Z" style="fill:#fff"/><path d="M141.72,19.84a3.31,3.31,0,0,0-1.5-.34,2.91,2.91,0,0,0-2.49,1.28V15.91H135.9V28.35h1.83V24.21a5.74,5.74,0,0,1,.24-2,1.81,1.81,0,0,1,1.1-1.08,2.08,2.08,0,0,1,.63-.09,1.39,1.39,0,0,1,1.3.65,3,3,0,0,1,.25,1.43v5.24h1.83V22.82a4.45,4.45,0,0,0-.36-2.05A2.44,2.44,0,0,0,141.72,19.84Z" style="fill:#fff"/><path d="M152.72,22.5a3.84,3.84,0,0,0-2-2.65,3.74,3.74,0,0,0-1.6-.35,3.49,3.49,0,0,0-2.87,1.36,5.08,5.08,0,0,0-1.07,3.29,4.74,4.74,0,0,0,1,3.16,3.74,3.74,0,0,0,3,1.3,3.55,3.55,0,0,0,3-1.36,2.7,2.7,0,0,0,.49-1.16h-1.85a1.34,1.34,0,0,1-.8,1,2.38,2.38,0,0,1-.81.14,1.94,1.94,0,0,1-1.93-1.31,4.09,4.09,0,0,1-.25-1.37H153A8.33,8.33,0,0,0,152.72,22.5Zm-5.6.74a2.59,2.59,0,0,1,1.12-2.11,1.65,1.65,0,0,1,.83-.21,1.73,1.73,0,0,1,1.61,1,3.33,3.33,0,0,1,.33,1.27Z" style="fill:#fff"/><path d="M157,21.19V19.77h-1.77v8.58H157V24.88a5.91,5.91,0,0,1,.32-2.32,2,2,0,0,1,1.92-1.23,6.37,6.37,0,0,1,.72.06V19.52l-.41,0A2.8,2.8,0,0,0,157,21.19Z" style="fill:#fff"/><path d="M172.5,19.88a3.33,3.33,0,0,0-1.59-.37,3,3,0,0,0-2.59,1.23v-1h-1.85V31.59h1.83V27.41a2.71,2.71,0,0,0,1.58,1.09,3.3,3.3,0,0,0,.89.12,3.41,3.41,0,0,0,2.72-1.23,5,5,0,0,0,1-3.32,5.85,5.85,0,0,0-.44-2.34A3.5,3.5,0,0,0,172.5,19.88Zm-.45,6.44a1.82,1.82,0,0,1-1.54.77,1.91,1.91,0,0,1-1.27-.46,2.14,2.14,0,0,1-.74-1.2,5.12,5.12,0,0,1-.17-1.4,2.85,2.85,0,0,1,1.27-2.77,1.86,1.86,0,0,1,.91-.22,1.83,1.83,0,0,1,1.61.89,3.93,3.93,0,0,1,.55,2.17A3.67,3.67,0,0,1,172.05,26.32Z" style="fill:#fff"/><path d="M183.85,22.5a3.84,3.84,0,0,0-2-2.65,3.74,3.74,0,0,0-1.6-.35,3.49,3.49,0,0,0-2.87,1.36,5.08,5.08,0,0,0-1.07,3.29,4.74,4.74,0,0,0,1,3.16,3.73,3.73,0,0,0,3,1.3,3.52,3.52,0,0,0,3-1.36,2.7,2.7,0,0,0,.49-1.16H182a1.34,1.34,0,0,1-.8,1,2.38,2.38,0,0,1-.81.14,1.94,1.94,0,0,1-1.93-1.31,3.86,3.86,0,0,1-.24-1.37h5.87A8.33,8.33,0,0,0,183.85,22.5Zm-5.6.74a2.59,2.59,0,0,1,1.12-2.11,1.65,1.65,0,0,1,.83-.21,1.73,1.73,0,0,1,1.61,1,3.33,3.33,0,0,1,.33,1.27Z" style="fill:#fff"/><path d="M188.08,21.19V19.77h-1.77v8.58h1.83V24.88a5.91,5.91,0,0,1,.32-2.32,2,2,0,0,1,1.92-1.23,6.37,6.37,0,0,1,.72.06V19.52l-.41,0A2.8,2.8,0,0,0,188.08,21.19Z" style="fill:#fff"/><path d="M194.11,16.48a3.59,3.59,0,0,0-.47,2.11v1.18h-1.35v1.42h1.37v7.16h1.83V21.19H197V19.77h-1.54V18.63q0-1.14.39-1.35a1.19,1.19,0,0,1,.56-.12,2.5,2.5,0,0,1,.7.12V15.75a5.24,5.24,0,0,0-1-.12A2.35,2.35,0,0,0,194.11,16.48Z" style="fill:#fff"/><path d="M203.93,19.77a4.27,4.27,0,0,0-1.57-.27,3.84,3.84,0,0,0-3.13,1.39,4.73,4.73,0,0,0-1,3.1,5.65,5.65,0,0,0,.51,2.47,3.64,3.64,0,0,0,2,1.88,4.63,4.63,0,0,0,1.6.27,4.12,4.12,0,0,0,2-.49,3.66,3.66,0,0,0,1.78-2.26,6.26,6.26,0,0,0,.25-1.8,5.44,5.44,0,0,0-.49-2.42A3.67,3.67,0,0,0,203.93,19.77Zm0,6.64a1.89,1.89,0,0,1-1.52.67,2.08,2.08,0,0,1-1.19-.35,2.25,2.25,0,0,1-.92-1.36A5.42,5.42,0,0,1,200.1,24c0-1.43.46-2.37,1.39-2.8a2,2,0,0,1,.86-.18,2,2,0,0,1,1.62.78,3.55,3.55,0,0,1,.61,2.22A3.62,3.62,0,0,1,203.89,26.41Z" style="fill:#fff"/><path d="M210.46,21.19V19.77h-1.77v8.58h1.83V24.88a5.91,5.91,0,0,1,.32-2.32,2,2,0,0,1,1.92-1.23,6.37,6.37,0,0,1,.72.06V19.52l-.41,0A2.82,2.82,0,0,0,210.46,21.19Z" style="fill:#fff"/><path d="M225.3,19.72a3.12,3.12,0,0,0-1.14-.22,3,3,0,0,0-2.59,1.38,2.15,2.15,0,0,0-1.32-1.24,2.93,2.93,0,0,0-3.33,1.16v-1h-1.78v8.58H217V23.73a4.64,4.64,0,0,1,.2-1.58,1.86,1.86,0,0,1,.64-.82,1.66,1.66,0,0,1,1-.31,1.19,1.19,0,0,1,1,.47,2.65,2.65,0,0,1,.28,1.47v5.39h1.83V23.74a5.23,5.23,0,0,1,.17-1.62A1.57,1.57,0,0,1,223.64,21a1.21,1.21,0,0,1,1.23.75,3.78,3.78,0,0,1,.15,1.29v5.28h1.83V22.49a3.66,3.66,0,0,0-.38-1.79A2.21,2.21,0,0,0,225.3,19.72Z" style="fill:#fff"/><path d="M236.29,27a1.5,1.5,0,0,1-.09-.64V23.11c0-.64,0-1.11,0-1.38a2.58,2.58,0,0,0-.22-.76,2.76,2.76,0,0,0-2.12-1.39,6,6,0,0,0-1-.08c-2.26,0-3.44.82-3.54,2.45h1.85a1.06,1.06,0,0,1,.41-.81,2.29,2.29,0,0,1,1.16-.22c1.09,0,1.63.51,1.63,1.52v.71a20.18,20.18,0,0,0-2.82.22A3.75,3.75,0,0,0,230,24,2.47,2.47,0,0,0,229,26.09a2.28,2.28,0,0,0,.52,1.52,2.63,2.63,0,0,0,1.29.83,3.57,3.57,0,0,0,1.1.16,3.53,3.53,0,0,0,2.63-1,1.21,1.21,0,0,0,.8.92,2.15,2.15,0,0,0,.53.06,3.18,3.18,0,0,0,1.21-.23V27a.9.9,0,0,1-.38.1A.33.33,0,0,1,236.29,27Zm-2-2.1a2.53,2.53,0,0,1-.4,1.39,1.92,1.92,0,0,1-1,.84,1.83,1.83,0,0,1-.64.1,1.63,1.63,0,0,1-1.06-.32,1.09,1.09,0,0,1-.39-.88,1.42,1.42,0,0,1,.45-1,2.25,2.25,0,0,1,1.1-.56,11.34,11.34,0,0,1,1.93-.22v.69Z" style="fill:#fff"/><path d="M244.76,19.77a3.18,3.18,0,0,0-1.3-.26,3,3,0,0,0-2.59,1.35V19.78h-1.79v8.58h1.83V24.05a5.45,5.45,0,0,1,.24-1.87,1.8,1.8,0,0,1,.69-.83,1.82,1.82,0,0,1,1-.31,1.56,1.56,0,0,1,.9.25,1.08,1.08,0,0,1,.48.63,5.05,5.05,0,0,1,.14,1.44v5h1.83V22.87a4.9,4.9,0,0,0-.33-2A2.11,2.11,0,0,0,244.76,19.77Z" style="fill:#fff"/><path d="M253.17,26.94a1.79,1.79,0,0,1-.75.15,1.75,1.75,0,0,1-1.52-.77,3.83,3.83,0,0,1-.57-2.21,4,4,0,0,1,.54-2.19,1.8,1.8,0,0,1,1.61-.87,1.56,1.56,0,0,1,1.08.37,1.85,1.85,0,0,1,.56,1h1.93A3.15,3.15,0,0,0,255,20.31a3.63,3.63,0,0,0-2.42-.79,3.77,3.77,0,0,0-3,1.37,4.87,4.87,0,0,0-1,3.25,4.68,4.68,0,0,0,1.21,3.41,3.71,3.71,0,0,0,2.79,1.08,3.53,3.53,0,0,0,2.79-1.15,4,4,0,0,0,.92-2.15h-1.92A1.94,1.94,0,0,1,253.17,26.94Z" style="fill:#fff"/><path d="M265.35,22.5a3.84,3.84,0,0,0-2-2.65,3.74,3.74,0,0,0-1.6-.35,3.49,3.49,0,0,0-2.87,1.36,5.08,5.08,0,0,0-1.07,3.29,4.74,4.74,0,0,0,1,3.16,3.73,3.73,0,0,0,3,1.3,3.52,3.52,0,0,0,3-1.36,2.7,2.7,0,0,0,.49-1.16h-1.85a1.34,1.34,0,0,1-.8,1,2.38,2.38,0,0,1-.81.14A1.94,1.94,0,0,1,260,25.89a3.86,3.86,0,0,1-.24-1.37h5.87A8.33,8.33,0,0,0,265.35,22.5Zm-5.6.74a2.59,2.59,0,0,1,1.12-2.11,1.68,1.68,0,0,1,.83-.21,1.73,1.73,0,0,1,1.61,1,3.33,3.33,0,0,1,.33,1.27Z" style="fill:#fff"/><rect width="283.46" height="43.55" style="fill:none"/></svg>