<?xml version="1.0" encoding="utf-8"?>
<!-- Generator: Adobe Illustrator 25.2.3, SVG Export Plug-In . SVG Version: 6.00 Build 0)  -->
<svg version="1.1" id="Livello_1" xmlns="http://www.w3.org/2000/svg" xmlns:xlink="http://www.w3.org/1999/xlink" x="0px" y="0px"
	 viewBox="0 0 70 35" style="enable-background:new 0 0 70 35;" xml:space="preserve">
<style type="text/css">
	.st0{fill:#FFFFFF;}
</style>
<g>
	<path class="st0" d="M15.5,33.3C6.8,33.3,0,26.4,0,17.6C0,8.8,7,1.7,15.7,1.7c3.6,0,7.6,1.6,10,4c0.5,0.6,0.5,1.5,0,2
		c-0.6,0.5-1.5,0.5-2,0c-1.8-1.9-5-3.2-7.9-3.2c-7.1,0-12.8,5.8-12.8,13c0,7.3,5.4,12.9,12.6,12.9c1.3,0,2.5-0.4,3.9-0.8
		c1.3-0.4,2.7-0.9,4.2-0.9c1.3,0,2.7,0.2,3.9,0.5c-0.4-0.9-0.7-2-0.7-3c0-0.8,0.6-1.4,1.4-1.4c0.8,0,1.4,0.6,1.4,1.4
		c0,1.5,1.4,3.7,2,4.4c0.4,0.5,0.4,1.2,0,1.7c-0.4,0.5-1,0.7-1.6,0.5c0,0-3.6-1.2-6.4-1.2c-1,0-2.1,0.4-3.3,0.7
		C18.8,32.8,17.2,33.3,15.5,33.3z"/>
	<path class="st0" d="M8.8,16.1c-1.3,0-2.3,1-2.3,2.3s1,2.3,2.3,2.3s2.3-1,2.3-2.3S10.1,16.1,8.8,16.1z"/>
	<path class="st0" d="M15.3,16.1c-1.3,0-2.3,1-2.3,2.3s1,2.3,2.3,2.3s2.3-1,2.3-2.3S16.6,16.1,15.3,16.1z"/>
	<path class="st0" d="M21.8,16.1c-1.3,0-2.3,1-2.3,2.3s1,2.3,2.3,2.3s2.3-1,2.3-2.3S23.1,16.1,21.8,16.1z"/>
	<path class="st0" d="M28,20.7h2.9v-1.1H28v-1.8h3v-1.1h-4.5v6.9h4.7v-1.1H28V20.7L28,20.7z M33,18.9h-1.4l1.9,4.7H35l1.9-4.7h-1.4
		l-1.2,3.4L33,18.9L33,18.9z M42.3,20.3c-0.1-0.3-0.2-0.6-0.5-0.8S41.4,19.1,41,19c-0.3-0.1-0.7-0.2-1.2-0.2c-0.5,0-0.8,0.1-1.2,0.2
		c-0.3,0.1-0.6,0.3-0.8,0.5c-0.2,0.2-0.4,0.5-0.4,0.8c-0.1,0.3-0.1,0.6-0.1,0.9c0,0.3,0.1,0.6,0.1,1c0.1,0.3,0.2,0.6,0.5,0.8
		c0.2,0.2,0.5,0.4,0.8,0.5c0.3,0.1,0.7,0.2,1.1,0.2c0.5,0,0.8-0.1,1.2-0.2c0.3-0.1,0.6-0.3,0.8-0.5c0.2-0.2,0.4-0.5,0.5-0.8
		c0.1-0.3,0.1-0.6,0.1-1C42.4,20.9,42.4,20.6,42.3,20.3L42.3,20.3z M40.9,21.8c0,0.2-0.1,0.3-0.2,0.5c-0.1,0.1-0.2,0.2-0.3,0.3
		c-0.1,0.1-0.3,0.1-0.6,0.1c-0.2,0-0.4,0-0.5-0.1c-0.1-0.1-0.2-0.2-0.3-0.3c-0.1-0.1-0.1-0.3-0.2-0.5c0-0.2,0-0.4,0-0.6s0-0.4,0-0.5
		c0-0.2,0.1-0.3,0.2-0.5c0.1-0.1,0.2-0.2,0.3-0.3s0.3-0.1,0.5-0.1c0.2,0,0.4,0,0.6,0.1c0.1,0.1,0.2,0.2,0.3,0.3
		c0.1,0.1,0.1,0.3,0.2,0.5c0,0.2,0,0.4,0,0.5C41,21.4,40.9,21.6,40.9,21.8L40.9,21.8z M45,16.8h-1.4v6.9H45V16.8L45,16.8z
		 M46.4,22.3c0,0.5,0.1,0.8,0.4,1.1c0.3,0.2,0.7,0.4,1.2,0.4c0.3,0,0.6-0.1,0.9-0.2c0.3-0.1,0.5-0.3,0.6-0.4l0.1,0.5H51v-4.7h-1.4
		v3.5c-0.1,0.1-0.3,0.2-0.4,0.2c-0.2,0.1-0.3,0.1-0.5,0.1c-0.3,0-0.5-0.1-0.6-0.2c-0.1-0.1-0.2-0.3-0.2-0.5v-3.1h-1.4L46.4,22.3
		L46.4,22.3z M54.3,17.6h-1.4v1.3h-1.1v1h1.1v2.4c0,0.5,0.2,0.8,0.5,1.1c0.3,0.3,0.7,0.4,1.3,0.4c0.3,0,0.5,0,0.7,0
		c0.2,0,0.4-0.1,0.6-0.1v-1c-0.3,0.1-0.6,0.1-0.9,0.1c-0.2,0-0.4-0.1-0.5-0.1c-0.1-0.1-0.2-0.3-0.2-0.5v-2.2h1.5v-1h-1.5V17.6
		L54.3,17.6z M58.2,18.9h-1.4v4.7h1.4V18.9L58.2,18.9z M56.8,17.8c0.2,0.1,0.4,0.2,0.6,0.2c0.3,0,0.5-0.1,0.6-0.2
		c0.2-0.1,0.2-0.3,0.2-0.5s-0.1-0.4-0.2-0.5c-0.2-0.1-0.4-0.2-0.6-0.2c-0.3,0-0.5,0.1-0.6,0.2c-0.2,0.1-0.2,0.3-0.2,0.5
		C56.6,17.5,56.7,17.7,56.8,17.8L56.8,17.8z M64.3,20.3c-0.1-0.3-0.2-0.6-0.5-0.8S63.3,19.1,63,19c-0.3-0.1-0.7-0.2-1.2-0.2
		c-0.5,0-0.8,0.1-1.2,0.2c-0.3,0.1-0.6,0.3-0.8,0.5s-0.4,0.5-0.4,0.8c-0.1,0.3-0.1,0.6-0.1,0.9c0,0.3,0.1,0.6,0.1,1
		c0.1,0.3,0.2,0.6,0.5,0.8c0.2,0.2,0.5,0.4,0.8,0.5s0.7,0.2,1.1,0.2c0.5,0,0.8-0.1,1.2-0.2c0.3-0.1,0.6-0.3,0.8-0.5
		c0.2-0.2,0.4-0.5,0.5-0.8c0.1-0.3,0.1-0.6,0.1-1C64.4,20.9,64.3,20.6,64.3,20.3L64.3,20.3z M62.9,21.8c0,0.2-0.1,0.3-0.2,0.5
		c-0.1,0.1-0.2,0.2-0.3,0.3c-0.1,0.1-0.3,0.1-0.6,0.1c-0.2,0-0.4,0-0.5-0.1c-0.1-0.1-0.2-0.2-0.3-0.3c-0.1-0.1-0.1-0.3-0.2-0.5
		c0-0.2,0-0.4,0-0.6s0-0.4,0-0.5c0-0.2,0.1-0.3,0.2-0.5c0.1-0.1,0.2-0.2,0.3-0.3c0.1-0.1,0.3-0.1,0.5-0.1c0.2,0,0.4,0,0.6,0.1
		c0.1,0.1,0.2,0.2,0.3,0.3c0.1,0.1,0.1,0.3,0.2,0.5c0,0.2,0,0.4,0,0.5C62.9,21.4,62.9,21.6,62.9,21.8L62.9,21.8z M66.8,18.9h-1.3
		v4.7h1.4v-3.5c0.2-0.1,0.3-0.2,0.5-0.3c0.2-0.1,0.3-0.1,0.5-0.1c0.3,0,0.4,0.1,0.5,0.2c0.1,0.1,0.1,0.3,0.1,0.5v3.1H70v-3.3
		c0-0.4-0.1-0.8-0.4-1.1c-0.3-0.3-0.7-0.4-1.2-0.4c-0.3,0-0.6,0.1-0.9,0.2c-0.2,0.1-0.5,0.3-0.6,0.4L66.8,18.9L66.8,18.9z"/>
	<path class="st0" d="M32.1,8.2h-1.5v4.5l-2.8-4.5h-1.2V15H28v-4.3l2.8,4.3h1.2L32.1,8.2L32.1,8.2z M38,13.1c0-0.1,0-0.1,0-0.3
		s0-0.2,0-0.3c0-0.3,0-0.6-0.1-0.9c-0.1-0.3-0.2-0.5-0.4-0.7c-0.2-0.2-0.4-0.4-0.7-0.5c-0.3-0.1-0.6-0.2-1.1-0.2s-0.8,0.1-1.1,0.2
		c-0.3,0.1-0.6,0.3-0.8,0.5c-0.2,0.2-0.4,0.5-0.5,0.8c-0.1,0.3-0.2,0.6-0.2,0.9c0,0.4,0.1,0.7,0.2,1s0.3,0.6,0.5,0.8
		c0.2,0.2,0.5,0.4,0.9,0.5s0.8,0.2,1.3,0.2c0.3,0,0.6,0,0.9-0.1c0.3-0.1,0.6-0.1,0.8-0.2v-1C37.5,13.9,37.2,14,37,14
		c-0.2,0.1-0.5,0.1-0.8,0.1c-0.5,0-0.8-0.1-1.1-0.3c-0.2-0.2-0.4-0.5-0.4-0.8L38,13.1L38,13.1z M34.8,12.2c0-0.1,0-0.3,0.1-0.4
		c0-0.1,0.1-0.2,0.2-0.3c0.1-0.1,0.2-0.2,0.3-0.2c0.1-0.1,0.2-0.1,0.4-0.1c0.2,0,0.3,0,0.4,0.1c0.1,0.1,0.2,0.1,0.3,0.2
		c0.1,0.1,0.1,0.2,0.1,0.3c0,0.1,0,0.3,0,0.4L34.8,12.2L34.8,12.2z M43.6,10.3h-1.4l-1,1.3L40,10.3h-1.4l1.8,2.2L38.5,15H40l1.2-1.5
		l1.3,1.5h1.4L42,12.6L43.6,10.3L43.6,10.3z M46.6,9.1h-1.4v1.3H44v1h1.1v2.4c0,0.5,0.2,0.8,0.5,1.1c0.3,0.3,0.7,0.4,1.3,0.4
		c0.3,0,0.5,0,0.7,0s0.4-0.1,0.6-0.1v-1c-0.3,0.1-0.6,0.1-0.9,0.1c-0.2,0-0.4-0.1-0.5-0.1c-0.1-0.1-0.2-0.3-0.2-0.5v-2.2H48v-1h-1.5
		L46.6,9.1L46.6,9.1z"/>
</g>
</svg>
