<?xml version="1.0" encoding="utf-8"?>
<!-- Generator: Adobe Illustrator 21.0.1, SVG Export Plug-In . SVG Version: 6.00 Build 0)  -->
<!DOCTYPE svg PUBLIC "-//W3C//DTD SVG 1.1//EN" "http://www.w3.org/Graphics/SVG/1.1/DTD/svg11.dtd">
<svg version="1.1" xmlns="http://www.w3.org/2000/svg" xmlns:xlink="http://www.w3.org/1999/xlink" x="0px" y="0px"
	 viewBox="0 0 460 385.9" style="enable-background:new 0 0 460 385.9;" xml:space="preserve">
<style type="text/css">
	.button{cursor: pointer}
	.st0{fill:#B3B2B2;}
	.st1{fill:#FFFFFF;}
	.st2{fill:#23AEE5;}
	.st3{font-family:'BrixSansRegular';}
	.st4{font-size:10px;}
</style>
<g id="Ebene_3">
	<g>
		<path class="st0" d="M459.9,4.9c0-0.1,0.3-1.6-0.7-2.9c-0.9-1.2-2.5-1.8-4.8-1.9c-5.7-0.2-288.1,0-291,0h-0.2L163,0.2
			c-0.5,0.4-4.7,4-5.8,6.5c-3.8,0-27.8-0.4-28.1-0.4l-0.6,0l-0.1,0.6c-0.1,0.9-3.4,22.9-3.4,27.4v112.8l1.1,3.2l-0.5,13l-24,1.1
			c-0.3,0.1-8.4,1.5-13.3,9.4c-5.1,0-31.4,0.4-31.8,0.4c-1.6,0.3-4.6,1.7-4.6,5.3v18.8l-19.9,0l-5.2-0.6v-5.6H1.6v5.4H0v12.8h1.6
			v5.3h25.2v-5.6l5.5-1.2h19.5l0,62.2c0,0.1-0.2,2.4,1.2,4c0.9,0.9,2.1,1.4,3.7,1.4l31,0c0.1,0,1.4,0.4,1.4,1.7l0,10.4
			c0,0.2,4.1,17.2,17.1,17.2h20.1l1.2,30.4l-1.6,0.2l0.2,16.4l1.9,0.2l0.2,21.8l29,0.4l1.8,7.1c0.2,0.4,1.7,3.6,3.8,3.6h291.6
			c1.8-0.1,5.1-1.2,5.3-4.9C460.1,377,459.9,20,459.9,4.9z M437.2,1.3v337.1h-81.6V1.3C389.4,1.3,419.4,1.3,437.2,1.3z M214,1.3
			c23.2,0,52,0,81.6,0v337.5H214V1.3z M32.4,199.2h127.4v8.9l-127.4,0V199.2z M126.3,127.8h13.1v6.2h-13.1V127.8z M126.3,118.6h13.1
			v6.2h-13.1V118.6z M126.3,109.4h13.1v6.2h-13.1V109.4z M126.3,137h13v9.2h-5.6v0.4h-7.5V137z M133.8,147.5v2.3h-6.4l-0.8-2.3
			H133.8z M126.9,164.5l0-0.2l4.2-0.4l-0.7,2.8h-3.7v-2.1L126.9,164.5z M149,163.8l1.4,3.3l-4.1,3.1L145,167L149,163.8z
			 M144.2,167.3l1.2,3.3l-10.4-0.3l1.7-3.4L144.2,167.3z M134.2,170l-3.1-3.1l0.8-2.9l4,2.6L134.2,170z M126.7,167.4h3.8l3.7,3.7
			l12,0.3l4.9-3.7l8.5-0.3l0-0.9l-8.4,0.3l-1.4-3.3l9.8-0.1l0-0.9l-10.5,0.1l-4.7,3.7l-7.7-0.4l-4.9-3.2l-4.9,0.5l0.5-12.7h6.3v3.9
			c0,1.7,2,5.8,6.9,5.8c4.7,0,6.7-3.5,6.9-5.2c0.1-0.7,0.1-3,0.1-5.1h11.9v-0.9h-11.9c0-0.9,0-1.7,0-2.1h12.2v51.3l-33.1,0V167.4z
			 M142.4,36.4h17.4v6.1h-17.4V36.4z M142.6,324.7h17.2v9.8l-17.2,0.1V324.7z M142.6,268.9h17.2v1.6h-17.2V268.9z M142.6,305.1h17
			v-0.9h-17v-32.9h17.2v36.1h-17.2V305.1z M159.8,58.7h-17.3v0.9h17.3v46.6h-17.4V56.9h17.4V58.7z M159.8,56.1h-17.4V46h17.4V56.1z
			 M142.4,120.8h17.2v-0.9h-17.2V110h17.2v-0.9h-17.2V107h17.4v15.2h-17.4V120.8z M159.8,43.4v1.8h-17.4v-1.8H159.8z M159.8,123
			v10.3h-17.4V123H159.8z M142.4,134.2h17.4v2h-17.2v0.9h17.2v9.1h-12.2h-0.4h-4.7V134.2z M159.8,257.1h-17.2v-2h17.1v-0.9h-17.1
			v-9.8h17.2V257.1z M142.6,257.9h17.2v10.1h-17.2V257.9z M142.6,308.3h17.2v1.5h-17.2V308.3z M159.8,310.7v10.8h-17.2v-10.8H159.8z
			 M159.8,322.3v1.5h-17.2v-1.5H159.8z M142.6,337.7l17.2,0.2l0-0.4v20.8l-17.2-0.3V337.7z M159.8,337.1l-17.2-0.2v-1.4l17.2-0.1
			V337.1z M159.8,28.4h-17V13.2h17V28.4z M129.6,7.6c4,0.1,26.8,0.4,28,0.4h0.5l0.1-0.5c0.2-0.6,0.8-1.5,1.5-2.4v7.2h-17.8v16.9
			h17.8v6.3h-17.4v-3.8h17.3v-0.9h-18.2v116.2h5.2c0,1.6,0.1,6.9,0,8c-0.1,0.9-1.5,4.4-6,4.4c-4.3,0-6-3.5-6-4.9v-7.5h5.6v-10.9
			h-13.9v-1.3h14v-7.9h-14v-1.3h14v-7.9h-14v-1.3h14v-7.9h-14v-1.2h13.6V58.5h-13.6V57h14v-7.9h-14v-1h14v-7.9h-14v-1.6h14V31h-13.8
			c0.1-0.5,0.1-1.1,0.2-1.7h13.6V12.3H129C129.3,10.2,129.5,8.4,129.6,7.6z M126.3,49.9h13.1v6.2h-13.1V49.9z M126.3,41h13.1v6.2
			h-13.1V41z M126.3,36.3h13.2v1.4h-13.2V36.3z M139.5,35.4h-13.2v-1.2c0-0.5,0.1-1.4,0.1-2.4h13V35.4z M126.3,59.4h12.7v47.1h-12.7
			V59.4z M126.8,28.4c0.5-4.6,1.4-10.7,2-15.2h10.7v15.2H126.8z M53.2,179.5c0-3.4,3.4-4,3.4-4.1c0.3,0,28-0.4,32-0.4H89l0.2-0.3
			c4.6-7.6,12.6-9.1,12.6-9.1l24-1.1v33.8l-72.6,0V179.5z M0.9,198.4h10.9v11.1H0.9V198.4z M27,200.8v6.4H14.4v2.3h-1.8v-11.1h2v2.1
			L27,200.8z M26,209.4v5.5H2.5v-4.5h12.8v-2.3h12.5V200l-12.3-0.3v-2.1h-13V193H26v5.5l5.6,0.6v9.1L26,209.4z M79.8,208.9
			l-26.6,4.3v-4.3H79.8z M97.5,293.6c0-5.5,4.5-10,10-10c5.5,0,10,4.5,10,10c0,5.5-4.5,10-10,10C102,303.7,97.5,299.2,97.5,293.6z
			 M126.9,271.5h12.1v32.6l-11.3,0.6l0-0.2h-0.2L126.9,271.5z M127.5,351.5l-0.1-14.1l1.6-0.2l-1.2-31.8l11.3-0.6v2.9h-9.3v3.2h9.3
			v5.6h-8.5v3.1h8.5v6.5h-8.2v2.7h8.2v5.8h-7.7v2.9l7.7,0.1V358l-9.6,0.1l-0.1-6.3L127.5,351.5z M458.6,380.9
			c-0.2,3.4-3.9,3.7-4.1,3.7H163c-1,0-2.2-1.9-2.6-2.7l-2-8l-28.7-0.4l-0.1-14.5l10.4-0.1v-22l-7.7-0.1v-1.2h7.7V328h-8.2v-1h8.2
			v-8.2h-8.5v-1.4h8.5v-7.3h-9.3v-1.4h9.3v-38h-13l-0.1-8.4h12.5v5.7h-12.4v0.9h13.2v-7.4h-13.4l0-1.4h13.4v-7.4h-13.6l0-1.6h13.6
			v-7.4h-13.7l0-1.8l13.7,0.1v-9.1h1.6l0.1,9.3h17.9v-0.9h-17.1l-0.1-9.3h-3.3v9.1l-12.8-0.1l-0.6-32l-0.9,0l1.7,95.5h-18
			c5.5-0.6,9.8-5.2,9.8-10.8c0-6-4.9-10.9-10.9-10.9c-6,0-10.9,4.9-10.9,10.9c0,5.6,4.3,10.3,9.8,10.8c-11.9,0-15.8-16-15.8-16
			v-10.3c0-1.9-1.6-2.8-2.6-3H56.8c-1.2,0-2.1-0.3-2.7-1c-1.1-1.2-0.9-3-0.9-3.1v-57.1l31.3-5.1l0-0.1h75.3v34.6h-18.1v115.4l18,0.3
			l0-0.4v19.9h0.4V4.7c1.2-1.3,2.6-2.6,3.4-3.3c2.4,0,21.8,0,49.5,0v338.3h83.3V1.3c19.6,0,39.5,0,58.3,0v337.9h83.3V1.3
			c9.6,0,15.5,0,16.3,0.1c1.8,0.1,3.2,0.5,3.8,1.4c0.7,0.9,0.5,1.9,0.5,2C458.6,8.5,458.8,376.9,458.6,380.9z M126.5,244.5h12.8v5.7
			h-12.7L126.5,244.5z M126.6,253.4h12.7v5.7h-12.6L126.6,253.4z"/>
		<rect x="225.6" y="46.2" class="st0" width="1.7" height="0.4"/>
		<rect x="244.9" y="46.2" class="st0" width="3.5" height="0.4"/>
		<rect x="229.1" y="46.2" class="st0" width="3.5" height="0.4"/>
		<rect x="282" y="46.2" class="st0" width="3.5" height="0.4"/>
		<rect x="255.5" y="46.2" class="st0" width="3.5" height="0.4"/>
		<rect x="271.4" y="46.2" class="st0" width="3.5" height="0.4"/>
		<rect x="234.3" y="46.2" class="st0" width="3.5" height="0.4"/>
		<rect x="239.6" y="46.2" class="st0" width="3.5" height="0.4"/>
		<rect x="260.8" y="46.2" class="st0" width="3.5" height="0.4"/>
		<rect x="266.1" y="46.2" class="st0" width="3.5" height="0.4"/>
		<rect x="250.2" y="46.2" class="st0" width="3.5" height="0.4"/>
		<rect x="276.7" y="46.2" class="st0" width="3.5" height="0.4"/>
		<rect x="287.3" y="46.2" class="st0" width="1.7" height="0.4"/>
		<rect x="225.6" y="62" class="st0" width="1.7" height="0.4"/>
		<rect x="229.1" y="62" class="st0" width="3.5" height="0.4"/>
		<rect x="271.4" y="62" class="st0" width="3.5" height="0.4"/>
		<rect x="276.7" y="62" class="st0" width="3.5" height="0.4"/>
		<rect x="260.8" y="62" class="st0" width="3.5" height="0.4"/>
		<rect x="282" y="62" class="st0" width="3.5" height="0.4"/>
		<rect x="255.5" y="62" class="st0" width="3.5" height="0.4"/>
		<rect x="234.3" y="62" class="st0" width="3.5" height="0.4"/>
		<rect x="239.6" y="62" class="st0" width="3.5" height="0.4"/>
		<rect x="250.2" y="62" class="st0" width="3.5" height="0.4"/>
		<rect x="266.1" y="62" class="st0" width="3.5" height="0.4"/>
		<rect x="244.9" y="62" class="st0" width="3.5" height="0.4"/>
		<rect x="287.3" y="62" class="st0" width="1.7" height="0.4"/>
		<rect x="225.6" y="77.7" class="st0" width="1.7" height="0.4"/>
		<rect x="271.4" y="77.7" class="st0" width="3.5" height="0.4"/>
		<rect x="266.1" y="77.7" class="st0" width="3.5" height="0.4"/>
		<rect x="282" y="77.7" class="st0" width="3.5" height="0.4"/>
		<rect x="250.2" y="77.7" class="st0" width="3.5" height="0.4"/>
		<rect x="234.3" y="77.7" class="st0" width="3.5" height="0.4"/>
		<rect x="260.8" y="77.7" class="st0" width="3.5" height="0.4"/>
		<rect x="244.9" y="77.7" class="st0" width="3.5" height="0.4"/>
		<rect x="255.5" y="77.7" class="st0" width="3.5" height="0.4"/>
		<rect x="229.1" y="77.7" class="st0" width="3.5" height="0.4"/>
		<rect x="276.7" y="77.7" class="st0" width="3.5" height="0.4"/>
		<rect x="239.6" y="77.7" class="st0" width="3.5" height="0.4"/>
		<rect x="287.3" y="77.7" class="st0" width="1.7" height="0.4"/>
		<rect x="225.6" y="94.5" class="st0" width="1.7" height="0.4"/>
		<rect x="282" y="94.5" class="st0" width="3.5" height="0.4"/>
		<rect x="244.9" y="94.5" class="st0" width="3.5" height="0.4"/>
		<rect x="276.7" y="94.5" class="st0" width="3.5" height="0.4"/>
		<rect x="266.1" y="94.5" class="st0" width="3.5" height="0.4"/>
		<rect x="271.4" y="94.5" class="st0" width="3.5" height="0.4"/>
		<rect x="239.6" y="94.5" class="st0" width="3.5" height="0.4"/>
		<rect x="260.8" y="94.5" class="st0" width="3.5" height="0.4"/>
		<rect x="250.2" y="94.5" class="st0" width="3.5" height="0.4"/>
		<rect x="229.1" y="94.5" class="st0" width="3.5" height="0.4"/>
		<rect x="255.5" y="94.5" class="st0" width="3.5" height="0.4"/>
		<rect x="234.3" y="94.5" class="st0" width="3.5" height="0.4"/>
		<rect x="287.3" y="94.5" class="st0" width="1.7" height="0.4"/>
		<rect x="225.6" y="110.5" class="st0" width="1.7" height="0.4"/>
		<rect x="271.4" y="110.5" class="st0" width="3.5" height="0.4"/>
		<rect x="260.8" y="110.5" class="st0" width="3.5" height="0.4"/>
		<rect x="244.9" y="110.5" class="st0" width="3.5" height="0.4"/>
		<rect x="234.3" y="110.5" class="st0" width="3.5" height="0.4"/>
		<rect x="266.1" y="110.5" class="st0" width="3.5" height="0.4"/>
		<rect x="255.5" y="110.5" class="st0" width="3.5" height="0.4"/>
		<rect x="276.7" y="110.5" class="st0" width="3.5" height="0.4"/>
		<rect x="282" y="110.5" class="st0" width="3.5" height="0.4"/>
		<rect x="250.2" y="110.5" class="st0" width="3.5" height="0.4"/>
		<rect x="229.1" y="110.5" class="st0" width="3.5" height="0.4"/>
		<rect x="239.6" y="110.5" class="st0" width="3.5" height="0.4"/>
		<rect x="287.3" y="110.5" class="st0" width="1.7" height="0.4"/>
		<rect x="225.6" y="127.5" class="st0" width="1.7" height="0.4"/>
		<rect x="250.2" y="127.5" class="st0" width="3.5" height="0.4"/>
		<rect x="282" y="127.5" class="st0" width="3.5" height="0.4"/>
		<rect x="239.6" y="127.5" class="st0" width="3.5" height="0.4"/>
		<rect x="244.9" y="127.5" class="st0" width="3.5" height="0.4"/>
		<rect x="271.4" y="127.5" class="st0" width="3.5" height="0.4"/>
		<rect x="234.3" y="127.5" class="st0" width="3.5" height="0.4"/>
		<rect x="276.7" y="127.5" class="st0" width="3.5" height="0.4"/>
		<rect x="260.8" y="127.5" class="st0" width="3.5" height="0.4"/>
		<rect x="266.1" y="127.5" class="st0" width="3.5" height="0.4"/>
		<rect x="229.1" y="127.5" class="st0" width="3.5" height="0.4"/>
		<rect x="255.5" y="127.5" class="st0" width="3.5" height="0.4"/>
		<rect x="287.3" y="127.5" class="st0" width="1.7" height="0.4"/>
		<rect x="225.6" y="143.9" class="st0" width="1.7" height="0.4"/>
		<rect x="229.1" y="143.9" class="st0" width="3.5" height="0.4"/>
		<rect x="271.4" y="143.9" class="st0" width="3.5" height="0.4"/>
		<rect x="260.8" y="143.9" class="st0" width="3.5" height="0.4"/>
		<rect x="239.6" y="143.9" class="st0" width="3.5" height="0.4"/>
		<rect x="244.9" y="143.9" class="st0" width="3.5" height="0.4"/>
		<rect x="255.5" y="143.9" class="st0" width="3.5" height="0.4"/>
		<rect x="234.3" y="143.9" class="st0" width="3.5" height="0.4"/>
		<rect x="266.1" y="143.9" class="st0" width="3.5" height="0.4"/>
		<rect x="276.7" y="143.9" class="st0" width="3.5" height="0.4"/>
		<rect x="282" y="143.9" class="st0" width="3.5" height="0.4"/>
		<rect x="250.2" y="143.9" class="st0" width="3.5" height="0.4"/>
		<rect x="287.3" y="143.9" class="st0" width="1.7" height="0.4"/>
		<rect x="225.6" y="160.6" class="st0" width="1.7" height="0.4"/>
		<rect x="266.1" y="160.6" class="st0" width="3.5" height="0.4"/>
		<rect x="239.6" y="160.6" class="st0" width="3.5" height="0.4"/>
		<rect x="250.2" y="160.6" class="st0" width="3.5" height="0.4"/>
		<rect x="229.1" y="160.6" class="st0" width="3.5" height="0.4"/>
		<rect x="244.9" y="160.6" class="st0" width="3.5" height="0.4"/>
		<rect x="276.7" y="160.6" class="st0" width="3.5" height="0.4"/>
		<rect x="255.5" y="160.6" class="st0" width="3.5" height="0.4"/>
		<rect x="282" y="160.6" class="st0" width="3.5" height="0.4"/>
		<rect x="234.3" y="160.6" class="st0" width="3.5" height="0.4"/>
		<rect x="271.4" y="160.6" class="st0" width="3.5" height="0.4"/>
		<rect x="260.8" y="160.6" class="st0" width="3.5" height="0.4"/>
		<rect x="287.3" y="160.6" class="st0" width="1.7" height="0.4"/>
		<rect x="225.6" y="174.9" class="st0" width="1.7" height="0.4"/>
		<rect x="250.2" y="174.9" class="st0" width="3.5" height="0.4"/>
		<rect x="244.9" y="174.9" class="st0" width="3.5" height="0.4"/>
		<rect x="255.5" y="174.9" class="st0" width="3.5" height="0.4"/>
		<rect x="260.8" y="174.9" class="st0" width="3.5" height="0.4"/>
		<rect x="234.3" y="174.9" class="st0" width="3.5" height="0.4"/>
		<rect x="229.1" y="174.9" class="st0" width="3.5" height="0.4"/>
		<rect x="271.4" y="174.9" class="st0" width="3.5" height="0.4"/>
		<rect x="282" y="174.9" class="st0" width="3.5" height="0.4"/>
		<rect x="239.6" y="174.9" class="st0" width="3.5" height="0.4"/>
		<rect x="266.1" y="174.9" class="st0" width="3.5" height="0.4"/>
		<rect x="276.7" y="174.9" class="st0" width="3.5" height="0.4"/>
		<rect x="287.3" y="174.9" class="st0" width="1.7" height="0.4"/>
		<rect x="225.6" y="190.6" class="st0" width="1.7" height="0.4"/>
		<rect x="260.8" y="190.6" class="st0" width="3.5" height="0.4"/>
		<rect x="234.3" y="190.6" class="st0" width="3.5" height="0.4"/>
		<rect x="244.9" y="190.6" class="st0" width="3.5" height="0.4"/>
		<rect x="282" y="190.6" class="st0" width="3.5" height="0.4"/>
		<rect x="250.2" y="190.6" class="st0" width="3.5" height="0.4"/>
		<rect x="255.5" y="190.6" class="st0" width="3.5" height="0.4"/>
		<rect x="276.7" y="190.6" class="st0" width="3.5" height="0.4"/>
		<rect x="229.1" y="190.6" class="st0" width="3.5" height="0.4"/>
		<rect x="266.1" y="190.6" class="st0" width="3.5" height="0.4"/>
		<rect x="271.4" y="190.6" class="st0" width="3.5" height="0.4"/>
		<rect x="239.6" y="190.6" class="st0" width="3.5" height="0.4"/>
		<rect x="287.3" y="190.6" class="st0" width="1.7" height="0.4"/>
		<rect x="225.6" y="207.6" class="st0" width="1.7" height="0.4"/>
		<rect x="260.8" y="207.6" class="st0" width="3.5" height="0.4"/>
		<rect x="271.4" y="207.6" class="st0" width="3.5" height="0.4"/>
		<rect x="239.6" y="207.6" class="st0" width="3.5" height="0.4"/>
		<rect x="266.1" y="207.6" class="st0" width="3.5" height="0.4"/>
		<rect x="234.3" y="207.6" class="st0" width="3.5" height="0.4"/>
		<rect x="255.5" y="207.6" class="st0" width="3.5" height="0.4"/>
		<rect x="276.7" y="207.6" class="st0" width="3.5" height="0.4"/>
		<rect x="282" y="207.6" class="st0" width="3.5" height="0.4"/>
		<rect x="229.1" y="207.6" class="st0" width="3.5" height="0.4"/>
		<rect x="244.9" y="207.6" class="st0" width="3.5" height="0.4"/>
		<rect x="250.2" y="207.6" class="st0" width="3.5" height="0.4"/>
		<rect x="287.3" y="207.6" class="st0" width="1.7" height="0.4"/>
		<rect x="225.6" y="222.9" class="st0" width="1.7" height="0.4"/>
		<rect x="260.8" y="222.9" class="st0" width="3.5" height="0.4"/>
		<rect x="239.6" y="222.9" class="st0" width="3.5" height="0.4"/>
		<rect x="266.1" y="222.9" class="st0" width="3.5" height="0.4"/>
		<rect x="234.3" y="222.9" class="st0" width="3.5" height="0.4"/>
		<rect x="244.9" y="222.9" class="st0" width="3.5" height="0.4"/>
		<rect x="271.4" y="222.9" class="st0" width="3.5" height="0.4"/>
		<rect x="276.7" y="222.9" class="st0" width="3.5" height="0.4"/>
		<rect x="229.1" y="222.9" class="st0" width="3.5" height="0.4"/>
		<rect x="255.5" y="222.9" class="st0" width="3.5" height="0.4"/>
		<rect x="282" y="222.9" class="st0" width="3.5" height="0.4"/>
		<rect x="250.2" y="222.9" class="st0" width="3.5" height="0.4"/>
		<rect x="287.3" y="222.9" class="st0" width="1.7" height="0.4"/>
		<rect x="225.6" y="238.6" class="st0" width="1.7" height="0.4"/>
		<rect x="239.6" y="238.6" class="st0" width="3.5" height="0.4"/>
		<rect x="234.3" y="238.6" class="st0" width="3.5" height="0.4"/>
		<rect x="229.1" y="238.6" class="st0" width="3.5" height="0.4"/>
		<rect x="244.9" y="238.6" class="st0" width="3.5" height="0.4"/>
		<rect x="250.2" y="238.6" class="st0" width="3.5" height="0.4"/>
		<rect x="271.4" y="238.6" class="st0" width="3.5" height="0.4"/>
		<rect x="266.1" y="238.6" class="st0" width="3.5" height="0.4"/>
		<rect x="260.8" y="238.6" class="st0" width="3.5" height="0.4"/>
		<rect x="276.7" y="238.6" class="st0" width="3.5" height="0.4"/>
		<rect x="282" y="238.6" class="st0" width="3.5" height="0.4"/>
		<rect x="255.5" y="238.6" class="st0" width="3.5" height="0.4"/>
		<rect x="287.3" y="238.6" class="st0" width="1.7" height="0.4"/>
		<rect x="225.6" y="254.3" class="st0" width="1.7" height="0.4"/>
		<rect x="266.1" y="254.3" class="st0" width="3.5" height="0.4"/>
		<rect x="271.4" y="254.3" class="st0" width="3.5" height="0.4"/>
		<rect x="255.5" y="254.3" class="st0" width="3.5" height="0.4"/>
		<rect x="239.6" y="254.3" class="st0" width="3.5" height="0.4"/>
		<rect x="244.9" y="254.3" class="st0" width="3.5" height="0.4"/>
		<rect x="260.8" y="254.3" class="st0" width="3.5" height="0.4"/>
		<rect x="250.2" y="254.3" class="st0" width="3.5" height="0.4"/>
		<rect x="282" y="254.3" class="st0" width="3.5" height="0.4"/>
		<rect x="234.3" y="254.3" class="st0" width="3.5" height="0.4"/>
		<rect x="276.7" y="254.3" class="st0" width="3.5" height="0.4"/>
		<rect x="229.1" y="254.3" class="st0" width="3.5" height="0.4"/>
		<rect x="287.3" y="254.3" class="st0" width="1.7" height="0.4"/>
		<rect x="225.6" y="270.3" class="st0" width="1.7" height="0.4"/>
		<rect x="229.1" y="270.3" class="st0" width="3.5" height="0.4"/>
		<rect x="271.4" y="270.3" class="st0" width="3.5" height="0.4"/>
		<rect x="266.1" y="270.3" class="st0" width="3.5" height="0.4"/>
		<rect x="255.5" y="270.3" class="st0" width="3.5" height="0.4"/>
		<rect x="276.7" y="270.3" class="st0" width="3.5" height="0.4"/>
		<rect x="282" y="270.3" class="st0" width="3.5" height="0.4"/>
		<rect x="260.8" y="270.3" class="st0" width="3.5" height="0.4"/>
		<rect x="239.6" y="270.3" class="st0" width="3.5" height="0.4"/>
		<rect x="234.3" y="270.3" class="st0" width="3.5" height="0.4"/>
		<rect x="244.9" y="270.3" class="st0" width="3.5" height="0.4"/>
		<rect x="250.2" y="270.3" class="st0" width="3.5" height="0.4"/>
		<rect x="287.3" y="270.3" class="st0" width="1.7" height="0.4"/>
		<rect x="225.6" y="286" class="st0" width="1.7" height="0.4"/>
		<rect x="266.1" y="286" class="st0" width="3.5" height="0.4"/>
		<rect x="276.7" y="286" class="st0" width="3.5" height="0.4"/>
		<rect x="255.5" y="286" class="st0" width="3.5" height="0.4"/>
		<rect x="239.6" y="286" class="st0" width="3.5" height="0.4"/>
		<rect x="234.3" y="286" class="st0" width="3.5" height="0.4"/>
		<rect x="282" y="286" class="st0" width="3.5" height="0.4"/>
		<rect x="260.8" y="286" class="st0" width="3.5" height="0.4"/>
		<rect x="229.1" y="286" class="st0" width="3.5" height="0.4"/>
		<rect x="250.2" y="286" class="st0" width="3.5" height="0.4"/>
		<rect x="271.4" y="286" class="st0" width="3.5" height="0.4"/>
		<rect x="244.9" y="286" class="st0" width="3.5" height="0.4"/>
		<rect x="287.3" y="286" class="st0" width="1.7" height="0.4"/>
		<rect x="225.6" y="301.6" class="st0" width="1.7" height="0.4"/>
		<rect x="244.9" y="301.6" class="st0" width="3.5" height="0.4"/>
		<rect x="271.4" y="301.6" class="st0" width="3.5" height="0.4"/>
		<rect x="282" y="301.6" class="st0" width="3.5" height="0.4"/>
		<rect x="250.2" y="301.6" class="st0" width="3.5" height="0.4"/>
		<rect x="234.3" y="301.6" class="st0" width="3.5" height="0.4"/>
		<rect x="229.1" y="301.6" class="st0" width="3.5" height="0.4"/>
		<rect x="239.6" y="301.6" class="st0" width="3.5" height="0.4"/>
		<rect x="276.7" y="301.6" class="st0" width="3.5" height="0.4"/>
		<rect x="260.8" y="301.6" class="st0" width="3.5" height="0.4"/>
		<rect x="266.1" y="301.6" class="st0" width="3.5" height="0.4"/>
		<rect x="255.5" y="301.6" class="st0" width="3.5" height="0.4"/>
		<rect x="287.3" y="301.6" class="st0" width="1.7" height="0.4"/>
		<rect x="225.6" y="315.9" class="st0" width="1.7" height="0.4"/>
		<rect x="271.4" y="315.9" class="st0" width="3.5" height="0.4"/>
		<rect x="255.5" y="315.9" class="st0" width="3.5" height="0.4"/>
		<rect x="260.8" y="315.9" class="st0" width="3.5" height="0.4"/>
		<rect x="244.9" y="315.9" class="st0" width="3.5" height="0.4"/>
		<rect x="282" y="315.9" class="st0" width="3.5" height="0.4"/>
		<rect x="276.7" y="315.9" class="st0" width="3.5" height="0.4"/>
		<rect x="266.1" y="315.9" class="st0" width="3.5" height="0.4"/>
		<rect x="250.2" y="315.9" class="st0" width="3.5" height="0.4"/>
		<rect x="229.1" y="315.9" class="st0" width="3.5" height="0.4"/>
		<rect x="234.3" y="315.9" class="st0" width="3.5" height="0.4"/>
		<rect x="239.6" y="315.9" class="st0" width="3.5" height="0.4"/>
		<rect x="287.3" y="315.9" class="st0" width="1.7" height="0.4"/>
		<rect x="225.6" y="329.6" class="st0" width="1.7" height="0.4"/>
		<rect x="229.1" y="329.6" class="st0" width="3.5" height="0.4"/>
		<rect x="234.3" y="329.6" class="st0" width="3.5" height="0.4"/>
		<rect x="266.1" y="329.6" class="st0" width="3.5" height="0.4"/>
		<rect x="244.9" y="329.6" class="st0" width="3.5" height="0.4"/>
		<rect x="255.5" y="329.6" class="st0" width="3.5" height="0.4"/>
		<rect x="271.4" y="329.6" class="st0" width="3.5" height="0.4"/>
		<rect x="260.8" y="329.6" class="st0" width="3.5" height="0.4"/>
		<rect x="250.2" y="329.6" class="st0" width="3.5" height="0.4"/>
		<rect x="276.7" y="329.6" class="st0" width="3.5" height="0.4"/>
		<rect x="282" y="329.6" class="st0" width="3.5" height="0.4"/>
		<rect x="239.6" y="329.6" class="st0" width="3.5" height="0.4"/>
		<rect x="287.3" y="329.6" class="st0" width="1.7" height="0.4"/>
		<path class="st0" d="M210.6,51.2c-0.5-0.3-3-1.4-3.7-1.3c-0.8,0.1-1.8,0.6-1.9,1.5l0,0l0,0c0,0.4,0,0.9,0,1.4h-2.9
			c0-0.5,0-1-0.1-1.3c0-0.6-0.3-1-0.7-1.4c-0.6-0.5-1.5-0.7-2.5-0.6l-20.4,0.7c-0.7,0.2-1.9,0.9-1.6,2.5c0.3,1.6,1,3.8,1.1,4
			c0.1,0.2,0.8,0.9,3.7,1.2c3,0.3,17.8,1.4,17.9,1.4c0.1,0,0.1,0,0.2,0c0.7,0,1.9-0.4,2.1-1.8c0.1-0.5,0.1-1.1,0.2-1.7h3
			c0,0.7,0,1.2,0,1.3c0,0.7,0.5,1.4,1.5,1.4c0.9,0,3.9-0.8,4.5-1.3c0.5-0.5,0.6-1.5,0.6-2.5l0-0.4C211.7,53.3,211.8,51.9,210.6,51.2
			z M201,57.4c-0.2,1.1-1.3,1.1-1.4,1.1c-0.1,0-15-1.1-17.9-1.4c-2.2-0.2-2.9-0.7-3.1-0.8c-0.1-0.4-0.7-2.4-1-3.7
			c-0.2-1.1,0.9-1.5,0.9-1.5l20.4-0.7l0,0c0.8-0.1,1.4,0.1,1.8,0.4c0.2,0.2,0.4,0.5,0.4,0.8C201.2,52.9,201.3,56,201,57.4z
			 M202.1,55c0-0.4,0-0.9,0-1.3h2.9c0,0.4,0,0.9,0,1.3H202.1z M210.8,54.3l0,0.4c0,0.7-0.1,1.7-0.3,1.9c-0.3,0.3-3.1,1.1-3.9,1.1
			c-0.6,0-0.6-0.4-0.6-0.6c0-0.3-0.1-5.1-0.1-5.7c0.1-0.6,1.1-0.7,1.2-0.8c0.4-0.1,2.5,0.8,3.2,1.2
			C210.9,52.3,210.9,53.2,210.8,54.3z"/>
		<path class="st0" d="M210.6,67c-0.5-0.3-3-1.4-3.7-1.3c-0.8,0.1-1.8,0.6-1.9,1.5l0,0l0,0c0,0.4,0,0.9,0,1.4h-2.9
			c0-0.5,0-1-0.1-1.3c0-0.6-0.3-1-0.7-1.4c-0.6-0.5-1.5-0.7-2.5-0.6L178.4,66c-0.7,0.2-1.9,0.9-1.6,2.5c0.3,1.6,1,3.8,1.1,4
			c0.1,0.2,0.8,0.9,3.7,1.2c3,0.3,17.8,1.4,17.9,1.4c0.1,0,0.1,0,0.2,0c0.7,0,1.9-0.4,2.1-1.8c0.1-0.5,0.1-1.1,0.2-1.7h3
			c0,0.7,0,1.2,0,1.3c0,0.7,0.5,1.4,1.5,1.4c0.9,0,3.9-0.8,4.5-1.3c0.5-0.5,0.6-1.5,0.6-2.5l0-0.4C211.7,69.1,211.8,67.7,210.6,67z
			 M201,73.2c-0.2,1.1-1.3,1.1-1.4,1.1c-0.1,0-15-1.1-17.9-1.4c-2.2-0.2-2.9-0.7-3.1-0.8c-0.1-0.4-0.7-2.4-1-3.7
			c-0.2-1.1,0.9-1.5,0.9-1.5l20.4-0.7l0,0c0.8-0.1,1.4,0.1,1.8,0.4c0.2,0.2,0.4,0.5,0.4,0.8C201.2,68.7,201.3,71.8,201,73.2z
			 M202.1,70.8c0-0.4,0-0.9,0-1.3h2.9c0,0.4,0,0.9,0,1.3H202.1z M210.8,70.1l0,0.4c0,0.7-0.1,1.7-0.3,1.9c-0.3,0.3-3.1,1.1-3.9,1.1
			c-0.6,0-0.6-0.4-0.6-0.6c0-0.3-0.1-5.1-0.1-5.7c0.1-0.6,1.1-0.7,1.2-0.8c0.4-0.1,2.5,0.8,3.2,1.2C210.9,68.1,210.9,69,210.8,70.1z
			"/>
		<path class="st0" d="M210.6,82.8c-0.5-0.3-3-1.4-3.7-1.3c-0.8,0.1-1.8,0.6-1.9,1.5l0,0l0,0c0,0.4,0,0.9,0,1.4h-2.9
			c0-0.5,0-1-0.1-1.3c0-0.6-0.3-1-0.7-1.4c-0.6-0.5-1.5-0.7-2.5-0.6l-20.4,0.7c-0.7,0.2-1.9,0.9-1.6,2.5c0.3,1.6,1,3.8,1.1,4
			c0.1,0.2,0.8,0.9,3.7,1.2c3,0.3,17.8,1.4,17.9,1.4c0.1,0,0.1,0,0.2,0c0.7,0,1.9-0.4,2.1-1.8c0.1-0.5,0.1-1.1,0.2-1.7h3
			c0,0.7,0,1.2,0,1.3c0,0.7,0.5,1.4,1.5,1.4c0.9,0,3.9-0.8,4.5-1.3c0.5-0.5,0.6-1.5,0.6-2.5l0-0.4C211.7,84.9,211.8,83.5,210.6,82.8
			z M201,89c-0.2,1.1-1.3,1.1-1.4,1.1c-0.1,0-15-1.1-17.9-1.4c-2.2-0.2-2.9-0.7-3.1-0.8c-0.1-0.4-0.7-2.4-1-3.7
			c-0.2-1.1,0.9-1.5,0.9-1.5l20.4-0.7l0,0c0.8-0.1,1.4,0.1,1.8,0.4c0.2,0.2,0.4,0.5,0.4,0.8C201.2,84.5,201.3,87.6,201,89z
			 M202.1,86.6c0-0.4,0-0.9,0-1.3h2.9c0,0.4,0,0.9,0,1.3H202.1z M210.8,85.9l0,0.4c0,0.7-0.1,1.7-0.3,1.9c-0.3,0.3-3.1,1.1-3.9,1.1
			c-0.6,0-0.6-0.4-0.6-0.6c0-0.3-0.1-5.1-0.1-5.7c0.1-0.6,1.1-0.7,1.2-0.8c0.4-0.1,2.5,0.8,3.2,1.2
			C210.9,83.9,210.9,84.8,210.8,85.9z"/>
		<path class="st0" d="M210.6,98.6c-0.5-0.3-3-1.4-3.7-1.3c-0.8,0.1-1.8,0.6-1.9,1.5l0,0l0,0c0,0.4,0,0.9,0,1.4h-2.9
			c0-0.5,0-1-0.1-1.3c0-0.6-0.3-1-0.7-1.4c-0.6-0.5-1.5-0.7-2.5-0.6l-20.4,0.7c-0.7,0.2-1.9,0.9-1.6,2.5c0.3,1.6,1,3.8,1.1,4
			c0.1,0.2,0.8,0.9,3.7,1.2c3,0.3,17.8,1.4,17.9,1.4c0.1,0,0.1,0,0.2,0c0.7,0,1.9-0.4,2.1-1.8c0.1-0.5,0.1-1.1,0.2-1.7h3
			c0,0.7,0,1.2,0,1.3c0,0.7,0.5,1.4,1.5,1.4c0.9,0,3.9-0.8,4.5-1.3c0.5-0.5,0.6-1.5,0.6-2.5l0-0.4
			C211.7,100.7,211.8,99.3,210.6,98.6z M201,104.8c-0.2,1.1-1.3,1.1-1.4,1.1c-0.1,0-15-1.1-17.9-1.4c-2.2-0.2-2.9-0.7-3.1-0.8
			c-0.1-0.4-0.7-2.4-1-3.7c-0.2-1.1,0.9-1.5,0.9-1.5l20.4-0.7l0,0c0.8-0.1,1.4,0.1,1.8,0.4c0.2,0.2,0.4,0.5,0.4,0.8
			C201.2,100.3,201.3,103.4,201,104.8z M202.1,102.4c0-0.4,0-0.9,0-1.3h2.9c0,0.4,0,0.9,0,1.3H202.1z M210.8,101.8l0,0.4
			c0,0.7-0.1,1.7-0.3,1.9c-0.3,0.3-3.1,1.1-3.9,1.1c-0.6,0-0.6-0.4-0.6-0.6c0-0.3-0.1-5.1-0.1-5.7c0.1-0.6,1.1-0.7,1.2-0.8
			c0.4-0.1,2.5,0.8,3.2,1.2C210.9,99.7,210.9,100.6,210.8,101.8z"/>
		<path class="st0" d="M210.6,114.4c-0.5-0.3-3-1.4-3.7-1.3c-0.8,0.1-1.8,0.6-1.9,1.5l0,0l0,0c0,0.4,0,0.9,0,1.4h-2.9
			c0-0.5,0-1-0.1-1.3c0-0.6-0.3-1-0.7-1.4c-0.6-0.5-1.5-0.7-2.5-0.6l-20.4,0.7c-0.7,0.2-1.9,0.9-1.6,2.5c0.3,1.6,1,3.8,1.1,4
			c0.1,0.2,0.8,0.9,3.7,1.2c3,0.3,17.8,1.4,17.9,1.4c0.1,0,0.1,0,0.2,0c0.7,0,1.9-0.4,2.1-1.8c0.1-0.5,0.1-1.1,0.2-1.7h3
			c0,0.7,0,1.2,0,1.3c0,0.7,0.5,1.4,1.5,1.4c0.9,0,3.9-0.8,4.5-1.3c0.5-0.5,0.6-1.5,0.6-2.5l0-0.4
			C211.7,116.6,211.8,115.1,210.6,114.4z M201,120.6c-0.2,1.1-1.3,1.1-1.4,1.1c-0.1,0-15-1.1-17.9-1.4c-2.2-0.2-2.9-0.7-3.1-0.8
			c-0.1-0.4-0.7-2.4-1-3.7c-0.2-1.1,0.9-1.5,0.9-1.5l20.4-0.7l0,0c0.8-0.1,1.4,0.1,1.8,0.4c0.2,0.2,0.4,0.5,0.4,0.8
			C201.2,116.1,201.3,119.2,201,120.6z M202.1,118.2c0-0.4,0-0.9,0-1.3h2.9c0,0.4,0,0.9,0,1.3H202.1z M210.8,117.6l0,0.4
			c0,0.7-0.1,1.7-0.3,1.9c-0.3,0.3-3.1,1.1-3.9,1.1c-0.6,0-0.6-0.4-0.6-0.6c0-0.3-0.1-5.1-0.1-5.7c0.1-0.6,1.1-0.7,1.2-0.8
			c0.4-0.1,2.5,0.8,3.2,1.2C210.9,115.6,210.9,116.4,210.8,117.6z"/>
		<path class="st0" d="M210.6,130.2c-0.5-0.3-3-1.4-3.7-1.3c-0.8,0.1-1.8,0.6-1.9,1.5l0,0l0,0c0,0.4,0,0.9,0,1.4h-2.9
			c0-0.5,0-1-0.1-1.3c0-0.6-0.3-1-0.7-1.4c-0.6-0.5-1.5-0.7-2.5-0.6l-20.4,0.7c-0.7,0.2-1.9,0.9-1.6,2.5c0.3,1.6,1,3.8,1.1,4
			c0.1,0.2,0.8,0.9,3.7,1.2c3,0.3,17.8,1.4,17.9,1.4c0.1,0,0.1,0,0.2,0c0.7,0,1.9-0.4,2.1-1.8c0.1-0.5,0.1-1.1,0.2-1.7h3
			c0,0.7,0,1.2,0,1.3c0,0.7,0.5,1.4,1.5,1.4c0.9,0,3.9-0.8,4.5-1.3c0.5-0.5,0.6-1.5,0.6-2.5l0-0.4
			C211.7,132.4,211.8,130.9,210.6,130.2z M201,136.5c-0.2,1.1-1.3,1.1-1.4,1.1c-0.1,0-15-1.1-17.9-1.4c-2.2-0.2-2.9-0.7-3.1-0.8
			c-0.1-0.4-0.7-2.4-1-3.7c-0.2-1.1,0.9-1.5,0.9-1.5l20.4-0.7l0,0c0.8-0.1,1.4,0.1,1.8,0.4c0.2,0.2,0.4,0.5,0.4,0.8
			C201.2,132,201.3,135,201,136.5z M202.1,134c0-0.4,0-0.9,0-1.3h2.9c0,0.4,0,0.9,0,1.3H202.1z M210.8,133.4l0,0.4
			c0,0.7-0.1,1.7-0.3,1.9c-0.3,0.3-3.1,1.1-3.9,1.1c-0.6,0-0.6-0.4-0.6-0.6c0-0.3-0.1-5.1-0.1-5.7c0.1-0.6,1.1-0.7,1.2-0.8
			c0.4-0.1,2.5,0.8,3.2,1.2C210.9,131.4,210.9,132.2,210.8,133.4z"/>
		<path class="st0" d="M210.6,146c-0.5-0.3-3-1.4-3.7-1.3c-0.8,0.1-1.8,0.6-1.9,1.5l0,0l0,0c0,0.4,0,0.9,0,1.4h-2.9
			c0-0.5,0-1-0.1-1.3c0-0.6-0.3-1-0.7-1.4c-0.6-0.5-1.5-0.7-2.5-0.6l-20.4,0.7c-0.7,0.2-1.9,0.9-1.6,2.5c0.3,1.6,1,3.8,1.1,4
			c0.1,0.2,0.8,0.9,3.7,1.2c3,0.3,17.8,1.4,17.9,1.4c0.1,0,0.1,0,0.2,0c0.7,0,1.9-0.4,2.1-1.8c0.1-0.5,0.1-1.1,0.2-1.7h3
			c0,0.7,0,1.2,0,1.3c0,0.7,0.5,1.4,1.5,1.4c0.9,0,3.9-0.8,4.5-1.3c0.5-0.5,0.6-1.5,0.6-2.5l0-0.4
			C211.7,148.2,211.8,146.7,210.6,146z M201,152.3c-0.2,1.1-1.3,1.1-1.4,1.1c-0.1,0-15-1.1-17.9-1.4c-2.2-0.2-2.9-0.7-3.1-0.8
			c-0.1-0.4-0.7-2.4-1-3.7c-0.2-1.1,0.9-1.5,0.9-1.5l20.4-0.7l0,0c0.8-0.1,1.4,0.1,1.8,0.4c0.2,0.2,0.4,0.5,0.4,0.8
			C201.2,147.8,201.3,150.8,201,152.3z M202.1,149.8c0-0.4,0-0.9,0-1.3h2.9c0,0.4,0,0.9,0,1.3H202.1z M210.8,149.2l0,0.4
			c0,0.7-0.1,1.7-0.3,1.9c-0.3,0.3-3.1,1.1-3.9,1.1c-0.6,0-0.6-0.4-0.6-0.6c0-0.3-0.1-5.1-0.1-5.7c0.1-0.6,1.1-0.7,1.2-0.8
			c0.4-0.1,2.5,0.8,3.2,1.2C210.9,147.2,210.9,148,210.8,149.2z"/>
		<path class="st0" d="M210.6,161.8c-0.5-0.3-3-1.4-3.7-1.3c-0.8,0.1-1.8,0.6-1.9,1.5l0,0l0,0c0,0.4,0,0.9,0,1.4h-2.9
			c0-0.5,0-1-0.1-1.3c0-0.6-0.3-1-0.7-1.4c-0.6-0.5-1.5-0.7-2.5-0.6l-20.4,0.7c-0.7,0.2-1.9,0.9-1.6,2.5c0.3,1.6,1,3.8,1.1,4
			c0.1,0.2,0.8,0.9,3.7,1.2c3,0.3,17.8,1.4,17.9,1.4c0.1,0,0.1,0,0.2,0c0.7,0,1.9-0.4,2.1-1.8c0.1-0.5,0.1-1.1,0.2-1.7h3
			c0,0.7,0,1.2,0,1.3c0,0.7,0.5,1.4,1.5,1.4c0.9,0,3.9-0.8,4.5-1.3c0.5-0.5,0.6-1.5,0.6-2.5l0-0.4
			C211.7,164,211.8,162.5,210.6,161.8z M201,168.1c-0.2,1.1-1.3,1.1-1.4,1.1c-0.1,0-15-1.1-17.9-1.4c-2.2-0.2-2.9-0.7-3.1-0.8
			c-0.1-0.4-0.7-2.4-1-3.7c-0.2-1.1,0.9-1.5,0.9-1.5l20.4-0.7l0,0c0.8-0.1,1.4,0.1,1.8,0.4c0.2,0.2,0.4,0.5,0.4,0.8
			C201.2,163.6,201.3,166.6,201,168.1z M202.1,165.7c0-0.4,0-0.9,0-1.3h2.9c0,0.4,0,0.9,0,1.3H202.1z M210.8,165l0,0.4
			c0,0.7-0.1,1.7-0.3,1.9c-0.3,0.3-3.1,1.1-3.9,1.1c-0.6,0-0.6-0.4-0.6-0.6c0-0.3-0.1-5.1-0.1-5.7c0.1-0.6,1.1-0.7,1.2-0.8
			c0,0,0,0,0,0c0.4,0,2.5,0.8,3.1,1.2C210.9,163,210.9,163.8,210.8,165z"/>
		<path class="st0" d="M210.6,177.6c-0.5-0.3-3-1.4-3.7-1.3c-0.8,0.1-1.8,0.6-1.9,1.5l0,0l0,0c0,0.4,0,0.9,0,1.4h-2.9
			c0-0.5,0-1-0.1-1.3c0-0.6-0.3-1-0.7-1.4c-0.6-0.5-1.5-0.7-2.5-0.6l-20.4,0.7c-0.7,0.2-1.9,0.9-1.6,2.5c0.3,1.6,1,3.8,1.1,4
			c0.1,0.2,0.8,0.9,3.7,1.2c3,0.3,17.8,1.4,17.9,1.4c0.1,0,0.1,0,0.2,0c0.7,0,1.9-0.4,2.1-1.8c0.1-0.5,0.1-1.1,0.2-1.7h3
			c0,0.7,0,1.2,0,1.3c0,0.7,0.5,1.4,1.5,1.4c0.9,0,3.9-0.8,4.5-1.3c0.5-0.5,0.6-1.5,0.6-2.5l0-0.4
			C211.7,179.8,211.8,178.3,210.6,177.6z M201,183.9c-0.2,1.1-1.3,1.1-1.4,1.1c-0.1,0-15-1.1-17.9-1.4c-2.2-0.2-2.9-0.7-3.1-0.8
			c-0.1-0.4-0.7-2.4-1-3.7c-0.2-1.1,0.9-1.5,0.9-1.5l20.4-0.7l0,0c0.8-0.1,1.4,0.1,1.8,0.4c0.2,0.2,0.4,0.5,0.4,0.8
			C201.2,179.4,201.3,182.4,201,183.9z M202.1,181.5c0-0.4,0-0.9,0-1.3h2.9c0,0.4,0,0.9,0,1.3H202.1z M210.8,180.8l0,0.4
			c0,0.7-0.1,1.7-0.3,1.9c-0.3,0.3-3.1,1.1-3.9,1.1c-0.6,0-0.6-0.4-0.6-0.6c0-0.3-0.1-5.1-0.1-5.7c0.1-0.6,1.1-0.7,1.2-0.8
			c0,0,0,0,0,0c0.4,0,2.5,0.8,3.1,1.2C210.9,178.8,210.9,179.6,210.8,180.8z"/>
		<path class="st0" d="M210.6,193.4c-0.5-0.3-3-1.4-3.7-1.3c-0.8,0.1-1.8,0.6-1.9,1.5l0,0l0,0c0,0.4,0,0.9,0,1.4h-2.9
			c0-0.5,0-1-0.1-1.3c0-0.6-0.3-1-0.7-1.4c-0.6-0.5-1.5-0.7-2.5-0.6l-20.4,0.7c-0.7,0.2-1.9,0.9-1.6,2.5c0.3,1.6,1,3.8,1.1,4
			c0.1,0.2,0.8,0.9,3.7,1.2c3,0.3,17.8,1.4,17.9,1.4c0.1,0,0.1,0,0.2,0c0.7,0,1.9-0.4,2.1-1.8c0.1-0.5,0.1-1.1,0.2-1.7h3
			c0,0.7,0,1.2,0,1.3c0,0.7,0.5,1.4,1.5,1.4c0.9,0,3.9-0.8,4.5-1.3c0.5-0.5,0.6-1.5,0.6-2.5l0-0.4
			C211.7,195.6,211.8,194.2,210.6,193.4z M201,199.7c-0.2,1.1-1.3,1.1-1.4,1.1c-0.1,0-15-1.1-17.9-1.4c-2.2-0.2-2.9-0.7-3.1-0.8
			c-0.1-0.4-0.7-2.4-1-3.7c-0.2-1.1,0.9-1.5,0.9-1.5l20.4-0.7l0,0c0.8-0.1,1.4,0.1,1.8,0.4c0.2,0.2,0.4,0.5,0.4,0.8
			C201.2,195.2,201.3,198.2,201,199.7z M202.1,197.3c0-0.4,0-0.9,0-1.3h2.9c0,0.4,0,0.9,0,1.3H202.1z M210.8,196.6l0,0.4
			c0,0.7-0.1,1.7-0.3,1.9c-0.3,0.3-3.1,1.1-3.9,1.1c-0.6,0-0.6-0.4-0.6-0.6c0-0.3-0.1-5.1-0.1-5.7c0.1-0.6,1.1-0.7,1.2-0.8
			c0,0,0,0,0,0c0.4,0,2.5,0.8,3.1,1.2C210.9,194.6,210.9,195.5,210.8,196.6z"/>
		<path class="st0" d="M210.6,209.2c-0.5-0.3-3-1.4-3.7-1.3c-0.8,0.1-1.8,0.6-1.9,1.5l0,0l0,0c0,0.4,0,0.9,0,1.4h-2.9
			c0-0.5,0-1-0.1-1.3c0-0.6-0.3-1-0.7-1.4c-0.6-0.5-1.5-0.7-2.5-0.6l-20.4,0.7c-0.7,0.2-1.9,0.9-1.6,2.5c0.3,1.6,1,3.8,1.1,4
			c0.1,0.2,0.8,0.9,3.7,1.2c3,0.3,17.8,1.4,17.9,1.4c0.1,0,0.1,0,0.2,0c0.7,0,1.9-0.4,2.1-1.8c0.1-0.5,0.1-1.1,0.2-1.7h3
			c0,0.7,0,1.2,0,1.3c0,0.7,0.5,1.4,1.5,1.4c0.9,0,3.9-0.8,4.5-1.3c0.5-0.5,0.6-1.5,0.6-2.5l0-0.4
			C211.7,211.4,211.8,210,210.6,209.2z M201,215.5c-0.2,1.1-1.3,1.1-1.4,1.1c-0.1,0-15-1.1-17.9-1.4c-2.2-0.2-2.9-0.7-3.1-0.8
			c-0.1-0.4-0.7-2.4-1-3.7c-0.2-1.1,0.9-1.5,0.9-1.5l20.4-0.7l0,0c0.8-0.1,1.4,0.1,1.8,0.4c0.2,0.2,0.4,0.5,0.4,0.8
			C201.2,211,201.3,214.1,201,215.5z M202.1,213.1c0-0.4,0-0.9,0-1.3h2.9c0,0.4,0,0.9,0,1.3H202.1z M210.8,212.4l0,0.4
			c0,0.7-0.1,1.7-0.3,1.9c-0.3,0.3-3.1,1.1-3.9,1.1c-0.6,0-0.6-0.4-0.6-0.6c0-0.3-0.1-5.1-0.1-5.7c0.1-0.6,1.1-0.7,1.2-0.8
			c0,0,0,0,0,0c0.4,0,2.5,0.8,3.1,1.2C210.9,210.4,210.9,211.3,210.8,212.4z"/>
		<path class="st0" d="M210.6,225c-0.5-0.3-3-1.4-3.7-1.3c-0.8,0.1-1.8,0.6-1.9,1.5l0,0l0,0c0,0.4,0,0.9,0,1.4h-2.9
			c0-0.5,0-1-0.1-1.3c0-0.6-0.3-1-0.7-1.4c-0.6-0.5-1.5-0.7-2.5-0.6l-20.4,0.7c-0.7,0.2-1.9,0.9-1.6,2.5c0.3,1.6,1,3.8,1.1,4
			c0.1,0.2,0.8,0.9,3.7,1.2c3,0.3,17.8,1.4,17.9,1.4c0.1,0,0.1,0,0.2,0c0.7,0,1.9-0.4,2.1-1.8c0.1-0.5,0.1-1.1,0.2-1.7h3
			c0,0.7,0,1.2,0,1.3c0,0.7,0.5,1.4,1.5,1.4c0.9,0,3.9-0.8,4.5-1.3c0.5-0.5,0.6-1.5,0.6-2.5l0-0.4
			C211.7,227.2,211.8,225.8,210.6,225z M201,231.3c-0.2,1.1-1.3,1.1-1.4,1.1c-0.1,0-15-1.1-17.9-1.4c-2.2-0.2-2.9-0.7-3.1-0.8
			c-0.1-0.4-0.7-2.4-1-3.7c-0.2-1.1,0.9-1.5,0.9-1.5l20.4-0.7l0,0c0.8-0.1,1.4,0.1,1.8,0.4c0.2,0.2,0.4,0.5,0.4,0.8
			C201.2,226.8,201.3,229.9,201,231.3z M202.1,228.9c0-0.4,0-0.9,0-1.3h2.9c0,0.4,0,0.9,0,1.3H202.1z M210.8,228.2l0,0.4
			c0,0.7-0.1,1.7-0.3,1.9c-0.3,0.3-3.1,1.1-3.9,1.1c-0.6,0-0.6-0.4-0.6-0.6c0-0.3-0.1-5.1-0.1-5.7c0.1-0.6,1.1-0.7,1.2-0.8
			c0,0,0,0,0,0c0.4,0,2.5,0.8,3.1,1.2C210.9,226.2,210.9,227.1,210.8,228.2z"/>
		<path class="st0" d="M210.6,240.9c-0.5-0.3-3-1.4-3.7-1.3c-0.8,0.1-1.8,0.6-1.9,1.5l0,0l0,0c0,0.4,0,0.9,0,1.4h-2.9
			c0-0.5,0-1-0.1-1.3c0-0.6-0.3-1-0.7-1.4c-0.6-0.5-1.5-0.7-2.5-0.6l-20.4,0.7c-0.7,0.2-1.9,0.9-1.6,2.5c0.3,1.6,1,3.8,1.1,4
			c0.1,0.2,0.8,0.9,3.7,1.2c3,0.3,17.8,1.4,17.9,1.4c0.1,0,0.1,0,0.2,0c0.7,0,1.9-0.4,2.1-1.8c0.1-0.5,0.1-1.1,0.2-1.7h3
			c0,0.7,0,1.2,0,1.3c0,0.7,0.5,1.4,1.5,1.4c0.9,0,3.9-0.8,4.5-1.3c0.5-0.5,0.6-1.5,0.6-2.5l0-0.4
			C211.7,243,211.8,241.6,210.6,240.9z M201,247.1c-0.2,1.1-1.3,1.1-1.4,1.1c-0.1,0-15-1.1-17.9-1.4c-2.2-0.2-2.9-0.7-3.1-0.8
			c-0.1-0.4-0.7-2.4-1-3.7c-0.2-1.1,0.9-1.5,0.9-1.5l20.4-0.7l0,0c0.8-0.1,1.4,0.1,1.8,0.4c0.2,0.2,0.4,0.5,0.4,0.8
			C201.2,242.6,201.3,245.7,201,247.1z M202.1,244.7c0-0.4,0-0.9,0-1.3h2.9c0,0.4,0,0.9,0,1.3H202.1z M210.8,244l0,0.4
			c0,0.7-0.1,1.7-0.3,1.9c-0.3,0.3-3.1,1.1-3.9,1.1c-0.6,0-0.6-0.4-0.6-0.6c0-0.3-0.1-5.1-0.1-5.7c0.1-0.6,1.1-0.7,1.2-0.8
			c0,0,0,0,0,0c0.4,0,2.5,0.8,3.1,1.2C210.9,242,210.9,242.9,210.8,244z"/>
		<path class="st0" d="M210.6,256.7c-0.5-0.3-3-1.4-3.7-1.3c-0.8,0.1-1.8,0.6-1.9,1.5l0,0l0,0c0,0.4,0,0.9,0,1.4h-2.9
			c0-0.5,0-1-0.1-1.3c0-0.6-0.3-1-0.7-1.4c-0.6-0.5-1.5-0.7-2.5-0.6l-20.4,0.7c-0.7,0.2-1.9,0.9-1.6,2.5c0.3,1.6,1,3.8,1.1,4
			c0.1,0.2,0.8,0.9,3.7,1.2c3,0.3,17.8,1.4,17.9,1.4c0.1,0,0.1,0,0.2,0c0.7,0,1.9-0.4,2.1-1.8c0.1-0.5,0.1-1.1,0.2-1.7h3
			c0,0.7,0,1.2,0,1.3c0,0.7,0.5,1.4,1.5,1.4c0.9,0,3.9-0.8,4.5-1.3c0.5-0.5,0.6-1.5,0.6-2.5l0-0.4
			C211.7,258.8,211.8,257.4,210.6,256.7z M201,262.9c-0.2,1.1-1.3,1.1-1.4,1.1c-0.1,0-15-1.1-17.9-1.4c-2.2-0.2-2.9-0.7-3.1-0.8
			c-0.1-0.4-0.7-2.4-1-3.7c-0.2-1.1,0.9-1.5,0.9-1.5l20.4-0.7l0,0c0.8-0.1,1.4,0.1,1.8,0.4c0.2,0.2,0.4,0.5,0.4,0.8
			C201.2,258.4,201.3,261.5,201,262.9z M202.1,260.5c0-0.4,0-0.9,0-1.3h2.9c0,0.4,0,0.9,0,1.3H202.1z M210.8,259.8l0,0.4
			c0,0.7-0.1,1.7-0.3,1.9c-0.3,0.3-3.1,1.1-3.9,1.1c-0.6,0-0.6-0.4-0.6-0.6c0-0.3-0.1-5.1-0.1-5.7c0.1-0.6,1.1-0.7,1.2-0.8
			c0,0,0,0,0,0c0.4,0,2.5,0.8,3.1,1.2C210.9,257.8,210.9,258.7,210.8,259.8z"/>
		<path class="st0" d="M210.6,272.5c-0.5-0.3-3-1.4-3.7-1.3c-0.8,0.1-1.8,0.6-1.9,1.5l0,0l0,0c0,0.4,0,0.9,0,1.4h-2.9
			c0-0.5,0-1-0.1-1.3c0-0.6-0.3-1-0.7-1.4c-0.6-0.5-1.5-0.7-2.5-0.6l-20.4,0.7c-0.7,0.2-1.9,0.9-1.6,2.5c0.3,1.6,1,3.8,1.1,4
			c0.1,0.2,0.8,0.9,3.7,1.2c3,0.3,17.8,1.4,17.9,1.4c0.1,0,0.1,0,0.2,0c0.7,0,1.9-0.4,2.1-1.8c0.1-0.5,0.1-1.1,0.2-1.7h3
			c0,0.7,0,1.2,0,1.3c0,0.7,0.5,1.4,1.5,1.4c0.9,0,3.9-0.8,4.5-1.3c0.5-0.5,0.6-1.5,0.6-2.5l0-0.4
			C211.7,274.6,211.8,273.2,210.6,272.5z M201,278.7c-0.2,1.1-1.3,1.1-1.4,1.1c-0.1,0-15-1.1-17.9-1.4c-2.2-0.2-2.9-0.7-3.1-0.8
			c-0.1-0.4-0.7-2.4-1-3.7c-0.2-1.1,0.9-1.5,0.9-1.5l20.4-0.7l0,0c0.8-0.1,1.4,0.1,1.8,0.4c0.2,0.2,0.4,0.5,0.4,0.8
			C201.2,274.2,201.3,277.3,201,278.7z M202.1,276.3c0-0.4,0-0.9,0-1.3h2.9c0,0.4,0,0.9,0,1.3H202.1z M210.8,275.7l0,0.4
			c0,0.7-0.1,1.7-0.3,1.9c-0.3,0.3-3.1,1.1-3.9,1.1c-0.6,0-0.6-0.4-0.6-0.6c0-0.3-0.1-5.1-0.1-5.7c0.1-0.6,1.1-0.7,1.2-0.8
			c0,0,0,0,0,0c0.4,0,2.5,0.8,3.1,1.2C210.9,273.6,210.9,274.5,210.8,275.7z"/>
		<path class="st0" d="M210.6,288.3c-0.5-0.3-3-1.4-3.7-1.3c-0.8,0.1-1.8,0.6-1.9,1.5l0,0l0,0c0,0.4,0,0.9,0,1.4h-2.9
			c0-0.5,0-1-0.1-1.3c0-0.6-0.3-1-0.7-1.4c-0.6-0.5-1.5-0.7-2.5-0.6l-20.4,0.7c-0.7,0.2-1.9,0.9-1.6,2.5c0.3,1.6,1,3.8,1.1,4
			c0.1,0.2,0.8,0.9,3.7,1.2c3,0.3,17.8,1.4,17.9,1.4c0.1,0,0.1,0,0.2,0c0.7,0,1.9-0.4,2.1-1.8c0.1-0.5,0.1-1.1,0.2-1.7h3
			c0,0.7,0,1.2,0,1.3c0,0.7,0.5,1.4,1.5,1.4c0.9,0,3.9-0.8,4.5-1.3c0.5-0.5,0.6-1.5,0.6-2.5l0-0.4
			C211.7,290.4,211.8,289,210.6,288.3z M201,294.5c-0.2,1.1-1.3,1.1-1.4,1.1c-0.1,0-15-1.1-17.9-1.4c-2.2-0.2-2.9-0.7-3.1-0.8
			c-0.1-0.4-0.7-2.4-1-3.7c-0.2-1.1,0.9-1.5,0.9-1.5l20.4-0.7l0,0c0.8-0.1,1.4,0.1,1.8,0.4c0.2,0.2,0.4,0.5,0.4,0.8
			C201.2,290,201.3,293.1,201,294.5z M202.1,292.1c0-0.4,0-0.9,0-1.3h2.9c0,0.4,0,0.9,0,1.3H202.1z M210.8,291.5l0,0.4
			c0,0.7-0.1,1.7-0.3,1.9c-0.3,0.3-3.1,1.1-3.9,1.1c-0.6,0-0.6-0.4-0.6-0.6c0-0.3-0.1-5.1-0.1-5.7c0.1-0.6,1.1-0.7,1.2-0.8
			c0,0,0,0,0,0c0.4,0,2.5,0.8,3.1,1.2C210.9,289.4,210.9,290.3,210.8,291.5z"/>
		<path class="st0" d="M210.6,304.1c-0.5-0.3-3-1.4-3.7-1.3c-0.8,0.1-1.8,0.6-1.9,1.5l0,0l0,0c0,0.4,0,0.9,0,1.4h-2.9
			c0-0.5,0-1-0.1-1.3c0-0.6-0.3-1-0.7-1.4c-0.6-0.5-1.5-0.7-2.5-0.6l-20.4,0.7c-0.7,0.2-1.9,0.9-1.6,2.5c0.3,1.6,1,3.8,1.1,4
			c0.1,0.2,0.8,0.9,3.7,1.2c3,0.3,17.8,1.4,17.9,1.4c0.1,0,0.1,0,0.2,0c0.7,0,1.9-0.4,2.1-1.8c0.1-0.5,0.1-1.1,0.2-1.7h3
			c0,0.7,0,1.2,0,1.3c0,0.7,0.5,1.4,1.5,1.4c0.9,0,3.9-0.8,4.5-1.3c0.5-0.5,0.6-1.5,0.6-2.5l0-0.4
			C211.7,306.3,211.8,304.8,210.6,304.1z M201,310.3c-0.2,1.1-1.3,1.1-1.4,1.1c-0.1,0-15-1.1-17.9-1.4c-2.2-0.2-2.9-0.7-3.1-0.8
			c-0.1-0.4-0.7-2.4-1-3.7c-0.2-1.1,0.9-1.5,0.9-1.5l20.4-0.7l0,0c0.8-0.1,1.4,0.1,1.8,0.4c0.2,0.2,0.4,0.5,0.4,0.8
			C201.2,305.9,201.3,308.9,201,310.3z M202.1,307.9c0-0.4,0-0.9,0-1.3h2.9c0,0.4,0,0.9,0,1.3H202.1z M210.8,307.3l0,0.4
			c0,0.7-0.1,1.7-0.3,1.9c-0.3,0.3-3.1,1.1-3.9,1.1c-0.6,0-0.6-0.4-0.6-0.6c0-0.3-0.1-5.1-0.1-5.7c0.1-0.6,1.1-0.7,1.2-0.8
			c0,0,0,0,0,0c0.4,0,2.5,0.8,3.1,1.2C210.9,305.3,210.9,306.1,210.8,307.3z"/>
		<path class="st0" d="M210.6,319.9c-0.5-0.3-3-1.4-3.7-1.3c-0.8,0.1-1.8,0.6-1.9,1.5l0,0l0,0c0,0.4,0,0.9,0,1.4h-2.9
			c0-0.5,0-1-0.1-1.3c0-0.6-0.3-1-0.7-1.4c-0.6-0.5-1.5-0.7-2.5-0.6l-20.4,0.7c-0.7,0.2-1.9,0.9-1.6,2.5c0.3,1.6,1,3.8,1.1,4
			c0.1,0.2,0.8,0.9,3.7,1.2c3,0.3,17.8,1.4,17.9,1.4c0.1,0,0.1,0,0.2,0c0.7,0,1.9-0.4,2.1-1.8c0.1-0.5,0.1-1.1,0.2-1.7h3
			c0,0.7,0,1.2,0,1.3c0,0.7,0.5,1.4,1.5,1.4c0.9,0,3.9-0.8,4.5-1.3c0.5-0.5,0.6-1.5,0.6-2.5l0-0.4
			C211.7,322.1,211.8,320.6,210.6,319.9z M201,326.2c-0.2,1.1-1.3,1.1-1.4,1.1c-0.1,0-15-1.1-17.9-1.4c-2.2-0.2-2.9-0.7-3.1-0.8
			c-0.1-0.4-0.7-2.4-1-3.7c-0.2-1.1,0.9-1.5,0.9-1.5l20.4-0.7l0,0c0.8-0.1,1.4,0.1,1.8,0.4c0.2,0.2,0.4,0.5,0.4,0.8
			C201.2,321.7,201.3,324.7,201,326.2z M202.1,323.7c0-0.4,0-0.9,0-1.3h2.9c0,0.4,0,0.9,0,1.3H202.1z M210.8,323.1l0,0.4
			c0,0.7-0.1,1.7-0.3,1.9c-0.3,0.3-3.1,1.1-3.9,1.1c-0.6,0-0.6-0.4-0.6-0.6c0-0.3-0.1-5.1-0.1-5.7c0.1-0.6,1.1-0.7,1.2-0.8
			c0,0,0,0,0,0c0.4,0,2.5,0.8,3.1,1.2C210.9,321.1,210.9,321.9,210.8,323.1z"/>
		<rect x="367.2" y="46.2" class="st0" width="1.7" height="0.4"/>
		<rect x="391.8" y="46.2" class="st0" width="3.5" height="0.4"/>
		<rect x="370.6" y="46.2" class="st0" width="3.5" height="0.4"/>
		<rect x="386.5" y="46.2" class="st0" width="3.5" height="0.4"/>
		<rect x="402.4" y="46.2" class="st0" width="3.5" height="0.4"/>
		<rect x="413" y="46.2" class="st0" width="3.5" height="0.4"/>
		<rect x="397.1" y="46.2" class="st0" width="3.5" height="0.4"/>
		<rect x="423.6" y="46.2" class="st0" width="3.5" height="0.4"/>
		<rect x="418.3" y="46.2" class="st0" width="3.5" height="0.4"/>
		<rect x="381.2" y="46.2" class="st0" width="3.5" height="0.4"/>
		<rect x="407.7" y="46.2" class="st0" width="3.5" height="0.4"/>
		<rect x="375.9" y="46.2" class="st0" width="3.5" height="0.4"/>
		<rect x="428.9" y="46.2" class="st0" width="1.7" height="0.4"/>
		<rect x="367.2" y="62" class="st0" width="1.7" height="0.4"/>
		<rect x="386.5" y="62" class="st0" width="3.5" height="0.4"/>
		<rect x="391.8" y="62" class="st0" width="3.5" height="0.4"/>
		<rect x="413" y="62" class="st0" width="3.5" height="0.4"/>
		<rect x="418.3" y="62" class="st0" width="3.5" height="0.4"/>
		<rect x="423.6" y="62" class="st0" width="3.5" height="0.4"/>
		<rect x="381.2" y="62" class="st0" width="3.5" height="0.4"/>
		<rect x="375.9" y="62" class="st0" width="3.5" height="0.4"/>
		<rect x="407.7" y="62" class="st0" width="3.5" height="0.4"/>
		<rect x="370.6" y="62" class="st0" width="3.5" height="0.4"/>
		<rect x="397.1" y="62" class="st0" width="3.5" height="0.4"/>
		<rect x="402.4" y="62" class="st0" width="3.5" height="0.4"/>
		<rect x="428.9" y="62" class="st0" width="1.7" height="0.4"/>
		<rect x="367.2" y="77.7" class="st0" width="1.7" height="0.4"/>
		<rect x="375.9" y="77.7" class="st0" width="3.5" height="0.4"/>
		<rect x="370.6" y="77.7" class="st0" width="3.5" height="0.4"/>
		<rect x="407.7" y="77.7" class="st0" width="3.5" height="0.4"/>
		<rect x="381.2" y="77.7" class="st0" width="3.5" height="0.4"/>
		<rect x="391.8" y="77.7" class="st0" width="3.5" height="0.4"/>
		<rect x="413" y="77.7" class="st0" width="3.5" height="0.4"/>
		<rect x="418.3" y="77.7" class="st0" width="3.5" height="0.4"/>
		<rect x="423.6" y="77.7" class="st0" width="3.5" height="0.4"/>
		<rect x="402.4" y="77.7" class="st0" width="3.5" height="0.4"/>
		<rect x="397.1" y="77.7" class="st0" width="3.5" height="0.4"/>
		<rect x="386.5" y="77.7" class="st0" width="3.5" height="0.4"/>
		<rect x="428.9" y="77.7" class="st0" width="1.7" height="0.4"/>
		<rect x="367.2" y="94.5" class="st0" width="1.7" height="0.4"/>
		<rect x="370.6" y="94.5" class="st0" width="3.5" height="0.4"/>
		<rect x="375.9" y="94.5" class="st0" width="3.5" height="0.4"/>
		<rect x="423.6" y="94.5" class="st0" width="3.5" height="0.4"/>
		<rect x="413" y="94.5" class="st0" width="3.5" height="0.4"/>
		<rect x="397.1" y="94.5" class="st0" width="3.5" height="0.4"/>
		<rect x="407.7" y="94.5" class="st0" width="3.5" height="0.4"/>
		<rect x="391.8" y="94.5" class="st0" width="3.5" height="0.4"/>
		<rect x="402.4" y="94.5" class="st0" width="3.5" height="0.4"/>
		<rect x="381.2" y="94.5" class="st0" width="3.5" height="0.4"/>
		<rect x="418.3" y="94.5" class="st0" width="3.5" height="0.4"/>
		<rect x="386.5" y="94.5" class="st0" width="3.5" height="0.4"/>
		<rect x="428.9" y="94.5" class="st0" width="1.7" height="0.4"/>
		<rect x="367.2" y="110.5" class="st0" width="1.7" height="0.4"/>
		<rect x="375.9" y="110.5" class="st0" width="3.5" height="0.4"/>
		<rect x="407.7" y="110.5" class="st0" width="3.5" height="0.4"/>
		<rect x="370.6" y="110.5" class="st0" width="3.5" height="0.4"/>
		<rect x="413" y="110.5" class="st0" width="3.5" height="0.4"/>
		<rect x="418.3" y="110.5" class="st0" width="3.5" height="0.4"/>
		<rect x="391.8" y="110.5" class="st0" width="3.5" height="0.4"/>
		<rect x="397.1" y="110.5" class="st0" width="3.5" height="0.4"/>
		<rect x="423.6" y="110.5" class="st0" width="3.5" height="0.4"/>
		<rect x="386.5" y="110.5" class="st0" width="3.5" height="0.4"/>
		<rect x="381.2" y="110.5" class="st0" width="3.5" height="0.4"/>
		<rect x="402.4" y="110.5" class="st0" width="3.5" height="0.4"/>
		<rect x="428.9" y="110.5" class="st0" width="1.7" height="0.4"/>
		<rect x="367.2" y="127.5" class="st0" width="1.7" height="0.4"/>
		<rect x="418.3" y="127.5" class="st0" width="3.5" height="0.4"/>
		<rect x="407.7" y="127.5" class="st0" width="3.5" height="0.4"/>
		<rect x="391.8" y="127.5" class="st0" width="3.5" height="0.4"/>
		<rect x="423.6" y="127.5" class="st0" width="3.5" height="0.4"/>
		<rect x="413" y="127.5" class="st0" width="3.5" height="0.4"/>
		<rect x="386.5" y="127.5" class="st0" width="3.5" height="0.4"/>
		<rect x="370.6" y="127.5" class="st0" width="3.5" height="0.4"/>
		<rect x="397.1" y="127.5" class="st0" width="3.5" height="0.4"/>
		<rect x="375.9" y="127.5" class="st0" width="3.5" height="0.4"/>
		<rect x="381.2" y="127.5" class="st0" width="3.5" height="0.4"/>
		<rect x="402.4" y="127.5" class="st0" width="3.5" height="0.4"/>
		<rect x="428.9" y="127.5" class="st0" width="1.7" height="0.4"/>
		<rect x="367.2" y="143.9" class="st0" width="1.7" height="0.4"/>
		<rect x="402.4" y="143.9" class="st0" width="3.5" height="0.4"/>
		<rect x="370.6" y="143.9" class="st0" width="3.5" height="0.4"/>
		<rect x="413" y="143.9" class="st0" width="3.5" height="0.4"/>
		<rect x="381.2" y="143.9" class="st0" width="3.5" height="0.4"/>
		<rect x="375.9" y="143.9" class="st0" width="3.5" height="0.4"/>
		<rect x="397.1" y="143.9" class="st0" width="3.5" height="0.4"/>
		<rect x="386.5" y="143.9" class="st0" width="3.5" height="0.4"/>
		<rect x="391.8" y="143.9" class="st0" width="3.5" height="0.4"/>
		<rect x="407.7" y="143.9" class="st0" width="3.5" height="0.4"/>
		<rect x="423.6" y="143.9" class="st0" width="3.5" height="0.4"/>
		<rect x="418.3" y="143.9" class="st0" width="3.5" height="0.4"/>
		<rect x="428.9" y="143.9" class="st0" width="1.7" height="0.4"/>
		<rect x="367.2" y="160.6" class="st0" width="1.7" height="0.4"/>
		<rect x="375.9" y="160.6" class="st0" width="3.5" height="0.4"/>
		<rect x="391.8" y="160.6" class="st0" width="3.5" height="0.4"/>
		<rect x="397.1" y="160.6" class="st0" width="3.5" height="0.4"/>
		<rect x="370.6" y="160.6" class="st0" width="3.5" height="0.4"/>
		<rect x="381.2" y="160.6" class="st0" width="3.5" height="0.4"/>
		<rect x="423.6" y="160.6" class="st0" width="3.5" height="0.4"/>
		<rect x="386.5" y="160.6" class="st0" width="3.5" height="0.4"/>
		<rect x="418.3" y="160.6" class="st0" width="3.5" height="0.4"/>
		<rect x="407.7" y="160.6" class="st0" width="3.5" height="0.4"/>
		<rect x="413" y="160.6" class="st0" width="3.5" height="0.4"/>
		<rect x="402.4" y="160.6" class="st0" width="3.5" height="0.4"/>
		<rect x="428.9" y="160.6" class="st0" width="1.7" height="0.4"/>
		<rect x="367.2" y="174.9" class="st0" width="1.7" height="0.4"/>
		<rect x="418.3" y="174.9" class="st0" width="3.5" height="0.4"/>
		<rect x="413" y="174.9" class="st0" width="3.5" height="0.4"/>
		<rect x="386.5" y="174.9" class="st0" width="3.5" height="0.4"/>
		<rect x="402.4" y="174.9" class="st0" width="3.5" height="0.4"/>
		<rect x="407.7" y="174.9" class="st0" width="3.5" height="0.4"/>
		<rect x="397.1" y="174.9" class="st0" width="3.5" height="0.4"/>
		<rect x="423.6" y="174.9" class="st0" width="3.5" height="0.4"/>
		<rect x="381.2" y="174.9" class="st0" width="3.5" height="0.4"/>
		<rect x="391.8" y="174.9" class="st0" width="3.5" height="0.4"/>
		<rect x="375.9" y="174.9" class="st0" width="3.5" height="0.4"/>
		<rect x="370.6" y="174.9" class="st0" width="3.5" height="0.4"/>
		<rect x="428.9" y="174.9" class="st0" width="1.7" height="0.4"/>
		<rect x="367.2" y="190.6" class="st0" width="1.7" height="0.4"/>
		<rect x="375.9" y="190.6" class="st0" width="3.5" height="0.4"/>
		<rect x="402.4" y="190.6" class="st0" width="3.5" height="0.4"/>
		<rect x="370.6" y="190.6" class="st0" width="3.5" height="0.4"/>
		<rect x="413" y="190.6" class="st0" width="3.5" height="0.4"/>
		<rect x="407.7" y="190.6" class="st0" width="3.5" height="0.4"/>
		<rect x="386.5" y="190.6" class="st0" width="3.5" height="0.4"/>
		<rect x="391.8" y="190.6" class="st0" width="3.5" height="0.4"/>
		<rect x="418.3" y="190.6" class="st0" width="3.5" height="0.4"/>
		<rect x="423.6" y="190.6" class="st0" width="3.5" height="0.4"/>
		<rect x="381.2" y="190.6" class="st0" width="3.5" height="0.4"/>
		<rect x="397.1" y="190.6" class="st0" width="3.5" height="0.4"/>
		<rect x="428.9" y="190.6" class="st0" width="1.7" height="0.4"/>
		<rect x="367.2" y="207.6" class="st0" width="1.7" height="0.4"/>
		<rect x="397.1" y="207.6" class="st0" width="3.5" height="0.4"/>
		<rect x="391.8" y="207.6" class="st0" width="3.5" height="0.4"/>
		<rect x="386.5" y="207.6" class="st0" width="3.5" height="0.4"/>
		<rect x="413" y="207.6" class="st0" width="3.5" height="0.4"/>
		<rect x="418.3" y="207.6" class="st0" width="3.5" height="0.4"/>
		<rect x="370.6" y="207.6" class="st0" width="3.5" height="0.4"/>
		<rect x="423.6" y="207.6" class="st0" width="3.5" height="0.4"/>
		<rect x="375.9" y="207.6" class="st0" width="3.5" height="0.4"/>
		<rect x="402.4" y="207.6" class="st0" width="3.5" height="0.4"/>
		<rect x="407.7" y="207.6" class="st0" width="3.5" height="0.4"/>
		<rect x="381.2" y="207.6" class="st0" width="3.5" height="0.4"/>
		<rect x="428.9" y="207.6" class="st0" width="1.7" height="0.4"/>
		<rect x="367.2" y="222.9" class="st0" width="1.7" height="0.4"/>
		<rect x="423.6" y="222.9" class="st0" width="3.5" height="0.4"/>
		<rect x="375.9" y="222.9" class="st0" width="3.5" height="0.4"/>
		<rect x="386.5" y="222.9" class="st0" width="3.5" height="0.4"/>
		<rect x="397.1" y="222.9" class="st0" width="3.5" height="0.4"/>
		<rect x="370.6" y="222.9" class="st0" width="3.5" height="0.4"/>
		<rect x="391.8" y="222.9" class="st0" width="3.5" height="0.4"/>
		<rect x="413" y="222.9" class="st0" width="3.5" height="0.4"/>
		<rect x="407.7" y="222.9" class="st0" width="3.5" height="0.4"/>
		<rect x="418.3" y="222.9" class="st0" width="3.5" height="0.4"/>
		<rect x="402.4" y="222.9" class="st0" width="3.5" height="0.4"/>
		<rect x="381.2" y="222.9" class="st0" width="3.5" height="0.4"/>
		<rect x="428.9" y="222.9" class="st0" width="1.7" height="0.4"/>
		<rect x="367.2" y="238.6" class="st0" width="1.7" height="0.4"/>
		<rect x="370.6" y="238.6" class="st0" width="3.5" height="0.4"/>
		<rect x="407.7" y="238.6" class="st0" width="3.5" height="0.4"/>
		<rect x="375.9" y="238.6" class="st0" width="3.5" height="0.4"/>
		<rect x="381.2" y="238.6" class="st0" width="3.5" height="0.4"/>
		<rect x="413" y="238.6" class="st0" width="3.5" height="0.4"/>
		<rect x="423.6" y="238.6" class="st0" width="3.5" height="0.4"/>
		<rect x="397.1" y="238.6" class="st0" width="3.5" height="0.4"/>
		<rect x="418.3" y="238.6" class="st0" width="3.5" height="0.4"/>
		<rect x="402.4" y="238.6" class="st0" width="3.5" height="0.4"/>
		<rect x="391.8" y="238.6" class="st0" width="3.5" height="0.4"/>
		<rect x="386.5" y="238.6" class="st0" width="3.5" height="0.4"/>
		<rect x="428.9" y="238.6" class="st0" width="1.7" height="0.4"/>
		<rect x="367.2" y="254.3" class="st0" width="1.7" height="0.4"/>
		<rect x="391.8" y="254.3" class="st0" width="3.5" height="0.4"/>
		<rect x="397.1" y="254.3" class="st0" width="3.5" height="0.4"/>
		<rect x="370.6" y="254.3" class="st0" width="3.5" height="0.4"/>
		<rect x="381.2" y="254.3" class="st0" width="3.5" height="0.4"/>
		<rect x="423.6" y="254.3" class="st0" width="3.5" height="0.4"/>
		<rect x="418.3" y="254.3" class="st0" width="3.5" height="0.4"/>
		<rect x="375.9" y="254.3" class="st0" width="3.5" height="0.4"/>
		<rect x="413" y="254.3" class="st0" width="3.5" height="0.4"/>
		<rect x="386.5" y="254.3" class="st0" width="3.5" height="0.4"/>
		<rect x="407.7" y="254.3" class="st0" width="3.5" height="0.4"/>
		<rect x="402.4" y="254.3" class="st0" width="3.5" height="0.4"/>
		<rect x="428.9" y="254.3" class="st0" width="1.7" height="0.4"/>
		<rect x="367.2" y="270.3" class="st0" width="1.7" height="0.4"/>
		<rect x="402.4" y="270.3" class="st0" width="3.5" height="0.4"/>
		<rect x="370.6" y="270.3" class="st0" width="3.5" height="0.4"/>
		<rect x="418.3" y="270.3" class="st0" width="3.5" height="0.4"/>
		<rect x="375.9" y="270.3" class="st0" width="3.5" height="0.4"/>
		<rect x="381.2" y="270.3" class="st0" width="3.5" height="0.4"/>
		<rect x="386.5" y="270.3" class="st0" width="3.5" height="0.4"/>
		<rect x="413" y="270.3" class="st0" width="3.5" height="0.4"/>
		<rect x="423.6" y="270.3" class="st0" width="3.5" height="0.4"/>
		<rect x="397.1" y="270.3" class="st0" width="3.5" height="0.4"/>
		<rect x="391.8" y="270.3" class="st0" width="3.5" height="0.4"/>
		<rect x="407.7" y="270.3" class="st0" width="3.5" height="0.4"/>
		<rect x="428.9" y="270.3" class="st0" width="1.7" height="0.4"/>
		<rect x="367.2" y="286" class="st0" width="1.7" height="0.4"/>
		<rect x="370.6" y="286" class="st0" width="3.5" height="0.4"/>
		<rect x="375.9" y="286" class="st0" width="3.5" height="0.4"/>
		<rect x="418.3" y="286" class="st0" width="3.5" height="0.4"/>
		<rect x="407.7" y="286" class="st0" width="3.5" height="0.4"/>
		<rect x="413" y="286" class="st0" width="3.5" height="0.4"/>
		<rect x="391.8" y="286" class="st0" width="3.5" height="0.4"/>
		<rect x="381.2" y="286" class="st0" width="3.5" height="0.4"/>
		<rect x="397.1" y="286" class="st0" width="3.5" height="0.4"/>
		<rect x="386.5" y="286" class="st0" width="3.5" height="0.4"/>
		<rect x="423.6" y="286" class="st0" width="3.5" height="0.4"/>
		<rect x="402.4" y="286" class="st0" width="3.5" height="0.4"/>
		<rect x="428.9" y="286" class="st0" width="1.7" height="0.4"/>
		<rect x="367.2" y="301.6" class="st0" width="1.7" height="0.4"/>
		<rect x="423.6" y="301.6" class="st0" width="3.5" height="0.4"/>
		<rect x="375.9" y="301.6" class="st0" width="3.5" height="0.4"/>
		<rect x="391.8" y="301.6" class="st0" width="3.5" height="0.4"/>
		<rect x="397.1" y="301.6" class="st0" width="3.5" height="0.4"/>
		<rect x="370.6" y="301.6" class="st0" width="3.5" height="0.4"/>
		<rect x="407.7" y="301.6" class="st0" width="3.5" height="0.4"/>
		<rect x="402.4" y="301.6" class="st0" width="3.5" height="0.4"/>
		<rect x="418.3" y="301.6" class="st0" width="3.5" height="0.4"/>
		<rect x="381.2" y="301.6" class="st0" width="3.5" height="0.4"/>
		<rect x="386.5" y="301.6" class="st0" width="3.5" height="0.4"/>
		<rect x="413" y="301.6" class="st0" width="3.5" height="0.4"/>
		<rect x="428.9" y="301.6" class="st0" width="1.7" height="0.4"/>
		<rect x="367.2" y="315.9" class="st0" width="1.7" height="0.4"/>
		<rect x="381.2" y="315.9" class="st0" width="3.5" height="0.4"/>
		<rect x="413" y="315.9" class="st0" width="3.5" height="0.4"/>
		<rect x="418.3" y="315.9" class="st0" width="3.5" height="0.4"/>
		<rect x="423.6" y="315.9" class="st0" width="3.5" height="0.4"/>
		<rect x="386.5" y="315.9" class="st0" width="3.5" height="0.4"/>
		<rect x="407.7" y="315.9" class="st0" width="3.5" height="0.4"/>
		<rect x="375.9" y="315.9" class="st0" width="3.5" height="0.4"/>
		<rect x="397.1" y="315.9" class="st0" width="3.5" height="0.4"/>
		<rect x="402.4" y="315.9" class="st0" width="3.5" height="0.4"/>
		<rect x="370.6" y="315.9" class="st0" width="3.5" height="0.4"/>
		<rect x="391.8" y="315.9" class="st0" width="3.5" height="0.4"/>
		<rect x="428.9" y="315.9" class="st0" width="1.7" height="0.4"/>
		<rect x="367.2" y="329.6" class="st0" width="1.7" height="0.4"/>
		<rect x="391.8" y="329.6" class="st0" width="3.5" height="0.4"/>
		<rect x="407.7" y="329.6" class="st0" width="3.5" height="0.4"/>
		<rect x="381.2" y="329.6" class="st0" width="3.5" height="0.4"/>
		<rect x="386.5" y="329.6" class="st0" width="3.5" height="0.4"/>
		<rect x="402.4" y="329.6" class="st0" width="3.5" height="0.4"/>
		<rect x="418.3" y="329.6" class="st0" width="3.5" height="0.4"/>
		<rect x="375.9" y="329.6" class="st0" width="3.5" height="0.4"/>
		<rect x="423.6" y="329.6" class="st0" width="3.5" height="0.4"/>
		<rect x="413" y="329.6" class="st0" width="3.5" height="0.4"/>
		<rect x="397.1" y="329.6" class="st0" width="3.5" height="0.4"/>
		<rect x="370.6" y="329.6" class="st0" width="3.5" height="0.4"/>
		<rect x="428.9" y="329.6" class="st0" width="1.7" height="0.4"/>
		<path class="st0" d="M352.2,51.2c-0.5-0.3-3-1.4-3.7-1.3c-0.8,0.1-1.8,0.6-1.9,1.5l0,0l0,0c0,0.4,0,0.9,0,1.4h-2.9
			c0-0.5,0-1-0.1-1.3c0-0.6-0.3-1-0.7-1.4c-0.6-0.5-1.5-0.7-2.5-0.6L320,50.2c-0.7,0.2-1.9,0.9-1.6,2.5c0.3,1.6,1,3.8,1.1,4
			c0.1,0.2,0.8,0.9,3.7,1.2c3,0.3,17.8,1.4,17.9,1.4c0.1,0,0.1,0,0.2,0c0.7,0,1.9-0.4,2.1-1.8c0.1-0.5,0.1-1.1,0.2-1.7h3
			c0,0.7,0,1.2,0,1.3c0,0.7,0.5,1.4,1.5,1.4c0.9,0,3.9-0.8,4.5-1.3c0.5-0.5,0.6-1.5,0.6-2.6l0-0.4C353.3,53.3,353.4,51.9,352.2,51.2
			z M342.6,57.4c-0.2,1.1-1.3,1.1-1.4,1.1c-0.1,0-15-1.1-17.9-1.4c-2.2-0.2-2.9-0.7-3.1-0.8c-0.1-0.4-0.7-2.4-1-3.7
			c-0.2-1.1,0.9-1.5,0.9-1.5l20.4-0.7l0,0c0.8-0.1,1.4,0.1,1.8,0.4c0.2,0.2,0.4,0.5,0.4,0.8C342.8,52.9,342.9,56,342.6,57.4z
			 M343.6,55c0-0.4,0-0.9,0-1.3h2.9c0,0.4,0,0.9,0,1.3H343.6z M352.4,54.3l0,0.4c0,0.7-0.1,1.7-0.3,1.9c-0.3,0.3-3.1,1.1-3.9,1.1
			c-0.6,0-0.6-0.4-0.6-0.6c0-0.3-0.1-5.1-0.1-5.7c0.1-0.6,1.1-0.7,1.2-0.8c0.3-0.1,2.5,0.8,3.2,1.2
			C352.5,52.3,352.5,53.2,352.4,54.3z"/>
		<path class="st0" d="M352.2,67c-0.5-0.3-3-1.4-3.7-1.3c-0.8,0.1-1.8,0.6-1.9,1.5l0,0l0,0c0,0.4,0,0.9,0,1.4h-2.9
			c0-0.5,0-1-0.1-1.3c0-0.6-0.3-1-0.7-1.4c-0.6-0.5-1.5-0.7-2.5-0.6L320,66c-0.7,0.2-1.9,0.9-1.6,2.5c0.3,1.6,1,3.8,1.1,4
			c0.1,0.2,0.8,0.9,3.7,1.2c3,0.3,17.8,1.4,17.9,1.4c0.1,0,0.1,0,0.2,0c0.7,0,1.9-0.4,2.1-1.8c0.1-0.5,0.1-1.1,0.2-1.7h3
			c0,0.7,0,1.2,0,1.3c0,0.7,0.5,1.4,1.5,1.4c0.9,0,3.9-0.8,4.5-1.3c0.5-0.5,0.6-1.5,0.6-2.6l0-0.4C353.3,69.1,353.4,67.7,352.2,67z
			 M342.6,73.2c-0.2,1.1-1.3,1.1-1.4,1.1c-0.1,0-15-1.1-17.9-1.4c-2.2-0.2-2.9-0.7-3.1-0.8c-0.1-0.4-0.7-2.4-1-3.7
			c-0.2-1.1,0.9-1.5,0.9-1.5l20.4-0.7l0,0c0.8-0.1,1.4,0.1,1.8,0.4c0.2,0.2,0.4,0.5,0.4,0.8C342.8,68.7,342.9,71.8,342.6,73.2z
			 M343.6,70.8c0-0.4,0-0.9,0-1.3h2.9c0,0.4,0,0.9,0,1.3H343.6z M352.4,70.1l0,0.4c0,0.7-0.1,1.7-0.3,1.9c-0.3,0.3-3.1,1.1-3.9,1.1
			c-0.6,0-0.6-0.4-0.6-0.6c0-0.3-0.1-5.1-0.1-5.7c0.1-0.6,1.1-0.7,1.2-0.8c0.3-0.1,2.5,0.8,3.2,1.2C352.5,68.1,352.5,69,352.4,70.1z
			"/>
		<path class="st0" d="M352.2,82.8c-0.5-0.3-3-1.4-3.7-1.3c-0.8,0.1-1.8,0.6-1.9,1.5l0,0l0,0c0,0.4,0,0.9,0,1.4h-2.9
			c0-0.5,0-1-0.1-1.3c0-0.6-0.3-1-0.7-1.4c-0.6-0.5-1.5-0.7-2.5-0.6L320,81.9c-0.7,0.2-1.9,0.9-1.6,2.5c0.3,1.6,1,3.8,1.1,4
			c0.1,0.2,0.8,0.9,3.7,1.2c3,0.3,17.8,1.4,17.9,1.4c0.1,0,0.1,0,0.2,0c0.7,0,1.9-0.4,2.1-1.8c0.1-0.5,0.1-1.1,0.2-1.7h3
			c0,0.7,0,1.2,0,1.3c0,0.7,0.5,1.4,1.5,1.4c0.9,0,3.9-0.8,4.5-1.3c0.5-0.5,0.6-1.5,0.6-2.6l0-0.4C353.3,84.9,353.4,83.5,352.2,82.8
			z M342.6,89c-0.2,1.1-1.3,1.1-1.4,1.1c-0.1,0-15-1.1-17.9-1.4c-2.2-0.2-2.9-0.7-3.1-0.8c-0.1-0.4-0.7-2.4-1-3.7
			c-0.2-1.1,0.9-1.5,0.9-1.5l20.4-0.7l0,0c0.8-0.1,1.4,0.1,1.8,0.4c0.2,0.2,0.4,0.5,0.4,0.8C342.8,84.5,342.9,87.6,342.6,89z
			 M343.6,86.6c0-0.4,0-0.9,0-1.3h2.9c0,0.4,0,0.9,0,1.3H343.6z M352.4,85.9l0,0.4c0,0.7-0.1,1.7-0.3,1.9c-0.3,0.3-3.1,1.1-3.9,1.1
			c-0.6,0-0.6-0.4-0.6-0.6c0-0.3-0.1-5.1-0.1-5.7c0.1-0.6,1.1-0.7,1.2-0.8c0,0,0,0,0,0c0.4,0,2.5,0.8,3.1,1.2
			C352.5,83.9,352.5,84.8,352.4,85.9z"/>
		<path class="st0" d="M352.2,98.6c-0.5-0.3-3-1.4-3.7-1.3c-0.8,0.1-1.8,0.6-1.9,1.5l0,0l0,0c0,0.4,0,0.9,0,1.4h-2.9
			c0-0.5,0-1-0.1-1.3c0-0.6-0.3-1-0.7-1.4c-0.6-0.5-1.5-0.7-2.5-0.6L320,97.7c-0.7,0.2-1.9,0.9-1.6,2.5c0.3,1.6,1,3.8,1.1,4
			c0.1,0.2,0.8,0.9,3.7,1.2c3,0.3,17.8,1.4,17.9,1.4c0.1,0,0.1,0,0.2,0c0.7,0,1.9-0.4,2.1-1.8c0.1-0.5,0.1-1.1,0.2-1.7h3
			c0,0.7,0,1.2,0,1.3c0,0.7,0.5,1.4,1.5,1.4c0.9,0,3.9-0.8,4.5-1.3c0.5-0.5,0.6-1.5,0.6-2.6l0-0.4
			C353.3,100.7,353.4,99.3,352.2,98.6z M342.6,104.8c-0.2,1.1-1.3,1.1-1.4,1.1c-0.1,0-15-1.1-17.9-1.4c-2.2-0.2-2.9-0.7-3.1-0.8
			c-0.1-0.4-0.7-2.4-1-3.7c-0.2-1.1,0.9-1.5,0.9-1.5l20.4-0.7l0,0c0.8-0.1,1.4,0.1,1.8,0.4c0.2,0.2,0.4,0.5,0.4,0.8
			C342.8,100.3,342.9,103.4,342.6,104.8z M343.6,102.4c0-0.4,0-0.9,0-1.3h2.9c0,0.4,0,0.9,0,1.3H343.6z M352.4,101.8l0,0.4
			c0,0.7-0.1,1.7-0.3,1.9c-0.3,0.3-3.1,1.1-3.9,1.1c-0.6,0-0.6-0.4-0.6-0.6c0-0.3-0.1-5.1-0.1-5.7c0.1-0.6,1.1-0.7,1.2-0.8
			c0,0,0,0,0,0c0.4,0,2.5,0.8,3.1,1.2C352.5,99.7,352.5,100.6,352.4,101.8z"/>
		<path class="st0" d="M352.2,114.4c-0.5-0.3-3-1.4-3.7-1.3c-0.8,0.1-1.8,0.6-1.9,1.5l0,0l0,0c0,0.4,0,0.9,0,1.4h-2.9
			c0-0.5,0-1-0.1-1.3c0-0.6-0.3-1-0.7-1.4c-0.6-0.5-1.5-0.7-2.5-0.6l-20.4,0.7c-0.7,0.2-1.9,0.9-1.6,2.5c0.3,1.6,1,3.8,1.1,4
			c0.1,0.2,0.8,0.9,3.7,1.2c3,0.3,17.8,1.4,17.9,1.4c0.1,0,0.1,0,0.2,0c0.7,0,1.9-0.4,2.1-1.8c0.1-0.5,0.1-1.1,0.2-1.7h3
			c0,0.7,0,1.2,0,1.3c0,0.7,0.5,1.4,1.5,1.4c0.9,0,3.9-0.8,4.5-1.3c0.5-0.5,0.6-1.5,0.6-2.6l0-0.4
			C353.3,116.6,353.4,115.1,352.2,114.4z M342.6,120.6c-0.2,1.1-1.3,1.1-1.4,1.1c-0.1,0-15-1.1-17.9-1.4c-2.2-0.2-2.9-0.7-3.1-0.8
			c-0.1-0.4-0.7-2.4-1-3.7c-0.2-1.1,0.9-1.5,0.9-1.5l20.4-0.7l0,0c0.8-0.1,1.4,0.1,1.8,0.4c0.2,0.2,0.4,0.5,0.4,0.8
			C342.8,116.2,342.9,119.2,342.6,120.6z M343.6,118.2c0-0.4,0-0.9,0-1.3h2.9c0,0.4,0,0.9,0,1.3H343.6z M352.4,117.6l0,0.4
			c0,0.7-0.1,1.7-0.3,1.9c-0.3,0.3-3.1,1.1-3.9,1.1c-0.6,0-0.6-0.4-0.6-0.6c0-0.3-0.1-5.1-0.1-5.7c0.1-0.6,1.1-0.7,1.2-0.8
			c0.3,0,2.5,0.8,3.2,1.2C352.5,115.6,352.5,116.4,352.4,117.6z"/>
		<path class="st0" d="M352.2,130.2c-0.5-0.3-3-1.4-3.7-1.3c-0.8,0.1-1.8,0.6-1.9,1.5l0,0l0,0c0,0.4,0,0.9,0,1.4h-2.9
			c0-0.5,0-1-0.1-1.3c0-0.6-0.3-1-0.7-1.4c-0.6-0.5-1.5-0.7-2.5-0.6l-20.4,0.7c-0.7,0.2-1.9,0.9-1.6,2.5c0.3,1.6,1,3.8,1.1,4
			c0.1,0.2,0.8,0.9,3.7,1.2c3,0.3,17.8,1.4,17.9,1.4c0.1,0,0.1,0,0.2,0c0.7,0,1.9-0.4,2.1-1.8c0.1-0.5,0.1-1.1,0.2-1.7h3
			c0,0.7,0,1.2,0,1.3c0,0.7,0.5,1.4,1.5,1.4c0.9,0,3.9-0.8,4.5-1.3c0.5-0.5,0.6-1.5,0.6-2.6l0-0.4
			C353.3,132.4,353.4,130.9,352.2,130.2z M342.6,136.5c-0.2,1.1-1.3,1.1-1.4,1.1c-0.1,0-15-1.1-17.9-1.4c-2.2-0.2-2.9-0.7-3.1-0.8
			c-0.1-0.4-0.7-2.4-1-3.7c-0.2-1.1,0.9-1.5,0.9-1.5l20.4-0.7l0,0c0.8-0.1,1.4,0.1,1.8,0.4c0.2,0.2,0.4,0.5,0.4,0.8
			C342.8,132,342.9,135,342.6,136.5z M343.6,134c0-0.4,0-0.9,0-1.3h2.9c0,0.4,0,0.9,0,1.3H343.6z M352.4,133.4l0,0.4
			c0,0.7-0.1,1.7-0.3,1.9c-0.3,0.3-3.1,1.1-3.9,1.1c-0.6,0-0.6-0.4-0.6-0.6c0-0.3-0.1-5.1-0.1-5.7c0.1-0.6,1.1-0.7,1.2-0.8
			c0.3,0,2.5,0.8,3.2,1.2C352.5,131.4,352.5,132.2,352.4,133.4z"/>
		<path class="st0" d="M352.2,146c-0.5-0.3-3-1.4-3.7-1.3c-0.8,0.1-1.8,0.6-1.9,1.5l0,0l0,0c0,0.4,0,0.9,0,1.4h-2.9
			c0-0.5,0-1-0.1-1.3c0-0.6-0.3-1-0.7-1.4c-0.6-0.5-1.5-0.7-2.5-0.6l-20.4,0.7c-0.7,0.2-1.9,0.9-1.6,2.5c0.3,1.6,1,3.8,1.1,4
			c0.1,0.2,0.8,0.9,3.7,1.2c3,0.3,17.8,1.4,17.9,1.4c0.1,0,0.1,0,0.2,0c0.7,0,1.9-0.4,2.1-1.8c0.1-0.5,0.1-1.1,0.2-1.7h3
			c0,0.7,0,1.2,0,1.3c0,0.7,0.5,1.4,1.5,1.4c0.9,0,3.9-0.8,4.5-1.3c0.5-0.5,0.6-1.5,0.6-2.6l0-0.4
			C353.3,148.2,353.4,146.7,352.2,146z M342.6,152.3c-0.2,1.1-1.3,1.1-1.4,1.1c-0.1,0-15-1.1-17.9-1.4c-2.2-0.2-2.9-0.7-3.1-0.8
			c-0.1-0.4-0.7-2.4-1-3.7c-0.2-1.1,0.9-1.5,0.9-1.5l20.4-0.7l0,0c0.8-0.1,1.4,0.1,1.8,0.4c0.2,0.2,0.4,0.5,0.4,0.8
			C342.8,147.8,342.9,150.8,342.6,152.3z M343.6,149.8c0-0.4,0-0.9,0-1.3h2.9c0,0.4,0,0.9,0,1.3H343.6z M352.4,149.2l0,0.4
			c0,0.7-0.1,1.7-0.3,1.9c-0.3,0.3-3.1,1.1-3.9,1.1c-0.6,0-0.6-0.4-0.6-0.6c0-0.3-0.1-5.1-0.1-5.7c0.1-0.6,1.1-0.7,1.2-0.8
			c0.3-0.1,2.5,0.8,3.2,1.2C352.5,147.2,352.5,148,352.4,149.2z"/>
		<path class="st0" d="M352.2,161.8c-0.5-0.3-3-1.4-3.7-1.3c-0.8,0.1-1.8,0.6-1.9,1.5l0,0l0,0c0,0.4,0,0.9,0,1.4h-2.9
			c0-0.5,0-1-0.1-1.3c0-0.6-0.3-1-0.7-1.4c-0.6-0.5-1.5-0.7-2.5-0.6l-20.4,0.7c-0.7,0.2-1.9,0.9-1.6,2.5c0.3,1.6,1,3.8,1.1,4
			c0.1,0.2,0.8,0.9,3.7,1.2c3,0.3,17.8,1.4,17.9,1.4c0.1,0,0.1,0,0.2,0c0.7,0,1.9-0.4,2.1-1.8c0.1-0.5,0.1-1.1,0.2-1.7h3
			c0,0.7,0,1.2,0,1.3c0,0.7,0.5,1.4,1.5,1.4c0.9,0,3.9-0.8,4.5-1.3c0.5-0.5,0.6-1.5,0.6-2.6l0-0.4
			C353.3,164,353.4,162.5,352.2,161.8z M342.6,168.1c-0.2,1.1-1.3,1.1-1.4,1.1c-0.1,0-15-1.1-17.9-1.4c-2.2-0.2-2.9-0.7-3.1-0.8
			c-0.1-0.4-0.7-2.4-1-3.7c-0.2-1.1,0.9-1.5,0.9-1.5l20.4-0.7l0,0c0.8-0.1,1.4,0.1,1.8,0.4c0.2,0.2,0.4,0.5,0.4,0.8
			C342.8,163.6,342.9,166.6,342.6,168.1z M343.6,165.7c0-0.4,0-0.9,0-1.3h2.9c0,0.4,0,0.9,0,1.3H343.6z M352.4,165l0,0.4
			c0,0.7-0.1,1.7-0.3,1.9c-0.3,0.3-3.1,1.1-3.9,1.1c-0.6,0-0.6-0.4-0.6-0.6c0-0.3-0.1-5.1-0.1-5.7c0.1-0.6,1.1-0.7,1.2-0.8
			c0,0,0,0,0,0c0.4,0,2.5,0.8,3.1,1.2C352.5,163,352.5,163.8,352.4,165z"/>
		<path class="st0" d="M352.2,177.6c-0.5-0.3-3-1.4-3.7-1.3c-0.8,0.1-1.8,0.6-1.9,1.5l0,0l0,0c0,0.4,0,0.9,0,1.4h-2.9
			c0-0.5,0-1-0.1-1.3c0-0.6-0.3-1-0.7-1.4c-0.6-0.5-1.5-0.7-2.5-0.6l-20.4,0.7c-0.7,0.2-1.9,0.9-1.6,2.5c0.3,1.6,1,3.8,1.1,4
			c0.1,0.2,0.8,0.9,3.7,1.2c3,0.3,17.8,1.4,17.9,1.4c0.1,0,0.1,0,0.2,0c0.7,0,1.9-0.4,2.1-1.8c0.1-0.5,0.1-1.1,0.2-1.7h3
			c0,0.7,0,1.2,0,1.3c0,0.7,0.5,1.4,1.5,1.4c0.9,0,3.9-0.8,4.5-1.3c0.5-0.5,0.6-1.5,0.6-2.6l0-0.4
			C353.3,179.8,353.4,178.3,352.2,177.6z M342.6,183.9c-0.2,1.1-1.3,1.1-1.4,1.1c-0.1,0-15-1.1-17.9-1.4c-2.2-0.2-2.9-0.7-3.1-0.8
			c-0.1-0.4-0.7-2.4-1-3.7c-0.2-1.1,0.9-1.5,0.9-1.5l20.4-0.7l0,0c0.8-0.1,1.4,0.1,1.8,0.4c0.2,0.2,0.4,0.5,0.4,0.8
			C342.8,179.4,342.9,182.4,342.6,183.9z M343.6,181.5c0-0.4,0-0.9,0-1.3h2.9c0,0.4,0,0.9,0,1.3H343.6z M352.4,180.8l0,0.4
			c0,0.7-0.1,1.7-0.3,1.9c-0.3,0.3-3.1,1.1-3.9,1.1c-0.6,0-0.6-0.4-0.6-0.6c0-0.3-0.1-5.1-0.1-5.7c0.1-0.6,1.1-0.7,1.2-0.8
			c0,0,0,0,0,0c0.4,0,2.5,0.8,3.1,1.2C352.5,178.8,352.5,179.6,352.4,180.8z"/>
		<path class="st0" d="M352.2,193.4c-0.5-0.3-3-1.4-3.7-1.3c-0.8,0.1-1.8,0.6-1.9,1.5l0,0l0,0c0,0.4,0,0.9,0,1.4h-2.9
			c0-0.5,0-1-0.1-1.3c0-0.6-0.3-1-0.7-1.4c-0.6-0.5-1.5-0.7-2.5-0.6l-20.4,0.7c-0.7,0.2-1.9,0.9-1.6,2.5c0.3,1.6,1,3.8,1,4
			c0.1,0.2,0.8,0.9,3.7,1.2c3,0.3,17.8,1.4,17.9,1.4c0.1,0,0.1,0,0.2,0c0.7,0,1.9-0.4,2.1-1.8c0.1-0.5,0.1-1.1,0.2-1.7h3
			c0,0.7,0,1.2,0,1.3c0,0.7,0.5,1.4,1.5,1.4c0.9,0,3.9-0.8,4.5-1.3c0.5-0.5,0.6-1.5,0.6-2.6l0-0.4
			C353.3,195.6,353.4,194.2,352.2,193.4z M342.6,199.7c-0.2,1.1-1.3,1.1-1.4,1.1c-0.1,0-15-1.1-17.9-1.4c-2.2-0.2-2.9-0.7-3.1-0.8
			c-0.1-0.4-0.7-2.4-1-3.7c-0.2-1.1,0.9-1.5,0.9-1.5l20.4-0.7l0,0c0.8-0.1,1.4,0.1,1.8,0.4c0.2,0.2,0.4,0.5,0.4,0.8
			C342.8,195.2,342.9,198.3,342.6,199.7z M343.6,197.3c0-0.4,0-0.9,0-1.3h2.9c0,0.4,0,0.9,0,1.3H343.6z M352.4,196.6l0,0.4
			c0,0.7-0.1,1.7-0.3,1.9c-0.3,0.3-3.1,1.1-3.9,1.1c-0.6,0-0.6-0.4-0.6-0.6c0-0.3-0.1-5.1-0.1-5.7c0.1-0.6,1.1-0.7,1.2-0.8
			c0.4,0,2.5,0.8,3.2,1.2C352.5,194.6,352.5,195.5,352.4,196.6z"/>
		<path class="st0" d="M352.2,209.2c-0.5-0.3-3-1.4-3.7-1.3c-0.8,0.1-1.8,0.6-1.9,1.5l0,0l0,0c0,0.4,0,0.9,0,1.4h-2.9
			c0-0.5,0-1-0.1-1.3c0-0.6-0.3-1-0.7-1.4c-0.6-0.5-1.5-0.7-2.5-0.6l-20.4,0.7c-0.7,0.2-1.9,0.9-1.6,2.5c0.3,1.6,1,3.8,1,4
			c0.1,0.2,0.8,0.9,3.7,1.2c3,0.3,17.8,1.4,17.9,1.4c0.1,0,0.1,0,0.2,0c0.7,0,1.9-0.4,2.1-1.8c0.1-0.5,0.1-1.1,0.2-1.7h3
			c0,0.7,0,1.2,0,1.3c0,0.7,0.5,1.4,1.5,1.4c0.9,0,3.9-0.8,4.5-1.3c0.5-0.5,0.6-1.5,0.6-2.6l0-0.4
			C353.3,211.4,353.4,210,352.2,209.2z M342.6,215.5c-0.2,1.1-1.3,1.1-1.4,1.1c-0.1,0-15-1.1-17.9-1.4c-2.2-0.2-2.9-0.7-3.1-0.8
			c-0.1-0.4-0.7-2.4-1-3.7c-0.2-1.1,0.9-1.5,0.9-1.5l20.4-0.7l0,0c0.8-0.1,1.4,0.1,1.8,0.4c0.2,0.2,0.4,0.5,0.4,0.8
			C342.8,211,342.9,214.1,342.6,215.5z M343.6,213.1c0-0.4,0-0.9,0-1.3h2.9c0,0.4,0,0.9,0,1.3H343.6z M352.4,212.4l0,0.4
			c0,0.7-0.1,1.7-0.3,1.9c-0.3,0.3-3.1,1.1-3.9,1.1c-0.6,0-0.6-0.4-0.6-0.6c0-0.3-0.1-5.1-0.1-5.7c0.1-0.6,1.1-0.7,1.2-0.8
			c0.4,0,2.5,0.8,3.2,1.2C352.5,210.4,352.5,211.3,352.4,212.4z"/>
		<path class="st0" d="M352.2,225c-0.5-0.3-3-1.4-3.7-1.3c-0.8,0.1-1.8,0.6-1.9,1.5l0,0l0,0c0,0.4,0,0.9,0,1.4h-2.9
			c0-0.5,0-1-0.1-1.3c0-0.6-0.3-1-0.7-1.4c-0.6-0.5-1.5-0.7-2.5-0.6l-20.4,0.7c-0.7,0.2-1.9,0.9-1.6,2.5c0.3,1.6,1,3.8,1,4
			c0.1,0.2,0.8,0.9,3.7,1.2c3,0.3,17.8,1.4,17.9,1.4c0.1,0,0.1,0,0.2,0c0.7,0,1.9-0.4,2.1-1.8c0.1-0.5,0.1-1.1,0.2-1.7h3
			c0,0.7,0,1.2,0,1.3c0,0.7,0.5,1.4,1.5,1.4c0.9,0,3.9-0.8,4.5-1.3c0.5-0.5,0.6-1.5,0.6-2.6l0-0.4
			C353.3,227.2,353.4,225.8,352.2,225z M342.6,231.3c-0.2,1.1-1.3,1.1-1.4,1.1c-0.1,0-15-1.1-17.9-1.4c-2.2-0.2-2.9-0.7-3.1-0.8
			c-0.1-0.4-0.7-2.4-1-3.7c-0.2-1.1,0.9-1.5,0.9-1.5l20.4-0.7l0,0c0.8-0.1,1.4,0.1,1.8,0.4c0.2,0.2,0.4,0.5,0.4,0.8
			C342.8,226.8,342.9,229.9,342.6,231.3z M343.6,228.9c0-0.4,0-0.9,0-1.3h2.9c0,0.4,0,0.9,0,1.3H343.6z M352.4,228.2l0,0.4
			c0,0.7-0.1,1.7-0.3,1.9c-0.3,0.3-3.1,1.1-3.9,1.1c-0.6,0-0.6-0.4-0.6-0.6c0-0.3-0.1-5.1-0.1-5.7c0.1-0.6,1.1-0.7,1.2-0.8
			c0,0,0,0,0,0c0.4,0,2.5,0.8,3.1,1.2C352.5,226.2,352.5,227.1,352.4,228.2z"/>
		<path class="st0" d="M352.2,240.9c-0.5-0.3-3-1.4-3.7-1.3c-0.8,0.1-1.8,0.6-1.9,1.5l0,0l0,0c0,0.4,0,0.9,0,1.4h-2.9
			c0-0.5,0-1-0.1-1.3c0-0.6-0.3-1-0.7-1.4c-0.6-0.5-1.5-0.7-2.5-0.6l-20.4,0.7c-0.7,0.2-1.9,0.9-1.6,2.5c0.3,1.6,1,3.8,1,4
			c0.1,0.2,0.8,0.9,3.7,1.2c3,0.3,17.8,1.4,17.9,1.4c0.1,0,0.1,0,0.2,0c0.7,0,1.9-0.4,2.1-1.8c0.1-0.5,0.1-1.1,0.2-1.7h3
			c0,0.7,0,1.2,0,1.3c0,0.7,0.5,1.4,1.5,1.4c0.9,0,3.9-0.8,4.5-1.3c0.5-0.5,0.6-1.5,0.6-2.6l0-0.4
			C353.3,243,353.4,241.6,352.2,240.9z M342.6,247.1c-0.2,1.1-1.3,1.1-1.4,1.1c-0.1,0-15-1.1-17.9-1.4c-2.2-0.2-2.9-0.7-3.1-0.8
			c-0.1-0.4-0.7-2.4-1-3.7c-0.2-1.1,0.9-1.5,0.9-1.5l20.4-0.7l0,0c0.8-0.1,1.4,0.1,1.8,0.4c0.2,0.2,0.4,0.5,0.4,0.8
			C342.8,242.6,342.9,245.7,342.6,247.1z M343.6,244.7c0-0.4,0-0.9,0-1.3h2.9c0,0.4,0,0.9,0,1.3H343.6z M352.4,244l0,0.4
			c0,0.7-0.1,1.7-0.3,1.9c-0.3,0.3-3.1,1.1-3.9,1.1c-0.6,0-0.6-0.4-0.6-0.6c0-0.3-0.1-5.1-0.1-5.7c0.1-0.6,1.1-0.7,1.2-0.8
			c0.4,0,2.5,0.8,3.2,1.2C352.5,242,352.5,242.9,352.4,244z"/>
		<path class="st0" d="M352.2,256.7c-0.5-0.3-3-1.4-3.7-1.3c-0.8,0.1-1.8,0.6-1.9,1.5l0,0l0,0c0,0.4,0,0.9,0,1.4h-2.9
			c0-0.5,0-1-0.1-1.3c0-0.6-0.3-1-0.7-1.4c-0.6-0.5-1.5-0.7-2.5-0.6l-20.4,0.7c-0.7,0.2-1.9,0.9-1.6,2.5c0.3,1.6,1,3.8,1,4
			c0.1,0.2,0.8,0.9,3.7,1.2c3,0.3,17.8,1.4,17.9,1.4c0.1,0,0.1,0,0.2,0c0.7,0,1.9-0.4,2.1-1.8c0.1-0.5,0.1-1.1,0.2-1.7h3
			c0,0.7,0,1.2,0,1.3c0,0.7,0.5,1.4,1.5,1.4c0.9,0,3.9-0.8,4.5-1.3c0.5-0.5,0.6-1.5,0.6-2.6l0-0.4
			C353.3,258.8,353.4,257.4,352.2,256.7z M342.6,262.9c-0.2,1.1-1.3,1.1-1.4,1.1c-0.1,0-15-1.1-17.9-1.4c-2.2-0.2-2.9-0.7-3.1-0.8
			c-0.1-0.4-0.7-2.4-1-3.7c-0.2-1.1,0.9-1.5,0.9-1.5l20.4-0.7l0,0c0.8-0.1,1.4,0.1,1.8,0.4c0.2,0.2,0.4,0.5,0.4,0.8
			C342.8,258.4,342.9,261.5,342.6,262.9z M343.6,260.5c0-0.4,0-0.9,0-1.3h2.9c0,0.4,0,0.9,0,1.3H343.6z M352.4,259.8l0,0.4
			c0,0.7-0.1,1.7-0.3,1.9c-0.3,0.3-3.1,1.1-3.9,1.1c-0.6,0-0.6-0.4-0.6-0.6c0-0.3-0.1-5.1-0.1-5.7c0.1-0.6,1.1-0.7,1.2-0.8
			c0.4,0,2.5,0.8,3.2,1.2C352.5,257.8,352.5,258.7,352.4,259.8z"/>
		<path class="st0" d="M352.2,272.5c-0.5-0.3-3-1.4-3.7-1.3c-0.8,0.1-1.8,0.6-1.9,1.5l0,0l0,0c0,0.4,0,0.9,0,1.4h-2.9
			c0-0.5,0-1-0.1-1.3c0-0.6-0.3-1-0.7-1.4c-0.6-0.5-1.5-0.7-2.5-0.6l-20.4,0.7c-0.7,0.2-1.9,0.9-1.6,2.5c0.3,1.6,1,3.8,1,4
			c0.1,0.2,0.8,0.9,3.7,1.2c3,0.3,17.8,1.4,17.9,1.4c0.1,0,0.1,0,0.2,0c0.7,0,1.9-0.4,2.1-1.8c0.1-0.5,0.1-1.1,0.2-1.7h3
			c0,0.7,0,1.2,0,1.3c0,0.7,0.5,1.4,1.5,1.4c0.9,0,3.9-0.8,4.5-1.3c0.5-0.5,0.6-1.5,0.6-2.6l0-0.4
			C353.3,274.6,353.4,273.2,352.2,272.5z M342.6,278.7c-0.2,1.1-1.3,1.1-1.4,1.1c-0.1,0-15-1.1-17.9-1.4c-2.2-0.2-2.9-0.7-3.1-0.8
			c-0.1-0.4-0.7-2.4-1-3.7c-0.2-1.1,0.9-1.5,0.9-1.5l20.4-0.7l0,0c0.8-0.1,1.4,0.1,1.8,0.4c0.2,0.2,0.4,0.5,0.4,0.8
			C342.8,274.2,342.9,277.3,342.6,278.7z M343.6,276.3c0-0.4,0-0.9,0-1.3h2.9c0,0.4,0,0.9,0,1.3H343.6z M352.4,275.7l0,0.4
			c0,0.7-0.1,1.7-0.3,1.9c-0.3,0.3-3.1,1.1-3.9,1.1c-0.6,0-0.6-0.4-0.6-0.6c0-0.3-0.1-5.1-0.1-5.7c0.1-0.6,1.1-0.7,1.2-0.8
			c0,0,0,0,0,0c0.4,0,2.5,0.8,3.1,1.2C352.5,273.6,352.5,274.5,352.4,275.7z"/>
		<path class="st0" d="M352.2,288.3c-0.5-0.3-3-1.4-3.7-1.3c-0.8,0.1-1.8,0.6-1.9,1.5l0,0l0,0c0,0.4,0,0.9,0,1.4h-2.9
			c0-0.5,0-1-0.1-1.3c0-0.6-0.3-1-0.7-1.4c-0.6-0.5-1.5-0.7-2.5-0.6l-20.4,0.7c-0.7,0.2-1.9,0.9-1.6,2.5c0.3,1.6,1,3.8,1,4
			c0.1,0.2,0.8,0.9,3.7,1.2c3,0.3,17.8,1.4,17.9,1.4c0.1,0,0.1,0,0.2,0c0.7,0,1.9-0.4,2.1-1.8c0.1-0.5,0.1-1.1,0.2-1.7h3
			c0,0.7,0,1.2,0,1.3c0,0.7,0.5,1.4,1.5,1.4c0.9,0,3.9-0.8,4.5-1.3c0.5-0.5,0.6-1.5,0.6-2.6l0-0.4
			C353.3,290.4,353.4,289,352.2,288.3z M342.6,294.5c-0.2,1.1-1.3,1.1-1.4,1.1c-0.1,0-15-1.1-17.9-1.4c-2.2-0.2-2.9-0.7-3.1-0.8
			c-0.1-0.4-0.7-2.4-1-3.7c-0.2-1.1,0.9-1.5,0.9-1.5l20.4-0.7l0,0c0.8-0.1,1.4,0.1,1.8,0.4c0.2,0.2,0.4,0.5,0.4,0.8
			C342.8,290,342.9,293.1,342.6,294.5z M343.6,292.1c0-0.4,0-0.9,0-1.3h2.9c0,0.4,0,0.9,0,1.3H343.6z M352.4,291.5l0,0.4
			c0,0.7-0.1,1.7-0.3,1.9c-0.3,0.3-3.1,1.1-3.9,1.1c-0.6,0-0.6-0.4-0.6-0.6c0-0.3-0.1-5.1-0.1-5.7c0.1-0.6,1.1-0.7,1.2-0.8
			c0.4,0,2.5,0.8,3.2,1.2C352.5,289.4,352.5,290.3,352.4,291.5z"/>
		<path class="st0" d="M352.2,304.1c-0.5-0.3-3-1.4-3.7-1.3c-0.8,0.1-1.8,0.6-1.9,1.5l0,0l0,0c0,0.4,0,0.9,0,1.4h-2.9
			c0-0.5,0-1-0.1-1.3c0-0.6-0.3-1-0.7-1.4c-0.6-0.5-1.5-0.7-2.5-0.6l-20.4,0.7c-0.7,0.2-1.9,0.9-1.6,2.5c0.3,1.6,1,3.8,1,4
			c0.1,0.2,0.8,0.9,3.7,1.2c3,0.3,17.8,1.4,17.9,1.4c0.1,0,0.1,0,0.2,0c0.7,0,1.9-0.4,2.1-1.8c0.1-0.5,0.1-1.1,0.2-1.7h3
			c0,0.7,0,1.2,0,1.3c0,0.7,0.5,1.4,1.5,1.4c0.9,0,3.9-0.8,4.5-1.3c0.5-0.5,0.6-1.5,0.6-2.6l0-0.4
			C353.3,306.3,353.4,304.8,352.2,304.1z M342.6,310.3c-0.2,1.1-1.3,1.1-1.4,1.1c-0.1,0-15-1.1-17.9-1.4c-2.2-0.2-2.9-0.7-3.1-0.8
			c-0.1-0.4-0.7-2.4-1-3.7c-0.2-1.1,0.9-1.5,0.9-1.5l20.4-0.7l0,0c0.8-0.1,1.4,0.1,1.8,0.4c0.2,0.2,0.4,0.5,0.4,0.8
			C342.8,305.9,342.9,308.9,342.6,310.3z M343.6,307.9c0-0.4,0-0.9,0-1.3h2.9c0,0.4,0,0.9,0,1.3H343.6z M352.4,307.3l0,0.4
			c0,0.7-0.1,1.7-0.3,1.9c-0.3,0.3-3.1,1.1-3.9,1.1c-0.6,0-0.6-0.4-0.6-0.6c0-0.3-0.1-5.1-0.1-5.7c0.1-0.6,1.1-0.7,1.2-0.8
			c0.4,0,2.5,0.8,3.2,1.2C352.5,305.3,352.5,306.1,352.4,307.3z"/>
		<path class="st0" d="M352.2,319.9c-0.5-0.3-3-1.4-3.7-1.3c-0.8,0.1-1.8,0.6-1.9,1.5l0,0l0,0c0,0.4,0,0.9,0,1.4h-2.9
			c0-0.5,0-1-0.1-1.3c0-0.6-0.3-1-0.7-1.4c-0.6-0.5-1.5-0.7-2.5-0.6L320,319c-0.7,0.2-1.9,0.9-1.6,2.5c0.3,1.6,1,3.8,1,4
			c0.1,0.2,0.8,0.9,3.7,1.2c3,0.3,17.8,1.4,17.9,1.4c0.1,0,0.1,0,0.2,0c0.7,0,1.9-0.4,2.1-1.8c0.1-0.5,0.1-1.1,0.2-1.7h3
			c0,0.7,0,1.2,0,1.3c0,0.7,0.5,1.4,1.5,1.4c0.9,0,3.9-0.8,4.5-1.3c0.5-0.5,0.6-1.5,0.6-2.6l0-0.4
			C353.3,322.1,353.4,320.6,352.2,319.9z M342.6,326.2c-0.2,1.1-1.3,1.1-1.4,1.1c-0.1,0-15-1.1-17.9-1.4c-2.2-0.2-2.9-0.7-3.1-0.8
			c-0.1-0.4-0.7-2.4-1-3.7c-0.2-1.1,0.9-1.5,0.9-1.5l20.4-0.7l0,0c0.8-0.1,1.4,0.1,1.8,0.4c0.2,0.2,0.4,0.5,0.4,0.8
			C342.8,321.7,342.9,324.7,342.6,326.2z M343.6,323.7c0-0.4,0-0.9,0-1.3h2.9c0,0.4,0,0.9,0,1.3H343.6z M352.4,323.1l0,0.4
			c0,0.7-0.1,1.7-0.3,1.9c-0.3,0.3-3.1,1.1-3.9,1.1c-0.6,0-0.6-0.4-0.6-0.6c0-0.3-0.1-5.1-0.1-5.7c0.1-0.6,1.1-0.7,1.2-0.8
			c0,0,0,0,0,0c0.4,0,2.5,0.8,3.1,1.2C352.5,321.1,352.5,321.9,352.4,323.1z"/>
		<path class="st0" d="M98.1,228.4l-0.4,0c-0.2,0-0.3,0-0.3,0.4l-0.1,0l0.1,0c0,0,0,0,0,0h-0.1v0.4h0c-0.1,0.9-0.1,2.6-0.1,6.1
			l-0.4,35.8H119l-0.4-42.7H98.1z M97.6,270.3c0-4.2,0.4-36.8,0.4-41h19.7l0.4,41H97.6z"/>
		<path class="st0" d="M107.5,177.8c-2.2,0-4,1.8-4,4s1.8,4,4,4c2.2,0,4-1.8,4-4S109.7,177.8,107.5,177.8z M107.5,184.8
			c-1.7,0-3.1-1.4-3.1-3.1s1.4-3.1,3.1-3.1c1.7,0,3.1,1.4,3.1,3.1S109.2,184.8,107.5,184.8z"/>
		<path class="st0" d="M107.5,170.8c-6,0-10.9,4.9-10.9,10.9c0,6,4.9,10.9,10.9,10.9c6,0,10.9-4.9,10.9-10.9
			C118.4,175.7,113.5,170.8,107.5,170.8z M107.5,191.8c-5.5,0-10-4.5-10-10c0-5.5,4.5-10,10-10c5.5,0,10,4.5,10,10
			C117.5,187.2,113,191.8,107.5,191.8z"/>
		<path class="st0" d="M107.5,289.7c-2.2,0-4,1.8-4,4c0,2.2,1.8,4,4,4c2.2,0,4-1.8,4-4C111.5,291.5,109.7,289.7,107.5,289.7z
			 M107.5,296.7c-1.7,0-3.1-1.4-3.1-3.1s1.4-3.1,3.1-3.1c1.7,0,3.1,1.4,3.1,3.1S109.2,296.7,107.5,296.7z"/>
	</g>
</g>
<g id="Ebene_2">
	<g>
		<g>
			<circle id="bgnumber_32_" class="st1" cx="359.4" cy="54.8" r="7.1"/>
			<text transform="matrix(1 0 0 1 354.6205 58.2663)" class="st2 st3 st4 button" data-number="18">19</text>
		</g>
		<g>
			<circle id="bgnumber_31_" class="st1" cx="359.4" cy="70.6" r="7.1"/>
			<text transform="matrix(1 0 0 1 353.8154 74.0586)" class="st2 st3 st4 button" data-number="19">20</text>
		</g>
		<g>
			<circle id="bgnumber_30_" class="st1" cx="359.4" cy="86.4" r="7.1"/>
			<text transform="matrix(1 0 0 1 354.8499 89.8507)" class="st2 st3 st4 button" data-number="20">21</text>
		</g>
		<g>
			<circle id="bgnumber_29_" class="st1" cx="359.4" cy="102.2" r="7.1"/>
			<text transform="matrix(1 0 0 1 354.1951 105.6429)" class="st2 st3 st4 button" data-number="21">22</text>
		</g>
		<g>
			<circle id="bgnumber_28_" class="st1" cx="359.4" cy="118" r="7.1"/>
			<text transform="matrix(1 0 0 1 354.0501 121.435)" class="st2 st3 st4 button" data-number="22">23</text>
		</g>
		<g>
			<circle id="bgnumber_27_" class="st1" cx="359.4" cy="133.8" r="7.1"/>
			<text transform="matrix(1 0 0 1 353.9148 137.2272)" class="st2 st3 st4 button" data-number="23">24</text>
		</g>
		<g>
			<circle id="bgnumber_26_" class="st1" cx="359.4" cy="149.6" r="7.1"/>
			<text transform="matrix(1 0 0 1 354.1449 153.0982)" class="st2 st3 st4 button" data-number="24">25</text>
		</g>
		<g>
			<circle id="bgnumber_25_" class="st1" cx="359.4" cy="165.3" r="7.1"/>
			<text transform="matrix(1 0 0 1 353.9652 168.8904)" class="st2 st3 st4 button" data-number="25">26</text>
		</g>
		<circle id="bgnumber_24_" class="st1" cx="359.4" cy="181.1" r="7.1"/>
		<g>
			<text transform="matrix(1 0 0 1 354.4252 184.6825)" class="st2 st3 st4 button" data-number="26">27</text>
		</g>
		<g>
			<circle id="bgnumber_23_" class="st1" cx="359.4" cy="196.9" r="7.1"/>
			<text transform="matrix(1 0 0 1 353.9251 200.4746)" class="st2 st3 st4 button" data-number="27">28</text>
		</g>
		<g>
			<circle id="bgnumber_22_" class="st1" cx="359.4" cy="212.7" r="7.1"/>
			<text transform="matrix(1 0 0 1 353.9651 216.2668)" class="st2 st3 st4 button" data-number="28">29</text>
		</g>
		<g>
			<circle id="bgnumber_21_" class="st1" cx="359.4" cy="228.5" r="7.1"/>
			<text transform="matrix(1 0 0 1 353.6701 232.059)" class="st2 st3 st4 button" data-number="29">30</text>
		</g>
		<g>
			<circle id="bgnumber_20_" class="st1" cx="359.4" cy="244.3" r="7.1"/>
			<text transform="matrix(1 0 0 1 354.705 247.7761)" class="st2 st3 st4 button" data-number="30">31</text>
		</g>
		<g>
			<circle id="bgnumber_19_" class="st1" cx="359.4" cy="260.1" r="7.1"/>
			<g>
				<text transform="matrix(1 0 0 1 354.0501 263.5683)" class="st2 st3 st4 button" data-number="31">32</text>
			</g>
		</g>
		<g>
			<circle id="bgnumber_18_" class="st1" cx="359.4" cy="275.9" r="7.1"/>
			<text transform="matrix(1 0 0 1 353.9052 279.3604)" class="st2 st3 st4 button" data-number="32">33</text>
		</g>
		<g>
			<circle id="bgnumber_35_" class="st1" cx="359.4" cy="291.9" r="7.1"/>
			<text transform="matrix(1 0 0 1 354.705 295.378)" class="st2 st3 st4 button" data-number="30">31</text>
		</g>
		<g>
			<circle id="bgnumber_34_" class="st1" cx="359.4" cy="307.7" r="7.1"/>
			<text transform="matrix(1 0 0 1 354.0501 311.1702)" class="st2 st3 st4 button" data-number="31">32</text>
		</g>
		<g>
			<circle id="bgnumber_33_" class="st1" cx="359.4" cy="323.5" r="7.1"/>
			<text transform="matrix(1 0 0 1 353.9052 326.9623)" class="st2 st3 st4 button" data-number="32">33</text>
		</g>
	</g>
	<g>
		<g>
			<circle id="bgnumber" class="st1" cx="216.4" cy="54.8" r="7.1"/>
			<text transform="matrix(1 0 0 1 211.5139 58.2663)" class="st2 st3 st4 button" data-number="0">01</text>
		</g>
		<g>
			<circle id="bgnumber_1_" class="st1" cx="216.4" cy="70.6" r="7.1"/>
			<text transform="matrix(1 0 0 1 210.8592 74.0903)" class="st2 st3 st4 button" data-number="1">02</text>
		</g>
		<g>
			<circle id="bgnumber_2_" class="st1" cx="216.4" cy="86.5" r="7.1"/>
			<text transform="matrix(1 0 0 1 210.7141 89.9141)" class="st2 st3 st4 button" data-number="2">03</text>
		</g>
		<g>
			<circle id="bgnumber_3_" class="st1" cx="216.4" cy="102.3" r="7.1"/>
			<text transform="matrix(1 0 0 1 210.5791 105.7379)" class="st2 st3 st4 button" data-number="3">04</text>
		</g>
		<g>
			<circle id="bgnumber_4_" class="st1" cx="216.4" cy="118.1" r="7.1"/>
			<text transform="matrix(1 0 0 1 210.8091 121.5617)" class="st2 st3 st4 button" data-number="4">05</text>
		</g>
		<g>
			<circle id="bgnumber_5_" class="st1" cx="216.4" cy="133.9" r="7.1"/>
			<text transform="matrix(1 0 0 1 210.6291 137.3855)" class="st2 st3 st4 button" data-number="5">06</text>
		</g>
		<g>
			<circle id="bgnumber_6_" class="st1" cx="216.4" cy="149.7" r="7.1"/>
			<text transform="matrix(1 0 0 1 211.0884 153.2881)" class="st2 st3 st4 button" data-number="6">07</text>
		</g>
		<g>
			<circle id="bgnumber_7_" class="st1" cx="216.4" cy="165.6" r="7.1"/>
			<text transform="matrix(1 0 0 1 210.5889 169.112)" class="st2 st3 st4 button" data-number="7">08</text>
		</g>
		<g>
			<circle id="bgnumber_8_" class="st1" cx="216.4" cy="181.4" r="7.1"/>
			<text transform="matrix(1 0 0 1 210.629 184.9358)" class="st2 st3 st4 button" data-number="8">09</text>
		</g>
		<g>
			<circle id="bgnumber_9_" class="st1" cx="216.4" cy="197.2" r="7.1"/>
			<text transform="matrix(1 0 0 1 211.5139 200.7596)" class="st2 st3 st4 button" data-number="9">10</text>
		</g>
		<g>
			<circle id="bgnumber_10_" class="st1" cx="216.4" cy="213" r="7.1"/>
			<text transform="matrix(1 0 0 1 212.5488 216.5834)" class="st2 st3 st4 button" data-number="10">11</text>
		</g>
		<g>
			<circle id="bgnumber_11_" class="st1" cx="216.4" cy="228.9" r="7.1"/>
			<text transform="matrix(1 0 0 1 211.8942 232.4072)" class="st2 st3 st4 button" data-number="11">12</text>
		</g>
		<g>
			<circle id="bgnumber_12_" class="st1" cx="216.4" cy="244.7" r="7.1"/>
			<text transform="matrix(1 0 0 1 211.7488 248.156)" class="st2 st3 st4 button" data-number="12">13</text>
		</g>
		<g>
			<circle id="bgnumber_13_" class="st1" cx="216.4" cy="260.5" r="7.1"/>
			<g>
				<text transform="matrix(1 0 0 1 211.6138 263.9798)" class="st2 st3 st4 button" data-number="13">14</text>
			</g>
		</g>
		<g>
			<circle id="bgnumber_14_" class="st1" cx="216.4" cy="276.3" r="7.1"/>
			<text transform="matrix(1 0 0 1 211.8438 279.8036)" class="st2 st3 st4 button" data-number="14">15</text>
		</g>
		<g>
			<circle id="bgnumber_15_" class="st1" cx="216.4" cy="291.9" r="7.1"/>
			<text transform="matrix(1 0 0 1 211.6639 295.3784)" class="st2 st3 st4 button" data-number="15">16</text>
		</g>
		<g>
			<circle id="bgnumber_16_" class="st1" cx="216.4" cy="307.7" r="7.1"/>
			<text transform="matrix(1 0 0 1 212.1238 311.1705)" class="st2 st3 st4 button" data-number="16">17</text>
		</g>
		<g>
			<circle id="bgnumber_17_" class="st1" cx="216.4" cy="323.5" r="7.1"/>
			<text transform="matrix(1 0 0 1 211.6238 326.9627)" class="st2 st3 st4 button" data-number="17">18</text>
		</g>
	</g>
</g>
</svg>
