<?xml version="1.0" encoding="utf-8"?>
<!-- Generator: Adobe Illustrator 21.0.1, SVG Export Plug-In . SVG Version: 6.00 Build 0)  -->
<!DOCTYPE svg PUBLIC "-//W3C//DTD SVG 1.1//EN" "http://www.w3.org/Graphics/SVG/1.1/DTD/svg11.dtd">
<svg version="1.1" xmlns="http://www.w3.org/2000/svg" xmlns:xlink="http://www.w3.org/1999/xlink" x="0px" y="0px"
	 viewBox="0 0 460 385.9" style="enable-background:new 0 0 460 385.9;" xml:space="preserve">
<style type="text/css">
	.button{cursor: pointer}
	.st0{fill:#B3B2B2;}
	.st1{font-family:'MyriadPro-Regular';}
	.st2{font-size:13.3152px;}
	.st3{fill:#FFFFFF;}
	.st4{fill:#23AEE5;}
	.st5{font-family:'BrixSansRegular';}
	.st6{font-size:10px;}
</style>
<g id="Ebene_2">
	<text transform="matrix(1 0 0 1 258.7986 41.0034)" class="st0 st1 st2">List 1</text>
	<text transform="matrix(1 0 0 1 332.132 41.0034)" class="st0 st1 st2">List 2</text>
	<g>
		<path class="st0" d="M459.9,4.9c0-0.1,0.3-1.6-0.7-2.9c-0.9-1.2-2.5-1.8-4.8-1.9c-5.7-0.2-288.1,0-291,0h-0.2L163,0.2
			c-0.5,0.4-4.7,4-5.8,6.5c-3.8,0-27.8-0.4-28.1-0.4l-0.6,0l-0.1,0.6c-0.1,0.9-3.4,22.9-3.4,27.4v112.8l1.1,3.2l-0.5,13l-24,1.1
			c-0.3,0.1-8.4,1.5-13.3,9.4c-5.1,0-31.4,0.4-31.8,0.4c-1.6,0.3-4.6,1.7-4.6,5.3v18.8l-19.9,0l-5.2-0.6v-5.6H1.6v5.4H0v12.8h1.6
			v5.3h25.2v-5.6l5.5-1.2h19.5l0,62.2c0,0.1-0.2,2.4,1.2,4c0.9,0.9,2.1,1.4,3.7,1.4l31,0c0.1,0,1.4,0.4,1.4,1.7l0,10.4
			c0,0.2,4.1,17.2,17.1,17.2h20.1l1.2,30.4l-1.6,0.2l0.2,16.4l1.9,0.2l0.2,21.8l29,0.4l1.8,7.1c0.2,0.4,1.7,3.6,3.8,3.6h291.6
			c1.8-0.1,5.1-1.2,5.3-4.9C460.1,377,459.9,20,459.9,4.9z M0.9,209.5v-11.1h10.9v11.1H0.9z M31.5,208.2l-5.6,1.2v5.5H2.5v-4.5h12.8
			v-2.3h12.5V200l-12.3-0.3v-2.1h-13V193H26v5.5l5.6,0.6V208.2z M27,200.8v6.4H14.4v2.3h-1.8v-11.1h2v2.1L27,200.8z M128.8,13.2
			h10.7v15.2h-12.7C127.3,23.8,128.2,17.7,128.8,13.2z M126.3,34.3c0-0.5,0.1-1.4,0.1-2.4h13v3.6h-13.2V34.3z M126.3,36.3h13.2v1.4
			h-13.2V36.3z M126.3,41h13.1v6.2h-13.1V41z M126.3,49.9h13.1v6.2h-13.1V49.9z M126.3,59.4h12.7v47.1h-12.7V59.4z M126.3,109.4
			h13.1v6.2h-13.1V109.4z M126.3,118.6h13.1v6.2h-13.1V118.6z M126.3,127.8h13.1v6.2h-13.1V127.8z M126.3,134.8h14v-7.9h-14v-1.3h14
			v-7.9h-14v-1.3h14v-7.9h-14v-1.2h13.6V58.5h-13.6V57h14v-7.9h-14v-1h14v-7.9h-14v-1.6h14V31h-13.8c0.1-0.5,0.1-1.1,0.2-1.7h13.6
			V12.3H129c0.3-2.2,0.6-3.9,0.7-4.8c4,0.1,26.8,0.4,28,0.4h0.5l0.1-0.5c0.2-0.6,0.8-1.5,1.5-2.4v7.2h-17.8v16.9h17.8v6.3h-17.4
			v-3.8h17.3v-0.9h-18.2v116.2h5.2c0,1.6,0.1,6.9,0,8c-0.1,0.9-1.5,4.4-6,4.4c-4.3,0-6-3.5-6-4.9v-7.5h5.6v-10.9h-13.9V134.8z
			 M159.8,13.2v15.2h-17V13.2H159.8z M159.8,59.6v46.6h-17.4V56.9h17.4v1.8h-17.3v0.9H159.8z M159.8,137.1v9.1h-12.2h-0.4h-4.7v-12
			h17.4v2h-17.2v0.9H159.8z M126.5,147.5h7.3v2.3h-6.4L126.5,147.5z M126.9,164.2l4.2-0.4l-0.7,2.8h-3.7v-2.1l0.2,0L126.9,164.2z
			 M126.7,167.4h3.8l3.7,3.7l12,0.3l4.9-3.7l8.5-0.3l0-0.9l-8.4,0.3l-1.4-3.3l9.8-0.1l0-0.9l-10.5,0.1l-4.7,3.7l-7.7-0.4l-4.9-3.2
			l-4.9,0.5l0.5-12.7h6.3v3.9c0,1.7,2,5.8,6.9,5.8c4.7,0,6.7-3.5,6.9-5.2c0.1-0.7,0.1-3,0.1-5.1h11.9v-0.9h-11.9c0-0.9,0-1.7,0-2.1
			h12.2v51.3l-33.1,0V167.4z M145.4,170.5l-10.4-0.3l1.7-3.4l7.4,0.4L145.4,170.5z M145,167l4-3.2l1.4,3.3l-4.1,3.1L145,167z
			 M134.2,170l-3.1-3.1l0.8-2.9l4,2.6L134.2,170z M142.4,133.4V123h17.4v10.3H142.4z M142.4,122.2v-1.4h17.2v-0.9h-17.2V110h17.2
			v-0.9h-17.2V107h17.4v15.2H142.4z M142.4,56.1V46h17.4v10H142.4z M142.4,45.2v-1.8h17.4v1.8H142.4z M142.4,42.5v-6.1h17.4v6.1
			H142.4z M126.3,137h13v9.2h-5.6v0.4h-7.5V137z M53.2,179.5c0-3.4,3.4-4,3.4-4.1c0.3,0,28-0.4,32-0.4H89l0.2-0.3
			c4.6-7.6,12.6-9.1,12.6-9.1l24-1.1v33.8l-72.6,0V179.5z M32.4,208v-8.9h127.4v8.9L32.4,208z M79.8,208.9l-26.6,4.3v-4.3H79.8z
			 M97.5,293.6c0-5.5,4.5-10,10-10s10,4.5,10,10c0,5.5-4.5,10-10,10S97.5,299.2,97.5,293.6z M127.5,304.5l-0.6-33h12.1v32.6
			l-11.3,0.6l0-0.2H127.5z M129.4,351.8l-1.9-0.2l-0.1-14.1l1.6-0.2l-1.2-31.8l11.3-0.6v2.9h-9.3v3.2h9.3v5.6h-8.5v3.1h8.5v6.5h-8.2
			v2.7h8.2v5.8h-7.7v2.9l7.7,0.1V358l-9.6,0.1L129.4,351.8z M458.6,380.9c-0.2,3.4-3.9,3.7-4.1,3.7H163c-1,0-2.2-1.9-2.6-2.7l-2-8
			l-28.7-0.4l-0.1-14.5l10.4-0.1v-22l-7.7-0.1v-1.2h7.7V328h-8.2v-1h8.2v-8.2h-8.5v-1.4h8.5v-7.3h-9.3v-1.4h9.3v-38h-13l-0.1-8.4
			h12.5v5.7h-12.4v0.9h13.2v-7.4h-13.4l0-1.4h13.4v-7.4h-13.6l0-1.6h13.6v-7.4h-13.7l0-1.8l13.7,0.1v-9.1h1.6l0.1,9.3h17.9v-0.9
			h-17.1l-0.1-9.3h-3.3v9.1l-12.8-0.1l-0.6-32l-0.9,0l1.7,95.5h-18c5.5-0.6,9.8-5.2,9.8-10.8c0-6-4.9-10.9-10.9-10.9
			s-10.9,4.9-10.9,10.9c0,5.6,4.3,10.3,9.8,10.8c-11.9,0-15.8-16-15.8-16v-10.3c0-1.9-1.6-2.8-2.6-3H56.8c-1.2,0-2.1-0.3-2.7-1
			c-1.1-1.2-0.9-3-0.9-3.1v-57.1l31.3-5.1l0-0.1h75.3v34.6h-18.1v115.4l18,0.3l0-0.4v19.9h0.4V4.7c1.2-1.3,2.6-2.6,3.4-3.3
			c2.4,0,289.9,0,290.7,0c1.8,0.1,3.2,0.5,3.8,1.4c0.7,0.9,0.5,1.9,0.5,2C458.6,8.5,458.8,376.9,458.6,380.9z M126.7,259.1l-0.1-5.7
			h12.7v5.7H126.7z M126.6,250.1l-0.1-5.7h12.8v5.7H126.6z M142.6,336.8v-1.4l17.2-0.1v1.7L142.6,336.8z M159.8,337.5v20.8
			l-17.2-0.3v-20.3l17.2,0.2L159.8,337.5z M142.6,334.6v-9.9h17.2v9.8L142.6,334.6z M142.6,323.8v-1.5h17.2v1.5H142.6z M142.6,321.5
			v-10.8h17.2v10.8H142.6z M142.6,309.8v-1.5h17.2v1.5H142.6z M142.6,307.5v-2.3h17v-0.9h-17v-32.9h17.2v36.1H142.6z M142.6,270.5
			v-1.6h17.2v1.6H142.6z M142.6,268.1v-10.1h17.2v10.1H142.6z M142.6,257.1v-2h17.1v-0.9h-17.1v-9.8h17.2v12.7H142.6z"/>
		<path class="st0" d="M98.1,228.4l-0.4,0c-0.2,0-0.3,0-0.3,0.4l-0.1,0l0.1,0c0,0,0,0,0,0h-0.1v0.4h0c-0.1,0.9-0.1,2.6-0.1,6.1
			l-0.4,35.8H119l-0.4-42.7H98.1z M97.6,270.3c0-4.2,0.4-36.8,0.4-41h19.7l0.4,41H97.6z"/>
		<path class="st0" d="M107.5,177.8c-2.2,0-4,1.8-4,4c0,2.2,1.8,4,4,4c2.2,0,4-1.8,4-4C111.5,179.5,109.7,177.8,107.5,177.8z
			 M107.5,184.8c-1.7,0-3.1-1.4-3.1-3.1s1.4-3.1,3.1-3.1s3.1,1.4,3.1,3.1S109.2,184.8,107.5,184.8z"/>
		<path class="st0" d="M107.5,170.8c-6,0-10.9,4.9-10.9,10.9s4.9,10.9,10.9,10.9s10.9-4.9,10.9-10.9S113.5,170.8,107.5,170.8z
			 M107.5,191.8c-5.5,0-10-4.5-10-10s4.5-10,10-10s10,4.5,10,10S113,191.8,107.5,191.8z"/>
		<path class="st0" d="M107.5,289.7c-2.2,0-4,1.8-4,4c0,2.2,1.8,4,4,4c2.2,0,4-1.8,4-4C111.5,291.5,109.7,289.7,107.5,289.7z
			 M107.5,296.7c-1.7,0-3.1-1.4-3.1-3.1c0-1.7,1.4-3.1,3.1-3.1s3.1,1.4,3.1,3.1C110.6,295.4,109.2,296.7,107.5,296.7z"/>
		<path class="st0" d="M405.1,19.1H215.4l0-17.4l-1,0l-0.2,238.8l0,0.5l0.2,0L214,384.5l0.5,0l0.5-143.5l189.5,0.5l-0.5,143l0.5,0
			l0.5-143l0.3,0l1-239.5l-1,0L405.1,19.1z M405.1,19.6l0,2.5H215.4l0-2.5H405.1z M215.3,53.4h20.7c0.3,0,0.5,0.2,0.5,0.5
			s-0.2,0.5-0.5,0.5h-20.7L215.3,53.4z M215.3,69.2h20.8c0.3,0,0.5,0.2,0.5,0.5s-0.2,0.5-0.5,0.5h-20.8L215.3,69.2z M215.3,85h20.8
			c0.3,0,0.5,0.2,0.5,0.5s-0.2,0.5-0.5,0.5h-20.8L215.3,85z M215.3,100.8h20.8c0.3,0,0.5,0.2,0.5,0.5s-0.2,0.5-0.5,0.5h-20.8
			L215.3,100.8z M215.3,116.6h20.8c0.3,0,0.5,0.2,0.5,0.5s-0.2,0.5-0.5,0.5h-20.8L215.3,116.6z M215.3,132.4h20.8
			c0.3,0,0.5,0.2,0.5,0.5s-0.2,0.5-0.5,0.5h-20.8L215.3,132.4z M215.3,148.2h20.8c0.3,0,0.5,0.2,0.5,0.5s-0.2,0.5-0.5,0.5h-20.8
			L215.3,148.2z M215.3,164h20.8c0.3,0,0.5,0.2,0.5,0.5s-0.2,0.5-0.5,0.5h-20.8L215.3,164z M215.2,179.8h20.8c0.3,0,0.5,0.2,0.5,0.5
			s-0.2,0.5-0.5,0.5h-20.8L215.2,179.8z M215.2,195.6h20.8c0.3,0,0.5,0.2,0.5,0.5c0,0.3-0.2,0.5-0.5,0.5h-20.8L215.2,195.6z
			 M215.2,240l0-42.4h20.8c0.8,0,1.5-0.7,1.5-1.5s-0.7-1.5-1.5-1.5h-20.8l0-12.8h20.8c0.8,0,1.5-0.7,1.5-1.5s-0.7-1.5-1.5-1.5h-20.8
			l0-12.8h20.8c0.8,0,1.5-0.7,1.5-1.5s-0.7-1.5-1.5-1.5h-20.8l0-12.8h20.8c0.8,0,1.5-0.7,1.5-1.5s-0.7-1.5-1.5-1.5h-20.8l0-12.8
			h20.8c0.8,0,1.5-0.7,1.5-1.5s-0.7-1.5-1.5-1.5h-20.8l0-12.8h20.8c0.8,0,1.5-0.7,1.5-1.5s-0.7-1.5-1.5-1.5h-20.8l0-12.8h20.8
			c0.8,0,1.5-0.7,1.5-1.5s-0.7-1.5-1.5-1.5h-20.8l0-12.8h20.8c0.8,0,1.5-0.7,1.5-1.5s-0.7-1.5-1.5-1.5h-20.8l0-12.8h20.8
			c0.8,0,1.5-0.7,1.5-1.5s-0.7-1.5-1.5-1.5h-20.8l0-12.8h20.7c0.8,0,1.5-0.7,1.5-1.5s-0.7-1.5-1.5-1.5h-20.7l0-29.8h189.8L405,52.4
			h-21.2c-0.8,0-1.5,0.7-1.5,1.5s0.7,1.5,1.5,1.5H405l-0.1,12.8h-21.1c-0.8,0-1.5,0.7-1.5,1.5s0.7,1.5,1.5,1.5h21.1L404.9,84h-21
			c-0.8,0-1.5,0.7-1.5,1.5s0.7,1.5,1.5,1.5h21l-0.1,12.8h-21c-0.8,0-1.5,0.7-1.5,1.5s0.7,1.5,1.5,1.5h20.9l-0.1,12.8h-20.9
			c-0.8,0-1.5,0.7-1.5,1.5s0.7,1.5,1.5,1.5h20.9l-0.1,12.8h-20.8c-0.8,0-1.5,0.7-1.5,1.5s0.7,1.5,1.5,1.5h20.8l-0.1,12.8h-20.8
			c-0.8,0-1.5,0.7-1.5,1.5s0.7,1.5,1.5,1.5h20.7l-0.1,12.8h-20.7c-0.8,0-1.5,0.7-1.5,1.5s0.7,1.5,1.5,1.5h20.7l-0.1,12.8h-20.6
			c-0.8,0-1.5,0.7-1.5,1.5s0.7,1.5,1.5,1.5h20.6l-0.1,12.8h-20.6c-0.8,0-1.5,0.7-1.5,1.5s0.7,1.5,1.5,1.5h20.5l-0.2,42.9L215.2,240z
			 M405,53.4l0,1h-21.1c-0.3,0-0.5-0.2-0.5-0.5s0.2-0.5,0.5-0.5H405z M404.9,69.2l0,1h-21.1c-0.3,0-0.5-0.2-0.5-0.5s0.2-0.5,0.5-0.5
			H404.9z M404.9,85l0,1h-21c-0.3,0-0.5-0.2-0.5-0.5s0.2-0.5,0.5-0.5H404.9z M404.8,100.8l0,1h-20.9c-0.3,0-0.5-0.2-0.5-0.5
			s0.2-0.5,0.5-0.5H404.8z M404.7,116.6l0,1h-20.9c-0.3,0-0.5-0.2-0.5-0.5s0.2-0.5,0.5-0.5H404.7z M404.7,132.4l0,1h-20.8
			c-0.3,0-0.5-0.2-0.5-0.5s0.2-0.5,0.5-0.5H404.7z M404.6,148.2l0,1h-20.8c-0.3,0-0.5-0.2-0.5-0.5s0.2-0.5,0.5-0.5H404.6z
			 M404.5,164l0,1h-20.7c-0.3,0-0.5-0.2-0.5-0.5s0.2-0.5,0.5-0.5H404.5z M404.5,179.8l0,1h-20.6c-0.3,0-0.5-0.2-0.5-0.5
			s0.2-0.5,0.5-0.5H404.5z M404.4,195.6l0,1h-20.6c-0.3,0-0.5-0.2-0.5-0.5c0-0.3,0.2-0.5,0.5-0.5H404.4z"/>
		<path class="st0" d="M209.8,51.6c-0.5-0.3-3-1.4-3.7-1.3c-0.8,0.1-1.8,0.6-1.9,1.5l0,0l0,0c0,0.4,0,0.9,0,1.4h-2.9
			c0-0.5,0-1-0.1-1.3c0-0.6-0.3-1-0.7-1.4c-0.6-0.5-1.5-0.7-2.5-0.6l-20.4,0.7c-0.7,0.2-1.9,0.9-1.6,2.5c0.3,1.6,1,3.8,1.1,4
			c0.1,0.2,0.8,0.9,3.7,1.2c3,0.3,17.8,1.4,17.9,1.4c0.1,0,0.1,0,0.2,0c0.7,0,1.9-0.4,2.1-1.8c0.1-0.5,0.1-1.1,0.2-1.7h3
			c0,0.7,0,1.2,0,1.3c0,0.7,0.5,1.4,1.5,1.4c0.9,0,3.9-0.8,4.5-1.3c0.5-0.5,0.6-1.5,0.6-2.5l0-0.4C211,53.8,211.1,52.3,209.8,51.6z
			 M200.3,57.9c-0.2,1.1-1.3,1.1-1.4,1.1c-0.1,0-15-1.1-17.9-1.4c-2.2-0.2-2.9-0.7-3.1-0.8c-0.1-0.4-0.7-2.4-1-3.7
			c-0.2-1.1,0.9-1.5,0.9-1.5l20.4-0.7l0,0c0.8-0.1,1.4,0.1,1.8,0.4c0.2,0.2,0.4,0.5,0.4,0.8C200.5,53.4,200.5,56.4,200.3,57.9z
			 M201.3,55.5c0-0.4,0-0.9,0-1.3h2.9c0,0.4,0,0.9,0,1.3H201.3z M210.1,54.8l0,0.4c0,0.7-0.1,1.7-0.3,1.9c-0.3,0.3-3.1,1.1-3.9,1.1
			c-0.6,0-0.6-0.4-0.6-0.6c0-0.3-0.1-5.1-0.1-5.7c0.1-0.6,1.1-0.7,1.2-0.8c0.4-0.1,2.5,0.8,3.2,1.2
			C210.1,52.8,210.2,53.6,210.1,54.8z"/>
		<path class="st0" d="M209.8,67.4c-0.5-0.3-3-1.4-3.7-1.3c-0.8,0.1-1.8,0.6-1.9,1.5l0,0l0,0c0,0.4,0,0.9,0,1.4h-2.9
			c0-0.5,0-1-0.1-1.3c0-0.6-0.3-1-0.7-1.4c-0.6-0.5-1.5-0.7-2.5-0.6l-20.4,0.7c-0.7,0.2-1.9,0.9-1.6,2.5c0.3,1.6,1,3.8,1.1,4
			c0.1,0.2,0.8,0.9,3.7,1.2c3,0.3,17.8,1.4,17.9,1.4c0.1,0,0.1,0,0.2,0c0.7,0,1.9-0.4,2.1-1.8c0.1-0.5,0.1-1.1,0.2-1.7h3
			c0,0.7,0,1.2,0,1.3c0,0.7,0.5,1.4,1.5,1.4c0.9,0,3.9-0.8,4.5-1.3c0.5-0.5,0.6-1.5,0.6-2.5l0-0.4C211,69.6,211.1,68.1,209.8,67.4z
			 M200.3,73.7c-0.2,1.1-1.3,1.1-1.4,1.1c-0.1,0-15-1.1-17.9-1.4c-2.2-0.2-2.9-0.7-3.1-0.8c-0.1-0.4-0.7-2.4-1-3.7
			c-0.2-1.1,0.9-1.5,0.9-1.5l20.4-0.7l0,0c0.8-0.1,1.4,0.1,1.8,0.4c0.2,0.2,0.4,0.5,0.4,0.8C200.5,69.2,200.5,72.2,200.3,73.7z
			 M201.3,71.3c0-0.4,0-0.9,0-1.3h2.9c0,0.4,0,0.9,0,1.3H201.3z M210.1,70.6l0,0.4c0,0.7-0.1,1.7-0.3,1.9c-0.3,0.3-3.1,1.1-3.9,1.1
			c-0.6,0-0.6-0.4-0.6-0.6c0-0.3-0.1-5.1-0.1-5.7c0.1-0.6,1.1-0.7,1.2-0.8c0.4-0.1,2.5,0.8,3.2,1.2
			C210.1,68.6,210.2,69.4,210.1,70.6z"/>
		<path class="st0" d="M209.8,83.2c-0.5-0.3-3-1.4-3.7-1.3c-0.8,0.1-1.8,0.6-1.9,1.5l0,0l0,0c0,0.4,0,0.9,0,1.4h-2.9
			c0-0.5,0-1-0.1-1.3c0-0.6-0.3-1-0.7-1.4c-0.6-0.5-1.5-0.7-2.5-0.6l-20.4,0.7c-0.7,0.2-1.9,0.9-1.6,2.5c0.3,1.6,1,3.8,1.1,4
			c0.1,0.2,0.8,0.9,3.7,1.2c3,0.3,17.8,1.4,17.9,1.4c0.1,0,0.1,0,0.2,0c0.7,0,1.9-0.4,2.1-1.8c0.1-0.5,0.1-1.1,0.2-1.7h3
			c0,0.7,0,1.2,0,1.3c0,0.7,0.5,1.4,1.5,1.4c0.9,0,3.9-0.8,4.5-1.3c0.5-0.5,0.6-1.5,0.6-2.5l0-0.4C211,85.4,211.1,84,209.8,83.2z
			 M200.3,89.5c-0.2,1.1-1.3,1.1-1.4,1.1c-0.1,0-15-1.1-17.9-1.4c-2.2-0.2-2.9-0.7-3.1-0.8c-0.1-0.4-0.7-2.4-1-3.7
			c-0.2-1.1,0.9-1.5,0.9-1.5l20.4-0.7l0,0c0.8-0.1,1.4,0.1,1.8,0.4c0.2,0.2,0.4,0.5,0.4,0.8C200.5,85,200.5,88,200.3,89.5z
			 M201.3,87.1c0-0.4,0-0.9,0-1.3h2.9c0,0.4,0,0.9,0,1.3H201.3z M210.1,86.4l0,0.4c0,0.7-0.1,1.7-0.3,1.9c-0.3,0.3-3.1,1.1-3.9,1.1
			c-0.6,0-0.6-0.4-0.6-0.6c0-0.3-0.1-5.1-0.1-5.7c0.1-0.6,1.1-0.7,1.2-0.8c0.4-0.1,2.5,0.8,3.2,1.2
			C210.1,84.4,210.2,85.3,210.1,86.4z"/>
		<path class="st0" d="M209.8,99c-0.5-0.3-3-1.4-3.7-1.3c-0.8,0.1-1.8,0.6-1.9,1.5l0,0l0,0c0,0.4,0,0.9,0,1.4h-2.9
			c0-0.5,0-1-0.1-1.3c0-0.6-0.3-1-0.7-1.4c-0.6-0.5-1.5-0.7-2.5-0.6l-20.4,0.7c-0.7,0.2-1.9,0.9-1.6,2.5c0.3,1.6,1,3.8,1.1,4
			c0.1,0.2,0.8,0.9,3.7,1.2c3,0.3,17.8,1.4,17.9,1.4c0.1,0,0.1,0,0.2,0c0.7,0,1.9-0.4,2.1-1.8c0.1-0.5,0.1-1.1,0.2-1.7h3
			c0,0.7,0,1.2,0,1.3c0,0.7,0.5,1.4,1.5,1.4c0.9,0,3.9-0.8,4.5-1.3c0.5-0.5,0.6-1.5,0.6-2.5l0-0.4C211,101.2,211.1,99.8,209.8,99z
			 M200.3,105.3c-0.2,1.1-1.3,1.1-1.4,1.1c-0.1,0-15-1.1-17.9-1.4c-2.2-0.2-2.9-0.7-3.1-0.8c-0.1-0.4-0.7-2.4-1-3.7
			c-0.2-1.1,0.9-1.5,0.9-1.5l20.4-0.7l0,0c0.8-0.1,1.4,0.1,1.8,0.4c0.2,0.2,0.4,0.5,0.4,0.8C200.5,100.8,200.5,103.9,200.3,105.3z
			 M201.3,102.9c0-0.4,0-0.9,0-1.3h2.9c0,0.4,0,0.9,0,1.3H201.3z M210.1,102.2l0,0.4c0,0.7-0.1,1.7-0.3,1.9
			c-0.3,0.3-3.1,1.1-3.9,1.1c-0.6,0-0.6-0.4-0.6-0.6c0-0.3-0.1-5.1-0.1-5.7c0.1-0.6,1.1-0.7,1.2-0.8c0.4-0.1,2.5,0.8,3.2,1.2
			C210.1,100.2,210.2,101.1,210.1,102.2z"/>
		<path class="st0" d="M209.8,114.9c-0.5-0.3-3-1.4-3.7-1.3c-0.8,0.1-1.8,0.6-1.9,1.5l0,0l0,0c0,0.4,0,0.9,0,1.4h-2.9
			c0-0.5,0-1-0.1-1.3c0-0.6-0.3-1-0.7-1.4c-0.6-0.5-1.5-0.7-2.5-0.6l-20.4,0.7c-0.7,0.2-1.9,0.9-1.6,2.5c0.3,1.6,1,3.8,1.1,4
			c0.1,0.2,0.8,0.9,3.7,1.2c3,0.3,17.8,1.4,17.9,1.4c0.1,0,0.1,0,0.2,0c0.7,0,1.9-0.4,2.1-1.8c0.1-0.5,0.1-1.1,0.2-1.7h3
			c0,0.7,0,1.2,0,1.3c0,0.7,0.5,1.4,1.5,1.4c0.9,0,3.9-0.8,4.5-1.3c0.5-0.5,0.6-1.5,0.6-2.5l0-0.4C211,117,211.1,115.6,209.8,114.9z
			 M200.3,121.1c-0.2,1.1-1.3,1.1-1.4,1.1c-0.1,0-15-1.1-17.9-1.4c-2.2-0.2-2.9-0.7-3.1-0.8c-0.1-0.4-0.7-2.4-1-3.7
			c-0.2-1.1,0.9-1.5,0.9-1.5l20.4-0.7l0,0c0.8-0.1,1.4,0.1,1.8,0.4c0.2,0.2,0.4,0.5,0.4,0.8C200.5,116.6,200.5,119.7,200.3,121.1z
			 M201.3,118.7c0-0.4,0-0.9,0-1.3h2.9c0,0.4,0,0.9,0,1.3H201.3z M210.1,118l0,0.4c0,0.7-0.1,1.7-0.3,1.9c-0.3,0.3-3.1,1.1-3.9,1.1
			c-0.6,0-0.6-0.4-0.6-0.6c0-0.3-0.1-5.1-0.1-5.7c0.1-0.6,1.1-0.7,1.2-0.8c0.4-0.1,2.5,0.8,3.2,1.2C210.1,116,210.2,116.9,210.1,118
			z"/>
		<path class="st0" d="M209.8,130.7c-0.5-0.3-3-1.4-3.7-1.3c-0.8,0.1-1.8,0.6-1.9,1.5l0,0l0,0c0,0.4,0,0.9,0,1.4h-2.9
			c0-0.5,0-1-0.1-1.3c0-0.6-0.3-1-0.7-1.4c-0.6-0.5-1.5-0.7-2.5-0.6l-20.4,0.7c-0.7,0.2-1.9,0.9-1.6,2.5c0.3,1.6,1,3.8,1.1,4
			c0.1,0.2,0.8,0.9,3.7,1.2c3,0.3,17.8,1.4,17.9,1.4c0.1,0,0.1,0,0.2,0c0.7,0,1.9-0.4,2.1-1.8c0.1-0.5,0.1-1.1,0.2-1.7h3
			c0,0.7,0,1.2,0,1.3c0,0.7,0.5,1.4,1.5,1.4c0.9,0,3.9-0.8,4.5-1.3c0.5-0.5,0.6-1.5,0.6-2.5l0-0.4
			C211,132.8,211.1,131.4,209.8,130.7z M200.3,136.9c-0.2,1.1-1.3,1.1-1.4,1.1c-0.1,0-15-1.1-17.9-1.4c-2.2-0.2-2.9-0.7-3.1-0.8
			c-0.1-0.4-0.7-2.4-1-3.7c-0.2-1.1,0.9-1.5,0.9-1.5l20.4-0.7l0,0c0.8-0.1,1.4,0.1,1.8,0.4c0.2,0.2,0.4,0.5,0.4,0.8
			C200.5,132.4,200.5,135.5,200.3,136.9z M201.3,134.5c0-0.4,0-0.9,0-1.3h2.9c0,0.4,0,0.9,0,1.3H201.3z M210.1,133.8l0,0.4
			c0,0.7-0.1,1.7-0.3,1.9c-0.3,0.3-3.1,1.1-3.9,1.1c-0.6,0-0.6-0.4-0.6-0.6c0-0.3-0.1-5.1-0.1-5.7c0.1-0.6,1.1-0.7,1.2-0.8
			c0.4-0.1,2.5,0.8,3.2,1.2C210.1,131.8,210.2,132.7,210.1,133.8z"/>
		<path class="st0" d="M209.8,146.5c-0.5-0.3-3-1.4-3.7-1.3c-0.8,0.1-1.8,0.6-1.9,1.5l0,0l0,0c0,0.4,0,0.9,0,1.4h-2.9
			c0-0.5,0-1-0.1-1.3c0-0.6-0.3-1-0.7-1.4c-0.6-0.5-1.5-0.7-2.5-0.6l-20.4,0.7c-0.7,0.2-1.9,0.9-1.6,2.5c0.3,1.6,1,3.8,1.1,4
			c0.1,0.2,0.8,0.9,3.7,1.2c3,0.3,17.8,1.4,17.9,1.4c0.1,0,0.1,0,0.2,0c0.7,0,1.9-0.4,2.1-1.8c0.1-0.5,0.1-1.1,0.2-1.7h3
			c0,0.7,0,1.2,0,1.3c0,0.7,0.5,1.4,1.5,1.4c0.9,0,3.9-0.8,4.5-1.3c0.5-0.5,0.6-1.5,0.6-2.5l0-0.4
			C211,148.6,211.1,147.2,209.8,146.5z M200.3,152.7c-0.2,1.1-1.3,1.1-1.4,1.1c-0.1,0-15-1.1-17.9-1.4c-2.2-0.2-2.9-0.7-3.1-0.8
			c-0.1-0.4-0.7-2.4-1-3.7c-0.2-1.1,0.9-1.5,0.9-1.5l20.4-0.7l0,0c0.8-0.1,1.4,0.1,1.8,0.4c0.2,0.2,0.4,0.5,0.4,0.8
			C200.5,148.2,200.5,151.3,200.3,152.7z M201.3,150.3c0-0.4,0-0.9,0-1.3h2.9c0,0.4,0,0.9,0,1.3H201.3z M210.1,149.7l0,0.4
			c0,0.7-0.1,1.7-0.3,1.9c-0.3,0.3-3.1,1.1-3.9,1.1c-0.6,0-0.6-0.4-0.6-0.6c0-0.3-0.1-5.1-0.1-5.7c0.1-0.6,1.1-0.7,1.2-0.8
			c0.4-0.1,2.5,0.8,3.2,1.2C210.1,147.6,210.2,148.5,210.1,149.7z"/>
		<path class="st0" d="M209.8,162.3c-0.5-0.3-3-1.4-3.7-1.3c-0.8,0.1-1.8,0.6-1.9,1.5l0,0l0,0c0,0.4,0,0.9,0,1.4h-2.9
			c0-0.5,0-1-0.1-1.3c0-0.6-0.3-1-0.7-1.4c-0.6-0.5-1.5-0.7-2.5-0.6l-20.4,0.7c-0.7,0.2-1.9,0.9-1.6,2.5c0.3,1.6,1,3.8,1.1,4
			c0.1,0.2,0.8,0.9,3.7,1.2c3,0.3,17.8,1.4,17.9,1.4c0.1,0,0.1,0,0.2,0c0.7,0,1.9-0.4,2.1-1.8c0.1-0.5,0.1-1.1,0.2-1.7h3
			c0,0.7,0,1.2,0,1.3c0,0.7,0.5,1.4,1.5,1.4c0.9,0,3.9-0.8,4.5-1.3c0.5-0.5,0.6-1.5,0.6-2.5l0-0.4C211,164.4,211.1,163,209.8,162.3z
			 M200.3,168.5c-0.2,1.1-1.3,1.1-1.4,1.1c-0.1,0-15-1.1-17.9-1.4c-2.2-0.2-2.9-0.7-3.1-0.8c-0.1-0.4-0.7-2.4-1-3.7
			c-0.2-1.1,0.9-1.5,0.9-1.5l20.4-0.7l0,0c0.8-0.1,1.4,0.1,1.8,0.4c0.2,0.2,0.4,0.5,0.4,0.8C200.5,164,200.5,167.1,200.3,168.5z
			 M201.3,166.1c0-0.4,0-0.9,0-1.3h2.9c0,0.4,0,0.9,0,1.3H201.3z M210.1,165.5l0,0.4c0,0.7-0.1,1.7-0.3,1.9
			c-0.3,0.3-3.1,1.1-3.9,1.1c-0.6,0-0.6-0.4-0.6-0.6c0-0.3-0.1-5.1-0.1-5.7c0.1-0.6,1.1-0.7,1.2-0.8c0,0,0,0,0,0
			c0.4,0,2.5,0.8,3.1,1.2C210.1,163.4,210.2,164.3,210.1,165.5z"/>
		<path class="st0" d="M209.8,178.1c-0.5-0.3-3-1.4-3.7-1.3c-0.8,0.1-1.8,0.6-1.9,1.5l0,0l0,0c0,0.4,0,0.9,0,1.4h-2.9
			c0-0.5,0-1-0.1-1.3c0-0.6-0.3-1-0.7-1.4c-0.6-0.5-1.5-0.7-2.5-0.6l-20.4,0.7c-0.7,0.2-1.9,0.9-1.6,2.5c0.3,1.6,1,3.8,1.1,4
			c0.1,0.2,0.8,0.9,3.7,1.2c3,0.3,17.8,1.4,17.9,1.4c0.1,0,0.1,0,0.2,0c0.7,0,1.9-0.4,2.1-1.8c0.1-0.5,0.1-1.1,0.2-1.7h3
			c0,0.7,0,1.2,0,1.3c0,0.7,0.5,1.4,1.5,1.4c0.9,0,3.9-0.8,4.5-1.3c0.5-0.5,0.6-1.5,0.6-2.5l0-0.4
			C211,180.3,211.1,178.8,209.8,178.1z M200.3,184.3c-0.2,1.1-1.3,1.1-1.4,1.1c-0.1,0-15-1.1-17.9-1.4c-2.2-0.2-2.9-0.7-3.1-0.8
			c-0.1-0.4-0.7-2.4-1-3.7c-0.2-1.1,0.9-1.5,0.9-1.5l20.4-0.7l0,0c0.8-0.1,1.4,0.1,1.8,0.4c0.2,0.2,0.4,0.5,0.4,0.8
			C200.5,179.9,200.5,182.9,200.3,184.3z M201.3,181.9c0-0.4,0-0.9,0-1.3h2.9c0,0.4,0,0.9,0,1.3H201.3z M210.1,181.3l0,0.4
			c0,0.7-0.1,1.7-0.3,1.9c-0.3,0.3-3.1,1.1-3.9,1.1c-0.6,0-0.6-0.4-0.6-0.6c0-0.3-0.1-5.1-0.1-5.7c0.1-0.6,1.1-0.7,1.2-0.8
			c0,0,0,0,0,0c0.4,0,2.5,0.8,3.1,1.2C210.1,179.3,210.2,180.1,210.1,181.3z"/>
		<path class="st0" d="M209.8,193.9c-0.5-0.3-3-1.4-3.7-1.3c-0.8,0.1-1.8,0.6-1.9,1.5l0,0l0,0c0,0.4,0,0.9,0,1.4h-2.9
			c0-0.5,0-1-0.1-1.3c0-0.6-0.3-1-0.7-1.4c-0.6-0.5-1.5-0.7-2.5-0.6l-20.4,0.7c-0.7,0.2-1.9,0.9-1.6,2.5c0.3,1.6,1,3.8,1.1,4
			c0.1,0.2,0.8,0.9,3.7,1.2c3,0.3,17.8,1.4,17.9,1.4c0.1,0,0.1,0,0.2,0c0.7,0,1.9-0.4,2.1-1.8c0.1-0.5,0.1-1.1,0.2-1.7h3
			c0,0.7,0,1.2,0,1.3c0,0.7,0.5,1.4,1.5,1.4c0.9,0,3.9-0.8,4.5-1.3c0.5-0.5,0.6-1.5,0.6-2.5l0-0.4
			C211,196.1,211.1,194.6,209.8,193.9z M200.3,200.2c-0.2,1.1-1.3,1.1-1.4,1.1c-0.1,0-15-1.1-17.9-1.4c-2.2-0.2-2.9-0.7-3.1-0.8
			c-0.1-0.4-0.7-2.4-1-3.7c-0.2-1.1,0.9-1.5,0.9-1.5l20.4-0.7l0,0c0.8-0.1,1.4,0.1,1.8,0.4c0.2,0.2,0.4,0.5,0.4,0.8
			C200.5,195.7,200.5,198.7,200.3,200.2z M201.3,197.7c0-0.4,0-0.9,0-1.3h2.9c0,0.4,0,0.9,0,1.3H201.3z M210.1,197.1l0,0.4
			c0,0.7-0.1,1.7-0.3,1.9c-0.3,0.3-3.1,1.1-3.9,1.1c-0.6,0-0.6-0.4-0.6-0.6c0-0.3-0.1-5.1-0.1-5.7c0.1-0.6,1.1-0.7,1.2-0.8
			c0,0,0,0,0,0c0.4,0,2.5,0.8,3.1,1.2C210.1,195.1,210.2,195.9,210.1,197.1z"/>
		<path class="st0" d="M442.2,50.7L421.8,50c-1-0.1-1.9,0.1-2.5,0.6c-0.4,0.4-0.7,0.9-0.7,1.4c0,0.3,0,0.8-0.1,1.3h-2.9
			c0-0.5,0-1,0-1.4l0,0l0,0c-0.2-0.9-1.1-1.4-1.9-1.5c-0.7-0.1-3.2,1-3.7,1.3c-1.2,0.7-1.2,2.2-1.1,3.2l0,0.4c0,1.1,0.1,2.1,0.6,2.5
			c0.6,0.5,3.6,1.3,4.5,1.3c1,0,1.5-0.7,1.5-1.4c0-0.1,0-0.6,0-1.3h3c0,0.6,0.1,1.2,0.2,1.7c0.3,1.4,1.4,1.8,2.1,1.8
			c0.1,0,0.1,0,0.2,0c0.1,0,15-1.1,17.9-1.4c3-0.3,3.6-1,3.7-1.2c0.1-0.2,0.8-2.4,1.1-4C444.1,51.6,442.9,50.9,442.2,50.7z
			 M414.7,57.6c0,0.2-0.1,0.6-0.6,0.6c-0.8,0-3.6-0.8-3.9-1.1c-0.3-0.2-0.3-1.3-0.3-1.9l0-0.4c-0.1-1.2,0-2,0.7-2.4
			c0.7-0.4,2.8-1.2,3.2-1.2c0.1,0,1,0.2,1.2,0.8C414.8,52.5,414.7,57.3,414.7,57.6z M415.6,55.5c0-0.4,0-0.8,0-1.3h2.9
			c0,0.4,0,0.8,0,1.3H415.6z M443,53c-0.2,1.3-0.8,3.3-1,3.7c-0.1,0.1-0.8,0.6-3.1,0.8c-3,0.3-17.8,1.4-17.9,1.4
			c-0.1,0-1.2,0.1-1.4-1.1c-0.3-1.4-0.2-4.5-0.1-5.8c0-0.3,0.2-0.6,0.4-0.8c0.4-0.3,1.1-0.5,1.8-0.4l0,0l20.4,0.7
			C442.1,51.6,443.2,51.9,443,53z"/>
		<path class="st0" d="M442.2,66.5l-20.4-0.7c-1-0.1-1.9,0.1-2.5,0.6c-0.4,0.4-0.7,0.9-0.7,1.4c0,0.3,0,0.8-0.1,1.3h-2.9
			c0-0.5,0-1,0-1.4l0,0l0,0c-0.2-0.9-1.1-1.4-1.9-1.5c-0.7-0.1-3.2,1-3.7,1.3c-1.2,0.7-1.2,2.2-1.1,3.2l0,0.4c0,1.1,0.1,2.1,0.6,2.5
			c0.6,0.5,3.6,1.3,4.5,1.3c1,0,1.5-0.7,1.5-1.4c0-0.1,0-0.6,0-1.3h3c0,0.6,0.1,1.2,0.2,1.7c0.3,1.4,1.4,1.8,2.1,1.8
			c0.1,0,0.1,0,0.2,0c0.1,0,15-1.1,17.9-1.4c3-0.3,3.6-1,3.7-1.2c0.1-0.2,0.8-2.4,1.1-4C444.1,67.5,442.9,66.7,442.2,66.5z
			 M414.7,73.4c0,0.2-0.1,0.6-0.6,0.6c-0.8,0-3.6-0.8-3.9-1.1c-0.3-0.2-0.3-1.3-0.3-1.9l0-0.4c-0.1-1.2,0-2,0.7-2.4
			c0.7-0.4,2.8-1.2,3.2-1.2c0.1,0,1,0.2,1.2,0.8C414.8,68.3,414.7,73.1,414.7,73.4z M415.6,71.3c0-0.4,0-0.8,0-1.3h2.9
			c0,0.4,0,0.8,0,1.3H415.6z M443,68.8c-0.2,1.3-0.8,3.3-1,3.7c-0.1,0.1-0.8,0.6-3.1,0.8c-3,0.3-17.8,1.4-17.9,1.4
			c-0.1,0-1.2,0.1-1.4-1.1c-0.3-1.4-0.2-4.5-0.1-5.8c0-0.3,0.2-0.6,0.4-0.8c0.4-0.3,1.1-0.5,1.8-0.4l0,0l20.4,0.7
			C442.1,67.4,443.2,67.7,443,68.8z"/>
		<path class="st0" d="M442.2,82.3l-20.4-0.7c-1-0.1-1.9,0.1-2.5,0.6c-0.4,0.4-0.7,0.9-0.7,1.4c0,0.3,0,0.8-0.1,1.3h-2.9
			c0-0.5,0-1,0-1.4l0,0l0,0c-0.2-0.9-1.1-1.4-1.9-1.5c-0.7-0.1-3.2,1-3.7,1.3c-1.2,0.7-1.2,2.2-1.1,3.2l0,0.4c0,1.1,0.1,2.1,0.6,2.5
			c0.6,0.5,3.6,1.3,4.5,1.3c1,0,1.5-0.7,1.5-1.4c0-0.1,0-0.6,0-1.3h3c0,0.6,0.1,1.2,0.2,1.7c0.3,1.4,1.4,1.8,2.1,1.8
			c0.1,0,0.1,0,0.2,0c0.1,0,15-1.1,17.9-1.4c3-0.3,3.6-1,3.7-1.2c0.1-0.2,0.8-2.4,1.1-4C444.1,83.3,442.9,82.5,442.2,82.3z
			 M414.7,89.2c0,0.2-0.1,0.6-0.6,0.6c-0.8,0-3.6-0.8-3.9-1.1c-0.3-0.2-0.3-1.3-0.3-1.9l0-0.4c-0.1-1.2,0-2,0.7-2.4
			c0.7-0.4,2.8-1.2,3.2-1.2c0.1,0,1,0.2,1.2,0.8C414.8,84.1,414.7,88.9,414.7,89.2z M415.6,87.1c0-0.4,0-0.8,0-1.3h2.9
			c0,0.4,0,0.8,0,1.3H415.6z M443,84.7c-0.2,1.3-0.8,3.3-1,3.7c-0.1,0.1-0.8,0.6-3.1,0.8c-3,0.3-17.8,1.4-17.9,1.4
			c-0.1,0-1.2,0.1-1.4-1.1c-0.3-1.4-0.2-4.5-0.1-5.8c0-0.3,0.2-0.6,0.4-0.8c0.4-0.3,1.1-0.5,1.8-0.4l0,0l20.4,0.7
			C442.1,83.2,443.2,83.5,443,84.7z"/>
		<path class="st0" d="M442.2,98.1l-20.4-0.7c-1-0.1-1.9,0.1-2.5,0.6c-0.4,0.4-0.7,0.9-0.7,1.4c0,0.3,0,0.8-0.1,1.3h-2.9
			c0-0.5,0-1,0-1.4l0,0l0,0c-0.2-0.9-1.1-1.4-1.9-1.5c-0.7-0.1-3.2,1-3.7,1.3c-1.2,0.7-1.2,2.2-1.1,3.2l0,0.4c0,1.1,0.1,2.1,0.6,2.5
			c0.6,0.5,3.6,1.3,4.5,1.3c1,0,1.5-0.7,1.5-1.4c0-0.1,0-0.6,0-1.3h3c0,0.6,0.1,1.2,0.2,1.7c0.3,1.4,1.4,1.8,2.1,1.8
			c0.1,0,0.1,0,0.2,0c0.1,0,15-1.1,17.9-1.4c3-0.3,3.6-1,3.7-1.2c0.1-0.2,0.8-2.4,1.1-4C444.1,99.1,442.9,98.3,442.2,98.1z
			 M414.7,105c0,0.2-0.1,0.6-0.6,0.6c-0.8,0-3.6-0.8-3.9-1.1c-0.3-0.2-0.3-1.3-0.3-1.9l0-0.4c-0.1-1.2,0-2,0.7-2.4
			c0.7-0.4,2.8-1.2,3.2-1.2c0.1,0,1,0.2,1.2,0.8C414.8,99.9,414.7,104.7,414.7,105z M415.6,102.9c0-0.4,0-0.8,0-1.3h2.9
			c0,0.4,0,0.8,0,1.3H415.6z M443,100.5c-0.2,1.3-0.8,3.3-1,3.7c-0.1,0.1-0.8,0.6-3.1,0.8c-3,0.3-17.8,1.4-17.9,1.4
			c-0.1,0-1.2,0.1-1.4-1.1c-0.3-1.4-0.2-4.5-0.1-5.8c0-0.3,0.2-0.6,0.4-0.8c0.4-0.3,1.1-0.5,1.8-0.4l0,0l20.4,0.7
			C442.1,99,443.2,99.3,443,100.5z"/>
		<path class="st0" d="M442.2,113.9l-20.4-0.7c-1-0.1-1.9,0.1-2.5,0.6c-0.4,0.4-0.7,0.9-0.7,1.4c0,0.3,0,0.8-0.1,1.3h-2.9
			c0-0.5,0-1,0-1.4l0,0l0,0c-0.2-0.9-1.1-1.4-1.9-1.5c-0.7-0.1-3.2,1-3.7,1.3c-1.2,0.7-1.2,2.2-1.1,3.2l0,0.4c0,1.1,0.1,2.1,0.6,2.5
			c0.6,0.5,3.6,1.3,4.5,1.3c1,0,1.5-0.7,1.5-1.4c0-0.1,0-0.6,0-1.3h3c0,0.6,0.1,1.2,0.2,1.7c0.3,1.4,1.4,1.8,2.1,1.8
			c0.1,0,0.1,0,0.2,0c0.1,0,15-1.1,17.9-1.4c3-0.3,3.6-1,3.7-1.2c0.1-0.2,0.8-2.4,1.1-4C444.1,114.9,442.9,114.1,442.2,113.9z
			 M414.7,120.8c0,0.2-0.1,0.6-0.6,0.6c-0.8,0-3.6-0.8-3.9-1.1c-0.3-0.2-0.3-1.3-0.3-1.9l0-0.4c-0.1-1.2,0-2,0.7-2.4
			c0.7-0.4,2.8-1.2,3.2-1.2c0.1,0,1,0.2,1.2,0.8C414.8,115.7,414.7,120.5,414.7,120.8z M415.6,118.7c0-0.4,0-0.8,0-1.3h2.9
			c0,0.4,0,0.8,0,1.3H415.6z M443,116.3c-0.2,1.3-0.8,3.3-1,3.7c-0.1,0.1-0.8,0.6-3.1,0.8c-3,0.3-17.8,1.4-17.9,1.4
			c-0.1,0-1.2,0.1-1.4-1.1c-0.3-1.4-0.2-4.5-0.1-5.8c0-0.3,0.2-0.6,0.4-0.8c0.4-0.3,1.1-0.5,1.8-0.4l0,0l20.4,0.7
			C442.1,114.8,443.2,115.1,443,116.3z"/>
		<path class="st0" d="M442.2,129.7l-20.4-0.7c-1-0.1-1.9,0.1-2.5,0.6c-0.4,0.4-0.7,0.9-0.7,1.4c0,0.3,0,0.8-0.1,1.3h-2.9
			c0-0.5,0-1,0-1.4l0,0l0,0c-0.2-0.9-1.1-1.4-1.9-1.5c-0.7-0.1-3.2,1-3.7,1.3c-1.2,0.7-1.2,2.2-1.1,3.2l0,0.4c0,1.1,0.1,2.1,0.6,2.5
			c0.6,0.5,3.6,1.3,4.5,1.3c1,0,1.5-0.7,1.5-1.4c0-0.1,0-0.6,0-1.3h3c0,0.6,0.1,1.2,0.2,1.7c0.3,1.4,1.4,1.8,2.1,1.8
			c0.1,0,0.1,0,0.2,0c0.1,0,15-1.1,17.9-1.4c3-0.3,3.6-1,3.7-1.2c0.1-0.2,0.8-2.4,1.1-4C444.1,130.7,442.9,129.9,442.2,129.7z
			 M414.7,136.6c0,0.2-0.1,0.6-0.6,0.6c-0.8,0-3.6-0.8-3.9-1.1c-0.3-0.2-0.3-1.3-0.3-1.9l0-0.4c-0.1-1.2,0-2,0.7-2.4
			c0.7-0.4,2.8-1.2,3.2-1.2c0.1,0,1,0.2,1.2,0.8C414.8,131.6,414.7,136.3,414.7,136.6z M415.6,134.5c0-0.4,0-0.8,0-1.3h2.9
			c0,0.4,0,0.8,0,1.3H415.6z M443,132.1c-0.2,1.3-0.8,3.3-1,3.7c-0.1,0.1-0.8,0.6-3.1,0.8c-3,0.3-17.8,1.4-17.9,1.4
			c-0.1,0-1.2,0.1-1.4-1.1c-0.3-1.4-0.2-4.5-0.1-5.8c0-0.3,0.2-0.6,0.4-0.8c0.4-0.3,1.1-0.5,1.8-0.4l0,0l20.4,0.7
			C442.1,130.6,443.2,130.9,443,132.1z"/>
		<path class="st0" d="M442.2,145.6l-20.4-0.7c-1-0.1-1.9,0.1-2.5,0.6c-0.4,0.4-0.7,0.9-0.7,1.4c0,0.3,0,0.8-0.1,1.3h-2.9
			c0-0.5,0-1,0-1.4l0,0l0,0c-0.2-0.9-1.1-1.4-1.9-1.5c-0.7-0.1-3.2,1-3.7,1.3c-1.2,0.7-1.2,2.2-1.1,3.2l0,0.4c0,1.1,0.1,2.1,0.6,2.5
			c0.6,0.5,3.6,1.3,4.5,1.3c1,0,1.5-0.7,1.5-1.4c0-0.1,0-0.6,0-1.3h3c0,0.6,0.1,1.2,0.2,1.7c0.3,1.4,1.4,1.8,2.1,1.8
			c0.1,0,0.1,0,0.2,0c0.1,0,15-1.1,17.9-1.4c3-0.3,3.6-1,3.7-1.2c0.1-0.2,0.8-2.4,1.1-4C444.1,146.5,442.9,145.7,442.2,145.6z
			 M414.7,152.4c0,0.2-0.1,0.6-0.6,0.6c-0.8,0-3.6-0.8-3.9-1.1c-0.3-0.2-0.3-1.3-0.3-1.9l0-0.4c-0.1-1.2,0-2,0.7-2.4
			c0.7-0.4,2.8-1.2,3.2-1.2c0.1,0,1,0.2,1.2,0.8C414.8,147.4,414.7,152.1,414.7,152.4z M415.6,150.3c0-0.4,0-0.8,0-1.3h2.9
			c0,0.4,0,0.8,0,1.3H415.6z M443,147.9c-0.2,1.3-0.8,3.3-1,3.7c-0.1,0.1-0.8,0.6-3.1,0.8c-3,0.3-17.8,1.4-17.9,1.4
			c-0.1,0-1.2,0.1-1.4-1.1c-0.3-1.4-0.2-4.5-0.1-5.8c0-0.3,0.2-0.6,0.4-0.8c0.4-0.3,1.1-0.5,1.8-0.4l0,0l20.4,0.7
			C442.1,146.4,443.2,146.8,443,147.9z"/>
		<path class="st0" d="M442.2,161.4l-20.4-0.7c-1-0.1-1.9,0.1-2.5,0.6c-0.4,0.4-0.7,0.9-0.7,1.4c0,0.3,0,0.8-0.1,1.3h-2.9
			c0-0.5,0-1,0-1.4l0,0l0,0c-0.2-0.9-1.1-1.4-1.9-1.5c-0.7-0.1-3.2,1-3.7,1.3c-1.2,0.7-1.2,2.2-1.1,3.2l0,0.4c0,1.1,0.1,2.1,0.6,2.5
			c0.6,0.5,3.6,1.3,4.5,1.3c1,0,1.5-0.7,1.5-1.4c0-0.1,0-0.6,0-1.3h3c0,0.6,0.1,1.2,0.2,1.7c0.3,1.4,1.4,1.8,2.1,1.8
			c0.1,0,0.1,0,0.2,0c0.1,0,15-1.1,17.9-1.4c3-0.3,3.6-1,3.7-1.2c0.1-0.2,0.8-2.4,1.1-4C444.1,162.3,442.9,161.5,442.2,161.4z
			 M414.7,168.3c0,0.2-0.1,0.6-0.6,0.6c-0.8,0-3.6-0.8-3.9-1.1c-0.3-0.2-0.3-1.3-0.3-1.9l0-0.4c-0.1-1.2,0-2,0.7-2.4
			c0.7-0.4,2.7-1.2,3.1-1.2c0,0,0,0,0,0c0.1,0,1,0.2,1.2,0.8C414.8,163.2,414.7,167.9,414.7,168.3z M415.6,166.1c0-0.4,0-0.8,0-1.3
			h2.9c0,0.4,0,0.8,0,1.3H415.6z M443,163.7c-0.2,1.3-0.8,3.3-1,3.7c-0.1,0.1-0.8,0.6-3.1,0.8c-3,0.3-17.8,1.4-17.9,1.4
			c-0.1,0-1.2,0.1-1.4-1.1c-0.3-1.4-0.2-4.5-0.1-5.8c0-0.3,0.2-0.6,0.4-0.8c0.4-0.3,1.1-0.5,1.8-0.4l0,0l20.4,0.7
			C442.1,162.2,443.2,162.6,443,163.7z"/>
		<path class="st0" d="M442.2,177.2l-20.4-0.7c-1-0.1-1.9,0.1-2.5,0.6c-0.4,0.4-0.7,0.9-0.7,1.4c0,0.3,0,0.8-0.1,1.3h-2.9
			c0-0.5,0-1,0-1.4l0,0l0,0c-0.2-0.9-1.1-1.4-1.9-1.5c-0.7-0.1-3.2,1-3.7,1.3c-1.2,0.7-1.2,2.2-1.1,3.2l0,0.4c0,1.1,0.1,2.1,0.6,2.5
			c0.6,0.5,3.6,1.3,4.5,1.3c1,0,1.5-0.7,1.5-1.4c0-0.1,0-0.6,0-1.3h3c0,0.6,0.1,1.2,0.2,1.7c0.3,1.4,1.4,1.8,2.1,1.8
			c0.1,0,0.1,0,0.2,0c0.1,0,15-1.1,17.9-1.4c3-0.3,3.6-1,3.7-1.2c0.1-0.2,0.8-2.4,1.1-4C444.1,178.1,442.9,177.4,442.2,177.2z
			 M414.7,184.1c0,0.2-0.1,0.6-0.6,0.6c-0.8,0-3.6-0.8-3.9-1.1c-0.3-0.2-0.3-1.3-0.3-1.9l0-0.4c-0.1-1.2,0-2,0.7-2.4
			c0.7-0.4,2.7-1.2,3.1-1.2c0,0,0,0,0,0c0.1,0,1,0.2,1.2,0.8C414.8,179,414.7,183.7,414.7,184.1z M415.6,181.9c0-0.4,0-0.8,0-1.3
			h2.9c0,0.4,0,0.8,0,1.3H415.6z M443,179.5c-0.2,1.3-0.8,3.3-1,3.7c-0.1,0.1-0.8,0.6-3.1,0.8c-3,0.3-17.8,1.4-17.9,1.4
			c-0.1,0-1.2,0.1-1.4-1.1c-0.3-1.4-0.2-4.5-0.1-5.8c0-0.3,0.2-0.6,0.4-0.8c0.4-0.3,1.1-0.5,1.8-0.4l0,0l20.4,0.7
			C442.1,178,443.2,178.4,443,179.5z"/>
		<path class="st0" d="M442.2,193l-20.4-0.7c-1-0.1-1.9,0.1-2.5,0.6c-0.4,0.4-0.7,0.9-0.7,1.4c0,0.3,0,0.8-0.1,1.3h-2.9
			c0-0.5,0-1,0-1.4l0,0l0,0c-0.2-0.9-1.1-1.4-1.9-1.5c-0.7-0.1-3.2,1-3.7,1.3c-1.2,0.7-1.2,2.2-1.1,3.2l0,0.4c0,1.1,0.1,2.1,0.6,2.5
			c0.6,0.5,3.6,1.3,4.5,1.3c1,0,1.5-0.7,1.5-1.4c0-0.1,0-0.6,0-1.3h3c0,0.6,0.1,1.2,0.2,1.7c0.3,1.4,1.4,1.8,2.1,1.8
			c0.1,0,0.1,0,0.2,0c0.1,0,15-1.1,17.9-1.4c3-0.3,3.6-1,3.7-1.2c0.1-0.2,0.8-2.4,1.1-4C444.1,193.9,442.9,193.2,442.2,193z
			 M414.7,199.9c0,0.1,0,0.6-0.6,0.6c-0.8,0-3.6-0.8-3.9-1.1c-0.3-0.2-0.3-1.3-0.3-1.9l0-0.4c-0.1-1.2,0-2,0.7-2.4
			c0.7-0.4,2.7-1.2,3.1-1.2c0,0,0,0,0,0c0.1,0,1,0.2,1.2,0.8C414.8,194.8,414.7,199.5,414.7,199.9z M415.6,197.7c0-0.4,0-0.8,0-1.3
			h2.9c0,0.4,0,0.8,0,1.3H415.6z M443,195.3c-0.2,1.3-0.8,3.3-1,3.7c-0.1,0.1-0.8,0.6-3.1,0.8c-3,0.3-17.8,1.4-17.9,1.4
			c-0.1,0-1.2,0.1-1.4-1.1c-0.3-1.4-0.2-4.5-0.1-5.8c0-0.3,0.2-0.6,0.4-0.8c0.4-0.3,1.1-0.5,1.8-0.4l0,0l20.4,0.7
			C442.1,193.8,443.2,194.2,443,195.3z"/>
		<rect x="306.5" y="36.7" class="st0" width="2" height="182.3"/>
		<path class="st0" d="M273,302c-2.7-1.7-27.3-2.6-29.6,0.6c-0.7,1.1-0.6,3-0.4,4.3h-2.9v-1.2h-11v5.2h11v-0.8h3.7
			c0.7,1.9,1.7,3.7,2.9,4.5c1.2,0.8,6.7,1.1,12.2,1.1c5.9,0,11.9-0.4,12.5-0.9c0.8-0.7,3.1-6.7,2.9-10.1
			C274.2,303.4,273.7,302.5,273,302z M239.1,309.9h-9v-3.2h9V309.9z M240.1,309.1v-1.2h3.1c0.1,0.4,0.2,0.8,0.3,1.2H240.1z
			 M270.8,314.1c-1.6,0.7-21.4,1.2-23.6-0.2c-1.3-0.8-2.5-3.5-3.1-6.4c-0.4-2-0.3-3.6,0.1-4.2c0.6-0.8,5.1-1.8,13.7-1.8
			c0,0,0.1,0,0.1,0c6.9,0,13.2,0.6,14.4,1.4c0.4,0.3,0.7,0.9,0.8,1.7C273.6,307.9,271.2,313.7,270.8,314.1z"/>
		<path class="st0" d="M273,324.1c-2.7-1.7-27.3-2.6-29.6,0.6c-0.7,1.1-0.6,3-0.4,4.3h-2.9v-1.2h-11v5.2h11v-0.8h3.7
			c0.7,1.9,1.7,3.7,2.9,4.5c1.2,0.8,6.7,1.1,12.2,1.1c5.9,0,11.9-0.4,12.5-0.9c0.8-0.7,3.1-6.7,2.9-10.1
			C274.2,325.5,273.7,324.6,273,324.1z M239.1,332h-9v-3.2h9V332z M240.1,331.3V330h3.1c0.1,0.4,0.2,0.8,0.3,1.2H240.1z
			 M270.8,336.2c-1.6,0.7-21.4,1.2-23.6-0.2c-1.3-0.8-2.5-3.5-3.1-6.4c-0.4-2-0.3-3.6,0.1-4.2c0.6-0.8,5.1-1.8,13.7-1.8
			c0,0,0.1,0,0.1,0c6.9,0,13.2,0.6,14.4,1.4c0.4,0.3,0.7,0.9,0.8,1.7C273.6,330.1,271.2,335.8,270.8,336.2z"/>
		<path class="st0" d="M273,346.2c-2.7-1.7-27.3-2.6-29.6,0.6c-0.7,1.1-0.6,3-0.4,4.3h-2.9v-1.2h-11v5.2h11v-0.8h3.7
			c0.7,1.9,1.7,3.7,2.9,4.5c1.2,0.8,6.7,1.1,12.2,1.1c5.9,0,11.9-0.4,12.5-0.9c0.8-0.7,3.1-6.7,2.9-10.1
			C274.2,347.7,273.7,346.7,273,346.2z M239.1,354.1h-9v-3.2h9V354.1z M240.1,353.4v-1.2h3.1c0.1,0.4,0.2,0.8,0.3,1.2H240.1z
			 M270.8,358.3c-1.6,0.7-21.4,1.2-23.6-0.2c-1.3-0.8-2.5-3.5-3.1-6.4c-0.4-2-0.3-3.6,0.1-4.2c0.6-0.8,5.1-1.8,13.7-1.8
			c0,0,0.1,0,0.1,0c6.9,0,13.2,0.6,14.4,1.4c0.4,0.3,0.7,0.9,0.8,1.7C273.6,352.2,271.2,357.9,270.8,358.3z"/>
	</g>
</g>
<g id="Ebene_3">
	<g>
		<g>
			<circle id="bgnumber_31_" class="st3" cx="403.6" cy="197.4" r="7.1"/>
			<text transform="matrix(1 0 0 1 398.0486 200.8474)" class="st4 st5 st6 button" data-number="19">20</text>
		</g>
		<g>
			<circle id="bgnumber_32_" class="st3" cx="403.6" cy="181.6" r="7.1"/>
			<text transform="matrix(1 0 0 1 398.8538 185.0552)" class="st4 st5 st6 button" data-number="18">19</text>
		</g>
	</g>
	<g>
		<g>
			<circle id="bgnumber_17_" class="st3" cx="403.6" cy="165.4" r="7.1"/>
			<text transform="matrix(1 0 0 1 398.8133 168.8913)" class="st4 st5 st6 button" data-number="17">18</text>
		</g>
		<g>
			<circle id="bgnumber_16_" class="st3" cx="403.6" cy="149.6" r="7.1"/>
			<text transform="matrix(1 0 0 1 399.3134 153.0991)" class="st4 st5 st6 button" data-number="16">17</text>
		</g>
		<g>
			<circle id="bgnumber_15_" class="st3" cx="403.6" cy="133.8" r="7.1"/>
			<text transform="matrix(1 0 0 1 398.8534 137.307)" class="st4 st5 st6 button" data-number="15">16</text>
		</g>
		<g>
			<circle id="bgnumber_14_" class="st3" cx="403.6" cy="118.3" r="7.1"/>
			<text transform="matrix(1 0 0 1 399.0333 121.7322)" class="st4 st5 st6 button" data-number="14">15</text>
		</g>
		<g>
			<circle id="bgnumber_13_" class="st3" cx="403.6" cy="102.4" r="7.1"/>
			<g>
				<text transform="matrix(1 0 0 1 398.8033 105.9084)" class="st4 st5 st6 button" data-number="13">14</text>
			</g>
		</g>
		<g>
			<circle id="bgnumber_12_" class="st3" cx="403.6" cy="86.6" r="7.1"/>
			<text transform="matrix(1 0 0 1 398.9384 90.0846)" class="st4 st5 st6 button" data-number="12">13</text>
		</g>
		<g>
			<circle id="bgnumber_11_" class="st3" cx="403.6" cy="70.8" r="7.1"/>
			<text transform="matrix(1 0 0 1 399.0837 74.3358)" class="st4 st5 st6 button" data-number="11">12</text>
		</g>
		<g>
			<circle id="bgnumber_10_" class="st3" cx="403.6" cy="55" r="7.1"/>
			<text transform="matrix(1 0 0 1 399.7383 58.5119)" class="st4 st5 st6 button" data-number="10">11</text>
		</g>
	</g>
	<g>
		<g>
			<circle id="bgnumber_9_" class="st3" cx="217" cy="197.4" r="7.1"/>
			<text transform="matrix(1 0 0 1 212.0472 200.9263)" class="st4 st5 st6 button" data-number="9">10</text>
		</g>
		<g>
			<circle id="bgnumber_8_" class="st3" cx="217" cy="181.6" r="7.1"/>
			<text transform="matrix(1 0 0 1 211.1623 185.1024)" class="st4 st5 st6 button" data-number="8">09</text>
		</g>
		<g>
			<circle id="bgnumber_7_" class="st3" cx="217" cy="165.7" r="7.1"/>
			<text transform="matrix(1 0 0 1 211.1223 169.2787)" class="st4 st5 st6 button" data-number="7">08</text>
		</g>
		<g>
			<circle id="bgnumber_6_" class="st3" cx="217" cy="149.9" r="7.1"/>
			<text transform="matrix(1 0 0 1 211.6218 153.4548)" class="st4 st5 st6 button" data-number="6">07</text>
		</g>
		<g>
			<circle id="bgnumber_5_" class="st3" cx="217" cy="134.1" r="7.1"/>
			<text transform="matrix(1 0 0 1 211.1624 137.5522)" class="st4 st5 st6 button" data-number="5">06</text>
		</g>
		<g>
			<circle id="bgnumber_4_" class="st3" cx="217" cy="118.3" r="7.1"/>
			<text transform="matrix(1 0 0 1 211.3424 121.7284)" class="st4 st5 st6 button" data-number="4">05</text>
		</g>
		<g>
			<circle id="bgnumber_3_" class="st3" cx="217" cy="102.4" r="7.1"/>
			<text transform="matrix(1 0 0 1 211.1124 105.9047)" class="st4 st5 st6 button" data-number="3">04</text>
		</g>
		<g>
			<circle id="bgnumber_2_" class="st3" cx="217" cy="86.6" r="7.1"/>
			<text transform="matrix(1 0 0 1 211.2474 90.0808)" class="st4 st5 st6 button" data-number="2">03</text>
		</g>
		<g>
			<circle id="bgnumber_1_" class="st3" cx="217" cy="70.8" r="7.1"/>
			<text transform="matrix(1 0 0 1 211.3925 74.257)" class="st4 st5 st6 button" data-number="1">02</text>
		</g>
		<g>
			<circle id="bgnumber" class="st3" cx="217" cy="55" r="7.1"/>
			<text transform="matrix(1 0 0 1 212.0472 58.4331)" class="st4 st5 st6 button" data-number="0">01</text>
		</g>
	</g>
</g>
</svg>
