<?xml version="1.0" encoding="utf-8"?>
<!-- Generator: Adobe Illustrator 21.0.1, SVG Export Plug-In . SVG Version: 6.00 Build 0)  -->
<!DOCTYPE svg PUBLIC "-//W3C//DTD SVG 1.1//EN" "http://www.w3.org/Graphics/SVG/1.1/DTD/svg11.dtd">
<svg version="1.1" xmlns="http://www.w3.org/2000/svg" xmlns:xlink="http://www.w3.org/1999/xlink" x="0px" y="0px"
	 viewBox="0 0 190 363.9" style="enable-background:new 0 0 190 363.9;" xml:space="preserve">
<style type="text/css">
	.button{cursor: pointer}
	.st0{fill:#B3B2B2;}
	.st1{fill:#FFFFFF;}
	.st2{fill:#29AEE4;}
	.st3{font-family:'BrixSansRegular';}
	.st4{font-size:10px;}
</style>
<g id="Ebene_2">
	<g>
		<path class="st0" d="M187.8,5.3l0-0.1c-0.2-1.4-0.6-5.2-5.2-5.2c-4.4,0-172,0.5-173.7,0.5c-0.1,0-0.3,0-0.4,0
			c-1.9,0-5.1-0.1-5.4,3.6C2.9,6.2,2,13.2,1.2,19.4C0.6,24,0.1,28,0,28.8c-0.1,1.1,0,97.2,0.3,285.8c0,9.5,0,15.1,0,15.5
			c0,2.3,1.1,25.8,1.4,27.5l0,0.2c0.3,1.8,1.2,6,5.9,6.2c1,0,8.4,0,20,0c36.6,0,114-0.1,152.4-0.2c1.9,0,2.9,0,3,0
			c0.6,0,4.5-0.9,4.9-4.5c0.3-3.2,1.9-26.6,1.9-28.9c0-1.1,0-66.1,0.1-134.9c0-76.1,0.1-154.8,0.1-156.3
			C190,36.6,187.9,6.7,187.8,5.3z M189.4,195.4c0,68.8-0.1,133.9-0.1,134.9c0,2.3-1.6,25.6-1.9,28.8c-0.3,3.2-3.9,4.1-4.4,4.1
			c0,0-1.1,0-3,0c-50.5,0.1-168.4,0.3-172.3,0.2c-4.4-0.1-5.1-4.1-5.5-5.8l0-0.2C2,355.9,0.8,333,0.8,330c0-0.3,0-6,0-15.5
			C0.5,126.1,0.4,29.9,0.5,28.8C0.6,28,1.1,24,1.7,19.4C2.5,13.2,3.4,6.2,3.5,4.1C3.8,1.2,6.1,1,7.9,1c0.2,0,0.3,0,0.5,0
			c0.1,0,0.3,0,0.4,0h0c1.7,0,169.3-0.5,173.7-0.5c4.1,0,4.5,3.3,4.7,4.8l0,0.1c0.2,1.4,2.2,31.3,2.2,33.8
			C189.5,40.6,189.5,119.3,189.4,195.4z"/>
		<path class="st0" d="M170.4,20.3C169.9,18,168,14,160,13.8c-9.3-0.3-127.1,0.2-128.3,0.2h0c-3.3,0-10.9,0.4-11.5,4.4
			c-0.4,2.9-0.9,8.5-1.1,11.2L19,30.2c-0.2,2-0.8,27.9-0.8,30.8c0,2.4,0.8,248.9,1,251.2c0,0.2,0,0.4,0,0.7
			c0.1,3.1,0.4,11.3,10.4,11.5c10.8,0.2,126.1,0.3,131,0.3c1.3,0,3.8-0.9,6-2.6c1.8-1.5,4.1-4.1,4.1-7.9
			c0.2-6.9,0.6-265.8,0.6-268.2C171.3,43.6,170.5,21.2,170.4,20.3L170.4,20.3z M170.6,314.1c-0.2,7.2-7.7,10.5-10,10.5
			c-4.9,0-120.2-0.2-131-0.3c-9.9-0.1-10.2-8.3-10.3-11.4c0-0.3,0-0.5,0-0.7c-0.2-2.3-1-248.8-1-251.2c0-2.8,0.6-28.7,0.8-30.8
			l0.1-0.8c0.2-2.7,0.6-8.3,1.1-11.2c0.6-3.8,8.2-4.3,11.4-4.3h0c1.2,0,119-0.5,128.3-0.2c7.9,0.3,9.9,4.1,10.3,6.4l0,0.1
			c0.2,0.8,1,23.3,1,25.5C171.2,48.3,170.7,307.1,170.6,314.1z"/>
		<path class="st0" d="M106.7,78.1c-4.4,0-67.9,0.2-68.5,0.2c-2.2,0-5.6,2-5.8,5c-0.1,2.6,0.8,215.3,1,216.8
			c0.5,4.1,3.1,4.9,5.3,4.9c1.1,0,5.8,0,12.3,0c19,0.1,38.8,0.2,49.2,0.2c4.3,0,7,0,7.2,0c1-0.1,4.8-1.4,5.1-4.9
			c0.3-2.7,0.1-215.7-0.2-217C111.7,79.9,109.7,78.1,106.7,78.1z M112.1,300.2c-0.3,3.3-3.9,4.5-4.8,4.6c-0.8,0.1-37,0-56.4-0.1
			c-6.5,0-11.2,0-12.3,0c-2.9,0-4.6-1.6-4.9-4.6c-0.2-1.5-1.1-214.2-1-216.7c0.1-2.7,3.3-4.6,5.4-4.6h0c0.6,0,64.1-0.2,68.5-0.2
			c2.8,0,4.6,1.7,5.2,4.8C112.2,85.2,112.3,298.1,112.1,300.2z"/>
		<path class="st0" d="M107.2,82.9c-0.8,0-67.4,0.3-68.1,0.3c-1.5,0-3.1,0.6-3.2,2.4c-0.1,1,0.2,72.5,0.8,206.6c0,5.1,0,7.9,0,7.9
			c0,0.7,0.3,1.8,1.7,1.8c0.2,0,1.9,0,4.8,0c11.7,0.1,41.6,0.2,55.6,0.2c4.4,0,7.2,0,7.4,0c0.8-0.1,2.6-0.7,2.8-2.9
			c0.1-1.1,0.2-56.5,0.3-107.6c0.1-52.8,0.1-106.2,0-106.5C109,84.5,108.1,82.9,107.2,82.9z M109,191.9c-0.1,51-0.2,106.3-0.3,107.4
			c-0.2,2.2-1.9,2.7-2.7,2.8c-0.8,0.1-47.5-0.1-62.9-0.1c-2.9,0-4.6,0-4.8,0c-1.2,0-1.5-1.1-1.5-1.7c0-0.1,0-2.9,0-7.9
			C36,122.8,36,86.4,36,85.7c0.2-1.7,1.7-2.3,3.1-2.3h0c0.7,0,67.3-0.3,68.1-0.3c0.7,0,1.7,1.6,1.9,2.2
			C109.1,85.8,109.1,140.9,109,191.9z"/>
		<rect x="39.8" y="99.4" class="st0" width="65" height="4.5"/>
		<rect x="39.8" y="117.3" class="st0" width="65" height="4.5"/>
		<rect x="39.8" y="135.3" class="st0" width="65" height="4.5"/>
		<rect x="39.8" y="153.2" class="st0" width="65" height="4.5"/>
		<rect x="39.8" y="171.1" class="st0" width="65" height="4.5"/>
		<rect x="39.8" y="189" class="st0" width="65" height="4.5"/>
		<rect x="39.8" y="207" class="st0" width="65" height="4.5"/>
		<rect x="39.8" y="224.9" class="st0" width="65" height="4.5"/>
		<rect x="39.8" y="242.8" class="st0" width="65" height="4.5"/>
		<rect x="39.8" y="260.8" class="st0" width="65" height="4.5"/>
		<rect x="39.8" y="278.7" class="st0" width="65" height="4.5"/>
		<path class="st0" d="M151.3,86.3h-24.1c-0.8,0-1.5,0.7-1.5,1.5V95c0,0.8,0.7,1.5,1.5,1.5h24.1c1.6,0,2.8-1.3,2.8-2.8v-4.5
			C154.1,87.6,152.8,86.3,151.3,86.3z M153.9,93.7c0,1.4-1.2,2.6-2.6,2.6h-24.1c-0.7,0-1.2-0.6-1.2-1.2v-7.2c0-0.7,0.6-1.2,1.2-1.2
			h24.1c1.4,0,2.6,1.2,2.6,2.6V93.7z"/>
		<rect x="132.4" y="91.3" class="st0" width="14.9" height="0.2"/>
		<path class="st0" d="M151.3,104.6h-24.1c-0.8,0-1.5,0.7-1.5,1.5v7.2c0,0.8,0.7,1.5,1.5,1.5h24.1c1.6,0,2.8-1.3,2.8-2.8v-4.5
			C154.1,105.9,152.8,104.6,151.3,104.6z M153.9,112c0,1.4-1.2,2.6-2.6,2.6h-24.1c-0.7,0-1.2-0.6-1.2-1.2v-7.2
			c0-0.7,0.6-1.2,1.2-1.2h24.1c1.4,0,2.6,1.2,2.6,2.6V112z"/>
		<rect x="132.4" y="109.6" class="st0" width="14.9" height="0.2"/>
		<path class="st0" d="M151.3,122.9h-24.1c-0.8,0-1.5,0.7-1.5,1.5v7.2c0,0.8,0.7,1.5,1.5,1.5h24.1c1.6,0,2.8-1.3,2.8-2.8v-4.5
			C154.1,124.2,152.8,122.9,151.3,122.9z M153.9,130.2c0,1.4-1.2,2.6-2.6,2.6h-24.1c-0.7,0-1.2-0.6-1.2-1.2v-7.2
			c0-0.7,0.6-1.2,1.2-1.2h24.1c1.4,0,2.6,1.2,2.6,2.6V130.2z"/>
		<rect x="132.4" y="127.9" class="st0" width="14.9" height="0.2"/>
		<path class="st0" d="M151.3,141.2h-24.1c-0.8,0-1.5,0.7-1.5,1.5v7.2c0,0.8,0.7,1.5,1.5,1.5h24.1c1.6,0,2.8-1.3,2.8-2.8V144
			C154.1,142.5,152.8,141.2,151.3,141.2z M153.9,148.5c0,1.4-1.2,2.6-2.6,2.6h-24.1c-0.7,0-1.2-0.6-1.2-1.2v-7.2
			c0-0.7,0.6-1.2,1.2-1.2h24.1c1.4,0,2.6,1.2,2.6,2.6V148.5z"/>
		<rect x="132.4" y="146.2" class="st0" width="14.9" height="0.2"/>
		<path class="st0" d="M151.3,159.5h-24.1c-0.8,0-1.5,0.7-1.5,1.5v7.2c0,0.8,0.7,1.5,1.5,1.5h24.1c1.6,0,2.8-1.3,2.8-2.8v-4.5
			C154.1,160.7,152.8,159.5,151.3,159.5z M153.9,166.8c0,1.4-1.2,2.6-2.6,2.6h-24.1c-0.7,0-1.2-0.6-1.2-1.2V161
			c0-0.7,0.6-1.2,1.2-1.2h24.1c1.4,0,2.6,1.2,2.6,2.6V166.8z"/>
		<rect x="132.4" y="164.4" class="st0" width="14.9" height="0.2"/>
		<path class="st0" d="M151.3,177.8h-24.1c-0.8,0-1.5,0.7-1.5,1.5v7.2c0,0.8,0.7,1.5,1.5,1.5h24.1c1.6,0,2.8-1.3,2.8-2.8v-4.5
			C154.1,179,152.8,177.8,151.3,177.8z M153.9,185.1c0,1.4-1.2,2.6-2.6,2.6h-24.1c-0.7,0-1.2-0.6-1.2-1.2v-7.2
			c0-0.7,0.6-1.2,1.2-1.2h24.1c1.4,0,2.6,1.2,2.6,2.6V185.1z"/>
		<rect x="132.4" y="182.7" class="st0" width="14.9" height="0.2"/>
		<path class="st0" d="M151.3,196h-24.1c-0.8,0-1.5,0.7-1.5,1.5v7.2c0,0.8,0.7,1.5,1.5,1.5h24.1c1.6,0,2.8-1.3,2.8-2.8v-4.5
			C154.1,197.3,152.8,196,151.3,196z M153.9,203.4c0,1.4-1.2,2.6-2.6,2.6h-24.1c-0.7,0-1.2-0.6-1.2-1.2v-7.2c0-0.7,0.6-1.2,1.2-1.2
			h24.1c1.4,0,2.6,1.2,2.6,2.6V203.4z"/>
		<rect x="132.4" y="201" class="st0" width="14.9" height="0.2"/>
		<path class="st0" d="M151.3,214.3h-24.1c-0.8,0-1.5,0.7-1.5,1.5v7.2c0,0.8,0.7,1.5,1.5,1.5h24.1c1.6,0,2.8-1.3,2.8-2.8v-4.5
			C154.1,215.6,152.8,214.3,151.3,214.3z M153.9,221.7c0,1.4-1.2,2.6-2.6,2.6h-24.1c-0.7,0-1.2-0.6-1.2-1.2v-7.2
			c0-0.7,0.6-1.2,1.2-1.2h24.1c1.4,0,2.6,1.2,2.6,2.6V221.7z"/>
		<rect x="132.4" y="219.3" class="st0" width="14.9" height="0.2"/>
		<path class="st0" d="M151.3,232.6h-24.1c-0.8,0-1.5,0.7-1.5,1.5v7.2c0,0.8,0.7,1.5,1.5,1.5h24.1c1.6,0,2.8-1.3,2.8-2.8v-4.5
			C154.1,233.9,152.8,232.6,151.3,232.6z M153.9,239.9c0,1.4-1.2,2.6-2.6,2.6h-24.1c-0.7,0-1.2-0.6-1.2-1.2v-7.2
			c0-0.7,0.6-1.2,1.2-1.2h24.1c1.4,0,2.6,1.2,2.6,2.6V239.9z"/>
		<rect x="132.4" y="237.6" class="st0" width="14.9" height="0.2"/>
		<path class="st0" d="M151.3,250.9h-24.1c-0.8,0-1.5,0.7-1.5,1.5v7.2c0,0.8,0.7,1.5,1.5,1.5h24.1c1.6,0,2.8-1.3,2.8-2.8v-4.5
			C154.1,252.2,152.8,250.9,151.3,250.9z M153.9,258.2c0,1.4-1.2,2.6-2.6,2.6h-24.1c-0.7,0-1.2-0.6-1.2-1.2v-7.2
			c0-0.7,0.6-1.2,1.2-1.2h24.1c1.4,0,2.6,1.2,2.6,2.6V258.2z"/>
		<rect x="132.4" y="255.9" class="st0" width="14.9" height="0.2"/>
		<path class="st0" d="M151.3,269.2h-24.1c-0.8,0-1.5,0.7-1.5,1.5v7.2c0,0.8,0.7,1.5,1.5,1.5h24.1c1.6,0,2.8-1.3,2.8-2.8V272
			C154.1,270.4,152.8,269.2,151.3,269.2z M153.9,276.5c0,1.4-1.2,2.6-2.6,2.6h-24.1c-0.7,0-1.2-0.6-1.2-1.2v-7.2
			c0-0.7,0.6-1.2,1.2-1.2h24.1c1.4,0,2.6,1.2,2.6,2.6V276.5z"/>
		<rect x="132.4" y="274.1" class="st0" width="14.9" height="0.2"/>
		<path class="st0" d="M151.3,287.5h-24.1c-0.8,0-1.5,0.7-1.5,1.5v7.2c0,0.8,0.7,1.5,1.5,1.5h24.1c1.6,0,2.8-1.3,2.8-2.8v-4.5
			C154.1,288.7,152.8,287.5,151.3,287.5z M153.9,294.8c0,1.4-1.2,2.6-2.6,2.6h-24.1c-0.7,0-1.2-0.6-1.2-1.2v-7.2
			c0-0.7,0.6-1.2,1.2-1.2h24.1c1.4,0,2.6,1.2,2.6,2.6V294.8z"/>
		<rect x="132.4" y="292.4" class="st0" width="14.9" height="0.2"/>
	</g>
</g>
<g id="Ebene_3">
	<g>
		<circle id="bgnumber_11_" class="st1" cx="113.3" cy="293.2" r="7.1"/>
		<text transform="matrix(1 0 0 1 108.7887 296.7039)" class="st2 st3 st4 button" data-number="11">12</text>
	</g>
	<g>
		<circle id="bgnumber_10_" class="st1" cx="113.3" cy="274.8" r="7.1"/>
		<text transform="matrix(1 0 0 1 109.4432 278.3522)" class="st2 st3 st4 button" data-number="10">11</text>
	</g>
	<g>
		<circle id="bgnumber_9_" class="st1" cx="113.3" cy="256.5" r="7.1"/>
		<text transform="matrix(1 0 0 1 108.3352 260.039)" class="st2 st3 st4 button" data-number="9">10</text>
	</g>
	<g>
		<circle id="bgnumber_8_" class="st1" cx="113.3" cy="238.2" r="7.1"/>
		<text transform="matrix(1 0 0 1 107.4503 241.6874)" class="st2 st3 st4 button" data-number="8">09</text>
	</g>
	<g>
		<circle id="bgnumber_7_" class="st1" cx="113.3" cy="219.9" r="7.1"/>
		<text transform="matrix(1 0 0 1 107.4103 223.4359)" class="st2 st3 st4 button" data-number="7">08</text>
	</g>
	<g>
		<circle id="bgnumber_6_" class="st1" cx="113.3" cy="201.5" r="7.1"/>
		<text transform="matrix(1 0 0 1 107.9098 205.0842)" class="st2 st3 st4 button" data-number="6">07</text>
	</g>
	<g>
		<circle id="bgnumber_5_" class="st1" cx="113.3" cy="183.2" r="7.1"/>
		<text transform="matrix(1 0 0 1 107.4504 186.6538)" class="st2 st3 st4 button" data-number="5">06</text>
	</g>
	<g>
		<circle id="bgnumber_4_" class="st1" cx="113.3" cy="164.9" r="7.1"/>
		<text transform="matrix(1 0 0 1 107.6304 168.3023)" class="st2 st3 st4 button" data-number="4">05</text>
	</g>
	<g>
		<circle id="bgnumber_3_" class="st1" cx="113.3" cy="146.5" r="7.1"/>
		<text transform="matrix(1 0 0 1 107.4004 150.0508)" class="st2 st3 st4 button" data-number="3">04</text>
	</g>
	<g>
		<circle id="bgnumber_2_" class="st1" cx="113.3" cy="128.2" r="7.1"/>
		<text transform="matrix(1 0 0 1 107.5354 131.6992)" class="st2 st3 st4 button" data-number="2">03</text>
	</g>
	<g>
		<circle id="bgnumber_1_" class="st1" cx="113.3" cy="109.9" r="7.1"/>
		<text transform="matrix(1 0 0 1 107.6805 113.3478)" class="st2 st3 st4 button" data-number="1">02</text>
	</g>
	<g>
		<circle id="bgnumber" class="st1" cx="113.3" cy="91.6" r="7.1"/>
		<text transform="matrix(1 0 0 1 108.3352 94.9961)" class="st2 st3 st4 button" data-number="0">01</text>
	</g>
</g>
</svg>
