<?xml version="1.0" encoding="utf-8"?>
<!-- Generator: Adobe Illustrator 21.0.1, SVG Export Plug-In . SVG Version: 6.00 Build 0)  -->
<!DOCTYPE svg PUBLIC "-//W3C//DTD SVG 1.1//EN" "http://www.w3.org/Graphics/SVG/1.1/DTD/svg11.dtd">
<svg version="1.1" xmlns="http://www.w3.org/2000/svg" xmlns:xlink="http://www.w3.org/1999/xlink" x="0px" y="0px"
	 viewBox="0 0 180 484" style="enable-background:new 0 0 180 484;" xml:space="preserve">
<style type="text/css">
	.button{cursor: pointer}
	.st0{fill:#B3B2B2;}
	.st1{fill:#FFFFFF;}
	.st2{fill:#29AEE4;}
	.st3{font-family:'BrixSansRegular';}
	.st4{font-size:10px;}
</style>
<g id="Ebene_2">
	<g>
		<path class="st0" d="M172.6,0H7.4C3.3,0,0,3.3,0,7.4v469.3c0,4.1,3.3,7.4,7.4,7.4h165.3c4.1,0,7.4-3.3,7.4-7.4V7.4
			C180,3.3,176.7,0,172.6,0z M176.2,476.7c0,1.9-1.6,3.5-3.5,3.5H7.4c-1.9,0-3.5-1.6-3.5-3.5V7.4c0-1.9,1.6-3.5,3.5-3.5h165.3
			c1.9,0,3.5,1.6,3.5,3.5V476.7z"/>
		<path class="st0" d="M142.8,29.1H37.2c-6.2,0-11.3,5.1-11.3,11.3v376.8c0,11.8,9.6,21.5,21.5,21.5h85.3c11.8,0,21.5-9.6,21.5-21.5
			V40.5C154.1,34.2,149.1,29.1,142.8,29.1z M153.2,417.3c0,11.3-9.2,20.6-20.6,20.6H47.3c-11.3,0-20.6-9.2-20.6-20.6V40.5
			c0-5.7,4.7-10.4,10.4-10.4h105.6c5.7,0,10.4,4.7,10.4,10.4V417.3z"/>
		<path class="st0" d="M36.5,125.5l0.4,0.1c1.5,0.2,2.6,1.5,2.6,3c0,1.5-1.1,2.8-2.6,3l-0.4,0.1V268l0.4,0.1c1.5,0.2,2.6,1.5,2.6,3
			s-1.1,2.8-2.6,3l-0.4,0.1v136.3l0.4,0.1c1.5,0.2,2.6,1.5,2.6,3c0,1.5-1.1,2.8-2.6,3l-0.4,0.1v6.2c0,4.5,3.6,8.1,8.1,8.1h71.2
			v-14.3l-0.3-0.1c-1.3-0.4-2.2-1.6-2.2-2.9c0-1.3,0.9-2.5,2.2-2.9l0.3-0.1V274.1l-0.3-0.1c-1.3-0.4-2.2-1.6-2.2-2.9
			s0.9-2.5,2.2-2.9l0.3-0.1V131.5l-0.3-0.1c-1.3-0.4-2.2-1.6-2.2-2.9c0-1.3,0.9-2.5,2.2-2.9l0.3-0.1v-14.6H36.5V125.5z M114.8,417.1
			v12.7H44.6c-3.9,0-7.1-3.2-7.1-7.1v-5.4c1.6-0.4,2.7-1.7,2.9-3.3h72C112.5,415.4,113.5,416.6,114.8,417.1z M114.8,274.8v12.8H37.5
			v1.9h77.4v15.9H37.5v1.9h77.4v15.9H37.5v1.9h77.4v15.9H37.5v1.9h77.4v15.9H37.5v1.9h77.4v15.9H37.5v1.9h77.4v15.9H37.5v1.9h77.4
			v13.6c-1.1,0.4-1.8,1.3-2.2,2.3H40.2c-0.5-1.2-1.5-2.1-2.7-2.4V274.9c1.6-0.4,2.7-1.7,2.9-3.2h72
			C112.6,273.1,113.5,274.2,114.8,274.8z M114.8,132.2v13.1H37.5v1.9h77.4v15.9H37.5v1.9h77.4v15.9H37.5v1.9h77.4v15.9H37.5v1.9
			h77.4v15.9H37.5v1.9h77.4v15.9H37.5v1.9h77.4V252H37.5v1.9h77.4v13.5c-1.1,0.4-1.9,1.3-2.3,2.4H40.2c-0.4-1.2-1.5-2.2-2.8-2.5
			V132.4c1.5-0.4,2.5-1.5,2.9-2.9h72.1C112.7,130.7,113.6,131.7,114.8,132.2z M37.4,111.9h77.4v13c-1.2,0.5-2.1,1.5-2.4,2.7H40.3
			c-0.4-1.4-1.4-2.5-2.9-2.8V111.9z"/>
		<path class="st0" d="M141.7,113.9h-19.8c-0.9,0-1.6,0.7-1.6,1.6v8.1c0,0.9,0.7,1.6,1.6,1.6h19.8c2.1,0,3.7-1.7,3.7-3.7v-3.8
			C145.4,115.6,143.7,113.9,141.7,113.9z M144.5,121.4c0,1.5-1.3,2.8-2.8,2.8h-19.8c-0.3,0-0.6-0.3-0.6-0.6v-8.1
			c0-0.3,0.3-0.6,0.6-0.6h19.8c1.5,0,2.8,1.3,2.8,2.8V121.4z"/>
		<rect x="125.6" y="119.1" class="st0" width="14.3" height="0.9"/>
		<path class="st0" d="M141.7,131.8h-19.8c-0.9,0-1.6,0.7-1.6,1.6v8.1c0,0.9,0.7,1.6,1.6,1.6h19.8c2.1,0,3.7-1.7,3.7-3.7v-3.8
			C145.4,133.4,143.7,131.8,141.7,131.8z M144.5,139.3c0,1.5-1.3,2.8-2.8,2.8h-19.8c-0.3,0-0.6-0.3-0.6-0.6v-8.1
			c0-0.3,0.3-0.6,0.6-0.6h19.8c1.5,0,2.8,1.3,2.8,2.8V139.3z"/>
		<rect x="125.6" y="136.9" class="st0" width="14.3" height="0.9"/>
		<path class="st0" d="M141.7,149.6h-19.8c-0.9,0-1.6,0.7-1.6,1.6v8.1c0,0.9,0.7,1.6,1.6,1.6h19.8c2.1,0,3.7-1.7,3.7-3.7v-3.8
			C145.4,151.2,143.7,149.6,141.7,149.6z M144.5,157.1c0,1.5-1.3,2.8-2.8,2.8h-19.8c-0.3,0-0.6-0.3-0.6-0.6v-8.1
			c0-0.3,0.3-0.6,0.6-0.6h19.8c1.5,0,2.8,1.3,2.8,2.8V157.1z"/>
		<rect x="125.6" y="154.7" class="st0" width="14.3" height="0.9"/>
		<path class="st0" d="M141.7,167.4h-19.8c-0.9,0-1.6,0.7-1.6,1.6v8.1c0,0.9,0.7,1.6,1.6,1.6h19.8c2.1,0,3.7-1.7,3.7-3.7v-3.8
			C145.4,169.1,143.7,167.4,141.7,167.4z M144.5,174.9c0,1.5-1.3,2.8-2.8,2.8h-19.8c-0.3,0-0.6-0.3-0.6-0.6v-8.1
			c0-0.3,0.3-0.6,0.6-0.6h19.8c1.5,0,2.8,1.3,2.8,2.8V174.9z"/>
		<rect x="125.6" y="172.5" class="st0" width="14.3" height="0.9"/>
		<path class="st0" d="M141.7,185.2h-19.8c-0.9,0-1.6,0.7-1.6,1.6v8.1c0,0.9,0.7,1.6,1.6,1.6h19.8c2.1,0,3.7-1.7,3.7-3.7v-3.8
			C145.4,186.9,143.7,185.2,141.7,185.2z M144.5,192.7c0,1.5-1.3,2.8-2.8,2.8h-19.8c-0.3,0-0.6-0.3-0.6-0.6v-8.1
			c0-0.3,0.3-0.6,0.6-0.6h19.8c1.5,0,2.8,1.3,2.8,2.8V192.7z"/>
		<rect x="125.6" y="190.3" class="st0" width="14.3" height="0.9"/>
		<path class="st0" d="M141.7,203h-19.8c-0.9,0-1.6,0.7-1.6,1.6v8.1c0,0.9,0.7,1.6,1.6,1.6h19.8c2.1,0,3.7-1.7,3.7-3.7v-3.8
			C145.4,204.7,143.7,203,141.7,203z M144.5,210.5c0,1.5-1.3,2.8-2.8,2.8h-19.8c-0.3,0-0.6-0.3-0.6-0.6v-8.1c0-0.3,0.3-0.6,0.6-0.6
			h19.8c1.5,0,2.8,1.3,2.8,2.8V210.5z"/>
		<rect x="125.6" y="208.2" class="st0" width="14.3" height="0.9"/>
		<path class="st0" d="M141.7,220.8h-19.8c-0.9,0-1.6,0.7-1.6,1.6v8.1c0,0.9,0.7,1.6,1.6,1.6h19.8c2.1,0,3.7-1.7,3.7-3.7v-3.8
			C145.4,222.5,143.7,220.8,141.7,220.8z M144.5,228.3c0,1.5-1.3,2.8-2.8,2.8h-19.8c-0.3,0-0.6-0.3-0.6-0.6v-8.1
			c0-0.3,0.3-0.6,0.6-0.6h19.8c1.5,0,2.8,1.3,2.8,2.8V228.3z"/>
		<rect x="125.6" y="226" class="st0" width="14.3" height="0.9"/>
		<path class="st0" d="M141.7,238.6h-19.8c-0.9,0-1.6,0.7-1.6,1.6v8.1c0,0.9,0.7,1.6,1.6,1.6h19.8c2.1,0,3.7-1.7,3.7-3.7v-3.8
			C145.4,240.3,143.7,238.6,141.7,238.6z M144.5,246.1c0,1.5-1.3,2.8-2.8,2.8h-19.8c-0.3,0-0.6-0.3-0.6-0.6v-8.1
			c0-0.3,0.3-0.6,0.6-0.6h19.8c1.5,0,2.8,1.3,2.8,2.8V246.1z"/>
		<rect x="125.6" y="243.8" class="st0" width="14.3" height="0.9"/>
		<path class="st0" d="M141.7,256.5h-19.8c-0.9,0-1.6,0.7-1.6,1.6v8.1c0,0.9,0.7,1.6,1.6,1.6h19.8c2.1,0,3.7-1.7,3.7-3.7v-3.8
			C145.4,258.1,143.7,256.5,141.7,256.5z M144.5,264c0,1.5-1.3,2.8-2.8,2.8h-19.8c-0.3,0-0.6-0.3-0.6-0.6V258c0-0.3,0.3-0.6,0.6-0.6
			h19.8c1.5,0,2.8,1.3,2.8,2.8V264z"/>
		<rect x="125.6" y="261.6" class="st0" width="14.3" height="0.9"/>
		<path class="st0" d="M141.7,274.3h-19.8c-0.9,0-1.6,0.7-1.6,1.6v8.1c0,0.9,0.7,1.6,1.6,1.6h19.8c2.1,0,3.7-1.7,3.7-3.7V278
			C145.4,275.9,143.7,274.3,141.7,274.3z M144.5,281.8c0,1.5-1.3,2.8-2.8,2.8h-19.8c-0.3,0-0.6-0.3-0.6-0.6v-8.1
			c0-0.3,0.3-0.6,0.6-0.6h19.8c1.5,0,2.8,1.3,2.8,2.8V281.8z"/>
		<rect x="125.6" y="279.4" class="st0" width="14.3" height="0.9"/>
		<path class="st0" d="M141.7,292.1h-19.8c-0.9,0-1.6,0.7-1.6,1.6v8.1c0,0.9,0.7,1.6,1.6,1.6h19.8c2.1,0,3.7-1.7,3.7-3.7v-3.8
			C145.4,293.8,143.7,292.1,141.7,292.1z M144.5,299.6c0,1.5-1.3,2.8-2.8,2.8h-19.8c-0.3,0-0.6-0.3-0.6-0.6v-8.1
			c0-0.3,0.3-0.6,0.6-0.6h19.8c1.5,0,2.8,1.3,2.8,2.8V299.6z"/>
		<rect x="125.6" y="297.2" class="st0" width="14.3" height="0.9"/>
		<path class="st0" d="M141.7,309.9h-19.8c-0.9,0-1.6,0.7-1.6,1.6v8.1c0,0.9,0.7,1.6,1.6,1.6h19.8c2.1,0,3.7-1.7,3.7-3.7v-3.8
			C145.4,311.6,143.7,309.9,141.7,309.9z M144.5,317.4c0,1.5-1.3,2.8-2.8,2.8h-19.8c-0.3,0-0.6-0.3-0.6-0.6v-8.1
			c0-0.3,0.3-0.6,0.6-0.6h19.8c1.5,0,2.8,1.3,2.8,2.8V317.4z"/>
		<rect x="125.6" y="315" class="st0" width="14.3" height="0.9"/>
		<path class="st0" d="M141.7,327.7h-19.8c-0.9,0-1.6,0.7-1.6,1.6v8.1c0,0.9,0.7,1.6,1.6,1.6h19.8c2.1,0,3.7-1.7,3.7-3.7v-3.8
			C145.4,329.4,143.7,327.7,141.7,327.7z M144.5,335.2c0,1.5-1.3,2.8-2.8,2.8h-19.8c-0.3,0-0.6-0.3-0.6-0.6v-8.1
			c0-0.3,0.3-0.6,0.6-0.6h19.8c1.5,0,2.8,1.3,2.8,2.8V335.2z"/>
		<rect x="125.6" y="332.9" class="st0" width="14.3" height="0.9"/>
		<path class="st0" d="M141.7,345.5h-19.8c-0.9,0-1.6,0.7-1.6,1.6v8.1c0,0.9,0.7,1.6,1.6,1.6h19.8c2.1,0,3.7-1.7,3.7-3.7v-3.8
			C145.4,347.2,143.7,345.5,141.7,345.5z M144.5,353c0,1.5-1.3,2.8-2.8,2.8h-19.8c-0.3,0-0.6-0.3-0.6-0.6v-8.1
			c0-0.3,0.3-0.6,0.6-0.6h19.8c1.5,0,2.8,1.3,2.8,2.8V353z"/>
		<rect x="125.6" y="350.7" class="st0" width="14.3" height="0.9"/>
		<path class="st0" d="M141.7,363.3h-19.8c-0.9,0-1.6,0.7-1.6,1.6v8.1c0,0.9,0.7,1.6,1.6,1.6h19.8c2.1,0,3.7-1.7,3.7-3.7v-3.8
			C145.4,365,143.7,363.3,141.7,363.3z M144.5,370.8c0,1.5-1.3,2.8-2.8,2.8h-19.8c-0.3,0-0.6-0.3-0.6-0.6v-8.1
			c0-0.3,0.3-0.6,0.6-0.6h19.8c1.5,0,2.8,1.3,2.8,2.8V370.8z"/>
		<rect x="125.6" y="368.5" class="st0" width="14.3" height="0.9"/>
		<path class="st0" d="M141.7,381.1h-19.8c-0.9,0-1.6,0.7-1.6,1.6v8.1c0,0.9,0.7,1.6,1.6,1.6h19.8c2.1,0,3.7-1.7,3.7-3.7v-3.8
			C145.4,382.8,143.7,381.1,141.7,381.1z M144.5,388.6c0,1.5-1.3,2.8-2.8,2.8h-19.8c-0.3,0-0.6-0.3-0.6-0.6v-8.1
			c0-0.3,0.3-0.6,0.6-0.6h19.8c1.5,0,2.8,1.3,2.8,2.8V388.6z"/>
		<rect x="125.6" y="386.3" class="st0" width="14.3" height="0.9"/>
		<path class="st0" d="M141.7,399h-19.8c-0.9,0-1.6,0.7-1.6,1.6v8.1c0,0.9,0.7,1.6,1.6,1.6h19.8c2.1,0,3.7-1.7,3.7-3.7v-3.8
			C145.4,400.6,143.7,399,141.7,399z M144.5,406.5c0,1.5-1.3,2.8-2.8,2.8h-19.8c-0.3,0-0.6-0.3-0.6-0.6v-8.1c0-0.3,0.3-0.6,0.6-0.6
			h19.8c1.5,0,2.8,1.3,2.8,2.8V406.5z"/>
		<rect x="125.6" y="404.1" class="st0" width="14.3" height="0.9"/>
		<path class="st0" d="M141.7,416.8h-19.8c-0.9,0-1.6,0.7-1.6,1.6v8.1c0,0.9,0.7,1.6,1.6,1.6h19.8c2.1,0,3.7-1.7,3.7-3.7v-3.8
			C145.4,418.4,143.7,416.8,141.7,416.8z M144.5,424.3c0,1.5-1.3,2.8-2.8,2.8h-19.8c-0.3,0-0.6-0.3-0.6-0.6v-8.1
			c0-0.3,0.3-0.6,0.6-0.6h19.8c1.5,0,2.8,1.3,2.8,2.8V424.3z"/>
		<rect x="125.6" y="421.9" class="st0" width="14.3" height="0.9"/>
	</g>
</g>
<g id="Ebene_3">
	<g>
		<circle id="bgnumber_17_" class="st1" cx="157.8" cy="421.6" r="7.1"/>
		<text transform="matrix(1 0 0 1 153.0632 425.0721)" class="st2 st3 st4">18</text>
	</g>
	<g>
		<circle id="bgnumber_16_" class="st1" cx="157.8" cy="403.8" r="7.1"/>
		<text transform="matrix(1 0 0 1 153.5633 407.2975)" class="st2 st3 st4">17</text>
	</g>
	<g>
		<circle id="bgnumber_15_" class="st1" cx="157.8" cy="386" r="7.1"/>
		<text transform="matrix(1 0 0 1 153.1033 389.5231)" class="st2 st3 st4">16</text>
	</g>
	<g>
		<circle id="bgnumber_14_" class="st1" cx="157.8" cy="368.2" r="7.1"/>
		<text transform="matrix(1 0 0 1 153.2832 371.666)" class="st2 st3 st4">15</text>
	</g>
	<g>
		<circle id="bgnumber_13_" class="st1" cx="157.8" cy="350.5" r="7.1"/>
		<g>
			<text transform="matrix(1 0 0 1 153.0533 353.9599)" class="st2 st3 st4">14</text>
		</g>
	</g>
	<g>
		<circle id="bgnumber_12_" class="st1" cx="157.8" cy="332.7" r="7.1"/>
		<text transform="matrix(1 0 0 1 153.1883 336.1539)" class="st2 st3 st4">13</text>
	</g>
	<g>
		<circle id="bgnumber_11_" class="st1" cx="157.8" cy="314.9" r="7.1"/>
		<text transform="matrix(1 0 0 1 153.3336 318.4228)" class="st2 st3 st4">12</text>
	</g>
	<g>
		<circle id="bgnumber_10_" class="st1" cx="157.8" cy="297.1" r="7.1"/>
		<text transform="matrix(1 0 0 1 153.9882 300.6166)" class="st2 st3 st4">11</text>
	</g>
	<g>
		<circle id="bgnumber_9_" class="st1" cx="157.8" cy="279.3" r="7.1"/>
		<text transform="matrix(1 0 0 1 152.8801 282.8488)" class="st2 st3 st4">10</text>
	</g>
	<g>
		<circle id="bgnumber_8_" class="st1" cx="157.8" cy="261.5" r="7.1"/>
		<text transform="matrix(1 0 0 1 151.9952 265.0427)" class="st2 st3 st4">09</text>
	</g>
	<g>
		<circle id="bgnumber_7_" class="st1" cx="157.8" cy="243.8" r="7.1"/>
		<text transform="matrix(1 0 0 1 151.9553 247.3367)" class="st2 st3 st4">08</text>
	</g>
	<g>
		<circle id="bgnumber_6_" class="st1" cx="157.8" cy="226" r="7.1"/>
		<text transform="matrix(1 0 0 1 152.4547 229.5304)" class="st2 st3 st4">07</text>
	</g>
	<g>
		<circle id="bgnumber_5_" class="st1" cx="157.8" cy="208.2" r="7.1"/>
		<text transform="matrix(1 0 0 1 151.9954 211.6455)" class="st2 st3 st4">06</text>
	</g>
	<g>
		<circle id="bgnumber_4_" class="st1" cx="157.8" cy="190.4" r="7.1"/>
		<text transform="matrix(1 0 0 1 152.1754 193.8394)" class="st2 st3 st4">05</text>
	</g>
	<g>
		<circle id="bgnumber_3_" class="st1" cx="157.8" cy="172.6" r="7.1"/>
		<text transform="matrix(1 0 0 1 151.9453 176.1335)" class="st2 st3 st4">04</text>
	</g>
	<g>
		<circle id="bgnumber_2_" class="st1" cx="157.8" cy="154.8" r="7.1"/>
		<text transform="matrix(1 0 0 1 152.0803 158.3273)" class="st2 st3 st4">03</text>
	</g>
	<g>
		<circle id="bgnumber_1_" class="st1" cx="157.8" cy="137.1" r="7.1"/>
		<text transform="matrix(1 0 0 1 152.2255 140.5212)" class="st2 st3 st4">02</text>
	</g>
	<g>
		<circle id="bgnumber" class="st1" cx="157.8" cy="119.3" r="7.1"/>
		<text transform="matrix(1 0 0 1 152.8801 122.715)" class="st2 st3 st4">01</text>
	</g>
</g>
</svg>
