<?xml version="1.0" encoding="utf-8"?>
<!-- Generator: Adobe Illustrator 21.0.1, SVG Export Plug-In . SVG Version: 6.00 Build 0)  -->
<!DOCTYPE svg PUBLIC "-//W3C//DTD SVG 1.1//EN" "http://www.w3.org/Graphics/SVG/1.1/DTD/svg11.dtd">
<svg version="1.1" xmlns="http://www.w3.org/2000/svg" xmlns:xlink="http://www.w3.org/1999/xlink" x="0px" y="0px"
	 viewBox="0 0 560 469.6" style="enable-background:new 0 0 560 469.6;" xml:space="preserve">
<style type="text/css">
	.button{cursor: pointer}
	.st0{fill:#B3B2B2;}
	.st1{fill:#FFFFFF;}
	.st2{fill:#29AEE4;}
	.st3{font-family:'BrixSansRegular';}
	.st4{font-size:10px;}
</style>
<g id="Ebene_2">
	<g>
		<path class="st0" d="M551.8,23.4l-0.1-0.3c-0.4-2.4-1.9-3.8-4-3.8H523c0-0.2,0-0.3,0-0.4c0-0.4-0.1-1.4-0.2-2.5
			c-0.3-4.3-0.4-6.1-0.6-6.6c0-0.1-3.9-9.1-5.1-9.6c-0.2-0.1-0.8-0.3-328-0.1c-1.5,0-3.6,1.1-4.2,2.8c-0.5,1.4-3.1,7-3.3,7.5
			c-0.4,0.7-1,4.5-1,6.9v1.9l-168.3,0c-2.3,0-3.7,1.3-4.1,3.8C7.6,25.9,0,76.7,0,102.5v363.1c0,2.2,1.8,4,4,4H556c2.2,0,4-1.8,4-4
			V102.4C560,76.1,553.7,35.3,551.8,23.4z M182.1,17.4c0-2.4,0.6-5.8,0.8-6.2c0.3-0.5,2.9-6.2,3.4-7.7c0.4-1.1,1.9-1.8,2.8-1.8h0
			c3.2,0,316.6-0.2,327.4,0c0.9,1.2,3.9,7.7,4.3,8.7c0.1,0.5,0.4,4.2,0.5,6.1c0.1,1.2,0.2,2.2,0.2,2.6c0.1,1-0.2,11.5-0.4,12.6
			c-0.1,1.1-10.1,140-10.2,142.9c-0.1,1.9-1.7,2.1-2.3,2.1c-3,0-317.5,0.6-320.5,0.8c-2,0.1-2.4-1.2-2.6-2.4
			c-0.1-1.8-3.4-146.3-3.4-147.3V17.4z M53.6,450.1c1,0.2,22.4,2.1,46.8,2.4c2.6,0,5.2,0.1,7.9,0.1c19.3,0,40.2-0.9,41.8-1.7
			c0.1-0.1,1.4-1.1,2.2-3c0,2-0.2,3.9-0.5,5.3c-0.5,2.4-2.7,3.8-4.7,5.1c-0.4,0.3-0.8,0.5-1.1,0.7c-1,0.7-2,1.4-4.5,1.9
			c-1.1,0.2-20.8,1.1-40.5,0.8c-20.4-0.3-38.5-1.7-39.7-2c-5.9-1.9-10.3-7.9-10.3-8c-0.6-0.9-1-2.4-1.2-4.2
			C50.7,448.8,52.1,449.8,53.6,450.1z M151.3,444.9c0,3.1-2,4.6-2,4.6c-1.7,0.7-26.4,1.8-48.9,1.5c-23.8-0.4-45.5-2.2-46.5-2.4
			c-1.4-0.3-3.1-1.6-3.8-3.9c-0.7-3.9-1.1-179.2-0.8-189.9c0.4-12.3,4.3-198.6,4.3-203.4c0-5,6.3-5.6,9.6-5.9
			c3.3-0.3,31.6-1.4,41.1-1.5c0.7,0,1.4,0,2.2,0c7.5,0,21.1,0.5,31.3,0.9c3.7,0.1,6.9,0.3,9.4,0.3c6.9,0.2,7.9,4,8,5.1
			c0.2,2.8-2,211-3.2,322.8C151.6,415.7,151.3,443.9,151.3,444.9z M154.8,261.9l375.1-0.5v-0.5l-375.1,0.5
			c1.2-114.3,2.2-210.3,2-211.4c-0.4-3-3.1-6.3-9.5-6.5c-2.4-0.1-5.7-0.2-9.4-0.3c-11.3-0.4-26.8-1-33.6-0.9
			c-8.6,0.2-37.6,1.2-41.2,1.6c-3.6,0.4-11,1.1-11,7.5c0,4.8-3.9,191.1-4.3,203.4c0,0.2,0,2.4,0,6.1H30.6v0.5h17.1
			c0,6.7,0,17.9,0,31.6h-3.8c-4.2,0-7.3-1.1-9.5-3.3c-3.1-3.2-4.5-9-4.2-17.6c0.1-4.4,0.8-158.1,0.8-167.4c0-10.4,1-27.1,1.3-29.2
			c0.1-0.9,0.5-4.8,0.9-9.6c0.6-6.1,1.2-13.7,1.7-17.7c0.2-1.8,0.7-6.5,14-7.5c0.3,0,0.5,0,0.7-0.1c2.6-0.2,93.1,0.1,122.8,0.2
			c4.1,0,7,0,8.4,0c0.8,35.9,3,133.8,3.1,134.6c0.4,2.4,1.7,3.7,3.9,3.7c0.1,0,0.2,0,0.3,0c3-0.1,317.4-0.8,320.4-0.8
			c1.7,0,3.7-0.9,3.9-3.6c0.1-2.1,7-98.1,9.4-131.5c1.2,1.6,3,4.6,3.9,9.6c1,5.7,3.4,30.9,3.6,42.8c0.3,12.4,0.8,178.1,0.8,179.5
			l0,0.5c0.1,11.5-3.7,17.4-11.4,17.6c-12,0.3-349.5-1-364.3-1C154.5,282,154.6,271.9,154.8,261.9z M557.9,465.6
			c0,1-0.9,1.9-1.9,1.9H4c-1,0-1.9-0.9-1.9-1.9V102.5c0-25.7,7.5-76.2,8.1-79c0.3-1.8,1.1-2.1,2.1-2.1l168.3,0v6.4
			c0,0.2,0.1,4.9,0.3,12.5c-1.4,0-4.3,0-8.4,0C142.7,40.1,52.2,39.8,49.6,40c-0.2,0-0.5,0-0.7,0.1c-3.8,0.3-13.7,1-14.5,7.9
			c-0.4,4.1-1.1,11.7-1.7,17.8c-0.4,4.7-0.8,8.7-0.9,9.6c-0.3,2-1.3,18.8-1.3,29.2c0,9.3-0.6,163-0.8,167.4
			c-0.3,8.8,1.1,14.7,4.3,18c2.3,2.3,5.5,3.5,9.9,3.5h3.8c0,45.6,0.1,118.3,0.5,143l-0.1,0c0,0.3,0,1.2-0.1,2.2
			c-0.2,5.4-0.3,11.3,1.5,13.8c1.6,2.3,6,6.9,11.1,8.6c1.6,0.5,21.2,1.8,40.1,2.1c3.1,0,6.1,0.1,9.2,0.1c16.1,0,30.4-0.6,31.7-0.9
			c2.9-0.5,4.1-1.4,5.1-2.1c0.3-0.2,0.7-0.5,1.1-0.7c2.2-1.4,4.8-3.1,5.4-6.1c0.9-4.6,0.4-12,0.1-18.5c-0.2-3.2-0.4-6.3-0.4-8.6h0
			c0.1-12.8,0.3-31.4,0.6-53.3c0.3-26.8,0.6-53.8,0.8-80.3c13.3,0,292.4,1.1,353.1,1.1c6.2,0,10.1,0,11.2,0c8-0.2,12-6.2,11.9-18.1
			l0-0.5c0-1.4-0.5-167.1-0.8-179.6c-0.3-12-2.6-37.2-3.6-42.9c-1-5.5-3.2-8.8-4.4-10.2c0.5-6.4,0.8-10.3,0.8-10.6
			c0.1-0.8,0.3-6.9,0.4-10.5h24.8c1.1,0,1.7,0.7,1.9,2.1l0.1,0.4c1.4,8.4,8.2,51.9,8.2,78.7V465.6z"/>
		<path class="st0" d="M218.4,139.8c0,0.8,0.1,3.1,3,3.1c1.8,0,96.5-0.2,165.6-0.3c36-0.1,63.5-0.1,63.8-0.1c1.2,0,3.4-0.6,3.5-2.7
			c0-0.2,0.2-3.6,0.5-9h12v-0.5h-11.9c1.2-23.4,4.2-82,4.4-83.1c0.1-0.6-0.1-1.3-0.5-1.8c-0.5-0.6-1.3-1-2.1-1.1
			c-1.7-0.1-226.9,0.2-236.5,0.3c-1.4,0-3.6,0.9-3.6,3.3c0,0.7,1.9,91,2,91.8C218.4,139.6,218.4,139.7,218.4,139.8z M220,45.5
			L220,45.5c2.3,0,234.3-0.4,236.4-0.3c0.3,0,0.5,0.1,0.7,0.2c-0.3,6.9-4.5,90.8-4.7,92.2c-0.1,0.9-0.9,1.3-2.4,1.3
			c-0.1,0-6.9,0-18.1,0.1c-51.5,0.3-208.3,1.1-209.6,1c-1.7-0.1-2-1.4-2-1.7c-0.1-1-1.7-85.6-1.8-92.4C219.2,45.5,220,45.5,220,45.5
			z M218,46.2c0.2,9.6,1.7,91.3,1.8,92.1c0.1,1,0.8,2.1,2.5,2.2c0.1,0,0.4,0,1,0c11.7,0,123.6-0.6,208.7-1
			c11.2-0.1,17.9-0.1,18.1-0.1c2.2,0,2.8-1,2.9-1.8c0.2-1.4,4.2-82.7,4.7-91.9c0.1,0.1,0.1,0.1,0.2,0.2c0.3,0.4,0.4,0.8,0.3,1
			c-0.1,0.8-4.8,91.8-4.9,92.7c-0.1,1.7-2.5,1.7-2.5,1.7c-0.3,0-27.9,0.1-63.8,0.1c-69.1,0.1-163.8,0.3-165.6,0.3
			c-1.7,0-1.9-1-1.9-2c0-0.1,0-0.2,0-0.3c-0.1-1.2-2-89.5-2-91.8C217.4,47,217.7,46.5,218,46.2z"/>
		<path class="st0" d="M310.6,14.3c0.8,0.1,20.6,0.1,40.5,0.1c20.4,0,40.9,0,41.3-0.1c0.9-0.1,3.4-1.9,3.4-3.1h-0.5
			c0,0.8-2.3,2.5-3,2.6c-1.3,0.1-79.9,0.1-81.7,0c-1.2-0.1-1.5-0.8-1.8-1.6c-0.1-0.2-0.1-0.3-0.2-0.5l-0.5,0.2
			c0.1,0.1,0.1,0.3,0.2,0.5C308.7,13.2,309.1,14.2,310.6,14.3z"/>
		<path class="st0" d="M475.3,58.8c0.2,0,1.1,0,2.5,0c3.5,0,10.2,0,16.2-0.1l1.8,0c0.6,0,1.5-0.3,1.8-0.8c0.3-0.5,0.3-3.5,0.3-3.8
			c-0.1-0.7-0.7-1.5-1.8-1.6c-0.9-0.1-19.4,0-20,0.1c-0.7,0.1-2.2,1.5-2.4,2c-0.2,0.5-0.2,2.7-0.1,3.1
			C473.6,58.2,474.4,58.7,475.3,58.8z M474.6,54.9c0.1-0.3,1.2-1.3,1.6-1.3c0.5,0,9.5-0.1,15.2-0.1c2.5,0,4.4,0,4.6,0
			c0.8,0.1,0.9,0.7,0.9,0.7c0.1,0.4,0,2.8-0.1,3.1c-0.1,0.1-0.5,0.3-0.9,0.3l-1.8,0c-4.5,0-18,0.1-18.7,0.1c-0.5,0-0.9-0.3-0.9-0.3
			C474.4,57.1,474.5,55.2,474.6,54.9z"/>
		<rect x="479.8" y="55.5" class="st0" width="12.2" height="1"/>
		<rect x="459.6" y="55" class="st0" width="12.1" height="0.5"/>
		<path class="st0" d="M474.5,74.2c0.2,0,1.1,0,2.5,0c3.5,0,10.2,0,16.3-0.1l1.8,0c0.6,0,1.5-0.3,1.8-0.8c0.3-0.5,0.3-3.5,0.3-3.8
			c-0.1-0.7-0.7-1.5-1.8-1.6h0c-0.9-0.1-19.4,0-20,0.1c-0.7,0.1-2.2,1.5-2.4,2c-0.2,0.5-0.2,2.7-0.1,3.1
			C472.8,73.6,473.6,74.1,474.5,74.2z M473.8,70.3c0.1-0.3,1.2-1.3,1.6-1.3c0.5,0,9.5-0.1,15.2-0.1c2.5,0,4.3,0,4.6,0
			c0.8,0.1,0.9,0.7,0.9,0.7c0.1,0.4,0,2.8-0.1,3.1c-0.1,0.1-0.5,0.3-0.9,0.3l-1.8,0c-4.5,0-18,0.1-18.6,0.1c-0.5,0-0.9-0.3-0.9-0.3
			C473.6,72.5,473.7,70.6,473.8,70.3z"/>
		<rect x="479" y="70.9" class="st0" width="12.2" height="1"/>
		<rect x="458.7" y="70.4" class="st0" width="12.1" height="0.5"/>
		<path class="st0" d="M471.4,88.4c0.1,0.6,0.9,1,1.8,1.1c0.2,0,1.1,0,2.5,0c3.5,0,10.2,0,16.3-0.1l1.8,0c0.6,0,1.5-0.3,1.8-0.8
			c0.3-0.5,0.3-3.5,0.3-3.8c-0.1-0.7-0.7-1.5-1.8-1.6h0c-0.9-0.1-19.4,0-20,0.1c-0.7,0.1-2.3,1.5-2.4,2
			C471.4,85.7,471.3,88,471.4,88.4z M472.5,85.6c0.1-0.3,1.2-1.3,1.6-1.3c0.5,0,9.5-0.1,15.2-0.1c2.5,0,4.3,0,4.6,0
			c0.8,0.1,0.9,0.7,0.9,0.7c0.1,0.4,0,2.8-0.1,3.1c-0.1,0.1-0.5,0.3-0.9,0.3l-1.8,0c-4.5,0-18,0.1-18.7,0.1c-0.5,0-0.9-0.3-0.9-0.3
			C472.4,87.8,472.4,85.9,472.5,85.6z"/>
		<rect x="477.7" y="86.3" class="st0" width="12.2" height="1"/>
		<rect x="457.5" y="85.3" class="st0" width="12.1" height="0.5"/>
		<path class="st0" d="M493,98.2c-0.9-0.1-19.4,0-20,0.1c-0.7,0.1-2.2,1.5-2.4,2c-0.2,0.5-0.2,2.7-0.1,3.1c0.1,0.6,0.9,1,1.8,1.1
			c0.2,0,1.1,0,2.5,0c3.5,0,10.2,0,16.3-0.1l1.8,0c0.6,0,1.5-0.3,1.8-0.8c0.3-0.5,0.3-3.5,0.3-3.8C494.7,99.1,494.1,98.3,493,98.2z
			 M493.7,103.1c-0.1,0.1-0.5,0.3-0.9,0.3l-1.8,0c-4.5,0-18,0.1-18.6,0.1c-0.5,0-0.9-0.3-0.9-0.3c0-0.3,0-2.3,0.1-2.6
			c0.1-0.3,1.2-1.3,1.6-1.3c0.5,0,9.5-0.1,15.2-0.1c2.5,0,4.4,0,4.6,0c0.8,0.1,0.9,0.7,0.9,0.7C493.9,100.4,493.8,102.8,493.7,103.1
			z"/>
		<rect x="476.8" y="101.3" class="st0" width="12.2" height="1"/>
		<rect x="476.1" y="115.9" class="st0" width="12.2" height="1"/>
		<rect x="475" y="131.1" class="st0" width="12.2" height="1"/>
		<rect x="456.5" y="100.4" class="st0" width="12.1" height="0.5"/>
		<path class="st0" d="M492,113.3L492,113.3c-0.9-0.1-19.4,0-20,0.1c-0.7,0.1-2.3,1.5-2.4,2c-0.2,0.5-0.2,2.7-0.1,3.1
			c0.1,0.6,0.9,1,1.8,1.1c0.2,0,1.1,0,2.5,0c3.5,0,10.2,0,16.3-0.1l1.8,0c0.6,0,1.5-0.3,1.8-0.8c0.3-0.5,0.3-3.5,0.3-3.8
			C493.8,114.2,493.2,113.4,492,113.3z M492.7,118.2c-0.1,0.1-0.5,0.3-0.9,0.3l-1.8,0c-4.5,0-18,0.1-18.6,0.1
			c-0.5,0-0.9-0.3-0.9-0.3c0-0.3,0-2.3,0.1-2.6c0.1-0.3,1.2-1.3,1.6-1.3c0.5,0,9.5-0.1,15.2-0.1c2.5,0,4.3,0,4.6,0
			c0.8,0.1,0.9,0.7,0.9,0.7C492.9,115.5,492.8,117.9,492.7,118.2z"/>
		<rect x="455.6" y="115.2" class="st0" width="12.1" height="0.5"/>
		<path class="st0" d="M491.1,128.4L491.1,128.4c-0.9-0.1-19.4,0-20,0.1c-0.7,0.1-2.3,1.5-2.4,2c-0.2,0.5-0.2,2.7-0.1,3.1
			c0.1,0.6,0.9,1,1.8,1.1c0.2,0,1.1,0,2.5,0c3.5,0,10.2,0,16.3-0.1l1.8,0c0.6,0,1.5-0.3,1.8-0.8c0.3-0.5,0.3-3.5,0.3-3.8
			C492.8,129.3,492.2,128.5,491.1,128.4z M491.8,133.3c-0.1,0.1-0.5,0.3-0.9,0.3l-1.8,0c-4.5,0-18,0.1-18.6,0.1
			c-0.5,0-0.9-0.3-0.9-0.3c0-0.3,0-2.3,0.1-2.6c0.1-0.3,1.2-1.3,1.6-1.3c0.5,0,9.5-0.1,15.2-0.1c2.5,0,4.3,0,4.6,0
			c0.8,0.1,0.9,0.7,0.9,0.7C491.9,130.6,491.9,133,491.8,133.3z"/>
		<path class="st0" d="M264.7,314.1c-29,0-52.6,23.6-52.6,52.6c0,29,23.6,52.6,52.6,52.6s52.6-23.6,52.6-52.6
			C317.3,337.7,293.7,314.1,264.7,314.1z M264.7,418.2c-28.4,0-51.5-23.1-51.5-51.5c0-28.4,23.1-51.5,51.5-51.5
			c28.4,0,51.5,23.1,51.5,51.5C316.3,395.1,293.2,418.2,264.7,418.2z"/>
		<path class="st0" d="M264.7,325.1c-22.9,0-41.6,18.7-41.6,41.6s18.7,41.6,41.6,41.6s41.6-18.7,41.6-41.6S287.7,325.1,264.7,325.1z
			 M235.5,338.6l16.7,16.9c-2.7,3-4.3,6.9-4.3,11.2c0,4.3,1.6,8.2,4.3,11.1l-16.8,16.9c-7-7.3-11.2-17.1-11.2-28
			C224.2,355.8,228.5,345.9,235.5,338.6z M280.5,366.7c0,8.7-7.1,15.8-15.8,15.8s-15.8-7.1-15.8-15.8c0-8.7,7.1-15.8,15.8-15.8
			S280.5,358,280.5,366.7z M264.7,407.3c-11.2,0-21.3-4.5-28.6-11.8l16.8-16.8c3,3,7.2,4.9,11.8,4.9c4.2,0,8.1-1.6,11-4.1l16.6,16.8
			l0.7-0.7l-16.5-16.8c3.1-3,5-7.3,5-11.9c0-4.6-1.9-8.9-5-11.9l16.7-16.8l-0.7-0.7l-16.8,16.8c-3-2.6-6.8-4.2-11.1-4.2
			c-4.6,0-8.8,1.9-11.8,4.8l-16.7-16.9c7.3-7.2,17.4-11.7,28.5-11.7c22.4,0,40.6,18.2,40.6,40.6
			C305.3,389.1,287.1,407.3,264.7,407.3z"/>
		<path class="st0" d="M321.1,225.3h-33.2v17.3h33.2c2.6,0,4.6-2.1,4.6-4.7v-8C325.7,227.3,323.7,225.3,321.1,225.3z M324.7,237.9
			c0,2-1.6,3.6-3.6,3.6H289v-15.2h32.1c2,0,3.6,1.6,3.6,3.6V237.9z"/>
		<path class="st0" d="M245,242.6h39v-17.3h-39V242.6z M246,226.3h37v15.2h-37V226.3z"/>
		<path class="st0" d="M203,229.9v8c0,2.6,2.1,4.7,4.7,4.7H241v-17.3h-33.3C205.1,225.3,203,227.3,203,229.9z M240,241.5h-32.3
			c-2,0-3.6-1.6-3.6-3.6v-8c0-2,1.6-3.6,3.6-3.6H240V241.5z"/>
		<path class="st0" d="M203,273.3v8c0,2.6,2.1,4.6,4.7,4.6h53.7v-17.3h-53.7C205.1,268.7,203,270.7,203,273.3z M260.4,284.9h-52.7
			c-2,0-3.6-1.6-3.6-3.6v-8c0-2,1.6-3.6,3.6-3.6h52.7V284.9z"/>
		<path class="st0" d="M321.1,268.7h-53.6V286h53.6c2.6,0,4.6-2.1,4.6-4.6v-8C325.7,270.7,323.7,268.7,321.1,268.7z M324.7,281.3
			c0,2-1.6,3.6-3.6,3.6h-52.6v-15.2h52.6c2,0,3.6,1.6,3.6,3.6V281.3z"/>
		<path class="st0" d="M370.7,230.4v8c0,2.6,2.1,4.6,4.6,4.6h54.8v-17.3h-54.8C372.8,225.8,370.7,227.9,370.7,230.4z M429.1,242.1
			h-53.7c-2,0-3.6-1.6-3.6-3.6v-8c0-2,1.6-3.6,3.6-3.6h53.7V242.1z"/>
		<path class="st0" d="M488.8,225.8h-55.3v17.3h55.3c2.6,0,4.6-2.1,4.6-4.6v-8C493.4,227.9,491.3,225.8,488.8,225.8z M492.4,238.4
			c0,2-1.6,3.6-3.6,3.6h-54.3v-15.2h54.3c2,0,3.6,1.6,3.6,3.6V238.4z"/>
		<path class="st0" d="M413.1,285.5h38.7v-17.3h-38.7V285.5z M414.1,269.2h36.7v15.2h-36.7V269.2z"/>
		<path class="st0" d="M488.8,268.1h-32.7v17.3h32.7c2.6,0,4.6-2.1,4.6-4.6v-8C493.4,270.2,491.3,268.1,488.8,268.1z M492.4,280.8
			c0,2-1.6,3.6-3.6,3.6h-31.6v-15.2h31.6c2,0,3.6,1.6,3.6,3.6V280.8z"/>
		<path class="st0" d="M370.7,272.8v8c0,2.6,2.1,4.6,4.6,4.6h33.5v-17.3h-33.5C372.8,268.1,370.7,270.2,370.7,272.8z M407.8,284.4
			h-32.4c-2,0-3.6-1.6-3.6-3.6v-8c0-2,1.6-3.6,3.6-3.6h32.4V284.4z"/>
		<path class="st0" d="M413,329.1h39.1v-21.9H413V329.1z M414,308.2h37V328h-37V308.2z"/>
		<path class="st0" d="M370.4,312.4v11.5c0,2.9,2.3,5.2,5.2,5.2H409v-21.9h-33.4C372.8,307.2,370.4,309.5,370.4,312.4z M408,328
			h-32.3c-2.3,0-4.2-1.9-4.2-4.2v-11.5c0-2.3,1.9-4.2,4.2-4.2H408V328z"/>
		<path class="st0" d="M488,307.2H456v21.9H488c2.9,0,5.2-2.3,5.2-5.2v-11.5C493.2,309.5,490.8,307.2,488,307.2z M492.1,323.9
			c0,2.3-1.9,4.2-4.2,4.2h-30.9v-19.8H488c2.3,0,4.2,1.9,4.2,4.2V323.9z"/>
		<path class="st0" d="M370.4,341.9v11.5c0,2.9,2.3,5.2,5.2,5.2H409v-21.9h-33.4C372.8,336.7,370.4,339,370.4,341.9z M408,357.6
			h-32.3c-2.3,0-4.2-1.9-4.2-4.2v-11.5c0-2.3,1.9-4.2,4.2-4.2H408V357.6z"/>
		<path class="st0" d="M413,358.6h39.1v-21.9H413V358.6z M414,337.7h37v19.8h-37V337.7z"/>
		<path class="st0" d="M488,336.7H456v21.9H488c2.9,0,5.2-2.3,5.2-5.2v-11.5C493.2,339,490.8,336.7,488,336.7z M492.1,353.4
			c0,2.3-1.9,4.2-4.2,4.2h-30.9v-19.8H488c2.3,0,4.2,1.9,4.2,4.2V353.4z"/>
		<path class="st0" d="M370.4,371.5V383c0,2.9,2.3,5.2,5.2,5.2H409v-21.9h-33.4C372.8,366.3,370.4,368.6,370.4,371.5z M408,387.1
			h-32.3c-2.3,0-4.2-1.9-4.2-4.2v-11.5c0-2.3,1.9-4.2,4.2-4.2H408V387.1z"/>
		<path class="st0" d="M413,388.2h39.1v-21.9H413V388.2z M414,367.3h37v19.8h-37V367.3z"/>
		<path class="st0" d="M488,366.3H456v21.9H488c2.9,0,5.2-2.3,5.2-5.2v-11.5C493.2,368.6,490.8,366.3,488,366.3z M492.1,383
			c0,2.3-1.9,4.2-4.2,4.2h-30.9v-19.8H488c2.3,0,4.2,1.9,4.2,4.2V383z"/>
		<path class="st0" d="M488,395.8H456v21.9H488c2.9,0,5.2-2.3,5.2-5.2V401C493.2,398.2,490.8,395.8,488,395.8z M492.1,412.5
			c0,2.3-1.9,4.2-4.2,4.2h-30.9v-19.8H488c2.3,0,4.2,1.9,4.2,4.2V412.5z"/>
		<path class="st0" d="M413,417.7h39.1v-21.9H413V417.7z M414,396.9h37v19.8h-37V396.9z"/>
		<path class="st0" d="M370.4,401v11.5c0,2.9,2.3,5.2,5.2,5.2H409v-21.9h-33.4C372.8,395.8,370.4,398.2,370.4,401z M408,416.7h-32.3
			c-2.3,0-4.2-1.9-4.2-4.2V401c0-2.3,1.9-4.2,4.2-4.2H408V416.7z"/>
	</g>
</g>
<g id="Ebene_3_1_">
	<g>
		<circle id="bgnumber_5_" class="st1" cx="454.8" cy="132.4" r="7.1"/>
		<text transform="matrix(1 0 0 1 448.9742 135.8221)" class="st2 st3 st4 button" data-number="5">06</text>
	</g>
	<g>
		<circle id="bgnumber_4_" class="st1" cx="454.8" cy="116.8" r="7.1"/>
		<text transform="matrix(1 0 0 1 449.1542 120.1784)" class="st2 st3 st4 button" data-number="4">05</text>
	</g>
	<g>
		<circle id="bgnumber_3_" class="st1" cx="454.8" cy="101.1" r="7.1"/>
		<text transform="matrix(1 0 0 1 448.9242 104.6347)" class="st2 st3 st4 button" data-number="3">04</text>
	</g>
	<g>
		<circle id="bgnumber_2_" class="st1" cx="454.8" cy="85.5" r="7.1"/>
		<text transform="matrix(1 0 0 1 449.0592 88.9908)" class="st2 st3 st4 button" data-number="2">03</text>
	</g>
	<g>
		<circle id="bgnumber_1_" class="st1" cx="454.8" cy="69.9" r="7.1"/>
		<text transform="matrix(1 0 0 1 449.2043 73.347)" class="st2 st3 st4 button" data-number="1">02</text>
	</g>
	<g>
		<circle id="bgnumber" class="st1" cx="454.8" cy="54.3" r="7.1"/>
		<text transform="matrix(1 0 0 1 449.8589 57.7031)" class="st2 st3 st4 button" data-number="0">01</text>
	</g>
</g>
</svg>
