<?xml version="1.0" encoding="utf-8"?>
<!-- Generator: Adobe Illustrator 21.0.1, SVG Export Plug-In . SVG Version: 6.00 Build 0)  -->
<!DOCTYPE svg PUBLIC "-//W3C//DTD SVG 1.1//EN" "http://www.w3.org/Graphics/SVG/1.1/DTD/svg11.dtd">
<svg version="1.1" xmlns="http://www.w3.org/2000/svg" xmlns:xlink="http://www.w3.org/1999/xlink" x="0px" y="0px"
	 viewBox="0 0 560 489.7" style="enable-background:new 0 0 560 489.7;" xml:space="preserve">
<style type="text/css">
	.button{cursor: pointer}
	.st0{fill:#B3B2B2;}
	.st1{fill:#FFFFFF;}
	.st2{fill:#29AEE4;}
	.st3{font-family:'BrixSansRegular';}
	.st4{font-size:10px;}
</style>
<g id="Ebene_2">
	<g>
		<rect x="184.8" y="29.9" class="st0" width="306.3" height="0.4"/>
		<path class="st0" d="M302.1,17h72.3c1.2,0,2.2-1,2.2-2.2s-1-2.2-2.2-2.2h-72.3c-1.2,0-2.2,1-2.2,2.2S300.9,17,302.1,17z
			 M302.1,13.1h72.3c1,0,1.8,0.8,1.8,1.8s-0.8,1.8-1.8,1.8h-72.3c-1,0-1.8-0.8-1.8-1.8S301.1,13.1,302.1,13.1z"/>
		<path class="st0" d="M439.8,46.3c-1.9-0.1-223,0.1-225.3,0.2c-1.9,0.1-2.9,1.1-2.9,3c0,0.4,0.1,10,0.3,24.5
			c0.5,39.5,1.5,121.8,1.4,123.2c-0.1,0.5,0,1.5,0.6,2.3c0.4,0.5,1.2,1.2,2.7,1.2c1.4,0,70.3,0,130.1,0.1c45.9,0,86.4,0.1,87,0.1
			c1.9,0,4.2-1.1,4.3-4c0.1-1.9,5.4-146.8,5.4-147.6C443.4,48.2,442.4,46.5,439.8,46.3z M436.7,196.8c-0.1,2.6-2.4,2.8-3.1,2.8
			c-0.6,0-41.1,0-87-0.1c-59.8,0-128.7-0.1-130.1-0.1c-0.7,0-1.3-0.2-1.7-0.7c-0.4-0.5-0.4-1.1-0.4-1.2c0.1-0.3-0.1-19.5-1.4-123.5
			c-0.2-14-0.3-24.1-0.3-24.5c0-1.2,0.5-1.6,1.7-1.7c2.5-0.1,223.5-0.3,225.2-0.2c0.5,0,0.9,0.1,1.2,0.2c-0.3,9.4-5.1,145.9-5.1,147
			c0,0.8-1.1,1.1-1.6,1.2c-0.1,0-0.1,0-0.1,0c-1.4,0.1-215.7,0.7-217.8,0.7c-1.2,0-1.3-1-1.3-1.4c0-0.5-0.9-145.9-1-147.4l-0.4,0
			c0,1.5,1,146.9,1,147.4c0,0.9,0.4,1.8,1.7,1.8c2.2,0,217.5-0.6,217.9-0.8c0,0,0.1,0,0.1,0c0.5-0.1,1.9-0.5,1.9-1.6
			c0-1,4.8-137.2,5.1-146.7c0.7,0.5,0.8,1.2,0.8,1.2C442.1,49.9,436.9,193.4,436.7,196.8z"/>
		<path class="st0" d="M472.5,70.1c0-0.8-0.4-2.2-2.1-2.2c-0.9,0-7.1,0-11.8,0l-5.6,0c-0.7,0-2.1,0.8-2.1,2.2c0,0.7,0,1.4,0,1.9
			c0,0.3,0,0.5,0,0.6c0,1.4,0.7,2.3,2,2.3c0.9,0,7.6,0,12.5,0c2.9,0,5.2,0,5.4,0c0.7,0,1.7-0.9,1.7-1.9c0-0.4,0-1.2,0-1.8
			C472.5,70.7,472.5,70.3,472.5,70.1z M470.8,74c-0.2,0-2.5,0-5.4,0c-5,0-11.6,0-12.5,0c-0.3,0-1.1,0-1.1-1.4c0-0.1,0-0.3,0-0.6
			c0-0.5,0-1.2,0-1.9c0-0.8,0.9-1.3,1.3-1.3l5.6,0c4.7,0,10.9,0,11.8,0c1.2,0,1.2,1.1,1.2,1.3c0,0.2,0,0.5,0,1c0,0.6,0,1.4,0,1.8
			C471.7,73.5,471.1,74,470.8,74z"/>
		<rect x="456.1" y="70.9" class="st0" width="11.4" height="0.9"/>
		<rect x="442.9" y="72.6" class="st0" width="7.3" height="0.9"/>
		<path class="st0" d="M471.7,86.6c0-0.8-0.4-2.2-2.1-2.2c-0.9,0-7.1,0-11.8,0l-5.6,0c-0.7,0-2.1,0.8-2.1,2.2c0,0.7,0,1.4,0,1.9
			c0,0.3,0,0.5,0,0.6c0,1.4,0.7,2.3,2,2.3c0.9,0,7.6,0,12.5,0c2.9,0,5.2,0,5.4,0c0.7,0,1.7-0.9,1.7-1.9c0-0.4,0-1.2,0-1.8
			C471.7,87.2,471.7,86.8,471.7,86.6z M470.1,90.4c-0.2,0-2.5,0-5.4,0c-5,0-11.6,0-12.5,0c-0.3,0-1.1,0-1.1-1.4c0-0.1,0-0.3,0-0.6
			c0-0.5,0-1.2,0-1.9c0-0.8,0.9-1.3,1.3-1.3l5.6,0c4.7,0,10.9,0,11.8,0c1.2,0,1.2,1.1,1.2,1.3c0,0.2,0,0.5,0,1c0,0.6,0,1.4,0,1.8
			C470.9,90,470.3,90.4,470.1,90.4z"/>
		<rect x="455.3" y="87.4" class="st0" width="11.4" height="0.9"/>
		<rect x="442.2" y="89.1" class="st0" width="7.3" height="0.9"/>
		<path class="st0" d="M471.3,103.9c0-0.8-0.4-2.2-2.1-2.2c-0.9,0-7.1,0-11.8,0l-5.6,0c-0.7,0-2.1,0.8-2.1,2.2c0,0.7,0,1.4,0,1.9
			c0,0.3,0,0.5,0,0.6c0,1.4,0.7,2.3,2,2.3c0.9,0,7.6,0,12.5,0c2.9,0,5.2,0,5.4,0c0.7,0,1.7-0.9,1.7-1.9c0-0.4,0-1.2,0-1.8
			C471.3,104.4,471.3,104,471.3,103.9z M469.7,107.7c-0.2,0-2.5,0-5.4,0c-5,0-11.6,0-12.5,0c-0.3,0-1.1,0-1.1-1.4c0-0.1,0-0.3,0-0.6
			c0-0.5,0-1.2,0-1.9c0-0.8,0.9-1.3,1.3-1.3l5.6,0c4.7,0,10.9,0,11.8,0c1.2,0,1.2,1.1,1.2,1.3c0,0.2,0,0.5,0,1c0,0.6,0,1.4,0,1.8
			C470.5,107.2,469.9,107.7,469.7,107.7z"/>
		<rect x="454.9" y="104.6" class="st0" width="11.4" height="0.9"/>
		<rect x="441.7" y="106.3" class="st0" width="7.3" height="0.9"/>
		<path class="st0" d="M470.6,120c0-0.8-0.4-2.2-2.1-2.2c-0.9,0-7.1,0-11.8,0l-5.6,0c-0.7,0-2.1,0.8-2.1,2.2c0,0.7,0,1.4,0,1.9
			c0,0.3,0,0.5,0,0.6c0,1.4,0.7,2.3,2,2.3c0.9,0,7.6,0,12.5,0c2.9,0,5.2,0,5.4,0c0.7,0,1.7-0.9,1.7-1.9c0-0.4,0-1.2,0-1.8
			C470.6,120.6,470.6,120.2,470.6,120z M468.9,123.8c-0.2,0-2.5,0-5.4,0c-5,0-11.6,0-12.5,0c-0.3,0-1.1,0-1.1-1.4c0-0.1,0-0.3,0-0.6
			c0-0.5,0-1.2,0-1.9c0-0.8,0.9-1.3,1.3-1.3l5.6,0c4.7,0,10.9,0,11.8,0c1.2,0,1.2,1.1,1.2,1.3c0,0.2,0,0.5,0,1c0,0.6,0,1.4,0,1.8
			C469.8,123.3,469.1,123.8,468.9,123.8z"/>
		<rect x="454.2" y="120.8" class="st0" width="11.4" height="0.9"/>
		<rect x="441" y="122.5" class="st0" width="7.3" height="0.9"/>
		<path class="st0" d="M469.8,137c0-0.8-0.4-2.2-2.1-2.2c-0.9,0-7.1,0-11.8,0l-5.6,0c-0.7,0-2.1,0.8-2.1,2.2c0,0.7,0,1.4,0,1.9
			c0,0.3,0,0.5,0,0.6c0,1.4,0.7,2.3,2,2.3c0.9,0,7.6,0,12.5,0c2.9,0,5.2,0,5.4,0c0.7,0,1.7-0.9,1.7-1.9c0-0.4,0-1.2,0-1.8
			C469.8,137.6,469.8,137.2,469.8,137z M468.2,140.8c-0.2,0-2.5,0-5.4,0c-5,0-11.6,0-12.5,0c-0.3,0-1.1,0-1.1-1.4c0-0.1,0-0.3,0-0.6
			c0-0.5,0-1.2,0-1.9c0-0.8,0.9-1.3,1.3-1.3l5.6,0c4.7,0,10.9,0,11.8,0c1.2,0,1.2,1.1,1.2,1.3c0,0.2,0,0.5,0,1c0,0.6,0,1.4,0,1.8
			C469,140.4,468.4,140.8,468.2,140.8z"/>
		<rect x="453.4" y="137.8" class="st0" width="11.4" height="0.9"/>
		<rect x="440.2" y="139.5" class="st0" width="7.3" height="0.9"/>
		<path class="st0" d="M469.4,153.2c0-0.8-0.4-2.2-2.1-2.2c-0.9,0-7.1,0-11.8,0l-5.6,0c-0.8,0-2.1,0.9-2.1,2.2c0,0.7,0,1.4,0,1.9
			c0,0.3,0,0.5,0,0.6c0,1.4,0.7,2.3,2,2.3c0.9,0,7.6,0,12.5,0c2.9,0,5.2,0,5.4,0c0.7,0,1.7-0.9,1.7-1.9c0-0.4,0-1.2,0-1.8
			C469.4,153.7,469.4,153.4,469.4,153.2z M467.7,157c-0.2,0-2.5,0-5.4,0c-5,0-11.6,0-12.5,0c-0.3,0-1.1,0-1.1-1.4c0-0.1,0-0.3,0-0.6
			c0-0.5,0-1.2,0-1.9c0-0.8,0.9-1.3,1.3-1.3l5.6,0c4.7,0,10.9,0,11.8,0c1.2,0,1.2,1.1,1.2,1.3c0,0.2,0,0.5,0,1c0,0.6,0,1.4,0,1.8
			C468.6,156.5,468,157,467.7,157z"/>
		<rect x="453" y="154" class="st0" width="11.4" height="0.9"/>
		<rect x="439.8" y="155.6" class="st0" width="7.3" height="0.9"/>
		<path class="st0" d="M468.7,169.8c0-0.8-0.4-2.2-2.1-2.2c-0.9,0-7.1,0-11.8,0l-5.6,0c-0.8,0-2.1,0.9-2.1,2.2c0,0.7,0,1.4,0,1.9
			c0,0.3,0,0.5,0,0.6c0,1.4,0.7,2.3,2,2.3c0.9,0,7.6,0,12.5,0c2.9,0,5.2,0,5.4,0c0.7,0,1.7-0.9,1.7-1.9c0-0.4,0-1.2,0-1.8
			C468.8,170.3,468.7,169.9,468.7,169.8z M467.1,173.6c-0.2,0-2.5,0-5.4,0c-5,0-11.6,0-12.5,0c-0.3,0-1.1,0-1.1-1.4
			c0-0.1,0-0.3,0-0.6c0-0.5,0-1.2,0-1.9c0-0.8,0.9-1.3,1.3-1.3l5.6,0c4.7,0,10.9,0,11.8,0c1.2,0,1.2,1.1,1.2,1.3c0,0.2,0,0.5,0,1
			c0,0.6,0,1.4,0,1.8C467.9,173.1,467.3,173.6,467.1,173.6z"/>
		<rect x="452.4" y="170.6" class="st0" width="11.4" height="0.9"/>
		<rect x="439.2" y="172.2" class="st0" width="7.3" height="0.9"/>
		<path class="st0" d="M468.1,186c0-0.8-0.4-2.2-2.1-2.2c-0.9,0-7.1,0-11.8,0l-5.6,0c-0.8,0-2.1,0.9-2.1,2.2c0,0.7,0,1.4,0,1.9
			c0,0.3,0,0.5,0,0.6c0,1.4,0.7,2.3,2,2.3c0.9,0,7.6,0,12.5,0c2.9,0,5.2,0,5.4,0c0.7,0,1.7-0.9,1.7-1.9c0-0.4,0-1.2,0-1.8
			C468.1,186.5,468.1,186.1,468.1,186z M466.5,189.8c-0.2,0-2.5,0-5.4,0c-5,0-11.6,0-12.5,0c-0.3,0-1.1,0-1.1-1.4c0-0.1,0-0.3,0-0.6
			c0-0.5,0-1.2,0-1.9c0-0.8,0.9-1.3,1.3-1.3l5.6,0c4.7,0,10.9,0,11.8,0c1.2,0,1.2,1.1,1.2,1.3c0,0.2,0,0.5,0,1c0,0.6,0,1.4,0,1.8
			C467.3,189.3,466.7,189.8,466.5,189.8z"/>
		<rect x="451.7" y="186.7" class="st0" width="11.4" height="0.9"/>
		<rect x="438.5" y="188.4" class="st0" width="7.3" height="0.9"/>
		<path class="st0" d="M558.4,208c-0.2-27.8-0.3-46.2-0.3-47.1c0-3.4-0.6-20.2-1.1-24.8c-0.5-4.7-7-44.9-7-45.2
			c-0.2-1-1.1-4.1-4.9-4.1c-2.8,0-46.9-0.2-52.6-0.2c1.5-32.2,2.6-56.3,2.6-57.1c0-4.7-0.8-28-17.4-29.1
			c-16.6-1.1-138.2-0.2-139.8-0.2C336.6,0.3,198.7,0.7,197,1c-2.7,0.4-16.3,5.3-16.7,19.3c-0.2,5.2,0.2,33.3,0.7,67
			c-8,0-166.4-0.2-167.7-0.2c-1.8,0-4.6,1.2-5.1,3.7c-0.4,2.1-4.9,36.1-5.1,38.1c-0.2,1.9-1.5,20.8-1.7,29.6
			c-0.1,4.3-0.3,71.5-0.6,142.7C0.6,375,0.3,451.4,0.2,453C0,455,0,460.2,0,463.3c0,3.2,1.9,18.9,2.1,19.9l0,0.2
			c0.2,1.2,0.9,5,5.5,5c0.7,0,19.2,0,49,0.1c206.3,0.6,440.2,1.2,485.9,1.2c5.1,0,7.8,0,8,0c1.8-0.2,6.4-1.8,6.9-6.3
			c0.2-1.5,0.6-4.4,1-7.6c0.7-5,1.4-10.6,1.6-12.6C560.1,460.7,559,296.3,558.4,208z M182.1,20.3c0.4-14.2,15.1-17.7,15.2-17.7
			C199.7,2.4,329.6,2,337.9,2h0c1.2,0,123.1-0.8,139.7,0.2c15.1,1,15.8,23,15.8,27.4c0,1-1.9,41.9-3.9,85.2
			c-2.4,51.4-4.8,104.6-4.8,106c0,2.1-1.5,2.1-1.7,2.1c-0.2,0-34.9,0.1-80.4,0.2c-85.3,0.2-214.3,0.5-215.8,0.5c-0.4,0-1.7,0-1.7-3
			c0-0.2-0.1-4.8-0.2-12.5C184,164.6,181.7,32.2,182.1,20.3z M125.8,480.4l-0.8,0.1c-4.4,0.5-58.2-0.1-64-0.6
			c-5.2-0.4-11.6-3.8-13.2-5.7c-1.5-1.9-2-5.5-2.4-8.7l0-0.4c-0.4-3.1,0.4-179.7,0.9-196.8c0.4-14,3-146.8,3-152.8
			c0-4.3,4.3-5,8.4-5.4l0.7-0.1c0.2,0,17.7-1.4,34.7-1.5c16.8-0.1,34.5,0.8,40.3,1.1l1.5,0.1c1.4,0.1,2.5,0.5,3.2,1.3
			c1,1.1,1.4,2.9,1.3,5.4c0,0.6-0.2,26.7-0.4,66.2c-0.6,100-1.7,286.2-2.3,290.9C136.2,479.2,130.4,479.9,125.8,480.4z M139.6,303.4
			l391.2,0.3v-0.4L139.6,303c0.3-43.1,0.5-86.6,0.8-120.3c0.2-38,0.4-65.5,0.4-66.1c0.2-2.8-0.4-4.9-1.6-6.3c-1-1.1-2.4-1.7-4.1-1.7
			l-1.5-0.1c-5.8-0.3-23.6-1.2-40.4-1.1c-17.1,0.1-34.7,1.5-34.8,1.5l-0.7,0.1c-3.1,0.2-9.6,0.8-9.6,6.6c0,6-2.6,138.8-3,152.8
			c-0.1,4-0.2,16.9-0.4,34.2l-16.2,0c0-12.3,0.1-30.1,0.1-49.3c0.1-49.6,0.2-111.4,0.3-114.7c0.2-5.4,2.7-21.9,4-27.4
			c1.4-5.7,10.5-5.8,10.9-5.8c2,0,128.7,0.2,137.5,0.2c0.6,39.2,1.4,81.4,1.8,102.6c0.1,7.7,0.2,12.3,0.2,12.5
			c0,4.2,2.4,4.7,3.4,4.7c1.5,0,130.5-0.3,215.8-0.5c45.5-0.1,80.2-0.2,80.4-0.2c1.4,0,3.4-1,3.4-3.8c0-1.3,2.6-56.9,4.8-106
			c0.1-3.1,0.3-6.1,0.4-9.2c3.8,0,21.3,0,26.1,0c5.3,0,8.3,5.1,8.9,6.9c0.3,1.2,1.6,10.6,2.5,18.2c0.6,5,1.2,9.4,1.4,10.7
			c0.4,2.2,0.6,11.1,0.6,25.2c0,0.6,0,5.3,0,12.6c0.1,36.9,0.5,134.8,0.2,140.5c-0.3,6.7-7.1,11.1-11.4,11.1
			c-4.4,0-360.8-0.8-380.6-0.8C139.5,321.3,139.5,312.4,139.6,303.4z M1.9,453.2c0.1-1,0.3-60.8,0.7-152
			c0.3-71.1,0.5-138.3,0.6-142.6c0.2-8.8,1.5-27.6,1.7-29.5c0.2-2.1,4.7-35.9,5.1-38c0.3-1.6,2.4-2.3,3.4-2.3
			c1.2,0,160,0.2,167.7,0.2c0.1,5.3,0.2,10.7,0.3,16.2c-8.9,0-135.5-0.2-137.5-0.2c-0.4,0-9.8,0.1-11.3,6.1c-1.3,5.5-3.8,22-4,27.5
			c-0.1,3.3-0.2,65-0.3,114.7c-0.1,34.8-0.1,64.9-0.1,66.1c-0.2,6.2,4.9,11.5,9.3,11.7c1.4,0.1,2.6,0.1,3.5,0.1
			c1.8,0,2.6-0.1,2.7-0.1l0-0.4c0,0-2,0.2-6.1,0c-4.2-0.2-9.1-5.3-8.9-11.3c0-0.5,0-6.7,0.1-16.4l16.2,0
			c-0.4,56.5-0.8,160-0.5,162.4l0,0.4c0.4,3.1,0.8,6.5,2.3,8.7c-1.9-1.1-4-2.3-5.7-3.4c-1.1-0.7-2.1-1.3-2.9-1.7
			c-1.8-1.6-11.7-2.1-16.3-1.9c-1.4,0-3.5,0.1-5.9,0.1c-4.9,0.1-11,0.2-13.6,0.4c-0.2-2.1-0.3-3.8-0.3-4.6
			C1.7,460.4,1.7,455.1,1.9,453.2z M558.3,463.1c-0.1,1.9-0.9,7.5-1.6,12.5c-0.4,3.2-0.8,6.2-1,7.7c-0.4,3.4-4.1,4.6-5.4,4.8
			c-3.3,0.2-359.6-0.8-493.7-1.1c-29.8-0.1-48.3-0.1-49-0.1c-2.7,0-3.5-1.7-3.8-3.6l0-0.2c-0.2-0.8-1.2-8.9-1.7-14.6
			c2.6-0.3,8.7-0.3,13.6-0.4c2.4,0,4.5-0.1,5.9-0.1c4.7-0.1,14.4,0.3,16.1,1.8c0.8,0.5,1.8,1.1,2.9,1.7c2,1.2,4.4,2.6,6.5,3.8
			c2,2.2,8.4,5.5,13.9,6c4.4,0.3,33.7,0.8,51.3,0.8c6.7,0,11.6-0.1,12.9-0.2l0.8-0.1c3.9-0.4,8.9-1,11.1-4.7
			c4.7-1.8,15.7-6.5,16.6-7.3c1-0.8,5.5-1.7,8.4-1.4c2.3,0.2,272.4-0.1,388.4-0.2c3.3,0,5.2,0,5.2,0v-0.4c-0.1,0-1.9,0-5.2,0
			c-90.5,0.1-386,0.4-388.4,0.2c-2.8-0.2-7.5,0.6-8.7,1.5c-0.9,0.7-11.2,5.2-16.1,7.1c0.4-0.8,0.7-1.7,0.8-2.7
			c0.3-2.8,0.8-68.8,1.3-143.1c19.8,0,376.2,0.8,380.6,0.8c2.4,0,5.3-1.2,7.5-3.2c2.6-2.3,4.2-5.2,4.3-8.4
			c0.2-5.6-0.1-103.6-0.2-140.5c0-7.3,0-12,0-12.6c0-14.1-0.2-23.1-0.6-25.3c-0.2-1.3-0.8-5.7-1.4-10.7c-1-8-2.2-17-2.5-18.2
			c-0.6-2.3-3.9-7.2-9.3-7.2c-4.8,0-22.2,0-26.1,0c0.3-5.8,0.5-11.5,0.8-17c5.3,0,49.8,0.2,52.6,0.2c2.3,0,3,1.7,3.2,2.7
			c0.1,0.3,6.6,40.3,7,45c0.4,4.6,1.1,21.2,1.1,24.6c0,0.9,0.1,19.3,0.3,47.1C557.3,289.9,558.4,460.5,558.3,463.1z"/>
		<path class="st0" d="M128.4,472.4c-1.3,0.1-24.8,1-36.3,1c-11.6,0-33.5-0.4-36-0.7c-2.7-0.3-7.3-1.4-9.3-2.8l-0.2,0.3
			c2,1.4,6.8,2.6,9.5,2.9c2.5,0.3,24.4,0.7,36,0.7c11.5,0,35-0.8,36.3-1c1.3-0.1,6.4-1.3,8.3-2.7l-0.3-0.3
			C134.7,471.1,129.8,472.2,128.4,472.4z"/>
		<path class="st0" d="M257.1,285.3h33.1v-13.4h-33.1V285.3z M257.9,272.8h31.4v11.7h-31.4V272.8z"/>
		<path class="st0" d="M324.3,271.9H295v13.4h29.3c2.1,0,3.8-1.7,3.8-3.8v-5.7C328.2,273.6,326.4,271.9,324.3,271.9z M327.3,281.5
			c0,1.6-1.3,3-3,3h-28.5v-11.7h28.5c1.6,0,3,1.3,3,3V281.5z"/>
		<path class="st0" d="M219.1,275.7v5.7c0,2.1,1.7,3.8,3.8,3.8h29.3v-13.4h-29.3C220.8,271.9,219.1,273.6,219.1,275.7z M251.3,284.5
			h-28.4c-1.6,0-3-1.3-3-3v-5.7c0-1.6,1.3-3,3-3h28.4V284.5z"/>
		<path class="st0" d="M427.7,285.3h33.1v-13.4h-33.1V285.3z M428.6,272.8h31.4v11.7h-31.4V272.8z"/>
		<path class="st0" d="M495,271.9h-29.3v13.4H495c2.1,0,3.8-1.7,3.8-3.8v-5.7C498.8,273.6,497.1,271.9,495,271.9z M498,281.5
			c0,1.6-1.3,3-3,3h-28.5v-11.7H495c1.6,0,3,1.3,3,3V281.5z"/>
		<path class="st0" d="M389.7,275.7v5.7c0,2.1,1.7,3.8,3.8,3.8h29.3v-13.4h-29.3C391.5,271.9,389.7,273.6,389.7,275.7z M422,284.5
			h-28.4c-1.6,0-3-1.3-3-3v-5.7c0-1.6,1.3-3,3-3H422V284.5z"/>
		<path class="st0" d="M188,305.5c-6.3,0-11.5,5.2-11.5,11.5s5.2,11.5,11.5,11.5s11.5-5.2,11.5-11.5S194.3,305.5,188,305.5z
			 M188,327.6c-5.9,0-10.6-4.8-10.6-10.6s4.8-10.6,10.6-10.6s10.6,4.8,10.6,10.6S193.9,327.6,188,327.6z"/>
		<path class="st0" d="M222.3,305.5c-6.3,0-11.5,5.2-11.5,11.5s5.2,11.5,11.5,11.5s11.5-5.2,11.5-11.5S228.7,305.5,222.3,305.5z
			 M222.3,327.6c-5.9,0-10.6-4.8-10.6-10.6s4.8-10.6,10.6-10.6S233,311.1,233,317S228.2,327.6,222.3,327.6z"/>
		<path class="st0" d="M256.7,305.5c-6.3,0-11.5,5.2-11.5,11.5s5.2,11.5,11.5,11.5c6.3,0,11.5-5.2,11.5-11.5S263,305.5,256.7,305.5z
			 M256.7,327.6c-5.9,0-10.6-4.8-10.6-10.6s4.8-10.6,10.6-10.6c5.9,0,10.6,4.8,10.6,10.6S262.5,327.6,256.7,327.6z"/>
		<path class="st0" d="M291,305.5c-6.3,0-11.5,5.2-11.5,11.5s5.2,11.5,11.5,11.5c6.3,0,11.5-5.2,11.5-11.5S297.3,305.5,291,305.5z
			 M291,327.6c-5.9,0-10.6-4.8-10.6-10.6s4.8-10.6,10.6-10.6s10.6,4.8,10.6,10.6S296.9,327.6,291,327.6z"/>
		<path class="st0" d="M325.3,305.5c-6.3,0-11.5,5.2-11.5,11.5s5.2,11.5,11.5,11.5s11.5-5.2,11.5-11.5S331.6,305.5,325.3,305.5z
			 M325.3,327.6c-5.9,0-10.6-4.8-10.6-10.6s4.8-10.6,10.6-10.6s10.6,4.8,10.6,10.6S331.2,327.6,325.3,327.6z"/>
		<path class="st0" d="M359.6,305.5c-6.3,0-11.5,5.2-11.5,11.5s5.2,11.5,11.5,11.5c6.3,0,11.5-5.2,11.5-11.5S366,305.5,359.6,305.5z
			 M359.6,327.6c-5.9,0-10.6-4.8-10.6-10.6s4.8-10.6,10.6-10.6s10.6,4.8,10.6,10.6S365.5,327.6,359.6,327.6z"/>
		<path class="st0" d="M484.3,313.8h-81c-1.1,0-1.9,0.9-1.9,1.9v2.3c0,1.1,0.9,1.9,1.9,1.9h81c1.1,0,1.9-0.9,1.9-1.9v-2.3
			C486.2,314.7,485.3,313.8,484.3,313.8z M485.8,318.1c0,0.8-0.7,1.5-1.5,1.5h-81c-0.8,0-1.5-0.7-1.5-1.5v-2.3
			c0-0.8,0.7-1.5,1.5-1.5h81c0.8,0,1.5,0.7,1.5,1.5V318.1z"/>
		<path class="st0" d="M389,348.6v11c0,2.1,1.7,3.8,3.8,3.8h29.9v-18.7h-29.9C390.7,344.8,389,346.5,389,348.6z M421.9,362.6h-29.1
			c-1.6,0-3-1.3-3-3v-11c0-1.6,1.3-3,3-3h29.1V362.6z"/>
		<path class="st0" d="M426.8,363.4h34.8v-18.7h-34.8V363.4z M427.7,345.6h33.1v17h-33.1V345.6z"/>
		<path class="st0" d="M495.2,344.8h-29.5v18.7h29.5c2.1,0,3.8-1.7,3.8-3.8v-11C499,346.5,497.3,344.8,495.2,344.8z M498.1,359.6
			c0,1.6-1.3,3-3,3h-28.7v-17h28.7c1.6,0,3,1.3,3,3V359.6z"/>
		<path class="st0" d="M389,374.7v11c0,2.1,1.7,3.8,3.8,3.8h29.9v-18.7h-29.9C390.7,370.9,389,372.6,389,374.7z M421.9,388.7h-29.1
			c-1.6,0-3-1.3-3-3v-11c0-1.6,1.3-3,3-3h29.1V388.7z"/>
		<path class="st0" d="M426.8,389.6h34.8v-18.7h-34.8V389.6z M427.7,371.7h33.1v17h-33.1V371.7z"/>
		<path class="st0" d="M495.2,370.9h-29.5v18.7h29.5c2.1,0,3.8-1.7,3.8-3.8v-11C499,372.6,497.3,370.9,495.2,370.9z M498.1,385.7
			c0,1.6-1.3,3-3,3h-28.7v-17h28.7c1.6,0,3,1.3,3,3V385.7z"/>
		<path class="st0" d="M389,400.8v11c0,2.1,1.7,3.8,3.8,3.8h29.9V397h-29.9C390.7,397,389,398.7,389,400.8z M421.9,414.8h-29.1
			c-1.6,0-3-1.3-3-3v-11c0-1.6,1.3-3,3-3h29.1V414.8z"/>
		<path class="st0" d="M426.8,415.7h34.8V397h-34.8V415.7z M427.7,397.8h33.1v17h-33.1V397.8z"/>
		<path class="st0" d="M495.2,397h-29.5v18.7h29.5c2.1,0,3.8-1.7,3.8-3.8v-11C499,398.7,497.3,397,495.2,397z M498.1,411.8
			c0,1.6-1.3,3-3,3h-28.7v-17h28.7c1.6,0,3,1.3,3,3V411.8z"/>
		<path class="st0" d="M389,426.9v11c0,2.1,1.7,3.8,3.8,3.8h29.9v-18.7h-29.9C390.7,423.1,389,424.8,389,426.9z M421.9,440.9h-29.1
			c-1.6,0-3-1.3-3-3v-11c0-1.6,1.3-3,3-3h29.1V440.9z"/>
		<path class="st0" d="M426.8,441.8h34.8v-18.7h-34.8V441.8z M427.7,423.9h33.1v17h-33.1V423.9z"/>
		<path class="st0" d="M495.2,423.1h-29.5v18.7h29.5c2.1,0,3.8-1.7,3.8-3.8v-11C499,424.8,497.3,423.1,495.2,423.1z M498.1,437.9
			c0,1.6-1.3,3-3,3h-28.7v-17h28.7c1.6,0,3,1.3,3,3V437.9z"/>
	</g>
</g>
<g id="Ebene_3">
	<g>
		<circle id="bgnumber_7_" class="st1" cx="436.4" cy="184" r="7.1"/>
		<text transform="matrix(1 0 0 1 430.4832 187.6081)" class="st2 st3 st4 button" data-number="7">08</text>
	</g>
	<g>
		<circle id="bgnumber_6_" class="st1" cx="436.4" cy="167.8" r="7.1"/>
		<text transform="matrix(1 0 0 1 430.9827 171.3973)" class="st2 st3 st4 button" data-number="6">07</text>
	</g>
	<g>
		<circle id="bgnumber_5_" class="st1" cx="436.4" cy="151.7" r="7.1"/>
		<text transform="matrix(1 0 0 1 430.5233 155.1077)" class="st2 st3 st4 button" data-number="5">06</text>
	</g>
	<g>
		<circle id="bgnumber_4_" class="st1" cx="436.4" cy="135.5" r="7.1"/>
		<text transform="matrix(1 0 0 1 430.7033 138.8969)" class="st2 st3 st4 button" data-number="4">05</text>
	</g>
	<g>
		<circle id="bgnumber_3_" class="st1" cx="436.4" cy="119.3" r="7.1"/>
		<text transform="matrix(1 0 0 1 430.4733 122.7862)" class="st2 st3 st4 button" data-number="3">04</text>
	</g>
	<g>
		<circle id="bgnumber_2_" class="st1" cx="436.4" cy="103.1" r="7.1"/>
		<text transform="matrix(1 0 0 1 430.6083 106.5753)" class="st2 st3 st4 button" data-number="2">03</text>
	</g>
	<g>
		<circle id="bgnumber_1_" class="st1" cx="436.4" cy="86.9" r="7.1"/>
		<text transform="matrix(1 0 0 1 430.7534 90.3646)" class="st2 st3 st4 button" data-number="1">02</text>
	</g>
	<g>
		<circle id="bgnumber" class="st1" cx="436.4" cy="70.7" r="7.1"/>
		<text transform="matrix(1 0 0 1 431.4081 74.1537)" class="st2 st3 st4 button" data-number="0">01</text>
	</g>
</g>
</svg>
