<?xml version="1.0" encoding="utf-8"?>
<!-- Generator: Adobe Illustrator 21.0.1, SVG Export Plug-In . SVG Version: 6.00 Build 0)  -->
<!DOCTYPE svg PUBLIC "-//W3C//DTD SVG 1.1//EN" "http://www.w3.org/Graphics/SVG/1.1/DTD/svg11.dtd">
<svg version="1.1" xmlns="http://www.w3.org/2000/svg" xmlns:xlink="http://www.w3.org/1999/xlink" x="0px" y="0px"
	 viewBox="0 0 460 422.2" style="enable-background:new 0 0 460 422.2;" xml:space="preserve">
<style type="text/css">
	.button{cursor: pointer}
	.st0{fill:#B3B2B2;}
	.st1{fill:#FFFFFF;}
	.st2{fill:#29AEE4;}
	.st3{font-family:'BrixSansRegular';}
	.st4{font-size:10px;}
</style>
<g id="Ebene_2">
	<g>
		<path class="st0" d="M453.8,422.2H6.2c-3.4,0-6.2-2.8-6.2-6.2V6.2C0,2.8,2.8,0,6.2,0h447.7c3.4,0,6.2,2.8,6.2,6.2V416
			C460,419.4,457.2,422.2,453.8,422.2z M6.2,1.8c-2.4,0-4.3,1.9-4.3,4.3V416c0,2.4,1.9,4.3,4.3,4.3h447.7c2.4,0,4.3-1.9,4.3-4.3V6.2
			c0-2.4-1.9-4.3-4.3-4.3H6.2z"/>
		<path class="st0" d="M453.8,416.2H6.2c-3,0-5.5-2.5-5.5-5.5h0.5c0,2.8,2.2,5,5,5h447.7c2.8,0,5-2.2,5-5h0.5
			C459.3,413.7,456.9,416.2,453.8,416.2z"/>
		<path class="st0" d="M125.5,415.1H69.3c-4.6,0-11.7-3-19.3-6.3c-7.8-3.3-15.8-6.7-20.9-6.7c-5.1,0-22.7,0.2-22.8,0.2
			c-3,0-5.5-2.5-5.5-5.5h0.5c0,2.8,2.2,5,5,5c0.2,0,17.7-0.2,22.8-0.2c5.3,0,13.3,3.4,21.1,6.7c7.6,3.2,14.7,6.2,19.2,6.2h56.3
			c3.9,0,11.3-2.9,19.2-6c8.4-3.3,17.1-6.7,22.1-6.7h287.1c2.8,0,5-2.2,5-5h0.5c0,3-2.5,5.5-5.5,5.5H166.7c-4.8,0-13.5,3.4-21.9,6.7
			C136.9,412.2,129.5,415.1,125.5,415.1z"/>
		<path class="st0" d="M420.5,234.6h-276v-0.5h276c5.6,0,10.2-4.6,10.2-10.2V34.5c0-5.6-4.6-10.2-10.2-10.2H39.5
			c-5.6,0-10.2,4.6-10.2,10.2v189.5c0,5.6,4.6,10.2,10.2,10.2h11.1v0.5H39.5c-5.9,0-10.7-4.8-10.7-10.7V34.5
			c0-5.9,4.8-10.7,10.7-10.7h380.9c5.9,0,10.7,4.8,10.7,10.7v189.5C431.2,229.8,426.4,234.6,420.5,234.6z"/>
		<rect x="144.7" y="204.5" class="st0" width="286.3" height="0.5"/>
		<rect x="29.1" y="204.5" class="st0" width="21.5" height="0.5"/>
		<path class="st0" d="M129.2,415.5h-22.3l-1.5-1.8H90.6l-1.2,1.8H66.4c-9,0-16.4-7.4-16.4-16.4V43.8c0-9,7.4-16.4,16.4-16.4h62.7
			c9,0,16.4,7.4,16.4,16.4v355.3C145.6,408.1,138.2,415.5,129.2,415.5z M107.5,414.1h21.7c8.3,0,15-6.7,15-15V43.8
			c0-8.3-6.7-15-15-15H66.4c-8.3,0-15,6.7-15,15v355.3c0,8.3,6.7,15,15,15h22.2l1.2-1.8H106L107.5,414.1z"/>
		<path class="st0" d="M186.3,171.9c-3,0-5.5-2.5-5.5-5.5V85.7c0-3,2.5-5.5,5.5-5.5h4.5v0.5h-4.5c-2.8,0-5,2.2-5,5v80.7
			c0,2.8,2.2,5,5,5V171.9z"/>
		<path class="st0" d="M389.7,171.9h-12.1v-0.5h12.1c2.8,0,5-2.2,5-5V85.7c0-2.8-2.2-5-5-5v-0.5c3,0,5.5,2.5,5.5,5.5v80.7
			C395.2,169.4,392.7,171.9,389.7,171.9z"/>
		<rect x="185.7" y="115.6" class="st0" width="201.9" height="0.5"/>
		<path class="st0" d="M375.7,161.7H200.8c-1.7,0-3.1-1.4-3.1-3.1v-30.1c0-1.7,1.4-3.1,3.1-3.1h174.9c1.7,0,3.1,1.4,3.1,3.1v30.1
			C378.8,160.3,377.4,161.7,375.7,161.7z M200.8,126.4c-1.2,0-2.2,1-2.2,2.2v30.1c0,1.2,1,2.2,2.2,2.2h174.9c1.2,0,2.2-1,2.2-2.2
			v-30.1c0-1.2-1-2.2-2.2-2.2H200.8z"/>
		<g>
			<path class="st0" d="M238.8,226.7h-35.5v-15.5h35.5V226.7z M204.6,225.3h32.8v-12.7h-32.8V225.3z"/>
			<path class="st0" d="M272.9,226.7h-30.5v-15.5h30.5c2.4,0,4.4,2,4.4,4.4v6.7C277.3,224.7,275.3,226.7,272.9,226.7z M243.8,225.3
				h29.1c1.6,0,3-1.3,3-3v-6.7c0-1.6-1.3-3-3-3h-29.1V225.3z"/>
			<path class="st0" d="M199.5,226.7h-30.9c-2.4,0-4.4-2-4.4-4.4v-6.7c0-2.4,2-4.4,4.4-4.4h30.9V226.7z M168.6,212.6
				c-1.6,0-3,1.3-3,3v6.7c0,1.6,1.3,3,3,3h29.6v-12.7H168.6z"/>
		</g>
		<g>
			<path class="st0" d="M404.9,226.7h-50.4v-15.5h50.4c2.4,0,4.4,2,4.4,4.4v6.7C409.2,224.7,407.3,226.7,404.9,226.7z M355.9,225.3
				h49c1.6,0,3-1.3,3-3v-6.7c0-1.6-1.3-3-3-3h-49V225.3z"/>
			<path class="st0" d="M350.8,226.7h-50.2c-2.4,0-4.4-2-4.4-4.4v-6.7c0-2.4,2-4.4,4.4-4.4h50.2V226.7z M300.6,212.6
				c-1.6,0-3,1.3-3,3v6.7c0,1.6,1.3,3,3,3h48.8v-12.7H300.6z"/>
		</g>
		<g>
			<path class="st0" d="M238.8,267.6h-35.5v-20h35.5V267.6z M204.6,266.2h32.8v-17.2h-32.8V266.2z"/>
			<path class="st0" d="M272.4,267.6h-29.9v-20h29.9c2.7,0,4.9,2.2,4.9,4.9v10.2C277.3,265.4,275.1,267.6,272.4,267.6z M243.8,266.2
				h28.6c1.9,0,3.5-1.6,3.5-3.5v-10.2c0-1.9-1.6-3.5-3.5-3.5h-28.6V266.2z"/>
			<path class="st0" d="M199.5,267.6h-30.4c-2.7,0-4.9-2.2-4.9-4.9v-10.2c0-2.7,2.2-4.9,4.9-4.9h30.4V267.6z M169.2,249.1
				c-1.9,0-3.5,1.6-3.5,3.5v10.2c0,1.9,1.6,3.5,3.5,3.5h29v-17.2H169.2z"/>
		</g>
		<g>
			<path class="st0" d="M272.4,293.9h-29.9v-20h29.9c2.7,0,4.9,2.2,4.9,4.9V289C277.3,291.7,275.1,293.9,272.4,293.9z M243.8,292.5
				h28.6c1.9,0,3.5-1.6,3.5-3.5v-10.2c0-1.9-1.6-3.5-3.5-3.5h-28.6V292.5z"/>
			<path class="st0" d="M238.8,293.9h-35.5v-20h35.5V293.9z M204.6,292.5h32.8v-17.2h-32.8V292.5z"/>
			<path class="st0" d="M199.5,293.9h-30.4c-2.7,0-4.9-2.2-4.9-4.9v-10.2c0-2.7,2.2-4.9,4.9-4.9h30.4V293.9z M169.2,275.4
				c-1.9,0-3.5,1.6-3.5,3.5V289c0,1.9,1.6,3.5,3.5,3.5h29v-17.2H169.2z"/>
		</g>
		<g>
			<path class="st0" d="M238.8,320.2h-35.5v-20h35.5V320.2z M204.6,318.8h32.8v-17.2h-32.8V318.8z"/>
			<path class="st0" d="M199.5,320.2h-30.4c-2.7,0-4.9-2.2-4.9-4.9v-10.2c0-2.7,2.2-4.9,4.9-4.9h30.4V320.2z M169.2,301.7
				c-1.9,0-3.5,1.6-3.5,3.5v10.2c0,1.9,1.6,3.5,3.5,3.5h29v-17.2H169.2z"/>
			<path class="st0" d="M272.4,320.2h-29.9v-20h29.9c2.7,0,4.9,2.2,4.9,4.9v10.2C277.3,318,275.1,320.2,272.4,320.2z M243.8,318.8
				h28.6c1.9,0,3.5-1.6,3.5-3.5v-10.2c0-1.9-1.6-3.5-3.5-3.5h-28.6V318.8z"/>
		</g>
		<g>
			<path class="st0" d="M238.8,346.5h-35.5v-20h35.5V346.5z M204.6,345.1h32.8V328h-32.8V345.1z"/>
			<path class="st0" d="M199.5,346.5h-30.4c-2.7,0-4.9-2.2-4.9-4.9v-10.2c0-2.7,2.2-4.9,4.9-4.9h30.4V346.5z M169.2,328
				c-1.9,0-3.5,1.6-3.5,3.5v10.2c0,1.9,1.6,3.5,3.5,3.5h29V328H169.2z"/>
			<path class="st0" d="M272.4,346.5h-29.9v-20h29.9c2.7,0,4.9,2.2,4.9,4.9v10.2C277.3,344.3,275.1,346.5,272.4,346.5z M243.8,345.1
				h28.6c1.9,0,3.5-1.6,3.5-3.5v-10.2c0-1.9-1.6-3.5-3.5-3.5h-28.6V345.1z"/>
		</g>
		<g>
			<path class="st0" d="M238.8,376.2h-35.5v-15.5h35.5V376.2z M204.6,374.8h32.8v-12.7h-32.8V374.8z"/>
			<path class="st0" d="M272.9,376.2h-30.5v-15.5h30.5c2.4,0,4.4,2,4.4,4.4v6.7C277.3,374.2,275.3,376.2,272.9,376.2z M243.8,374.8
				h29.1c1.6,0,3-1.3,3-3v-6.7c0-1.6-1.3-3-3-3h-29.1V374.8z"/>
			<path class="st0" d="M199.5,376.2h-30.9c-2.4,0-4.4-2-4.4-4.4v-6.7c0-2.4,2-4.4,4.4-4.4h30.9V376.2z M168.6,362.1
				c-1.6,0-3,1.3-3,3v6.7c0,1.6,1.3,3,3,3h29.6v-12.7H168.6z"/>
		</g>
		<g>
			<path class="st0" d="M392.7,260.8h-18.4v-9.2h18.4c1.5,0,2.8,1.2,2.8,2.8v3.7C395.5,259.5,394.2,260.8,392.7,260.8z M375.6,259.4
				h17.1c0.8,0,1.4-0.6,1.4-1.4v-3.7c0-0.8-0.6-1.4-1.4-1.4h-17.1V259.4z"/>
			<rect x="378.3" y="255.7" class="st0" width="12.8" height="1.4"/>
		</g>
		<g>
			<path class="st0" d="M392.7,276.3h-18.4v-9.2h18.4c1.5,0,2.8,1.2,2.8,2.8v3.7C395.5,275.1,394.2,276.3,392.7,276.3z M375.6,275
				h17.1c0.8,0,1.4-0.6,1.4-1.4v-3.7c0-0.8-0.6-1.4-1.4-1.4h-17.1V275z"/>
			<rect x="378.3" y="271.3" class="st0" width="12.8" height="1.4"/>
		</g>
		<g>
			<path class="st0" d="M392.7,291.9h-18.4v-9.2h18.4c1.5,0,2.8,1.2,2.8,2.8v3.7C395.5,290.7,394.2,291.9,392.7,291.9z M375.6,290.6
				h17.1c0.8,0,1.4-0.6,1.4-1.4v-3.7c0-0.8-0.6-1.4-1.4-1.4h-17.1V290.6z"/>
			<rect x="378.3" y="286.9" class="st0" width="12.8" height="1.4"/>
		</g>
		<g>
			<path class="st0" d="M392.7,307.5h-18.4v-9.2h18.4c1.5,0,2.8,1.2,2.8,2.8v3.7C395.5,306.3,394.2,307.5,392.7,307.5z M375.6,306.1
				h17.1c0.8,0,1.4-0.6,1.4-1.4v-3.7c0-0.8-0.6-1.4-1.4-1.4h-17.1V306.1z"/>
			<rect x="378.3" y="302.5" class="st0" width="12.8" height="1.4"/>
		</g>
		<g>
			<path class="st0" d="M392.7,323.1h-18.4v-9.2h18.4c1.5,0,2.8,1.2,2.8,2.8v3.7C395.5,321.9,394.2,323.1,392.7,323.1z M375.6,321.7
				h17.1c0.8,0,1.4-0.6,1.4-1.4v-3.7c0-0.8-0.6-1.4-1.4-1.4h-17.1V321.7z"/>
			<rect x="378.3" y="318" class="st0" width="12.8" height="1.4"/>
		</g>
		<g>
			<path class="st0" d="M392.7,338.7h-18.4v-9.2h18.4c1.5,0,2.8,1.3,2.8,2.8v3.7C395.5,337.5,394.2,338.7,392.7,338.7z M375.6,337.3
				h17.1c0.8,0,1.4-0.6,1.4-1.4v-3.7c0-0.8-0.6-1.4-1.4-1.4h-17.1V337.3z"/>
			<rect x="378.3" y="333.6" class="st0" width="12.8" height="1.4"/>
		</g>
		<g>
			<path class="st0" d="M392.7,354.3h-18.4v-9.2h18.4c1.5,0,2.8,1.2,2.8,2.8v3.7C395.5,353.1,394.2,354.3,392.7,354.3z M375.6,352.9
				h17.1c0.8,0,1.4-0.6,1.4-1.4v-3.7c0-0.8-0.6-1.4-1.4-1.4h-17.1V352.9z"/>
			<rect x="378.3" y="349.2" class="st0" width="12.8" height="1.4"/>
		</g>
		<g>
			<path class="st0" d="M392.7,369.9h-18.4v-9.2h18.4c1.5,0,2.8,1.2,2.8,2.8v3.7C395.5,368.6,394.2,369.9,392.7,369.9z M375.6,368.5
				h17.1c0.8,0,1.4-0.6,1.4-1.4v-3.7c0-0.8-0.6-1.4-1.4-1.4h-17.1V368.5z"/>
			<rect x="378.3" y="364.8" class="st0" width="12.8" height="1.4"/>
		</g>
		<path class="st0" d="M368.6,372.9h-67c-1,0-1.8-0.8-1.8-1.8v-11l0.2,0c1.3-0.1,2.3-1.2,2.3-2.5s-1-2.4-2.3-2.5l-0.2,0v-88.3l0.2,0
			c1.3-0.1,2.3-1.2,2.3-2.5c0-1.3-1-2.4-2.3-2.5l-0.2,0v-8.8c0-1,0.8-1.8,1.8-1.8h67c1,0,1.8,0.8,1.8,1.8v8.8l-0.2,0
			c-1.2,0.2-2.1,1.3-2.1,2.5c0,1.2,0.9,2.3,2.1,2.5l0.2,0V355l-0.2,0c-1.2,0.2-2.1,1.3-2.1,2.5s0.9,2.3,2.1,2.5l0.2,0v11
			C370.4,372.1,369.6,372.9,368.6,372.9z M300.3,360.5v10.6c0,0.7,0.6,1.3,1.3,1.3h67c0.7,0,1.3-0.6,1.3-1.3v-10.6
			c-1.3-0.3-2.3-1.5-2.3-2.9c0-1.4,1-2.6,2.3-2.9v-87.5c-1.3-0.3-2.3-1.5-2.3-2.9c0-1.4,1-2.6,2.3-2.9v-8.4c0-0.7-0.6-1.3-1.3-1.3
			h-67c-0.7,0-1.3,0.6-1.3,1.3v8.4c1.4,0.3,2.5,1.5,2.5,2.9c0,1.5-1,2.7-2.5,2.9v87.5c1.4,0.3,2.5,1.5,2.5,2.9
			S301.7,360.3,300.3,360.5z"/>
		<rect x="303.4" y="263.8" class="st0" width="63.2" height="0.5"/>
		<rect x="303.4" y="279.5" class="st0" width="63.2" height="0.5"/>
		<rect x="303.4" y="295.1" class="st0" width="63.2" height="0.5"/>
		<rect x="303.4" y="310.7" class="st0" width="63.2" height="0.5"/>
		<rect x="303.4" y="326.3" class="st0" width="63.2" height="0.5"/>
		<rect x="303.4" y="342" class="st0" width="63.2" height="0.5"/>
		<rect x="303.4" y="357.6" class="st0" width="63.2" height="0.5"/>
		<path class="st0" d="M403.6,376.1H301.7c-3,0-5.5-2.5-5.5-5.5v-118c0-3,2.4-5.5,5.5-5.5h101.8c3,0,5.5,2.5,5.5,5.5v118
			C409,373.7,406.6,376.1,403.6,376.1z M301.7,247.7c-2.8,0-5,2.2-5,5v118c0,2.8,2.2,5,5,5h101.8c2.8,0,5-2.2,5-5v-118
			c0-2.8-2.2-5-5-5H301.7z"/>
	</g>
</g>
<g id="Ebene_3">
	<g>
		<circle id="bgnumber_7_" class="st1" cx="405.3" cy="365.8" r="7.1"/>
		<text transform="matrix(1 0 0 1 399.469 369.4062)" class="st2 st3 st4 button" data-number="7">08</text>
	</g>
	<g>
		<circle id="bgnumber_6_" class="st1" cx="405.3" cy="350.1" r="7.1"/>
		<text transform="matrix(1 0 0 1 399.9685 353.6824)" class="st2 st3 st4 button" data-number="6">07</text>
	</g>
	<g>
		<circle id="bgnumber_5_" class="st1" cx="405.3" cy="334.4" r="7.1"/>
		<text transform="matrix(1 0 0 1 399.5091 337.8797)" class="st2 st3 st4 button" data-number="5">06</text>
	</g>
	<g>
		<circle id="bgnumber_4_" class="st1" cx="405.3" cy="318.7" r="7.1"/>
		<text transform="matrix(1 0 0 1 399.6891 322.1559)" class="st2 st3 st4 button" data-number="4">05</text>
	</g>
	<g>
		<circle id="bgnumber_3_" class="st1" cx="405.3" cy="303" r="7.1"/>
		<text transform="matrix(1 0 0 1 399.4591 306.5323)" class="st2 st3 st4 button" data-number="3">04</text>
	</g>
	<g>
		<circle id="bgnumber_2_" class="st1" cx="405.3" cy="287.3" r="7.1"/>
		<text transform="matrix(1 0 0 1 399.5941 290.8083)" class="st2 st3 st4 button" data-number="2">03</text>
	</g>
	<g>
		<circle id="bgnumber_1_" class="st1" cx="405.3" cy="271.6" r="7.1"/>
		<text transform="matrix(1 0 0 1 399.7392 275.0846)" class="st2 st3 st4 button" data-number="1">02</text>
	</g>
	<g>
		<circle id="bgnumber" class="st1" cx="405.3" cy="255.9" r="7.1"/>
		<text transform="matrix(1 0 0 1 400.3939 259.3607)" class="st2 st3 st4 button" data-number="0">01</text>
	</g>
</g>
</svg>
