<?xml version="1.0" encoding="utf-8"?>
<!-- Generator: Adobe Illustrator 21.0.1, SVG Export Plug-In . SVG Version: 6.00 Build 0)  -->
<!DOCTYPE svg PUBLIC "-//W3C//DTD SVG 1.1//EN" "http://www.w3.org/Graphics/SVG/1.1/DTD/svg11.dtd">
<svg version="1.1" xmlns="http://www.w3.org/2000/svg" xmlns:xlink="http://www.w3.org/1999/xlink" x="0px" y="0px"
	 viewBox="0 0 360 403.6" style="enable-background:new 0 0 360 403.6;" xml:space="preserve">
<style type="text/css">
	.button{cursor: pointer}
	.st0{fill:#B3B2B2;}
	.st1{fill:none;stroke:#B3B2B2;stroke-width:0.5;stroke-miterlimit:10;}
	.st2{fill:#FFFFFF;}
	.st3{fill:#23AEE5;}
	.st4{font-family:'BrixSansRegular';}
	.st5{font-size:10px;}
</style>
<g id="Ebene_1">
	<g>
		<path class="st0" d="M20.2,69.8l1,33.7c0,0.2,0.6,23.1-1,34.2c0,0.2,0.1,0.4,0.3,0.4c0,0,0,0,0.1,0c0.2,0,0.3-0.1,0.4-0.3
			c1.7-11.2,1-34.1,1-34.3l-1-33.7c0-0.2-0.1-0.4-0.4-0.3C20.3,69.5,20.1,69.7,20.2,69.8z"/>
		<path class="st0" d="M118.2,137.8c-1.6-11.1-1-34-1-34.2c0.1-3.1,1-33.7,1-33.7l-0.7,0c0,0-0.9,30.6-1,33.7c0,0.2-0.6,23.2,1,34.3
			c0,0.2,0.2,0.3,0.4,0.3c0,0,0,0,0.1,0C118.1,138.2,118.2,138,118.2,137.8z"/>
		<path class="st0" d="M23.5,164.2c1.2,0,2.2-1,2.2-2.2c0-1.2-1-2.2-2.2-2.2s-2.2,1-2.2,2.2C21.3,163.2,22.3,164.2,23.5,164.2z
			 M23.5,160.5c0.8,0,1.5,0.7,1.5,1.5c0,0.8-0.7,1.5-1.5,1.5c-0.8,0-1.5-0.7-1.5-1.5C22,161.2,22.7,160.5,23.5,160.5z"/>
		<path class="st0" d="M23.5,172.5c1.2,0,2.2-1,2.2-2.2c0-1.2-1-2.2-2.2-2.2s-2.2,1-2.2,2.2C21.3,171.5,22.3,172.5,23.5,172.5z
			 M23.5,168.8c0.8,0,1.5,0.7,1.5,1.5c0,0.8-0.7,1.5-1.5,1.5c-0.8,0-1.5-0.7-1.5-1.5C22,169.5,22.7,168.8,23.5,168.8z"/>
		<path class="st0" d="M23.5,180.8c1.2,0,2.2-1,2.2-2.2c0-1.2-1-2.2-2.2-2.2s-2.2,1-2.2,2.2C21.3,179.8,22.3,180.8,23.5,180.8z
			 M23.5,177.1c0.8,0,1.5,0.7,1.5,1.5c0,0.8-0.7,1.5-1.5,1.5c-0.8,0-1.5-0.7-1.5-1.5C22,177.8,22.7,177.1,23.5,177.1z"/>
		<path class="st0" d="M23.5,189.1c1.2,0,2.2-1,2.2-2.2c0-1.2-1-2.2-2.2-2.2s-2.2,1-2.2,2.2C21.3,188.1,22.3,189.1,23.5,189.1z
			 M23.5,185.4c0.8,0,1.5,0.7,1.5,1.5c0,0.8-0.7,1.5-1.5,1.5c-0.8,0-1.5-0.7-1.5-1.5C22,186,22.7,185.4,23.5,185.4z"/>
		<path class="st0" d="M23.5,197.3c1.2,0,2.2-1,2.2-2.2c0-1.2-1-2.2-2.2-2.2s-2.2,1-2.2,2.2C21.3,196.4,22.3,197.3,23.5,197.3z
			 M23.5,193.7c0.8,0,1.5,0.7,1.5,1.5c0,0.8-0.7,1.5-1.5,1.5c-0.8,0-1.5-0.7-1.5-1.5C22,194.3,22.7,193.7,23.5,193.7z"/>
		<path class="st0" d="M23.5,205.6c1.2,0,2.2-1,2.2-2.2c0-1.2-1-2.2-2.2-2.2s-2.2,1-2.2,2.2C21.3,204.7,22.3,205.6,23.5,205.6z
			 M23.5,202c0.8,0,1.5,0.7,1.5,1.5c0,0.8-0.7,1.5-1.5,1.5c-0.8,0-1.5-0.7-1.5-1.5C22,202.6,22.7,202,23.5,202z"/>
		<path class="st0" d="M23.5,213.9c1.2,0,2.2-1,2.2-2.2c0-1.2-1-2.2-2.2-2.2s-2.2,1-2.2,2.2C21.3,212.9,22.3,213.9,23.5,213.9z
			 M23.5,210.3c0.8,0,1.5,0.7,1.5,1.5c0,0.8-0.7,1.5-1.5,1.5c-0.8,0-1.5-0.7-1.5-1.5C22,210.9,22.7,210.3,23.5,210.3z"/>
		<path class="st0" d="M23.5,222.2c1.2,0,2.2-1,2.2-2.2c0-1.2-1-2.2-2.2-2.2s-2.2,1-2.2,2.2C21.3,221.2,22.3,222.2,23.5,222.2z
			 M23.5,218.6c0.8,0,1.5,0.7,1.5,1.5c0,0.8-0.7,1.5-1.5,1.5c-0.8,0-1.5-0.7-1.5-1.5C22,219.2,22.7,218.6,23.5,218.6z"/>
		<path class="st0" d="M23.5,230.5c1.2,0,2.2-1,2.2-2.2c0-1.2-1-2.2-2.2-2.2s-2.2,1-2.2,2.2C21.3,229.5,22.3,230.5,23.5,230.5z
			 M23.5,226.8c0.8,0,1.5,0.7,1.5,1.5c0,0.8-0.7,1.5-1.5,1.5c-0.8,0-1.5-0.7-1.5-1.5C22,227.5,22.7,226.8,23.5,226.8z"/>
		<path class="st0" d="M23.5,238.8c1.2,0,2.2-1,2.2-2.2c0-1.2-1-2.2-2.2-2.2s-2.2,1-2.2,2.2C21.3,237.8,22.3,238.8,23.5,238.8z
			 M23.5,235.1c0.8,0,1.5,0.7,1.5,1.5c0,0.8-0.7,1.5-1.5,1.5c-0.8,0-1.5-0.7-1.5-1.5C22,235.8,22.7,235.1,23.5,235.1z"/>
		<path class="st0" d="M23.5,242.7c-1.2,0-2.2,1-2.2,2.2c0,1.2,1,2.2,2.2,2.2s2.2-1,2.2-2.2C25.7,243.7,24.7,242.7,23.5,242.7z
			 M23.5,246.4c-0.8,0-1.5-0.7-1.5-1.5c0-0.8,0.7-1.5,1.5-1.5c0.8,0,1.5,0.7,1.5,1.5C25,245.7,24.3,246.4,23.5,246.4z"/>
		<path class="st0" d="M114.4,159.8c-1.2,0-2.2,1-2.2,2.2c0,1.2,1,2.2,2.2,2.2s2.2-1,2.2-2.2C116.6,160.8,115.6,159.8,114.4,159.8z
			 M114.4,163.5c-0.8,0-1.5-0.7-1.5-1.5c0-0.8,0.7-1.5,1.5-1.5s1.5,0.7,1.5,1.5C115.9,162.8,115.2,163.5,114.4,163.5z"/>
		<path class="st0" d="M114.4,168.1c-1.2,0-2.2,1-2.2,2.2c0,1.2,1,2.2,2.2,2.2s2.2-1,2.2-2.2C116.6,169.1,115.6,168.1,114.4,168.1z
			 M114.4,171.7c-0.8,0-1.5-0.7-1.5-1.5c0-0.8,0.7-1.5,1.5-1.5s1.5,0.7,1.5,1.5C115.9,171.1,115.2,171.7,114.4,171.7z"/>
		<path class="st0" d="M114.4,176.4c-1.2,0-2.2,1-2.2,2.2c0,1.2,1,2.2,2.2,2.2s2.2-1,2.2-2.2C116.6,177.4,115.6,176.4,114.4,176.4z
			 M114.4,180c-0.8,0-1.5-0.7-1.5-1.5c0-0.8,0.7-1.5,1.5-1.5s1.5,0.7,1.5,1.5C115.9,179.4,115.2,180,114.4,180z"/>
		<path class="st0" d="M114.4,184.7c-1.2,0-2.2,1-2.2,2.2c0,1.2,1,2.2,2.2,2.2s2.2-1,2.2-2.2C116.6,185.7,115.6,184.7,114.4,184.7z
			 M114.4,188.3c-0.8,0-1.5-0.7-1.5-1.5c0-0.8,0.7-1.5,1.5-1.5s1.5,0.7,1.5,1.5C115.9,187.7,115.2,188.3,114.4,188.3z"/>
		<path class="st0" d="M114.4,193c-1.2,0-2.2,1-2.2,2.2c0,1.2,1,2.2,2.2,2.2s2.2-1,2.2-2.2C116.6,193.9,115.6,193,114.4,193z
			 M114.4,196.6c-0.8,0-1.5-0.7-1.5-1.5c0-0.8,0.7-1.5,1.5-1.5s1.5,0.7,1.5,1.5C115.9,196,115.2,196.6,114.4,196.6z"/>
		<path class="st0" d="M114.4,201.3c-1.2,0-2.2,1-2.2,2.2c0,1.2,1,2.2,2.2,2.2s2.2-1,2.2-2.2C116.6,202.2,115.6,201.3,114.4,201.3z
			 M114.4,204.9c-0.8,0-1.5-0.7-1.5-1.5c0-0.8,0.7-1.5,1.5-1.5s1.5,0.7,1.5,1.5C115.9,204.3,115.2,204.9,114.4,204.9z"/>
		<path class="st0" d="M114.4,209.5c-1.2,0-2.2,1-2.2,2.2c0,1.2,1,2.2,2.2,2.2s2.2-1,2.2-2.2C116.6,210.5,115.6,209.5,114.4,209.5z
			 M114.4,213.2c-0.8,0-1.5-0.7-1.5-1.5c0-0.8,0.7-1.5,1.5-1.5s1.5,0.7,1.5,1.5C115.9,212.6,115.2,213.2,114.4,213.2z"/>
		<path class="st0" d="M114.4,217.8c-1.2,0-2.2,1-2.2,2.2c0,1.2,1,2.2,2.2,2.2s2.2-1,2.2-2.2C116.6,218.8,115.6,217.8,114.4,217.8z
			 M114.4,221.5c-0.8,0-1.5-0.7-1.5-1.5c0-0.8,0.7-1.5,1.5-1.5s1.5,0.7,1.5,1.5C115.9,220.8,115.2,221.5,114.4,221.5z"/>
		<path class="st0" d="M114.4,226.1c-1.2,0-2.2,1-2.2,2.2c0,1.2,1,2.2,2.2,2.2s2.2-1,2.2-2.2C116.6,227.1,115.6,226.1,114.4,226.1z
			 M114.4,229.8c-0.8,0-1.5-0.7-1.5-1.5c0-0.8,0.7-1.5,1.5-1.5s1.5,0.7,1.5,1.5C115.9,229.1,115.2,229.8,114.4,229.8z"/>
		<path class="st0" d="M114.4,234.4c-1.2,0-2.2,1-2.2,2.2c0,1.2,1,2.2,2.2,2.2s2.2-1,2.2-2.2C116.6,235.4,115.6,234.4,114.4,234.4z
			 M114.4,238.1c-0.8,0-1.5-0.7-1.5-1.5c0-0.8,0.7-1.5,1.5-1.5s1.5,0.7,1.5,1.5C115.9,237.4,115.2,238.1,114.4,238.1z"/>
		<path class="st0" d="M114.4,242.7c-1.2,0-2.2,1-2.2,2.2c0,1.2,1,2.2,2.2,2.2s2.2-1,2.2-2.2C116.6,243.7,115.6,242.7,114.4,242.7z
			 M114.4,246.4c-0.8,0-1.5-0.7-1.5-1.5c0-0.8,0.7-1.5,1.5-1.5s1.5,0.7,1.5,1.5C115.9,245.7,115.2,246.4,114.4,246.4z"/>
		<path class="st0" d="M30.4,363.4c0.1,3.5,2.7,10.3,11.8,11.7c0.2,0,18,0.4,26.7,0.4s26.7-0.4,26.9-0.4c9-1.4,11.6-8.2,11.7-11.7
			L107.2,15c-1.6-10.7-12-11.6-12.1-11.7c0,0,0,0,0,0l-52.2,0c-0.1,0-10.5,1-12.1,11.7L30.4,363.4z M31.5,15.1
			C32.9,5,42.5,4.1,42.9,4h52.2c0.4,0,10,1.1,11.4,11l0.3,348.3c0,0.1-0.4,9.4-11.1,11c-0.2,0-18.2,0.4-26.9,0.4s-26.5-0.4-26.7-0.4
			c-10.7-1.6-11.1-10.6-11.1-11L31.5,15.1z"/>
		<path class="st0" d="M309.9,369.2h-7.3c-1,0-1.8,0.8-1.8,1.8c0,1,0.8,1.8,1.8,1.8h7.3c1,0,1.8-0.8,1.8-1.8
			C311.7,370,310.9,369.2,309.9,369.2z M309.9,372h-7.3c-0.6,0-1-0.5-1-1c0-0.6,0.5-1,1-1h7.3c0.6,0,1,0.5,1,1
			C311,371.5,310.5,372,309.9,372z"/>
		<path class="st0" d="M315.3,246.9h-18.2c-1.5,0-2.8,1.2-2.8,2.8v7.8c0,1.5,1.2,2.8,2.8,2.8h18.2c1.5,0,2.8-1.2,2.8-2.8v-7.8
			C318,248.2,316.8,246.9,315.3,246.9z M317.3,257.5c0,1.1-0.9,2.1-2.1,2.1h-18.2c-1.1,0-2.1-0.9-2.1-2.1v-7.8
			c0-1.1,0.9-2.1,2.1-2.1h18.2c1.1,0,2.1,0.9,2.1,2.1V257.5z"/>
		<path class="st0" d="M195.6,217.3V210c0-1.5-1.2-2.8-2.8-2.8h-19.4c-1.5,0-2.8,1.2-2.8,2.8v7.3c0,1.5,1.2,2.8,2.8,2.8h19.4
			C194.3,220.1,195.6,218.8,195.6,217.3z M171.3,217.3V210c0-1.1,0.9-2.1,2.1-2.1h19.4c1.1,0,2.1,0.9,2.1,2.1v7.3
			c0,1.1-0.9,2.1-2.1,2.1h-19.4C172.2,219.4,171.3,218.4,171.3,217.3z"/>
		<path class="st0" d="M288.7,207.2h-19.4c-1.5,0-2.8,1.2-2.8,2.8v7.3c0,1.5,1.2,2.8,2.8,2.8h19.4c1.5,0,2.8-1.2,2.8-2.8V210
			C291.5,208.5,290.2,207.2,288.7,207.2z M290.7,217.3c0,1.1-0.9,2.1-2.1,2.1h-19.4c-1.1,0-2.1-0.9-2.1-2.1V210
			c0-1.1,0.9-2.1,2.1-2.1h19.4c1.1,0,2.1,0.9,2.1,2.1V217.3z"/>
		<path class="st0" d="M205.2,210v7.3c0,1.5,1.2,2.8,2.8,2.8h45.9c1.5,0,2.8-1.2,2.8-2.8V210c0-1.5-1.2-2.8-2.8-2.8H208
			C206.5,207.2,205.2,208.5,205.2,210z M256,210v7.3c0,1.1-0.9,2.1-2.1,2.1H208c-1.1,0-2.1-0.9-2.1-2.1V210c0-1.1,0.9-2.1,2.1-2.1
			h45.9C255,207.9,256,208.9,256,210z"/>
		<path class="st0" d="M315.3,278.5h-18.2c-1.5,0-2.8,1.2-2.8,2.8v7.8c0,1.5,1.2,2.8,2.8,2.8h18.2c1.5,0,2.8-1.2,2.8-2.8v-7.8
			C318,279.8,316.8,278.5,315.3,278.5z M317.3,289.1c0,1.1-0.9,2.1-2.1,2.1h-18.2c-1.1,0-2.1-0.9-2.1-2.1v-7.8
			c0-1.1,0.9-2.1,2.1-2.1h18.2c1.1,0,2.1,0.9,2.1,2.1V289.1z"/>
		<path class="st0" d="M315.3,309.5h-18.2c-1.5,0-2.8,1.2-2.8,2.8v7.8c0,1.5,1.2,2.8,2.8,2.8h18.2c1.5,0,2.8-1.2,2.8-2.8v-7.8
			C318,310.7,316.8,309.5,315.3,309.5z M317.3,320.1c0,1.1-0.9,2.1-2.1,2.1h-18.2c-1.1,0-2.1-0.9-2.1-2.1v-7.8
			c0-1.1,0.9-2.1,2.1-2.1h18.2c1.1,0,2.1,0.9,2.1,2.1V320.1z"/>
		<path class="st0" d="M315.3,340.4h-18.2c-1.5,0-2.8,1.2-2.8,2.8v7.8c0,1.5,1.2,2.8,2.8,2.8h18.2c1.5,0,2.8-1.2,2.8-2.8v-7.8
			C318,341.6,316.8,340.4,315.3,340.4z M317.3,351c0,1.1-0.9,2.1-2.1,2.1h-18.2c-1.1,0-2.1-0.9-2.1-2.1v-7.8c0-1.1,0.9-2.1,2.1-2.1
			h18.2c1.1,0,2.1,0.9,2.1,2.1V351z"/>
		<path class="st0" d="M253.4,372.6h-45c-2,0-3.7,1.7-3.7,3.7v4.5c0,2,1.7,3.7,3.7,3.7h45c2,0,3.7-1.7,3.7-3.7v-4.5
			C257.1,374.2,255.5,372.6,253.4,372.6z M256.4,380.7c0,1.6-1.3,3-3,3h-45c-1.6,0-3-1.3-3-3v-4.5c0-1.6,1.3-3,3-3h45
			c1.6,0,3,1.3,3,3V380.7z"/>
		<path class="st0" d="M144.8,249.7v7.8c0,1.5,1.2,2.8,2.8,2.8h16.9c1.5,0,2.8-1.2,2.8-2.8v-7.8c0-1.5-1.2-2.8-2.8-2.8h-16.9
			C146.1,246.9,144.8,248.2,144.8,249.7z M166.5,249.7v7.8c0,1.1-0.9,2.1-2.1,2.1h-16.9c-1.1,0-2.1-0.9-2.1-2.1v-7.8
			c0-1.1,0.9-2.1,2.1-2.1h16.9C165.6,247.7,166.5,248.6,166.5,249.7z"/>
		<path class="st0" d="M144.8,289.1c0,1.5,1.2,2.8,2.8,2.8h16.9c1.5,0,2.8-1.2,2.8-2.8v-7.8c0-1.5-1.2-2.8-2.8-2.8h-16.9
			c-1.5,0-2.8,1.2-2.8,2.8V289.1z M145.6,281.3c0-1.1,0.9-2.1,2.1-2.1h16.9c1.1,0,2.1,0.9,2.1,2.1v7.8c0,1.1-0.9,2.1-2.1,2.1h-16.9
			c-1.1,0-2.1-0.9-2.1-2.1V281.3z"/>
		<path class="st0" d="M164.5,309.5h-16.9c-1.5,0-2.8,1.2-2.8,2.8v7.8c0,1.5,1.2,2.8,2.8,2.8h16.9c1.5,0,2.8-1.2,2.8-2.8v-7.8
			C167.3,310.7,166,309.5,164.5,309.5z M166.5,320.1c0,1.1-0.9,2.1-2.1,2.1h-16.9c-1.1,0-2.1-0.9-2.1-2.1v-7.8
			c0-1.1,0.9-2.1,2.1-2.1h16.9c1.1,0,2.1,0.9,2.1,2.1V320.1z"/>
		<path class="st0" d="M164.5,340.4h-16.9c-1.5,0-2.8,1.2-2.8,2.8v7.8c0,1.5,1.2,2.8,2.8,2.8h16.9c1.5,0,2.8-1.2,2.8-2.8v-7.8
			C167.3,341.6,166,340.4,164.5,340.4z M166.5,351c0,1.1-0.9,2.1-2.1,2.1h-16.9c-1.1,0-2.1-0.9-2.1-2.1v-7.8c0-1.1,0.9-2.1,2.1-2.1
			h16.9c1.1,0,2.1,0.9,2.1,2.1V351z"/>
		<path class="st0" d="M188.8,253.5c0,6.1,5,11.1,11.1,11.1s11.1-5,11.1-11.1s-5-11.1-11.1-11.1S188.8,247.4,188.8,253.5z
			 M210.4,253.5c0,5.7-4.7,10.4-10.4,10.4s-10.4-4.7-10.4-10.4c0-5.7,4.7-10.4,10.4-10.4S210.4,247.8,210.4,253.5z"/>
		<path class="st0" d="M231.1,242.4c-6.1,0-11.1,5-11.1,11.1s5,11.1,11.1,11.1s11.1-5,11.1-11.1S237.3,242.4,231.1,242.4z
			 M231.1,263.9c-5.7,0-10.4-4.7-10.4-10.4c0-5.7,4.7-10.4,10.4-10.4c5.7,0,10.4,4.7,10.4,10.4C241.5,259.2,236.9,263.9,231.1,263.9
			z"/>
		<path class="st0" d="M262.4,242.4c-6.1,0-11.1,5-11.1,11.1s5,11.1,11.1,11.1c6.1,0,11.1-5,11.1-11.1S268.5,242.4,262.4,242.4z
			 M262.4,263.9c-5.7,0-10.4-4.7-10.4-10.4c0-5.7,4.7-10.4,10.4-10.4s10.4,4.7,10.4,10.4C272.8,259.2,268.1,263.9,262.4,263.9z"/>
		<path class="st0" d="M200,295.9c6.1,0,11.1-5,11.1-11.1c0-6.1-5-11.1-11.1-11.1s-11.1,5-11.1,11.1
			C188.8,290.9,193.8,295.9,200,295.9z M200,274.3c5.7,0,10.4,4.7,10.4,10.4c0,5.7-4.7,10.4-10.4,10.4s-10.4-4.7-10.4-10.4
			C189.6,279,194.2,274.3,200,274.3z"/>
		<path class="st0" d="M231.1,273.6c-6.1,0-11.1,5-11.1,11.1c0,6.1,5,11.1,11.1,11.1s11.1-5,11.1-11.1
			C242.3,278.6,237.3,273.6,231.1,273.6z M231.1,295.2c-5.7,0-10.4-4.7-10.4-10.4c0-5.7,4.7-10.4,10.4-10.4
			c5.7,0,10.4,4.7,10.4,10.4C241.5,290.5,236.9,295.2,231.1,295.2z"/>
		<path class="st0" d="M262.4,273.6c-6.1,0-11.1,5-11.1,11.1c0,6.1,5,11.1,11.1,11.1c6.1,0,11.1-5,11.1-11.1
			C273.5,278.6,268.5,273.6,262.4,273.6z M262.4,295.2c-5.7,0-10.4-4.7-10.4-10.4c0-5.7,4.7-10.4,10.4-10.4s10.4,4.7,10.4,10.4
			C272.8,290.5,268.1,295.2,262.4,295.2z"/>
		<path class="st0" d="M211.1,316c0-6.1-5-11.1-11.1-11.1s-11.1,5-11.1,11.1c0,6.1,5,11.1,11.1,11.1S211.1,322.1,211.1,316z
			 M189.6,316c0-5.7,4.7-10.4,10.4-10.4s10.4,4.7,10.4,10.4s-4.7,10.4-10.4,10.4S189.6,321.7,189.6,316z"/>
		<path class="st0" d="M231.1,304.9c-6.1,0-11.1,5-11.1,11.1c0,6.1,5,11.1,11.1,11.1s11.1-5,11.1-11.1
			C242.3,309.9,237.3,304.9,231.1,304.9z M231.1,326.4c-5.7,0-10.4-4.7-10.4-10.4s4.7-10.4,10.4-10.4c5.7,0,10.4,4.7,10.4,10.4
			S236.9,326.4,231.1,326.4z"/>
		<path class="st0" d="M262.4,304.9c-6.1,0-11.1,5-11.1,11.1c0,6.1,5,11.1,11.1,11.1c6.1,0,11.1-5,11.1-11.1
			C273.5,309.9,268.5,304.9,262.4,304.9z M262.4,326.4c-5.7,0-10.4-4.7-10.4-10.4s4.7-10.4,10.4-10.4s10.4,4.7,10.4,10.4
			S268.1,326.4,262.4,326.4z"/>
		<path class="st0" d="M211.1,347.3c0-6.1-5-11.1-11.1-11.1s-11.1,5-11.1,11.1c0,6.1,5,11.1,11.1,11.1S211.1,353.4,211.1,347.3z
			 M200,357.7c-5.7,0-10.4-4.7-10.4-10.4s4.7-10.4,10.4-10.4s10.4,4.7,10.4,10.4S205.7,357.7,200,357.7z"/>
		<path class="st0" d="M242.3,347.3c0-6.1-5-11.1-11.1-11.1s-11.1,5-11.1,11.1c0,6.1,5,11.1,11.1,11.1S242.3,353.4,242.3,347.3z
			 M231.1,357.7c-5.7,0-10.4-4.7-10.4-10.4s4.7-10.4,10.4-10.4c5.7,0,10.4,4.7,10.4,10.4S236.9,357.7,231.1,357.7z"/>
		<path class="st0" d="M262.4,336.1c-6.1,0-11.1,5-11.1,11.1c0,6.1,5,11.1,11.1,11.1c6.1,0,11.1-5,11.1-11.1
			C273.5,341.1,268.5,336.1,262.4,336.1z M262.4,357.7c-5.7,0-10.4-4.7-10.4-10.4s4.7-10.4,10.4-10.4s10.4,4.7,10.4,10.4
			S268.1,357.7,262.4,357.7z"/>
		<path class="st0" d="M232.6,286.8c0-0.8-0.7-1.5-1.5-1.5c-0.8,0-1.5,0.7-1.5,1.5c0,0.8,0.7,1.5,1.5,1.5
			C231.9,288.3,232.6,287.6,232.6,286.8z M230.3,286.8c0-0.4,0.4-0.8,0.8-0.8c0.4,0,0.8,0.4,0.8,0.8s-0.4,0.8-0.8,0.8
			C230.7,287.6,230.3,287.2,230.3,286.8z"/>
		<path class="st0" d="M322.9,345.1c-1,0-1.9,0.8-1.9,1.9c0,1,0.8,1.9,1.9,1.9c1,0,1.9-0.8,1.9-1.9
			C324.8,345.9,324,345.1,322.9,345.1z M322.9,348.1c-0.6,0-1.1-0.5-1.1-1.2c0-0.6,0.5-1.2,1.1-1.2c0.6,0,1.1,0.5,1.1,1.2
			C324.1,347.6,323.6,348.1,322.9,348.1z"/>
		<path class="st0" d="M200.7,291h1.8v-2.3h1.1V287h-1.1V278h-1.9l-0.1,0.1l-6,9.1l0,0.1v1.5h6.3V291z M197.2,287
			c-0.2,0-0.3-0.1-0.3-0.3c0-0.1,0-0.1,0.1-0.2l3.2-4.9c0.1-0.1,0.1-0.1,0.2-0.1c0.2,0,0.3,0.1,0.3,0.3v5.2H197.2z"/>
		<path class="st0" d="M204.3,309.1h-7.7v1.7h5.2c0.2,0,0.3,0.1,0.3,0.3c0,0,0,0.1,0,0.1l-4.9,10.9h1.9l5.1-11.5V309.1z"/>
		<path class="st0" d="M201.3,346.2c0,0,0-0.1,0-0.1l2.3-4l-1.5-0.9l-2.3,4c0,0.1-0.1,0.1-0.2,0.1c-0.1,0-0.1,0-0.2-0.1l-2.3-4
			l-1.5,0.9l2.3,3.9c0,0,0,0.1,0,0.1c0,0.1-0.1,0.2-0.2,0.2h-4.5v1.7h4.5c0.1,0,0.2,0.1,0.2,0.2c0,0,0,0.1,0,0.1l-2.3,4l1.5,0.9
			l2.3-4c0-0.1,0.1-0.1,0.2-0.1c0.1,0,0.1,0,0.2,0.1l2.3,4l1.5-0.9l-2.3-4c0,0,0-0.1,0-0.1c0-0.1,0.1-0.2,0.2-0.2h4.5v-1.7h-4.5
			C201.4,346.4,201.3,346.3,201.3,346.2z"/>
		<path class="st0" d="M231.2,340.6c-1.3,0-2.6,0.6-3.4,1.6c-0.9,1-1,2.1-1,3.4v3.2c0,1.3,0.1,2.5,1,3.7c0.9,1,2,1.5,3.4,1.5
			c1.4,0,2.6-0.6,3.4-1.6c0.9-1.1,1-2.3,1-3.6v-3.2c0-1.5-0.4-2.7-1.2-3.5C233.6,341.1,232.5,340.6,231.2,340.6z M233.8,348.5
			c0,0.9,0,1.8-0.4,2.5c-0.5,0.8-1.3,1.2-2.2,1.2c-1,0-1.6-0.3-2.2-1.1c-0.5-0.7-0.5-1.9-0.5-2.6v-2.7c0-1,0.1-1.8,0.4-2.2
			c0.4-0.7,1.4-1.3,2.3-1.3c0.8,0,1.7,0.4,2.1,1.1c0.4,0.6,0.5,1.7,0.5,2.4V348.5z"/>
		<path class="st0" d="M233.9,315.1c-0.1-0.1-0.1-0.1-0.1-0.2c0-0.1,0-0.2,0.1-0.2c0.6-0.5,0.9-1.3,0.9-2.2c0-1-0.4-1.9-1-2.5
			c-0.7-0.6-1.5-1-2.5-1c-1,0-1.9,0.4-2.6,1c-0.6,0.6-1,1.5-1,2.4c0,0.9,0.3,1.7,0.9,2.2c0.1,0.1,0.1,0.1,0.1,0.2
			c0,0.1,0,0.2-0.1,0.2c-1,0.7-1.5,2.1-1.5,3.1c0,1.1,0.4,2.1,1.2,2.9c0.8,0.8,1.8,1.2,2.9,1.2c2.3,0,4.3-1.9,4.3-4.2
			C235.4,316.9,234.8,315.8,233.9,315.1z M231.2,310.6c0.5,0,0.9,0.2,1.2,0.5c0.3,0.3,0.5,0.8,0.5,1.2c0,0.4-0.2,0.9-0.5,1.2
			c-0.3,0.3-0.8,0.5-1.2,0.5c-0.5,0-1-0.2-1.3-0.5c-0.3-0.3-0.5-0.8-0.5-1.2C229.4,311.2,230.3,310.6,231.2,310.6z M232.9,319.8
			c-0.5,0.5-1.1,0.7-1.8,0.7c-0.6,0-1.3-0.2-1.7-0.7c-0.4-0.4-0.7-1-0.7-1.6c0-1.4,1.1-2.4,2.4-2.4c0.7,0,1.3,0.3,1.8,0.7
			c0.4,0.4,0.7,1,0.7,1.6C233.6,318.8,233.4,319.4,232.9,319.8z"/>
		<path class="st0" d="M231.1,281.9c-0.4,0-0.8,0.1-1.3,0.2c0,0-0.1,0-0.1,0c-0.2,0-0.3-0.1-0.3-0.3c0,0,0,0,0,0l0.4-2.2h4.6v-1.7
			h-6.1l-1.2,6.6l1.4,0.5l0.1-0.1c0.6-0.8,1.5-1.2,2.3-1.2c0.7,0,1.3,0.3,1.8,0.8c0.5,0.5,0.9,1.3,0.9,2.1c0,0.8-0.3,1.6-0.8,2.1
			c-0.5,0.5-1.2,0.8-1.9,0.8c-1.4,0-2.6-1.2-2.7-2.7l0-0.2h-1.8l0,0.3c0.2,2.5,2.1,4.4,4.5,4.4c2.4,0,4.4-2.1,4.4-4.6
			c0-1.2-0.5-2.4-1.4-3.3C233.3,282.3,232.2,281.9,231.1,281.9z"/>
		<path class="st0" d="M232.9,255.1L232.9,255.1c1.3-1.2,2.5-2.4,2.5-4.3c0-1-0.4-2.1-1.3-2.9c-0.8-0.8-1.7-1.2-2.9-1.2
			c-1.2,0-2.3,0.5-3.1,1.3c-0.8,0.8-1.2,2-1.1,3.2l0,0.2h1.8l0-0.3c0-0.7,0.1-1.2,0.3-1.6c0.4-0.7,1.2-1.2,2.1-1.2
			c0.7,0,1.3,0.3,1.8,0.7c0.4,0.4,0.7,1,0.7,1.6c0,1.2-1,2.1-1.8,2.9l-0.1,0l-4.7,4.6l-0.1,0.1v1.5h8.4v-1.7h-5
			c-0.2,0-0.3-0.1-0.3-0.3c0-0.1,0-0.2,0.1-0.2C231,256.9,232.9,255.1,232.9,255.1z"/>
		<path class="st0" d="M265.1,252.6c-0.1-0.1-0.1-0.1-0.1-0.2c0-0.1,0-0.2,0.1-0.2c0.6-0.6,0.8-1.2,0.8-2c0-0.9-0.4-1.8-1-2.5
			c-0.6-0.6-1.4-1-2.3-1c-1,0-1.8,0.3-2.4,1c-0.7,0.7-1,1.6-1,2.6v0.3h1.8v-0.3c0-0.9,0.5-1.8,1.6-1.8c0.5,0,0.9,0.2,1.2,0.5
			c0.3,0.3,0.5,0.7,0.5,1.1c0,0.5-0.1,0.8-0.4,1.1c-0.4,0.4-0.9,0.6-1.6,0.6l-0.4,0l-0.3,0v1.7l0.3,0c0.1,0,0.2,0,0.3,0
			c0.4,0,0.9,0,1.3,0.1c1,0.3,1.7,1.3,1.7,2.3c0,0.7-0.3,1.3-0.7,1.8c-0.5,0.5-1.1,0.7-1.8,0.7c-0.8,0-1.5-0.5-2-1.2
			c-0.3-0.4-0.3-0.9-0.4-1.5l0-0.2h-1.7l0,0.3c0,1.2,0.4,2.3,1.2,3.1c0.8,0.8,1.8,1.3,2.9,1.3c2.3,0,4.2-1.9,4.2-4.3
			C266.7,254.6,266.1,253.3,265.1,252.6z"/>
		<path class="st0" d="M262.5,281.9c-0.1,0-0.1,0-0.2,0c-0.2,0-0.3-0.1-0.3-0.3c0-0.1,0-0.1,0-0.2l2.4-3.5h-2.1l-0.1,0.1
			c0,0-2.9,4.4-2.9,4.4l-0.2,0.3c-0.8,1.2-1.4,2.2-1.4,3.8c0,1.2,0.5,2.4,1.4,3.3c0.8,0.8,1.9,1.3,3.1,1.3c1.3,0,2.4-0.5,3.2-1.4
			c0.8-0.9,1.3-2.1,1.3-3.2c0-1.2-0.5-2.5-1.4-3.4C264.6,282.3,263.6,281.9,262.5,281.9z M264.1,288.6c-0.5,0.5-1.2,0.8-1.9,0.8
			c-0.7,0-1.3-0.3-1.8-0.8c-0.6-0.6-0.9-1.4-0.9-2.2c0-1.5,1.2-2.8,2.7-2.8c0.7,0,1.4,0.3,1.9,0.8c0.5,0.5,0.9,1.3,0.9,2.1
			C265,287.3,264.7,288,264.1,288.6z"/>
		<path class="st0" d="M262.3,308.9c-1.3,0-2.4,0.5-3.2,1.4c-0.8,0.9-1.3,2.1-1.3,3.2c0,1.2,0.5,2.5,1.4,3.4
			c0.8,0.8,1.8,1.2,2.8,1.2c0.1,0,0.1,0,0.2,0c0.2,0,0.3,0.1,0.3,0.3c0,0.1,0,0.1-0.1,0.2l-2.1,3.1l-0.3,0.4h2.1l0.1-0.1l2.9-4.4
			l0.2-0.3c0.8-1.2,1.4-2.2,1.4-3.8c0-1.2-0.5-2.4-1.4-3.3C264.5,309.3,263.4,308.9,262.3,308.9z M264.1,315.6
			c-0.5,0.5-1.1,0.7-1.8,0.7l0,0l0,0c-0.6,0-1.3-0.2-1.8-0.7c-0.6-0.6-0.9-1.4-0.9-2.1c0-0.7,0.3-1.5,0.8-2c0.5-0.5,1.2-0.8,1.9-0.8
			c0.7,0,1.3,0.3,1.8,0.8c0.6,0.6,0.9,1.4,0.9,2.2C265,314.3,264.7,315.1,264.1,315.6z"/>
		<path class="st0" d="M267.1,341.2L267.1,341.2l-1.6-0.1l-0.4,2.4h-4.5l0.4-2.3l0-0.1h-1.6l-0.4,2.4h-2.4l-0.3,1.5l0,0.1h2.4
			l-0.8,4.4h-2.4l-0.3,1.5l0,0.1h2.4l-0.4,2.3l0,0.1h1.6l0.4-2.4h4.5l-0.4,2.3l0,0.1h1.6l0.4-2.4h2.4l0.3-1.5l0-0.1h-2.4l0.8-4.4
			h2.4l0.3-1.5l0-0.1h-2.4L267.1,341.2z M264.9,345.1l-0.8,4.4h-4.5l0.8-4.4H264.9z"/>
		<polygon class="st0" points="197.2,248.6 199.3,248.5 199.3,259.9 201.1,259.9 201.1,246.9 197.2,246.9 		"/>
		<path class="st0" d="M323.7,183.1l-0.2-101c-0.9-4.5-4.6-4.6-4.7-4.6H143.2c0,0-3.8,0.1-4.7,4.7l-0.2,100.9c0,0,0.1,4,4.7,4.6
			h176.1c0,0,0,0,0.1,0C323.6,187.1,323.7,183.2,323.7,183.1z M319,187.1l-176.1,0c-3.9-0.6-4-3.8-4-3.9l0.2-100.8
			c0.7-3.9,3.8-4,3.9-4h175.7c0,0,3.2,0.1,3.9,3.9l0.2,100.9C323,183.3,322.9,186.5,319,187.1z"/>
		<path class="st0" d="M321.9,84.1c-0.2-4.7-4.1-5-4.2-5l-173.4,0c0,0-4,0.3-4.2,5.1l-0.3,97.3c0,0-0.3,4.1,4.4,5h173.6
			c0,0,0.1,0,0.1,0c4.8-1.1,4.3-4.9,4.3-4.9L321.9,84.1z M317.8,185.6l-173.5,0c-4-0.8-3.8-4.1-3.7-4.2l0.3-97.3
			c0.2-4,3.4-4.3,3.5-4.4l173.4,0c0.1,0,3.3,0.3,3.5,4.3l0.3,97.4C321.5,181.6,321.9,184.6,317.8,185.6z"/>
		<path class="st0" d="M344.6,43.1h-24.2c-0.2,0-0.4,0.1-0.6,0.2h-3.7c-0.2-0.1-0.4-0.2-0.6-0.2H111.7l0.2-27.9c0,0,0,0,0,0v0v0
			c-0.1-6.4-4.8-12.2-10.9-14.3C99.5,0.3,98,0.1,96.5,0H43.1c-2,0-4,0.5-5.8,1.3c-5.5,2.4-9.5,7.7-9.7,13.7l-0.2,21.7v6.3H16.1
			C8.2,43.1,1,50.5,0.7,58.7L0,388.3c0.3,7.6,6.3,14.3,13.9,15.3l1.3,0c0,0,0,0,0,0c0,0,0,0,0,0h329.3c8.5,0,15.4-6.9,15.4-15.4
			V58.5C360,50,353.1,43.1,344.6,43.1z M16.6,400.4c-0.2,0-5.6-0.6-9.8-4.8c-3.8-3.8-3.9-9-3.9-9.1c0-3.2,0.7-322,0.7-327.3
			c0-5.1,4-9,4-9.1c4.9-4.4,9.3-4.1,9.4-4.1h10.4c0,6.9-0.1,13.8-0.1,20.6h-6.8c0,0-0.1,0-0.1,0c-0.1,0-2,0.6-2,4.2
			c0,3.3-0.1,64.9-0.1,66.8c-0.1,0.3-0.3,1.3,0.3,2.1c0.4,0.5,1,0.8,1.8,0.8H27c0,5.1,0,10.3,0,15.4c-0.7,0.3-1.2,1-1.2,1.8
			c0,0.8,0.5,1.5,1.2,1.8c0,1.5,0,3,0,4.4c-1,0.2-1.7,1.1-1.7,2.1c0,1,0.7,1.9,1.7,2.1c0,1.4,0,2.7,0,4.1c-1,0.2-1.7,1.1-1.7,2.1
			c0,1,0.7,1.8,1.7,2.1c0,1.4,0,2.8,0,4.1c-0.9,0.2-1.7,1.1-1.7,2.1c0,1,0.7,1.8,1.7,2.1c0,1.4,0,2.8,0,4.1
			c-0.9,0.2-1.6,1.1-1.6,2.1c0,1,0.7,1.8,1.6,2.1c0,1.4,0,2.8,0,4.1c-0.9,0.3-1.6,1.1-1.6,2.1c0,1,0.7,1.8,1.6,2.1
			c0,1.4,0,2.8,0,4.1c-0.9,0.3-1.6,1.1-1.6,2.1c0,1,0.7,1.8,1.6,2.1c0,1.4,0,2.8,0,4.1c-0.9,0.3-1.6,1.1-1.6,2.1
			c0,1,0.7,1.8,1.6,2.1c0,1.4,0,2.8,0,4.1c-0.9,0.3-1.6,1.1-1.6,2.1c0,1,0.7,1.8,1.6,2.1c0,1.4,0,2.8,0,4.1
			c-0.9,0.3-1.6,1.1-1.6,2.1c0,1,0.7,1.8,1.6,2.1c0,1.4,0,2.8,0,4.1c-0.9,0.3-1.6,1.1-1.6,2.1c0,1,0.7,1.8,1.6,2.1
			c0,1.5,0,2.9,0,4.4c-0.8,0.2-1.4,1-1.4,1.8c0,0.9,0.6,1.6,1.4,1.8c0,38.5,0.1,76.7,0.3,114.4c0.3,7.9,7.4,14.7,15.6,15h16.8
			c0.4,0,0.7-0.3,0.7-0.7l0-0.1l0.1-0.4h18.1l0.2,0.7l0.1,0.2c0.1,0.2,0.4,0.4,0.6,0.4h16.8c8.1-0.2,15.2-7,15.4-15
			c-0.1-39-0.2-77-0.3-114.5c0.7-0.3,1.2-1,1.2-1.8c0-0.8-0.5-1.5-1.2-1.8c0-1.5,0-3,0-4.5c0.9-0.3,1.5-1.1,1.5-2c0-1-0.6-1.7-1.5-2
			c0-1.4,0-2.8,0-4.2c0.9-0.3,1.5-1.1,1.5-2c0-1-0.6-1.8-1.5-2c0-1.4,0-2.8,0-4.2c0.9-0.3,1.5-1.1,1.5-2c0-1-0.6-1.7-1.5-2
			c0-1.4,0-2.8,0-4.2c0.9-0.3,1.5-1.1,1.5-2c0-1-0.6-1.7-1.5-2c0-1.4,0-2.8,0-4.2c0.9-0.3,1.5-1.1,1.5-2c0-1-0.6-1.7-1.5-2
			c0-1.4,0-2.8,0-4.2c0.9-0.3,1.5-1.1,1.5-2c0-1-0.6-1.7-1.5-2c0-1.4,0-2.8,0-4.2c0.8-0.3,1.5-1.1,1.5-2c0-0.9-0.6-1.7-1.5-2
			c0-1.4,0-2.8,0-4.2c0.8-0.3,1.5-1.1,1.5-2c0-0.9-0.6-1.7-1.4-2c0-1.4,0-2.8,0-4.2c0.8-0.3,1.4-1.1,1.4-2c0-0.9-0.6-1.7-1.4-2
			c0-1.4,0-2.8,0-4.2c0.8-0.3,1.4-1.1,1.4-2c0-0.9-0.6-1.7-1.4-2c0-1.6,0-3.1,0-4.7c0.5-0.3,0.9-0.9,0.9-1.6c0-0.7-0.4-1.2-0.9-1.6
			c0-5.2,0-10.4,0-15.6h6.7c0.8,0,1.5-0.3,1.8-0.8c0.6-0.8,0.3-1.8,0.3-2.1c0-2-0.1-63.5-0.1-66.8c0-3.6-1.9-4.2-2-4.2
			c0,0-0.1,0-0.1,0h-6.3c0-6.9,0.1-13.8,0.1-20.6h31.2h172.8c0,0,0,0,0,0V63c0,0,0,0.1,0,0.1c0,0,0,0.1,0.1,0.1c0,0,0.1,0,0.1,0.1
			c0,0,0,0,0,0c0,0,0,0,0,0c0,0,0,0,0.1,0c0,0,0,0,0,0l0,0c0,0,0,0,0.1,0h3.6c0,0,0,0,0.1,0c0,0,0,0,0,0c0,0,0,0,0,0c0,0,0,0,0.1,0
			l0,0c0,0,0,0,0,0c0,0,0.1,0,0.1-0.1c0,0,0-0.1,0.1-0.1c0,0,0-0.1,0-0.1V46.2h24.5c6.8,0,12.3,5.5,12.3,12.3v329.7
			c0,6.8-5.5,12.3-12.3,12.3H16.6z M26.9,167.5c-0.6-0.2-1-0.7-1-1.4c0-0.6,0.4-1.2,1-1.4C26.9,165.7,26.9,166.6,26.9,167.5z
			 M26.9,175.8c-0.6-0.2-1-0.7-1-1.4c0-0.6,0.4-1.2,1-1.4C26.9,174,26.9,174.9,26.9,175.8z M26.9,184.1c-0.5-0.2-0.9-0.7-0.9-1.4
			c0-0.6,0.4-1.2,0.9-1.4C26.9,182.3,26.9,183.2,26.9,184.1z M26.9,192.4c-0.5-0.2-0.9-0.7-0.9-1.4c0-0.6,0.4-1.1,0.9-1.4
			C26.9,190.6,26.9,191.5,26.9,192.4z M26.9,200.7c-0.5-0.2-0.9-0.7-0.9-1.4c0-0.6,0.4-1.1,0.9-1.4
			C26.9,198.8,26.9,199.8,26.9,200.7z M26.9,209c-0.5-0.2-0.9-0.7-0.9-1.4c0-0.6,0.4-1.1,0.9-1.4C26.9,207.1,26.9,208,26.9,209z
			 M26.9,217.2c-0.5-0.2-0.9-0.7-0.9-1.4c0-0.6,0.4-1.1,0.9-1.4C26.9,215.4,26.9,216.3,26.9,217.2z M26.9,225.5
			c-0.5-0.2-0.9-0.7-0.9-1.4c0-0.6,0.4-1.1,0.9-1.4C26.9,223.7,26.9,224.6,26.9,225.5z M26.9,233.8c-0.5-0.2-0.9-0.7-0.9-1.4
			c0-0.6,0.4-1.1,0.9-1.4C26.9,232,26.9,232.9,26.9,233.8z M26.9,242.1c-0.5-0.2-0.9-0.7-0.9-1.4c0-0.6,0.4-1.1,0.9-1.4
			C26.9,240.3,26.9,241.2,26.9,242.1z M26.9,250.1c-0.4-0.2-0.7-0.6-0.7-1.1c0-0.5,0.3-0.9,0.7-1.1
			C26.9,248.7,26.9,249.4,26.9,250.1z M27,140h-6.6c-0.6,0-1-0.2-1.3-0.5c-0.4-0.6-0.1-1.5-0.1-1.5c0,0,0-0.1,0-0.1
			c0,0,0.1-63.5,0.1-66.9c0-2.8,1.2-3.4,1.5-3.5h6.8C27.2,91.7,27.1,115.9,27,140z M26.9,158.8c-0.3-0.2-0.5-0.5-0.5-0.9
			c0-0.4,0.2-0.7,0.5-0.9C26.9,157.5,26.9,158.1,26.9,158.8z M111.6,67.5h6.2c0.2,0.1,1.5,0.7,1.5,3.5c0,3.4,0.1,66.9,0.1,66.9
			c0,0,0,0.1,0,0.1c0,0,0.3,0.9-0.1,1.5c-0.2,0.3-0.7,0.5-1.3,0.5h-6.7C111.4,115.7,111.5,91.5,111.6,67.5z M111.2,248.1
			c0.3,0.2,0.5,0.6,0.5,1c0,0.4-0.2,0.7-0.5,1C111.2,249.4,111.2,248.7,111.2,248.1z M111.2,239.5c0.4,0.3,0.8,0.7,0.8,1.3
			c0,0.5-0.3,1-0.8,1.3C111.2,241.2,111.2,240.3,111.2,239.5z M111.2,231.2c0.4,0.3,0.8,0.7,0.8,1.3c0,0.5-0.3,1-0.8,1.3
			C111.2,232.9,111.2,232,111.2,231.2z M111.2,222.9c0.4,0.3,0.8,0.7,0.8,1.3c0,0.5-0.3,1-0.8,1.3
			C111.2,224.6,111.2,223.8,111.2,222.9z M111.2,214.6c0.4,0.3,0.8,0.7,0.8,1.3c0,0.5-0.3,1-0.8,1.3
			C111.2,216.3,111.2,215.5,111.2,214.6z M111.2,206.3c0.4,0.3,0.8,0.7,0.8,1.3c0,0.5-0.3,1-0.8,1.3
			C111.2,208,111.2,207.2,111.2,206.3z M111.2,198c0.4,0.3,0.8,0.7,0.8,1.3c0,0.5-0.3,1-0.8,1.3C111.2,199.7,111.2,198.9,111.2,198z
			 M111.2,189.8c0.4,0.3,0.7,0.7,0.7,1.2c0,0.5-0.3,1-0.7,1.3C111.2,191.4,111.2,190.6,111.2,189.8z M111.2,181.5
			c0.4,0.3,0.7,0.7,0.7,1.2c0,0.5-0.3,1-0.7,1.2C111.2,183.1,111.2,182.3,111.2,181.5z M111.2,173.2c0.4,0.3,0.7,0.7,0.7,1.2
			c0,0.5-0.3,1-0.7,1.2C111.2,174.8,111.2,174,111.2,173.2z M111.2,164.9c0.4,0.3,0.7,0.7,0.7,1.2c0,0.5-0.3,1-0.7,1.2
			C111.2,166.5,111.2,165.7,111.2,164.9z M111.3,157.3c0.1,0.2,0.2,0.4,0.2,0.6c0,0.2-0.1,0.4-0.2,0.6
			C111.3,158,111.3,157.7,111.3,157.3z M319.4,45.2L319.4,45.2L319.4,45.2L319.4,45.2C319.4,45.3,319.4,45.3,319.4,45.2
			c0,0.1,0,0.1,0,0.1c0,0,0,0,0,0c0,0,0,0,0,0l0,0.4c0,0,0,0,0,0s0,0,0,0v16.8h-3V45.8l0,0c0-0.2,0-0.5,0-0.7c0,0,0,0,0,0
			c0,0,0,0,0,0c0,0,0,0,0,0s0,0,0,0c0,0,0,0,0,0s0,0,0,0l-0.1-0.3h3.2L319.4,45.2z M315.6,44.6l0.1,0.5c0,0,0,0,0,0
			c0,0.1,0,0.2,0,0.3H142.9h-31.2c0-0.3,0-0.6,0-1l203.6,0C315.4,44.6,315.5,44.6,315.6,44.6z M43.1,1.4h53.3
			c7.3,0.3,13.8,6.7,14,13.7l-0.2,21.7v6c-0.6,103.7-0.7,209.6-0.3,322.6c-0.2,7-6.7,13.4-14,13.5H79.8l-0.2-0.7
			c-0.1-0.3-0.4-0.5-0.7-0.5H59.7c-0.3,0-0.6,0.2-0.7,0.6l-0.1,0.6l-16.1,0c-7.4-0.3-13.9-6.5-14.1-13.6
			C28.1,251.7,28.2,133.9,29,15.1C29.3,7.8,35.7,1.6,43.1,1.4z M358.6,388.1c0,7.7-6.3,14-14,14H15.3c0,0,0,0,0,0l-1.2,0
			c-6.8-0.9-12.3-7-12.6-13.9L2.1,58.7c0.3-7.3,6.9-14.2,14-14.3h11.3c0,0.4,0,0.7,0,1.1l-10.4,0c-0.2,0-4.7-0.4-9.9,4.3
			c-0.2,0.2-4.3,4.2-4.3,9.6c0,5.3-0.7,324-0.7,327.3c0,0.2,0.2,5.6,4.2,9.6c4.5,4.5,10.1,5,10.3,5c0,0,0,0,0,0c0,0,0,0,0,0h328
			c7.2,0,13-5.8,13-13V58.5c0-7.2-5.8-13-13-13h-24.5l0,0c0,0,0,0,0,0c0,0,0,0,0,0v0l0,0l0-0.1c0,0,0,0,0,0c0,0,0,0,0,0l0.1-0.7
			c0.1,0,0.1-0.1,0.2-0.1h24.1c7.7,0,14,6.3,14,14V388.1z"/>
		<path class="st0" d="M271.4,201.2c0.3,0,0.5,0.1,0.8,0.2l0-0.6c-0.2-0.1-0.5-0.2-0.8-0.2c-0.5,0-0.9,0.1-1.2,0.4
			c-0.5,0.4-0.7,0.9-0.7,1.7c0,0.5,0.1,0.9,0.4,1.3c0.4,0.5,0.9,0.8,1.6,0.8c0.3,0,0.6,0,0.8-0.1l0-0.6c-0.3,0.1-0.5,0.2-0.8,0.2
			c-0.4,0-0.7-0.1-0.9-0.4c-0.3-0.3-0.5-0.7-0.5-1.2c0-0.4,0.1-0.7,0.3-1C270.6,201.4,271,201.2,271.4,201.2z"/>
		<path class="st0" d="M275.2,203.8l0.4,1h0.6l-1.6-4.1H274l-1.6,4.1h0.6l0.4-1H275.2z M274,202.2c0.2-0.4,0.3-0.7,0.3-0.9
			c0,0.2,0.1,0.5,0.3,0.9l0.4,1.1h-1.4L274,202.2z"/>
		<path class="st0" d="M277.4,200.7h-0.7v4.1h0.5v-2.1c0-0.6,0-1.1,0-1.5c0.1,0.3,0.3,0.8,0.6,1.4l1.2,2.2h0.7v-4.1h-0.5v2
			c0,0.7,0,1.2,0.1,1.6c-0.1-0.3-0.3-0.7-0.5-1.2L277.4,200.7z"/>
		<path class="st0" d="M282.3,201.2c0.3,0,0.5,0.1,0.8,0.2l0-0.6c-0.2-0.1-0.5-0.2-0.8-0.2c-0.5,0-0.9,0.1-1.2,0.4
			c-0.5,0.4-0.7,0.9-0.7,1.7c0,0.5,0.1,0.9,0.4,1.3c0.4,0.5,0.9,0.8,1.6,0.8c0.3,0,0.6,0,0.8-0.1l0-0.6c-0.3,0.1-0.6,0.2-0.8,0.2
			c-0.4,0-0.7-0.1-0.9-0.4c-0.3-0.3-0.5-0.7-0.5-1.2c0-0.4,0.1-0.7,0.3-1C281.5,201.4,281.8,201.2,282.3,201.2z"/>
		<polygon class="st0" points="285.8,201.2 285.8,200.7 283.8,200.7 283.8,204.8 285.9,204.8 285.9,204.3 284.3,204.3 284.3,202.9
			285.7,202.9 285.7,202.4 284.3,202.4 284.3,201.2 		"/>
		<polygon class="st0" points="286.7,200.7 286.7,204.8 288.7,204.8 288.7,204.3 287.2,204.3 287.2,200.7 		"/>
		<polygon class="st0" points="223.7,200.7 223.7,204.8 224.2,204.8 224.2,202.9 226,202.9 226,204.8 226.5,204.8 226.5,200.7
			226,200.7 226,202.4 224.2,202.4 224.2,200.7 		"/>
		<path class="st0" d="M229.1,204.9c0.6,0,1-0.2,1.3-0.6c0.3-0.4,0.4-0.9,0.4-1.5c0-0.5-0.1-1-0.3-1.3c-0.3-0.5-0.8-0.8-1.4-0.8
			c-0.8,0-1.3,0.3-1.6,1c-0.2,0.3-0.2,0.7-0.2,1.1c0,0.5,0.1,0.9,0.3,1.2C227.9,204.6,228.4,204.9,229.1,204.9z M228.2,201.5
			c0.2-0.3,0.5-0.4,0.8-0.4c0.3,0,0.5,0.1,0.7,0.3c0.3,0.3,0.5,0.8,0.5,1.4c0,0.4-0.1,0.8-0.3,1.1c-0.2,0.4-0.5,0.6-0.9,0.6
			c-0.3,0-0.5-0.1-0.7-0.3c-0.3-0.3-0.5-0.8-0.5-1.4C227.8,202.2,228,201.8,228.2,201.5z"/>
		<path class="st0" d="M235.1,201.4l0,0.4c0,0.4,0,0.6,0,0.7v2.3h0.5v-4.1h-0.9l-0.7,2c-0.2,0.7-0.4,1.1-0.4,1.4
			c0-0.2-0.2-0.5-0.3-1l-0.1-0.3l-0.7-2h-0.9v4.1h0.5v-2.3c0-0.1,0-0.2,0-0.3c0-0.1,0-0.2,0-0.3c0-0.1,0-0.1,0-0.2c0,0,0-0.1,0-0.1
			c0-0.1,0-0.2,0-0.2c0-0.2,0-0.3,0-0.3c0,0,0-0.1,0-0.1c0,0.1,0,0.2,0.1,0.3c0,0.1,0.1,0.3,0.3,0.8l0.1,0.4l0.1,0.3l0.7,2h0.5
			l0.7-2c0.2-0.6,0.4-1.1,0.5-1.4c0.1-0.2,0.1-0.3,0.1-0.4l0,0c0,0,0,0.1,0,0.1c0,0,0,0,0,0.1C235.1,201.2,235.1,201.3,235.1,201.4z
			"/>
		<polygon class="st0" points="238.6,201.2 238.6,200.7 236.6,200.7 236.6,204.8 238.7,204.8 238.7,204.3 237.1,204.3 237.1,202.9
			238.5,202.9 238.5,202.4 237.1,202.4 237.1,201.2 		"/>
		<path class="st0" d="M179.3,201.4l0,0.4c0,0.4,0,0.6,0,0.7v2.3h0.5v-4.1H179l-0.7,2c-0.2,0.7-0.4,1.1-0.4,1.4c0-0.2-0.2-0.5-0.3-1
			l-0.1-0.3l-0.7-2h-0.9v4.1h0.5v-2.3c0-0.1,0-0.2,0-0.3c0-0.1,0-0.2,0-0.3c0-0.1,0-0.1,0-0.2c0,0,0-0.1,0-0.1c0-0.1,0-0.2,0-0.2
			c0-0.2,0-0.3,0-0.3c0,0,0-0.1,0-0.1c0,0.1,0,0.2,0.1,0.3c0,0.1,0.1,0.3,0.3,0.8l0.1,0.4l0.1,0.3l0.7,2h0.5l0.7-2
			c0.2-0.6,0.4-1.1,0.5-1.4c0.1-0.2,0.1-0.3,0.1-0.4l0,0c0,0,0,0.1,0,0.1c0,0,0,0,0,0.1C179.3,201.2,179.3,201.3,179.3,201.4z"/>
		<polygon class="st0" points="182.8,201.2 182.8,200.7 180.8,200.7 180.8,204.8 182.9,204.8 182.9,204.3 181.3,204.3 181.3,202.9
			182.7,202.9 182.7,202.4 181.3,202.4 181.3,201.2 		"/>
		<path class="st0" d="M184.4,200.7h-0.7v4.1h0.5v-2.1c0-0.6,0-1.1,0-1.5c0.1,0.3,0.3,0.8,0.6,1.4l1.2,2.2h0.7v-4.1h-0.5v2
			c0,0.7,0,1.2,0.1,1.6c-0.1-0.3-0.3-0.7-0.5-1.2L184.4,200.7z"/>
		<path class="st0" d="M187.6,200.7v2.2c0,0.6,0.1,1,0.2,1.3c0.2,0.4,0.6,0.7,1.2,0.7c0.6,0,1-0.2,1.2-0.7c0.1-0.3,0.2-0.7,0.2-1.2
			v-2.3h-0.5v2.2c0,0.4,0,0.7-0.1,0.9c-0.1,0.4-0.4,0.6-0.8,0.6c-0.3,0-0.6-0.1-0.8-0.4c-0.1-0.2-0.2-0.6-0.2-1.1v-2.1H187.6z"/>
		<rect x="211.1" y="369.2" class="st0" width="4" height="0.8"/>
		<polygon class="st0" points="249.4,371.6 249.4,369.9 251.1,369.9 251.1,369.1 249.4,369.1 249.4,367.5 248.6,367.5 248.6,369.1
			247,369.1 247,369.9 248.6,369.9 248.6,371.6 		"/>
		<path class="st0" d="M222.8,240l0.3,1h0.5l-1.4-4.1h-0.5l-1.4,4.1h0.5l0.3-1H222.8z M221.7,238.4c0.1-0.4,0.2-0.7,0.3-0.9
			c0,0.2,0.1,0.5,0.3,0.9l0.4,1.1h-1.3L221.7,238.4z"/>
		<path class="st0" d="M226.3,238c0-0.4-0.1-0.7-0.4-0.9c-0.2-0.1-0.5-0.2-0.9-0.2h-0.9v4.1h1.1c0.3,0,0.6-0.1,0.8-0.2
			c0.3-0.2,0.5-0.5,0.5-0.9c0-0.5-0.3-0.9-0.8-1C226.1,238.9,226.3,238.5,226.3,238z M225.9,239.9c0,0.4-0.3,0.7-0.8,0.7h-0.5v-1.4
			h0.4C225.6,239.2,225.9,239.4,225.9,239.9z M225.1,238.7h-0.5v-1.2h0.4c0.6,0,0.9,0.2,0.9,0.6
			C225.8,238.5,225.6,238.7,225.1,238.7z"/>
		<path class="st0" d="M228.6,237.5c0.2,0,0.5,0.1,0.7,0.2l0-0.6c-0.2-0.1-0.5-0.2-0.7-0.2c-0.4,0-0.8,0.1-1.1,0.4
			c-0.4,0.4-0.7,0.9-0.7,1.7c0,0.5,0.1,0.9,0.3,1.3c0.3,0.5,0.8,0.8,1.4,0.8c0.3,0,0.5,0,0.7-0.1l0-0.6c-0.3,0.1-0.5,0.2-0.7,0.2
			c-0.3,0-0.6-0.1-0.8-0.4c-0.3-0.3-0.4-0.7-0.4-1.2c0-0.4,0.1-0.7,0.3-1C227.9,237.6,228.2,237.5,228.6,237.5z"/>
		<path class="st0" d="M253.5,237.3c-0.3-0.2-0.7-0.3-1.2-0.3h-0.7v4.1h0.7c0.4,0,0.8-0.1,1.1-0.2c0.6-0.3,0.9-0.9,0.9-1.8
			C254.3,238.2,254.1,237.6,253.5,237.3z M253.2,240.4c-0.2,0.1-0.5,0.2-0.9,0.2h-0.2v-3.1h0.2c0.4,0,0.7,0.1,0.9,0.2
			c0.4,0.3,0.6,0.7,0.6,1.4C253.8,239.7,253.6,240.1,253.2,240.4z"/>
		<polygon class="st0" points="256.8,237.5 256.8,237 255,237 255,241.1 256.9,241.1 256.9,240.6 255.5,240.6 255.5,239.2
			256.7,239.2 256.7,238.7 255.5,238.7 255.5,237.5 		"/>
		<polygon class="st0" points="259.3,237.5 259.3,237 257.6,237 257.6,241.1 258,241.1 258,239.2 259.3,239.2 259.3,238.7
			258,238.7 258,237.5 		"/>
		<path class="st0" d="M190.9,268.7c0.3,0,0.6,0.1,0.8,0.3l0-0.6c-0.3-0.1-0.6-0.2-0.9-0.2c-0.5,0-1,0.2-1.3,0.5
			c-0.3,0.4-0.5,0.9-0.5,1.5c0,0.7,0.2,1.2,0.5,1.6c0.3,0.4,0.7,0.5,1.3,0.5c0.3,0,0.6-0.1,0.9-0.2v-2.1h-1.2v0.5h0.7v1.2
			c-0.2,0.1-0.3,0.1-0.5,0.1c-0.3,0-0.6-0.1-0.8-0.3c-0.3-0.3-0.5-0.7-0.5-1.3c0-0.4,0.1-0.8,0.3-1.1
			C190.2,268.9,190.5,268.7,190.9,268.7z"/>
		<polygon class="st0" points="192.7,268.2 192.7,272.3 193.1,272.3 193.1,270.5 194.7,270.5 194.7,272.3 195.2,272.3 195.2,268.2
			194.7,268.2 194.7,270 193.1,270 193.1,268.2 		"/>
		<rect x="196" y="268.2" class="st0" width="0.5" height="4.1"/>
		<path class="st0" d="M221.6,271.9c0.1-0.2,0.1-0.4,0.1-0.9v-2.8h-0.5v2.6c0,0.4,0,0.7-0.1,0.8c-0.1,0.1-0.2,0.2-0.4,0.2
			c-0.1,0-0.2,0-0.4-0.1v0.5c0.2,0,0.3,0.1,0.4,0.1C221.2,272.4,221.4,272.2,221.6,271.9z"/>
		<path class="st0" d="M223,268.2h-0.5v4.1h0.5v-1.6c0-0.2,0-0.3,0-0.4c0.1,0.2,0.2,0.3,0.3,0.4l1.2,1.6h0.7l-1.7-2.1l1.5-1.9h-0.6
			l-1.1,1.5c-0.1,0.1-0.2,0.2-0.3,0.4c0-0.1,0-0.3,0-0.5V268.2z"/>
		<polygon class="st0" points="225.6,268.2 225.6,272.3 227.4,272.3 227.4,271.8 226.1,271.8 226.1,268.2 		"/>
		<polygon class="st0" points="221.9,303.6 221.9,300 222.9,300 222.9,299.5 220.4,299.5 220.4,300 221.4,300 221.4,303.6 		"/>
		<path class="st0" d="M223.3,299.5v2.2c0,0.6,0.1,1,0.2,1.3c0.2,0.4,0.6,0.7,1.1,0.7c0.5,0,0.8-0.2,1.1-0.7
			c0.1-0.3,0.2-0.7,0.2-1.2v-2.3h-0.5v2.2c0,0.4,0,0.7-0.1,0.9c-0.1,0.4-0.3,0.6-0.7,0.6c-0.3,0-0.5-0.1-0.7-0.4
			c-0.1-0.2-0.1-0.6-0.1-1.1v-2.1H223.3z"/>
		<path class="st0" d="M229.4,299.5h-0.5l-0.8,2.7c-0.1,0.3-0.2,0.6-0.2,0.9c-0.1-0.3-0.1-0.6-0.2-0.9l-0.8-2.7h-0.5l1.3,4.1h0.6
			L229.4,299.5z"/>
		<path class="st0" d="M254.8,268.9l0,0.4c0,0.4,0,0.6,0,0.7v2.3h0.5v-4.1h-0.8l-0.6,2c-0.2,0.7-0.3,1.1-0.4,1.4
			c0-0.2-0.1-0.5-0.3-1l-0.1-0.3l-0.7-2h-0.8v4.1h0.5V270c0-0.1,0-0.2,0-0.3c0-0.1,0-0.2,0-0.3c0-0.1,0-0.1,0-0.2c0,0,0-0.1,0-0.1
			c0-0.1,0-0.2,0-0.2c0-0.2,0-0.3,0-0.3c0,0,0-0.1,0-0.1c0,0.1,0,0.1,0.1,0.3c0,0.1,0.1,0.3,0.2,0.8l0.1,0.4l0.1,0.3l0.6,2h0.5
			l0.6-2c0.2-0.6,0.3-1.1,0.4-1.4c0-0.2,0.1-0.3,0.1-0.4l0,0c0,0,0,0.1,0,0.1c0,0,0,0.1,0,0.1C254.8,268.8,254.8,268.8,254.8,268.9z
			"/>
		<path class="st0" d="M256.7,268.2h-0.6v4.1h0.5v-2.1c0-0.6,0-1.1,0-1.5c0.1,0.3,0.3,0.8,0.6,1.4l1,2.2h0.6v-4.1h-0.5v2
			c0,0.7,0,1.2,0.1,1.6c-0.1-0.3-0.2-0.7-0.4-1.2L256.7,268.2z"/>
		<path class="st0" d="M260.9,272.4c0.5,0,0.9-0.2,1.2-0.6c0.3-0.4,0.4-0.9,0.4-1.5c0-0.5-0.1-1-0.3-1.3c-0.3-0.5-0.7-0.8-1.3-0.8
			c-0.7,0-1.1,0.3-1.4,1c-0.1,0.3-0.2,0.7-0.2,1.1c0,0.5,0.1,0.9,0.2,1.2C259.8,272.1,260.3,272.4,260.9,272.4z M260.2,269
			c0.2-0.3,0.4-0.4,0.8-0.4c0.3,0,0.5,0.1,0.7,0.3c0.3,0.3,0.4,0.8,0.4,1.4c0,0.4-0.1,0.8-0.2,1.1c-0.2,0.4-0.5,0.6-0.8,0.6
			c-0.3,0-0.5-0.1-0.7-0.3c-0.3-0.3-0.4-0.8-0.4-1.4C259.8,269.7,259.9,269.3,260.2,269z"/>
		<path class="st0" d="M253.8,300.9c0-0.2,0.1-0.5,0.2-0.9c0.1,0.3,0.1,0.7,0.2,0.9l0.6,2.7h0.6l1-4.1h-0.5l-0.6,2.4
			c-0.1,0.4-0.2,0.8-0.2,1.1c-0.1-0.5-0.2-0.8-0.2-1.1l-0.5-2.4h-0.7l-0.5,2.4c-0.1,0.5-0.2,0.9-0.2,1.1c-0.1-0.3-0.1-0.7-0.2-1.1
			l-0.6-2.4h-0.5l1,4.1h0.6L253.8,300.9z"/>
		<polygon class="st0" points="257.1,303.6 258,301.8 259,303.6 259.6,303.6 258.4,301.4 259.5,299.5 258.9,299.5 258.1,301
			257.2,299.5 256.6,299.5 257.7,301.4 256.5,303.6 		"/>
		<path class="st0" d="M261.6,303.6v-1.7l1.3-2.4h-0.6l-0.8,1.5c-0.1,0.1-0.1,0.2-0.1,0.3c0-0.1-0.1-0.2-0.1-0.3l-0.8-1.5h-0.6
			l1.3,2.4v1.7H261.6z"/>
		<path class="st0" d="M263.2,303.1v0.5h2.3v-0.5h-1.4c-0.1,0-0.3,0-0.4,0c0-0.1,0.1-0.1,0.1-0.2c0,0,0.1-0.1,0.2-0.3l1.4-2.5v-0.5
			h-2.2v0.5h1.2c0.1,0,0.3,0,0.5,0c-0.1,0.1-0.2,0.4-0.4,0.7L263.2,303.1z"/>
		<path class="st0" d="M189.8,299.5h-0.6v4.1h0.5V302h0.3c0.5,0,0.8-0.1,1-0.2c0.3-0.2,0.5-0.6,0.5-1c0-0.6-0.2-0.9-0.6-1.1
			C190.6,299.5,190.2,299.5,189.8,299.5z M190.8,300.7c0,0.2,0,0.3-0.1,0.5c-0.1,0.2-0.4,0.3-0.8,0.3h-0.3V300h0.2
			c0.3,0,0.6,0,0.7,0.1C190.7,300.2,190.8,300.4,190.8,300.7z"/>
		<path class="st0" d="M194.5,300.1c-0.3-0.4-0.7-0.7-1.2-0.7c-0.5,0-0.9,0.2-1.2,0.6c-0.3,0.4-0.4,0.9-0.4,1.5
			c0,0.6,0.1,1.1,0.4,1.5c0.3,0.4,0.7,0.6,1.2,0.6c0.2,0,0.4,0,0.6-0.1l0.3,0.5h0.6l-0.6-0.7c0.4-0.4,0.6-0.9,0.6-1.7
			C194.8,301,194.7,300.5,194.5,300.1z M193.9,302.9l-0.2-0.3h-0.6l0.5,0.6c-0.1,0-0.2,0.1-0.3,0.1c-0.2,0-0.5-0.1-0.6-0.3
			c-0.3-0.3-0.4-0.8-0.4-1.4c0-0.5,0.1-0.9,0.3-1.2c0.2-0.3,0.5-0.5,0.8-0.5c0.3,0,0.5,0.1,0.7,0.3c0.3,0.3,0.4,0.8,0.4,1.4
			C194.3,302.1,194.2,302.6,193.9,302.9z"/>
		<path class="st0" d="M197.7,300.6c0-0.3-0.1-0.6-0.3-0.8c-0.2-0.2-0.5-0.3-1.1-0.3h-0.8v4.1h0.5v-1.8h0.3c0.2,0,0.4,0,0.5,0.1
			c0.1,0.1,0.2,0.2,0.3,0.5l0.4,1.2h0.5l-0.6-1.5c-0.1-0.3-0.2-0.5-0.4-0.6C197.5,301.4,197.7,301.1,197.7,300.6z M197,301.1
			c-0.1,0.1-0.4,0.2-0.8,0.2h-0.3V300h0.3c0.3,0,0.6,0,0.7,0.1c0.2,0.1,0.2,0.3,0.2,0.5C197.2,300.8,197.1,301,197,301.1z"/>
		<path class="st0" d="M199.2,303.1c-0.2,0-0.4-0.1-0.8-0.3l-0.2,0.5c0.3,0.2,0.6,0.4,0.9,0.4c0.3,0,0.6-0.1,0.8-0.3
			c0.2-0.2,0.4-0.5,0.4-0.9c0-0.5-0.2-0.9-0.7-1.2l-0.4-0.2c-0.2-0.1-0.3-0.2-0.3-0.2c-0.1-0.1-0.2-0.2-0.2-0.4
			c0-0.4,0.2-0.6,0.5-0.6c0.2,0,0.4,0.1,0.7,0.3l0.2-0.5c-0.3-0.2-0.6-0.3-0.9-0.3c-0.3,0-0.5,0.1-0.7,0.3c-0.2,0.2-0.3,0.5-0.3,0.8
			c0,0.5,0.2,0.8,0.7,1.1l0.3,0.1c0.2,0.1,0.3,0.2,0.4,0.3c0.1,0.1,0.2,0.3,0.2,0.5c0,0.2-0.1,0.4-0.2,0.5
			C199.5,303.1,199.4,303.1,199.2,303.1z"/>
		<polygon class="st0" points="195.1,333 193.6,332 193.6,332.6 192.7,332.6 192.7,333.4 193.6,333.4 193.6,334 		"/>
		<path class="st0" d="M190.5,330.7l-1.4,4.1h0.5l0.3-1h1.6l0.4,1h0.5l-1.4-4.1H190.5z M191.4,333.3h-1.3l0.4-1.1
			c0.1-0.4,0.2-0.7,0.3-0.9c0,0.2,0.1,0.5,0.3,0.9L191.4,333.3z"/>
		<path class="st0" d="M197.3,334.8h0.4c0-0.3,0-0.8,0-1.4v-0.1c0-0.4,0-0.7-0.1-0.9c-0.1-0.4-0.4-0.7-0.9-0.7
			c-0.3,0-0.6,0.1-0.8,0.3l0,0.5c0.2-0.2,0.5-0.3,0.7-0.3c0.4,0,0.6,0.3,0.6,0.7c-0.2,0-0.3,0-0.3,0c-0.9,0-1.3,0.3-1.3,1
			c0,0.3,0.1,0.5,0.3,0.7c0.2,0.2,0.3,0.2,0.6,0.2c0.4,0,0.6-0.2,0.8-0.6c0,0.1,0,0.2,0,0.3C197.3,334.6,197.3,334.7,197.3,334.8z
			 M196.6,334.4c-0.3,0-0.5-0.2-0.5-0.5c0-0.4,0.3-0.6,0.9-0.6c0.1,0,0.2,0,0.2,0l0,0l0,0c0,0,0,0,0,0c0,0,0,0,0,0
			C197.2,334.1,197,334.4,196.6,334.4z"/>
		<path class="st0" d="M301.5,306.5c0,0.5,0.4,0.9,0.9,0.9c0.5,0,0.9-0.4,0.9-0.9c0-0.5-0.4-0.9-0.9-0.9
			C301.9,305.6,301.5,306,301.5,306.5z"/>
		<path class="st0" d="M302.1,304.3l0.6,0.3c0.7-1.2,2-2.1,3.5-2.1c1.1,0,2.1,0.5,2.8,1.2l-1.7-0.1l-0.1,0.6l2.8,0.3l-0.2-2.7
			l-0.7,0l0.1,1.3c-0.8-0.7-1.9-1.2-3.2-1.2C304.4,301.9,302.9,302.9,302.1,304.3z"/>
		<path class="st0" d="M310.2,307.3c0.5,0,0.9-0.4,0.9-0.9c0-0.5-0.4-0.9-0.9-0.9c-0.5,0-0.9,0.4-0.9,0.9
			C309.3,306.9,309.7,307.3,310.2,307.3z"/>
		<polygon class="st0" points="311,333.7 308.8,332.5 308.8,333.3 306.9,333.3 306.9,332.5 304.8,333.7 306.9,335 306.9,334.2
			308.8,334.2 308.8,335 		"/>
		<path class="st0" d="M301.6,331.6v4.3h2.1l4.4,2.7v-3.2h-0.6v2.2l-3.3-2V332l3.3-2v2.2h0.6v-3.2l-4.4,2.7H301.6z M303.7,335.3
			h-1.4v-3.1h1.4V335.3z"/>
		<path class="st0" d="M303,273.9c-0.6,0-1.1,0.5-1.1,1.1c0,0.6,0.5,1.1,1.1,1.1c0.5,0,0.9-0.3,1-0.8h4.5c0.1,0.4,0.5,0.8,1,0.8
			c0.6,0,1.1-0.5,1.1-1.1c0-0.6-0.5-1.1-1.1-1.1c-0.1,0-0.2,0-0.2,0l-2.3-3.9c0.2-0.2,0.3-0.4,0.3-0.7c0-0.6-0.5-1.1-1.1-1.1
			c-0.6,0-1.1,0.5-1.1,1.1c0,0.3,0.1,0.5,0.3,0.7l-2.3,3.9C303.1,273.9,303,273.9,303,273.9z M306,270.3c0.1,0,0.2,0,0.2,0
			c0.1,0,0.2,0,0.2,0c0.6,1,1.7,2.9,2.3,3.9c-0.1,0.1-0.2,0.3-0.2,0.4H304c0-0.2-0.1-0.3-0.2-0.4C304.3,273.3,305.5,271.3,306,270.3
			z"/>
		<path class="st0" d="M155.9,271.5c-0.5-0.5-1.2-0.9-2-0.9c-1.5,0-2.7,1.2-2.7,2.8c0,1.5,1.2,2.8,2.7,2.8c0.8,0,1.5-0.3,2-0.9
			c0.5,0.5,1.2,0.9,2,0.9c1.5,0,2.7-1.2,2.7-2.8c0-1.5-1.2-2.8-2.7-2.8C157.1,270.6,156.4,270.9,155.9,271.5z M155.5,274.6
			c-0.4,0.5-0.9,0.8-1.5,0.8c-1.1,0-2-0.9-2-2s0.9-2,2-2c0.6,0,1.2,0.3,1.5,0.8c-0.2,0.4-0.3,0.8-0.3,1.2
			C155.2,273.8,155.3,274.2,155.5,274.6z"/>
		<polygon class="st0" points="155.2,305.3 158.8,299.2 158.2,299.2 154.6,305.3 		"/>
		<path class="st0" d="M165.7,297.3L165.7,297.3L165.7,297.3c-3.3,0.2-5.8,2.3-6.6,5.4l0,0.1l0,0c0.3,0.7,0.9,1.3,1.6,1.9l0.1,0.1
			l1.8-2.5c0,0-0.7-0.3-0.9-0.4c0.5-0.8,1.6-1.7,2.5-2.1c0.1,0.2,0.3,0.9,0.3,0.9l0.1-0.1l2.7-1.2l-0.1-0.1
			C166.9,298.4,166.4,297.8,165.7,297.3z M165,299.6c-0.1-0.3-0.1-0.7-0.2-0.9c-1.8,0.5-3.5,1.9-4.2,3.5c0.3,0.1,0.6,0.2,0.9,0.3
			l-0.9,1.2c-0.3-0.3-0.7-0.8-0.8-1.1c0.7-2.6,3-4.5,5.6-4.7c0.3,0.2,0.6,0.6,0.9,1L165,299.6z"/>
		<path class="st0" d="M161.6,304.6l0.2,0.5c0.7-0.4,1.2-1.1,1.4-1.9l-0.5,0C162.5,303.7,162.1,304.2,161.6,304.6z"/>
		<path class="st0" d="M162.2,305.6l0.2,0.5c1-0.6,1.7-1.6,2-2.8l-0.6,0C163.6,304.3,163,305.1,162.2,305.6z"/>
		<path class="st0" d="M163,307.3c1.4-0.8,2.4-2.2,2.7-3.8l-0.6-0.1c-0.3,1.4-1.1,2.6-2.3,3.3L163,307.3z"/>
		<path class="st0" d="M145.8,305.5c0.3,0.3,0.7,0.6,1.1,0.8c0.4,0.2,0.7,0.3,1.1,0.4c0.3,0.1,0.6,0.1,1,0.1c1.2,0,2.4-0.5,3.3-1.4
			c0.9-0.9,1.3-2,1.3-3.2c0-1.2-0.5-2.4-1.3-3.3c-0.2-0.2-0.5-0.4-0.8-0.6c-0.4-0.2-0.8-0.4-1.2-0.5c-0.4-0.1-0.9-0.2-1.3-0.2
			c-1.2,0-2.4,0.5-3.2,1.3c-0.9,0.9-1.3,2-1.3,3.3C144.4,303.5,144.9,304.7,145.8,305.5z M149.2,298.3c0.3,0,0.7,0.1,1,0.2
			c0.3,0.1,0.7,0.3,1,0.4c0.2,0.2,0.5,0.3,0.7,0.5c0.7,0.7,1.1,1.7,1.2,2.7c0,1-0.3,2-0.9,2.8l-1.3-1.3l0,0c0.3-0.4,0.5-0.9,0.5-1.4
			l0-0.4h-0.6l0,0.4c0,0.4-0.1,0.7-0.3,1l-0.4-0.4c0.1-0.2,0.2-0.4,0.2-0.6v-2.1c0-0.6-0.5-1.1-1.1-1.1c-0.6,0-1.1,0.5-1.1,1.1v0.7
			l-0.1-0.1l-1.4-1.4C147.2,298.6,148.2,298.3,149.2,298.3z M146,299.7l1.8,1.8l0.1,0.1v0.5c0,0.6,0.5,1.1,1.1,1.1
			c0.2,0,0.3,0,0.4-0.1l0.4,0.4c-0.2,0.1-0.5,0.2-0.8,0.2h0c-0.9,0-1.6-0.7-1.6-1.6l0-0.4h-0.6v0.4c0,1.1,0.8,2.1,1.9,2.2v0.4h-1.4
			v0.6h3.4v-0.6h-1.4v-0.4c0.4-0.1,0.7-0.2,1-0.4l0,0l1.3,1.3c-0.8,0.7-1.7,1-2.7,1c-0.3,0-0.6-0.1-0.9-0.1
			c-0.2-0.1-0.5-0.2-0.7-0.3c-0.4-0.2-0.7-0.4-1-0.7c-0.7-0.7-1.1-1.7-1.2-2.7C145,301.4,145.4,300.4,146,299.7z"/>
		<path class="st0" d="M152.8,335.3c0.3,0.9,0.5,1.5,2,2.3c0.1,0.6,0.6,1,1.2,1c0.7,0,1.2-0.5,1.2-1.2c0-0.7-0.5-1.2-1.2-1.2
			c-0.4,0-0.8,0.2-1,0.6c-1.3-0.3-1.5-2-1.5-2.1l0.3-0.1l0.1,0.2l0.7-0.1c-0.1-0.3-0.5-2.2-0.6-2.5l-0.7,0.1l0.1,0.5l-0.9,0.2
			C152.3,333.5,152.5,334.4,152.8,335.3z M155.9,336.8c0.3,0,0.6,0.3,0.6,0.6c0,0.3-0.3,0.6-0.6,0.6c-0.3,0-0.6-0.3-0.6-0.6
			C155.3,337,155.6,336.8,155.9,336.8z"/>
		<path class="st0" d="M159.7,331.8c0-2.1-1.7-3.9-3.8-3.9c-2.1,0-3.8,1.7-3.8,3.9c0,0.3,0,0.6,0.1,0.8l0.7-0.1
			c-0.1-0.2-0.1-0.5-0.1-0.7c0-1.8,1.4-3.2,3.2-3.2c1.8,0,3.2,1.4,3.2,3.2c0,0.2,0,0.5-0.1,0.7l0.7,0.1
			C159.7,332.3,159.7,332.1,159.7,331.8z"/>
		<path class="st0" d="M158.1,332.2c0,0.2-0.5,2.2-0.6,2.5l0.6,0.1l0.1-0.5l0.9,0.2c0.1-0.4,0.3-1,0.4-1.5l-0.9-0.2l0.1-0.5
			L158.1,332.2z"/>
		<path class="st0" d="M307.6,244.3h2c0.1,0.3,0.5,0.6,0.9,0.6c0.5,0,0.9-0.4,0.9-0.9c0-0.5-0.4-0.9-0.9-0.9c-0.4,0-0.7,0.3-0.9,0.6
			l-2,0V244.3z"/>
		<path class="st0" d="M305.2,243.6l-2.2,0c-0.1-0.3-0.5-0.6-0.9-0.6c-0.5,0-0.9,0.4-0.9,0.9c0,0.5,0.4,0.9,0.9,0.9
			c0.4,0,0.7-0.2,0.9-0.6h2.4c0.6,0,1.2-0.5,1.2-1.2l0-3.5l1.2,1.8l0.5-0.4l-2.1-2.6l-2.1,2.6l0.5,0.4l1.2-1.7l0,3.2
			C305.9,243.2,305.6,243.6,305.2,243.6z"/>
		<path class="st0" d="M151.3,238.8v6.1h9.2v-6.1H151.3z M159.2,239.5c-1.1,0.9-3,2.6-3.3,2.9c-0.3-0.3-2.2-2-3.3-2.9H159.2z
			 M152,239.9l2.1,1.9l-2.1,1.9V239.9z M152.6,244.1l2.1-1.8l1.2,1.1l1.2-1.1l2.1,1.8H152.6z M159.8,243.7l-2.1-1.9l2.1-1.9V243.7z"
			/>
		<path class="st0" d="M227.2,370.6c-0.1,0-0.2,0.1-0.2,0.3c0,0.2,0.1,0.3,0.3,0.3h7.5c0.2,0,0.3-0.1,0.3-0.3v-2.5
			c0-0.2-0.2-0.4-0.4-0.3L227.2,370.6z"/>
		<path class="st0" d="M216.7,71.3h0.9l-2.3-2.4l2.1-2.2h-0.9l-1.6,1.7c-0.1,0.1-0.1,0.1-0.1,0.1c0,0-0.1,0.1-0.2,0.2l-0.1,0.1
			c0-0.1,0-0.3,0-0.5v-1.5H214v4.5h0.6v-1.8c0-0.2,0-0.4,0-0.5c0.2,0.2,0.3,0.4,0.4,0.5L216.7,71.3z"/>
		<polygon class="st0" points="219,71.3 220.3,69.3 221.6,71.3 222.4,71.3 220.7,68.9 222.3,66.7 221.5,66.7 220.3,68.4 219.1,66.7
			218.3,66.7 219.9,68.9 218.2,71.3 		"/>
		<rect x="222.3" y="68.8" class="st0" width="1.7" height="0.5"/>
		<polygon class="st0" points="228.5,71.3 228.5,66.7 227.8,66.7 227.8,68.6 225.6,68.6 225.6,66.7 225,66.7 225,71.3 225.6,71.3
			225.6,69.2 227.8,69.2 227.8,71.3 		"/>
		<path class="st0" d="M232.2,67c-0.4-0.2-0.8-0.3-1.7-0.3h-0.9v4.5h1c0.7,0,1.1-0.1,1.5-0.3c0.8-0.4,1.3-1.1,1.3-2
			C233.4,68.2,233,67.4,232.2,67z M231.9,70.5c-0.3,0.2-0.6,0.2-1.3,0.2h-0.3v-3.4h0.3c0.6,0,0.9,0.1,1.2,0.2
			c0.5,0.3,0.9,0.9,0.9,1.5C232.7,69.7,232.4,70.2,231.9,70.5z"/>
		<path class="st0" d="M234.5,66.7h-0.7l1.7,4.5h0.8l1.7-4.5h-0.7l-1.1,3c-0.1,0.4-0.2,0.7-0.3,1c-0.1-0.3-0.2-0.7-0.3-1L234.5,66.7
			z"/>
		<path class="st0" d="M239.3,70.8c-0.3,0-0.7-0.1-1.1-0.2l0,0.6c0.4,0.1,0.7,0.2,1.1,0.2c1,0,1.7-0.5,1.7-1.3
			c0-0.6-0.5-1.1-1.2-1.1c0.2,0,0.3-0.1,0.5-0.1c0.4-0.2,0.6-0.5,0.6-0.9c0-0.7-0.6-1.2-1.5-1.2c-0.4,0-0.7,0.1-1.2,0.2l0.1,0.6
			c0.4-0.2,0.7-0.2,1-0.2c0.5,0,0.9,0.3,0.9,0.7c0,0.5-0.5,0.8-1.4,0.8h-0.2v0.5c0.1,0,0.2,0,0.3,0c0.8,0,1.2,0.3,1.2,0.8
			C240.3,70.5,239.9,70.8,239.3,70.8z"/>
		<path class="st0" d="M243,70.8c-0.3,0-0.7-0.1-1.1-0.2l0,0.6c0.4,0.1,0.7,0.2,1.1,0.2c1,0,1.7-0.5,1.7-1.3c0-0.6-0.5-1.1-1.2-1.1
			c0.2,0,0.3-0.1,0.5-0.1c0.4-0.2,0.6-0.5,0.6-0.9c0-0.7-0.6-1.2-1.5-1.2c-0.4,0-0.7,0.1-1.2,0.2l0.1,0.6c0.4-0.2,0.7-0.2,1-0.2
			c0.5,0,0.9,0.3,0.9,0.7c0,0.5-0.5,0.8-1.4,0.8h-0.1v0.5c0.1,0,0.2,0,0.3,0c0.8,0,1.2,0.3,1.2,0.8C244,70.5,243.6,70.8,243,70.8z"
			/>
		<path class="st0" d="M247.8,66.9c-0.2-0.2-0.5-0.3-0.8-0.3c-0.5,0-0.8,0.2-1.1,0.5c-0.3,0.4-0.5,1-0.5,1.8c0,0.5,0.1,1,0.2,1.4
			c0.1,0.2,0.2,0.4,0.3,0.5c0.2,0.3,0.6,0.4,1,0.4c0.4,0,0.8-0.2,1.1-0.5c0.3-0.4,0.5-1,0.5-1.9c0-0.6-0.1-1.2-0.3-1.6
			C248.1,67.2,248,67,247.8,66.9z M247.5,70.6c-0.1,0.2-0.3,0.2-0.5,0.2c-0.6,0-0.9-0.6-0.9-1.8c0-0.7,0.1-1.3,0.4-1.6
			c0.1-0.2,0.3-0.2,0.5-0.2c0.6,0,0.9,0.7,0.9,1.9C247.8,69.7,247.7,70.3,247.5,70.6z"/>
		<path class="st0" d="M251.7,59.3c0.2,0.4,0.5,0.6,0.8,0.9c0.4,0.3,0.8,0.5,1.3,0.5c0.4,0,0.7,0,1.1-0.1c0.6-0.1,1-0.4,1.4-0.8
			c0.4-0.4,0.6-0.9,0.5-1.5H255c0,0.1,0,0.2,0,0.3c0,0.2-0.1,0.3-0.2,0.4c-0.1,0.1-0.2,0.2-0.4,0.2c-0.2,0-0.5,0-0.6-0.2
			c-0.2-0.2-0.3-0.3-0.3-0.5c-0.1-0.5-0.1-1,0-1.4c0.1-0.2,0.2-0.4,0.4-0.5c0.3-0.2,0.6-0.2,0.8,0c0.2,0.1,0.3,0.3,0.3,0.6h1.8
			c0-0.3,0-0.6-0.2-0.9c-0.1-0.2-0.3-0.4-0.5-0.6c-0.3-0.3-0.6-0.5-1-0.6c-0.6-0.1-1.1-0.2-1.7,0c-1,0.2-1.8,0.9-2,1.9
			c-0.1,0.4-0.1,0.8-0.1,1.3C251.4,58.8,251.5,59,251.7,59.3z"/>
		<rect x="248.8" y="53.2" class="st0" width="2" height="1.4"/>
		<rect x="248.8" y="55.3" class="st0" width="2" height="5.3"/>
		<path class="st0" d="M244.5,57.7c0-0.2,0-0.3,0.1-0.5c0.2-0.3,0.6-0.5,1-0.3c0.2,0.1,0.3,0.2,0.3,0.4c0,0.1,0,0.2,0,0.3v3h2.1
			v-3.4c0-0.3,0-0.5-0.1-0.8c-0.2-0.6-0.6-1-1.2-1.1c-0.5-0.2-1-0.1-1.6,0.1c-0.3,0.1-0.6,0.3-0.8,0.5l0-0.6h-1.9v5.3h2V57.7z"/>
		<path class="st0" d="M220.2,57.7c0-0.2,0-0.3,0.1-0.5c0.2-0.3,0.6-0.5,1-0.3c0.2,0.1,0.3,0.2,0.3,0.4c0,0.1,0,0.2,0,0.3v3h2.1
			v-3.4c0-0.3,0-0.5-0.1-0.8c-0.2-0.6-0.6-1-1.2-1.1c-0.5-0.2-1-0.1-1.6,0.1c-0.3,0.1-0.6,0.3-0.8,0.5l0-0.6h-1.9v5.3h2V57.7z"/>
		<path class="st0" d="M230.9,60.1c0.3,0.2,0.5,0.4,0.9,0.5c0.7,0.2,1.4,0.2,2.1,0.1c0.3-0.1,0.6-0.1,0.9-0.3
			c0.1-0.1,0.2-0.1,0.4-0.2c0.5-0.4,0.7-1.1,0.5-1.7c-0.1-0.2-0.2-0.4-0.4-0.6c-0.3-0.2-0.5-0.4-0.9-0.5c-0.1,0-0.1,0-0.2-0.1
			c-0.4-0.1-0.8-0.2-1.2-0.3c-0.1,0-0.2,0-0.3-0.1c-0.1,0-0.1,0-0.1,0c-0.1-0.1-0.2-0.2-0.1-0.3c0,0,0,0,0,0
			c0.1-0.1,0.2-0.2,0.3-0.2c0.2-0.1,0.4-0.1,0.6,0c0.2,0.1,0.3,0.3,0.3,0.5h1.9c0-0.2,0-0.4-0.1-0.6c-0.1-0.2-0.2-0.4-0.4-0.5
			c-0.2-0.1-0.3-0.2-0.5-0.3c-0.2-0.1-0.3-0.1-0.5-0.2c-0.5-0.1-0.9-0.1-1.3-0.1c-0.3,0-0.5,0.1-0.8,0.1c-0.3,0.1-0.6,0.2-0.9,0.4
			c-0.2,0.2-0.4,0.4-0.5,0.7c0,0.1-0.1,0.2-0.1,0.4c0,0.2,0,0.4,0.1,0.6c0.2,0.4,0.4,0.7,0.8,0.8c0.2,0.1,0.4,0.1,0.6,0.2
			c0.4,0.1,0.7,0.1,1.2,0.2c0.2,0,0.3,0.1,0.4,0.1c0.1,0,0.2,0.1,0.2,0.3c0,0.1,0,0.3-0.1,0.4c-0.1,0.1-0.2,0.2-0.3,0.2
			c-0.2,0-0.3,0-0.5,0c-0.1,0-0.2-0.1-0.2-0.1c-0.1-0.1-0.1-0.2-0.2-0.3c0-0.1,0-0.2,0-0.3h-1.9v0.1c0,0.2,0,0.3,0.1,0.5
			C230.5,59.7,230.7,59.9,230.9,60.1z"/>
		<path class="st0" d="M207.6,58.3h1.3c0.4,0,0.6,0,1-0.1c1-0.2,1.8-1,1.9-2.1c0.1-0.5,0-0.9-0.2-1.4c-0.4-0.9-1.2-1.4-2.2-1.5
			c-0.1,0-0.3,0-0.4,0h-3.6v7.4h2.2V58.3z M207.6,55h1.3c0.4,0,0.7,0.3,0.7,0.7c0,0.1,0,0.2,0,0.3c0,0.1-0.1,0.2-0.1,0.3
			c-0.1,0.2-0.3,0.3-0.6,0.3c-0.2,0-0.3,0-0.5,0h-0.9V55z"/>
		<path class="st0" d="M237.2,60.2c0.3,0.2,0.6,0.4,1,0.5c0.3,0.1,0.5,0.1,0.8,0.1c0.3,0,0.5,0,0.8-0.1c0.4-0.1,0.7-0.2,1-0.5
			c0.5-0.4,0.8-0.8,1-1.4c0.1-0.4,0.1-0.7,0.1-1.1c-0.1-0.7-0.3-1.2-0.8-1.6c-0.4-0.4-0.9-0.7-1.5-0.8c-0.2,0-0.4,0-0.6,0
			s-0.4,0-0.6,0c-0.6,0.1-1.1,0.3-1.5,0.8c-0.5,0.5-0.7,1-0.8,1.6c0,0.4,0,0.7,0.1,1.1C236.4,59.4,236.7,59.8,237.2,60.2z
			 M238.2,57.4c0-0.2,0.1-0.3,0.2-0.5c0.2-0.4,0.7-0.5,1.1-0.2c0.1,0.1,0.2,0.1,0.2,0.2c0.1,0.2,0.2,0.3,0.2,0.5
			c0.1,0.4,0.1,0.7,0,1.1c0,0.2-0.1,0.3-0.1,0.5c-0.2,0.4-0.6,0.6-1,0.4c-0.2-0.1-0.3-0.2-0.4-0.4c-0.1-0.2-0.1-0.3-0.1-0.5
			C238.1,58.1,238.1,57.8,238.2,57.4z"/>
		<path class="st0" d="M227.5,57.3c-0.1,0-0.1,0-0.2,0.1c-0.2,0.1-0.5,0.1-0.7,0.2c-0.2,0-0.4,0.1-0.6,0.1c-0.3,0.1-0.5,0.1-0.8,0.2
			c-0.2,0.1-0.4,0.2-0.6,0.4c-0.2,0.2-0.4,0.5-0.4,0.8c0,0.2,0,0.4,0,0.6c0.1,0.5,0.5,1,1,1.1c0.6,0.2,1.2,0.1,1.7-0.1
			c0.3-0.1,0.5-0.3,0.7-0.5c0,0.1,0.1,0.2,0.1,0.4c0,0.1,0.1,0.1,0.1,0.2h1.9c-0.1-0.1-0.1-0.3-0.1-0.4c0-0.4-0.1-0.8-0.1-1.2
			c0-0.6,0-1.1,0-1.6c0-0.3,0-0.6-0.1-0.9c-0.1-0.4-0.3-0.7-0.7-0.9c-0.2-0.1-0.4-0.2-0.6-0.2c-0.8-0.2-1.4-0.2-2.2,0
			c-0.2,0-0.4,0.1-0.6,0.2c-0.5,0.2-0.8,0.5-0.9,1c-0.1,0.2-0.1,0.3-0.1,0.5c0,0,0,0.1,0,0.1l1.8,0c0-0.1,0-0.2,0-0.3
			c0.1-0.2,0.2-0.3,0.3-0.3c0.2-0.1,0.5-0.1,0.7,0c0.2,0.1,0.3,0.2,0.3,0.3c0,0.1,0,0.2,0,0.3C227.7,57.2,227.6,57.2,227.5,57.3z
			 M227.8,58.2c0,0.2,0,0.4,0,0.5c0,0.1-0.1,0.3-0.1,0.4c-0.1,0.1-0.2,0.2-0.3,0.3c-0.1,0.1-0.3,0.1-0.4,0.1c-0.1,0-0.2,0-0.4,0
			c-0.1,0-0.2-0.1-0.2-0.2c-0.1-0.1-0.1-0.1-0.1-0.2c0-0.1,0-0.3,0.1-0.3c0.1-0.1,0.1-0.1,0.2-0.1c0.2-0.1,0.4-0.1,0.6-0.2
			C227.4,58.4,227.6,58.3,227.8,58.2z"/>
		<path class="st0" d="M215.2,57.3c-0.1,0-0.1,0-0.2,0.1c-0.2,0.1-0.5,0.1-0.7,0.2c-0.2,0-0.4,0.1-0.6,0.1c-0.3,0.1-0.5,0.1-0.8,0.2
			c-0.2,0.1-0.4,0.2-0.6,0.4c-0.2,0.2-0.4,0.5-0.4,0.8c0,0.2,0,0.4,0,0.6c0.1,0.5,0.5,1,1,1.1c0.6,0.2,1.2,0.1,1.7-0.1
			c0.3-0.1,0.5-0.3,0.7-0.5c0,0.1,0.1,0.2,0.1,0.4c0,0.1,0.1,0.1,0.1,0.2h1.9c-0.1-0.1-0.1-0.3-0.1-0.4c0-0.4,0-0.8-0.1-1.2
			c0-0.6,0-1.1,0-1.6c0-0.3,0-0.6-0.1-0.9c-0.1-0.4-0.3-0.7-0.7-0.9c-0.2-0.1-0.4-0.2-0.6-0.2c-0.8-0.2-1.4-0.2-2.2,0
			c-0.2,0-0.4,0.1-0.6,0.2c-0.5,0.2-0.8,0.5-0.9,1c-0.1,0.2-0.1,0.3,0,0.5c0,0,0,0.1,0,0.1l1.8,0c0-0.1,0-0.2,0-0.3
			c0.1-0.2,0.2-0.3,0.3-0.3c0.2-0.1,0.5-0.1,0.7,0c0.2,0.1,0.3,0.2,0.3,0.3c0,0.1,0,0.2,0,0.3C215.3,57.2,215.2,57.2,215.2,57.3z
			 M215.5,58.2c0,0.2,0,0.4,0,0.5c0,0.1-0.1,0.3-0.1,0.4c-0.1,0.1-0.2,0.2-0.4,0.3c-0.1,0.1-0.3,0.1-0.4,0.1c-0.1,0-0.2,0-0.4,0
			c-0.1,0-0.2-0.1-0.3-0.2c-0.1-0.1-0.1-0.1-0.1-0.2c0-0.1,0-0.3,0.1-0.3c0.1-0.1,0.1-0.1,0.2-0.1c0.2-0.1,0.4-0.1,0.6-0.2
			C215,58.4,215.2,58.3,215.5,58.2z"/>
	</g>
</g>
<g id="Ebene_3">
	<path class="st1" d="M239.7,106.3h-64.5c-2.3,0-4.2-1.9-4.2-4.2V86.5c0-2.3,1.9-4.2,4.2-4.2h64.5c2.3,0,4.2,1.9,4.2,4.2v15.6
		C243.9,104.4,242,106.3,239.7,106.3z"/>
	<path class="st1" d="M314.6,106.3h-64.5c-2.3,0-4.2-1.9-4.2-4.2V86.5c0-2.3,1.9-4.2,4.2-4.2h64.5c2.3,0,4.2,1.9,4.2,4.2v15.6
		C318.7,104.4,316.9,106.3,314.6,106.3z"/>
	<path class="st1" d="M239.7,131.7h-64.5c-2.3,0-4.2-1.9-4.2-4.2V112c0-2.3,1.9-4.2,4.2-4.2h64.5c2.3,0,4.2,1.9,4.2,4.2v15.6
		C243.9,129.9,242,131.7,239.7,131.7z"/>
	<path class="st1" d="M314.6,131.7h-64.5c-2.3,0-4.2-1.9-4.2-4.2V112c0-2.3,1.9-4.2,4.2-4.2h64.5c2.3,0,4.2,1.9,4.2,4.2v15.6
		C318.7,129.9,316.9,131.7,314.6,131.7z"/>
	<path class="st1" d="M239.7,157.2h-64.5c-2.3,0-4.2-1.9-4.2-4.2v-15.6c0-2.3,1.9-4.2,4.2-4.2h64.5c2.3,0,4.2,1.9,4.2,4.2v15.6
		C243.9,155.3,242,157.2,239.7,157.2z"/>
	<path class="st1" d="M314.6,157.2h-64.5c-2.3,0-4.2-1.9-4.2-4.2v-15.6c0-2.3,1.9-4.2,4.2-4.2h64.5c2.3,0,4.2,1.9,4.2,4.2v15.6
		C318.7,155.3,316.9,157.2,314.6,157.2z"/>
	<path class="st1" d="M239.7,182.7h-64.5c-2.3,0-4.2-1.9-4.2-4.2v-15.6c0-2.3,1.9-4.2,4.2-4.2h64.5c2.3,0,4.2,1.9,4.2,4.2v15.6
		C243.9,180.8,242,182.7,239.7,182.7z"/>
	<path class="st1" d="M314.6,182.7h-64.5c-2.3,0-4.2-1.9-4.2-4.2v-15.6c0-2.3,1.9-4.2,4.2-4.2h64.5c2.3,0,4.2,1.9,4.2,4.2v15.6
		C318.7,180.8,316.9,182.7,314.6,182.7z"/>
</g>
<g id="Ebene_2">
	<g>
		<circle id="bgnumber_27_" class="st2" cx="304.6" cy="171.5" r="7.1"/>
		<text transform="matrix(1 0 0 1 299.0813 174.9437)" class="st3 st4 st5 button" data-number="23">24</text>
	</g>
	<g>
		<circle id="bgnumber_28_" class="st2" cx="304.6" cy="145.9" r="7.1"/>
		<text transform="matrix(1 0 0 1 299.2167 149.3896)" class="st3 st4 st5 button" data-number="22">23</text>
	</g>
	<g>
		<circle id="bgnumber_29_" class="st2" cx="304.6" cy="120.4" r="7.1"/>
		<text transform="matrix(1 0 0 1 299.3617 123.8356)" class="st3 st4 st5 button" data-number="21">22</text>
	</g>
	<g>
		<circle id="bgnumber_30_" class="st2" cx="304.6" cy="94.8" r="7.1"/>
		<text transform="matrix(1 0 0 1 300.0165 98.2815)" class="st3 st4 st5 button" data-number="20">21</text>
	</g>
	<g>
		<circle id="bgnumber_31_" class="st2" cx="229.1" cy="171.5" r="7.1"/>
		<text transform="matrix(1 0 0 1 223.5157 174.9437)" class="st3 st4 st5 button" data-number="19">20</text>
	</g>
	<g>
		<circle id="bgnumber_32_" class="st2" cx="229.1" cy="145.9" r="7.1"/>
		<text transform="matrix(1 0 0 1 224.3208 149.3896)" class="st3 st4 st5 button" data-number="18">19</text>
	</g>
	<g>
		<circle id="bgnumber_17_" class="st2" cx="229.1" cy="120.4" r="7.1"/>
		<text transform="matrix(1 0 0 1 224.2803 123.8398)" class="st3 st4 st5 button" data-number="17">18</text>
	</g>
	<g>
		<circle id="bgnumber_16_" class="st2" cx="229.1" cy="94.8" r="7.1"/>
		<text transform="matrix(1 0 0 1 224.7804 98.2857)" class="st3 st4 st5 button" data-number="16">17</text>
	</g>
	<g>
		<circle id="bgnumber_15_" class="st2" cx="282.1" cy="171.5" r="7.1"/>
		<text transform="matrix(1 0 0 1 277.3131 174.9479)" class="st3 st4 st5 button" data-number="15">16</text>
	</g>
	<g>
		<circle id="bgnumber_14_" class="st2" cx="282.1" cy="145.9" r="7.1"/>
		<text transform="matrix(1 0 0 1 277.493 149.3935)" class="st3 st4 st5 button" data-number="14">15</text>
	</g>
	<g>
		<circle id="bgnumber_13_" class="st2" cx="282.1" cy="120.4" r="7.1"/>
		<g>
			<text transform="matrix(1 0 0 1 277.2628 123.8395)" class="st3 st4 st5 button" data-number="13">14</text>
		</g>
	</g>
	<g>
		<circle id="bgnumber_12_" class="st2" cx="282.1" cy="94.8" r="7.1"/>
		<text transform="matrix(1 0 0 1 277.3981 98.2854)" class="st3 st4 st5 button" data-number="12">13</text>
	</g>
	<g>
		<circle id="bgnumber_11_" class="st2" cx="207" cy="171.5" r="7.1"/>
		<text transform="matrix(1 0 0 1 202.4769 175.0226)" class="st3 st4 st5 button" data-number="11">12</text>
	</g>
	<g>
		<circle id="bgnumber_10_" class="st2" cx="207" cy="145.9" r="7.1"/>
		<text transform="matrix(1 0 0 1 203.1316 149.4685)" class="st3 st4 st5 button" data-number="10">11</text>
	</g>
	<g>
		<circle id="bgnumber_9_" class="st2" cx="207" cy="120.4" r="7.1"/>
		<text transform="matrix(1 0 0 1 202.0967 123.9146)" class="st3 st4 st5 button" data-number="9">10</text>
	</g>
	<g>
		<circle id="bgnumber_8_" class="st2" cx="207" cy="94.8" r="7.1"/>
		<text transform="matrix(1 0 0 1 201.2118 98.3604)" class="st3 st4 st5 button" data-number="8">09</text>
	</g>
	<g>
		<circle id="bgnumber_7_" class="st2" cx="259.6" cy="171.5" r="7.1"/>
		<text transform="matrix(1 0 0 1 253.7643 175.0226)" class="st3 st4 st5 button" data-number="7">08</text>
	</g>
	<g>
		<circle id="bgnumber_6_" class="st2" cx="259.6" cy="145.9" r="7.1"/>
		<text transform="matrix(1 0 0 1 254.2638 149.4685)" class="st3 st4 st5 button" data-number="6">07</text>
	</g>
	<g>
		<circle id="bgnumber_5_" class="st2" cx="259.6" cy="120.4" r="7.1"/>
		<text transform="matrix(1 0 0 1 253.8044 123.8357)" class="st3 st4 st5 button" data-number="5">06</text>
	</g>
	<g>
		<circle id="bgnumber_4_" class="st2" cx="259.6" cy="94.8" r="7.1"/>
		<text transform="matrix(1 0 0 1 253.9844 98.2816)" class="st3 st4 st5 button" data-number="4">05</text>
	</g>
	<g>
		<circle id="bgnumber_3_" class="st2" cx="184.9" cy="171.5" r="7.1"/>
		<text transform="matrix(1 0 0 1 179.0878 174.9438)" class="st3 st4 st5 button" data-number="3">04</text>
	</g>
	<g>
		<circle id="bgnumber_2_" class="st2" cx="184.9" cy="145.9" r="7.1"/>
		<text transform="matrix(1 0 0 1 179.2228 149.3896)" class="st3 st4 st5 button" data-number="2">03</text>
	</g>
	<g>
		<circle id="bgnumber_1_" class="st2" cx="184.9" cy="120.4" r="7.1"/>
		<text transform="matrix(1 0 0 1 179.3678 123.8357)" class="st3 st4 st5 button" data-number="1">02</text>
	</g>
	<g>
		<circle id="bgnumber" class="st2" cx="184.9" cy="94.8" r="7.1"/>
		<text transform="matrix(1 0 0 1 180.0226 98.2812)" class="st3 st4 st5 button" data-number="0">01</text>
	</g>
</g>
</svg>
