<?xml version="1.0" encoding="utf-8"?>
<!-- Generator: Adobe Illustrator 21.0.1, SVG Export Plug-In . SVG Version: 6.00 Build 0)  -->
<!DOCTYPE svg PUBLIC "-//W3C//DTD SVG 1.1//EN" "http://www.w3.org/Graphics/SVG/1.1/DTD/svg11.dtd">
<svg version="1.1" xmlns="http://www.w3.org/2000/svg" xmlns:xlink="http://www.w3.org/1999/xlink" x="0px" y="0px"
	 viewBox="0 0 200 354" style="enable-background:new 0 0 200 354;" xml:space="preserve">
<style type="text/css">
	.button{cursor: pointer}
	.st0{fill:#B3B2B2;}
	.st1{fill:#FFFFFF;}
	.st2{fill:#23AEE5;}
	.st3{font-family:'BrixSansRegular';}
	.st4{font-size:10px;}
</style>
<g id="Ebene_1">
	<g>
		<path class="st0" d="M184.9,2.4H15.1c-7,0-12.8,5.7-12.8,12.8v323.7c0,7.1,5.7,12.8,12.8,12.8h169.7c7,0,12.8-5.7,12.8-12.8V15.1
			C197.6,8.1,191.9,2.4,184.9,2.4z M196.9,338.9c0,6.7-5.4,12.1-12.1,12.1H15.1c-6.7,0-12.1-5.4-12.1-12.1V15.1
			c0-6.7,5.4-12.1,12.1-12.1h169.7c6.7,0,12.1,5.4,12.1,12.1V338.9z"/>
		<path class="st0" d="M184.9,0H15.1C6.8,0,0,6.8,0,15.1v323.7c0,8.4,6.8,15.1,15.1,15.1h169.7c8.4,0,15.1-6.8,15.1-15.1V15.1
			C200,6.8,193.2,0,184.9,0z M198.6,338.9c0,7.6-6.2,13.7-13.7,13.7H15.1c-7.6,0-13.7-6.2-13.7-13.7V15.1c0-7.6,6.2-13.7,13.7-13.7
			h169.7c7.6,0,13.7,6.2,13.7,13.7V338.9z"/>
		<path class="st0" d="M109.7,292.1H90.3c-1.5,0-2.7,1.2-2.7,2.7v7.7c0,1.5,1.2,2.7,2.7,2.7h19.5c1.5,0,2.7-1.2,2.7-2.7v-7.7
			C112.5,293.3,111.2,292.1,109.7,292.1z M111.7,302.5c0,1.1-0.9,2-2,2H90.3c-1.1,0-2-0.9-2-2v-7.7c0-1.1,0.9-2,2-2h19.5
			c1.1,0,2,0.9,2,2V302.5z"/>
		<path class="st0" d="M145,37.5H55c-0.6,0-1.7,0.4-2,2l0,218.9c0,0.6,0.4,1.8,2,2H145c0,0,0,0,0.1,0c1.5-0.2,2-1.4,2-2l0-219
			C146.7,37.9,145.6,37.5,145,37.5z M54.3,40.1c0.1-1.4,1.1-1.5,1.2-1.5l89,0c0.1,0,1.1,0.1,1.2,1.5l0,217.9c0,0.1,0.1,1.1-1.3,1.4
			l-88.8,0c-1.4-0.3-1.3-1.3-1.3-1.5L54.3,40.1z M146,38.8C146,38.8,146,38.8,146,38.8C146,38.8,146,38.8,146,38.8z M146.2,39.1
			c0,0,0,0.1,0.1,0.1C146.2,39.2,146.2,39.1,146.2,39.1z"/>
		<path class="st0" d="M174.1,39.7h-11c-1.5,0-2.7,1.2-2.7,2.7v4c0,1.5,1.2,2.7,2.7,2.7h11c1.5,0,2.7-1.2,2.7-2.7v-4
			C176.9,40.9,175.6,39.7,174.1,39.7z M176.2,46.4c0,1.1-0.9,2-2,2h-11c-1.1,0-2-0.9-2-2v-4c0-1.1,0.9-2,2-2h11c1.1,0,2,0.9,2,2
			V46.4z"/>
		<path class="st0" d="M158.4,43.5h-8.1c-0.5,0-1,0.4-1,1c0,0.5,0.4,1,1,1h8.1c0.5,0,1-0.4,1-1C159.4,43.9,158.9,43.5,158.4,43.5z
			 M158.4,44.7h-8.1c-0.2,0-0.3-0.1-0.3-0.3c0-0.2,0.1-0.3,0.3-0.3h8.1c0.2,0,0.3,0.1,0.3,0.3C158.6,44.6,158.5,44.7,158.4,44.7z"/>
		<path class="st0" d="M174.1,61.1h-11c-1.5,0-2.7,1.2-2.7,2.7v4c0,1.5,1.2,2.7,2.7,2.7h11c1.5,0,2.7-1.2,2.7-2.7v-4
			C176.9,62.3,175.6,61.1,174.1,61.1z M176.2,67.8c0,1.1-0.9,2-2,2h-11c-1.1,0-2-0.9-2-2v-4c0-1.1,0.9-2,2-2h11c1.1,0,2,0.9,2,2
			V67.8z"/>
		<path class="st0" d="M158.4,64.9h-8.1c-0.5,0-1,0.4-1,1c0,0.5,0.4,1,1,1h8.1c0.5,0,1-0.4,1-1C159.4,65.3,158.9,64.9,158.4,64.9z
			 M158.4,66.1h-8.1c-0.2,0-0.3-0.1-0.3-0.3c0-0.2,0.1-0.3,0.3-0.3h8.1c0.2,0,0.3,0.1,0.3,0.3C158.6,66,158.5,66.1,158.4,66.1z"/>
		<path class="st0" d="M174.1,82.5h-11c-1.5,0-2.7,1.2-2.7,2.7v4c0,1.5,1.2,2.7,2.7,2.7h11c1.5,0,2.7-1.2,2.7-2.7v-4
			C176.9,83.7,175.6,82.5,174.1,82.5z M176.2,89.2c0,1.1-0.9,2-2,2h-11c-1.1,0-2-0.9-2-2v-4c0-1.1,0.9-2,2-2h11c1.1,0,2,0.9,2,2
			V89.2z"/>
		<path class="st0" d="M158.4,86.3h-8.1c-0.5,0-1,0.4-1,1c0,0.5,0.4,1,1,1h8.1c0.5,0,1-0.4,1-1C159.4,86.7,158.9,86.3,158.4,86.3z
			 M158.4,87.5h-8.1c-0.2,0-0.3-0.1-0.3-0.3c0-0.2,0.1-0.3,0.3-0.3h8.1c0.2,0,0.3,0.1,0.3,0.3C158.6,87.4,158.5,87.5,158.4,87.5z"/>
		<path class="st0" d="M174.1,103.9h-11c-1.5,0-2.7,1.2-2.7,2.7v4c0,1.5,1.2,2.7,2.7,2.7h11c1.5,0,2.7-1.2,2.7-2.7v-4
			C176.9,105.1,175.6,103.9,174.1,103.9z M176.2,110.6c0,1.1-0.9,2-2,2h-11c-1.1,0-2-0.9-2-2v-4c0-1.1,0.9-2,2-2h11c1.1,0,2,0.9,2,2
			V110.6z"/>
		<path class="st0" d="M158.4,107.7h-8.1c-0.5,0-1,0.4-1,1c0,0.5,0.4,1,1,1h8.1c0.5,0,1-0.4,1-1
			C159.4,108.1,158.9,107.7,158.4,107.7z M158.4,108.9h-8.1c-0.2,0-0.3-0.1-0.3-0.3c0-0.2,0.1-0.3,0.3-0.3h8.1
			c0.2,0,0.3,0.1,0.3,0.3C158.6,108.8,158.5,108.9,158.4,108.9z"/>
		<path class="st0" d="M174.1,125.3h-11c-1.5,0-2.7,1.2-2.7,2.7v4c0,1.5,1.2,2.7,2.7,2.7h11c1.5,0,2.7-1.2,2.7-2.7v-4
			C176.9,126.5,175.6,125.3,174.1,125.3z M176.2,132c0,1.1-0.9,2-2,2h-11c-1.1,0-2-0.9-2-2v-4c0-1.1,0.9-2,2-2h11c1.1,0,2,0.9,2,2
			V132z"/>
		<path class="st0" d="M158.4,129.1h-8.1c-0.5,0-1,0.4-1,1s0.4,1,1,1h8.1c0.5,0,1-0.4,1-1S158.9,129.1,158.4,129.1z M158.4,130.3
			h-8.1c-0.2,0-0.3-0.1-0.3-0.3s0.1-0.3,0.3-0.3h8.1c0.2,0,0.3,0.1,0.3,0.3C158.6,130.2,158.5,130.3,158.4,130.3z"/>
		<path class="st0" d="M174.1,146.7h-11c-1.5,0-2.7,1.2-2.7,2.7v4c0,1.5,1.2,2.7,2.7,2.7h11c1.5,0,2.7-1.2,2.7-2.7v-4
			C176.9,147.9,175.6,146.7,174.1,146.7z M176.2,153.4c0,1.1-0.9,2-2,2h-11c-1.1,0-2-0.9-2-2v-4c0-1.1,0.9-2,2-2h11c1.1,0,2,0.9,2,2
			V153.4z"/>
		<path class="st0" d="M158.4,150.5h-8.1c-0.5,0-1,0.4-1,1c0,0.5,0.4,1,1,1h8.1c0.5,0,1-0.4,1-1
			C159.4,150.9,158.9,150.5,158.4,150.5z M158.4,151.7h-8.1c-0.2,0-0.3-0.1-0.3-0.3c0-0.2,0.1-0.3,0.3-0.3h8.1
			c0.2,0,0.3,0.1,0.3,0.3C158.6,151.6,158.5,151.7,158.4,151.7z"/>
		<path class="st0" d="M174.1,168.1h-11c-1.5,0-2.7,1.2-2.7,2.7v4c0,1.5,1.2,2.7,2.7,2.7h11c1.5,0,2.7-1.2,2.7-2.7v-4
			C176.9,169.3,175.6,168.1,174.1,168.1z M176.2,174.8c0,1.1-0.9,2-2,2h-11c-1.1,0-2-0.9-2-2v-4c0-1.1,0.9-2,2-2h11c1.1,0,2,0.9,2,2
			V174.8z"/>
		<path class="st0" d="M158.4,171.9h-8.1c-0.5,0-1,0.4-1,1c0,0.5,0.4,1,1,1h8.1c0.5,0,1-0.4,1-1
			C159.4,172.3,158.9,171.9,158.4,171.9z M158.4,173.1h-8.1c-0.2,0-0.3-0.1-0.3-0.3c0-0.2,0.1-0.3,0.3-0.3h8.1
			c0.2,0,0.3,0.1,0.3,0.3C158.6,173,158.5,173.1,158.4,173.1z"/>
		<path class="st0" d="M174.1,189.5h-11c-1.5,0-2.7,1.2-2.7,2.7v4c0,1.5,1.2,2.7,2.7,2.7h11c1.5,0,2.7-1.2,2.7-2.7v-4
			C176.9,190.7,175.6,189.5,174.1,189.5z M176.2,196.2c0,1.1-0.9,2-2,2h-11c-1.1,0-2-0.9-2-2v-4c0-1.1,0.9-2,2-2h11c1.1,0,2,0.9,2,2
			V196.2z"/>
		<path class="st0" d="M158.4,193.3h-8.1c-0.5,0-1,0.4-1,1s0.4,1,1,1h8.1c0.5,0,1-0.4,1-1S158.9,193.3,158.4,193.3z M158.4,194.5
			h-8.1c-0.2,0-0.3-0.1-0.3-0.3s0.1-0.3,0.3-0.3h8.1c0.2,0,0.3,0.1,0.3,0.3S158.5,194.5,158.4,194.5z"/>
		<path class="st0" d="M174.1,210.9h-11c-1.5,0-2.7,1.2-2.7,2.7v4c0,1.5,1.2,2.7,2.7,2.7h11c1.5,0,2.7-1.2,2.7-2.7v-4
			C176.9,212.1,175.6,210.9,174.1,210.9z M176.2,217.6c0,1.1-0.9,2-2,2h-11c-1.1,0-2-0.9-2-2v-4c0-1.1,0.9-2,2-2h11c1.1,0,2,0.9,2,2
			V217.6z"/>
		<path class="st0" d="M158.4,214.7h-8.1c-0.5,0-1,0.4-1,1c0,0.5,0.4,1,1,1h8.1c0.5,0,1-0.4,1-1
			C159.4,215.1,158.9,214.7,158.4,214.7z M158.4,215.9h-8.1c-0.2,0-0.3-0.1-0.3-0.3c0-0.2,0.1-0.3,0.3-0.3h8.1
			c0.2,0,0.3,0.1,0.3,0.3C158.6,215.8,158.5,215.9,158.4,215.9z"/>
		<path class="st0" d="M174.1,232.3h-11c-1.5,0-2.7,1.2-2.7,2.7v4c0,1.5,1.2,2.7,2.7,2.7h11c1.5,0,2.7-1.2,2.7-2.7v-4
			C176.9,233.5,175.6,232.3,174.1,232.3z M176.2,239c0,1.1-0.9,2-2,2h-11c-1.1,0-2-0.9-2-2v-4c0-1.1,0.9-2,2-2h11c1.1,0,2,0.9,2,2
			V239z"/>
		<path class="st0" d="M158.4,236.1h-8.1c-0.5,0-1,0.4-1,1c0,0.5,0.4,1,1,1h8.1c0.5,0,1-0.4,1-1
			C159.4,236.5,158.9,236.1,158.4,236.1z M158.4,237.3h-8.1c-0.2,0-0.3-0.1-0.3-0.3s0.1-0.3,0.3-0.3h8.1c0.2,0,0.3,0.1,0.3,0.3
			C158.6,237.2,158.5,237.3,158.4,237.3z"/>
		<path class="st0" d="M36.9,50.5h-11c-1.5,0-2.7,1.2-2.7,2.7v4c0,1.5,1.2,2.7,2.7,2.7h11c1.5,0,2.7-1.2,2.7-2.7v-4
			C39.6,51.8,38.4,50.5,36.9,50.5z M38.9,57.3c0,1.1-0.9,2-2,2h-11c-1.1,0-2-0.9-2-2v-4c0-1.1,0.9-2,2-2h11c1.1,0,2,0.9,2,2V57.3z"
			/>
		<path class="st0" d="M49.7,54.3h-8.1c-0.5,0-1,0.4-1,1c0,0.5,0.4,1,1,1h8.1c0.5,0,1-0.4,1-1C50.7,54.8,50.3,54.3,49.7,54.3z
			 M49.7,55.6h-8.1c-0.2,0-0.3-0.1-0.3-0.3c0-0.2,0.1-0.3,0.3-0.3h8.1c0.2,0,0.3,0.1,0.3,0.3C50,55.5,49.9,55.6,49.7,55.6z"/>
		<path class="st0" d="M36.9,71.9h-11c-1.5,0-2.7,1.2-2.7,2.7v4c0,1.5,1.2,2.7,2.7,2.7h11c1.5,0,2.7-1.2,2.7-2.7v-4
			C39.6,73.2,38.4,71.9,36.9,71.9z M38.9,78.7c0,1.1-0.9,2-2,2h-11c-1.1,0-2-0.9-2-2v-4c0-1.1,0.9-2,2-2h11c1.1,0,2,0.9,2,2V78.7z"
			/>
		<path class="st0" d="M49.7,75.7h-8.1c-0.5,0-1,0.4-1,1c0,0.5,0.4,1,1,1h8.1c0.5,0,1-0.4,1-1C50.7,76.2,50.3,75.7,49.7,75.7z
			 M49.7,77h-8.1c-0.2,0-0.3-0.1-0.3-0.3c0-0.2,0.1-0.3,0.3-0.3h8.1c0.2,0,0.3,0.1,0.3,0.3C50,76.9,49.9,77,49.7,77z"/>
		<path class="st0" d="M36.9,93.3h-11c-1.5,0-2.7,1.2-2.7,2.7v4c0,1.5,1.2,2.7,2.7,2.7h11c1.5,0,2.7-1.2,2.7-2.7v-4
			C39.6,94.6,38.4,93.3,36.9,93.3z M38.9,100.1c0,1.1-0.9,2-2,2h-11c-1.1,0-2-0.9-2-2v-4c0-1.1,0.9-2,2-2h11c1.1,0,2,0.9,2,2V100.1z
			"/>
		<path class="st0" d="M49.7,97.1h-8.1c-0.5,0-1,0.4-1,1c0,0.5,0.4,1,1,1h8.1c0.5,0,1-0.4,1-1C50.7,97.6,50.3,97.1,49.7,97.1z
			 M49.7,98.4h-8.1c-0.2,0-0.3-0.1-0.3-0.3c0-0.2,0.1-0.3,0.3-0.3h8.1c0.2,0,0.3,0.1,0.3,0.3C50,98.3,49.9,98.4,49.7,98.4z"/>
		<path class="st0" d="M36.9,114.7h-11c-1.5,0-2.7,1.2-2.7,2.7v4c0,1.5,1.2,2.7,2.7,2.7h11c1.5,0,2.7-1.2,2.7-2.7v-4
			C39.6,116,38.4,114.7,36.9,114.7z M38.9,121.5c0,1.1-0.9,2-2,2h-11c-1.1,0-2-0.9-2-2v-4c0-1.1,0.9-2,2-2h11c1.1,0,2,0.9,2,2V121.5
			z"/>
		<path class="st0" d="M49.7,118.5h-8.1c-0.5,0-1,0.4-1,1c0,0.5,0.4,1,1,1h8.1c0.5,0,1-0.4,1-1C50.7,119,50.3,118.5,49.7,118.5z
			 M49.7,119.8h-8.1c-0.2,0-0.3-0.1-0.3-0.3c0-0.2,0.1-0.3,0.3-0.3h8.1c0.2,0,0.3,0.1,0.3,0.3C50,119.7,49.9,119.8,49.7,119.8z"/>
		<path class="st0" d="M36.9,136.1h-11c-1.5,0-2.7,1.2-2.7,2.7v4c0,1.5,1.2,2.7,2.7,2.7h11c1.5,0,2.7-1.2,2.7-2.7v-4
			C39.6,137.4,38.4,136.1,36.9,136.1z M38.9,142.9c0,1.1-0.9,2-2,2h-11c-1.1,0-2-0.9-2-2v-4c0-1.1,0.9-2,2-2h11c1.1,0,2,0.9,2,2
			V142.9z"/>
		<path class="st0" d="M49.7,139.9h-8.1c-0.5,0-1,0.4-1,1c0,0.5,0.4,1,1,1h8.1c0.5,0,1-0.4,1-1C50.7,140.4,50.3,139.9,49.7,139.9z
			 M49.7,141.2h-8.1c-0.2,0-0.3-0.1-0.3-0.3c0-0.2,0.1-0.3,0.3-0.3h8.1c0.2,0,0.3,0.1,0.3,0.3C50,141.1,49.9,141.2,49.7,141.2z"/>
		<path class="st0" d="M36.9,157.5h-11c-1.5,0-2.7,1.2-2.7,2.7v4c0,1.5,1.2,2.7,2.7,2.7h11c1.5,0,2.7-1.2,2.7-2.7v-4
			C39.6,158.8,38.4,157.5,36.9,157.5z M38.9,164.3c0,1.1-0.9,2-2,2h-11c-1.1,0-2-0.9-2-2v-4c0-1.1,0.9-2,2-2h11c1.1,0,2,0.9,2,2
			V164.3z"/>
		<path class="st0" d="M49.7,161.3h-8.1c-0.5,0-1,0.4-1,1c0,0.5,0.4,1,1,1h8.1c0.5,0,1-0.4,1-1C50.7,161.8,50.3,161.3,49.7,161.3z
			 M49.7,162.6h-8.1c-0.2,0-0.3-0.1-0.3-0.3c0-0.2,0.1-0.3,0.3-0.3h8.1c0.2,0,0.3,0.1,0.3,0.3C50,162.5,49.9,162.6,49.7,162.6z"/>
		<path class="st0" d="M36.9,178.9h-11c-1.5,0-2.7,1.2-2.7,2.7v4c0,1.5,1.2,2.7,2.7,2.7h11c1.5,0,2.7-1.2,2.7-2.7v-4
			C39.6,180.2,38.4,178.9,36.9,178.9z M38.9,185.7c0,1.1-0.9,2-2,2h-11c-1.1,0-2-0.9-2-2v-4c0-1.1,0.9-2,2-2h11c1.1,0,2,0.9,2,2
			V185.7z"/>
		<path class="st0" d="M49.7,182.7h-8.1c-0.5,0-1,0.4-1,1c0,0.5,0.4,1,1,1h8.1c0.5,0,1-0.4,1-1C50.7,183.2,50.3,182.7,49.7,182.7z
			 M49.7,184h-8.1c-0.2,0-0.3-0.1-0.3-0.3c0-0.2,0.1-0.3,0.3-0.3h8.1c0.2,0,0.3,0.1,0.3,0.3C50,183.9,49.9,184,49.7,184z"/>
		<path class="st0" d="M36.9,200.3h-11c-1.5,0-2.7,1.2-2.7,2.7v4c0,1.5,1.2,2.7,2.7,2.7h11c1.5,0,2.7-1.2,2.7-2.7v-4
			C39.6,201.6,38.4,200.3,36.9,200.3z M38.9,207.1c0,1.1-0.9,2-2,2h-11c-1.1,0-2-0.9-2-2v-4c0-1.1,0.9-2,2-2h11c1.1,0,2,0.9,2,2
			V207.1z"/>
		<path class="st0" d="M49.7,204.1h-8.1c-0.5,0-1,0.4-1,1s0.4,1,1,1h8.1c0.5,0,1-0.4,1-1S50.3,204.1,49.7,204.1z M49.7,205.4h-8.1
			c-0.2,0-0.3-0.1-0.3-0.3c0-0.2,0.1-0.3,0.3-0.3h8.1c0.2,0,0.3,0.1,0.3,0.3C50,205.3,49.9,205.4,49.7,205.4z"/>
		<path class="st0" d="M36.9,221.7h-11c-1.5,0-2.7,1.2-2.7,2.7v4c0,1.5,1.2,2.7,2.7,2.7h11c1.5,0,2.7-1.2,2.7-2.7v-4
			C39.6,223,38.4,221.7,36.9,221.7z M38.9,228.5c0,1.1-0.9,2-2,2h-11c-1.1,0-2-0.9-2-2v-4c0-1.1,0.9-2,2-2h11c1.1,0,2,0.9,2,2V228.5
			z"/>
		<path class="st0" d="M49.7,225.5h-8.1c-0.5,0-1,0.4-1,1c0,0.5,0.4,1,1,1h8.1c0.5,0,1-0.4,1-1C50.7,226,50.3,225.5,49.7,225.5z
			 M49.7,226.8h-8.1c-0.2,0-0.3-0.1-0.3-0.3c0-0.2,0.1-0.3,0.3-0.3h8.1c0.2,0,0.3,0.1,0.3,0.3C50,226.7,49.9,226.8,49.7,226.8z"/>
		<path class="st0" d="M36.9,243.1h-11c-1.5,0-2.7,1.2-2.7,2.7v4c0,1.5,1.2,2.7,2.7,2.7h11c1.5,0,2.7-1.2,2.7-2.7v-4
			C39.6,244.4,38.4,243.1,36.9,243.1z M38.9,249.9c0,1.1-0.9,2-2,2h-11c-1.1,0-2-0.9-2-2v-4c0-1.1,0.9-2,2-2h11c1.1,0,2,0.9,2,2
			V249.9z"/>
		<path class="st0" d="M49.7,246.9h-8.1c-0.5,0-1,0.4-1,1c0,0.5,0.4,1,1,1h8.1c0.5,0,1-0.4,1-1C50.7,247.4,50.3,246.9,49.7,246.9z
			 M49.7,248.2h-8.1c-0.2,0-0.3-0.1-0.3-0.3c0-0.2,0.1-0.3,0.3-0.3h8.1c0.2,0,0.3,0.1,0.3,0.3C50,248.1,49.9,248.2,49.7,248.2z"/>
		<path class="st0" d="M181.7,128.2c-1,0-1.8,0.8-1.8,1.8c0,1,0.8,1.8,1.8,1.8c1,0,1.8-0.8,1.8-1.8
			C183.5,129.1,182.7,128.2,181.7,128.2z M181.7,131.2c-0.6,0-1.1-0.5-1.1-1.1c0-0.6,0.5-1.1,1.1-1.1c0.6,0,1.1,0.5,1.1,1.1
			C182.8,130.7,182.3,131.2,181.7,131.2z"/>
		<path class="st0" d="M18.3,139.3c-1,0-1.8,0.8-1.8,1.8c0,1,0.8,1.8,1.8,1.8s1.8-0.8,1.8-1.8C20.1,140.2,19.3,139.3,18.3,139.3z
			 M18.3,142.3c-0.6,0-1.1-0.5-1.1-1.1c0-0.6,0.5-1.1,1.1-1.1c0.6,0,1.1,0.5,1.1,1.1C19.4,141.8,18.9,142.3,18.3,142.3z"/>
		<path class="st0" d="M98.1,289.6l4.1-1.7c0.1,0,0.1-0.1,0.1-0.1c0.1-0.1,0-0.3-0.1-0.4l-4.1-1.7c0,0-0.1,0-0.1,0
			c-0.2,0-0.3,0.1-0.3,0.3v3.3c0,0,0,0.1,0,0.1C97.7,289.6,97.9,289.6,98.1,289.6z"/>
	</g>
</g>
<g id="Ebene_2">
	<g>
		<circle id="bgnumber_11_" class="st1" cx="136.2" cy="65.5" r="7.1"/>
		<text transform="matrix(1 0 0 1 130.8691 69.0126)" class="st2 st3 st4 button" data-number="31">32</text>
	</g>
	<g>
		<circle id="bgnumber_10_" class="st1" cx="136.2" cy="44" r="7.1"/>
		<text transform="matrix(1 0 0 1 131.5239 47.5231)" class="st2 st3 st4 button" data-number="30">31</text>
	</g>
	<g>
		<circle id="bgnumber_9_" class="st1" cx="63.5" cy="248.4" r="7.1"/>
		<text transform="matrix(1 0 0 1 58.5555 251.9469)" class="st2 st3 st4 button" data-number="9">10</text>
	</g>
	<g>
		<circle id="bgnumber_8_" class="st1" cx="63.5" cy="226.9" r="7.1"/>
		<text transform="matrix(1 0 0 1 57.6706 230.4446)" class="st2 st3 st4 button" data-number="8">09</text>
	</g>
	<g>
		<circle id="bgnumber_7_" class="st1" cx="63.5" cy="205.4" r="7.1"/>
		<text transform="matrix(1 0 0 1 57.6306 208.9425)" class="st2 st3 st4 button" data-number="7">08</text>
	</g>
	<g>
		<circle id="bgnumber_6_" class="st1" cx="63.5" cy="183.9" r="7.1"/>
		<text transform="matrix(1 0 0 1 58.1301 187.4403)" class="st2 st3 st4 button" data-number="6">07</text>
	</g>
	<g>
		<circle id="bgnumber_5_" class="st1" cx="63.5" cy="162.4" r="7.1"/>
		<text transform="matrix(1 0 0 1 57.6707 165.8593)" class="st2 st3 st4 button" data-number="5">06</text>
	</g>
	<g>
		<circle id="bgnumber_4_" class="st1" cx="63.5" cy="140.9" r="7.1"/>
		<text transform="matrix(1 0 0 1 57.8506 144.3571)" class="st2 st3 st4 button" data-number="4">05</text>
	</g>
	<g>
		<circle id="bgnumber_3_" class="st1" cx="63.5" cy="119.4" r="7.1"/>
		<text transform="matrix(1 0 0 1 57.6207 122.8549)" class="st2 st3 st4 button" data-number="3">04</text>
	</g>
	<g>
		<circle id="bgnumber_2_" class="st1" cx="63.5" cy="97.9" r="7.1"/>
		<text transform="matrix(1 0 0 1 57.7556 101.3527)" class="st2 st3 st4 button" data-number="2">03</text>
	</g>
	<g>
		<circle id="bgnumber_1_" class="st1" cx="63.5" cy="76.4" r="7.1"/>
		<text transform="matrix(1 0 0 1 57.9008 79.8506)" class="st2 st3 st4 button" data-number="1">02</text>
	</g>
	<g>
		<circle id="bgnumber" class="st1" cx="63.5" cy="54.9" r="7.1"/>
		<text transform="matrix(1 0 0 1 58.5555 58.348)" class="st2 st3 st4 button" data-number="0">01</text>
	</g>
	<g>
		<circle id="bgnumber_33_" class="st1" cx="81.8" cy="248.4" r="7.1"/>
		<text transform="matrix(1 0 0 1 76.0884 251.9469)" class="st2 st3 st4 button" data-number="29">30</text>
	</g>
	<g>
		<circle id="bgnumber_26_" class="st1" cx="81.8" cy="226.9" r="7.1"/>
		<text transform="matrix(1 0 0 1 76.3842 230.4446)" class="st2 st3 st4 button" data-number="28">29</text>
	</g>
	<g>
		<circle id="bgnumber_25_" class="st1" cx="81.8" cy="205.4" r="7.1"/>
		<text transform="matrix(1 0 0 1 75.9638 208.9425)" class="st2 st3 st4 button" data-number="7">08</text>
	</g>
	<g>
		<circle id="bgnumber_24_" class="st1" cx="81.8" cy="183.9" r="7.1"/>
		<text transform="matrix(1 0 0 1 76.8437 187.4403)" class="st2 st3 st4 button" data-number="26">27</text>
	</g>
	<g>
		<circle id="bgnumber_23_" class="st1" cx="81.8" cy="162.4" r="7.1"/>
		<text transform="matrix(1 0 0 1 76.3843 165.8593)" class="st2 st3 st4 button" data-number="25">26</text>
	</g>
	<g>
		<circle id="bgnumber_22_" class="st1" cx="81.8" cy="140.9" r="7.1"/>
		<text transform="matrix(1 0 0 1 76.5638 144.3571)" class="st2 st3 st4 button" data-number="24">25</text>
	</g>
	<g>
		<circle id="bgnumber_21_" class="st1" cx="81.8" cy="119.4" r="7.1"/>
		<text transform="matrix(1 0 0 1 76.3338 122.8549)" class="st2 st3 st4 button" data-number="23">24</text>
	</g>
	<g>
		<circle id="bgnumber_20_" class="st1" cx="81.8" cy="97.9" r="7.1"/>
		<text transform="matrix(1 0 0 1 76.4692 101.3527)" class="st2 st3 st4 button" data-number="22">23</text>
	</g>
	<g>
		<circle id="bgnumber_19_" class="st1" cx="81.8" cy="76.4" r="7.1"/>
		<text transform="matrix(1 0 0 1 76.6144 79.8506)" class="st2 st3 st4 button" data-number="21">22</text>
	</g>
	<g>
		<circle id="bgnumber_18_" class="st1" cx="81.8" cy="54.9" r="7.1"/>
		<text transform="matrix(1 0 0 1 77.2686 58.348)" class="st2 st3 st4 button" data-number="20">21</text>
	</g>
	<g>
		<circle id="bgnumber_31_" class="st1" cx="136.2" cy="237.4" r="7.1"/>
		<text transform="matrix(1 0 0 1 130.3546 240.8487)" class="st2 st3 st4 button" data-number="39">40</text>
	</g>
	<g>
		<circle id="bgnumber_32_" class="st1" cx="136.2" cy="215.9" r="7.1"/>
		<text transform="matrix(1 0 0 1 130.6391 219.3593)" class="st2 st3 st4 button" data-number="38">39</text>
	</g>
	<g>
		<circle id="bgnumber_17_" class="st1" cx="136.2" cy="194.4" r="7.1"/>
		<text transform="matrix(1 0 0 1 130.5992 197.8741)" class="st2 st3 st4 button" data-number="37">38</text>
	</g>
	<g>
		<circle id="bgnumber_16_" class="st1" cx="136.2" cy="172.9" r="7.1"/>
		<text transform="matrix(1 0 0 1 131.0992 176.3847)" class="st2 st3 st4 button" data-number="36">37</text>
	</g>
	<g>
		<circle id="bgnumber_15_" class="st1" cx="136.2" cy="151.4" r="7.1"/>
		<text transform="matrix(1 0 0 1 130.6387 154.8953)" class="st2 st3 st4 button" data-number="35">36</text>
	</g>
	<g>
		<circle id="bgnumber_14_" class="st1" cx="136.2" cy="129.9" r="7.1"/>
		<text transform="matrix(1 0 0 1 130.8187 133.4057)" class="st2 st3 st4 button" data-number="34">35</text>
	</g>
	<g>
		<circle id="bgnumber_13_" class="st1" cx="136.2" cy="108.5" r="7.1"/>
		<g>
			<text transform="matrix(1 0 0 1 130.5886 111.9162)" class="st2 st3 st4 button" data-number="33">34</text>
		</g>
	</g>
	<g>
		<circle id="bgnumber_12_" class="st1" cx="136.2" cy="87" r="7.1"/>
		<text transform="matrix(1 0 0 1 130.7242 90.4268)" class="st2 st3 st4 button" data-number="32">33</text>
	</g>
	<g>
		<circle id="bgnumber_43_" class="st1" cx="117.9" cy="65.5" r="7.1"/>
		<text transform="matrix(1 0 0 1 113.3356 69.0126)" class="st2 st3 st4 button" data-number="11">12</text>
	</g>
	<g>
		<circle id="bgnumber_42_" class="st1" cx="117.9" cy="44" r="7.1"/>
		<text transform="matrix(1 0 0 1 113.9904 47.5231)" class="st2 st3 st4 button" data-number="10">11</text>
	</g>
	<g>
		<circle id="bgnumber_41_" class="st1" cx="117.9" cy="237.4" r="7.1"/>
		<text transform="matrix(1 0 0 1 112.301 240.8487)" class="st2 st3 st4 button" data-number="19">20</text>
	</g>
	<g>
		<circle id="bgnumber_40_" class="st1" cx="117.9" cy="215.9" r="7.1"/>
		<text transform="matrix(1 0 0 1 113.1061 219.3593)" class="st2 st3 st4 button" data-number="18">19</text>
	</g>
	<g>
		<circle id="bgnumber_39_" class="st1" cx="117.9" cy="194.4" r="7.1"/>
		<text transform="matrix(1 0 0 1 113.0657 197.8741)" class="st2 st3 st4 button" data-number="17">18</text>
	</g>
	<g>
		<circle id="bgnumber_38_" class="st1" cx="117.9" cy="172.9" r="7.1"/>
		<text transform="matrix(1 0 0 1 113.5657 176.3847)" class="st2 st3 st4 button" data-number="16">17</text>
	</g>
	<g>
		<circle id="bgnumber_37_" class="st1" cx="117.9" cy="151.4" r="7.1"/>
		<text transform="matrix(1 0 0 1 113.1057 154.8953)" class="st2 st3 st4 button" data-number="15">16</text>
	</g>
	<g>
		<circle id="bgnumber_36_" class="st1" cx="117.9" cy="129.9" r="7.1"/>
		<text transform="matrix(1 0 0 1 113.2856 133.4057)" class="st2 st3 st4 button" data-number="14">15</text>
	</g>
	<g>
		<circle id="bgnumber_35_" class="st1" cx="117.9" cy="108.5" r="7.1"/>
		<g>
			<text transform="matrix(1 0 0 1 113.0556 111.9162)" class="st2 st3 st4 button" data-number="13">14</text>
		</g>
	</g>
	<g>
		<circle id="bgnumber_34_" class="st1" cx="117.9" cy="87" r="7.1"/>
		<text transform="matrix(1 0 0 1 113.1907 90.4268)" class="st2 st3 st4 button" data-number="12">13</text>
	</g>
</g>
</svg>
