<?xml version="1.0" encoding="utf-8"?>
<!-- Generator: Adobe Illustrator 21.0.1, SVG Export Plug-In . SVG Version: 6.00 Build 0)  -->
<!DOCTYPE svg PUBLIC "-//W3C//DTD SVG 1.1//EN" "http://www.w3.org/Graphics/SVG/1.1/DTD/svg11.dtd">
<svg version="1.1" id="Ebene_3" xmlns="http://www.w3.org/2000/svg" xmlns:xlink="http://www.w3.org/1999/xlink" x="0px" y="0px"
	 viewBox="0 0 420 317.4" style="enable-background:new 0 0 420 317.4;" xml:space="preserve">
<style type="text/css">
	.button{cursor: pointer}
	.st0{fill:#B3B2B2;}
	.st1{fill:#FFFFFF;}
	.st2{fill:#23AEE5;}
	.st3{font-family:'BrixSansRegular';}
	.st4{font-size:10px;}
</style>
<g>
	<path class="st0" d="M358.3,86.6c0,0,0.1,0.1,0.2,0.1h2.9c0.1,0,0.1,0,0.2-0.1l0.3-0.2c0.1-0.1,0.1-0.1,0.1-0.2V71.5
		c0-0.1,0-0.1-0.1-0.2l-0.3-0.3c-0.1-0.1-0.1-0.1-0.2-0.1h-2.9c-0.1,0-0.1,0-0.2,0.1l-0.3,0.3c-0.1,0.1-0.1,0.1-0.1,0.2v14.7
		c0,0.1,0,0.2,0.1,0.2L358.3,86.6z M358.5,71.6l0.1-0.1h2.6l0.1,0.1V86l-0.1,0.1h-2.7l-0.1-0.1V71.6z"/>
	<path class="st0" d="M198.2,92.3c0-0.4,0.3-0.9,0.8-0.9c0.6,0,0.7,0.4,0.7,1v2.8h2.1V92c0-1.4-0.5-2.3-1.9-2.3
		c-0.6,0-1.5,0.3-1.7,0.8l-0.1-0.6h-1.9v5.1h2V92.3z"/>
	<path class="st0" d="M186.4,92.9h1.2c2.2,0,3-1.1,3-2.6c0-1.5-0.9-2.5-3-2.5h-3.5v7.3h2.3V92.9z M186.4,89.6h0.9
		c0.5,0,1.2,0.1,1.2,0.8c0,0.6-0.6,0.8-1.2,0.8h-0.9V89.6z"/>
	<path class="st0" d="M221.1,92.3c0-0.4,0.3-0.9,0.8-0.9c0.6,0,0.7,0.4,0.7,1v2.8h2.1V92c0-1.4-0.6-2.3-1.9-2.3
		c-0.6,0-1.5,0.3-1.7,0.8l-0.1-0.6h-1.9v5.2h2V92.3z"/>
	<path class="st0" d="M210.4,94.1c-0.2,0-0.4-0.1-0.6-0.2c-0.1-0.1-0.2-0.4-0.2-0.6h-1.9c0,1.4,1.4,2,2.5,2c1.8,0,2.7-0.6,2.7-1.9
		c0-1.9-3.2-1.4-3.2-2.2c0-0.3,0.3-0.3,0.7-0.3c0.3,0,0.4,0.1,0.5,0.2c0.1,0.1,0.1,0.2,0.1,0.4h1.7c0.1-1.6-1.5-1.8-2.7-1.8
		c-1.2,0-2.3,0.3-2.3,1.8c0,2.1,3.1,1.3,3.1,2.2C211,94,210.7,94.1,210.4,94.1z"/>
	<path class="st0" d="M230,95.2c2,0,2.7-1.3,2.7-2.3h-1.8c0,0.4-0.3,0.9-0.8,0.9c-0.6,0-0.9-0.6-0.9-1.3c0-0.6,0.2-1.4,1-1.4
		c0.3,0,0.5,0.2,0.6,0.3c0.2,0.2,0.2,0.4,0.2,0.5h1.8c0-1.2-1-2.2-2.7-2.2c-1.3,0-2.8,0.8-2.8,2.8C227.2,94.1,228.4,95.2,230,95.2z"
		/>
	<path class="st0" d="M193.2,91c0.2,0,0.6,0,0.6,0.3c0,1.1-3.4,0.1-3.4,2.3c0,1.4,1.3,1.5,1.9,1.5c0.7,0,1.1-0.2,1.5-0.5l0.2,0.4
		l2,0v0c-0.2-0.2-0.2-0.4-0.2-0.7V92c0-1.1-0.2-2.3-2.4-2.3c-2.3,0-2.6,0.9-2.6,2h1.7C192.6,91.1,192.8,91,193.2,91z M192.9,94
		c-0.4,0-0.6-0.2-0.6-0.5c0-0.5,0.9-0.5,1.6-0.8C193.9,93.3,193.6,94,192.9,94z"/>
	<path class="st0" d="M202.1,93.7c0,1.4,1.3,1.5,1.9,1.5c0.6,0,1.1-0.2,1.5-0.5l0.2,0.4l1.9,0v0c-0.2-0.2-0.2-0.4-0.2-0.7V92
		c0-1.1-0.2-2.3-2.4-2.3c-2.3,0-2.6,0.9-2.6,2h1.7c0.1-0.6,0.3-0.7,0.7-0.7c0.2,0,0.6,0,0.6,0.3C205.4,92.5,202.1,91.4,202.1,93.7z
		 M205.5,92.7c0,0.6-0.3,1.3-1,1.3c-0.4,0-0.6-0.2-0.6-0.5C203.9,93,204.8,93.1,205.5,92.7z"/>
	<rect x="225" y="87.8" class="st0" width="1.9" height="1.5"/>
	<rect x="225" y="89.9" class="st0" width="1.9" height="5.2"/>
	<path class="st0" d="M216,95.3c1.7,0,2.8-1.2,2.8-2.8c0-1.6-1-2.8-2.8-2.8s-2.8,1.2-2.8,2.8C213.3,94.1,214.3,95.3,216,95.3z
		 M216,91.1c0.7,0,0.9,0.8,0.9,1.4c0,0.6-0.2,1.4-0.9,1.4c-0.7,0-0.9-0.8-0.9-1.4C215.1,91.9,215.3,91.1,216,91.1z"/>
	<path class="st0" d="M331.9,101.2c-0.1-0.1-0.1-0.1-0.2-0.1H319c-0.1,0-0.1,0-0.2,0.1l-0.5,0.5c-0.1,0.1-0.1,0.1-0.1,0.2v7
		c0,0.1,0,0.1,0.1,0.2l0.5,0.5c0.1,0.1,0.1,0.1,0.2,0.1h12.7c0.1,0,0.1,0,0.2-0.1l0.5-0.5c0.1-0.1,0.1-0.1,0.1-0.2v-7
		c0-0.1,0-0.1-0.1-0.2L331.9,101.2z M318.8,108.8V102l0.3-0.3h7.5v7.4h-7.5L318.8,108.8z M332,108.8l-0.3,0.3h-4.4v-7.4h4.4l0.3,0.3
		V108.8z"/>
	<path class="st0" d="M331.9,118c-0.1-0.1-0.1-0.1-0.2-0.1H319c-0.1,0-0.1,0-0.2,0.1l-0.5,0.5c-0.1,0.1-0.1,0.1-0.1,0.2v7
		c0,0.1,0,0.1,0.1,0.2l0.5,0.5c0.1,0.1,0.1,0.1,0.2,0.1h12.7c0.1,0,0.1,0,0.2-0.1l0.5-0.5c0.1-0.1,0.1-0.1,0.1-0.2v-7
		c0-0.1,0-0.1-0.1-0.2L331.9,118z M318.8,125.6v-6.8l0.3-0.3h7.5v7.4h-7.5L318.8,125.6z M332,125.6l-0.3,0.3h-4.4v-7.4h4.4l0.3,0.3
		V125.6z"/>
	<path class="st0" d="M332,134.8c-0.1-0.1-0.1-0.1-0.2-0.1H319c-0.1,0-0.2,0-0.2,0.1l-0.5,0.6c0,0.1-0.1,0.1-0.1,0.2v6.9
		c0,0.1,0,0.1,0.1,0.2l0.5,0.5c0.1,0.1,0.1,0.1,0.2,0.1h12.7c0.1,0,0.1,0,0.2-0.1l0.5-0.5c0.1-0.1,0.1-0.1,0.1-0.2v-6.9
		c0-0.1,0-0.1-0.1-0.2L332,134.8z M318.8,142.3v-6.7l0.3-0.4h7.5v7.4h-7.5L318.8,142.3z M332,142.3l-0.3,0.3h-4.4v-7.4h4.4l0.3,0.4
		V142.3z"/>
	<path class="st0" d="M332,151.5c-0.1-0.1-0.1-0.1-0.2-0.1H319c-0.1,0-0.2,0-0.2,0.1l-0.5,0.6c0,0.1-0.1,0.1-0.1,0.2v6.9
		c0,0.1,0,0.1,0.1,0.2l0.5,0.5c0.1,0.1,0.1,0.1,0.2,0.1h12.7c0.1,0,0.1,0,0.2-0.1l0.5-0.5c0.1-0.1,0.1-0.1,0.1-0.2v-6.9
		c0-0.1,0-0.1-0.1-0.2L332,151.5z M318.8,159.1v-6.7l0.3-0.4h7.5v7.4h-7.5L318.8,159.1z M332,159.1l-0.3,0.3h-4.4V152h4.4l0.3,0.4
		V159.1z"/>
	<path class="st0" d="M331.9,168.4c-0.1-0.1-0.1-0.1-0.2-0.1H319c-0.1,0-0.1,0-0.2,0.1l-0.5,0.5c-0.1,0.1-0.1,0.1-0.1,0.2v6.9
		c0,0.1,0,0.1,0.1,0.2l0.5,0.5c0.1,0.1,0.1,0.1,0.2,0.1h12.7c0.1,0,0.1,0,0.2-0.1l0.5-0.5c0.1-0.1,0.1-0.1,0.1-0.2V169
		c0-0.1,0-0.1-0.1-0.2L331.9,168.4z M318.8,175.8v-6.7l0.3-0.3h7.5v7.3h-7.5L318.8,175.8z M332,175.8l-0.3,0.3h-4.4v-7.3h4.4
		l0.3,0.3V175.8z"/>
	<path class="st0" d="M331.9,185.1c-0.1-0.1-0.1-0.1-0.2-0.1H319c-0.1,0-0.1,0-0.2,0.1l-0.5,0.5c-0.1,0.1-0.1,0.1-0.1,0.2v6.9
		c0,0.1,0,0.1,0.1,0.2l0.5,0.5c0.1,0.1,0.1,0.1,0.2,0.1h12.7c0.1,0,0.1,0,0.2-0.1l0.5-0.5c0.1-0.1,0.1-0.1,0.1-0.2v-6.9
		c0-0.1,0-0.1-0.1-0.2L331.9,185.1z M318.8,192.6v-6.7l0.3-0.3h7.5v7.3h-7.5L318.8,192.6z M332,192.6l-0.3,0.3h-4.4v-7.3h4.4
		l0.3,0.3V192.6z"/>
	<path class="st0" d="M331.9,201.9c-0.1-0.1-0.1-0.1-0.2-0.1H319c-0.1,0-0.1,0-0.2,0.1l-0.5,0.5c-0.1,0.1-0.1,0.1-0.1,0.2v6.9
		c0,0.1,0,0.1,0.1,0.2l0.5,0.6c0.1,0.1,0.1,0.1,0.2,0.1h12.7c0.1,0,0.2,0,0.2-0.1l0.5-0.6c0-0.1,0.1-0.1,0.1-0.2v-6.9
		c0-0.1,0-0.1-0.1-0.2L331.9,201.9z M318.8,209.4v-6.7l0.3-0.3h7.5v7.4h-7.5L318.8,209.4z M332,209.4l-0.3,0.4h-4.4v-7.4h4.4
		l0.3,0.3V209.4z"/>
	<path class="st0" d="M331.9,218.7c-0.1-0.1-0.1-0.1-0.2-0.1H319c-0.1,0-0.1,0-0.2,0.1l-0.5,0.5c-0.1,0.1-0.1,0.1-0.1,0.2v6.9
		c0,0.1,0,0.1,0.1,0.2l0.5,0.6c0.1,0.1,0.1,0.1,0.2,0.1h12.7c0.1,0,0.2,0,0.2-0.1l0.5-0.6c0-0.1,0.1-0.1,0.1-0.2v-6.9
		c0-0.1,0-0.1-0.1-0.2L331.9,218.7z M318.8,226.2v-6.7l0.3-0.3h7.5v7.4h-7.5L318.8,226.2z M332,226.2l-0.3,0.4h-4.4v-7.4h4.4
		l0.3,0.3V226.2z"/>
	<path class="st0" d="M331.9,235.4c-0.1-0.1-0.1-0.1-0.2-0.1H319c-0.1,0-0.1,0-0.2,0.1l-0.5,0.5c-0.1,0.1-0.1,0.1-0.1,0.2v7
		c0,0.1,0,0.1,0.1,0.2l0.5,0.5c0.1,0.1,0.1,0.1,0.2,0.1h12.7c0.1,0,0.1,0,0.2-0.1l0.5-0.5c0.1-0.1,0.1-0.1,0.1-0.2v-7
		c0-0.1,0-0.1-0.1-0.2L331.9,235.4z M318.8,243v-6.8l0.3-0.3h7.5v7.4h-7.5L318.8,243z M332,243l-0.3,0.3h-4.4v-7.4h4.4l0.3,0.3V243z
		"/>
	<path class="st0" d="M331.9,252.2c-0.1-0.1-0.1-0.1-0.2-0.1H319c-0.1,0-0.1,0-0.2,0.1l-0.5,0.5c-0.1,0.1-0.1,0.1-0.1,0.2v7
		c0,0.1,0,0.1,0.1,0.2l0.5,0.5c0.1,0.1,0.1,0.1,0.2,0.1h12.7c0.1,0,0.1,0,0.2-0.1l0.5-0.5c0.1-0.1,0.1-0.1,0.1-0.2v-7
		c0-0.1,0-0.1-0.1-0.2L331.9,252.2z M318.8,259.7V253l0.3-0.3h7.5v7.4h-7.5L318.8,259.7z M332,259.7l-0.3,0.3h-4.4v-7.4h4.4l0.3,0.3
		V259.7z"/>
	<path class="st0" d="M331.9,269c-0.1-0.1-0.1-0.1-0.2-0.1H319c-0.1,0-0.1,0-0.2,0.1l-0.5,0.5c-0.1,0.1-0.1,0.1-0.1,0.2v7
		c0,0.1,0,0.1,0.1,0.2l0.5,0.5c0.1,0.1,0.1,0.1,0.2,0.1h12.7c0.1,0,0.1,0,0.2-0.1l0.5-0.5c0.1-0.1,0.1-0.1,0.1-0.2v-7
		c0-0.1,0-0.1-0.1-0.2L331.9,269z M318.8,276.5v-6.8l0.3-0.3h7.5v7.4h-7.5L318.8,276.5z M332,276.5l-0.3,0.3h-4.4v-7.4h4.4l0.3,0.3
		V276.5z"/>
	<path class="st0" d="M332,285.7c-0.1-0.1-0.1-0.1-0.2-0.1H319c-0.1,0-0.2,0-0.2,0.1l-0.5,0.6c0,0.1-0.1,0.1-0.1,0.2v6.9
		c0,0.1,0,0.1,0.1,0.2l0.5,0.5c0.1,0.1,0.1,0.1,0.2,0.1h12.7c0.1,0,0.1,0,0.2-0.1l0.5-0.5c0.1-0.1,0.1-0.1,0.1-0.2v-6.9
		c0-0.1,0-0.1-0.1-0.2L332,285.7z M318.8,293.3v-6.7l0.3-0.4h7.5v7.4h-7.5L318.8,293.3z M332,293.3l-0.3,0.3h-4.4v-7.4h4.4l0.3,0.4
		V293.3z"/>
	<path class="st0" d="M386.3,101.6c0.1,0.1,0.1,0.1,0.2,0.1h12.7c0.1,0,0.1,0,0.2-0.1l0.5-0.5c0.1-0.1,0.1-0.1,0.1-0.2v-7
		c0-0.1,0-0.1-0.1-0.2l-0.5-0.5c-0.1-0.1-0.1-0.1-0.2-0.1h-12.7c-0.1,0-0.1,0-0.2,0.1l-0.5,0.5c-0.1,0.1-0.1,0.1-0.1,0.2v7
		c0,0.1,0,0.1,0.1,0.2L386.3,101.6z M399.4,94.1v6.8l-0.3,0.3h-7.5v-7.4h7.5L399.4,94.1z M386.2,94.1l0.3-0.3h4.4v7.4h-4.4l-0.3-0.3
		V94.1z"/>
	<path class="st0" d="M386.3,118.4c0.1,0.1,0.1,0.1,0.2,0.1h12.7c0.1,0,0.1,0,0.2-0.1l0.5-0.5c0.1-0.1,0.1-0.1,0.1-0.2v-6.9
		c0-0.1,0-0.1-0.1-0.2l-0.5-0.6c-0.1-0.1-0.1-0.1-0.2-0.1h-12.7c-0.1,0-0.2,0-0.2,0.1l-0.5,0.6c0,0.1-0.1,0.1-0.1,0.2v6.9
		c0,0.1,0,0.1,0.1,0.2L386.3,118.4z M399.4,110.9v6.7l-0.3,0.3h-7.5v-7.4h7.5L399.4,110.9z M386.2,110.9l0.3-0.4h4.4v7.4h-4.4
		l-0.3-0.3V110.9z"/>
	<path class="st0" d="M386.3,135.2c0.1,0.1,0.1,0.1,0.2,0.1h12.7c0.1,0,0.1,0,0.2-0.1l0.5-0.5c0.1-0.1,0.1-0.1,0.1-0.2v-6.9
		c0-0.1,0-0.1-0.1-0.2l-0.5-0.5c-0.1-0.1-0.1-0.1-0.2-0.1h-12.7c-0.1,0-0.1,0-0.2,0.1l-0.5,0.5c-0.1,0.1-0.1,0.1-0.1,0.2v6.9
		c0,0.1,0,0.1,0.1,0.2L386.3,135.2z M399.4,127.7v6.7l-0.3,0.3h-7.5v-7.3h7.5L399.4,127.7z M386.2,127.7l0.3-0.3h4.4v7.3h-4.4
		l-0.3-0.3V127.7z"/>
	<path class="st0" d="M386.3,151.9c0.1,0.1,0.1,0.1,0.2,0.1h12.7c0.1,0,0.1,0,0.2-0.1l0.5-0.5c0.1-0.1,0.1-0.1,0.1-0.2v-6.9
		c0-0.1,0-0.1-0.1-0.2l-0.5-0.5c-0.1-0.1-0.1-0.1-0.2-0.1h-12.7c-0.1,0-0.1,0-0.2,0.1l-0.5,0.5c-0.1,0.1-0.1,0.1-0.1,0.2v6.9
		c0,0.1,0,0.1,0.1,0.2L386.3,151.9z M399.4,144.4v6.7l-0.3,0.3h-7.5v-7.3h7.5L399.4,144.4z M386.2,144.4l0.3-0.3h4.4v7.3h-4.4
		l-0.3-0.3V144.4z"/>
	<path class="st0" d="M386.2,168.7c0.1,0.1,0.1,0.1,0.2,0.1h12.7c0.1,0,0.2,0,0.2-0.1l0.5-0.6c0-0.1,0.1-0.1,0.1-0.2v-6.9
		c0-0.1,0-0.1-0.1-0.2l-0.5-0.5c-0.1-0.1-0.1-0.1-0.2-0.1h-12.7c-0.1,0-0.1,0-0.2,0.1l-0.5,0.5c-0.1,0.1-0.1,0.1-0.1,0.2v6.9
		c0,0.1,0,0.1,0.1,0.2L386.2,168.7z M399.4,161.2v6.7l-0.3,0.4h-7.5v-7.4h7.5L399.4,161.2z M386.2,161.2l0.3-0.3h4.4v7.4h-4.4
		l-0.3-0.4V161.2z"/>
	<path class="st0" d="M386.2,185.5c0.1,0.1,0.1,0.1,0.2,0.1h12.7c0.1,0,0.2,0,0.2-0.1l0.5-0.6c0-0.1,0.1-0.1,0.1-0.2v-6.9
		c0-0.1,0-0.1-0.1-0.2l-0.5-0.5c-0.1-0.1-0.1-0.1-0.2-0.1h-12.7c-0.1,0-0.1,0-0.2,0.1l-0.5,0.5c-0.1,0.1-0.1,0.1-0.1,0.2v6.9
		c0,0.1,0,0.1,0.1,0.2L386.2,185.5z M399.4,178v6.7L399,185h-7.5v-7.4h7.5L399.4,178z M386.2,178l0.3-0.3h4.4v7.4h-4.4l-0.3-0.4V178
		z"/>
	<path class="st0" d="M386.3,202.3c0.1,0.1,0.1,0.1,0.2,0.1h12.7c0.1,0,0.1,0,0.2-0.1l0.5-0.5c0.1-0.1,0.1-0.1,0.1-0.2v-7
		c0-0.1,0-0.1-0.1-0.2l-0.5-0.5c-0.1-0.1-0.1-0.1-0.2-0.1h-12.7c-0.1,0-0.1,0-0.2,0.1l-0.5,0.5c-0.1,0.1-0.1,0.1-0.1,0.2v7
		c0,0.1,0,0.1,0.1,0.2L386.3,202.3z M399.4,194.7v6.8l-0.3,0.3h-7.5v-7.4h7.5L399.4,194.7z M386.2,194.7l0.3-0.3h4.4v7.4h-4.4
		l-0.3-0.3V194.7z"/>
	<path class="st0" d="M386.3,219.1c0.1,0.1,0.1,0.1,0.2,0.1h12.7c0.1,0,0.1,0,0.2-0.1l0.5-0.5c0.1-0.1,0.1-0.1,0.1-0.2v-7
		c0-0.1,0-0.1-0.1-0.2l-0.5-0.5c-0.1-0.1-0.1-0.1-0.2-0.1h-12.7c-0.1,0-0.1,0-0.2,0.1l-0.5,0.5c-0.1,0.1-0.1,0.1-0.1,0.2v7
		c0,0.1,0,0.1,0.1,0.2L386.3,219.1z M399.4,211.5v6.8l-0.3,0.3h-7.5v-7.4h7.5L399.4,211.5z M386.2,211.5l0.3-0.3h4.4v7.4h-4.4
		l-0.3-0.3V211.5z"/>
	<path class="st0" d="M386.3,235.8c0.1,0.1,0.1,0.1,0.2,0.1h12.7c0.1,0,0.1,0,0.2-0.1l0.5-0.5c0.1-0.1,0.1-0.1,0.1-0.2v-7
		c0-0.1,0-0.1-0.1-0.2l-0.5-0.5c-0.1-0.1-0.1-0.1-0.2-0.1h-12.7c-0.1,0-0.1,0-0.2,0.1l-0.5,0.5c-0.1,0.1-0.1,0.1-0.1,0.2v7
		c0,0.1,0,0.1,0.1,0.2L386.3,235.8z M399.4,228.3v6.8l-0.3,0.3h-7.5v-7.4h7.5L399.4,228.3z M386.2,228.3l0.3-0.3h4.4v7.4h-4.4
		l-0.3-0.3V228.3z"/>
	<path class="st0" d="M386.3,252.6c0.1,0.1,0.1,0.1,0.2,0.1h12.7c0.1,0,0.1,0,0.2-0.1l0.5-0.5c0.1-0.1,0.1-0.1,0.1-0.2V245
		c0-0.1,0-0.1-0.1-0.2l-0.5-0.6c-0.1-0.1-0.1-0.1-0.2-0.1h-12.7c-0.1,0-0.2,0-0.2,0.1l-0.5,0.6c0,0.1-0.1,0.1-0.1,0.2v6.9
		c0,0.1,0,0.1,0.1,0.2L386.3,252.6z M399.4,245.1v6.7l-0.3,0.3h-7.5v-7.4h7.5L399.4,245.1z M386.2,245.1l0.3-0.4h4.4v7.4h-4.4
		l-0.3-0.3V245.1z"/>
	<path class="st0" d="M386.3,269.3c0.1,0.1,0.1,0.1,0.2,0.1h12.7c0.1,0,0.1,0,0.2-0.1l0.5-0.5c0.1-0.1,0.1-0.1,0.1-0.2v-6.9
		c0-0.1,0-0.1-0.1-0.2l-0.5-0.6c-0.1-0.1-0.1-0.1-0.2-0.1h-12.7c-0.1,0-0.2,0-0.2,0.1l-0.5,0.6c0,0.1-0.1,0.1-0.1,0.2v6.9
		c0,0.1,0,0.1,0.1,0.2L386.3,269.3z M399.4,261.8v6.7l-0.3,0.3h-7.5v-7.4h7.5L399.4,261.8z M386.2,261.8l0.3-0.4h4.4v7.4h-4.4
		l-0.3-0.3V261.8z"/>
	<path class="st0" d="M386.3,286.1c0.1,0.1,0.1,0.1,0.2,0.1h12.7c0.1,0,0.1,0,0.2-0.1l0.5-0.5c0.1-0.1,0.1-0.1,0.1-0.2v-6.9
		c0-0.1,0-0.1-0.1-0.2l-0.5-0.5c-0.1-0.1-0.1-0.1-0.2-0.1h-12.7c-0.1,0-0.1,0-0.2,0.1l-0.5,0.5c-0.1,0.1-0.1,0.1-0.1,0.2v6.9
		c0,0.1,0,0.1,0.1,0.2L386.3,286.1z M399.4,278.6v6.7l-0.3,0.3h-7.5v-7.3h7.5L399.4,278.6z M386.2,278.6l0.3-0.3h4.4v7.3h-4.4
		l-0.3-0.3V278.6z"/>
	<path class="st0" d="M339.6,291.3h0.7v-3.8h-0.6c-0.1,0.2-0.2,0.4-0.5,0.6c-0.2,0.2-0.4,0.3-0.6,0.4v0.7c0.4-0.1,0.7-0.3,0.9-0.6
		V291.3z"/>
	<path class="st0" d="M339.5,273.7c-0.4,0.4-0.7,0.7-0.8,0.9c-0.1,0.2-0.2,0.5-0.2,0.7h2.6v-0.7h-1.5c0-0.1,0.1-0.1,0.2-0.2
		c0.1-0.1,0.2-0.2,0.4-0.4c0.2-0.2,0.4-0.4,0.5-0.5c0.1-0.2,0.2-0.3,0.3-0.5c0.1-0.2,0.1-0.3,0.1-0.5c0-0.3-0.1-0.6-0.3-0.8
		c-0.2-0.2-0.5-0.3-0.9-0.3c-0.3,0-0.6,0.1-0.9,0.3c-0.2,0.2-0.4,0.5-0.4,0.9l0.7,0.1c0-0.2,0.1-0.4,0.2-0.5
		c0.1-0.1,0.2-0.1,0.4-0.1c0.2,0,0.3,0,0.4,0.1c0.1,0.1,0.1,0.2,0.1,0.4c0,0.1-0.1,0.3-0.2,0.4C340,273.2,339.8,273.4,339.5,273.7z"
		/>
	<path class="st0" d="M339.7,258c-0.1,0-0.3,0-0.4-0.1c-0.1-0.1-0.2-0.2-0.2-0.4l-0.7,0.1c0,0.3,0.2,0.6,0.4,0.8
		c0.2,0.2,0.5,0.3,0.9,0.3c0.4,0,0.7-0.1,0.9-0.4c0.2-0.2,0.4-0.5,0.4-0.9c0-0.2-0.1-0.4-0.2-0.6c-0.1-0.2-0.3-0.3-0.5-0.3
		c0.4-0.2,0.6-0.5,0.6-0.8c0-0.2-0.1-0.4-0.3-0.6c-0.2-0.2-0.5-0.3-0.9-0.3c-0.2,0-0.4,0-0.6,0.1c-0.2,0.1-0.3,0.2-0.4,0.3
		c-0.1,0.1-0.2,0.3-0.2,0.6l0.7,0.1c0-0.2,0.1-0.3,0.2-0.4c0.1-0.1,0.2-0.1,0.3-0.1c0.1,0,0.2,0,0.3,0.1c0.1,0.1,0.1,0.2,0.1,0.3
		c0,0.2-0.1,0.3-0.2,0.4c-0.1,0.1-0.3,0.1-0.5,0.1l-0.1,0.6c0.1,0,0.2-0.1,0.3-0.1c0.1,0,0.3,0.1,0.4,0.2c0.1,0.1,0.1,0.3,0.1,0.4
		c0,0.2-0.1,0.3-0.2,0.5C340,257.9,339.9,258,339.7,258z"/>
	<path class="st0" d="M339.9,241.7h0.7V241h0.5v-0.6h-0.5v-2.4H340l-1.7,2.4v0.6h1.6V241.7z M339,240.3l0.9-1.3v1.3H339z"/>
	<path class="st0" d="M339.8,224.4c-0.1,0-0.3,0-0.4-0.1c-0.1-0.1-0.2-0.2-0.2-0.4l-0.7,0.1c0,0.3,0.2,0.6,0.4,0.8s0.5,0.3,0.9,0.3
		c0.4,0,0.8-0.2,1-0.5c0.2-0.2,0.3-0.5,0.3-0.8c0-0.4-0.1-0.7-0.3-0.9c-0.2-0.2-0.5-0.4-0.8-0.4c-0.2,0-0.3,0-0.5,0.1l0.1-0.6h1.4
		v-0.7H339l-0.4,2l0.6,0.1c0.2-0.2,0.4-0.3,0.6-0.3c0.2,0,0.3,0.1,0.4,0.2c0.1,0.1,0.2,0.3,0.2,0.5c0,0.2-0.1,0.4-0.2,0.6
		C340,224.4,339.9,224.4,339.8,224.4z"/>
	<path class="st0" d="M339.8,208.2c0.4,0,0.7-0.1,0.9-0.4c0.2-0.2,0.3-0.6,0.3-0.9c0-0.4-0.1-0.7-0.3-0.9c-0.2-0.2-0.5-0.3-0.8-0.3
		c-0.3,0-0.5,0.1-0.7,0.3c0-0.4,0.1-0.7,0.2-0.9c0.1-0.1,0.2-0.2,0.4-0.2c0.1,0,0.2,0,0.3,0.1c0.1,0.1,0.1,0.2,0.1,0.3l0.7-0.1
		c-0.1-0.3-0.2-0.5-0.4-0.7c-0.2-0.2-0.4-0.2-0.7-0.2c-0.4,0-0.7,0.2-1,0.5c-0.3,0.3-0.4,0.8-0.4,1.5c0,0.7,0.1,1.2,0.4,1.5
		C339.1,208.1,339.4,208.2,339.8,208.2z M339.4,206.4c0.1-0.1,0.2-0.2,0.4-0.2c0.1,0,0.3,0.1,0.4,0.2c0.1,0.1,0.1,0.3,0.1,0.5
		c0,0.2,0,0.4-0.1,0.5c-0.1,0.1-0.2,0.2-0.3,0.2c-0.1,0-0.3-0.1-0.4-0.2c-0.1-0.1-0.2-0.3-0.2-0.6
		C339.3,206.6,339.3,206.5,339.4,206.4z"/>
	<path class="st0" d="M339.3,189.7c-0.2,0.5-0.3,1.1-0.3,1.6h0.7c0-0.3,0.1-0.7,0.2-1.1c0.1-0.4,0.3-0.8,0.5-1.2
		c0.2-0.4,0.4-0.7,0.6-0.9v-0.5h-2.5v0.7h1.7C339.8,188.7,339.5,189.2,339.3,189.7z"/>
	<path class="st0" d="M338.5,173.5c0,0.4,0.1,0.7,0.4,0.9c0.2,0.2,0.5,0.3,0.9,0.3c0.4,0,0.7-0.1,0.9-0.3c0.2-0.2,0.3-0.5,0.3-0.9
		c0-0.2-0.1-0.4-0.2-0.6c-0.1-0.2-0.3-0.3-0.5-0.4c0.2-0.1,0.3-0.2,0.4-0.3c0.1-0.1,0.1-0.3,0.1-0.5c0-0.3-0.1-0.5-0.3-0.7
		c-0.2-0.2-0.5-0.3-0.8-0.3c-0.4,0-0.6,0.1-0.8,0.3c-0.2,0.2-0.3,0.4-0.3,0.7c0,0.2,0,0.3,0.1,0.5c0.1,0.1,0.2,0.2,0.4,0.3
		c-0.2,0.1-0.4,0.2-0.5,0.4C338.5,173.1,338.5,173.2,338.5,173.5z M339.4,171.4c0.1-0.1,0.2-0.1,0.3-0.1c0.1,0,0.2,0,0.3,0.1
		c0.1,0.1,0.1,0.2,0.1,0.3c0,0.1,0,0.3-0.1,0.3c-0.1,0.1-0.2,0.1-0.3,0.1s-0.2,0-0.3-0.1c-0.1-0.1-0.1-0.2-0.1-0.3
		C339.3,171.6,339.3,171.5,339.4,171.4z M339.3,173c0.1-0.1,0.2-0.2,0.4-0.2c0.2,0,0.3,0.1,0.4,0.2c0.1,0.1,0.2,0.3,0.2,0.4
		c0,0.2,0,0.4-0.1,0.5s-0.2,0.2-0.4,0.2c-0.2,0-0.3-0.1-0.4-0.2c-0.1-0.1-0.2-0.3-0.2-0.5C339.2,173.2,339.2,173.1,339.3,173z"/>
	<path class="st0" d="M339.5,156.5c0.3,0,0.5-0.1,0.7-0.3c0,0.4-0.1,0.7-0.2,0.9c-0.1,0.1-0.2,0.2-0.4,0.2c-0.1,0-0.2,0-0.3-0.1
		c-0.1-0.1-0.1-0.2-0.1-0.3l-0.7,0.1c0.1,0.3,0.2,0.6,0.4,0.7s0.4,0.2,0.7,0.2c0.4,0,0.8-0.2,1-0.5c0.3-0.3,0.4-0.8,0.4-1.5
		c0-0.7-0.1-1.2-0.4-1.5c-0.2-0.3-0.6-0.4-1-0.4c-0.4,0-0.6,0.1-0.9,0.4c-0.2,0.2-0.3,0.6-0.3,0.9c0,0.4,0.1,0.7,0.3,0.9
		C339,156.3,339.2,156.5,339.5,156.5z M339.3,154.7c0.1-0.1,0.2-0.2,0.3-0.2c0.1,0,0.3,0.1,0.4,0.2s0.2,0.3,0.2,0.5
		c0,0.2,0,0.4-0.1,0.5s-0.2,0.2-0.4,0.2c-0.1,0-0.3-0.1-0.4-0.2c-0.1-0.1-0.1-0.3-0.1-0.5C339.1,155,339.2,154.8,339.3,154.7z"/>
	<path class="st0" d="M339.6,141h0.7v-3.8h-0.6c-0.1,0.2-0.2,0.4-0.5,0.6c-0.2,0.2-0.4,0.3-0.6,0.4v0.7c0.4-0.1,0.7-0.3,0.9-0.6V141
		z"/>
	<path class="st0" d="M342.7,141c0.4,0,0.7-0.1,0.9-0.4c0.2-0.3,0.4-0.8,0.4-1.6c0-0.7-0.1-1.2-0.4-1.6c-0.2-0.3-0.5-0.4-0.9-0.4
		c-0.4,0-0.7,0.1-0.9,0.4c-0.2,0.3-0.4,0.8-0.4,1.6c0,0.7,0.1,1.2,0.3,1.5C342,140.9,342.3,141,342.7,141z M342.3,138.1
		c0-0.1,0.1-0.2,0.2-0.3s0.1-0.1,0.2-0.1c0.1,0,0.2,0,0.2,0.1c0.1,0.1,0.1,0.2,0.2,0.3c0,0.2,0.1,0.5,0.1,0.9c0,0.4,0,0.8-0.1,1
		c0,0.1-0.1,0.2-0.2,0.3c-0.1,0.1-0.1,0.1-0.2,0.1c-0.1,0-0.2,0-0.2-0.1c-0.1-0.1-0.1-0.2-0.2-0.3c0-0.2-0.1-0.5-0.1-0.9
		C342.2,138.6,342.2,138.3,342.3,138.1z"/>
	<path class="st0" d="M339.6,124.2h0.7v-3.8h-0.6c-0.1,0.2-0.2,0.4-0.5,0.6c-0.2,0.2-0.4,0.3-0.6,0.4v0.7c0.4-0.1,0.7-0.3,0.9-0.6
		V124.2z"/>
	<path class="st0" d="M342.3,124.2h0.7v-3.8h-0.6c-0.1,0.2-0.2,0.4-0.5,0.6c-0.2,0.2-0.4,0.3-0.6,0.4v0.7c0.4-0.1,0.7-0.3,0.9-0.6
		V124.2z"/>
	<path class="st0" d="M339.6,107.4h0.7v-3.8h-0.6c-0.1,0.2-0.2,0.4-0.5,0.6c-0.2,0.2-0.4,0.3-0.6,0.4v0.7c0.4-0.1,0.7-0.3,0.9-0.6
		V107.4z"/>
	<path class="st0" d="M342.4,105.7c-0.4,0.4-0.7,0.7-0.8,0.9c-0.1,0.2-0.2,0.5-0.2,0.7h2.6v-0.7h-1.5c0-0.1,0.1-0.1,0.2-0.2
		c0.1-0.1,0.2-0.2,0.4-0.4c0.2-0.2,0.4-0.4,0.5-0.5c0.1-0.2,0.2-0.3,0.3-0.5c0.1-0.2,0.1-0.3,0.1-0.5c0-0.3-0.1-0.6-0.3-0.8
		c-0.2-0.2-0.5-0.3-0.9-0.3c-0.3,0-0.6,0.1-0.9,0.3c-0.2,0.2-0.4,0.5-0.4,0.9l0.7,0.1c0-0.2,0.1-0.4,0.2-0.5
		c0.1-0.1,0.2-0.1,0.4-0.1c0.2,0,0.3,0,0.4,0.1c0.1,0.1,0.1,0.2,0.1,0.4c0,0.1-0.1,0.3-0.2,0.4C343,105.2,342.8,105.4,342.4,105.7z"
		/>
	<path class="st0" d="M378.8,199.3c0.2,0,0.3-0.1,0.4-0.2c0.1-0.1,0.1-0.3,0.1-0.5c0-0.2-0.1-0.3-0.2-0.4c-0.1-0.1-0.2-0.2-0.4-0.2
		c-0.2,0-0.3,0.1-0.4,0.2c-0.1,0.1-0.1,0.3-0.1,0.4c0,0.2,0.1,0.4,0.2,0.5C378.6,199.3,378.7,199.3,378.8,199.3z"/>
	<path class="st0" d="M380.8,293.4h1.4c0.3,0,0.6-0.2,0.6-0.6V92.9c0-0.3-0.2-0.6-0.6-0.6h-1.4v0h-43.6c-0.6,0-1.1,0.5-1.1,1.1
		v198.9c0,0.6,0.5,1.1,1.1,1.1L380.8,293.4L380.8,293.4z M376.2,96.3c-0.1-0.1-0.2-0.1-0.4-0.1c-0.2,0-0.3,0-0.4,0.1
		c-0.1,0.1-0.1,0.2-0.2,0.5l-0.7-0.1c0-0.4,0.2-0.7,0.4-0.9c0.2-0.2,0.5-0.3,0.9-0.3c0.4,0,0.7,0.1,0.9,0.3c0.2,0.2,0.3,0.5,0.3,0.8
		c0,0.2,0,0.3-0.1,0.5c-0.1,0.2-0.2,0.3-0.3,0.5c-0.1,0.1-0.2,0.3-0.5,0.5c-0.2,0.2-0.4,0.4-0.4,0.4c-0.1,0.1-0.1,0.1-0.2,0.2h1.5
		v0.7h-2.6c0-0.3,0.1-0.5,0.2-0.7c0.1-0.2,0.4-0.5,0.8-0.9c0.3-0.3,0.5-0.5,0.6-0.6c0.1-0.2,0.2-0.3,0.2-0.4
		C376.4,96.5,376.3,96.4,376.2,96.3z M379.8,292.4l-42.7-0.1l0.1-199h0.7v8.4h41.9v7.6h-41.9v9.3h41.9v7.6h-41.9v9.3h41.9v7.6h-41.9
		v9.3h41.9v7.6h-41.9v9.3h41.9v7.6h-41.9v9.3h41.9v7.6h-41.9v9.3h41.9v7.6h-41.9v9.3h41.9v7.6h-41.9v9.3h41.9v7.6h-41.9v9.3h41.9
		v7.6h-41.9v9.3h41.9v7.6h-41.9v9.3h41.9V292.4z M379.9,114.4c0.1,0.2,0.2,0.4,0.2,0.6c0,0.3-0.1,0.6-0.4,0.9
		c-0.2,0.2-0.6,0.4-0.9,0.4c-0.3,0-0.6-0.1-0.9-0.3c-0.2-0.2-0.4-0.5-0.4-0.8l0.7-0.1c0,0.2,0.1,0.3,0.2,0.4
		c0.1,0.1,0.2,0.1,0.4,0.1c0.1,0,0.3-0.1,0.4-0.2c0.1-0.1,0.2-0.3,0.2-0.5c0-0.2,0-0.3-0.1-0.4c-0.1-0.1-0.2-0.2-0.4-0.2
		c-0.1,0-0.2,0-0.3,0.1l0.1-0.6c0.2,0,0.3,0,0.5-0.1c0.1-0.1,0.2-0.2,0.2-0.4c0-0.1,0-0.2-0.1-0.3c-0.1-0.1-0.2-0.1-0.3-0.1
		c-0.1,0-0.2,0-0.3,0.1c-0.1,0.1-0.1,0.2-0.2,0.4l-0.7-0.1c0-0.2,0.1-0.4,0.2-0.6c0.1-0.1,0.2-0.2,0.4-0.3c0.2-0.1,0.4-0.1,0.6-0.1
		c0.4,0,0.6,0.1,0.9,0.3c0.2,0.2,0.3,0.4,0.3,0.6c0,0.3-0.2,0.6-0.6,0.8C379.6,114.2,379.8,114.3,379.9,114.4z M379.3,248.3
		c-0.1-0.1-0.2-0.2-0.4-0.2c-0.2,0-0.4,0.1-0.6,0.3l-0.6-0.1l0.4-2h1.9v0.7h-1.4l-0.1,0.6c0.2-0.1,0.3-0.1,0.5-0.1
		c0.3,0,0.6,0.1,0.8,0.4c0.2,0.2,0.3,0.5,0.3,0.9c0,0.3-0.1,0.6-0.3,0.8c-0.2,0.3-0.6,0.5-1,0.5c-0.4,0-0.6-0.1-0.9-0.3
		c-0.2-0.2-0.4-0.4-0.4-0.8l0.7-0.1c0,0.2,0.1,0.3,0.2,0.4c0.1,0.1,0.2,0.1,0.4,0.1c0.2,0,0.3-0.1,0.4-0.2c0.1-0.1,0.2-0.3,0.2-0.6
		C379.4,248.6,379.4,248.4,379.3,248.3z M379.8,233.1c-0.2,0.2-0.5,0.4-0.9,0.4c-0.4,0-0.7-0.2-1-0.4c-0.2-0.3-0.4-0.8-0.4-1.5
		c0-0.7,0.1-1.2,0.4-1.5c0.3-0.3,0.6-0.5,1-0.5c0.3,0,0.5,0.1,0.7,0.2c0.2,0.2,0.3,0.4,0.4,0.7l-0.7,0.1c0-0.1-0.1-0.3-0.1-0.3
		c-0.1-0.1-0.2-0.1-0.3-0.1c-0.2,0-0.3,0.1-0.4,0.2c-0.1,0.1-0.2,0.4-0.2,0.9c0.2-0.2,0.4-0.3,0.7-0.3c0.3,0,0.6,0.1,0.8,0.3
		c0.2,0.2,0.3,0.5,0.3,0.9C380.1,232.5,380,232.8,379.8,233.1z M377.6,213.5v-0.7h2.5v0.5c-0.2,0.2-0.4,0.5-0.6,0.9
		c-0.2,0.4-0.4,0.8-0.5,1.2s-0.2,0.8-0.2,1.1h-0.7c0-0.5,0.1-1.1,0.3-1.6s0.5-1,0.8-1.5H377.6z M377.8,197.5
		c-0.1-0.1-0.1-0.3-0.1-0.5c0-0.3,0.1-0.5,0.3-0.7c0.2-0.2,0.5-0.3,0.8-0.3c0.4,0,0.6,0.1,0.8,0.3c0.2,0.2,0.3,0.4,0.3,0.7
		c0,0.2,0,0.3-0.1,0.5c-0.1,0.1-0.2,0.2-0.4,0.3c0.2,0.1,0.4,0.2,0.5,0.4s0.2,0.4,0.2,0.6c0,0.4-0.1,0.6-0.3,0.9
		c-0.2,0.2-0.5,0.3-0.9,0.3c-0.3,0-0.6-0.1-0.9-0.3c-0.3-0.2-0.4-0.5-0.4-0.9c0-0.2,0.1-0.4,0.2-0.6c0.1-0.2,0.3-0.3,0.5-0.4
		C378,197.7,377.9,197.6,377.8,197.5z M378.6,181.8c-0.3,0-0.6-0.1-0.8-0.3c-0.2-0.2-0.3-0.5-0.3-0.9c0-0.4,0.1-0.7,0.3-0.9
		c0.2-0.2,0.5-0.4,0.9-0.4c0.4,0,0.7,0.1,1,0.4c0.2,0.3,0.4,0.8,0.4,1.5c0,0.7-0.1,1.2-0.4,1.5c-0.3,0.3-0.6,0.5-1,0.5
		c-0.3,0-0.5-0.1-0.7-0.2c-0.2-0.2-0.3-0.4-0.4-0.7l0.7-0.1c0,0.1,0.1,0.3,0.1,0.3c0.1,0.1,0.2,0.1,0.3,0.1c0.2,0,0.3-0.1,0.4-0.2
		c0.1-0.1,0.2-0.4,0.2-0.9C379.1,181.7,378.9,181.8,378.6,181.8z M379.2,129.8c-0.1-0.1-0.2-0.1-0.4-0.1c-0.2,0-0.3,0-0.4,0.1
		c-0.1,0.1-0.1,0.2-0.2,0.5l-0.7-0.1c0-0.4,0.2-0.7,0.4-0.9c0.2-0.2,0.5-0.3,0.9-0.3c0.4,0,0.7,0.1,0.9,0.3c0.2,0.2,0.3,0.5,0.3,0.8
		c0,0.2,0,0.3-0.1,0.5c-0.1,0.2-0.2,0.3-0.3,0.5c-0.1,0.1-0.2,0.3-0.5,0.5c-0.2,0.2-0.4,0.4-0.4,0.4c-0.1,0.1-0.1,0.1-0.2,0.2h1.5
		v0.7h-2.6c0-0.3,0.1-0.5,0.2-0.7c0.1-0.2,0.4-0.5,0.8-0.9c0.3-0.3,0.5-0.5,0.6-0.6c0.1-0.2,0.2-0.3,0.2-0.4
		C379.3,130,379.3,129.9,379.2,129.8z M380.1,164.5c0,0.7-0.1,1.2-0.4,1.6c-0.2,0.3-0.5,0.4-0.9,0.4c-0.4,0-0.7-0.1-0.9-0.4
		c-0.2-0.3-0.3-0.8-0.3-1.5c0-0.7,0.1-1.2,0.4-1.6c0.2-0.3,0.5-0.4,0.9-0.4c0.4,0,0.7,0.1,0.9,0.4
		C379.9,163.3,380.1,163.8,380.1,164.5z M377.1,115.5v0.7h-2.6c0-0.3,0.1-0.5,0.2-0.7c0.1-0.2,0.4-0.5,0.8-0.9
		c0.3-0.3,0.5-0.5,0.6-0.6c0.1-0.2,0.2-0.3,0.2-0.4c0-0.2,0-0.3-0.1-0.4c-0.1-0.1-0.2-0.1-0.4-0.1c-0.2,0-0.3,0-0.4,0.1
		c-0.1,0.1-0.1,0.2-0.2,0.5l-0.7-0.1c0-0.4,0.2-0.7,0.4-0.9c0.2-0.2,0.5-0.3,0.9-0.3c0.4,0,0.7,0.1,0.9,0.3c0.2,0.2,0.3,0.5,0.3,0.8
		c0,0.2,0,0.3-0.1,0.5c-0.1,0.2-0.2,0.3-0.3,0.5c-0.1,0.1-0.2,0.3-0.5,0.5c-0.2,0.2-0.4,0.4-0.4,0.4c-0.1,0.1-0.1,0.1-0.2,0.2H377.1
		z M377.1,132.2v0.7h-2.6c0-0.3,0.1-0.5,0.2-0.7c0.1-0.2,0.4-0.5,0.8-0.9c0.3-0.3,0.5-0.5,0.6-0.6c0.1-0.2,0.2-0.3,0.2-0.4
		c0-0.2,0-0.3-0.1-0.4c-0.1-0.1-0.2-0.1-0.4-0.1c-0.2,0-0.3,0-0.4,0.1c-0.1,0.1-0.1,0.2-0.2,0.5l-0.7-0.1c0-0.4,0.2-0.7,0.4-0.9
		c0.2-0.2,0.5-0.3,0.9-0.3c0.4,0,0.7,0.1,0.9,0.3c0.2,0.2,0.3,0.5,0.3,0.8c0,0.2,0,0.3-0.1,0.5c-0.1,0.2-0.2,0.3-0.3,0.5
		c-0.1,0.1-0.2,0.3-0.5,0.5c-0.2,0.2-0.4,0.4-0.4,0.4c-0.1,0.1-0.1,0.1-0.2,0.2H377.1z M377.8,147.4v-0.7c0.2-0.1,0.4-0.2,0.6-0.4
		c0.2-0.2,0.4-0.4,0.5-0.6h0.6v3.8h-0.7v-2.8C378.5,147.1,378.1,147.3,377.8,147.4z M377.1,149v0.7h-2.6c0-0.3,0.1-0.5,0.2-0.7
		c0.1-0.2,0.4-0.5,0.8-0.9c0.3-0.3,0.5-0.5,0.6-0.6c0.1-0.2,0.2-0.3,0.2-0.4c0-0.2,0-0.3-0.1-0.4c-0.1-0.1-0.2-0.1-0.4-0.1
		c-0.2,0-0.3,0-0.4,0.1c-0.1,0.1-0.1,0.2-0.2,0.5l-0.7-0.1c0-0.4,0.2-0.7,0.4-0.9c0.2-0.2,0.5-0.3,0.9-0.3c0.4,0,0.7,0.1,0.9,0.3
		c0.2,0.2,0.3,0.5,0.3,0.8c0,0.2,0,0.3-0.1,0.5c-0.1,0.2-0.2,0.3-0.3,0.5c-0.1,0.1-0.2,0.3-0.5,0.5c-0.2,0.2-0.4,0.4-0.4,0.4
		c-0.1,0.1-0.1,0.1-0.2,0.2H377.1z M377.1,165.7v0.7h-2.6c0-0.3,0.1-0.5,0.2-0.7c0.1-0.2,0.4-0.5,0.8-0.9c0.3-0.3,0.5-0.5,0.6-0.6
		c0.1-0.2,0.2-0.3,0.2-0.4c0-0.2,0-0.3-0.1-0.4c-0.1-0.1-0.2-0.1-0.4-0.1c-0.2,0-0.3,0-0.4,0.1c-0.1,0.1-0.1,0.2-0.2,0.5l-0.7-0.1
		c0-0.4,0.2-0.7,0.4-0.9c0.2-0.2,0.5-0.3,0.9-0.3c0.4,0,0.7,0.1,0.9,0.3c0.2,0.2,0.3,0.5,0.3,0.8c0,0.2,0,0.3-0.1,0.5
		c-0.1,0.2-0.2,0.3-0.3,0.5c-0.1,0.1-0.2,0.3-0.5,0.5c-0.2,0.2-0.4,0.4-0.4,0.4c-0.1,0.1-0.1,0.1-0.2,0.2H377.1z M374.8,180.9v-0.7
		c0.2-0.1,0.4-0.2,0.6-0.4c0.2-0.2,0.4-0.4,0.5-0.6h0.6v3.8h-0.7v-2.8C375.5,180.6,375.2,180.8,374.8,180.9z M374.8,197.7V197
		c0.2-0.1,0.4-0.2,0.6-0.4c0.2-0.2,0.4-0.4,0.5-0.6h0.6v3.8h-0.7v-2.8C375.5,197.4,375.2,197.5,374.8,197.7z M374.8,214.4v-0.7
		c0.2-0.1,0.4-0.2,0.6-0.4c0.2-0.2,0.4-0.4,0.5-0.6h0.6v3.8h-0.7v-2.8C375.5,214.1,375.2,214.3,374.8,214.4z M374.8,231.1v-0.7
		c0.2-0.1,0.4-0.2,0.6-0.4c0.2-0.2,0.4-0.4,0.5-0.6h0.6v3.8h-0.7v-2.8C375.5,230.8,375.2,231,374.8,231.1z M374.8,247.9v-0.7
		c0.2-0.1,0.4-0.2,0.6-0.4c0.2-0.2,0.4-0.4,0.5-0.6h0.6v3.8h-0.7v-2.8C375.5,247.6,375.2,247.8,374.8,247.9z M374.8,264.6V264
		c0.2-0.1,0.4-0.2,0.6-0.4c0.2-0.2,0.4-0.4,0.5-0.6h0.6v3.8h-0.7v-2.8C375.5,264.3,375.2,264.5,374.8,264.6z M374.8,281.4v-0.7
		c0.2-0.1,0.4-0.2,0.6-0.4c0.2-0.2,0.4-0.4,0.5-0.6h0.6v3.8h-0.7v-2.8C375.5,281.1,375.2,281.2,374.8,281.4z M379.7,283.3
		c-0.2,0.2-0.6,0.4-0.9,0.4c-0.3,0-0.6-0.1-0.9-0.3c-0.2-0.2-0.4-0.5-0.4-0.8l0.7-0.1c0,0.2,0.1,0.3,0.2,0.4
		c0.1,0.1,0.2,0.1,0.4,0.1c0.1,0,0.3-0.1,0.4-0.2c0.1-0.1,0.2-0.3,0.2-0.5c0-0.2,0-0.3-0.1-0.4c-0.1-0.1-0.2-0.2-0.4-0.2
		c-0.1,0-0.2,0-0.3,0.1l0.1-0.6c0.2,0,0.3,0,0.5-0.1s0.2-0.2,0.2-0.4c0-0.1,0-0.2-0.1-0.3c-0.1-0.1-0.2-0.1-0.3-0.1
		c-0.1,0-0.2,0-0.3,0.1c-0.1,0.1-0.1,0.2-0.2,0.4l-0.7-0.1c0-0.2,0.1-0.4,0.2-0.6c0.1-0.1,0.2-0.2,0.4-0.3c0.2-0.1,0.4-0.1,0.6-0.1
		c0.4,0,0.6,0.1,0.9,0.3c0.2,0.2,0.3,0.4,0.3,0.6c0,0.3-0.2,0.6-0.6,0.8c0.2,0,0.4,0.2,0.5,0.3c0.1,0.2,0.2,0.4,0.2,0.6
		C380.1,282.8,380,283,379.7,283.3z M380.2,266.1h-0.5v0.8H379v-0.8h-1.6v-0.6l1.7-2.4h0.6v2.4h0.5V266.1z M380.2,98.7h-0.5v0.8H379
		v-0.8h-1.6V98l1.7-2.4h0.6V98h0.5V98.7z"/>
	<path class="st0" d="M378.7,179.9c-0.1,0-0.2,0.1-0.3,0.2c-0.1,0.1-0.1,0.3-0.1,0.5c0,0.2,0,0.4,0.1,0.5c0.1,0.1,0.2,0.2,0.4,0.2
		c0.1,0,0.3-0.1,0.4-0.2c0.1-0.1,0.1-0.3,0.1-0.5c0-0.2-0.1-0.4-0.2-0.5C379,180,378.9,179.9,378.7,179.9z"/>
	<path class="st0" d="M378.9,231.4c-0.1,0-0.3,0.1-0.4,0.2c-0.1,0.1-0.1,0.3-0.1,0.5c0,0.2,0.1,0.4,0.2,0.6c0.1,0.1,0.2,0.2,0.4,0.2
		c0.1,0,0.2-0.1,0.3-0.2c0.1-0.1,0.1-0.3,0.1-0.5c0-0.2,0-0.4-0.1-0.5C379.2,231.5,379.1,231.4,378.9,231.4z"/>
	<path class="st0" d="M378.8,197.5c0.1,0,0.2,0,0.3-0.1c0.1-0.1,0.1-0.2,0.1-0.3c0-0.1,0-0.2-0.1-0.3c-0.1-0.1-0.2-0.1-0.3-0.1
		c-0.1,0-0.3,0-0.3,0.1s-0.1,0.2-0.1,0.3c0,0.1,0,0.3,0.1,0.3C378.6,197.5,378.7,197.5,378.8,197.5z"/>
	<polygon class="st0" points="379,98 379,96.7 378.1,98 	"/>
	<polygon class="st0" points="379,265.4 379,264.1 378.1,265.4 	"/>
	<path class="st0" d="M379.1,163.2c-0.1-0.1-0.1-0.1-0.2-0.1c-0.1,0-0.2,0-0.2,0.1c-0.1,0.1-0.1,0.2-0.2,0.3c-0.1,0.2-0.1,0.5-0.1,1
		c0,0.4,0,0.8,0.1,0.9c0,0.2,0.1,0.3,0.2,0.3c0.1,0.1,0.1,0.1,0.2,0.1c0.1,0,0.2,0,0.2-0.1c0.1-0.1,0.1-0.2,0.2-0.3
		c0.1-0.2,0.1-0.5,0.1-1c0-0.4,0-0.8-0.1-0.9C379.2,163.4,379.1,163.3,379.1,163.2z"/>
	<path class="st0" d="M418.7,73.9l-2.6-4.2l-4-3.6l-5.5-3l-4.4-1.4l-4.8-1l-5.5-0.6l-2.9-0.1H98.5l0.1-8.3l-0.1-15.7l-0.2-7.8
		l-0.2-5.5l-0.9-4.5l-1.8-4.2l-2.7-3.6l-3.3-3.1l-3.9-2.3l-1.7-0.7c0,0,0,0,0,0l-4.9-1.6l-4.9-1.2l-5-0.8l-5.1-0.5L58.7,0l-2.5,0.1
		l-5,0.4l-5.1,0.6l-4.9,1.1l-4.9,1.4l-5.3,2.1l-3.8,2.5L24,11.4l-2.4,3.8l-1.6,4.2l-0.7,4.5l-0.3,15.9l0.1,19.7l0,1.9l-1.4,0.3
		l-4.3,1.5L8.1,66l-4,3.6l-2.7,4l-1.2,4.3L0,79.6l0,202l0.5,5.8l1.3,5.5l2.2,5.2l3,4.7l3.6,4.2l4.2,3.6l4.7,2.9l5.2,2.1l5.5,1.4
		l5.7,0.4l348.2,0l5.8-0.4l5.5-1.4l5.1-2.2l4.7-3l4.2-3.6l3.6-4.2l2.9-4.8l2.1-5.2l1.4-5.5l0.5-5.7V79.6L418.7,73.9z M313,62.4h73.9
		l5.5,0.2l4.7,0.5l4,0.9l4.9,2l3.4,2.5l2.7,4.2l0.9,4.7l0,202.8l-0.4,5.2l-1.2,5l-1.9,4.5l-2.6,4l-3.2,3.5l-3.7,3l-4.3,2.4l-4.7,1.8
		l-5,1.1l-5.4,0.4l-67.8,0V62.4z M98.2,75.2l0.2-7.8l0.1-5H311v248.8l-238.8,0l5.4-1.8l5.2-3.1l4.4-4.1l3.3-4.8l2.3-5.4l1.1-6
		l1.3-145.5l0.1-7.6l0.6-17.1l0.3-5.6l1.3-19.4L98.2,75.2z M20.3,24l0.7-4.4l1.6-4l2.3-3.6l3-3.1l3.6-2.4l5.1-2l4.9-1.4l4.8-1l5-0.6
		l4.9-0.3l2.5-0.1l5,0.2l5,0.5l4.9,0.8l4.8,1.2l4.9,1.6L85,6.1l3.7,2.2l3.1,2.9l2.5,3.5l1.7,3.9l0.9,4.3l0.4,13.2l0.1,7.8l-0.2,23.5
		l-0.2,7.8l-0.7,15.6l-0.5,7.8l-0.8,11.5l-0.3,5.7l-0.4,11.4l-0.1,5.7l-0.1,5.7l-0.1,1.9L92.9,286l-1,5.7l-2.3,5.2l-3.2,4.6
		l-4.2,3.9l-5,3l-5.8,1.9l-6.1,0.9H53l-3-0.3l-4.6-0.7l-5.5-1.9l-4.8-2.9l-4-3.8l-3.2-4.6l-2.2-5.2l-1.1-5.8l-0.1-1.9l-1.2-143.6
		l-0.1-11.5l-0.4-11.4l-2-34.7l-0.3-7.8l-0.3-11.5l-0.1-2.5l0-1.7L20,39.8L20.3,24z M11.2,67.8l3.9-2.4l4-1.3l0.2,11.1l0.3,7.8
		l1.7,29.1l0.7,17l1.3,155l0.1,2l1.2,6l2.3,5.4l3.4,4.8l4.2,4l5,3.1l5.3,1.8h-5.8l-5.4-0.4l-5.1-1.1l-4.7-1.8l-4.2-2.3l-3.7-3
		l-3.2-3.5l-2.6-4l-1.9-4.5l-1.2-4.9l-0.4-5.3l0-202.8l0.1-1.2l1.3-4.7L11.2,67.8z M417.6,286.9l-1.3,5.2l-2,4.9l-2.8,4.5l-3.4,3.9
		l-3.9,3.4l-4.5,2.8l-4.8,2l-5.2,1.3l-5.6,0.4l-348.1,0l-5.5-0.4l-5.2-1.3l-4.9-2L16,309l-3.9-3.4l-3.4-3.9l-2.8-4.5l-2.1-4.9
		l-1.2-5.2L2,281.5L2,79.6L2,78.3l1-3.8l2.4-3.6l2.1-1.8l-1.3,1.5l-1.6,5.3l-0.1,1.6l0,202.9L5,286l1.3,5.2l2,4.8l2.8,4.2l3.4,3.7
		l4,3.2l4.5,2.5l5,1.9l5.4,1.1l5.6,0.4l342,0l5.7-0.4l5.3-1.2l5-1.9l4.5-2.5l4-3.2l3.4-3.8l2.7-4.3l2-4.8l1.3-5.3l0.4-5.5l0-203
		l-1-5.1l-2.5-4l3,2.6l2.3,3.6l1.2,5.2l0,201.8L417.6,286.9z"/>
	<path class="st0" d="M27.1,291.9l2.2,4.7l3.2,4.2l4.1,3.5l4.3,2.6l5.1,1.7l4.5,0.7l5.7,0.4h2.8l7.1-0.4l5.4-0.8l4.8-1.6l4.7-2.8
		l3.8-3.3l3.2-4.1l2.3-4.6l1.1-5.2l0.1-1.7l0-259.1l-0.7-4.4l-2-4.2L85.6,14l-5.2-2.9l-4.7-1.6l-4.8-1.3L66,7.3l-4.9-0.5L53.8,7
		l-4.8,0.6l-4.7,1L39.8,10l-4.3,1.7l-3.8,2.5l-3.1,3.5l-2.1,4.4l-0.1,38.2l0,2.4l-0.5,222.5L26,287L27.1,291.9z M28.5,22.5l1.7-3.7
		l2.7-3.1l3.4-2.2l4.2-1.6l4.5-1.4l4.5-1L54,9l4.7-0.1l2.3,0l4.7,0.5l4.7,0.8l4.7,1.2l4.5,1.5l4.7,2.6l2.7,3l1.8,3.7l0.7,4.1
		l0,258.9l0,1.5l-1,4.7l-2.1,4.3l-2.9,3.8l-3.6,3.1l-4.2,2.5l-4.5,1.5l-5.2,0.8l-5.5,0.3l-4.1,0l-5.5-0.4l-4.2-0.7l-4.7-1.6
		l-4.1-2.4l-3.8-3.2l-2.9-3.8l-2.1-4.3l-1.1-4.5l-0.1-1.6L28.5,22.5z"/>
	<path class="st0" d="M134.2,158.2h149.6c3.5,0,6.4-2.9,6.4-6.4V105c0-3.5-2.9-6.4-6.4-6.4H134.2c-3.5,0-6.4,2.9-6.4,6.4v39.7v1v6
		C127.8,155.3,130.7,158.2,134.2,158.2z M129.3,105c0-2.7,2.2-4.9,4.9-4.9h149.6c2.7,0,4.9,2.2,4.9,4.9v5.5H129.3V105z M129.3,111.5
		h159.4v33.2H129.3V111.5z M129.3,145.8h159.4v6c0,2.7-2.2,4.9-4.9,4.9H134.2c-2.7,0-4.9-2.2-4.9-4.9V145.8z"/>
	<rect x="150.3" y="159.2" class="st0" width="2" height="6.7"/>
	<path class="st0" d="M136.4,168.1v4.4c0,0.6,0.5,1.1,1.1,1.1H165c0.6,0,1.1-0.5,1.1-1.1v-4.4c0-0.6-0.5-1.1-1.1-1.1h-27.5
		C136.9,167,136.4,167.5,136.4,168.1z M165.1,168.1v4.4c0,0,0,0.1-0.1,0.1l-27.6-0.1l0.1-4.5L165.1,168.1z"/>
	<rect x="188.7" y="159.2" class="st0" width="2" height="6.7"/>
	<path class="st0" d="M174.9,168.1v4.4c0,0.6,0.5,1.1,1.1,1.1h27.5c0.6,0,1.1-0.5,1.1-1.1v-4.4c0-0.6-0.5-1.1-1.1-1.1h-27.5
		C175.3,167,174.9,167.5,174.9,168.1z M203.5,168.1v4.4c0,0,0,0.1-0.1,0.1l-27.6-0.1l0.1-4.5L203.5,168.1z"/>
	<rect x="227.1" y="159.2" class="st0" width="2" height="6.7"/>
	<path class="st0" d="M213.3,168.1v4.4c0,0.6,0.5,1.1,1.1,1.1h27.6c0.6,0,1.1-0.5,1.1-1.1v-4.4c0-0.6-0.5-1.1-1.1-1.1h-27.6
		C213.8,167,213.3,167.5,213.3,168.1z M242,168.1v4.4c0,0,0,0.1-0.1,0.1l-27.6-0.1l0.1-4.5L242,168.1z"/>
	<rect x="265.6" y="159.2" class="st0" width="2" height="6.7"/>
	<path class="st0" d="M251.7,168.1v4.4c0,0.6,0.5,1.1,1.1,1.1h27.6c0.6,0,1.1-0.5,1.1-1.1v-4.4c0-0.6-0.5-1.1-1.1-1.1h-27.6
		C252.2,167,251.7,167.5,251.7,168.1z M280.4,168.1v4.4c0,0,0,0.1-0.1,0.1l-27.6-0.1l0.1-4.5L280.4,168.1z"/>
	<path class="st0" d="M112.7,284.3c0,0.1,0.1,0.1,0.2,0.2l1.4,0.6c0,0,0.1,0,0.1,0h13.9c0,0,0.1,0,0.1,0l1.4-0.6
		c0.1,0,0.1-0.1,0.2-0.1l0.6-1.5c0,0,0-0.1,0-0.1v-4.5c0,0,0-0.1,0-0.1l-0.6-1.4c0-0.1-0.1-0.1-0.2-0.1l-1.4-0.6c0,0-0.1,0-0.1,0
		h-13.9c0,0-0.1,0-0.1,0l-1.4,0.6c-0.1,0-0.1,0.1-0.2,0.2l-0.6,1.4c0,0,0,0.1,0,0.1v4.6c0,0,0,0.1,0,0.1L112.7,284.3z M112.6,278.2
		l0.5-1.2l1.2-0.5h13.8l1.2,0.5l0.6,1.2v4.4l-0.6,1.3l-1.2,0.5h-13.8l-1.2-0.5l-0.5-1.2V278.2z"/>
	<path class="st0" d="M112.7,256.5c0,0.1,0.1,0.1,0.2,0.2l1.4,0.6c0,0,0.1,0,0.1,0h13.9c0,0,0.1,0,0.1,0l1.4-0.6
		c0.1,0,0.1-0.1,0.2-0.1l0.6-1.5c0,0,0-0.1,0-0.1v-4.5c0,0,0-0.1,0-0.1l-0.6-1.4c0-0.1-0.1-0.1-0.2-0.1l-1.4-0.6c0,0-0.1,0-0.1,0
		h-13.9c0,0-0.1,0-0.1,0l-1.4,0.6c-0.1,0-0.1,0.1-0.2,0.2l-0.6,1.4c0,0,0,0.1,0,0.1v4.6c0,0,0,0.1,0,0.1L112.7,256.5z M112.6,250.4
		l0.5-1.2l1.2-0.5h13.8l1.2,0.5l0.6,1.2v4.4l-0.6,1.3l-1.2,0.5h-13.8l-1.2-0.5l-0.5-1.2V250.4z"/>
	<path class="st0" d="M112.7,228.3c0,0.1,0.1,0.1,0.2,0.2l1.4,0.6c0,0,0.1,0,0.1,0h13.9c0,0,0.1,0,0.1,0l1.4-0.6
		c0.1,0,0.1-0.1,0.2-0.1l0.6-1.4c0,0,0-0.1,0-0.1v-4.5c0,0,0-0.1,0-0.1l-0.6-1.4c0-0.1-0.1-0.1-0.2-0.1l-1.4-0.6c0,0-0.1,0-0.1,0
		h-13.9c0,0-0.1,0-0.1,0l-1.4,0.6c-0.1,0-0.1,0.1-0.2,0.2l-0.6,1.4c0,0,0,0.1,0,0.1v4.5c0,0,0,0.1,0,0.1L112.7,228.3z M112.6,222.3
		l0.5-1.2l1.2-0.5h13.8l1.2,0.5l0.6,1.2v4.4l-0.6,1.2l-1.2,0.5h-13.8l-1.2-0.5l-0.5-1.2V222.3z"/>
	<path class="st0" d="M112.7,200.4c0,0.1,0.1,0.1,0.2,0.2l1.4,0.6c0,0,0.1,0,0.1,0h13.9c0,0,0.1,0,0.1,0l1.4-0.6
		c0.1,0,0.1-0.1,0.2-0.1l0.6-1.4c0,0,0-0.1,0-0.1v-4.5c0,0,0-0.1,0-0.1l-0.6-1.4c0-0.1-0.1-0.1-0.2-0.1l-1.4-0.6c0,0-0.1,0-0.1,0
		h-13.9c0,0-0.1,0-0.1,0l-1.4,0.6c-0.1,0-0.1,0.1-0.2,0.2l-0.6,1.4c0,0,0,0.1,0,0.1v4.5c0,0,0,0.1,0,0.1L112.7,200.4z M112.6,194.4
		l0.5-1.2l1.2-0.5h13.8l1.2,0.5l0.6,1.2v4.4l-0.6,1.2l-1.2,0.5h-13.8l-1.2-0.5l-0.5-1.2V194.4z"/>
	<path class="st0" d="M247.4,249.2c0-0.1-0.1-0.1-0.2-0.1l-1.4-0.6c0,0-0.1,0-0.1,0h-13.9c0,0-0.1,0-0.1,0l-1.4,0.6
		c-0.1,0-0.1,0.1-0.2,0.2l-0.6,1.4c0,0,0,0.1,0,0.1v4.5c0,0,0,0.1,0,0.1l0.6,1.4c0,0.1,0.1,0.1,0.2,0.2l1.4,0.6c0,0,0.1,0,0.1,0
		h13.9c0,0,0.1,0,0.1,0l1.4-0.6c0.1,0,0.1-0.1,0.2-0.1l0.6-1.4c0,0,0-0.1,0-0.1v-4.5c0,0,0-0.1,0-0.1L247.4,249.2z M247.5,255.2
		l-0.6,1.2l-1.2,0.5h-13.8l-1.2-0.5l-0.5-1.2v-4.4l0.5-1.2l1.2-0.5h13.8l1.2,0.5l0.6,1.2V255.2z"/>
	<path class="st0" d="M257.8,256.9l1.4,0.6c0,0,0.1,0,0.1,0h13.9c0,0,0.1,0,0.1,0l1.4-0.6c0.1,0,0.1-0.1,0.2-0.1l0.6-1.4
		c0,0,0-0.1,0-0.1v-4.5c0,0,0-0.1,0-0.1l-0.6-1.4c0-0.1-0.1-0.1-0.2-0.1l-1.4-0.6c0,0-0.1,0-0.1,0h-13.9c0,0-0.1,0-0.1,0l-1.4,0.6
		c-0.1,0-0.1,0.1-0.2,0.2l-0.6,1.4c0,0,0,0.1,0,0.1v4.5c0,0,0,0.1,0,0.1l0.6,1.4C257.7,256.8,257.8,256.9,257.8,256.9z M257.7,250.8
		l0.5-1.2l1.2-0.5h13.8l1.2,0.5l0.6,1.2v4.4l-0.6,1.2l-1.2,0.5h-13.8l-1.2-0.5l-0.5-1.2V250.8z"/>
	<path class="st0" d="M302.3,249.1l-1.4-0.6c0,0-0.1,0-0.1,0h-13.9c0,0-0.1,0-0.1,0l-1.4,0.6c-0.1,0-0.1,0.1-0.2,0.2l-0.6,1.4
		c0,0,0,0.1,0,0.1v4.5c0,0,0,0.1,0,0.1l0.6,1.4c0,0.1,0.1,0.1,0.2,0.2l1.4,0.6c0,0,0.1,0,0.1,0h13.9c0,0,0.1,0,0.1,0l1.4-0.6
		c0.1,0,0.1-0.1,0.2-0.1l0.6-1.4c0,0,0-0.1,0-0.1v-4.5c0,0,0-0.1,0-0.1l-0.6-1.4C302.4,249.2,302.3,249.1,302.3,249.1z M302.5,255.2
		l-0.6,1.2l-1.2,0.5h-13.8l-1.2-0.5l-0.5-1.2v-4.4l0.5-1.2l1.2-0.5h13.8l1.2,0.5l0.6,1.2V255.2z"/>
	<path class="st0" d="M247.3,276.7c0-0.1-0.1-0.1-0.2-0.2l-1.4-0.6c0,0-0.1,0-0.1,0h-13.9c0,0-0.1,0-0.1,0l-1.4,0.6
		c-0.1,0-0.1,0.1-0.2,0.1l-0.6,1.4c0,0,0,0.1,0,0.1v4.6c0,0,0,0.1,0,0.1l0.6,1.4c0,0.1,0.1,0.1,0.2,0.1l1.4,0.6c0,0,0.1,0,0.1,0
		h13.9c0,0,0.1,0,0.1,0l1.4-0.6c0.1,0,0.1-0.1,0.2-0.2l0.6-1.5c0,0,0-0.1,0-0.1v-4.5c0,0,0-0.1,0-0.1L247.3,276.7z M247.3,282.6
		l-0.5,1.3l-1.2,0.5h-13.8l-1.2-0.5l-0.6-1.2v-4.5l0.6-1.2l1.2-0.5h13.8l1.2,0.5l0.5,1.2V282.6z"/>
	<path class="st0" d="M275.1,276.7c0-0.1-0.1-0.1-0.2-0.2l-1.4-0.6c0,0-0.1,0-0.1,0h-13.9c0,0-0.1,0-0.1,0l-1.4,0.6
		c-0.1,0-0.1,0.1-0.2,0.1l-0.6,1.4c0,0,0,0.1,0,0.1v4.6c0,0,0,0.1,0,0.1l0.6,1.4c0,0.1,0.1,0.1,0.2,0.1l1.4,0.6c0,0,0.1,0,0.1,0
		h13.9c0,0,0.1,0,0.1,0l1.4-0.6c0.1,0,0.1-0.1,0.2-0.2l0.6-1.5c0,0,0-0.1,0-0.1v-4.5c0,0,0-0.1,0-0.1L275.1,276.7z M275.1,282.6
		l-0.5,1.3l-1.2,0.5h-13.8l-1.2-0.5l-0.6-1.2v-4.5l0.6-1.2l1.2-0.5h13.8l1.2,0.5l0.5,1.2V282.6z"/>
	<path class="st0" d="M302.8,276.7c0-0.1-0.1-0.1-0.2-0.2l-1.4-0.6c0,0-0.1,0-0.1,0h-14c0,0-0.1,0-0.1,0l-1.4,0.6
		c-0.1,0-0.1,0.1-0.2,0.2l-0.6,1.4c0,0,0,0.1,0,0.1v4.6c0,0,0,0.1,0,0.1l0.6,1.4c0,0.1,0.1,0.1,0.2,0.2l1.5,0.6c0,0,0.1,0,0.1,0
		h13.9c0,0,0.1,0,0.1,0l1.4-0.6c0.1,0,0.1-0.1,0.2-0.2l0.6-1.5c0,0,0-0.1,0-0.1v-4.5c0,0,0-0.1,0-0.1L302.8,276.7z M302.8,282.6
		l-0.5,1.3l-1.2,0.5h-13.8L286,284l-0.5-1.2v-4.5l0.5-1.2l1.2-0.5h13.9l1.2,0.5l0.5,1.2V282.6z"/>
	<path class="st0" d="M299.5,278.7c0,0-0.1,0-0.1,0h-10.5c-0.1,0-0.1,0-0.1,0l-0.6,0.3c-0.1,0.1-0.1,0.1-0.1,0.2v2.3
		c0,0.1,0.1,0.2,0.2,0.2l0.6,0.3c0,0,0.1,0,0.1,0h10.5c0,0,0.1,0,0.1,0l0.6-0.3c0.1,0,0.2-0.1,0.2-0.2v-2.3c0-0.1,0-0.2-0.1-0.2
		L299.5,278.7z M299.6,281.4l-0.3,0.2h-10.3l-0.3-0.2v-2l0.4-0.2h10.3l0.4,0.2V281.4z"/>
	<polygon class="st0" points="148.5,193.4 150.6,193.4 150.6,204.4 151.8,204.4 151.8,192.3 148.5,192.3 	"/>
	<path class="st0" d="M164.5,183.2l-1.6,3.9h0.8l0.4-1h1.4l0.4,1h0.8l-1.6-3.9H164.5z M164.4,185.4l0.4-1.2l0.4,1.2H164.4z"/>
	<path class="st0" d="M169.4,184.2c0-0.4-0.2-0.7-0.4-0.9c-0.2-0.1-0.5-0.2-1.1-0.2h-0.8v3.9h1c1,0,1.5-0.4,1.5-1.2
		c0-0.5-0.2-0.8-0.7-1C169.3,184.8,169.4,184.6,169.4,184.2z M167.9,183.9h0.3c0.4,0,0.6,0.1,0.6,0.4c0,0.3-0.2,0.4-0.6,0.4h-0.2
		V183.9z M168.2,186.4h-0.4v-1h0.3c0.5,0,0.7,0.2,0.7,0.5C168.9,186.3,168.7,186.4,168.2,186.4z"/>
	<path class="st0" d="M172,183.8c0.5,0,0.8,0.1,1,0.5h0.8c-0.3-0.8-1-1.2-1.9-1.2c-1.1,0-2,0.9-2,2c0,1.1,0.9,2,2.1,2
		c0.8,0,1.5-0.4,1.8-1.2H173c-0.3,0.3-0.6,0.5-1,0.5c-0.7,0-1.3-0.6-1.3-1.3C170.7,184.4,171.3,183.8,172,183.8z"/>
	<path class="st0" d="M195.5,183.5c-0.3-0.2-0.8-0.3-1.4-0.3h-0.9v3.9h0.9c0.6,0,0.9-0.1,1.3-0.2c0.6-0.3,1-0.9,1-1.7
		C196.4,184.4,196.1,183.8,195.5,183.5z M195.1,186.2c-0.2,0.1-0.5,0.2-1,0.2H194v-2.5h0.1c0.5,0,0.7,0,0.9,0.2
		c0.4,0.2,0.6,0.6,0.6,1.1C195.7,185.6,195.4,186,195.1,186.2z"/>
	<polygon class="st0" points="199.1,183.9 199.1,183.2 197,183.2 197,187.1 199.1,187.1 199.1,186.4 197.7,186.4 197.7,185.5
		199,185.5 199,184.8 197.7,184.8 197.7,183.9 	"/>
	<polygon class="st0" points="201.7,183.9 201.7,183.2 199.7,183.2 199.7,187.1 200.4,187.1 200.4,185.5 201.6,185.5 201.6,184.8
		200.4,184.8 200.4,183.9 	"/>
	<path class="st0" d="M165.1,213.4c0,0.3-0.1,0.5-0.3,0.5c-0.2,0-0.3-0.1-0.3-0.3h-0.7c0.1,0.7,0.5,1,1.1,1c0.7,0,1.1-0.5,1.1-1.2
		v-2.8h-0.7V213.4z"/>
	<polygon class="st0" points="166.5,214.5 167.3,214.5 167.3,212.8 168.5,214.5 169.4,214.5 167.9,212.5 169.4,210.6 168.5,210.6
		167.3,212.3 167.3,210.6 166.5,210.6 	"/>
	<polygon class="st0" points="169.8,210.6 169.8,214.5 171.7,214.5 171.7,213.8 170.5,213.8 170.5,210.6 	"/>
	<path class="st0" d="M140,211.2c0.5,0,0.8,0.2,1.1,0.5h0.9c-0.3-0.7-1.1-1.2-1.9-1.2c-1.1,0-2.1,0.9-2.1,2c0,1.1,0.9,2,2.1,2
		c1.2,0,2-0.9,2-2v-0.1h-2.6v0.7h1.6c-0.2,0.4-0.6,0.7-1.1,0.7c-0.8,0-1.4-0.6-1.4-1.3C138.7,211.8,139.2,211.2,140,211.2z"/>
	<polygon class="st0" points="142.6,210.6 142.6,214.5 143.3,214.5 143.3,212.9 144.7,212.9 144.7,214.5 145.5,214.5 145.5,210.6
		144.7,210.6 144.7,212.2 143.3,212.2 143.3,210.6 	"/>
	<rect x="146.2" y="210.6" class="st0" width="0.7" height="3.9"/>
	<polygon class="st0" points="194.6,214.5 194.6,210.6 193.6,210.6 192.5,213.6 191.5,210.6 190.5,210.6 190.5,214.5 191.2,214.5
		191.2,211.6 192.2,214.5 192.8,214.5 193.8,211.6 193.8,214.5 	"/>
	<polygon class="st0" points="195.2,214.5 196,214.5 196,211.7 197.6,214.5 198.4,214.5 198.4,210.6 197.7,210.6 197.7,213.5
		196.1,210.6 195.2,210.6 	"/>
	<path class="st0" d="M203,212.6c0-1.1-0.9-2-2-2c-1.2,0-2.1,0.9-2.1,2c0,1.1,0.9,2,2.1,2C202.1,214.6,203,213.7,203,212.6z
		 M199.7,212.6c0-0.8,0.6-1.3,1.3-1.3c0.7,0,1.3,0.6,1.3,1.3c0,0.8-0.6,1.3-1.3,1.3C200.3,213.9,199.7,213.3,199.7,212.6z"/>
	<polygon class="st0" points="165.9,238.1 163.7,238.1 163.7,238.8 164.4,238.8 164.4,242 165.1,242 165.1,238.8 165.9,238.8 	"/>
	<path class="st0" d="M166.2,238.1v2.5c0,1,0.6,1.5,1.3,1.5c0.8,0,1.3-0.5,1.3-1.5v-2.5h-0.7v2.5c0,0.6-0.2,0.8-0.6,0.8
		c-0.4,0-0.6-0.2-0.6-0.8v-2.5H166.2z"/>
	<polygon class="st0" points="170.1,238.1 169.3,238.1 170.8,242 171.4,242 172.9,238.1 172.2,238.1 171.1,241.1 	"/>
	<path class="st0" d="M137.3,238.1h-1v3.9h0.7v-1.5h0.2c0.6,0,0.8,0,1-0.2c0.3-0.2,0.5-0.6,0.5-1c0-0.5-0.2-0.8-0.5-1
		C138.1,238.2,137.8,238.1,137.3,238.1z M137.2,239.9H137v-1h0.2c0.6,0,0.8,0.1,0.8,0.5C138.1,239.7,137.9,239.9,137.2,239.9z"/>
	<path class="st0" d="M142.3,241.8c0.3,0.2,0.5,0.3,0.9,0.3c0,0,0.1,0,0.1,0v-0.7c-0.1,0-0.1,0-0.2,0c-0.1,0-0.2,0-0.4-0.1
		c0.3-0.3,0.5-0.7,0.5-1.3c0-1.2-0.9-2-2.1-2c-1.2,0-2.1,0.9-2.1,2c0,1.1,0.9,2,2.1,2C141.6,242.1,142,242,142.3,241.8z
		 M139.8,240.1c0-0.8,0.6-1.3,1.4-1.3c0.8,0,1.3,0.6,1.3,1.4c0,0.4-0.1,0.6-0.3,0.8c-0.5-0.5-1.1-0.8-1.8-0.8c-0.2,0-0.4,0-0.6,0.1
		C139.8,240.2,139.8,240.1,139.8,240.1z M140.4,240.8c0.4,0,0.8,0.2,1.3,0.5c-0.2,0.1-0.3,0.1-0.5,0.1c-0.5,0-0.9-0.2-1.2-0.6
		C140.2,240.8,140.3,240.8,140.4,240.8z"/>
	<path class="st0" d="M146.3,239.4c0-0.4-0.1-0.7-0.4-1c-0.3-0.2-0.5-0.3-1.1-0.3h-1.1v3.9h0.7v-1.5l1,1.5h0.9l-1.1-1.4
		C146,240.4,146.3,240,146.3,239.4z M144.8,240h-0.4v-1.2h0.3c0.7,0,0.8,0.2,0.8,0.6C145.6,239.8,145.3,240,144.8,240z"/>
	<path class="st0" d="M147.8,241.4c-0.3,0-0.5-0.2-0.5-0.5h-0.8c0.1,0.7,0.6,1.2,1.3,1.2c0.7,0,1.3-0.5,1.3-1.3c0-0.5-0.2-0.9-1-1.2
		c-0.4-0.1-0.4-0.1-0.4-0.2c-0.1-0.1-0.2-0.2-0.2-0.4c0-0.2,0.2-0.4,0.4-0.4c0.2,0,0.4,0.1,0.4,0.4h0.8c0-0.7-0.5-1.1-1.2-1.1
		c-0.6,0-1.1,0.5-1.1,1.1c0,0.5,0.3,0.9,0.8,1.1c0.5,0.2,0.6,0.2,0.7,0.3c0.1,0.1,0.2,0.2,0.2,0.4
		C148.3,241.2,148.1,241.4,147.8,241.4z"/>
	<polygon class="st0" points="114.6,238.2 114.6,237.5 112.6,237.5 112.6,241.4 113.3,241.4 113.3,239.8 114.5,239.8 114.5,239.1
		113.3,239.1 113.3,238.2 	"/>
	<polygon class="st0" points="117,240.7 115.9,240.7 115.9,237.5 115.1,237.5 115.1,241.4 117,241.4 	"/>
	<path class="st0" d="M118.5,240.4h1.4l0.4,1h0.8l-1.6-3.9h-0.6l-1.6,3.9h0.8L118.5,240.4z M119.2,238.5l0.4,1.2h-0.8L119.2,238.5z"
		/>
	<path class="st0" d="M123.7,240.2c0-0.5-0.2-0.9-1-1.2c-0.4-0.1-0.4-0.1-0.4-0.2c-0.1-0.1-0.2-0.2-0.2-0.4c0-0.2,0.2-0.4,0.4-0.4
		c0.2,0,0.4,0.1,0.4,0.4h0.8c0-0.7-0.5-1.1-1.2-1.1c-0.6,0-1.1,0.5-1.1,1.1c0,0.5,0.3,0.9,0.8,1.1c0.5,0.2,0.6,0.2,0.7,0.3
		c0.1,0.1,0.2,0.2,0.2,0.4c0,0.3-0.2,0.5-0.5,0.5c-0.3,0-0.5-0.2-0.5-0.5h-0.8c0.1,0.7,0.6,1.2,1.3,1.2
		C123.2,241.5,123.7,240.9,123.7,240.2z"/>
	<polygon class="st0" points="126.4,241.4 127.1,241.4 127.1,237.5 126.4,237.5 126.4,239.1 125,239.1 125,237.5 124.2,237.5
		124.2,241.4 125,241.4 125,239.7 126.4,239.7 	"/>
	<polygon class="st0" points="129.3,237.5 127.6,242.1 128.1,242.1 129.8,237.5 	"/>
	<path class="st0" d="M112.6,246.3h0.7v-1.5l1,1.5h0.9l-1.1-1.4c0.7-0.2,1-0.6,1-1.2c0-0.4-0.1-0.7-0.4-1c-0.3-0.2-0.5-0.3-1.1-0.3
		h-1.1V246.3z M113.3,243.1h0.3c0.7,0,0.8,0.2,0.8,0.6c0,0.4-0.2,0.6-0.8,0.6h-0.4V243.1z"/>
	<polygon class="st0" points="117.8,243.1 117.8,242.4 115.7,242.4 115.7,246.3 117.8,246.3 117.8,245.7 116.4,245.7 116.4,244.7
		117.7,244.7 117.7,244 116.4,244 116.4,243.1 	"/>
	<path class="st0" d="M120.2,243.1c0.5,0,0.8,0.1,1,0.5h0.8c-0.3-0.8-1-1.2-1.9-1.2c-1.1,0-2,0.9-2,2c0,1.1,0.9,2,2.1,2
		c0.8,0,1.5-0.4,1.8-1.2h-0.9c-0.3,0.3-0.6,0.5-1,0.5c-0.7,0-1.3-0.6-1.3-1.3C118.9,243.6,119.5,243.1,120.2,243.1z"/>
	<path class="st0" d="M123.4,245.3h1.4l0.4,1h0.8l-1.6-3.9h-0.6l-1.6,3.9h0.8L123.4,245.3z M124,243.5l0.4,1.2h-0.8L124,243.5z"/>
	<polygon class="st0" points="128.3,245.7 127.1,245.7 127.1,242.4 126.4,242.4 126.4,246.3 128.3,246.3 	"/>
	<polygon class="st0" points="129.4,242.4 128.7,242.4 128.7,246.3 130.6,246.3 130.6,245.7 129.4,245.7 	"/>
	<path class="st0" d="M115.5,271.4c0-0.4-0.1-0.7-0.4-1c-0.3-0.2-0.5-0.3-1.1-0.3h-1.1v3.9h0.7v-1.5l1,1.5h0.9l-1.1-1.4
		C115.1,272.4,115.5,272,115.5,271.4z M113.9,272h-0.4v-1.2h0.3c0.7,0,0.8,0.2,0.8,0.6C114.7,271.8,114.5,272,113.9,272z"/>
	<polygon class="st0" points="118,270.8 118,270.1 115.9,270.1 115.9,274 118,274 118,273.3 116.6,273.3 116.6,272.4 117.9,272.4
		117.9,271.7 116.6,271.7 116.6,270.8 	"/>
	<path class="st0" d="M119.5,270.1h-0.9v3.9h0.9c0.6,0,0.9-0.1,1.3-0.2c0.6-0.3,1-0.9,1-1.7c0-0.7-0.3-1.4-0.9-1.7
		C120.6,270.2,120.2,270.1,119.5,270.1z M120.5,273.2c-0.2,0.1-0.5,0.2-1,0.2h-0.2v-2.5h0.1c0.5,0,0.7,0,0.9,0.2
		c0.4,0.2,0.6,0.6,0.6,1.1C121.1,272.5,120.8,273,120.5,273.2z"/>
	<rect x="122.3" y="270.1" class="st0" width="0.7" height="3.9"/>
	<path class="st0" d="M123.5,274h0.8l0.4-1h1.4l0.4,1h0.8l-1.6-3.9h-0.6L123.5,274z M125.8,272.3H125l0.4-1.2L125.8,272.3z"/>
	<polygon class="st0" points="127.7,270.1 127.7,274 129.7,274 129.7,273.3 128.5,273.3 128.5,270.1 	"/>
	<path class="st0" d="M162.7,266.2c-1.2,0-2.1,0.9-2.1,2c0,1.1,0.9,2,2.1,2c1.1,0,2-0.9,2-2C164.8,267.1,163.9,266.2,162.7,266.2z
		 M162.7,269.6c-0.7,0-1.3-0.6-1.3-1.3c0-0.8,0.6-1.3,1.3-1.3c0.7,0,1.3,0.6,1.3,1.3C164,269,163.5,269.6,162.7,269.6z"/>
	<path class="st0" d="M166.3,266.3h-1v3.9h0.7v-1.5h0.2c0.6,0,0.8,0,1-0.2c0.3-0.2,0.5-0.6,0.5-1c0-0.5-0.2-0.8-0.5-1
		C167.1,266.4,166.8,266.3,166.3,266.3z M166.3,268H166v-1h0.2c0.6,0,0.8,0.1,0.8,0.5C167.1,267.9,166.9,268,166.3,268z"/>
	<polygon class="st0" points="170.4,269.5 169,269.5 169,268.6 170.3,268.6 170.3,267.9 169,267.9 169,267 170.4,267 170.4,266.3
		168.3,266.3 168.3,270.2 170.4,270.2 	"/>
	<path class="st0" d="M173.6,267.6c0-0.4-0.1-0.7-0.4-1c-0.3-0.2-0.5-0.3-1.1-0.3H171v3.9h0.7v-1.5l1,1.5h0.9l-1.1-1.4
		C173.3,268.6,173.6,268.2,173.6,267.6z M172.1,268.2h-0.4V267h0.3c0.7,0,0.8,0.2,0.8,0.6C172.9,268,172.7,268.2,172.1,268.2z"/>
	<polygon class="st0" points="230.6,243.4 230.6,246.4 231.3,246.4 231.3,242.5 230.3,242.5 229.2,245.4 228.2,242.5 227.2,242.5
		227.2,246.4 227.9,246.4 227.9,243.4 228.9,246.4 229.5,246.4 	"/>
	<polygon class="st0" points="234,243.2 234,242.5 231.9,242.5 231.9,246.4 234,246.4 234,245.7 232.7,245.7 232.7,244.8 234,244.8
		234,244.1 232.7,244.1 232.7,243.2 	"/>
	<path class="st0" d="M235.7,245.7c-0.3,0-0.5-0.2-0.5-0.5h-0.8c0.1,0.7,0.6,1.2,1.3,1.2c0.7,0,1.2-0.5,1.2-1.3c0-0.5-0.2-0.9-1-1.2
		c-0.4-0.1-0.4-0.1-0.4-0.2c-0.1-0.1-0.2-0.2-0.2-0.4c0-0.2,0.2-0.4,0.4-0.4c0.2,0,0.4,0.1,0.4,0.4h0.8c0-0.7-0.5-1.1-1.2-1.1
		c-0.6,0-1.1,0.5-1.1,1.1c0,0.5,0.3,0.9,0.8,1.1c0.5,0.2,0.6,0.2,0.7,0.3c0.1,0.1,0.2,0.2,0.2,0.4
		C236.2,245.6,236,245.7,235.7,245.7z"/>
	<path class="st0" d="M238.4,245.7c-0.3,0-0.5-0.2-0.5-0.5h-0.8c0.1,0.7,0.6,1.2,1.3,1.2c0.7,0,1.3-0.5,1.3-1.3c0-0.5-0.2-0.9-1-1.2
		c-0.4-0.1-0.4-0.1-0.4-0.2c-0.1-0.1-0.2-0.2-0.2-0.4c0-0.2,0.2-0.4,0.4-0.4c0.2,0,0.4,0.1,0.4,0.4h0.8c0-0.7-0.5-1.1-1.2-1.1
		c-0.6,0-1.1,0.5-1.1,1.1c0,0.5,0.3,0.9,0.8,1.1c0.5,0.2,0.6,0.2,0.7,0.3c0.1,0.1,0.2,0.2,0.2,0.4
		C239,245.6,238.8,245.7,238.4,245.7z"/>
	<path class="st0" d="M241,245.4h1.4l0.4,1h0.8l-1.6-3.9h-0.6l-1.6,3.9h0.8L241,245.4z M241.7,243.5l0.4,1.2h-0.8L241.7,243.5z"/>
	<path class="st0" d="M245.7,243.1c0.5,0,0.8,0.2,1.1,0.5h0.9c-0.3-0.7-1.1-1.2-1.9-1.2c-1.1,0-2.1,0.9-2.1,2c0,1.1,0.9,2,2.1,2
		c1.2,0,2-0.9,2-2v-0.1h-2.6v0.7h1.6c-0.2,0.4-0.6,0.7-1.1,0.7c-0.8,0-1.4-0.6-1.4-1.3C244.4,243.7,244.9,243.1,245.7,243.1z"/>
	<polygon class="st0" points="248.3,246.4 250.4,246.4 250.4,245.7 249,245.7 249,244.8 250.3,244.8 250.3,244.1 249,244.1
		249,243.2 250.4,243.2 250.4,242.5 248.3,242.5 	"/>
	<polygon class="st0" points="232.2,270.1 232.2,274 233,274 233,272.3 234.4,272.3 234.4,274 235.1,274 235.1,270.1 234.4,270.1
		234.4,271.6 233,271.6 233,270.1 	"/>
	<path class="st0" d="M239.7,272c0-1.1-0.9-2-2-2c-1.2,0-2.1,0.9-2.1,2c0,1.1,0.9,2,2.1,2C238.8,274,239.7,273.2,239.7,272z
		 M236.4,272c0-0.8,0.6-1.3,1.3-1.3c0.7,0,1.3,0.6,1.3,1.3c0,0.8-0.6,1.3-1.3,1.3C236.9,273.3,236.4,272.8,236.4,272z"/>
	<polygon class="st0" points="240.3,270.1 240.3,274 242.2,274 242.2,273.3 241,273.3 241,270.1 	"/>
	<path class="st0" d="M245.7,272c0-0.7-0.3-1.4-0.9-1.7c-0.3-0.2-0.8-0.3-1.4-0.3h-0.9v3.9h0.9c0.6,0,0.9-0.1,1.3-0.2
		C245.4,273.5,245.7,272.8,245.7,272z M243.5,273.3h-0.2v-2.5h0.1c0.5,0,0.7,0,0.9,0.2c0.4,0.2,0.6,0.6,0.6,1.1
		c0,0.5-0.2,0.9-0.6,1.1C244.2,273.2,243.9,273.3,243.5,273.3z"/>
	<polygon class="st0" points="254.2,243.2 254.9,243.2 254.9,246.4 255.7,246.4 255.7,243.2 256.4,243.2 256.4,242.5 254.2,242.5
		"/>
	<path class="st0" d="M259.4,243.7c0-0.4-0.1-0.7-0.4-1c-0.3-0.2-0.5-0.3-1.1-0.3h-1.1v3.9h0.7v-1.5l1,1.5h0.9l-1.1-1.4
		C259.1,244.8,259.4,244.3,259.4,243.7z M257.8,244.3h-0.4v-1.2h0.3c0.7,0,0.8,0.2,0.8,0.6C258.6,244.2,258.4,244.3,257.8,244.3z"/>
	<path class="st0" d="M262.1,245.4l0.4,1h0.8l-1.6-3.9h-0.6l-1.6,3.9h0.8l0.4-1H262.1z M261.4,243.5l0.4,1.2H261L261.4,243.5z"/>
	<polygon class="st0" points="266.1,246.4 266.9,246.4 266.9,242.5 266.2,242.5 266.2,245.3 264.6,242.5 263.7,242.5 263.7,246.4
		264.5,246.4 264.5,243.5 	"/>
	<path class="st0" d="M268.6,245.7c-0.3,0-0.5-0.2-0.5-0.5h-0.8c0.1,0.7,0.6,1.2,1.3,1.2c0.7,0,1.3-0.5,1.3-1.3c0-0.5-0.2-0.9-1-1.2
		c-0.4-0.1-0.4-0.1-0.4-0.2c-0.1-0.1-0.2-0.2-0.2-0.4c0-0.2,0.2-0.4,0.4-0.4c0.2,0,0.4,0.1,0.4,0.4h0.8c0-0.7-0.5-1.1-1.2-1.1
		c-0.6,0-1.1,0.5-1.1,1.1c0,0.5,0.3,0.9,0.8,1.1c0.5,0.2,0.6,0.2,0.7,0.3c0.1,0.1,0.2,0.2,0.2,0.4
		C269.2,245.6,269,245.7,268.6,245.7z"/>
	<polygon class="st0" points="272.4,243.2 272.4,242.5 270.4,242.5 270.4,246.4 271.1,246.4 271.1,244.8 272.3,244.8 272.3,244.1
		271.1,244.1 271.1,243.2 	"/>
	<polygon class="st0" points="275,243.2 275,242.5 272.9,242.5 272.9,246.4 275,246.4 275,245.7 273.7,245.7 273.7,244.8 275,244.8
		275,244.1 273.7,244.1 273.7,243.2 	"/>
	<path class="st0" d="M278.3,243.7c0-0.4-0.1-0.7-0.4-1c-0.3-0.2-0.5-0.3-1.1-0.3h-1.1v3.9h0.7v-1.5l1,1.5h0.9l-1.1-1.4
		C278,244.8,278.3,244.3,278.3,243.7z M276.4,244.3v-1.2h0.3c0.7,0,0.8,0.2,0.8,0.6c0,0.4-0.2,0.6-0.8,0.6H276.4z"/>
	<polygon class="st0" points="259.4,213.4 261.5,213.4 261.5,212.7 260.2,212.7 260.2,211.8 261.5,211.8 261.5,211.1 260.2,211.1
		260.2,210.2 261.5,210.2 261.5,209.5 259.4,209.5 	"/>
	<polygon class="st0" points="264.6,212.4 263,209.5 262.2,209.5 262.2,213.4 262.9,213.4 262.9,210.6 264.5,213.4 265.3,213.4
		265.3,209.5 264.6,209.5 	"/>
	<polygon class="st0" points="265.8,210.2 266.5,210.2 266.5,213.4 267.2,213.4 267.2,210.2 267.9,210.2 267.9,209.5 265.8,209.5
		"/>
	<polygon class="st0" points="268.3,213.4 270.4,213.4 270.4,212.7 269,212.7 269,211.8 270.3,211.8 270.3,211.1 269,211.1
		269,210.2 270.4,210.2 270.4,209.5 268.3,209.5 	"/>
	<path class="st0" d="M273.7,210.8c0-0.4-0.1-0.7-0.4-1c-0.3-0.2-0.5-0.3-1.1-0.3H271v3.9h0.7v-1.5l1,1.5h0.9l-1.1-1.4
		C273.3,211.8,273.7,211.4,273.7,210.8z M271.8,211.4v-1.2h0.3c0.7,0,0.8,0.2,0.8,0.6c0,0.4-0.2,0.6-0.8,0.6H271.8z"/>
	<path class="st0" d="M286.4,243.1c0.5,0,0.8,0.1,1,0.5h0.8c-0.3-0.8-1-1.2-1.9-1.2c-1.1,0-2,0.9-2,2c0,1.1,0.9,2,2.1,2
		c0.8,0,1.5-0.4,1.8-1.2h-0.9c-0.3,0.3-0.6,0.5-1,0.5c-0.7,0-1.3-0.6-1.3-1.3C285.1,243.7,285.6,243.1,286.4,243.1z"/>
	<path class="st0" d="M289.9,242.5l-1.6,3.9h0.8l0.4-1h1.4l0.4,1h0.8l-1.6-3.9H289.9z M289.7,244.7l0.4-1.2l0.4,1.2H289.7z"/>
	<polygon class="st0" points="293.2,243.5 294.8,246.4 295.6,246.4 295.6,242.5 294.9,242.5 294.9,245.3 293.3,242.5 292.5,242.5
		292.5,246.4 293.2,246.4 	"/>
	<path class="st0" d="M298.2,246.4c0.8,0,1.5-0.4,1.8-1.2h-0.9c-0.3,0.3-0.6,0.5-1,0.5c-0.7,0-1.3-0.6-1.3-1.3
		c0-0.7,0.6-1.3,1.3-1.3c0.5,0,0.8,0.1,1,0.5h0.8c-0.3-0.8-1-1.2-1.9-1.2c-1.1,0-2,0.9-2,2C296.2,245.5,297.1,246.4,298.2,246.4z"/>
	<polygon class="st0" points="302.6,245.7 301.2,245.7 301.2,244.8 302.5,244.8 302.5,244.1 301.2,244.1 301.2,243.2 302.6,243.2
		302.6,242.5 300.5,242.5 300.5,246.4 302.6,246.4 	"/>
	<polygon class="st0" points="305.2,245.7 304,245.7 304,242.5 303.3,242.5 303.3,246.4 305.2,246.4 	"/>
	<polygon class="st0" points="192.3,240.9 191.6,238.1 191.1,238.1 190.4,240.9 189.7,238.1 189,238.1 190.1,242 190.7,242
		191.3,239.5 192,242 192.5,242 193.7,238.1 192.9,238.1 	"/>
	<polygon class="st0" points="195.9,240.1 197.3,238.1 196.4,238.1 195.5,239.5 194.6,238.1 193.7,238.1 195.1,240.1 193.7,242
		194.6,242 195.5,240.7 196.4,242 197.3,242 	"/>
	<polygon class="st0" points="199.3,242 199.3,240.6 200.6,238.1 199.8,238.1 198.9,239.9 198.1,238.1 197.3,238.1 198.6,240.6
		198.6,242 	"/>
	<polygon class="st0" points="200.6,242 203.1,242 203.1,241.4 201.5,241.4 203,238.8 203,238.1 200.7,238.1 200.7,238.8
		202.1,238.8 200.6,241.4 	"/>
	<path class="st0" d="M183,203.3h-6l3.9-3.7c1.7-1.6,2.2-2.5,2.2-3.8c0-2.1-1.6-3.7-3.8-3.7c-2.3,0-3.8,1.5-3.8,4.1h1.2
		c0-2,1-3,2.6-3c1.5,0,2.6,1.1,2.6,2.5c0,1.3-1,2.3-2.3,3.5l-4.2,4.1v1.1h7.7V203.3z"/>
	<path class="st0" d="M208.8,197.5c0.8-0.6,1.2-1.3,1.2-2.3c0-1.8-1.3-3.1-3-3.1c-1.8,0-3.1,1.2-3.1,3.2h1.2c0-1.3,0.7-2.1,1.9-2.1
		c1.1,0,1.8,0.8,1.8,1.9c0,1.1-0.8,1.9-2.1,1.9c0,0-0.2,0-0.3,0l-0.3,0v1.1c0.8,0,1.1,0,1.4,0.1c1.2,0.3,2,1.4,2,2.6
		c0,1.5-1.1,2.7-2.6,2.7c-1.4,0-2.7-0.9-2.7-2.9h-1.2c0,2.5,1.7,4,3.9,4c2.1,0,3.8-1.7,3.8-3.9C210.8,199.2,210.1,198.1,208.8,197.5
		z"/>
	<path class="st0" d="M153.5,219.6H152l-5.9,8.8v1.1h6.1v2.2h1.2v-2.2h1.1v-1.1h-1.1V219.6z M152.3,228.3h-4.7l4.7-7.1V228.3z"/>
	<path class="st0" d="M183,227.6c0-2.3-1.7-4.2-4-4.2c-0.7,0-1.3,0.2-2.1,0.6l0.6-3.3h4.5v-1.1h-5.4l-1.1,5.9l0.9,0.4
		c0.7-0.9,1.5-1.4,2.5-1.4c1.6,0,2.9,1.3,2.9,3.1c0,1.8-1.3,3.1-2.9,3.1c-1.5,0-2.7-1.2-2.9-2.9h-1.2c0.4,2.5,2,4,4.1,4
		C181.2,231.8,183,230,183,227.6z"/>
	<path class="st0" d="M207.4,223.4c-0.5,0-0.9,0.1-1.4,0.3l2.8-4.2h-1.4l-3,4.4c-1.2,1.7-1.4,2.5-1.4,3.6c0,2.4,1.8,4.2,4.2,4.2
		c2.3,0,4.1-1.8,4.1-4.3C211.2,225.2,209.5,223.4,207.4,223.4z M207.2,230.7c-1.7,0-3-1.3-3-3.2c0-1.7,1.3-3.1,2.9-3.1
		c1.7,0,2.9,1.3,2.9,3.1C210,229.4,208.8,230.7,207.2,230.7z"/>
	<polygon class="st0" points="149,258.9 150.2,258.9 155.2,247.9 155.2,246.8 148.2,246.8 148.2,247.9 153.9,247.9 	"/>
	<path class="st0" d="M180.7,252.2c1-0.5,1.4-1.2,1.4-2.4c0-1.8-1.3-3.1-3.2-3.1c-1.8,0-3.2,1.3-3.2,3.1c0,1.1,0.4,1.8,1.4,2.4
		c-1.3,0.6-2,1.8-2,3.2c0,2.1,1.7,3.7,3.9,3.7c2.2,0,3.8-1.6,3.8-3.8C182.8,253.9,182,252.7,180.7,252.2z M176.9,249.6
		c0-1.1,0.8-1.9,2-1.9s2,0.8,2,2c0,1.1-0.8,2-1.9,2C177.8,251.6,176.9,250.8,176.9,249.6z M179,258c-1.6,0-2.7-1.1-2.7-2.6
		c0-1.5,1.1-2.6,2.6-2.6c1.5,0,2.6,1.1,2.6,2.6C181.5,256.9,180.5,258,179,258z"/>
	<path class="st0" d="M207.1,246.6c-2.3,0-4.1,1.8-4.1,4.3c0,2.3,1.7,4.1,3.8,4.1c0.5,0,0.9-0.1,1.4-0.3l-2.8,4.2h1.4l3-4.4
		c1.1-1.7,1.4-2.4,1.4-3.6C211.2,248.4,209.4,246.6,207.1,246.6z M207.1,253.9c-1.7,0-2.9-1.3-2.9-3.1c0-1.8,1.2-3.1,2.9-3.1
		c1.7,0,3,1.3,3,3.2C210,252.6,208.7,253.9,207.1,253.9z"/>
	<polygon class="st0" points="154.5,275.7 152.7,274.6 150.8,278 148.7,274.6 146.9,275.7 149,279.2 145,279.2 145,281.1 149,281.1
		146.8,284.4 148.7,285.4 150.7,282 152.7,285.4 154.5,284.4 152.4,281.1 156.3,281.1 156.3,279.2 152.4,279.2 	"/>
	<path class="st0" d="M178.9,273.9c-2.5,0-4,1.4-4,4.5v3.4c0,3.2,1.6,4.6,4.1,4.6c2.5,0,3.9-1.3,3.9-4.6v-3.4
		C183,275.3,181.3,273.9,178.9,273.9z M181.8,281.6c0,2.7-0.9,3.7-2.8,3.7c-1.7,0-2.9-0.9-2.9-3.7v-3c0-2.7,1.1-3.6,2.9-3.6
		c2.2,0,2.8,1.5,2.8,3.6V281.6z"/>
	<path class="st0" d="M210.6,274.1h-1.1l-0.7,3.7h-2.7l0.7-3.7h-1l-0.7,3.7h-2.2v1h2l-0.5,2.5h-1.8v1h1.6l-0.7,3.9h1.1l0.7-3.9h2.7
		l-0.7,3.9h1.1l0.7-3.9h2.2v-1h-2l0.5-2.5h1.8v-1H210L210.6,274.1z M208.2,281.4h-2.7l0.5-2.5h2.7L208.2,281.4z"/>
	<path class="st0" d="M151,187.9c-5.9,0-10.7,4.8-10.7,10.7s4.8,10.7,10.7,10.7s10.7-4.8,10.7-10.7S156.9,187.9,151,187.9z
		 M151,208.7c-5.6,0-10.2-4.6-10.2-10.2s4.6-10.2,10.2-10.2s10.2,4.6,10.2,10.2S156.6,208.7,151,208.7z"/>
	<path class="st0" d="M179.1,209.2c5.9,0,10.7-4.8,10.7-10.7s-4.8-10.7-10.7-10.7s-10.7,4.8-10.7,10.7S173.2,209.2,179.1,209.2z
		 M179.1,188.4c5.6,0,10.2,4.6,10.2,10.2s-4.6,10.2-10.2,10.2s-10.2-4.6-10.2-10.2S173.5,188.4,179.1,188.4z"/>
	<path class="st0" d="M207.1,187.9c-5.9,0-10.7,4.8-10.7,10.7s4.8,10.7,10.7,10.7c5.9,0,10.7-4.8,10.7-10.7S213,187.9,207.1,187.9z
		 M207.1,208.7c-5.6,0-10.2-4.6-10.2-10.2s4.6-10.2,10.2-10.2c5.6,0,10.2,4.6,10.2,10.2S212.7,208.7,207.1,208.7z"/>
	<path class="st0" d="M151,215c-5.9,0-10.7,4.8-10.7,10.7s4.8,10.7,10.7,10.7s10.7-4.8,10.7-10.7S156.9,215,151,215z M151,235.8
		c-5.6,0-10.2-4.6-10.2-10.2s4.6-10.2,10.2-10.2s10.2,4.6,10.2,10.2S156.6,235.8,151,235.8z"/>
	<path class="st0" d="M189.7,225.7c0-5.9-4.8-10.7-10.7-10.7s-10.7,4.8-10.7,10.7s4.8,10.7,10.7,10.7S189.7,231.5,189.7,225.7z
		 M168.9,225.7c0-5.6,4.6-10.2,10.2-10.2s10.2,4.6,10.2,10.2s-4.6,10.2-10.2,10.2S168.9,231.3,168.9,225.7z"/>
	<path class="st0" d="M207.1,215c-5.9,0-10.7,4.8-10.7,10.7s4.8,10.7,10.7,10.7c5.9,0,10.7-4.8,10.7-10.7S213,215,207.1,215z
		 M207.1,235.8c-5.6,0-10.2-4.6-10.2-10.2s4.6-10.2,10.2-10.2c5.6,0,10.2,4.6,10.2,10.2S212.7,235.8,207.1,235.8z"/>
	<path class="st0" d="M140.4,252.8c0,5.9,4.8,10.7,10.7,10.7s10.7-4.8,10.7-10.7c0-5.9-4.8-10.7-10.7-10.7S140.4,246.9,140.4,252.8z
		 M151,242.6c5.6,0,10.2,4.6,10.2,10.2s-4.6,10.2-10.2,10.2s-10.2-4.6-10.2-10.2S145.4,242.6,151,242.6z"/>
	<path class="st0" d="M179.1,242.1c-5.9,0-10.7,4.8-10.7,10.7c0,5.9,4.8,10.7,10.7,10.7s10.7-4.8,10.7-10.7
		C189.7,246.9,184.9,242.1,179.1,242.1z M179.1,262.9c-5.6,0-10.2-4.6-10.2-10.2s4.6-10.2,10.2-10.2s10.2,4.6,10.2,10.2
		S184.7,262.9,179.1,262.9z"/>
	<path class="st0" d="M207.1,242.1c-5.9,0-10.7,4.8-10.7,10.7c0,5.9,4.8,10.7,10.7,10.7c5.9,0,10.7-4.8,10.7-10.7
		C217.8,246.9,213,242.1,207.1,242.1z M207.1,262.9c-5.6,0-10.2-4.6-10.2-10.2s4.6-10.2,10.2-10.2c5.6,0,10.2,4.6,10.2,10.2
		S212.7,262.9,207.1,262.9z"/>
	<path class="st0" d="M151,269.2c-5.9,0-10.7,4.8-10.7,10.7c0,5.9,4.8,10.7,10.7,10.7s10.7-4.8,10.7-10.7
		C161.7,274,156.9,269.2,151,269.2z M151,290c-5.6,0-10.2-4.6-10.2-10.2s4.6-10.2,10.2-10.2s10.2,4.6,10.2,10.2S156.6,290,151,290z"
		/>
	<path class="st0" d="M179.1,269.2c-5.9,0-10.7,4.8-10.7,10.7c0,5.9,4.8,10.7,10.7,10.7s10.7-4.8,10.7-10.7
		C189.7,274,184.9,269.2,179.1,269.2z M179.1,290c-5.6,0-10.2-4.6-10.2-10.2s4.6-10.2,10.2-10.2s10.2,4.6,10.2,10.2
		S184.7,290,179.1,290z"/>
	<path class="st0" d="M207.1,269.2c-5.9,0-10.7,4.8-10.7,10.7c0,5.9,4.8,10.7,10.7,10.7c5.9,0,10.7-4.8,10.7-10.7
		C217.8,274,213,269.2,207.1,269.2z M207.1,290c-5.6,0-10.2-4.6-10.2-10.2s4.6-10.2,10.2-10.2c5.6,0,10.2,4.6,10.2,10.2
		S212.7,290,207.1,290z"/>
	<path class="st0" d="M279.4,186.6h-26.1c-6.5,0-11.7,5.3-11.7,11.7v26.1c0,6.5,5.3,11.7,11.7,11.7h26.1c6.5,0,11.7-5.3,11.7-11.7
		v-26.1C291.1,191.8,285.9,186.6,279.4,186.6z M290.1,224.4c0,5.9-4.8,10.7-10.7,10.7h-26.1c-5.9,0-10.7-4.8-10.7-10.7v-26.1
		c0-5.9,4.8-10.7,10.7-10.7h26.1c5.9,0,10.7,4.8,10.7,10.7V224.4z"/>
	<path class="st0" d="M272.1,202.3h-11.6c-1.8,0-3.3,1.5-3.3,3.3v11.6c0,1.8,1.5,3.3,3.3,3.3h11.6c1.8,0,3.3-1.5,3.3-3.3v-11.6
		C275.4,203.7,274,202.3,272.1,202.3z M274.4,217.1c0,1.3-1,2.3-2.3,2.3h-11.6c-1.3,0-2.3-1-2.3-2.3v-11.6c0-1.3,1-2.3,2.3-2.3h11.6
		c1.3,0,2.3,1,2.3,2.3V217.1z"/>
	<polygon class="st0" points="266.5,190.4 264.7,194 268,194 	"/>
	<polygon class="st0" points="266.2,230.8 268,227.2 264.7,227.2 	"/>
	<polygon class="st0" points="250.3,213 250.3,209.8 246.7,211.3 	"/>
	<polygon class="st0" points="283,213 286.6,211.5 283,209.8 	"/>
</g>
<g>
	<g>
		<circle id="bgnumber_27_" class="st1" cx="400.9" cy="97.2" r="7.1"/>
		<text transform="matrix(1 0 0 1 395.4146 100.6871)" class="st2 st3 st4 button" data-number="23">24</text>
	</g>
	<g>
		<circle id="bgnumber_28_" class="st1" cx="400.9" cy="114" r="7.1"/>
		<text transform="matrix(1 0 0 1 395.55 117.4442)" class="st2 st3 st4 button" data-number="22">23</text>
	</g>
	<g>
		<circle id="bgnumber_29_" class="st1" cx="400.9" cy="130.7" r="7.1"/>
		<text transform="matrix(1 0 0 1 395.6949 134.2012)" class="st2 st3 st4 button" data-number="21">22</text>
	</g>
	<g>
		<circle id="bgnumber_30_" class="st1" cx="400.9" cy="147.5" r="7.1"/>
		<text transform="matrix(1 0 0 1 396.3497 150.9583)" class="st2 st3 st4 button" data-number="20">21</text>
	</g>
	<g>
		<circle id="bgnumber_31_" class="st1" cx="400.9" cy="164.3" r="7.1"/>
		<text transform="matrix(1 0 0 1 395.3152 167.7154)" class="st2 st3 st4 button" data-number="19">20</text>
	</g>
	<g>
		<circle id="bgnumber_32_" class="st1" cx="400.9" cy="181" r="7.1"/>
		<text transform="matrix(1 0 0 1 396.1203 184.4724)" class="st2 st3 st4 button" data-number="18">19</text>
	</g>
	<g>
		<circle id="bgnumber_17_" class="st1" cx="400.9" cy="197.8" r="7.1"/>
		<text transform="matrix(1 0 0 1 396.0798 201.2337)" class="st2 st3 st4 button" data-number="17">18</text>
	</g>
	<g>
		<circle id="bgnumber_16_" class="st1" cx="400.9" cy="214.5" r="7.1"/>
		<text transform="matrix(1 0 0 1 396.5798 217.9908)" class="st2 st3 st4 button" data-number="16">17</text>
	</g>
	<g>
		<circle id="bgnumber_15_" class="st1" cx="400.9" cy="231.3" r="7.1"/>
		<text transform="matrix(1 0 0 1 396.1199 234.7479)" class="st2 st3 st4 button" data-number="15">16</text>
	</g>
	<g>
		<circle id="bgnumber_14_" class="st1" cx="400.9" cy="248" r="7.1"/>
		<text transform="matrix(1 0 0 1 396.2998 251.5046)" class="st2 st3 st4 button" data-number="14">15</text>
	</g>
	<g>
		<circle id="bgnumber_13_" class="st1" cx="400.9" cy="264.8" r="7.1"/>
		<g>
			<text transform="matrix(1 0 0 1 396.0698 268.2617)" class="st2 st3 st4 button" data-number="13">14</text>
		</g>
	</g>
	<g>
		<circle id="bgnumber_12_" class="st1" cx="400.9" cy="281.6" r="7.1"/>
		<text transform="matrix(1 0 0 1 396.2049 285.0187)" class="st2 st3 st4 button" data-number="12">13</text>
	</g>
</g>
<g>
	<g>
		<circle id="bgnumber_11_" class="st1" cx="316.1" cy="105.2" r="7.1"/>
		<text transform="matrix(1 0 0 1 311.5357 108.7661)" class="st2 st3 st4 button" data-number="11">12</text>
	</g>
	<g>
		<circle id="bgnumber_10_" class="st1" cx="316.1" cy="122" r="7.1"/>
		<text transform="matrix(1 0 0 1 312.1903 125.5231)" class="st2 st3 st4 button" data-number="10">11</text>
	</g>
	<g>
		<circle id="bgnumber_9_" class="st1" cx="316.1" cy="138.7" r="7.1"/>
		<text transform="matrix(1 0 0 1 311.1555 142.2802)" class="st2 st3 st4 button" data-number="9">10</text>
	</g>
	<g>
		<circle id="bgnumber_8_" class="st1" cx="316.1" cy="155.5" r="7.1"/>
		<text transform="matrix(1 0 0 1 310.2705 159.0372)" class="st2 st3 st4 button" data-number="8">09</text>
	</g>
	<g>
		<circle id="bgnumber_7_" class="st1" cx="316.1" cy="172.3" r="7.1"/>
		<text transform="matrix(1 0 0 1 310.2305 175.7943)" class="st2 st3 st4 button" data-number="7">08</text>
	</g>
	<g>
		<circle id="bgnumber_6_" class="st1" cx="316.1" cy="189" r="7.1"/>
		<text transform="matrix(1 0 0 1 310.7299 192.5514)" class="st2 st3 st4 button" data-number="6">07</text>
	</g>
	<g>
		<circle id="bgnumber_5_" class="st1" cx="316.1" cy="205.8" r="7.1"/>
		<text transform="matrix(1 0 0 1 310.2706 209.2296)" class="st2 st3 st4 button" data-number="5">06</text>
	</g>
	<g>
		<circle id="bgnumber_4_" class="st1" cx="316.1" cy="222.5" r="7.1"/>
		<text transform="matrix(1 0 0 1 310.4506 225.9867)" class="st2 st3 st4 button" data-number="4">05</text>
	</g>
	<g>
		<circle id="bgnumber_3_" class="st1" cx="316.1" cy="239.3" r="7.1"/>
		<text transform="matrix(1 0 0 1 310.2206 242.7438)" class="st2 st3 st4 button" data-number="3">04</text>
	</g>
	<g>
		<circle id="bgnumber_2_" class="st1" cx="316.1" cy="256" r="7.1"/>
		<text transform="matrix(1 0 0 1 310.3556 259.5008)" class="st2 st3 st4 button" data-number="2">03</text>
	</g>
	<g>
		<circle id="bgnumber_1_" class="st1" cx="316.1" cy="272.8" r="7.1"/>
		<text transform="matrix(1 0 0 1 310.5007 276.2579)" class="st2 st3 st4 button" data-number="1">02</text>
	</g>
	<g>
		<circle id="bgnumber" class="st1" cx="316.1" cy="289.6" r="7.1"/>
		<text transform="matrix(1 0 0 1 311.1554 293.0146)" class="st2 st3 st4 button" data-number="0">01</text>
	</g>
</g>
</svg>
