<?xml version="1.0" encoding="utf-8"?>
<!-- Generator: Adobe Illustrator 21.0.1, SVG Export Plug-In . SVG Version: 6.00 Build 0)  -->
<!DOCTYPE svg PUBLIC "-//W3C//DTD SVG 1.1//EN" "http://www.w3.org/Graphics/SVG/1.1/DTD/svg11.dtd">
<svg version="1.1" xmlns="http://www.w3.org/2000/svg" xmlns:xlink="http://www.w3.org/1999/xlink" x="0px" y="0px"
	 viewBox="0 0 360 469.7" style="enable-background:new 0 0 360 469.7;" xml:space="preserve">
<style type="text/css">
	.button{cursor: pointer}
	.st0{fill:#B3B2B2;}
	.st1{fill:#FFFFFF;}
	.st2{fill:#23AEE5;}
	.st3{font-family:'BrixSansRegular';}
	.st4{font-size:10px;}
</style>
<g id="Ebene_1">
	<g>
		<path class="st0" d="M342.2,50.9l-212.3-0.3l0.2-33c-0.2-9.2-8.4-17.2-17.9-17.5H50.1c-1.8,0-3.5,0.4-5.2,0.9
			c-1.1,0.4-2.2,0.8-3.2,1.4c-1,0.6-2,1.2-2.9,1.9c-4,3.2-6.7,8-6.9,13.2l-0.2,25.2v7.8H18.6C9.5,50.7,1.1,59,0.8,68.2L0,451.4
			c0.3,8.8,7.4,16.6,16.1,17.7l1.8,0.1l323.5,0.4l1.8-0.1c8-1.1,14.9-7.9,15.9-16l0.1-1.8L360,68.7
			C359.7,59.2,351.5,51.1,342.2,50.9z M31.3,194.8c-0.7-0.2-1.2-0.9-1.2-1.6c0-0.8,0.5-1.4,1.2-1.6
			C31.3,192.6,31.3,193.7,31.3,194.8z M31.3,204.4c-0.7-0.2-1.2-0.9-1.2-1.6c0-0.8,0.5-1.4,1.2-1.6
			C31.3,202.2,31.3,203.3,31.3,204.4z M31.3,214c-0.7-0.2-1.1-0.9-1.1-1.6c0-0.8,0.5-1.4,1.2-1.6C31.3,211.9,31.3,213,31.3,214z
			 M31.3,223.7c-0.7-0.2-1.1-0.9-1.1-1.6c0-0.7,0.5-1.4,1.1-1.6C31.3,221.5,31.3,222.6,31.3,223.7z M31.2,233.3
			c-0.7-0.2-1.1-0.9-1.1-1.6c0-0.7,0.5-1.4,1.1-1.6C31.3,231.2,31.3,232.2,31.2,233.3z M31.2,243c-0.7-0.3-1.1-0.9-1.1-1.6
			c0-0.7,0.5-1.4,1.1-1.6C31.2,240.8,31.2,241.9,31.2,243z M31.2,252.6c-0.6-0.3-1.1-0.9-1.1-1.6c0-0.7,0.5-1.4,1.1-1.6
			C31.2,250.5,31.2,251.5,31.2,252.6z M31.2,262.2c-0.6-0.3-1.1-0.9-1.1-1.6c0-0.7,0.5-1.4,1.1-1.6
			C31.2,260.1,31.2,261.2,31.2,262.2z M31.2,271.9c-0.6-0.3-1.1-0.9-1.1-1.6c0-0.7,0.5-1.4,1.1-1.6
			C31.2,269.7,31.2,270.8,31.2,271.9z M31.2,281.5c-0.6-0.3-1.1-0.9-1.1-1.6c0-0.7,0.5-1.4,1.1-1.6
			C31.2,279.4,31.2,280.5,31.2,281.5z M31.2,290.9c-0.5-0.2-0.8-0.7-0.8-1.3c0-0.6,0.3-1.1,0.8-1.3C31.2,289.1,31.2,290,31.2,290.9z
			 M31.4,162.7h-7.7c-0.7,0-1.2-0.2-1.5-0.6c-0.5-0.7-0.2-1.8-0.2-1.8c0,0,0-0.1,0-0.1c0,0,0.1-73.9,0.1-77.8c0-3.3,1.4-4,1.7-4.1
			h7.9C31.6,106.6,31.5,134.7,31.4,162.7z M31.3,184.6c-0.3-0.3-0.6-0.7-0.6-1.1c0-0.5,0.2-0.9,0.6-1.1
			C31.3,183.1,31.3,183.9,31.3,184.6z M31.7,77.7h-8c0,0-0.1,0-0.1,0c-0.1,0-2.3,0.7-2.3,4.8c0,3.9-0.1,75.5-0.1,77.7
			c-0.1,0.3-0.3,1.5,0.3,2.4c0.4,0.6,1.1,0.9,2.1,0.9h7.7c0,6,0,11.9,0,17.9c-0.8,0.3-1.4,1.1-1.4,2c0,0.9,0.6,1.7,1.4,2
			c0,1.7,0,3.5,0,5.2c-1.1,0.3-2,1.2-2,2.4c0,1.2,0.9,2.2,2,2.4c0,1.6,0,3.2,0,4.8c-1.1,0.3-2,1.2-2,2.4c0,1.2,0.8,2.1,2,2.4
			c0,1.6,0,3.2,0,4.8c-1.1,0.3-1.9,1.2-1.9,2.4c0,1.2,0.8,2.1,1.9,2.4c0,1.6,0,3.2,0,4.8c-1.1,0.3-1.9,1.2-1.9,2.4
			c0,1.2,0.8,2.1,1.9,2.4c0,1.6,0,3.2,0,4.8c-1.1,0.3-1.9,1.2-1.9,2.4c0,1.2,0.8,2.1,1.9,2.4c0,1.6,0,3.2,0,4.8
			c-1.1,0.3-1.9,1.2-1.9,2.4c0,1.2,0.8,2.1,1.9,2.4c0,1.6,0,3.2,0,4.8c-1.1,0.3-1.9,1.2-1.9,2.4c0,1.2,0.8,2.1,1.9,2.4
			c0,1.6,0,3.2,0,4.8c-1.1,0.3-1.9,1.2-1.9,2.4c0,1.2,0.8,2.1,1.9,2.4c0,1.6,0,3.2,0,4.8c-1.1,0.3-1.9,1.2-1.9,2.4
			c0,1.2,0.8,2.1,1.9,2.4c0,1.6,0,3.2,0,4.8c-1.1,0.3-1.9,1.2-1.9,2.4c0,1.2,0.8,2.1,1.9,2.4c0,1.7,0,3.4,0,5.1
			c-0.9,0.3-1.6,1.1-1.6,2.1c0,1,0.7,1.8,1.6,2.1c0,44.8,0.1,89.2,0.3,133.1c0.3,9.1,8.6,17.1,18.1,17.4h19.5c0.4,0,0.8-0.4,0.8-0.8
			l0-0.2l0.1-0.5h21.2l0.2,0.8l0.1,0.2c0.1,0.3,0.4,0.4,0.7,0.4h19.5c9.5-0.2,17.6-8.1,17.8-17.3c-0.2-45.3-0.3-89.6-0.3-133.2
			c0.8-0.3,1.4-1.1,1.4-2.1c0-0.9-0.6-1.7-1.4-2.1c0-1.7,0-3.5,0-5.2c1-0.3,1.7-1.3,1.7-2.4c0-1.1-0.7-2-1.7-2.4c0-1.6,0-3.3,0-4.9
			c1-0.3,1.7-1.3,1.7-2.4c0-1.1-0.7-2-1.7-2.4c0-1.6,0-3.3,0-4.9c1-0.3,1.7-1.3,1.7-2.4c0-1.1-0.7-2-1.7-2.4c0-1.6,0-3.3,0-4.9
			c1-0.3,1.7-1.3,1.7-2.4c0-1.1-0.7-2-1.7-2.4c0-1.6,0-3.3,0-4.9c1-0.3,1.7-1.3,1.7-2.4c0-1.1-0.7-2-1.7-2.4c0-1.6,0-3.3,0-4.9
			c1-0.3,1.7-1.3,1.7-2.4c0-1.1-0.7-2-1.7-2.4c0-1.6,0-3.3,0-4.9c1-0.3,1.7-1.3,1.7-2.4c0-1.1-0.7-2-1.7-2.4c0-1.6,0-3.3,0-4.9
			c1-0.3,1.7-1.3,1.7-2.4c0-1.1-0.7-2-1.7-2.4c0-1.6,0-3.3,0-4.9c1-0.3,1.7-1.3,1.7-2.4c0-1.1-0.7-2-1.7-2.4c0-1.6,0-3.3,0-4.9
			c1-0.4,1.7-1.3,1.7-2.4c0-1.1-0.7-2-1.7-2.4c0-1.8,0-3.6,0-5.5c0.6-0.4,1-1,1-1.8c0-0.8-0.4-1.4-1-1.8c0-6.1,0-12.1,0-18.1h7.8
			c1,0,1.7-0.3,2.1-0.9c0.7-0.9,0.4-2.1,0.3-2.4c0-2.2-0.1-73.9-0.1-77.7c0-4.2-2.2-4.8-2.3-4.8c0,0-0.1,0-0.1,0h-7.4
			c0-8,0.1-15.9,0.1-23.9h197.5v23.9c0,1.2,1,1.6,1.6,1.7h3.5c0.6,0,1.1-0.2,1.4-0.5c0.4-0.5,0.4-1.2,0.4-1.2V53.8h6.4
			c2.6,0,6.2,0.6,11.4,5.6c4.2,3.9,4.1,10,4.1,10L355.3,450c0,0.1-0.1,5.3-4.6,10.5c-4.6,5.2-10.9,5.1-11,5.1l-320.8-0.4
			c-0.1,0-6.6-0.7-11-5.1c-4.4-4.4-4.6-10.5-4.6-10.6C3.2,445.7,4,75.1,4,68.9c0-6,4.7-10.5,4.7-10.6c5.7-5.1,10.9-5,10.9-5l12.2,0
			C31.8,61.5,31.8,69.6,31.7,77.7z M129.7,78.5h7.3c0.3,0.1,1.7,0.8,1.7,4.1c0,3.9,0.1,77.8,0.1,77.8c0,0,0,0.1,0,0.1
			c0,0,0.3,1.1-0.2,1.8c-0.3,0.4-0.8,0.6-1.5,0.6h-7.8C129.4,134.4,129.5,106.4,129.7,78.5z M129.2,288.4c0.4,0.3,0.6,0.7,0.6,1.2
			c0,0.5-0.3,0.9-0.6,1.2C129.2,290,129.2,289.2,129.2,288.4z M129.2,278.4c0.6,0.3,0.9,0.9,0.9,1.5c0,0.7-0.4,1.2-0.9,1.5
			C129.2,280.4,129.2,279.4,129.2,278.4z M129.2,268.8c0.6,0.3,1,0.9,1,1.5c0,0.7-0.4,1.2-0.9,1.5
			C129.2,270.8,129.2,269.8,129.2,268.8z M129.2,259.1c0.6,0.3,0.9,0.9,0.9,1.5c0,0.7-0.4,1.2-0.9,1.5
			C129.2,261.1,129.2,260.1,129.2,259.1z M129.2,249.5c0.6,0.3,0.9,0.9,0.9,1.5c0,0.7-0.4,1.2-0.9,1.5
			C129.2,251.5,129.2,250.5,129.2,249.5z M129.2,239.8c0.6,0.3,0.9,0.9,0.9,1.5c0,0.7-0.4,1.2-0.9,1.5
			C129.2,241.9,129.2,240.8,129.2,239.8z M129.2,230.2c0.5,0.3,0.9,0.8,0.9,1.5c0,0.7-0.4,1.2-0.9,1.5
			C129.2,232.2,129.2,231.2,129.2,230.2z M129.2,220.6c0.5,0.3,0.9,0.8,0.9,1.5c0,0.7-0.4,1.2-0.9,1.5
			C129.2,222.6,129.2,221.6,129.2,220.6z M129.2,210.9c0.5,0.3,0.9,0.8,0.9,1.5c0,0.7-0.4,1.2-0.9,1.5
			C129.2,212.9,129.2,211.9,129.2,210.9z M129.3,201.3c0.5,0.3,0.9,0.8,0.9,1.5c0,0.6-0.4,1.2-0.9,1.5
			C129.3,203.3,129.3,202.3,129.3,201.3z M129.3,191.7c0.5,0.3,0.9,0.8,0.9,1.5c0,0.6-0.4,1.2-0.9,1.5
			C129.3,193.6,129.3,192.6,129.3,191.7z M129.3,182.8c0.1,0.2,0.2,0.5,0.2,0.7c0,0.3-0.1,0.5-0.2,0.8
			C129.3,183.8,129.3,183.3,129.3,182.8z M333.3,53.4l0,24.3c0,0,0,0.4-0.2,0.6c-0.1,0.2-0.4,0.3-0.8,0.3l-3.4,0
			c-0.1,0-0.9-0.2-0.9-0.9V53.4c0.1-0.3,0.2-0.7,0.4-1l4.7,0C333.3,52.6,333.3,52.9,333.3,53.4z M327.6,52.4
			c-0.1,0.2-0.1,0.4-0.2,0.6H129.8c0-0.3,0-0.6,0-0.8L327.6,52.4z M50.1,1.6h62c3.2,0.1,6.2,1.2,8.8,3c4.3,3,7.3,7.8,7.5,12.9
			l-0.2,25.2v7.2c-0.7,120.4-0.8,243.4-0.3,374.9c-0.2,8.2-7.8,15.6-16.3,15.8H92.7l-0.2-0.8c-0.1-0.4-0.4-0.6-0.8-0.6H69.3
			c-0.4,0-0.7,0.3-0.8,0.7l-0.1,0.8l-18.8,0c-8.7-0.3-16.2-7.6-16.5-15.9c-0.5-121.4-0.4-246.9,0.3-373.4c0,0,0,0,0,0l0.2-33.8
			C34,9.1,41.5,1.8,50.1,1.6z M357.6,451.8l-0.1,1.7c-1,7.3-7.2,13.6-14.5,14.5l-1.7,0.1l-323.4-0.4l-1.7-0.1
			c-7.9-1.1-14.4-8.2-14.6-16.2L2.4,68.2c0.3-8.4,7.9-16,16.3-16.2h13.2c0,0.2,0,0.4,0,0.6l-12.2,0c-0.2,0-5.5-0.2-11.5,5.2
			c-0.2,0.2-5,4.8-5,11.1c0,6.1-0.8,376.8-0.8,380.6c0,0.3,0.2,6.5,4.8,11.1c4.6,4.6,11.2,5.3,11.5,5.3l320.8,0.4c0,0,0.1,0,0.1,0
			c0.9,0,7-0.2,11.5-5.3c4.8-5.4,4.8-10.8,4.8-11l0.8-380.5c0-0.3,0.1-6.5-4.3-10.6c-4.3-4-8-5.8-12-5.8h-6.4c0-0.2-0.1-0.4-0.1-0.5
			l8.1,0c8.5,0.2,16,7.7,16.3,16.3L357.6,451.8z"/>
		<path class="st0" d="M24.6,120.4c0,0.3,0.7,26.9-1.2,39.8c0,0.2,0.1,0.4,0.3,0.4c0,0,0,0,0.1,0c0.2,0,0.4-0.1,0.4-0.3
			c1.9-13,1.2-39.7,1.2-39.9c-0.1-3.6-1.1-39.2-1.1-39.2l-0.8,0C23.4,81.2,24.5,116.8,24.6,120.4z"/>
		<path class="st0" d="M137.4,160.2c-1.9-12.8-1.2-39.5-1.2-39.8l1.1-39.2l-0.8,0l-1.1,39.2c0,0.3-0.7,27,1.2,39.9
			c0,0.2,0.2,0.3,0.4,0.3c0,0,0,0,0.1,0C137.3,160.6,137.4,160.4,137.4,160.2z"/>
		<path class="st0" d="M186.9,153.6h114.5c0,0,0,0,0.1,0c4.1-0.6,4.2-4.2,4.2-4.3l-0.2-48.2c-0.8-4.1-4.2-4.2-4.2-4.2H187.1
			c0,0-3.5,0.1-4.3,4.3l-0.2,48.1C182.7,150.6,183.6,153.1,186.9,153.6z M183.6,101.3c0.7-3.4,3.4-3.5,3.5-3.5h114.1
			c0.1,0,2.8,0.1,3.5,3.5l0.2,48.1c0,0.1-0.1,3-3.5,3.5l-114.4,0c-3.4-0.5-3.5-3.4-3.5-3.5L183.6,101.3z"/>
		<path class="st0" d="M230.9,174.9v4.7c0,1.8,1.4,3.2,3.2,3.2h19.6c1.8,0,3.2-1.4,3.2-3.2v-4.7c0-1.8-1.4-3.2-3.2-3.2h-19.6
			C232.3,171.7,230.9,173.1,230.9,174.9z M256.1,174.9v4.7c0,1.3-1.1,2.4-2.4,2.4h-19.6c-1.3,0-2.4-1.1-2.4-2.4v-4.7
			c0-1.3,1.1-2.4,2.4-2.4h19.6C255,172.5,256.1,173.6,256.1,174.9z"/>
		<path class="st0" d="M294.2,171.7h-19.6c-1.8,0-3.2,1.4-3.2,3.2v4.7c0,1.8,1.4,3.2,3.2,3.2h19.6c1.8,0,3.2-1.4,3.2-3.2v-4.7
			C297.4,173.1,295.9,171.7,294.2,171.7z M296.6,179.6c0,1.3-1.1,2.4-2.4,2.4h-19.6c-1.3,0-2.4-1.1-2.4-2.4v-4.7
			c0-1.3,1.1-2.4,2.4-2.4h19.6c1.3,0,2.4,1.1,2.4,2.4V179.6z"/>
		<path class="st0" d="M202.7,205.2v46.4c0,4.6,3.7,8.3,8.3,8.3h65.6c4.6,0,8.3-3.7,8.3-8.3v-46.4c0-4.6-3.7-8.3-8.3-8.3H211
			C206.4,196.9,202.7,200.7,202.7,205.2z M284.1,205.2v46.4c0,4.1-3.4,7.5-7.5,7.5H211c-4.1,0-7.5-3.4-7.5-7.5v-46.4
			c0-4.1,3.4-7.5,7.5-7.5h65.6C280.7,197.7,284.1,201.1,284.1,205.2z"/>
		<path class="st0" d="M315.2,186.6h9.1c0.9,0,1.7-0.8,1.7-1.7v-2.7c0-0.9-0.8-1.7-1.7-1.7h-9.1c-0.9,0-1.7,0.8-1.7,1.7v2.7
			C313.5,185.8,314.3,186.6,315.2,186.6z M314.3,182.2c0-0.5,0.4-0.9,0.9-0.9h9.1c0.5,0,0.9,0.4,0.9,0.9v2.7c0,0.5-0.4,0.9-0.9,0.9
			h-9.1c-0.5,0-0.9-0.4-0.9-0.9V182.2z"/>
		<path class="st0" d="M324.3,227.5h-9.1c-0.9,0-1.7,0.8-1.7,1.7v2.7c0,0.9,0.8,1.7,1.7,1.7h9.1c0.9,0,1.7-0.8,1.7-1.7v-2.7
			C326,228.3,325.2,227.5,324.3,227.5z M325.2,231.9c0,0.5-0.4,0.9-0.9,0.9h-9.1c-0.5,0-0.9-0.4-0.9-0.9v-2.7c0-0.5,0.4-0.9,0.9-0.9
			h9.1c0.5,0,0.9,0.4,0.9,0.9V231.9z"/>
		<path class="st0" d="M216.4,179.6v-4.7c0-1.8-1.4-3.2-3.2-3.2h-19.6c-1.8,0-3.2,1.4-3.2,3.2v4.7c0,1.8,1.4,3.2,3.2,3.2h19.6
			C215,182.8,216.4,181.4,216.4,179.6z M191.2,179.6v-4.7c0-1.3,1.1-2.4,2.4-2.4h19.6c1.3,0,2.4,1.1,2.4,2.4v4.7
			c0,1.3-1.1,2.4-2.4,2.4h-19.6C192.3,182,191.2,181,191.2,179.6z"/>
		<path class="st0" d="M204.5,167.8v-9.6c0-0.6-0.5-1.1-1.1-1.1s-1.1,0.5-1.1,1.1v9.6c0,0.6,0.5,1.1,1.1,1.1
			S204.5,168.4,204.5,167.8z M203,167.8v-9.6c0-0.2,0.2-0.4,0.4-0.4c0.2,0,0.4,0.2,0.4,0.4v9.6c0,0.2-0.2,0.4-0.4,0.4
			C203.2,168.1,203,168,203,167.8z"/>
		<path class="st0" d="M245.1,167.8v-9.6c0-0.6-0.5-1.1-1.1-1.1s-1.1,0.5-1.1,1.1v9.6c0,0.6,0.5,1.1,1.1,1.1
			S245.1,168.4,245.1,167.8z M243.6,167.8v-9.6c0-0.2,0.2-0.4,0.4-0.4c0.2,0,0.4,0.2,0.4,0.4v9.6c0,0.2-0.2,0.4-0.4,0.4
			C243.7,168.1,243.6,168,243.6,167.8z"/>
		<path class="st0" d="M285.6,167.8v-9.6c0-0.6-0.5-1.1-1.1-1.1s-1.1,0.5-1.1,1.1v9.6c0,0.6,0.5,1.1,1.1,1.1
			S285.6,168.4,285.6,167.8z M284.1,167.8v-9.6c0-0.2,0.2-0.4,0.4-0.4c0.2,0,0.4,0.2,0.4,0.4v9.6c0,0.2-0.2,0.4-0.4,0.4
			C284.3,168.1,284.1,168,284.1,167.8z"/>
		<path class="st0" d="M324,424.2h-8.5c-1.1,0-2,0.9-2,2s0.9,2,2,2h8.5c1.1,0,2-0.9,2-2S325.1,424.2,324,424.2z M324,427.5h-8.5
			c-0.7,0-1.2-0.6-1.2-1.2s0.6-1.2,1.2-1.2h8.5c0.7,0,1.2,0.6,1.2,1.2S324.7,427.5,324,427.5z"/>
		<path class="st0" d="M205.1,205.1v46.7c0,2.9,2.7,5.7,5.5,5.7H277c2.8,0,5.5-2.7,5.5-5.7v-46.6c0-3-2.6-5.7-5.4-5.7h-66.4
			C207.8,199.4,205.1,202.2,205.1,205.1z M281.3,205.2v46.6c0,2.3-2.1,4.5-4.3,4.5h-66.4c-2.2,0-4.3-2.2-4.3-4.5v-46.7
			c0-2.2,2.2-4.4,4.4-4.4H277C279.2,200.6,281.3,202.8,281.3,205.2z"/>
		<path class="st0" d="M221.3,244.2h45c1.5,0,2.9-1.4,2.9-3v-25.5c0-1.6-1.4-3-2.9-3h-45c-1.5,0-3,1.4-3,3v25.5
			C218.3,242.8,219.8,244.2,221.3,244.2z M219.1,215.7c0-1.1,1.1-2.2,2.2-2.2h45c1.1,0,2.1,1.1,2.1,2.2v25.5c0,1.1-1.1,2.2-2.1,2.2
			h-45c-1.1,0-2.1-1.1-2.1-2.2V215.7z"/>
		<path class="st0" d="M229.1,237.6h29.2c1.6,0,3.1-1.5,3.1-3.2v-11.8c0-1.7-1.5-3.2-3.1-3.2h-29.2c-1.7,0-3.2,1.5-3.2,3.2v11.8
			C226,236,227.5,237.6,229.1,237.6z M227.2,222.5c0-1,1-2,2-2h29.2c1,0,1.9,1,1.9,2.1v11.8c0,1-1,2-1.9,2h-29.2c-1,0-1.9-1-1.9-2
			V222.5z"/>
		<path class="st0" d="M306.7,202.7v4.7c0,1.8,1.4,3.2,3.2,3.2h19.6c1.8,0,3.2-1.4,3.2-3.2v-4.7c0-1.8-1.4-3.2-3.2-3.2h-19.6
			C308.1,199.5,306.7,200.9,306.7,202.7z M331.9,202.7v4.7c0,1.3-1.1,2.4-2.4,2.4h-19.6c-1.3,0-2.4-1.1-2.4-2.4v-4.7
			c0-1.3,1.1-2.4,2.4-2.4h19.6C330.8,200.3,331.9,201.4,331.9,202.7z"/>
		<path class="st0" d="M306.7,249.8v4.7c0,1.8,1.4,3.2,3.2,3.2h19.6c1.8,0,3.2-1.4,3.2-3.2v-4.7c0-1.8-1.4-3.2-3.2-3.2h-19.6
			C308.1,246.6,306.7,248.1,306.7,249.8z M309.9,247.4h19.6c1.3,0,2.4,1.1,2.4,2.4v4.7c0,1.3-1.1,2.4-2.4,2.4h-19.6
			c-1.3,0-2.4-1.1-2.4-2.4v-4.7C307.5,248.5,308.5,247.4,309.9,247.4z"/>
		<path class="st0" d="M306.7,299.4c0,1.8,1.4,3.2,3.2,3.2h19.6c1.8,0,3.2-1.4,3.2-3.2v-9.1c0-1.8-1.4-3.2-3.2-3.2h-19.6
			c-1.8,0-3.2,1.4-3.2,3.2V299.4z M307.5,290.3c0-1.3,1.1-2.4,2.4-2.4h19.6c1.3,0,2.4,1.1,2.4,2.4v9.1c0,1.3-1.1,2.4-2.4,2.4h-19.6
			c-1.3,0-2.4-1.1-2.4-2.4V290.3z"/>
		<path class="st0" d="M306.7,336.2c0,1.8,1.4,3.2,3.2,3.2h19.6c1.8,0,3.2-1.4,3.2-3.2v-9.1c0-1.8-1.4-3.2-3.2-3.2h-19.6
			c-1.8,0-3.2,1.4-3.2,3.2V336.2z M307.5,327.1c0-1.3,1.1-2.4,2.4-2.4h19.6c1.3,0,2.4,1.1,2.4,2.4v9.1c0,1.3-1.1,2.4-2.4,2.4h-19.6
			c-1.3,0-2.4-1.1-2.4-2.4V327.1z"/>
		<path class="st0" d="M332.7,372.1V363c0-1.8-1.4-3.2-3.2-3.2h-19.6c-1.8,0-3.2,1.4-3.2,3.2v9.1c0,1.8,1.4,3.2,3.2,3.2h19.6
			C331.3,375.3,332.7,373.9,332.7,372.1z M329.5,374.5h-19.6c-1.3,0-2.4-1.1-2.4-2.4V363c0-1.3,1.1-2.4,2.4-2.4h19.6
			c1.3,0,2.4,1.1,2.4,2.4v9.1C331.9,373.5,330.8,374.5,329.5,374.5z"/>
		<path class="st0" d="M329.5,395.8h-19.6c-1.8,0-3.2,1.4-3.2,3.2v9.1c0,1.8,1.4,3.2,3.2,3.2h19.6c1.8,0,3.2-1.4,3.2-3.2V399
			C332.7,397.2,331.3,395.8,329.5,395.8z M331.9,408.1c0,1.3-1.1,2.4-2.4,2.4h-19.6c-1.3,0-2.4-1.1-2.4-2.4V399
			c0-1.3,1.1-2.4,2.4-2.4h19.6c1.3,0,2.4,1.1,2.4,2.4V408.1z"/>
		<path class="st0" d="M269.5,433.2h-15.1c0,0-0.1,0-0.1,0c0,0-0.1,0-0.1,0h-21.6c0,0-0.1,0-0.1,0c0,0-0.1,0-0.1,0h-15.1
			c-2.3,0-4.3,1.9-4.3,4.3v5.2c0,2.4,1.9,4.3,4.3,4.3h52.3c2.3,0,4.3-1.9,4.3-4.3v-5.2C273.8,435.1,271.9,433.2,269.5,433.2z
			 M253.9,434v12.1h-21V434H253.9z M213.8,442.7v-5.2c0-1.9,1.6-3.5,3.5-3.5h14.8v12.1h-14.8C215.4,446.1,213.8,444.6,213.8,442.7z
			 M273,442.7c0,1.9-1.6,3.5-3.5,3.5h-14.8V434h14.8c1.9,0,3.5,1.6,3.5,3.5V442.7z"/>
		<path class="st0" d="M154.2,290.3v9.1c0,1.8,1.4,3.2,3.2,3.2H177c1.8,0,3.2-1.4,3.2-3.2v-9.1c0-1.8-1.4-3.2-3.2-3.2h-19.6
			C155.7,287.1,154.2,288.6,154.2,290.3z M179.5,290.3v9.1c0,1.3-1.1,2.4-2.4,2.4h-19.6c-1.3,0-2.4-1.1-2.4-2.4v-9.1
			c0-1.3,1.1-2.4,2.4-2.4H177C178.4,287.9,179.5,289,179.5,290.3z"/>
		<path class="st0" d="M154.2,336.2c0,1.8,1.4,3.2,3.2,3.2H177c1.8,0,3.2-1.4,3.2-3.2v-9.1c0-1.8-1.4-3.2-3.2-3.2h-19.6
			c-1.8,0-3.2,1.4-3.2,3.2V336.2z M155,327.1c0-1.3,1.1-2.4,2.4-2.4H177c1.3,0,2.4,1.1,2.4,2.4v9.1c0,1.3-1.1,2.4-2.4,2.4h-19.6
			c-1.3,0-2.4-1.1-2.4-2.4V327.1z"/>
		<path class="st0" d="M154.2,363v9.1c0,1.8,1.4,3.2,3.2,3.2H177c1.8,0,3.2-1.4,3.2-3.2V363c0-1.8-1.4-3.2-3.2-3.2h-19.6
			C155.7,359.8,154.2,361.3,154.2,363z M157.4,360.6H177c1.3,0,2.4,1.1,2.4,2.4v9.1c0,1.3-1.1,2.4-2.4,2.4h-19.6
			c-1.3,0-2.4-1.1-2.4-2.4V363C155,361.7,156.1,360.6,157.4,360.6z"/>
		<path class="st0" d="M177,395.8h-19.6c-1.8,0-3.2,1.4-3.2,3.2v9.1c0,1.8,1.4,3.2,3.2,3.2H177c1.8,0,3.2-1.4,3.2-3.2V399
			C180.3,397.2,178.8,395.8,177,395.8z M179.5,408.1c0,1.3-1.1,2.4-2.4,2.4h-19.6c-1.3,0-2.4-1.1-2.4-2.4V399c0-1.3,1.1-2.4,2.4-2.4
			H177c1.3,0,2.4,1.1,2.4,2.4V408.1z"/>
		<path class="st0" d="M207.4,281.8c-7.1,0-12.9,5.8-12.9,12.9c0,7.1,5.8,12.9,12.9,12.9c7.1,0,12.9-5.8,12.9-12.9
			C220.3,287.6,214.5,281.8,207.4,281.8z M207.4,306.9c-6.7,0-12.1-5.4-12.1-12.1c0-6.7,5.4-12.1,12.1-12.1
			c6.7,0,12.1,5.4,12.1,12.1C219.5,301.4,214.1,306.9,207.4,306.9z"/>
		<path class="st0" d="M243.6,281.8c-7.1,0-12.9,5.8-12.9,12.9c0,7.1,5.8,12.9,12.9,12.9c7.1,0,12.9-5.8,12.9-12.9
			C256.5,287.6,250.7,281.8,243.6,281.8z M243.6,306.9c-6.7,0-12.1-5.4-12.1-12.1c0-6.7,5.4-12.1,12.1-12.1
			c6.7,0,12.1,5.4,12.1,12.1C255.7,301.4,250.3,306.9,243.6,306.9z"/>
		<path class="st0" d="M280,281.8c-7.1,0-12.9,5.8-12.9,12.9c0,7.1,5.8,12.9,12.9,12.9c7.1,0,12.9-5.8,12.9-12.9
			C292.9,287.6,287.1,281.8,280,281.8z M280,306.9c-6.7,0-12.1-5.4-12.1-12.1c0-6.7,5.4-12.1,12.1-12.1c6.7,0,12.1,5.4,12.1,12.1
			C292.1,301.4,286.6,306.9,280,306.9z"/>
		<path class="st0" d="M207.4,318.1c-7.1,0-12.9,5.8-12.9,12.9c0,7.1,5.8,12.9,12.9,12.9c7.1,0,12.9-5.8,12.9-12.9
			C220.3,323.9,214.5,318.1,207.4,318.1z M207.4,343.2c-6.7,0-12.1-5.4-12.1-12.1c0-6.7,5.4-12.1,12.1-12.1
			c6.7,0,12.1,5.4,12.1,12.1C219.5,337.8,214.1,343.2,207.4,343.2z"/>
		<path class="st0" d="M243.6,318.1c-7.1,0-12.9,5.8-12.9,12.9c0,7.1,5.8,12.9,12.9,12.9c7.1,0,12.9-5.8,12.9-12.9
			C256.5,323.9,250.7,318.1,243.6,318.1z M243.6,343.2c-6.7,0-12.1-5.4-12.1-12.1c0-6.7,5.4-12.1,12.1-12.1
			c6.7,0,12.1,5.4,12.1,12.1C255.7,337.8,250.3,343.2,243.6,343.2z"/>
		<path class="st0" d="M280,318.1c-7.1,0-12.9,5.8-12.9,12.9c0,7.1,5.8,12.9,12.9,12.9c7.1,0,12.9-5.8,12.9-12.9
			C292.9,323.9,287.1,318.1,280,318.1z M280,343.2c-6.7,0-12.1-5.4-12.1-12.1c0-6.7,5.4-12.1,12.1-12.1c6.7,0,12.1,5.4,12.1,12.1
			C292.1,337.8,286.6,343.2,280,343.2z"/>
		<path class="st0" d="M207.4,380.3c7.1,0,12.9-5.8,12.9-12.9c0-7.1-5.8-12.9-12.9-12.9c-7.1,0-12.9,5.8-12.9,12.9
			C194.4,374.5,200.2,380.3,207.4,380.3z M207.4,355.3c6.7,0,12.1,5.4,12.1,12.1c0,6.7-5.4,12.1-12.1,12.1
			c-6.7,0-12.1-5.4-12.1-12.1C195.2,360.7,200.7,355.3,207.4,355.3z"/>
		<path class="st0" d="M243.6,354.5c-7.1,0-12.9,5.8-12.9,12.9c0,7.1,5.8,12.9,12.9,12.9c7.1,0,12.9-5.8,12.9-12.9
			C256.5,360.3,250.7,354.5,243.6,354.5z M243.6,379.6c-6.7,0-12.1-5.4-12.1-12.1c0-6.7,5.4-12.1,12.1-12.1
			c6.7,0,12.1,5.4,12.1,12.1C255.7,374.1,250.3,379.6,243.6,379.6z"/>
		<path class="st0" d="M280,354.5c-7.1,0-12.9,5.8-12.9,12.9c0,7.1,5.8,12.9,12.9,12.9c7.1,0,12.9-5.8,12.9-12.9
			C292.9,360.3,287.1,354.5,280,354.5z M280,379.6c-6.7,0-12.1-5.4-12.1-12.1c0-6.7,5.4-12.1,12.1-12.1c6.7,0,12.1,5.4,12.1,12.1
			C292.1,374.1,286.6,379.6,280,379.6z"/>
		<path class="st0" d="M220.3,403.8c0-7.1-5.8-12.9-12.9-12.9c-7.1,0-12.9,5.8-12.9,12.9c0,7.1,5.8,12.9,12.9,12.9
			C214.5,416.7,220.3,410.9,220.3,403.8z M207.4,415.9c-6.7,0-12.1-5.4-12.1-12.1c0-6.7,5.4-12.1,12.1-12.1
			c6.7,0,12.1,5.4,12.1,12.1C219.5,410.5,214.1,415.9,207.4,415.9z"/>
		<path class="st0" d="M256.5,403.8c0-7.1-5.8-12.9-12.9-12.9c-7.1,0-12.9,5.8-12.9,12.9c0,7.1,5.8,12.9,12.9,12.9
			C250.7,416.7,256.5,410.9,256.5,403.8z M243.6,415.9c-6.7,0-12.1-5.4-12.1-12.1c0-6.7,5.4-12.1,12.1-12.1
			c6.7,0,12.1,5.4,12.1,12.1C255.7,410.5,250.3,415.9,243.6,415.9z"/>
		<path class="st0" d="M280,390.8c-7.1,0-12.9,5.8-12.9,12.9c0,7.1,5.8,12.9,12.9,12.9c7.1,0,12.9-5.8,12.9-12.9
			C292.9,396.6,287.1,390.8,280,390.8z M280,415.9c-6.7,0-12.1-5.4-12.1-12.1c0-6.7,5.4-12.1,12.1-12.1c6.7,0,12.1,5.4,12.1,12.1
			C292.1,410.5,286.6,415.9,280,415.9z"/>
		<path class="st0" d="M27.3,190.8c1.4,0,2.5-1.1,2.5-2.5c0-1.4-1.1-2.5-2.5-2.5c-1.4,0-2.5,1.1-2.5,2.5
			C24.8,189.7,25.9,190.8,27.3,190.8z M27.3,186.6c1,0,1.7,0.8,1.7,1.7c0,1-0.8,1.7-1.7,1.7c-1,0-1.7-0.8-1.7-1.7
			C25.6,187.4,26.3,186.6,27.3,186.6z"/>
		<path class="st0" d="M27.3,200.5c1.4,0,2.5-1.1,2.5-2.5c0-1.4-1.1-2.5-2.5-2.5c-1.4,0-2.5,1.1-2.5,2.5
			C24.8,199.4,25.9,200.5,27.3,200.5z M27.3,196.2c1,0,1.7,0.8,1.7,1.7c0,1-0.8,1.7-1.7,1.7c-1,0-1.7-0.8-1.7-1.7
			C25.6,197,26.3,196.2,27.3,196.2z"/>
		<path class="st0" d="M27.3,210.1c1.4,0,2.5-1.1,2.5-2.5s-1.1-2.5-2.5-2.5c-1.4,0-2.5,1.1-2.5,2.5S25.9,210.1,27.3,210.1z
			 M27.3,205.9c1,0,1.7,0.8,1.7,1.7s-0.8,1.7-1.7,1.7c-1,0-1.7-0.8-1.7-1.7S26.3,205.9,27.3,205.9z"/>
		<path class="st0" d="M27.3,219.8c1.4,0,2.5-1.1,2.5-2.5c0-1.4-1.1-2.5-2.5-2.5c-1.4,0-2.5,1.1-2.5,2.5
			C24.8,218.6,25.9,219.8,27.3,219.8z M27.3,215.5c1,0,1.7,0.8,1.7,1.7c0,1-0.8,1.7-1.7,1.7c-1,0-1.7-0.8-1.7-1.7
			C25.6,216.3,26.3,215.5,27.3,215.5z"/>
		<path class="st0" d="M27.3,229.4c1.4,0,2.5-1.1,2.5-2.5s-1.1-2.5-2.5-2.5c-1.4,0-2.5,1.1-2.5,2.5S25.9,229.4,27.3,229.4z
			 M27.3,225.2c1,0,1.7,0.8,1.7,1.7c0,1-0.8,1.7-1.7,1.7c-1,0-1.7-0.8-1.7-1.7C25.6,225.9,26.3,225.2,27.3,225.2z"/>
		<path class="st0" d="M27.3,239.1c1.4,0,2.5-1.1,2.5-2.5c0-1.4-1.1-2.5-2.5-2.5c-1.4,0-2.5,1.1-2.5,2.5
			C24.8,237.9,25.9,239.1,27.3,239.1z M27.3,234.8c1,0,1.7,0.8,1.7,1.7c0,1-0.8,1.7-1.7,1.7c-1,0-1.7-0.8-1.7-1.7
			C25.6,235.6,26.3,234.8,27.3,234.8z"/>
		<path class="st0" d="M27.3,248.7c1.4,0,2.5-1.1,2.5-2.5c0-1.4-1.1-2.5-2.5-2.5c-1.4,0-2.5,1.1-2.5,2.5
			C24.8,247.6,25.9,248.7,27.3,248.7z M27.3,244.4c1,0,1.7,0.8,1.7,1.7s-0.8,1.7-1.7,1.7c-1,0-1.7-0.8-1.7-1.7
			S26.3,244.4,27.3,244.4z"/>
		<path class="st0" d="M27.3,258.3c1.4,0,2.5-1.1,2.5-2.5c0-1.4-1.1-2.5-2.5-2.5c-1.4,0-2.5,1.1-2.5,2.5
			C24.8,257.2,25.9,258.3,27.3,258.3z M27.3,254.1c1,0,1.7,0.8,1.7,1.7c0,1-0.8,1.7-1.7,1.7c-1,0-1.7-0.8-1.7-1.7
			C25.6,254.9,26.3,254.1,27.3,254.1z"/>
		<path class="st0" d="M27.3,268c1.4,0,2.5-1.1,2.5-2.5c0-1.4-1.1-2.5-2.5-2.5c-1.4,0-2.5,1.1-2.5,2.5C24.8,266.9,25.9,268,27.3,268
			z M27.3,263.7c1,0,1.7,0.8,1.7,1.7c0,1-0.8,1.7-1.7,1.7c-1,0-1.7-0.8-1.7-1.7C25.6,264.5,26.3,263.7,27.3,263.7z"/>
		<path class="st0" d="M27.3,277.6c1.4,0,2.5-1.1,2.5-2.5c0-1.4-1.1-2.5-2.5-2.5c-1.4,0-2.5,1.1-2.5,2.5
			C24.8,276.5,25.9,277.6,27.3,277.6z M27.3,273.4c1,0,1.7,0.8,1.7,1.7c0,1-0.8,1.7-1.7,1.7c-1,0-1.7-0.8-1.7-1.7
			C25.6,274.1,26.3,273.4,27.3,273.4z"/>
		<path class="st0" d="M27.3,287.3c1.4,0,2.5-1.1,2.5-2.5c0-1.4-1.1-2.5-2.5-2.5c-1.4,0-2.5,1.1-2.5,2.5
			C24.8,286.1,25.9,287.3,27.3,287.3z M27.3,283c1,0,1.7,0.8,1.7,1.7c0,1-0.8,1.7-1.7,1.7c-1,0-1.7-0.8-1.7-1.7
			C25.6,283.8,26.3,283,27.3,283z"/>
		<path class="st0" d="M133,190.8c1.4,0,2.5-1.1,2.5-2.5c0-1.4-1.1-2.5-2.5-2.5c-1.4,0-2.5,1.1-2.5,2.5
			C130.5,189.7,131.6,190.8,133,190.8z M133,186.6c1,0,1.7,0.8,1.7,1.7c0,1-0.8,1.7-1.7,1.7c-1,0-1.7-0.8-1.7-1.7
			C131.3,187.4,132,186.6,133,186.6z"/>
		<path class="st0" d="M133,200.5c1.4,0,2.5-1.1,2.5-2.5c0-1.4-1.1-2.5-2.5-2.5c-1.4,0-2.5,1.1-2.5,2.5
			C130.5,199.4,131.6,200.5,133,200.5z M133,196.2c1,0,1.7,0.8,1.7,1.7c0,1-0.8,1.7-1.7,1.7c-1,0-1.7-0.8-1.7-1.7
			C131.3,197,132,196.2,133,196.2z"/>
		<path class="st0" d="M133,210.1c1.4,0,2.5-1.1,2.5-2.5s-1.1-2.5-2.5-2.5c-1.4,0-2.5,1.1-2.5,2.5S131.6,210.1,133,210.1z
			 M133,205.9c1,0,1.7,0.8,1.7,1.7s-0.8,1.7-1.7,1.7c-1,0-1.7-0.8-1.7-1.7S132,205.9,133,205.9z"/>
		<path class="st0" d="M133,219.8c1.4,0,2.5-1.1,2.5-2.5c0-1.4-1.1-2.5-2.5-2.5c-1.4,0-2.5,1.1-2.5,2.5
			C130.5,218.6,131.6,219.8,133,219.8z M133,215.5c1,0,1.7,0.8,1.7,1.7c0,1-0.8,1.7-1.7,1.7c-1,0-1.7-0.8-1.7-1.7
			C131.3,216.3,132,215.5,133,215.5z"/>
		<path class="st0" d="M133,229.4c1.4,0,2.5-1.1,2.5-2.5s-1.1-2.5-2.5-2.5c-1.4,0-2.5,1.1-2.5,2.5S131.6,229.4,133,229.4z
			 M133,225.2c1,0,1.7,0.8,1.7,1.7c0,1-0.8,1.7-1.7,1.7c-1,0-1.7-0.8-1.7-1.7C131.3,225.9,132,225.2,133,225.2z"/>
		<path class="st0" d="M133,239.1c1.4,0,2.5-1.1,2.5-2.5c0-1.4-1.1-2.5-2.5-2.5c-1.4,0-2.5,1.1-2.5,2.5
			C130.5,237.9,131.6,239.1,133,239.1z M133,234.8c1,0,1.7,0.8,1.7,1.7c0,1-0.8,1.7-1.7,1.7c-1,0-1.7-0.8-1.7-1.7
			C131.3,235.6,132,234.8,133,234.8z"/>
		<path class="st0" d="M133,248.7c1.4,0,2.5-1.1,2.5-2.5c0-1.4-1.1-2.5-2.5-2.5c-1.4,0-2.5,1.1-2.5,2.5
			C130.5,247.6,131.6,248.7,133,248.7z M133,244.4c1,0,1.7,0.8,1.7,1.7s-0.8,1.7-1.7,1.7c-1,0-1.7-0.8-1.7-1.7S132,244.4,133,244.4z
			"/>
		<path class="st0" d="M133,258.3c1.4,0,2.5-1.1,2.5-2.5c0-1.4-1.1-2.5-2.5-2.5c-1.4,0-2.5,1.1-2.5,2.5
			C130.5,257.2,131.6,258.3,133,258.3z M133,254.1c1,0,1.7,0.8,1.7,1.7c0,1-0.8,1.7-1.7,1.7c-1,0-1.7-0.8-1.7-1.7
			C131.3,254.9,132,254.1,133,254.1z"/>
		<path class="st0" d="M133,268c1.4,0,2.5-1.1,2.5-2.5c0-1.4-1.1-2.5-2.5-2.5c-1.4,0-2.5,1.1-2.5,2.5C130.5,266.9,131.6,268,133,268
			z M133,263.7c1,0,1.7,0.8,1.7,1.7c0,1-0.8,1.7-1.7,1.7c-1,0-1.7-0.8-1.7-1.7C131.3,264.5,132,263.7,133,263.7z"/>
		<path class="st0" d="M133,277.6c1.4,0,2.5-1.1,2.5-2.5c0-1.4-1.1-2.5-2.5-2.5c-1.4,0-2.5,1.1-2.5,2.5
			C130.5,276.5,131.6,277.6,133,277.6z M133,273.4c1,0,1.7,0.8,1.7,1.7c0,1-0.8,1.7-1.7,1.7c-1,0-1.7-0.8-1.7-1.7
			C131.3,274.1,132,273.4,133,273.4z"/>
		<path class="st0" d="M133,287.3c1.4,0,2.5-1.1,2.5-2.5c0-1.4-1.1-2.5-2.5-2.5c-1.4,0-2.5,1.1-2.5,2.5
			C130.5,286.1,131.6,287.3,133,287.3z M133,283c1,0,1.7,0.8,1.7,1.7c0,1-0.8,1.7-1.7,1.7c-1,0-1.7-0.8-1.7-1.7
			C131.3,283.8,132,283,133,283z"/>
		<path class="st0" d="M35.3,422.5c0.1,4,3.2,12,13.7,13.6c0.2,0,21,0.5,31.1,0.5c10.1,0,31.1-0.5,31.3-0.5
			c10.5-1.6,13.5-9.6,13.6-13.6l-0.4-405.1C122.8,5,110.7,3.9,110.6,3.8c0,0,0,0,0,0l-60.7,0c-0.1,0-12.2,1.1-14.1,13.6L35.3,422.5z
			 M36.5,17.5C38.3,5.7,49.4,4.7,49.8,4.6h60.7c0.7,0.1,11.6,1.2,13.3,12.8l0.4,405c0,0.4-0.5,11-12.9,12.8
			c-0.2,0-21.2,0.5-31.3,0.5c-10.1,0-30.9-0.5-31-0.5c-12.4-1.9-12.9-12.4-13-12.8L36.5,17.5z"/>
		<path class="st0" d="M188,152.8h112.3c0,0,0.1,0,0.1,0c4.4-1,3.9-4.5,3.9-4.5l-0.3-45.8c-0.2-4.3-3.8-4.6-3.8-4.6l-112.1,0
			c0,0-3.6,0.3-3.8,4.6l-0.3,45.8C184,148.2,183.7,151.9,188,152.8z M184.8,148.2l0.3-45.8c0.2-3.6,3-3.8,3-3.8l112.1,0
			c0.1,0,2.9,0.3,3.1,3.8l0.3,45.9c0,0.1,0.4,2.8-3.3,3.7l-112.1,0C184.6,151.3,184.8,148.4,184.8,148.2z"/>
		<path class="st0" d="M245.3,333.5c0-1-0.8-1.7-1.7-1.7c-1,0-1.7,0.8-1.7,1.7c0,1,0.8,1.7,1.7,1.7
			C244.5,335.2,245.3,334.4,245.3,333.5z M242.6,333.5c0-0.5,0.4-1,0.9-1c0.5,0,0.9,0.4,0.9,1c0,0.5-0.4,0.9-0.9,0.9
			C243.1,334.4,242.6,334,242.6,333.5z"/>
		<path class="st0" d="M210.3,323.2h-2.2l-0.1,0.1l-7,10.5l-0.1,0.1v1.7h7.3v2.6h2.1v-2.6h1.3v-1.9h-1.3V323.2z M208.2,333.7h-4.1
			c-0.2,0-0.4-0.2-0.4-0.4c0-0.1,0-0.1,0.1-0.2l3.7-5.7c0.1-0.1,0.2-0.2,0.3-0.2c0.2,0,0.4,0.2,0.4,0.4V333.7z"/>
		<path class="st0" d="M210,361.7c0,0.1,0,0.1,0,0.2l-5.7,12.7h2.2l6-13.4v-1.7h-8.9v1.9h6.1C209.8,361.3,210,361.5,210,361.7z"/>
		<path class="st0" d="M208.9,402.5c0,0,0-0.1,0-0.1l2.6-4.6l-1.7-1l-2.6,4.6c0,0.1-0.1,0.1-0.2,0.1c-0.1,0-0.2,0-0.2-0.1l-2.6-4.6
			l-1.7,1l2.6,4.6c0,0,0,0.1,0,0.1c0,0.1-0.1,0.2-0.2,0.2h-5.3v2h5.3c0.1,0,0.2,0.1,0.2,0.2c0,0,0,0.1,0,0.1l-2.6,4.6l1.7,1l2.6-4.6
			c0-0.1,0.1-0.1,0.2-0.1c0.1,0,0.2,0,0.2,0.1l2.6,4.6l1.7-1l-2.6-4.6c0,0,0-0.1,0-0.1c0-0.1,0.1-0.2,0.2-0.2h5.3v-2h-5.3
			C209.1,402.8,208.9,402.7,208.9,402.5z"/>
		<path class="st0" d="M243.7,396c-1.6,0-3,0.7-3.9,1.8c-1,1.2-1.2,2.4-1.2,3.9v3.8c0,1.5,0.1,2.9,1.2,4.3c1,1.2,2.3,1.8,3.9,1.8
			c1.6,0,3-0.7,4-1.9c1-1.3,1.1-2.7,1.1-4.2v-3.8c0-1.8-0.4-3.1-1.3-4.1C246.5,396.6,245.1,396,243.7,396z M246.7,405.3
			c0,1,0,2.1-0.4,2.9c-0.5,0.9-1.5,1.5-2.6,1.5c-1.1,0-1.9-0.4-2.5-1.3c-0.6-0.8-0.6-2.2-0.6-3v-3.2c0-1.2,0.2-2,0.5-2.6
			c0.5-0.9,1.6-1.5,2.6-1.5c1,0,2,0.5,2.5,1.3c0.5,0.8,0.6,2,0.6,2.8V405.3z"/>
		<path class="st0" d="M246.8,366.3c-0.1-0.1-0.1-0.2-0.1-0.3c0-0.1,0-0.2,0.1-0.3c0.7-0.6,1-1.5,1-2.5c0-1.1-0.4-2.2-1.2-3
			c-0.8-0.8-1.8-1.2-2.9-1.2c-1.2,0-2.3,0.4-3.1,1.2c-0.7,0.7-1.1,1.7-1.1,2.8c0,1,0.4,2,1,2.6c0.1,0.1,0.1,0.2,0.1,0.3
			c0,0.1-0.1,0.2-0.1,0.3c-1.1,0.9-1.8,2.4-1.8,3.6c0,1.3,0.5,2.5,1.4,3.4c0.9,0.9,2.1,1.4,3.4,1.4c2.7,0,4.9-2.2,4.9-4.8
			C248.5,368.5,247.9,367.2,246.8,366.3z M243.7,361.1c0.5,0,1,0.2,1.4,0.6c0.4,0.4,0.6,0.9,0.6,1.4c0,0.5-0.2,1-0.6,1.4
			c-0.4,0.4-0.9,0.6-1.4,0.6c-0.6,0-1.1-0.2-1.5-0.6c-0.4-0.4-0.6-0.9-0.6-1.4C241.6,361.9,242.7,361.1,243.7,361.1z M245.7,371.9
			c-0.5,0.5-1.3,0.9-2.1,0.9c-0.8,0-1.5-0.3-2-0.8c-0.5-0.5-0.8-1.2-0.8-1.9c0-1.6,1.2-2.8,2.8-2.8c0.8,0,1.6,0.3,2.1,0.9
			c0.5,0.5,0.8,1.2,0.8,1.9C246.5,370.7,246.2,371.4,245.7,371.9z"/>
		<path class="st0" d="M243.5,327.7c-0.5,0-1,0.1-1.5,0.2c0,0-0.1,0-0.1,0c-0.2,0-0.4-0.2-0.4-0.4c0,0,0,0,0,0l0.5-2.6h5.4v-1.9
			h-7.1l-1.4,7.6l1.6,0.6l0.1-0.2c0.7-0.9,1.7-1.4,2.7-1.4c0.8,0,1.6,0.3,2.1,0.9c0.6,0.6,1,1.5,1,2.5c0,0.9-0.4,1.8-1,2.4
			c-0.6,0.6-1.4,0.9-2.2,0.9c-1.6,0-3-1.4-3.1-3.1l0-0.3h-2.1l0,0.3c0.2,2.9,2.5,5.1,5.3,5.1c2.8,0,5.1-2.4,5.1-5.4
			c0-1.4-0.6-2.8-1.6-3.9C246.1,328.2,244.9,327.7,243.5,327.7z"/>
		<path class="st0" d="M245.7,296.6l0.1-0.1c1.3-1.3,2.7-2.7,2.7-4.9c0-1.2-0.5-2.4-1.5-3.3c-0.9-0.9-2-1.4-3.3-1.4
			c-1.4,0-2.7,0.5-3.6,1.5c-0.9,1-1.4,2.3-1.3,3.8l0,0.3h2l0-0.3c0-0.8,0.1-1.4,0.4-1.9c0.5-0.8,1.4-1.4,2.4-1.4
			c0.8,0,1.5,0.3,2.1,0.8c0.5,0.5,0.8,1.2,0.8,1.9c0,1.4-1.2,2.5-2.1,3.4l-0.1,0.1l-5.5,5.3l-0.1,0.1v1.7h9.7v-1.9h-5.8
			c-0.2,0-0.4-0.2-0.4-0.3c0-0.1,0-0.2,0.1-0.3C243.5,298.7,245.7,296.6,245.7,296.6z"/>
		<path class="st0" d="M283.1,293.7c-0.1-0.1-0.1-0.2-0.1-0.3c0-0.1,0-0.2,0.1-0.2c0.7-0.7,0.9-1.4,0.9-2.4c0-1.1-0.4-2.1-1.2-2.9
			c-0.7-0.7-1.7-1.1-2.7-1.1c-1.1,0-2.1,0.4-2.8,1.1c-0.8,0.8-1.2,1.8-1.2,3v0.3h2.1V291c0-1,0.6-2.1,1.8-2.1c0.6,0,1.1,0.2,1.4,0.6
			c0.3,0.3,0.5,0.8,0.5,1.3c0,0.5-0.2,1-0.5,1.3c-0.4,0.4-1.1,0.6-1.9,0.6l-0.5,0l-0.3,0v1.9l0.3,0c0.1,0,0.2,0,0.4,0
			c0.5,0,1,0,1.5,0.2c1.1,0.4,1.9,1.5,1.9,2.7c0,0.8-0.3,1.5-0.9,2.1c-0.6,0.6-1.3,0.9-2.1,0.9c-0.9,0-1.8-0.5-2.3-1.4
			c-0.3-0.5-0.4-1-0.4-1.7l0-0.3h-2l0,0.3c0,1.3,0.5,2.7,1.4,3.6c0.9,0.9,2.1,1.5,3.4,1.5c2.7,0,4.9-2.2,4.9-5
			C285,296,284.3,294.6,283.1,293.7z"/>
		<path class="st0" d="M280.1,327.7c-0.1,0-0.1,0-0.2,0c-0.2,0-0.4-0.2-0.4-0.4c0-0.1,0-0.1,0.1-0.2l2.8-4.1H280l-0.1,0.1
			c0,0-3.4,5.1-3.4,5.1l-0.2,0.3c-0.9,1.4-1.7,2.5-1.7,4.4c0,1.4,0.6,2.8,1.6,3.8c1,1,2.3,1.5,3.6,1.5c1.5,0,2.8-0.5,3.8-1.6
			c0.9-1,1.5-2.4,1.5-3.7c0-1.4-0.6-2.9-1.6-3.9C282.5,328.2,281.3,327.7,280.1,327.7z M282,335.5c-0.6,0.6-1.4,0.9-2.2,0.9
			c-0.8,0-1.6-0.3-2.1-0.9c-0.6-0.7-1-1.6-1-2.6c0-1.8,1.4-3.3,3.1-3.3c0.8,0,1.6,0.3,2.2,0.9c0.6,0.6,1,1.5,1,2.5
			C283,334,282.6,334.9,282,335.5z"/>
		<path class="st0" d="M279.8,359.1c-1.5,0-2.8,0.5-3.8,1.6c-0.9,1-1.5,2.4-1.5,3.7c0,1.4,0.6,2.9,1.6,3.9c0.9,0.9,2,1.4,3.2,1.4
			c0.1,0,0.1,0,0.2,0c0.2,0,0.4,0.2,0.4,0.4c0,0.1,0,0.1-0.1,0.2l-2.4,3.6l-0.3,0.5h2.4l0.1-0.1l3.4-5.1l0.2-0.3
			c0.9-1.4,1.7-2.5,1.7-4.4c0-1.4-0.6-2.8-1.6-3.8C282.4,359.7,281.2,359.1,279.8,359.1z M281.9,367c-0.6,0.6-1.3,0.8-2.1,0.8l0,0
			l0,0c-0.7,0-1.5-0.3-2.1-0.9c-0.7-0.7-1.1-1.6-1.1-2.5c0-0.9,0.3-1.7,1-2.4c0.6-0.6,1.4-0.9,2.2-0.9c0.8,0,1.5,0.3,2.1,0.9
			c0.7,0.7,1,1.6,1,2.5C282.9,365.5,282.6,366.4,281.9,367z"/>
		<path class="st0" d="M285.5,396.7L285.5,396.7l-1.8-0.1l-0.5,2.8h-5.2l0.5-2.7l0-0.1h-1.8l-0.5,2.8h-2.8l-0.3,1.8l0,0.1h2.8
			l-0.9,5.1h-2.8l-0.3,1.8l0,0.1h2.8l-0.5,2.7l0,0.1h1.8l0.5-2.8h5.2l-0.5,2.7l0,0.1h1.8l0.5-2.8h2.8l0.3-1.8l0-0.1h-2.8l0.9-5.1
			h2.8l0.3-1.8l0-0.1H285L285.5,396.7z M282.9,401.2l-0.9,5.1h-5.2l0.9-5.1H282.9z"/>
		<polygon class="st0" points="204.2,289 206.6,289 206.6,302.2 208.7,302.2 208.7,287.1 204.2,287.1 		"/>
		<polygon class="st0" points="159.1,275.4 161,275.4 161,277.5 161.8,277.5 161.8,272.6 161,272.6 161,274.6 159.1,274.6
			159.1,272.6 158.3,272.6 158.3,277.5 159.1,277.5 		"/>
		<path class="st0" d="M164.7,277.6c0.7,0,1.2-0.3,1.6-0.8c0.4-0.5,0.5-1.1,0.5-1.8c0-0.6-0.1-1.2-0.4-1.6c-0.4-0.6-1-1-1.7-1
			c-0.9,0-1.6,0.4-1.9,1.2c-0.2,0.4-0.3,0.9-0.3,1.3c0,0.5,0.1,1,0.3,1.5C163.2,277.3,163.8,277.6,164.7,277.6z M163.3,275.1
			c0-0.6,0.1-1.1,0.4-1.4c0.2-0.3,0.5-0.4,0.9-0.4c0.3,0,0.6,0.1,0.8,0.3c0.3,0.3,0.5,0.8,0.5,1.5c0,0.5-0.1,0.9-0.3,1.2
			c-0.2,0.4-0.6,0.6-1,0.6c-0.3,0-0.6-0.1-0.8-0.3C163.5,276.2,163.3,275.7,163.3,275.1z"/>
		<polygon class="st0" points="170.1,276.8 168.3,276.8 168.3,272.6 167.5,272.6 167.5,277.5 170.1,277.5 		"/>
		<path class="st0" d="M173,277.3c0.8-0.4,1.2-1.2,1.2-2.2c0-1-0.4-1.7-1.1-2.2c-0.4-0.2-0.9-0.3-1.6-0.3h-1v4.9h1.1
			C172.2,277.5,172.7,277.4,173,277.3z M171.3,276.8v-3.4h0.2c0.5,0,0.9,0.1,1.1,0.2c0.5,0.3,0.8,0.8,0.8,1.5c0,0.7-0.2,1.2-0.7,1.5
			c-0.2,0.1-0.6,0.2-1.1,0.2H171.3z"/>
		<polygon class="st0" points="177.1,272.7 177.2,272.6 176.5,272.6 174.5,277.4 174.4,277.5 175.1,277.5 		"/>
		<path class="st0" d="M154.9,282c0,0,0-0.1,0-0.2c0-0.1,0-0.1,0-0.2c0-0.1,0-0.3,0-0.4c0-0.1,0-0.2,0-0.2c0,0,0,0,0,0
			c0,0.1,0.1,0.2,0.1,0.4l0.2,0.6l0.2,0.4l0.8,2.4h0.7l0.8-2.4c0.2-0.6,0.4-1.1,0.5-1.4l0,0.4c0,0.3,0,0.5,0,0.6v2.8h0.8v-4.9h-1.2
			l-0.8,2.4c-0.2,0.6-0.3,1-0.4,1.3c-0.1-0.2-0.2-0.5-0.3-0.9l-1-2.8h-1.2v4.9h0.8V282z"/>
		<polygon class="st0" points="162.5,280.6 162.5,279.9 160,279.9 160,284.8 162.6,284.8 162.6,284 160.8,284 160.8,282.6
			162.4,282.6 162.4,281.8 160.8,281.8 160.8,280.6 		"/>
		<path class="st0" d="M164.4,284.1c-0.2,0-0.5-0.1-0.9-0.4l-0.1-0.1l-0.4,0.7l0.1,0.1c0.4,0.3,0.8,0.5,1.3,0.5
			c0.4,0,0.8-0.1,1.1-0.3c0.3-0.3,0.5-0.6,0.5-1.1c0-0.6-0.3-1.1-1-1.4l-0.5-0.3c-0.2-0.1-0.4-0.2-0.4-0.3c-0.1-0.1-0.2-0.2-0.2-0.4
			c0-0.4,0.2-0.6,0.6-0.6c0.2,0,0.5,0.1,0.8,0.3l0.1,0.1l0.3-0.7l-0.1,0c-0.4-0.3-0.8-0.4-1.2-0.4c-0.4,0-0.7,0.1-1,0.3
			c-0.3,0.3-0.5,0.6-0.5,1c0,0.6,0.3,1,1,1.4l0.3,0.2c0.2,0.1,0.4,0.2,0.5,0.3c0.1,0.1,0.2,0.3,0.2,0.5c0,0.2-0.1,0.4-0.2,0.5
			C164.8,284,164.6,284.1,164.4,284.1z"/>
		<path class="st0" d="M167.5,284.1c-0.2,0-0.5-0.1-0.9-0.4l-0.1-0.1l-0.4,0.7l0.1,0c0.4,0.3,0.8,0.5,1.3,0.5s0.8-0.1,1.1-0.3
			c0.3-0.3,0.5-0.6,0.5-1.1c0-0.6-0.3-1.1-1-1.4l-0.5-0.3c-0.1-0.1-0.4-0.2-0.4-0.3c-0.1-0.1-0.2-0.2-0.2-0.4c0-0.4,0.2-0.6,0.6-0.6
			c0.2,0,0.5,0.1,0.8,0.3l0.1,0.1l0.3-0.7l-0.1,0c-0.4-0.3-0.8-0.4-1.2-0.4c-0.4,0-0.7,0.1-1,0.3c-0.3,0.3-0.5,0.6-0.5,1
			c0,0.6,0.3,1,1,1.4l0.3,0.2c0.2,0.1,0.4,0.2,0.5,0.3c0.1,0.1,0.2,0.3,0.2,0.5c0,0.2-0.1,0.4-0.2,0.5
			C167.9,284,167.7,284.1,167.5,284.1z"/>
		<path class="st0" d="M170.4,283.6h1.9l0.4,1.2h0.9l-1.9-4.9l0-0.1h-0.8l-1.8,4.8l-0.1,0.1h0.9L170.4,283.6z M170.6,282.8l0.4-1.2
			c0.1-0.3,0.2-0.5,0.3-0.7c0.1,0.2,0.1,0.4,0.3,0.7l0.4,1.2H170.6z"/>
		<path class="st0" d="M174.4,284.2c0.4,0.4,1,0.7,1.8,0.7c0.4,0,0.8-0.1,1.3-0.2l0.1,0V282h-1.7v0.8h0.9v1.2
			c-0.2,0.1-0.3,0.1-0.5,0.1c-0.4,0-0.7-0.1-1-0.3c-0.4-0.3-0.6-0.8-0.6-1.4c0-0.5,0.1-0.9,0.4-1.2c0.3-0.4,0.7-0.5,1.2-0.5
			c0.4,0,0.7,0.1,1,0.3l0.1,0.1l0.1-0.9l-0.1,0c-0.4-0.2-0.8-0.2-1.2-0.2c-0.7,0-1.3,0.2-1.7,0.7c-0.5,0.4-0.7,1.1-0.7,1.8
			C173.7,283.1,174,283.7,174.4,284.2z"/>
		<polygon class="st0" points="181,284 179.2,284 179.2,282.6 180.8,282.6 180.8,281.8 179.2,281.8 179.2,280.6 181,280.6
			181,279.9 178.4,279.9 178.4,284.8 181,284.8 		"/>
		<path class="st0" d="M162,347.9c0.2-0.6,0.3-1,0.4-1.4v0.1c0,0.5,0,0.7,0,0.8v2.8h0.8v-4.9h-1.1l-0.8,2.4
			c-0.2,0.5-0.3,0.9-0.4,1.2c-0.1-0.2-0.2-0.5-0.3-0.8l-0.9-2.8l0-0.1h-1.1v4.9h0.8v-2.8c0-0.1,0-0.2,0-0.4c0-0.1,0-0.2,0-0.3l0-0.1
			c0-0.1,0-0.2,0-0.2v0c0,0.1,0.1,0.3,0.1,0.4l0.2,0.5l0.1,0.4l0.8,2.3l0,0.1h0.7L162,347.9z"/>
		<path class="st0" d="M165.7,350.4c0.6,0,1.1-0.3,1.4-0.8c0.2-0.3,0.3-0.8,0.3-1.5v-2.8h-0.8v2.6c0,0.5,0,0.8-0.1,1
			c-0.1,0.4-0.4,0.6-0.8,0.6c-0.3,0-0.6-0.2-0.7-0.5c-0.1-0.2-0.2-0.6-0.2-1.2v-2.6H164v2.7c0,0.7,0.1,1.2,0.3,1.5
			C164.6,350.1,165,350.4,165.7,350.4z"/>
		<polygon class="st0" points="169.9,350.3 169.9,346.1 171.1,346.1 171.1,345.4 167.8,345.4 167.8,346.1 169.1,346.1 169.1,350.3
					"/>
		<polygon class="st0" points="174,346.1 174,345.4 171.6,345.4 171.6,350.3 174.1,350.3 174.1,349.5 172.4,349.5 172.4,348.1
			173.9,348.1 173.9,347.3 172.4,347.3 172.4,346.1 		"/>
		<polygon class="st0" points="177,345.5 177,345.4 176.4,345.4 174.5,350.2 174.4,350.3 175.1,350.3 		"/>
		<path class="st0" d="M154.3,356.4h1.8l0.4,1.2h0.9l-1.8-4.9l0-0.1h-0.7l-1.7,4.8l0,0.1h0.8L154.3,356.4z M154.6,355.6l0.4-1.2
			c0.1-0.3,0.2-0.5,0.2-0.7c0.1,0.2,0.1,0.4,0.2,0.7l0.4,1.2H154.6z"/>
		<path class="st0" d="M157.6,352.6v2.7c0,0.7,0.1,1.2,0.3,1.5c0.3,0.6,0.7,0.8,1.4,0.8c0.6,0,1.1-0.3,1.4-0.8
			c0.2-0.3,0.3-0.8,0.3-1.4v-2.8h-0.8v2.6c0,0.5,0,0.8-0.1,1c-0.1,0.4-0.4,0.6-0.8,0.6c-0.3,0-0.6-0.2-0.7-0.5
			c-0.1-0.2-0.2-0.5-0.2-1.2v-2.6H157.6z"/>
		<polygon class="st0" points="163.4,357.6 163.4,353.4 164.6,353.4 164.6,352.6 161.3,352.6 161.3,353.4 162.6,353.4 162.6,357.6
					"/>
		<path class="st0" d="M166.8,357.7c0.7,0,1.2-0.3,1.5-0.8c0.3-0.5,0.5-1.1,0.5-1.8c0-0.6-0.1-1.2-0.4-1.6c-0.4-0.6-0.9-1-1.6-1
			c-0.9,0-1.5,0.4-1.8,1.2c-0.2,0.4-0.3,0.8-0.3,1.3c0,0.5,0.1,1,0.3,1.5C165.4,357.3,166,357.7,166.8,357.7z M165.6,355.1
			c0-0.6,0.1-1.1,0.4-1.4c0.2-0.3,0.5-0.4,0.8-0.4c0.3,0,0.5,0.1,0.7,0.3c0.3,0.3,0.5,0.8,0.5,1.5c0,0.5-0.1,0.9-0.3,1.2
			c-0.2,0.4-0.5,0.6-0.9,0.6c-0.3,0-0.5-0.1-0.7-0.3C165.7,356.3,165.6,355.8,165.6,355.1z"/>
		<path class="st0" d="M171.7,356.4h1.8l0.4,1.2h0.9l-1.8-4.9l0-0.1h-0.7l-1.7,4.8l0,0.1h0.8L171.7,356.4z M172,355.6l0.4-1.2
			c0.1-0.3,0.2-0.5,0.2-0.7c0.1,0.2,0.1,0.4,0.2,0.7l0.4,1.2H172z"/>
		<path class="st0" d="M177.6,357.6h0.9v-4.9h-0.8v2.4c0,0.4,0,0.8,0,1.2c-0.1-0.2-0.2-0.5-0.3-0.7l-1.4-2.8l0-0.1h-0.9v4.9h0.8V355
			c0-0.4,0-0.8,0-1.1c0.1,0.3,0.3,0.6,0.5,1L177.6,357.6z"/>
		<path class="st0" d="M179.5,352.9c-0.3,0.3-0.4,0.6-0.4,1c0,0.6,0.3,1,0.9,1.4l0.3,0.2c0.2,0.1,0.4,0.2,0.5,0.3
			c0.1,0.1,0.2,0.3,0.2,0.5c0,0.2-0.1,0.4-0.2,0.4c-0.1,0.1-0.3,0.2-0.5,0.2c-0.2,0-0.5-0.1-0.9-0.4l-0.1-0.1l-0.3,0.7l0.1,0.1
			c0.4,0.3,0.8,0.5,1.2,0.5c0.4,0,0.8-0.1,1-0.3c0.3-0.3,0.5-0.6,0.5-1.1c0-0.6-0.3-1.1-0.9-1.4l-0.4-0.3c-0.3-0.2-0.4-0.2-0.4-0.3
			c-0.1-0.1-0.2-0.2-0.2-0.4c0-0.4,0.2-0.6,0.6-0.6c0.2,0,0.5,0.1,0.8,0.3l0.1,0.1l0.3-0.7l-0.1,0c-0.4-0.3-0.8-0.4-1.1-0.4
			C180.1,352.5,179.8,352.6,179.5,352.9z"/>
		<polygon class="st0" points="154.2,393.7 155,393.7 155,391.5 156.8,391.5 156.8,393.7 157.6,393.7 157.6,388.7 156.8,388.7
			156.8,390.7 155,390.7 155,388.7 154.2,388.7 		"/>
		<polygon class="st0" points="161.1,389.5 161.1,388.7 158.5,388.7 158.5,393.7 161.2,393.7 161.2,392.9 159.4,392.9 159.4,391.5
			161,391.5 161,390.7 159.4,390.7 159.4,389.5 		"/>
		<path class="st0" d="M163.3,388.7l-1.8,4.8l-0.1,0.1h0.9l0.4-1.2h1.9l0.4,1.2h0.9l-1.9-4.9l0-0.1H163.3z M164.3,391.7h-1.4
			l0.4-1.2c0.1-0.3,0.2-0.6,0.3-0.8c0.1,0.2,0.2,0.4,0.3,0.7L164.3,391.7z"/>
		<path class="st0" d="M167.3,388.7h-1v4.9h1.1c0.6,0,1.1-0.1,1.4-0.3c0.8-0.4,1.2-1.2,1.2-2.2c0-1-0.4-1.7-1.1-2.2
			C168.5,388.8,168,388.7,167.3,388.7z M168.4,389.7c0.5,0.3,0.8,0.8,0.8,1.5c0,0.7-0.2,1.2-0.7,1.5c-0.2,0.1-0.6,0.2-1.1,0.2h-0.2
			v-3.4h0.2C167.8,389.5,168.2,389.6,168.4,389.7z"/>
		<path class="st0" d="M172.9,393c-0.2,0-0.5-0.1-0.9-0.4l-0.1-0.1l-0.4,0.7l0.1,0.1c0.4,0.3,0.8,0.5,1.3,0.5c0.4,0,0.8-0.1,1.1-0.3
			c0.3-0.3,0.5-0.6,0.5-1.1c0-0.6-0.3-1.1-1-1.4l-0.5-0.3c-0.3-0.2-0.4-0.2-0.4-0.3c-0.1-0.1-0.2-0.2-0.2-0.4c0-0.4,0.2-0.6,0.6-0.6
			c0.2,0,0.5,0.1,0.8,0.3l0.1,0.1l0.3-0.7l-0.1,0c-0.4-0.3-0.8-0.4-1.2-0.4c-0.4,0-0.7,0.1-1,0.3c-0.3,0.3-0.5,0.6-0.5,1
			c0,0.6,0.3,1,1,1.4l0.3,0.2c0.3,0.1,0.4,0.2,0.5,0.3c0.1,0.1,0.2,0.3,0.2,0.5c0,0.2-0.1,0.4-0.2,0.5
			C173.3,392.9,173.1,393,172.9,393z"/>
		<polygon class="st0" points="177.6,389.5 177.6,388.7 175,388.7 175,393.7 177.7,393.7 177.7,392.9 175.8,392.9 175.8,391.5
			177.5,391.5 177.5,390.7 175.8,390.7 175.8,389.5 		"/>
		<polygon class="st0" points="177.9,389.5 179.3,389.5 179.3,393.7 180.1,393.7 180.1,389.5 181.4,389.5 181.4,388.7 177.9,388.7
					"/>
		<path class="st0" d="M160.6,317.4c0-0.4-0.1-0.8-0.4-1c-0.3-0.2-0.8-0.3-1.5-0.3h-1.1v4.9h0.8v-2.1h0.3c0.4,0,0.5,0,0.6,0.1
			c0.1,0,0.2,0.1,0.3,0.6l0.6,1.4l0,0.1h0.9l-0.8-1.9c-0.1-0.2-0.2-0.4-0.4-0.6C160.3,318.4,160.6,318,160.6,317.4z M159.8,317.5
			c0,0.2-0.1,0.3-0.2,0.5c-0.1,0.1-0.3,0.2-1,0.2h-0.3v-1.3h0.3c0.5,0,0.7,0.1,0.8,0.1C159.7,317.1,159.8,317.2,159.8,317.5z"/>
		<polygon class="st0" points="164,316.8 164,316.1 161.4,316.1 161.4,321 164,321 164,320.2 162.2,320.2 162.2,318.8 163.9,318.8
			163.9,318 162.2,318 162.2,316.8 		"/>
		<path class="st0" d="M165.8,316.1h-1v4.9h1.1c0.6,0,1.1-0.1,1.4-0.3c0.8-0.4,1.2-1.2,1.2-2.2c0-1-0.4-1.7-1.1-2.2
			C167.1,316.2,166.5,316.1,165.8,316.1z M166.9,317c0.5,0.3,0.8,0.8,0.8,1.5c0,0.7-0.2,1.2-0.7,1.5c-0.2,0.1-0.6,0.2-1.1,0.2h-0.2
			v-3.4h0.2C166.3,316.8,166.7,316.9,166.9,317z"/>
		<rect x="169.3" y="316.1" class="st0" width="0.8" height="4.9"/>
		<path class="st0" d="M172.3,316.1l-1.8,4.8l-0.1,0.1h0.9l0.4-1.2h1.9l0.4,1.2h0.9l-1.9-4.9l0-0.1H172.3z M173.4,319H172l0.4-1.2
			c0.1-0.3,0.2-0.5,0.3-0.7c0.1,0.2,0.2,0.5,0.3,0.7L173.4,319z"/>
		<polygon class="st0" points="175.4,316.1 175.4,321 178,321 178,320.2 176.2,320.2 176.2,316.1 		"/>
		<path class="st0" d="M315,316.8c0.3,0,0.6,0.1,0.9,0.3l0.1,0.1l0.1-0.9l-0.1,0c-0.3-0.1-0.6-0.2-1-0.2c-0.6,0-1,0.2-1.5,0.5
			c-0.6,0.5-0.9,1.1-0.9,2c0,0.6,0.1,1.1,0.4,1.6c0.4,0.6,1.1,1,2,1c0.3,0,0.7-0.1,1-0.2l0.1,0l-0.1-0.9l-0.1,0.1
			c-0.8,0.3-1.4,0.2-1.9-0.2c-0.3-0.3-0.5-0.8-0.5-1.3c0-0.4,0.1-0.8,0.3-1.1C314.2,317,314.6,316.8,315,316.8z"/>
		<path class="st0" d="M318.6,316c-0.9,0-1.6,0.4-1.9,1.2c-0.2,0.4-0.3,0.9-0.3,1.3c0,0.5,0.1,1,0.3,1.5c0.4,0.7,1,1.1,1.8,1.1
			c0.7,0,1.2-0.3,1.6-0.7c0.4-0.5,0.5-1.1,0.5-1.8c0-0.6-0.1-1.2-0.4-1.6C320,316.3,319.4,316,318.6,316z M319.9,318.6
			c0,0.5-0.1,0.9-0.3,1.2c-0.2,0.4-0.6,0.6-1,0.6c-0.3,0-0.6-0.1-0.8-0.3c-0.4-0.3-0.5-0.8-0.5-1.5c0-0.6,0.1-1.1,0.4-1.4
			c0.2-0.3,0.5-0.4,0.9-0.4c0.3,0,0.6,0.1,0.8,0.3C319.7,317.4,319.9,317.9,319.9,318.6z"/>
		<path class="st0" d="M324,321L324,321l1,0.1v-4.9h-0.8v2.4c0,0.5,0,0.9,0,1.2c-0.1-0.2-0.2-0.5-0.4-0.7l-1.5-2.8l0-0.1h-1v4.9h0.8
			v-2.5c0-0.4,0-0.8,0-1.2c0.1,0.3,0.3,0.6,0.5,1L324,321z"/>
		<polygon class="st0" points="328.4,316.9 328.4,316.1 325.9,316.1 325.9,321 326.7,321 326.7,318.9 328.3,318.9 328.3,318.1
			326.7,318.1 326.7,316.9 		"/>
		<path class="st0" d="M308.7,393.3c0.3-0.3,0.5-0.6,0.5-1.1c0-0.6-0.3-1.1-1-1.4l-0.5-0.3c-0.3-0.2-0.4-0.2-0.4-0.3
			c-0.1-0.1-0.2-0.2-0.2-0.4c0-0.4,0.2-0.6,0.6-0.6c0.2,0,0.5,0.1,0.8,0.3l0.1,0.1l0.3-0.7l-0.1,0c-0.4-0.3-0.8-0.4-1.2-0.4
			c-0.4,0-0.7,0.1-1,0.3c-0.3,0.3-0.5,0.6-0.5,1c0,0.6,0.3,1,1,1.4l0.3,0.2c0.3,0.1,0.4,0.2,0.5,0.3c0.1,0.1,0.2,0.3,0.2,0.5
			c0,0.2-0.1,0.3-0.2,0.4c-0.1,0.1-0.3,0.2-0.5,0.2c-0.2,0-0.5-0.1-0.9-0.4l-0.1-0.1l-0.4,0.7l0.1,0c0.4,0.3,0.8,0.4,1.3,0.4
			C308.1,393.6,308.4,393.5,308.7,393.3z"/>
		<path class="st0" d="M310.7,388.6h-0.9v4.9h0.8v-1.9h0.2c0.6,0,1.1-0.1,1.4-0.2c0.4-0.3,0.7-0.7,0.7-1.3c0-0.7-0.3-1.2-0.8-1.4
			C311.8,388.6,311.3,388.6,310.7,388.6z M312,390.1c0,0.2-0.1,0.4-0.2,0.5c-0.1,0.2-0.5,0.3-1,0.3h-0.2v-1.5h0.2
			c0.4,0,0.7,0,0.9,0.1C311.8,389.6,312,389.8,312,390.1z"/>
		<rect x="313" y="390.7" class="st0" width="1.8" height="0.7"/>
		<path class="st0" d="M316.2,388.6h-0.9v4.9h0.8v-1.9h0.2c0.6,0,1.1-0.1,1.4-0.2c0.4-0.3,0.7-0.7,0.7-1.3c0-0.7-0.3-1.2-0.8-1.4
			C317.3,388.6,316.9,388.6,316.2,388.6z M317.5,390.1c0,0.2-0.1,0.4-0.2,0.5c-0.1,0.2-0.5,0.3-1,0.3h-0.2v-1.5h0.2
			c0.4,0,0.7,0,0.9,0.1C317.4,389.6,317.5,389.8,317.5,390.1z"/>
		<polygon class="st0" points="322.2,393.5 322.2,388.6 321.4,388.6 321.4,390.6 319.6,390.6 319.6,388.6 318.7,388.6 318.7,393.5
			319.6,393.5 319.6,391.3 321.4,391.3 321.4,393.5 		"/>
		<path class="st0" d="M325,388.5c-0.9,0-1.6,0.4-1.9,1.2c-0.2,0.4-0.3,0.8-0.3,1.3c0,0.5,0.1,1,0.3,1.5c0.4,0.7,1,1.1,1.8,1.1
			c0.7,0,1.2-0.3,1.6-0.7c0.4-0.5,0.5-1.1,0.5-1.8c0-0.6-0.1-1.2-0.4-1.6C326.3,388.8,325.7,388.5,325,388.5z M326.3,391.1
			c0,0.5-0.1,0.9-0.3,1.2c-0.2,0.4-0.6,0.6-1,0.6c-0.3,0-0.6-0.1-0.8-0.3c-0.4-0.3-0.5-0.8-0.5-1.5c0-0.6,0.1-1.1,0.4-1.4
			c0.2-0.3,0.5-0.4,0.9-0.4c0.3,0,0.6,0.1,0.8,0.3C326.1,389.9,326.3,390.4,326.3,391.1z"/>
		<path class="st0" d="M330.2,393.5L330.2,393.5l1,0.1v-4.9h-0.8v2.4c0,0.5,0,0.9,0,1.2c-0.1-0.2-0.2-0.5-0.4-0.7l-1.5-2.8h-1v4.9
			h0.8V391c0-0.4,0-0.8,0-1.1c0.1,0.3,0.3,0.6,0.5,1L330.2,393.5z"/>
		<polygon class="st0" points="332.8,391.3 334.4,391.3 334.4,390.6 332.8,390.6 332.8,389.4 334.5,389.4 334.5,388.6 332,388.6
			332,393.5 334.6,393.5 334.6,392.7 332.8,392.7 		"/>
		<polygon class="st0" points="305.7,353.3 307,353.3 307,357.4 307.8,357.4 307.8,353.3 309.2,353.3 309.2,352.5 305.7,352.5 		"/>
		<path class="st0" d="M312.7,353.8c0-0.4-0.1-0.8-0.4-1c-0.3-0.2-0.7-0.3-1.5-0.3h-1.1v4.9h0.8v-2.1h0.3c0.4,0,0.5,0,0.6,0.1
			c0.1,0,0.2,0.2,0.3,0.6l0.6,1.4l0,0.1h0.9h0h0.9l0.4-1.2h1.9l0.4,1.2h0.9l-1.9-4.9l0-0.1H315l-1.8,4.8l0,0.1l-0.8-1.8
			c-0.1-0.2-0.2-0.4-0.4-0.6C312.5,354.8,312.7,354.4,312.7,353.8z M314.7,355.4l0.4-1.2c0.1-0.3,0.2-0.5,0.3-0.7
			c0.1,0.2,0.2,0.5,0.3,0.7l0.4,1.2H314.7z M311.9,353.9c0,0.2-0.1,0.4-0.2,0.5c-0.1,0.1-0.5,0.2-1,0.2h-0.3v-1.3h0.3
			c0.4,0,0.7,0,0.8,0.1C311.8,353.5,311.9,353.6,311.9,353.9z"/>
		<path class="st0" d="M319,352.5h-1v4.9h0.8v-2.5c0-0.4,0-0.8,0-1.2c0.1,0.3,0.3,0.6,0.5,1l1.3,2.6l0,0.1h0.9v-4.9h-0.8v2.4
			c0,0.5,0,0.9,0,1.2c-0.1-0.2-0.2-0.5-0.4-0.7L319,352.5z"/>
		<path class="st0" d="M323.6,356.7c-0.2,0-0.5-0.1-0.9-0.4l-0.1-0.1l-0.4,0.7l0.1,0c0.4,0.3,0.8,0.5,1.3,0.5c0.4,0,0.8-0.1,1.1-0.3
			c0.3-0.3,0.5-0.7,0.5-1.1c0-0.6-0.3-1.1-1-1.4l-0.5-0.3c-0.2-0.1-0.4-0.2-0.4-0.3c-0.1-0.1-0.2-0.2-0.2-0.4c0-0.4,0.2-0.6,0.6-0.6
			c0.2,0,0.5,0.1,0.8,0.3l0.1,0.1l0.3-0.7l-0.1,0c-0.4-0.3-0.8-0.4-1.2-0.4c-0.4,0-0.7,0.1-1,0.3c-0.3,0.3-0.5,0.6-0.5,1
			c0,0.6,0.3,1,1,1.4l0.3,0.2c0.3,0.1,0.4,0.2,0.5,0.3c0.1,0.1,0.2,0.3,0.2,0.5c0,0.2-0.1,0.4-0.2,0.5
			C324,356.7,323.8,356.7,323.6,356.7z"/>
		<polygon class="st0" points="328.1,353.3 328.1,352.5 325.6,352.5 325.6,357.4 326.4,357.4 326.4,355.2 328,355.2 328,354.5
			326.4,354.5 326.4,353.3 		"/>
		<polygon class="st0" points="331.2,353.3 331.2,352.5 328.6,352.5 328.6,357.4 331.2,357.4 331.2,356.6 329.4,356.6 329.4,355.2
			331,355.2 331,354.5 329.4,354.5 329.4,353.3 		"/>
		<path class="st0" d="M331.9,352.5v4.9h0.8v-2.1h0.3c0.4,0,0.5,0,0.6,0.1c0.1,0,0.2,0.2,0.3,0.6l0.6,1.4l0,0.1h0.9l-0.8-1.9
			c-0.1-0.2-0.2-0.4-0.4-0.6c0.5-0.2,0.8-0.6,0.8-1.1c0-0.4-0.1-0.8-0.4-1c-0.3-0.2-0.7-0.3-1.5-0.3H331.9z M334.1,353.9
			c0,0.2-0.1,0.3-0.2,0.5c-0.1,0.1-0.3,0.2-1,0.2h-0.3v-1.3h0.3c0.4,0,0.7,0,0.8,0.1C334,353.5,334.1,353.6,334.1,353.9z"/>
		<path class="st0" d="M233.4,389.7c0.6,0,1.1-0.3,1.4-0.8c0.3-0.5,0.5-1.1,0.5-1.8c0-0.6-0.1-1.2-0.4-1.6c-0.3-0.6-0.9-1-1.5-1
			c-0.8,0-1.4,0.4-1.7,1.2c-0.2,0.4-0.2,0.8-0.2,1.3c0,0.5,0.1,1,0.3,1.5C232.1,389.3,232.6,389.7,233.4,389.7z M232.2,387.1
			c0-0.6,0.1-1.1,0.4-1.4c0.2-0.3,0.5-0.4,0.8-0.4c0.3,0,0.5,0.1,0.7,0.3c0.3,0.3,0.4,0.8,0.4,1.5c0,0.5-0.1,0.9-0.3,1.2
			c-0.2,0.4-0.5,0.6-0.9,0.6c-0.3,0-0.5-0.1-0.7-0.3C232.4,388.3,232.2,387.8,232.2,387.1z"/>
		<path class="st0" d="M236.8,387.7c0.6,0,1-0.1,1.2-0.2c0.4-0.3,0.6-0.7,0.6-1.3c0-0.7-0.3-1.1-0.7-1.4c-0.2-0.1-0.6-0.1-1.2-0.1
			h-0.8v4.9h0.7v-1.9H236.8z M237.8,386.2c0,0.2,0,0.4-0.1,0.5c-0.1,0.2-0.4,0.3-0.9,0.3h-0.2v-1.5h0.1c0.4,0,0.6,0,0.8,0.1
			C237.7,385.6,237.8,385.8,237.8,386.2z"/>
		<polygon class="st0" points="241.3,385.4 241.3,384.6 239,384.6 239,389.6 241.4,389.6 241.4,388.8 239.8,388.8 239.8,387.4
			241.2,387.4 241.2,386.6 239.8,386.6 239.8,385.4 		"/>
		<path class="st0" d="M244.8,386c0-0.4-0.1-0.8-0.4-1c-0.2-0.2-0.7-0.3-1.4-0.3h-1v4.9h0.7v-2.1h0.2c0.3,0,0.5,0,0.5,0.1
			c0.1,0,0.2,0.1,0.3,0.6l0.5,1.5h0.8l-0.7-1.9c-0.1-0.2-0.2-0.4-0.4-0.6C244.6,387,244.8,386.6,244.8,386z M244,386
			c0,0.2-0.1,0.4-0.2,0.5c-0.1,0.1-0.3,0.2-0.8,0.2h-0.2v-1.3h0.3c0.5,0,0.6,0.1,0.7,0.1C244,385.6,244,385.8,244,386z"/>
		<path class="st0" d="M234.1,279.3l0.4,1.2h0.8l-1.7-4.9l0-0.1h-0.7l-1.7,4.9h0.8l0.4-1.2H234.1z M233.9,278.6h-1.2l0.4-1.2
			c0.1-0.3,0.2-0.5,0.2-0.7c0.1,0.2,0.1,0.4,0.2,0.7L233.9,278.6z"/>
		<path class="st0" d="M238.3,276.9c0-0.5-0.2-0.9-0.5-1.1c-0.2-0.2-0.6-0.2-1.1-0.2h-1.2v4.9h1.3c0.4,0,0.7-0.1,0.9-0.2
			c0.4-0.3,0.6-0.7,0.6-1.2c0-0.6-0.2-1-0.7-1.1C238.1,277.8,238.3,277.4,238.3,276.9z M237.7,279.1c0,0.4-0.3,0.7-0.9,0.7h-0.5
			v-1.4h0.3C237.4,278.4,237.7,278.6,237.7,279.1z M236.8,277.6h-0.4v-1.2h0.3c0.8,0,0.9,0.4,0.9,0.6
			C237.6,277.2,237.5,277.6,236.8,277.6z"/>
		<path class="st0" d="M240.9,276.3c0.2,0,0.5,0.1,0.8,0.3l0.1,0.1l0.1-0.9l-0.1,0c-0.3-0.1-0.6-0.2-0.9-0.2c-0.5,0-0.9,0.2-1.3,0.5
			c-0.5,0.5-0.8,1.1-0.8,2c0,0.6,0.1,1.1,0.4,1.6c0.4,0.6,1,1,1.8,1c0.3,0,0.6-0.1,0.9-0.2l0.1,0l-0.1-0.9l-0.1,0.1
			c-0.7,0.3-1.2,0.2-1.7-0.2c-0.3-0.3-0.5-0.8-0.5-1.3c0-0.4,0.1-0.8,0.3-1.1C240.2,276.5,240.5,276.3,240.9,276.3z"/>
		<path class="st0" d="M268.7,275.6h-0.9v4.9h1c0.5,0,1-0.1,1.3-0.3c0.7-0.4,1.1-1.2,1.1-2.2c0-1-0.3-1.7-1-2.2
			C269.9,275.7,269.4,275.6,268.7,275.6z M269.7,276.6c0.5,0.3,0.7,0.8,0.7,1.5c0,0.7-0.2,1.2-0.7,1.5c-0.2,0.1-0.5,0.2-1,0.2h-0.2
			v-3.4h0.2C269.2,276.4,269.5,276.4,269.7,276.6z"/>
		<polygon class="st0" points="274.1,276.4 274.1,275.6 271.8,275.6 271.8,280.5 274.1,280.5 274.1,279.7 272.5,279.7 272.5,278.3
			274,278.3 274,277.6 272.5,277.6 272.5,276.4 		"/>
		<polygon class="st0" points="277,276.4 277,275.6 274.8,275.6 274.8,280.5 275.5,280.5 275.5,278.4 276.9,278.4 276.9,277.6
			275.5,277.6 275.5,276.4 		"/>
		<path class="st0" d="M197.3,312.7c0.3,0,0.6,0.1,0.9,0.3l0.1,0.1l0.1-0.9l-0.1,0c-0.3-0.2-0.7-0.2-1.1-0.2c-0.6,0-1.2,0.2-1.6,0.7
			c-0.4,0.4-0.6,1.1-0.6,1.8c0,0.8,0.2,1.4,0.6,1.9c0.4,0.4,0.9,0.7,1.6,0.7c0.4,0,0.7-0.1,1.1-0.2l0.1,0v-2.6h-1.5v0.8h0.8v1.2
			c-0.2,0.1-0.3,0.1-0.4,0.1c-0.3,0-0.6-0.1-0.9-0.3c-0.4-0.3-0.6-0.8-0.6-1.4c0-0.5,0.1-0.9,0.4-1.2
			C196.5,312.8,196.9,312.7,197.3,312.7z"/>
		<polygon class="st0" points="199.2,311.9 199.2,316.9 200,316.9 200,314.7 201.6,314.7 201.6,316.9 202.4,316.9 202.4,311.9
			201.6,311.9 201.6,313.9 200,313.9 200,311.9 		"/>
		<rect x="203.2" y="311.9" class="st0" width="0.7" height="4.9"/>
		<path class="st0" d="M233,316.3c0.1-0.2,0.1-0.5,0.1-1.1v-3.3h-0.7v3.2c0,0.5-0.1,0.8-0.1,0.9c0,0.1-0.1,0.2-0.3,0.2
			c-0.1,0-0.2,0-0.4-0.1l-0.1-0.1v0.9l0.1,0c0.2,0.1,0.4,0.1,0.5,0.1C232.5,316.9,232.8,316.7,233,316.3z"/>
		<path class="st0" d="M234.6,311.9h-0.7v4.9h0.7v-2c0-0.1,0-0.1,0-0.2c0.1,0.1,0.1,0.2,0.2,0.2l1.4,1.9h1l-2-2.6l1.9-2.3h-1
			l-1.4,1.8c0,0.1-0.1,0.1-0.1,0.2c0-0.1,0-0.2,0-0.2V311.9z"/>
		<polygon class="st0" points="237.5,311.9 237.5,316.9 239.8,316.9 239.8,316.1 238.2,316.1 238.2,311.9 		"/>
		<polygon class="st0" points="233.1,353.2 233.1,349 234.3,349 234.3,348.3 231.2,348.3 231.2,349 232.4,349 232.4,353.2 		"/>
		<path class="st0" d="M234.7,348.3v2.7c0,0.7,0.1,1.2,0.2,1.5c0.3,0.6,0.7,0.8,1.3,0.8c0.6,0,1.1-0.3,1.3-0.8
			c0.2-0.3,0.2-0.8,0.2-1.4v-2.8H237v2.6c0,0.5,0,0.8-0.1,1c-0.1,0.4-0.4,0.6-0.7,0.6c-0.3,0-0.5-0.2-0.7-0.5
			c-0.1-0.2-0.2-0.6-0.2-1.2v-2.6H234.7z"/>
		<path class="st0" d="M241.9,348.3h-0.8l-0.9,3.2c-0.1,0.2-0.1,0.4-0.2,0.6c0-0.2-0.1-0.4-0.2-0.6l-0.9-3.1l0-0.1h-0.8l1.5,4.9h0.8
			L241.9,348.3z"/>
		<path class="st0" d="M271.3,314.1v2.8h0.7v-4.9H271l-0.7,2.4c-0.2,0.5-0.3,0.9-0.4,1.2c-0.1-0.2-0.1-0.5-0.2-0.8l-0.9-2.8l0-0.1
			h-1.1v4.9h0.7v-2.8c0-0.1,0-0.2,0-0.4l0-0.1c0-0.1,0-0.2,0-0.3v0c0,0,0-0.1,0-0.1c0,0.1,0.1,0.2,0.1,0.4l0.2,0.5l0.1,0.4l0.7,2.4
			h0.7l0.7-2.4c0.2-0.6,0.3-1,0.4-1.4v0.1C271.3,313.7,271.3,314,271.3,314.1z"/>
		<path class="st0" d="M273.8,312L273.8,312l-0.9-0.1v4.9h0.7v-2.5c0-0.4,0-0.8,0-1.1c0.1,0.3,0.3,0.6,0.4,1l1.2,2.6l0,0.1h0.9v-4.9
			h-0.7v2.4c0,0.4,0,0.8,0,1.1c-0.1-0.2-0.2-0.4-0.3-0.7L273.8,312z"/>
		<path class="st0" d="M278.6,317c0.6,0,1.1-0.3,1.4-0.8c0.3-0.5,0.5-1.1,0.5-1.8c0-0.6-0.1-1.2-0.3-1.6c-0.3-0.6-0.9-1-1.6-1
			c-0.8,0-1.4,0.4-1.7,1.2c-0.2,0.4-0.2,0.9-0.2,1.3c0,0.5,0.1,1,0.3,1.5C277.3,316.6,277.8,317,278.6,317z M277.4,314.4
			c0-0.6,0.1-1.1,0.4-1.4c0.2-0.3,0.5-0.4,0.8-0.4c0.3,0,0.5,0.1,0.7,0.3c0.3,0.3,0.5,0.9,0.5,1.5c0,0.5-0.1,0.9-0.3,1.2
			c-0.2,0.4-0.5,0.6-0.9,0.6c-0.3,0-0.5-0.1-0.7-0.3C277.6,315.6,277.4,315.1,277.4,314.4z"/>
		<path class="st0" d="M269.7,353.2l0.6-3.2c0-0.1,0.1-0.3,0.1-0.5c0,0.2,0.1,0.4,0.1,0.5l0.7,3.1l0,0.1h0.8l1.2-4.9h-0.8l-0.7,2.8
			c-0.1,0.3-0.1,0.5-0.2,0.8c-0.1-0.3-0.1-0.6-0.2-0.8l-0.6-2.8l0-0.1h-0.9l-0.6,2.8c-0.1,0.3-0.1,0.6-0.1,0.8
			c0-0.2-0.1-0.5-0.2-0.7l-0.7-2.8l0-0.1h-0.8l1.2,4.9l0,0.1H269.7z"/>
		<polygon class="st0" points="274.1,353.2 275.2,351.3 276.2,353.2 276.2,353.2 277.1,353.2 275.7,350.6 277,348.3 276.1,348.3
			275.2,349.9 274.3,348.3 274.3,348.3 273.4,348.3 274.7,350.6 273.3,353.2 		"/>
		<path class="st0" d="M279.4,353.2v-2.1l1.5-2.9H280l-1,1.8c0,0,0,0.1-0.1,0.1c0,0,0-0.1-0.1-0.2l-0.9-1.8l0-0.1h-0.9l1.6,2.9v2.1
			H279.4z"/>
		<path class="st0" d="M281,352.5l0,0.7h2.8v-0.8h-1.7c-0.1,0-0.2,0-0.2,0c0,0,0,0,0-0.1c0,0,0.1-0.1,0.2-0.4l1.6-2.9l0-0.8h-2.7
			v0.8h1.5c0.1,0,0.2,0,0.3,0c-0.1,0.2-0.2,0.4-0.4,0.7L281,352.5z"/>
		<path class="st0" d="M195.9,351.3c0.6,0,1-0.1,1.2-0.2c0.4-0.3,0.6-0.7,0.6-1.3c0-0.7-0.3-1.1-0.7-1.4c-0.2-0.1-0.6-0.1-1.2-0.1
			H195v4.9h0.7v-1.9H195.9z M196.9,349.8c0,0.2,0,0.4-0.1,0.5c-0.1,0.2-0.4,0.3-0.9,0.3h-0.2V349h0.1c0.5,0,0.7,0.1,0.8,0.1
			C196.8,349.2,196.9,349.5,196.9,349.8z"/>
		<path class="st0" d="M201.3,349c-0.3-0.5-0.8-0.8-1.5-0.8c-0.6,0-1.1,0.2-1.4,0.7c-0.3,0.5-0.5,1.1-0.5,1.8c0,0.7,0.2,1.4,0.5,1.8
			c0.4,0.5,0.8,0.7,1.5,0.7c0.2,0,0.4,0,0.6-0.1l0.4,0.5h1l-0.7-0.9c0.4-0.5,0.6-1.1,0.6-2C201.8,350,201.6,349.4,201.3,349z
			 M201,350.7c0,0.6-0.1,1-0.3,1.4l-0.2-0.3h-1l0.6,0.7c-0.1,0-0.1,0-0.2,0c-0.3,0-0.5-0.1-0.7-0.3c-0.3-0.3-0.5-0.9-0.5-1.6
			c0-0.5,0.1-1,0.3-1.3c0.2-0.3,0.5-0.5,0.8-0.5c0.3,0,0.5,0.1,0.7,0.3C200.9,349.6,201,350.1,201,350.7z"/>
		<path class="st0" d="M205.1,349.6c0-0.4-0.1-0.8-0.4-1c-0.2-0.2-0.7-0.3-1.4-0.3h-1v4.9h0.7v-2.1h0.2c0.3,0,0.4,0,0.5,0.1
			c0.1,0,0.2,0.1,0.3,0.6l0.5,1.5h0.8l-0.7-1.9c-0.1-0.2-0.2-0.4-0.4-0.6C204.9,350.6,205.1,350.2,205.1,349.6z M204.3,349.7
			c0,0.2-0.1,0.4-0.2,0.5c-0.1,0.1-0.3,0.2-0.9,0.2h-0.2V349h0.3c0.5,0,0.7,0.1,0.7,0.1C204.3,349.2,204.3,349.4,204.3,349.7z"/>
		<path class="st0" d="M206.8,352.5c-0.2,0-0.5-0.1-0.8-0.4l-0.1-0.1l-0.3,0.7l0.1,0c0.4,0.3,0.8,0.5,1.2,0.5c0.4,0,0.7-0.1,1-0.3
			c0.3-0.3,0.4-0.6,0.4-1.1c0-0.6-0.3-1.1-0.9-1.4l-0.4-0.3c-0.2-0.2-0.3-0.2-0.4-0.3c-0.1-0.1-0.2-0.2-0.2-0.4
			c0-0.4,0.2-0.6,0.5-0.6c0.2,0,0.4,0.1,0.7,0.3l0.1,0.1l0.3-0.7l-0.1,0c-0.4-0.3-0.7-0.4-1.1-0.4c-0.4,0-0.7,0.1-0.9,0.3
			c-0.3,0.3-0.4,0.6-0.4,1c0,0.6,0.3,1,0.9,1.4l0.3,0.2c0.2,0.1,0.4,0.2,0.5,0.3c0.1,0.1,0.2,0.3,0.2,0.5c0,0.2-0.1,0.4-0.2,0.5
			C207.1,352.4,206.9,352.5,206.8,352.5z"/>
		<path class="st0" d="M227.4,91.4h1.1l-2.7-2.8l2.5-2.5h-1l-1.8,1.9c-0.1,0.1-0.1,0.1-0.1,0.1c0,0-0.1,0.1-0.2,0.3l-0.1,0.1
			c0-0.1,0-0.4,0-0.6v-1.8h-0.8v5.3h0.8v-2.1c0-0.2,0-0.4,0-0.5c0.2,0.2,0.4,0.4,0.5,0.6L227.4,91.4z"/>
		<polygon class="st0" points="230,91.4 231.5,89.2 233.1,91.4 234,91.4 232.1,88.7 233.8,86.2 233,86.2 231.6,88.2 230.2,86.2
			229.3,86.2 231.1,88.7 229.1,91.4 		"/>
		<rect x="233.9" y="88.5" class="st0" width="2" height="0.6"/>
		<polygon class="st0" points="241,91.4 241,86.2 240.3,86.2 240.3,88.4 237.7,88.4 237.7,86.2 237,86.2 237,91.4 237.7,91.4
			237.7,89 240.3,89 240.3,91.4 		"/>
		<path class="st0" d="M243.5,86.2h-1.1v5.3h1.2c0.8,0,1.3-0.1,1.7-0.3c0.9-0.4,1.5-1.3,1.5-2.3c0-1-0.5-1.8-1.4-2.3
			C245,86.3,244.4,86.2,243.5,86.2z M245,90.5c-0.3,0.2-0.7,0.2-1.5,0.2h-0.4v-4h0.4c0.7,0,1.1,0.1,1.4,0.2c0.6,0.3,1,1,1,1.8
			C246,89.6,245.6,90.2,245,90.5z"/>
		<path class="st0" d="M247.2,86.2l2,5.3h0.9l2-5.3h-0.8l-1.3,3.5c-0.2,0.4-0.3,0.8-0.4,1.2c-0.1-0.4-0.2-0.8-0.4-1.2l-1.3-3.5
			H247.2z"/>
		<path class="st0" d="M254.7,91.4v-5.3H254l-1.3,1.1l0.4,0.5l0.5-0.5c0.2-0.1,0.2-0.2,0.3-0.3v4.5H254.7z"/>
		<path class="st0" d="M257.6,90.9c-0.4,0-0.8-0.1-1.3-0.3l0,0.7c0.5,0.1,0.9,0.2,1.3,0.2c1.2,0,2-0.6,2-1.5c0-0.8-0.5-1.3-1.3-1.3
			c0.2,0,0.4-0.1,0.6-0.2c0.5-0.2,0.7-0.6,0.7-1.1c0-0.8-0.7-1.4-1.8-1.4c-0.5,0-0.9,0.1-1.3,0.2l0.1,0.6c0.5-0.2,0.8-0.3,1.2-0.3
			c0.6,0,1.1,0.3,1.1,0.8c0,0.6-0.6,0.9-1.6,0.9H257V89c0.1,0,0.3,0,0.4,0c0.9,0,1.4,0.3,1.4,1C258.8,90.5,258.3,90.9,257.6,90.9z"
			/>
		<path class="st0" d="M263.2,86.4c-0.3-0.2-0.6-0.3-0.9-0.3c-0.5,0-1,0.2-1.3,0.6c-0.4,0.4-0.5,1.1-0.5,2.1c0,0.6,0.1,1.2,0.3,1.7
			c0.1,0.2,0.2,0.4,0.4,0.6c0.3,0.3,0.7,0.5,1.2,0.5c0.5,0,0.9-0.2,1.2-0.6c0.4-0.4,0.6-1.2,0.6-2.2c0-0.7-0.1-1.4-0.3-1.8
			C263.6,86.8,263.4,86.5,263.2,86.4z M262.9,90.6c-0.2,0.2-0.4,0.3-0.6,0.3c-0.7,0-1-0.7-1-2.1c0-0.9,0.1-1.5,0.4-1.8
			c0.1-0.2,0.4-0.3,0.6-0.3c0.7,0,1,0.8,1,2.2C263.3,89.6,263.1,90.4,262.9,90.6z"/>
		<path class="st0" d="M267.9,76c0.2,0.4,0.5,0.7,0.9,1c0.5,0.4,1,0.5,1.6,0.6c0.4,0,0.8,0,1.3-0.1c0.7-0.1,1.2-0.4,1.6-0.9
			c0.5-0.5,0.7-1.1,0.6-1.7h-2.2c0,0.1,0,0.2,0,0.4c0,0.2-0.1,0.3-0.2,0.5c-0.1,0.1-0.3,0.2-0.4,0.2c-0.3,0-0.5,0-0.8-0.2
			c-0.2-0.2-0.3-0.4-0.4-0.6c-0.2-0.6-0.2-1.1,0-1.7c0.1-0.2,0.2-0.4,0.4-0.6c0.3-0.2,0.7-0.2,1,0c0.2,0.2,0.4,0.4,0.4,0.7h2.1
			c0-0.4,0-0.7-0.2-1c-0.1-0.3-0.3-0.5-0.5-0.7c-0.4-0.3-0.7-0.5-1.2-0.7c-0.7-0.2-1.3-0.2-1.9,0c-1.2,0.2-2,1.1-2.3,2.2
			c-0.1,0.5-0.2,1-0.1,1.5C267.6,75.4,267.7,75.7,267.9,76z"/>
		<rect x="264.5" y="69" class="st0" width="2.3" height="1.6"/>
		<rect x="264.5" y="71.4" class="st0" width="2.3" height="6.1"/>
		<path class="st0" d="M259.6,74.1c0-0.2,0-0.4,0.1-0.5c0.2-0.4,0.7-0.6,1.2-0.4c0.2,0.1,0.3,0.2,0.4,0.4c0,0.1,0.1,0.2,0.1,0.3v3.5
			h2.4v-3.9c0-0.3,0-0.6-0.1-0.9c-0.2-0.7-0.7-1.1-1.4-1.3c-0.6-0.2-1.2-0.1-1.8,0.1c-0.4,0.2-0.6,0.4-0.9,0.6l0-0.6h-2.2v6.1h2.4
			V74.1z"/>
		<path class="st0" d="M231.3,74.1c0-0.2,0-0.4,0.1-0.5c0.2-0.4,0.7-0.6,1.2-0.4c0.2,0.1,0.3,0.2,0.4,0.4c0,0.1,0.1,0.2,0.1,0.3v3.5
			h2.4v-3.9c0-0.3,0-0.6-0.1-0.9c-0.2-0.7-0.7-1.1-1.4-1.3c-0.6-0.2-1.2-0.1-1.8,0.1c-0.4,0.2-0.6,0.4-0.9,0.6l0-0.6h-2.2v6.1h2.4
			V74.1z"/>
		<path class="st0" d="M243.7,76.9c0.3,0.3,0.6,0.5,1,0.6c0.8,0.2,1.6,0.3,2.4,0.2c0.4-0.1,0.7-0.2,1.1-0.4c0.2-0.1,0.3-0.2,0.4-0.3
			c0.6-0.5,0.8-1.3,0.6-2c-0.1-0.3-0.2-0.5-0.5-0.7c-0.3-0.3-0.6-0.4-1-0.5c-0.1,0-0.2,0-0.2-0.1c-0.5-0.1-0.9-0.2-1.4-0.3
			c-0.1,0-0.2,0-0.4-0.1c-0.1,0-0.1,0-0.2-0.1c-0.1-0.1-0.2-0.2-0.1-0.4c0,0,0,0,0,0c0.1-0.1,0.2-0.2,0.3-0.3c0.3-0.1,0.5-0.1,0.7,0
			c0.2,0.1,0.4,0.3,0.4,0.6h2.2c0-0.3,0-0.5-0.1-0.7c-0.1-0.2-0.2-0.4-0.4-0.6c-0.2-0.1-0.4-0.2-0.6-0.3c-0.2-0.1-0.4-0.1-0.6-0.2
			c-0.5-0.1-1-0.1-1.5-0.1c-0.3,0-0.6,0.1-0.9,0.1c-0.4,0.1-0.7,0.3-1.1,0.5c-0.3,0.2-0.5,0.5-0.6,0.8c-0.1,0.2-0.1,0.3-0.1,0.4
			c0,0.3,0,0.5,0.1,0.7c0.2,0.4,0.5,0.8,0.9,0.9c0.2,0.1,0.4,0.2,0.7,0.2c0.5,0.1,0.9,0.2,1.3,0.3c0.2,0,0.3,0.1,0.5,0.1
			c0.1,0,0.2,0.2,0.3,0.3c0,0.2,0,0.3-0.1,0.4c-0.1,0.1-0.2,0.2-0.4,0.2c-0.2,0-0.4,0-0.6-0.1c-0.1,0-0.2-0.1-0.3-0.1
			c-0.1-0.1-0.2-0.2-0.2-0.3c0-0.1,0-0.2,0-0.3h-2.2v0.1c0,0.2,0,0.4,0.1,0.6C243.3,76.5,243.5,76.7,243.7,76.9z"/>
		<path class="st0" d="M216.7,74.9h1.6c0.4,0,0.8,0,1.2-0.1c1.2-0.3,2.1-1.2,2.2-2.4c0.1-0.6,0-1.1-0.3-1.6c-0.5-1-1.4-1.6-2.5-1.7
			c-0.2,0-0.3,0-0.5,0h-4.2v8.5h2.6V74.9z M216.7,71h1.5c0.5,0,0.8,0.3,0.9,0.8c0,0.1,0,0.2,0,0.3c0,0.1-0.1,0.3-0.2,0.4
			c-0.2,0.2-0.4,0.3-0.6,0.3c-0.2,0-0.4,0-0.5,0h-1V71z"/>
		<path class="st0" d="M251.1,77.1c0.4,0.3,0.7,0.5,1.2,0.6c0.3,0.1,0.6,0.1,0.9,0.1c0.3,0,0.6,0,0.9-0.1c0.5-0.1,0.8-0.3,1.2-0.6
			c0.6-0.4,0.9-1,1.1-1.7c0.1-0.4,0.2-0.9,0.1-1.3c-0.1-0.8-0.4-1.4-0.9-1.9c-0.5-0.5-1.1-0.8-1.8-0.9c-0.2,0-0.4-0.1-0.7-0.1
			c-0.2,0-0.4,0-0.7,0.1c-0.7,0.1-1.3,0.4-1.8,0.9c-0.5,0.5-0.8,1.2-0.9,1.9c0,0.5,0,0.9,0.1,1.3C250.1,76.1,250.5,76.6,251.1,77.1z
			 M252.2,73.8c0-0.2,0.1-0.4,0.2-0.6c0.3-0.4,0.8-0.5,1.2-0.3c0.1,0.1,0.2,0.1,0.3,0.3c0.1,0.2,0.2,0.4,0.2,0.6
			c0.1,0.4,0.1,0.8,0,1.2c0,0.2-0.1,0.4-0.2,0.6c-0.2,0.5-0.8,0.7-1.2,0.5c-0.2-0.1-0.4-0.2-0.5-0.5c-0.1-0.2-0.1-0.4-0.2-0.6
			C252.1,74.6,252.1,74.2,252.2,73.8z"/>
		<path class="st0" d="M239.8,73.7c-0.1,0-0.1,0-0.2,0.1c-0.3,0.1-0.5,0.1-0.8,0.2c-0.2,0-0.4,0.1-0.7,0.1c-0.3,0.1-0.6,0.1-0.9,0.2
			c-0.3,0.1-0.5,0.2-0.7,0.4c-0.3,0.3-0.4,0.6-0.5,0.9c0,0.2,0,0.5,0,0.7c0.1,0.6,0.6,1.1,1.2,1.3c0.7,0.2,1.3,0.2,2-0.1
			c0.3-0.1,0.6-0.3,0.8-0.6c0,0.1,0.1,0.3,0.1,0.4c0,0.1,0.1,0.1,0.1,0.2h2.3c-0.1-0.2-0.1-0.3-0.2-0.5c0-0.5-0.1-0.9-0.1-1.4
			c0-0.7,0-1.2,0-1.9c0-0.4,0-0.7-0.1-1c-0.1-0.5-0.4-0.8-0.8-1c-0.2-0.1-0.5-0.2-0.7-0.3c-0.9-0.2-1.7-0.2-2.5-0.1
			c-0.2,0-0.5,0.1-0.7,0.2c-0.5,0.2-0.9,0.6-1.1,1.2c-0.1,0.2-0.1,0.4-0.1,0.6c0,0,0,0.1,0,0.1l2.1,0c0-0.1,0-0.2,0.1-0.4
			c0.1-0.2,0.2-0.3,0.4-0.4c0.3-0.1,0.5-0.1,0.8,0c0.2,0.1,0.3,0.2,0.4,0.4c0,0.1,0,0.2-0.1,0.3C240,73.6,239.9,73.6,239.8,73.7z
			 M240.2,74.8c0,0.2,0,0.4,0,0.6c0,0.2-0.1,0.3-0.2,0.4c-0.1,0.2-0.2,0.3-0.4,0.3c-0.2,0.1-0.3,0.1-0.5,0.1c-0.1,0-0.3,0-0.4,0
			c-0.1,0-0.2-0.1-0.3-0.2c-0.1-0.1-0.1-0.2-0.1-0.3c0-0.2,0-0.3,0.1-0.4c0.1-0.1,0.2-0.1,0.3-0.2c0.2-0.1,0.4-0.2,0.7-0.2
			C239.6,75,239.9,74.9,240.2,74.8z"/>
		<path class="st0" d="M225.4,73.7c-0.1,0-0.1,0-0.2,0.1c-0.3,0.1-0.5,0.1-0.8,0.2c-0.2,0-0.4,0.1-0.7,0.1c-0.3,0.1-0.6,0.1-0.9,0.2
			c-0.3,0.1-0.5,0.2-0.7,0.4c-0.3,0.3-0.4,0.6-0.5,0.9c0,0.2,0,0.5,0,0.7c0.1,0.6,0.6,1.1,1.2,1.3c0.7,0.2,1.3,0.2,2-0.1
			c0.3-0.1,0.6-0.3,0.8-0.6c0,0.1,0.1,0.3,0.1,0.4c0,0.1,0.1,0.1,0.1,0.2h2.3c-0.1-0.2-0.1-0.3-0.2-0.5c0-0.5-0.1-0.9-0.1-1.4
			c0-0.7,0-1.2,0-1.9c0-0.4,0-0.7-0.1-1c-0.1-0.5-0.4-0.8-0.8-1c-0.2-0.1-0.5-0.2-0.7-0.3c-0.9-0.2-1.7-0.2-2.5-0.1
			c-0.2,0-0.5,0.1-0.7,0.2c-0.5,0.2-0.9,0.6-1.1,1.2c-0.1,0.2-0.1,0.4-0.1,0.6c0,0,0,0.1,0,0.1l2.1,0c0-0.1,0-0.2,0.1-0.4
			c0.1-0.2,0.2-0.3,0.4-0.4c0.3-0.1,0.5-0.1,0.8,0c0.2,0.1,0.3,0.2,0.4,0.4c0,0.1,0,0.2-0.1,0.3C225.6,73.6,225.5,73.6,225.4,73.7z
			 M225.8,74.8c0,0.2,0,0.4,0,0.6c0,0.2-0.1,0.3-0.2,0.4c-0.1,0.2-0.2,0.3-0.4,0.3c-0.2,0.1-0.3,0.1-0.5,0.1c-0.1,0-0.3,0-0.4,0
			c-0.1,0-0.2-0.1-0.3-0.2c-0.1-0.1-0.1-0.2-0.1-0.3c0-0.2,0-0.3,0.1-0.4c0.1-0.1,0.2-0.1,0.3-0.2c0.2-0.1,0.4-0.2,0.7-0.2
			C225.3,75,225.5,74.9,225.8,74.8z"/>
		<path class="st0" d="M241.6,426l-1.1,3.2c-0.1,0.2-0.1,0.5-0.2,0.7c-0.1-0.2-0.1-0.4-0.2-0.7l-1-3.1l0-0.1h-0.9l1.7,4.9l0,0.1h0.9
			l1.6-4.8l0-0.1H241.6z"/>
		<path class="st0" d="M244.6,431c0.7,0,1.2-0.3,1.6-0.8c0.4-0.5,0.5-1.1,0.5-1.8c0-0.6-0.1-1.2-0.4-1.6c-0.4-0.6-1-1-1.7-1
			c-0.9,0-1.6,0.4-1.9,1.2c-0.2,0.4-0.3,0.9-0.3,1.3c0,0.5,0.1,1,0.3,1.5C243.1,430.6,243.7,431,244.6,431z M243.2,428.4
			c0-0.6,0.1-1.1,0.4-1.4c0.2-0.3,0.5-0.4,0.9-0.4c0.3,0,0.6,0.1,0.8,0.3c0.3,0.3,0.5,0.9,0.5,1.5c0,0.5-0.1,0.9-0.3,1.2
			c-0.2,0.4-0.6,0.6-1,0.6c-0.3,0-0.6-0.1-0.8-0.3C243.4,429.6,243.2,429.1,243.2,428.4z"/>
		<polygon class="st0" points="247.2,426 247.2,430.9 249.8,430.9 249.8,430.1 248,430.1 248,426 		"/>
		<rect x="220.7" y="427.9" class="st0" width="4.7" height="0.9"/>
		<polygon class="st0" points="264.3,426 264.3,427.9 262.4,427.9 262.4,428.8 264.3,428.8 264.3,430.7 265.3,430.7 265.3,428.8
			267.2,428.8 267.2,427.9 265.3,427.9 265.3,426 		"/>
		<polygon class="st0" points="309,196.1 307.2,196.1 307.2,191.9 306.4,191.9 306.4,196.9 309,196.9 		"/>
		<rect x="309.5" y="191.9" class="st0" width="0.8" height="4.9"/>
		<path class="st0" d="M312.1,194.4c0-0.4,0-0.8,0-1.2c0.1,0.3,0.3,0.6,0.5,1l1.4,2.6l0,0.1h0.9v-4.9h-0.8v2.4c0,0.5,0,0.9,0,1.2
			c-0.1-0.2-0.2-0.5-0.4-0.7l-1.5-2.8l0-0.1h-1v4.9h0.8V194.4z"/>
		<polygon class="st0" points="318.4,192.7 318.4,191.9 315.8,191.9 315.8,196.9 318.4,196.9 318.4,196.1 316.6,196.1 316.6,194.7
			318.3,194.7 318.3,193.9 316.6,193.9 316.6,192.7 		"/>
		<path class="st0" d="M321.9,196.9h0.8v-4.9H322l-1.1,1.1l0.5,0.6l0.5-0.5c0,0,0,0,0.1-0.1c0,0,0,0,0,0V196.9z"/>
		<polygon class="st0" points="323.8,196.8 323.7,196.9 324.4,196.9 326.4,192.1 326.4,191.9 325.8,191.9 		"/>
		<path class="st0" d="M328.3,195h0.5c0.6,0,1.1-0.1,1.4-0.2c0.4-0.3,0.7-0.7,0.7-1.3c0-0.7-0.3-1.2-0.8-1.4
			c-0.2-0.1-0.7-0.1-1.4-0.1h-1v4.9h0.8V195z M329.9,193.5c0,0.2-0.1,0.4-0.2,0.5c-0.1,0.1-0.3,0.3-1,0.3h-0.4v-1.5h0.3
			c0.6,0,0.9,0.1,1,0.1C329.8,192.9,329.9,193.1,329.9,193.5z"/>
		<path class="st0" d="M332.7,193.1C332.8,193.1,332.8,193.1,332.7,193.1C332.8,193.1,332.8,193.1,332.7,193.1l0.1,3.8h0.8v-4.9
			h-0.7l-1.1,1.1l0.5,0.6L332.7,193.1z"/>
		<polygon class="st0" points="308.7,243.4 306.9,243.4 306.9,239.2 306.1,239.2 306.1,244.2 308.7,244.2 		"/>
		<rect x="309.2" y="239.2" class="st0" width="0.8" height="4.9"/>
		<path class="st0" d="M312,239.3L312,239.3l-1-0.1v4.9h0.8v-2.5c0-0.4,0-0.8,0-1.1c0.1,0.3,0.3,0.6,0.5,1l1.4,2.6l0,0.1h0.9v-4.9
			h-0.8v2.4c0,0.4,0,0.9,0,1.2c-0.1-0.2-0.2-0.5-0.4-0.7L312,239.3z"/>
		<polygon class="st0" points="318.1,240 318.1,239.2 315.5,239.2 315.5,244.2 318.1,244.2 318.1,243.4 316.3,243.4 316.3,242
			317.9,242 317.9,241.2 316.3,241.2 316.3,240 		"/>
		<path class="st0" d="M320.3,243.3v0.9h2.9v-0.8h-1.8c-0.1,0-0.1,0-0.2,0c0.2-0.2,0.4-0.4,0.6-0.6c0.9-0.9,1.3-1.7,1.3-2.3
			c0-0.4-0.1-0.7-0.4-1c-0.3-0.3-0.7-0.4-1.1-0.4c-0.4,0-0.7,0.1-1.2,0.3l-0.1,0l0.1,0.8l0.1-0.1c0.6-0.4,1.1-0.4,1.4-0.2
			c0.2,0.1,0.2,0.3,0.2,0.5C322.2,241.1,321.6,242,320.3,243.3L320.3,243.3z"/>
		<polygon class="st0" points="323.8,244 323.7,244.2 324.4,244.2 326.4,239.4 326.5,239.2 325.8,239.2 		"/>
		<path class="st0" d="M328.7,242.3c0.6,0,1.1-0.1,1.4-0.2c0.4-0.3,0.6-0.7,0.6-1.3c0-0.7-0.3-1.2-0.8-1.4c-0.2-0.1-0.7-0.1-1.4-0.1
			h-1v4.9h0.8v-1.9H328.7z M329.9,240.7c0,0.2-0.1,0.4-0.2,0.5c-0.1,0.1-0.3,0.3-1,0.3h-0.4V240h0.3c0.6,0,0.9,0.1,1,0.1
			C329.8,240.2,329.9,240.4,329.9,240.7z"/>
		<path class="st0" d="M331.7,239.5L331.7,239.5l0,0.9l0.1-0.1c0.6-0.4,1.1-0.4,1.4-0.2c0.2,0.1,0.2,0.3,0.2,0.5
			c0,0.6-0.7,1.5-1.9,2.7l0,0v0.9h2.9v-0.8h-1.8c-0.1,0-0.1,0-0.2,0c0.2-0.2,0.4-0.3,0.6-0.6c0.9-0.9,1.3-1.7,1.3-2.3
			c0-0.4-0.1-0.7-0.4-1c-0.3-0.3-0.7-0.4-1.1-0.4C332.5,239.2,332.2,239.3,331.7,239.5z"/>
		<path class="st0" d="M311.6,280.4c0.3,0,0.6,0.1,0.9,0.3l0.1,0.1l0.1-0.9l-0.1,0c-0.3-0.1-0.6-0.2-1-0.2c-0.6,0-1,0.2-1.5,0.5
			c-0.6,0.5-0.9,1.1-0.9,2c0,0.6,0.1,1.1,0.4,1.6c0.4,0.7,1.1,1,2,1c0.3,0,0.7-0.1,1-0.2l0.1,0l-0.1-0.9l-0.1,0.1
			c-0.8,0.3-1.4,0.2-1.9-0.2c-0.3-0.3-0.5-0.8-0.5-1.3c0-0.4,0.1-0.8,0.3-1.1C310.7,280.6,311.1,280.4,311.6,280.4z"/>
		<path class="st0" d="M314.8,279.7l-1.8,4.8l-0.1,0.1h0.9l0.4-1.2h1.9l0.4,1.1l0,0.1h0.9l-1.9-4.9l0-0.1H314.8z M315.9,282.6h-1.4
			l0.4-1.2c0.1-0.3,0.2-0.5,0.3-0.7c0.1,0.2,0.1,0.4,0.3,0.7L315.9,282.6z"/>
		<path class="st0" d="M320.3,284.6L320.3,284.6l1,0.1v-4.9h-0.8v2.4c0,0.4,0,0.9,0,1.2c-0.1-0.2-0.2-0.5-0.4-0.7l-1.5-2.8l0-0.1h-1
			v4.9h0.8v-2.5c0-0.4,0-0.8,0-1.2c0.1,0.3,0.3,0.6,0.5,1L320.3,284.6z"/>
		<path class="st0" d="M324.1,280.4c0.3,0,0.6,0.1,0.9,0.3l0.1,0.1l0.1-0.9l-0.1,0c-0.3-0.2-0.6-0.2-1-0.2c-0.6,0-1,0.2-1.5,0.5
			c-0.6,0.5-0.9,1.1-0.9,2c0,0.6,0.1,1.1,0.4,1.6c0.4,0.7,1.1,1,2,1c0.3,0,0.7-0.1,1-0.2l0.1,0l-0.1-0.9l-0.1,0.1
			c-0.8,0.3-1.4,0.2-1.9-0.2c-0.3-0.3-0.5-0.8-0.5-1.3c0-0.5,0.1-0.8,0.3-1.1C323.2,280.6,323.6,280.4,324.1,280.4z"/>
		<polygon class="st0" points="328.1,280.5 328.1,279.7 325.6,279.7 325.6,284.6 328.2,284.6 328.2,283.8 326.4,283.8 326.4,282.4
			328,282.4 328,281.7 326.4,281.7 326.4,280.5 		"/>
		<polygon class="st0" points="328.8,279.7 328.8,284.6 331.5,284.6 331.5,283.8 329.7,283.8 329.7,279.7 		"/>
		<path class="st0" d="M246.7,246.4h-5.1c-0.1,0-0.3,0.1-0.3,0.2c-0.1,0.1-0.1,0.3,0,0.4l2.5,6c0.1,0.1,0.2,0.2,0.4,0.2
			c0.2,0,0.3-0.1,0.4-0.2l2.5-6c0.1-0.1,0-0.3,0-0.4C247,246.5,246.9,246.4,246.7,246.4z M244.2,251.8l-1.9-4.6h3.9L244.2,251.8z"/>
		<path class="st0" d="M209.7,228.7c0,0.2,0.1,0.3,0.2,0.4l6,2.5c0.1,0,0.1,0,0.2,0c0.1,0,0.2,0,0.2-0.1c0.1-0.1,0.2-0.2,0.2-0.3
			v-5.1c0-0.1-0.1-0.3-0.2-0.3c-0.1-0.1-0.2-0.1-0.4,0l-6,2.5C209.8,228.4,209.7,228.5,209.7,228.7z M215.7,226.7v3.9l-4.6-1.9
			L215.7,226.7z"/>
		<path class="st0" d="M272.5,231.6c0.1,0,0.1,0,0.2,0l6-2.5c0.1-0.1,0.2-0.2,0.2-0.4s-0.1-0.3-0.2-0.4l-6-2.5c-0.1-0.1-0.3,0-0.4,0
			c-0.1,0.1-0.2,0.2-0.2,0.3v5.1c0,0.1,0.1,0.3,0.2,0.3C272.3,231.6,272.4,231.6,272.5,231.6z M272.9,226.7l4.6,1.9l-4.6,1.9V226.7z
			"/>
		<polygon class="st0" points="236.2,230.8 233.3,230.8 233.3,229 236,229 236,228.2 233.3,228.2 233.3,226.6 236.2,226.6
			236.2,225.7 232.5,225.7 232.5,231.7 236.2,231.7 		"/>
		<polygon class="st0" points="238,227.3 240.5,231.6 240.5,231.7 241.4,231.7 241.4,225.7 240.6,225.7 240.6,230.2 238.1,225.8
			238,225.7 237.1,225.7 237.1,231.7 238,231.7 		"/>
		<polygon class="st0" points="243.8,231.7 244.7,231.7 244.7,226.6 246.4,226.6 246.4,225.7 242.1,225.7 242.1,226.6 243.8,226.6
					"/>
		<polygon class="st0" points="250.8,230.8 247.9,230.8 247.9,229 250.6,229 250.6,228.2 247.9,228.2 247.9,226.6 250.8,226.6
			250.8,225.7 247.1,225.7 247.1,231.7 250.8,231.7 		"/>
		<path class="st0" d="M252.6,229.2h1.6c0.5,0,0.7,0.3,0.8,1c0,0.2,0,0.4,0.1,0.7c0,0.3,0,0.6,0.2,0.8l0,0h1l-0.1-0.2
			c-0.2-0.3-0.2-0.8-0.3-1.3c0-0.1,0-0.2,0-0.3c0-0.5-0.1-1-0.6-1.2c0.5-0.2,0.7-0.8,0.7-1.5c0-1-0.6-1.6-1.6-1.6h-2.5v6h0.9V229.2z
			 M255,227.5c0,0.6-0.3,0.9-1.1,0.9h-1.3v-1.8h1.6C254.9,226.6,255,227.1,255,227.5z"/>
		<path class="st0" d="M241.7,211.1h5.1c0.1,0,0.3-0.1,0.3-0.2c0.1-0.1,0.1-0.3,0-0.4l-2.5-6c-0.1-0.3-0.6-0.3-0.7,0l-2.5,6
			c-0.1,0.1,0,0.3,0,0.4C241.4,211,241.5,211.1,241.7,211.1z M244.2,205.7l1.9,4.6h-3.9L244.2,205.7z"/>
	</g>
</g>
<g id="Ebene_2">
	<g>
		<circle id="bgnumber_1_" class="st1" cx="319.6" cy="224.3" r="7.1"/>
		<text transform="matrix(1 0 0 1 314.0007 227.7579)" class="st2 st3 st4 button" data-number="1">02</text>
	</g>
	<g>
		<circle id="bgnumber" class="st1" cx="319.6" cy="177.1" r="7.1"/>
		<text transform="matrix(1 0 0 1 314.6554 180.5146)" class="st2 st3 st4 button" data-number="0">01</text>
	</g>
</g>
</svg>
