<?xml version="1.0" encoding="utf-8"?>
<!-- Generator: Adobe Illustrator 21.0.1, SVG Export Plug-In . SVG Version: 6.00 Build 0)  -->
<!DOCTYPE svg PUBLIC "-//W3C//DTD SVG 1.1//EN" "http://www.w3.org/Graphics/SVG/1.1/DTD/svg11.dtd">
<svg version="1.1" xmlns="http://www.w3.org/2000/svg" xmlns:xlink="http://www.w3.org/1999/xlink" x="0px" y="0px"
	 viewBox="0 0 420 365.1" style="enable-background:new 0 0 420 365.1;" xml:space="preserve">
<style type="text/css">
	.button{cursor: pointer}
	.st0{fill:#B3B2B2;}
	.st1{fill:#FFFFFF;}
	.st2{fill:#23AEE5;}
	.st3{font-family:'BrixSansRegular';}
	.st4{font-size:10px;}
</style>
<g id="Ebene_1">
	<g>
		<path class="st0" d="M21.3,148.5c1.1,0,2-0.9,2-2s-0.9-2-2-2s-2,0.9-2,2S20.2,148.5,21.3,148.5z M21.3,145.2
			c0.7,0,1.3,0.6,1.3,1.3c0,0.7-0.6,1.3-1.3,1.3s-1.3-0.6-1.3-1.3C19.9,145.8,20.5,145.2,21.3,145.2z"/>
		<path class="st0" d="M21.3,156c1.1,0,2-0.9,2-2c0-1.1-0.9-2-2-2s-2,0.9-2,2C19.3,155.1,20.2,156,21.3,156z M21.3,152.7
			c0.7,0,1.3,0.6,1.3,1.3c0,0.7-0.6,1.3-1.3,1.3s-1.3-0.6-1.3-1.3C19.9,153.3,20.5,152.7,21.3,152.7z"/>
		<path class="st0" d="M21.3,163.5c1.1,0,2-0.9,2-2s-0.9-2-2-2s-2,0.9-2,2S20.2,163.5,21.3,163.5z M21.3,160.2
			c0.7,0,1.3,0.6,1.3,1.3c0,0.7-0.6,1.3-1.3,1.3s-1.3-0.6-1.3-1.3C19.9,160.8,20.5,160.2,21.3,160.2z"/>
		<path class="st0" d="M21.3,171c1.1,0,2-0.9,2-2s-0.9-2-2-2s-2,0.9-2,2S20.2,171,21.3,171z M21.3,167.7c0.7,0,1.3,0.6,1.3,1.3
			c0,0.7-0.6,1.3-1.3,1.3s-1.3-0.6-1.3-1.3C19.9,168.3,20.5,167.7,21.3,167.7z"/>
		<path class="st0" d="M21.3,178.5c1.1,0,2-0.9,2-2c0-1.1-0.9-2-2-2s-2,0.9-2,2C19.3,177.6,20.2,178.5,21.3,178.5z M21.3,175.2
			c0.7,0,1.3,0.6,1.3,1.3c0,0.7-0.6,1.3-1.3,1.3s-1.3-0.6-1.3-1.3C19.9,175.8,20.5,175.2,21.3,175.2z"/>
		<path class="st0" d="M21.3,186c1.1,0,2-0.9,2-2c0-1.1-0.9-2-2-2s-2,0.9-2,2C19.3,185.2,20.2,186,21.3,186z M21.3,182.7
			c0.7,0,1.3,0.6,1.3,1.3c0,0.7-0.6,1.3-1.3,1.3s-1.3-0.6-1.3-1.3C19.9,183.3,20.5,182.7,21.3,182.7z"/>
		<path class="st0" d="M21.3,193.5c1.1,0,2-0.9,2-2c0-1.1-0.9-2-2-2s-2,0.9-2,2C19.3,192.7,20.2,193.5,21.3,193.5z M21.3,190.2
			c0.7,0,1.3,0.6,1.3,1.3c0,0.7-0.6,1.3-1.3,1.3s-1.3-0.6-1.3-1.3C19.9,190.8,20.5,190.2,21.3,190.2z"/>
		<path class="st0" d="M21.3,201c1.1,0,2-0.9,2-2c0-1.1-0.9-2-2-2s-2,0.9-2,2C19.3,200.2,20.2,201,21.3,201z M21.3,197.7
			c0.7,0,1.3,0.6,1.3,1.3c0,0.7-0.6,1.3-1.3,1.3s-1.3-0.6-1.3-1.3C19.9,198.3,20.5,197.7,21.3,197.7z"/>
		<path class="st0" d="M21.3,208.5c1.1,0,2-0.9,2-2c0-1.1-0.9-2-2-2s-2,0.9-2,2C19.3,207.7,20.2,208.5,21.3,208.5z M21.3,205.2
			c0.7,0,1.3,0.6,1.3,1.3c0,0.7-0.6,1.3-1.3,1.3s-1.3-0.6-1.3-1.3C19.9,205.8,20.5,205.2,21.3,205.2z"/>
		<path class="st0" d="M21.3,216c1.1,0,2-0.9,2-2c0-1.1-0.9-2-2-2s-2,0.9-2,2C19.3,215.2,20.2,216,21.3,216z M21.3,212.7
			c0.7,0,1.3,0.6,1.3,1.3c0,0.7-0.6,1.3-1.3,1.3s-1.3-0.6-1.3-1.3C19.9,213.3,20.5,212.7,21.3,212.7z"/>
		<path class="st0" d="M21.3,219.6c-1.1,0-2,0.9-2,2c0,1.1,0.9,2,2,2s2-0.9,2-2C23.3,220.5,22.4,219.6,21.3,219.6z M21.3,222.9
			c-0.7,0-1.3-0.6-1.3-1.3c0-0.7,0.6-1.3,1.3-1.3s1.3,0.6,1.3,1.3C22.6,222.3,22,222.9,21.3,222.9z"/>
		<path class="st0" d="M103.5,144.6c-1.1,0-2,0.9-2,2s0.9,2,2,2c1.1,0,2-0.9,2-2S104.6,144.6,103.5,144.6z M103.5,147.9
			c-0.7,0-1.3-0.6-1.3-1.3c0-0.7,0.6-1.3,1.3-1.3s1.3,0.6,1.3,1.3C104.8,147.3,104.2,147.9,103.5,147.9z"/>
		<path class="st0" d="M103.5,152.1c-1.1,0-2,0.9-2,2c0,1.1,0.9,2,2,2c1.1,0,2-0.9,2-2C105.5,153,104.6,152.1,103.5,152.1z
			 M103.5,155.4c-0.7,0-1.3-0.6-1.3-1.3c0-0.7,0.6-1.3,1.3-1.3s1.3,0.6,1.3,1.3C104.8,154.8,104.2,155.4,103.5,155.4z"/>
		<path class="st0" d="M103.5,159.6c-1.1,0-2,0.9-2,2s0.9,2,2,2c1.1,0,2-0.9,2-2S104.6,159.6,103.5,159.6z M103.5,162.9
			c-0.7,0-1.3-0.6-1.3-1.3c0-0.7,0.6-1.3,1.3-1.3s1.3,0.6,1.3,1.3C104.8,162.3,104.2,162.9,103.5,162.9z"/>
		<path class="st0" d="M103.5,167.1c-1.1,0-2,0.9-2,2s0.9,2,2,2c1.1,0,2-0.9,2-2S104.6,167.1,103.5,167.1z M103.5,170.4
			c-0.7,0-1.3-0.6-1.3-1.3c0-0.7,0.6-1.3,1.3-1.3s1.3,0.6,1.3,1.3C104.8,169.8,104.2,170.4,103.5,170.4z"/>
		<path class="st0" d="M103.5,174.6c-1.1,0-2,0.9-2,2c0,1.1,0.9,2,2,2c1.1,0,2-0.9,2-2C105.5,175.5,104.6,174.6,103.5,174.6z
			 M103.5,177.9c-0.7,0-1.3-0.6-1.3-1.3c0-0.7,0.6-1.3,1.3-1.3s1.3,0.6,1.3,1.3C104.8,177.3,104.2,177.9,103.5,177.9z"/>
		<path class="st0" d="M103.5,182.1c-1.1,0-2,0.9-2,2c0,1.1,0.9,2,2,2c1.1,0,2-0.9,2-2C105.5,183,104.6,182.1,103.5,182.1z
			 M103.5,185.4c-0.7,0-1.3-0.6-1.3-1.3c0-0.7,0.6-1.3,1.3-1.3s1.3,0.6,1.3,1.3C104.8,184.8,104.2,185.4,103.5,185.4z"/>
		<path class="st0" d="M103.5,189.6c-1.1,0-2,0.9-2,2c0,1.1,0.9,2,2,2c1.1,0,2-0.9,2-2C105.5,190.5,104.6,189.6,103.5,189.6z
			 M103.5,192.9c-0.7,0-1.3-0.6-1.3-1.3c0-0.7,0.6-1.3,1.3-1.3s1.3,0.6,1.3,1.3C104.8,192.3,104.2,192.9,103.5,192.9z"/>
		<path class="st0" d="M103.5,197.1c-1.1,0-2,0.9-2,2c0,1.1,0.9,2,2,2c1.1,0,2-0.9,2-2C105.5,198,104.6,197.1,103.5,197.1z
			 M103.5,200.4c-0.7,0-1.3-0.6-1.3-1.3c0-0.7,0.6-1.3,1.3-1.3s1.3,0.6,1.3,1.3C104.8,199.8,104.2,200.4,103.5,200.4z"/>
		<path class="st0" d="M103.5,204.6c-1.1,0-2,0.9-2,2c0,1.1,0.9,2,2,2c1.1,0,2-0.9,2-2C105.5,205.5,104.6,204.6,103.5,204.6z
			 M103.5,207.9c-0.7,0-1.3-0.6-1.3-1.3c0-0.7,0.6-1.3,1.3-1.3s1.3,0.6,1.3,1.3C104.8,207.3,104.2,207.9,103.5,207.9z"/>
		<path class="st0" d="M103.5,212.1c-1.1,0-2,0.9-2,2c0,1.1,0.9,2,2,2c1.1,0,2-0.9,2-2C105.5,213,104.6,212.1,103.5,212.1z
			 M103.5,215.4c-0.7,0-1.3-0.6-1.3-1.3c0-0.7,0.6-1.3,1.3-1.3s1.3,0.6,1.3,1.3C104.8,214.8,104.2,215.4,103.5,215.4z"/>
		<path class="st0" d="M103.5,219.6c-1.1,0-2,0.9-2,2c0,1.1,0.9,2,2,2c1.1,0,2-0.9,2-2C105.5,220.5,104.6,219.6,103.5,219.6z
			 M103.5,222.9c-0.7,0-1.3-0.6-1.3-1.3c0-0.7,0.6-1.3,1.3-1.3s1.3,0.6,1.3,1.3C104.8,222.3,104.2,222.9,103.5,222.9z"/>
		<path class="st0" d="M27.5,328.7c0.1,3.1,2.5,9.4,10.7,10.6c0.2,0,16.3,0.4,24.2,0.4s24.2-0.4,24.4-0.4
			c8.2-1.2,10.5-7.5,10.6-10.6L97,13.6C95.6,3.9,86.2,3,86.1,3c0,0,0,0,0,0L38.8,3c-0.1,0-9.5,0.9-11,10.6L27.5,328.7z M28.5,13.7
			c1.3-9.1,10-10,10.3-10H86c0.5,0,9,0.9,10.4,9.9l0.3,315.1c0,0.3-0.4,8.5-10,10c-0.2,0-16.5,0.4-24.3,0.4s-24-0.4-24.1-0.4
			c-9.7-1.5-10.1-9.6-10.1-9.9L28.5,13.7z"/>
		<path class="st0" d="M179.6,136.1v3.7c0,1.4,1.1,2.5,2.5,2.5h15.3c1.4,0,2.5-1.1,2.5-2.5v-3.7c0-1.4-1.1-2.5-2.5-2.5h-15.3
			C180.8,133.6,179.6,134.7,179.6,136.1z M199.3,136.1v3.7c0,1-0.8,1.9-1.9,1.9h-15.3c-1,0-1.9-0.8-1.9-1.9v-3.7
			c0-1,0.8-1.9,1.9-1.9h15.3C198.4,134.2,199.3,135.1,199.3,136.1z"/>
		<path class="st0" d="M228.9,133.6h-15.3c-1.4,0-2.5,1.1-2.5,2.5v3.7c0,1.4,1.1,2.5,2.5,2.5h15.3c1.4,0,2.5-1.1,2.5-2.5v-3.7
			C231.4,134.7,230.3,133.6,228.9,133.6z M230.8,139.8c0,1-0.8,1.9-1.9,1.9h-15.3c-1,0-1.9-0.8-1.9-1.9v-3.7c0-1,0.8-1.9,1.9-1.9
			h15.3c1,0,1.9,0.8,1.9,1.9V139.8z"/>
		<path class="st0" d="M157.7,159.7v36.1c0,3.6,2.9,6.5,6.5,6.5h51c3.6,0,6.5-2.9,6.5-6.5v-36.1c0-3.6-2.9-6.5-6.5-6.5h-51
			C160.6,153.2,157.7,156.1,157.7,159.7z M221,159.7v36.1c0,3.2-2.6,5.8-5.8,5.8h-51c-3.2,0-5.8-2.6-5.8-5.8v-36.1
			c0-3.2,2.6-5.8,5.8-5.8h51C218.4,153.9,221,156.5,221,159.7z"/>
		<path class="st0" d="M168.4,139.8v-3.7c0-1.4-1.1-2.5-2.5-2.5h-15.3c-1.4,0-2.5,1.1-2.5,2.5v3.7c0,1.4,1.1,2.5,2.5,2.5h15.3
			C167.3,142.3,168.4,141.2,168.4,139.8z M148.8,139.8v-3.7c0-1,0.8-1.9,1.9-1.9h15.3c1,0,1.9,0.8,1.9,1.9v3.7c0,1-0.8,1.9-1.9,1.9
			h-15.3C149.6,141.6,148.8,140.8,148.8,139.8z"/>
		<path class="st0" d="M159.2,130.6v-7.4c0-0.5-0.4-0.9-0.9-0.9c-0.5,0-0.9,0.4-0.9,0.9v7.4c0,0.5,0.4,0.9,0.9,0.9
			C158.8,131.5,159.2,131.1,159.2,130.6z M158,130.6v-7.4c0-0.1,0.1-0.3,0.3-0.3c0.1,0,0.3,0.1,0.3,0.3v7.4c0,0.1-0.1,0.3-0.3,0.3
			C158.1,130.8,158,130.7,158,130.6z"/>
		<path class="st0" d="M190.7,130.6v-7.4c0-0.5-0.4-0.9-0.9-0.9c-0.5,0-0.9,0.4-0.9,0.9v7.4c0,0.5,0.4,0.9,0.9,0.9
			C190.3,131.5,190.7,131.1,190.7,130.6z M189.5,130.6v-7.4c0-0.1,0.1-0.3,0.3-0.3c0.1,0,0.3,0.1,0.3,0.3v7.4c0,0.1-0.1,0.3-0.3,0.3
			C189.7,130.8,189.5,130.7,189.5,130.6z"/>
		<path class="st0" d="M222.2,130.6v-7.4c0-0.5-0.4-0.9-0.9-0.9c-0.5,0-0.9,0.4-0.9,0.9v7.4c0,0.5,0.4,0.9,0.9,0.9
			C221.8,131.5,222.2,131.1,222.2,130.6z M221.1,130.6v-7.4c0-0.1,0.1-0.3,0.3-0.3c0.1,0,0.3,0.1,0.3,0.3v7.4c0,0.1-0.1,0.3-0.3,0.3
			C221.2,130.8,221.1,130.7,221.1,130.6z"/>
		<path class="st0" d="M397.5,80.1h-9.8c-1.4,0-2.5,1.1-2.5,2.5v3.7c0,1.4,1.1,2.5,2.5,2.5h9.8c1.4,0,2.5-1.1,2.5-2.5v-3.7
			C400,81.3,398.9,80.1,397.5,80.1z M399.4,86.3c0,1-0.8,1.9-1.9,1.9h-9.8c-1,0-1.9-0.8-1.9-1.9v-3.7c0-1,0.8-1.9,1.9-1.9h9.8
			c1,0,1.9,0.8,1.9,1.9V86.3z"/>
		<path class="st0" d="M383.3,83.6h-6.6c-0.5,0-0.9,0.4-0.9,0.9c0,0.5,0.4,0.9,0.9,0.9h6.6c0.5,0,0.9-0.4,0.9-0.9
			C384.2,84,383.8,83.6,383.3,83.6z M383.3,84.8h-6.6c-0.1,0-0.3-0.1-0.3-0.3c0-0.1,0.1-0.3,0.3-0.3h6.6c0.1,0,0.3,0.1,0.3,0.3
			C383.5,84.7,383.4,84.8,383.3,84.8z"/>
		<path class="st0" d="M397.5,96.7h-9.8c-1.4,0-2.5,1.1-2.5,2.5v3.7c0,1.4,1.1,2.5,2.5,2.5h9.8c1.4,0,2.5-1.1,2.5-2.5v-3.7
			C400,97.9,398.9,96.7,397.5,96.7z M399.4,102.9c0,1-0.8,1.9-1.9,1.9h-9.8c-1,0-1.9-0.8-1.9-1.9v-3.7c0-1,0.8-1.9,1.9-1.9h9.8
			c1,0,1.9,0.8,1.9,1.9V102.9z"/>
		<path class="st0" d="M383.3,100.2h-6.6c-0.5,0-0.9,0.4-0.9,0.9c0,0.5,0.4,0.9,0.9,0.9h6.6c0.5,0,0.9-0.4,0.9-0.9
			C384.2,100.6,383.8,100.2,383.3,100.2z M383.3,101.4h-6.6c-0.1,0-0.3-0.1-0.3-0.3s0.1-0.3,0.3-0.3h6.6c0.1,0,0.3,0.1,0.3,0.3
			S383.4,101.4,383.3,101.4z"/>
		<path class="st0" d="M397.5,113.3h-9.8c-1.4,0-2.5,1.1-2.5,2.5v3.7c0,1.4,1.1,2.5,2.5,2.5h9.8c1.4,0,2.5-1.1,2.5-2.5v-3.7
			C400,114.5,398.9,113.3,397.5,113.3z M399.4,119.5c0,1-0.8,1.9-1.9,1.9h-9.8c-1,0-1.9-0.8-1.9-1.9v-3.7c0-1,0.8-1.9,1.9-1.9h9.8
			c1,0,1.9,0.8,1.9,1.9V119.5z"/>
		<path class="st0" d="M383.3,116.8h-6.6c-0.5,0-0.9,0.4-0.9,0.9c0,0.5,0.4,0.9,0.9,0.9h6.6c0.5,0,0.9-0.4,0.9-0.9
			C384.2,117.2,383.8,116.8,383.3,116.8z M383.3,118h-6.6c-0.1,0-0.3-0.1-0.3-0.3s0.1-0.3,0.3-0.3h6.6c0.1,0,0.3,0.1,0.3,0.3
			S383.4,118,383.3,118z"/>
		<path class="st0" d="M397.5,129.9h-9.8c-1.4,0-2.5,1.1-2.5,2.5v3.7c0,1.4,1.1,2.5,2.5,2.5h9.8c1.4,0,2.5-1.1,2.5-2.5v-3.7
			C400,131.1,398.9,129.9,397.5,129.9z M399.4,136.1c0,1-0.8,1.9-1.9,1.9h-9.8c-1,0-1.9-0.8-1.9-1.9v-3.7c0-1,0.8-1.9,1.9-1.9h9.8
			c1,0,1.9,0.8,1.9,1.9V136.1z"/>
		<path class="st0" d="M383.3,133.4h-6.6c-0.5,0-0.9,0.4-0.9,0.9c0,0.5,0.4,0.9,0.9,0.9h6.6c0.5,0,0.9-0.4,0.9-0.9
			C384.2,133.8,383.8,133.4,383.3,133.4z M383.3,134.6h-6.6c-0.1,0-0.3-0.1-0.3-0.3c0-0.1,0.1-0.3,0.3-0.3h6.6
			c0.1,0,0.3,0.1,0.3,0.3C383.5,134.5,383.4,134.6,383.3,134.6z"/>
		<path class="st0" d="M397.5,146.5h-9.8c-1.4,0-2.5,1.1-2.5,2.5v3.7c0,1.4,1.1,2.5,2.5,2.5h9.8c1.4,0,2.5-1.1,2.5-2.5v-3.7
			C400,147.7,398.9,146.5,397.5,146.5z M399.4,152.7c0,1-0.8,1.9-1.9,1.9h-9.8c-1,0-1.9-0.8-1.9-1.9v-3.7c0-1,0.8-1.9,1.9-1.9h9.8
			c1,0,1.9,0.8,1.9,1.9V152.7z"/>
		<path class="st0" d="M383.3,150h-6.6c-0.5,0-0.9,0.4-0.9,0.9c0,0.5,0.4,0.9,0.9,0.9h6.6c0.5,0,0.9-0.4,0.9-0.9
			C384.2,150.4,383.8,150,383.3,150z M383.3,151.2h-6.6c-0.1,0-0.3-0.1-0.3-0.3s0.1-0.3,0.3-0.3h6.6c0.1,0,0.3,0.1,0.3,0.3
			S383.4,151.2,383.3,151.2z"/>
		<path class="st0" d="M397.5,163.1h-9.8c-1.4,0-2.5,1.1-2.5,2.5v3.7c0,1.4,1.1,2.5,2.5,2.5h9.8c1.4,0,2.5-1.1,2.5-2.5v-3.7
			C400,164.3,398.9,163.1,397.5,163.1z M399.4,169.3c0,1-0.8,1.9-1.9,1.9h-9.8c-1,0-1.9-0.8-1.9-1.9v-3.7c0-1,0.8-1.9,1.9-1.9h9.8
			c1,0,1.9,0.8,1.9,1.9V169.3z"/>
		<path class="st0" d="M383.3,166.6h-6.6c-0.5,0-0.9,0.4-0.9,0.9c0,0.5,0.4,0.9,0.9,0.9h6.6c0.5,0,0.9-0.4,0.9-0.9
			C384.2,167,383.8,166.6,383.3,166.6z M383.3,167.8h-6.6c-0.1,0-0.3-0.1-0.3-0.3c0-0.1,0.1-0.3,0.3-0.3h6.6c0.1,0,0.3,0.1,0.3,0.3
			C383.5,167.7,383.4,167.8,383.3,167.8z"/>
		<path class="st0" d="M397.5,179.7h-9.8c-1.4,0-2.5,1.1-2.5,2.5v3.7c0,1.4,1.1,2.5,2.5,2.5h9.8c1.4,0,2.5-1.1,2.5-2.5v-3.7
			C400,180.9,398.9,179.7,397.5,179.7z M399.4,185.9c0,1-0.8,1.9-1.9,1.9h-9.8c-1,0-1.9-0.8-1.9-1.9v-3.7c0-1,0.8-1.9,1.9-1.9h9.8
			c1,0,1.9,0.8,1.9,1.9V185.9z"/>
		<path class="st0" d="M383.3,183.2h-6.6c-0.5,0-0.9,0.4-0.9,0.9c0,0.5,0.4,0.9,0.9,0.9h6.6c0.5,0,0.9-0.4,0.9-0.9
			C384.2,183.6,383.8,183.2,383.3,183.2z M383.3,184.4h-6.6c-0.1,0-0.3-0.1-0.3-0.3s0.1-0.3,0.3-0.3h6.6c0.1,0,0.3,0.1,0.3,0.3
			S383.4,184.4,383.3,184.4z"/>
		<path class="st0" d="M397.5,196.3h-9.8c-1.4,0-2.5,1.1-2.5,2.5v3.7c0,1.4,1.1,2.5,2.5,2.5h9.8c1.4,0,2.5-1.1,2.5-2.5v-3.7
			C400,197.5,398.9,196.3,397.5,196.3z M399.4,202.5c0,1-0.8,1.9-1.9,1.9h-9.8c-1,0-1.9-0.8-1.9-1.9v-3.7c0-1,0.8-1.9,1.9-1.9h9.8
			c1,0,1.9,0.8,1.9,1.9V202.5z"/>
		<path class="st0" d="M383.3,199.8h-6.6c-0.5,0-0.9,0.4-0.9,0.9c0,0.5,0.4,0.9,0.9,0.9h6.6c0.5,0,0.9-0.4,0.9-0.9
			C384.2,200.2,383.8,199.8,383.3,199.8z M383.3,201h-6.6c-0.1,0-0.3-0.1-0.3-0.3c0-0.1,0.1-0.3,0.3-0.3h6.6c0.1,0,0.3,0.1,0.3,0.3
			C383.5,200.9,383.4,201,383.3,201z"/>
		<path class="st0" d="M397.5,212.9h-9.8c-1.4,0-2.5,1.1-2.5,2.5v3.7c0,1.4,1.1,2.5,2.5,2.5h9.8c1.4,0,2.5-1.1,2.5-2.5v-3.7
			C400,214.1,398.9,212.9,397.5,212.9z M399.4,219.1c0,1-0.8,1.9-1.9,1.9h-9.8c-1,0-1.9-0.8-1.9-1.9v-3.7c0-1,0.8-1.9,1.9-1.9h9.8
			c1,0,1.9,0.8,1.9,1.9V219.1z"/>
		<path class="st0" d="M383.3,216.4h-6.6c-0.5,0-0.9,0.4-0.9,0.9c0,0.5,0.4,0.9,0.9,0.9h6.6c0.5,0,0.9-0.4,0.9-0.9
			C384.2,216.8,383.8,216.4,383.3,216.4z M383.3,217.6h-6.6c-0.1,0-0.3-0.1-0.3-0.3s0.1-0.3,0.3-0.3h6.6c0.1,0,0.3,0.1,0.3,0.3
			S383.4,217.6,383.3,217.6z"/>
		<path class="st0" d="M397.5,229.5h-9.8c-1.4,0-2.5,1.1-2.5,2.5v3.7c0,1.4,1.1,2.5,2.5,2.5h9.8c1.4,0,2.5-1.1,2.5-2.5V232
			C400,230.7,398.9,229.5,397.5,229.5z M399.4,235.7c0,1-0.8,1.9-1.9,1.9h-9.8c-1,0-1.9-0.8-1.9-1.9V232c0-1,0.8-1.9,1.9-1.9h9.8
			c1,0,1.9,0.8,1.9,1.9V235.7z"/>
		<path class="st0" d="M383.3,233h-6.6c-0.5,0-0.9,0.4-0.9,0.9c0,0.5,0.4,0.9,0.9,0.9h6.6c0.5,0,0.9-0.4,0.9-0.9
			C384.2,233.4,383.8,233,383.3,233z M383.3,234.2h-6.6c-0.1,0-0.3-0.1-0.3-0.3s0.1-0.3,0.3-0.3h6.6c0.1,0,0.3,0.1,0.3,0.3
			S383.4,234.2,383.3,234.2z"/>
		<path class="st0" d="M397.5,246.1h-9.8c-1.4,0-2.5,1.1-2.5,2.5v3.7c0,1.4,1.1,2.5,2.5,2.5h9.8c1.4,0,2.5-1.1,2.5-2.5v-3.7
			C400,247.3,398.9,246.1,397.5,246.1z M399.4,252.3c0,1-0.8,1.9-1.9,1.9h-9.8c-1,0-1.9-0.8-1.9-1.9v-3.7c0-1,0.8-1.9,1.9-1.9h9.8
			c1,0,1.9,0.8,1.9,1.9V252.3z"/>
		<path class="st0" d="M383.3,249.6h-6.6c-0.5,0-0.9,0.4-0.9,0.9c0,0.5,0.4,0.9,0.9,0.9h6.6c0.5,0,0.9-0.4,0.9-0.9
			C384.2,250,383.8,249.6,383.3,249.6z M383.3,250.8h-6.6c-0.1,0-0.3-0.1-0.3-0.3c0-0.1,0.1-0.3,0.3-0.3h6.6c0.1,0,0.3,0.1,0.3,0.3
			C383.5,250.7,383.4,250.8,383.3,250.8z"/>
		<path class="st0" d="M397.5,262.7h-9.8c-1.4,0-2.5,1.1-2.5,2.5v3.7c0,1.4,1.1,2.5,2.5,2.5h9.8c1.4,0,2.5-1.1,2.5-2.5v-3.7
			C400,263.9,398.9,262.7,397.5,262.7z M399.4,268.9c0,1-0.8,1.9-1.9,1.9h-9.8c-1,0-1.9-0.8-1.9-1.9v-3.7c0-1,0.8-1.9,1.9-1.9h9.8
			c1,0,1.9,0.8,1.9,1.9V268.9z"/>
		<path class="st0" d="M383.3,266.2h-6.6c-0.5,0-0.9,0.4-0.9,0.9c0,0.5,0.4,0.9,0.9,0.9h6.6c0.5,0,0.9-0.4,0.9-0.9
			C384.2,266.6,383.8,266.2,383.3,266.2z M383.3,267.4h-6.6c-0.1,0-0.3-0.1-0.3-0.3c0-0.1,0.1-0.3,0.3-0.3h6.6
			c0.1,0,0.3,0.1,0.3,0.3C383.5,267.3,383.4,267.4,383.3,267.4z"/>
		<path class="st0" d="M252.1,340.4h-6.6c-0.9,0-1.6,0.7-1.6,1.6c0,0.9,0.7,1.6,1.6,1.6h6.6c0.9,0,1.6-0.7,1.6-1.6
			C253.7,341.2,253,340.4,252.1,340.4z M252.1,343h-6.6c-0.5,0-0.9-0.4-0.9-0.9s0.4-0.9,0.9-0.9h6.6c0.5,0,0.9,0.4,0.9,0.9
			S252.6,343,252.1,343z"/>
		<path class="st0" d="M159.5,159.6v36.3c0,2.3,2.1,4.5,4.3,4.5h51.6c2.3,0,4.3-2.1,4.3-4.4v-36.3c0-2.3-2-4.5-4.3-4.5h-51.6
			C161.7,155.2,159.5,157.3,159.5,159.6z M218.9,159.7v36.3c0,1.7-1.7,3.5-3.3,3.5h-51.6c-1.7,0-3.3-1.7-3.3-3.5v-36.3
			c0-1.7,1.7-3.4,3.4-3.4h51.6C217.3,156.1,218.9,157.9,218.9,159.7z"/>
		<path class="st0" d="M172.2,190.1h35c1.2,0,2.3-1.1,2.3-2.4v-19.8c0-1.2-1.1-2.4-2.3-2.4h-35c-1.2,0-2.3,1.1-2.3,2.3v19.9
			C169.9,188.9,171,190.1,172.2,190.1z M170.5,167.8c0-0.9,0.8-1.7,1.7-1.7h35c0.8,0,1.6,0.9,1.6,1.7v19.8c0,0.9-0.8,1.7-1.6,1.7
			h-35c-0.8,0-1.6-0.9-1.6-1.7V167.8z"/>
		<path class="st0" d="M178.3,184.9h22.8c1.3,0,2.5-1.2,2.5-2.5v-9.2c0-1.3-1.2-2.5-2.4-2.5h-22.8c-1.3,0-2.5,1.2-2.5,2.5v9.2
			C175.9,183.7,177,184.9,178.3,184.9z M176.8,173.1c0-0.8,0.8-1.5,1.5-1.5h22.8c0.7,0,1.4,0.8,1.4,1.6v9.2c0,0.8-0.7,1.5-1.5,1.5
			h-22.8c-0.7,0-1.5-0.8-1.5-1.6V173.1z"/>
		<path class="st0" d="M257.2,223.4h-16.4c-1.4,0-2.5,1.1-2.5,2.5v7.1c0,1.4,1.1,2.5,2.5,2.5h16.4c1.4,0,2.5-1.1,2.5-2.5v-7.1
			C259.7,224.5,258.6,223.4,257.2,223.4z M259,233c0,1-0.8,1.9-1.9,1.9h-16.4c-1,0-1.9-0.8-1.9-1.9v-7.1c0-1,0.8-1.9,1.9-1.9h16.4
			c1,0,1.9,0.8,1.9,1.9V233z"/>
		<path class="st0" d="M257.2,171.5h-16.4c-1.4,0-2.5,1.1-2.5,2.5v7.1c0,1.4,1.1,2.5,2.5,2.5h16.4c1.4,0,2.5-1.1,2.5-2.5V174
			C259.7,172.6,258.6,171.5,257.2,171.5z M259,181.1c0,1-0.8,1.9-1.9,1.9h-16.4c-1,0-1.9-0.8-1.9-1.9V174c0-1,0.8-1.9,1.9-1.9h16.4
			c1,0,1.9,0.8,1.9,1.9V181.1z"/>
		<path class="st0" d="M257.2,252h-16.4c-1.4,0-2.5,1.1-2.5,2.5v7.1c0,1.4,1.1,2.5,2.5,2.5h16.4c1.4,0,2.5-1.1,2.5-2.5v-7.1
			C259.7,253.1,258.6,252,257.2,252z M259,261.6c0,1-0.8,1.9-1.9,1.9h-16.4c-1,0-1.9-0.8-1.9-1.9v-7.1c0-1,0.8-1.9,1.9-1.9h16.4
			c1,0,1.9,0.8,1.9,1.9V261.6z"/>
		<path class="st0" d="M257.2,280h-16.4c-1.4,0-2.5,1.1-2.5,2.5v7.1c0,1.4,1.1,2.5,2.5,2.5h16.4c1.4,0,2.5-1.1,2.5-2.5v-7.1
			C259.7,281.1,258.6,280,257.2,280z M259,289.6c0,1-0.8,1.9-1.9,1.9h-16.4c-1,0-1.9-0.8-1.9-1.9v-7.1c0-1,0.8-1.9,1.9-1.9h16.4
			c1,0,1.9,0.8,1.9,1.9V289.6z"/>
		<path class="st0" d="M257.2,308h-16.4c-1.4,0-2.5,1.1-2.5,2.5v7.1c0,1.4,1.1,2.5,2.5,2.5h16.4c1.4,0,2.5-1.1,2.5-2.5v-7.1
			C259.7,309.1,258.6,308,257.2,308z M259,317.5c0,1-0.8,1.9-1.9,1.9h-16.4c-1,0-1.9-0.8-1.9-1.9v-7.1c0-1,0.8-1.9,1.9-1.9h16.4
			c1,0,1.9,0.8,1.9,1.9V317.5z"/>
		<path class="st0" d="M340.3,308h-17.9c-1.4,0-2.5,1.1-2.5,2.5v7.1c0,1.4,1.1,2.5,2.5,2.5h17.9c1.4,0,2.5-1.1,2.5-2.5v-7.1
			C342.8,309.1,341.7,308,340.3,308z M342.2,317.5c0,1-0.8,1.9-1.9,1.9h-17.9c-1,0-1.9-0.8-1.9-1.9v-7.1c0-1,0.8-1.9,1.9-1.9h17.9
			c1,0,1.9,0.8,1.9,1.9V317.5z"/>
		<path class="st0" d="M209.7,337.1h-40.7c-1.8,0-3.3,1.5-3.3,3.3v4c0,1.8,1.5,3.3,3.3,3.3h40.7c1.8,0,3.3-1.5,3.3-3.3v-4
			C213.1,338.6,211.6,337.1,209.7,337.1z M212.4,344.4c0,1.5-1.2,2.7-2.7,2.7h-40.7c-1.5,0-2.7-1.2-2.7-2.7v-4
			c0-1.5,1.2-2.7,2.7-2.7h40.7c1.5,0,2.7,1.2,2.7,2.7V344.4z"/>
		<path class="st0" d="M122.5,235.5h15.3c1.4,0,2.5-1.1,2.5-2.5v-7.1c0-1.4-1.1-2.5-2.5-2.5h-15.3c-1.4,0-2.5,1.1-2.5,2.5v7.1
			C120,234.4,121.1,235.5,122.5,235.5z M120.7,225.9c0-1,0.8-1.9,1.9-1.9h15.3c1,0,1.9,0.8,1.9,1.9v7.1c0,1-0.8,1.9-1.9,1.9h-15.3
			c-1,0-1.9-0.8-1.9-1.9V225.9z"/>
		<path class="st0" d="M122.5,264.1h15.3c1.4,0,2.5-1.1,2.5-2.5v-7.1c0-1.4-1.1-2.5-2.5-2.5h-15.3c-1.4,0-2.5,1.1-2.5,2.5v7.1
			C120,263,121.1,264.1,122.5,264.1z M120.7,254.5c0-1,0.8-1.9,1.9-1.9h15.3c1,0,1.9,0.8,1.9,1.9v7.1c0,1-0.8,1.9-1.9,1.9h-15.3
			c-1,0-1.9-0.8-1.9-1.9V254.5z"/>
		<path class="st0" d="M137.8,280h-15.3c-1.4,0-2.5,1.1-2.5,2.5v7.1c0,1.4,1.1,2.5,2.5,2.5h15.3c1.4,0,2.5-1.1,2.5-2.5v-7.1
			C140.3,281.1,139.2,280,137.8,280z M139.6,289.6c0,1-0.8,1.9-1.9,1.9h-15.3c-1,0-1.9-0.8-1.9-1.9v-7.1c0-1,0.8-1.9,1.9-1.9h15.3
			c1,0,1.9,0.8,1.9,1.9V289.6z"/>
		<path class="st0" d="M137.8,308h-15.3c-1.4,0-2.5,1.1-2.5,2.5v7.1c0,1.4,1.1,2.5,2.5,2.5h15.3c1.4,0,2.5-1.1,2.5-2.5v-7.1
			C140.3,309.1,139.2,308,137.8,308z M139.6,317.5c0,1-0.8,1.9-1.9,1.9h-15.3c-1,0-1.9-0.8-1.9-1.9v-7.1c0-1,0.8-1.9,1.9-1.9h15.3
			c1,0,1.9,0.8,1.9,1.9V317.5z"/>
		<path class="st0" d="M161.4,219.3c-5.6,0-10.1,4.5-10.1,10.1c0,5.6,4.5,10.1,10.1,10.1s10.1-4.5,10.1-10.1
			C171.4,223.8,166.9,219.3,161.4,219.3z M161.4,238.8c-5.2,0-9.4-4.2-9.4-9.4c0-5.2,4.2-9.4,9.4-9.4s9.4,4.2,9.4,9.4
			C170.8,234.5,166.6,238.8,161.4,238.8z"/>
		<path class="st0" d="M189.6,219.3c-5.6,0-10.1,4.5-10.1,10.1c0,5.6,4.5,10.1,10.1,10.1c5.6,0,10.1-4.5,10.1-10.1
			C199.6,223.8,195.1,219.3,189.6,219.3z M189.6,238.8c-5.2,0-9.4-4.2-9.4-9.4c0-5.2,4.2-9.4,9.4-9.4c5.2,0,9.4,4.2,9.4,9.4
			C199,234.5,194.8,238.8,189.6,238.8z"/>
		<path class="st0" d="M217.8,219.3c-5.6,0-10.1,4.5-10.1,10.1c0,5.6,4.5,10.1,10.1,10.1c5.6,0,10.1-4.5,10.1-10.1
			C227.9,223.8,223.4,219.3,217.8,219.3z M217.8,238.8c-5.2,0-9.4-4.2-9.4-9.4c0-5.2,4.2-9.4,9.4-9.4c5.2,0,9.4,4.2,9.4,9.4
			C227.3,234.5,223,238.8,217.8,238.8z"/>
		<path class="st0" d="M161.4,247.5c-5.6,0-10.1,4.5-10.1,10.1c0,5.6,4.5,10.1,10.1,10.1s10.1-4.5,10.1-10.1
			C171.4,252.1,166.9,247.5,161.4,247.5z M161.4,267c-5.2,0-9.4-4.2-9.4-9.4c0-5.2,4.2-9.4,9.4-9.4s9.4,4.2,9.4,9.4
			C170.8,262.8,166.6,267,161.4,267z"/>
		<path class="st0" d="M189.6,247.5c-5.6,0-10.1,4.5-10.1,10.1c0,5.6,4.5,10.1,10.1,10.1c5.6,0,10.1-4.5,10.1-10.1
			C199.6,252.1,195.1,247.5,189.6,247.5z M189.6,267c-5.2,0-9.4-4.2-9.4-9.4c0-5.2,4.2-9.4,9.4-9.4c5.2,0,9.4,4.2,9.4,9.4
			C199,262.8,194.8,267,189.6,267z"/>
		<path class="st0" d="M217.8,247.5c-5.6,0-10.1,4.5-10.1,10.1c0,5.6,4.5,10.1,10.1,10.1c5.6,0,10.1-4.5,10.1-10.1
			C227.9,252.1,223.4,247.5,217.8,247.5z M217.8,267c-5.2,0-9.4-4.2-9.4-9.4c0-5.2,4.2-9.4,9.4-9.4c5.2,0,9.4,4.2,9.4,9.4
			C227.3,262.8,223,267,217.8,267z"/>
		<path class="st0" d="M171.4,285.9c0-5.6-4.5-10.1-10.1-10.1s-10.1,4.5-10.1,10.1c0,5.6,4.5,10.1,10.1,10.1
			S171.4,291.4,171.4,285.9z M151.9,285.9c0-5.2,4.2-9.4,9.4-9.4s9.4,4.2,9.4,9.4c0,5.2-4.2,9.4-9.4,9.4S151.9,291.1,151.9,285.9z"
			/>
		<path class="st0" d="M189.6,275.8c-5.6,0-10.1,4.5-10.1,10.1c0,5.6,4.5,10.1,10.1,10.1c5.6,0,10.1-4.5,10.1-10.1
			C199.6,280.3,195.1,275.8,189.6,275.8z M189.6,295.3c-5.2,0-9.4-4.2-9.4-9.4c0-5.2,4.2-9.4,9.4-9.4c5.2,0,9.4,4.2,9.4,9.4
			C199,291.1,194.8,295.3,189.6,295.3z"/>
		<path class="st0" d="M217.8,275.8c-5.6,0-10.1,4.5-10.1,10.1c0,5.6,4.5,10.1,10.1,10.1c5.6,0,10.1-4.5,10.1-10.1
			C227.9,280.3,223.4,275.8,217.8,275.8z M217.8,295.3c-5.2,0-9.4-4.2-9.4-9.4c0-5.2,4.2-9.4,9.4-9.4c5.2,0,9.4,4.2,9.4,9.4
			C227.3,291.1,223,295.3,217.8,295.3z"/>
		<path class="st0" d="M171.4,314.2c0-5.6-4.5-10.1-10.1-10.1s-10.1,4.5-10.1,10.1c0,5.6,4.5,10.1,10.1,10.1
			S171.4,319.7,171.4,314.2z M161.4,323.6c-5.2,0-9.4-4.2-9.4-9.4c0-5.2,4.2-9.4,9.4-9.4s9.4,4.2,9.4,9.4
			C170.8,319.4,166.6,323.6,161.4,323.6z"/>
		<path class="st0" d="M199.6,314.2c0-5.6-4.5-10.1-10.1-10.1c-5.6,0-10.1,4.5-10.1,10.1c0,5.6,4.5,10.1,10.1,10.1
			C195.1,324.2,199.6,319.7,199.6,314.2z M189.6,323.6c-5.2,0-9.4-4.2-9.4-9.4c0-5.2,4.2-9.4,9.4-9.4c5.2,0,9.4,4.2,9.4,9.4
			C199,319.4,194.8,323.6,189.6,323.6z"/>
		<path class="st0" d="M217.8,304.1c-5.6,0-10.1,4.5-10.1,10.1c0,5.6,4.5,10.1,10.1,10.1c5.6,0,10.1-4.5,10.1-10.1
			C227.9,308.6,223.4,304.1,217.8,304.1z M217.8,323.6c-5.2,0-9.4-4.2-9.4-9.4c0-5.2,4.2-9.4,9.4-9.4c5.2,0,9.4,4.2,9.4,9.4
			C227.3,319.4,223,323.6,217.8,323.6z"/>
		<path class="st0" d="M190.9,259.5c0-0.8-0.6-1.4-1.4-1.4c-0.8,0-1.4,0.6-1.4,1.4c0,0.8,0.6,1.4,1.4,1.4
			C190.3,260.8,190.9,260.2,190.9,259.5z M188.8,259.5c0-0.4,0.3-0.7,0.7-0.7s0.7,0.3,0.7,0.7c0,0.4-0.3,0.7-0.7,0.7
			S188.8,259.9,188.8,259.5z"/>
		<path class="st0" d="M263.9,312.2c-0.9,0-1.7,0.8-1.7,1.7c0,0.9,0.8,1.7,1.7,1.7c0.9,0,1.7-0.8,1.7-1.7
			C265.6,313,264.8,312.2,263.9,312.2z M263.9,314.9c-0.6,0-1-0.5-1-1c0-0.6,0.5-1.1,1-1.1c0.6,0,1,0.5,1,1.1
			C264.9,314.5,264.4,314.9,263.9,314.9z"/>
		<path class="st0" d="M404.6,165.8c-0.9,0-1.7,0.8-1.7,1.7c0,0.9,0.8,1.7,1.7,1.7c0.9,0,1.7-0.8,1.7-1.7
			C406.3,166.6,405.5,165.8,404.6,165.8z M404.6,168.6c-0.6,0-1-0.5-1-1c0-0.6,0.5-1,1-1c0.6,0,1,0.5,1,1
			C405.6,168.1,405.1,168.6,404.6,168.6z"/>
		<path class="st0" d="M163.6,251.5h-1.7l-0.1,0.1l-5.4,8.2l0,0.1v1.3h5.7v2.1h1.6v-2.1h1v-1.5h-1V251.5z M162,259.7h-3.2
			c-0.2,0-0.3-0.1-0.3-0.3c0-0.1,0-0.1,0-0.2l2.9-4.4c0-0.1,0.1-0.1,0.2-0.1c0.2,0,0.3,0.1,0.3,0.3V259.7z"/>
		<path class="st0" d="M165.3,279.6h-6.9v1.5h4.7c0.2,0,0.3,0.1,0.3,0.3c0,0,0,0.1,0,0.1l-4.4,9.9h1.7l4.7-10.4V279.6z"/>
		<path class="st0" d="M162.6,313.2C162.6,313.2,162.6,313.1,162.6,313.2l2.1-3.7l-1.4-0.8l-2.1,3.6c0,0.1-0.1,0.1-0.2,0.1
			s-0.1,0-0.2-0.1l-2.1-3.6l-1.4,0.8l2,3.6c0,0,0,0.1,0,0.1c0,0.1-0.1,0.2-0.2,0.2h-4.1v1.6h4.1c0.1,0,0.2,0.1,0.2,0.2
			c0,0,0,0.1,0,0.1l-2.1,3.6l1.4,0.8l2.1-3.6c0-0.1,0.1-0.1,0.2-0.1s0.1,0,0.2,0.1l2.1,3.6l1.4-0.8l-2.1-3.6c0,0,0-0.1,0-0.1
			c0-0.1,0.1-0.2,0.2-0.2h4.1v-1.6h-4.1C162.7,313.4,162.6,313.3,162.6,313.2z"/>
		<path class="st0" d="M189.6,308.1c-1.2,0-2.3,0.5-3.1,1.4c-0.8,0.9-0.9,1.9-0.9,3v2.9c0,1.2,0.1,2.3,0.9,3.3
			c0.8,0.9,1.8,1.4,3.1,1.4c1.3,0,2.3-0.5,3.1-1.5c0.8-1,0.9-2.1,0.9-3.2v-2.9c0-1.4-0.3-2.4-1-3.2
			C191.8,308.6,190.8,308.1,189.6,308.1z M192,315.3c0,0.8,0,1.7-0.3,2.2c-0.4,0.7-1.1,1.1-2,1.1c-0.9,0-1.5-0.3-2-1
			c-0.4-0.6-0.4-1.7-0.4-2.4v-2.5c0-0.9,0.1-1.6,0.4-2c0.4-0.7,1.2-1.2,2.1-1.2c0.8,0,1.5,0.4,1.9,1c0.4,0.6,0.4,1.5,0.4,2.2V315.3z
			"/>
		<path class="st0" d="M192,285c-0.1-0.1-0.1-0.1-0.1-0.2c0-0.1,0-0.2,0.1-0.2c0.5-0.5,0.8-1.2,0.8-2c0-0.9-0.3-1.7-0.9-2.3
			c-0.6-0.6-1.4-0.9-2.2-0.9c-0.9,0-1.8,0.3-2.4,0.9c-0.6,0.6-0.9,1.3-0.9,2.2c0,0.8,0.3,1.5,0.8,2c0,0.1,0.1,0.1,0.1,0.2
			c0,0.1,0,0.2-0.1,0.2c-0.9,0.7-1.4,1.9-1.4,2.8c0,1,0.4,1.9,1.1,2.6c0.7,0.7,1.7,1.1,2.7,1.1c2.1,0,3.8-1.7,3.8-3.8
			C193.4,286.7,192.9,285.7,192,285z M189.6,281c0.4,0,0.8,0.2,1.1,0.5c0.3,0.3,0.5,0.7,0.5,1.1c0,0.4-0.2,0.8-0.5,1.1
			c-0.3,0.3-0.7,0.5-1.1,0.5c-0.5,0-0.9-0.2-1.2-0.5c-0.3-0.3-0.5-0.7-0.5-1.1C188,281.6,188.8,281,189.6,281z M191.2,289.4
			c-0.4,0.4-1,0.7-1.6,0.7c-0.6,0-1.1-0.2-1.5-0.6c-0.4-0.4-0.6-0.9-0.6-1.5c0-1.2,1-2.2,2.2-2.2c0.6,0,1.2,0.2,1.6,0.7
			c0.4,0.4,0.6,0.9,0.6,1.5C191.8,288.4,191.6,289,191.2,289.4z"/>
		<path class="st0" d="M189.5,255c-0.4,0-0.8,0.1-1.1,0.2c0,0,0,0-0.1,0c-0.2,0-0.3-0.1-0.3-0.3c0,0,0,0,0,0l0.4-2h4.2v-1.5h-5.5
			l-1.1,5.9l1.2,0.4l0.1-0.1c0.6-0.7,1.4-1.1,2.1-1.1c0.6,0,1.2,0.2,1.7,0.7c0.5,0.5,0.8,1.2,0.8,1.9c0,0.7-0.3,1.4-0.8,1.9
			c-0.5,0.5-1.1,0.7-1.7,0.7c-1.3,0-2.3-1.1-2.4-2.4l0-0.2h-1.6l0,0.3c0.2,2.3,1.9,4,4.1,4c2.2,0,4-1.9,4-4.2c0-1.1-0.5-2.2-1.2-3
			C191.5,255.4,190.5,255,189.5,255z"/>
		<path class="st0" d="M191.2,230.8L191.2,230.8c1.1-1.1,2.2-2.1,2.2-3.9c0-0.9-0.4-1.9-1.1-2.6c-0.7-0.7-1.5-1.1-2.6-1.1
			c-1.1,0-2.1,0.4-2.8,1.2c-0.7,0.8-1.1,1.8-1,2.9l0,0.2h1.6l0-0.2c0-0.6,0.1-1.1,0.3-1.4c0.4-0.6,1.1-1.1,1.9-1.1
			c0.6,0,1.2,0.2,1.6,0.7c0.4,0.4,0.6,0.9,0.6,1.5c0,1.1-0.9,1.9-1.7,2.7l0,0l-4.3,4.1l-0.1,0.1v1.3h7.6v-1.5h-4.5
			c-0.2,0-0.3-0.1-0.3-0.3c0-0.1,0-0.2,0.1-0.2C189.5,232.4,191.2,230.8,191.2,230.8z"/>
		<path class="st0" d="M220.3,228.6c-0.1-0.1-0.1-0.1-0.1-0.2c0-0.1,0-0.1,0.1-0.2c0.5-0.5,0.7-1.1,0.7-1.8c0-0.9-0.3-1.7-0.9-2.2
			c-0.6-0.6-1.3-0.9-2.1-0.9c-0.9,0-1.6,0.3-2.2,0.9c-0.6,0.6-0.9,1.4-0.9,2.4v0.2h1.6v-0.2c0-0.8,0.5-1.7,1.4-1.7
			c0.4,0,0.8,0.2,1.1,0.4c0.3,0.3,0.4,0.6,0.4,1c0,0.4-0.1,0.8-0.4,1c-0.3,0.3-0.8,0.5-1.4,0.5l-0.4,0l-0.3,0v1.5l0.2,0
			c0.1,0,0.2,0,0.3,0c0.4,0,0.8,0,1.2,0.1c0.9,0.3,1.5,1.2,1.5,2.1c0,0.6-0.2,1.2-0.7,1.6c-0.4,0.4-1,0.7-1.6,0.7
			c-0.7,0-1.4-0.4-1.8-1.1c-0.2-0.4-0.3-0.8-0.3-1.3l0-0.2h-1.6l0,0.2c0,1,0.4,2.1,1.1,2.8c0.7,0.7,1.7,1.1,2.7,1.1
			c2.1,0,3.8-1.7,3.8-3.9C221.7,230.3,221.2,229.2,220.3,228.6z"/>
		<path class="st0" d="M218,255c-0.1,0-0.1,0-0.1,0c-0.2,0-0.3-0.1-0.3-0.3c0-0.1,0-0.1,0-0.2l2.1-3.2h-1.9l-0.1,0.1
			c0,0-2.7,4-2.7,4l-0.2,0.3c-0.7,1.1-1.3,2-1.3,3.4c0,1.1,0.4,2.2,1.2,3c0.8,0.8,1.8,1.2,2.8,1.2c1.2,0,2.1-0.4,2.9-1.3
			c0.7-0.8,1.2-1.9,1.2-2.9c0-1.1-0.5-2.3-1.3-3.1C219.8,255.4,218.9,255,218,255z M219.4,261.1c-0.5,0.5-1.1,0.7-1.7,0.7
			c-0.6,0-1.2-0.2-1.7-0.7c-0.5-0.5-0.8-1.2-0.8-2c0-1.4,1.1-2.5,2.4-2.5c0.6,0,1.2,0.3,1.7,0.7c0.5,0.5,0.8,1.2,0.8,1.9
			C220.2,259.9,219.9,260.6,219.4,261.1z"/>
		<path class="st0" d="M217.7,279.4c-1.2,0-2.1,0.4-2.9,1.3c-0.7,0.8-1.2,1.9-1.2,2.9c0,1.1,0.5,2.3,1.3,3.1
			c0.7,0.7,1.6,1.1,2.5,1.1c0.1,0,0.1,0,0.1,0c0.2,0,0.3,0.1,0.3,0.3c0,0.1,0,0.1,0,0.2l-1.9,2.8l-0.3,0.4h1.9l0.1-0.1l2.7-4
			l0.2-0.3c0.7-1.1,1.3-2,1.3-3.4c0-1.1-0.4-2.2-1.2-3C219.8,279.9,218.8,279.4,217.7,279.4z M219.4,285.5c-0.5,0.4-1,0.7-1.6,0.6
			l0,0l0,0c-0.6,0-1.2-0.2-1.6-0.7c-0.5-0.5-0.8-1.2-0.8-1.9c0-0.7,0.3-1.3,0.7-1.8c0.5-0.5,1.1-0.7,1.7-0.7c0.6,0,1.2,0.2,1.7,0.7
			c0.5,0.5,0.8,1.2,0.8,2C220.2,284.4,219.9,285.1,219.4,285.5z"/>
		<path class="st0" d="M222.1,308.7L222.1,308.7l-1.4-0.1l-0.4,2.2h-4.1l0.4-2.1l0-0.1h-1.4l-0.4,2.2h-2.1l-0.2,1.4l0,0.1h2.1
			l-0.7,4h-2.1l-0.2,1.4l0,0.1h2.1l-0.4,2.1l0,0.1h1.4l0.4-2.2h4.1l-0.4,2.1l0,0.1h1.4l0.4-2.2h2.1l0.2-1.4l0-0.1h-2.1l0.7-4h2.1
			l0.2-1.4l0-0.1h-2.1L222.1,308.7z M220.1,312.2l-0.7,4h-4.1l0.7-4H220.1z"/>
		<polygon class="st0" points="158.9,224.9 160.8,224.9 160.8,235.1 162.4,235.1 162.4,223.4 158.9,223.4 		"/>
		<path class="st0" d="M234.4,75.5h-88.8c0,0-2.7,0.1-3.3,3.3l-0.2,37.5c0,1,0.7,2.9,3.3,3.3h89.1c0,0,0,0,0,0
			c3.2-0.5,3.3-3.3,3.3-3.3l-0.2-37.5C237.1,75.5,234.4,75.5,234.4,75.5z M234.5,118.9l-89,0c-2.6-0.4-2.7-2.6-2.7-2.7l0.2-37.4
			c0.5-2.7,2.6-2.7,2.7-2.7h88.8c0,0,2.2,0.1,2.7,2.7l0.2,37.4C237.2,116.3,237.2,118.5,234.5,118.9z"/>
		<path class="st0" d="M236.6,79.7c-0.1-3.3-3-3.6-3-3.6l-87.2,0c0,0-2.8,0.2-3,3.6l-0.2,35.6c0,0-0.2,2.9,3.1,3.6h87.3
			c0,0,0,0,0.1,0c3.4-0.8,3.1-3.5,3.1-3.5L236.6,79.7z M233.6,118.2l-87.2,0c-2.7-0.5-2.6-2.8-2.5-2.9l0.2-35.6c0.1-2.8,2.3-3,2.4-3
			l87.2,0c0.1,0,2.3,0.2,2.4,3l0.2,35.7C236.2,115.5,236.4,117.6,233.6,118.2z"/>
		<path class="st0" d="M371,73.9h-79.4c0,0-2.7,0.1-3.3,3.3l0.1,200.4c0,1,0.7,2.9,3.3,3.3H371c0,0,0,0,0,0c3.2-0.5,3.3-3.3,3.3-3.3
			l0-200.4C373.7,74,371.1,73.9,371,73.9z M371,280.3l-79.3,0c-2.6-0.4-2.7-2.6-2.7-2.7l-0.1-200.3c0.5-2.7,2.6-2.7,2.7-2.7H371
			c0,0,2.2,0.1,2.7,2.7l0,200.4C373.7,277.7,373.6,279.9,371,280.3z"/>
		<path class="st0" d="M373.3,78.2c-0.1-3.3-3-3.6-3-3.6l-77.9,0c0,0-2.8,0.2-3,3.6l0,198.5c0,0-0.2,2.9,3.1,3.6h77.6c0,0,0,0,0.1,0
			c3.4-0.8,3.1-3.5,3.1-3.5L373.3,78.2z M370.1,279.7l-77.5,0c-2.7-0.5-2.6-2.8-2.5-2.9l0-198.6c0.1-2.8,2.3-3,2.4-3l77.8,0
			c0.1,0,2.3,0.2,2.4,3l0.1,198.6C372.7,276.9,372.9,279,370.1,279.7z"/>
		<path class="st0" d="M406.1,39l-128.6,0c-0.2,0-0.4,0.1-0.6,0.2h-3.3c-0.2-0.1-0.4-0.2-0.5-0.2H101.1l0.2-25.3
			C101.1,6.5,94.7,0.3,87.3,0L39,0c-1.8,0-3.6,0.5-5.3,1.2c-4.9,2.2-8.6,7-8.8,12.4l-0.2,19.6v5.7l-10.3,0C7.4,39,0.9,45.7,0.6,53.1
			L0,351.3c0.2,6.8,5.7,12.9,12.6,13.8l1.2,0c0,0,0,0,0,0c0,0,0,0,0,0h392.2c7.7,0,13.9-6.3,13.9-13.9V52.9
			C420,45.2,413.7,39,406.1,39z M277.2,362.3L277.2,362.3l0-305.2c0,0,0,0,0,0c0,0,0-0.1,0-0.1V41.8h128.9c6.1,0,11.1,5,11.1,11.1
			v298.3c0,6.1-5,11.1-11.1,11.1H277.2z M15,362.3C15,362.3,15,362.3,15,362.3c-0.3,0-5.1-0.6-8.9-4.3c-3.4-3.4-3.6-8.2-3.6-8.2
			c0-2.9,0.6-291.3,0.6-296.1c0-4.6,3.6-8.2,3.7-8.2c4.5-4,8.4-3.7,8.5-3.7h9.4c0,6.2-0.1,12.4-0.1,18.7h-6.2c0,0-0.1,0-0.1,0
			c-0.1,0-1.8,0.5-1.8,3.8c0,3-0.1,58.7-0.1,60.5c-0.1,0.2-0.3,1.2,0.2,1.9c0.3,0.5,0.9,0.7,1.7,0.7h6c0,4.6,0,9.3,0,13.9
			c-0.6,0.3-1.1,0.9-1.1,1.6c0,0.7,0.4,1.3,1.1,1.6c0,1.3,0,2.7,0,4c-0.9,0.2-1.5,1-1.5,1.9c0,0.9,0.7,1.7,1.5,1.9
			c0,1.2,0,2.5,0,3.7c-0.9,0.2-1.5,1-1.5,1.9c0,0.9,0.7,1.7,1.5,1.9c0,1.2,0,2.5,0,3.7c-0.9,0.2-1.5,1-1.5,1.9
			c0,0.9,0.6,1.7,1.5,1.9c0,1.2,0,2.5,0,3.7c-0.8,0.2-1.5,1-1.5,1.9c0,0.9,0.6,1.7,1.5,1.9c0,1.3,0,2.5,0,3.7
			c-0.8,0.2-1.5,1-1.5,1.9c0,0.9,0.6,1.7,1.5,1.9c0,1.2,0,2.5,0,3.7c-0.8,0.2-1.5,1-1.5,1.9c0,0.9,0.6,1.7,1.5,1.9
			c0,1.2,0,2.5,0,3.7c-0.8,0.2-1.5,1-1.5,1.9c0,0.9,0.6,1.6,1.5,1.9c0,1.2,0,2.5,0,3.7c-0.8,0.2-1.5,1-1.5,1.9
			c0,0.9,0.6,1.6,1.5,1.9c0,1.2,0,2.5,0,3.7c-0.8,0.2-1.5,1-1.5,1.9c0,0.9,0.6,1.6,1.5,1.9c0,1.3,0,2.5,0,3.7
			c-0.8,0.2-1.5,1-1.5,1.9c0,0.9,0.6,1.6,1.5,1.9c0,1.3,0,2.6,0,4c-0.7,0.2-1.2,0.9-1.2,1.6c0,0.8,0.5,1.4,1.2,1.6
			c0,34.8,0.1,69.4,0.3,103.5c0.2,7.1,6.7,13.3,14.1,13.6h15.2c0.4,0,0.6-0.3,0.6-0.6l0-0.1l0.1-0.3h16.4l0.2,0.6l0.1,0.2
			c0.1,0.2,0.3,0.4,0.6,0.4h15.2c7.4-0.2,13.7-6.4,13.9-13.5c-0.1-35.3-0.2-69.7-0.2-103.6c0.6-0.3,1.1-0.9,1.1-1.6
			c0-0.7-0.5-1.4-1.1-1.6c0-1.3,0-2.7,0-4c0.8-0.3,1.3-1,1.3-1.9c0-0.9-0.6-1.6-1.3-1.9c0-1.3,0-2.5,0-3.8c0.8-0.3,1.3-1,1.3-1.9
			c0-0.9-0.6-1.6-1.3-1.9c0-1.3,0-2.5,0-3.8c0.8-0.3,1.3-1,1.3-1.9c0-0.9-0.6-1.6-1.3-1.9c0-1.3,0-2.5,0-3.8c0.8-0.3,1.3-1,1.3-1.9
			c0-0.9-0.6-1.6-1.3-1.9c0-1.3,0-2.5,0-3.8c0.8-0.3,1.3-1,1.3-1.9c0-0.9-0.6-1.6-1.3-1.9c0-1.3,0-2.5,0-3.8c0.8-0.3,1.3-1,1.3-1.8
			c0-0.9-0.6-1.6-1.3-1.8c0-1.3,0-2.5,0-3.8c0.8-0.3,1.3-1,1.3-1.8c0-0.9-0.6-1.6-1.3-1.8c0-1.3,0-2.5,0-3.8c0.8-0.3,1.3-1,1.3-1.8
			c0-0.9-0.6-1.6-1.3-1.8c0-1.3,0-2.5,0-3.8c0.8-0.3,1.3-1,1.3-1.8c0-0.8-0.5-1.6-1.3-1.8c0-1.3,0-2.5,0-3.8c0.8-0.3,1.3-1,1.3-1.8
			c0-0.8-0.5-1.6-1.3-1.8c0-1.4,0-2.8,0-4.2c0.5-0.3,0.8-0.8,0.8-1.4c0-0.6-0.3-1.1-0.8-1.4c0-4.7,0-9.4,0-14.1h6
			c0.8,0,1.3-0.2,1.7-0.7c0.5-0.7,0.3-1.7,0.2-1.9c0-1.8-0.1-57.5-0.1-60.5c0-3.3-1.7-3.8-1.8-3.8c0,0-0.1,0-0.1,0H101
			c0-6.2,0.1-12.5,0.1-18.7h28.3h143.9h0V57c0,0,0,0.1,0,0.1c0,0,0,0,0,0v305.2H15z M24.4,151.5c-0.5-0.2-0.9-0.7-0.9-1.2
			c0-0.6,0.4-1.1,0.9-1.2C24.4,149.9,24.4,150.7,24.4,151.5z M24.3,159c-0.5-0.2-0.9-0.7-0.9-1.2c0-0.6,0.4-1,0.9-1.2
			C24.4,157.4,24.3,158.2,24.3,159z M24.3,166.5c-0.5-0.2-0.8-0.7-0.8-1.2c0-0.6,0.4-1,0.9-1.2C24.3,164.9,24.3,165.7,24.3,166.5z
			 M24.3,174c-0.5-0.2-0.8-0.7-0.8-1.2c0-0.6,0.3-1,0.8-1.2C24.3,172.4,24.3,173.2,24.3,174z M24.3,181.5c-0.5-0.2-0.8-0.7-0.8-1.2
			c0-0.6,0.3-1,0.8-1.2C24.3,179.9,24.3,180.7,24.3,181.5z M24.3,189c-0.5-0.2-0.8-0.7-0.8-1.2c0-0.6,0.3-1,0.8-1.2
			C24.3,187.4,24.3,188.2,24.3,189z M24.3,196.5c-0.5-0.2-0.8-0.7-0.8-1.2c0-0.6,0.3-1,0.8-1.2C24.3,194.9,24.3,195.7,24.3,196.5z
			 M24.3,204c-0.5-0.2-0.8-0.7-0.8-1.2c0-0.6,0.3-1,0.8-1.2C24.3,202.4,24.3,203.2,24.3,204z M24.3,211.5c-0.5-0.2-0.8-0.7-0.8-1.2
			c0-0.6,0.3-1,0.8-1.2C24.3,209.9,24.3,210.7,24.3,211.5z M24.3,219c-0.5-0.2-0.8-0.7-0.8-1.2c0-0.6,0.3-1,0.8-1.2
			C24.3,217.4,24.3,218.2,24.3,219z M24.3,226.3c-0.3-0.2-0.6-0.5-0.6-1c0-0.4,0.2-0.8,0.6-1C24.3,225,24.3,225.6,24.3,226.3z
			 M18.5,125C18.5,125,18.5,125,18.5,125C18.5,125,18.5,125,18.5,125c0.2,0,0.4-0.1,0.4-0.3c1.5-10.1,0.9-30.9,0.9-31.1l-0.9-30.5
			l-0.3,0c0,0-0.2-0.9-0.7-1.5c0.3-0.4,0.6-0.5,0.7-0.6h6.1c-0.1,21.9-0.2,43.8-0.3,65.5h-6c-0.5,0-0.9-0.1-1.1-0.4
			C18.1,126.1,18.4,125.4,18.5,125z M24.4,143.6c-0.2-0.2-0.4-0.5-0.4-0.8c0-0.3,0.2-0.6,0.4-0.8C24.4,142.5,24.4,143.1,24.4,143.6z
			 M106.6,63.2l-0.3,0c0,0-0.8,27.7-0.9,30.5c0,0.2-0.6,21,0.9,31.1c0,0.2,0.2,0.3,0.3,0.3c0,0,0,0,0,0c0,0,0,0,0,0
			c0.1,0.4,0.4,1,1.1,1.2c-0.2,0.3-0.6,0.4-1.1,0.4h-6c0.1-22,0.1-43.8,0.3-65.5h5.7c0.1,0,0.4,0.2,0.7,0.6
			C106.8,62.3,106.6,63.2,106.6,63.2z M100.6,224.5c0.3,0.2,0.5,0.5,0.5,0.9c0,0.4-0.2,0.7-0.5,0.9
			C100.6,225.6,100.6,225,100.6,224.5z M100.6,216.7c0.4,0.2,0.7,0.6,0.7,1.1c0,0.5-0.3,0.9-0.7,1.1
			C100.6,218.2,100.6,217.4,100.6,216.7z M100.6,209.2c0.4,0.2,0.7,0.6,0.7,1.1c0,0.5-0.3,0.9-0.7,1.1
			C100.6,210.7,100.6,209.9,100.6,209.2z M100.6,201.7c0.4,0.2,0.7,0.6,0.7,1.1c0,0.5-0.3,0.9-0.7,1.1
			C100.6,203.2,100.6,202.4,100.6,201.7z M100.6,194.2c0.4,0.2,0.7,0.6,0.7,1.1c0,0.5-0.3,0.9-0.7,1.1
			C100.6,195.7,100.6,194.9,100.6,194.2z M100.6,186.7c0.4,0.2,0.7,0.6,0.7,1.1c0,0.5-0.3,0.9-0.7,1.1
			C100.6,188.2,100.6,187.4,100.6,186.7z M100.6,179.2c0.4,0.2,0.7,0.6,0.7,1.1c0,0.5-0.3,0.9-0.7,1.1
			C100.6,180.7,100.6,179.9,100.6,179.2z M100.6,171.7c0.4,0.2,0.7,0.6,0.7,1.1c0,0.5-0.3,0.9-0.7,1.1
			C100.6,173.2,100.6,172.4,100.6,171.7z M100.6,164.2c0.4,0.2,0.7,0.6,0.7,1.1c0,0.5-0.3,0.9-0.7,1.1
			C100.6,165.7,100.6,164.9,100.6,164.2z M100.6,156.7c0.4,0.2,0.6,0.6,0.6,1.1c0,0.5-0.3,0.9-0.7,1.1
			C100.6,158.2,100.6,157.4,100.6,156.7z M100.6,149.2c0.4,0.2,0.6,0.6,0.6,1.1c0,0.5-0.3,0.9-0.6,1.1
			C100.6,150.7,100.6,149.9,100.6,149.2z M100.7,142.3c0.1,0.2,0.1,0.3,0.1,0.5c0,0.2-0.1,0.4-0.1,0.5
			C100.7,143,100.7,142.6,100.7,142.3z M276.5,40.9C276.5,40.9,276.6,41,276.5,40.9c0,0.1,0,0.1,0,0.1c0,0,0,0,0,0c0,0,0,0,0,0
			l0,0.4c0,0,0,0,0,0c0,0,0,0,0,0v15.2h-2.7V41.5l0,0c0-0.2,0-0.5,0-0.6c0,0,0,0,0,0c0,0,0,0,0,0c0,0,0,0,0,0c0,0,0,0,0,0
			c0,0,0,0,0,0c0,0,0,0,0,0l-0.1-0.3h2.9L276.5,40.9z M273.9,57.3h2.6v305.8c0,0,0,0,0,0h-2.6V57.3z M273.1,40.4l0.1,0.4
			c0,0,0,0,0,0c0,0.1,0,0.2,0,0.3H129.3h-28.2c0-0.3,0-0.6,0-0.9l171.8,0C272.9,40.3,273,40.4,273.1,40.4z M39,1.3l48.2,0
			c2.5,0.1,4.8,1,6.9,2.3c3.4,2.3,5.7,6.1,5.8,10l-0.2,19.6V39c-0.5,93.6-0.6,189.3-0.2,291.5c-0.1,6.4-6.1,12.1-12.6,12.2H72.2
			l-0.2-0.6c-0.1-0.3-0.3-0.5-0.6-0.5H54c-0.3,0-0.6,0.2-0.6,0.5l-0.1,0.6H38.7c-6.7-0.2-12.6-5.9-12.8-12.3
			c-0.5-102.9-0.3-209.5,0.4-316.8C26.5,7.1,32.3,1.5,39,1.3z M418.7,351.2c0,7-5.7,12.6-12.6,12.6H13.8c0,0,0,0,0,0l-1.1,0
			c-6.1-0.8-11.1-6.3-11.4-12.5L1.9,53.1c0.2-6.6,6.3-12.8,12.6-13h10.2c0,0.3,0,0.6,0,1l-9.4,0c-0.2,0-4.3-0.3-9,3.9
			c-0.2,0.2-3.9,3.8-3.9,8.7c0,4.8-0.6,293.2-0.6,296.1c0,0.2,0.1,5,3.8,8.7c4.1,4.1,9.1,4.5,9.3,4.5c0,0,0,0,0,0c0,0,0,0,0,0h258.2
			v0.5c0,0,0,0,0,0c0,0,0,0,0,0c0,0.2,0.1,0.3,0.3,0.3h3.2c0.1,0,0.2,0,0.2-0.1c0.1-0.1,0.1-0.1,0.1-0.2l0-0.3c0,0,0,0,0,0v-0.2h0
			h128.9c6.5,0,11.8-5.3,11.8-11.8V52.9c0-6.5-5.3-11.8-11.8-11.8H277.2l0,0c0,0,0,0,0,0c0,0,0,0,0,0v0l0,0l0,0l0-0.1c0,0,0,0,0,0
			c0,0,0,0,0,0l0.1-0.6c0.1,0,0.1-0.1,0.2-0.1h128.6c7,0,12.6,5.7,12.6,12.6V351.2z"/>
		<path class="st0" d="M176.7,71.1h0.9l-2.1-2.2l1.9-1.9h-0.8l-1.4,1.5c-0.1,0.1-0.1,0.1-0.1,0.1c0,0-0.1,0.1-0.2,0.2l0,0.1
			c0-0.1,0-0.3,0-0.5V67h-0.6v4.1h0.6v-1.6c0-0.2,0-0.3,0-0.4c0.2,0.2,0.3,0.3,0.4,0.4L176.7,71.1z"/>
		<polygon class="st0" points="178.7,71.1 179.9,69.3 181.1,71.1 181.9,71.1 180.3,68.9 181.7,67 181,67 179.9,68.5 178.9,67
			178.1,67 179.5,68.9 178,71.1 		"/>
		<rect x="181.7" y="68.8" class="st0" width="1.5" height="0.5"/>
		<polygon class="st0" points="187.3,71.1 187.3,67 186.7,67 186.7,68.7 184.7,68.7 184.7,67 184.1,67 184.1,71.1 184.7,71.1
			184.7,69.2 186.7,69.2 186.7,71.1 		"/>
		<path class="st0" d="M190.7,67.2c-0.4-0.2-0.8-0.3-1.5-0.3h-0.8v4.1h0.9c0.6,0,1-0.1,1.3-0.2c0.7-0.3,1.1-1,1.1-1.8
			C191.8,68.3,191.4,67.6,190.7,67.2z M190.4,70.4c-0.3,0.1-0.6,0.2-1.1,0.2h-0.3v-3.1h0.3c0.5,0,0.8,0,1.1,0.2
			c0.5,0.2,0.8,0.8,0.8,1.4C191.1,69.6,190.9,70.1,190.4,70.4z"/>
		<path class="st0" d="M192.7,67h-0.6l1.6,4.1h0.7l1.6-4.1h-0.6l-1,2.7c-0.1,0.3-0.2,0.6-0.3,0.9c-0.1-0.3-0.2-0.6-0.3-0.9L192.7,67
			z"/>
		<path class="st0" d="M196.1,70.4v0.6h2.6v-0.5h-1.6c-0.2,0-0.3,0-0.4,0c0.3-0.2,0.5-0.4,0.8-0.7c0.9-0.8,1.2-1.4,1.2-1.9
			c0-0.7-0.5-1.1-1.4-1.1c-0.4,0-0.6,0.1-1.1,0.2l0.1,0.5c0.4-0.2,0.6-0.3,0.9-0.3c0.5,0,0.8,0.3,0.8,0.7
			C198,68.6,197.4,69.3,196.1,70.4z"/>
		<path class="st0" d="M200.4,70.6c-0.3,0-0.6-0.1-1-0.2l0,0.5c0.4,0.1,0.7,0.2,1,0.2c0.9,0,1.5-0.4,1.5-1.2c0-0.6-0.4-1-1-1
			c0.2,0,0.3-0.1,0.4-0.1c0.3-0.2,0.5-0.5,0.5-0.8c0-0.7-0.5-1.1-1.4-1.1c-0.4,0-0.7,0.1-1,0.2l0,0.5c0.4-0.1,0.6-0.2,0.9-0.2
			c0.5,0,0.8,0.2,0.8,0.6c0,0.4-0.5,0.7-1.2,0.7h-0.1v0.5c0.1,0,0.2,0,0.3,0c0.7,0,1.1,0.3,1.1,0.7
			C201.3,70.3,200.9,70.6,200.4,70.6z"/>
		<path class="st0" d="M204.7,67.1c-0.2-0.2-0.5-0.2-0.7-0.2c-0.4,0-0.8,0.2-1,0.4c-0.3,0.3-0.4,0.9-0.4,1.7c0,0.5,0.1,0.9,0.2,1.3
			c0.1,0.2,0.2,0.3,0.3,0.5c0.2,0.3,0.5,0.4,0.9,0.4c0.4,0,0.7-0.2,1-0.4c0.3-0.3,0.4-0.9,0.4-1.7c0-0.5-0.1-1.1-0.2-1.4
			C205.1,67.4,204.9,67.3,204.7,67.1z M204.5,70.4c-0.1,0.1-0.3,0.2-0.5,0.2c-0.5,0-0.8-0.6-0.8-1.6c0-0.7,0.1-1.1,0.3-1.4
			c0.1-0.1,0.3-0.2,0.5-0.2c0.5,0,0.8,0.6,0.8,1.7C204.8,69.7,204.7,70.2,204.5,70.4z"/>
		<path class="st0" d="M208.2,59.1c0.2,0.3,0.4,0.6,0.7,0.8c0.4,0.3,0.8,0.4,1.2,0.5c0.4,0,0.6,0,1,0c0.5-0.1,0.9-0.3,1.3-0.7
			c0.4-0.4,0.5-0.8,0.5-1.3h-1.7c0,0.1,0,0.2,0,0.3c0,0.1-0.1,0.3-0.2,0.4c-0.1,0.1-0.2,0.2-0.3,0.2c-0.2,0-0.4,0-0.6-0.2
			c-0.1-0.1-0.2-0.3-0.3-0.5c-0.1-0.4-0.1-0.9,0-1.3c0.1-0.2,0.2-0.3,0.3-0.4c0.2-0.1,0.5-0.1,0.8,0c0.2,0.1,0.3,0.3,0.3,0.5h1.6
			c0-0.3,0-0.5-0.2-0.8c-0.1-0.2-0.2-0.4-0.4-0.5c-0.3-0.3-0.6-0.4-0.9-0.5c-0.5-0.1-1-0.1-1.5,0c-0.9,0.2-1.6,0.8-1.8,1.7
			c-0.1,0.4-0.1,0.7-0.1,1.2C208,58.6,208.1,58.9,208.2,59.1z"/>
		<rect x="205.7" y="53.6" class="st0" width="1.8" height="1.3"/>
		<rect x="205.7" y="55.5" class="st0" width="1.8" height="4.7"/>
		<path class="st0" d="M201.8,57.6c0-0.2,0-0.3,0.1-0.4c0.2-0.3,0.6-0.4,0.9-0.3c0.2,0.1,0.3,0.2,0.3,0.3c0,0.1,0,0.2,0,0.3v2.8h1.9
			v-3.1c0-0.3,0-0.5-0.1-0.7c-0.2-0.5-0.5-0.9-1.1-1c-0.5-0.1-0.9-0.1-1.4,0.1c-0.3,0.1-0.5,0.3-0.7,0.5l0-0.5H200v4.7h1.8V57.6z"/>
		<path class="st0" d="M179.8,57.6c0-0.2,0-0.3,0.1-0.4c0.2-0.3,0.6-0.4,0.9-0.3c0.2,0.1,0.3,0.2,0.3,0.3c0,0.1,0,0.2,0,0.3v2.8h1.9
			v-3.1c0-0.3,0-0.5-0.1-0.7c-0.2-0.5-0.5-0.9-1.1-1c-0.5-0.1-0.9-0.1-1.4,0.1c-0.3,0.1-0.5,0.3-0.7,0.5l0-0.5H178v4.7h1.8V57.6z"/>
		<path class="st0" d="M189.5,59.8c0.2,0.2,0.5,0.4,0.8,0.4c0.6,0.2,1.2,0.2,1.9,0.1c0.3,0,0.6-0.1,0.8-0.3c0.1-0.1,0.2-0.1,0.3-0.2
			c0.5-0.4,0.6-1,0.5-1.6c-0.1-0.2-0.2-0.4-0.4-0.5c-0.2-0.2-0.5-0.3-0.8-0.4c-0.1,0-0.1,0-0.2-0.1c-0.4-0.1-0.7-0.2-1.1-0.2
			c-0.1,0-0.2,0-0.3-0.1c0,0-0.1,0-0.1,0c-0.1-0.1-0.2-0.2-0.1-0.3c0,0,0,0,0,0c0.1-0.1,0.1-0.2,0.3-0.2c0.2-0.1,0.4-0.1,0.6,0
			c0.2,0.1,0.3,0.2,0.3,0.4h1.7c0-0.2,0-0.4-0.1-0.6c-0.1-0.2-0.2-0.3-0.3-0.5c-0.1-0.1-0.3-0.2-0.4-0.3c-0.2-0.1-0.3-0.1-0.5-0.1
			c-0.4-0.1-0.8-0.1-1.2-0.1c-0.2,0-0.4,0-0.7,0.1c-0.3,0.1-0.6,0.2-0.8,0.4c-0.2,0.2-0.4,0.4-0.5,0.6c0,0.1-0.1,0.2-0.1,0.3
			c0,0.2,0,0.4,0.1,0.6c0.1,0.3,0.4,0.6,0.7,0.7c0.2,0.1,0.3,0.1,0.5,0.2c0.4,0.1,0.7,0.1,1,0.2c0.1,0,0.2,0.1,0.4,0.1
			c0.1,0,0.2,0.1,0.2,0.2c0,0.1,0,0.2-0.1,0.3c-0.1,0.1-0.2,0.1-0.3,0.2c-0.2,0-0.3,0-0.5,0c-0.1,0-0.1-0.1-0.2-0.1
			c-0.1-0.1-0.1-0.1-0.2-0.2c0-0.1,0-0.2,0-0.3H189v0.1c0,0.2,0,0.3,0.1,0.5C189.2,59.4,189.3,59.6,189.5,59.8z"/>
		<path class="st0" d="M168.5,58.2h1.2c0.3,0,0.6,0,0.9-0.1c0.9-0.2,1.6-0.9,1.7-1.9c0-0.5,0-0.9-0.2-1.3c-0.4-0.8-1.1-1.3-2-1.3
			c-0.1,0-0.2,0-0.4,0h-3.3v6.6h2V58.2z M168.5,55.2h1.2c0.3,0,0.6,0.3,0.7,0.6c0,0.1,0,0.2,0,0.3c0,0.1-0.1,0.2-0.1,0.3
			c-0.1,0.2-0.3,0.3-0.5,0.3c-0.2,0-0.3,0-0.4,0h-0.8V55.2z"/>
		<path class="st0" d="M195.2,59.9c0.3,0.2,0.6,0.4,0.9,0.4c0.3,0.1,0.5,0.1,0.7,0.1c0.3,0,0.5,0,0.7-0.1c0.4-0.1,0.6-0.2,0.9-0.4
			c0.4-0.3,0.7-0.7,0.9-1.3c0.1-0.4,0.1-0.7,0.1-1c-0.1-0.6-0.3-1.1-0.7-1.5c-0.4-0.4-0.8-0.6-1.4-0.7c-0.2,0-0.4,0-0.5,0
			c-0.2,0-0.4,0-0.5,0c-0.5,0.1-1,0.3-1.4,0.7c-0.4,0.4-0.7,0.9-0.7,1.5c0,0.4,0,0.7,0.1,1C194.5,59.1,194.7,59.6,195.2,59.9z
			 M196.1,57.4c0-0.2,0.1-0.3,0.2-0.5c0.2-0.3,0.6-0.4,1-0.2c0.1,0.1,0.1,0.1,0.2,0.2c0.1,0.1,0.2,0.3,0.2,0.5c0.1,0.3,0.1,0.6,0,1
			c0,0.2-0.1,0.3-0.1,0.5c-0.2,0.4-0.6,0.5-0.9,0.4c-0.2-0.1-0.3-0.2-0.4-0.4c-0.1-0.2-0.1-0.3-0.1-0.5C196,58,196,57.7,196.1,57.4z
			"/>
		<path class="st0" d="M186.4,57.2c0,0-0.1,0-0.1,0c-0.2,0.1-0.4,0.1-0.6,0.1c-0.2,0-0.3,0.1-0.5,0.1c-0.2,0-0.4,0.1-0.7,0.2
			c-0.2,0.1-0.4,0.2-0.5,0.3c-0.2,0.2-0.3,0.4-0.4,0.7c0,0.2,0,0.4,0,0.6c0.1,0.5,0.5,0.9,0.9,1c0.5,0.2,1,0.1,1.6-0.1
			c0.3-0.1,0.4-0.2,0.6-0.5c0,0.1,0.1,0.2,0.1,0.3c0,0.1,0.1,0.1,0.1,0.2h1.8c-0.1-0.1-0.1-0.2-0.1-0.4c0-0.4,0-0.7-0.1-1.1
			c0-0.5,0-0.9,0-1.5c0-0.3,0-0.5-0.1-0.8c-0.1-0.4-0.3-0.6-0.6-0.8c-0.2-0.1-0.4-0.2-0.6-0.2c-0.7-0.1-1.3-0.2-2,0
			c-0.2,0-0.4,0.1-0.5,0.2c-0.4,0.2-0.7,0.5-0.8,0.9c-0.1,0.2-0.1,0.3,0,0.5c0,0,0,0.1,0,0.1l1.6,0c0-0.1,0-0.2,0-0.3
			c0.1-0.1,0.2-0.3,0.3-0.3c0.2-0.1,0.4-0.1,0.6,0c0.1,0,0.2,0.1,0.3,0.3c0,0.1,0,0.2,0,0.3C186.6,57.2,186.5,57.2,186.4,57.2z
			 M186.7,58.1c0,0.2,0,0.3,0,0.5c0,0.1-0.1,0.2-0.1,0.3c-0.1,0.1-0.2,0.2-0.3,0.3c-0.1,0.1-0.2,0.1-0.4,0.1c-0.1,0-0.2,0-0.3,0
			c-0.1,0-0.2-0.1-0.2-0.1c-0.1-0.1-0.1-0.1-0.1-0.2c0-0.1,0-0.2,0.1-0.3c0.1-0.1,0.1-0.1,0.2-0.1c0.2-0.1,0.3-0.1,0.5-0.2
			C186.3,58.3,186.5,58.2,186.7,58.1z"/>
		<path class="st0" d="M175.3,57.2c-0.1,0-0.1,0-0.1,0c-0.2,0.1-0.4,0.1-0.6,0.1c-0.2,0-0.3,0.1-0.5,0.1c-0.2,0-0.4,0.1-0.7,0.2
			c-0.2,0.1-0.4,0.2-0.6,0.3c-0.2,0.2-0.3,0.4-0.4,0.7c0,0.2,0,0.4,0,0.6c0.1,0.5,0.5,0.9,0.9,1c0.5,0.2,1,0.1,1.6-0.1
			c0.3-0.1,0.4-0.2,0.6-0.5c0,0.1,0.1,0.2,0.1,0.3c0,0.1,0.1,0.1,0.1,0.2h1.8c-0.1-0.1-0.1-0.2-0.1-0.4c0-0.4,0-0.7,0-1.1
			c0-0.5,0-0.9,0-1.5c0-0.3,0-0.5-0.1-0.8c-0.1-0.4-0.3-0.6-0.6-0.8c-0.2-0.1-0.4-0.2-0.6-0.2c-0.7-0.1-1.3-0.2-2,0
			c-0.2,0-0.4,0.1-0.5,0.2c-0.4,0.2-0.7,0.5-0.8,0.9c-0.1,0.2-0.1,0.3,0,0.5c0,0,0,0.1,0,0.1l1.6,0c0-0.1,0-0.2,0-0.3
			c0.1-0.1,0.2-0.3,0.3-0.3c0.2-0.1,0.4-0.1,0.6,0c0.1,0,0.2,0.1,0.3,0.3c0,0.1,0,0.2,0,0.3C175.4,57.2,175.4,57.2,175.3,57.2z
			 M175.6,58.1c0,0.2,0,0.3,0,0.5c0,0.1-0.1,0.2-0.1,0.3c-0.1,0.1-0.2,0.2-0.3,0.3c-0.1,0.1-0.2,0.1-0.4,0.1c-0.1,0-0.2,0-0.3,0
			c-0.1,0-0.2-0.1-0.2-0.1c-0.1-0.1-0.1-0.1-0.1-0.2c0-0.1,0-0.2,0.1-0.3c0.1-0.1,0.1-0.1,0.2-0.1c0.2-0.1,0.3-0.1,0.5-0.2
			C175.2,58.3,175.3,58.2,175.6,58.1z"/>
		<path class="st0" d="M242.1,169.6c0.3,0,0.5,0,0.7-0.1l0-0.5c-0.3,0.1-0.5,0.2-0.7,0.2c-0.3,0-0.6-0.1-0.8-0.3
			c-0.3-0.3-0.4-0.6-0.4-1.1c0-0.4,0.1-0.7,0.3-0.9c0.2-0.3,0.6-0.5,1-0.5c0.2,0,0.5,0.1,0.7,0.2l0-0.5c-0.2-0.1-0.5-0.2-0.7-0.2
			c-0.4,0-0.8,0.1-1.1,0.4c-0.4,0.3-0.7,0.8-0.7,1.5c0,0.5,0.1,0.8,0.3,1.2C241,169.4,241.5,169.6,242.1,169.6z"/>
		<path class="st0" d="M243.9,168.7h1.6l0.3,0.9h0.5l-1.4-3.7h-0.5l-1.4,3.7h0.5L243.9,168.7z M244.4,167.2c0.1-0.4,0.2-0.7,0.3-0.8
			c0,0.2,0.1,0.5,0.3,0.8l0.4,1H244L244.4,167.2z"/>
		<path class="st0" d="M247.3,167.7c0-0.5,0-1,0-1.4c0.1,0.3,0.3,0.7,0.6,1.3l1.1,2h0.6v-3.7H249v1.8c0,0.6,0,1.1,0.1,1.5
			c-0.1-0.3-0.3-0.7-0.5-1.1l-1.1-2.2h-0.6v3.7h0.5V167.7z"/>
		<path class="st0" d="M251.9,169.6c0.3,0,0.5,0,0.7-0.1l0-0.5c-0.3,0.1-0.5,0.2-0.7,0.2c-0.3,0-0.6-0.1-0.8-0.3
			c-0.3-0.3-0.4-0.6-0.4-1.1c0-0.4,0.1-0.7,0.3-0.9c0.2-0.3,0.6-0.5,1-0.5c0.2,0,0.5,0.1,0.7,0.2l0-0.5c-0.2-0.1-0.5-0.2-0.8-0.2
			c-0.4,0-0.8,0.1-1.1,0.4c-0.4,0.3-0.7,0.8-0.7,1.5c0,0.5,0.1,0.8,0.3,1.2C250.8,169.4,251.3,169.6,251.9,169.6z"/>
		<polygon class="st0" points="255.1,169.2 253.7,169.2 253.7,167.9 255,167.9 255,167.5 253.7,167.5 253.7,166.4 255.1,166.4
			255.1,165.9 253.2,165.9 253.2,169.6 255.1,169.6 		"/>
		<polygon class="st0" points="257.7,169.2 256.3,169.2 256.3,165.9 255.8,165.9 255.8,169.6 257.7,169.6 		"/>
		<rect x="171.5" y="332.7" class="st0" width="3.7" height="0.7"/>
		<polygon class="st0" points="206.1,334.9 206.1,333.4 207.6,333.4 207.6,332.7 206.1,332.7 206.1,331.2 205.4,331.2 205.4,332.7
			204,332.7 204,333.4 205.4,333.4 205.4,334.9 		"/>
		<path class="st0" d="M329.6,305.6l3.8-1.6c0.1,0,0.1-0.1,0.1-0.1c0.1-0.1,0-0.3-0.1-0.3l-3.8-1.6c0,0-0.1,0-0.1,0
			c-0.2,0-0.3,0.1-0.3,0.3v3.1c0,0,0,0.1,0,0.1C329.3,305.6,329.4,305.7,329.6,305.6z"/>
		<path class="st0" d="M182,216.8l0.3,0.9h0.5l-1.3-3.7h-0.4l-1.3,3.7h0.5l0.3-0.9H182z M181.1,215.4c0.1-0.4,0.2-0.7,0.2-0.8
			c0,0.2,0.1,0.5,0.2,0.8l0.3,1h-1.2L181.1,215.4z"/>
		<path class="st0" d="M185.2,215c0-0.4-0.1-0.6-0.4-0.8c-0.2-0.1-0.4-0.2-0.8-0.2h-0.8v3.7h1c0.3,0,0.5,0,0.7-0.1
			c0.3-0.2,0.4-0.5,0.4-0.9c0-0.5-0.2-0.8-0.7-0.9C185,215.8,185.2,215.5,185.2,215z M184.9,216.7c0,0.4-0.3,0.6-0.8,0.6h-0.4v-1.2
			h0.3C184.6,216.1,184.9,216.3,184.9,216.7z M184.1,215.7h-0.4v-1.1h0.3c0.5,0,0.8,0.2,0.8,0.6
			C184.8,215.5,184.5,215.7,184.1,215.7z"/>
		<path class="st0" d="M187.3,214.5c0.2,0,0.4,0.1,0.6,0.2l0-0.5c-0.2-0.1-0.4-0.2-0.7-0.2c-0.4,0-0.7,0.1-1,0.4
			c-0.4,0.3-0.6,0.8-0.6,1.5c0,0.5,0.1,0.8,0.3,1.2c0.3,0.5,0.7,0.7,1.3,0.7c0.2,0,0.5,0,0.7-0.1l0-0.5c-0.2,0.1-0.4,0.2-0.6,0.2
			c-0.3,0-0.5-0.1-0.8-0.3c-0.3-0.3-0.4-0.6-0.4-1.1c0-0.4,0.1-0.7,0.2-0.9C186.6,214.7,186.9,214.5,187.3,214.5z"/>
		<path class="st0" d="M208.7,214.1h-0.6v3.7h0.7c0.4,0,0.7-0.1,1-0.2c0.6-0.3,0.8-0.9,0.8-1.6c0-0.7-0.3-1.3-0.8-1.6
			C209.6,214.2,209.2,214.1,208.7,214.1z M209.6,217.1c-0.2,0.1-0.4,0.2-0.8,0.2h-0.2v-2.8h0.2c0.4,0,0.6,0.1,0.8,0.2
			c0.4,0.2,0.6,0.7,0.6,1.2C210.1,216.5,209.9,216.9,209.6,217.1z"/>
		<polygon class="st0" points="212.8,214.5 212.8,214.1 211.2,214.1 211.2,217.8 212.8,217.8 212.8,217.3 211.6,217.3 211.6,216.1
			212.7,216.1 212.7,215.6 211.6,215.6 211.6,214.5 		"/>
		<polygon class="st0" points="215.1,214.5 215.1,214.1 213.5,214.1 213.5,217.8 213.9,217.8 213.9,216.1 215,216.1 215,215.6
			213.9,215.6 213.9,214.5 		"/>
		<path class="st0" d="M153.3,242.7c0.3,0,0.5,0.1,0.7,0.2l0-0.5c-0.3-0.1-0.5-0.2-0.8-0.2c-0.5,0-0.9,0.2-1.2,0.5
			c-0.3,0.3-0.5,0.8-0.5,1.4c0,0.6,0.2,1.1,0.5,1.4c0.3,0.3,0.7,0.5,1.2,0.5c0.3,0,0.6-0.1,0.8-0.2V244h-1v0.4h0.6v1.1
			c-0.1,0.1-0.3,0.1-0.4,0.1c-0.3,0-0.5-0.1-0.7-0.3c-0.3-0.3-0.5-0.6-0.5-1.2c0-0.4,0.1-0.7,0.3-1
			C152.6,242.9,152.9,242.7,153.3,242.7z"/>
		<polygon class="st0" points="154.9,242.3 154.9,246 155.3,246 155.3,244.3 156.7,244.3 156.7,246 157.1,246 157.1,242.3
			156.7,242.3 156.7,243.9 155.3,243.9 155.3,242.3 		"/>
		<rect x="157.9" y="242.3" class="st0" width="0.4" height="3.7"/>
		<path class="st0" d="M180.9,245.6c0.1-0.1,0.1-0.4,0.1-0.8v-2.5h-0.4v2.4c0,0.4,0,0.6-0.1,0.7c-0.1,0.1-0.2,0.2-0.3,0.2
			c-0.1,0-0.2,0-0.3-0.1v0.5c0.2,0,0.3,0.1,0.4,0.1C180.6,246.1,180.8,245.9,180.9,245.6z"/>
		<path class="st0" d="M182.2,242.3h-0.4v3.7h0.4v-1.4c0-0.1,0-0.3,0-0.4c0.1,0.2,0.2,0.3,0.3,0.4l1.1,1.4h0.6l-1.5-1.9l1.4-1.7
			h-0.6l-1,1.3c-0.1,0.1-0.1,0.2-0.2,0.3c0-0.1,0-0.3,0-0.4V242.3z"/>
		<polygon class="st0" points="184.6,242.3 184.6,246 186.2,246 186.2,245.6 185,245.6 185,242.3 		"/>
		<polygon class="st0" points="181.2,274.2 181.2,271 182.2,271 182.2,270.5 179.9,270.5 179.9,271 180.8,271 180.8,274.2 		"/>
		<path class="st0" d="M182.6,270.5v2c0,0.5,0.1,0.9,0.2,1.1c0.2,0.4,0.5,0.6,1,0.6c0.4,0,0.8-0.2,1-0.6c0.1-0.2,0.2-0.6,0.2-1.1
			v-2.1h-0.4v2c0,0.4,0,0.6-0.1,0.8c-0.1,0.4-0.3,0.6-0.6,0.6c-0.3,0-0.5-0.1-0.6-0.4c-0.1-0.2-0.1-0.5-0.1-1v-1.9H182.6z"/>
		<path class="st0" d="M188,270.5h-0.4l-0.7,2.4c-0.1,0.3-0.2,0.6-0.2,0.8c-0.1-0.3-0.1-0.5-0.2-0.8l-0.7-2.4h-0.5l1.1,3.7h0.5
			L188,270.5z"/>
		<path class="st0" d="M210.9,242.9l0,0.3c0,0.4,0,0.6,0,0.6v2.1h0.4v-3.7h-0.7l-0.6,1.8c-0.2,0.6-0.3,1-0.4,1.2
			c0-0.2-0.1-0.5-0.3-0.9l-0.1-0.3l-0.6-1.9h-0.7v3.7h0.4v-2.1c0-0.1,0-0.2,0-0.3c0-0.1,0-0.2,0-0.3c0-0.1,0-0.1,0-0.2
			c0,0,0-0.1,0-0.1c0-0.1,0-0.1,0-0.2c0-0.2,0-0.2,0-0.3c0,0,0-0.1,0-0.1c0,0.1,0,0.1,0.1,0.2c0,0.1,0.1,0.3,0.2,0.7l0.1,0.4
			l0.1,0.3l0.6,1.8h0.4l0.6-1.8C210.7,243.7,210.8,243.2,210.9,242.9c-0.1-0.1,0-0.2,0-0.3l0,0c0,0,0,0.1,0,0.1c0,0,0,0,0,0.1
			C210.9,242.8,210.9,242.9,210.9,242.9z"/>
		<path class="st0" d="M212.7,242.3h-0.6v3.7h0.4v-1.9c0-0.5,0-1,0-1.4c0.1,0.3,0.2,0.7,0.5,1.3l0.9,2h0.5v-3.7H214v1.8
			c0,0.6,0,1.1,0,1.5c-0.1-0.3-0.2-0.7-0.4-1.1L212.7,242.3z"/>
		<path class="st0" d="M216.5,246.1c0.5,0,0.8-0.2,1.1-0.6c0.2-0.4,0.4-0.8,0.4-1.3c0-0.5-0.1-0.9-0.3-1.2c-0.3-0.5-0.6-0.7-1.1-0.7
			c-0.6,0-1,0.3-1.3,0.9c-0.1,0.3-0.2,0.6-0.2,1c0,0.4,0.1,0.8,0.2,1.1C215.5,245.8,215.9,246.1,216.5,246.1z M215.8,243
			c0.2-0.2,0.4-0.3,0.7-0.3c0.2,0,0.4,0.1,0.6,0.3c0.2,0.3,0.4,0.7,0.4,1.2c0,0.4-0.1,0.7-0.2,1c-0.2,0.3-0.4,0.5-0.8,0.5
			c-0.2,0-0.4-0.1-0.6-0.3c-0.3-0.3-0.4-0.7-0.4-1.2C215.5,243.7,215.6,243.3,215.8,243z"/>
		<path class="st0" d="M210,271.8c0-0.2,0.1-0.5,0.1-0.8c0.1,0.3,0.1,0.6,0.2,0.8l0.5,2.4h0.5l0.9-3.7h-0.4l-0.5,2.2
			c-0.1,0.3-0.1,0.7-0.2,1c-0.1-0.4-0.1-0.8-0.2-1l-0.5-2.2h-0.6l-0.4,2.1c-0.1,0.5-0.2,0.8-0.2,1c0-0.3-0.1-0.7-0.2-1l-0.5-2.2
			h-0.5l0.9,3.7h0.5L210,271.8z"/>
		<polygon class="st0" points="213,274.2 213.9,272.7 214.8,274.2 215.3,274.2 214.2,272.3 215.2,270.5 214.7,270.5 213.9,271.9
			213.1,270.5 212.6,270.5 213.6,272.3 212.5,274.2 		"/>
		<path class="st0" d="M217.1,274.2v-1.6l1.1-2.1h-0.5l-0.7,1.4c0,0.1-0.1,0.2-0.1,0.3c0-0.1-0.1-0.2-0.1-0.3l-0.7-1.4h-0.5l1.2,2.1
			v1.6H217.1z"/>
		<path class="st0" d="M218.5,273.8v0.5h2.1v-0.5h-1.3c-0.1,0-0.2,0-0.3,0c0-0.1,0.1-0.1,0.1-0.2c0,0,0.1-0.1,0.2-0.3l1.3-2.3v-0.5
			h-2v0.5h1.1c0.1,0,0.2,0,0.4,0c-0.1,0.1-0.2,0.3-0.4,0.6L218.5,273.8z"/>
		<path class="st0" d="M152.3,272.8c0.4,0,0.7-0.1,0.9-0.2c0.3-0.2,0.4-0.5,0.4-0.9c0-0.5-0.2-0.8-0.5-1c-0.1-0.1-0.4-0.1-0.9-0.1
			h-0.6v3.7h0.4v-1.5H152.3z M152.1,271h0.2c0.3,0,0.5,0,0.6,0.1c0.2,0.1,0.3,0.3,0.3,0.6c0,0.2,0,0.3-0.1,0.4
			c-0.1,0.2-0.4,0.2-0.8,0.2h-0.2V271z"/>
		<path class="st0" d="M156.5,271.1c-0.3-0.4-0.6-0.6-1.1-0.6c-0.4,0-0.8,0.2-1.1,0.5c-0.2,0.4-0.4,0.8-0.4,1.4c0,0.6,0.1,1,0.4,1.4
			c0.3,0.4,0.6,0.5,1.1,0.5c0.2,0,0.4,0,0.5-0.1l0.3,0.4h0.6l-0.5-0.7c0.3-0.3,0.5-0.9,0.5-1.6C156.8,271.9,156.7,271.4,156.5,271.1
			z M156,273.6l-0.2-0.3h-0.6l0.4,0.5c-0.1,0-0.2,0.1-0.3,0.1c-0.2,0-0.4-0.1-0.6-0.3c-0.3-0.3-0.4-0.7-0.4-1.3
			c0-0.4,0.1-0.8,0.3-1.1c0.2-0.3,0.4-0.4,0.7-0.4c0.2,0,0.4,0.1,0.6,0.3c0.2,0.3,0.4,0.7,0.4,1.2
			C156.4,272.9,156.3,273.3,156,273.6z"/>
		<path class="st0" d="M159.4,271.5c0-0.3-0.1-0.6-0.3-0.7c-0.2-0.2-0.5-0.2-1-0.2h-0.7v3.7h0.4v-1.6h0.2c0.2,0,0.4,0,0.4,0.1
			c0.1,0.1,0.2,0.2,0.3,0.5l0.4,1.1h0.5l-0.5-1.3c-0.1-0.2-0.2-0.4-0.4-0.5C159.2,272.3,159.4,272,159.4,271.5z M158.8,272
			c-0.1,0.1-0.3,0.2-0.7,0.2h-0.3V271h0.3c0.3,0,0.5,0,0.6,0.1c0.1,0.1,0.2,0.2,0.2,0.5C159,271.7,158.9,271.9,158.8,272z"/>
		<path class="st0" d="M160.8,273.8c-0.2,0-0.4-0.1-0.7-0.3l-0.2,0.4c0.3,0.2,0.6,0.3,0.8,0.3c0.3,0,0.5-0.1,0.7-0.2
			c0.2-0.2,0.3-0.5,0.3-0.8c0-0.4-0.2-0.8-0.6-1l-0.3-0.2c-0.2-0.1-0.3-0.2-0.3-0.2c-0.1-0.1-0.1-0.2-0.1-0.4c0-0.4,0.2-0.5,0.5-0.5
			c0.2,0,0.4,0.1,0.6,0.3l0.2-0.4c-0.3-0.2-0.5-0.3-0.8-0.3c-0.3,0-0.5,0.1-0.6,0.2c-0.2,0.2-0.3,0.4-0.3,0.7c0,0.4,0.2,0.8,0.6,1
			l0.2,0.1c0.2,0.1,0.3,0.2,0.4,0.3c0.1,0.1,0.2,0.3,0.2,0.4c0,0.2-0.1,0.3-0.2,0.4C161.1,273.8,160.9,273.8,160.8,273.8z"/>
		<polygon class="st0" points="157.1,300.9 155.8,300 155.8,300.5 155,300.5 155,301.2 155.8,301.2 155.8,301.8 		"/>
		<path class="st0" d="M153,298.8l-1.3,3.7h0.5l0.3-0.9h1.5l0.3,0.9h0.5l-1.3-3.7H153z M153.8,301.2h-1.2l0.3-1
			c0.1-0.4,0.2-0.7,0.2-0.8c0,0.2,0.1,0.5,0.2,0.8L153.8,301.2z"/>
		<path class="st0" d="M159.1,302.5h0.4c0-0.2,0-0.7,0-1.3v-0.1c0-0.4,0-0.6-0.1-0.8c-0.1-0.4-0.4-0.6-0.8-0.6
			c-0.3,0-0.5,0.1-0.7,0.3l0,0.4c0.2-0.2,0.4-0.3,0.7-0.3c0.4,0,0.5,0.2,0.6,0.7c-0.1,0-0.3,0-0.3,0c-0.8,0-1.2,0.3-1.2,0.9
			c0,0.3,0.1,0.5,0.2,0.6c0.1,0.1,0.3,0.2,0.5,0.2c0.3,0,0.6-0.2,0.7-0.5c0,0.1,0,0.2,0,0.2C159.1,302.4,159.1,302.4,159.1,302.5z
			 M158.4,302.2c-0.3,0-0.4-0.1-0.4-0.4c0-0.3,0.3-0.5,0.8-0.5c0.1,0,0.1,0,0.2,0l0,0l0,0c0,0,0,0,0,0c0,0,0,0,0,0
			C159,301.9,158.8,302.2,158.4,302.2z"/>
		<path class="st0" d="M186.2,333.8c-0.1,0-0.2,0.1-0.2,0.2c0,0.1,0.1,0.3,0.3,0.3h6.8c0.2,0,0.3-0.1,0.3-0.3v-2.3
			c0-0.2-0.2-0.3-0.4-0.3L186.2,333.8z"/>
		<ellipse class="st0" cx="245.4" cy="276.7" rx="0.8" ry="0.8"/>
		<path class="st0" d="M245.2,274.7l0.5,0.3c0.6-1.1,1.8-1.9,3.2-1.9c0.9,0,1.9,0.5,2.5,1l-1.5-0.1l-0.1,0.6l2.5,0.2l-0.1-2.5
			l-0.6,0l0.1,1.2c-0.7-0.7-1.8-1.1-2.9-1.1C247.3,272.6,245.9,273.5,245.2,274.7z"/>
		<ellipse class="st0" cx="252.5" cy="276.7" rx="0.8" ry="0.8"/>
		<polygon class="st0" points="253.2,302.5 251.2,301.4 251.2,302.1 249.5,302.1 249.5,301.4 247.6,302.5 249.5,303.7 249.5,302.9
			251.2,302.9 251.2,303.7 		"/>
		<path class="st0" d="M244.7,300.6v3.9h1.9l4,2.4V304h-0.6v1.9l-3-1.8v-3.2l3-1.8v1.9h0.6v-2.9l-4,2.4H244.7z M246.6,303.9h-1.3
			v-2.8h1.3V303.9z"/>
		<path class="st0" d="M245.9,247.1c-0.5,0-1,0.4-1,1s0.4,1,1,1c0.4,0,0.8-0.3,0.9-0.7h4.1c0.1,0.4,0.5,0.7,0.9,0.7c0.5,0,1-0.4,1-1
			s-0.4-1-1-1c-0.1,0-0.1,0-0.2,0l-2.1-3.5c0.2-0.2,0.3-0.4,0.3-0.7c0-0.5-0.4-1-1-1s-1,0.4-1,1c0,0.3,0.1,0.5,0.3,0.7l-2.1,3.5
			C246.1,247.1,246,247.1,245.9,247.1z M248.7,243.9c0.1,0,0.1,0,0.2,0c0.1,0,0.2,0,0.2,0c0.5,0.9,1.5,2.6,2.1,3.5
			c-0.1,0.1-0.2,0.2-0.2,0.4h-4.1c0-0.1-0.1-0.3-0.2-0.4C247.2,246.6,248.2,244.8,248.7,243.9z"/>
		<path class="st0" d="M130.3,244.9c-0.4-0.5-1.1-0.8-1.8-0.8c-1.4,0-2.4,1.1-2.4,2.5s1.1,2.5,2.4,2.5c0.7,0,1.3-0.3,1.8-0.8
			c0.4,0.5,1.1,0.8,1.8,0.8c1.4,0,2.4-1.1,2.4-2.5s-1.1-2.5-2.4-2.5C131.4,244.1,130.8,244.4,130.3,244.9z M129.9,247.7
			c-0.3,0.4-0.8,0.7-1.4,0.7c-1,0-1.8-0.8-1.8-1.8c0-1,0.8-1.8,1.8-1.8c0.6,0,1.1,0.3,1.4,0.7c-0.2,0.3-0.3,0.7-0.3,1.1
			C129.7,247,129.8,247.4,129.9,247.7z"/>
		<polygon class="st0" points="129.7,277.1 132.9,271.6 132.4,271.6 129.1,277.1 		"/>
		<path class="st0" d="M139.2,269.8L139.2,269.8L139.2,269.8c-3,0.2-5.3,2.1-6,4.9l0,0l0,0c0.3,0.6,0.8,1.2,1.4,1.7l0.1,0.1l1.6-2.3
			c0,0-0.6-0.3-0.8-0.4c0.5-0.8,1.4-1.6,2.3-1.9c0.1,0.2,0.3,0.8,0.3,0.8l0.1-0.1l2.4-1.1l-0.1-0.1
			C140.3,270.8,139.8,270.3,139.2,269.8z M138.6,271.9c-0.1-0.2-0.1-0.6-0.1-0.8c-1.6,0.5-3.1,1.8-3.8,3.1c0.2,0.1,0.6,0.2,0.8,0.3
			l-0.8,1.1c-0.3-0.2-0.6-0.7-0.7-1c0.6-2.3,2.7-4.1,5-4.2c0.3,0.2,0.6,0.5,0.8,0.9L138.6,271.9z"/>
		<path class="st0" d="M135.5,276.4l0.2,0.4c0.6-0.4,1.1-1,1.2-1.8l-0.5,0C136.3,275.6,136,276.1,135.5,276.4z"/>
		<path class="st0" d="M136,277.4l0.2,0.5c0.9-0.5,1.6-1.5,1.8-2.5l-0.5,0C137.3,276.1,136.8,276.9,136,277.4z"/>
		<path class="st0" d="M136.8,278.9c1.3-0.7,2.2-2,2.4-3.5l-0.6-0.1c-0.2,1.3-1,2.4-2.1,3L136.8,278.9z"/>
		<path class="st0" d="M122.2,278c0.3,0.2,0.7,0.3,1,0.4c0.3,0.1,0.6,0.1,0.9,0.1c1.1,0,2.2-0.4,2.9-1.2c0.8-0.8,1.2-1.8,1.2-2.9
			c0-1.1-0.4-2.2-1.2-2.9c-0.2-0.2-0.4-0.4-0.7-0.6c-0.3-0.2-0.7-0.4-1.1-0.5c-0.4-0.1-0.8-0.2-1.2-0.2c-1.1,0-2.2,0.4-2.9,1.2
			c-0.8,0.8-1.2,1.8-1.2,2.9c0,1.1,0.4,2.2,1.2,2.9C121.5,277.6,121.8,277.8,122.2,278z M124.3,270.7c0.3,0,0.6,0.1,0.9,0.1
			c0.3,0.1,0.6,0.2,0.9,0.4c0.2,0.1,0.4,0.3,0.6,0.5c0.6,0.6,1,1.5,1.1,2.4c0,0.9-0.3,1.8-0.9,2.5l-1.2-1.2l0,0
			c0.3-0.4,0.5-0.8,0.5-1.3l0-0.3h-0.6l0,0.3c0,0.3-0.1,0.6-0.3,0.9l-0.3-0.3c0.1-0.2,0.2-0.3,0.2-0.5v-1.9c0-0.5-0.4-1-1-1
			c-0.5,0-1,0.4-1,1v0.6l-0.1-0.1l-1.2-1.2C122.5,271,123.4,270.7,124.3,270.7z M121.4,272l1.6,1.6l0.1,0.1v0.5c0,0.5,0.4,1,1,1
			c0.1,0,0.3,0,0.4-0.1l0.3,0.3c-0.2,0.1-0.5,0.2-0.7,0.2h0c-0.8,0-1.5-0.7-1.5-1.5l0-0.3h-0.6v0.3c0,1,0.8,1.9,1.8,2v0.4h-1.3v0.6
			h3.1v-0.6h-1.3v-0.4c0.3,0,0.6-0.2,0.9-0.4l0,0l1.2,1.2c-0.7,0.6-1.6,0.9-2.5,0.9c-0.3,0-0.6-0.1-0.8-0.1
			c-0.2-0.1-0.4-0.1-0.7-0.2c-0.3-0.2-0.7-0.4-0.9-0.7c-0.6-0.6-1-1.5-1.1-2.4C120.5,273.6,120.8,272.7,121.4,272z"/>
		<path class="st0" d="M133.8,301.2c0-1.9-1.6-3.5-3.5-3.5c-1.9,0-3.5,1.6-3.5,3.5c0,0.3,0,0.5,0.1,0.7l0.6-0.1
			c0-0.2-0.1-0.4-0.1-0.6c0-1.6,1.3-2.9,2.9-2.9c1.6,0,2.9,1.3,2.9,2.9c0,0.2,0,0.4-0.1,0.6l0.6,0.1
			C133.8,301.7,133.8,301.5,133.8,301.2z"/>
		<path class="st0" d="M132.3,301.6c0,0.2-0.5,2-0.5,2.2l0.6,0.1l0.1-0.4l0.8,0.2c0.1-0.4,0.3-0.9,0.4-1.3l-0.8-0.2l0.1-0.5
			L132.3,301.6z"/>
		<path class="st0" d="M127.5,304.4c0.2,0.8,0.5,1.3,1.8,2.1c0.1,0.5,0.5,0.9,1.1,0.9c0.6,0,1.1-0.5,1.1-1.1c0-0.6-0.5-1.1-1.1-1.1
			c-0.4,0-0.8,0.2-0.9,0.5c-1.2-0.3-1.4-1.8-1.4-1.9l0.3-0.1l0,0.2l0.6-0.1c-0.1-0.3-0.5-2-0.5-2.2l-0.6,0.1l0.1,0.5l-0.8,0.1
			C127.1,302.8,127.3,303.6,127.5,304.4z M130.4,305.7c0.3,0,0.5,0.2,0.5,0.5c0,0.3-0.2,0.5-0.5,0.5s-0.5-0.2-0.5-0.5
			C129.8,306,130.1,305.7,130.4,305.7z"/>
		<path class="st0" d="M250.1,220.5h1.8c0.1,0.3,0.4,0.5,0.8,0.5c0.5,0,0.8-0.4,0.8-0.8c0-0.5-0.4-0.8-0.8-0.8
			c-0.4,0-0.7,0.2-0.8,0.5l-1.8,0V220.5z"/>
		<path class="st0" d="M248,219.9l-2,0c-0.1-0.3-0.4-0.5-0.8-0.5c-0.5,0-0.8,0.4-0.8,0.8c0,0.5,0.4,0.8,0.8,0.8
			c0.3,0,0.6-0.2,0.8-0.5h2.2c0.6,0,1.1-0.5,1.1-1.1l0-3.1l1.1,1.6l0.5-0.3l-1.9-2.4l-1.9,2.4l0.5,0.3l1.1-1.6l0,2.9
			C248.6,219.6,248.3,219.9,248,219.9z"/>
		<path class="st0" d="M134.5,215.5h-8.3v5.5h8.3V215.5z M133.3,216.2c-1,0.8-2.7,2.4-3,2.6c-0.3-0.2-2-1.8-3-2.6H133.3z
			 M126.8,216.6l1.9,1.7l-1.9,1.7V216.6z M127.4,220.4l1.9-1.7l1.1,1l1.1-1l1.9,1.7H127.4z M133.8,220l-1.9-1.7l1.9-1.7V220z"/>
	</g>
</g>
<g id="Ebene_2">
	<g>
		<circle id="bgnumber_3_" class="st1" cx="334.2" cy="134.6" r="7.1"/>
		<text transform="matrix(1 0 0 1 328.3542 138.0683)" class="st2 st3 st4 button" data-number="3">04</text>
	</g>
	<g>
		<circle id="bgnumber_2_" class="st1" cx="334.2" cy="118" r="7.1"/>
		<text transform="matrix(1 0 0 1 328.4893 121.4504)" class="st2 st3 st4 button" data-number="2">03</text>
	</g>
	<g>
		<circle id="bgnumber_1_" class="st1" cx="334.2" cy="101.4" r="7.1"/>
		<text transform="matrix(1 0 0 1 328.6343 104.8327)" class="st2 st3 st4 button" data-number="1">02</text>
	</g>
	<g>
		<circle id="bgnumber" class="st1" cx="334.2" cy="84.8" r="7.1"/>
		<text transform="matrix(1 0 0 1 329.2891 88.2145)" class="st2 st3 st4 button" data-number="0">01</text>
	</g>
	<g>
		<circle id="bgnumber_7_" class="st1" cx="334.2" cy="201.1" r="7.1"/>
		<text transform="matrix(1 0 0 1 328.3641 204.6182)" class="st2 st3 st4 button" data-number="7">08</text>
	</g>
	<g>
		<circle id="bgnumber_6_" class="st1" cx="334.2" cy="184.5" r="7.1"/>
		<text transform="matrix(1 0 0 1 328.8636 188.0003)" class="st2 st3 st4 button" data-number="6">07</text>
	</g>
	<g>
		<circle id="bgnumber_5_" class="st1" cx="334.2" cy="167.8" r="7.1"/>
		<text transform="matrix(1 0 0 1 328.4043 171.3038)" class="st2 st3 st4 button" data-number="5">06</text>
	</g>
	<g>
		<circle id="bgnumber_4_" class="st1" cx="334.2" cy="151.2" r="7.1"/>
		<text transform="matrix(1 0 0 1 328.5842 154.686)" class="st2 st3 st4 button" data-number="4">05</text>
	</g>
	<g>
		<circle id="bgnumber_11_" class="st1" cx="334.2" cy="267.5" r="7.1"/>
		<text transform="matrix(1 0 0 1 329.6697 271.0893)" class="st2 st3 st4 button" data-number="11">12</text>
	</g>
	<g>
		<circle id="bgnumber_10_" class="st1" cx="334.2" cy="250.9" r="7.1"/>
		<text transform="matrix(1 0 0 1 330.3243 254.4714)" class="st2 st3 st4 button" data-number="10">11</text>
	</g>
	<g>
		<circle id="bgnumber_9_" class="st1" cx="334.2" cy="234.3" r="7.1"/>
		<text transform="matrix(1 0 0 1 329.2894 237.8538)" class="st2 st3 st4 button" data-number="9">10</text>
	</g>
	<g>
		<circle id="bgnumber_8_" class="st1" cx="334.2" cy="217.7" r="7.1"/>
		<text transform="matrix(1 0 0 1 328.4045 221.2359)" class="st2 st3 st4 button" data-number="8">09</text>
	</g>
	<g>
		<circle id="bgnumber_15_" class="st1" cx="360.8" cy="134.6" r="7.1"/>
		<text transform="matrix(1 0 0 1 355.9797 138.0724)" class="st2 st3 st4 button" data-number="15">16</text>
	</g>
	<g>
		<circle id="bgnumber_14_" class="st1" cx="360.8" cy="118" r="7.1"/>
		<text transform="matrix(1 0 0 1 356.1597 121.4543)" class="st2 st3 st4 button" data-number="14">15</text>
	</g>
	<g>
		<circle id="bgnumber_13_" class="st1" cx="360.8" cy="101.4" r="7.1"/>
		<g>
			<text transform="matrix(1 0 0 1 355.9294 104.8365)" class="st2 st3 st4 button" data-number="13">14</text>
		</g>
	</g>
	<g>
		<circle id="bgnumber_12_" class="st1" cx="360.8" cy="84.8" r="7.1"/>
		<text transform="matrix(1 0 0 1 356.0647 88.2188)" class="st2 st3 st4 button" data-number="12">13</text>
	</g>
	<g>
		<circle id="bgnumber_31_" class="st1" cx="361.1" cy="201.1" r="7.1"/>
		<text transform="matrix(1 0 0 1 355.5157 204.5392)" class="st2 st3 st4 button" data-number="19">20</text>
	</g>
	<g>
		<circle id="bgnumber_32_" class="st1" cx="361.1" cy="184.5" r="7.1"/>
		<text transform="matrix(1 0 0 1 356.3208 187.9214)" class="st2 st3 st4 button" data-number="18">19</text>
	</g>
	<g>
		<circle id="bgnumber_17_" class="st1" cx="361.1" cy="167.8" r="7.1"/>
		<text transform="matrix(1 0 0 1 356.2803 171.308)" class="st2 st3 st4 button" data-number="17">18</text>
	</g>
	<g>
		<circle id="bgnumber_16_" class="st1" cx="361.1" cy="151.2" r="7.1"/>
		<text transform="matrix(1 0 0 1 356.7804 154.6902)" class="st2 st3 st4 button" data-number="16">17</text>
	</g>
	<g>
		<circle id="bgnumber_27_" class="st1" cx="361.6" cy="267.5" r="7.1"/>
		<text transform="matrix(1 0 0 1 356.0813 271.0103)" class="st2 st3 st4 button" data-number="23">24</text>
	</g>
	<g>
		<circle id="bgnumber_28_" class="st1" cx="361.6" cy="250.9" r="7.1"/>
		<text transform="matrix(1 0 0 1 356.2167 254.3925)" class="st2 st3 st4 button" data-number="22">23</text>
	</g>
	<g>
		<circle id="bgnumber_29_" class="st1" cx="361.6" cy="234.3" r="7.1"/>
		<text transform="matrix(1 0 0 1 356.3617 237.7748)" class="st2 st3 st4 button" data-number="21">22</text>
	</g>
	<g>
		<circle id="bgnumber_30_" class="st1" cx="361.6" cy="217.7" r="7.1"/>
		<text transform="matrix(1 0 0 1 357.0165 221.157)" class="st2 st3 st4 button" data-number="20">21</text>
	</g>
</g>
</svg>
