<?xml version="1.0" encoding="utf-8"?>
<!-- Generator: Adobe Illustrator 21.0.1, SVG Export Plug-In . SVG Version: 6.00 Build 0)  -->
<!DOCTYPE svg PUBLIC "-//W3C//DTD SVG 1.1//EN" "http://www.w3.org/Graphics/SVG/1.1/DTD/svg11.dtd">
<svg version="1.1" xmlns="http://www.w3.org/2000/svg" xmlns:xlink="http://www.w3.org/1999/xlink" x="0px" y="0px"
	 viewBox="0 0 360 394" style="enable-background:new 0 0 360 394;" xml:space="preserve">
<style type="text/css">
	.button{cursor: pointer}
	.st0{fill:#B3B2B2;}
	.st1{fill:#FFFFFF;}
	.st2{fill:#29AEE4;}
	.st3{font-family:'BrixSansRegular';}
	.st4{font-size:10px;}
</style>
<g id="Ebene_1">
	<g>
		<path class="st0" d="M354,274.4C354,274.4,354,274.5,354,274.4c0.1,0,0.1,0,0.1,0c0-0.2-0.1-0.2-0.2-0.2c0,0-0.1,0-0.1,0.1
			c0,0,0,0.1,0.1,0.1C354,274.3,354,274.3,354,274.4z"/>
		<path class="st0" d="M230.6,360.7h-29.4c-3.3,0-6.1,2.7-6.1,6s2.7,6,6.1,6h29.4c3.3,0,6.1-2.7,6.1-6S234,360.7,230.6,360.7z
			 M230.6,371.2h-29.4c-2.6,0-4.7-2.1-4.7-4.6c0-2.5,2.1-4.6,4.7-4.6h29.4c2.6,0,4.7,2.1,4.7,4.6
			C235.3,369.2,233.2,371.2,230.6,371.2z"/>
		<path class="st0" d="M177.5,360.7h-9.8c-3.3,0-6.1,2.7-6.1,6s2.7,6,6.1,6h9.8c3.3,0,6.1-2.7,6.1-6S180.9,360.7,177.5,360.7z
			 M177.5,371.2h-9.8c-2.6,0-4.7-2.1-4.7-4.6c0-2.5,2.1-4.6,4.7-4.6h9.8c2.6,0,4.7,2.1,4.7,4.6C182.2,369.2,180.1,371.2,177.5,371.2
			z"/>
		<path class="st0" d="M264.1,360.7h-9.8c-3.3,0-6.1,2.7-6.1,6s2.7,6,6.1,6h9.8c3.3,0,6.1-2.7,6.1-6S267.5,360.7,264.1,360.7z
			 M264.1,371.2h-9.8c-2.6,0-4.7-2.1-4.7-4.6c0-2.5,2.1-4.6,4.7-4.6h9.8c2.6,0,4.7,2.1,4.7,4.6C268.8,369.2,266.7,371.2,264.1,371.2
			z"/>
		<path class="st0" d="M297.6,360.7h-9.8c-3.3,0-6.1,2.7-6.1,6s2.7,6,6.1,6h9.8c3.3,0,6.1-2.7,6.1-6S301,360.7,297.6,360.7z
			 M297.6,371.2h-9.8c-2.6,0-4.7-2.1-4.7-4.6c0-2.5,2.1-4.6,4.7-4.6h9.8c2.6,0,4.7,2.1,4.7,4.6C302.3,369.2,300.2,371.2,297.6,371.2
			z"/>
		<path class="st0" d="M333.5,332.1C333.5,332.1,333.5,332.1,333.5,332.1l-9.8,0c-3.3,0-6.1,2.7-6.1,6c0,3.3,2.7,6,6.1,6h9.8
			c3.3,0,6.1-2.7,6.1-6C339.5,334.8,336.8,332.1,333.5,332.1z M333.5,342.7h-9.8c-2.6,0-4.7-2.1-4.7-4.6c0-2.5,2.1-4.6,4.7-4.6h9.8
			c2.6,0,4.7,2.1,4.7,4.6C338.2,340.6,336,342.7,333.5,342.7z"/>
		<path class="st0" d="M333.5,307.5C333.5,307.5,333.5,307.5,333.5,307.5l-9.8,0c-3.3,0-6.1,2.7-6.1,6s2.7,6,6.1,6h9.8
			c3.3,0,6.1-2.7,6.1-6C339.5,310.1,336.8,307.5,333.5,307.5z M333.5,318h-9.8c-2.6,0-4.7-2.1-4.7-4.6c0-2.5,2.1-4.6,4.7-4.6h9.8
			c2.6,0,4.7,2.1,4.7,4.6C338.2,315.9,336,318,333.5,318z"/>
		<path class="st0" d="M333.5,282.8C333.5,282.8,333.5,282.8,333.5,282.8l-9.8,0c-3.3,0-6.1,2.7-6.1,6s2.7,6,6.1,6h9.8
			c3.3,0,6.1-2.7,6.1-6C339.5,285.4,336.8,282.8,333.5,282.8z M333.5,293.3h-9.8c-2.6,0-4.7-2.1-4.7-4.6c0-2.5,2.1-4.6,4.7-4.6h9.8
			c2.6,0,4.7,2.1,4.7,4.6C338.2,291.3,336,293.3,333.5,293.3z"/>
		<path class="st0" d="M333.5,258.1C333.5,258.1,333.5,258.1,333.5,258.1l-9.8,0c-3.3,0-6.1,2.7-6.1,6c0,3.3,2.7,6,6.1,6h9.8
			c3.3,0,6.1-2.7,6.1-6C339.5,260.8,336.8,258.1,333.5,258.1z M333.5,268.6h-9.8c-2.6,0-4.7-2.1-4.7-4.6c0-2.5,2.1-4.6,4.7-4.6h9.8
			c2.6,0,4.7,2.1,4.7,4.6C338.2,266.6,336,268.6,333.5,268.6z"/>
		<path class="st0" d="M333.5,233.4C333.5,233.4,333.5,233.4,333.5,233.4l-9.8,0c-3.3,0-6.1,2.7-6.1,6c0,3.3,2.7,6,6.1,6h9.8
			c3.3,0,6.1-2.7,6.1-6C339.5,236.1,336.8,233.4,333.5,233.4z M333.5,244h-9.8c-2.6,0-4.7-2.1-4.7-4.6c0-2.5,2.1-4.6,4.7-4.6h9.8
			c2.6,0,4.7,2.1,4.7,4.6C338.2,241.9,336,244,333.5,244z"/>
		<path class="st0" d="M333.5,170.5H319c-3.3,0-6.1,2.7-6.1,6c0,3.3,2.7,6,6.1,6h14.5c3.3,0,6.1-2.7,6.1-6
			C339.5,173.1,336.8,170.5,333.5,170.5z M333.5,181H319c-2.6,0-4.7-2.1-4.7-4.6s2.1-4.6,4.7-4.6h14.5c2.6,0,4.7,2.1,4.7,4.6
			S336,181,333.5,181z"/>
		<path class="st0" d="M360,24.8c0-0.9-0.1-1.7-0.2-2.4c-0.2-1.6-0.5-3.1-1-4.5c-0.5-1.5-1.1-2.9-1.9-4.2c-0.8-1.3-1.7-2.5-2.7-3.6
			c-1-1.1-2.2-2.1-3.5-2.9c-1.3-0.8-2.7-1.5-4.2-2.1c-0.7-0.3-1.5-0.5-2.2-0.7c-0.7-0.2-1.5-0.4-2.3-0.5c-0.8-0.1-1.6-0.2-2.4-0.3
			c-1-0.1-2.1-0.1-3.1-0.2l0,0c0,0,0,0-0.1,0c-8.9-0.4-17.8-0.7-26.3-1c0,0,0,0-0.1,0c-29.9-1-60.2-1.7-90-2.1
			C204.6,0.1,189.1,0,173.8,0c-7.2,0-14.6,0-22.1,0.1c-7.5,0.1-14.9,0.1-22.1,0.2c0,0,0,0,0,0c0,0,0,0,0,0c-0.3,0-0.6,0-0.9,0.1
			c-0.3,0.1-0.6,0.2-0.8,0.4c-0.3,0.2-0.5,0.4-0.7,0.6c-0.1,0.1-0.2,0.2-0.2,0.4c0,0.1-0.1,0.2-0.1,0.3c0,0,0,0,0,0
			c-0.5,1.1-1,2.2-1.5,3.3c-0.3,0.6-0.5,1.2-0.8,1.9l-0.8,2c0,0.1,0,0.1,0,0.2l-0.1,0.2c0,0-0.1,0-0.1,0.1c-0.1,0-0.1,0.1-0.2,0.1
			c-0.2,0.1-0.3,0.2-0.5,0.2c-0.4,0.2-0.8,0.3-1.2,0.4c-0.4,0.1-0.8,0.1-1.2,0.2c-0.2,0-0.4,0-0.6,0c-0.2,0-0.4,0-0.5,0
			c-0.1,0-0.2,0-0.3,0c-0.1,0-0.1-0.1-0.2-0.1c0,0,0,0,0,0c-28.9,0.4-57.8,1.1-85.7,2c-0.1,0-0.1,0-0.2,0.1c-0.5,0-1,0-1.6,0
			c0,0,0,0,0,0c0,0,0,0,0,0c-0.3,0-0.7-0.1-1-0.1c-0.3-0.1-0.7-0.1-0.9-0.2c-0.1,0-0.3-0.1-0.4-0.1c-0.1,0-0.2-0.1-0.3-0.1
			c-0.1,0-0.1-0.1-0.2-0.2l0,0c0,0,0,0,0,0l0,0c0,0,0,0,0,0c0,0,0,0,0,0c-0.5-1.2-1-2.3-1.5-3.5c-0.3-0.6-0.5-1.1-0.8-1.7
			c-0.1-0.3-0.2-0.5-0.4-0.8l-0.4-0.8c0,0,0,0,0,0c-0.1-0.1-0.1-0.3-0.2-0.4c-0.1-0.1-0.2-0.2-0.3-0.3c-0.2-0.2-0.4-0.4-0.7-0.5
			c-0.2-0.1-0.5-0.3-0.8-0.3c-0.1,0-0.3-0.1-0.4-0.1c-0.1,0-0.2,0-0.3,0c0,0-0.1-0.1-0.1-0.1c0,0,0,0,0,0c-1.1,0.1-2,0.1-2.8,0.2
			c-0.9,0.1-1.6,0.2-2.4,0.4c-0.8,0.1-1.5,0.3-2.3,0.5c-0.7,0.2-1.5,0.5-2.2,0.8c-1.4,0.6-2.8,1.3-4,2.1c-1.2,0.8-2.4,1.8-3.4,2.9
			c-1,1.1-1.9,2.3-2.6,3.6c-0.7,1.3-1.3,2.7-1.8,4.1c-0.2,0.7-0.4,1.4-0.6,2.2c-0.1,0.7-0.3,1.5-0.4,2.3C0.1,23.2,0.1,24,0,24.9
			c0,1,0,2.1,0,3.1v0.1c0,0,0,0,0,0c0,0,0,0,0,0V366c0,0,0,0,0,0s0,0,0,0c0,1,0,2.1,0,3.2c0,0.9,0.1,1.7,0.2,2.5
			c0.1,0.8,0.2,1.6,0.4,2.3c0.2,0.7,0.4,1.5,0.6,2.2c0.5,1.5,1.1,2.9,1.9,4.2c0.8,1.3,1.7,2.5,2.7,3.6c0.5,0.5,1,1,1.6,1.5
			c0.6,0.5,1.2,1,1.9,1.4c1.3,0.8,2.7,1.5,4.2,2.1c0.7,0.3,1.5,0.5,2.2,0.7c0.7,0.2,1.5,0.4,2.3,0.5c0.8,0.1,1.6,0.2,2.4,0.3
			c0.5,0,0.9,0.1,1.4,0.1c0.6,0,1.2,0.1,1.8,0.1c12.6,0.5,25.5,1,38.4,1.4c13.1,0.4,26.4,0.8,39.4,1c26,0.5,52.4,0.8,78.6,0.8
			c0.1,0,0.2,0,0.2,0c26.3,0,52.8-0.3,78.8-0.8c13-0.3,26.3-0.6,39.4-1c12.7-0.4,25.4-0.9,37.9-1.4c0.6,0,1.2-0.1,1.8-0.1
			c0.4,0,0.9-0.1,1.3-0.1c0.8-0.1,1.7-0.2,2.4-0.3c0.8-0.1,1.6-0.3,2.4-0.5c0.7-0.2,1.5-0.4,2.2-0.7c1.5-0.6,2.9-1.3,4.2-2.1
			c0.6-0.4,1.3-0.9,1.8-1.3c0.6-0.5,1.2-1,1.7-1.6c1-1.1,2-2.3,2.7-3.6c0.8-1.3,1.4-2.7,1.9-4.2c0.2-0.7,0.4-1.4,0.6-2.2
			c0.2-0.8,0.3-1.5,0.4-2.3c0.1-0.8,0.1-1.6,0.2-2.5c0-1,0-2,0-3.3c0,0,0,0,0,0s0,0,0,0V48.9v0V28C360,27,360,25.9,360,24.8z
			 M336.3,4C336.3,4,336.3,4,336.3,4L336.3,4c1.1,0,2.1,0.1,3.2,0.2c0.9,0.1,1.6,0.2,2.4,0.3c0.8,0.1,1.5,0.3,2.3,0.5
			c0.7,0.2,1.5,0.4,2.1,0.7c1.5,0.5,2.8,1.2,4.1,2c1.2,0.8,2.4,1.8,3.4,2.8c1,1,1.9,2.2,2.6,3.5c0.8,1.3,1.4,2.6,1.8,4.1
			c0.4,1.4,0.8,2.8,0.9,4.4c0.1,0.7,0.1,1.5,0.2,2.4c0,1.1,0,2.3,0,3.3v20.5h-2.1h-1.5V26.6c0-0.1,0-0.1,0-0.2
			c0-4.5-0.2-8.8-4.3-12.8c-1.8-1.8-3.9-2.9-6.6-3.7c-2.6-0.7-5.2-0.8-7.5-0.9c0,0,0,0,0,0c-9-0.4-18-0.7-27-1V7.8V5.2
			c0-0.1,0.1-0.1,0.1-0.2V3C318.7,3.3,327.5,3.6,336.3,4C336.3,4,336.3,4,336.3,4z M337.2,384.5l-3.7,0.2c0,0,0,0,0,0l-23.2,0.9
			c0,0,0,0,0,0l-7.1,0.2c-81.8,2.7-164.7,2.7-246.5,0c0,0,0,0,0,0c0,0,0,0,0,0c-11.4-0.4-22.8-0.8-34-1.3c0,0-0.1,0-0.1,0l0,0
			c-0.8,0-1.6-0.1-2.5-0.1c-0.6,0-1.3-0.1-1.9-0.2c-1.2-0.2-2.3-0.4-3.3-0.8c-1.1-0.4-2.1-0.8-3-1.4c-0.9-0.6-1.7-1.2-2.5-2
			c-0.7-0.7-1.3-1.5-1.8-2.4c-0.5-0.9-1-1.9-1.3-2.9c-0.3-1-0.5-2.1-0.6-3.2c-0.1-0.6-0.1-1.3-0.1-1.9c0-0.8,0-1.7,0-2.5
			c0,0,0,0,0,0V28.1v-1c0,0,0,0,0-0.1l0,0c0-0.8,0-1.7,0-2.5c0-0.6,0.1-1.2,0.1-1.8c0.1-1.2,0.3-2.2,0.6-3.2c0.3-1,0.7-2,1.2-2.9
			c0.5-0.9,1.2-1.8,1.9-2.5c0.7-0.7,1.5-1.4,2.5-2c0.9-0.6,2-1.1,3.1-1.4c1-0.4,2.1-0.6,3.3-0.8c0.6-0.1,1.2-0.2,1.9-0.2
			c0.8-0.1,1.7-0.1,2.6-0.1c0.1,0,0.2,0,0.2-0.1c0.1,0,0.1,0,0.2,0c0,0,2.5,0,3,1.5c0,0.1,0.1,0.1,0.1,0.1c0,0.1,0,0.2,0.1,0.3
			c0.2,0.5,0.5,1,0.7,1.5c0.1,0.8,0.3,1.6,0.4,2.4c0.2,1,0.3,2,0.5,3.2c0.5,3.3,1,6.3,1.5,9.2c0.6,3.2,1.2,6.2,1.9,9.2
			c0.7,3.1,1.6,6,2.4,8.7c1,3.2,2.2,6.2,3.5,8.9c1.4,3.1,3,5.9,4.7,8.4c1.9,2.8,3.9,5.2,6.1,7.2c0,0,0,0,0,0
			c5.4,4.9,12,8.2,19.2,9.6c0,0,0,0,0,0c0,0,0.1,0,0.1-0.1c0,0,0,0,0.1,0c0,0,0,0,0,0c0,0,0,0,0,0c0,0,0,0,0,0v17.2
			c0,1.4,1.1,2.5,2.5,2.5h12.6c1.4,0,2.5-1.1,2.5-2.5V79.6c0,0,0,0,0,0l0,0c0,0,0,0,0,0l0.1,0c0,0,0,0.1,0.1,0.1c0,0,0,0,0,0
			c7.2-1.4,13.9-4.7,19.3-9.7c0,0,0,0,0,0c0,0,0,0,0,0c2.2-2,4.2-4.4,6.1-7.2c1.7-2.5,3.2-5.3,4.7-8.4c1.2-2.7,2.4-5.7,3.4-8.9
			c0.9-2.7,1.7-5.7,2.4-8.7c0.7-2.9,1.3-6,1.9-9.2c0.5-2.9,1-6,1.5-9.2c0.4-2.8,0.8-5.7,1.1-8.8c0.2-0.3,0.3-0.7,0.5-1c0,0,0,0,0,0
			c0,0,0,0,0,0c0-0.1,0.1-0.2,0.2-0.3c0.1-0.1,0.1-0.1,0.2-0.2c0.1-0.1,0.1-0.1,0.2-0.1c0.1,0,0.2-0.1,0.2-0.1
			c0.1,0,0.2-0.1,0.4-0.1c0.2,0,0.4-0.1,0.5-0.1c0.2,0,0.5-0.1,0.7-0.1c0.3,0,0.6,0,0.9,0c0,0,0.1,0,0.1,0c0,0,0.1,0,0.1,0
			c0,0,0,0,0,0l2.4,0c0.2,0,0.4-0.1,0.5-0.2c0.1,0.1,0.3,0.2,0.5,0.2c0,0,0,0,0,0c4.9-0.1,9.9-0.1,14.8-0.2l0,0
			c51.5-0.4,103.8,0.2,155.3,1.9c0,0,0,0,0,0c0,0,0,0,0,0c11.2,0.4,22.7,0.8,33.9,1.3c0,0,0,0,0,0c2.4,0.1,4.8,0.2,7.2,0.9
			c2.5,0.7,4.4,1.8,6,3.3c3.9,3.7,3.9,7.6,3.9,12.4c0,0.1,0,0.1,0,0.2v21.5v0.1v318c0,0.1,0,0.2,0,0.2l-0.1,0c0,0.8,0,1.6,0,2.5
			c0,0.6-0.1,1.2-0.1,1.8c-0.1,1.2-0.3,2.2-0.6,3.2c-0.3,1-0.7,2-1.2,2.9c-0.5,0.9-1.2,1.8-1.9,2.5c-0.7,0.7-1.5,1.4-2.5,2
			c-0.9,0.6-2,1.1-3.1,1.4c-1,0.4-2.1,0.6-3.3,0.8c-0.6,0.1-1.2,0.2-1.9,0.2C339,384.4,338.1,384.5,337.2,384.5z M29.4,18
			c0.1,0.2,0.2,0.3,0.3,0.3c0.1,0.1,0.1,0.1,0.2,0.2c0.1,0.1,0.3,0.2,0.5,0.3c0.2,0.1,0.4,0.1,0.6,0.2c0.4,0.1,0.8,0.2,1.3,0.2
			c0.3,0,0.5,0,0.8,0c0.3,0,0.6,0,0.8,0c0,0,0,0,0,0c1,0,2.1-0.1,3.1-0.1c0.6,5.2,1.3,9.8,2.1,14.1c0.7,3.6,1.4,6.7,2.2,9.6
			c0.9,3.4,2,6.4,3.2,9.3c1.1,2.6,2.2,4.8,3.5,6.8c1.4,2.3,3,4.3,4.7,6c0.8,0.8,1.7,1.6,2.6,2.3c0.9,0.7,1.9,1.4,2.9,2
			c1,0.6,2.1,1.2,3.2,1.7c1,0.5,2.1,0.9,3.2,1.3v2.7c0,0,0,0,0,0l0,0.6c0,0.1,0,0.1,0.1,0.1c0,0,0,0.1,0.1,0.1
			c0.8,0.2,1.7,0.4,2.3,0.5l0.1,0c0,1,0,2.1,0,3.1c0,0-0.1-0.1-0.1-0.1c-7.1-1.4-13.7-4.7-19.1-9.5c0,0,0,0,0,0
			c-2.2-2-4.2-4.4-6-7.1c-1.7-2.5-3.2-5.3-4.6-8.3c-1.2-2.7-2.4-5.7-3.4-8.8c-0.9-2.7-1.7-5.6-2.4-8.7c-0.7-2.9-1.3-5.9-1.9-9.1
			c-0.5-2.9-1-5.9-1.5-9.2c-0.2-1.2-0.3-2.2-0.5-3.2c-0.1-0.4-0.1-0.9-0.2-1.3C28.2,15.2,28.8,16.5,29.4,18z M122,16.5
			c0.2-0.1,0.4-0.2,0.5-0.3c0.1-0.1,0.2-0.2,0.3-0.4c0,0,0.1-0.2,0.1-0.2l0.1-0.2c0,0,0,0,0,0c0,0,0,0,0,0l1.7-3.8
			c0.2-0.4,0.4-0.8,0.5-1.2c-0.3,2.7-0.7,5.3-1,7.8c-0.5,3.3-1,6.3-1.5,9.2c-0.6,3.2-1.2,6.3-1.9,9.2c-0.7,3-1.5,6-2.4,8.7
			c-1,3.2-2.2,6.2-3.4,8.9c-1.4,3.1-3,5.9-4.6,8.4c-1.8,2.7-3.9,5.1-6,7.1l0,0c-5.3,4.9-11.9,8.2-19.1,9.6c0,0-0.1,0-0.1,0.1
			c0-1,0-2,0-3.1c0.8-0.2,1.8-0.4,2.4-0.6c0.1,0,0.1-0.1,0.1-0.2c0,0,0,0,0,0c0,0,0,0,0,0c0-0.1,0-0.2,0-0.3c0-0.1,0-0.2,0-0.3v-2.7
			c5.6-1.8,9.7-4.6,13.5-9c0,0,0,0,0,0c4.8-5.6,7.8-13.5,9.5-19.1c0,0,0,0,0,0c0.7-2.4,1.3-4.9,1.9-7.7c0.6-2.8,1.1-5.8,1.7-9.1
			c0.5-3.1,0.9-6.4,1.3-10.1c0.9,0,1.8,0,2.8,0c0,0,0,0,0,0c0.3,0,0.6,0,0.9,0c0.3,0,0.5,0,0.8-0.1c0.5-0.1,0.9-0.2,1.3-0.3
			C121.6,16.7,121.8,16.6,122,16.5z M82.6,98.1H70c-0.7,0-1.3-0.6-1.3-1.2V79.6c0,0,0,0,0,0c0-1.1,0-2.3,0-3.4c0,0,0,0,0,0l0-2.5
			c2.5,0.5,5,0.8,7.6,0.8c0,0,0.1,0,0.1,0c0,0,0.1,0,0.1,0c2.6,0,5-0.3,7.5-0.8l0,2.5c0,0,0,0,0,0c0,1.1-0.1,2.3,0,3.4c0,0,0,0,0,0
			v17.2C83.8,97.5,83.3,98.1,82.6,98.1z M115.3,17.2c-0.4,3.6-0.9,6.9-1.3,10c-0.5,3.3-1.1,6.3-1.7,9.1c-0.6,2.8-1.2,5.3-1.9,7.7
			c0,0,0,0,0,0c-1.7,5.6-4.6,13.4-9.4,19c0,0,0,0,0,0c-3.8,4.4-7.9,7.1-13.5,8.9c0,0,0,0,0,0c0,0,0,0-0.1,0c0,0,0,0,0,0.1
			c0,0,0,0,0,0v2.8c0,0.1,0,0.2,0,0.3c0,0.1,0,0.1,0,0.2c-0.6,0.2-1.4,0.4-2.2,0.5l0-3c0-0.3-0.3-0.6-0.6-0.6c-0.1,0-0.2,0-0.2,0.1
			c0,0-0.1,0-0.1,0c-2.6,0.6-5.1,0.8-7.8,0.8c0,0-0.1,0-0.1,0h0c0,0,0,0-0.1,0c-2.7,0-5.2-0.3-7.9-0.8c-0.1,0-0.2,0-0.3,0
			c0,0-0.1,0-0.1,0c0,0,0,0,0,0c-0.3,0-0.6,0.3-0.6,0.6l0,3l0,0c-0.6-0.1-1.5-0.3-2.2-0.5l0-0.5c0,0,0,0,0,0c0,0,0,0,0,0v-2.8
			c0,0,0,0,0,0c0,0,0,0,0-0.1c0,0,0,0,0,0c0,0,0,0,0,0c-1.2-0.4-2.3-0.8-3.3-1.3c-1.1-0.5-2.2-1.1-3.1-1.7c-1-0.6-1.9-1.3-2.8-2
			c-0.9-0.7-1.8-1.5-2.6-2.3c-1.7-1.7-3.3-3.7-4.7-6c-1.2-2-2.4-4.2-3.5-6.8c-1.2-2.9-2.3-5.9-3.2-9.3c-0.8-2.9-1.5-6-2.2-9.6
			c-0.8-4.3-1.5-8.9-2.1-14C62.9,18.2,89,17.6,115.3,17.2z M127.9,1.9c0.1-0.2,0.3-0.3,0.5-0.5c0.2-0.1,0.4-0.2,0.6-0.3
			c0.2-0.1,0.5-0.1,0.7-0.1c0,0,0,0,0,0c0,0,0,0,0,0c7.1-0.1,14.6-0.2,22-0.2c7.4-0.1,14.8-0.1,22.1-0.1c15.2,0,30.8,0.1,46.1,0.2
			c29.6,0.3,59.8,1,89.6,2.1V5c0,0.1,0,0.1,0.1,0.2v2.6V8c-2.1-0.1-4.3-0.2-6.4-0.2c0,0,0,0,0,0c0,0,0,0,0,0
			C251.7,6,199.4,5.4,147.9,5.9c0,0,0,0,0,0C142.9,5.9,138,6,133,6c-0.2,0-0.4,0.1-0.5,0.2c-0.1-0.1-0.3-0.2-0.5-0.2l-2.4,0
			c0,0-0.1,0-0.1,0c0,0-0.1,0-0.1,0c-0.3,0-0.6,0-0.9,0c-0.3,0-0.5,0-0.8,0.1c-0.2,0-0.4,0.1-0.6,0.1c-0.2,0-0.4,0.1-0.5,0.2
			c-0.2,0.1-0.3,0.1-0.5,0.2c-0.1,0.1-0.2,0.1-0.3,0.2c0.5-1.2,1.1-2.4,1.5-3.4c0.1,0,0.2-0.1,0.2-0.2c0,0,0-0.2,0-0.2
			c0,0,0-0.1,0-0.1c0,0,0,0,0,0c0-0.1,0-0.2,0.1-0.4c0,0,0,0,0,0c0,0,0,0,0,0c0-0.1,0.1-0.2,0.1-0.3C127.8,2.1,127.8,2,127.9,1.9z
			 M28.8,12.7c0.1,0.1,0.3,0.1,0.5,0.2c0.3,0.1,0.6,0.2,1,0.2c0.4,0.1,0.7,0.1,1.1,0.1c0,0,0,0,0,0c0.3,0,0.7,0,1,0
			c0.2,0,0.5,0,0.7,0c0.1,0,0.1,0.1,0.2,0.1c0,0,0,0,0,0c27.9-1,56.8-1.6,85.7-2c0.1,0,0.1,0,0.2-0.1c0.2,0,0.4,0,0.6,0
			c0.1,0,0.2,0,0.2,0c0.2,0,0.4,0,0.6,0c0.5,0,0.9-0.1,1.3-0.2c0.5-0.1,0.9-0.2,1.3-0.4c0.2-0.1,0.4-0.2,0.5-0.3c0,0,0,0,0.1,0
			c-0.1,0.3-0.2,0.5-0.4,0.8l-1.7,3.8c0,0,0,0,0,0c0,0,0,0,0,0l-0.1,0.2c-0.1,0-0.1,0.1-0.2,0.1c-0.1,0.1-0.3,0.1-0.4,0.2
			c-0.3,0.1-0.7,0.2-1.1,0.2c-0.2,0-0.4,0-0.7,0.1c-0.3,0-0.5,0-0.8,0c0,0,0,0,0,0c-3.4,0-6.7,0.1-10.1,0.2c0,0,0,0-0.1,0
			c-25.1,0.4-50.1,1-74.3,1.8c0,0,0,0,0,0c-0.5,0-1,0-1.5,0c-0.4,0-0.7-0.1-1.1-0.2c-0.1,0-0.3-0.1-0.4-0.1c-0.1,0-0.2-0.1-0.3-0.2
			l-0.1-0.1c0-0.1-0.1-0.2-0.2-0.2c-0.8-1.6-1.4-3.1-2.1-4.4c0,0,0,0,0-0.1c0,0,0,0,0.1,0C28.6,12.6,28.7,12.6,28.8,12.7z
			 M359.3,369.2c0,0.9-0.1,1.7-0.2,2.4c-0.1,0.8-0.2,1.5-0.4,2.3c-0.2,0.7-0.3,1.4-0.6,2.1c-0.5,1.4-1.1,2.8-1.8,4.1
			c-0.7,1.3-1.6,2.4-2.6,3.5c-0.5,0.5-1.1,1.1-1.6,1.5c-0.6,0.5-1.2,0.9-1.8,1.3c-1.3,0.8-2.6,1.5-4.1,2c-0.7,0.3-1.4,0.5-2.1,0.7
			c-0.7,0.2-1.5,0.4-2.3,0.5c-0.8,0.1-1.6,0.2-2.4,0.3c-0.4,0-0.9,0.1-1.3,0.1c-0.6,0-1.2,0.1-1.8,0.1c-12.5,0.5-25.2,1-37.9,1.4
			c-13.1,0.4-26.4,0.8-39.4,1c-26,0.5-52.5,0.8-78.8,0.8c-0.1,0-0.2,0-0.2,0c-26.1,0-52.5-0.3-78.5-0.8c-13-0.3-26.3-0.6-39.4-1
			c-12.9-0.4-25.8-0.9-38.4-1.4c-0.6,0-1.2,0-1.8-0.1c-0.4,0-0.9-0.1-1.3-0.1c-0.8-0.1-1.6-0.2-2.4-0.3c-0.8-0.1-1.5-0.3-2.3-0.5
			c-0.7-0.2-1.5-0.4-2.1-0.7c-1.4-0.5-2.8-1.2-4.1-2c-0.6-0.4-1.2-0.9-1.8-1.3c-0.6-0.5-1.1-0.9-1.6-1.5c-1-1.1-1.9-2.2-2.6-3.5
			c-0.7-1.3-1.4-2.6-1.8-4.1c-0.2-0.7-0.4-1.4-0.6-2.1c-0.2-0.7-0.3-1.5-0.4-2.3c-0.1-0.8-0.1-1.5-0.2-2.4c0-1.1,0-2.2,0-3.2
			c0,0,0,0,0,0s0,0,0,0V28.1l0-0.1c0-1,0-2,0-3.1c0-0.8,0.1-1.6,0.2-2.4C1,21.7,1.1,21,1.2,20.3c0.1-0.7,0.3-1.4,0.5-2.1
			c0.4-1.4,1-2.8,1.7-4c0.7-1.2,1.6-2.4,2.5-3.5c1-1.1,2.1-2,3.3-2.8c1.2-0.8,2.5-1.5,3.9-2.1c0.7-0.3,1.4-0.5,2.1-0.7
			c0.7-0.2,1.5-0.4,2.2-0.5c0.7-0.1,1.5-0.3,2.3-0.3c0.8-0.1,1.7-0.1,2.8-0.2c0,0,0.1,0,0.1,0c0.1,0,0.2,0,0.3,0c0.1,0,0.2,0,0.3,0
			c0.2,0.1,0.4,0.1,0.6,0.2c0.2,0.1,0.4,0.3,0.5,0.4c0.1,0.1,0.1,0.2,0.2,0.3c0.1,0.1,0.1,0.2,0.2,0.3c0,0,0,0,0,0l0.4,0.7
			c0,0,0,0,0,0.1l0,0c0.1,0.2,0.2,0.5,0.3,0.7c0.3,0.6,0.5,1.1,0.8,1.7c0.1,0.3,0.3,0.6,0.4,0.9c-1-1-2.6-1.3-3.6-1.3
			c-0.1,0-0.2,0-0.2,0c-0.1,0-0.2,0-0.3,0c-0.9,0-1.7,0.1-2.6,0.1c-0.6,0.1-1.3,0.1-1.9,0.2c-1.3,0.2-2.5,0.5-3.6,0.8
			c-1.2,0.4-2.3,0.9-3.3,1.6c-1,0.6-1.9,1.4-2.7,2.2c-0.8,0.8-1.5,1.8-2.1,2.8c-0.6,1-1,2.1-1.3,3.2c-0.3,1.1-0.5,2.2-0.7,3.4
			c-0.1,0.6-0.1,1.3-0.1,1.9c0,0.9,0,1.7,0,2.6l0,0c0,0,0,0,0,0.1v1V367c0,0,0,0,0,0c0,0.9,0,1.7,0,2.6c0,0.7,0.1,1.3,0.1,2
			c0.1,1.3,0.4,2.4,0.7,3.5c0.3,1.1,0.8,2.2,1.4,3.2c0.6,1,1.3,1.9,2,2.7c0.8,0.8,1.7,1.5,2.7,2.2c1,0.6,2.1,1.1,3.3,1.5
			c1.1,0.4,2.3,0.7,3.5,0.8c0.7,0.1,1.3,0.2,2,0.2c0.8,0.1,1.7,0.1,2.5,0.1l0,0c0,0,0.1,0,0.1,0c11.2,0.5,22.6,0.9,34,1.3
			c0,0,0,0,0,0c40.9,1.3,82.1,2,123.3,2s82.4-0.7,123.3-2l7.1-0.2c0,0,0,0,0,0l23.2-0.9c0,0,0,0,0,0l3.7-0.2c0,0,0,0,0.1,0
			c0,0,0,0,0,0c0,0,0,0,0,0c0.8,0,1.6-0.1,2.5-0.1c0.7,0,1.3-0.1,1.9-0.2c1.3-0.2,2.5-0.5,3.6-0.9c1.2-0.4,2.3-0.9,3.3-1.6
			c1-0.6,1.9-1.4,2.7-2.2c0.8-0.8,1.5-1.8,2.1-2.8c0.6-1,1-2.1,1.3-3.2c0.3-1.1,0.5-2.2,0.6-3.4c0.1-0.6,0.1-1.3,0.1-1.9
			c0-0.8,0-1.7,0-2.5l0,0c0-0.1,0.1-0.2,0.1-0.3V49.2h1.5h2.1V366c0,0,0,0,0,0s0,0,0,0C359.3,367.2,359.3,368.2,359.3,369.2z"/>
		<path class="st0" d="M75.1,149.9c-0.2-0.8-0.6-1.3-1.4-1.6c-0.4-0.2-0.8-0.2-1.3-0.1c0,0,0,0,0,0c-5,1.1-9.3,4.2-12,8.5
			c0,0,0,0,0,0c-0.6,0.9-0.5,1.6,0.1,2.5c0,0,0,0,0,0c0.2,0.2,0.4,0.4,0.7,0.6c0.1,0.1,0.2,0.1,0.3,0.2c0,0,0,0,0,0c0,0,0,0,0,0
			c0,0,0,0,0.1,0c0,0,0,0,0,0c0,0,0,0,0,0c0.2,0.1,0.5,0.1,0.7,0.1c0.6,0,1.3-0.3,1.7-0.8c0,0,0,0,0,0c0,0,0,0,0,0
			c0.1-0.1,0.2-0.2,0.2-0.3c0,0,0,0,0,0c2-3.3,5.3-5.6,9.1-6.5c0.2,0,0.4-0.1,0.6-0.2c0,0,0,0,0,0c0,0,0,0,0,0
			c0.2-0.1,0.3-0.2,0.5-0.3c0,0,0,0,0,0c0.1-0.1,0.3-0.3,0.4-0.4c0,0,0,0,0,0c0,0,0,0,0,0c0.2-0.3,0.3-0.6,0.3-1c0,0,0,0,0,0
			c0,0,0,0,0,0C75.1,150.3,75.1,150.1,75.1,149.9z M63.7,158.7C63.7,158.7,63.7,158.7,63.7,158.7C63.7,158.7,63.7,158.7,63.7,158.7
			c0,0.1-0.1,0.2-0.2,0.2c0,0,0,0,0,0c-0.5,0.5-1.2,0.7-1.9,0.4c-0.1,0-0.2-0.1-0.2-0.1c0,0,0,0,0,0c-0.2-0.1-0.3-0.3-0.5-0.4
			c0,0,0,0,0,0c-0.5-0.6-0.5-1.1-0.1-1.8c0,0,0,0,0,0c2.6-4.2,6.8-7.2,11.6-8.3c0,0,0,0,0,0c0.3-0.1,0.6-0.1,1,0.1
			c0.6,0.2,0.9,0.5,1,1.2c0,0.2,0.1,0.3,0,0.5c0,0.3-0.1,0.5-0.3,0.8c0,0,0,0,0,0c0,0,0,0,0,0c-0.1,0.1-0.2,0.2-0.3,0.3c0,0,0,0,0,0
			c-0.1,0.1-0.2,0.2-0.3,0.2c0,0,0,0,0,0c-0.1,0.1-0.3,0.1-0.4,0.2C69.3,152.9,65.8,155.3,63.7,158.7z"/>
		<path class="st0" d="M46.2,200.7c0.4,0.4,0.9,0.6,1.4,0.6c0.2,0,0.4,0,0.7-0.1c0,0,0,0,0,0c0.8-0.2,1.3-0.7,1.6-1.5
			c0.2-0.7,0.1-1.5-0.4-2.1c0,0,0,0,0,0c-0.1-0.1-0.2-0.2-0.2-0.2c0,0,0,0,0,0c-4.6-3.9-8-8.3-10.6-13.7c-3.2-6.8-4.5-14.4-3.6-21.9
			c0.2-1.6,0.5-3.1,0.8-4.6c0,0,0,0,0,0c0-0.1,0-0.2,0-0.3c0,0,0,0,0,0s0,0,0,0v0v0c0.1-0.8-0.2-1.5-0.9-2c-0.6-0.5-1.5-0.6-2.2-0.3
			c-0.6,0.2-1,0.6-1.2,1.1c0,0,0,0,0,0c-0.1,0.1-0.1,0.3-0.1,0.4c0,0,0,0,0,0c0,0,0,0,0,0c-0.2,1-0.4,1.9-0.6,2.9c0,0,0,0,0,0
			C28.3,174.5,34.2,190.4,46.2,200.7z M31.4,159.1C31.4,159.1,31.4,159.1,31.4,159.1c0.2-1,0.4-1.9,0.6-2.9c0,0,0,0,0,0
			c0-0.1,0.1-0.2,0.1-0.3c0,0,0,0,0,0c0.2-0.4,0.4-0.7,0.9-0.8c0.6-0.2,1.2-0.1,1.6,0.2c0.5,0.3,0.7,0.9,0.6,1.4c0,0,0,0,0,0
			c0,0,0,0,0,0c0,0.1,0,0.1,0,0.2c0,0,0,0,0,0c0,0,0,0,0,0c-0.4,1.6-0.6,3.1-0.8,4.7c-0.9,7.6,0.4,15.3,3.7,22.2
			c2.6,5.5,6,9.9,10.7,13.9c0,0,0,0,0,0c0,0,0,0,0,0c0.1,0.1,0.1,0.1,0.2,0.2c0,0,0,0,0,0c0.4,0.4,0.5,1,0.3,1.5
			c-0.2,0.5-0.6,1-1.2,1.1c0,0,0,0,0,0c-0.6,0.2-1,0.1-1.5-0.3C34.7,190.1,28.9,174.4,31.4,159.1z"/>
		<path class="st0" d="M49,160.8C49,160.8,49,160.8,49,160.8c0-0.7-0.3-1.4-0.9-1.8c-0.6-0.4-1.4-0.6-2.1-0.3c0,0,0,0,0,0
			c0,0,0,0,0,0c-0.2,0.1-0.4,0.2-0.5,0.3c-0.2,0.1-0.3,0.2-0.4,0.4c0,0,0,0,0,0c0,0,0,0,0,0c-0.3,0.3-0.4,0.6-0.5,1c0,0,0,0,0,0
			c0,0,0,0,0,0c-2.1,10.8,1.5,21.8,9.7,29.3c0,0,0,0,0,0c0,0,0,0,0,0c0.5,0.4,0.9,0.6,1.4,0.6c0.3,0,0.6-0.1,0.9-0.2c0,0,0,0,0,0
			c0.7-0.3,1.3-0.9,1.4-1.6c0.2-0.8-0.1-1.5-0.7-2c0,0,0,0,0,0c-5.3-4.9-8.4-11.4-8.9-18.5c-0.1-1.4-0.1-2.9,0.1-4.3
			c0.1-0.8,0.2-1.7,0.4-2.5c0,0,0,0,0,0c0,0,0,0,0,0C49,161.1,49,160.9,49,160.8z M57,186.9C57,186.9,57,186.9,57,186.9
			c0.4,0.4,0.6,0.9,0.5,1.5c-0.1,0.6-0.5,1-1.1,1.2c0,0,0,0,0,0c-0.7,0.2-1.2,0.2-1.7-0.3c0,0,0,0,0,0c0,0,0,0,0,0
			c-8.1-7.4-11.6-18.2-9.6-28.8c0.1-0.3,0.2-0.5,0.4-0.8c0,0,0,0,0,0c0.1-0.1,0.2-0.2,0.3-0.3c0,0,0,0,0,0c0.1-0.1,0.3-0.1,0.4-0.2
			c0,0,0,0,0,0c0.5-0.2,1.1-0.1,1.6,0.2c0.4,0.3,0.7,0.8,0.7,1.3c0,0.1,0,0.2,0,0.3c0,0,0,0,0,0c-0.2,0.8-0.3,1.7-0.4,2.6
			c-0.1,1.5-0.2,2.9-0.1,4.4C48.3,175.3,51.6,182,57,186.9z"/>
		<path class="st0" d="M55.6,162.8c0-0.3-0.1-0.6-0.2-0.8c0,0,0,0,0,0c0,0,0,0,0,0c0-0.1-0.1-0.2-0.1-0.2c0,0,0,0-0.1,0
			c0,0,0-0.1,0-0.1c-0.7-1-2.1-1.2-3.2-0.5c-0.5,0.4-0.8,0.8-0.9,1.4c-1.2,7.9,1.5,16,7.2,21.7c0,0,0,0,0,0c0,0,0,0,0,0
			c0.5,0.4,0.9,0.6,1.4,0.6c0.2,0,0.4,0,0.7-0.1c0,0,0,0,0.1,0c0.7-0.2,1.3-0.7,1.5-1.4c0.2-0.7,0.1-1.4-0.3-2c0,0,0,0,0,0
			c0,0,0,0,0-0.1c-0.1-0.1-0.1-0.1-0.2-0.2c0,0,0,0,0,0c0,0,0,0,0,0c-3.1-3.1-4.9-6.4-5.8-10.6c0,0,0,0,0,0
			c-0.3-1.6-0.5-3.2-0.4-4.9c0-0.8,0.1-1.6,0.2-2.4c0,0,0,0,0,0c0,0,0,0,0,0C55.6,163,55.6,162.9,55.6,162.8
			C55.6,162.8,55.6,162.8,55.6,162.8L55.6,162.8C55.6,162.8,55.6,162.8,55.6,162.8C55.6,162.8,55.6,162.8,55.6,162.8z M61.1,181.5
			C61.1,181.5,61.1,181.5,61.1,181.5c0.1,0.1,0.1,0.1,0.1,0.2c0,0,0,0,0,0c0,0,0,0,0,0c0.3,0.4,0.4,1,0.2,1.4
			c-0.2,0.5-0.6,0.9-1.1,1c0,0,0,0,0,0c-0.7,0.2-1.1,0.1-1.6-0.4c0,0,0,0,0,0c0,0,0,0,0,0c-5.6-5.5-8.2-13.4-7-21.2
			c0.1-0.5,0.3-0.8,0.7-1.1c0.7-0.5,1.8-0.4,2.3,0.4c0,0,0,0,0.1,0c0,0,0,0,0,0.1c0,0.1,0.1,0.1,0.1,0.2c0.1,0.2,0.1,0.4,0.2,0.6
			c0,0,0,0,0,0c0,0,0,0,0,0c0,0.1,0,0.2,0,0.3c0,0,0,0,0,0c-0.1,0.8-0.2,1.6-0.2,2.4c-0.1,1.7,0.1,3.3,0.4,5c0,0,0,0,0,0
			C56,174.9,57.9,178.3,61.1,181.5z"/>
		<path class="st0" d="M60.9,194.4C60.9,194.4,60.9,194.4,60.9,194.4c4.9,2.6,10.3,4,15.8,4c4.1,0,8.2-0.8,12.2-2.3
			c1.2-0.5,2.5-1,3.6-1.7c0,0,0,0,0,0c0.6-0.3,0.9-0.7,1.1-1.3c0,0,0,0,0,0c0.2-0.8,0-1.6-0.6-2.2c-0.6-0.6-1.5-0.8-2.3-0.5
			c0,0,0,0,0,0c0,0,0,0,0,0c-0.1,0-0.3,0.1-0.4,0.2c-0.8,0.4-1.6,0.8-2.4,1.1c-8,3.4-17.2,2.9-24.8-1.1c-0.8-0.4-1.7-0.4-2.4,0.1
			c-0.7,0.5-1,1.3-0.9,2.1C59.9,193.6,60.2,194.1,60.9,194.4z M61,191.2c0.5-0.4,1.2-0.4,1.8-0.1c4.3,2.3,9.1,3.5,13.9,3.5
			c3.9,0,7.8-0.8,11.4-2.3c0.8-0.4,1.7-0.7,2.4-1.2c0.1,0,0.2-0.1,0.3-0.1c0.6-0.2,1.2,0,1.7,0.4c0.4,0.4,0.6,1,0.4,1.6c0,0,0,0,0,0
			c-0.1,0.5-0.4,0.7-0.8,1c-1.2,0.6-2.3,1.2-3.6,1.6c-9,3.5-19,2.9-27.4-1.6c0,0,0,0,0,0c-0.5-0.3-0.8-0.6-0.8-1.2
			C60.2,192.1,60.5,191.5,61,191.2z"/>
		<path class="st0" d="M115.4,158.2C115.4,158.2,115.4,158.2,115.4,158.2c-0.2-0.8-0.6-1.3-1.4-1.6c0,0,0,0,0,0l0,0
			c-0.7-0.3-1.6-0.2-2.2,0.3c-0.6,0.5-0.9,1.2-0.9,1.9c0,0,0,0,0,0c0,0,0,0,0,0c0,0.1,0,0.2,0,0.3c0,0,0,0,0,0
			c2.6,12-1.5,24.6-10.9,32.8c-0.6,0.5-0.8,1.2-0.7,2c0.1,0.7,0.6,1.4,1.3,1.7c0,0,0,0,0,0c0.4,0.2,0.7,0.3,1.1,0.3
			c0.5,0,0.9-0.2,1.4-0.6C113.6,186,118.3,171.8,115.4,158.2z M100.9,195L100.9,195C100.9,195,100.9,195,100.9,195
			c-0.5-0.2-0.9-0.7-0.9-1.2c-0.1-0.5,0.1-1.1,0.5-1.4c9.5-8.3,13.8-21.1,11.1-33.3c0,0,0,0,0,0c0,0,0,0,0,0c0-0.1,0-0.1,0-0.2
			c0-0.6,0.2-1.1,0.6-1.4c0.5-0.4,1.1-0.4,1.6-0.2c0,0,0,0,0,0c0.6,0.2,0.9,0.5,1,1.2c0,0,0,0,0,0c0,0,0,0,0,0
			c2.9,13.4-1.7,27.3-12.1,36.4C102.1,195.3,101.6,195.4,100.9,195z"/>
		<path class="st0" d="M79.9,125.4C79.9,125.4,79.9,125.4,79.9,125.4c0.1,0,0.2,0,0.3,0.1c0,0,0,0,0,0c15.5,1.3,28.9,10.8,35,24.9
			c0,0,0,0,0,0c0.1,0.1,0.1,0.3,0.2,0.4c0,0,0,0,0,0c0,0,0,0,0,0c0.1,0.1,0.2,0.2,0.3,0.3c0,0,0,0,0,0c0,0,0,0,0,0
			c0.4,0.4,1,0.6,1.6,0.6c0.1,0,0.2,0,0.3,0c0.7-0.1,1.3-0.5,1.6-1c0,0,0,0,0,0c0.4-0.7,0.5-1.3,0.2-2c0,0,0,0,0,0
			c-6.7-15.5-21.6-26.1-38.8-27.5c0,0,0,0,0,0c0,0,0,0,0,0l0,0l0,0c-0.8-0.1-1.4,0.2-1.9,0.8c-0.5,0.6-0.6,1.4-0.4,2.1
			C78.6,124.7,79.2,125.3,79.9,125.4z M118.9,148.9C118.9,148.9,118.9,148.9,118.9,148.9c0.2,0.6,0.2,1-0.1,1.5c0,0,0,0,0,0
			c-0.3,0.4-0.7,0.7-1.2,0.8c-0.5,0.1-1-0.1-1.4-0.5c0,0,0,0,0,0c0,0,0,0,0,0c-0.1-0.1-0.1-0.1-0.2-0.2c0,0,0,0,0,0
			c-0.1-0.1-0.1-0.2-0.2-0.3c0,0,0,0,0,0c-6.2-14.2-19.8-23.9-35.5-25.2c0,0,0,0,0,0c-0.1,0-0.2,0-0.3,0c0,0,0,0,0,0
			c-0.6-0.1-1-0.5-1.2-1.1c-0.2-0.5-0.1-1.1,0.3-1.5c0.4-0.5,0.8-0.6,1.4-0.6c0,0,0,0,0,0c0,0,0,0,0,0
			C97.6,123.1,112.3,133.5,118.9,148.9z"/>
		<path class="st0" d="M34.1,150.7c0.4,0.6,1.1,1,1.9,1c0,0,0,0,0,0c0.8,0,1.5-0.4,1.9-1c0,0,0,0,0,0c0.1-0.1,0.1-0.2,0.2-0.3
			c0,0,0,0,0,0c0,0,0,0,0,0c5.3-12.2,16.3-21.2,29.6-24.1c1.8-0.4,3.6-0.7,5.4-0.8c0,0,0,0,0,0c0.1,0,0.2,0,0.3,0c0,0,0,0,0,0
			c0,0,0,0,0,0c0.8-0.2,1.4-0.7,1.6-1.5c0.2-0.7,0.1-1.5-0.4-2.1c0,0,0,0,0,0c-0.5-0.6-1.1-0.9-1.9-0.8
			c-16.2,1.4-30.2,10.7-37.5,24.9c-0.5,0.9-0.9,1.8-1.3,2.7c0,0,0,0,0,0c-0.1,0.1-0.1,0.3-0.1,0.4c0,0,0,0,0,0
			C33.6,149.7,33.7,150.2,34.1,150.7C34.1,150.7,34.1,150.7,34.1,150.7z M72.7,121.7c0.6-0.1,1,0.1,1.4,0.6c0,0,0,0,0,0
			c0.4,0.4,0.5,1,0.3,1.5c-0.2,0.5-0.6,0.9-1.2,1.1c0,0,0,0,0,0c-0.1,0-0.1,0-0.2,0c0,0,0,0,0,0c-1.8,0.2-3.7,0.4-5.5,0.8
			c0,0,0,0,0,0c-13.4,2.9-24.6,12-30,24.4c0,0,0,0,0,0c0,0.1-0.1,0.2-0.1,0.2c0,0,0,0,0,0c0,0,0,0,0,0c-0.3,0.5-0.8,0.8-1.4,0.8
			c0,0,0,0,0,0c-0.6,0-1.1-0.3-1.4-0.8c0,0,0,0,0,0c-0.3-0.4-0.3-0.7-0.2-1.2c0,0,0,0,0,0c0,0,0,0,0,0c0-0.1,0.1-0.2,0.1-0.3
			c0,0,0,0,0,0c0,0,0,0,0,0c0.4-0.9,0.8-1.8,1.2-2.6C42.9,132.2,56.7,123,72.7,121.7z"/>
		<path class="st0" d="M117.5,156.8C117.5,156.8,117.5,156.8,117.5,156.8C117.5,156.8,117.5,156.8,117.5,156.8
			C117.5,156.8,117.5,156.8,117.5,156.8C117.5,156.8,117.5,156.8,117.5,156.8c0,0.1,0,0.2,0.1,0.3c0,0,0,0,0,0c0,0,0,0,0,0
			c2.4,10.1,0.8,20.7-4.5,29.7c-2.4,4-5.3,7.5-8.9,10.5c0,0,0,0,0,0c-0.1,0.1-0.2,0.2-0.3,0.3c0,0,0,0,0,0c-0.1,0.1-0.2,0.2-0.2,0.3
			c0,0,0,0,0,0c0,0,0,0,0,0c-0.3,0.6-0.3,1.3,0,1.9c0.3,0.6,0.8,1.1,1.5,1.2c0.2,0.1,0.4,0.1,0.6,0.1c0.5,0,0.9-0.2,1.4-0.6
			c0,0,0,0,0,0c1.5-1.3,3-2.7,4.3-4.2c0,0,0,0,0,0c10-11,13.9-26.1,10.5-40.4c-0.2-0.8-0.6-1.3-1.4-1.6c0,0,0,0,0,0
			c-0.7-0.3-1.5-0.2-2.2,0.3C117.7,155.3,117.4,156,117.5,156.8z M118.7,155.3c0.5-0.3,1.1-0.4,1.6-0.2c0,0,0,0,0,0
			c0.6,0.2,0.9,0.5,1,1.1c3.3,14.1-0.5,29-10.3,39.9c0,0,0,0,0,0c-1.3,1.5-2.8,2.9-4.3,4.1c0,0,0,0,0,0c-0.5,0.4-0.9,0.5-1.5,0.4
			c-0.5-0.1-0.9-0.5-1.1-0.9c-0.2-0.4-0.2-1,0-1.4c0,0,0,0,0,0c0,0,0,0,0,0c0-0.1,0.1-0.2,0.2-0.3c0,0,0,0,0,0l0,0
			c0.1-0.1,0.1-0.2,0.2-0.2c0,0,0,0,0,0c3.6-3.1,6.6-6.6,9-10.7c5.4-9.2,7-19.9,4.6-30.1c0,0,0,0,0,0c0-0.1,0-0.2,0-0.2c0,0,0,0,0,0
			c0,0,0,0,0,0C118,156.2,118.2,155.6,118.7,155.3z"/>
		<path class="st0" d="M51.6,203.6c0.1,0.8,0.4,1.3,1.1,1.7c7.4,4.3,15.7,6.5,23.9,6.5c8.3,0,16.6-2.2,24-6.5c0,0,0,0,0,0
			c0.7-0.4,1-0.9,1.1-1.8c0-0.7-0.3-1.5-0.9-1.9c-0.6-0.5-1.4-0.6-2.2-0.3c0,0,0,0,0,0c-0.1,0-0.2,0.1-0.3,0.2c0,0,0,0,0,0
			c0,0,0,0,0,0c-5.1,3-10.2,4.8-15.9,5.5c0,0,0,0,0,0l-0.3,0c0,0,0,0,0,0c-0.8,0.1-1.7,0.2-2.6,0.2c-8.6,0.6-17.1-1.4-24.5-5.8
			c0,0,0,0,0,0c-0.1-0.1-0.3-0.1-0.4-0.2c0,0,0,0,0,0c-0.1,0-0.3-0.1-0.4-0.1c0,0,0,0,0,0c0,0,0,0,0,0c-0.7-0.1-1.4,0.1-1.9,0.6
			C51.8,202.3,51.6,202.9,51.6,203.6L51.6,203.6L51.6,203.6C51.6,203.6,51.6,203.6,51.6,203.6C51.6,203.6,51.6,203.6,51.6,203.6z
			 M52.7,202.2c0.4-0.4,0.9-0.5,1.4-0.4c0,0,0,0,0,0c0,0,0,0,0,0c0.1,0,0.2,0,0.3,0.1c0,0,0,0,0,0c0.1,0,0.2,0.1,0.3,0.1
			c0,0,0,0,0,0c6.7,3.9,14.2,6,21.9,6c1,0,2,0,3-0.1c0,0,0,0,0,0c0,0,0,0,0,0c7-0.5,13-2.3,19-5.9c0,0,0,0,0,0
			c0.1,0,0.1-0.1,0.2-0.1c0,0,0,0,0,0c0,0,0,0,0,0c0.5-0.2,1.2-0.1,1.6,0.2c0.5,0.3,0.7,0.8,0.7,1.4c0,0.6-0.2,1-0.8,1.3
			c0,0,0,0,0,0c-14.6,8.6-32.7,8.6-47.3,0c0,0,0,0,0,0c-0.5-0.3-0.7-0.7-0.8-1.3c0,0,0,0,0,0c0,0,0,0,0,0
			C52.2,203,52.4,202.6,52.7,202.2z"/>
		<path class="st0" d="M56.5,196.2c-0.7,0.6-1,1.4-0.8,2.3c0,0,0,0,0,0c0.2,0.6,0.5,1,1,1.3c2.9,1.6,5.9,2.9,9,3.7c0,0,0,0,0,0
			l0.4,0.1c0,0,0,0,0.1,0c1.3,0.3,2.5,0.6,3.9,0.8c0,0,0,0,0,0c2.2,0.4,4.4,0.5,6.6,0.5c5.8,0,11.6-1.3,16.9-3.8c0,0,0,0,0,0
			c1-0.5,2-1,2.9-1.5c0,0,0,0,0,0c0.7-0.4,1.1-0.9,1.1-1.8c0-0.8-0.3-1.5-0.9-1.9c-0.6-0.5-1.5-0.6-2.2-0.3c0,0,0,0,0,0c0,0,0,0,0,0
			c-0.1,0-0.2,0.1-0.3,0.1c0,0,0,0,0,0c0,0,0,0,0,0c-1.5,0.8-3,1.6-4.6,2.2c-3.1,1.2-6.1,1.9-9.4,2.3c-7.4,0.8-14.8-0.8-21.2-4.5
			C58.2,195.6,57.3,195.6,56.5,196.2z M80.3,201.1c3.3-0.3,6.5-1.1,9.6-2.3c1.6-0.6,3.1-1.4,4.7-2.2c0,0,0,0,0,0
			c0.1,0,0.1-0.1,0.2-0.1c0,0,0,0,0,0c0.5-0.2,1.2-0.1,1.6,0.2c0.5,0.3,0.7,0.8,0.7,1.4c0,0.6-0.3,1-0.8,1.3c0,0,0,0,0,0
			c-0.9,0.5-1.9,1-2.9,1.5c0,0,0,0,0,0c-7.3,3.4-15.3,4.5-23.2,3.2c0,0,0,0,0,0c-4.7-0.8-9-2.3-13.1-4.6c-0.4-0.2-0.6-0.5-0.8-1l0,0
			c0,0,0,0,0,0c-0.2-0.6,0-1.3,0.6-1.7c0.4-0.3,1.2-0.5,1.9-0.1c5.5,3.1,11.6,4.7,17.8,4.7C77.8,201.3,79.1,201.2,80.3,201.1z"/>
		<path class="st0" d="M86.7,184.9C86.7,184.9,86.7,184.9,86.7,184.9c-0.2,0-0.3,0.1-0.5,0.2c-6,3-13.2,3-19.2,0c0,0,0,0,0,0
			c-0.7-0.3-1.4-0.3-2,0c-0.6,0.3-1.1,0.9-1.2,1.6c0,0,0,0,0,0c-0.2,1,0.3,1.9,1.2,2.3c0,0,0,0,0,0c3.6,1.8,7.6,2.7,11.6,2.7
			c3,0,6-0.5,8.9-1.6c0,0,0,0,0,0c0.9-0.3,1.8-0.7,2.7-1.1c0.4-0.2,0.7-0.5,0.9-0.9c0.2-0.4,0.3-0.8,0.3-1.3c0,0,0,0,0,0l0,0
			c0-0.2-0.1-0.4-0.1-0.5c0,0,0,0,0,0c0,0,0,0,0,0c0-0.1-0.1-0.2-0.1-0.3c0,0,0,0,0,0c0,0,0,0,0-0.1c-0.1-0.1-0.1-0.2-0.2-0.3
			c0,0,0,0,0,0c0,0,0,0,0,0c-0.1-0.1-0.2-0.2-0.3-0.3c0,0,0,0-0.1,0c0,0,0,0,0-0.1c-0.1-0.1-0.2-0.1-0.2-0.2c0,0,0,0,0,0
			c0,0,0,0,0,0c0,0,0,0,0,0c0,0,0,0,0,0C87.9,184.8,87.4,184.7,86.7,184.9C86.7,184.9,86.7,184.9,86.7,184.9z M88.1,185.6
			C88.1,185.6,88.1,185.6,88.1,185.6C88.1,185.6,88.1,185.6,88.1,185.6c0.1,0,0.1,0.1,0.2,0.1c0,0,0,0,0,0c0,0,0,0,0,0
			c0.1,0.1,0.1,0.1,0.2,0.2l0,0c0.1,0.1,0.1,0.1,0.2,0.2c0,0,0,0,0,0c0,0,0,0,0,0c0,0.1,0.1,0.1,0.1,0.2c0,0,0,0,0,0
			c0,0.1,0.1,0.2,0.1,0.4c0,0,0,0,0,0c0,0.3,0,0.6-0.2,0.9c-0.2,0.3-0.4,0.5-0.7,0.6c-0.8,0.4-1.7,0.8-2.6,1.1c0,0,0,0,0,0
			c-6.6,2.4-13.9,2-20.1-1.1c0,0,0,0,0,0c-0.7-0.3-1-1-0.9-1.7c0,0,0,0,0,0c0,0,0,0,0,0c0.1-0.5,0.4-0.9,0.9-1.2
			c0.5-0.2,1-0.2,1.5,0c0,0,0,0,0,0c3.1,1.5,6.5,2.3,9.9,2.3c3.4,0,6.8-0.8,9.9-2.3c0,0,0,0,0,0c0.1-0.1,0.2-0.1,0.3-0.1
			C87.4,185.3,87.7,185.4,88.1,185.6z"/>
		<path class="st0" d="M103.2,175.9c-1.6,4.2-3.9,7.6-7.2,10.6c-0.6,0.6-0.9,1.4-0.6,2.2c0.2,0.8,0.9,1.4,1.8,1.6c0,0,0,0,0,0
			c0,0,0,0,0,0c0.1,0,0.3,0,0.4,0c0.6,0,1-0.2,1.5-0.6c8.2-7.6,11.9-18.5,9.7-29.4c0,0,0,0,0,0c0,0,0,0,0,0c-0.1-0.6-0.4-1-0.9-1.4
			c0,0,0,0,0,0c-0.7-0.5-1.6-0.5-2.3-0.1c-0.7,0.4-1.2,1.1-1.2,1.9c0,0,0,0,0,0c0,0,0,0,0,0c0,0,0,0,0,0c0,0,0,0,0,0
			c0,0.1,0,0.3,0,0.4c0,0,0,0,0,0c0.2,0.9,0.3,1.8,0.4,2.7v0C105.2,168.1,104.7,171.9,103.2,175.9z M105.8,159.3
			c0.6-0.3,1.2-0.3,1.7,0.1c0,0,0,0,0,0c0.4,0.3,0.6,0.6,0.7,1c0,0,0,0,0,0c2.1,10.6-1.5,21.4-9.6,28.8c-0.4,0.4-0.8,0.5-1.4,0.4
			c-0.6-0.1-1.2-0.5-1.3-1.1c-0.2-0.6,0-1.2,0.5-1.6c3.4-3.1,5.7-6.6,7.3-10.9c1.5-4.1,2-7.9,1.6-12.2c0,0,0,0,0,0c0,0,0,0,0,0
			c-0.1-0.9-0.2-1.8-0.4-2.8c0,0,0,0,0,0c0,0,0,0,0,0c0-0.1,0-0.2,0-0.3c0,0,0,0,0,0c0,0,0,0,0,0
			C104.9,160.2,105.2,159.6,105.8,159.3z"/>
		<path class="st0" d="M39.5,156.6C39.5,156.6,39.5,156.6,39.5,156.6C39.5,156.6,39.5,156.6,39.5,156.6c-0.9,0.3-1.3,0.8-1.5,1.6
			c-3,13.6,1.7,27.7,12.3,37c0,0,0,0,0,0c0.5,0.4,0.9,0.6,1.4,0.6c0.2,0,0.4,0,0.7-0.1c0,0,0,0,0,0c0.7-0.2,1.2-0.6,1.5-1.2
			c0.3-0.6,0.3-1.3,0-1.9c-0.1-0.1-0.1-0.2-0.2-0.3c0,0,0,0,0,0c-0.1-0.1-0.2-0.2-0.3-0.3l0,0c0,0,0,0,0,0c0,0,0,0,0,0h0
			c-8.2-7.1-12.5-17.8-11.5-28.4c0,0,0,0,0,0c0.1-1.4,0.3-2.9,0.7-4.3c0,0,0,0,0,0c0-0.1,0-0.2,0-0.3c0,0,0,0,0,0c0,0,0,0,0,0
			c0,0,0,0,0,0c0,0,0,0,0,0c0-0.7-0.3-1.4-0.9-1.9C41,156.5,40.2,156.4,39.5,156.6z M41.2,157.4c0.4,0.3,0.7,0.8,0.6,1.4
			c0,0,0,0,0,0c0,0,0,0,0,0c0,0.1,0,0.2,0,0.2c0,0,0,0,0,0c0,0,0,0,0,0c-0.3,1.4-0.5,2.9-0.7,4.4c0,0,0,0,0,0
			c-0.9,10.9,3.5,21.7,11.7,28.9c0,0,0,0,0,0c0,0,0,0,0,0c0.1,0.1,0.2,0.1,0.2,0.2c0,0,0,0,0,0c0.1,0.1,0.1,0.2,0.2,0.2
			c0.2,0.4,0.2,0.9,0,1.4c-0.2,0.5-0.6,0.8-1.1,0.9c0,0,0,0,0,0c0,0,0,0,0,0c-0.6,0.2-1,0.1-1.5-0.4c0,0,0,0,0,0
			c-10.4-9.1-15-23.1-12.1-36.4c0.1-0.7,0.4-1,1.1-1.2C40.2,157,40.8,157.1,41.2,157.4z"/>
		<path class="st0" d="M91.2,183c0.1,0.7,0.5,1.3,1.2,1.6c0,0,0,0,0,0c0.3,0.2,0.7,0.3,1,0.3c0.6,0,1.2-0.2,1.6-0.7c0,0,0,0,0,0
			c5.7-5.7,8.4-13.8,7.2-21.7c-0.2-1.1-1.1-1.9-2.2-1.9c0,0,0,0,0,0c0,0,0,0,0,0c-0.1,0-0.2,0-0.3,0c0,0,0,0,0,0c0,0,0,0-0.1,0
			c-0.1,0-0.2,0.1-0.4,0.1c-0.1,0-0.2,0.1-0.4,0.2c0,0,0,0,0,0.1c0,0,0,0-0.1,0c-0.1,0.1-0.1,0.1-0.2,0.2c0,0,0,0,0,0c0,0,0,0,0,0
			c-0.5,0.4-0.7,0.9-0.8,1.5c0,0,0,0,0,0c0,0,0,0,0,0c0,0.2,0,0.3,0,0.5c0,0,0,0,0,0c0,0,0,0,0,0c1,6.5-1.2,13.2-5.9,17.9
			C91.3,181.6,91.1,182.3,91.2,183z M98.4,163.1L98.4,163.1c0-0.1,0-0.2,0-0.4c0,0,0,0,0,0c0,0,0,0,0,0c0-0.5,0.2-0.8,0.6-1.1
			c0.1,0,0.1-0.1,0.2-0.1c0,0,0,0,0,0c0,0,0,0,0.1,0c0.1-0.1,0.2-0.1,0.3-0.1c0.1,0,0.2-0.1,0.3-0.1c0,0,0,0,0,0c0,0,0,0,0,0
			c0,0,0,0,0,0c0.1,0,0.2,0,0.2,0c0,0,0,0,0,0c0,0,0,0,0,0c0,0,0,0,0,0c0.8,0,1.5,0.6,1.6,1.4c1.2,7.7-1.4,15.6-7,21.2c0,0,0,0,0,0
			c-0.5,0.5-1.3,0.6-2,0.3c0,0,0,0,0,0c-0.5-0.2-0.8-0.7-0.9-1.2c-0.1-0.5,0.1-1,0.5-1.4C97.1,176.7,99.4,169.8,98.4,163.1z"/>
		<path class="st0" d="M71,179.4c-0.8-0.3-1.6-0.2-2.2,0.3c-0.6,0.5-1,1.2-0.9,2c0,0,0,0,0,0c0,0,0,0,0,0c0.1,0.9,0.5,1.4,1.4,1.8
			c0,0,0,0,0,0c2.4,1,4.9,1.5,7.4,1.5c2.5,0,5.1-0.5,7.4-1.5c0.6-0.2,1-0.6,1.2-1.2c0,0,0,0,0,0c0.2-0.6,0.2-1.1,0-1.7
			c-0.2-0.5-0.5-0.8-1-1.1c0,0,0,0,0,0c-0.1,0-0.2-0.1-0.2-0.1c0,0,0,0,0,0c0,0,0,0,0,0c-0.2-0.1-0.3-0.1-0.5-0.1c0,0,0,0,0,0
			c0,0,0,0,0,0l0,0l0,0c-0.2,0-0.3,0-0.5,0c0,0,0,0,0,0c0,0,0,0,0,0c-0.2,0-0.4,0.1-0.6,0.2c0,0,0,0,0,0
			C78.7,180.9,74.6,180.9,71,179.4C71,179.4,71,179.4,71,179.4z M82.5,180C82.5,180,82.5,180,82.5,180c0.2-0.1,0.3-0.1,0.5-0.1l0,0
			c0.1,0,0.3,0,0.4,0c0,0,0,0,0,0c0,0,0,0,0,0c0.1,0,0.3,0,0.4,0.1c0,0,0,0,0,0c0,0,0,0,0,0c0.1,0,0.1,0.1,0.2,0.1c0,0,0,0,0,0
			c0.4,0.2,0.6,0.4,0.7,0.8c0.2,0.4,0.2,0.8,0,1.2c0,0,0,0,0,0c-0.2,0.4-0.4,0.7-0.9,0.9c-4.6,1.9-9.8,1.9-14.4,0
			c-0.7-0.3-0.9-0.6-1-1.3c-0.1-0.6,0.2-1.1,0.6-1.5c0.5-0.4,1.1-0.4,1.7-0.2c0,0,0,0,0,0c1.9,0.8,3.9,1.2,5.9,1.2
			C78.7,181.1,80.7,180.7,82.5,180z"/>
		<path class="st0" d="M62,164C62,164,62,164,62,164C62,164,62,164,62,164C62,164,62,164,62,164C62,164,62,164,62,164
			c-0.1-0.2-0.2-0.3-0.3-0.5c0,0,0,0,0,0c0,0,0,0,0,0c-0.2-0.3-0.5-0.5-0.9-0.6c0,0,0,0,0,0l0,0c-0.2-0.1-0.4-0.1-0.6-0.1
			c0,0,0,0,0,0c-0.7-0.1-1.1,0.1-1.6,0.5c-0.5,0.4-0.7,0.9-0.8,1.5c-0.4,5,1.2,10,4.6,13.8c0.5,0.5,1,0.8,1.5,0.8
			c0.3,0,0.5-0.1,0.9-0.2c0,0,0,0,0,0c0.3-0.1,0.5-0.2,0.8-0.4c0,0,0,0,0,0c0.1-0.1,0.2-0.2,0.3-0.3c0,0,0,0,0,0c0,0,0,0,0,0
			c0.6-0.7,0.7-1.8,0.2-2.6c-0.1-0.1-0.1-0.2-0.2-0.3c0,0,0,0,0,0c-2.6-2.9-3.8-6.7-3.5-10.5c0-0.2,0-0.4,0-0.6c0,0,0,0,0,0
			c0,0,0,0,0,0C62.2,164.4,62.1,164.2,62,164z M65.3,176C65.3,176,65.3,176,65.3,176c0.1,0.1,0.1,0.1,0.2,0.2
			c0.4,0.6,0.3,1.3-0.1,1.9c-0.1,0.1-0.1,0.1-0.2,0.2c0,0,0,0,0,0c0,0,0,0,0,0c-0.2,0.1-0.4,0.2-0.6,0.3l0,0c0,0,0,0,0,0
			c-0.8,0.3-1.2,0.1-1.8-0.5c-3.2-3.7-4.9-8.5-4.4-13.4c0-0.5,0.2-0.8,0.6-1.1c0,0,0,0,0,0c0.4-0.3,0.7-0.4,1.2-0.4c0,0,0,0,0,0
			c0.2,0,0.3,0,0.5,0.1c0,0,0,0,0,0c0.3,0.1,0.5,0.3,0.7,0.5c0,0,0,0,0,0c0,0,0,0,0,0c0.1,0.1,0.2,0.2,0.2,0.3c0,0,0,0,0,0
			c0,0,0,0,0,0c0.1,0.1,0.1,0.3,0.1,0.4c0,0.1,0,0.3,0,0.4C61.3,169.1,62.6,173,65.3,176z"/>
		<path class="st0" d="M87.1,177.6c0.1,0.7,0.6,1.3,1.2,1.6c0,0,0,0,0,0c0.3,0.1,0.6,0.2,1,0.2c0.6,0,1.3-0.3,1.7-0.8c0,0,0,0,0,0
			c3.4-3.8,5-8.8,4.6-13.8c-0.1-0.6-0.3-1.1-0.8-1.5c0,0,0,0,0,0c0,0,0,0,0,0c-0.2-0.2-0.5-0.3-0.8-0.4c-0.3-0.1-0.6-0.1-0.9-0.1
			c0,0,0,0,0,0c0,0,0,0,0,0c-0.4,0-0.8,0.2-1.1,0.4c-0.1,0.1-0.2,0.1-0.2,0.2c0,0,0,0,0,0c0,0,0,0,0,0c0,0,0,0,0,0v0
			c-0.1,0.1-0.1,0.1-0.2,0.2c0,0,0,0,0,0c0,0,0,0,0,0c-0.1,0.1-0.2,0.3-0.3,0.4c0,0,0,0,0,0c-0.1,0.2-0.1,0.3-0.2,0.5c0,0,0,0,0,0
			c0,0,0,0,0,0c0,0.2-0.1,0.4,0,0.6c0.3,3.8-0.9,7.6-3.5,10.5C87.2,176.2,87,176.9,87.1,177.6z M91.7,165.1c0-0.2,0-0.3,0-0.5
			c0,0,0,0,0,0c0,0,0,0,0,0c0-0.1,0.1-0.2,0.1-0.3c0,0,0,0,0,0c0,0,0,0,0,0c0.1-0.1,0.1-0.2,0.2-0.3c0,0,0,0,0,0c0,0,0,0,0,0
			c0-0.1,0.1-0.1,0.1-0.1c0,0,0,0,0,0c0,0,0,0,0,0c0.1-0.1,0.1-0.1,0.2-0.1c0.3-0.2,0.5-0.3,0.8-0.3c0.2,0,0.4,0,0.7,0.1
			c0.2,0.1,0.4,0.2,0.6,0.3c0.4,0.3,0.5,0.6,0.6,1.1c0.4,4.8-1.2,9.7-4.4,13.4c-0.5,0.6-1.3,0.7-2,0.4c0,0,0,0,0,0
			c-0.5-0.2-0.8-0.6-0.9-1.1c-0.1-0.5,0-1,0.4-1.4C90.7,173,92.1,169.1,91.7,165.1z"/>
		<path class="st0" d="M79.6,152.4C79.6,152.4,79.6,152.4,79.6,152.4c0.1,0.1,0.2,0.1,0.4,0.1c3.8,0.9,7.1,3.2,9.1,6.5
			c0.4,0.6,1,1,1.7,1.1c0.1,0,0.2,0,0.3,0c0.6,0,1.2-0.2,1.6-0.7c0,0,0,0,0,0c0.7-0.7,0.8-1.8,0.3-2.7c0,0,0,0,0,0
			c-2.6-4.3-7-7.4-12-8.5c0,0,0,0,0,0c0,0,0,0,0,0c-1-0.2-1.7,0-2.3,0.9c0,0,0,0,0,0c-0.2,0.2-0.3,0.5-0.4,0.8c0,0,0,0,0,0
			c0,0,0,0,0,0c0,0.1,0,0.2-0.1,0.4c0,0,0,0,0,0c0,0,0,0,0,0C78.1,151.2,78.7,152.1,79.6,152.4z M80.8,148.8
			C80.8,148.8,80.8,148.8,80.8,148.8c4.8,1.1,9.1,4.1,11.6,8.3c0,0,0,0,0,0c0.4,0.6,0.3,1.4-0.2,2c0,0,0,0,0,0
			c-0.4,0.4-0.9,0.6-1.4,0.5c-0.5-0.1-1-0.3-1.2-0.8c-2.1-3.4-5.6-5.9-9.5-6.8c-0.1,0-0.2,0-0.3-0.1c0,0,0,0,0,0
			c-0.7-0.3-1.1-0.9-1-1.6c0-0.1,0-0.2,0-0.3c0.1-0.2,0.1-0.4,0.3-0.6c0,0,0,0,0,0c0,0,0,0,0,0C79.6,148.8,80,148.6,80.8,148.8z"/>
		<path class="st0" d="M73.8,141.6C73.8,141.6,73.8,141.6,73.8,141.6c-0.4-0.2-0.8-0.2-1.3-0.2c0,0,0,0,0,0c0,0,0,0,0,0
			c-8.1,1.3-15.1,6.3-18.8,13.4c-0.4,0.8-0.4,1.5,0.1,2.3c0,0,0,0,0,0c0.4,0.6,1.1,1,1.9,1c0,0,0,0,0,0c0.7,0,1.4-0.4,1.9-1
			c0,0,0,0,0,0c0.1-0.1,0.1-0.2,0.1-0.2c0,0,0,0,0,0c3.1-5.9,8.9-10,15.5-11.1c0,0,0,0,0,0c0.1,0,0.3-0.1,0.4-0.1c0,0,0,0,0,0
			c0.3-0.1,0.5-0.2,0.7-0.4c0,0,0,0,0,0c0,0,0,0,0,0c0.1-0.1,0.1-0.1,0.2-0.2c0,0,0-0.1,0-0.1c0,0,0.1,0,0.1,0
			c0.4-0.5,0.5-1.2,0.4-1.9C74.9,142.4,74.4,141.8,73.8,141.6z M57.2,156.5L57.2,156.5C57.2,156.5,57.2,156.5,57.2,156.5
			c0,0.1-0.1,0.1-0.1,0.2c0,0,0,0,0,0c0,0,0,0,0,0c-0.3,0.4-0.8,0.7-1.4,0.7c-0.6,0-1.1-0.3-1.4-0.7c0,0,0,0,0,0
			c-0.4-0.6-0.4-1-0.1-1.7c0,0,0,0,0,0c3.7-6.9,10.5-11.8,18.4-13.1c0,0,0,0,0,0c0,0,0,0,0,0c0.3-0.1,0.6,0,1,0.1c0,0,0,0,0,0
			c0.5,0.2,0.8,0.6,0.9,1.1c0.1,0.5,0,1-0.3,1.4c0,0,0,0,0,0.1c0,0,0,0-0.1,0c0,0.1-0.1,0.1-0.1,0.1c-0.2,0.1-0.3,0.3-0.5,0.3
			c0,0,0,0,0,0c-0.1,0-0.2,0.1-0.3,0.1c0,0,0,0,0,0C66.3,146.3,60.3,150.5,57.2,156.5z"/>
		<path class="st0" d="M74.7,135.5c-0.1-0.2-0.3-0.3-0.4-0.4c0,0,0,0,0,0c-0.2-0.1-0.3-0.2-0.5-0.3c0,0,0,0,0,0
			c-0.4-0.2-0.7-0.2-1.1-0.2c0,0,0,0,0,0c-11.2,1.4-20.7,8.2-25.5,18.1v0c0,0,0,0,0,0c-0.5,0.9-0.3,1.7,0.4,2.4c0,0,0,0,0,0
			c0.4,0.5,1,0.7,1.7,0.7c0.1,0,0.2,0,0.3,0c0.7-0.1,1.4-0.6,1.7-1.2c0,0,0,0,0,0c4.1-8.6,12.4-14.5,22-15.7c0,0,0,0,0,0
			c0.1,0,0.2,0,0.4-0.1c0.7-0.2,1.3-0.7,1.5-1.4C75.2,136.8,75.1,136,74.7,135.5C74.7,135.5,74.7,135.5,74.7,135.5z M74.5,137.3
			c-0.2,0.5-0.6,0.9-1.1,1.1c-0.1,0-0.2,0-0.3,0.1c0,0,0,0,0,0c-9.8,1.2-18.2,7.2-22.5,16c0,0,0,0,0,0c-0.2,0.5-0.7,0.8-1.3,0.9
			c-0.6,0.1-1.1-0.1-1.5-0.5c0,0,0,0,0,0c-0.6-0.6-0.6-1-0.3-1.8c0,0,0,0,0,0c4.7-9.8,14.1-16.5,25.1-17.8c0,0,0,0,0,0
			c0.3,0,0.6,0,0.9,0.1c0,0,0,0,0,0c0.1,0.1,0.3,0.1,0.4,0.2c0,0,0,0,0,0c0,0,0,0,0,0c0.1,0.1,0.2,0.2,0.3,0.3c0,0,0,0,0,0
			c0,0,0,0,0,0C74.5,136.2,74.6,136.8,74.5,137.3z"/>
		<path class="st0" d="M79.8,145.7C79.8,145.7,79.8,145.7,79.8,145.7C79.8,145.7,79.8,145.7,79.8,145.7
			C79.8,145.7,79.8,145.7,79.8,145.7C79.8,145.7,79.8,145.7,79.8,145.7c0.1,0,0.2,0,0.3,0.1c0,0,0,0,0,0c6.7,1.1,12.5,5.2,15.6,11.1
			c0,0,0,0,0,0c0.3,0.6,0.9,1,1.6,1.2c0.1,0,0.3,0,0.4,0c0.6,0,1.1-0.2,1.6-0.6c0,0,0,0,0,0c0,0,0,0,0,0c0,0,0,0,0,0c0,0,0,0,0,0
			c0.7-0.7,0.9-1.7,0.4-2.6c0,0,0,0,0,0s0,0,0,0c-3.7-7.1-10.8-12.1-18.8-13.4c0,0,0,0,0,0c0,0,0,0,0,0c-0.9-0.2-1.6,0.1-2.1,0.8
			c0,0,0,0,0,0c0,0,0,0,0,0c-0.5,0.6-0.6,1.3-0.4,2C78.5,144.9,79.1,145.5,79.8,145.7z M80.7,142L80.7,142
			c7.9,1.3,14.8,6.1,18.4,13.1c0,0,0,0,0,0c0.3,0.6,0.2,1.4-0.3,1.9c0,0,0,0,0,0c0,0,0,0,0,0c-0.4,0.4-0.9,0.5-1.4,0.4
			c-0.5-0.1-1-0.4-1.2-0.9c0,0,0,0,0,0c-3.2-6-9.1-10.3-16-11.4c0,0,0,0,0,0c-0.1,0-0.1,0-0.2,0c0,0,0,0,0,0c0,0,0,0,0,0
			c-0.5-0.2-0.9-0.5-1.1-1.1c-0.2-0.5-0.1-1,0.3-1.5c0,0,0,0,0,0c0,0,0,0,0,0C79.6,142,80,141.8,80.7,142z"/>
		<path class="st0" d="M66.9,133.4C66.9,133.4,66.9,133.4,66.9,133.4c2-0.6,4.1-1,6.2-1.2c0,0,0,0,0,0c0.1,0,0.2,0,0.3-0.1
			c0,0,0,0,0,0c0.7-0.2,1.3-0.7,1.6-1.4c0.2-0.7,0.1-1.4-0.3-2c0,0,0,0,0,0c0,0,0,0,0,0c-0.5-0.7-1.1-1-2-0.9
			c-3.9,0.4-7.5,1.3-11.1,2.7c0,0,0,0,0,0c-9.5,3.8-16.9,11-21.1,20.1c-0.3,0.8-0.3,1.4,0.2,2.1c0,0,0,0,0,0c0.4,0.6,1,0.9,1.6,1
			c0.1,0,0.2,0,0.3,0c0.6,0,1.1-0.2,1.5-0.6c0,0,0,0,0,0c0,0,0,0,0,0c0.1-0.1,0.2-0.2,0.3-0.3c0,0,0,0,0,0c0,0,0,0,0,0
			c0.1-0.1,0.2-0.2,0.2-0.4c0,0,0,0,0,0C48.8,143.2,56.9,136.2,66.9,133.4z M44.1,152.3C44.1,152.3,44.1,152.3,44.1,152.3
			c0,0.1-0.1,0.2-0.2,0.3c-0.1,0.1-0.1,0.2-0.2,0.2c0,0,0,0,0,0c0,0,0,0,0,0c-0.4,0.3-0.9,0.5-1.4,0.4c-0.5-0.1-0.9-0.3-1.2-0.7
			c0,0,0,0,0,0c0,0,0,0,0,0c-0.3-0.5-0.4-0.9-0.1-1.5c4.1-9,11.4-16.1,20.8-19.8c0,0,0,0,0,0c3.5-1.4,7.1-2.3,10.9-2.7
			c0.7-0.1,1.1,0.1,1.5,0.7c0.3,0.4,0.4,1,0.2,1.5c-0.2,0.5-0.6,0.9-1.2,1c-0.1,0-0.2,0-0.3,0c0,0,0,0,0,0c-2.1,0.2-4.2,0.6-6.3,1.2
			l0,0c0,0,0,0,0,0C56.6,135.7,48.3,142.8,44.1,152.3z"/>
		<path class="st0" d="M80.2,139c7,0.9,13.4,4.3,18,9.6c0,0,0,0,0,0c1.6,1.9,2.9,3.9,4,6.1c0,0,0,0,0,0c0.4,0.8,1.1,1.3,2,1.3
			c0,0,0,0,0,0c0.8,0,1.6-0.5,2-1.2c0.4-0.7,0.4-1.3,0-1.9c0,0,0,0,0,0c-4.8-10-14.3-16.8-25.5-18.1c-1.1-0.1-1.7,0.2-2.2,1.1
			c0,0,0,0,0,0c-0.4,0.6-0.4,1.4-0.1,2.1C78.8,138.4,79.4,138.9,80.2,139z M80.7,135.2c11,1.3,20.4,8,25.1,17.8c0,0,0,0,0,0
			c0.3,0.5,0.2,0.9,0,1.4c-0.3,0.6-0.8,0.9-1.5,0.9c0,0,0,0,0,0c-0.7,0-1.2-0.4-1.5-0.9c0,0,0,0,0,0c-1.1-2.3-2.4-4.3-4.1-6.2
			c0,0,0,0,0,0c-4.7-5.4-11.2-8.9-18.4-9.8c-0.6-0.1-1-0.4-1.3-0.9c-0.2-0.5-0.2-1,0.1-1.5c0,0,0,0,0,0c0,0,0,0,0,0
			C79.4,135.3,79.8,135.1,80.7,135.2z"/>
		<path class="st0" d="M79.4,132C79.4,132,79.4,132,79.4,132C79.4,132,79.4,132,79.4,132c0.1,0.1,0.3,0.1,0.4,0.2c0,0,0,0,0,0
			c0,0,0,0,0,0c0.1,0,0.3,0.1,0.4,0.1c0,0,0,0,0,0c5.4,0.5,10,2.1,14.7,4.8c6.1,3.7,10.9,9,13.8,15.4c0,0,0,0,0,0
			c0.3,0.7,0.9,1.1,1.7,1.3c0.1,0,0.3,0,0.4,0c0.6,0,1.2-0.2,1.6-0.7c0.7-0.8,0.9-1.5,0.4-2.4c0,0,0,0,0,0
			c-5.7-12.7-18.1-21.4-32.2-22.9c0,0,0,0,0,0c-0.8-0.1-1.4,0.1-2,0.8c0,0,0,0,0,0c-0.4,0.5-0.6,1.2-0.5,1.8
			C78.4,131.1,78.8,131.7,79.4,132z M80.6,128.4C80.6,128.4,80.6,128.4,80.6,128.4c13.9,1.4,26,10,31.7,22.5c0,0,0,0,0,0
			c0.3,0.7,0.3,1.2-0.3,1.8c-0.4,0.4-0.9,0.6-1.5,0.5c-0.6-0.1-1-0.4-1.2-0.9c0,0,0,0,0,0c-3-6.5-7.8-12-14.1-15.7
			c-4.7-2.8-9.4-4.4-14.9-4.9c0,0,0,0,0,0c0,0,0,0,0,0c-0.1,0-0.2,0-0.3-0.1c0,0,0,0,0,0c-0.1,0-0.2-0.1-0.3-0.1c0,0,0,0,0,0
			c0,0,0,0,0,0c-0.4-0.2-0.8-0.6-0.8-1.1c-0.1-0.5,0-1,0.4-1.3c0,0,0,0,0,0C79.6,128.5,80,128.4,80.6,128.4z"/>
		<path class="st0" d="M82.3,95.1c0-0.3-0.1-0.5-0.3-0.7c-0.2-0.2-0.5-0.3-0.7-0.2c0,0,0,0,0,0H71.2c0,0,0,0,0,0
			c-0.3,0-0.5,0-0.7,0.2c-0.2,0.2-0.3,0.4-0.3,0.7c0,0,0,0,0,0c0,0,0,0,0,0c0,0,0,0,0,0c0,0,0,0,0,0c0,0.3,0.1,0.5,0.3,0.7
			c0.2,0.2,0.4,0.2,0.6,0.2c0,0,0.1,0,0.1,0c0,0,0,0,0,0h10.1c0,0,0,0,0,0c0,0,0.1,0,0.1,0c0.2,0,0.5-0.1,0.6-0.2
			C82.3,95.7,82.4,95.5,82.3,95.1C82.3,95.2,82.3,95.2,82.3,95.1C82.3,95.2,82.3,95.2,82.3,95.1C82.3,95.2,82.3,95.2,82.3,95.1
			C82.3,95.1,82.3,95.1,82.3,95.1z M81.8,95.7c-0.1,0.1-0.3,0.2-0.5,0.1c0,0,0,0,0,0c0,0,0,0,0,0H71.2c0,0,0,0,0,0c0,0,0,0,0,0
			c-0.2,0-0.4,0-0.5-0.1c-0.1-0.1-0.2-0.3-0.2-0.5c0,0,0,0,0,0c0,0,0,0,0,0c0-0.2,0-0.3,0.2-0.5c0.1-0.1,0.3-0.2,0.5-0.1
			c0,0,0,0,0,0c0,0,0,0,0,0h10.1c0,0,0,0,0,0s0,0,0,0c0.2,0,0.4,0,0.5,0.1C82,94.8,82,95,82,95.2c0,0,0,0,0,0c0,0,0,0,0,0
			C82,95.4,82,95.5,81.8,95.7z"/>
		<path class="st0" d="M82.3,90.8c0-0.3-0.1-0.5-0.3-0.7c-0.2-0.2-0.5-0.3-0.7-0.2c0,0,0,0,0,0H71.2c0,0,0,0,0,0
			c-0.3,0-0.5,0-0.7,0.2c-0.2,0.2-0.3,0.4-0.3,0.7c0,0,0,0,0,0c0,0,0,0,0,0c0,0,0,0,0,0c0,0,0,0,0,0c0,0.3,0.1,0.5,0.3,0.7
			c0.2,0.2,0.4,0.2,0.6,0.2c0,0,0.1,0,0.1,0c0,0,0,0,0,0h10.1c0,0,0,0,0,0c0,0,0.1,0,0.1,0c0.2,0,0.4-0.1,0.6-0.2
			C82.3,91.4,82.4,91.1,82.3,90.8C82.3,90.9,82.3,90.9,82.3,90.8C82.3,90.9,82.3,90.9,82.3,90.8C82.3,90.8,82.3,90.8,82.3,90.8
			C82.3,90.8,82.3,90.8,82.3,90.8z M81.8,91.3c-0.1,0.1-0.3,0.2-0.5,0.1c0,0,0,0,0,0c0,0,0,0,0,0H71.2c0,0,0,0,0,0c0,0,0,0,0,0
			c-0.2,0-0.4,0-0.5-0.1c-0.1-0.1-0.2-0.3-0.2-0.5c0,0,0,0,0,0c0,0,0,0,0,0c0-0.2,0-0.3,0.2-0.5c0.1-0.1,0.3-0.2,0.5-0.1
			c0,0,0,0,0,0c0,0,0,0,0,0h10.1c0,0,0,0,0,0c0,0,0,0,0,0c0.2,0,0.4,0,0.5,0.1c0.1,0.1,0.2,0.3,0.2,0.5c0,0,0,0,0,0c0,0,0,0,0,0
			C82,91,82,91.2,81.8,91.3z"/>
		<path class="st0" d="M82.1,85.8c-0.2-0.2-0.5-0.3-0.8-0.2c0,0,0,0,0,0H71.2c0,0,0,0,0,0c-0.3,0-0.5,0-0.7,0.2
			c-0.2,0.2-0.3,0.4-0.3,0.7c0,0,0,0,0,0c0,0,0,0,0,0c0,0,0,0,0,0c0,0,0,0,0,0c0,0.3,0.1,0.5,0.3,0.7c0.2,0.2,0.4,0.2,0.6,0.2
			c0,0,0.1,0,0.1,0c0,0,0,0,0,0h10.1c0,0,0,0,0,0c0,0,0.1,0,0.1,0c0.2,0,0.5-0.1,0.6-0.2c0.2-0.2,0.3-0.4,0.3-0.7c0,0,0,0,0,0
			c0,0,0,0,0,0c0,0,0,0,0,0c0,0,0,0,0,0C82.4,86.2,82.3,86,82.1,85.8z M81.8,87c-0.1,0.1-0.3,0.2-0.5,0.1c0,0,0,0,0,0c0,0,0,0,0,0
			H71.2c0,0,0,0,0,0c0,0,0,0,0,0c-0.2,0-0.4,0-0.5-0.1c-0.1-0.1-0.2-0.3-0.2-0.5c0,0,0,0,0,0c0,0,0,0,0,0c0-0.2,0-0.3,0.2-0.5
			c0.1-0.1,0.3-0.2,0.5-0.1c0,0,0,0,0,0c0,0,0,0,0,0h10.1c0,0,0,0,0,0c0,0,0,0,0,0c0.2,0,0.4,0,0.5,0.1c0.1,0.1,0.2,0.3,0.2,0.5
			c0,0,0,0,0,0c0,0,0,0,0,0C82,86.7,82,86.9,81.8,87z"/>
		<path class="st0" d="M131.1,342.2c-1.3-13-2.9-27-6.2-40.8c-4-16.8-10.1-29.2-18.3-36.7c0,0,0,0,0,0c-8.4-7.6-19.2-11.6-30.7-11.4
			h0c-0.3,0-0.5,0-0.8,0c-11.1,0-21.7,4-29.9,11.4c0,0,0,0,0,0h0c-8.1,7.5-14.3,19.9-18.3,36.7c-3.3,13.8-4.9,27.8-6.2,40.8
			c0,0,0,0,0,0c-0.3,2.5-0.3,4.6,0.1,6.6c0.4,2.1,1.1,4.1,2.2,6c1.1,1.9,2.5,3.6,4.1,5.1c0.8,0.7,1.7,1.4,2.6,2
			c0.9,0.6,2,1.2,3.2,1.8c0,0,0,0,0,0c12.7,6.4,26.8,9.7,41.1,9.7c0.6,0,1.1,0,1.7,0c0.6,0,1.1,0,1.7,0c14.2,0,28.4-3.3,41.1-9.7
			c0,0,0,0,0,0c2.4-1.2,4.3-2.4,5.9-3.8c1.6-1.4,3-3.1,4.1-5c1.1-1.9,1.8-3.9,2.2-6c0.2-1,0.3-2.1,0.3-3.1
			C131.3,344.5,131.2,343.2,131.1,342.2C131.1,342.2,131.1,342.2,131.1,342.2z M130.7,348.8c-0.4,2.1-1.1,4-2.2,5.9
			c-1.1,1.9-2.4,3.5-4,4.9c-1.6,1.4-3.5,2.6-5.9,3.8c0,0,0,0,0,0c-12.6,6.3-26.7,9.7-40.9,9.7c-0.6,0-1.1,0-1.7,0c0,0,0,0,0,0
			c0,0,0,0,0,0c-14.8,0.3-29.5-3.1-42.6-9.7c0,0,0,0,0,0c-1.3-0.6-2.3-1.2-3.2-1.8c-0.9-0.6-1.8-1.3-2.6-2c-1.6-1.4-3-3.1-4-5
			c-1.1-1.9-1.8-3.9-2.2-5.9c-0.4-2-0.4-4.1-0.1-6.6c0,0,0,0,0,0c0,0,0,0,0,0c1.3-13,2.9-27,6.2-40.8c4-16.8,10.1-29.1,18.1-36.5
			c0,0,0,0,0,0c8.1-7.3,18.6-11.3,29.7-11.3c0.3,0,0.5,0,0.8,0c0,0,0,0,0,0c0,0,0,0,0,0c0,0,0,0,0,0c0,0,0,0,0,0c0.3,0,0.5,0,0.8,0
			c11,0,21.5,4,29.7,11.3h0c8.1,7.5,14.2,19.8,18.1,36.5c3.3,13.8,4.9,27.8,6.2,40.8c0,0,0,0,0,0c0,0,0,0,0,0c0.1,1,0.2,2.2,0.2,3.5
			C131,346.8,130.9,347.8,130.7,348.8z"/>
		<path class="st0" d="M121.1,337.4c-1.2-13.3-2.4-25.3-5-37.1c-2.1-9.5-4.8-16.7-8.3-22.8c-1.8-3.1-3.7-5.6-5.7-7.7
			c-2.1-2.1-4.6-4-7.3-5.5c-2.7-1.5-5.7-2.7-8.8-3.5c-3.1-0.8-6.4-1.2-9.9-1.2c-0.1,0-0.2,0-0.3,0c-6.7,0-13.1,1.6-18.5,4.7
			c-2.7,1.5-5.2,3.4-7.2,5.5c-2,2.1-3.9,4.6-5.7,7.7c-3.6,6.1-6.2,13.3-8.3,22.7c-1.1,4.9-2,10.1-2.8,16.4
			c-0.8,6.3-1.6,13.1-2.2,20.8c0,0,0,0,0,0c-0.2,1.6-0.1,3,0.1,4.2c0.2,1.3,0.7,2.5,1.4,3.6c0.7,1.1,1.6,2.1,2.6,3
			c0.5,0.4,1.1,0.8,1.7,1.2c0.8,0.5,1.7,0.9,2.3,1.2c0,0,0,0,0,0c4.3,2.1,8.6,3.8,13.2,5.1v3.8c0,0,0,0,0,0c0,0.2,0,0.3,0,0.5
			c0,0,0,0.1,0,0.1c0,0,0,0,0,0.1c0,0,0,0,0,0c0,0,0,0,0,0v3.5c0,0.1,0,0.1,0,0.2c0,0,0,0,0,0c0,0,0,0.1,0,0.1
			c0.2,1.1,1.4,1.4,1.9,1.6c0.4,0.1,0.8,0.2,1.2,0.2c0.3,0,0.6-0.1,0.8-0.2c0.2-0.2,0.4-0.5,0.4-0.9v-3.6c0,0,0-0.1,0-0.1
			c0,0,0,0,0,0c0,0,0,0,0-0.1v-4.2c6.4,1.5,12.7,2.3,19.3,2.3c0,0,0.1,0,0.1,0c0,0,0,0,0.1,0c6.6,0,12.9-0.7,19.4-2.3v4.2
			c0,0,0,0.1,0,0.1c0,0,0,0.1,0,0.1v3.6c0,0.4,0.1,0.7,0.4,0.9c0.2,0.2,0.5,0.2,0.8,0.2c0.4,0,0.9-0.1,1.2-0.2
			c0.4-0.1,1.7-0.5,1.9-1.6c0,0,0-0.1,0-0.1c0,0,0,0,0,0c0-0.1,0-0.1,0-0.2v-3.5c0,0,0,0,0,0c0,0,0,0,0,0c0,0,0-0.1,0-0.1
			c0,0,0-0.1,0-0.1c0-0.2,0-0.3,0-0.5c0,0,0,0,0,0v-3.8c4.6-1.3,8.9-3,13.2-5.1c0,0,0,0,0,0c0,0,0,0,0,0c1.2-0.6,2.7-1.4,4-2.4
			c1.1-0.9,1.9-1.9,2.6-3c0.7-1.1,1.2-2.3,1.4-3.6c0.1-0.6,0.2-1.2,0.2-1.9C121.2,338.9,121.1,338.1,121.1,337.4
			C121.1,337.4,121.1,337.4,121.1,337.4z M53,363.7l0-3.8c0-0.7,0-1.4,0-2.1c0-0.7,0-1.4,0-2.1v-10.2c0-1,0.8-1.5,1.5-1.5
			c0.7,0,1.5,0.5,1.5,1.5v11.1c0,0.7,0,1.4,0,2c0,0.7,0,1.4,0,2.1c0,1.3,0,2.5,0,3.8c0,0,0,0,0,0c0,0.2-0.1,0.4-0.2,0.5
			c-0.3,0.3-1.1,0-1.4,0C53.5,364.7,53,364.3,53,363.7z M52.7,360.1C52.7,360.1,52.7,360.1,52.7,360.1
			C52.7,360.1,52.7,360.1,52.7,360.1l0,3.3c0,0,0,0,0,0L52.7,360.1C52.7,360.1,52.7,360.1,52.7,360.1z M52.7,359.5
			C52.7,359.5,52.7,359.5,52.7,359.5c0,0.1,0,0.1,0,0.2c0,0,0,0,0,0C52.7,359.6,52.7,359.5,52.7,359.5z M52.7,363.8
			C52.7,363.8,52.7,363.8,52.7,363.8C52.7,363.8,52.7,363.8,52.7,363.8C52.7,363.8,52.7,363.8,52.7,363.8z M52.8,364.1
			c0,0.1,0.1,0.1,0.1,0.2C52.8,364.2,52.8,364.2,52.8,364.1z M53.1,364.6C53.1,364.6,53.1,364.6,53.1,364.6
			C53.1,364.6,53.1,364.6,53.1,364.6z M54.9,365.4c0.2,0,0.3,0.1,0.5,0.1c0.3,0,0.5-0.1,0.7-0.2c0.1,0,0.1-0.1,0.1-0.2
			c0,0.1-0.1,0.2-0.2,0.3C55.8,365.5,55.3,365.5,54.9,365.4z M54.6,365.3c0.1,0,0.1,0,0.2,0C54.7,365.3,54.7,365.3,54.6,365.3z
			 M99.4,360.1C99.4,360.1,99.4,360.1,99.4,360.1l0,3.3c0,0,0,0,0,0L99.4,360.1C99.4,360.1,99.4,360.1,99.4,360.1
			C99.4,360.1,99.4,360.1,99.4,360.1z M96,360.7c0-0.7,0-1.4,0-2.1c0-0.7,0-1.4,0-2c0,0,0,0,0,0v-11.1c0-1,0.8-1.5,1.5-1.5
			c0.7,0,1.5,0.5,1.5,1.5v10.2c0,0.7,0,1.4,0,2.1c0,0.7,0,1.4,0,2.2c0,0,0,0,0,0l0,3.8c0,0.6-0.5,1-1.4,1.3c-0.3,0.1-1.1,0.3-1.4,0
			c-0.1-0.1-0.2-0.3-0.2-0.5c0,0,0,0,0,0h0C96,363.2,96,362,96,360.7z M99.3,363.8C99.3,363.8,99.3,363.8,99.3,363.8
			C99.3,363.8,99.3,363.8,99.3,363.8C99.3,363.8,99.3,363.8,99.3,363.8z M99.4,359.7c0-0.1,0-0.1,0-0.2c0,0,0,0,0,0
			C99.4,359.5,99.4,359.6,99.4,359.7C99.4,359.7,99.4,359.7,99.4,359.7z M96,365.3c-0.1-0.1-0.1-0.2-0.2-0.3
			C95.9,365.1,95.9,365.2,96,365.3c0.2,0.1,0.4,0.1,0.7,0.1c0.2,0,0.3,0,0.5-0.1C96.8,365.5,96.3,365.5,96,365.3z M97.4,365.3
			c0,0-0.1,0-0.1,0C97.3,365.3,97.4,365.3,97.4,365.3z M99.2,364.3c0-0.1,0.1-0.1,0.1-0.2C99.3,364.2,99.2,364.2,99.2,364.3z
			 M120.6,341.5c-0.2,1.2-0.7,2.4-1.4,3.5c-0.7,1.1-1.5,2.1-2.6,2.9c-1.3,1-2.8,1.8-3.9,2.4c0,0,0,0,0,0c0,0,0,0,0,0
			c-4.2,2.1-8.5,3.7-13,5v-9.8c0,0,0,0,0,0s0,0,0,0c0,0,0,0,0,0c0,0,0,0,0,0c0-1.4-1.1-2-2.1-2c0,0,0,0,0,0c-1,0-2.1,0.7-2.1,2.1
			c0,0,0,0,0,0s0,0,0,0v11c-6.4,1.5-12.7,2.3-19.4,2.3c0,0,0,0-0.1,0c0,0-0.1,0-0.1,0c-6.6,0-12.9-0.7-19.3-2.3v-11c0,0,0,0,0,0
			s0,0,0,0c0-1.4-1.1-2.1-2.1-2.1c-1,0-2.1,0.7-2.1,2.1c0,0,0,0,0,0s0,0,0,0v9.8c-4.5-1.3-8.8-3-13-5c0,0,0,0,0,0
			c-0.6-0.3-1.5-0.7-2.3-1.2c-0.6-0.4-1.1-0.7-1.6-1.1c-1-0.8-1.9-1.8-2.5-2.9c-0.7-1.1-1.2-2.3-1.4-3.5c-0.2-1.2-0.3-2.5-0.1-4.1
			c0,0,0,0,0,0c0,0,0,0,0,0c0.6-7.7,1.3-14.5,2.2-20.8c0.8-6.3,1.7-11.5,2.8-16.3c2.1-9.3,4.7-16.5,8.2-22.6c1.8-3,3.6-5.5,5.6-7.6
			c2.1-2.1,4.5-3.9,7.2-5.5c5.4-3.1,11.8-4.7,18.4-4.7c0.1,0,0.2,0,0.2,0c3.5,0,6.8,0.4,9.8,1.2c3,0.8,6,1.9,8.7,3.4
			c2.7,1.5,5.2,3.4,7.2,5.5c2,2.1,3.9,4.5,5.7,7.6c3.5,6.1,6.2,13.3,8.3,22.7c2.6,11.8,3.8,23.7,5,37c0,0,0,0,0,0
			c0.1,0.7,0.1,1.5,0.1,2.2C120.8,340.3,120.7,340.9,120.6,341.5z"/>
		<path class="st0" d="M169,239.4v9.6c0,0,0,0,0,0c0,2.9,2.4,5.3,5.4,5.3h24.5c3,0,5.4-2.4,5.4-5.3v-9.6c0,0,0,0,0,0
			c0-2.9-2.4-5.3-5.4-5.3h-24.5C171.4,234,169,236.4,169,239.4z M203,239.4v9.6c0,2.2-1.8,4-4.1,4h-24.5c-2.2,0-4.1-1.8-4.1-4v-9.6
			c0-2.2,1.8-4,4.1-4h24.5C201.1,235.4,203,237.2,203,239.4z"/>
		<path class="st0" d="M169,338.1c0,2.9,2.4,5.3,5.4,5.3h24.5c3,0,5.4-2.4,5.4-5.3v-9.6c0-2.9-2.4-5.3-5.4-5.3h-24.5
			c-3,0-5.4,2.4-5.4,5.3V338.1z M174.4,324.5h24.5c2.2,0,4.1,1.8,4.1,4v9.6c0,2.2-1.8,4-4.1,4h-24.5c-2.2,0-4.1-1.8-4.1-4v-9.6
			C170.3,326.3,172.2,324.5,174.4,324.5z"/>
		<path class="st0" d="M250.4,338.1v-9.6c0-2.9-2.4-5.3-5.4-5.3h-24.5c-3,0-5.4,2.4-5.4,5.3v9.6c0,2.9,2.4,5.3,5.4,5.3h24.5
			C247.9,343.4,250.4,341,250.4,338.1z M244.9,342.1h-24.5c-2.2,0-4.1-1.8-4.1-4v-9.6c0-2.2,1.8-4,4.1-4h24.5c2.2,0,4.1,1.8,4.1,4
			v9.6C249,340.3,247.2,342.1,244.9,342.1z"/>
		<path class="st0" d="M296.4,328.5c0-2.9-2.4-5.3-5.4-5.3c0,0,0,0,0,0h-24.5c-3,0-5.4,2.4-5.4,5.3v9.6c0,2.9,2.4,5.3,5.4,5.3H291
			c3,0,5.4-2.4,5.4-5.3V328.5z M291,342.1h-24.5c-2.2,0-4.1-1.8-4.1-4v-9.6c0-2.2,1.8-4,4.1-4H291c2.2,0,4.1,1.8,4.1,4v9.6
			C295,340.3,293.2,342.1,291,342.1z"/>
		<path class="st0" d="M169,308.4c0,2.9,2.4,5.3,5.4,5.3h24.5c3,0,5.4-2.4,5.4-5.3v-9.6c0,0,0,0,0,0c0-2.9-2.4-5.3-5.4-5.3h-24.5
			c-3,0-5.4,2.4-5.4,5.3V308.4z M174.4,294.8h24.5c2.2,0,4.1,1.8,4.1,4v9.6c0,2.2-1.8,4-4.1,4h-24.5c-2.2,0-4.1-1.8-4.1-4v-9.6
			C170.3,296.6,172.2,294.8,174.4,294.8z"/>
		<path class="st0" d="M215,308.4c0,2.9,2.4,5.3,5.4,5.3h24.5c3,0,5.4-2.4,5.4-5.3v-9.6c0,0,0,0,0,0c0-2.9-2.4-5.3-5.4-5.3h-24.5
			c-3,0-5.4,2.4-5.4,5.3V308.4z M220.4,294.8h24.5c2.2,0,4.1,1.8,4.1,4v9.6c0,2.2-1.8,4-4.1,4h-24.5c-2.2,0-4.1-1.8-4.1-4v-9.6
			C216.4,296.6,218.2,294.8,220.4,294.8z"/>
		<path class="st0" d="M261,308.4c0,2.9,2.4,5.3,5.4,5.3H291c3,0,5.4-2.4,5.4-5.3v-9.6c0,0,0,0,0,0c0-2.9-2.4-5.3-5.4-5.3
			c0,0,0,0,0,0h-24.5c-3,0-5.4,2.4-5.4,5.3V308.4z M266.5,294.8H291c2.2,0,4.1,1.8,4.1,4v9.6c0,2.2-1.8,4-4.1,4h-24.5
			c-2.2,0-4.1-1.8-4.1-4v-9.6C262.4,296.6,264.2,294.8,266.5,294.8z"/>
		<path class="st0" d="M169,278.7c0,2.9,2.4,5.3,5.4,5.3h24.5c3,0,5.4-2.4,5.4-5.3v-9.6c0-2.9-2.4-5.3-5.4-5.3h-24.5
			c-3,0-5.4,2.4-5.4,5.3V278.7z M174.4,265.1h24.5c2.2,0,4.1,1.8,4.1,4v9.6c0,2.2-1.8,4-4.1,4h-24.5c-2.2,0-4.1-1.8-4.1-4v-9.6
			C170.3,266.9,172.2,265.1,174.4,265.1z"/>
		<path class="st0" d="M215,278.7c0,2.9,2.4,5.3,5.4,5.3h24.5c3,0,5.4-2.4,5.4-5.3v-9.6c0-2.9-2.4-5.3-5.4-5.3h-24.5
			c-3,0-5.4,2.4-5.4,5.3V278.7z M220.4,265.1h24.5c2.2,0,4.1,1.8,4.1,4v9.6c0,2.2-1.8,4-4.1,4h-24.5c-2.2,0-4.1-1.8-4.1-4v-9.6
			C216.4,266.9,218.2,265.1,220.4,265.1z"/>
		<path class="st0" d="M266.5,284H291c3,0,5.4-2.4,5.4-5.3v-9.6c0-2.9-2.4-5.3-5.4-5.3c0,0,0,0,0,0h-24.5c-3,0-5.4,2.4-5.4,5.3v9.6
			C261,281.6,263.5,284,266.5,284z M262.4,269.1c0-2.2,1.8-4,4.1-4H291c2.2,0,4.1,1.8,4.1,4v9.6c0,2.2-1.8,4-4.1,4h-24.5
			c-2.2,0-4.1-1.8-4.1-4V269.1z"/>
		<path class="st0" d="M291,234C291,234,291,234,291,234l-24.5,0c-3,0-5.4,2.4-5.4,5.3v9.6c0,0,0,0,0,0c0,2.9,2.4,5.3,5.4,5.3H291
			c3,0,5.4-2.4,5.4-5.3v-9.6c0,0,0,0,0,0C296.4,236.4,294,234.1,291,234z M291,252.9h-24.5c-2.2,0-4.1-1.8-4.1-4v-9.6
			c0-2.2,1.8-4,4.1-4H291c2.2,0,4.1,1.8,4.1,4v9.6C295,251.2,293.2,252.9,291,252.9z"/>
		<path class="st0" d="M220.4,254.3h24.5c3,0,5.4-2.4,5.4-5.3v-9.6c0,0,0,0,0,0c0-2.9-2.4-5.3-5.4-5.3h-24.5c-3,0-5.4,2.4-5.4,5.3
			v9.6c0,0,0,0,0,0C215,251.9,217.4,254.3,220.4,254.3z M216.4,239.4c0-2.2,1.8-4,4.1-4h24.5c2.2,0,4.1,1.8,4.1,4v9.6
			c0,2.2-1.8,4-4.1,4h-24.5c-2.2,0-4.1-1.8-4.1-4V239.4z"/>
		<path class="st0" d="M174.9,336.7c-0.2,0.2-0.2,0.4-0.2,0.4c0,0.3,0.2,0.5,0.4,0.5c0.1,0,0.1,0,0.3,0c0.4,0,0.6-0.2,0.7-0.3
			c0,0,0,0.1,0.1,0.2c0,0,0,0.1,0.1,0.1c0.1,0.1,0.2,0.1,0.2,0.1c0.1,0,0.1,0,0.2,0v-0.3c0,0-0.1,0-0.1,0c-0.1,0-0.2-0.1-0.2-0.2
			c0,0,0-0.1,0-0.1v-0.7c0-0.2,0-0.3,0-0.4c-0.1-0.3-0.4-0.4-0.5-0.4c-0.2,0-0.3,0-0.3,0c-0.5,0-0.7,0.3-0.8,0.5c0,0.1,0,0.2,0,0.2
			l0.4,0c0-0.1,0-0.1,0-0.2c0.1-0.3,0.4-0.3,0.4-0.3c0.4,0,0.5,0.3,0.5,0.5c0,0.1,0,0.1,0,0.2l-0.3,0
			C175.5,336.5,175.2,336.5,174.9,336.7z M176.1,336.8c0,0.5-0.4,0.6-0.6,0.6c-0.3,0-0.4-0.2-0.4-0.3c0-0.2,0.2-0.3,0.3-0.3
			c0.2-0.1,0.6-0.1,0.8-0.2v0C176.1,336.7,176.1,336.8,176.1,336.8z"/>
		<path class="st0" d="M183.8,336.7h1.2l0.3,0.9h0.4l-1.2-3.1h-0.4l-1.2,3.1h0.4L183.8,336.7z M184.4,335.1l0.5,1.3h-0.9
			L184.4,335.1z"/>
		<polygon class="st0" points="224.5,337.1 221.6,337.1 221.6,336.5 221.1,336.5 221.1,337.6 225,337.6 225,336.5 224.6,336.5 		"/>
		<rect x="228" y="337.1" class="st0" width="3.9" height="0.5"/>
		<polygon class="st0" points="180.8,337.3 181.8,336.4 180.8,335.4 180.8,336.1 178.4,336.1 178.4,336.6 180.8,336.6 		"/>
		<path class="st0" d="M192.9,240.8v0.9h2.5v6.9h1.2V239h-0.9C195.4,240.4,194.2,240.8,192.9,240.8z"/>
		<path class="st0" d="M196.4,278.2h1.1V276h1.3v-1h-1.3v-6.3h-0.9l-4.5,6.2v1.1h4.3V278.2z M193.1,274.9l3.3-4.7h0v4.7H193.1z"/>
		<path class="st0" d="M193.6,307.9h1.3c0.2-3,1.8-6.5,3.8-8.4v-1h-6.3v1.1h5.1C195.4,301.7,193.8,304.6,193.6,307.9z"/>
		<path class="st0" d="M240.7,244.7c-1.4,0.8-2.6,1.6-2.8,3.9h6.4v-1h-5c0.2-1.2,1.5-1.8,2.8-2.5c1.2-0.7,2.4-1.6,2.4-3.3
			c0-1.8-1.4-2.8-3.1-2.8c-2.1,0-3.2,1.4-3.2,3.4h1.2c0-1.1,0.5-2.4,1.9-2.4c1,0,1.9,0.7,1.9,1.7
			C243.2,243.1,242.4,243.7,240.7,244.7z"/>
		<path class="st0" d="M241.4,277.3c-1.2,0-2-0.7-2.1-1.7h-1.2c0,1.7,1.4,2.7,3.1,2.7c2.3,0,3.4-1.6,3.4-3.2c0-2.2-1.4-3.3-3.2-3.3
			c-0.7,0-1.4,0.2-1.8,0.7l0,0l0.5-2.8h4v-1h-4.8l-0.9,5l1,0.1c0.5-0.5,1.1-0.9,1.8-0.9c1.3,0,2.2,0.9,2.2,2.2
			C243.5,276.6,242.5,277.3,241.4,277.3z"/>
		<path class="st0" d="M238.1,305.1c0,2,1.5,2.9,3.3,2.9c1.8,0,3.2-1.1,3.2-2.9c0-1.2-0.6-2-1.7-2.4c0.8-0.4,1.4-1.1,1.4-2
			c0-1.2-0.8-2.4-3-2.4c-1.5,0-2.9,0.9-2.9,2.4c0,0.9,0.6,1.7,1.4,2C238.8,303.1,238.1,304,238.1,305.1z M239.7,300.8
			c0-1,0.8-1.5,1.7-1.5c1,0,1.6,0.5,1.6,1.5c0,1-0.7,1.5-1.6,1.5C240.5,302.3,239.7,301.8,239.7,300.8z M241.5,303.3
			c1.1,0,2,0.8,2,1.8c0,1.1-0.8,1.9-2,1.9c-1.2,0-2.1-0.7-2.1-1.9C239.4,304.1,240.3,303.3,241.5,303.3z"/>
		<path class="st0" d="M289,243.5L289,243.5c0.7-0.4,1.4-1.1,1.4-1.9c0-1.8-1.3-2.6-3-2.6c-2,0-3,1.3-3,3.1h1.2
			c0-1.1,0.6-2.1,1.9-2.1c1,0,1.7,0.5,1.7,1.5c0,1-0.9,1.6-1.9,1.6c-0.2,0-0.3,0-0.5,0v1c0.2,0,0.5,0,0.7,0c1.2,0,2.1,0.6,2.1,1.8
			c0,1.2-1,1.9-2.1,1.9c-1.3,0-2-0.9-2.1-2.1h-1.2c0,2,1.3,3.1,3.3,3.1c1.8,0,3.4-1,3.4-2.9C290.8,244.7,290.2,243.7,289,243.5z"/>
		<path class="st0" d="M287.7,278.4c2.5,0,3.3-1.8,3.3-3.2c0-1.8-1.1-3.1-3-3.1c-1.1,0-1.9,0.4-2.4,1.3l0,0c0.1-1.5,0.4-3.6,2.4-3.6
			c0.9,0,1.5,0.6,1.6,1.4h1.2c-0.1-1.6-1.1-2.4-2.8-2.4c-2.8,0-3.6,2.5-3.6,5.1C284.3,275.8,284.8,278.4,287.7,278.4z M287.8,273
			c1.3,0,2,1,2,2.2c0,1.1-0.7,2.1-2,2.1c-1.3,0-2-0.9-2-2.1C285.7,274,286.4,273,287.8,273z"/>
		<path class="st0" d="M287.3,304.6c1,0,1.8-0.5,2.3-1.3l0,0c-0.1,2.5-0.8,3.7-2.2,3.7c-0.9,0-1.7-0.5-1.8-1.5h-1.2
			c0.2,1.7,1.3,2.5,3,2.5c2.4,0,3.4-1.9,3.4-5.2c0-3.6-1.5-4.6-3.4-4.6c-1.9,0-3.2,1.3-3.2,3.1C284.2,303.3,285.3,304.6,287.3,304.6
			z M287.4,299.3c1.3,0,2,1,2,2.2c0,1.1-0.8,2.1-2,2.1c-1.1,0-1.9-1-1.9-2C285.4,300.4,286,299.3,287.4,299.3z"/>
		<path class="st0" d="M241.4,328.1c-3.1,0-3.3,2.8-3.3,4.9c0,2.1,0.2,4.9,3.3,4.9c3.1,0,3.3-2.8,3.3-4.9
			C244.7,330.8,244.5,328.1,241.4,328.1z M241.4,336.8c-2,0-2-2.4-2-3.9c0-1.4,0-3.9,2-3.9s2,2.4,2,3.9
			C243.5,334.4,243.4,336.8,241.4,336.8z"/>
		<path class="st0" d="M290.1,328.2h-1l-0.4,2.8H287l0.4-2.8h-1l-0.4,2.8h-1.5v0.9h1.4l-0.3,2h-1.5v0.9h1.3l-0.4,2.8h1l0.4-2.8h1.7
			l-0.4,2.8h1l0.4-2.8h1.4V334h-1.3l0.3-2h1.4V331h-1.2L290.1,328.2z M288.3,334h-1.7l0.3-2h1.7L288.3,334z"/>
		<polygon class="st0" points="192.4,336.3 193.3,336.8 194.9,334.2 196.4,336.8 197.3,336.3 195.8,333.6 198.9,333.6 198.9,332.6
			195.8,332.6 197.3,330 196.4,329.5 194.9,332.1 193.3,329.5 192.4,330 194,332.6 190.9,332.6 190.9,333.6 194,333.6 		"/>
		<path class="st0" d="M222.2,247.6h1.4l0.4,0.9h0.5l-1.3-3.1h-0.5l-1.3,3.1h0.4L222.2,247.6z M222.9,245.8L222.9,245.8l0.5,1.5
			h-1.1L222.9,245.8z"/>
		<path class="st0" d="M227.5,247.6c0-0.4-0.2-0.7-0.6-0.8v0c0.3-0.1,0.5-0.4,0.5-0.7c0-0.3-0.2-0.5-0.4-0.7
			c-0.2-0.1-0.6-0.1-0.8-0.1H225v3.1h1.6C227.2,248.5,227.5,248.1,227.5,247.6z M225.4,245.7h0.9c0.4,0,0.7,0.1,0.7,0.5
			c0,0.3-0.2,0.5-0.7,0.5h-0.9V245.7z M225.4,248.2v-1.1h1c0.4,0,0.7,0.1,0.7,0.5c0,0.3-0.2,0.6-0.6,0.6H225.4z"/>
		<path class="st0" d="M229.7,248.6c0.8,0,1.3-0.5,1.4-1.3h-0.4c0,0.5-0.4,0.9-0.9,0.9c-0.8,0-1.1-0.6-1.1-1.3
			c0-0.7,0.3-1.3,1.1-1.3c0.4,0,0.8,0.2,0.9,0.7h0.4c-0.1-0.7-0.7-1-1.3-1c-1,0-1.5,0.7-1.5,1.7
			C228.3,247.9,228.7,248.6,229.7,248.6z"/>
		<path class="st0" d="M269,245.4h-1.1v3.1h1.1c1.1,0,1.5-0.6,1.5-1.6C270.6,245.9,270,245.4,269,245.4z M269.1,248.2h-0.7v-2.4h0.7
			c0.8,0,1.1,0.5,1.1,1.2C270.1,248.1,269.3,248.2,269.1,248.2z"/>
		<polygon class="st0" points="271.8,247.1 273.5,247.1 273.5,246.7 271.8,246.7 271.8,245.7 273.6,245.7 273.6,245.4 271.4,245.4
			271.4,248.5 273.6,248.5 273.6,248.2 271.8,248.2 		"/>
		<polygon class="st0" points="274.5,248.5 274.9,248.5 274.9,247.1 276.4,247.1 276.4,246.7 274.9,246.7 274.9,245.7 276.6,245.7
			276.6,245.4 274.5,245.4 		"/>
		<path class="st0" d="M223.1,278.3c0.7,0,0.9-0.4,0.9-0.9v-2.4h-0.4v2.3c0,0.3-0.1,0.6-0.5,0.6c-0.4,0-0.5-0.3-0.5-0.6v-0.1h-0.4
			v0.2C222.2,277.9,222.5,278.3,223.1,278.3z"/>
		<polygon class="st0" points="225.6,277.1 226.1,276.6 227.3,278.2 227.8,278.2 226.4,276.3 227.7,275.1 227.2,275.1 225.6,276.6
			225.6,275.1 225.1,275.1 225.1,278.2 225.6,278.2 		"/>
		<polygon class="st0" points="230.6,277.8 228.9,277.8 228.9,275.1 228.5,275.1 228.5,278.2 230.6,278.2 		"/>
		<path class="st0" d="M177.5,278.3c0.4,0,0.8-0.1,1-0.5l0.1,0.4h0.3v-1.7h-1.4v0.4h1c0,0.6-0.4,1-1,1c-0.7,0-1.1-0.6-1.1-1.3
			c0-0.7,0.3-1.3,1.1-1.3c0.5,0,0.9,0.2,1,0.7h0.4c-0.1-0.7-0.7-1-1.4-1c-1,0-1.5,0.8-1.5,1.7C175.9,277.5,176.5,278.3,177.5,278.3z
			"/>
		<polygon class="st0" points="180.3,276.8 182,276.8 182,278.2 182.4,278.2 182.4,275.1 182,275.1 182,276.4 180.3,276.4
			180.3,275.1 179.8,275.1 179.8,278.2 180.3,278.2 		"/>
		<rect x="183.4" y="275.1" class="st0" width="0.4" height="3.1"/>
		<polygon class="st0" points="267.3,275.6 267.3,275.6 268.3,278.2 268.7,278.2 269.7,275.6 269.7,275.6 269.7,278.2 270.1,278.2
			270.1,275.1 269.5,275.1 268.5,277.7 267.5,275.1 266.9,275.1 266.9,278.2 267.3,278.2 		"/>
		<polygon class="st0" points="271.5,275.7 271.5,275.7 273.2,278.2 273.7,278.2 273.7,275.1 273.3,275.1 273.3,277.6 273.3,277.6
			271.6,275.1 271.1,275.1 271.1,278.2 271.5,278.2 		"/>
		<path class="st0" d="M276.1,278.3c1,0,1.5-0.8,1.5-1.6c0-0.9-0.5-1.6-1.5-1.6c-1,0-1.5,0.8-1.5,1.6
			C274.5,277.5,275,278.3,276.1,278.3z M276.1,275.3c0.8,0,1.1,0.7,1.1,1.3c0,0.6-0.3,1.3-1.1,1.3c-0.8,0-1.1-0.7-1.1-1.3
			C274.9,276,275.3,275.3,276.1,275.3z"/>
		<path class="st0" d="M174.3,306.6h1c0.6,0,1-0.3,1-0.9c0-0.6-0.3-0.9-1-0.9h-1.4v3.1h0.4V306.6z M174.3,305.1h0.8
			c0.5,0,0.7,0.2,0.7,0.6c0,0.4-0.2,0.6-0.7,0.6h-0.8V305.1z"/>
		<path class="st0" d="M178.5,308c0.3,0,0.6-0.1,0.8-0.2l0.5,0.4l0.2-0.3l-0.4-0.3c0.3-0.3,0.5-0.8,0.5-1.2c0-0.9-0.5-1.6-1.5-1.6
			c-1,0-1.5,0.8-1.5,1.6C177,307.2,177.5,308,178.5,308z M178.5,305c0.8,0,1.1,0.7,1.1,1.3c0,0.4-0.1,0.8-0.4,1l-0.4-0.3l-0.2,0.3
			l0.4,0.3c-0.1,0.1-0.3,0.1-0.4,0.1c-0.8,0-1.1-0.7-1.1-1.3C177.4,305.7,177.7,305,178.5,305z"/>
		<path class="st0" d="M181.3,306.6h1c0.4,0,0.5,0.3,0.5,0.6c0.1,0.3,0,0.6,0.1,0.8h0.5c-0.2-0.2-0.2-0.6-0.2-0.9
			c0-0.3-0.1-0.6-0.5-0.6v0c0.4-0.1,0.6-0.4,0.6-0.8c0-0.5-0.4-0.8-1-0.8h-1.5v3.1h0.4V306.6z M181.3,305.1h1.1
			c0.4,0,0.6,0.2,0.6,0.5c0,0.5-0.3,0.6-0.7,0.6h-0.9V305.1z"/>
		<path class="st0" d="M185.5,307.6c-0.5,0-0.9-0.2-0.9-0.8h-0.4c0,0.8,0.6,1.1,1.3,1.1c0.6,0,1.3-0.3,1.3-0.9c0-0.6-0.5-0.8-1-0.9
			c-0.5-0.1-1-0.2-1-0.6c0-0.4,0.4-0.5,0.7-0.5c0.4,0,0.7,0.2,0.8,0.6h0.4c0-0.7-0.5-1-1.2-1c-0.6,0-1.2,0.3-1.2,0.9
			c0,0.6,0.5,0.7,1,0.8c0.5,0.1,1,0.2,1,0.6C186.3,307.5,185.8,307.6,185.5,307.6z"/>
		<polygon class="st0" points="266.7,307.9 267.4,305.3 267.4,305.3 268.2,307.9 268.6,307.9 269.5,304.8 269,304.8 268.4,307.4
			268.4,307.4 267.7,304.8 267.2,304.8 266.5,307.4 266.5,307.4 265.8,304.8 265.4,304.8 266.2,307.9 		"/>
		<polygon class="st0" points="270.3,307.9 271.2,306.6 272.1,307.9 272.6,307.9 271.5,306.3 272.5,304.8 272.1,304.8 271.2,306
			270.4,304.8 269.9,304.8 271,306.3 269.8,307.9 		"/>
		<polygon class="st0" points="274.2,307.9 274.6,307.9 274.6,306.6 275.8,304.8 275.3,304.8 274.4,306.2 273.4,304.8 272.9,304.8
			274.2,306.6 		"/>
		<polygon class="st0" points="278.8,307.5 276.8,307.5 278.8,305.1 278.8,304.8 276.4,304.8 276.4,305.1 278.3,305.1 276.3,307.5
			276.3,307.9 278.8,307.9 		"/>
		<polygon class="st0" points="222.8,307.9 223.2,307.9 223.2,305.1 224.3,305.1 224.3,304.8 221.7,304.8 221.7,305.1 222.8,305.1
					"/>
		<path class="st0" d="M226.3,308c0.8,0,1.3-0.4,1.3-1.2v-2h-0.4v2c0,0.6-0.3,0.9-0.8,0.9c-0.6,0-0.9-0.3-0.9-0.9v-2H225v2
			C225,307.6,225.5,308,226.3,308z"/>
		<polygon class="st0" points="229.8,307.9 231,304.8 230.5,304.8 229.6,307.5 229.6,307.5 228.7,304.8 228.2,304.8 229.4,307.9
			"/>
		<polygon class="st0" points="167.5,353.6 166.8,353.6 166.8,357.4 167.3,357.4 167.3,354.2 167.3,354.2 168.6,357.4 169,357.4
			170.2,354.2 170.2,354.2 170.2,357.4 170.7,357.4 170.7,353.6 170,353.6 168.8,356.8 		"/>
		<path class="st0" d="M173.9,357.4v-2.8h-0.5v1.6c0,0.5-0.3,0.9-0.8,0.9c-0.4,0-0.6-0.2-0.6-0.6v-1.9h-0.5v1.8c0,0.6,0.2,1,1,1
			c0.4,0,0.7-0.2,0.9-0.5h0v0.4H173.9z"/>
		<path class="st0" d="M175.8,355v-0.4h-0.6v-0.8h-0.5v0.8h-0.5v0.4h0.5v1.8c0,0.5,0.2,0.6,0.7,0.6h0.4V357h-0.2
			c-0.3,0-0.4,0-0.4-0.2V355H175.8z"/>
		<path class="st0" d="M177.5,354.6c-0.8,0-1.3,0.6-1.3,1.5c0,0.9,0.5,1.5,1.4,1.5c0.6,0,1.1-0.3,1.2-1h-0.5
			c-0.1,0.4-0.4,0.5-0.7,0.5c-0.6,0-0.9-0.4-0.9-0.9h2.1C178.9,355.5,178.6,354.6,177.5,354.6z M176.7,355.7c0-0.4,0.3-0.8,0.8-0.8
			c0.5,0,0.8,0.4,0.8,0.8H176.7z"/>
		<polygon class="st0" points="208.6,356.9 208.5,356.9 207.4,353.6 206.8,353.6 208.2,357.4 208.8,357.4 210.2,353.6 209.7,353.6
					"/>
		<path class="st0" d="M211.5,357.5c0.9,0,1.4-0.6,1.4-1.5c0-0.8-0.5-1.5-1.4-1.5c-0.9,0-1.4,0.6-1.4,1.5
			C210.1,356.8,210.6,357.5,211.5,357.5z M211.5,355c0.5,0,0.9,0.4,0.9,1.1c0,0.7-0.4,1.1-0.9,1.1c-0.5,0-0.9-0.4-0.9-1.1
			C210.6,355.3,211,355,211.5,355z"/>
		<rect x="213.5" y="353.6" class="st0" width="0.5" height="3.9"/>
		<path class="st0" d="M214.7,354.6v1.8c0,0.6,0.2,1,1,1c0.4,0,0.7-0.2,0.9-0.5h0v0.4h0.4v-2.8h-0.5v1.6c0,0.5-0.3,0.9-0.8,0.9
			c-0.4,0-0.6-0.2-0.6-0.6v-1.9H214.7z"/>
		<path class="st0" d="M217.8,354.6v2.8h0.5v-1.7c0-0.2,0.2-0.7,0.8-0.7c0.4,0,0.5,0.3,0.5,0.6v1.8h0.5v-1.7c0-0.4,0.3-0.7,0.7-0.7
			c0.5,0,0.6,0.3,0.6,0.6v1.8h0.5v-2c0-0.6-0.4-0.8-1-0.8c-0.4,0-0.7,0.2-0.9,0.5c-0.1-0.3-0.4-0.5-0.8-0.5c-0.4,0-0.7,0.2-0.9,0.5
			h0v-0.4H217.8z"/>
		<path class="st0" d="M223.7,354.6c-0.8,0-1.3,0.6-1.3,1.5c0,0.9,0.5,1.5,1.4,1.5c0.6,0,1.1-0.3,1.2-1h-0.5
			c-0.1,0.4-0.4,0.5-0.7,0.5c-0.6,0-0.9-0.4-0.9-0.9h2.1C225,355.5,224.7,354.6,223.7,354.6z M222.8,355.7c0-0.4,0.3-0.8,0.8-0.8
			c0.5,0,0.8,0.4,0.8,0.8H222.8z"/>
		<path class="st0" d="M250.9,357.1c-0.6,0-1.2-0.3-1.2-0.9h-0.5c0,0.9,0.7,1.4,1.6,1.4c0.7,0,1.5-0.3,1.5-1.2c0-0.8-0.6-1-1.3-1.1
			c-0.6-0.1-1.3-0.2-1.3-0.7c0-0.5,0.4-0.7,0.9-0.7c0.5,0,0.9,0.2,1,0.8h0.5c0-0.8-0.6-1.2-1.5-1.2c-0.7,0-1.4,0.3-1.4,1.1
			c0,0.7,0.6,0.9,1.3,1c0.6,0.1,1.3,0.2,1.3,0.8C251.9,356.9,251.4,357.1,250.9,357.1z"/>
		<path class="st0" d="M253,354.6v3.9h0.5V357h0c0.2,0.3,0.6,0.4,0.9,0.4c0.9,0,1.3-0.7,1.3-1.5c0-0.8-0.4-1.5-1.3-1.5
			c-0.4,0-0.8,0.1-0.9,0.4h0v-0.4H253z M254.3,355c0.6,0,0.9,0.5,0.9,1c0,0.5-0.2,1.1-0.9,1.1c-0.6,0-0.9-0.5-0.9-1.1
			C253.4,355.5,253.7,355,254.3,355z"/>
		<path class="st0" d="M257.4,354.6c-0.8,0-1.3,0.6-1.3,1.5c0,0.9,0.5,1.5,1.4,1.5c0.6,0,1.1-0.3,1.2-1h-0.5
			c-0.1,0.4-0.4,0.5-0.7,0.5c-0.6,0-0.9-0.4-0.9-0.9h2.1C258.7,355.5,258.4,354.6,257.4,354.6z M256.6,355.7c0-0.4,0.3-0.8,0.8-0.8
			c0.5,0,0.8,0.4,0.8,0.8H256.6z"/>
		<path class="st0" d="M260,355.8c-0.5,0.1-1,0.2-1,0.9c0,0.6,0.4,0.8,0.9,0.8c0.4,0,0.7-0.1,1-0.4c0,0.3,0.2,0.4,0.4,0.4
			c0.1,0,0.3,0,0.3-0.1V357c-0.1,0-0.1,0-0.1,0c-0.1,0-0.1-0.1-0.1-0.3v-1.4c0-0.7-0.6-0.8-1.1-0.8c-0.6,0-1.2,0.2-1.2,0.9h0.5
			c0-0.4,0.3-0.5,0.7-0.5c0.3,0,0.6,0.1,0.6,0.5C261,355.8,260.5,355.7,260,355.8z M261,356.4c0,0.3-0.3,0.6-0.9,0.6
			c-0.3,0-0.6-0.1-0.6-0.4c0-0.3,0.3-0.4,0.6-0.5c0.3-0.1,0.7-0.1,0.9-0.2V356.4z"/>
		<polygon class="st0" points="262.2,353.6 262.2,357.4 262.7,357.4 262.7,356.4 263.1,356 264.1,357.4 264.7,357.4 263.5,355.6
			264.6,354.6 264,354.6 262.7,355.8 262.7,353.6 		"/>
		<path class="st0" d="M266.2,354.6c-0.8,0-1.3,0.6-1.3,1.5c0,0.9,0.5,1.5,1.4,1.5c0.6,0,1.1-0.3,1.2-1H267
			c-0.1,0.4-0.4,0.5-0.7,0.5c-0.6,0-0.9-0.4-0.9-0.9h2.1C267.6,355.5,267.2,354.6,266.2,354.6z M265.4,355.7c0-0.4,0.3-0.8,0.8-0.8
			c0.5,0,0.8,0.4,0.8,0.8H265.4z"/>
		<path class="st0" d="M268,354.6v2.8h0.5v-1.2c0-0.7,0.3-1.1,1-1.1v-0.5c-0.5,0-0.8,0.2-1.1,0.7h0v-0.6H268z"/>
		<polygon class="st0" points="286,357.4 286,353.6 285.5,353.6 285.5,355.2 283.4,355.2 283.4,353.6 282.9,353.6 282.9,357.4
			283.4,357.4 283.4,355.6 285.5,355.6 285.5,357.4 		"/>
		<path class="st0" d="M288,354.6c-0.8,0-1.3,0.6-1.3,1.5c0,0.9,0.5,1.5,1.4,1.5c0.6,0,1.1-0.3,1.2-1h-0.5c-0.1,0.4-0.4,0.5-0.7,0.5
			c-0.6,0-0.9-0.4-0.9-0.9h2.1C289.3,355.5,289,354.6,288,354.6z M287.1,355.7c0-0.4,0.3-0.8,0.8-0.8c0.5,0,0.8,0.4,0.8,0.8H287.1z"
			/>
		<path class="st0" d="M290.6,355.8c-0.5,0.1-1,0.2-1,0.9c0,0.6,0.4,0.8,0.9,0.8c0.4,0,0.7-0.1,1-0.4c0,0.3,0.2,0.4,0.4,0.4
			c0.1,0,0.3,0,0.3-0.1V357c-0.1,0-0.1,0-0.1,0c-0.1,0-0.1-0.1-0.1-0.3v-1.4c0-0.7-0.6-0.8-1.1-0.8c-0.6,0-1.2,0.2-1.2,0.9h0.5
			c0-0.4,0.3-0.5,0.7-0.5c0.3,0,0.6,0.1,0.6,0.5C291.5,355.8,291.1,355.7,290.6,355.8z M291.5,356.4c0,0.3-0.3,0.6-0.9,0.6
			c-0.3,0-0.6-0.1-0.6-0.4c0-0.3,0.3-0.4,0.6-0.5c0.3-0.1,0.7-0.1,0.9-0.2V356.4z"/>
		<path class="st0" d="M295.3,357.4v-3.9h-0.5v1.4h0c-0.2-0.3-0.6-0.4-0.9-0.4c-0.9,0-1.3,0.7-1.3,1.5c0,0.8,0.4,1.5,1.3,1.5
			c0.4,0,0.8-0.1,0.9-0.4h0v0.4H295.3z M293.9,357.1c-0.6,0-0.9-0.5-0.9-1c0-0.5,0.2-1.1,0.9-1.1c0.6,0,0.9,0.5,0.9,1.1
			C294.8,356.5,294.6,357.1,293.9,357.1z"/>
		<path class="st0" d="M297,355c0.3,0,0.6,0.1,0.7,0.5h0.5c0-0.7-0.5-0.9-1.2-0.9c-0.5,0-1.1,0.2-1.1,0.8c0,0.5,0.5,0.7,0.9,0.8
			c0.5,0.1,0.9,0.2,0.9,0.5c0,0.4-0.4,0.4-0.7,0.4c-0.4,0-0.8-0.1-0.8-0.5h-0.5c0,0.7,0.6,0.9,1.2,0.9c0.6,0,1.2-0.2,1.2-0.9
			c0-0.5-0.5-0.7-0.9-0.8c-0.4-0.1-0.9-0.2-0.9-0.5C296.4,355,296.7,355,297,355z"/>
		<path class="st0" d="M299.9,354.6c-0.8,0-1.3,0.6-1.3,1.5c0,0.9,0.5,1.5,1.4,1.5c0.6,0,1.1-0.3,1.2-1h-0.5
			c-0.1,0.4-0.4,0.5-0.7,0.5c-0.6,0-0.9-0.4-0.9-0.9h2.1C301.3,355.5,301,354.6,299.9,354.6z M299.1,355.7c0-0.4,0.3-0.8,0.8-0.8
			c0.5,0,0.8,0.4,0.8,0.8H299.1z"/>
		<path class="st0" d="M301.9,353.8v0.8h-0.5v0.4h0.5v1.8c0,0.5,0.2,0.6,0.7,0.6h0.4V357h-0.2c-0.3,0-0.4,0-0.4-0.2V355h0.6v-0.4
			h-0.6v-0.8H301.9z"/>
		<path class="st0" d="M246.5,26.8V25c-1-0.2-1.4-1.1-1.5-2.3c0-1.2,0.4-2.1,1.5-2.3v-1.8c-2.2,0.1-3.8,1.7-3.8,4.1
			C242.7,25.2,244.3,26.6,246.5,26.8z"/>
		<path class="st0" d="M253.9,21.4c0-0.7,0.3-1.3,1.2-1.3c0.9,0,1.1,0.5,1.1,1.3v4.9h2.3v-4.8c0-0.8,0.4-1.4,1.2-1.4
			c0.8,0,1.2,0.5,1.2,1.6v4.5h2.3c0.1-2.1,0.1-4.1,0-6.1c-0.1-1.2-1-1.7-2.1-1.8c-1.3-0.1-2,0.1-2.9,1c-0.5-0.9-1.2-1-2.1-1
			c-1,0-1.6,0.2-2.3,0.9v-0.7h-2.3v7.8h2.3V21.4z"/>
		<path class="st0" d="M237.3,21.3c0-0.7,0.3-1.3,1.2-1.3c0.9,0,1.1,0.5,1.1,1.3v4.9h2.3v-5.7c0-1.2-0.5-2.3-2.4-2.3
			c-1-0.1-1.7,0.2-2.3,0.9v-0.7H235v7.8h2.3V21.3z"/>
		<path class="st0" d="M231.2,24.7c-0.3,0-0.5,0-0.8,0c-0.9-0.1-1.5-0.4-2.1-1.1c-0.5,0.4-1,0.8-1.5,1.3c1.2,1,2.2,1.5,3.9,1.5
			c1.7,0,3.6-0.7,3.6-2.8c0-2.9-4.7-1.8-4.7-3.2c0-0.4,0.4-0.6,1-0.6c0.7,0,1.8,0.3,2.2,0.8c0.5-0.5,1-0.9,1.4-1.4
			c-1.5-1.1-2.8-1.4-4.6-1.1c-1.7,0.2-2.9,2-2.1,3.6c0.5,0.8,1.2,1,2,1.2c0.5,0.1,1.9,0.2,2.3,0.6c0.3,0.3,0.2,0.5-0.1,0.8
			C231.7,24.6,231.4,24.7,231.2,24.7z"/>
		<path class="st0" d="M251,22c0-2.5-1.5-3.9-3.8-4.1v1.8c1,0.2,1.4,1.1,1.4,2.2c0,1.3-0.4,2.2-1.4,2.4v1.8
			C249.4,25.9,251,24.5,251,22z"/>
		<path class="st0" d="M267.5,22.7h0.6c0.1-1.4,0.8-2.9,1.7-3.8v-0.4h-2.9V19h2.3C268.3,19.9,267.6,21.3,267.5,22.7z"/>
		<path class="st0" d="M271.7,22.7h0.5v-4.3h-0.4c-0.1,0.7-0.7,0.8-1.3,0.8v0.4h1.1V22.7z"/>
		<path class="st0" d="M275.2,22.8c1.4,0,1.5-1.2,1.5-2.2c0-1-0.1-2.2-1.5-2.2c-1.4,0-1.5,1.2-1.5,2.2
			C273.8,21.6,273.8,22.8,275.2,22.8z M275.2,18.9c0.9,0,0.9,1.1,0.9,1.7c0,0.6,0,1.7-0.9,1.7c-0.9,0-0.9-1.1-0.9-1.7
			C274.3,20,274.3,18.9,275.2,18.9z"/>
		<polygon class="st0" points="319.5,167.1 319.5,163.3 318.8,163.3 317.5,166.5 316.3,163.3 315.6,163.3 315.6,167.1 316.1,167.1
			316.1,163.9 316.1,163.9 317.3,167.1 317.8,167.1 319,163.9 319,163.9 319,167.1 		"/>
		<path class="st0" d="M321.5,164.3c-0.8,0-1.3,0.6-1.3,1.5c0,0.9,0.5,1.5,1.4,1.5c0.6,0,1.1-0.3,1.2-1h-0.5
			c-0.1,0.4-0.4,0.5-0.7,0.5c-0.6,0-0.9-0.4-0.9-0.9h2.1C322.8,165.2,322.5,164.3,321.5,164.3z M320.6,165.5c0-0.4,0.3-0.8,0.8-0.8
			c0.5,0,0.8,0.4,0.8,0.8H320.6z"/>
		<path class="st0" d="M324.3,164.7c0.3,0,0.6,0.1,0.7,0.5h0.5c0-0.7-0.5-0.9-1.2-0.9c-0.5,0-1.1,0.2-1.1,0.8c0,0.5,0.5,0.7,0.9,0.8
			c0.5,0.1,0.9,0.2,0.9,0.5c0,0.4-0.4,0.4-0.7,0.4c-0.4,0-0.8-0.1-0.8-0.5h-0.5c0,0.7,0.6,0.9,1.2,0.9c0.6,0,1.2-0.2,1.2-0.9
			c0-0.5-0.5-0.7-0.9-0.8c-0.4-0.1-0.9-0.2-0.9-0.5C323.6,164.8,324,164.7,324.3,164.7z"/>
		<path class="st0" d="M327.1,166.8c-0.4,0-0.8-0.1-0.8-0.5h-0.5c0,0.7,0.6,0.9,1.2,0.9c0.6,0,1.2-0.2,1.2-0.9
			c0-0.5-0.5-0.7-0.9-0.8c-0.4-0.1-0.9-0.2-0.9-0.5c0-0.3,0.3-0.4,0.6-0.4c0.3,0,0.6,0.1,0.7,0.5h0.5c0-0.7-0.5-0.9-1.2-0.9
			c-0.5,0-1.1,0.2-1.1,0.8c0,0.5,0.5,0.7,0.9,0.8c0.5,0.1,0.9,0.2,0.9,0.5C327.8,166.7,327.4,166.8,327.1,166.8z"/>
		<path class="st0" d="M329.6,165.6c-0.5,0.1-1,0.2-1,0.9c0,0.6,0.4,0.8,0.9,0.8c0.4,0,0.7-0.1,1-0.4c0,0.3,0.2,0.4,0.4,0.4
			c0.1,0,0.3,0,0.3-0.1v-0.4c-0.1,0-0.1,0-0.1,0c-0.1,0-0.1-0.1-0.1-0.3V165c0-0.7-0.6-0.8-1.1-0.8c-0.6,0-1.2,0.2-1.2,0.9h0.5
			c0-0.4,0.3-0.5,0.7-0.5c0.3,0,0.6,0.1,0.6,0.5C330.6,165.5,330.1,165.5,329.6,165.6z M330.6,166.2c0,0.3-0.3,0.6-0.9,0.6
			c-0.3,0-0.6-0.1-0.6-0.4c0-0.3,0.3-0.4,0.6-0.5c0.3-0.1,0.7-0.1,0.9-0.2V166.2z"/>
		<path class="st0" d="M332.9,167.2c0.4,0,0.7-0.2,0.9-0.5h0v0.2c0,0.6-0.2,1.1-0.9,1.1c-0.3,0-0.7-0.1-0.7-0.5h-0.5
			c0,0.6,0.6,0.8,1.2,0.8c0.9,0,1.3-0.5,1.3-1.4v-2.6h-0.4v0.4h0c-0.2-0.3-0.5-0.5-0.9-0.5c-1,0-1.3,0.8-1.3,1.5
			C331.6,166.5,332,167.2,332.9,167.2z M333,164.7c0.6,0,0.8,0.5,0.8,1c0,0.5-0.2,1.1-0.9,1.1c-0.6,0-0.8-0.6-0.8-1.1
			C332.1,165.2,332.4,164.7,333,164.7z"/>
		<path class="st0" d="M336.2,167.2c0.6,0,1.1-0.3,1.2-1h-0.5c-0.1,0.4-0.4,0.5-0.7,0.5c-0.6,0-0.9-0.4-0.9-0.9h2.1
			c0-0.7-0.3-1.6-1.3-1.6c-0.8,0-1.3,0.6-1.3,1.5C334.8,166.6,335.2,167.2,336.2,167.2z M336.1,164.7c0.5,0,0.8,0.4,0.8,0.8h-1.6
			C335.3,165,335.6,164.7,336.1,164.7z"/>
		<rect x="201.2" y="368.4" class="st0" width="1" height="0.5"/>
		<rect x="203.1" y="368.1" class="st0" width="1" height="0.8"/>
		<rect x="205" y="367.9" class="st0" width="1" height="1.1"/>
		<rect x="206.9" y="367.6" class="st0" width="1" height="1.4"/>
		<rect x="208.8" y="367.3" class="st0" width="1" height="1.6"/>
		<rect x="210.7" y="367.1" class="st0" width="1" height="1.9"/>
		<rect x="212.6" y="366.8" class="st0" width="1" height="2.2"/>
		<rect x="214.5" y="366.5" class="st0" width="1" height="2.5"/>
		<rect x="216.4" y="366.2" class="st0" width="1" height="2.7"/>
		<rect x="218.3" y="366" class="st0" width="1" height="3"/>
		<rect x="220.2" y="365.7" class="st0" width="1" height="3.3"/>
		<rect x="222.1" y="365.4" class="st0" width="1" height="3.6"/>
		<rect x="224" y="365.1" class="st0" width="1" height="3.8"/>
		<rect x="225.9" y="364.9" class="st0" width="1" height="4.1"/>
		<rect x="227.8" y="364.6" class="st0" width="1" height="4.4"/>
		<rect x="229.7" y="364.3" class="st0" width="1" height="4.7"/>
		<path class="st0" d="M322.7,173.3C322.7,173.3,322.7,173.4,322.7,173.3l-0.1,6c0,0,0,0.1,0.1,0.1h8.1c0,0,0.1,0,0.1-0.1v-6
			c0,0,0-0.1-0.1-0.1H322.7z M323.9,173.9h5.7c0.1,0,0.1,0.1,0,0.1c-0.8,0.7-1.7,1.4-2.5,2c-0.3,0.2-0.5,0.2-0.7,0
			c-0.8-0.7-1.7-1.4-2.5-2C323.8,174,323.8,173.9,323.9,173.9z M330.3,178.8C330.3,178.8,330.3,178.9,330.3,178.8l-6.9,0.1
			c0,0-0.1,0-0.1-0.1v-4.4c0-0.1,0.1-0.1,0.1,0c0.9,0.7,1.8,1.4,2.7,2.1c0.5,0.4,1,0.4,1.5,0l2.7-2.2c0.1,0,0.1,0,0.1,0V178.8z"/>
		<path class="st0" d="M296.1,365.8c-0.1,0-0.3,0-0.4-0.1c0,0-0.1,0-0.1-0.1c-0.9-2.8-4.9-2.8-5.8,0c0,0,0,0.1-0.1,0.1
			c-0.1,0-0.3,0-0.4,0.1c-0.1,0-0.1,0-0.1,0.1c-0.2,0.8-0.1,1.4,0.3,2.2c0,0,0,0.1,0.1,0.1c0.1,0,0.3,0,0.4,0c0,0,0.1,0,0.1,0
			c0.5,0.8,1,1.1,1.9,1.3c0.1,0,0.1,0,0.1,0.1c0.3,0.5,1,0.3,1.1-0.2c0.1-0.5-0.6-0.9-1-0.5c-0.1,0.1-0.1,0.1-0.2,0
			c-0.6-0.1-1-0.4-1.3-0.8c0,0,0-0.1,0-0.1c-0.1-0.7-0.2-1.5-0.3-2.2c0,0,0-0.1,0-0.1c0.8-1.9,3.6-1.9,4.5,0c0,0,0,0.1,0,0.1
			c-0.1,0.7-0.2,1.4-0.3,2.1c0,0.1,0,0.1,0.1,0.1c0.3,0,0.7,0.1,1,0.1c0,0,0.1,0,0.1-0.1C296.2,367.3,296.3,366.6,296.1,365.8
			C296.1,365.8,296.1,365.8,296.1,365.8z"/>
		<path class="st0" d="M261.5,363.6c-0.7,0.5-1.4,1.1-2.1,1.6c0,0,0,0-0.1,0h-1.7c-0.1,0-0.1,0-0.1,0.1v2.7c0,0.1,0,0.1,0.1,0.1h1.7
			c0,0,0,0,0.1,0c0.7,0.5,1.4,1,2.1,1.6c0.1,0.1,0.2,0,0.2-0.1v-5.9C261.6,363.6,261.6,363.5,261.5,363.6z M261.1,368.4
			c0,0.1-0.1,0.1-0.2,0.1c-0.4-0.3-0.8-0.6-1.1-0.8c0,0,0,0,0-0.1v-1.9c0,0,0-0.1,0-0.1c0.4-0.3,0.8-0.6,1.1-0.9
			c0.1-0.1,0.2,0,0.2,0.1V368.4z"/>
		<path class="st0" d="M174.9,366.7C174.9,366.7,175,366.7,174.9,366.7l0.1-1c0,0,0-0.1-0.1-0.1h-0.4c0,0-0.1,0-0.1,0.1v0.6
			c0,0,0,0,0,0C174.6,366.5,174.7,366.6,174.9,366.7z"/>
		<path class="st0" d="M173.1,368.8c0.5-0.1,0.9-0.3,1.3-0.7c0,0,0-0.1,0-0.1c-0.1-0.1-0.2-0.2-0.3-0.2c0,0-0.1,0-0.1,0
			c-1,1.1-2.9,0.4-2.9-1.1v-1c0,0,0-0.1-0.1-0.1h-0.4c0,0-0.1,0-0.1,0.1v1c0,1.1,0.8,1.9,1.9,2.1c0,0,0.1,0,0.1,0.1v0.3
			c0,0,0,0.1-0.1,0.1h-1.1c0,0-0.1,0-0.1,0.1v0.4c0,0,0,0.1,0.1,0.1h2.8c0,0,0.1,0,0.1-0.1v-0.4c0,0,0-0.1-0.1-0.1h-1.1
			c0,0-0.1,0-0.1-0.1L173.1,368.8C173.1,368.9,173.1,368.8,173.1,368.8z"/>
		<path class="st0" d="M173.6,367.5C173.6,367.4,173.6,367.4,173.6,367.5c-0.6-0.6-1.2-1-1.8-1.5c0,0-0.1,0-0.1,0v0.8
			C171.7,367.7,172.9,368.2,173.6,367.5z"/>
		<path class="st0" d="M173.8,365.8C173.8,365.9,173.9,365.8,173.8,365.8l0.1-1.2c0-1.1-1.5-1.5-2-0.5c0,0,0,0,0,0.1
			C172.5,364.8,173.1,365.3,173.8,365.8z"/>
		<path class="st0" d="M170.3,363.6C170.3,363.6,170.3,363.6,170.3,363.6c-0.1,0.1-0.2,0.1-0.3,0.2c0,0,0,0.1,0,0.1
			c1.8,1.5,3.7,3,5.5,4.5c0,0,0.1,0,0.1,0c0.1-0.1,0.1-0.1,0.2-0.2c0,0,0-0.1,0-0.1C174,366.6,172.2,365.1,170.3,363.6z"/>
		<path class="st0" d="M249,179.8C249,179.7,249,179.7,249,179.8C249,179.7,249,179.7,249,179.8C249,179.7,249,179.7,249,179.8
			l-0.2-0.2c0,0,0,0,0,0c0,0,0,0,0,0c0,0-0.1-0.1-0.2-0.1c0,0,0,0,0,0c0,0,0,0,0,0c-0.1,0-0.2,0-0.3,0c0,0,0,0-0.1,0.1
			c0,0,0,0-0.1,0l-3.1,3.1l-3.1-3.1c0,0,0,0,0,0c0,0,0,0,0,0c0,0-0.1-0.1-0.1-0.1c0,0,0,0,0,0c0,0,0,0,0,0c0,0,0,0,0,0c0,0,0,0,0,0
			c0,0-0.1,0-0.2,0c0,0,0,0,0,0c0,0-0.1,0-0.1,0c0,0-0.1,0-0.1,0c0,0,0,0,0,0c-0.1,0-0.1,0-0.2,0.1l-0.2,0.2c0,0,0,0,0,0
			c0,0,0,0,0,0c0,0,0,0.1,0,0.1c0,0-0.1,0-0.1,0.1c0,0,0,0,0,0.1c0,0,0,0,0,0c0,0,0,0,0,0c0,0,0,0,0,0c0,0.1,0,0.1,0.1,0.2
			c0,0,0,0,0,0.1c0,0,0,0,0,0c0,0,0,0.1,0.1,0.1c0,0,0,0,0,0c0,0,0,0,0,0l2.6,2.6c0,0,0,0,0,0l0.4,0.4c0,0,0,0,0,0c0,0,0,0,0,0
			c0,0,0,0,0,0c0,0,0,0,0,0l0.4,0.4c0,0,0,0,0,0c0,0,0,0,0.1,0.1c0.1,0,0.1,0,0.2,0c0.1,0,0.2,0,0.2-0.1c0,0,0-0.1,0-0.1
			c0,0,0,0.1,0,0.1c0,0,0,0,0,0c0,0,0,0,0,0c0.1,0.1,0.1,0.1,0.2,0.1c0,0,0.1,0,0.1,0c0,0,0.1,0,0.1,0l0,0c0,0,0,0,0,0c0,0,0,0,0,0
			l3.5-3.4c0.1-0.1,0.2-0.2,0.2-0.3c0-0.1-0.1-0.1-0.1-0.2C249.1,179.8,249,179.8,249,179.8z M245.1,183.4L245.1,183.4L245.1,183.4
			L245.1,183.4C245.1,183.4,245.1,183.4,245.1,183.4C245.1,183.4,245.1,183.4,245.1,183.4c-0.1,0.1-0.1,0.1-0.1,0c0,0,0,0,0,0
			c0,0,0,0,0,0c0,0,0,0,0,0l-0.4-0.4c0,0,0,0,0,0l0,0c0,0,0,0,0,0c0,0,0,0,0,0l-0.4-0.4c0,0,0,0,0,0l-2.5-2.5l0,0l3.1,3.1
			c0.1,0.1,0.2,0.2,0.3,0.2c0.1,0,0.2-0.1,0.3-0.1c0,0,0,0,0,0l3.1-3.1l0,0L245.1,183.4z"/>
		<path class="st0" d="M259.5,168.4C259.5,168.4,259.5,168.4,259.5,168.4L259.5,168.4C259.5,168.4,259.5,168.4,259.5,168.4
			c-0.1,0.1-0.1,0.1-0.1,0.1c0,0,0,0,0,0c0,0,0,0,0,0c0,0.1,0,0.1,0,0.2c0,0.1,0,0.2,0.1,0.2c0,0,0,0.1,0.1,0.1l0,0c0,0,0,0,0,0
			s0,0,0,0l0.2,0.2c0,0,0,0,0,0c0,0,0,0,0,0c0,0,0.1,0,0.1,0c0,0,0,0,0.1,0c0,0,0,0,0.1,0c0,0,0,0,0,0c0,0,0,0,0,0
			c0.1,0,0.2,0,0.3-0.1c0,0,0,0,0,0l2.6-2.6c0,0,0,0,0,0l0.4-0.4c0,0,0,0,0,0c0,0,0,0,0,0l0.4-0.4c0,0,0,0,0,0c0,0,0,0,0,0
			c0.3-0.3,0.3-0.6,0-0.9c0,0,0,0,0,0l-3.5-3.4c0,0,0,0,0,0s0,0,0,0l0,0c0,0,0,0,0,0c-0.2-0.2-0.4-0.2-0.6-0.1c0,0,0,0,0,0
			c0,0-0.1,0-0.1,0c0,0,0,0,0,0c0,0,0,0,0,0l-0.2,0.2c0,0,0,0,0,0c0,0,0,0,0,0c0,0,0,0-0.1,0.1c0,0,0,0,0,0c0,0,0,0,0,0c0,0,0,0,0,0
			c0,0,0,0,0,0c0,0,0,0.1,0,0.1c0,0,0,0,0,0c0,0,0,0,0,0c0,0,0,0,0,0.1c0,0,0,0,0,0c0,0,0,0,0,0c0,0,0,0.1,0,0.1c0,0,0,0,0,0.1
			c0,0,0,0.1,0,0.1c0,0,0,0,0,0c0,0,0,0,0,0c0,0,0.1,0.1,0.1,0.1c0,0,0,0,0,0c0,0,0,0,0,0l3.1,3L259.5,168.4
			C259.5,168.4,259.5,168.4,259.5,168.4z M263.1,165.7C263.1,165.7,263.1,165.7,263.1,165.7c0.1-0.1,0.2-0.2,0.2-0.3
			c0-0.1-0.1-0.2-0.2-0.3c0,0,0,0,0,0l-3.1-3l0,0l3.4,3.3c0,0,0,0,0,0c0,0,0,0.1,0.1,0.1c0,0,0,0,0,0.1c0,0,0,0,0,0c0,0,0,0,0,0l0,0
			c0,0,0,0,0,0l0,0l-0.4,0.4c0,0,0,0,0,0c0,0,0,0,0,0l-0.4,0.4c0,0,0,0,0,0c0,0,0,0,0,0l-2.5,2.5l0,0L263.1,165.7L263.1,165.7z"/>
		<path class="st0" d="M244.6,147C244.6,147,244.6,147,244.6,147C244.6,147,244.6,147,244.6,147C244.6,147,244.6,147,244.6,147
			C244.6,147,244.6,147,244.6,147C244.5,147,244.5,147,244.6,147C244.5,147,244.5,147,244.6,147l-3.5,3.4c0,0,0,0,0,0
			c-0.1,0.1-0.2,0.2-0.2,0.3c0,0.1,0.1,0.1,0.1,0.2c0,0,0,0.1,0.1,0.1c0,0,0,0,0,0c0,0,0,0,0,0c0,0,0,0,0,0l0.2,0.2c0,0,0,0,0,0
			c0,0,0.1,0,0.1,0.1c0,0,0,0,0,0c0,0,0,0,0,0c0,0,0,0,0,0c0,0,0,0,0,0c0,0,0.1,0.1,0.1,0.1c0,0,0,0,0,0c0,0,0,0,0,0c0,0,0,0,0,0
			c0,0,0,0,0,0c0,0,0,0,0.1,0c0,0,0,0,0,0c0,0,0,0,0,0c0,0,0,0,0,0c0,0,0.1,0,0.1,0c0,0,0.1,0,0.1,0c0,0,0,0,0,0c0,0,0,0,0,0
			c0,0,0,0,0,0c0,0,0.1-0.1,0.1-0.1c0,0,0,0,0,0l0,0c0,0,0,0,0,0c0,0,0,0,0,0l3.1-3.1l3.1,3.1c0,0,0,0,0,0c0,0,0.1,0.1,0.1,0.1
			c0,0,0,0,0,0c0,0,0,0,0,0c0.1,0,0.1,0,0.2,0c0.1,0,0.2,0,0.2-0.1c0,0,0.1,0,0.1-0.1l0,0c0,0,0,0,0,0c0,0,0,0,0,0l0.2-0.2
			c0,0,0,0,0,0c0,0,0,0,0,0c0,0,0,0,0,0c0,0,0,0,0,0c0,0,0,0,0,0c0,0,0,0,0,0c0,0,0-0.1,0.1-0.1c0,0,0,0,0,0c0,0,0,0,0,0
			c0,0,0,0,0,0c0,0,0,0,0,0c0-0.2,0-0.3-0.1-0.4c0,0,0,0,0,0l-2.6-2.6c0,0,0,0,0,0l-0.4-0.4c0,0,0,0,0,0c0,0,0,0,0,0c0,0,0,0,0,0
			c0,0,0,0,0,0l-0.4-0.4c0,0,0,0,0,0c0,0,0,0,0,0v0c0,0,0,0,0,0c0,0,0,0,0,0c0,0,0,0,0,0C245.2,146.7,244.9,146.7,244.6,147z
			 M245.5,147.8l0.4,0.4c0,0,0,0,0,0l2.5,2.5l0,0l-3.1-3.1c0,0,0,0,0,0c0,0,0,0,0,0l0,0c0,0,0,0,0,0c-0.2-0.2-0.5-0.2-0.7,0
			c0,0,0,0,0,0l0,0c0,0,0,0,0,0c0,0,0,0,0,0l-3.1,3.1l0,0l3.4-3.3h0v0l0,0c0,0,0,0,0,0c0,0,0,0,0,0c0,0,0.1,0,0.1-0.1
			c0,0,0,0,0.1,0.1c0,0,0,0,0,0c0,0,0,0,0,0c0,0,0,0,0,0c0,0,0,0,0,0L245.5,147.8L245.5,147.8C245.5,147.8,245.5,147.8,245.5,147.8
			C245.5,147.8,245.5,147.8,245.5,147.8z"/>
		<path class="st0" d="M230.5,162.4C230.5,162.4,230.5,162.4,230.5,162.4c0,0,0.1-0.1,0.1-0.1c0,0,0,0,0,0c0,0,0,0,0,0c0,0,0,0,0,0
			c0,0,0,0,0,0c0-0.1,0-0.1,0-0.2c0-0.1,0-0.2-0.1-0.2c0,0,0,0,0,0c0,0,0-0.1,0-0.1c0,0,0,0,0,0c0,0,0,0,0,0l-0.2-0.2c0,0,0,0,0,0
			c0,0,0,0,0,0c-0.1,0-0.1-0.1-0.2-0.1c0,0,0,0,0,0c0,0,0,0,0,0c0,0,0,0,0,0c0,0,0,0,0,0c0,0,0,0,0,0c-0.1,0-0.3,0-0.4,0.1
			c0,0,0,0,0,0l-2.6,2.6c0,0,0,0,0,0l-0.4,0.4c0,0,0,0,0,0c0,0,0,0,0,0l-0.4,0.4c0,0,0,0,0,0c0,0,0,0,0,0c0,0,0,0,0,0c0,0,0,0,0,0
			c-0.3,0.3-0.3,0.6,0,0.9c0,0,0,0,0,0l3.5,3.4c0,0,0,0,0,0c0.1,0.1,0.2,0.1,0.3,0.1c0.1,0,0.2,0,0.3-0.1c0,0,0,0,0,0c0,0,0,0,0,0
			c0,0,0,0,0,0c0,0,0,0,0,0l0.2-0.2c0,0,0,0,0-0.1c0,0,0,0,0,0c0,0,0.1-0.1,0.1-0.1l0,0c0,0,0,0,0,0l0,0c0,0,0,0,0,0c0,0,0,0,0,0
			c0,0,0,0,0,0c0,0,0,0,0,0c0,0,0,0,0-0.1c0,0,0,0,0,0c0,0,0,0,0,0c0,0,0-0.1,0-0.1c0,0,0,0,0,0c0,0,0,0,0,0c0,0-0.1-0.1-0.1-0.1
			c0,0,0,0,0,0c0,0,0,0,0,0l-3.1-3L230.5,162.4C230.5,162.4,230.5,162.4,230.5,162.4z M226.9,165.1
			C226.9,165.1,226.9,165.1,226.9,165.1c-0.1,0.1-0.2,0.2-0.2,0.3c0,0.1,0.1,0.2,0.2,0.3c0,0,0,0,0,0c0,0,0,0,0,0l3.1,3l0,0
			l-3.4-3.3c0,0,0,0,0,0c0,0,0-0.1-0.1-0.1c0,0,0,0,0-0.1c0,0,0,0,0,0c0,0,0,0,0,0l0.4-0.4c0,0,0,0,0,0c0,0,0,0,0,0l0,0l0.4-0.4h0
			l2.6-2.5l0,0L226.9,165.1C226.9,165.1,226.9,165.1,226.9,165.1z"/>
		<path class="st0" d="M245,142.1c-6.4,0-12.3,2.4-16.8,6.8c-4.5,4.4-7,10.3-7,16.5c0,12.8,10.7,23.3,23.8,23.3
			c13.1,0,23.8-10.5,23.8-23.3c0,0,0,0,0,0c0,0,0,0,0,0C268.8,152.6,258.1,142.1,245,142.1C245,142.1,245,142.1,245,142.1z
			 M267.4,165.4C267.4,165.4,267.4,165.4,267.4,165.4C267.4,165.4,267.4,165.4,267.4,165.4c0,12.1-10.1,21.9-22.4,21.9
			c-12.4,0-22.4-9.8-22.4-21.9c0-5.9,2.3-11.4,6.6-15.5c4.2-4.1,9.9-6.4,15.9-6.4h0C257.4,143.5,267.4,153.3,267.4,165.4z"/>
		<path class="st0" d="M286.2,148h-7.8c-1.9,0-3.5,1.6-3.5,3.5c0,0,0,0,0,0v27.8c0,0,0,0,0,0s0,0,0,0c0,1.9,1.6,3.5,3.5,3.5h7.8
			c3.6,0,6.5-2.8,6.5-6.3v-22C292.6,150.9,289.7,148,286.2,148z M291.2,176.4c0,2.7-2.3,5-5.1,5h-7.8c-1.2,0-2.2-0.9-2.2-2.1
			c0,0,0,0,0,0s0,0,0,0v-27.8c0-1.2,1-2.1,2.2-2.1h7.8c2.8,0,5.1,2.2,5.1,5V176.4z"/>
		<path class="st0" d="M211.7,148C211.7,148,211.7,148,211.7,148l-7.8,0c-3.6,0-6.5,2.8-6.5,6.3v22c0,3.5,2.9,6.3,6.5,6.3h7.8
			c0,0,0,0,0,0c1.9,0,3.5-1.5,3.5-3.4c0,0,0,0,0,0v-27.8c0,0,0,0,0,0C215.2,149.6,213.6,148,211.7,148z M211.7,181.4h-7.8
			c-2.8,0-5.1-2.2-5.1-5v-22c0-2.7,2.3-5,5.1-5h7.8c1.2,0,2.2,0.9,2.2,2.1c0,0,0,0,0,0v27.8c0,0,0,0,0,0
			C213.9,180.4,212.9,181.4,211.7,181.4z"/>
		<polygon class="st0" points="286.6,161.7 283.8,164.4 281,161.7 280.1,162.6 282.8,165.3 280.1,168 281,168.9 283.8,166.2
			286.6,168.9 287.5,168 284.7,165.3 287.5,162.6 		"/>
		<polygon class="st0" points="204.9,167 202.1,164.3 201,165.3 204.9,169 211.5,162.6 210.4,161.5 		"/>
		<path class="st0" d="M269.3,112.6h-14.5c-3.3,0-6.1,2.7-6.1,6c0,3.3,2.7,6,6.1,6h14.5c3.3,0,6.1-2.7,6.1-6
			C275.4,115.3,272.7,112.6,269.3,112.6z M269.3,123.2h-14.5c-2.6,0-4.7-2.1-4.7-4.6s2.1-4.6,4.7-4.6h14.5c2.6,0,4.7,2.1,4.7,4.6
			S271.9,123.2,269.3,123.2z"/>
		<path class="st0" d="M303.7,112.6h-14.5c0,0,0,0,0,0c-3.3,0-6.1,2.7-6.1,6c0,3.3,2.7,5.9,6.1,6c0,0,0,0,0,0h14.5
			c3.3,0,6.1-2.7,6.1-6C309.7,115.3,307,112.6,303.7,112.6z M303.7,123.1h-14.5c-2.5,0-4.6-2-4.6-4.5c0-2.5,2.1-4.5,4.6-4.5h14.5
			c2.5,0,4.6,2,4.6,4.5C308.3,121.1,306.2,123.1,303.7,123.1z"/>
		<path class="st0" d="M235,112.6h-14.5c-3.3,0-6.1,2.7-6.1,6c0,3.3,2.7,6,6.1,6H235c3.3,0,6.1-2.7,6.1-6
			C241.1,115.3,238.4,112.6,235,112.6z M235,123.2h-14.3c-0.1,0-0.1,0-0.2,0c0,0-0.1,0-0.1,0c-2.5-0.1-4.6-2.1-4.6-4.6
			c0-2.5,2.1-4.6,4.7-4.6H235c2.6,0,4.7,2.1,4.7,4.6S237.6,123.2,235,123.2z"/>
		<path class="st0" d="M200.7,112.6h-14.5c-3.3,0-6.1,2.7-6.1,6c0,3.3,2.7,6,6.1,6h14.5c3.3,0,6.1-2.7,6.1-6
			C206.8,115.3,204,112.6,200.7,112.6z M200.7,123.2h-14.5c-2.6,0-4.7-2.1-4.7-4.6s2.1-4.6,4.7-4.6h14.5c2.6,0,4.7,2.1,4.7,4.6
			S203.3,123.2,200.7,123.2z"/>
		<path class="st0" d="M325.2,88.9V38.6c0-1.2-1-2.2-2.2-2.2H166.9c0,0,0,0,0,0c-1.2,0-2.2,1-2.2,2.2v50.3c0,1.2,1,2.2,2.3,2.2h25.9
			c-0.1,0.2-0.1,0.4-0.1,0.5c0,0,0,0.1,0,0.1c0,0,0,0,0,0c0,0,0,0,0,0V107c0,0.5,0.3,0.8,0.8,0.8c0.5,0,0.8-0.3,0.8-0.8V91.8
			c0,0,0,0,0,0c0,0,0,0,0,0c0,0,0-0.1,0-0.1c0-0.1,0-0.3-0.1-0.5h32.9c-0.1,0.2-0.1,0.4-0.1,0.5c0,0,0,0.1,0,0.1c0,0,0,0,0,0
			c0,0,0,0,0,0V107c0,0.5,0.3,0.8,0.8,0.8c0.5,0,0.8-0.3,0.8-0.8V91.8c0,0,0,0,0,0c0,0,0,0,0,0c0,0,0-0.1,0-0.1c0-0.1,0-0.3-0.1-0.5
			h32.9c-0.1,0.2-0.1,0.4-0.1,0.5c0,0,0,0.1,0,0.1V107c0,0.5,0.3,0.8,0.8,0.8c0.5,0,0.8-0.3,0.8-0.8V91.8c0,0,0,0,0,0c0,0,0,0,0,0
			c0,0,0-0.1,0-0.1c0-0.1,0-0.3-0.1-0.5h32.9c-0.1,0.2-0.1,0.4-0.1,0.5c0,0,0,0.1,0,0.1V107c0,0.5,0.3,0.8,0.8,0.8
			c0.5,0,0.8-0.3,0.8-0.8V91.8c0,0,0,0,0,0c0,0,0,0,0,0c0,0,0-0.1,0-0.1c0-0.1,0-0.3-0.1-0.5H323C324.2,91.1,325.2,90.1,325.2,88.9z
			 M165.2,88.9V38.6c0-0.9,0.7-1.6,1.7-1.6c0,0,0,0,0,0H323c0.9,0,1.7,0.7,1.7,1.6v50.3c0,0.9-0.7,1.6-1.7,1.6H166.9
			C165.9,90.5,165.2,89.8,165.2,88.9z M193.4,107.2c-0.2,0-0.2,0-0.2-0.2V91.8c0,0,0,0,0,0c0-0.1,0-0.1,0-0.2c0-0.2,0-0.2,0-0.3
			c0,0,0,0,0,0c0,0,0,0,0,0c0,0,0,0,0.2,0c0.1,0,0.1,0,0.2,0c0,0,0,0,0,0c0.1,0.1,0.1,0.1,0,0.3c0,0.1,0,0.1,0,0.2c0,0,0,0,0,0
			c0,0,0,0,0,0V107C193.6,107.2,193.6,107.2,193.4,107.2z M227.8,107.2c-0.2,0-0.2,0-0.2-0.2V91.8c0,0,0,0,0,0c0-0.1,0-0.1,0-0.2
			c0-0.2,0-0.2,0-0.3c0,0,0,0,0,0c0,0,0,0,0,0c0,0,0,0,0.2,0c0.1,0,0.1,0,0.2,0c0.1,0.1,0.1,0.1,0,0.3c0,0.1,0,0.1,0,0.2
			c0,0,0,0,0,0c0,0,0,0,0,0V107C228,107.2,228,107.2,227.8,107.2z M262.1,107.2c-0.2,0-0.2,0-0.2-0.2V91.8v0c0-0.1,0-0.1,0-0.2
			c0-0.2,0-0.2,0-0.3c0,0,0,0,0,0c0,0,0,0,0.2,0c0.1,0,0.1,0,0.2,0c0,0,0,0,0,0c0.1,0.1,0.1,0.1,0,0.3c0,0.1,0,0.1,0,0.2
			c0,0,0,0,0,0c0,0,0,0,0,0V107C262.3,107.2,262.3,107.2,262.1,107.2z M296.4,107.2c-0.2,0-0.2,0-0.2-0.2V91.8v0c0-0.1,0-0.1,0-0.2
			c0-0.2,0-0.2,0-0.3c0,0,0,0,0.2,0c0.1,0,0.1,0,0.2,0c0,0,0,0,0,0c0.1,0.1,0.1,0.1,0,0.3c0,0.1,0,0.1,0,0.2c0,0,0,0,0,0
			c0,0,0,0,0,0V107C296.6,107.2,296.6,107.2,296.4,107.2z"/>
		<path class="st0" d="M331.1,237.3C331.1,237.3,331.1,237.3,331.1,237.3C331.1,237.3,331.1,237.3,331.1,237.3c-0.6,0-1.1,0-1.7,0
			c-1.2,0-2.4-0.1-3.6,0c-1.4,0.1-2,1.1-2,2.1c0,1,0.8,2,2.2,2c0,0,0,0,0,0s0,0,0,0c0.6,0,1.1,0,1.7,0c0.6,0,1.1,0,1.7,0
			c0.6,0,1.2,0,1.8-0.1c1.4-0.1,2-1.1,2-2.1C333.2,238.3,332.5,237.3,331.1,237.3z M331.2,240.7c-1.2,0.1-2.3,0.1-3.5,0
			c-0.6,0-1.2,0-1.7,0c0,0,0,0,0,0s0,0,0,0c-0.9,0-1.4-0.6-1.4-1.2c0-0.6,0.4-1.3,1.3-1.3c1.2-0.1,2.3-0.1,3.5,0c0.6,0,1.2,0,1.7,0
			c0,0,0,0,0,0s0,0,0,0c0.9,0,1.4,0.6,1.4,1.2C332.5,239.9,332.1,240.6,331.2,240.7z"/>
		<path class="st0" d="M331.1,336C331.1,336,331.1,336,331.1,336C331.1,336,331.1,336,331.1,336c-0.6,0-1.1,0-1.7,0
			c-1.2,0-2.4-0.1-3.6,0c-1.4,0.1-2,1.1-2,2.1c0,1,0.8,2,2.2,2c0,0,0,0,0,0s0,0,0,0c0.6,0,1.1,0,1.7,0c0.6,0,1.1,0,1.7,0
			c0.6,0,1.2,0,1.8-0.1c1.4-0.1,2-1.1,2-2.1C333.2,337,332.5,336,331.1,336z M331.2,339.4c-1.2,0.1-2.3,0.1-3.5,0
			c-0.6,0-1.2,0-1.7,0c0,0,0,0,0,0s0,0,0,0c-0.9,0-1.4-0.6-1.4-1.2c0-0.6,0.4-1.3,1.3-1.3c1.2-0.1,2.4-0.1,3.5,0c0.6,0,1.2,0,1.7,0
			c0,0,0,0,0,0s0,0,0,0c0.9,0,1.4,0.6,1.4,1.2C332.5,338.7,332.1,339.3,331.2,339.4z"/>
		<path class="st0" d="M331.1,311.3C331.1,311.3,331.1,311.3,331.1,311.3C331.1,311.3,331.1,311.3,331.1,311.3c-0.6,0-1.1,0-1.7,0
			c-1.2,0-2.4-0.1-3.6,0c-1.4,0.1-2,1.1-2,2.1c0,1,0.8,2,2.2,2c0,0,0,0,0,0s0,0,0,0c0.6,0,1.1,0,1.7,0c0.6,0,1.1,0,1.7,0
			c0.6,0,1.2,0,1.8-0.1c1.4-0.1,2-1.1,2-2.1C333.2,312.3,332.5,311.3,331.1,311.3z M331.2,314.7c-1.2,0.1-2.3,0.1-3.5,0
			c-0.6,0-1.2,0-1.7,0c0,0,0,0,0,0s0,0,0,0c-0.9,0-1.4-0.6-1.4-1.2c0-0.6,0.4-1.3,1.3-1.3c1.2-0.1,2.3-0.1,3.5,0c0.6,0,1.2,0,1.7,0
			c0,0,0,0,0,0s0,0,0,0c0.9,0,1.4,0.6,1.4,1.2C332.5,314,332.1,314.6,331.2,314.7z"/>
		<path class="st0" d="M331.1,286.7C331.1,286.7,331.1,286.7,331.1,286.7C331.1,286.7,331.1,286.7,331.1,286.7c-0.6,0-1.1,0-1.7,0
			c-1.2,0-2.4,0-3.6,0c-1.4,0.1-2,1.1-2,2.1c0,1,0.8,2,2.2,2c0,0,0,0,0,0c0.6,0,1.1,0,1.7,0c0.6,0,1.2,0,1.7,0c0.6,0,1.2,0,1.8-0.1
			c1.4-0.1,2-1.1,2-2.1C333.2,287.7,332.5,286.7,331.1,286.7z M331.2,290c-1.2,0.1-2.3,0.1-3.5,0c-0.6,0-1.2,0-1.7,0c0,0,0,0,0,0
			c-0.9,0-1.4-0.6-1.4-1.2c0-0.6,0.4-1.3,1.3-1.3c1.2-0.1,2.4-0.1,3.5,0c0.6,0,1.2,0,1.7,0c0,0,0,0,0,0s0,0,0,0
			c0.9,0,1.4,0.6,1.4,1.2C332.5,289.3,332.1,289.9,331.2,290z"/>
		<path class="st0" d="M331.1,262C331.1,262,331.1,262,331.1,262C331.1,262,331.1,262,331.1,262c-0.6,0-1.1,0-1.7,0
			c-1.2,0-2.4-0.1-3.6,0c-1.4,0.1-2,1.1-2,2.1c0,1,0.8,2,2.2,2c0,0,0,0,0,0c0.6,0,1.1,0,1.7,0c0.6,0,1.1,0,1.7,0
			c0.6,0,1.2,0,1.8-0.1c1.4-0.1,2-1.1,2-2.1C333.2,263,332.5,262,331.1,262z M331.2,265.3c-1.2,0.1-2.3,0.1-3.5,0
			c-0.6,0-1.2,0-1.7,0c0,0,0,0,0,0c-0.9,0-1.4-0.6-1.4-1.2c0-0.6,0.4-1.3,1.3-1.3c1.2-0.1,2.4-0.1,3.5,0c0.6,0,1.2,0,1.7,0
			c0,0,0,0,0,0s0,0,0,0c0.9,0,1.4,0.6,1.4,1.2C332.5,264.6,332.1,265.3,331.2,265.3z"/>
	</g>
</g>
<g id="Ebene_2">
	<g>
		<circle id="bgnumber_4_" class="st1" cx="328.5" cy="328.4" r="7.1"/>
		<text transform="matrix(1 0 0 1 322.8923 331.8597)" class="st2 st3 st4 button" data-number="4">05</text>
	</g>
	<g>
		<circle id="bgnumber_3_" class="st1" cx="328.5" cy="303.8" r="7.1"/>
		<text transform="matrix(1 0 0 1 322.6622 307.2923)" class="st2 st3 st4 button" data-number="3">04</text>
	</g>
	<g>
		<circle id="bgnumber_2_" class="st1" cx="328.5" cy="279.1" r="7.1"/>
		<text transform="matrix(1 0 0 1 322.7972 282.6246)" class="st2 st3 st4 button" data-number="2">03</text>
	</g>
	<g>
		<circle id="bgnumber_1_" class="st1" cx="328.5" cy="254.5" r="7.1"/>
		<text transform="matrix(1 0 0 1 322.9424 257.9571)" class="st2 st3 st4 button" data-number="1">02</text>
	</g>
	<g>
		<circle id="bgnumber" class="st1" cx="328.5" cy="229.9" r="7.1"/>
		<text transform="matrix(1 0 0 1 323.597 233.2894)" class="st2 st3 st4 button" data-number="0">01</text>
	</g>
</g>
</svg>
