<?xml version="1.0" encoding="utf-8"?>
<!-- Generator: Adobe Illustrator 20.0.0, SVG Export Plug-In . SVG Version: 6.00 Build 0)  -->
<!DOCTYPE svg PUBLIC "-//W3C//DTD SVG 1.1//EN" "http://www.w3.org/Graphics/SVG/1.1/DTD/svg11.dtd">
<svg version="1.1" xmlns="http://www.w3.org/2000/svg" xmlns:xlink="http://www.w3.org/1999/xlink" x="0px" y="0px"
	 viewBox="0 0 355.1 451" style="enable-background:new 0 0 355.1 451;" xml:space="preserve">
<style type="text/css">
	.button{cursor: pointer}
	.st0{fill:#B3B2B2;}
	.st1{fill:#FFFFFF;}
	.st2{fill:#1BAFE6;}
	.st3{font-family:'BrixSansRegular';}
	.st4{font-size:10px;}
	.active{fill: red;}
</style>
<g id="snom720">
	<g>
		<path class="st0" d="M33,210c0.9,1.5,3.2,1.2,3.9-0.3c0,0,0,0,0,0c4.5-10.3,13.2-18.4,23.8-22.2c3.5-1.3,7.1-2,10.8-2.4
			c0,0,0,0,0,0c2.8-0.2,2.5-4.6-0.4-4.3h0c-12.7,1.1-24.6,7.3-32.4,17.4c-2.3,3-4.3,6.3-5.8,9.8l0,0c-0.1,0.1-0.1,0.3-0.1,0.4l0,0
			C32.5,209,32.6,209.5,33,210z M71.1,181.4c0.6-0.1,1,0.1,1.4,0.6c0,0,0,0,0,0c0.8,0.9,0.2,2.3-0.9,2.6c0,0,0,0,0,0
			c-0.1,0-0.1,0-0.2,0c0,0,0,0,0,0c-11.8,1-22.9,7-30.1,16.5c-2,2.6-3.6,5.4-4.9,8.4l0,0c0,0.1-0.1,0.1-0.1,0.2l0,0
			c-0.6,1-2.1,1-2.8,0l0,0c-0.3-0.4-0.3-0.7-0.2-1.2l0,0l0,0c0-0.1,0.1-0.2,0.1-0.3c0,0,0,0,0,0c5-11.7,15.1-20.8,27.2-24.7
			C63.9,182.4,67.5,181.7,71.1,181.4"/>
		<path class="st0" d="M73.4,209.2C73.4,209.2,73.4,209.2,73.4,209.2c-0.2-0.8-0.6-1.3-1.4-1.5l0,0c-0.4-0.2-0.8-0.2-1.3-0.1
			c0,0,0,0,0,0c-4.9,1.1-9.2,4.2-11.8,8.4v0l0,0c-0.5,0.8-0.5,1.7,0.1,2.4c0.8,1.1,2.5,1.2,3.5,0.1l0,0c0.1-0.1,0.2-0.2,0.2-0.3l0,0
			c1.1-1.7,2.5-3.2,4.2-4.4c0.8-0.6,1.7-1,2.6-1.4c0.9-0.3,1.9-0.4,2.7-0.9l0,0c0.3-0.2,0.6-0.4,0.8-0.8c0.2-0.3,0.3-0.7,0.3-1l0,0
			l0,0C73.5,209.7,73.4,209.4,73.4,209.2z M62.2,218L62.2,218c0,0.1-0.1,0.2-0.2,0.2c-1.3,1.3-3.7-0.2-2.7-1.9l0,0
			c2.5-4.1,6.7-7.1,11.5-8.2c0,0,0,0,0,0c0.3-0.1,0.6-0.1,1,0.1c0,0,0,0,0,0c0.6,0.2,0.9,0.5,1,1.1l0,0l0,0c0,0.2,0,0.3,0,0.5v0
			c0,0.4-0.2,0.8-0.5,1.1c0,0,0,0,0,0l0,0c-0.5,0.5-1.4,0.5-2.1,0.8c-1.1,0.4-2.2,0.9-3.2,1.5C65.1,214.3,63.4,216,62.2,218"/>
		<path class="st0" d="M42.8,212.5c0.2-0.2,0.4-0.4,0.5-0.7l0,0c2.4-5.4,6.3-10.1,11.1-13.5c2.4-1.7,5-3.2,7.8-4.2
			c1.5-0.6,3-1.1,4.6-1.4c1.6-0.4,3.4-0.4,5-0.8c0,0,0,0,0,0c1.5-0.4,2.2-2.2,1.2-3.4l0,0c-0.5-0.7-1.2-1-2-0.9h0
			c-12.5,1.3-24.1,8.6-30.2,19.6c-0.6,1.1-2.1,3.1-1.6,4.4C39.6,213,41.7,213.6,42.8,212.5C42.8,212.5,42.8,212.5,42.8,212.5z
			 M41.1,212.5c-1.1-0.1-1.7-1.3-1.3-2.2l0,0c4-8.9,11.3-15.8,20.5-19.6c0,0,0,0,0,0c3.5-1.4,7-2.3,10.8-2.7l0,0
			c0.7-0.1,1.1,0.1,1.5,0.6c0.6,0.9,0.2,2.2-0.9,2.5l0,0c-0.1,0-0.2,0-0.3,0c0,0,0,0,0,0c-12.3,1.2-23.5,9-28.6,20.3v0
			c0,0.1-0.1,0.2-0.2,0.3v0c-0.1,0.1-0.2,0.1-0.2,0.2C42.1,212.4,41.6,212.6,41.1,212.5C40.6,212.4,41.6,212.6,41.1,212.5z"/>
		<path class="st0" d="M47.9,256L47.9,256C37.4,247.2,32,233.4,34,219.8c0.2-1.1,0.4-2.2,0.6-3.2c0.1-0.7,0.1-1.4-0.4-2
			c-1-1.3-3.1-1-3.8,0.4v0l0,0c-0.6,1.4-0.7,3.2-0.9,4.6c-0.2,1.7-0.4,3.4-0.4,5.1c-0.1,3.4,0.3,6.7,1,10c1.4,6.6,4.4,12.8,8.5,18.1
			c1.1,1.5,2.4,2.9,3.7,4.2c1.1,1.1,2.7,3.3,4.6,2.8c0,0,0,0,0,0C48.6,259.4,49.2,257.2,47.9,256z M48,258.2
			c-0.2,0.5-0.6,0.9-1.2,1.1c0,0,0,0,0,0c-0.6,0.2-1,0.1-1.5-0.3l0,0c-9.6-8.1-15.3-20.2-15.6-32.7c0-1.7,0-3.5,0.2-5.2
			c0.1-0.9,0.2-1.7,0.4-2.6c0.2-1,0.3-2.2,0.7-3.1c0.8-1.6,3.6-0.9,3.1,1c0,0,0,0,0,0c-0.4,1.5-0.6,3.1-0.8,4.7v0l0,0
			c-0.8,7.1,0.3,14.4,3.2,20.9c2.5,5.6,6.2,11,11,14.7l0,0C48,256.9,48.2,257.6,48,258.2C47.8,258.7,48.1,257.6,48,258.2z"/>
		<path class="st0" d="M50.9,254.4c1.3-0.3,2.1-1.8,1.4-3.1c0,0,0,0,0,0c-0.1-0.1-0.1-0.2-0.2-0.3c0,0,0,0,0,0l0,0
			c-0.7-0.8-1.6-1.5-2.4-2.3c-1-1-1.8-2-2.7-3.1c-1.6-2.2-3-4.5-4.1-7c-2.1-5-3-10.5-2.6-15.9l0,0c0.1-1.5,0.6-3.1,0.7-4.6l0,0
			c0.2-2.6-3.9-3.1-4.4-0.6l0,0c-2.4,10.8,0.3,22.4,7.1,31.1c1,1.2,2,2.4,3.1,3.5C48,253.2,49.3,254.8,50.9,254.4z M37.4,217.6
			c0.4-1.9,3.4-1.5,3.3,0.4v0c-0.1,1.5-0.6,3.1-0.7,4.6l0,0c-0.9,10.7,3.4,21.4,11.6,28.5c0,0,0,0,0,0c0.2,0.1,0.3,0.3,0.4,0.5
			c0,0,0,0,0,0c0.6,1.2-0.6,2.6-1.9,2.3c-0.6-0.2-1.2-0.8-1.6-1.2c-0.6-0.5-1.1-1.1-1.7-1.7c-2-2.1-3.8-4.5-5.2-7.1
			c-2.9-5-4.6-10.6-4.9-16.4C36.4,224.2,36.6,220.8,37.4,217.6"/>
		<path class="st0" d="M52.9,248.5C52.9,248.5,52.9,248.5,52.9,248.5c0.6,0.6,1.5,0.8,2.3,0.5c0,0,0,0,0,0c0.9-0.3,1.5-1.2,1.5-2.2
			c-0.1-1.1-1-1.7-1.7-2.5c-1.5-1.5-2.8-3.3-4-5.1c-2.2-3.7-3.5-7.9-3.8-12.2l0,0c-0.1-1.4-0.1-2.8,0.1-4.2l0,0
			c0.1-0.8,0.2-1.7,0.4-2.5c0,0,0,0,0,0c0.3-1.6-1.3-3-2.9-2.5l0,0l0,0c-0.2,0.1-0.4,0.1-0.5,0.3c-0.2,0.1-0.3,0.2-0.4,0.4
			c0,0,0,0,0,0c-0.8,0.9-0.8,2.8-0.9,4c-0.1,1.4-0.2,2.8-0.1,4.2c0.1,2.7,0.6,5.3,1.4,7.9C45.7,240,48.8,244.8,52.9,248.5
			 M43.8,219.7c0.1-0.3,0.2-0.5,0.4-0.7l0,0c0.2-0.2,0.4-0.4,0.7-0.5c0,0,0,0,0,0c1.2-0.4,2.4,0.6,2.2,1.8l0,0
			c-0.2,0.8-0.3,1.7-0.4,2.5v0c-0.1,1.5-0.2,2.9-0.1,4.3l0,0c0.4,7.1,3.6,13.8,8.9,18.7c0,0,0,0,0,0c0.9,0.8,0.5,2.3-0.6,2.7h0
			c-0.7,0.2-1.2,0.1-1.7-0.3c-3.7-3.7-6.7-7.8-8.4-12.9C43.2,230.2,42.8,224.8,43.8,219.7"/>
		<path class="st0" d="M54.2,221.9c0-0.3-0.1-0.9-0.4-1.1c-0.3-0.9-1.9-1.1-2.6-0.8c-1.2,0.5-1.4,1.5-1.5,2.6
			c-0.3,2.5-0.2,5.1,0.3,7.5c0.5,2.5,1.3,4.9,2.5,7.1c0.6,1.1,1.2,2.1,2,3.1c0.7,0.9,1.5,2.1,2.5,2.8c1.7,2.1,5.2-1,3.3-2.8
			c-0.2-0.4-0.8-0.8-1.1-1.2c-0.6-0.6-1.1-1.2-1.5-1.9c-0.9-1.2-1.6-2.6-2.2-4c-1.4-3.4-1.8-7.2-1.2-10.8l0,0l0,0
			C54.2,222.2,54.2,222.1,54.2,221.9C54.1,221.6,54.2,222.1,54.2,221.9z M59.6,240.4c0.1,0.1,0.1,0.1,0.2,0.2c0.5,1,0.3,2.2-0.9,2.5
			l0,0l0,0c-0.7,0.2-1.1,0-1.6-0.4c-1.4-1.8-2.9-3.3-4.1-5.3c-1.2-2.1-2-4.3-2.6-6.6c-0.5-2.3-0.7-4.6-0.5-6.9c0.1-0.9,0-2.4,0.8-3
			c0.9-0.7,1.7-0.3,2.5,0.3c0,0.1,0,0.2,0.1,0.2v0c0.1,0.3,0.2,0.6,0.1,0.9l0,0C52.5,228.9,54.8,235.7,59.6,240.4z"/>
		<path class="st0" d="M60.8,237.5c0.9,1,2.5,1,3.4,0c0,0,0,0,0,0c0.7-0.9,0.6-2,0-2.8c-0.7-1-1.5-1.9-2.1-3.1
			c-0.6-1.2-1-2.5-1.2-3.8c-0.1-0.6-0.2-1.3-0.2-1.9c0-0.7,0.1-1.5,0-2.2v0c0-0.2-0.1-0.4-0.2-0.5l0,0c-0.1-0.2-0.2-0.3-0.3-0.5
			c-0.2-0.3-0.5-0.5-0.9-0.6c-0.8-0.3-1.6-0.2-2.3,0.4c0,0,0,0,0,0c-1,0.8-0.9,2.3-0.8,3.4c0,1.4,0.2,2.8,0.6,4.2
			C57.5,232.8,58.9,235.4,60.8,237.5 M58.6,222.5c0.7,0.1,1.3,0.6,1.5,1.3l0,0c0.1,0.9-0.1,1.8,0,2.7c0.1,1,0.3,2,0.6,3
			c0.6,2,1.6,3.9,3.1,5.5l0,0c0,0.1,0.1,0.2,0.2,0.2v0c0.4,0.7,0.3,1.5-0.3,2c0,0,0,0,0,0c-2.3,1.9-4.6-3.3-5.3-4.8
			c-1.2-2.7-1.7-5.6-1.4-8.5l0,0c0-0.5,0.2-0.8,0.6-1.1l0,0C57.8,222.6,58.1,222.4,58.6,222.5z"/>
		<path class="st0" d="M113.1,217.4L113.1,217.4c-0.6-2.5-4.7-2-4.4,0.6l0,0c0.1,1.3,0.5,2.6,0.6,4c0.1,1.4,0.2,2.9,0.2,4.3
			c-0.1,2.8-0.5,5.6-1.3,8.3c-1.6,5.5-4.6,10.6-8.7,14.7c-1.1,1-2.8,2.1-2.1,3.8c0.6,1.4,2.4,1.8,3.5,0.8l0,0l0,0
			C111.4,244.8,116.1,230.8,113.1,217.4 M98.8,253.8C98.8,253.8,98.8,253.8,98.8,253.8c-1.3-0.6-1-2-0.2-2.9c1-0.9,2-1.9,2.9-2.9
			c1.8-2,3.3-4.2,4.6-6.6c2.5-4.6,3.9-9.8,4-15.1c0-1.5,0-3-0.2-4.5c-0.1-1.3-0.5-2.6-0.6-3.9l0,0c-0.2-2,2.8-2.3,3.3-0.5v0
			c2.9,13.2-1.7,27-11.9,35.9l0,0C100,254,99.6,254.1,98.8,253.8C98.8,253.8,99.6,254.1,98.8,253.8z"/>
		<path class="st0" d="M97.1,248.5c4.2-3.9,7.3-8.8,9-14.3c0.8-2.7,1.2-5.5,1.2-8.2c0-1.4-0.1-2.8-0.2-4.2c-0.2-1.2-0.1-2.8-1.3-3.6
			c0,0,0,0,0,0c-1.6-1.1-3.8,0.3-3.4,2.2l0,0l0,0c1,4.9,0.5,9.9-1.2,14.5l0,0c-1.2,3.3-3.1,6.3-5.5,8.9c-1,1.1-2.9,2.3-2.1,4.1
			C94.1,249.1,96,249.6,97.1,248.5 M95.3,248.5c-1.7-0.3-1.6-2-0.6-3c1-1,2-2,2.8-3.1c1.8-2.2,3.2-4.7,4.2-7.4c0,0,0,0,0,0
			c1.4-3.8,2.2-8.1,1.6-12.1c-0.1-0.9-0.2-1.8-0.4-2.7l0,0c-0.3-1.4,1.4-2.4,2.5-1.6l0,0c1,0.7,1,2.5,1.1,3.5
			c0.2,1.4,0.2,2.7,0.2,4.1c-0.1,2.7-0.5,5.5-1.3,8.1c-1.6,5.3-4.7,10-8.7,13.8c0,0,0,0,0,0C96.2,248.5,95.9,248.6,95.3,248.5
			C94.6,248.4,95.9,248.6,95.3,248.5z"/>
		<path class="st0" d="M119.6,215.3c-0.2-0.8-0.6-1.2-1.4-1.5l0,0c-1.6-0.6-3.4,0.8-3,2.5l0,0c2.4,10,0.8,20.4-4.4,29.3l0,0
			c-1.3,2.1-2.7,4.2-4.4,6.1c-0.8,0.9-1.6,1.8-2.5,2.6c-0.7,0.7-1.6,1.2-2.2,2c-1,1.2-0.3,3.1,1.2,3.5l0,0c0.7,0.2,1.4,0,2-0.5l0,0
			c1.5-1.3,2.9-2.7,4.3-4.1c0,0,0,0,0,0C119.1,244.4,122.9,229.5,119.6,215.3 M104.6,258.9L104.6,258.9c-0.5,0.4-0.9,0.5-1.5,0.4
			l0,0l0,0c-1.1-0.3-1.6-1.6-0.9-2.5l0,0c0.1-0.1,0.2-0.1,0.2-0.2l0,0c0,0,0,0,0,0c3.6-3.1,6.5-6.5,8.9-10.5c0,0,0,0,0,0
			c5.3-9,6.9-19.6,4.5-29.7l0,0l0,0c0-0.1,0-0.2,0-0.2l0,0c-0.1-1.2,1.2-2,2.2-1.6l0,0c1.2,0.5,1.2,2.1,1.4,3.2
			c0.3,1.5,0.5,2.9,0.6,4.4c0.2,2.8,0.2,5.7-0.2,8.5c-0.7,5.7-2.5,11.3-5.3,16.3c-1.6,2.9-3.6,5.6-5.8,8.1l0,0
			C107.5,256.3,106.1,257.6,104.6,258.9C104.6,258.9,106.1,257.6,104.6,258.9z"/>
		<path class="st0" d="M76.6,183.7c0.5,1.5,2.1,1.5,3.4,1.7c1.6,0.2,3.2,0.5,4.8,0.8c3,0.7,6,1.8,8.8,3.2
			c5.5,2.7,10.4,6.6,14.1,11.4c2.2,2.7,4,5.8,5.4,9l0,0c0.1,0.3,0.3,0.5,0.5,0.7c1.6,1.7,4.5-0.2,3.6-2.4l0,0
			c-6.6-15.3-21.3-25.7-38.2-27.2l0,0l0,0l0,0C77.4,180.7,76.1,182.2,76.6,183.7C76.8,184.4,76.4,183,76.6,183.7z M116.6,208.2
			L116.6,208.2c0.7,1.6-1.4,2.9-2.7,1.8c0-0.1-0.1-0.2-0.2-0.2l0,0c-0.1-0.1-0.1-0.2-0.2-0.3v0c-6.1-14-19.5-23.6-35-24.9l0,0
			c-0.1,0-0.2,0-0.3,0l0,0c-1.1-0.3-1.6-1.7-0.9-2.6c0,0,0,0,0,0c0.4-0.5,0.8-0.6,1.4-0.6h0C95.6,182.8,110.1,193.1,116.6,208.2"/>
		<path class="st0" d="M98.8,260.3c-0.7-0.5-1.7-0.6-2.5-0.1l0,0l0,0c-4.8,2.8-10.1,4.7-15.6,5.4l-0.3,0c0,0,0,0,0,0
			c-0.8,0.1-1.7,0.2-2.5,0.2c0,0,0,0,0,0c-4.3,0.3-8.7-0.1-12.9-1.1c-2-0.5-4-1.1-6-1.9c-1-0.4-2-0.9-3-1.4
			c-0.9-0.5-1.8-1.1-2.7-1.5l0,0l0,0c0,0,0,0,0,0c-1.5-0.5-3.1,0.7-3,2.2c0.1,1.9,2.8,2.7,4.2,3.4c3.8,1.9,7.9,3.2,12.1,4
			c8.3,1.5,16.9,0.7,24.7-2.2c2.2-0.8,4.4-1.9,6.5-3c0.7-0.4,1.5-0.8,1.8-1.6C99.9,261.8,99.6,260.8,98.8,260.3
			C98.2,259.8,99.4,260.7,98.8,260.3z M98.3,263.4C98.3,263.4,98.3,263.4,98.3,263.4c-12.3,7.3-27.7,8.3-40.9,2.9
			c-1.8-0.8-3.6-1.6-5.4-2.6c-0.8-0.4-1.4-0.9-1.2-1.9c0.2-0.9,1-1.4,1.9-1.3c0.1,0.1,0.2,0.1,0.3,0.1c0.1,0,2.7,1.6,0.3,0.1
			c0,0,0,0,0,0c7.4,4.3,16,6.4,24.5,5.8c3.1,0,6.5-0.8,9.4-1.7c3.3-1,6.4-2.4,9.3-4.1l0,0c0.1,0,0.2-0.1,0.2-0.1h0
			C98.6,259.8,100,262.4,98.3,263.4z"/>
		<path class="st0" d="M94.8,254.9c-0.6-0.5-1.4-0.5-2.2-0.2c0,0,0,0,0,0c-0.1,0-0.2,0.1-0.3,0.1l0,0c0,0,0,0,0,0
			c-1.5,0.8-2.9,1.5-4.5,2.2l0,0c-3,1.2-6.1,1.9-9.3,2.2c0,0,0,0,0,0c-7.3,0.7-14.6-0.8-20.9-4.4l0,0c-1.2-0.7-2.9-0.1-3.3,1.3
			c-0.3,1.2,0.4,2.1,1.4,2.6c2.7,1.5,5.6,2.7,8.6,3.5l0.3,0.1c9,2.4,18.6,1.6,27.1-2.3l0,0c1.4-0.7,3.9-1.4,4-3.2v0
			C95.7,256,95.4,255.3,94.8,254.9C94.1,254.4,95.4,255.3,94.8,254.9z M94.3,258L94.3,258c-6.1,3.5-13.1,5.2-20.1,5.1
			c-3.5-0.1-7.1-0.6-10.5-1.6c-1.7-0.5-3.3-1.1-4.9-1.8c-0.8-0.3-1.5-0.7-2.2-1.1c-0.7-0.4-1.5-0.7-1.7-1.5l0,0
			c-0.4-1.4,1.2-2.5,2.4-1.8l0,0c6.4,3.7,13.9,5.2,21.3,4.5c3.2-0.1,6.5-1.1,9.5-2.3c1.7-0.6,3.2-1.6,4.8-2.3h0
			c1.1-0.4,2.3,0.4,2.3,1.6l0,0C95.1,257.4,94.9,257.7,94.3,258z"/>
		<path class="st0" d="M88.8,249.2L88.8,249.2c-0.1,0-0.3,0.1-0.4,0.2l0,0c-4.9,2.7-10.6,3.8-16.2,3.2c-2.7-0.3-5.4-0.9-7.9-1.9
			c-1.1-0.5-2.4-1.5-3.6-1.5c-1.4-0.1-2.6,1.1-2.4,2.5l0,0c0.1,0.7,0.5,1.2,1.1,1.6h0l0,0c9.6,5.2,21.5,5.2,31.1,0
			C93,252.2,91.2,248.4,88.8,249.2z M91,251.7L91,251.7c-0.1,0.5-0.4,0.7-0.8,1l0,0c-5,2.7-10.8,4.1-16.6,3.8
			c-2.8-0.1-5.6-0.6-8.3-1.4c-1.3-0.4-2.6-0.9-3.8-1.5c-1-0.4-2.5-0.9-2.7-2.1v0c-0.2-1.4,1.3-2.1,2.4-1.6c1.2,0.5,2.4,1.2,3.6,1.6
			c2.6,1,5.4,1.6,8.2,1.7c2.8,0.2,5.5,0,8.2-0.6c1.4-0.3,2.7-0.7,4-1.2c1.3-0.5,2.4-1.3,3.7-1.7l0,0l0,0
			C90.2,249.3,91.4,250.4,91,251.7z"/>
		<path class="st0" d="M84.9,243.7c-0.2,0-0.3,0.1-0.5,0.2l0,0c0,0,0,0,0,0c-3.1,1.5-6.5,2.3-10,2.2c-1.7,0-3.4-0.3-5-0.7
			c-0.8-0.2-1.6-0.5-2.4-0.8c-0.7-0.3-1.4-0.7-2.1-0.9c-1.4-0.3-2.8,0.9-2.6,2.3c0.2,1.7,2.2,2.3,3.5,2.8c3.4,1.3,7.2,1.8,10.8,1.6
			c2.1-0.1,4.2-0.5,6.2-1.2c1.4-0.4,3.7-1,4.5-2.3l0,0c0.2-0.4,0.3-0.8,0.3-1.2v0c0-0.2,0-0.4-0.1-0.5l0,0c0,0,0,0,0,0
			c0-0.1-0.1-0.3-0.2-0.3c0-0.1-0.1-0.3-0.2-0.4c-0.1-0.1-0.2-0.2-0.3-0.3c-0.1-0.1-0.1-0.2-0.3-0.2l0,0c0,0,0,0,0,0l0,0h0
			C86,243.6,85.5,243.6,84.9,243.7C84.9,243.7,84.9,243.7,84.9,243.7z M86.3,244.4L86.3,244.4c0.1,0.1,0.1,0.1,0.2,0.1
			c0,0.1,0.1,0.2,0.2,0.2l0,0c0,0.1,0.1,0.2,0.2,0.3c0,0.1,0,0.2,0.1,0.3v0c0.1,0.4,0.1,0.9-0.1,1.3l0,0c-0.2,0.3-0.4,0.5-0.7,0.6
			c0,0,0,0,0,0l0,0c-0.8,0.4-1.7,0.8-2.6,1.1l0,0c-3.7,1.3-7.7,1.8-11.6,1.3c-1.9-0.2-3.7-0.7-5.5-1.3c-1.2-0.4-3.9-1.1-3.6-2.8l0,0
			l0,0c0.2-1.1,1.4-1.6,2.4-1.2h0l0,0c6.1,3,13.4,3,19.5,0l0,0C85.2,244.2,85.8,244.2,86.3,244.4z"/>
		<path class="st0" d="M89.9,240c-2,2,1.1,5,3.1,3.1c1.7-1.4,3.2-3.6,4.2-5.6c1.2-2.1,2-4.4,2.6-6.7c0.5-2.4,0.7-4.8,0.5-7.2
			c-0.1-1-0.1-2.3-0.8-3c-0.5-0.5-1.3-0.9-2-0.7c-0.1,0-0.3,0-0.4,0.1l0,0c-0.1,0.1-0.3,0.1-0.4,0.2c-0.1,0-0.2,0.1-0.3,0.2l0,0
			c0,0,0,0,0,0c-0.6,0.5-0.8,1.2-0.7,2l0,0C96.9,228.8,94.5,235.4,89.9,240z M96.4,222.3L96.4,222.3c0-0.1,0-0.2,0-0.3l0,0
			c0-0.6,0.3-0.9,0.7-1.2c0.1,0,0.2-0.1,0.3-0.1c0,0,0,0,0,0c0.1,0,0.2,0,0.3-0.1c0.1,0,0.2,0,0.3,0c2.4-0.3,2,4.8,1.9,6.1
			c-0.1,2.7-0.7,5.3-1.7,7.8c-1,2.5-2.4,4.8-4.1,6.8c-0.7,0.8-1.6,2.1-2.8,2c-1.3-0.2-1.9-1.8-1-2.7v0
			C95.2,235.6,97.4,228.9,96.4,222.3"/>
		<path class="st0" d="M67.2,238.6c-0.6,0.5-0.9,1.2-0.9,2c0,0,0,0,0,0c0.2,1.5,1.5,1.9,2.7,2.3c1.7,0.6,3.5,0.9,5.2,0.9
			c1.8,0.1,3.6-0.1,5.3-0.5c1.3-0.3,3.3-0.7,3.9-2.1l0,0c0.4-1-0.1-2.6-1.3-2.8c-0.2-0.1-0.4-0.1-0.5-0.1h0c-0.2,0-0.3,0-0.5,0
			c0,0,0,0,0,0h0c-0.2,0-0.4,0.1-0.6,0.2c0,0,0,0,0,0c-2.2,0.9-4.6,1.3-7,1c-1.2-0.1-2.3-0.4-3.4-0.7
			C69.1,238.3,68.2,237.9,67.2,238.6 M80.8,238.9c0.1-0.1,0.3-0.1,0.5-0.1c0,0,0,0,0,0c0.1,0,0.3,0,0.4,0h0c0.1,0,0.3,0.1,0.4,0.1
			c0.1,0.1,0.1,0.1,0.2,0.1c0,0,0,0,0,0c0.7,0.4,1,1.2,0.7,2l0,0c-0.5,1.2-2.4,1.5-3.5,1.7c-1.3,0.3-2.7,0.5-4.1,0.5
			c-1.4,0-2.9-0.1-4.3-0.4c-1.1-0.2-2.7-0.5-3.6-1.2c-0.8-0.6-0.8-1.9,0.1-2.5c1.2-0.9,2.9,0.3,4.1,0.6
			C74.7,240.4,77.9,240.1,80.8,238.9"/>
		<path class="st0" d="M85.8,234.6c-1,1.1-0.6,2.8,0.7,3.4l0,0c0.9,0.4,2,0.2,2.6-0.5l0,0c1.9-2.1,3.3-4.7,4-7.5
			c0.4-1.4,0.6-2.8,0.6-4.2c0-1.2,0.2-2.6-0.8-3.4l0,0c-0.8-0.7-2.1-0.7-2.9,0.1c-0.1,0.1-0.1,0.1-0.2,0.2c-0.2,0.2-0.4,0.6-0.5,0.9
			l0,0l0,0c0,0.2-0.1,0.4,0,0.6v0C89.6,228,88.3,231.8,85.8,234.6L85.8,234.6C85.3,235.2,85.8,234.6,85.8,234.6z M89.8,224.2
			c0-0.2,0-0.3,0-0.4l0,0l0,0c0.1-0.3,0.2-0.5,0.3-0.7c0.1,0,0.1-0.1,0.2-0.2c0,0,0,0,0,0c0.6-0.6,1.6-0.6,2.2-0.1l0,0
			c1,0.9,0.7,3.1,0.6,4.3c-0.2,1.5-0.5,3-1,4.4c-0.5,1.4-1.2,2.8-2.1,4c-0.7,1-1.7,2.6-3.2,1.9l0,0c-1-0.4-1.2-1.7-0.5-2.5l0,0
			C88.8,232.1,90.1,228.1,89.8,224.2"/>
		<path class="st0" d="M77.8,211.7C77.8,211.7,77.8,211.7,77.8,211.7C77.8,211.7,77.8,211.7,77.8,211.7L77.8,211.7
			c1.2,0.5,2.5,0.7,3.8,1.3c1.3,0.7,2.5,1.5,3.5,2.5c1.4,1.4,3.3,5.4,5.6,3l0,0c2.1-2.1-1.9-5.7-3.4-7c-2.3-2-5.1-3.4-8.1-4.1l0,0
			c-1-0.2-1.7,0-2.3,0.8c0,0,0,0,0,0c-0.2,0.2-0.3,0.5-0.4,0.8c0,0.1,0-0.4-0.1,0.3l0,0C76.4,210.5,77,211.4,77.8,211.7z
			 M79.1,208.2L79.1,208.2c2.7,0.6,5.3,1.9,7.5,3.7c1.1,0.9,2.1,1.9,2.9,3c0.7,0.9,1.9,2.3,0.8,3.4l0,0c-0.7,0.7-2,0.6-2.6-0.3l0,0
			c-1.1-1.7-2.5-3.2-4.1-4.3c-0.8-0.5-1.6-1-2.5-1.4c-1-0.4-2.1-0.6-3-1h0c-0.6-0.3-1-0.9-1-1.6l0,0
			C77.1,208.6,78.1,207.9,79.1,208.2z"/>
		<path class="st0" d="M72.1,201L72.1,201c-0.4-0.2-0.8-0.2-1.3-0.2l0,0l0,0c-5.2,0.8-10,3.3-13.8,6.9c-1.8,1.8-3.4,3.8-4.6,6.1
			c-0.6,1.1-0.6,2.3,0.6,3.1c1,0.7,2.4,0.4,3.1-0.6l0,0c0.1-0.1,0.1-0.2,0.1-0.2c0,0,0,0,0,0c3-5.8,8.8-9.9,15.3-10.9l0,0
			c0.1,0,0.3-0.1,0.4-0.1l0,0l0,0c0,0,0,0,0,0c0,0,0,0,0,0c0.3-0.1,0.5-0.2,0.7-0.4l0,0c0.1-0.1,0.2-0.1,0.2-0.3
			C74.2,203.5,73.1,201.4,72.1,201z M55.7,215.8L55.7,215.8L55.7,215.8c-1,1.8-3.9,0.4-2.9-1.5c0,0,0,0,0,0c1.9-3.5,4.6-6.6,7.9-8.8
			c1.6-1.1,3.4-2,5.2-2.7c0.9-0.4,1.9-0.7,2.8-0.9c0.9-0.2,2.2-0.7,3.2-0.3l0,0c1.1,0.5,1,1.5,0.6,2.5c-0.1,0-0.1,0.1-0.2,0.2
			c0,0,0,0,0,0l0,0c-0.2,0.1-0.3,0.3-0.5,0.3c0,0,0,0,0,0c-0.1,0-0.2,0-0.3,0.1h0C64.7,205.6,58.8,209.8,55.7,215.8z"/>
		<path class="st0" d="M73,195c-0.1-0.2-0.3-0.3-0.4-0.4l0,0c0,0,0,0,0,0c-0.2-0.1-0.3-0.2-0.5-0.3h0l0,0c-0.4-0.2-0.7-0.2-1.1-0.2
			h0c-5.8,0.7-11.5,3-16.1,6.6c-2.3,1.8-4.3,3.8-6,6.2c-0.9,1.2-1.6,2.4-2.3,3.7c-0.7,1.3-1.5,2.6-0.4,3.8l0,0c0,0,0,0,0,0
			c1,1.1,2.7,0.9,3.5-0.3c0.7-1.1,1.3-2.4,2-3.5c1.5-2.2,3.2-4.2,5.2-5.9c4.1-3.5,9.3-5.6,14.6-6.3l0,0c0.1,0,0.2,0,0.4-0.1
			c0,0,0,0,0,0C73.3,198,73.9,196.2,73,195L73,195z M72.8,196.8c-0.2,0.5-0.6,0.9-1.1,1.1l0,0l0,0c-0.1,0-0.2,0-0.3,0.1l0,0
			c0,0,0,0,0,0c-5.3,0.7-10.4,2.8-14.5,6.1c-2,1.6-3.8,3.5-5.3,5.6c-0.8,1.1-1.5,2.3-2.1,3.5c-0.6,1.1-1.8,2.2-3,0.9l0,0
			c-0.5-0.6-0.6-1-0.3-1.8c0,0,0,0,0,0c2.4-5,6.1-9.2,10.6-12.3c2.3-1.5,4.7-2.8,7.3-3.7c1.3-0.5,2.6-0.8,3.9-1.1
			c1.1-0.2,3.1-0.9,4.1-0.2c0,0,0,0,0,0c0,0,0,0,0,0C72.8,195.4,73,196.1,72.8,196.8C72.6,197.3,72.9,196.3,72.8,196.8z"/>
		<path class="st0" d="M78.1,205.1c0.1,0,0.2,0,0.3,0.1l0,0c4.6,0.7,8.9,3,12.1,6.4c0.8,0.8,1.5,1.7,2.1,2.6c0.6,0.9,1,2.2,1.9,2.7
			c1.8,1.1,4.2-0.9,3.2-2.8l0,0l0,0c-2-3.9-5.1-7.1-8.8-9.5c-1.8-1.2-3.8-2.1-5.9-2.8c-1.7-0.5-4.7-1.8-6-0.1l0,0
			C76,202.9,76.6,204.7,78.1,205.1z M79,201.4c4.3,0.7,8.3,2.5,11.7,5.1c1.7,1.3,3.1,2.8,4.4,4.5c0.9,1.2,3.2,3.7,1.7,5.1l0,0
			c-1.8,1.8-3.1-1.3-3.8-2.4c-1.1-1.6-2.4-3.1-3.9-4.3c-3-2.5-6.7-4.2-10.6-4.9c0,0,0,0,0,0l0,0c-0.1,0-0.1-0.1-0.2,0l0,0
			C76.3,204,77,201.1,79,201.4"/>
		<path class="st0" d="M78.4,198.5L78.4,198.5c6.9,0.9,13.3,4.2,17.8,9.4c0,0,0,0,0,0c1.5,1.7,2.7,3.6,3.8,5.7
			c0.8,1.6,3.1,2.3,4.1,0.4c0.8-1.3-0.4-2.9-1.1-4c-0.7-1.3-1.5-2.5-2.4-3.6c-1.7-2.2-3.7-4.2-5.9-5.8c-4.6-3.5-10.1-5.7-15.8-6.4
			c0,0,0,0,0,0C76.2,193.8,75.6,198.1,78.4,198.5 M78.9,194.7L78.9,194.7c5.5,0.7,10.8,2.8,15.3,6.1c2.1,1.6,4.1,3.5,5.8,5.6
			c0.8,1.1,1.6,2.2,2.3,3.3c0.6,1,2,2.8,1.4,4c0,0,0,0,0,0c-0.4,0.7-1.2,1-1.9,0.8c-0.9-0.2-1.2-1.2-1.6-2c-1-1.8-2.1-3.5-3.5-5l0,0
			c-2.7-3.1-6-5.6-9.7-7.2c-1.8-0.8-3.7-1.5-5.6-1.9c-1.3-0.3-5.5-0.4-4-2.9l0,0l0,0C77.7,194.8,78.1,194.6,78.9,194.7z"/>
		<path class="st0" d="M77.7,191.6C77.7,191.6,77.7,191.6,77.7,191.6c0.3,0.1,0.5,0.2,0.8,0.2c0,0,0,0,0,0
			c12.1,1.2,23.1,8.8,28.1,20c0,0,0,0,0,0c1.1,2.5,5.2,0.8,4.1-1.8l0,0c-5.7-12.5-17.8-21.2-31.7-22.5h0
			C76.6,187.2,75.6,190.4,77.7,191.6z M78.9,188L78.9,188c13.7,1.4,25.7,9.9,31.3,22.2l0,0c0.3,0.7,0.2,1.2-0.3,1.7l0,0
			c-0.8,0.8-2.2,0.6-2.7-0.5v0c-2.9-6.5-7.7-11.8-13.9-15.5c-4.3-2.8-9.7-4.3-14.7-4.8h0c-0.1,0-0.2,0-0.3-0.1l0,0c0,0,0,0,0,0
			c-0.1-0.1-0.2-0.1-0.3-0.1C76.4,190.2,77.2,187.9,78.9,188z"/>
	</g>
	<g>
		<path class="st0" d="M129.2,400L129.2,400c-1.2-12.1-2.6-24.2-5.1-36.1c-2.2-10.2-5.2-20.5-10.5-29.6c-2.3-3.9-5.1-7.7-8.4-10.8
			c0,0,0,0,0,0C92.3,312,72.8,309,56.9,315.8c-4.4,1.9-8.6,4.5-12.1,7.8c0,0,0,0,0,0c0,0,0,0,0,0c-6.5,6-10.8,14.1-13.8,22.3
			c-4.1,11-6.3,22.8-8,34.4c-0.9,6.5-1.7,13.1-2.3,19.7c-0.5,4.5,0.1,8.9,2.5,12.9c2.4,3.9,5.9,6.5,9.9,8.4
			c8.3,4.1,17.2,6.9,26.3,8.3c5.1,0.8,10.4,1.2,15.6,1.1c9.2,0.2,18.5-1.1,27.4-3.7c4.5-1.3,8.9-3,13.1-5c3.8-1.8,7.4-3.9,10-7.3
			C128.8,410.4,129.8,405.3,129.2,400C129.2,400,129.3,401,129.2,400z M128.9,406.5c-1.2,6.7-6,11.6-11.9,14.5c0,0,0,0,0,0l0,0
			c-6.7,3.4-13.8,5.9-21.1,7.5c-7.2,1.6-14.5,2-21.8,2.1c-7.5,0.1-15-0.8-22.3-2.6c-7.2-1.8-14.5-4.4-21-8.1c-3.4-2-6.2-4.8-8-8.3
			c-1.9-3.6-2.3-7.5-1.8-11.5l0,0c1.2-12.1,2.6-24.2,5.1-36c2.2-10.2,5.1-20.4,10.4-29.5c2.3-4,5.1-7.7,8.5-10.8l0,0
			c8.2-7.4,19.1-11.4,30.1-11.2c0,0,0,0,0,0c11.1,0,21.8,3.7,30.1,11.2h0c6.5,6,10.7,14,13.8,22.2c4.1,10.9,6.3,22.6,7.9,34.1
			c1,6.6,1.7,13.3,2.3,20l0,0l0,0C129.3,402.2,129.3,404.3,128.9,406.5C128.6,408.5,129.1,405.5,128.9,406.5z"/>
		<path class="st0" d="M119.3,395.2L119.3,395.2c-1.3-14.7-2.6-29.7-6.8-43.9c-1.8-6.1-4.2-12-7.6-17.3c-3.9-5.9-9.4-10.4-16-13
			c-13.1-5-29.8-2.5-39.7,7.8c-4.4,4.6-7.4,10.4-9.6,16.3c-2.4,6.3-4,13-5.2,19.6c-1.3,7-2.1,14-2.8,21c-0.4,3.6-0.9,7.3-1,10.9
			c-0.1,3.4,1.4,6.5,3.9,8.8c1.2,1.1,2.7,1.9,4.2,2.6l0,0c4.2,2.1,8.5,3.7,13.1,5c0,0,0,0,0,0v3.8c0,0.1-0.1,0.5,0,0.5
			c0,0.1,0,0.1,0,0.2c0,0,0,0,0,0v3.5c0,0,0,0.1,0,0.1c0,0.1,0,0.1,0,0.2c0.3,1.4,4,2.7,4,0.8v-3.6c0,0,0-0.1-0.1-0.1
			c0,0,0.1,0,0.1-0.1v-4.3c12.6,3,25.9,3,38.5,0v4.3c0,0,0,0.1,0.1,0.1c0,0-0.1,0-0.1,0.1v3.6c0,2,3.8,0.6,4-0.8c0,0,0.1-0.1,0-0.2
			c0,0,0-0.1,0-0.1v-3.5c0,0,0,0,0,0c0,0,0-0.1,0-0.2c0.1-0.1,0-0.4,0-0.5v-3.8c0,0,0,0,0,0c2.3-0.7,4.6-1.4,6.8-2.3
			c2.1-0.8,4.4-1.6,6.2-2.7c1-0.2,2.2-1.2,3.1-1.7c1.1-0.8,2.2-1.8,3-2.9C119.2,401,119.6,398.2,119.3,395.2L119.3,395.2z
			 M51.9,413.1C51.9,413.1,51.9,413.1,51.9,413.1l0-9.8c0,0,0.1,0,0.1,0L51.9,413.1C51.9,413.1,51.9,413.1,51.9,413.1
			C51.9,413.1,51.9,413.1,51.9,413.1z M55.5,414v-10.7c0,0,0.1,0,0.1,0L55.5,414C55.5,414,55.5,414,55.5,414z M55.5,414.2v4
			c0,0,0,0,0,0C55.5,416.8,55.5,415.5,55.5,414.2C55.5,414.2,55.5,414.2,55.5,414.2z M55.4,403.1c-0.1-1.1-0.9-1.6-1.7-1.6
			c-0.9,0-1.7,0.7-1.7,1.6h0c-0.1,0-0.1,0-0.1,0c0-1.2,1-1.8,1.8-1.8C54.7,401.3,55.5,402,55.4,403.1
			C55.5,403.1,55.5,403.1,55.4,403.1C55.4,402,55.5,403.1,55.4,403.1z M52.2,417.4c0-1.4-0.1-2.8-0.1-4.2v-10c0-0.9,0.7-1.5,1.6-1.5
			h0c0.7,0,1.6,0.5,1.6,1.5v10.9c0,1.4,0.1,2.7,0.1,4.1l0,0.9c0,0.7,0,1.3,0,2c0,0.3,0.1,0.8-0.1,1.1c-0.3,0.6-1.4,0.3-1.9,0.1
			c-0.8-0.3-1.1-0.7-1.1-1.6C52.2,419.6,52.2,418.5,52.2,417.4z M52,417.3c-0.1,0-0.1,0-0.2,0c0-0.1,0-0.2,0-0.3c0,0,0,0,0,0v-3.7
			c0,0,0.1,0,0.1,0C52,414.6,52,416,52,417.3C52,417.3,52,416.6,52,417.3z M51.9,417.7c0-0.1,0-0.2,0.2-0.2c0,1.2,0,2.4,0,3.6
			c-0.1,0-0.1,0-0.2,0L51.9,417.7C51.9,417.7,51.9,417.7,51.9,417.7C51.9,417.6,51.9,417.7,51.9,417.7z M55.3,422.8
			c-0.9,0.7-3.3-0.4-3.4-1.5c0,0,0-0.1,0-0.1c0,0,0.1,0,0.1,0c0.1,1.3,3.3,2.4,3.5,0.9C55.7,422.3,55.4,422.7,55.3,422.8z
			 M55.5,418.6v3.3c0,0,0,0,0,0c0-0.9,0-1.8,0-2.7l0-0.8C55.6,418.5,55.5,418.5,55.5,418.6C55.6,418.6,55.5,418.6,55.5,418.6z
			 M94.3,418.6C94.4,418.5,94.4,418.5,94.3,418.6L94.3,418.6c0.1-0.1,0.1-0.1,0.1-0.2c0,1.2,0,2.3,0,3.5c0,0,0,0,0,0L94.3,418.6
			C94.4,418.6,94.4,418.6,94.3,418.6C94.4,418.5,94.4,418.6,94.3,418.6z M98.1,417c0,0.1,0,0.2,0,0.3c0,0-0.1,0-0.2,0
			c0-1.3,0.1-2.6,0.1-4c0,0,0.1,0,0.1,0L98.1,417C98.1,417,98.1,417,98.1,417C98.1,417.1,98.1,417,98.1,417z M98,403.1L98,403.1
			c-0.1-2.1-3.4-2.1-3.5,0c0,0-0.1,0-0.1,0c0.1-1.2,1-1.7,1.8-1.7h0C97.1,401.3,98,401.9,98,403.1C98,403.1,98,403.1,98,403.1z
			 M97.7,418.6c0,1,0.4,2.7-0.4,3.4c-0.5,0.4-2.1,1-2.6,0.4c-0.3-0.4-0.1-1.5-0.1-1.9c0-0.7,0-1.5,0-2.2c0-1.4,0.1-2.7,0.1-4.1
			v-10.9c0-2,3.1-2,3.1,0v10c0,1.4-0.1,2.8-0.1,4.2L97.7,418.6z M94.5,403.3V414c0,0-0.1,0-0.1,0L94.5,403.3
			C94.4,403.3,94.4,403.3,94.5,403.3z M94.5,414.2c0,1.3-0.1,2.7-0.1,4c0,0,0,0,0,0L94.5,414.2C94.4,414.2,94.4,414.2,94.5,414.2
			C94.5,414.8,94.4,414.2,94.5,414.2z M96.4,422.8c-0.4,0.1-0.9,0.3-1.3,0.2c-0.2,0-1-0.5-0.6-0.9c0.2,1.6,3.4,0.4,3.5-0.9
			c0.1,0,0.1,0,0.2,0.1C98,422,97.5,422.4,96.4,422.8C96,422.9,97.5,422.4,96.4,422.8z M98.1,417.7v3.4c0,0-0.1,0-0.2,0
			c0-0.8,0-1.6,0-2.4l0-1.2c0,0,0.1,0,0.1,0C98,417.5,98,417.6,98.1,417.7C98.1,417.7,98.1,417.7,98.1,417.7z M98,413.1v-9.8
			c0,0,0.1,0,0.1,0L98,413.1C98.1,413.1,98.1,413.1,98,413.1C98,413.1,98,413.1,98,413.1z M119,399.3c-0.4,2.1-1.5,4-2.9,5.4
			c-0.7,0.7-1.5,1.3-2.4,1.9c-0.8,0.5-1.7,0.8-2.5,1.4c-1,0.3-2.1,1-3,1.4c-1.1,0.5-2.1,0.9-3.2,1.3c-2.2,0.9-4.5,1.6-6.8,2.3v-9.8
			c0,0,0,0,0,0c0,0,0,0,0,0c0-1.3-1.1-2-2-2c-1.1,0-2,0.8-2,2V414c-12.6,3-25.9,3-38.5,0v-10.9c0-1.1-0.9-2-2-2c-1.1,0-2,0.8-2,2
			v9.8c-4.5-1.3-8.8-3-13-5c0,0,0,0,0,0c-2.4-1.2-4.6-2.6-6.1-4.8c-1.6-2.4-2-5.1-1.7-7.9v0c1.1-12.9,2.4-26,5.4-38.6
			c2.7-11.4,7.3-24,17.1-31.1c10.6-7.7,25.9-8.8,37.7-3.3c5.8,2.7,10.5,7,13.9,12.4c3.1,4.8,5.3,10.2,7,15.7
			c3.9,12.8,5.4,26.3,6.7,39.6c0.2,1.8,0.3,3.6,0.5,5.4l0,0C119.2,396.6,119.3,397.9,119,399.3C118.8,400.5,119.1,398.7,119,399.3z"
			/>
	</g>
	<g>
		<path class="st0" d="M97.9,33.6L97.9,33.6l0-1.2c0-1,0.4-2.7-0.4-3.4c-0.5-0.5-2-1-2.7-0.6c-0.4,0.3-0.4,0.7-0.4,1.1
			c0,0.9,0,1.7,0,2.6c0,1.6,0.1,3.2,0.1,4.8c0,0-0.1,0-0.1,0c-0.6-0.3-1.6-0.4-2.3-0.5c-0.8-0.2-1.6-0.3-2.4-0.5
			c-1.7-0.3-3.4-0.6-5.1-0.7c-3.2-0.4-6.4-0.5-9.6-0.5c-3.2,0-6.4,0.2-9.6,0.5c-1.6,0.2-3.3,0.4-4.9,0.7c-0.9,0.2-1.7,0.3-2.6,0.5
			c-0.7,0.1-1.7,0.2-2.3,0.5c0,0-0.1,0-0.1,0c0-1.3,0.1-2.7,0.1-4l0-0.9c0-1.1,0.6-3.7-1.1-3.7c-0.8,0-2,0.4-2.3,1.1
			C52,29.7,52,30.2,52,30.6c0,0.9,0,1.7,0,2.6c0,1.5-0.1,3-0.1,4.5v10c0,2.2,3.5,2.2,3.5,0V37c0.1,0,0.1,0,0.2,0
			c12.6-3.1,26.1-3,38.6,0c0,0,0,0,0,0c0.1,0,0.1,0,0.2,0v10.8c0,2.2,3.5,2.2,3.5,0v-10C98,36.4,97.9,35,97.9,33.6z M55.3,34.9
			c0,0.7,0,1.3,0,2v10.9c0,2-3.1,2-3.1,0v-10c0-1.4,0.1-2.8,0.1-4.2c0-0.7,0-1.5,0-2.2c0-0.6-0.1-1.3,0.1-1.9
			c0.3-0.7,1.7-1.2,2.4-1.1c0.5,0.1,0.5,0.2,0.6,0.7c0.2,0.8,0,1.9,0,2.8l0,0.9C55.3,33.5,55.3,34.2,55.3,34.9
			C55.3,35.5,55.3,34.2,55.3,34.9z M97.8,47.8c0,2-3.1,2-3.1,0V36.9c0-2.6-0.1-5.2-0.1-7.9v0c0-1.2,1.9-0.5,2.5-0.2
			c1.1,0.7,0.6,2.4,0.6,3.5l0,1.2c0,1.4,0.1,2.8,0.1,4.2V47.8z"/>
		<path class="st0" d="M129.9,44.4c-0.8-4.2-3-8.2-6.2-11.1c-3.1-2.9-7.1-4.7-10.9-6.3c-8.4-3.7-17.4-6-26.5-7
			c-18-2-36.6,0.7-53,8.7c-4.3,2.1-8.1,4.7-10.7,8.7c-2.7,4.2-3.4,8.9-2.9,13.8l0,0c1.2,12.2,2.6,24.3,5.2,36.3
			c2.2,10.3,5.3,20.6,10.6,29.7c2.3,4,5.1,7.7,8.5,10.8l0,0c5.9,5.4,13.3,9,21.1,10.5c0,0,0,0,0,0v18.8c0,1.5,1.3,2.7,2.7,2.7h13.7
			c1.5,0,2.7-1.2,2.7-2.7v-18.8c0,0,0,0,0,0c0.1,0,0.1,0,0.2,0l0,0c7.9-1.5,15.2-5.2,21-10.6l0,0c6.5-6,10.7-14,13.8-22.2
			c4.2-11,6.4-22.8,8.1-34.5c1-6.7,1.7-13.4,2.4-20.1l0,0C130.4,48.7,130.3,46.5,129.9,44.4C129.6,42.3,130.3,46.5,129.9,44.4z
			 M83.3,133.1c0,0.6,0,1.2,0,1.7c-0.1,1.3-0.1,2.5-0.1,3.8v18.8c0,0.8-0.7,1.4-1.4,1.4H68.1c-0.7,0-1.4-0.6-1.4-1.4v-18.8v0
			c0-1.3,0-2.5-0.1-3.8l0,0l0-2.7c2.7,0.5,5.6,0.9,8.3,0.8c2.8,0.1,5.7-0.3,8.4-0.8C83.3,132.4,83.3,132.7,83.3,133.1
			C83.3,133.7,83.3,132.7,83.3,133.1z M129.9,51.2L129.9,51.2c-0.4,2.9-0.6,5.8-0.9,8.6c-0.3,3-0.7,6-1.1,9
			c-0.8,6.2-1.9,12.4-3.2,18.5c-2.2,10.2-5.2,20.5-10.6,29.6c-2.3,4-5.1,7.7-8.5,10.8h0c-5.8,5.4-13.1,9-20.9,10.5h0
			c0,0-0.1,0-0.1,0c0-1.1,0-2.3,0-3.5c0,0,0,0,0,0c0.3-0.1,2.8-0.7,2.7-0.8c0-0.2,0-0.4,0-0.6v-3c6.1-2,10.7-5,14.8-9.8
			c4.5-5,7.4-11.8,9.5-18c3.2-9.5,4.7-19.5,6-29.4c0.7-5.8,1.3-11.6,1.8-17.5l0,0c0.6-4.2-1.1-8.3-4.5-10.8
			c-1.8-1.3-3.8-2.2-5.9-3.1c-2.1-1-4.3-1.8-6.5-2.6c-1.1-0.4-2.2-0.8-3.4-1.1c-0.1,0-1.3-0.4-1-0.1c0.3,0.3,1.4,0.4,1.8,0.5
			c2.2,0.7,4.4,1.5,6.6,2.4c3.9,1.6,8.4,3.3,10.8,6.9c2.6,3.7,1.8,8,1.4,12.2c-0.4,4.7-0.9,9.3-1.5,14c-1.1,9-2.6,18.1-5.3,26.9
			c-2.2,7-5.2,14.1-10,19.7l0,0c-2.1,2.4-4.5,4.6-7.1,6.3c-1.3,0.8-2.7,1.6-4.1,2.2c-0.4,0.2-3.6,1.2-3.6,1.4v3.1c0,0.2,0,0.4,0,0.6
			c-0.7,0.2-1.6,0.4-2.5,0.6c0-0.6,0.5-4.6-0.9-4c-1.4,0.1-2.9,0.5-4.3,0.7c-0.7,0.1-1.5,0.1-2.2,0.2c-0.6,0-1.6,0.2-2.2,0.1
			c-1.3,0-2.7-0.1-4-0.2c-0.8-0.1-1.6-0.2-2.4-0.3c-0.7-0.1-1.8-0.6-2.5-0.4c-0.4-0.1-0.8,0.2-0.8,0.7l0,3.3
			c-0.9-0.2-1.7-0.4-2.5-0.6l0-0.6c0,0,0,0,0,0v-3.1c0-0.2-2.5-1-2.8-1.1c-1.4-0.6-2.8-1.3-4.1-2c-2.4-1.4-4.5-3.1-6.4-5
			c-3.6-3.7-6.2-8.1-8.3-12.8c-4.6-10.3-6.7-21.7-8.2-32.8c-0.9-6.9-1.6-13.9-2.2-20.8l0,0c-0.3-4,0.8-7.7,4-10.4
			c3-2.5,7.1-3.9,10.7-5.3c1.9-0.7,4.1-1.2,6-2c0.8-0.3,0.2-0.3-0.2-0.1c-0.5,0.1-1,0.3-1.4,0.4c-1,0.3-2,0.7-3,1
			c-3.7,1.3-7.5,2.8-10.8,4.9c-1.8,1.2-3.3,2.7-4.3,4.6c-1.1,2.2-1.3,4.5-1.1,6.8l0,0c1.1,12.2,2.2,24.4,4.9,36.4
			c2.2,9.9,5.5,20.3,12.1,28.2c4,4.7,9.2,8.1,15,10.1v3l0,0l0,0.6c0,0,0,0.1,0.1,0.1c0.2,0.4,2.2,0.6,2.7,0.7c0,1.2,0.1,2.3,0,3.5
			c-6.6-1.3-12.8-4-18.2-8.1c-4.5-3.4-8.1-7.8-11-12.6c-7.3-12.1-10.5-26.4-12.8-40.2c-1.5-8.7-2.4-17.5-3.3-26.3l0,0
			c-0.5-4.7,0.1-9.2,2.6-13.3c2.3-3.9,5.9-6.6,9.9-8.6l0,0c6.8-3.4,14-6,21.5-7.6c7.2-1.6,14.5-2,21.8-2.1
			c7.6-0.1,15.3,0.9,22.7,2.7c7.2,1.8,14.5,4.4,20.9,8.1c3.4,2,6.3,4.7,8.3,8.2C129.8,42.6,130.4,46.9,129.9,51.2
			C129.9,51.2,130.2,48.7,129.9,51.2z"/>
		<path class="st0" d="M81.5,155.6c0.1-0.6-0.5-1-1-0.9c0,0,0,0,0,0h-11c0,0,0,0,0,0c-0.6-0.1-1.1,0.4-1,0.9c0,0,0,0,0,0
			c0,0,0,0,0,0c-0.1,0.6,0.5,1,1,0.9h11l0,0C81,156.7,81.6,156.2,81.5,155.6C81.5,155.6,81.5,155.6,81.5,155.6
			C81.5,155.6,81.5,155.6,81.5,155.6C81.5,155.3,81.5,155.6,81.5,155.6z M81.3,155.6c0.1,0.5-0.4,0.8-0.8,0.8h-11c0,0,0,0,0,0
			c-1.2,0.1-1-1.7,0-1.5c0,0,0,0,0,0c0,0,0,0,0,0h11C81,154.8,81.3,155.1,81.3,155.6z"/>
		<path class="st0" d="M81.5,150.9c0-0.6-0.5-1-1-0.9c0,0,0,0,0,0h-11c0,0,0,0,0,0c-0.6-0.1-1.1,0.4-1,0.9c0,0,0,0,0,0c0,0,0,0,0,0
			c-0.1,0.6,0.5,1,1,0.9h11C81,151.9,81.6,151.5,81.5,150.9C81.5,150.9,81.5,150.9,81.5,150.9C81.5,150.9,81.5,150.9,81.5,150.9
			C81.5,150.6,81.5,150.9,81.5,150.9z M81.3,150.9c0.1,0.5-0.4,0.8-0.8,0.8c0,0,0,0,0,0c0,0,0,0,0,0h-11c0,0,0,0,0,0
			c-1,0.2-1.2-1.5,0-1.5h11C81,150.1,81.3,150.4,81.3,150.9z"/>
		<path class="st0" d="M69.5,145.2c-0.6-0.1-1.1,0.4-1,0.9c0,0,0,0,0,0c0,0,0,0,0,0c-0.1,0.6,0.5,1,1,0.9h11c0.6,0.1,1.1-0.4,1-0.9
			c0,0,0,0,0,0c0,0,0,0,0,0c0.1-0.6-0.5-1-1-0.9c0,0,0,0,0,0L69.5,145.2C69.5,145.2,69.5,145.2,69.5,145.2
			C69.2,145.2,69.5,145.2,69.5,145.2z M80.5,145.4c1.1-0.1,1.1,1.5,0,1.5h-11c0,0,0,0,0,0c-1.2,0.1-1-1.7,0-1.5c0,0,0,0,0,0
			c0,0,0,0,0,0L80.5,145.4C80.5,145.4,80.5,145.4,80.5,145.4z"/>
	</g>
	<path class="st0" d="M263.7,110.5h-14.3c-3.2,0-6,2.6-6,5.9c0,3.2,2.8,5.9,6,5.9h14.3c3.2,0,6-2.6,6-5.9
		C269.7,113.1,267,110.5,263.7,110.5z M263.7,120.9h-14.3c-2.5,0-4.6-2-4.6-4.5c0-2.5,2.2-4.5,4.6-4.5h14.3c2.5,0,4.6,2,4.6,4.5
		C268.4,118.9,266.2,120.9,263.7,120.9z"/>
	<path class="st0" d="M297.6,110.5h-14.3c-3.2,0-6,2.6-6,5.9c0,3.2,2.8,5.9,6,5.9h14.3c3.2,0,6-2.6,6-5.9
		C303.6,113.1,300.8,110.5,297.6,110.5z M297.6,120.8h-14.3c-2.4,0-4.6-2-4.6-4.4c0-2.5,2.1-4.4,4.6-4.4h14.3c2.4,0,4.6,2,4.6,4.4
		C302.2,118.8,300,120.8,297.6,120.8z"/>
	<path class="st0" d="M229.9,110.5h-14.3c-3.2,0-6,2.6-6,5.9c0,3.2,2.8,5.9,6,5.9h14.3c3.2,0,6-2.6,6-5.9
		C235.9,113.1,233.1,110.5,229.9,110.5z M229.9,120.9h-14.1c-0.1,0-0.2-0.1-0.3,0c-2.4-0.1-4.5-2-4.5-4.5c0-2.5,2.2-4.5,4.6-4.5
		h14.3c2.5,0,4.6,2,4.6,4.5C234.5,118.9,232.4,120.9,229.9,120.9z"/>
	<path class="st0" d="M196,110.5h-14.3c-3.2,0-6,2.6-6,5.9c0,3.2,2.8,5.9,6,5.9H196c3.2,0,6-2.6,6-5.9
		C202,113.1,199.2,110.5,196,110.5z M196,120.9h-14.3c-2.5,0-4.6-2-4.6-4.5c0-2.5,2.2-4.5,4.6-4.5H196c2.5,0,4.6,2,4.6,4.5
		C200.7,118.9,198.5,120.9,196,120.9z"/>
	<path class="st0" d="M318.9,37.5c0-1.2-1-2.2-2.2-2.2h-154c-1.2,0-2.2,1-2.2,2.2v49.6c0,1.2,1,2.2,2.2,2.2h25.5
		c-0.1,0.2,0,0.4,0,0.7v0c0,0,0,0,0,0v15c0,1,1.5,1,1.5,0v-15c0-0.2,0.1-0.4,0-0.7H222c-0.1,0.2,0,0.4,0,0.7v0c0,0,0,0,0,0v15
		c0,1,1.5,1,1.5,0v-15c0-0.2,0-0.4,0-0.7h32.4c-0.1,0.2-0.1,0.4-0.1,0.7v15c0,1,1.5,1,1.5,0v-15c0-0.2,0-0.4,0-0.7h32.4
		c-0.1,0.2-0.1,0.4-0.1,0.7v15c0,1,1.5,1,1.5,0v-15c0-0.2,0-0.4,0-0.7h25.5c1.2,0,2.2-1,2.2-2.2V37.5L318.9,37.5z M188.9,105.1
		c-0.2,0-0.2,0-0.2-0.2v-15c0-0.1-0.1-0.4,0-0.5c0,0,0,0,0,0c0-0.1,0.3-0.1,0.3,0c0,0,0,0,0,0c0,0,0,0,0,0c0.1,0.1,0,0.3,0,0.5v15
		C189.1,105.1,189.1,105.1,188.9,105.1z M222.7,105.1c-0.2,0-0.2,0-0.2-0.2v-15c0,0,0-0.9,0.4-0.5l0,0c0.1,0.1,0,0.3,0,0.5v15
		C222.9,105.1,222.9,105.1,222.7,105.1z M256.6,105.1c-0.2,0-0.2,0-0.2-0.2v-15c0-0.2-0.1-0.5,0.2-0.5c0,0,0,0,0,0
		c0.1,0,0.1,0,0.2,0c0,0,0,0,0,0l0,0c0.1,0.1,0,0.3,0,0.5v15C256.8,105.1,256.8,105.1,256.6,105.1z M290.5,105.1
		c-0.2,0-0.2,0-0.2-0.2v-15c0-0.1-0.1-0.4,0-0.5v0c0,0,0.1,0,0.2,0c0,0,0,0,0,0c0.3,0,0.2,0.3,0.2,0.5v15
		C290.7,105.1,290.6,105.1,290.5,105.1z M316.7,88.7h-154c-0.9,0-1.6-0.7-1.6-1.6V37.5c0-0.9,0.8-1.6,1.6-1.6h154
		c0.9,0,1.6,0.7,1.6,1.6v49.6C318.3,88,317.6,88.7,316.7,88.7z"/>
	<path class="st0" d="M263.1,159.3c0-9.3-6-17.8-14.6-21.3c-9.8-3.9-21.4-0.8-27.8,7.7c-6,8-6,19.3,0.1,27.3
		c5.7,7.5,15.8,10.9,24.9,8.5c8.9-2.3,16-10,17.2-19.2C263.1,161.3,263.1,160.3,263.1,159.3z M239.7,180.9
		c-8.4,0-16.4-4.9-20.1-12.5c-4-8.4-1.9-18.6,4.9-24.9c4.1-3.8,9.6-5.9,15.2-5.9c9.1,0,17.7,5.7,20.8,14.3
		c3.1,8.5,0.4,18.1-6.6,23.8C249.9,179.1,244.8,180.9,239.7,180.9"/>
	<path class="st0" d="M280.3,142.2h-7.7c-1.9,0-3.5,1.5-3.5,3.4V173c0,1.9,1.6,3.4,3.5,3.4h7.7c3.4,0,6.4-2.8,6.4-6.2v-21.7
		C286.6,145,283.8,142.2,280.3,142.2z M280.3,175.1h-7.7c-1.1,0-2.1-0.9-2.1-2.1v-27.4c0-1.1,1-2.1,2.1-2.1h7.7c2.8,0,5,2.2,5,4.9
		v21.7C285.3,172.9,283,175.1,280.3,175.1z"/>
	<path class="st0" d="M335.3,170.2c0-3.4-2.9-6.3-6.4-6.3h-14.3c-3.4,0-6.3,2.7-6.4,6.1c-0.1,3.5,2.9,6.4,6.4,6.4h14.3
		C332.3,176.4,335.3,173.6,335.3,170.2z M328.9,175.1C328.9,175.1,328.9,175.1,328.9,175.1l-14.3,0c-2.7,0-5.1-2.3-5-5
		c0.1-2.7,2.4-4.8,5-4.8h14.3c2.7,0,5,2.2,5,4.9C334,172.9,331.6,175.1,328.9,175.1z"/>
	<path class="st0" d="M225.5,162.6c0-0.1,0-0.2-0.1-0.3l0,0l0,0h0l-3.1-3l3.1-3c0,0,0,0,0,0c0,0,0.1-0.1,0.1-0.1c0,0,0,0,0,0
		c0.1-0.2,0-0.4-0.1-0.5l-0.2-0.2c0,0,0,0,0,0c0,0,0,0,0,0c0,0,0,0,0,0c0,0-0.1-0.1-0.2-0.1c0,0,0,0-0.1,0c-0.1,0-0.3,0.1-0.4,0.1
		c0,0,0,0,0,0L222,158l0,0l-0.4,0.4l0,0l0,0c0,0,0,0,0,0c0,0,0,0,0,0l-0.4,0.4c0,0,0,0,0,0c0,0,0,0,0,0c0,0,0,0,0,0l0,0
		c-0.3,0.3-0.3,0.7,0,0.9l3.4,3.4c0.2,0.2,0.5,0.2,0.7,0c0,0,0,0,0,0l0,0l0.2-0.2c0,0,0,0,0,0c0.1-0.1,0.1-0.1,0.1-0.2
		C225.5,162.7,225.5,162.7,225.5,162.6C225.5,162.7,225.5,162.6,225.5,162.6C225.5,162.6,225.5,162.6,225.5,162.6z"/>
	<path class="st0" d="M243.7,144.9c0-0.1,0-0.3-0.1-0.4L241,142c0,0,0,0,0,0l-0.4-0.4c0,0,0,0,0,0l-0.4-0.4c0,0,0,0,0,0l0,0
		c-0.3-0.3-0.6-0.3-0.9,0c0,0,0,0,0,0l-3.4,3.4h0l0,0l0,0c-0.2,0.2-0.2,0.4,0,0.6c0,0,0,0,0,0c0,0,0,0,0,0l0.2,0.2
		c0,0,0.1,0,0.1,0.1c0,0,0.1,0.1,0.2,0.1l0,0c0.2,0,0.3,0,0.4-0.1l0,0c0,0,0,0,0,0l3.1-3l3.1,3c0.1,0.1,0.1,0.1,0.2,0.1c0,0,0,0,0,0
		c0.2,0,0.3,0,0.4-0.1c0,0,0,0,0,0l0.2-0.2c0,0,0-0.1,0.1-0.1C243.7,145,243.7,145,243.7,144.9C243.7,144.9,243.7,144.9,243.7,144.9
		C243.7,144.7,243.7,144.9,243.7,144.9z"/>
	<path class="st0" d="M258.2,158.8C258.2,158.8,258.2,158.8,258.2,158.8l-3.4-3.4c-0.2-0.2-0.4-0.2-0.6-0.1c0,0,0,0,0,0
		c0,0-0.1,0-0.1,0l-0.2,0.2c-0.2,0.2-0.2,0.5,0,0.7c0,0,0,0,0,0l3.1,3l-3.1,3l0,0l0,0l0,0c-0.2,0.2-0.2,0.5,0,0.7l0.2,0.2
		c0,0,0,0,0,0c0,0,0.1,0.1,0.2,0.1c0,0,0.1,0,0.1,0.1h0c0,0,0,0,0,0h0c0.1,0,0.3,0,0.4-0.1l2.6-2.5c0,0,0,0,0,0l0.4-0.4c0,0,0,0,0,0
		l0,0c0,0,0,0,0,0l0.4-0.4c0,0,0,0,0,0C258.5,159.5,258.5,159.1,258.2,158.8z"/>
	<path class="st0" d="M243.6,173.5C243.6,173.5,243.6,173.5,243.6,173.5C243.6,173.4,243.6,173.4,243.6,173.5l-0.2-0.2c0,0,0,0,0,0
		c-0.1-0.1-0.1-0.1-0.2-0.1c-0.1,0-0.3,0-0.4,0.1c0,0,0,0,0,0l-3.1,3l-3.1-3c0,0,0,0,0,0c0,0-0.1-0.1-0.1-0.1l0,0l0,0
		c-0.1,0-0.1,0-0.2,0c-0.1,0-0.3,0-0.4,0.1l0,0c0,0,0,0,0,0l-0.2,0.2c0,0,0,0,0,0c0,0,0,0.1,0,0.1c0,0-0.1,0.1-0.1,0.1l0,0l0,0
		c0,0,0,0,0,0c0,0.1,0,0.2,0.1,0.3l2.6,2.5c0,0,0,0,0,0l0.4,0.4c0,0,0,0,0,0c0,0,0,0,0,0l0.4,0.4c0.1,0.1,0.4,0.1,0.5-0.1
		c0.1,0.2,0.3,0.2,0.4,0.1c0,0,0,0,0,0l3.4-3.4C243.8,173.9,243.8,173.7,243.6,173.5C243.6,173.5,243.7,173.6,243.6,173.5z"/>
	<path class="st0" d="M241.2,18.8c-2.2,0.1-3.8,1.8-3.8,4c0,2.3,1.5,3.9,3.8,4.1c0-0.4,0.2-1.4,0-1.7c-0.2-0.2-0.8-0.4-1-0.7
		c-0.3-0.5-0.4-1.1-0.5-1.6c0-0.5,0.1-1.1,0.4-1.5c0.1-0.2,0.3-0.4,0.6-0.6c0.1-0.1,0.5-0.2,0.6-0.2
		C241.4,20.2,241.2,19.2,241.2,18.8z"/>
	<path class="st0" d="M246.2,26.3h2.3c0-1.3,0-2.7,0-4c0-0.5-0.1-1.2,0.2-1.6c0.7-1,2.2-0.3,2.2,0.8v4.8h2.3c0-1.4,0-2.7,0-4.1
		c0-0.6-0.1-1.4,0.5-1.8c1.1-0.8,1.8,0.4,1.8,1.4v4.5c0.5,0,1.7,0.2,2.1,0c0.3-0.2,0.2-1.1,0.2-1.5c0-0.9,0-1.9,0-2.8
		c0-1.4,0.1-2.9-1.4-3.4c-1.3-0.4-2.7-0.2-3.6,0.8c-0.9-1.4-3.3-1.3-4.4-0.1v-0.7c-0.4,0-2.1-0.2-2.3,0c-0.2,0.2,0,1.8,0,2.1
		C246.2,22.5,246.2,24.4,246.2,26.3z"/>
	<path class="st0" d="M229.8,26.3h2.3c0-1.3,0-2.7,0-4c0-0.5-0.1-1.2,0.2-1.6c0.7-1.1,2.2-0.3,2.2,0.8v4.8h2.3c0-1.7,0-3.4,0-5.2
		c0-0.8,0-1.6-0.5-2.2c-1.1-1.1-3.2-0.7-4.1,0.3v-0.7c-0.4,0-2.1-0.2-2.3,0c-0.2,0.2,0,1.8,0,2.1C229.8,22.5,229.8,24.4,229.8,26.3z
		"/>
	<path class="st0" d="M229.2,19.5c-1.5-1.1-3.7-1.6-5.4-0.8c-1.5,0.7-2.1,3.1-0.4,4c0.6,0.3,4.2,0.5,3.6,1.6c-0.4,0.8-2,0.5-2.7,0.2
		c-0.3-0.1-0.7-0.7-0.9-0.7c-0.4-0.1-1.2,0.8-1.6,1.1c1.6,1.4,4,2.1,6,1c1.5-0.8,2.1-3,0.4-4c-0.6-0.3-1.3-0.4-1.9-0.6
		c-0.4-0.1-1.2-0.1-1.5-0.5c-0.8-0.7,0.6-1,1.2-1c0.6,0.1,1,0.4,1.5,0.5c0.1,0.1,0.2,0.1,0.3,0.2c0.1-0.1,0.3-0.3,0.4-0.4
		C228.5,20.1,228.8,19.8,229.2,19.5"/>
	<path class="st0" d="M241.9,26.1c4.9-0.3,4.9-7.7,0-8.1c0,0.4-0.2,1.4,0,1.8c0.1,0.2,0.8,0.4,1,0.7c0.3,0.5,0.4,1.1,0.4,1.7
		c0,0.5-0.1,1.2-0.5,1.6c-0.2,0.3-0.8,0.4-1,0.6C241.7,24.7,241.9,25.7,241.9,26.1z"/>
	<path class="st0" d="M264.1,19.1c-0.9,0.9-1.6,2.4-1.7,3.7c-0.2,0-0.4,0-0.6,0c0.1-1.4,0.8-2.7,1.7-3.7h-2.3v-0.5
		c0.6,0,1.2,0,1.8,0C263.6,18.6,264.3,18.4,264.1,19.1z"/>
	<path class="st0" d="M264.7,20.1c-0.1-1.3,1.8-2.2,2.6-1c1.1,1.7-1.9,2-2.1,3.3h2.2v0.5c-0.9,0-1.9,0-2.8,0c0.1-0.7,0.4-1.2,1-1.6
		c0.5-0.3,1.3-0.6,1.3-1.3c0-0.7-0.8-1.1-1.3-0.7c-0.3,0.2-0.2,0.6-0.3,0.8C265.1,20.1,265,20.1,264.7,20.1z"/>
	<path class="st0" d="M269.6,18.6c2.1,0,2.1,4.3,0,4.3C267.5,22.9,267.5,18.6,269.6,18.6 M269.6,22.4c1.3,0,1.3-3.4,0-3.4
		C268.2,19,268.2,22.4,269.6,22.4"/>
	<path class="st0" d="M313.2,158h0.6l1,2.6l1-2.6h0.6v3.1h-0.4v-2.6h0l-1,2.6h-0.4l-1-2.6h0v2.6c-0.7,0.2-0.4-0.9-0.4-1.3
		C313.2,159.2,313.2,158.6,313.2,158z"/>
	<path class="st0" d="M318.9,160.4c-0.3,1.4-2.3,0.7-2.1-0.7c0.3-1.4,2.1-1,2.1,0.4c-0.6,0-1.1,0-1.7,0c0,0.5,0.4,0.9,0.9,0.7
		C318.5,160.7,318.5,160.2,318.9,160.4z M318.6,159.8c0-0.8-1.3-0.8-1.3,0C317.7,159.8,318.1,159.8,318.6,159.8z"/>
	<path class="st0" d="M319.6,160.4c0,0.4,0.9,0.6,1.1,0.3c0.3-0.6-0.9-0.6-1.1-0.7c-1.2-0.9,1.4-1.8,1.5-0.4c-0.4,0.1-1-0.8-1.3-0.3
		c-0.3,0.6,0.8,0.5,1.1,0.7c1.3,1-1.6,2-1.6,0.5C319.3,160.4,319.5,160.4,319.6,160.4z"/>
	<path class="st0" d="M321.8,160.4c0,0.4,0.9,0.6,1.1,0.3c0.3-0.6-0.9-0.6-1.1-0.7c-1.2-0.9,1.4-1.8,1.5-0.4c-0.4,0.1-1-0.8-1.3-0.3
		c-0.3,0.6,0.8,0.5,1.1,0.7c1.3,1-1.6,2-1.6,0.5C321.5,160.4,321.7,160.4,321.8,160.4z"/>
	<path class="st0" d="M325.8,161.1c-0.3,0.2-0.6,0-0.6-0.3c-0.9,1-2.4-0.5-0.9-0.9c0.3-0.1,1.2-0.1,0.8-0.6c-0.3-0.3-1-0.1-1,0.3
		c-0.1,0-0.3,0-0.4,0c0-0.9,1.8-1.1,1.8-0.1c0,0.2-0.1,1.5,0.2,1.4C325.8,160.9,325.8,161,325.8,161.1z M325.2,159.9
		c-0.3,0.2-0.7,0-0.9,0.2c-0.3,0.2-0.3,0.5,0.1,0.7C325,161,325.2,160.4,325.2,159.9z"/>
	<path class="st0" d="M328.1,160.9c0,1.2-2,1.6-2,0.4c0.4-0.1,0.5,0.3,0.9,0.4c0.5,0.1,0.8-0.3,0.8-0.8v-0.1
		c-0.5,0.9-1.7,0.2-1.7-0.6c-0.1-0.9,1.1-2,1.7-0.9h0v-0.3C328.4,158.6,328.1,160.5,328.1,160.9z M327.8,159.9
		c0-1.2-1.5-0.9-1.3,0.2C326.6,161.1,327.8,160.9,327.8,159.9"/>
	<path class="st0" d="M330.7,160.4c-0.3,1.4-2.3,0.7-2.1-0.7c0.3-1.4,2.1-1,2.1,0.4c-0.6,0-1.1,0-1.7,0c0,0.5,0.4,0.9,0.9,0.7
		C330.3,160.7,330.2,160.2,330.7,160.4z M330.3,159.8c0-0.8-1.3-0.8-1.3,0C329.4,159.8,329.9,159.8,330.3,159.8z"/>
	<path class="st0" d="M281.3,156.5l-0.7-0.7l-0.3,0.3l-2.4,2.3l-2.7-2.7l-0.7,0.7l2.7,2.7l-2.7,2.7l0.7,0.7l2.7-2.7l2.7,2.7l0.7-0.7
		c-0.9-0.9-1.8-1.8-2.7-2.7C279.5,158.3,280.4,157.4,281.3,156.5z"/>
	<g>
		<path class="st0" d="M210.3,145.6c0-1.9-1.6-3.4-3.5-3.4h-7.7c-3.5,0-6.4,2.8-6.4,6.2v21.7c0,3.5,3,6.2,6.4,6.2h7.7
			c1.9,0,3.5-1.5,3.5-3.4L210.3,145.6L210.3,145.6z M206.8,175.1h-7.7c-2.8,0-5-2.2-5-4.9v-21.7c0-2.7,2.3-4.9,5-4.9h7.7
			c1.2,0,2.1,0.9,2.1,2.1V173C208.9,174.2,207.9,175.1,206.8,175.1z"/>
		<path class="st0" d="M205.2,156.2l-5.1,5c-0.5-0.5-2.7-2.7-2.7-2.7l-0.7,0.7l3.4,3.3l6.2-6l-0.7-0.7L205.2,156.2z"/>
	</g>
	<path class="st0" d="M325.3,172.7h-7.1c0-1.6,0-3.2,0-4.8c0.7,0.5,1.3,1.1,2,1.6c0.5,0.4,0.9,0.9,1.6,0.9c0.6,0,1-0.4,1.4-0.7
		c0.7-0.6,1.4-1.2,2.2-1.7C325.3,169.5,325.3,171.1,325.3,172.7z M324.9,167.6c-0.5,0.4-1.1,0.9-1.6,1.3c-0.4,0.3-1,1-1.5,1
		c-0.5,0-1-0.6-1.4-0.9c-0.6-0.5-1.2-1-1.8-1.5C320.7,167.6,322.8,167.6,324.9,167.6z M317.7,173.2h8.1v-6c-1.1,0-2.2,0-3.3,0
		c-0.8,0-1.7,0-2.5,0c-0.6,0-1.3-0.1-1.9,0c-0.4,0.1-0.2-0.1-0.3,0.3c-0.2,0.5,0,1.4,0,1.9C317.7,170.7,317.7,171.9,317.7,173.2z"/>
	<path class="st0" d="M296.2,214.8c-1.4,0-2.9-0.1-4.3-0.1c-1.1,0-2.4-0.1-3.2,0.8c-1.4,1.5-0.1,3.5,1.7,3.6
		c1.4,0.1,2.8,0.1,4.2,0.1c1.1,0,2.5,0.1,3.3-0.8C299.3,217,298.1,214.8,296.2,214.8z M296.3,218.6c-1.1,0.1-2.3,0.1-3.4,0
		c-1,0-2.4,0.2-3.3-0.2c-1.6-0.8-0.9-2.9,0.7-3c1.1-0.1,2.2-0.1,3.2,0c1,0,2.4-0.2,3.4,0.2C298.6,216.2,298,218.5,296.3,218.6
		C295,218.7,297.5,218.5,296.3,218.6z"/>
	<path class="st0" d="M296.2,260.2c-1.4,0-2.9-0.1-4.3-0.1c-1.1,0-2.4-0.1-3.2,0.8c-1.4,1.5-0.1,3.5,1.7,3.6
		c1.4,0.1,2.8,0.1,4.2,0.1c1.1,0,2.5,0.1,3.3-0.8C299.3,262.4,298.1,260.2,296.2,260.2z M296.3,264c-1.1,0.1-2.3,0.1-3.4,0
		c-1,0-2.4,0.2-3.3-0.2c-1.6-0.8-0.9-2.9,0.7-3c1.1-0.1,2.2-0.1,3.2,0c1,0,2.4-0.2,3.4,0.2C298.6,261.5,298,263.9,296.3,264
		C295,264.1,297.5,263.9,296.3,264z"/>
	<path class="st0" d="M296.2,237.5c-1.4,0-2.9-0.1-4.3-0.1c-1.1,0-2.4-0.1-3.2,0.8c-1.4,1.5-0.1,3.5,1.7,3.6
		c1.4,0.1,2.8,0.1,4.3,0.1c1.1,0,2.5,0.1,3.3-0.8C299.3,239.7,298.1,237.5,296.2,237.5z M296.3,241.3c-1.1,0.1-2.3,0.1-3.4,0
		c-1,0-2.4,0.2-3.3-0.2c-1.6-0.8-0.9-2.9,0.7-3c1.1-0.1,2.2-0.1,3.2,0c1,0,2.4-0.2,3.4,0.2C298.6,238.8,298,241.2,296.3,241.3
		C295,241.4,297.5,241.2,296.3,241.3z"/>
	<path class="st0" d="M298.2,210.8h-9.7c-3.4,0-6.3,2.7-6.4,6.1c-0.1,3.5,2.9,6.4,6.4,6.4h9.7c3.4,0,6.3-2.7,6.4-6.1
		C304.6,213.6,301.6,210.8,298.2,210.8z M298.2,221.9h-9.7c-2.7,0-5.1-2.3-5-5c0.1-2.7,2.4-4.8,5-4.8h9.7c2.7,0,5,2.2,5,4.9
		C303.2,219.7,300.8,221.9,298.2,221.9z"/>
	<path class="st0" d="M298.2,256.1h-9.7c-3.4,0-6.4,2.8-6.4,6.3c0,3.5,3,6.2,6.4,6.2h9.7c3.4,0,6.3-2.7,6.4-6.1
		C304.6,259,301.6,256.1,298.2,256.1z M298.2,267.3h-9.7c-2.7,0-5-2.2-5-4.9c0-2.7,2.3-4.9,5-4.9h9.7c2.7,0,5,2.2,5,4.9
		C303.2,265.1,300.8,267.3,298.2,267.3z"/>
	<path class="st0" d="M298.2,233.5h-9.7c-3.4,0-6.4,2.8-6.4,6.3c0,3.5,3,6.2,6.4,6.2h9.7c3.4,0,6.3-2.7,6.4-6.1
		C304.6,236.3,301.6,233.5,298.2,233.5z M298.2,244.6C298.2,244.6,298.2,244.6,298.2,244.6l-9.7,0c-2.7,0-5-2.2-5-4.9
		c0-2.7,2.3-4.9,5-4.9h9.7c2.7,0,5,2.2,5,4.9C303.2,242.4,300.8,244.6,298.2,244.6z"/>
	<path class="st0" d="M321.2,218.5c1.5,0,2.9,0.1,4.4,0.1c1,0,2.3,0.1,3.1-0.8c1.4-1.5,0.1-3.5-1.7-3.6c-1.4-0.1-2.8-0.1-4.1-0.1
		c-1.1,0-2.6-0.1-3.4,0.8C318.1,216.3,319.3,218.5,321.2,218.5z M321.1,214.7c1.1-0.1,2.3-0.1,3.4,0c1,0,2.4-0.2,3.3,0.2
		c1.6,0.8,0.9,2.9-0.7,3c-1.1,0.1-2.2,0.1-3.2,0c-1,0-2.4,0.2-3.4-0.2C318.8,217.2,319.4,214.9,321.1,214.7
		C322.4,214.7,319.9,214.8,321.1,214.7z"/>
	<path class="st0" d="M327,259.6c-1.4,0-2.9-0.1-4.3-0.1c-1.1,0-2.4-0.1-3.2,0.8c-1.4,1.5-0.1,3.5,1.7,3.6c1.4,0.1,2.8,0.1,4.3,0.1
		c1.1,0,2.5,0.1,3.3-0.8C330.1,261.7,328.9,259.6,327,259.6z M327.1,263.3c-1.1,0.1-2.3,0.1-3.4,0c-1,0-2.4,0.2-3.3-0.2
		c-1.6-0.8-0.9-2.9,0.7-3c1.1-0.1,2.2-0.1,3.2,0c1,0,2.4-0.2,3.4,0.2C329.4,260.9,328.8,263.2,327.1,263.3
		C325.8,263.4,328.2,263.3,327.1,263.3z"/>
	<path class="st0" d="M327,236.9c-1.4,0-2.9-0.1-4.3-0.1c-1.1,0-2.4-0.1-3.2,0.8c-1.4,1.5-0.1,3.5,1.7,3.6c1.4,0.1,2.8,0.1,4.3,0.1
		c1.1,0,2.5,0.1,3.3-0.8C330.1,239.1,328.9,236.9,327,236.9z M327.1,240.6c-1.1,0.1-2.3,0.1-3.4,0c-1,0-2.4,0.2-3.3-0.2
		c-1.6-0.8-0.9-2.9,0.7-3c1.1-0.1,2.2-0.1,3.2,0c1,0,2.4-0.2,3.4,0.2C329.4,238.2,328.8,240.5,327.1,240.6
		C325.8,240.7,328.2,240.6,327.1,240.6z"/>
	<path class="st0" d="M319.3,222.6h9.7c3.4,0,6.4-2.8,6.4-6.2c0-3.5-3-6.3-6.4-6.3h-9.7c-3.4,0-6.4,2.8-6.4,6.3
		S315.8,222.6,319.3,222.6z M319.3,211.4h9.7c2.7,0,5,2.2,5,4.9c0,2.7-2.3,4.9-5,4.9h-9.7c-2.7,0-5-2.2-5-4.9
		C314.2,213.6,316.6,211.4,319.3,211.4z"/>
	<path class="st0" d="M328.9,255.5h-9.7c-3.4,0-6.4,2.8-6.4,6.3c0,3.5,3,6.3,6.4,6.3h9.7c3.4,0,6.4-2.8,6.4-6.3
		C335.3,258.3,332.3,255.5,328.9,255.5z M328.9,266.6h-9.7c-2.7,0-5-2.2-5-4.9c0-2.7,2.3-4.9,5-4.9h9.7c2.7,0,5,2.2,5,4.9
		C334,264.4,331.6,266.6,328.9,266.6z"/>
	<path class="st0" d="M328.9,232.8h-9.7c-3.4,0-6.4,2.8-6.4,6.3c0,3.5,3,6.2,6.4,6.2h9.7c3.4,0,6.4-2.8,6.4-6.3
		C335.3,235.6,332.3,232.8,328.9,232.8z M328.9,243.9h-9.7c-2.7,0-5-2.2-5-4.9c0-2.7,2.3-4.9,5-4.9h9.7c2.7,0,5,2.2,5,4.9
		C334,241.8,331.6,243.9,328.9,243.9z"/>
	<path class="st0" d="M265.5,214.9c-1.4,0-2.9-0.1-4.3-0.1c-1.1,0-2.4-0.1-3.2,0.8c-1.4,1.5-0.1,3.5,1.7,3.6
		c1.4,0.1,2.8,0.1,4.2,0.1c1.1,0,2.5,0.1,3.3-0.8C268.5,217.1,267.3,214.9,265.5,214.9z M265.6,218.7c-1.1,0.1-2.3,0.1-3.4,0
		c-1,0-2.4,0.2-3.3-0.2c-1.6-0.8-0.9-2.9,0.7-3c1.1-0.1,2.2-0.1,3.2,0c1,0,2.4-0.2,3.4,0.2C267.8,216.2,267.3,218.6,265.6,218.7
		C264.3,218.8,266.7,218.6,265.6,218.7z"/>
	<path class="st0" d="M265.5,260.3c-1.4,0-2.9-0.1-4.3-0.1c-1.1,0-2.4-0.1-3.2,0.8c-1.4,1.5-0.1,3.5,1.7,3.6
		c1.4,0.1,2.8,0.1,4.3,0.1c1.1,0,2.5,0.1,3.3-0.8C268.5,262.5,267.3,260.3,265.5,260.3z M265.6,264c-1.1,0.1-2.3,0.1-3.4,0
		c-1,0-2.4,0.2-3.3-0.2c-1.6-0.8-0.9-2.9,0.7-3c1.1-0.1,2.2-0.1,3.2,0c1,0,2.4-0.2,3.4,0.2C267.8,261.6,267.3,263.9,265.6,264
		C264.3,264.1,266.7,264,265.6,264z"/>
	<path class="st0" d="M265.5,237.6c-1.4,0-2.9-0.1-4.3-0.1c-1.1,0-2.4-0.1-3.2,0.8c-1.4,1.5-0.1,3.5,1.7,3.6
		c1.4,0.1,2.8,0.1,4.2,0.1c1.1,0,2.5,0.1,3.3-0.8C268.5,239.8,267.3,237.6,265.5,237.6z M265.6,241.4c-1.1,0.1-2.3,0.1-3.4,0
		c-1,0-2.4,0.2-3.3-0.2c-1.6-0.8-0.9-2.9,0.7-3c1.1-0.1,2.2-0.1,3.2,0c1,0,2.4-0.2,3.4,0.2C267.8,238.9,267.3,241.2,265.6,241.4
		C264.3,241.4,266.7,241.3,265.6,241.4z"/>
	<path class="st0" d="M267.4,210.8h-9.7c-3.4,0-6.4,2.8-6.4,6.3s3,6.2,6.4,6.2h9.7c3.4,0,6.3-2.7,6.4-6.1
		C273.8,213.7,270.9,210.8,267.4,210.8z M267.4,222h-9.7c-2.7,0-5-2.2-5-4.9c0-2.7,2.3-4.9,5-4.9h9.7c2.7,0,5,2.2,5,4.9
		C272.4,219.8,270.1,222,267.4,222z"/>
	<path class="st0" d="M267.4,256.2h-9.7c-3.4,0-6.3,2.7-6.4,6.1c-0.1,3.5,2.9,6.4,6.4,6.4h9.7c3.4,0,6.3-2.7,6.4-6.1
		C273.8,259.1,270.9,256.2,267.4,256.2z M267.4,267.3h-9.7c-2.7,0-5.1-2.3-5-5c0.1-2.7,2.4-4.8,5-4.8h9.7c2.7,0,5,2.2,5,4.9
		C272.4,265.2,270.1,267.3,267.4,267.3z"/>
	<path class="st0" d="M267.4,233.5h-9.7c-3.4,0-6.4,2.8-6.4,6.3c0,3.5,3,6.3,6.4,6.3h9.7c3.4,0,6.3-2.7,6.4-6.1
		C273.8,236.4,270.9,233.5,267.4,233.5z M267.4,244.7h-9.7c-2.7,0-5-2.2-5-4.9c0-2.7,2.3-4.9,5-4.9h9.7c2.7,0,5,2.2,5,4.9
		C272.4,242.5,270.1,244.7,267.4,244.7z"/>
	<path class="st0" d="M234.7,214.9c-1.4,0-2.9-0.1-4.3-0.1c-1.1,0-2.4-0.1-3.2,0.8c-1.4,1.5-0.1,3.5,1.7,3.6
		c1.4,0.1,2.8,0.1,4.2,0.1c1.1,0,2.5,0.1,3.3-0.8C237.8,217.1,236.6,214.9,234.7,214.9z M234.8,218.7c-1.1,0.1-2.3,0.1-3.4,0
		c-1,0-2.4,0.2-3.3-0.2c-1.6-0.8-0.9-2.9,0.7-3c1.1-0.1,2.2-0.1,3.2,0c1,0,2.4-0.2,3.4,0.2C237.1,216.2,236.5,218.6,234.8,218.7
		C233.5,218.8,236,218.6,234.8,218.7z"/>
	<path class="st0" d="M234.7,260.3c-1.4,0-2.9-0.1-4.3-0.1c-1.1,0-2.4-0.1-3.2,0.8c-1.4,1.5-0.1,3.5,1.7,3.6
		c1.4,0.1,2.8,0.1,4.3,0.1c1.1,0,2.5,0.1,3.3-0.8C237.8,262.5,236.6,260.3,234.7,260.3z M234.8,264c-1.1,0.1-2.3,0.1-3.4,0
		c-1,0-2.4,0.2-3.3-0.2c-1.6-0.8-0.9-2.9,0.7-3c1.1-0.1,2.2-0.1,3.2,0c1,0,2.4-0.2,3.4,0.2C237.1,261.6,236.5,263.9,234.8,264
		C233.5,264.1,236,264,234.8,264z"/>
	<path class="st0" d="M234.7,237.6c-1.4,0-2.9-0.1-4.3-0.1c-1.1,0-2.4-0.1-3.2,0.8c-1.4,1.5-0.1,3.5,1.7,3.6
		c1.4,0.1,2.8,0.1,4.2,0.1c1.1,0,2.5,0.1,3.3-0.8C237.8,239.8,236.6,237.6,234.7,237.6z M234.8,241.4c-1.1,0.1-2.3,0.1-3.4,0
		c-1,0-2.4,0.2-3.3-0.2c-1.6-0.8-0.9-2.9,0.7-3c1.1-0.1,2.2-0.1,3.2,0c1,0,2.4-0.2,3.4,0.2C237.1,238.9,236.5,241.2,234.8,241.4
		C233.5,241.4,236,241.3,234.8,241.4z"/>
	<path class="st0" d="M236.6,210.8H227c-3.4,0-6.4,2.8-6.4,6.3s3,6.2,6.4,6.2h9.7c3.4,0,6.4-2.8,6.4-6.3
		C243,213.6,240,210.8,236.6,210.8z M236.6,222H227c-2.7,0-5-2.2-5-4.9c0-2.7,2.3-4.9,5-4.9h9.7c2.7,0,5,2.2,5,4.9
		C241.7,219.8,239.3,222,236.6,222z"/>
	<path class="st0" d="M236.6,256.2H227c-3.4,0-6.3,2.7-6.4,6.1c-0.1,3.5,2.9,6.4,6.4,6.4h9.7c3.4,0,6.4-2.8,6.4-6.3
		C243,259,240,256.2,236.6,256.2z M236.6,267.3H227c-2.7,0-5.1-2.3-5-5c0.1-2.7,2.4-4.8,5-4.8h9.7c2.7,0,5,2.2,5,4.9
		C241.7,265.2,239.3,267.3,236.6,267.3z"/>
	<path class="st0" d="M236.6,233.5H227c-3.4,0-6.4,2.8-6.4,6.3c0,3.5,3,6.3,6.4,6.3h9.7c3.4,0,6.4-2.8,6.4-6.3
		C243,236.3,240,233.5,236.6,233.5z M236.6,244.7H227c-2.7,0-5-2.2-5-4.9c0-2.7,2.3-4.9,5-4.9h9.7c2.7,0,5,2.2,5,4.9
		C241.7,242.5,239.3,244.7,236.6,244.7z"/>
	<path class="st0" d="M203.4,214.9c-1.4,0-2.9-0.1-4.3-0.1c-1.1,0-2.4-0.1-3.2,0.8c-1.4,1.5-0.1,3.5,1.7,3.6
		c1.4,0.1,2.8,0.1,4.2,0.1c1.1,0,2.5,0.1,3.3-0.8C206.4,217.1,205.2,214.9,203.4,214.9z M203.5,218.7c-1.1,0.1-2.3,0.1-3.4,0
		c-1,0-2.4,0.2-3.3-0.2c-1.6-0.8-0.9-2.9,0.7-3c1.1-0.1,2.2-0.1,3.2,0c1,0,2.4-0.2,3.4,0.2C205.7,216.2,205.2,218.6,203.5,218.7
		C202.2,218.8,204.6,218.6,203.5,218.7z"/>
	<path class="st0" d="M203.4,260.3c-1.4,0-2.9-0.1-4.3-0.1c-1.1,0-2.4-0.1-3.2,0.8c-1.4,1.5-0.1,3.5,1.7,3.6
		c1.4,0.1,2.8,0.1,4.3,0.1c1.1,0,2.5,0.1,3.3-0.8C206.4,262.5,205.2,260.3,203.4,260.3z M203.5,264c-1.1,0.1-2.3,0.1-3.4,0
		c-1,0-2.4,0.2-3.3-0.2c-1.6-0.8-0.9-2.9,0.7-3c1.1-0.1,2.2-0.1,3.2,0c1,0,2.4-0.2,3.4,0.2C205.7,261.6,205.2,263.9,203.5,264
		C202.2,264.1,204.6,264,203.5,264z"/>
	<path class="st0" d="M203.4,237.6c-1.4,0-2.9-0.1-4.3-0.1c-1.1,0-2.4-0.1-3.2,0.8c-1.4,1.5-0.1,3.5,1.7,3.6
		c1.4,0.1,2.8,0.1,4.2,0.1c1.1,0,2.5,0.1,3.3-0.8C206.4,239.8,205.2,237.6,203.4,237.6z M203.5,241.4c-1.1,0.1-2.3,0.1-3.4,0
		c-1,0-2.4,0.2-3.3-0.2c-1.6-0.8-0.9-2.9,0.7-3c1.1-0.1,2.2-0.1,3.2,0c1,0,2.4-0.2,3.4,0.2C205.7,238.9,205.2,241.2,203.5,241.4
		C202.2,241.4,204.6,241.3,203.5,241.4z"/>
	<path class="st0" d="M205.3,210.8h-9.7c-3.4,0-6.4,2.8-6.4,6.3s3,6.2,6.4,6.2h9.7c3.4,0,6.3-2.7,6.4-6.1
		C211.7,213.7,208.8,210.8,205.3,210.8z M205.3,222h-9.7c-2.7,0-5-2.2-5-4.9c0-2.7,2.3-4.9,5-4.9h9.7c2.7,0,5,2.2,5,4.9
		C210.3,219.8,208,222,205.3,222z"/>
	<path class="st0" d="M205.3,256.2h-9.7c-3.4,0-6.3,2.7-6.4,6.1c-0.1,3.5,2.9,6.4,6.4,6.4h9.7c3.4,0,6.3-2.7,6.4-6.1
		C211.7,259.1,208.8,256.2,205.3,256.2z M205.3,267.3h-9.7c-2.7,0-5.1-2.3-5-5c0.1-2.7,2.4-4.8,5-4.8h9.7c2.7,0,5,2.2,5,4.9
		C210.3,265.2,208,267.3,205.3,267.3z"/>
	<path class="st0" d="M205.3,233.5h-9.7c-3.4,0-6.4,2.8-6.4,6.3c0,3.5,3,6.3,6.4,6.3h9.7c3.4,0,6.3-2.7,6.4-6.1
		C211.7,236.4,208.8,233.5,205.3,233.5z M205.3,244.7h-9.7c-2.7,0-5-2.2-5-4.9c0-2.7,2.3-4.9,5-4.9h9.7c2.7,0,5,2.2,5,4.9
		C210.3,242.5,208,244.7,205.3,244.7z"/>
	<path class="st0" d="M173.2,214.9c-1.4,0-2.9-0.1-4.3-0.1c-1.1,0-2.4-0.1-3.2,0.8c-1.4,1.5-0.1,3.5,1.7,3.6
		c1.4,0.1,2.8,0.1,4.2,0.1c1.1,0,2.5,0.1,3.3-0.8C176.2,217.1,175,214.9,173.2,214.9z M173.3,218.7c-1.1,0.1-2.3,0.1-3.4,0
		c-1,0-2.4,0.2-3.3-0.2c-1.6-0.8-0.9-2.9,0.7-3c1.1-0.1,2.2-0.1,3.2,0c1,0,2.4-0.2,3.4,0.2C175.5,216.2,175,218.6,173.3,218.7
		C172,218.8,174.4,218.6,173.3,218.7z"/>
	<path class="st0" d="M173.2,260.3c-1.4,0-2.9-0.1-4.3-0.1c-1.1,0-2.4-0.1-3.2,0.8c-1.4,1.5-0.1,3.5,1.7,3.6
		c1.4,0.1,2.8,0.1,4.3,0.1c1.1,0,2.5,0.1,3.3-0.8C176.2,262.5,175,260.3,173.2,260.3z M173.3,264c-1.1,0.1-2.3,0.1-3.4,0
		c-1,0-2.4,0.2-3.3-0.2c-1.6-0.8-0.9-2.9,0.7-3c1.1-0.1,2.2-0.1,3.2,0c1,0,2.4-0.2,3.4,0.2C175.5,261.6,175,263.9,173.3,264
		C172,264.1,174.4,264,173.3,264z"/>
	<path class="st0" d="M173.2,237.6c-1.4,0-2.9-0.1-4.3-0.1c-1.1,0-2.4-0.1-3.2,0.8c-1.4,1.5-0.1,3.5,1.7,3.6
		c1.4,0.1,2.8,0.1,4.2,0.1c1.1,0,2.5,0.1,3.3-0.8C176.2,239.8,175,237.6,173.2,237.6z M173.3,241.4c-1.1,0.1-2.3,0.1-3.4,0
		c-1,0-2.4,0.2-3.3-0.2c-1.6-0.8-0.9-2.9,0.7-3c1.1-0.1,2.2-0.1,3.2,0c1,0,2.4-0.2,3.4,0.2C175.5,238.9,175,241.2,173.3,241.4
		C172,241.4,174.4,241.3,173.3,241.4z"/>
	<path class="st0" d="M175.1,210.8h-9.7c-3.4,0-6.4,2.8-6.4,6.3s3,6.2,6.4,6.2h9.7c3.4,0,6.3-2.7,6.4-6.1
		C181.6,213.7,178.6,210.8,175.1,210.8z M175.1,222h-9.7c-2.7,0-5-2.2-5-4.9c0-2.7,2.3-4.9,5-4.9h9.7c2.7,0,5,2.2,5,4.9
		C180.1,219.8,177.8,222,175.1,222z"/>
	<path class="st0" d="M175.1,256.2h-9.7c-3.4,0-6.3,2.7-6.4,6.1c-0.1,3.5,2.9,6.4,6.4,6.4h9.7c3.4,0,6.3-2.7,6.4-6.1
		C181.6,259.1,178.6,256.2,175.1,256.2z M175.1,267.3h-9.7c-2.7,0-5.1-2.3-5-5c0.1-2.7,2.4-4.8,5-4.8h9.7c2.7,0,5,2.2,5,4.9
		C180.1,265.2,177.8,267.3,175.1,267.3z"/>
	<path class="st0" d="M175.1,233.5h-9.7c-3.4,0-6.4,2.8-6.4,6.3c0,3.5,3,6.3,6.4,6.3h9.7c3.4,0,6.3-2.7,6.4-6.1
		C181.6,236.4,178.6,233.5,175.1,233.5z M175.1,244.7h-9.7c-2.7,0-5-2.2-5-4.9c0-2.7,2.3-4.9,5-4.9h9.7c2.7,0,5,2.2,5,4.9
		C180.1,242.5,177.8,244.7,175.1,244.7z"/>
	<g>
		<path class="st0" d="M145.4,255.9c0.1-0.1,0.1-0.1,0-0.2h-2.9c0,0-0.1,0-0.1,0.1v14.4c0,0.1,0,0.1,0.1,0.1h2.9
			c0.1-0.1,0.1-0.1,0-0.2h-2.8v-14.2H145.4z"/>
		<path class="st0" d="M145.4,204.1c0.1-0.1,0.1-0.1,0-0.2h-2.9c0,0-0.1,0-0.1,0.1v14.4c0,0.1,0,0.1,0.1,0.1h2.9
			c0.1-0.1,0.1-0.1,0-0.2h-2.8v-14.2H145.4z"/>
		<path class="st0" d="M349.4,9.9c-4.7-4.9-11.1-6.4-17.7-6.6l0,0c-8.3-0.4-16.9-0.7-25.4-1c-0.2,0-0.3,0.2-0.3,0.4c0,0,0,0.1,0,0.1
			v2.2c0,0,0,0,0,0c0,0,0,0,0,0v2c0,0-0.1,0-0.1,0.1c-0.1,0-0.2-0.1-0.3-0.1l-6.6-0.2c0,0,0,0,0,0C218.5,4,136.6,4,55.9,6.7
			c0,0,0,0,0,0c-9.7,0.3-19.3,0.7-29,1.1h0l-4.5,0.2c0,0,0,0,0,0c-3.8,0.1-7.5,0.6-10.9,2.5C8.3,12.3,6,15.3,5,18.8c0,0,0,0,0,0l0,0
			c-0.4,1.5-0.6,3-0.7,4.5c0,0,0,0,0,0c0,1.1-0.1,2.2-0.1,3.3v397.8l0,0c-0.2,3.3,0.1,7,1.6,10l0,0l0,0v0c0.6,1.3,1.4,2.4,2.3,3.5
			l0,0c0,0,0,0,0,0c3.6,3.9,9.1,5.1,14.2,5.2c11.1,0.5,22.4,0.9,33.5,1.3c0,0,0,0,0,0c15.8,0.5,31.6,0.9,47.3,1.2
			c15.8,0.3,31.7,0.5,47.5,0.6c15.8,0.1,31.7,0.1,47.6,0c15.8-0.1,31.7-0.3,47.5-0.6c15.8-0.3,31.6-0.7,47.4-1.2c2-0.1,4-0.1,6-0.2
			c0,0,0,0,0,0c11.1-0.4,22.4-0.8,33.5-1.3c5.1,0,10.7-1.2,14.2-5.2l0,0c3.4-3.8,3.9-8.5,3.9-13.5V48.1c0-0.1,0-0.2-0.1-0.3
			c0,0,0.1-0.1,0.1-0.1h1.5h2.4c0.2,0,0.3-0.1,0.3-0.3V27.6C355.1,21.1,354.6,15.4,349.4,9.9C347.2,7.5,354.6,15.4,349.4,9.9z
			 M349.5,227.6C349.5,227.5,349.5,227.5,349.5,227.6c0-0.1,0-0.2-0.1-0.3l0-28.6c0,0,0,0,0-0.1V227.6z M349.4,246.5
			C349.4,246.5,349.5,246.5,349.4,246.5l0,27.4c0,0-0.1,0-0.1,0L349.4,246.5C349.4,246.5,349.4,246.5,349.4,246.5z M349.2,199.3
			c-0.1,0-0.1-0.1-0.2-0.1h-1.8H307h0h-3.3H146.1v-0.4h201.1h1.9c0,0,0,0,0.1,0L349.2,199.3z M303.7,199.8h3.3h0h40.2h1.8
			c0.1,0,0.1,0,0.2-0.1l0,27.4c0,0,0,0,0,0c0,0,0,0,0,0h-0.2c-0.3,0-0.4,0.3-0.2,0.5c-0.3,0-2.2,0.3-1.7,0.9c0,0,0,0,0,0v16.6
			c-0.5,0.5,1.5,1.4,1.9,1.4h0.2c0,0,0,0,0,0c0,0,0,0,0,0l0,27.3h-1.8h-2.7H146.3l0-60c0-0.1,0-0.2-0.1-0.2v-13.8H303.7z
			 M344.6,274.5h2.7v0.4h-201l0-0.4H344.6z M347.4,274.8v-0.4h1.1v0.4H347.4z M349.1,274.5h0.2c0.1,0,0.1,0,0.2-0.1v0.5
			c-0.1-0.1-0.1-0.1-0.2-0.1h-0.2V274.5z M349.5,48.1v150.4c0-0.1-0.1-0.3-0.3-0.3h-1.9H145.9c0,0,0,0-0.1,0h0
			c-0.2,0-0.3,0.1-0.3,0.3v0.9c0,0,0,0,0,0c0,0.1,0,0.1,0.1,0.2v74.5v0.9c0,0.1,0.1,0.3,0.3,0.3h0.1c0,0,0.1,0,0.1,0h201.3
			c0,0,0,0,0,0c0,0,0,0,0,0h1.9c0.1,0,0.1,0,0.2-0.1v149.1c0,2.5,0,5-0.7,7.4v0c-0.6,1.9-1.5,3.7-2.9,5.2c0,0,0,0,0,0
			c-3.4,3.7-8.4,4.6-13.3,4.7c0,0,0,0,0,0c-17.9,0.8-35.9,1.4-53.8,1.9c-18,0.5-36,0.8-54,1.1c-18.1,0.2-36.1,0.3-54.2,0.3
			c-18,0-36.1-0.2-54.1-0.5c-17.9-0.3-35.9-0.7-53.8-1.3c-2.2-0.1-4.5-0.1-6.7-0.2h0c-6.7-0.2-13.4-0.5-20.1-0.7
			c-3.3-0.1-6.7-0.3-10-0.4c-2.9-0.1-5.9-0.1-8.7-0.7c-3-0.6-5.8-1.9-7.8-4.2c0,0,0,0,0,0c-0.9-1-1.6-2-2.1-3.2c0,0,0,0,0,0l0,0
			c-0.3-0.6-0.5-1.3-0.8-2c-0.6-2.5-0.7-4.9-0.7-7.4V26.6c0-1.1,0-2.1,0.1-3.2l0,0c0-0.9,0.1-1.8,0.3-2.7v0c0.1-0.5,0.2-1,0.3-1.4
			l0,0l0,0c0.9-3.3,3.1-6,6.1-7.7c3.1-1.7,6.6-2.1,10.1-2.2c0,0,0,0,0,0L27,9.1h0C36.6,8.7,46.3,8.3,56,8c0,0,0,0,0,0
			c80.7-2.6,162.5-2.6,243.2,0l0,0l6.6,0.2c0.1,0,0.3-0.1,0.4-0.1c0.7,0.3,1.9,0.1,2.6,0.1c1,0,2.1,0.1,3.1,0.1
			c1.9,0.1,3.8,0.1,5.7,0.2c3.9,0.1,7.7,0.3,11.6,0.5c3.6,0.2,7.4,0,10.9,1.2c3,1,5.7,2.9,7.4,5.6c2,3.3,2.2,7,2.2,10.7v20.9
			c0,0.1,0,0.2,0.1,0.3C349.5,47.8,349.5,48,349.5,48.1z M354.5,47.2h-2.1h-1.5V26.6c0-3.6-0.1-7.2-1.8-10.4
			c-1.5-2.9-3.9-5.1-6.9-6.5c-3.3-1.5-6.8-1.7-10.4-1.8c-3.9-0.2-7.9-0.3-11.8-0.5c-4.5-0.2-8.9-0.3-13.4-0.5V4.9c0,0,0,0,0,0
			c0,0,0,0,0,0v-2c8.4,0.3,16.8,0.6,25.1,1c0,0,0,0,0,0c3.5,0.1,7,0.5,10.3,1.8c2.9,1.2,5.5,3,7.6,5.3c4.1,4.7,4.9,10.6,4.9,16.7
			V47.2z"/>
		<path class="st0" d="M354.8,47.8c-0.2,0-0.3,0.1-0.3,0.3v375.2c0,5-0.4,10.1-3.2,14.4c-3,4.6-7.8,7.7-13.2,8.7
			c-3,0.6-6.1,0.6-9.2,0.8c-3.3,0.1-6.6,0.3-9.9,0.4c-6.4,0.2-12.9,0.5-19.3,0.7c-26.1,0.9-52.3,1.5-78.4,1.8
			c-26.1,0.3-52.1,0.3-78.2,0.1c-26.1-0.2-52.3-0.8-78.4-1.6c-13-0.4-26.1-0.9-39.1-1.4c-5.8-0.2-11.6-0.6-16.6-3.9
			c-4.3-3-7.2-7.6-8.1-12.8c-0.4-2.4-0.5-4.8-0.5-7.2V27.6c0-6.1,0.7-11.9,4.9-16.7c2-2.3,4.5-4.1,7.4-5.3c3.3-1.4,6.9-1.7,10.5-1.9
			c0,0,0,0,0,0C43.2,3,63.1,2.3,83,1.8c19.9-0.5,39.8-0.9,59.7-1c20.1-0.2,40.2-0.2,60.3-0.1c20,0.1,40,0.4,59.9,0.9
			c10,0.2,20.1,0.5,30.1,0.8c2.5,0.1,5,0.2,7.5,0.2c1.2,0,2.4,0.1,3.6,0.1c0.4,0,1.4,0.2,1.7,0c0.8-0.5-0.7-0.6-0.9-0.6
			c-5-0.2-10-0.3-15.1-0.5c-20-0.6-39.9-1-59.9-1.3C209.9,0.1,189.7,0,169.6,0c-19.9,0-39.9,0.2-59.8,0.6C89.9,1,69.9,1.5,50,2.2
			c-4.9,0.2-9.8,0.4-14.7,0.5C30.4,2.9,25.5,3,20.6,3.4C16.3,3.7,12,4.9,8.4,7.4c-3.2,2.3-5.8,5.7-7.1,9.4C0.1,20.3,0,24,0,27.6
			v395.8c0,6.2,0.8,12.1,4.9,16.9c2.1,2.4,4.7,4.3,7.6,5.5c3.4,1.4,7.1,1.8,10.8,2c0,0,0,0,0,0c0,0,0,0,0,0c20,0.8,40,1.5,60,2
			c20.1,0.5,40.2,0.9,60.2,1c20.1,0.2,40.2,0.2,60.3,0.1c20.1-0.1,40.2-0.5,60.2-0.9c20-0.5,40-1.1,60.1-1.9c2.5-0.1,5-0.2,7.5-0.3
			c0,0,0,0,0,0c3.6-0.1,7.1-0.5,10.5-1.8c3-1.2,5.6-3,7.8-5.5c4.3-4.9,5-10.8,5-17.1V48.1C355.1,48,354.9,47.8,354.8,47.8z"/>
	</g>
	<g>
		<path class="st0" d="M328.9,341.9L328.9,341.9l-14.3,0c-2.9,0-5.4,2.4-5.4,5.3c0,2.9,2.5,5.3,5.4,5.3h14.3c2.8,0,5.3-2.3,5.4-5.1
			C334.4,344.3,331.9,341.9,328.9,341.9z M328.9,351.1h-14.3c-2.1,0-4-1.7-4-3.9c0-2.2,1.9-3.9,4-3.9h14.3c2.1,0,4,1.7,4,3.9
			C332.9,349.3,331.1,351.1,328.9,351.1z"/>
		<path class="st0" d="M328.9,317.6L328.9,317.6l-14.3,0c-2.9,0-5.4,2.4-5.4,5.3c0,2.9,2.5,5.3,5.4,5.3h14.3c2.8,0,5.3-2.3,5.4-5.1
			C334.4,320,331.9,317.6,328.9,317.6z M328.9,326.7h-14.3c-2.1,0-4-1.7-4-3.9c0-2.2,1.9-3.9,4-3.9h14.3c2.1,0,4,1.7,4,3.9
			C332.9,325,331.1,326.7,328.9,326.7z"/>
		<path class="st0" d="M227.5,418.8h-29c-2.9,0-5.4,2.4-5.4,5.3s2.5,5.3,5.4,5.3h29c2.9,0,5.4-2.4,5.4-5.3
			C232.8,421.1,230.4,418.8,227.5,418.8z M227.5,427.9h-29c-2.1,0-4-1.7-4-3.9c0-2.2,1.9-3.9,4-3.9h29c2.1,0,4,1.7,4,3.9
			C231.5,426.2,229.6,427.9,227.5,427.9z"/>
		<path class="st0" d="M314.6,303.7h14.3c2.9,0,5.4-2.4,5.4-5.3c0-2.9-2.5-5.3-5.4-5.3h-14.3c-2.9,0-5.4,2.4-5.4,5.3
			C309.3,301.4,311.8,303.7,314.6,303.7z M314.6,294.6h14.3c2.1,0,4,1.7,4,3.9c0,2.2-1.9,3.9-4,3.9h-14.3c-2.1,0-4-1.7-4-3.9
			C310.6,296.3,312.5,294.6,314.6,294.6z"/>
		<path class="st0" d="M175.1,418.8h-9.7c-2.9,0-5.4,2.4-5.4,5.3s2.5,5.3,5.4,5.3h9.7c2.8,0,5.3-2.3,5.4-5.1
			C180.5,421.2,178,418.8,175.1,418.8z M175.1,427.9h-9.7c-2.1,0-4-1.7-4-3.9c0-2.2,1.9-3.9,4-3.9h9.7c2.1,0,4,1.7,4,3.9
			C179.1,426.2,177.2,427.9,175.1,427.9z"/>
		<path class="st0" d="M293.6,418.8h-9.7c-2.9,0-5.4,2.4-5.4,5.3s2.5,5.3,5.4,5.3h9.7c2.9,0,5.4-2.4,5.4-5.3
			S296.5,418.8,293.6,418.8z M293.6,427.9h-9.7c-2.1,0-4-1.7-4-3.9c0-2.2,1.9-3.9,4-3.9h9.7c2.1,0,4,1.7,4,3.9
			C297.6,426.2,295.7,427.9,293.6,427.9z"/>
		<path class="st0" d="M260.5,418.8h-9.7c-2.9,0-5.4,2.4-5.4,5.3s2.5,5.3,5.4,5.3h9.7c2.9,0,5.4-2.4,5.4-5.3
			C265.9,421.1,263.4,418.8,260.5,418.8z M260.5,427.9h-9.7c-2.1,0-4-1.7-4-3.9c0-2.2,1.9-3.9,4-3.9h9.7c2.1,0,4,1.7,4,3.9
			C264.5,426.2,262.7,427.9,260.5,427.9z"/>
		<path class="st0" d="M328.9,366.2L328.9,366.2l-14.3,0c-2.9,0-5.4,2.4-5.4,5.3s2.5,5.3,5.4,5.3h14.3c2.8,0,5.3-2.3,5.4-5.1
			C334.4,368.7,331.9,366.2,328.9,366.2z M328.9,375.4h-14.3c-2.1,0-4-1.7-4-3.9c0-2.2,1.9-3.9,4-3.9h14.3c2.1,0,4,1.7,4,3.9
			C332.9,373.7,331.1,375.4,328.9,375.4z"/>
		<path class="st0" d="M328.9,390.6L328.9,390.6l-14.3,0c-2.9,0-5.4,2.4-5.4,5.3c0,2.9,2.5,5.3,5.4,5.3h14.3c2.8,0,5.3-2.3,5.4-5.1
			C334.4,393,331.9,390.6,328.9,390.6z M328.9,399.8h-14.3c-2.1,0-4-1.7-4-3.9c0-2.2,1.9-3.9,4-3.9h14.3c2.1,0,4,1.7,4,3.9
			C332.9,398,331.1,399.8,328.9,399.8z"/>
		<path class="st0" d="M172,313.2h24.2c3,0,5.4-2.4,5.4-5.3v-9.5c0-2.9-2.5-5.3-5.4-5.3H172c-3,0-5.4,2.4-5.4,5.3v9.5
			C166.6,310.8,169.1,313.2,172,313.2z M168,298.5c0-2.2,1.8-3.9,4-3.9h24.2c2.2,0,4,1.8,4,3.9v9.5c0,2.2-1.8,3.9-4,3.9H172
			c-2.2,0-4-1.8-4-3.9V298.5z"/>
		<path class="st0" d="M172,401.1h24.2c3,0,5.4-2.4,5.4-5.3v-9.5c0-2.9-2.5-5.3-5.4-5.3H172c-3,0-5.4,2.4-5.4,5.3v9.5
			C166.6,398.8,169.1,401.1,172,401.1z M168,386.4c0-2.2,1.8-3.9,4-3.9h24.2c2.2,0,4,1.8,4,3.9v9.5c0,2.2-1.8,3.9-4,3.9H172
			c-2.2,0-4-1.8-4-3.9V386.4z"/>
		<path class="st0" d="M247,386.4c0-2.9-2.4-5.3-5.4-5.3h-24.2c-3,0-5.4,2.4-5.4,5.3v9.5c0,2.9,2.5,5.3,5.4,5.3h24.2
			c3,0,5.4-2.4,5.4-5.3V386.4z M241.6,399.8h-24.2c-2.2,0-4-1.8-4-3.9v-9.5c0-2.2,1.8-3.9,4-3.9h24.2c2.2,0,4,1.8,4,3.9v9.5
			C245.6,398,243.8,399.8,241.6,399.8z"/>
		<path class="st0" d="M262.9,401.1H287c3,0,5.4-2.4,5.4-5.3v-9.5c0-2.9-2.4-5.3-5.4-5.3h-24.2c-3,0-5.4,2.4-5.4,5.3v9.5
			C257.5,398.8,259.9,401.1,262.9,401.1z M258.8,386.4c0-2.2,1.8-3.9,4-3.9H287c2.2,0,4,1.8,4,3.9v9.5c0,2.2-1.8,3.9-4,3.9h-24.2
			c-2.2,0-4-1.8-4-3.9V386.4z"/>
		<path class="st0" d="M172,371.8h24.2c3,0,5.4-2.4,5.4-5.3v-9.5c0-2.9-2.5-5.3-5.4-5.3H172c-3,0-5.4,2.4-5.4,5.3v9.5
			C166.6,369.4,169.1,371.8,172,371.8z M172,353.2h24.2c2.2,0,4,1.8,4,3.9v9.5c0,2.2-1.8,3.9-4,3.9H172c-2.2,0-4-1.8-4-3.9v-9.5
			C168,354.9,169.8,353.2,172,353.2z"/>
		<path class="st0" d="M217.4,371.8L217.4,371.8l24.2,0c3,0,5.4-2.4,5.4-5.3v-9.5c0-2.9-2.4-5.3-5.4-5.3h-24.2c-3,0-5.4,2.4-5.4,5.3
			v9.5C212.1,369.4,214.6,371.8,217.4,371.8z M217.4,353.2h24.2c2.2,0,4,1.8,4,3.9v9.5c0,2.2-1.8,3.9-4,3.9h-24.2
			c-2.2,0-4-1.8-4-3.9v-9.5C213.4,354.9,215.2,353.2,217.4,353.2z"/>
		<path class="st0" d="M262.9,371.8H287c3,0,5.4-2.4,5.4-5.3v-9.5c0-2.9-2.4-5.3-5.4-5.3h-24.2c-3,0-5.4,2.4-5.4,5.3v9.5
			C257.5,369.4,260,371.8,262.9,371.8z M262.9,353.2H287c2.2,0,4,1.8,4,3.9v9.5c0,2.2-1.8,3.9-4,3.9h-24.2c-2.2,0-4-1.8-4-3.9v-9.5
			C258.8,354.9,260.6,353.2,262.9,353.2z"/>
		<path class="st0" d="M172,342.5h24.2c3,0,5.4-2.4,5.4-5.3v-9.5c0-2.9-2.5-5.3-5.4-5.3H172c-3,0-5.4,2.4-5.4,5.3v9.5
			C166.6,340.1,169.1,342.5,172,342.5z M168,327.8c0-2.2,1.8-3.9,4-3.9h24.2c2.2,0,4,1.8,4,3.9v9.5c0,2.2-1.8,3.9-4,3.9H172
			c-2.2,0-4-1.8-4-3.9V327.8z"/>
		<path class="st0" d="M217.4,342.5L217.4,342.5l24.2,0c3,0,5.4-2.4,5.4-5.3v-9.5c0-2.9-2.4-5.3-5.4-5.3h-24.2c-3,0-5.4,2.4-5.4,5.3
			v9.5C212.1,340.1,214.5,342.5,217.4,342.5z M213.4,327.8c0-2.2,1.8-3.9,4-3.9h24.2c2.2,0,4,1.8,4,3.9v9.5c0,2.2-1.8,3.9-4,3.9
			h-24.2c-2.2,0-4-1.8-4-3.9V327.8z"/>
		<path class="st0" d="M262.9,342.5H287c3,0,5.4-2.4,5.4-5.3v-9.5c0-2.9-2.4-5.3-5.4-5.3h-24.2c-3,0-5.4,2.4-5.4,5.3v9.5
			C257.5,340.1,259.9,342.5,262.9,342.5z M258.8,327.8c0-2.2,1.8-3.9,4-3.9H287c2.2,0,4,1.8,4,3.9v9.5c0,2.2-1.8,3.9-4,3.9h-24.2
			c-2.2,0-4-1.8-4-3.9V327.8z"/>
		<path class="st0" d="M262.9,313.2H287c3,0,5.4-2.4,5.4-5.3v-9.5c0-2.9-2.4-5.3-5.4-5.3h-24.2c-3,0-5.4,2.4-5.4,5.3v9.5
			C257.5,310.8,259.9,313.2,262.9,313.2z M258.8,298.5c0-2.2,1.8-3.9,4-3.9H287c2.2,0,4,1.8,4,3.9v9.5c0,2.2-1.8,3.9-4,3.9h-24.2
			c-2.2,0-4-1.8-4-3.9V298.5z"/>
		<path class="st0" d="M217.4,313.2L217.4,313.2l24.2,0c3,0,5.4-2.4,5.4-5.3v-9.5c0-2.9-2.4-5.3-5.4-5.3h-24.2c-3,0-5.4,2.4-5.4,5.3
			v9.5C212.1,310.8,214.5,313.2,217.4,313.2z M213.4,298.5c0-2.2,1.8-3.9,4-3.9h24.2c2.2,0,4,1.8,4,3.9v9.5c0,2.2-1.8,3.9-4,3.9
			h-24.2c-2.2,0-4-1.8-4-3.9V298.5z"/>
		<polygon class="st0" points="317.6,383.8 317.6,386.9 318,386.9 318,385.5 319.7,385.5 319.7,386.9 320.1,386.9 320.1,383.8 
			319.7,383.8 319.7,385.1 318,385.1 318,383.8 		"/>
		<path class="st0" d="M322.8,385.8c0-1.5-2.2-1.5-2.2,0C320.6,387.3,322.8,387.3,322.8,385.8z M321,385.8c0-1.1,1.4-1.1,1.4,0
			C322.4,386.8,321,386.9,321,385.8z"/>
		<rect x="323.3" y="383.8" class="st0" width="0.4" height="3.1"/>
		<path class="st0" d="M326.3,386.9v-3.1h-0.4v1.2h0c-0.6-0.9-1.8,0-1.8,0.8c0,0.8,1.3,1.9,1.8,0.8h0v0.3H326.3z M325.2,386.6
			c-0.9,0-1-1.7,0-1.7C326.2,384.9,326.2,386.6,325.2,386.6z"/>
		<polygon class="st0" points="313.9,359.8 315,359.8 315,362.5 315.4,362.5 315.4,359.8 316.4,359.8 316.4,359.5 313.9,359.5 		"/>
		<path class="st0" d="M316.3,360.3v2.2h0.4v-1c0-0.6,0.2-0.9,0.8-0.9v-0.4c-0.4,0-0.7,0.2-0.8,0.5h0v-0.5H316.3z"/>
		<path class="st0" d="M318.4,361.3c-1.6,0.3-0.2,2.1,0.8,1c0,0.3,0.3,0.4,0.6,0.3v-0.3c-0.2,0.1-0.2-0.1-0.2-0.2v-1.2
			c0-0.9-1.8-0.8-1.8,0.1h0.4C318.2,360.2,320.2,360.9,318.4,361.3C318.1,361.4,318.9,361.2,318.4,361.3z M319.2,361.8
			c0,0.4-0.8,0.7-1.1,0.4c-0.5-0.6,0.9-0.6,1.1-0.7V361.8z"/>
		<path class="st0" d="M320.2,360.3v2.2h0.4v-1.3c0-0.7,1.1-1,1.1-0.3v1.5h0.4v-1.5c0-0.8-1.1-1.2-1.5-0.4h0v-0.4H320.2z"/>
		<path class="st0" d="M323.5,362.3c-0.3,0-0.6-0.1-0.6-0.4h-0.4c0.1,1.3,2.5,0.7,1.8-0.3c-0.3-0.4-1.1-0.2-1.3-0.6
			c-0.3-0.5,0.9-0.6,1-0.1h0.4c-0.1-1.1-2.2-0.8-1.8,0.2c0.2,0.5,0.9,0.3,1.2,0.5C324.2,362,324,362.3,323.5,362.3z"/>
		<path class="st0" d="M325.7,359.7c0.1,0,0.1,0,0.2,0v-0.3c-0.4-0.1-0.9,0.1-0.9,0.5v0.3h-0.4v0.3h0.4v1.9h0.4v-1.9h0.4v-0.3h-0.4
			V360C325.4,359.8,325.5,359.7,325.7,359.7z"/>
		<path class="st0" d="M327.1,360.3c-0.6,0-1.1,0.5-1.1,1.2c0,1.2,1.8,1.7,2.1,0.4h-0.4c-0.2,0.8-1.3,0.4-1.3-0.3h1.7
			C328.2,361,327.9,360.3,327.1,360.3z M326.4,361.2c0.1-0.8,1.3-0.8,1.3,0H326.4z"/>
		<path class="st0" d="M328.5,360.3v2.2h0.4v-1c0-0.6,0.2-0.9,0.8-0.9v-0.4c-0.4,0-0.7,0.2-0.8,0.5h0v-0.5H328.5z"/>
		<polygon class="st0" points="319.7,338.2 319.7,335.1 319.2,335.1 318.2,337.7 317.2,335.1 316.6,335.1 316.6,338.2 317,338.2 
			317,335.6 317,335.6 318,338.2 318.3,338.2 319.3,335.6 319.3,335.6 319.3,338.2 		"/>
		<path class="st0" d="M321.3,335.9c-0.6,0-1.1,0.5-1.1,1.2c0,1.2,1.8,1.7,2.1,0.4H322c-0.2,0.8-1.3,0.4-1.3-0.3h1.7
			C322.4,336.7,322.1,335.9,321.3,335.9z M320.6,336.9c0.1-0.8,1.3-0.8,1.3,0H320.6z"/>
		<path class="st0" d="M322.8,336v2.2h0.4v-1.3c0-0.7,1.1-1,1.1-0.3v1.5h0.4v-1.5c0-0.8-1.1-1.2-1.5-0.4h0V336H322.8z"/>
		<path class="st0" d="M325.2,336v1.5c0,0.8,1.1,1.2,1.5,0.4h0v0.4h0.4V336h-0.4v1.3c0,0.7-1.1,1-1.1,0.3V336H325.2z"/>
		<path class="st0" d="M313.2,310.6v3.1h1.1c2,0,2-3.1,0-3.1H313.2z M315.4,312.1c0,1.1-0.8,1.2-1.1,1.2h-0.7v-2.4h0.7
			C315.1,310.9,315.4,311.4,315.4,312.1z"/>
		<rect x="316.3" y="310.6" class="st0" width="0.4" height="0.5"/>
		<rect x="316.3" y="311.5" class="st0" width="0.4" height="2.2"/>
		<path class="st0" d="M317.2,311.5v2.2h0.4v-1c0-0.6,0.2-0.9,0.8-0.9v-0.4c-0.4,0-0.7,0.2-0.8,0.5h0v-0.5H317.2z"/>
		<path class="st0" d="M319.6,311.4c-0.6,0-1.1,0.5-1.1,1.2c0,1.2,1.8,1.7,2.1,0.4h-0.4c-0.2,0.8-1.3,0.4-1.3-0.3h1.7
			C320.7,312.1,320.4,311.4,319.6,311.4z M318.9,312.4c0.1-0.8,1.3-0.8,1.3,0H318.9z"/>
		<path class="st0" d="M322,311.7c0.3,0,0.5,0.2,0.6,0.4h0.4c-0.1-1.3-2.1-0.8-2.1,0.4c0,1.3,1.9,1.6,2.1,0.3h-0.4
			c-0.1,0.7-1,0.7-1.2,0.1C321.2,312.4,321.4,311.7,322,311.7z"/>
		<path class="st0" d="M324.4,311.8v-0.3h-0.5v-0.7h-0.4v0.7h-0.4v0.3h0.4v1.4c0,0.4,0.2,0.5,0.5,0.5h0.3v-0.3h-0.2
			c-0.2,0-0.3,0-0.3-0.2v-1.4H324.4z"/>
		<path class="st0" d="M324.7,312.6c0,1.5,2.2,1.5,2.2,0C326.9,311,324.7,311,324.7,312.6z M326.5,312.6c0,1.1-1.4,1.1-1.4,0
			C325.1,311.5,326.5,311.5,326.5,312.6z"/>
		<path class="st0" d="M327.3,311.5v2.2h0.4v-1c0-0.6,0.2-0.9,0.8-0.9v-0.4c-0.4,0-0.7,0.2-0.8,0.5h0v-0.5H327.3z"/>
		<path class="st0" d="M329,314.3c-0.1,0-0.2,0-0.2-0.1v0.3c0.5,0.2,0.8-0.2,0.9-0.6l1-2.5h-0.4l-0.6,1.8h0l-0.7-1.8h-0.4l0.9,2.2
			l-0.2,0.4C329.3,314.2,329.2,314.3,329,314.3z"/>
		<path class="st0" d="M320,287.8c0-1-0.5-1.5-1.5-1.5h-1.1v3.1h1.1C319.6,289.5,320,288.9,320,287.8z M317.9,286.7h0.7
			c1.5,0,1.4,2.4,0,2.4h-0.7V286.7z"/>
		<polygon class="st0" points="321,287 321,287 322.6,289.5 323.1,289.5 323.1,286.4 322.7,286.4 322.7,288.9 322.7,288.9 
			321,286.4 320.6,286.4 320.6,289.5 321,289.5 		"/>
		<path class="st0" d="M326.4,287.8c0-1-0.5-1.5-1.5-1.5h-1.1v3.1h1.1C325.9,289.5,326.4,288.9,326.4,287.8z M324.2,286.7h0.7
			c1.5,0,1.4,2.4,0,2.4h-0.7V286.7z"/>
		<polygon class="st0" points="166,412.3 166,412.3 167,414.9 167.4,414.9 168.4,412.3 168.4,412.3 168.4,414.9 168.8,414.9 
			168.8,411.8 168.2,411.8 167.2,414.4 166.2,411.8 165.6,411.8 165.6,414.9 166,414.9 		"/>
		<path class="st0" d="M171.3,414.9v-2.2h-0.4v1.3c0,0.7-1.1,1-1.1,0.3v-1.5h-0.4v1.5c0,0.8,1.1,1.2,1.5,0.4h0v0.4H171.3z"/>
		<path class="st0" d="M172.8,413v-0.3h-0.5V412H172v0.7h-0.4v0.3h0.4v1.4c0,0.4,0.2,0.5,0.5,0.5h0.3v-0.3h-0.2
			c-0.2,0-0.3,0-0.3-0.2V413H172.8z"/>
		<path class="st0" d="M174.2,412.6c-0.6,0-1.1,0.5-1.1,1.2c0,1.2,1.8,1.7,2.1,0.4h-0.4c-0.2,0.8-1.3,0.4-1.3-0.3h1.7
			C175.3,413.4,175,412.6,174.2,412.6z M173.5,413.6c0.1-0.8,1.3-0.8,1.3,0H173.5z"/>
		<polygon class="st0" points="207.3,414.9 208.4,411.8 208,411.8 207.1,414.5 207.1,414.5 206.2,411.8 205.7,411.8 206.8,414.9 		
			"/>
		<path class="st0" d="M209.4,415c1.5,0,1.5-2.3,0-2.3C208,412.6,208,415,209.4,415z M209.4,413c1,0,0.9,1.7,0,1.7
			C208.5,414.6,208.5,413,209.4,413z"/>
		<rect x="211" y="411.8" class="st0" width="0.4" height="3.1"/>
		<path class="st0" d="M212.8,415c0.3,0,0.6-0.1,0.7-0.4h0v0.4h0.4v-2.2h-0.4v1.3c0,0.7-1.1,1-1.1,0.3v-1.5H212v1.5
			C212,414.6,212.2,415,212.8,415z"/>
		<path class="st0" d="M214.5,412.7v2.2h0.4v-1.4c0-0.6,1-0.8,1-0.1v1.5h0.4v-1.4c0-0.7,1-0.8,1-0.1v1.5h0.4v-1.6
			c0-0.8-1.1-0.8-1.5-0.3c-0.2-0.6-1.1-0.4-1.4,0h0v-0.3H214.5z"/>
		<path class="st0" d="M219.2,412.6c-0.6,0-1.1,0.5-1.1,1.2c0,1.2,1.8,1.7,2.1,0.4h-0.4c-0.2,0.8-1.3,0.4-1.3-0.3h1.7
			C220.2,413.4,220,412.6,219.2,412.6z M218.5,413.6c0.1-0.8,1.3-0.8,1.3,0H218.5z"/>
		<path class="st0" d="M249,414.6c-0.5,0-0.9-0.2-0.9-0.7h-0.4c0,2.1,3.7,0.7,2.2-0.5c-0.4-0.3-1.8-0.2-1.7-0.9
			c0.1-0.7,1.4-0.5,1.5,0.2h0.4c-0.1-1.4-2.6-1.2-2.3,0.1c0.2,0.8,1,0.5,1.6,0.8C250.1,414,249.8,414.6,249,414.6z"/>
		<path class="st0" d="M251.1,414.6L251.1,414.6c0.6,0.9,1.8,0,1.8-0.8c0-0.8-1.3-1.9-1.8-0.8h0v-0.3h-0.4v3.1h0.4V414.6z
			 M251.8,413c0.9,0,1,1.7,0,1.7C250.8,414.7,250.8,413,251.8,413z"/>
		<path class="st0" d="M254.3,415c0.5,0,0.9-0.3,1-0.8h-0.4c-0.2,0.8-1.3,0.4-1.3-0.3h1.7c0.1-1.6-2.1-1.7-2.1-0.1
			C253.2,414.5,253.6,415,254.3,415z M254.2,413c0.4,0,0.6,0.3,0.7,0.6h-1.3C253.6,413.2,253.8,413,254.2,413z"/>
		<path class="st0" d="M256.3,413.7c-1.6,0.3-0.2,2.1,0.8,1c0,0.3,0.3,0.4,0.6,0.3v-0.3c-0.2,0.1-0.2-0.1-0.2-0.2v-1.2
			c0-0.9-1.8-0.8-1.8,0.1h0.4C256.1,412.5,258.1,413.3,256.3,413.7C256,413.7,256.8,413.6,256.3,413.7z M257.1,414.1
			c0,0.4-0.8,0.7-1.1,0.4c-0.5-0.6,0.9-0.6,1.1-0.7V414.1z"/>
		<polygon class="st0" points="258.1,411.8 258.1,414.9 258.5,414.9 258.5,414.1 258.8,413.8 259.6,414.9 260.1,414.9 259.1,413.5 
			260,412.7 259.5,412.7 258.5,413.7 258.5,411.8 		"/>
		<path class="st0" d="M261.3,412.6c-0.6,0-1.1,0.5-1.1,1.2c0,1.2,1.8,1.8,2.1,0.4H262c-0.2,0.8-1.3,0.4-1.3-0.3h1.7
			C262.4,413.4,262.1,412.6,261.3,412.6z M260.6,413.6c0.1-0.8,1.3-0.8,1.3,0H260.6z"/>
		<path class="st0" d="M262.7,412.7v2.2h0.4v-1c0-0.6,0.2-0.9,0.8-0.9v-0.4c-0.4,0-0.7,0.2-0.8,0.5h0v-0.5H262.7z"/>
		<polygon class="st0" points="283.4,414.9 283.4,411.8 282.9,411.8 282.9,413.2 281.3,413.2 281.3,411.8 280.8,411.8 280.8,414.9 
			281.3,414.9 281.3,413.5 282.9,413.5 282.9,414.9 		"/>
		<path class="st0" d="M284.9,412.6c-0.6,0-1.1,0.5-1.1,1.2c0,1.2,1.8,1.7,2.1,0.4h-0.4c-0.2,0.8-1.3,0.4-1.3-0.3h1.7
			C286,413.4,285.7,412.6,284.9,412.6z M284.3,413.6c0.1-0.8,1.3-0.8,1.3,0H284.3z"/>
		<path class="st0" d="M287,413.7c-1.6,0.3-0.2,2.1,0.8,1c0,0.3,0.3,0.4,0.6,0.3v-0.3c-0.2,0.1-0.2-0.1-0.2-0.2v-1.2
			c0-0.9-1.8-0.8-1.8,0.1h0.4C286.7,412.5,288.8,413.3,287,413.7C286.6,413.7,287.4,413.6,287,413.7z M287.8,414.1
			c0,0.4-0.8,0.7-1.1,0.4c-0.5-0.6,0.9-0.6,1.1-0.7V414.1z"/>
		<path class="st0" d="M290.8,414.9v-3.1h-0.4v1.2h0c-0.6-0.9-1.8,0-1.8,0.8c0,0.8,1.3,1.9,1.8,0.8h0v0.3H290.8z M289.7,414.6
			c-0.9,0-1-1.7,0-1.7C290.7,412.9,290.7,414.6,289.7,414.6z"/>
		<path class="st0" d="M291.3,413.3c0,0.9,1.3,0.4,1.5,1c0.2,0.6-1.1,0.6-1.1,0h-0.4c0.1,1.3,2.5,0.7,1.8-0.3
			c-0.3-0.4-1.1-0.2-1.3-0.6c-0.3-0.5,0.9-0.6,1-0.1h0.4C293,412.4,291.3,412.4,291.3,413.3z"/>
		<path class="st0" d="M294.6,415c0.5,0,0.9-0.3,1-0.8h-0.4c-0.2,0.8-1.3,0.4-1.3-0.3h1.7c0.1-1.6-2.1-1.7-2.1-0.1
			C293.5,414.5,293.8,415,294.6,415z M294.5,413c0.4,0,0.6,0.3,0.7,0.6h-1.3C293.9,413.2,294.1,413,294.5,413z"/>
		<path class="st0" d="M296.1,414.4c0,0.4,0.2,0.5,0.5,0.5h0.3v-0.3h-0.2c-0.2,0-0.3,0-0.3-0.2V413h0.5v-0.3h-0.5V412h-0.4v0.7h-0.4
			v0.3h0.4V414.4z"/>
		<rect x="321" y="349.3" class="st0" width="4.5" height="0.7"/>
		<rect x="321" y="348" class="st0" width="4.5" height="0.7"/>
		<rect x="321" y="346.7" class="st0" width="4.5" height="0.7"/>
		<rect x="321" y="345.5" class="st0" width="4.5" height="0.7"/>
		<rect x="321" y="344.2" class="st0" width="4.5" height="0.7"/>
		<polygon class="st0" points="318.1,347.1 320.4,345.8 318.1,344.6 		"/>
		<rect x="197.1" y="426" class="st0" width="1" height="0.3"/>
		<rect x="199" y="425.8" class="st0" width="1" height="0.6"/>
		<rect x="201" y="425.5" class="st0" width="1" height="0.8"/>
		<rect x="202.9" y="425.2" class="st0" width="1" height="1.1"/>
		<rect x="204.8" y="424.9" class="st0" width="1" height="1.4"/>
		<rect x="206.8" y="424.6" class="st0" width="1" height="1.7"/>
		<rect x="208.7" y="424.4" class="st0" width="1" height="1.9"/>
		<rect x="210.6" y="424.1" class="st0" width="1" height="2.2"/>
		<rect x="212.6" y="423.8" class="st0" width="1" height="2.5"/>
		<rect x="214.5" y="423.5" class="st0" width="1" height="2.8"/>
		<rect x="216.4" y="423.3" class="st0" width="1" height="3.1"/>
		<rect x="218.4" y="423" class="st0" width="1" height="3.3"/>
		<rect x="220.3" y="422.7" class="st0" width="1" height="3.6"/>
		<rect x="222.2" y="422.4" class="st0" width="1" height="3.9"/>
		<rect x="224.2" y="422.1" class="st0" width="1" height="4.2"/>
		<rect x="226.1" y="421.9" class="st0" width="1" height="4.4"/>
		<rect x="228" y="421.6" class="st0" width="1" height="4.7"/>
		<path class="st0" d="M324.8,393.4c-1.5-1.6-3.1-0.4-4.5,0.8c-1.4,1.2-3.3,3-1.6,4.8l1.1-1.6c-0.9-1,0.3-1.5,1-2.1
			c0.7-0.6,1.3-1.8,2.2-0.8L324.8,393.4z"/>
		<path class="st0" d="M321,397.8c-0.8,0-0.8,1.3,0,1.3C321.9,399.1,321.9,397.8,321,397.8z"/>
		<path class="st0" d="M323.1,397.8c-0.8,0-0.8,1.3,0,1.3C323.9,399.1,323.9,397.8,323.1,397.8z"/>
		<path class="st0" d="M325.1,397.8c-0.8,0-0.8,1.3,0,1.3C325.9,399.1,325.9,397.8,325.1,397.8z"/>
		<path class="st0" d="M323.3,319.6c-0.6,0-1.1,0.2-1.5,0.6c-1-0.8-2.5-0.9-3.5,0.1l-0.1,0.1v5.5l0.6-0.6c0.8-0.8,2-0.7,2.7,0.1
			l0.3,0.2l0.2-0.3c0.8-0.8,2-0.7,2.7,0.1l0.6,0.6v-5.4l-0.1-0.1C324.7,319.9,324,319.6,323.3,319.6
			C322.8,319.6,324,319.6,323.3,319.6z M321.5,324.5c-0.8-0.5-1.7-0.5-2.5-0.1v-3.7c0.7-0.7,1.8-0.6,2.5,0V324.5z M324.7,324.5
			c-0.8-0.5-1.7-0.6-2.5-0.1v-3.7c0.7-0.7,1.8-0.6,2.5,0.1V324.5z"/>
		<path class="st0" d="M172.5,394.5c-0.8,0.6,0.5,1.4,1.2,0.7c0,0.1,0.1,0.2,0.1,0.3c0.1,0.1,0.3,0.1,0.4,0v-0.3
			c-0.2,0.1-0.3-0.1-0.3-0.3v-0.7c0-0.8-1.3-1.3-1.6-0.4c0,0.1,0,0.2,0,0.2l0.4,0c0-0.7,0.9-0.5,0.9,0.2l-0.3,0
			C173.1,394.2,172.8,394.3,172.5,394.5C172.3,394.6,172.8,394.3,172.5,394.5z M173.7,394.6c0,0.4-0.7,0.9-1,0.4
			c-0.3-0.5,0.7-0.6,1-0.6v0C173.7,394.5,173.7,394.6,173.7,394.6z"/>
		<path class="st0" d="M181.2,394.5h1.2l0.3,0.9h0.4l-1.1-3.1h-0.4l-1.2,3.1h0.4L181.2,394.5z M181.8,392.9l0.5,1.3h-0.9
			L181.8,392.9z"/>
		<polygon class="st0" points="221.5,394.9 218.6,394.9 218.6,394.3 218.1,394.3 218.1,395.4 222,395.4 222,394.3 221.5,394.3 		"/>
		<rect x="224.9" y="394.9" class="st0" width="3.9" height="0.5"/>
		<polygon class="st0" points="178.3,395.1 179.3,394.2 178.3,393.2 178.3,393.9 175.9,393.9 175.9,394.4 178.3,394.4 		"/>
		<path class="st0" d="M192.7,307.5h1.2v-9.5H193c-0.3,1.4-1.5,1.8-2.8,1.8v0.9h2.5V307.5z"/>
		<path class="st0" d="M193.7,336.8h1.1v-2.2h1.3v-1h-1.3v-6.2h-0.9l-4.4,6.2v1.1h4.2V336.8z M190.5,333.5l3.2-4.6h0v4.6H190.5z"/>
		<path class="st0" d="M190.9,366.1h1.3c0.2-3,1.8-6.4,3.7-8.3v-1h-6.3v1.1h5.1C192.7,359.9,191.2,362.9,190.9,366.1z"/>
		<path class="st0" d="M237.4,303.7c-1.4,0.8-2.5,1.6-2.7,3.9h6.3v-1h-5c0.3-1.6,2.5-2.2,3.7-3.2c1.2-0.9,1.9-2.6,1-4
			c-0.7-1.2-2.4-1.5-3.7-1.2c-1.4,0.4-2.2,1.8-2.1,3.2h1.2c-0.1-1.8,2-3.4,3.4-1.7C240.9,301.4,238.6,302.9,237.4,303.7
			C236.1,304.5,239.1,302.7,237.4,303.7z"/>
		<path class="st0" d="M238.1,335.9c-1.2,0-2-0.7-2-1.7h-1.2c0.1,3.3,5.1,3.6,6.2,0.8c0.5-1.2,0.2-2.8-0.8-3.7c-1-0.9-3-1.1-3.9-0.1
			l0,0l0.5-2.7h3.9v-1h-4.8l-0.9,4.9l1,0.1c1.1-1.3,3.3-1.2,3.9,0.5C240.5,334.3,239.6,335.9,238.1,335.9z"/>
		<path class="st0" d="M234.9,363.3c0,2.4,2.7,3.5,4.8,2.6c2.1-0.9,2.4-4.2,0-5c1.1-0.5,1.6-1.8,1.2-2.9c-0.4-1-1.4-1.4-2.4-1.5
			c-1.1-0.1-2.3,0.3-2.8,1.2c-0.7,1.1-0.2,2.7,1,3.2C235.5,361.4,234.9,362.2,234.9,363.3z M236.5,359.1c0-1.9,3.3-2,3.3,0
			C239.8,361.1,236.5,361.1,236.5,359.1z M238.2,361.6c2.6,0,2.5,3.7-0.1,3.6C235.5,365.1,235.6,361.6,238.2,361.6z"/>
		<path class="st0" d="M283.5,306.7c-1.3,0-2-0.9-2.1-2.1h-1.2c-0.1,2.5,2.6,3.7,4.7,2.8c2.1-0.8,2.6-4.4,0.1-4.9v0
			c2.1-1,1.5-3.8-0.6-4.3c-2.1-0.5-3.9,0.7-4,3h1.2c0-1.5,1.7-2.8,3.1-1.7c0.6,0.5,0.7,1.4,0.3,2c-0.5,0.7-1.4,0.8-2.1,0.7v1
			c1.2-0.1,2.6,0.1,2.7,1.5C285.8,305.9,284.7,306.7,283.5,306.7z"/>
		<path class="st0" d="M283.8,336.9c2.3,0,3.7-2,3.1-4.2c-0.6-2.3-3.9-2.9-5.2-0.8l0,0c0-1.1,0.2-2.4,1.1-3.2c1-0.8,2.7-0.4,2.9,1
			h1.2c-0.1-1.7-1.5-2.6-3.1-2.4c-1.6,0.2-2.5,1.4-2.9,2.9C280.1,332.7,280.4,336.9,283.8,336.9z M283.8,331.7c2.6,0,2.6,4.2,0,4.2
			C281.2,335.9,281.2,331.7,283.8,331.7z"/>
		<path class="st0" d="M283.4,362.8c0.9,0,1.8-0.5,2.2-1.3l0,0c0,1.1-0.1,2.7-1.2,3.4c-1,0.7-2.7,0.1-2.8-1.2h-1.2
			c0.2,2.4,3.4,3.3,5.1,1.6c1.6-1.6,1.6-5.4,0.6-7.3c-1-1.8-3.7-2.1-5.1-0.6C279.3,359.5,280.7,362.8,283.4,362.8z M283.5,357.6
			c2.5,0,2.7,4.1,0.1,4.2C281,362,280.9,357.6,283.5,357.6z"/>
		<path class="st0" d="M238.1,386c-2.8,0-3.2,2.6-3.2,4.8c0,2.2,0.4,4.8,3.2,4.8c2.8,0,3.2-2.6,3.2-4.8
			C241.4,388.5,240.9,386,238.1,386z M238.1,394.6c-2,0-2-2.4-2-3.8c0-1.4,0-3.8,2-3.8c1.9,0,2,2.4,2,3.8
			C240.1,392.2,240.1,394.6,238.1,394.6z"/>
		<path class="st0" d="M281.3,395.4h0.9l0.4-2.7h1.7l-0.4,2.7h0.9l0.4-2.7h1.4v-0.9h-1.2l0.3-2h1.3v-0.9h-1.2l0.4-2.7h-0.9l-0.4,2.7
			h-1.7l0.4-2.7h-0.9l-0.4,2.7h-1.5v0.9h1.4l-0.3,2h-1.5v0.9h1.3L281.3,395.4z M283,389.8h1.7l-0.3,2h-1.7L283,389.8z"/>
		<polygon class="st0" points="189.8,394 190.7,394.6 192.2,392 193.7,394.6 194.6,394 193.1,391.5 196.1,391.5 196.1,390.5 
			193.1,390.5 194.6,387.9 193.7,387.4 192.2,390 190.7,387.4 189.8,387.9 191.3,390.5 188.3,390.5 188.3,391.5 191.3,391.5 		"/>
		<path class="st0" d="M219.1,306.6h1.3l0.3,0.9h0.5l-1.2-3.1h-0.5l-1.2,3.1h0.4L219.1,306.6z M219.8,304.8L219.8,304.8l0.5,1.4
			h-1.1L219.8,304.8z"/>
		<path class="st0" d="M224.4,306.6c0-0.4-0.2-0.7-0.6-0.7v0c0.4-0.2,0.6-0.6,0.4-1c-0.2-0.5-0.7-0.5-1.2-0.5h-1.1v3.1h1.5
			C224.1,307.5,224.4,307.1,224.4,306.6z M222.4,304.7h0.8c0.9,0,0.9,1,0,1h-0.8V304.7z M222.4,307.1v-1.1h1c0.8,0,0.9,1.1,0.1,1.1
			H222.4z"/>
		<path class="st0" d="M226.6,307.6c0.8,0,1.3-0.5,1.4-1.2h-0.4c-0.1,1.4-1.9,1-2-0.3c0-0.5,0.1-1,0.6-1.3c0.5-0.3,1.2,0,1.4,0.6
			h0.4c-0.2-1.4-2.2-1.2-2.7-0.1C224.8,306.2,225.4,307.6,226.6,307.6z"/>
		<path class="st0" d="M266.9,305.9c0-1-0.5-1.5-1.5-1.5h-1.1v3.1h1.1C266.4,307.5,266.9,306.9,266.9,305.9z M264.7,304.7h0.7
			c1.5,0,1.4,2.4,0,2.4h-0.7V304.7z"/>
		<polygon class="st0" points="269.9,307.1 268.1,307.1 268.1,306.1 269.8,306.1 269.8,305.7 268.1,305.7 268.1,304.7 269.9,304.7 
			269.9,304.4 267.7,304.4 267.7,307.5 269.9,307.5 		"/>
		<polygon class="st0" points="271.2,306.1 272.6,306.1 272.6,305.7 271.2,305.7 271.2,304.7 272.8,304.7 272.8,304.4 270.8,304.4 
			270.8,307.5 271.2,307.5 		"/>
		<path class="st0" d="M220.1,336.8c0.7,0,0.9-0.4,0.9-0.8v-2.3h-0.4v2.3c0,0.8-1,0.7-1-0.1v-0.1h-0.4v0.2
			C219.2,336.5,219.5,336.8,220.1,336.8z"/>
		<polygon class="st0" points="222.5,335.7 223,335.2 224.2,336.8 224.7,336.8 223.3,334.9 224.6,333.7 224.1,333.7 222.5,335.2 
			222.5,333.7 222.1,333.7 222.1,336.8 222.5,336.8 		"/>
		<polygon class="st0" points="227.4,336.4 225.8,336.4 225.8,333.7 225.3,333.7 225.3,336.8 227.4,336.8 		"/>
		<path class="st0" d="M175,336.8c0.4,0,0.8-0.1,1-0.5l0.1,0.4h0.3v-1.6H175v0.3h1c0.1,1.4-1.9,1.2-2.1,0c-0.1-0.5,0.1-1.2,0.6-1.4
			c0.5-0.3,1.3-0.1,1.4,0.6h0.4c-0.2-1.3-2-1.3-2.6-0.3C173.1,335.3,173.7,336.8,175,336.8z"/>
		<polygon class="st0" points="177.8,335.3 179.5,335.3 179.5,336.8 179.9,336.8 179.9,333.7 179.5,333.7 179.5,335 177.8,335 
			177.8,333.7 177.4,333.7 177.4,336.8 177.8,336.8 		"/>
		<rect x="180.9" y="333.7" class="st0" width="0.4" height="3.1"/>
		<polygon class="st0" points="263.6,334.2 263.7,334.2 264.6,336.8 265,336.8 266,334.2 266,334.2 266,336.8 266.4,336.8 
			266.4,333.7 265.8,333.7 264.8,336.3 263.8,333.7 263.2,333.7 263.2,336.8 263.6,336.8 		"/>
		<polygon class="st0" points="267.8,334.3 267.8,334.3 269.5,336.8 269.9,336.8 269.9,333.7 269.5,333.7 269.5,336.2 269.5,336.2 
			267.9,333.7 267.4,333.7 267.4,336.8 267.8,336.8 		"/>
		<path class="st0" d="M272.3,336.8c2,0,2-3.2,0-3.2C270.3,333.6,270.3,336.8,272.3,336.8z M272.3,333.9c1.5,0,1.5,2.5,0,2.5
			C270.8,336.5,270.8,333.9,272.3,333.9z"/>
		<path class="st0" d="M171.9,364.8h1c1.3,0,1.3-1.8,0-1.8h-1.4v3.1h0.4V364.8z M171.9,363.3h0.8c0.9,0,0.9,1.1,0,1.1h-0.8V363.3z"
			/>
		<path class="st0" d="M176,366.1c0.3,0,0.5-0.1,0.8-0.2l0.5,0.4l0.2-0.3l-0.4-0.3c1.2-1.2,0-3.5-1.7-2.7
			C174,363.7,174.4,366.1,176,366.1z M176,363.2c1.1,0,1.5,1.6,0.7,2.3l-0.4-0.3l-0.2,0.3l0.3,0.3
			C174.8,366.4,174.3,363.2,176,363.2z"/>
		<path class="st0" d="M178.8,364.7h1c0.4,0,0.5,0.3,0.5,0.6c0.1,0.3,0,0.6,0.1,0.8h0.5c-0.4-0.4,0.1-1.4-0.7-1.5v0
			c1-0.3,0.5-1.6-0.4-1.6h-1.5v3.1h0.4V364.7z M178.8,363.3h1c0.8,0,0.6,1.1-0.2,1.1h-0.9V363.3z"/>
		<path class="st0" d="M182.9,365.8c-0.5,0-0.9-0.2-0.9-0.7h-0.4c0,2.1,3.7,0.7,2.2-0.5c-0.4-0.3-1.8-0.2-1.7-0.9
			c0.1-0.7,1.4-0.5,1.5,0.2h0.4c-0.1-1.4-2.6-1.2-2.3,0.1c0.2,0.8,1,0.5,1.6,0.8C184,365.1,183.7,365.8,182.9,365.8z"/>
		<polygon class="st0" points="263,366.1 263.8,363.5 263.8,363.5 264.5,366.1 264.9,366.1 265.8,363 265.4,363 264.7,365.5 
			264.7,365.5 264,363 263.6,363 262.9,365.5 262.8,365.5 262.2,363 261.8,363 262.6,366.1 		"/>
		<polygon class="st0" points="266.6,366.1 267.5,364.8 268.4,366.1 268.9,366.1 267.8,364.5 268.8,363 268.4,363 267.5,364.2 
			266.7,363 266.2,363 267.3,364.5 266.2,366.1 		"/>
		<polygon class="st0" points="270.5,366.1 270.9,366.1 270.9,364.8 272.1,363 271.6,363 270.7,364.4 269.7,363 269.2,363 
			270.5,364.8 		"/>
		<polygon class="st0" points="275,365.7 273,365.7 275,363.3 275,363 272.7,363 272.7,363.3 274.5,363.3 272.5,365.7 272.5,366.1 
			275,366.1 		"/>
		<polygon class="st0" points="219.8,366.1 220.2,366.1 220.2,363.3 221.3,363.3 221.3,363 218.7,363 218.7,363.3 219.8,363.3 		"/>
		<path class="st0" d="M223.2,366.1c0.8,0,1.2-0.4,1.2-1.2v-2H224v2c0,1.1-1.7,1.1-1.7,0v-2h-0.4v2
			C221.9,365.8,222.4,366.1,223.2,366.1z"/>
		<polygon class="st0" points="226.7,366.1 227.8,363 227.4,363 226.5,365.6 226.5,365.6 225.6,363 225.1,363 226.2,366.1 		"/>
		<path class="st0" d="M321.8,301.6c1.8,0,3.3-1.4,3.3-3.2c0-1.8-1.5-3.2-3.3-3.2c-1.7,0-3.2,1.4-3.3,3.1
			C318.5,300.1,320,301.6,321.8,301.6z M319.1,297.8h5.4v1.3h-5.4V297.8z"/>
		<path class="st0" d="M327.1,370.5c-0.6,0-1,0.4-1.1,0.9h-3.7l-0.9-0.7v0.7h-3.7c-0.3-1.3-2.3-1.1-2.3,0.2c0,1.3,2,1.5,2.3,0.2h3.7
			v0.7l1-0.7h3.7c0.2,0.9,1.4,1.2,2,0.5C328.6,371.6,328,370.5,327.1,370.5z M327.1,372.3c-0.9,0-0.9-1.4,0-1.4
			C328,370.9,328,372.3,327.1,372.3z"/>
		<path class="st0" d="M253.7,422.5v2.9h1.9l2.3,1.7v-6.4l-2.3,1.8H253.7z M255.9,422.8l1.5-1.1v4.5l-1.5-1.1V422.8z"/>
		<path class="st0" d="M291.8,423.3c-0.6-3.2-5.5-3.2-6.1,0l-0.3,0c-0.1,0.6,0,1.3,0.3,1.9l0.4-0.1c0.4,0.8,1.2,1.4,2.2,1.6
			c0.2,0.6,1.1,0.5,1.1-0.1c0-0.6-0.8-0.8-1.1-0.3c-0.8-0.1-1.4-0.6-1.8-1.3l0.2,0l-0.3-1.9l-0.2,0c0.6-2.6,4.6-2.6,5.2,0l-0.2,0
			l-0.3,1.9l1,0.1c0.3-0.6,0.3-1.3,0.3-1.9L291.8,423.3z"/>
		<path class="st0" d="M172.3,424c0.1,0,0.1,0,0.1,0v-1c0,0,0-0.1-0.1-0.1H172c0,0-0.1,0-0.1,0.1v0.6
			C171.9,423.7,172.3,424,172.3,424C172.4,424.1,172.2,423.9,172.3,424z"/>
		<path class="st0" d="M170.5,426.3c0.3,0,1.4-0.4,1.4-0.8c-0.1-0.6-1.2,0.3-1.4,0.3c-1,0.2-2-0.6-2-1.7V423c0,0,0-0.1-0.1-0.1h-0.4
			c0,0-0.1,0-0.1,0.1v1.1c0,0.6,0.2,1.1,0.7,1.6c0.1,0.1,1.4,0.8,1.4,0.7v0.3c0,0,0,0.1-0.1,0.1h-1.2c0,0-0.1,0-0.1,0.1v0.4
			c0,0,0,0.1,0.1,0.1h3c0,0,0.1,0,0.1-0.1v-0.4c0,0,0-0.1-0.1-0.1h-1.2c0,0-0.1,0-0.1-0.1L170.5,426.3
			C170.4,426.3,170.4,426.3,170.5,426.3C171.1,426.2,170.4,426.3,170.5,426.3z"/>
		<path class="st0" d="M171,424.8c0.1-0.1-2-1.6-2-1.6v0.8C169,425.1,170.3,425.6,171,424.8C171,424.8,170.3,425.6,171,424.8z"/>
		<path class="st0" d="M171.2,423.1c0.1,0,0.1,0,0.1,0v-1.2c0-0.8-0.9-1.3-1.6-1c-0.6,0.2-0.6,0.5-0.3,0.8
			C169.9,422.2,170.7,422.6,171.2,423.1C171.3,423.1,170.5,422.5,171.2,423.1z"/>
		<path class="st0" d="M167.6,420.7c-0.1-0.1-0.3,0.2-0.3,0.3c0,0.1,0.7,0.6,0.8,0.6c0.6,0.5,1.1,0.9,1.7,1.4
			c0.6,0.5,1.1,0.9,1.7,1.4c0.4,0.3,1.2,1.3,1.7,1.4c0.7,0.1-0.3-0.8-0.3-0.8c-0.6-0.5-1.2-1-1.8-1.5
			C169.8,422.6,168.7,421.7,167.6,420.7C167.5,420.7,169.5,422.3,167.6,420.7z"/>
	</g>
</g>
<g id="number">
	<circle id="bgnumber" class="st1" cx="170.5" cy="210.3" r="7.1"/>
	<text transform="matrix(1 0 0 1 165.5275 213.7619)" class="st2 st3 st4 button" data-number="0">01</text>
	<circle id="bgnumber_1_" class="st1" cx="201.2" cy="210.3" r="7.1"/>
	<text transform="matrix(1 0 0 1 195.5918 213.7619)" class="st2 st3 st4 button" data-number="1">02</text>
	<circle id="bgnumber_2_" class="st1" cx="231.9" cy="210.3" r="7.1"/>
	<text transform="matrix(1 0 0 1 226.1662 213.7619)" class="st2 st3 st4 button" data-number="2">03</text>
	<circle id="bgnumber_3_" class="st1" cx="262.6" cy="210.3" r="7.1"/>
	<text transform="matrix(1 0 0 1 256.751 213.7619)" class="st2 st3 st4 button" data-number="3">04</text>
	<circle id="bgnumber_4_" class="st1" cx="293.3" cy="210.3" r="7.1"/>
	<text transform="matrix(1 0 0 1 287.7005 213.7619)" class="st2 st3 st4 button" data-number="4">05</text>
	<circle id="bgnumber_5_" class="st1" cx="324" cy="210.3" r="7.1"/>
	<text transform="matrix(1 0 0 1 318.2398 213.7619)" class="st2 st3 st4 button" data-number="5">06</text>
	<circle id="bgnumber_6_" class="st1" cx="170.5" cy="233.8" r="7.1"/>
	<text transform="matrix(1 0 0 1 165.1022 237.3407)" class="st2 st3 st4 button" data-number="6">07</text>
	<circle id="bgnumber_7_" class="st1" cx="201.2" cy="233.8" r="7.1"/>
	<text transform="matrix(1 0 0 1 195.3217 237.3407)" class="st2 st3 st4 button" data-number="7">08</text>
	<circle id="bgnumber_8_" class="st1" cx="231.9" cy="233.8" r="7.1"/>
	<text transform="matrix(1 0 0 1 226.0813 237.3407)" class="st2 st3 st4 button" data-number="8">09</text>
	<circle id="bgnumber_9_" class="st1" cx="262.6" cy="233.8" r="7.1"/>
	<text transform="matrix(1 0 0 1 257.686 237.3407)" class="st2 st3 st4 button" data-number="9">10</text>
	<circle id="bgnumber_10_" class="st1" cx="293.3" cy="233.8" r="7.1"/>
	<text transform="matrix(1 0 0 1 289.4402 237.3407)" class="st2 st3 st4 button" data-number="10">11</text>
	<circle id="bgnumber_11_" class="st1" cx="324" cy="233.8" r="7.1"/>
	<text transform="matrix(1 0 0 1 319.5049 237.3407)" class="st2 st3 st4 button" data-number="11">12</text>
	<circle id="bgnumber_12_" class="st1" cx="170.5" cy="256.3" r="7.1"/>
	<text transform="matrix(1 0 0 1 165.7624 259.7657)" class="st2 st3 st4 button" data-number="12">13</text>
	<circle id="bgnumber_13_" class="st1" cx="201.2" cy="256.3" r="7.1"/>
	<text transform="matrix(1 0 0 1 196.3471 259.7657)" class="st2 st3 st4 button" data-number="13">14</text>
	<circle id="bgnumber_14_" class="st1" cx="231.9" cy="256.3" r="7.1"/>
	<text transform="matrix(1 0 0 1 227.2966 259.7657)" class="st2 st3 st4 button" data-number="14">15</text>
	<circle id="bgnumber_15_" class="st1" cx="262.6" cy="256.3" r="7.1"/>
	<text transform="matrix(1 0 0 1 257.8359 259.7657)" class="st2 st3 st4 button" data-number="15">16</text>
	<circle id="bgnumber_16_" class="st1" cx="293.3" cy="256.3" r="7.1"/>
	<text transform="matrix(1 0 0 1 289.0154 259.7657)" class="st2 st3 st4 button" data-number="16">17</text>
	<circle id="bgnumber_17_" class="st1" cx="324" cy="256.3" r="7.1"/>
	<text transform="matrix(1 0 0 1 319.2349 259.7657)" class="st2 st3 st4 button" data-number="17">18</text>
</g>
</svg>
