<?xml version="1.0" encoding="utf-8"?>
<!-- Generator: Adobe Illustrator 21.0.1, SVG Export Plug-In . SVG Version: 6.00 Build 0)  -->
<!DOCTYPE svg PUBLIC "-//W3C//DTD SVG 1.1//EN" "http://www.w3.org/Graphics/SVG/1.1/DTD/svg11.dtd">
<svg version="1.1" xmlns="http://www.w3.org/2000/svg" xmlns:xlink="http://www.w3.org/1999/xlink" x="0px" y="0px"
	 viewBox="0 0 420 545.2" style="enable-background:new 0 0 420 545.2;" xml:space="preserve">
<style type="text/css">
	.button{cursor: pointer}
	.st0{fill:#B3B2B2;}
	.st1{fill:#FFFFFF;}
	.st2{fill:#1BAFE6;}
	.st3{font-family:'BrixSansRegular';}
	.st4{font-size:5.9178px;}
	.st5{fill:none;stroke:#B3B2B2;stroke-width:0.4623;stroke-miterlimit:10;}
</style>
<g id="Ebene_3">
	<g>
		<path class="st0" d="M39.2,253.8C39.2,253.8,39.2,253.8,39.2,253.8c0.5,0.7,1.3,1.2,2.1,1.2c0,0,0,0,0,0c0.9,0,1.7-0.4,2.1-1.2
			c0,0,0,0,0,0c0,0,0,0,0,0c0,0,0,0,0,0c0,0,0,0,0,0c0.1-0.1,0.1-0.2,0.2-0.3c0,0,0,0,0,0c0,0,0,0,0,0c6.2-14.6,19.1-25.3,34.6-28.8
			c0,0,0,0,0,0c2.1-0.5,4.2-0.8,6.3-1c0,0,0,0,0,0c0,0,0,0,0,0c0,0,0,0,0,0c0.1,0,0.2,0,0.3,0c0,0,0,0,0,0c0.9-0.2,1.5-0.8,1.8-1.6
			c0.3-0.8,0.1-1.7-0.4-2.4c-0.6-0.7-1.2-1-2.2-0.9c0,0,0,0,0,0c-18.8,1.6-35.1,12.7-43.6,29.6c0,0,0,0,0,0c-0.5,1-1,2.1-1.5,3.2
			c0,0,0,0,0,0c-0.1,0.2-0.1,0.3-0.1,0.5c0,0,0,0,0,0c0,0,0,0,0,0c0,0,0,0,0,0c0,0,0,0,0,0C38.7,252.7,38.8,253.2,39.2,253.8z
			 M40.9,248.5C40.9,248.5,40.9,248.5,40.9,248.5c8.4-16.8,24.6-27.7,43.3-29.3c0,0,0,0,0,0c0.8-0.1,1.3,0.1,1.8,0.7
			c0.5,0.6,0.6,1.3,0.4,2c-0.2,0.7-0.8,1.2-1.5,1.3c0,0,0,0,0,0c-0.1,0-0.2,0-0.3,0c0,0,0,0,0,0c-2.1,0.2-4.3,0.5-6.4,1c0,0,0,0,0,0
			c-15.6,3.4-28.6,14.3-34.9,29c0,0,0,0,0,0c0,0.1-0.1,0.2-0.1,0.3c0,0,0,0,0,0c0,0,0,0,0,0c-0.4,0.6-1,1-1.7,1c0,0,0,0,0,0
			c-0.7,0-1.3-0.3-1.7-0.9c0,0,0,0,0,0c-0.3-0.5-0.4-0.9-0.3-1.5c0,0,0,0,0,0c0,0,0,0,0,0c0-0.1,0.1-0.2,0.1-0.4c0,0,0,0,0,0
			C39.9,250.6,40.4,249.5,40.9,248.5z"/>
		<path class="st0" d="M86.8,253C86.8,253,86.8,253,86.8,253c-0.2-0.9-0.7-1.4-1.6-1.8c0,0,0,0,0,0c0,0,0,0,0,0
			c-0.5-0.2-0.9-0.2-1.4-0.1c0,0,0,0,0,0c-5.8,1.3-10.8,5-13.9,10.1c0,0,0,0,0,0c-0.6,1-0.6,1.8,0.1,2.8c0,0,0,0,0,0
			c0.2,0.3,0.4,0.5,0.7,0.7c0,0,0,0,0,0c0.1,0.1,0.2,0.1,0.4,0.2c0,0,0.1,0,0.1,0c0,0,0,0,0,0c0.3,0.1,0.6,0.2,0.8,0.2
			c0.7,0,1.4-0.3,1.9-0.9v0c0,0,0,0,0,0c0.1-0.1,0.2-0.2,0.2-0.3c0,0,0,0,0,0c0,0,0,0,0,0c2.4-3.9,6.3-6.8,10.7-7.8c0,0,0,0,0,0
			c0.2-0.1,0.4-0.1,0.6-0.2c0,0,0,0,0,0c0.2-0.1,0.4-0.2,0.5-0.4c0,0,0,0,0,0s0,0,0,0c0.2-0.2,0.3-0.3,0.4-0.5c0,0,0,0,0,0
			c0,0,0,0,0,0c0.2-0.4,0.3-0.7,0.4-1.2c0,0,0,0,0,0c0,0,0,0,0,0C86.9,253.4,86.9,253.2,86.8,253z M73.8,263.5
			C73.8,263.5,73.8,263.5,73.8,263.5c-0.1,0.1-0.1,0.2-0.2,0.3c0,0,0,0,0,0c-0.6,0.7-1.5,0.9-2.3,0.6c0,0,0,0,0,0
			c-0.1,0-0.2-0.1-0.3-0.1c0,0,0,0,0,0c0,0,0,0,0,0c-0.2-0.1-0.4-0.3-0.6-0.5c0,0,0,0,0,0c-0.6-0.8-0.6-1.4-0.1-2.3c0,0,0,0,0,0
			c3-5,8-8.6,13.6-9.9c0,0,0,0,0,0c0.4-0.1,0.8-0.1,1.2,0.1h0c0.7,0.3,1.1,0.7,1.3,1.5c0,0,0,0,0,0c0,0,0,0,0,0c0,0.2,0.1,0.4,0,0.6
			c0,0.4-0.1,0.7-0.3,1c0,0,0,0,0,0c0,0,0,0,0,0c-0.1,0.1-0.2,0.3-0.3,0.4c0,0,0,0,0,0c0,0,0,0,0,0c-0.1,0.1-0.3,0.2-0.4,0.3
			c0,0,0,0,0,0c-0.2,0.1-0.3,0.1-0.5,0.2c0,0,0,0,0,0C80.3,256.6,76.2,259.5,73.8,263.5z"/>
		<path class="st0" d="M64.1,268.8c0-0.2,0-0.3,0-0.5c0,0,0,0,0,0c0-0.3-0.1-0.6-0.2-0.9c0,0,0,0,0,0c0-0.1-0.1-0.2-0.1-0.3
			c0,0-0.1,0-0.1-0.1c0,0,0-0.1,0-0.1c-0.4-0.5-1-0.9-1.6-1c-0.7-0.1-1.3,0.1-1.9,0.5c0,0,0,0,0,0c-0.6,0.4-0.9,0.9-1,1.6
			c0,0,0,0,0,0c-1.4,9.4,1.7,19,8.4,25.7c0,0,0,0,0,0c0,0,0,0,0,0c0.5,0.5,1,0.7,1.6,0.7c0.3,0,0.5,0,0.8-0.1c0,0,0,0,0,0
			c0.8-0.2,1.4-0.8,1.7-1.6c0.3-0.8,0.2-1.6-0.3-2.3c0,0,0,0-0.1,0c0,0,0-0.1,0-0.1c-0.1-0.1-0.1-0.2-0.2-0.2c0,0,0,0,0,0
			c0,0,0,0,0,0c-3.7-3.7-5.8-7.6-6.8-12.7c0,0,0,0,0,0c-0.4-1.9-0.5-3.8-0.5-5.8C63.8,270.7,63.9,269.8,64.1,268.8
			C64.1,268.8,64.1,268.8,64.1,268.8z M63.8,277.5c1,5.2,3.2,9.2,6.9,13c0,0,0,0,0,0c0.1,0.1,0.1,0.1,0.2,0.2c0,0,0,0,0,0
			c0,0,0,0,0,0.1c0.4,0.6,0.5,1.2,0.2,1.9c-0.2,0.6-0.7,1.1-1.4,1.3c-0.8,0.2-1.4,0.1-2-0.5c0,0,0,0,0,0c0,0,0,0,0,0
			c-6.6-6.6-9.6-16.1-8.2-25.3c0,0,0,0,0,0c0.1-0.6,0.3-1,0.8-1.3c0,0,0,0,0,0c0,0,0,0,0,0c0.4-0.3,1-0.5,1.5-0.4
			c0.5,0.1,1,0.4,1.4,0.8c0,0,0,0,0.1,0c0,0,0,0.1,0,0.1c0,0.1,0.1,0.2,0.1,0.2c0,0,0,0,0,0c0.1,0.2,0.2,0.5,0.2,0.8c0,0,0,0,0,0
			c0,0.1,0,0.3,0,0.4c0,0,0,0,0,0c-0.2,1-0.2,2-0.3,2.9c0,0,0,0,0,0c0,0,0,0,0,0c0,0,0,0,0,0c0,0,0,0,0,0
			C63.3,273.6,63.4,275.5,63.8,277.5C63.8,277.5,63.8,277.5,63.8,277.5z"/>
		<path class="st0" d="M71.8,271.1c0-0.2,0-0.4,0-0.7c0,0,0,0,0,0c0-0.2-0.1-0.4-0.2-0.6c0,0,0,0,0,0c-0.1-0.2-0.2-0.3-0.3-0.5
			c0,0,0,0,0,0c0,0,0,0,0,0c-0.3-0.3-0.6-0.6-1-0.7c0,0,0,0,0,0c0,0,0,0,0,0c-0.2-0.1-0.5-0.2-0.7-0.2c0,0,0,0,0,0
			c-0.7-0.1-1.3,0.1-1.8,0.6c0,0,0,0,0,0c-0.5,0.5-0.8,1-0.9,1.7c0,0,0,0,0,0c-0.5,5.9,1.4,11.9,5.3,16.3c0.5,0.6,1.1,0.9,1.7,0.9
			c0.3,0,0.6-0.1,1-0.2c0,0,0,0,0,0c0.3-0.1,0.6-0.3,0.8-0.5c0,0,0,0,0,0c0.1-0.1,0.2-0.2,0.3-0.3c0,0,0,0,0,0
			c0.7-0.8,0.8-2,0.2-2.9c0,0,0,0,0,0c-0.1-0.1-0.1-0.2-0.3-0.3c0,0,0,0,0,0C72.9,280.3,71.4,275.7,71.8,271.1
			C71.8,271.1,71.8,271.1,71.8,271.1z M75.6,284C75.6,284,75.6,284,75.6,284C75.6,284,75.6,284,75.6,284c0.1,0.1,0.2,0.2,0.2,0.3
			c0,0,0,0,0,0c0.5,0.8,0.4,1.7-0.2,2.4c0,0,0,0,0,0c-0.1,0.1-0.1,0.2-0.2,0.2c0,0,0,0,0,0c-0.2,0.2-0.4,0.3-0.7,0.4c0,0,0,0,0,0
			c-1,0.3-1.5,0.2-2.2-0.6c-3.8-4.4-5.7-10.2-5.2-16c0,0,0,0,0,0c0-0.6,0.3-1,0.7-1.4c0,0,0,0,0,0c0.5-0.4,0.9-0.5,1.5-0.5
			c0,0,0,0,0,0c0.2,0,0.4,0.1,0.6,0.1c0,0,0,0,0,0c0.3,0.1,0.6,0.3,0.8,0.6c0,0,0,0,0,0c0,0,0,0,0,0c0.1,0.1,0.2,0.3,0.3,0.4
			c0,0,0,0,0,0c0,0,0,0,0,0c0.1,0.2,0.1,0.3,0.2,0.5c0,0,0,0,0,0c0,0.2,0,0.4,0,0.5c0,0,0,0,0,0C71,275.7,72.5,280.5,75.6,284z"/>
		<path class="st0" d="M68.2,308c-0.9-0.5-2-0.4-2.8,0.2c-0.8,0.6-1.2,1.6-0.9,2.6c0,0,0,0,0,0c0.2,0.7,0.5,1.2,1.2,1.5c0,0,0,0,0,0
			c3.4,2,6.8,3.4,10.5,4.4c0,0,0,0,0,0c0.1,0,0.3,0.1,0.4,0.1c0,0,0,0,0.1,0c0,0,0,0,0,0c1.5,0.4,3,0.7,4.5,1c0,0,0,0,0,0
			c0,0,0,0,0,0c2.5,0.4,5.1,0.6,7.6,0.6c6.8,0,13.5-1.5,19.7-4.5c0,0,0,0,0,0c0,0,0,0,0,0c1.1-0.5,2.3-1.1,3.4-1.8c0,0,0,0,0,0
			c0,0,0,0,0,0c0.8-0.5,1.2-1.1,1.2-2c0-0.9-0.3-1.7-1.1-2.2c-0.7-0.5-1.6-0.6-2.4-0.3c0,0,0,0,0,0c-0.1,0-0.2,0.1-0.3,0.1
			c0,0,0,0,0,0c-1.8,1-3.5,1.9-5.4,2.6c0,0,0,0,0,0c0,0,0,0,0,0c-3.6,1.4-7.2,2.3-11,2.7c0,0,0,0,0,0
			C84.3,314.3,75.7,312.4,68.2,308C68.2,308,68.2,308,68.2,308z M93,313.8C93.1,313.8,93.1,313.8,93,313.8c3.9-0.4,7.5-1.3,11.2-2.8
			c0,0,0,0,0,0c1.9-0.7,3.6-1.6,5.4-2.6c0,0,0,0,0,0c0.1,0,0.1-0.1,0.2-0.1c0,0,0,0,0,0c0.7-0.3,1.4-0.2,2,0.2
			c0.6,0.4,0.9,1.1,0.9,1.8c0,0,0,0,0,0c0,0,0,0,0,0c0,0.8-0.3,1.3-1,1.7c0,0,0,0,0,0c-1.1,0.6-2.2,1.2-3.3,1.8c0,0,0,0,0,0
			c0,0,0,0,0,0c-8.5,4-17.9,5.3-27.1,3.8c0,0,0,0,0,0c-5.5-0.9-10.5-2.7-15.3-5.5c0,0,0,0,0,0c-0.5-0.3-0.8-0.7-1-1.2c0,0,0,0,0,0
			c-0.2-0.8,0.1-1.7,0.7-2.2c0.7-0.5,1.5-0.6,2.3-0.1c0,0,0,0,0,0c6.4,3.7,13.5,5.6,20.8,5.6C90.2,314,91.6,314,93,313.8z"/>
		<path class="st0" d="M119.5,306.9C119.5,306.9,119.5,306.9,119.5,306.9c12.3-11,17.8-27.9,14.3-44c0,0,0,0,0,0
			c-0.2-0.9-0.6-1.5-1.5-1.8c-0.8-0.3-1.7-0.2-2.4,0.3c-0.7,0.5-1.1,1.4-1,2.2c0,0,0,0,0,0c0,0.1,0,0.2,0.1,0.3c0,0,0,0,0,0
			c3.1,14.4-1.8,29.4-12.7,39.2c0,0,0,0,0,0c-0.6,0.6-0.9,1.4-0.8,2.2c0.1,0.8,0.6,1.5,1.4,1.9c0,0,0,0,0,0c0.4,0.2,0.8,0.3,1.2,0.3
			C118.5,307.6,119,307.3,119.5,306.9z M115.8,305.3c-0.1-0.7,0.1-1.4,0.7-1.8c0,0,0,0,0,0c11.1-9.9,16-25.1,12.9-39.6c0,0,0,0,0,0
			c0,0,0,0,0,0c0-0.1,0-0.1,0-0.2c0,0,0,0,0,0c-0.1-0.7,0.3-1.4,0.8-1.8c0.6-0.4,1.3-0.5,2-0.3c0,0,0,0,0,0c0.8,0.3,1.1,0.7,1.3,1.5
			c0,0,0,0,0,0c3.4,16-2,32.6-14.1,43.5c0,0,0,0,0,0h0c-0.8,0.7-1.3,0.8-2.3,0.3c0,0,0,0,0,0C116.3,306.5,115.9,305.9,115.8,305.3z"
			/>
		<path class="st0" d="M114.8,300.3C114.8,300.3,114.8,300.3,114.8,300.3c9.6-9,13.8-22,11.3-34.9c-0.1-0.7-0.4-1.2-1-1.6
			c0,0,0,0,0,0c-0.8-0.5-1.7-0.6-2.6-0.1c-0.8,0.4-1.3,1.3-1.3,2.2c0,0,0,0,0,0c0,0.1,0,0.3,0,0.5c0,0,0,0,0,0
			c0.2,1,0.4,2.1,0.5,3.2c0,0,0,0,0,0c0.5,5-0.1,9.6-1.9,14.3c0,0,0,0,0,0c-1.8,5-4.5,9.1-8.4,12.7c-0.7,0.7-1,1.6-0.7,2.6
			c0.3,0.9,1.1,1.6,2,1.7c0,0,0,0,0,0c0.2,0,0.3,0,0.5,0C113.8,301,114.3,300.8,114.8,300.3z M111.1,299.1c-0.2-0.8,0-1.6,0.6-2.1
			c3.9-3.7,6.7-7.8,8.5-12.9c0,0,0,0,0,0c1.8-4.8,2.4-9.4,1.9-14.5c0,0,0,0,0,0c-0.1-1.1-0.3-2.2-0.5-3.3c0,0,0,0,0,0
			c0-0.1,0-0.3,0-0.4c0,0,0,0,0,0c0-0.8,0.4-1.5,1.1-1.8c0.7-0.4,1.5-0.3,2.1,0.1c0,0,0,0,0,0c0.5,0.3,0.7,0.7,0.9,1.3
			c2.4,12.7-1.7,25.6-11.2,34.5c0,0,0,0,0,0c-0.5,0.5-1,0.7-1.7,0.5c0,0,0,0,0,0C112,300.4,111.4,299.8,111.1,299.1z"/>
		<path class="st0" d="M123.2,256.4c-5.6-11.9-16.7-19.9-29.7-21.6c0,0,0,0,0,0c-1.2-0.1-1.9,0.2-2.5,1.2c0,0,0,0,0,0
			c-0.4,0.7-0.4,1.6-0.1,2.4c0.4,0.8,1.1,1.3,1.9,1.4c8.2,1,15.7,5.1,21.1,11.4c0,0,0,0,0,0c1.9,2.2,3.4,4.6,4.7,7.3c0,0,0,0,0,0
			c0.4,0.9,1.3,1.4,2.2,1.4c0,0,0,0,0,0c0.9,0,1.8-0.5,2.2-1.4C123.6,257.8,123.6,257.2,123.2,256.4
			C123.2,256.4,123.2,256.4,123.2,256.4z M120.9,259.5C120.9,259.5,120.9,259.5,120.9,259.5c-0.8,0-1.5-0.5-1.9-1.2c0,0,0,0,0,0
			c-1.3-2.7-2.8-5.1-4.7-7.4c0,0,0,0,0,0c-5.4-6.4-13-10.5-21.4-11.6c0,0,0,0,0,0c-0.7-0.1-1.3-0.5-1.6-1.1
			c-0.3-0.6-0.3-1.3,0.1-1.9c0,0,0,0,0,0c0.5-0.9,1-1.1,2-1c0,0,0,0,0,0c12.9,1.6,23.8,9.6,29.3,21.3c0,0,0,0,0,0
			c0.3,0.7,0.3,1.2,0,1.8C122.4,259.1,121.7,259.5,120.9,259.5z"/>
		<path class="st0" d="M138.5,251.5C138.5,251.5,138.5,251.5,138.5,251.5c-7.8-18.5-25.1-31-45.1-32.8c-0.9-0.1-1.6,0.2-2.2,0.9
			c0,0,0,0,0,0c0,0,0,0,0,0c-0.6,0.7-0.7,1.6-0.4,2.4c0.3,0.8,0.9,1.4,1.8,1.6c0,0,0,0,0,0c0.1,0,0.3,0.1,0.4,0.1c0,0,0,0,0,0
			c18.1,1.6,33.8,12.9,40.9,29.6c-0.1,0-0.1,0.1-0.2,0.1l0,0c0,0-0.1,0.1,0,0.1c0,0,0,0,0.1,0c0,0,0,0,0,0l0,0
			c0.1,0,0.1-0.1,0.2-0.1c0.1,0.1,0.1,0.3,0.2,0.4c0,0,0,0,0,0c0.1,0.1,0.2,0.2,0.3,0.4c0,0,0,0,0,0c0,0,0,0,0,0
			c0.5,0.5,1.1,0.7,1.8,0.7c0.1,0,0.2,0,0.3,0c0.8-0.1,1.4-0.5,1.8-1.2c0,0,0,0,0,0C138.8,253,138.9,252.3,138.5,251.5
			C138.5,251.5,138.5,251.5,138.5,251.5z M136.5,254.5c-0.6,0.1-1.2-0.1-1.7-0.6c0,0,0,0,0,0c0,0,0,0,0,0c-0.1-0.1-0.2-0.2-0.2-0.3
			c0,0,0,0,0,0c0,0,0,0,0,0c-0.1-0.1-0.1-0.2-0.2-0.4c0,0,0,0,0,0c-7.2-16.9-23-28.4-41.3-30c0,0,0,0,0,0c0,0,0,0,0,0
			c-0.1,0-0.2,0-0.3,0c0,0,0,0,0,0c-0.7-0.2-1.2-0.7-1.5-1.3c-0.2-0.7-0.1-1.4,0.4-2c0,0,0,0,0,0c0.5-0.6,1-0.8,1.8-0.7
			c19.8,1.7,37,14.2,44.7,32.5c0,0,0,0,0,0c0,0,0,0,0,0c0.3,0.7,0.3,1.2-0.1,1.9c0,0,0,0,0,0C137.7,254.1,137.1,254.4,136.5,254.5z"
			/>
		<path class="st0" d="M420,57.5v-24c0,0,0,0,0,0c0-7.8-0.5-14.8-6.7-21.5c-2.7-2.9-5.8-4.9-9.7-6.3c-3.9-1.4-7.7-1.7-11.4-1.8
			c0,0,0,0,0,0c0,0,0,0,0,0c-9.6-0.4-19.7-0.8-29.9-1.2c-0.2,0-0.3,0.1-0.4,0.2c-0.1-0.1-0.2-0.2-0.4-0.2
			C250.1-1.3,137.8-0.9,27.7,3.9c0,0,0,0,0,0C24.1,4,20.3,4.3,16.4,5.7c-3.9,1.4-7,3.4-9.7,6.3C0.5,18.7,0,25.7,0,33.5l0,0v478.1
			c0,0,0,0,0,0c0,7.8,0.5,14.8,6.7,21.5c2.7,2.9,5.8,4.9,9.7,6.3c3.9,1.4,7.7,1.7,11.3,1.8c60.5,2.6,121.4,3.9,182.3,3.9
			s121.8-1.3,182.3-3.9c0,0,0,0,0,0c3.6-0.2,7.5-0.4,11.4-1.8c3.9-1.4,7-3.4,9.7-6.3c6.2-6.7,6.7-13.7,6.7-21.5V58.3
			c0-0.2-0.1-0.3-0.2-0.4C419.9,57.8,420,57.7,420,57.5z M419,58.1h-2.4h-2.2c0,0,0-0.1-0.1-0.1c0.1,0,0.1-0.1,0.2-0.2h2.1
			c0,0,0,0,0,0s0,0,0,0h2.4c0,0.1,0.1,0.1,0.1,0.2C419.1,58,419.1,58,419,58.1z M409.2,528.2C409.2,528.2,409.2,528.2,409.2,528.2
			c-0.5,0.6-1,1.1-1.6,1.5c0,0,0,0,0,0c-0.6,0.5-1.2,0.9-1.8,1.3c0,0,0,0,0,0c-0.7,0.4-1.4,0.8-2,1.1c0,0,0,0,0,0
			c-0.7,0.3-1.5,0.6-2.3,0.9c0,0,0,0,0,0c-2.7,0.7-5.3,1-8.1,1.1c0,0,0,0,0,0c0,0,0,0,0,0c-13.4,0.6-26.7,1.1-39.6,1.5c0,0,0,0,0,0
			c0,0,0,0,0,0c-95.3,3.2-192,3.2-287.4,0c-12.9-0.4-26.2-1-39.6-1.5c0,0,0,0,0,0c0,0,0,0,0,0c-2.8,0-5.4-0.4-8.1-1.1
			c-0.8-0.2-1.5-0.5-2.3-0.9c0,0,0,0,0,0c-0.7-0.3-1.4-0.7-2-1.1c0,0,0,0,0,0c0,0,0,0,0,0c-0.6-0.4-1.2-0.8-1.8-1.3c0,0,0,0,0,0
			c-0.6-0.5-1.1-0.9-1.6-1.5c0,0,0,0,0,0c-1.1-1.2-1.9-2.5-2.5-3.9c0,0,0,0,0,0c-0.4-0.8-0.7-1.6-0.9-2.5c0,0,0,0,0,0
			c-0.7-3-1-5.9-0.8-9c0,0,0,0,0,0c0,0,0,0,0,0V32.3c0,0,0,0,0,0c0,0,0,0,0,0c0-1.4,0-2.6,0.1-3.9c0,0,0,0,0,0
			c0-1.1,0.2-2.2,0.4-3.3c0,0,0,0,0,0c0.1-0.6,0.2-1.2,0.4-1.8c0,0,0,0,0,0c0.3-1,0.6-1.9,1.1-2.9c0.4-0.8,0.9-1.6,1.5-2.4
			c1.1-1.5,2.5-2.7,4.1-3.8c1.6-1,3.4-1.8,5.5-2.3c2.4-0.6,4.8-0.7,7.2-0.8c0,0,0,0,0,0c0,0,0,0,0,0l5.3-0.2c0,0,0,0,0,0
			c0,0,0,0,0,0l0.4,0c2.5-0.1,5-0.2,7.5-0.3c0,0,0,0,0,0c4.4-0.2,8.8-0.3,13.2-0.5c0,0,0,0,0,0c0,0,0,0,0,0
			c4.4-0.2,8.8-0.3,13.2-0.5c0,0,0,0,0,0c95.3-3.2,192-3.2,287.4,0c0,0,0,0,0,0l7.8,0.3c0,0,0,0,0,0c0.2,0,0.3-0.1,0.4-0.3
			c0.1,0.1,0.2,0.2,0.4,0.2c10.3,0.4,20.7,0.8,31,1.2c0,0,0,0,0,0c0,0,0,0,0,0c1.6,0.1,3.4,0.1,5.2,0.4c1.4,0.2,2.7,0.5,3.9,1
			c2.5,0.9,4.8,2.3,6.5,4.1c1.7,1.8,3,4,3.7,6.5c0.9,3,0.9,6.2,0.9,9.3v25.2c0,0.1,0.1,0.3,0.2,0.4c-0.2,0.1-0.3,0.2-0.3,0.4v210.2
			c0,0,0,0,0,0s0,0,0,0v244.3c0,0,0,0,0,0c0,0,0,0,0,0c0.1,2.4-0.1,4.8-0.4,7.2c0,0,0,0,0,0c-0.1,0.6-0.2,1.2-0.4,1.8c0,0,0,0,0,0
			C411.9,524.3,410.8,526.3,409.2,528.2z M361.9,3.5c0,0.1,0.1,0.1,0.2,0.2v2.4c0,0,0,0,0,0c0,0,0,0,0,0v2.7c-0.1,0-0.1,0.1-0.2,0.2
			c0,0-0.1,0-0.2-0.1V6.1v0V3.6C361.8,3.6,361.8,3.6,361.9,3.5z M412.5,12.7c6,6.4,6.4,13.2,6.4,20.8c0,0,0,0,0,0v23.8h-2.3
			c0,0,0,0,0,0s0,0,0,0h-2v-25v0c0-3.1,0-6.5-0.9-9.6c-0.8-2.7-2.2-5.1-4-7c-1.8-1.9-4.2-3.4-6.9-4.4c-1.3-0.5-2.7-0.8-4.1-1
			c-1.8-0.3-3.7-0.4-5.3-0.4c0,0,0,0,0,0c-10.3-0.4-20.6-0.9-30.8-1.2V6.1c0,0,0,0,0,0c0,0,0,0,0,0V3.8c10.2,0.4,20.1,0.8,29.7,1.2
			c0,0,0,0,0,0c0,0,0,0,0,0c3.5,0.2,7.3,0.4,11,1.7C407,8,409.9,9.9,412.5,12.7z M412.5,532.4c-2.6,2.8-5.5,4.7-9.2,6
			c-3.7,1.3-7.5,1.6-11,1.7c0,0,0,0,0,0c-120.9,5.2-243.5,5.2-364.4,0c-3.5-0.2-7.3-0.4-11-1.7c-3.7-1.3-6.7-3.2-9.2-6
			c-6-6.4-6.5-13.2-6.5-20.8c0,0,0,0,0,0V33.5c0-7.6,0.5-14.4,6.4-20.8c2.6-2.8,5.5-4.7,9.2-6c3.7-1.3,7.5-1.6,11-1.7c0,0,0,0,0,0
			c110-4.7,222.1-5.1,333.5-1.2v2.3v0v2.7l-7.5-0.3c0,0,0,0,0,0s0,0,0,0c-95.4-3.2-192.1-3.2-287.4,0c0,0,0,0,0,0
			C61.9,8.7,57.5,8.8,53.1,9c0,0,0,0,0,0c-4.4,0.2-8.8,0.3-13.2,0.5c0,0,0,0,0,0c-2.5,0.1-5,0.2-7.5,0.3l-0.4,0c0,0,0,0,0,0
			l-5.4,0.2c0,0,0,0,0,0c-2.4,0.1-5,0.2-7.4,0.8c-2.1,0.5-4.1,1.3-5.8,2.4c-1.7,1.1-3.2,2.5-4.4,4C8.5,18.2,8,19,7.6,19.9
			c-0.5,1-0.9,2-1.2,3.1c0,0,0,0,0,0c-0.2,0.6-0.3,1.3-0.4,1.9c0,0,0,0,0,0c0,0,0,0,0,0c-0.2,1.2-0.3,2.3-0.4,3.5c0,0,0,0,0,0
			c-0.1,1.3-0.1,2.5-0.1,3.9l0,0v480.6c0,0,0,0,0,0c-0.1,3.2,0.1,6.2,0.9,9.3c0,0,0,0,0,0c0,0,0,0,0,0c0.3,0.9,0.6,1.8,1,2.6
			c0,0,0,0,0,0c0.7,1.5,1.6,2.9,2.7,4.2c0,0,0,0,0,0c0.5,0.6,1.1,1.1,1.7,1.6c0,0,0,0,0,0c0.6,0.5,1.2,1,1.9,1.4c0,0,0,0,0,0
			c0,0,0,0,0,0c0.7,0.4,1.4,0.8,2.2,1.1c0,0,0,0,0,0c0.8,0.4,1.6,0.7,2.5,0.9c0,0,0,0,0,0c0,0,0,0,0,0c2.8,0.7,5.5,1.1,8.4,1.1
			c0,0,0,0,0,0c13.4,0.6,26.8,1.1,39.6,1.5C114,538.2,162,539,210,539c48,0,96-0.8,143.7-2.4c0,0,0,0,0,0c0,0,0,0,0,0
			c12.9-0.4,26.2-1,39.6-1.5c0,0,0,0,0,0c2.9,0,5.6-0.4,8.4-1.1c0,0,0,0,0,0c0,0,0,0,0,0c0.9-0.3,1.7-0.6,2.5-0.9c0,0,0,0,0,0
			c0.7-0.3,1.5-0.7,2.2-1.1c0,0,0,0,0,0c0.7-0.4,1.3-0.9,1.9-1.4c0,0,0,0,0,0c0,0,0,0,0,0c0.6-0.5,1.1-1,1.7-1.6c0,0,0,0,0,0
			c0,0,0,0,0,0c1.8-2,3-4.2,3.7-6.8c0,0,0,0,0,0c0.2-0.6,0.3-1.2,0.4-1.9c0,0,0,0,0,0c0,0,0,0,0,0c0.4-2.5,0.5-4.9,0.4-7.4
			c0,0,0,0,0,0V58.5h2.1h2.3v453.1C418.9,519.2,418.5,526,412.5,532.4z"/>
		<path class="st0" d="M122,313.9C122,313.9,122,313.9,122,313.9c0.3,0.1,0.5,0.1,0.7,0.1c0.6,0,1-0.2,1.5-0.6c0,0,0,0,0,0
			c1.8-1.5,3.4-3.2,5-5c0,0,0,0,0,0c11.6-13.1,16.1-31,12.2-48c0,0,0,0,0,0c-0.2-0.9-0.7-1.4-1.5-1.8c0,0,0,0,0,0
			c-0.8-0.3-1.7-0.2-2.4,0.3c-0.7,0.5-1.1,1.3-1,2.2c0,0,0,0,0,0c0,0.1,0,0.3,0.1,0.4c2.8,12.1,0.9,24.7-5.2,35.5c0,0,0,0,0,0
			c-2.8,4.8-6.2,8.9-10.4,12.6c0,0,0,0,0,0c-0.1,0.1-0.2,0.2-0.3,0.4c0,0,0,0,0,0c-0.1,0.1-0.2,0.2-0.2,0.4c0,0,0,0,0,0c0,0,0,0,0,0
			c-0.3,0.7-0.4,1.5,0,2.2C120.6,313.2,121.2,313.7,122,313.9z M131.7,297.2C131.7,297.2,131.7,297.2,131.7,297.2
			c6.3-10.9,8.1-23.6,5.3-35.8c0,0,0,0,0,0c0-0.1,0-0.2,0-0.3c0,0,0,0,0,0c-0.1-0.7,0.3-1.4,0.8-1.8c0.6-0.4,1.3-0.5,2-0.3
			c0,0,0,0,0,0c0.7,0.3,1.1,0.7,1.3,1.5c0,0,0,0,0,0c0,0,0,0,0,0c3.9,16.9-0.6,34.7-12.1,47.6c0,0,0,0,0,0c-1.6,1.8-3.3,3.4-5,4.9
			c0,0,0,0,0,0c-0.6,0.5-1.1,0.6-1.8,0.4c0,0,0,0,0,0c-0.6-0.1-1.1-0.6-1.4-1.1c-0.3-0.6-0.3-1.2,0-1.8c0,0,0,0,0,0c0,0,0,0,0,0
			c0.1-0.1,0.1-0.2,0.2-0.3c0,0,0,0,0,0c0,0,0,0,0,0c0.1-0.1,0.2-0.2,0.3-0.3c0,0,0,0,0,0C125.4,306.2,128.9,302.1,131.7,297.2z"/>
		<path class="st0" d="M37.7,258.6c-0.7,0.3-1.1,0.7-1.4,1.3c0,0,0,0,0,0c-0.1,0.1-0.1,0.3-0.2,0.5c-0.2,1.1-0.5,2.2-0.7,3.4
			c0,0,0,0,0,0c-3,18.4,3.8,37.4,17.9,49.6c0,0,0,0,0,0c0.5,0.4,1,0.6,1.5,0.6c0.2,0,0.5,0,0.7-0.1c0,0,0,0,0,0c0,0,0,0,0.1,0
			c0.8-0.2,1.5-0.8,1.8-1.7c0.3-0.8,0.1-1.7-0.5-2.4c0,0,0,0,0,0c-0.1-0.1-0.2-0.2-0.3-0.3c0,0,0,0,0,0c0,0,0,0,0,0
			c-5.4-4.7-9.3-9.9-12.3-16.4c0,0,0,0,0,0c0,0,0,0,0,0c-3.8-8.2-5.2-17.2-4.2-26.1c0,0,0,0,0,0c0.2-1.8,0.5-3.7,1-5.5c0,0,0,0,0,0
			c0,0,0,0,0,0c0-0.1,0-0.2,0.1-0.3c0,0,0,0,0,0c0.1-0.9-0.3-1.7-1-2.2C39.4,258.4,38.5,258.3,37.7,258.6z M39.8,259.3
			c0.6,0.4,0.9,1.1,0.8,1.8c0,0,0,0,0,0c0,0,0,0,0,0c0,0.1,0,0.2,0,0.3c-0.4,1.9-0.8,3.7-1,5.6c0,0,0,0,0,0c-1,9,0.5,18.1,4.3,26.4
			c0,0,0,0,0,0c0,0,0,0,0,0c3,6.6,7,11.8,12.5,16.6c0,0,0,0,0,0c0,0,0,0,0,0c0.1,0.1,0.1,0.1,0.2,0.2c0,0,0,0,0,0
			c0.5,0.5,0.6,1.3,0.4,2c-0.2,0.7-0.8,1.2-1.4,1.4c0,0,0,0,0,0c-0.8,0.2-1.3,0.1-1.9-0.4c0,0,0,0,0,0
			c-13.9-12.1-20.8-30.9-17.8-49.1c0,0,0,0,0,0c0.2-1.3,0.4-2.4,0.7-3.4c0,0,0,0,0,0c0-0.1,0.1-0.3,0.1-0.4c0.2-0.5,0.6-0.8,1.1-1.1
			C38.5,258.8,39.3,258.9,39.8,259.3z"/>
		<path class="st0" d="M116.8,314.7c-0.7-0.5-1.6-0.6-2.4-0.3c0,0,0,0,0,0c-0.1,0-0.2,0.1-0.3,0.2c0,0,0,0,0,0
			c-5.9,3.6-11.9,5.7-18.5,6.6c0,0,0,0,0,0c-0.1,0-0.1,0-0.2,0l-0.1,0c0,0,0,0,0,0c-1,0.1-2,0.2-3,0.3c0,0,0,0,0,0
			c-10.1,0.7-20-1.7-28.7-6.9c0,0,0,0,0,0c-0.2-0.1-0.3-0.2-0.4-0.2c0,0,0,0,0,0c-0.2-0.1-0.3-0.1-0.5-0.1c0,0,0,0,0,0c0,0,0,0,0,0
			c-0.8-0.1-1.5,0.1-2.1,0.6c-0.6,0.5-0.9,1.3-0.8,2c0.1,0.9,0.4,1.5,1.2,1.9c0,0,0,0,0,0c0,0,0,0,0,0c8.6,5.2,18.2,7.8,27.9,7.8
			c9.6,0,19.3-2.6,27.9-7.8c0.8-0.5,1.2-1.1,1.2-2c0,0,0,0,0,0c0,0,0,0,0,0C117.9,316,117.5,315.2,116.8,314.7z M116.4,318.5
			c-17,10.3-38.2,10.3-55.3,0c0,0,0,0,0,0c0,0,0,0,0,0c-0.7-0.4-0.9-0.8-1-1.6c0-0.6,0.2-1.2,0.7-1.7c0.5-0.4,1.1-0.6,1.7-0.5
			c0,0,0,0,0,0c0,0,0,0,0,0c0.1,0,0.2,0,0.4,0.1c0,0,0,0,0,0c0.1,0,0.2,0.1,0.4,0.2c0,0,0,0,0,0c7.7,4.7,16.5,7.1,25.5,7.1
			c1.2,0,2.3,0,3.5-0.1c0,0,0,0,0,0c8.1-0.6,15.1-2.8,22.1-7c0,0,0,0,0,0c0.1-0.1,0.2-0.1,0.3-0.1c0,0,0,0,0,0c0,0,0,0,0,0
			c0.7-0.3,1.4-0.2,2,0.2c0.6,0.4,0.9,1.1,0.8,1.8c0,0,0,0,0,0c0,0,0,0,0,0C117.4,317.6,117.1,318,116.4,318.5z"/>
		<path class="st0" d="M105.1,301.3C105.1,301.3,105.1,301.3,105.1,301.3C105.1,301.3,105.1,301.3,105.1,301.3
			c-0.2,0.1-0.3,0.1-0.4,0.2c0,0,0,0,0,0c-0.9,0.5-1.9,1-2.8,1.4c0,0,0,0,0,0c-9.3,4-20.2,3.5-29-1.4c0,0,0,0,0,0
			c-0.8-0.5-1.9-0.4-2.7,0.1c-0.8,0.6-1.2,1.5-1,2.4c0.1,0.9,0.5,1.4,1.3,1.8c0,0,0,0,0,0c5.7,3.1,12,4.7,18.3,4.7
			c4.8,0,9.6-0.9,14.2-2.7c0,0,0,0,0,0c1.5-0.6,2.9-1.2,4.2-2c0.6-0.3,1-0.8,1.2-1.5c0,0,0,0,0,0c0.3-0.9,0-1.8-0.7-2.5
			C107,301.2,106,301,105.1,301.3z M107.4,302.2c0.6,0.5,0.8,1.3,0.5,2.1v0c-0.2,0.6-0.4,0.9-1,1.2c-1.3,0.7-2.7,1.4-4.1,2
			c0,0,0,0,0,0c-10.5,4.2-22.2,3.5-32.1-2c0,0,0,0,0,0c-0.6-0.4-0.9-0.8-1-1.5c-0.1-0.8,0.2-1.5,0.9-2c0.7-0.5,1.5-0.5,2.2-0.1
			c0,0,0,0,0,0c5,2.7,10.6,4.1,16.2,4.1c4.5,0,9.1-0.9,13.3-2.7c0,0,0,0,0,0c0.9-0.4,1.9-0.9,2.8-1.4c0,0,0,0,0,0
			c0.1-0.1,0.2-0.1,0.3-0.2c0,0,0,0,0,0C106,301.5,106.8,301.7,107.4,302.2z"/>
		<path class="st0" d="M100.6,294.7c-0.2,0-0.3,0.1-0.5,0.2c0,0,0,0,0,0c-7,3.5-15.5,3.5-22.5,0c0,0,0,0,0,0c-0.7-0.4-1.5-0.4-2.3,0
			c-0.7,0.4-1.2,1-1.3,1.8c-0.2,1.1,0.4,2.2,1.3,2.7c0,0,0,0,0,0c4.2,2.1,8.9,3.2,13.5,3.2c3.5,0,7-0.6,10.4-1.8
			c1.1-0.4,2.1-0.8,3.1-1.4c0,0,0,0,0,0c0.5-0.2,0.8-0.5,1-1c0,0,0,0,0,0c0.3-0.5,0.4-0.9,0.3-1.4c0,0,0,0,0,0c0,0,0,0,0,0
			c0,0,0,0,0,0c0,0,0,0,0,0c0-0.2-0.1-0.4-0.1-0.6c0,0,0,0,0,0c0,0,0,0,0,0c0,0,0,0,0,0c0,0,0,0,0,0c0-0.1-0.1-0.2-0.1-0.3
			c0,0,0,0-0.1,0c0,0,0,0,0,0c-0.1-0.1-0.1-0.2-0.2-0.4c0,0,0,0,0,0c-0.1-0.1-0.2-0.2-0.3-0.3c0,0,0,0-0.1,0c0,0,0-0.1,0-0.1
			c-0.1-0.1-0.2-0.1-0.3-0.2c0,0,0,0,0,0C101.8,294.6,101.3,294.5,100.6,294.7C100.6,294.7,100.6,294.7,100.6,294.7z M102.2,295.4
			C102.2,295.4,102.2,295.4,102.2,295.4c0.1,0,0.2,0.1,0.2,0.1c0,0,0,0,0.1,0c0,0,0,0,0,0c0.1,0.1,0.2,0.2,0.3,0.3c0,0,0,0,0,0
			c0.1,0.1,0.1,0.2,0.2,0.3c0,0,0,0,0,0c0,0,0,0,0,0c0,0.1,0.1,0.2,0.1,0.3c0,0,0,0,0,0c0,0,0,0,0,0c0.1,0.2,0.1,0.3,0.1,0.5
			c0,0,0,0,0,0c0,0,0,0,0,0c0,0.4,0,0.8-0.3,1.2c0,0,0,0,0,0c-0.2,0.4-0.5,0.6-0.9,0.8c0,0,0,0,0,0c-1,0.5-2,1-3.1,1.3
			c-7.7,2.8-16.2,2.3-23.5-1.3c0,0,0,0,0,0c-0.8-0.4-1.3-1.3-1.1-2.2c0.1-0.7,0.5-1.2,1.1-1.5c0.6-0.3,1.3-0.3,1.9,0c0,0,0,0,0,0
			c3.6,1.8,7.5,2.7,11.5,2.7c3.9,0,7.9-0.9,11.5-2.7c0,0,0,0,0,0c0.1-0.1,0.3-0.1,0.4-0.2c0,0,0,0,0,0
			C101.3,295,101.7,295.1,102.2,295.4z"/>
		<path class="st0" d="M45.4,261C45.4,261,45.4,261,45.4,261c-1,0.3-1.4,0.9-1.7,1.8c0,0,0,0,0,0c-3.5,16.1,2,33,14.3,44
			c0,0,0,0,0,0c0.5,0.5,1,0.7,1.6,0.7c0.2,0,0.4,0,0.7-0.1c0,0,0,0,0,0c0,0,0,0,0.1,0c0.7-0.2,1.3-0.7,1.7-1.4
			c0.3-0.7,0.3-1.5,0-2.2c0,0,0,0,0,0c-0.1-0.1-0.1-0.3-0.2-0.4c0,0,0,0,0,0c0,0,0,0,0,0c0,0,0,0,0,0c0,0,0,0,0,0
			c-0.1-0.1-0.2-0.3-0.3-0.4c0,0,0,0,0,0c-9.5-8.5-14.6-21.2-13.5-34c0,0,0,0,0,0c0.2-1.8,0.4-3.5,0.8-5.2c0,0,0,0,0,0
			c0-0.1,0-0.3,0.1-0.4c0,0,0,0,0,0l0,0c0-0.8-0.3-1.6-1-2.1C47.1,260.9,46.2,260.8,45.4,261z M47.5,261.8c0.6,0.4,0.8,1.1,0.8,1.8
			c0,0,0,0,0,0c0,0.1,0,0.2,0,0.3c0,0,0,0,0,0c0,0,0,0,0,0c-0.4,1.7-0.6,3.4-0.8,5.2c0,0,0,0,0,0c-1.1,12.9,4,25.7,13.7,34.4
			c0,0,0,0,0,0c0.1,0.1,0.2,0.2,0.3,0.3c0,0,0,0,0,0c0,0,0,0,0,0c0.1,0.1,0.1,0.2,0.2,0.3c0,0,0,0,0,0c0.3,0.6,0.3,1.2,0,1.8
			c-0.3,0.6-0.8,1-1.4,1.1c0,0,0,0,0,0c-0.8,0.2-1.3,0.1-1.9-0.5c0,0,0,0,0,0c-12.2-10.9-17.6-27.6-14.2-43.5c0,0,0,0,0,0
			c0.2-0.8,0.5-1.2,1.4-1.5c0,0,0,0,0,0C46.2,261.2,46.9,261.4,47.5,261.8z"/>
		<path class="st0" d="M106.6,290.2C106.6,290.2,106.6,290.2,106.6,290.2c-0.6,0.6-0.8,1.4-0.7,2.2c0.1,0.8,0.6,1.5,1.3,1.8
			c0,0,0,0,0,0c0.4,0.2,0.8,0.3,1.2,0.3c0.6,0,1.3-0.3,1.8-0.7c0,0,0,0,0,0c6.7-6.7,9.8-16.3,8.4-25.7c0,0,0,0,0,0c0,0,0,0,0,0
			c-0.2-1.2-1.3-2.1-2.5-2.1c0,0,0,0,0,0c0,0,0,0,0,0c-0.1,0-0.3,0-0.4,0c0,0,0,0,0,0c0,0,0,0-0.1,0c-0.1,0-0.3,0.1-0.4,0.1
			c0,0,0,0,0,0c-0.1,0-0.3,0.1-0.4,0.2c0,0,0,0,0,0.1c0,0-0.1,0-0.1,0c-0.1,0-0.1,0.1-0.2,0.2l0,0c0,0,0,0,0,0c0,0,0,0,0,0
			c-0.5,0.5-0.8,1-0.8,1.7c0,0,0,0,0,0c0,0,0,0,0,0c0,0,0,0,0,0c0,0,0,0,0,0c0,0.2,0,0.4,0,0.6c0,0,0,0,0,0
			C114.7,276.6,112.1,284.6,106.6,290.2z M114.6,266.8L114.6,266.8c0.1-0.1,0.2-0.1,0.2-0.2c0,0,0,0,0,0c0,0,0,0,0.1,0
			c0.1-0.1,0.2-0.1,0.3-0.2c0,0,0,0,0,0c0.1,0,0.2-0.1,0.3-0.1c0,0,0,0,0,0c0,0,0,0,0,0c0,0,0,0,0,0c0.1,0,0.2,0,0.3,0c0,0,0,0,0,0
			s0,0,0,0h0c0,0,0,0,0,0c1,0,1.9,0.7,2,1.7c0,0,0,0,0,0c1.4,9.2-1.7,18.7-8.2,25.3c0,0,0,0,0,0c-0.6,0.6-1.6,0.8-2.4,0.4
			c0,0,0,0,0,0c-0.6-0.3-1-0.9-1.1-1.5c-0.1-0.7,0.1-1.3,0.6-1.8c0,0,0,0,0,0c5.7-5.7,8.3-13.9,7.1-21.8c0,0,0,0,0,0
			c0-0.1,0-0.3,0-0.4c0,0,0,0,0,0c0,0,0,0,0,0C114,267.6,114.2,267.2,114.6,266.8z"/>
		<path class="st0" d="M82.2,288.3C82.2,288.3,82.2,288.3,82.2,288.3c0-0.1,0.1-0.2,0.1-0.3c0,0,0-0.1,0-0.1c0,0-0.1,0-0.1,0
			c0,0.1-0.1,0.2-0.1,0.3c0,0,0,0,0,0c-0.8-0.3-1.7-0.2-2.4,0.3c-0.7,0.5-1.1,1.4-1,2.3c0.1,1,0.6,1.6,1.5,2c0,0,0,0,0,0
			c2.7,1.2,5.7,1.7,8.6,1.7c2.9,0,5.9-0.6,8.6-1.7c0,0,0,0,0,0l0,0c0.7-0.3,1.1-0.7,1.3-1.4c0,0,0,0,0,0c0,0,0,0,0,0
			c0.3-0.7,0.3-1.2,0-1.9c-0.2-0.6-0.6-0.9-1.1-1.2c0,0,0,0,0,0c0,0,0,0,0,0c-0.1,0-0.2-0.1-0.3-0.1c0,0,0,0,0,0c0,0,0,0,0,0
			c-0.2-0.1-0.4-0.1-0.6-0.1c0,0,0,0,0,0c-0.2,0-0.4,0-0.6,0c0,0,0,0,0,0c0,0,0,0,0,0c-0.2,0-0.5,0.1-0.7,0.2c0,0,0,0,0,0
			C91.2,290,86.4,290,82.2,288.3z M95.6,288.7C95.6,288.7,95.6,288.7,95.6,288.7c0.2-0.1,0.4-0.1,0.6-0.2c0.2,0,0.3,0,0.5,0
			c0,0,0,0,0,0c0.1,0,0.3,0.1,0.5,0.1c0,0,0,0,0,0c0,0,0,0,0,0c0.1,0,0.1,0.1,0.2,0.1c0,0,0,0,0,0c0.4,0.2,0.7,0.5,0.9,1
			c0.2,0.6,0.2,1,0,1.6c0,0,0,0,0,0c0,0,0,0,0,0c-0.2,0.5-0.5,0.9-1.1,1.1c0,0,0,0,0,0c-5.4,2.3-11.5,2.3-16.8,0c0,0,0,0,0,0
			c-0.8-0.3-1.1-0.8-1.2-1.7c-0.1-0.7,0.2-1.4,0.8-1.9c0.6-0.4,1.3-0.5,2-0.2c0,0,0,0,0,0c2.2,0.9,4.5,1.4,6.8,1.4
			C91.1,290,93.4,289.6,95.6,288.7z"/>
		<path class="st0" d="M56.4,266c0-0.8-0.4-1.6-1-2.1c-0.7-0.5-1.5-0.6-2.3-0.4c0,0,0,0,0,0c0,0,0,0,0,0c-0.2,0.1-0.4,0.2-0.6,0.3
			c0,0,0,0,0,0c-0.2,0.1-0.3,0.3-0.5,0.4c-0.3,0.3-0.5,0.7-0.6,1.2c0,0,0,0,0,0c0,0,0,0,0,0c-2.5,12.9,1.8,25.9,11.3,34.9
			c0,0,0,0,0,0c0,0,0,0,0,0c0.5,0.5,1,0.7,1.6,0.7c0.3,0,0.6-0.1,1-0.2c0,0,0,0,0,0c0.8-0.3,1.4-1,1.6-1.8c0.2-0.9-0.1-1.7-0.7-2.3
			c0,0,0,0,0,0c-6.2-5.8-9.9-13.7-10.4-22.1c0,0,0,0,0,0c-0.1-1.8-0.1-3.5,0.1-5.1l0,0c0,0,0,0,0,0c0.1-1,0.2-2,0.4-3c0,0,0,0,0,0
			C56.4,266.2,56.4,266.1,56.4,266C56.4,266,56.4,266,56.4,266z M65.9,297C65.9,297,65.9,297,65.9,297c0.5,0.5,0.8,1.2,0.6,1.9
			c-0.1,0.7-0.6,1.3-1.3,1.5c-0.9,0.3-1.4,0.2-2.1-0.4c0,0,0,0,0,0c0,0,0,0,0,0c-9.4-8.9-13.6-21.7-11.2-34.5c0,0,0,0,0,0
			c0,0,0,0,0,0c0.1-0.4,0.2-0.7,0.5-1c0.1-0.1,0.3-0.3,0.4-0.4c0,0,0,0,0,0c0.2-0.1,0.3-0.2,0.5-0.2c0,0,0,0,0,0
			c0.6-0.2,1.3-0.1,1.9,0.3c0.6,0.4,0.9,1,0.8,1.7c0,0,0,0,0,0c0,0,0,0,0,0c0,0.1,0,0.2,0,0.3c0,0,0,0,0,0c0,0,0,0,0,0
			c-0.2,1-0.3,2-0.4,3c0,0,0,0,0,0c-0.2,1.7-0.2,3.4-0.1,5.2c0,0,0,0,0,0C55.9,283.1,59.6,291.1,65.9,297z"/>
		<path class="st0" d="M101.6,283.7C101.6,283.7,101.6,283.7,101.6,283.7c-0.5,0.6-0.7,1.4-0.6,2.2c0.2,0.8,0.7,1.4,1.4,1.7
			c0.3,0.2,0.7,0.2,1.1,0.2c0.7,0,1.4-0.3,1.9-0.9c0,0,0,0,0,0c0,0,0,0,0,0c0,0,0,0,0,0c0,0,0,0,0,0c3.9-4.5,5.8-10.4,5.3-16.3
			c-0.1-0.7-0.3-1.2-0.9-1.7c0,0,0,0,0,0c-0.2-0.2-0.5-0.4-0.9-0.5c-0.3-0.1-0.6-0.1-1-0.1c0,0,0,0,0,0c-0.5,0-0.9,0.2-1.2,0.5
			c0,0,0,0,0,0c0,0,0,0,0,0c-0.1,0.1-0.2,0.1-0.3,0.2c0,0,0,0,0,0c-0.1,0.1-0.1,0.1-0.2,0.2c0,0,0,0,0,0.1c0,0,0,0,0,0
			c-0.1,0.2-0.2,0.3-0.3,0.5c0,0,0,0,0,0c0,0,0,0,0,0c-0.1,0.2-0.1,0.4-0.2,0.5c0,0.3-0.1,0.5,0,0.7
			C106.1,275.7,104.7,280.3,101.6,283.7C101.6,283.7,101.6,283.7,101.6,283.7z M106.2,271.1C106.2,271.1,106.2,271.1,106.2,271.1
			C106.2,271.1,106.2,271.1,106.2,271.1c0-0.2,0-0.4,0-0.6c0,0,0,0,0,0c0-0.1,0.1-0.3,0.1-0.4c0,0,0,0,0,0c0.1-0.2,0.2-0.3,0.2-0.4
			c0,0,0,0,0,0c0,0,0,0,0,0c0.1-0.1,0.1-0.1,0.2-0.2c0,0,0,0,0,0c0,0,0,0,0,0c0.1-0.1,0.1-0.1,0.2-0.2c0.3-0.2,0.6-0.3,1-0.4
			c0,0,0,0,0,0c0.3,0,0.5,0,0.8,0.1c0.3,0.1,0.5,0.2,0.7,0.4c0,0,0,0,0,0c0.5,0.4,0.7,0.8,0.7,1.4c0.5,5.8-1.4,11.6-5.2,16
			c-0.6,0.7-1.6,0.9-2.4,0.5c-0.6-0.3-1-0.8-1.1-1.4c-0.1-0.6,0-1.3,0.5-1.8c0,0,0,0,0,0c0,0,0,0,0,0
			C105.1,280.5,106.6,275.7,106.2,271.1z"/>
		<path class="st0" d="M90.7,253.4c-0.1,1.1,0.5,2.1,1.5,2.5c0,0,0,0,0,0c0.1,0.1,0.2,0.1,0.4,0.1c0,0,0,0,0,0
			c4.5,1,8.4,3.9,10.7,7.8c0,0,0,0,0,0c0.4,0.7,1.1,1.1,1.9,1.2c0.1,0,0.2,0,0.3,0c0.7,0,1.3-0.3,1.8-0.8c0,0,0,0,0,0
			c0.8-0.8,0.9-2,0.3-3c0,0,0,0,0,0c0,0,0,0,0,0v0l0,0c-3.1-5.1-8.1-8.8-13.9-10.1c0,0,0,0,0,0c0,0,0,0,0,0c-1.2-0.3-1.9,0-2.6,1
			c0,0,0,0,0,0c-0.2,0.3-0.3,0.6-0.4,0.9c0,0,0,0,0,0C90.7,253.1,90.7,253.2,90.7,253.4C90.7,253.4,90.7,253.4,90.7,253.4z
			 M93.7,251.5C93.7,251.5,93.7,251.5,93.7,251.5c5.7,1.3,10.6,4.9,13.6,9.9c0.5,0.8,0.4,1.8-0.3,2.5c0,0,0,0,0,0
			c-0.4,0.5-1.1,0.7-1.7,0.6c-0.6-0.1-1.2-0.4-1.5-1c0,0,0,0,0,0c-2.4-4-6.4-6.9-11-8c0,0,0,0,0,0c0,0,0,0,0,0
			c-0.1,0-0.2-0.1-0.3-0.1c0,0,0,0,0,0c-0.8-0.3-1.3-1.2-1.3-2c0,0,0,0,0,0c0-0.1,0-0.2,0-0.3c0,0,0,0,0,0c0.1-0.3,0.2-0.5,0.3-0.7
			c0,0,0,0,0,0c0,0,0,0,0,0C92.1,251.5,92.7,251.3,93.7,251.5z"/>
		<path class="st0" d="M85.4,243.1C85.4,243.1,85.4,243.1,85.4,243.1c-0.5-0.2-0.9-0.3-1.4-0.2c0,0,0,0,0,0
			c-9.4,1.5-17.5,7.5-21.9,15.9c0,0,0,0,0,0c-0.5,0.9-0.4,1.7,0.2,2.6c0,0,0,0,0,0c0.5,0.7,1.2,1.1,2.1,1.1h0c0.8,0,1.6-0.4,2.1-1.1
			c0,0,0,0,0,0c0.1-0.1,0.1-0.2,0.2-0.3c0,0,0,0,0,0c3.6-7,10.4-12,18.2-13.2c0,0,0,0,0,0c0,0,0,0,0,0c0.1,0,0.3-0.1,0.4-0.1
			c0,0,0,0,0,0c0.3-0.1,0.6-0.3,0.8-0.5c0,0,0,0,0,0c0.1-0.1,0.1-0.1,0.2-0.2c0,0,0-0.1,0-0.1c0,0,0.1,0,0.1,0
			c0.4-0.6,0.6-1.4,0.4-2.1C86.6,244,86.1,243.4,85.4,243.1z M86,246.6C86,246.6,86,246.7,86,246.6c0,0.1-0.1,0.1-0.1,0.1
			c-0.1,0.1-0.1,0.1-0.2,0.2c0,0,0,0,0,0c-0.2,0.2-0.4,0.3-0.7,0.4c0,0,0,0,0,0c-0.1,0-0.2,0.1-0.4,0.1c0,0,0,0,0,0
			c-7.9,1.3-14.9,6.3-18.5,13.5c0,0,0,0,0,0c0,0,0,0,0,0c0,0.1-0.1,0.1-0.1,0.2c0,0,0,0,0,0c-0.4,0.6-1,0.9-1.7,0.9h0
			c-0.7,0-1.3-0.3-1.7-0.9c0,0,0,0,0,0c-0.5-0.7-0.5-1.3-0.1-2.1c0,0,0,0,0,0c4.3-8.3,12.3-14.1,21.5-15.7c0,0,0,0,0,0
			c0.4-0.1,0.8,0,1.2,0.2c0,0,0,0,0,0c0.6,0.3,1,0.7,1.1,1.4C86.5,245.5,86.4,246.1,86,246.6z"/>
		<path class="st0" d="M86.4,235.8c-0.1-0.2-0.3-0.3-0.5-0.5c0,0,0,0,0,0c-0.2-0.1-0.4-0.2-0.5-0.3c0,0,0,0,0,0s0,0,0,0c0,0,0,0,0,0
			s0,0,0,0c-0.4-0.2-0.8-0.2-1.3-0.2c0,0,0,0,0,0c-13,1.6-24.1,9.7-29.7,21.6c0,0,0,0,0,0c-0.5,1.1-0.4,1.9,0.4,2.8c0,0,0,0,0,0
			c0.5,0.5,1.1,0.8,1.8,0.8c0.1,0,0.2,0,0.4,0c0.8-0.1,1.5-0.7,1.9-1.4c0,0,0,0,0,0c4.8-10.3,14.5-17.3,25.8-18.7c0,0,0,0,0,0
			c0.1,0,0.2,0,0.3-0.1c0,0,0,0,0.1,0c0.8-0.2,1.4-0.8,1.7-1.6C87,237.3,86.9,236.5,86.4,235.8C86.4,235.8,86.4,235.8,86.4,235.8z
			 M86.3,238c-0.2,0.6-0.7,1.1-1.4,1.3c0,0,0,0,0,0c-0.1,0-0.2,0.1-0.3,0.1c0,0,0,0,0,0c-11.4,1.4-21.2,8.5-26.1,19c0,0,0,0,0,0
			c-0.3,0.6-0.9,1.1-1.6,1.2c-0.7,0.1-1.4-0.1-1.8-0.7c0,0,0,0,0,0c-0.7-0.7-0.8-1.3-0.3-2.3c0,0,0,0,0,0
			c5.5-11.7,16.5-19.7,29.3-21.3c0,0,0,0,0,0c0.4,0,0.7,0,1,0.1c0,0,0,0,0,0c0,0,0,0,0,0c0.2,0.1,0.3,0.2,0.5,0.3c0,0,0,0,0,0
			c0.1,0.1,0.3,0.2,0.4,0.4c0,0,0,0,0,0c0,0,0,0,0,0C86.4,236.6,86.5,237.3,86.3,238z"/>
		<path class="st0" d="M92.5,247.8C92.5,247.8,92.5,247.8,92.5,247.8c0.1,0,0.2,0.1,0.3,0.1c0,0,0,0,0,0c7.8,1.3,14.6,6.2,18.2,13.2
			c0,0,0,0,0,0c0.4,0.7,1,1.2,1.8,1.3c0.1,0,0.3,0,0.4,0c0.6,0,1.3-0.2,1.7-0.7c0,0,0,0,0,0c0.8-0.8,1-1.9,0.5-2.9c0,0,0,0,0,0
			c-4.3-8.4-12.5-14.4-21.9-15.9c-1.1-0.2-1.7,0.1-2.4,0.9c0,0,0,0,0,0c-0.5,0.7-0.7,1.5-0.4,2.3C91.1,246.9,91.7,247.6,92.5,247.8z
			 M91.6,244.1C91.6,244.1,91.6,244.1,91.6,244.1c0.5-0.7,1.1-0.9,2-0.8c9.2,1.5,17.3,7.3,21.5,15.6c0,0,0,0,0,0
			c0.4,0.8,0.3,1.8-0.4,2.4c0,0,0,0,0,0c-0.5,0.5-1.1,0.7-1.8,0.6c-0.7-0.1-1.2-0.5-1.5-1.1c0,0,0,0,0,0
			c-3.7-7.1-10.6-12.2-18.5-13.5c0,0,0,0,0,0c0,0,0,0,0,0c-0.1,0-0.2,0-0.2-0.1c0,0,0,0,0,0c-0.7-0.2-1.2-0.7-1.4-1.3
			C91,245.4,91.2,244.7,91.6,244.1z"/>
		<path class="st0" d="M77.4,233.2C77.4,233.2,77.4,233.2,77.4,233.2c2.4-0.7,4.7-1.1,7.2-1.4c0,0,0,0,0,0c0,0,0,0,0,0
			c0.1,0,0.3,0,0.4-0.1c0,0,0,0,0,0c0.8-0.2,1.4-0.8,1.7-1.6c0.3-0.8,0.1-1.7-0.3-2.3c0,0,0,0,0,0c0,0,0,0,0,0
			c-0.6-0.8-1.3-1.1-2.3-1c0,0,0,0,0,0c-4.5,0.5-8.7,1.5-12.9,3.3c0,0,0,0,0,0c-11,4.6-19.7,13-24.5,23.9c0,0,0,0,0,0
			c-0.4,0.9-0.3,1.5,0.2,2.3c0,0,0,0,0,0c0.4,0.6,1.1,1.1,1.8,1.2c0.1,0,0.2,0,0.3,0c0.6,0,1.3-0.2,1.7-0.7l0,0c0,0,0,0,0,0
			c0.1-0.1,0.2-0.2,0.3-0.4c0,0,0,0,0,0c0,0,0,0,0,0c0,0,0,0,0,0c0,0,0,0,0,0c0.1-0.1,0.2-0.3,0.3-0.4c0,0,0,0,0,0
			C56.2,244.9,65.7,236.6,77.4,233.2z M50.9,255.8C50.9,255.8,50.9,255.8,50.9,255.8c-0.1,0.1-0.1,0.2-0.2,0.4c0,0,0,0,0,0
			c-0.1,0.1-0.2,0.2-0.2,0.3c0,0,0,0,0,0c0,0,0,0,0,0c-0.5,0.4-1.1,0.6-1.7,0.6c-0.6-0.1-1.2-0.4-1.5-0.9c0,0,0,0,0,0
			c-0.4-0.7-0.5-1.2-0.1-1.9c0,0,0,0,0,0c4.8-10.8,13.4-19.2,24.3-23.7c0,0,0,0,0,0c4.1-1.7,8.3-2.8,12.8-3.2c0,0,0,0,0,0
			c0.8-0.1,1.4,0.1,1.9,0.8c0,0,0,0,0,0c0,0,0,0,0,0c0.4,0.6,0.5,1.3,0.3,1.9c-0.2,0.7-0.7,1.1-1.4,1.3c0,0,0,0,0,0
			c-0.1,0-0.2,0-0.3,0.1c0,0,0,0,0,0c-2.5,0.3-4.9,0.7-7.3,1.4c0,0,0,0,0,0C65.5,236.2,55.8,244.6,50.9,255.8z"/>
		<path class="st0" d="M90.8,229.8c0.1,0.7,0.6,1.4,1.3,1.7c0,0,0,0,0,0c0,0,0,0,0,0c0.1,0.1,0.3,0.1,0.4,0.2c0,0,0,0,0.1,0
			c0.1,0,0.3,0.1,0.4,0.1c0,0,0,0,0,0c6.3,0.6,11.7,2.5,17.2,5.8c0,0,0,0,0,0c7.2,4.4,12.8,10.7,16.2,18.4c0,0,0,0,0,0
			c0.3,0.8,1,1.3,1.9,1.5c0.1,0,0.3,0,0.4,0c0.7,0,1.3-0.3,1.8-0.8c0,0,0,0,0,0c0.8-0.9,1-1.6,0.5-2.7c0,0,0,0,0,0
			c-6.7-15.1-21-25.5-37.4-27.2c0,0,0,0,0,0c-1-0.1-1.6,0.2-2.2,0.9c0,0,0,0,0,0C90.8,228.3,90.6,229,90.8,229.8z M91.6,228
			C91.6,228,91.6,227.9,91.6,228c0.5-0.6,1-0.8,1.8-0.7c0,0,0,0,0,0c16.2,1.7,30.4,12,37,26.9c0,0,0,0,0,0c0.4,0.9,0.3,1.5-0.4,2.3
			c0,0,0,0,0,0c-0.5,0.5-1.1,0.7-1.8,0.6c-0.7-0.1-1.3-0.6-1.5-1.2c0,0,0,0,0,0c-3.4-7.8-9.1-14.2-16.4-18.6c0,0,0,0,0,0
			c-5.5-3.3-11-5.2-17.3-5.8c0,0,0,0,0,0c-0.1,0-0.3,0-0.4-0.1c0,0,0,0,0,0c-0.1,0-0.2-0.1-0.3-0.1c0,0,0,0,0,0c0,0,0,0,0,0
			c-0.5-0.3-0.9-0.8-1-1.4C91.1,229.1,91.2,228.4,91.6,228z"/>
		<path class="st0" d="M388.9,416.5H372c-3.3,0-6.1,2.7-6.1,6.1c0,3.3,2.7,6.1,6.1,6.1h16.9c3.3,0,6.1-2.7,6.1-6.1
			C395,419.2,392.3,416.5,388.9,416.5z M388.9,427.6H372c-2.8,0-5-2.2-5-5c0-2.8,2.2-5,5-5h16.9c2.8,0,5,2.2,5,5
			C393.9,425.3,391.7,427.6,388.9,427.6z"/>
		<path class="st0" d="M388.9,387.1H372c-3.3,0-6.1,2.7-6.1,6.1c0,3.3,2.7,6.1,6.1,6.1h16.9c3.3,0,6.1-2.7,6.1-6.1
			C395,389.8,392.3,387.1,388.9,387.1z M388.9,398.2H372c-2.8,0-5-2.2-5-5c0-2.8,2.2-5,5-5h16.9c2.8,0,5,2.2,5,5
			C393.9,395.9,391.7,398.2,388.9,398.2z"/>
		<path class="st0" d="M269,506.3C269,506.3,269,506.3,269,506.3l-34.3,0c0,0,0,0,0,0c-3.3,0-6.1,2.7-6.1,6.1c0,3.3,2.7,6.1,6.1,6.1
			c0,0,0,0,0,0c0,0,0,0,0,0H269c3.3,0,6.1-2.7,6.1-6.1C275.1,509.1,272.4,506.3,269,506.3z M269,517.4h-34.3c0,0,0,0,0,0
			c0,0,0,0,0,0c-2.8,0-5-2.2-5-5c0-2.8,2.2-5,5-5c0,0,0,0,0,0H269c0,0,0,0,0,0c2.8,0,5,2.2,5,5C274,515.2,271.8,517.4,269,517.4z"/>
		<path class="st0" d="M388.9,357.7C388.9,357.7,388.9,357.7,388.9,357.7l-16.9,0c0,0,0,0,0,0c-3.3,0-6.1,2.7-6.1,6.1
			c0,3.3,2.7,6.1,6.1,6.1h16.9c3.3,0,6.1-2.7,6.1-6.1C395,360.4,392.3,357.7,388.9,357.7z M388.9,368.8H372c-2.8,0-5-2.2-5-5
			c0-2.8,2.2-5,5-5c0,0,0,0,0,0h16.9c0,0,0,0,0,0c2.8,0,5,2.2,5,5C393.9,366.5,391.7,368.8,388.9,368.8z"/>
		<path class="st0" d="M207.1,506.3h-11.4c0,0,0,0,0,0c-3.3,0-6.1,2.7-6.1,6.1c0,3.3,2.7,6.1,6.1,6.1h11.4c0,0,0,0,0,0
			c3.3,0,6.1-2.7,6.1-6.1C213.2,509.1,210.5,506.3,207.1,506.3z M207.1,517.4C207.1,517.4,207.1,517.4,207.1,517.4l-11.4,0
			c-2.8,0-5-2.2-5-5c0-2.8,2.2-5,5-5c0,0,0,0,0,0h11.4c2.8,0,5,2.2,5,5C212.1,515.2,209.9,517.4,207.1,517.4z"/>
		<path class="st0" d="M347.1,506.3h-11.4c0,0,0,0,0,0c-3.3,0-6.1,2.7-6.1,6.1c0,3.3,2.7,6.1,6.1,6.1c0,0,0,0,0,0h0h11.4h0
			c0,0,0,0,0,0c3.3,0,6.1-2.7,6.1-6.1C353.2,509.1,350.5,506.3,347.1,506.3z M347.1,517.4C347.1,517.4,347.1,517.4,347.1,517.4
			l-11.4,0c-2.8,0-5-2.2-5-5c0-2.8,2.2-5,5-5c0,0,0,0,0,0h11.4c2.8,0,5,2.2,5,5C352.2,515.2,349.9,517.4,347.1,517.4z"/>
		<path class="st0" d="M308.1,506.3h-11.4c0,0,0,0,0,0c-3.3,0-6.1,2.7-6.1,6.1c0,3.3,2.7,6.1,6.1,6.1h11.4c0,0,0,0,0,0
			c3.3,0,6.1-2.7,6.1-6.1C314.2,509.1,311.4,506.3,308.1,506.3z M308.1,517.4C308.1,517.4,308.1,517.4,308.1,517.4l-11.4,0
			c-2.8,0-5-2.2-5-5c0-2.8,2.2-5,5-5c0,0,0,0,0,0h11.4c2.8,0,5,2.2,5,5C313.1,515.2,310.9,517.4,308.1,517.4z"/>
		<path class="st0" d="M388.9,445.9C388.9,445.9,388.9,445.9,388.9,445.9l-16.9,0c0,0,0,0,0,0c-3.3,0-6.1,2.7-6.1,6.1
			c0,3.3,2.7,6.1,6.1,6.1h16.9c3.3,0,6.1-2.7,6.1-6.1C395,448.6,392.3,445.9,388.9,445.9z M388.9,457H372c-2.8,0-5-2.2-5-5
			c0-2.8,2.2-5,5-5c0,0,0,0,0,0h16.9c0,0,0,0,0,0c2.8,0,5,2.2,5,5C393.9,454.7,391.7,457,388.9,457z"/>
		<path class="st0" d="M388.9,475.3C388.9,475.3,388.9,475.3,388.9,475.3l-16.9,0c0,0,0,0,0,0c-3.3,0-6.1,2.7-6.1,6.1
			c0,3.3,2.7,6.1,6.1,6.1h16.9c3.3,0,6.1-2.7,6.1-6.1C395,478,392.3,475.3,388.9,475.3z M388.9,486.4H372c-2.8,0-5-2.2-5-5
			c0-2.8,2.2-5,5-5c0,0,0,0,0,0h16.9c0,0,0,0,0,0c2.8,0,5,2.2,5,5C393.9,484.1,391.7,486.4,388.9,486.4z"/>
		<path class="st0" d="M145.7,434.8c-4.6-20-11.8-34.7-21.2-43.7c0,0,0,0,0,0c0,0,0,0,0,0c-9.5-8.8-21.8-13.6-34.8-13.6
			c-0.3,0-0.6,0-0.9,0c0,0,0,0,0,0c-0.3,0-0.6,0-0.9,0c-12.9,0-25.2,4.8-34.8,13.6c-9.4,8.9-16.6,23.6-21.2,43.7
			c-3.8,16.5-5.7,33.1-7.2,48.6c0,0,0,0,0,0c0,0,0,0,0,0c-0.3,2.9-0.3,5.5,0.1,7.9c0.4,2.5,1.3,4.9,2.6,7.1c1.3,2.3,2.9,4.3,4.8,6
			c0.9,0.8,1.9,1.6,3.1,2.4c1.1,0.7,2.2,1.4,3.8,2.2c0,0,0,0,0,0c14.7,7.6,31.2,11.6,47.8,11.6c0.7,0,1.3,0,2,0c0,0,0,0,0,0
			c0.7,0,1.3,0,2,0c16.6,0,33.1-4,47.8-11.6c2.8-1.4,5-2.9,6.9-4.6c1.9-1.7,3.5-3.7,4.7-6c1.3-2.3,2.1-4.6,2.5-7.1
			c0.2-1.2,0.3-2.4,0.3-3.7c0-1.5-0.1-2.9-0.2-4.2C151.4,467.9,149.5,451.2,145.7,434.8z M153,487.6c0,1.3-0.1,2.5-0.3,3.7
			c-0.4,2.5-1.3,4.8-2.5,7.1c-1.3,2.2-2.8,4.2-4.7,5.9c-1.9,1.7-4.1,3.2-6.9,4.5c0,0,0,0,0,0c0,0,0,0,0,0
			c-14.7,7.6-31.2,11.6-47.8,11.6c-0.7,0-1.3,0-2,0h0c0,0,0,0,0,0c0,0,0,0,0,0h0c-0.7,0-1.3,0-2,0c-16.6,0-33-4-47.8-11.6
			c0,0,0,0,0,0c-1.6-0.8-2.7-1.5-3.8-2.2c-1.1-0.7-2.2-1.5-3.1-2.4c-1.9-1.7-3.5-3.7-4.7-5.9c-1.3-2.2-2.1-4.6-2.5-7.1
			c-0.4-2.4-0.5-4.9-0.1-7.8c0,0,0,0,0,0c0,0,0,0,0,0c1.5-15.5,3.4-32.1,7.2-48.6c4.6-20,11.8-34.7,21.2-43.6
			c9.5-8.8,21.8-13.6,34.7-13.6c0.3,0,0.6,0,0.9,0h0c0,0,0,0,0,0c0.3,0,0.6,0,0.9,0c12.9,0,25.2,4.8,34.7,13.6c0,0,0,0,0,0
			c0,0,0,0,0,0c9.4,8.9,16.6,23.6,21.2,43.6c3.8,16.5,5.7,33.1,7.2,48.6C152.9,484.7,153,486.1,153,487.6z"/>
		<path class="st0" d="M151.1,46.4c-1.3-2.3-3-4.4-4.9-6.2c-0.9-0.9-2-1.7-3.2-2.5c-1.1-0.7-2.4-1.5-3.9-2.3
			c-14.9-7.7-31.5-11.7-48.3-11.7c-0.7,0-1.3,0-2,0c-0.7,0-1.3,0-2,0c-16.7,0-33.4,4-48.3,11.7c0,0,0,0,0,0c-2.9,1.4-5.2,3-7.2,4.8
			c-2,1.8-3.6,3.9-4.9,6.2c-1.3,2.3-2.2,4.8-2.7,7.4c-0.2,1.3-0.4,2.6-0.4,3.9c0,1.5,0.1,3.1,0.2,4.4l0,0
			c1.5,15.6,3.4,32.3,7.3,48.9c4.7,20.1,11.9,34.9,21.5,43.9c0,0,0,0,0,0c6.9,6.5,15.5,10.8,24.8,12.7c0,0,0,0,0,0c0,0,0,0,0.1,0
			c0.1,0,0.3,0.1,0.4,0.1c0,0,0,0,0,0v22.7c0,0,0,0,0,0c0,1.6,1.3,3,3,3c0,0,0,0,0,0h16.2c1.6,0,3-1.3,3-3v-22.7c0,0,0,0,0,0
			c0,0,0,0,0,0c0.1,0,0.3,0,0.4-0.1c0,0,0,0,0.1,0c0,0,0,0,0,0c9.3-1.8,17.9-6.3,24.9-12.8c0,0,0,0,0,0c9.5-9,16.7-23.8,21.4-43.9
			c3.9-16.6,5.8-33.3,7.3-48.8c0,0,0,0,0,0c0.3-3.1,0.3-5.8-0.1-8.2C153.3,51.3,152.4,48.8,151.1,46.4z M74.8,161.6
			c-0.1,0-0.2,0-0.2,0.1c-0.1,0-0.2-0.1-0.3-0.1c0,0,0,0,0,0c0.1,0,0.1,0,0.1-0.1v-3.8c0,0,0,0-0.1-0.1c0,0,0-0.1,0-0.1
			c-3.1-1.1-5.9-2.4-8.4-3.9c-2.5-1.6-4.9-3.5-7-5.6c-4.1-4.2-7.6-9.7-10.5-16.9c-2.9-7-5.2-15-7-24.9c-1.7-8.8-2.7-17.8-3.6-26.6
			h1.8c0,0,0,0,0,0c0.8,0,1.7,0,2.5,0c0.8,0,1.7,0,2.5,0c0,0,0,0,0,0c0,0,0,0,0,0h12.1c0,0,0,0,0,0c0,0,0,0,0,0
			c1.5,0,2.2-1.1,2.2-2.2c0-1-0.7-2.1-2.2-2.2c0,0,0,0,0,0c0,0,0,0,0,0H43.5c0,0,0,0,0,0c-0.8,0-1.6,0-2.4,0c-0.9,0-1.7,0-2.6,0
			c0,0,0,0,0,0h-1.2c-0.2-2.6-0.5-5.2-0.7-7.8c0,0,0,0,0,0c-0.1-0.9-0.1-1.8-0.1-2.7c0-0.8,0.1-1.5,0.2-2.2c0.3-1.5,0.8-2.9,1.6-4.2
			c0.8-1.3,1.8-2.5,3-3.5c1.5-1.2,3.2-2.2,4.6-2.8c0,0,0,0,0,0c0,0,0,0,0,0c5-2.5,10.1-4.5,15.5-6.1c0.1,0,0.1-0.1,0.1-0.2v12
			c0,0,0,0,0,0s0,0,0,0c0,1.5,1.1,2.2,2.2,2.2c1,0,2.1-0.7,2.2-2.2c0,0,0,0,0,0s0,0,0,0V44.8c0,0.1,0.1,0.1,0.1,0.1c0,0,0,0,0,0
			c7.5-1.8,14.9-2.7,22.6-2.7c0.1,0,0.1,0,0.2,0c0,0,0,0,0,0c0,0,0,0,0,0c7.8,0,15.3,0.9,22.8,2.7c0,0,0,0,0,0c0.1,0,0.1,0,0.1-0.1
			v13.1c0,0,0,0,0,0s0,0,0,0c0,1.5,1.1,2.2,2.2,2.2c1,0,2.1-0.7,2.2-2.2c0,0,0,0,0,0s0,0,0,0v-12c0,0.1,0,0.1,0.1,0.2
			c5.4,1.6,10.4,3.6,15.5,6.1c1.2,0.6,2.6,1.3,3.8,2.2c0.5,0.4,1,0.8,1.4,1.2c0.5,0.4,0.9,0.9,1.3,1.3c1.6,1.9,2.6,4.3,2.9,6.7
			c0,0,0,0,0,0c0.2,1.3,0.1,2.6,0,3.9c0,0,0,0,0,0c0,0,0,0,0,0c-0.2,2.7-0.4,5.3-0.7,7.8c-0.6,0-1.3,0-1.9,0c-0.8,0-1.6,0-2.4,0
			h-13.2c0,0,0,0,0,0c-1.4,0-2.2,1.1-2.2,2.2c0,1,0.7,2.1,2.2,2.2h0h0H135c0.8,0,1.6,0,2.4,0c0.8,0,1.6,0,2.4,0c0,0,0,0,0.1,0
			c-0.2,1.5-0.3,2.9-0.5,4.4c-0.6,5.2-1.2,9.9-1.9,14.4c-0.6,4.3-1.3,8.3-2.1,12c-0.8,3.7-1.6,7-2.5,10.2c0,0,0,0,0,0
			c-2.1,7.4-6,17.8-12.2,25.2c0,0,0,0,0,0c-4.9,5.8-10.3,9.4-17.4,11.8c0,0,0,0,0,0.1c0,0-0.1,0-0.1,0.1v3.8c0,0.1,0.1,0.1,0.1,0.1
			c-0.2,0-0.3,0.1-0.5,0.1c0,0,0,0,0,0c-1,0.3-1.9,0.5-2.9,0.7v-3.5c0-0.3-0.2-0.5-0.5-0.5c0,0-0.1,0-0.1,0c-0.1,0-0.1,0-0.2,0
			c-3.4,0.8-6.7,1.1-10.2,1.1c0,0-0.1,0-0.1,0c0,0-0.1,0-0.1,0c-3.5,0-6.8-0.4-10.2-1.1c0,0-0.1,0-0.1,0c-0.1,0-0.1-0.1-0.2-0.1
			c-0.3,0-0.5,0.2-0.5,0.5v3.5C76.8,162.1,75.8,161.8,74.8,161.6z M35,79.2C35,79.2,35,79.2,35,79.2C35,79.2,35,79.2,35,79.2
			l-0.9-3.5h3c0,0,0,0,0,0h-0.6c-0.1,0-0.1,0.1-0.1,0.1v3.3c0,0.1,0,0.1,0.1,0.1H35z M44.6,79.3c-0.8,0-1.7,0-2.5,0
			c-0.8,0-1.7,0-2.5,0c0,0,0,0,0,0h-1.4c0.1,0,0.1,0,0.1-0.1v-3.3c0-0.1-0.1-0.1-0.1-0.1h-0.7c0,0,0,0,0,0h1.2c0,0,0,0,0,0
			c0.9,0,1.7,0,2.6,0c0.8,0,1.6,0,2.4,0c0,0,0,0,0,0h13.2c0,0,0,0,0,0v3.5H44.6C44.6,79.3,44.6,79.3,44.6,79.3
			C44.6,79.3,44.6,79.3,44.6,79.3z M65.5,39.7c0,0.9,0,1.7,0,2.6c0,0.8,0,1.6,0,2.4c0,0,0,0,0,0v13.2c0,1.2-0.9,1.8-1.8,1.8
			c-0.8,0-1.7-0.6-1.8-1.8V45.8c0,0,0,0,0,0c0,0,0,0,0,0c0-0.8,0-1.7,0-2.5c0-0.8,0-1.7,0-2.5c0,0,0,0,0,0c0-1.5,0-3,0-4.5
			c0,0,0,0,0,0c0-0.7,0.5-1.2,1.7-1.5c0.3-0.1,1.2-0.3,1.6,0c0.1,0.1,0.2,0.3,0.2,0.6c0,0,0,0,0,0c0,0,0,0,0,0L65.5,39.7
			C65.5,39.7,65.5,39.7,65.5,39.7z M115.6,36.2v4.5c0,0,0,0,0,0c0,0.8,0,1.7,0,2.5c0,0.8,0,1.7,0,2.5c0,0,0,0,0,0c0,0,0,0,0,0v12.1
			c0,1.2-0.9,1.8-1.8,1.8c-0.8,0-1.7-0.6-1.8-1.8V44.7c0,0,0,0,0,0c0-0.8,0-1.6,0-2.4c0-0.8,0-1.7,0-2.6c0,0,0,0,0,0v-4.5
			c0,0,0,0,0,0c0-0.3,0.1-0.5,0.2-0.6c0.4-0.3,1.3,0,1.6,0C115.1,35,115.6,35.5,115.6,36.2C115.6,36.2,115.6,36.2,115.6,36.2z
			 M144.6,79.2C144.5,79.2,144.5,79.2,144.6,79.2l-4.4,0c0,0,0,0,0,0h0.9c0.1,0,0.1-0.1,0.1-0.1v-3.3c0-0.1-0.1-0.1-0.1-0.1h-0.5
			c0.1,0,0.3,0,0.4,0c0,0,0,0,0,0h4.5L144.6,79.2z M137.4,79.3c-0.8,0-1.6,0-2.4,0h-12.1c0,0,0,0,0,0v-3.5c0,0,0,0,0,0H136
			c0.8,0,1.6,0,2.4,0c0.3,0,0.7,0,1,0c-0.1,0-0.1,0-0.1,0.1v3.3c0,0.1,0.1,0.1,0.1,0.1h0.4c0,0,0,0,0,0
			C139.1,79.2,138.2,79.2,137.4,79.3z M96.9,192.3H80.7c0,0,0,0,0,0c-1.1,0-1.9-0.9-1.9-1.9v-22.6c0-0.1,0.1-0.1,0.1-0.2
			c0-1.5,0-3-0.1-4.5c0,0,0,0,0,0v-3.6c3.3,0.7,6.6,1.1,9.9,1.1c0,0,0.1,0,0.1,0c0,0,0.1,0,0.1,0c3.4,0,6.7-0.4,9.9-1.1v3.6
			c0,0.1,0,0.1,0.1,0.1c0,1.5-0.1,2.9-0.1,4.4c0,0,0,0,0,0v22.7C98.8,191.4,98,192.3,96.9,192.3z M153.7,62.1
			C153.7,62.1,153.6,62.1,153.7,62.1c-1.5,15.6-3.4,32.2-7.3,48.8c-4.7,20-11.9,34.7-21.4,43.7c0,0,0,0,0,0
			c-6.9,6.5-15.5,10.9-24.7,12.7c0,0,0,0,0,0.1c-0.1,0-0.2,0-0.4,0.1c0-1.4,0-2.9,0.1-4.3c0-0.1,0-0.1-0.1-0.2v-0.3
			c0.9-0.2,1.9-0.4,2.9-0.7c0,0,0,0,0,0c0,0,0,0,0,0c0.2,0,0.3-0.1,0.5-0.1c0.1,0,0.1-0.1,0.1-0.2c0-0.1-0.1-0.1-0.1-0.1
			c0.1,0,0.1-0.1,0.1-0.1v-3.7c7.2-2.4,12.6-6.1,17.5-11.9c0,0,0,0,0,0c6.2-7.4,10.1-17.8,12.3-25.3c0,0,0,0,0,0
			c0.9-3.2,1.8-6.5,2.5-10.2c0.8-3.8,1.5-7.7,2.1-12c0.7-4.5,1.3-9.2,1.9-14.4c0.2-1.5,0.3-2.9,0.5-4.4h4.4c1.3,0,1.8-1.5,1.9-1.9
			c0.2-0.6,0.4-1.5,0-2c-0.2-0.3-0.5-0.4-0.9-0.4H141c-0.2,0-0.3,0-0.4,0c0.2-2.5,0.5-5.1,0.7-7.7c0,0,0,0,0,0c0.2-1.4,0.2-2.7,0-4
			c0,0,0,0,0,0c-0.3-2.4-1.3-4.8-2.9-6.8c-0.4-0.5-0.8-0.9-1.3-1.4c-0.4-0.4-0.9-0.8-1.4-1.2c-1.2-0.9-2.6-1.6-3.8-2.2
			c-5.1-2.5-10.2-4.5-15.5-6.1c-0.1,0-0.1,0-0.2,0.1v-0.2c0,0,0,0,0,0c0,0,0,0,0,0c0-0.8,0-1.7,0-2.5c0-0.8,0-1.7,0-2.5c0,0,0,0,0,0
			v-4.5c0,0,0,0,0,0c0-1.3-1.5-1.8-1.9-1.9c-0.6-0.2-1.5-0.4-2,0c-0.3,0.2-0.4,0.5-0.4,0.9c0,0,0,0,0,0v4.5c0,0,0,0,0,0
			c0,0.9,0,1.8,0,2.6c0,0.8,0,1.6,0,2.4c0,0,0,0,0,0v0c0-0.1,0-0.1-0.1-0.1c-7.6-1.8-15-2.7-22.9-2.7c0,0,0,0,0,0c0,0,0,0,0,0
			c-0.1,0-0.1,0-0.2,0c-7.7,0-15.2,0.9-22.7,2.7c-0.1,0-0.1,0.1-0.1,0.1v0c0,0,0,0,0,0c0-0.8,0-1.6,0-2.4c0-0.9,0-1.7,0-2.6
			c0,0,0,0,0,0v-4.5c0,0,0,0,0,0c0,0,0,0,0,0c0-0.4-0.1-0.7-0.4-0.9c-0.5-0.4-1.4-0.2-2,0c-0.5,0.1-1.9,0.6-1.9,1.9c0,0,0,0,0,0
			c0,1.5,0,3,0,4.5c0,0,0,0,0,0c0,0.8,0,1.7,0,2.5c0,0.8,0,1.7,0,2.5c0,0,0,0,0,0c0,0,0,0,0,0v0.1c0-0.1-0.1-0.1-0.2-0.1
			c-5.4,1.6-10.5,3.6-15.5,6.1c0,0,0,0,0,0c0,0,0,0,0,0c-1.4,0.7-3.1,1.6-4.6,2.9c-1.2,1-2.3,2.2-3.1,3.5c-0.8,1.3-1.4,2.7-1.6,4.2
			c-0.1,0.7-0.2,1.4-0.2,2.2c0,0.9,0,1.9,0.1,2.7c0,0,0,0,0,0c0.2,2.6,0.4,5.1,0.7,7.7h-3c0,0,0,0,0,0c-0.4,0-0.7,0.1-0.9,0.4
			c-0.4,0.5-0.2,1.4,0,2c0.1,0.5,0.6,1.9,1.9,1.9c0,0,0,0,0,0h2.4c0.9,8.8,2,17.7,3.6,26.6c1.9,10,4.1,17.9,7,25
			c3,7.2,6.5,12.7,10.6,17c2.1,2.2,4.5,4.1,7.1,5.7c2.5,1.5,5.3,2.9,8.3,3.9v3.7c0,0.1,0.1,0.1,0.1,0.1c0,0-0.1,0-0.1,0.1
			c0,0.1,0,0.1,0.1,0.2c0.1,0,0.2,0.1,0.3,0.1c0,0.1,0.1,0.1,0.1,0.1c1,0.3,2,0.5,3,0.7v0.4c0,0,0,0,0,0c0,0,0,0,0,0
			c0,1.4,0.1,2.9,0.1,4.3c-0.1,0-0.3-0.1-0.4-0.1c0,0,0-0.1,0-0.1c-9.2-1.8-17.8-6.2-24.7-12.6c0,0,0,0,0,0
			c-9.5-9-16.7-23.7-21.4-43.7c-3.9-16.6-5.8-33.3-7.3-48.9c0,0,0,0,0,0c0,0,0,0,0,0c-0.1-1.3-0.3-2.8-0.2-4.4
			c0-1.3,0.1-2.5,0.4-3.8c0.5-2.6,1.3-5,2.6-7.3c1.3-2.3,2.9-4.4,4.9-6.2c1.9-1.7,4.2-3.3,7.1-4.7c0,0,0,0,0,0
			c15.4-8,32.8-12,50.1-11.7c0,0,0,0,0,0s0,0,0,0c0.7,0,1.3,0,2,0c16.7,0,33.3,4,48.1,11.7c1.6,0.8,2.8,1.5,3.9,2.3
			c1.2,0.8,2.2,1.6,3.2,2.5c2,1.8,3.6,3.9,4.9,6.2c1.3,2.3,2.2,4.8,2.6,7.4C154,56.3,154,59,153.7,62.1z"/>
		<path class="st0" d="M141.2,477.6C141.2,477.6,141.2,477.6,141.2,477.6c-1.4-15.9-2.8-30.1-5.8-44.1c-2.5-11.3-5.5-19.9-9.7-27.1
			c-2.1-3.7-4.3-6.6-6.6-9.1c-2.4-2.5-5.3-4.7-8.5-6.6c-3.2-1.8-6.6-3.2-10.2-4.1c-3.6-0.9-7.5-1.4-11.5-1.4c0,0,0,0,0,0
			c-0.1,0-0.2,0-0.3,0c-7.7,0-15.2,1.9-21.5,5.6c-3.2,1.8-6,4-8.4,6.6c-2.4,2.5-4.5,5.5-6.6,9.1c-4.1,7.3-7.2,15.8-9.6,27
			c-1.3,5.8-2.3,12.1-3.3,19.5c-1,7.5-1.8,15.6-2.5,24.8c0,0,0,0,0,0c0,0,0,0,0,0c-0.2,1.9-0.1,3.5,0.1,4.9c0.3,1.5,0.8,2.9,1.7,4.3
			c0.8,1.3,1.8,2.5,3,3.5c0.6,0.5,1.2,1,1.9,1.4c0.9,0.6,1.9,1.1,2.7,1.5c0,0,0,0,0,0c0,0,0,0,0,0c5,2.5,10.1,4.5,15.5,6.1
			c0,0,0,0,0,0c0,0,0,0,0,0c0,0,0,0,0,0c0,0,0,0,0,0v4.6c0,0,0,0,0,0c0,0.2,0,0.4,0,0.6c0,0,0,0.1,0.1,0.1c0,0.1-0.1,0.1-0.1,0.2
			c0,0,0,0,0,0c0,0,0,0,0,0v4.2c0,0.1,0,0.1,0,0.2c0,0,0,0,0,0.1c0,0,0,0,0,0c0.2,1.2,1.6,1.7,2.1,1.8c0.6,0.2,1,0.3,1.4,0.3
			c0.3,0,0.6-0.1,0.8-0.2c0.3-0.2,0.4-0.5,0.4-0.9c0,0,0,0,0,0v-4.3c0,0,0-0.1-0.1-0.1c0,0-0.1,0-0.1,0.1v4c0,0-0.1,0-0.1-0.1v-4.3
			c0.1,0,0.1,0.1,0.1,0.2c0,0,0,0.1,0.1,0.1c0,0,0.1,0,0.1-0.1c0,0,0,0,0,0c0,0,0,0,0,0v-5.2c7.5,1.8,14.9,2.7,22.7,2.7
			c0,0,0.1,0,0.1,0s0.1,0,0.1,0c7.7,0,15.2-0.9,22.7-2.7v5.2c0,0,0,0,0,0c0,0,0,0.1,0.1,0.1c0,0,0.1,0,0.1-0.1c0,0,0,0,0,0
			c0,0,0,0,0,0v0c0-0.1,0-0.1,0.1-0.2v4.3c0,0-0.1,0-0.1,0.1v-4c0,0,0-0.1-0.1-0.1c0,0-0.1,0-0.1,0.1v4.3c0,0,0,0,0,0s0,0,0,0
			c0,0.4,0.1,0.7,0.4,0.9c0.2,0.1,0.5,0.2,0.8,0.2c0.4,0,0.8-0.1,1.4-0.3c0.8-0.3,1.9-0.7,2.1-1.8c0,0,0,0,0,0c0,0,0,0,0-0.1
			c0-0.1,0-0.1,0-0.2v-4.2c0,0,0,0,0,0c0,0,0,0,0,0c0-0.1,0-0.1-0.1-0.2c0,0,0.1,0,0.1-0.1c0-0.2,0-0.4,0-0.6c0,0,0,0,0,0v-4.6
			c0,0,0,0,0,0c0,0,0,0,0,0c0,0,0,0,0,0c0,0,0,0,0,0c5.4-1.6,10.4-3.6,15.5-6.1c0,0,0,0,0,0c0,0,0,0,0,0c1.4-0.7,3.1-1.6,4.6-2.9
			c1.2-1,2.3-2.2,3-3.5c0.8-1.3,1.4-2.7,1.6-4.2c0.1-0.7,0.2-1.5,0.2-2.2C141.3,479.4,141.2,478.6,141.2,477.6
			C141.2,477.6,141.2,477.6,141.2,477.6z M61.5,487.3C61.5,487.3,61.5,487.3,61.5,487.3c0.1,0,0.1,0,0.2,0c0,0,0,0,0,0v12
			c-0.1,0-0.1,0-0.2,0c0,0,0,0,0,0c0,0,0,0,0,0c0,0,0.1,0,0.1,0c0,0,0,0,0,0c0,0,0,0,0,0V487.3z M61.5,503.9v-4.5
			c0.1,0,0.1,0.1,0.2,0.1c0,0,0,0,0,0c0,0.8,0,1.6,0,2.4c0,0.8,0,1.6,0,2.5c-0.1,0-0.2,0-0.3,0C61.4,504.2,61.4,504.1,61.5,503.9
			C61.4,503.9,61.5,503.9,61.5,503.9z M61.4,504.7C61.4,504.7,61.5,504.7,61.4,504.7c0-0.1,0.1-0.2,0.1-0.2c0,0,0.1,0,0.2,0
			c0,1.5,0,2.9,0,4.4c-0.1,0-0.2,0-0.2,0L61.4,504.7C61.5,504.7,61.4,504.7,61.4,504.7z M61.8,508.9c0-1.5,0-3,0-4.5c0,0,0,0,0,0
			c0-0.8,0-1.7,0-2.5c0-0.8,0-1.7,0-2.5c0,0,0,0,0,0s0,0,0,0v-12.1c0-1.3,1-1.9,1.9-1.9c0.9,0,1.9,0.6,1.9,1.9v13.2c0,0,0,0,0,0
			c0,0,0,0,0,0c0,0.8,0,1.6,0,2.4c0,0.8,0,1.7,0,2.6c0,0,0,0,0,0v4.5c0,0.3-0.1,0.5-0.3,0.7c-0.5,0.3-1.4,0.1-1.7,0
			C62.9,510.3,61.9,509.9,61.8,508.9C61.9,508.9,61.8,508.9,61.8,508.9z M65.7,487.3C65.7,487.3,65.7,487.3,65.7,487.3
			c0.1,0,0.1,0,0.2,0v13c-0.1,0-0.1,0-0.2,0V487.3z M65.7,487.1c-0.1-1.3-1.1-2-2-2c-1,0-2,0.6-2,2c0,0,0,0,0,0c-0.1,0-0.1,0-0.1,0
			c0-1.5,1.2-2.2,2.2-2.2c1,0,2.2,0.7,2.2,2.2C65.8,487.1,65.7,487.1,65.7,487.1z M65.9,510.2C65.9,510.2,65.9,510.2,65.9,510.2
			c0,0.4-0.1,0.6-0.3,0.8c-0.4,0.3-1,0.2-2.1-0.1c-0.8-0.3-1.9-0.7-2-1.8c0-0.1,0-0.1,0.1-0.2c0,0,0.1,0,0.2,0
			c0.1,1.2,1.4,1.6,1.8,1.7c0.3,0.1,0.8,0.2,1.1,0.2c0.3,0,0.5-0.1,0.7-0.2c0.2-0.1,0.3-0.4,0.3-0.7C65.8,510,65.9,510.1,65.9,510.2
			z M65.8,505.4c0-0.8,0-1.7,0-2.5c0-0.8,0-1.5,0-2.3c0.1,0,0.1,0,0.2,0L65.8,505.4C65.8,505.4,65.8,505.4,65.8,505.4z M116.1,503.9
			c0,0.1,0,0.3,0,0.4c-0.1,0-0.2,0-0.3,0c0-0.8,0-1.6,0-2.5c0-0.8,0-1.6,0-2.4c0,0,0,0,0,0c0.1,0,0.1,0,0.2-0.1L116.1,503.9
			C116.1,503.9,116.1,503.9,116.1,503.9z M116.1,504.7v4.1c-0.1,0-0.2,0-0.3,0v-4.4c0.1,0,0.1,0,0.2,0
			C116.1,504.5,116.1,504.6,116.1,504.7C116.1,504.7,116.1,504.7,116.1,504.7C116.1,504.7,116.1,504.7,116.1,504.7z M111.7,487.3
			c0.1,0,0.1,0,0.2,0c0,0,0,0,0,0v13c-0.1,0-0.1,0-0.2,0V487.3z M111.9,505.4c0-0.9,0-1.7,0-2.6c0-0.8,0-1.6,0-2.4c0,0,0,0,0,0
			v-13.2c0-1.3,1-1.9,1.9-1.9c0.9,0,1.9,0.6,1.9,1.9v12.1c0,0,0,0,0,0s0,0,0,0c0,0.8,0,1.7,0,2.5c0,0.8,0,1.7,0,2.5c0,0,0,0,0,0v4.5
			c0,0,0,0,0,0c0,1-1,1.4-1.7,1.6c-0.3,0.1-1.3,0.4-1.7,0c-0.2-0.1-0.3-0.4-0.3-0.7c0,0,0,0,0,0L111.9,505.4
			C112,505.4,111.9,505.4,111.9,505.4z M116.2,499.2C116.2,499.2,116.2,499.2,116.2,499.2C116.2,499.2,116.2,499.2,116.2,499.2
			c-0.1,0-0.2,0-0.2,0v-12c0,0,0,0,0,0c0,0,0.1,0,0.1,0c0,0,0,0,0.1,0L116.2,499.2C116.1,499.2,116.1,499.2,116.2,499.2
			C116.1,499.2,116.1,499.2,116.2,499.2C116.1,499.2,116.2,499.2,116.2,499.2z M116,487.2C116,487.2,116,487.2,116,487.2
			c-0.1-1.4-1.1-2-2.1-2c-1,0-2,0.6-2,2c-0.1,0-0.1,0-0.2,0c0-1.5,1.2-2.2,2.2-2.2c1,0,2.2,0.7,2.2,2.2
			C116.1,487.2,116.1,487.2,116,487.2z M111.7,505.4v-4.9c0.1,0,0.1,0,0.2,0c0,0.8,0,1.6,0,2.3C111.8,503.6,111.8,504.5,111.7,505.4
			C111.8,505.4,111.7,505.4,111.7,505.4z M114.1,510.9c-1,0.3-1.7,0.3-2.1,0.1c-0.2-0.2-0.3-0.4-0.3-0.8c0,0,0,0,0,0s0,0,0,0
			c0-0.1,0-0.2,0.1-0.2c0,0.3,0.1,0.5,0.3,0.7c0.2,0.1,0.5,0.2,0.7,0.2c0.4,0,0.8-0.1,1.1-0.2c0.4-0.1,1.8-0.5,1.8-1.7
			c0.1,0,0.1,0,0.2,0c0,0,0,0.1,0.1,0.1C116,510.2,114.9,510.7,114.1,510.9z M140.9,482.5c-0.3,1.5-0.8,2.9-1.6,4.2
			c-0.8,1.3-1.8,2.5-3,3.5c-1.5,1.2-3.2,2.2-4.6,2.8c0,0,0,0,0,0c0,0,0,0,0,0c-5,2.5-10,4.5-15.4,6.1v-11.9c0-1.6-1.2-2.4-2.4-2.4
			s-2.3,0.7-2.4,2.4c0,0,0,0,0,0s0,0,0,0v13.2c-7.5,1.8-14.9,2.7-22.7,2.7c0,0-0.1,0-0.1,0c0,0-0.1,0-0.1,0
			c-7.8,0-15.2-0.9-22.7-2.7v-13.2c0,0,0,0,0,0c0-1.6-1.2-2.4-2.4-2.4s-2.3,0.7-2.4,2.4c0,0,0,0,0,0c0,0,0,0,0,0v11.9
			c-5.4-1.6-10.4-3.6-15.4-6.1c0,0,0,0,0,0c0,0,0,0,0,0c-0.8-0.4-1.7-0.9-2.7-1.5c-0.7-0.4-1.3-0.9-1.9-1.4c-1.2-1-2.2-2.2-3-3.5
			c-0.8-1.3-1.4-2.7-1.6-4.2c-0.3-1.4-0.3-3-0.1-4.9c0,0,0,0,0,0c0,0,0,0,0,0c0.7-9.2,1.6-17.3,2.5-24.8c1-7.3,2-13.7,3.3-19.5
			c2.4-11.1,5.5-19.7,9.6-27c2.1-3.6,4.2-6.6,6.6-9.1c2.4-2.5,5.2-4.7,8.4-6.5c6.4-3.6,13.8-5.6,21.5-5.6c0.1,0,0.2,0,0.3,0
			c0,0,0,0,0,0c4.1,0,7.9,0.5,11.5,1.4c3.6,0.9,7,2.3,10.2,4.1c3.2,1.8,6,4,8.5,6.6c2.4,2.5,4.5,5.4,6.6,9.1
			c4.1,7.2,7.2,15.8,9.6,27.1c3.1,14,4.4,28.3,5.8,44.1c0,0,0,0,0,0c0,0,0,0,0,0c0.1,1,0.1,1.8,0.1,2.7
			C141.1,481.1,141,481.8,140.9,482.5z"/>
		<path class="st0" d="M96.2,187.3c-0.2-0.2-0.6-0.3-0.9-0.3c0,0,0,0,0,0h-13c0,0,0,0,0,0c-0.3-0.1-0.6,0-0.9,0.3
			c-0.2,0.2-0.4,0.5-0.3,0.9c0,0,0,0,0,0c0,0,0,0,0,0c0,0,0,0,0,0l0,0c0,0.3,0.1,0.6,0.3,0.9c0.2,0.2,0.4,0.3,0.7,0.3
			c0.1,0,0.1,0,0.2,0c0,0,0,0,0,0h13c0,0,0,0,0,0c0.1,0,0.1,0,0.2,0c0.2,0,0.5-0.1,0.7-0.3c0.2-0.2,0.4-0.5,0.3-0.9c0,0,0,0,0,0
			C96.5,187.8,96.4,187.5,96.2,187.3z M96.1,188.9c-0.2,0.2-0.5,0.3-0.7,0.2c0,0,0,0,0,0c0,0,0,0,0,0h-13c0,0,0,0,0,0c0,0,0,0,0,0
			c-0.3,0.1-0.6,0-0.8-0.2c-0.2-0.2-0.3-0.5-0.3-0.7c0,0,0,0,0,0c0,0,0,0,0,0c0-0.3,0.1-0.6,0.3-0.7c0.2-0.2,0.5-0.3,0.8-0.2
			c0,0,0,0,0,0c0,0,0,0,0,0h13c0,0,0,0,0,0c0,0,0,0,0,0c0.3,0,0.6,0,0.8,0.2c0.2,0.2,0.3,0.5,0.3,0.7c0,0,0,0,0,0c0,0,0,0,0,0
			C96.4,188.5,96.3,188.7,96.1,188.9z"/>
		<path class="st0" d="M96.2,181.6c-0.2-0.2-0.6-0.3-0.9-0.3c0,0,0,0,0,0h-13c0,0,0,0,0,0c-0.3-0.1-0.6,0-0.9,0.3
			c-0.2,0.2-0.4,0.5-0.3,0.9c0,0,0,0,0,0c0,0,0,0,0,0c0,0,0,0,0,0l0,0c0,0.3,0.1,0.6,0.3,0.9c0.2,0.2,0.4,0.3,0.7,0.3
			c0.1,0,0.1,0,0.2,0c0,0,0,0,0,0h13c0,0,0,0,0,0c0.1,0,0.1,0,0.2,0c0.2,0,0.5-0.1,0.7-0.3c0.2-0.2,0.4-0.5,0.3-0.9c0,0,0,0,0,0
			C96.5,182.1,96.4,181.8,96.2,181.6z M96.1,183.2c-0.2,0.2-0.5,0.3-0.7,0.2c0,0,0,0,0,0c0,0,0,0,0,0h-13c0,0,0,0,0,0c0,0,0,0,0,0
			c-0.3,0.1-0.6,0-0.8-0.2c-0.2-0.2-0.3-0.5-0.3-0.7c0,0,0,0,0,0c0,0,0,0,0,0c0-0.3,0.1-0.6,0.3-0.7c0.2-0.2,0.5-0.3,0.8-0.2
			c0,0,0,0,0,0c0,0,0,0,0,0h13c0,0,0,0,0,0c0,0,0,0,0,0c0.3,0,0.6,0,0.8,0.2c0.2,0.2,0.3,0.5,0.3,0.7c0,0,0,0,0,0c0,0,0,0,0,0
			C96.4,182.7,96.3,183,96.1,183.2z"/>
		<path class="st0" d="M96.5,176.7C96.5,176.7,96.5,176.7,96.5,176.7c0-0.3-0.1-0.6-0.3-0.8c-0.2-0.2-0.6-0.3-0.9-0.3c0,0,0,0,0,0
			h-13c0,0,0,0,0,0c-0.3-0.1-0.6,0-0.9,0.3c-0.2,0.2-0.4,0.5-0.3,0.9c0,0,0,0,0,0c0,0,0,0,0,0c0,0,0,0,0,0c0,0,0,0,0,0
			c0,0.3,0.1,0.6,0.3,0.9c0.2,0.2,0.4,0.3,0.7,0.3c0.1,0,0.1,0,0.2,0c0,0,0,0,0,0h13c0,0,0,0,0,0c0.1,0,0.1,0,0.2,0
			c0.3,0,0.5-0.1,0.7-0.3C96.4,177.4,96.5,177.1,96.5,176.7C96.5,176.7,96.5,176.7,96.5,176.7C96.5,176.7,96.5,176.7,96.5,176.7
			C96.5,176.7,96.5,176.7,96.5,176.7z M96.1,177.5c-0.2,0.2-0.5,0.3-0.8,0.2c0,0,0,0,0,0c0,0,0,0,0,0h-13c0,0,0,0,0,0c0,0,0,0,0,0
			c-0.3,0.1-0.6,0-0.8-0.2c-0.2-0.2-0.3-0.5-0.3-0.7c0,0,0,0,0,0c0,0,0,0,0,0c0-0.3,0.1-0.6,0.3-0.7c0.2-0.2,0.5-0.3,0.8-0.2
			c0,0,0,0,0,0c0,0,0,0,0,0h13c0,0,0,0,0,0c0,0,0,0,0,0c0.3,0,0.6,0,0.8,0.2c0.2,0.2,0.3,0.5,0.3,0.7c0,0,0,0,0,0c0,0,0,0,0,0
			C96.4,177,96.3,177.3,96.1,177.5z"/>
		<path class="st0" d="M238.1,375.2v-11.4c0,0,0,0,0,0c0-3.3-2.7-6.1-6.1-6.1c0,0,0,0,0,0h-28.5c0,0,0,0,0,0c-3.3,0-6.1,2.7-6.1,6.1
			v11.4c0,0,0,0,0,0c0,3.3,2.7,6.1,6.1,6.1c0,0,0,0,0,0H232C235.4,381.2,238.1,378.5,238.1,375.2
			C238.1,375.2,238.1,375.2,238.1,375.2z M232,380.2h-28.6c0,0,0,0,0,0c-2.8,0-5-2.3-5-5v-11.4c0-2.8,2.2-5,5-5c0,0,0,0,0,0H232
			c0,0,0,0,0,0c2.8,0,5,2.3,5,5v11.4c0,0,0,0,0,0C237,377.9,234.8,380.2,232,380.2z"/>
		<path class="st0" d="M238.1,470C238.1,470,238.1,470,238.1,470c0-3.3-2.7-6.1-6.1-6.1c0,0,0,0,0,0h-28.5c0,0,0,0,0,0
			c-3.3,0-6.1,2.7-6.1,6.1v11.4c0,0,0,0,0,0c0,3.3,2.7,6.1,6.1,6.1c0,0,0,0,0,0H232c3.3,0,6.1-2.7,6.1-6.1c0,0,0,0,0,0V470z
			 M232,486.4h-28.6c0,0,0,0,0,0c-2.8,0-5-2.3-5-5V470c0-2.8,2.2-5,5-5c0,0,0,0,0,0H232c0,0,0,0,0,0c2.8,0,5,2.3,5,5v11.4
			c0,0,0,0,0,0C237,484.1,234.8,486.4,232,486.4z"/>
		<path class="st0" d="M291.8,481.4V470c0,0,0,0,0,0c0-3.3-2.7-6.1-6.1-6.1c0,0,0,0,0,0h-28.5c0,0,0,0,0,0c-3.3,0-6.1,2.7-6.1,6.1
			v11.4c0,0,0,0,0,0c0,3.3,2.7,6.1,6.1,6.1c0,0,0,0,0,0h28.5C289,487.4,291.8,484.7,291.8,481.4
			C291.8,481.4,291.8,481.4,291.8,481.4z M285.7,486.4h-28.6c0,0,0,0,0,0c-2.8,0-5-2.3-5-5V470c0-2.8,2.2-5,5-5c0,0,0,0,0,0h28.6
			c0,0,0,0,0,0c2.8,0,5,2.3,5,5v11.4c0,0,0,0,0,0C290.7,484.1,288.5,486.4,285.7,486.4z"/>
		<path class="st0" d="M310.8,487.5C310.8,487.5,310.8,487.4,310.8,487.5l28.6,0c3.3,0,6.1-2.7,6.1-6.1c0,0,0,0,0,0V470c0,0,0,0,0,0
			c0-3.3-2.7-6.1-6.1-6.1c0,0,0,0,0,0h-28.5c0,0,0,0,0,0c-3.3,0-6.1,2.7-6.1,6.1v11.4c0,0,0,0,0,0
			C304.8,484.7,307.5,487.5,310.8,487.5z M310.8,464.9C310.8,464.9,310.8,464.9,310.8,464.9l28.6,0c0,0,0,0,0,0c2.8,0,5,2.2,5,5
			v11.4c0,0,0,0,0,0c0,2.8-2.2,5-5,5h-28.6c0,0,0,0,0,0c-2.8,0-5-2.3-5-5V470C305.8,467.2,308.1,464.9,310.8,464.9z"/>
		<path class="st0" d="M238.1,446v-11.4c0,0,0,0,0,0c0-3.3-2.7-6.1-6.1-6.1c0,0,0,0,0,0h-28.5c0,0,0,0,0,0c-3.3,0-6.1,2.7-6.1,6.1
			V446c0,0,0,0,0,0c0,3.3,2.7,6.1,6.1,6.1c0,0,0,0,0,0H232C235.4,452,238.1,449.3,238.1,446C238.1,446,238.1,446,238.1,446z
			 M232,451h-28.6c0,0,0,0,0,0c-2.8,0-5-2.3-5-5v-11.4c0-2.8,2.2-5,5-5c0,0,0,0,0,0H232c0,0,0,0,0,0c2.8,0,5,2.3,5,5V446
			c0,0,0,0,0,0C237,448.7,234.8,451,232,451z"/>
		<path class="st0" d="M257.2,452C257.2,452,257.2,452,257.2,452l28.6,0c3.3,0,6.1-2.7,6.1-6.1c0,0,0,0,0,0v-11.4c0,0,0,0,0,0
			c0-3.3-2.7-6.1-6.1-6.1c0,0,0,0,0,0h-28.5c0,0,0,0,0,0c-3.3,0-6.1,2.7-6.1,6.1V446c0,0,0,0,0,0C251.1,449.3,253.8,452,257.2,452z
			 M257.1,429.5C257.1,429.5,257.1,429.5,257.1,429.5l28.6,0c0,0,0,0,0,0c2.8,0,5,2.3,5,5V446c0,0,0,0,0,0c0,2.8-2.3,5-5,5h-28.6
			c0,0,0,0,0,0c-2.8,0-5-2.3-5-5v-11.4C252.1,431.8,254.4,429.5,257.1,429.5z"/>
		<path class="st0" d="M345.4,434.6C345.4,434.5,345.4,434.5,345.4,434.6c0-3.3-2.7-6.1-6.1-6.1c0,0,0,0,0,0h-28.5c0,0,0,0,0,0
			c-3.3,0-6.1,2.7-6.1,6.1V446c0,0,0,0,0,0c0,3.3,2.7,6.1,6.1,6.1c0,0,0,0,0,0h28.5c3.3,0,6.1-2.7,6.1-6.1c0,0,0,0,0,0V434.6z
			 M339.4,451h-28.6c0,0,0,0,0,0c-2.8,0-5-2.3-5-5v-11.4c0-2.8,2.2-5,5-5c0,0,0,0,0,0h28.6c0,0,0,0,0,0c2.8,0,5,2.3,5,5V446
			c0,0,0,0,0,0C344.4,448.7,342.1,451,339.4,451z"/>
		<path class="st0" d="M238.1,410.6v-11.4c0,0,0,0,0,0c0-3.3-2.7-6-6.1-6.1c0,0,0,0,0,0h-28.6c0,0,0,0,0,0c-3.3,0-6.1,2.7-6.1,6.1
			v11.4c0,0,0,0,0,0c0,3.3,2.7,6.1,6.1,6.1c0,0,0,0,0,0H232C235.4,416.6,238.1,413.9,238.1,410.6
			C238.1,410.6,238.1,410.6,238.1,410.6z M232,415.6h-28.6c0,0,0,0,0,0c-2.8,0-5-2.3-5-5v-11.4c0-2.8,2.2-5,5-5c0,0,0,0,0,0H232
			c0,0,0,0,0,0c2.8,0,5,2.2,5,5v11.4c0,0,0,0,0,0C237,413.3,234.8,415.6,232,415.6z"/>
		<path class="st0" d="M291.8,410.6v-11.4c0,0,0,0,0,0c0-3.3-2.7-6-6.1-6.1c0,0,0,0,0,0h-28.6c0,0,0,0,0,0c-3.3,0-6.1,2.7-6.1,6.1
			v11.4c0,0,0,0,0,0c0,3.3,2.7,6.1,6.1,6.1c0,0,0,0,0,0h28.5C289,416.6,291.8,413.9,291.8,410.6
			C291.8,410.6,291.8,410.6,291.8,410.6z M285.7,415.6h-28.6c0,0,0,0,0,0c-2.8,0-5-2.3-5-5v-11.4c0-2.8,2.2-5,5-5c0,0,0,0,0,0h28.5
			c0,0,0,0,0,0c2.8,0,5,2.2,5,5v11.4c0,0,0,0,0,0C290.7,413.3,288.5,415.6,285.7,415.6z"/>
		<path class="st0" d="M345.4,399.1C345.4,399.1,345.4,399.1,345.4,399.1c0-3.3-2.7-6.1-6.1-6.1c0,0,0,0,0,0h-28.6c0,0,0,0,0,0
			c-3.3,0-6.1,2.7-6.1,6.1v11.4c0,0,0,0,0,0c0,3.3,2.7,6.1,6.1,6.1c0,0,0,0,0,0h28.5c3.3,0,6.1-2.7,6.1-6.1c0,0,0,0,0,0V399.1z
			 M339.4,415.6h-28.6c0,0,0,0,0,0c-2.8,0-5-2.3-5-5v-11.4c0-2.8,2.2-5,5-5c0,0,0,0,0,0h28.5c0,0,0,0,0,0c2.8,0,5,2.2,5,5v11.4
			c0,0,0,0,0,0C344.4,413.3,342.1,415.6,339.4,415.6z"/>
		<path class="st0" d="M345.4,363.7C345.4,363.7,345.4,363.7,345.4,363.7c0-3.3-2.7-6.1-6.1-6.1c0,0,0,0,0,0h-28.5c0,0,0,0,0,0
			c-3.3,0-6.1,2.7-6.1,6.1v11.4c0,0,0,0,0,0c0,3.3,2.7,6.1,6.1,6.1c0,0,0,0,0,0h28.5c3.3,0,6.1-2.7,6.1-6.1c0,0,0,0,0,0V363.7z
			 M339.4,380.2h-28.6c0,0,0,0,0,0c-2.8,0-5-2.3-5-5v-11.4c0-2.8,2.2-5,5-5c0,0,0,0,0,0h28.6c0,0,0,0,0,0c2.8,0,5,2.2,5,5v11.4
			c0,0,0,0,0,0C344.4,377.9,342.1,380.2,339.4,380.2z"/>
		<path class="st0" d="M291.8,375.2v-11.4c0,0,0,0,0,0c0-3.3-2.7-6.1-6.1-6.1c0,0,0,0,0,0h-28.5c0,0,0,0,0,0c-3.3,0-6.1,2.7-6.1,6.1
			v11.4c0,0,0,0,0,0c0,3.3,2.7,6.1,6.1,6.1c0,0,0,0,0,0h28.5C289,381.2,291.8,378.5,291.8,375.2
			C291.8,375.2,291.8,375.2,291.8,375.2z M285.7,380.2h-28.6c0,0,0,0,0,0c-2.8,0-5-2.3-5-5v-11.4c0-2.8,2.2-5,5-5c0,0,0,0,0,0h28.6
			c0,0,0,0,0,0c2.8,0,5,2.3,5,5v11.4c0,0,0,0,0,0C290.7,377.9,288.5,380.2,285.7,380.2z"/>
		<rect x="233.1" y="514.8" class="st0" width="1.1" height="0.3"/>
		<rect x="235.4" y="514.5" class="st0" width="1.1" height="0.7"/>
		<rect x="237.7" y="514.2" class="st0" width="1.1" height="1"/>
		<rect x="240" y="513.8" class="st0" width="1.1" height="1.3"/>
		<rect x="242.3" y="513.5" class="st0" width="1.1" height="1.7"/>
		<rect x="244.5" y="513.2" class="st0" width="1.1" height="2"/>
		<rect x="246.8" y="512.8" class="st0" width="1.1" height="2.4"/>
		<rect x="249.1" y="512.5" class="st0" width="1.1" height="2.7"/>
		<rect x="251.4" y="512.2" class="st0" width="1.1" height="3"/>
		<rect x="253.7" y="511.8" class="st0" width="1.1" height="3.4"/>
		<rect x="256" y="511.5" class="st0" width="1.1" height="3.7"/>
		<rect x="258.3" y="511.1" class="st0" width="1.1" height="4"/>
		<rect x="260.5" y="510.8" class="st0" width="1.1" height="4.4"/>
		<rect x="262.8" y="510.5" class="st0" width="1.1" height="4.7"/>
		<rect x="265.1" y="510.1" class="st0" width="1.1" height="5"/>
		<rect x="267.4" y="509.8" class="st0" width="1.1" height="5.4"/>
		<rect x="269.7" y="509.5" class="st0" width="1.1" height="5.7"/>
		<polygon class="st0" points="261.9,480.2 258.5,480.2 258.5,479.4 257.9,479.4 257.9,480.8 262.5,480.8 262.5,479.4 261.9,479.4
					"/>
		<rect x="265.9" y="480.2" class="st0" width="4.6" height="0.6"/>
		<path class="st0" d="M225,365.4v1.1h3v8.2h1.4v-11.4h-1.1C228,365,226.6,365.4,225,365.4z"/>
		<path class="st0" d="M230.4,398.6h-1.1l-5.2,7.4v1.3h5v2.7h1.3v-2.7h1.5v-1.2h-1.5V398.6z M229.1,406.1h-3.8l3.8-5.6h0V406.1z"/>
		<path class="st0" d="M224.4,435.4h6c-2.4,2.5-4.3,6.1-4.5,9.9h1.5c0.2-3.6,2.1-7.8,4.4-10.1v-1.2h-7.4V435.4z"/>
		<path class="st0" d="M282.4,370.5c1.4-0.9,2.8-1.9,2.8-3.9c0-2.1-1.6-3.3-3.6-3.3c-2.4,0-3.8,1.7-3.7,4h1.4
			c-0.1-1.4,0.6-2.8,2.2-2.8c1.2,0,2.2,0.8,2.2,2.1c0,1.6-1,2.3-2.9,3.5c-1.6,1-3,2-3.2,4.7h7.5v-1.2h-5.9
			C279.4,372.1,280.9,371.3,282.4,370.5z"/>
		<path class="st0" d="M281.7,402.5c-0.8,0-1.6,0.3-2.1,0.8l0,0l0.6-3.3h4.6v-1.2h-5.6l-1.1,5.9l1.2,0.1c0.5-0.6,1.3-1.1,2.1-1.1
			c1.5,0,2.6,1.1,2.6,2.6c0,1.8-1.1,2.7-2.4,2.7c-1.4,0-2.3-0.9-2.4-2.1h-1.4c0,2.1,1.7,3.3,3.6,3.3c2.7,0,4-1.9,4-3.8
			C285.4,403.8,283.8,402.5,281.7,402.5z"/>
		<path class="st0" d="M277.8,442.1c0,2.3,1.7,3.5,3.9,3.5c2.1,0,3.8-1.3,3.8-3.5c0-1.4-0.7-2.4-2-2.9c0.9-0.4,1.6-1.4,1.6-2.4
			c0-1.5-1-2.9-3.5-2.9c-1.8,0-3.4,1-3.4,2.9c0,1,0.6,2,1.6,2.4C278.5,439.7,277.8,440.8,277.8,442.1z M279.6,436.9
			c0-1.1,0.9-1.8,2-1.8c1.1,0,1.9,0.6,1.9,1.8c0,1.2-0.8,1.8-1.9,1.8C280.6,438.8,279.6,438.2,279.6,436.9z M281.7,440
			c1.3,0,2.3,0.9,2.3,2.2c0,1.3-1,2.2-2.3,2.2c-1.4,0-2.4-0.8-2.4-2.2C279.2,440.8,280.3,440,281.7,440z"/>
		<path class="st0" d="M337.1,368.6L337.1,368.6c0.9-0.4,1.6-1.3,1.6-2.3c0-2.1-1.5-3.1-3.5-3.1c-2.3,0-3.4,1.5-3.5,3.7h1.4
			c0-1.3,0.7-2.5,2.2-2.5c1.2,0,2,0.6,2,1.8c0,1.2-1,1.9-2.2,1.9c-0.2,0-0.4,0-0.6,0v1.2c0.3,0,0.5,0,0.8,0c1.4,0,2.4,0.8,2.4,2.2
			c0,1.4-1.1,2.2-2.5,2.2c-1.6,0-2.4-1-2.4-2.5h-1.4c0,2.4,1.5,3.7,3.8,3.7c2.1,0,3.9-1.2,3.9-3.5
			C339.2,370,338.5,368.9,337.1,368.6z"/>
		<path class="st0" d="M335.9,402.7c-1.2,0-2.2,0.4-2.9,1.5l0,0c0.1-1.8,0.4-4.3,2.8-4.3c1.1,0,1.8,0.7,1.9,1.7h1.4
			c-0.2-1.9-1.3-2.9-3.2-2.9c-3.2,0-4.2,3-4.2,6.1c0,2.4,0.5,5.5,3.9,5.5c2.9,0,3.8-2.2,3.8-3.8
			C339.4,404.2,338.1,402.7,335.9,402.7z M335.6,409c-1.5,0-2.4-1.1-2.4-2.5c0-1.4,0.8-2.6,2.4-2.6c1.6,0,2.3,1.2,2.3,2.6
			C337.9,407.8,337.1,409,335.6,409z"/>
		<path class="st0" d="M335.2,434c-2.2,0-3.8,1.5-3.8,3.7c0,2.3,1.3,3.8,3.6,3.8c1.1,0,2.1-0.6,2.6-1.6l0,0c-0.1,3-0.9,4.4-2.6,4.4
			c-1.1,0-2-0.6-2.1-1.7h-1.4c0.2,2,1.5,2.9,3.5,2.9c2.8,0,4-2.2,4-6.2C339.2,435.1,337.4,434,335.2,434z M335.2,440.3
			c-1.3,0-2.3-1.2-2.3-2.4c0-1.4,0.6-2.7,2.2-2.7c1.5,0,2.4,1.2,2.4,2.6C337.5,439.1,336.6,440.3,335.2,440.3z"/>
		<path class="st0" d="M281.6,469.4c-3.6,0-3.8,3.3-3.8,5.8c0,2.5,0.2,5.8,3.8,5.8c3.6,0,3.8-3.3,3.8-5.8
			C285.4,472.7,285.2,469.4,281.6,469.4z M281.6,479.9c-2.3,0-2.4-2.9-2.4-4.6c0-1.7,0-4.6,2.4-4.6c2.3,0,2.4,2.9,2.4,4.6
			C284,476.9,284,479.9,281.6,479.9z"/>
		<path class="st0" d="M332.6,480.9h1.1l0.5-3.3h2l-0.5,3.3h1.1l0.5-3.3h1.6v-1.1h-1.5l0.3-2.4h1.6v-1.1h-1.4l0.5-3.3h-1.1l-0.5,3.3
			h-2l0.5-3.3h-1.1l-0.5,3.3h-1.8v1.1h1.6l-0.3,2.4h-1.7v1.1h1.6L332.6,480.9z M334.7,474h2l-0.3,2.4h-2L334.7,474z"/>
		<path class="st0" d="M259.7,370.9l-1.5,3.7h0.5l0.4-1.1h1.6l0.4,1.1h0.5l-1.5-3.7H259.7z M259.3,373.1l0.6-1.7h0l0.6,1.7H259.3z"
			/>
		<path class="st0" d="M264.7,372.7L264.7,372.7c0.4-0.2,0.6-0.5,0.6-0.9c0-0.4-0.2-0.6-0.4-0.8c-0.2-0.1-0.7-0.1-1-0.1h-1.4v3.7
			h1.8c0.7,0,1.1-0.5,1.1-1.1C265.4,373.1,265.2,372.8,264.7,372.7z M263,371.3h1c0.4,0,0.8,0.1,0.8,0.6c0,0.4-0.2,0.6-0.8,0.6h-1
			V371.3z M264.2,374.2H263v-1.3h1.1c0.4,0,0.8,0.1,0.8,0.6C264.9,374,264.7,374.2,264.2,374.2z"/>
		<path class="st0" d="M268,374.3c-0.9,0-1.3-0.7-1.3-1.6c0-0.8,0.4-1.5,1.3-1.5c0.5,0,0.9,0.3,1,0.8h0.5c-0.1-0.8-0.8-1.2-1.5-1.2
			c-1.2,0-1.8,0.9-1.8,2c0,1.1,0.6,1.9,1.7,1.9c0.9,0,1.5-0.6,1.6-1.5h-0.5C269.1,373.9,268.7,374.3,268,374.3z"/>
		<path class="st0" d="M313.8,370.9h-1.3v3.7h1.3c1.3,0,1.8-0.7,1.8-2C315.6,371.5,314.9,370.9,313.8,370.9z M313.8,374.2H313v-2.9
			h0.8c0.9,0,1.3,0.5,1.3,1.4C315.1,374.1,314.2,374.2,313.8,374.2z"/>
		<polygon class="st0" points="317.1,372.9 319,372.9 319,372.5 317.1,372.5 317.1,371.3 319.2,371.3 319.2,370.9 316.6,370.9
			316.6,374.6 319.2,374.6 319.2,374.2 317.1,374.2 		"/>
		<polygon class="st0" points="320.2,374.6 320.7,374.6 320.7,372.9 322.4,372.9 322.4,372.5 320.7,372.5 320.7,371.3 322.6,371.3
			322.6,370.9 320.2,370.9 		"/>
		<path class="st0" d="M260.9,409c0,0.4-0.1,0.7-0.6,0.7c-0.5,0-0.6-0.3-0.6-0.7v-0.2h-0.5v0.2c0,0.7,0.4,1.1,1.1,1.1
			c0.8,0,1.1-0.5,1.1-1v-2.8h-0.5V409z"/>
		<polygon class="st0" points="265.7,406.3 265,406.3 263.1,408.1 263.1,406.3 262.6,406.3 262.6,410 263.1,410 263.1,408.7
			263.7,408.1 265.1,410 265.7,410 264.1,407.8 		"/>
		<polygon class="st0" points="267,406.3 266.5,406.3 266.5,410 269,410 269,409.6 267,409.6 		"/>
		<path class="st0" d="M207,408.5h1.2c0,0.7-0.4,1.2-1.2,1.2c-0.8,0-1.3-0.7-1.3-1.5c0-0.8,0.4-1.6,1.3-1.6c0.6,0,1,0.3,1.1,0.8h0.5
			c-0.1-0.9-0.8-1.2-1.6-1.2c-1.2,0-1.8,0.9-1.8,2c0,1,0.7,1.9,1.8,1.9c0.4,0,0.9-0.2,1.2-0.6l0.1,0.5h0.3v-2H207V408.5z"/>
		<polygon class="st0" points="212.3,407.9 210.3,407.9 210.3,406.3 209.8,406.3 209.8,410 210.3,410 210.3,408.3 212.3,408.3
			212.3,410 212.8,410 212.8,406.3 212.3,406.3 		"/>
		<rect x="214" y="406.3" class="st0" width="0.5" height="3.7"/>
		<polygon class="st0" points="313.2,409.4 312,406.3 311.3,406.3 311.3,410 311.8,410 311.8,406.9 311.8,406.9 312.9,410
			313.4,410 314.5,406.9 314.5,406.9 314.5,410 315,410 315,406.3 314.3,406.3 		"/>
		<polygon class="st0" points="318.7,409.3 318.7,409.3 316.8,406.3 316.2,406.3 316.2,410 316.7,410 316.7,407 316.7,407
			318.7,410 319.2,410 319.2,406.3 318.7,406.3 		"/>
		<path class="st0" d="M322,406.2c-1.2,0-1.8,0.9-1.8,2c0,1,0.6,2,1.8,2c1.2,0,1.8-0.9,1.8-2C323.8,407.1,323.2,406.2,322,406.2z
			 M322,409.7c-0.9,0-1.3-0.8-1.3-1.5c0-0.8,0.4-1.5,1.3-1.5c0.9,0,1.3,0.8,1.3,1.5C323.3,408.9,322.9,409.7,322,409.7z"/>
		<path class="st0" d="M204.5,441.7h-1.6v3.7h0.5v-1.5h1.1c0.7,0,1.1-0.4,1.1-1.1C205.7,442.1,205.3,441.7,204.5,441.7z
			 M204.4,443.4h-1v-1.4h1c0.6,0,0.8,0.2,0.8,0.7C205.2,443.2,204.9,443.5,204.4,443.4z"/>
		<path class="st0" d="M208.2,441.6c-1.2,0-1.8,0.9-1.8,2c0,1,0.6,2,1.8,2c0.4,0,0.6-0.1,0.9-0.2l0.6,0.5l0.3-0.3l-0.5-0.4
			c0.4-0.4,0.6-0.9,0.6-1.5C210,442.5,209.4,441.6,208.2,441.6z M209.1,444.7l-0.5-0.4l-0.3,0.3l0.4,0.3c-0.2,0.1-0.3,0.1-0.5,0.1
			c-0.9,0-1.3-0.8-1.3-1.5c0-0.8,0.4-1.5,1.3-1.5c0.9,0,1.3,0.8,1.3,1.5C209.5,444,209.4,444.4,209.1,444.7z"/>
		<path class="st0" d="M213.3,443.6L213.3,443.6c0.4-0.1,0.6-0.5,0.6-1c0-0.6-0.4-1-1.1-1H211v3.7h0.5v-1.6h1.2
			c0.5,0,0.6,0.3,0.6,0.7c0.1,0.4,0,0.8,0.1,0.9h0.5c-0.2-0.3-0.2-0.7-0.2-1C213.8,444,213.7,443.7,213.3,443.6z M212.6,443.4h-1
			v-1.3h1.2c0.5,0,0.7,0.3,0.7,0.6C213.4,443.3,213,443.4,212.6,443.4z"/>
		<path class="st0" d="M216.6,443.3c-0.6-0.1-1.2-0.2-1.2-0.7c0-0.5,0.4-0.6,0.8-0.6c0.5,0,0.9,0.2,0.9,0.8h0.5
			c0-0.8-0.6-1.2-1.4-1.2c-0.7,0-1.4,0.3-1.4,1.1c0,0.7,0.6,0.9,1.2,1c0.6,0.1,1.2,0.2,1.2,0.7c0,0.5-0.5,0.7-0.9,0.7
			c-0.6,0-1.1-0.3-1.1-0.9h-0.5c0,0.9,0.7,1.3,1.5,1.3c0.7,0,1.5-0.3,1.5-1.1C217.8,443.6,217.2,443.4,216.6,443.3z"/>
		<polygon class="st0" points="313,444.8 313,444.8 312.2,441.7 311.7,441.7 310.8,444.8 310.8,444.8 310.1,441.7 309.6,441.7
			310.5,445.4 311.1,445.4 311.9,442.2 311.9,442.2 312.8,445.4 313.3,445.4 314.3,441.7 313.8,441.7 		"/>
		<polygon class="st0" points="317.9,441.7 317.3,441.7 316.4,443.1 315.4,441.7 314.8,441.7 316.1,443.5 314.8,445.4 315.3,445.4
			316.4,443.8 317.4,445.4 318,445.4 316.6,443.5 		"/>
		<polygon class="st0" points="320.1,443.4 319,441.7 318.4,441.7 319.8,443.9 319.8,445.4 320.3,445.4 320.3,443.9 321.7,441.7
			321.2,441.7 		"/>
		<polygon class="st0" points="325.2,442.1 325.2,441.6 322.4,441.6 322.4,442.1 324.6,442.1 322.3,445 322.3,445.4 325.2,445.4
			325.2,445 322.8,445 		"/>
		<polygon class="st0" points="259.9,445.4 260.4,445.4 260.4,442.1 261.7,442.1 261.7,441.7 258.7,441.7 258.7,442.1 259.9,442.1
					"/>
		<path class="st0" d="M264,445.5c0.9,0,1.5-0.5,1.5-1.4v-2.4H265v2.4c0,0.7-0.4,1-1,1c-0.7,0-1-0.4-1-1v-2.4h-0.5v2.4
			C262.5,445,263,445.5,264,445.5z"/>
		<polygon class="st0" points="268.1,445.4 269.5,441.7 268.9,441.7 267.9,444.9 267.8,444.9 266.8,441.7 266.2,441.7 267.6,445.4
					"/>
		<path class="st0" d="M380.5,359.8c-2.1,0-3.9,1.7-3.9,3.9c0,2.2,1.7,3.9,3.9,3.9c2.1,0,3.9-1.7,3.9-3.9
			C384.4,361.5,382.7,359.8,380.5,359.8z M383.7,364.5h-6.3v-1.6h6.3V364.5z"/>
		<path class="st0" d="M410.7,331.6C410.6,331.6,410.6,331.6,410.7,331.6c-0.1,0.1,0,0.1,0,0.1h0.3c0,0,0.1,0,0.1-0.1s0-0.1-0.1-0.1
			H410.7z"/>
		<path class="st0" d="M410,268.4L410,268.4c0,0.1,0,0.2,0.1,0.2s0.1,0,0.1-0.1v-0.1C410.2,268.4,410.2,268.4,410,268.4
			C410.1,268.4,410,268.4,410,268.4z"/>
		<path class="st0" d="M203.8,512.4c0.1,0,0.1,0,0.1-0.1v-1.1c0-0.1,0-0.1-0.1-0.1h-0.5c0,0-0.1,0-0.1,0.1v0.8c0,0,0,0,0,0.1
			C203.5,512.1,203.7,512.3,203.8,512.4z"/>
		<path class="st0" d="M201.7,515.1c0.7-0.1,1.2-0.3,1.6-0.9c0,0,0-0.1,0-0.1c-0.1-0.1-0.2-0.2-0.4-0.3c0,0-0.1,0-0.1,0
			c-1.3,1.4-3.6,0.5-3.6-1.4v-1.3c0-0.1,0-0.1-0.1-0.1h-0.5c0,0-0.1,0-0.1,0.1v1.3c0,1.3,1,2.4,2.3,2.6c0,0,0.1,0,0.1,0.1v0.3
			c0,0,0,0.1-0.1,0.1h-1.4c0,0-0.1,0-0.1,0.1v0.5c0,0,0,0.1,0.1,0.1h3.5c0,0,0.1,0,0.1-0.1v-0.5c0,0,0-0.1-0.1-0.1h-1.4
			c0,0-0.1,0-0.1-0.1L201.7,515.1C201.6,515.1,201.6,515.1,201.7,515.1z"/>
		<path class="st0" d="M202.3,513.4c0,0,0-0.1,0-0.1c-0.7-0.6-1.4-1.2-2.2-1.8c-0.1-0.1-0.1,0-0.1,0.1v0.9
			C200,513.7,201.4,514.2,202.3,513.4z"/>
		<path class="st0" d="M202.5,511.3c0.1,0,0.1,0,0.1-0.1v-1.4c0-1.4-1.9-1.8-2.5-0.6c0,0,0,0.1,0,0.1
			C200.9,510,201.7,510.6,202.5,511.3z"/>
		<path class="st0" d="M198.3,508.5c0,0-0.1,0-0.1,0c-0.1,0.1-0.1,0.2-0.2,0.3c0,0,0,0.1,0,0.1c2.2,1.9,4.5,3.8,6.7,5.6
			c0,0,0.1,0,0.1,0c0.1-0.1,0.1-0.2,0.2-0.3c0,0,0-0.1,0-0.1C202.8,512.3,200.5,510.4,198.3,508.5z"/>
		<path class="st0" d="M321.4,315.8c3.8,0,6.8-3.1,6.8-6.8c0-3.8-3.1-6.8-6.8-6.8h-17c-3.8,0-6.8,3.1-6.8,6.8c0,3.8,3.1,6.8,6.8,6.8
			H321.4z M304.4,303.4h17c0,0,0,0,0,0c3.1,0,5.7,2.5,5.7,5.7c0,3.1-2.5,5.7-5.7,5.7h-17c0,0,0,0,0,0c-3.1,0-5.7-2.5-5.7-5.7
			C298.8,305.9,301.3,303.4,304.4,303.4z"/>
		<path class="st0" d="M194.2,288.8C194.2,288.9,194.2,288.9,194.2,288.8c0,2.2,1.8,4,4,4c0,0,0,0,0,0c0,0,0,0,0,0h182.6
			c0,0,0,0,0,0c0,0,0,0,0,0c2.2,0,4-1.8,4-4c0,0,0,0,0,0v-60c0-2.2-1.8-4-4-4c0,0,0,0,0,0H198.2c0,0,0,0,0,0c0,0,0,0,0,0
			c-2.2,0-4,1.8-4,4c0,0,0,0,0,0c0,0,0,0,0,0L194.2,288.8C194.2,288.8,194.2,288.8,194.2,288.8z M384.3,288.6h-0.8v-59.5h0.8V288.6z
			 M380.9,226.8C380.9,226.8,380.9,226.8,380.9,226.8C380.9,226.8,380.9,226.8,380.9,226.8C380.9,226.8,380.9,226.8,380.9,226.8
			c1.1,0,2,0.9,2,2v60c0,0,0,0,0,0c0,1.1-0.9,2-2,2H198.2c0,0,0,0,0,0c0,0,0,0,0,0c0,0,0,0,0,0c-1.1,0-2-0.9-2-2v-60c0,0,0,0,0,0
			c0-1.1,0.9-2,2-2H380.9z M198.5,291.5h182.1v0.8H198.5V291.5z M380.6,226.1H198.5v-0.8h182.1V226.1z M195.6,229.1v59.5h-0.8v-59.5
			H195.6z M194.8,289.1h0.8c0.1,1.2,1.1,2.2,2.3,2.3v0.8C196.3,292.1,194.9,290.8,194.8,289.1z M381.2,292.3v-0.8
			c1.2-0.1,2.2-1.1,2.3-2.3h0.8C384.2,290.8,382.8,292.1,381.2,292.3z M384.3,228.5h-0.8c-0.1-1.2-1.1-2.2-2.3-2.3v-0.8
			C382.8,225.5,384.2,226.8,384.3,228.5z M197.9,225.4v0.8c-1.2,0.1-2.2,1.1-2.3,2.3h-0.8C194.9,226.8,196.3,225.5,197.9,225.4z"/>
		<path class="st0" d="M376.2,180C376.2,180,376.2,180,376.2,180c-3.7,0-6.7,3-6.7,6.7c0,3.7,3,6.7,6.7,6.7c0,0,0,0,0,0h17
			c0,0,0,0,0,0c3.7,0,6.7-3,6.7-6.7c0-3.7-3-6.7-6.7-6.7c0,0,0,0,0,0H376.2z M398.8,186.8c0,3.1-2.5,5.7-5.7,5.7c0,0,0,0,0,0h-17
			c0,0,0,0,0,0c-3.1,0-5.7-2.5-5.7-5.7c0-3.1,2.5-5.7,5.7-5.7c0,0,0,0,0,0h17c0,0,0,0,0,0C396.3,181.1,398.8,183.6,398.8,186.8z"/>
		<path class="st0" d="M194.2,39.7v60.1c0,2.2,1.8,4,4,4c0,0,0,0,0,0c0,0,0,0,0,0h20.3v17.6c0,0,0,0,0,0c0,0.5,0.4,0.8,0.8,0.8
			c0.4,0,0.8-0.3,0.8-0.8c0,0,0,0,0-0.1v-17.6h45v17.6c0,0,0,0,0,0c0,0.5,0.4,0.9,0.9,0.9c0.5,0,0.9-0.4,0.9-0.9c0,0,0,0,0,0v-17.5
			h45v17.6c0,0,0,0,0,0c0,0.5,0.4,0.9,0.9,0.9c0.5,0,0.9-0.4,0.9-0.9c0,0,0,0,0,0v-17.6h45v17.6c0,0,0,0,0,0c0,0.5,0.4,0.9,0.9,0.9
			c0.5,0,0.9-0.4,0.9-0.9c0,0,0,0,0,0v-17.5h20.3c0,0,0,0,0,0c2.2,0,4-1.8,4-4c0,0,0,0,0,0c0,0,0,0,0,0V39.7c0-2.2-1.8-4-4-4
			c0,0,0,0,0,0c0,0,0,0,0,0c0,0,0,0,0,0H198.2C196,35.6,194.2,37.4,194.2,39.7C194.2,39.7,194.2,39.7,194.2,39.7
			C194.2,39.7,194.2,39.7,194.2,39.7z M384.3,99.5h-0.8V40h0.8V99.5z M358.9,102.7c0,0.2,0,0.3,0,0.4v0.1h-45c0-0.1,0-0.2,0-0.3
			c0-0.2,0-0.3-0.1-0.4c0,0,0-0.1-0.1-0.1H359C358.9,102.5,358.9,102.6,358.9,102.7z M312.1,102.7c0,0.1,0,0.2,0,0.3
			c0,0,0,0.1,0,0.1v0.1h-45c0-0.1,0-0.2,0-0.3c0-0.2,0-0.3-0.1-0.4c0,0,0-0.1-0.1-0.1h45.4C312.2,102.5,312.1,102.6,312.1,102.7z
			 M265.4,102.7c0,0.1,0,0.2,0,0.3c0,0,0,0.1,0,0.1v0.1h-45c0-0.1,0-0.2,0-0.3c0-0.2,0-0.3-0.1-0.4c0,0,0-0.1-0.1-0.1h45.4
			C265.4,102.5,265.4,102.6,265.4,102.7z M218.6,102.7c0,0.1,0,0.2,0,0.3c0,0,0,0.1,0,0.1v0.1h-20v-0.8h20.3
			C218.7,102.5,218.6,102.6,218.6,102.7z M198.2,37.7C198.2,37.7,198.2,37.7,198.2,37.7l182.6,0c0,0,0,0,0,0c1.1,0,2,0.9,2,2
			c0,0,0,0,0,0c0,0,0,0,0,0v60.1c0,0,0,0,0,0c0,1.1-0.9,2-2,2c0,0,0,0,0,0c0,0,0,0,0,0c0,0,0,0,0,0H198.2c0,0,0,0,0,0
			c-1.1,0-2-0.9-2-2c0,0,0,0,0,0c0,0,0,0,0,0V39.7c0,0,0,0,0,0C196.2,38.6,197.1,37.7,198.2,37.7C198.2,37.7,198.2,37.7,198.2,37.7z
			 M360.5,102.9c0-0.2,0-0.3-0.1-0.4c0,0,0-0.1-0.1-0.1h20.2v0.8h-20.1C360.5,103.1,360.5,103,360.5,102.9z M380.6,37H198.5v-0.8
			h182.1V37z M195.6,99.5h-0.8V40h0.8V99.5z M194.8,100h0.8c0.1,1.2,1.1,2.2,2.3,2.3v0.8C196.3,103,194.9,101.7,194.8,100z
			 M219.4,121.7c-0.2,0-0.3-0.1-0.3-0.3c0,0,0,0,0,0v-17.9c0,0,0,0,0,0s0,0,0,0l0-0.4c0-0.1,0-0.1,0-0.2c0-0.1,0-0.1,0.1-0.1
			c0,0,0,0,0.1-0.1c0.1,0,0.2,0,0.2,0c0,0,0,0,0.1,0v0c0,0,0,0,0,0.1c0,0,0,0.1,0,0.2c0,0.1,0,0.2,0,0.3c0,0,0,0,0,0v0.2
			c0,0,0,0,0,0v17.9c0,0,0,0,0,0C219.7,121.5,219.6,121.7,219.4,121.7z M266.2,121.7c-0.2,0-0.3-0.1-0.3-0.3c0,0,0,0,0,0v-17.9
			l0-0.4c0-0.1,0-0.1,0-0.2c0-0.1,0-0.1,0-0.1c0,0,0.1-0.1,0.1-0.1c0.1,0,0.2,0,0.2,0l0.1-0.3l0,0.3c0,0,0,0.1,0,0.2
			c0,0.1,0,0.2,0,0.3c0,0,0,0,0,0v0.2c0,0,0,0,0,0v17.9c0,0,0,0,0,0C266.5,121.5,266.3,121.7,266.2,121.7z M312.9,121.7
			c-0.2,0-0.3-0.1-0.3-0.3c0,0,0,0,0,0v-17.9l0-0.4c0-0.1,0-0.1,0-0.2c0-0.1,0-0.1,0.1-0.1c0,0,0.1,0,0.1-0.1c0.1,0,0.2,0,0.2,0
			c0,0,0,0,0,0c0,0,0,0,0,0.1c0,0,0,0.1,0,0.2c0,0.1,0,0.2,0,0.3c0,0,0,0,0,0v0.2c0,0,0,0,0,0v17.9c0,0,0,0,0,0
			C313.2,121.5,313.1,121.7,312.9,121.7z M359.7,121.7c-0.2,0-0.3-0.1-0.3-0.3c0,0,0,0,0,0v-17.9v0v-0.4c0-0.1,0-0.2,0-0.3
			c0-0.1,0-0.1,0-0.1c0,0,0.1-0.1,0.1-0.1c0.1,0,0.2,0,0.2,0c0,0,0,0,0,0c0,0,0,0,0,0.1c0,0,0,0.1,0,0.2c0,0.1,0,0.2,0,0.3
			c0,0,0,0,0,0v0.2c0,0,0,0,0,0v17.9c0,0,0,0,0,0C360,121.5,359.8,121.7,359.7,121.7z M381.1,103.2v-0.8c1.2-0.1,2.2-1.1,2.3-2.3
			h0.8C384.2,101.7,382.8,103,381.1,103.2z M384.3,39.4h-0.8c-0.1-1.2-1.1-2.2-2.3-2.3v-0.8C382.8,36.4,384.2,37.7,384.3,39.4z
			 M198,36.2V37c-1.2,0.1-2.2,1.1-2.3,2.3h-0.8C194.9,37.7,196.3,36.4,198,36.2z"/>
		<path class="st0" d="M210.6,335.4c0.1,0.1,0.2,0.1,0.3,0.1h17c0.1,0,0.2-0.1,0.3-0.1c3.6-0.2,6.4-3.1,6.4-6.7c0-3.7-3-6.7-6.7-6.7
			c0,0,0,0,0,0h-17c-3.7,0-6.7,3-6.7,6.7C204.2,332.3,207.1,335.2,210.6,335.4z M210.9,323.1h17c0,0,0,0,0,0c3.1,0,5.7,2.5,5.7,5.7
			c0,3.1-2.5,5.7-5.7,5.7h-17c0,0,0,0,0,0c-3.1,0-5.7-2.5-5.7-5.7C205.3,325.6,207.8,323.1,210.9,323.1z"/>
		<path class="st0" d="M210.9,315.7C210.9,315.7,211,315.7,210.9,315.7l17,0c3.7,0,6.7-3,6.7-6.7c0-3.7-3-6.7-6.7-6.7c0,0,0,0,0,0
			h-17c-3.7,0-6.7,3-6.7,6.7C204.2,312.7,207.2,315.7,210.9,315.7z M210.9,303.4h17c0,0,0,0,0,0c3.1,0,5.7,2.5,5.7,5.7
			c0,3.1-2.5,5.7-5.7,5.7h-17c0,0,0,0,0,0c-3.1,0-5.7-2.5-5.7-5.7C205.3,305.9,207.8,303.4,210.9,303.4z"/>
		<path class="st0" d="M257.7,335.4C257.7,335.4,257.7,335.4,257.7,335.4l17,0c3.7,0,6.7-3,6.7-6.7c0-3.7-3-6.7-6.7-6.7c0,0,0,0,0,0
			h-17c-3.7,0-6.7,3-6.7,6.7C251,332.4,254,335.4,257.7,335.4z M257.7,323.1h17c0,0,0,0,0,0c3.1,0,5.7,2.5,5.7,5.7
			c0,3.1-2.5,5.7-5.7,5.7h-17c0,0,0,0,0,0c-3.1,0-5.7-2.5-5.7-5.7C252,325.6,254.6,323.1,257.7,323.1z"/>
		<path class="st0" d="M257.7,315.7C257.7,315.7,257.7,315.7,257.7,315.7l17,0c3.7,0,6.7-3,6.7-6.7c0-3.7-3-6.7-6.7-6.7c0,0,0,0,0,0
			h-17c-3.7,0-6.7,3-6.7,6.7C251,312.7,254,315.7,257.7,315.7z M257.7,303.4h17c0,0,0,0,0,0c3.1,0,5.7,2.5,5.7,5.7
			c0,3.1-2.5,5.7-5.7,5.7h-17c0,0,0,0,0,0c-3.1,0-5.7-2.5-5.7-5.7C252,305.9,254.6,303.4,257.7,303.4z"/>
		<path class="st0" d="M304.4,335.4C304.4,335.4,304.5,335.4,304.4,335.4l17,0c3.7,0,6.7-3,6.7-6.7c0-3.7-3-6.7-6.7-6.7c0,0,0,0,0,0
			h-17c-3.7,0-6.7,3-6.7,6.7C297.7,332.4,300.7,335.4,304.4,335.4z M304.4,323.1h17c0,0,0,0,0,0c3.1,0,5.7,2.5,5.7,5.7
			c0,3.1-2.5,5.7-5.7,5.7h-17c0,0,0,0,0,0c-3.1,0-5.7-2.5-5.7-5.7C298.8,325.6,301.3,323.1,304.4,323.1z"/>
		<path class="st0" d="M374.9,328.7c0-3.7-3-6.7-6.7-6.7c0,0,0,0,0,0h-17c-3.7,0-6.7,3-6.7,6.7c0,3.7,3,6.7,6.7,6.7c0,0,0,0,0,0
			h16.9C371.9,335.4,374.9,332.4,374.9,328.7z M345.5,328.7c0-3.1,2.5-5.7,5.7-5.7h17c0,0,0,0,0,0c3.1,0,5.7,2.5,5.7,5.7
			c0,3.1-2.5,5.7-5.7,5.7h-17c0,0,0,0,0,0C348.1,334.4,345.5,331.8,345.5,328.7z"/>
		<path class="st0" d="M368.1,302.3h-17c-3.7,0-6.7,3-6.7,6.7c0,3.7,3,6.7,6.7,6.7c0,0,0,0,0,0h16.9c3.7,0,6.7-3,6.7-6.7
			C374.9,305.3,371.9,302.3,368.1,302.3C368.2,302.3,368.1,302.3,368.1,302.3z M373.8,309c0,3.1-2.5,5.7-5.7,5.7h-17c0,0,0,0,0,0
			c-3.1,0-5.7-2.5-5.7-5.7c0-3.1,2.5-5.7,5.7-5.7h17c0,0,0,0,0,0C371.3,303.4,373.8,305.9,373.8,309z"/>
		<path class="st0" d="M400.5,328.7c-1.4,0-2.6,1.2-2.6,2.6s1.2,2.6,2.6,2.6s2.6-1.2,2.6-2.6S401.9,328.7,400.5,328.7z M400.5,332.8
			c-0.8,0-1.5-0.7-1.5-1.5c0-0.8,0.7-1.5,1.5-1.5c0.8,0,1.5,0.7,1.5,1.5C402,332.1,401.3,332.8,400.5,332.8z"/>
		<path class="st0" d="M400.5,320.4c-1.4,0-2.6,1.2-2.6,2.6s1.2,2.6,2.6,2.6s2.6-1.2,2.6-2.6S401.9,320.4,400.5,320.4z M400.5,324.5
			c-0.8,0-1.5-0.7-1.5-1.5s0.7-1.5,1.5-1.5c0.8,0,1.5,0.7,1.5,1.5S401.3,324.5,400.5,324.5z"/>
		<path class="st0" d="M400.5,317.2c1.4,0,2.5-1.1,2.5-2.5c0-1.4-1.1-2.5-2.5-2.5c-1.4,0-2.5,1.1-2.5,2.5
			C398,316.1,399.1,317.2,400.5,317.2z M400.5,313.3c0.8,0,1.4,0.6,1.4,1.4c0,0.8-0.6,1.4-1.4,1.4c-0.8,0-1.4-0.6-1.4-1.4
			C399,314,399.7,313.3,400.5,313.3z"/>
		<path class="st0" d="M400.5,309c1.4,0,2.5-1.1,2.5-2.5c0-1.4-1.1-2.5-2.5-2.5c-1.4,0-2.5,1.1-2.5,2.5
			C398,307.9,399.1,309,400.5,309z M400.5,305.1c0.8,0,1.4,0.6,1.4,1.4c0,0.8-0.6,1.4-1.4,1.4c-0.8,0-1.4-0.6-1.4-1.4
			C399,305.7,399.7,305.1,400.5,305.1z"/>
		<path class="st0" d="M227.9,128.8h-17c-3.7,0-6.7,3-6.7,6.7s3,6.7,6.7,6.7c0,0,0,0,0,0h17c3.7,0,6.7-3,6.7-6.7
			C234.6,131.8,231.6,128.8,227.9,128.8C227.9,128.8,227.9,128.8,227.9,128.8z M233.6,135.5c0,3.1-2.5,5.7-5.7,5.7h-17c0,0,0,0,0,0
			c-3.1,0-5.7-2.5-5.7-5.7c0-3.1,2.5-5.7,5.7-5.7h17c0,0,0,0,0,0C231,129.9,233.6,132.4,233.6,135.5z"/>
		<path class="st0" d="M250.6,153.7C250.6,153.7,250.6,153.7,250.6,153.7l-9.2,0c-3.7,0-6.7,3-6.7,6.7c0,0,0,0,0,0v26.4
			c0,3.7,3,6.7,6.7,6.7c0,0,0,0,0,0h9.1c0,0,0,0,0,0c0,0,0,0,0,0c1.8,0,3.3-1.5,3.3-3.3c0,0,0,0,0,0V157
			C253.9,155.2,252.4,153.7,250.6,153.7z M250.6,192.4C250.6,192.4,250.6,192.4,250.6,192.4C250.6,192.4,250.6,192.4,250.6,192.4
			l-9.2,0c0,0,0,0,0,0c-3.1,0-5.6-2.5-5.6-5.7v-26.4c0-3.1,2.5-5.7,5.7-5.7h9.2c0,0,0,0,0,0c1.2,0,2.2,1,2.2,2.2v33.2c0,0,0,0,0,0
			C252.8,191.4,251.8,192.4,250.6,192.4z"/>
		<path class="st0" d="M289.6,200.8c15,0,27.2-12.2,27.2-27.2s-12.2-27.2-27.2-27.2c-15,0-27.2,12.2-27.2,27.2
			S274.5,200.8,289.6,200.8z M289.6,147.4c14.4,0,26.1,11.7,26.1,26.1c0,14.4-11.7,26.1-26.1,26.1c-14.4,0-26.2-11.7-26.2-26.1
			C263.4,159.2,275.1,147.4,289.6,147.4z"/>
		<path class="st0" d="M284.8,156.2C284.8,156.2,284.8,156.2,284.8,156.2C284.9,156.3,284.9,156.3,284.8,156.2c0,0.1,0,0.2,0.1,0.2
			c0,0,0,0,0,0c0,0,0,0,0,0c0,0,0,0,0,0c0,0,0,0,0,0l0.2,0.2c0,0,0,0,0,0c0.1,0,0.1,0.1,0.1,0.1c0.1,0,0.2,0.1,0.2,0.1s0.1,0,0.2,0
			c0.1,0,0.1-0.1,0.2-0.1c0,0,0,0,0,0l3.7-3.7l3.7,3.7c0.1,0.1,0.1,0.1,0.2,0.1c0,0,0,0,0,0c0.1,0,0.1,0.1,0.2,0.1
			c0.1,0,0.1,0,0.2-0.1c0,0,0,0,0,0c0.1,0,0.1,0,0.2-0.1l0.2-0.2c0,0,0,0,0,0c0,0,0,0,0,0c0,0,0.1-0.1,0.1-0.2c0,0,0-0.1,0-0.2
			c0-0.1,0-0.1-0.1-0.2c0,0,0-0.1-0.1-0.1c0,0,0,0,0,0c0,0,0,0,0,0c0,0,0,0,0,0c0,0,0,0,0,0c0,0,0,0,0,0l-4.1-4.1c0,0,0,0,0,0
			c-0.1-0.1-0.2-0.1-0.2-0.1c-0.2-0.1-0.4-0.1-0.6,0c-0.1,0-0.2,0.1-0.3,0.2c0,0,0,0,0,0l-4.1,4.1c-0.1,0.1-0.1,0.1-0.1,0.2
			c0,0.1-0.1,0.1-0.1,0.2C284.8,156.1,284.8,156.2,284.8,156.2z"/>
		<path class="st0" d="M306.4,169.8c0,0,0,0.1,0,0.1c0,0,0,0,0,0l0,0c0,0,0,0,0,0c0,0,0,0,0,0l3.7,3.7l-3.7,3.7
			c-0.1,0.1-0.1,0.1-0.1,0.2c0,0.1,0,0.2,0,0.4c0,0,0,0.1,0,0.1c0,0,0,0,0,0c0,0,0,0,0,0c0,0,0,0.1,0,0.1l0.2,0.2c0,0,0,0,0,0
			c0.1,0,0.1,0.1,0.2,0.1c0.1,0,0.2,0,0.2,0c0.1,0,0.1,0,0.2,0c0,0,0.1-0.1,0.2-0.1c0,0,0,0,0,0l4.1-4.1c0,0,0,0,0,0
			c0,0,0.1-0.1,0.1-0.2l0-0.1c0,0,0-0.1,0-0.1c0,0,0-0.1,0-0.1c0-0.1,0-0.1,0-0.1c0,0,0,0,0,0c0,0,0-0.1,0-0.1c0-0.1,0-0.1,0-0.1
			c0,0,0,0,0,0c0,0,0,0,0,0c0,0,0,0,0,0c0,0,0-0.1,0-0.1c0-0.1-0.1-0.1-0.1-0.1c0,0,0,0,0,0l-4.1-4.1c0,0,0,0,0,0
			c-0.2-0.2-0.4-0.2-0.6-0.1c0,0,0,0,0,0c0,0,0,0-0.1,0c0,0,0,0,0,0c0,0,0,0,0,0c0,0,0,0,0,0c0,0,0,0,0,0c0,0,0,0,0,0l-0.2,0.2l0,0
			c0,0,0,0,0,0c0,0,0,0,0,0.1c0,0,0,0.1,0,0.1c0,0,0,0,0,0c0,0.1-0.1,0.1-0.1,0.2C306.3,169.6,306.4,169.7,306.4,169.8z"/>
		<path class="st0" d="M257.7,142.3h17c3.7,0,6.7-3,6.7-6.7c0-3.7-3-6.7-6.7-6.7c0,0,0,0,0,0h-17c-3.7,0-6.7,3-6.7,6.7
			S254,142.3,257.7,142.3C257.7,142.3,257.7,142.3,257.7,142.3z M252,135.5c0-3.1,2.5-5.7,5.7-5.7h17c0,0,0,0,0,0
			c3.1,0,5.7,2.5,5.7,5.7c0,3.1-2.5,5.7-5.7,5.7h-17c0,0,0,0,0,0C254.6,141.2,252,138.7,252,135.5z"/>
		<path class="st0" d="M328.1,135.5c0-3.7-3-6.7-6.7-6.7c0,0,0,0,0,0h-17c-3.7,0-6.7,3-6.7,6.7s3,6.7,6.7,6.7c0,0,0,0,0,0h17
			C325.1,142.3,328.1,139.2,328.1,135.5z M298.8,135.5c0-3.1,2.5-5.7,5.7-5.7h17c0,0,0,0,0,0c3.1,0,5.7,2.5,5.7,5.7
			c0,3.1-2.5,5.7-5.7,5.7h-17c0,0,0,0,0,0C301.3,141.2,298.8,138.7,298.8,135.5z"/>
		<path class="st0" d="M328.5,193.6C328.5,193.6,328.5,193.6,328.5,193.6l9.2,0c3.8,0,6.8-3.1,6.8-6.8c0,0,0,0,0,0v-26.4
			c0-0.1-0.1-0.2-0.1-0.3c-0.2-3.6-3.1-6.4-6.7-6.4c0,0,0,0,0,0h-8.9c-0.1,0-0.1-0.1-0.2-0.1c-1.9,0-3.4,1.5-3.4,3.4c0,0,0,0,0,0
			v33.2C325.1,192.1,326.6,193.6,328.5,193.6z M343.3,160.4v26.4c0,0,0,0,0,0c0,3.1-2.5,5.7-5.7,5.7h-9.2c0,0,0,0,0,0
			c-1.2,0-2.2-1-2.2-2.2V157c0,0,0,0,0,0c0-1.2,1-2.2,2.2-2.2h9.2c0,0,0,0,0,0C340.8,154.7,343.3,157.3,343.3,160.4z"/>
		<path class="st0" d="M351.2,142.3C351.2,142.3,351.2,142.3,351.2,142.3l17,0c3.7,0,6.7-3,6.7-6.7c0-3.7-3-6.7-6.7-6.7c0,0,0,0,0,0
			h-17c-3.7,0-6.7,3-6.7,6.7S347.5,142.3,351.2,142.3z M351.2,129.9h17c0,0,0,0,0,0c3.1,0,5.7,2.5,5.7,5.7c0,3.1-2.5,5.7-5.7,5.7
			h-17c0,0,0,0,0,0c-3.1,0-5.7-2.5-5.7-5.7C345.5,132.4,348.1,129.9,351.2,129.9z"/>
		<path class="st0" d="M294.2,190.7C294.2,190.7,294.2,190.7,294.2,190.7C294.2,190.7,294.2,190.7,294.2,190.7l-0.2-0.2c0,0,0,0,0,0
			c0,0,0,0,0,0c0,0-0.1-0.1-0.2-0.1c-0.1,0-0.3-0.1-0.4,0c-0.1,0-0.1,0.1-0.1,0.1c0,0,0,0,0,0l-3.7,3.7l-3.7-3.7c0,0,0,0-0.1,0
			c-0.1-0.1-0.2-0.1-0.3-0.1c-0.2,0-0.3,0-0.4,0.1c0,0,0,0,0,0c0,0,0,0,0,0l-0.2,0.2c-0.1,0.1-0.1,0.1-0.1,0.2c0,0.1,0,0.2,0,0.3
			c0,0.1,0,0.1,0.1,0.2l4.1,4.1c0,0,0,0,0,0c0,0,0,0,0,0c0.1,0.1,0.3,0.2,0.5,0.2c0,0,0,0,0,0h0c0.2,0,0.4-0.1,0.5-0.2c0,0,0,0,0,0
			c0,0,0,0,0,0c0,0,0,0,0,0c0,0,0,0,0,0l4.1-4.1l0,0l0,0l0,0c0,0,0,0,0,0c0,0,0.1-0.1,0.1-0.2c0-0.1,0-0.1,0-0.2
			c0-0.1,0-0.2-0.1-0.2C294.3,190.8,294.2,190.8,294.2,190.7z"/>
		<path class="st0" d="M267.6,174.1l4.1,4.1c0,0,0,0,0,0c0,0,0,0,0,0c0,0,0,0,0,0c0,0,0.1,0.1,0.1,0.1c0.1,0,0.1,0,0.2,0
			c0.1,0,0.1,0,0.2,0c0,0,0.1,0,0.1,0c0,0,0,0,0.1,0c0,0,0,0,0.1-0.1l0,0v0l0.2-0.2c0.1-0.1,0.1-0.1,0.1-0.2c0-0.1,0.1-0.1,0.1-0.2
			c0-0.1,0-0.1-0.1-0.2c0,0,0,0,0,0c0,0,0,0,0,0c0-0.1,0-0.1-0.1-0.1l-3.7-3.7l3.7-3.7c0,0,0,0,0,0c0,0,0-0.1,0.1-0.2c0,0,0,0,0,0
			c0-0.1,0.1-0.1,0.1-0.2c0-0.1,0-0.1-0.1-0.2c0,0,0,0,0,0c0,0,0,0,0-0.1c0,0,0-0.1-0.1-0.1l-0.2-0.2c0,0,0,0,0,0c0,0-0.1,0-0.1,0
			c0,0,0,0,0,0c-0.1,0-0.1-0.1-0.2-0.1c0,0,0,0,0,0c-0.1,0-0.1,0.1-0.2,0.1c-0.1,0-0.1,0-0.2,0.1l-4.1,4.1c0,0,0,0,0,0
			c-0.1,0.1-0.1,0.2-0.1,0.2c0,0,0,0,0,0c0,0.1-0.1,0.2-0.1,0.3c0,0,0,0,0,0c0,0,0,0,0,0c0,0,0,0,0,0c0,0,0,0,0,0c0,0.1,0,0.2,0,0.3
			C267.4,174,267.5,174,267.6,174.1C267.6,174.1,267.6,174.1,267.6,174.1L267.6,174.1C267.6,174.1,267.6,174.1,267.6,174.1
			C267.6,174.1,267.6,174.1,267.6,174.1z"/>
		<path class="st0" d="M337.6,169.9c-0.9,0.9-1.9,1.9-2.8,2.8c0,0-0.1,0-0.1,0c-1.1-1.1-2.1-2.1-3.1-3.1c0,0-0.1,0-0.1,0l-0.7,0.7
			c0,0,0,0.1,0,0.1c1.1,1.1,2.1,2.1,3.1,3.1c0,0,0,0.1,0,0.1l-3.1,3.1c0,0,0,0.1,0,0.1l0.7,0.7c0,0,0.1,0,0.1,0l3.1-3.1
			c0,0,0.1,0,0.1,0c1.1,1.1,2.1,2.1,3.1,3.1c0,0,0.1,0,0.1,0l0.7-0.7c0,0,0-0.1,0-0.1c-1.1-1.1-2.1-2.1-3.2-3.1c0,0,0-0.1,0-0.1
			c1.1-1.1,2.1-2.1,3.1-3.1c0,0,0-0.1,0-0.1l-0.7-0.7c0,0-0.1,0-0.1,0C337.8,169.7,337.7,169.8,337.6,169.9z"/>
		<path class="st0" d="M248.8,169.5c-0.1,0.1-0.2,0.2-0.4,0.4c0,0-5.2,5.2-6,6c0,0-0.1,0-0.1,0c-0.6-0.6-2.8-2.8-3.1-3.1
			c0,0-0.1,0-0.1,0l-0.7,0.7c0,0,0,0.1,0,0.1c1.3,1.3,2.6,2.6,4,4c0,0,0.1,0,0.1,0c2.4-2.4,4.8-4.8,7.2-7.2c0,0,0-0.1,0-0.1
			L248.8,169.5C248.8,169.5,248.8,169.5,248.8,169.5z"/>
		<path class="st0" d="M213.2,331.3h12.4c1.4,0,2.6-1.2,2.6-2.6c0-1.4-1.2-2.6-2.6-2.6h-12.4c-1.4,0-2.6,1.2-2.6,2.6
			C210.7,330.1,211.8,331.3,213.2,331.3z"/>
		<path class="st0" d="M213.2,311.6h12.4c1.4,0,2.6-1.2,2.6-2.6c0-1.4-1.2-2.6-2.6-2.6h-12.4c-1.4,0-2.6,1.2-2.6,2.6
			C210.7,310.4,211.8,311.6,213.2,311.6z"/>
		<path class="st0" d="M260,331.3h12.4c1.4,0,2.6-1.2,2.6-2.6c0-1.4-1.2-2.6-2.6-2.6H260c-1.4,0-2.6,1.2-2.6,2.6
			C257.4,330.1,258.6,331.3,260,331.3z"/>
		<path class="st0" d="M260,311.6h12.4c1.4,0,2.6-1.2,2.6-2.6c0-1.4-1.2-2.6-2.6-2.6H260c-1.4,0-2.6,1.2-2.6,2.6
			C257.4,310.4,258.6,311.6,260,311.6z"/>
		<path class="st0" d="M306.7,331.3h12.4c1.4,0,2.6-1.2,2.6-2.6c0-1.4-1.2-2.6-2.6-2.6h-12.4c-1.4,0-2.6,1.2-2.6,2.6
			C304.2,330.1,305.3,331.3,306.7,331.3z"/>
		<path class="st0" d="M306.7,311.6h12.4c1.4,0,2.6-1.2,2.6-2.6c0-1.4-1.2-2.6-2.6-2.6h-12.4c-1.4,0-2.6,1.2-2.6,2.6
			C304.2,310.4,305.3,311.6,306.7,311.6z"/>
		<path class="st0" d="M353.5,331.3h12.4c1.4,0,2.6-1.2,2.6-2.6c0-1.4-1.2-2.6-2.6-2.6h-12.4c-1.4,0-2.6,1.2-2.6,2.6
			C350.9,330.1,352.1,331.3,353.5,331.3z"/>
		<path class="st0" d="M365.9,306.4h-12.4c-1.4,0-2.6,1.2-2.6,2.6c0,1.4,1.2,2.6,2.6,2.6h12.4c1.4,0,2.6-1.2,2.6-2.6
			C368.4,307.6,367.3,306.4,365.9,306.4z"/>
		<path class="st0" d="M405.1,258.1c0-0.1,0-0.1-0.1-0.2v-18.1c0-2.5-2-4.5-4.5-4.5c-2.5,0-4.5,2-4.5,4.5c0,0,0,0,0,0v37.8
			c0,0,0,0,0,0c0,2.5,2,4.5,4.5,4.5c2.5,0,4.5-2,4.5-4.5c0,0,0,0,0,0v-19.4C405,258.2,405.1,258.2,405.1,258.1z M400.5,236.4
			c1.9,0,3.5,1.6,3.5,3.5v17.7h-7v-17.7c0,0,0,0,0,0C397,238,398.5,236.4,400.5,236.4z M400.5,281.2c-1.9,0-3.5-1.6-3.5-3.5v-19.1h7
			v19.1c0,0,0,0,0,0C403.9,279.7,402.4,281.2,400.5,281.2z"/>
		<path class="st0" d="M298.2,511v2.6c0,0.1,0.1,0.2,0.2,0.2h1.3v-3.1h-1.3C298.3,510.8,298.2,510.9,298.2,511z"/>
		<path class="st0" d="M303.7,510.8c0.2,0.5,0.4,1,0.4,1.6c0,0.5-0.2,1.1-0.4,1.6l0.5,0.2c0.2-0.6,0.4-1.1,0.4-1.8
			c0-0.6-0.1-1.2-0.4-1.8L303.7,510.8z"/>
		<path class="st0" d="M304.9,509.5c0.4,0.9,0.6,1.9,0.6,2.9c0,1-0.2,2-0.6,2.9l0.5,0.3c0.4-1,0.6-2.1,0.6-3.1
			c0-1.1-0.2-2.2-0.7-3.2L304.9,509.5z"/>
		<path class="st0" d="M302,509.1l-1.4,1.3v3.8l1.4,1.4c0.1,0.1,0.3,0,0.3-0.2v-6.2C302.3,509.1,302.1,509,302,509.1z"/>
		<path class="st0" d="M341.7,508.3c-2,0-3.6,1.8-3.6,4.1c0,0.2,0,0.4,0,0.5l-0.1,0.1c0,0-0.1,0.1,0,0.2l0.1,0.6
			c0,0.1,0,0.1,0.1,0.2l0.3,0.2c0.1,0.7,0.3,1.6,0.4,1.7c0.3,0.3,1.2,0.3,1.6,0.3c0,0.1,0.1,0.1,0.2,0.1h1c0.1,0,0.2-0.2,0.2-0.3
			c0-0.1-0.1-0.3-0.2-0.3h-1c-0.1,0-0.1,0.1-0.2,0.1c-0.5,0-1.2-0.1-1.4-0.2c0-0.1-0.2-0.6-0.3-1.2c0,0,0,0,0.1,0
			c0.1,0,0.3-0.1,0.3-0.1c0-0.5-0.1-1.2-0.2-1.6c0-0.1-0.2-0.1-0.3-0.1c-0.1-0.1-0.1-0.2-0.1-0.3c0-2,1.4-3.6,3.1-3.6
			c1.7,0,3.1,1.6,3.1,3.6c0,0.1-0.1,0.2-0.1,0.3c-0.1,0-0.2,0-0.3,0.1c0,0.4-0.2,1.1-0.2,1.6c0,0.1,0.1,0.1,0.3,0.1
			c0.2,0,0.2-0.1,0.2-0.1c0.4-0.7,0.6-1.1,0.6-1.9C345.3,510.2,343.7,508.3,341.7,508.3z"/>
		<path class="st0" d="M339.6,512.4L339.6,512.4c-0.2,0-0.3,0.2-0.3,0.4l0.2,1.5c0,0.2,0.2,0.3,0.3,0.3l0,0c0.2,0,0.3-0.2,0.2-0.4
			l-0.2-1.5C339.9,512.6,339.7,512.4,339.6,512.4z"/>
		<path class="st0" d="M343.8,512.4L343.8,512.4c-0.2,0-0.3,0.1-0.3,0.3l-0.2,1.5c0,0.2,0.1,0.4,0.2,0.4h0c0.2,0,0.3-0.1,0.3-0.3
			l0.2-1.5C344.1,512.7,344,512.5,343.8,512.4z"/>
		<path class="st0" d="M385,389.8h-3.6c-0.1,0-0.2,0-0.3,0.1l-0.3,0.2c-0.1,0-0.2,0-0.3,0l-0.3-0.2c-0.1,0-0.2-0.1-0.3-0.1h-3.6
			c-0.1,0-0.2,0.1-0.2,0.2v6.2c0,0.1,0.1,0.2,0.2,0.2h3c0.1,0,0.2,0,0.3,0.1l0.4,0.2c0.1,0,0.2,0.1,0.3,0.1h0.7c0.1,0,0.2,0,0.2,0
			c0,0,0.5-0.2,0.5-0.2c0.1,0,0.2-0.1,0.3-0.1h3c0.1,0,0.2-0.1,0.2-0.2V390C385.1,389.9,385.1,389.8,385,389.8z M380.1,396
			C380.1,396,380.1,396,380.1,396c-0.1,0-0.4-0.2-0.4-0.2c-0.1,0-0.2-0.1-0.3-0.1h-2.5c-0.1,0-0.2-0.1-0.2-0.2v-4.9
			c0-0.1,0.1-0.2,0.2-0.2h2.6c0.1,0,0.2,0,0.3,0l0.2,0.2c0.1,0.1,0.1,0.2,0.1,0.3V396z M384.5,395.5c0,0.1-0.1,0.2-0.2,0.2h-2.6
			c-0.1,0-0.2,0-0.3,0.1c0,0-0.3,0.2-0.4,0.2c0,0,0,0,0,0v-5.1c0-0.1,0.1-0.2,0.1-0.3l0.2-0.2c0.1,0,0.2,0,0.3,0h2.6
			c0.1,0,0.2,0.1,0.2,0.2V395.5z"/>
		<path class="st0" d="M383,453.6c-0.3-0.1-1.4-0.6-1.7-0.6c-0.3,0-0.7,0.7-0.8,0.6c-0.4-0.1-2.2-1.6-2.3-2.2c0-0.3,0.7-0.7,0.6-1.1
			c-0.1-0.4-0.5-1.8-0.7-1.9c-0.4-0.2-1,0-1.4,0.1c-0.1,0-0.3,0.2-0.4,0.3c-0.1,0.1,0,0.5,0,0.6c0.1,0.5,0.3,1.4,0.5,1.8
			c0.2,0.5,0.8,1.4,1.1,1.8c0.4,0.5,1.5,1.3,2.1,1.6c0.6,0.3,1.7,0.7,2.5,0.7c0.1,0,0.4-0.1,0.6-0.5
			C383.3,454.5,383.5,453.8,383,453.6z"/>
		<polygon class="st0" points="383.5,451 382.6,451 382.6,451.6 383.5,451.6 383.5,452.3 385.2,451.3 383.5,450.3 		"/>
		<rect x="379.9" y="451" class="st0" width="0.9" height="0.6"/>
		<rect x="381.2" y="451" class="st0" width="0.9" height="0.6"/>
		<path class="st0" d="M383.3,422.6c0.1-0.4,0.5-0.6,0.6-0.7l-0.4-0.9c-0.2,0-0.8,0.1-1.2-0.2c-0.3-0.3-0.2-0.9-0.1-1.1l-0.9-0.4
			c-0.1,0.1-0.5,0.7-0.8,0.7c-0.5,0-0.8-0.6-0.9-0.7l-0.9,0.4c0,0.2,0.1,0.8-0.2,1.1c-0.4,0.4-1,0.2-1.1,0.2l-0.4,0.9
			c0.3,0.3,0.7,0.5,0.7,0.9c0,0.5-0.7,0.9-0.6,0.9l0.4,0.9c0.2,0,0.8-0.1,1.1,0.2c0.4,0.4,0.2,0.9,0.2,1.1l0.9,0.4
			c0.1-0.1,0.4-0.6,0.8-0.6c0.6-0.1,0.7,0.3,1.1,0.6l0.9-0.3c0-0.2-0.1-0.8,0.2-1.1c0.3-0.4,1.2-0.2,1.1-0.2l0.4-0.9
			C383.6,423.3,383.2,423.2,383.3,422.6z M381.7,423.3c-0.3,0.7-1,1-1.7,0.7s-1-1-0.7-1.7c0.3-0.7,1-1,1.7-0.7
			C381.6,421.9,381.9,422.7,381.7,423.3z"/>
		<rect x="381.4" y="479.3" class="st0" width="1.8" height="4.6"/>
		<rect x="378.3" y="479.3" class="st0" width="1.8" height="4.6"/>
		<polygon class="st0" points="229.1,473.7 228.3,473.2 227.2,475.2 226.1,473.2 225.3,473.7 226.4,475.6 224.1,475.6 224.1,476.6
			226.4,476.6 225.3,478.5 226.1,479 227.2,477 228.3,479 229.1,478.5 228,476.6 230.2,476.6 230.2,475.6 228,475.6 		"/>
		<path class="st0" d="M387.5,184.1c-1.4,0-2.6,1.2-2.6,2.6c0,0.6,0.2,1.2,0.6,1.7h-3.2c0.4-0.5,0.6-1,0.6-1.7
			c0-1.4-1.2-2.6-2.6-2.6c-1.4,0-2.6,1.2-2.6,2.6c0,1.4,1.2,2.6,2.6,2.6h7.2c1.4,0,2.6-1.2,2.6-2.6
			C390.1,185.3,388.9,184.1,387.5,184.1z M380.2,188.4c-0.9,0-1.7-0.7-1.7-1.7c0-0.9,0.7-1.7,1.7-1.7c0.9,0,1.7,0.7,1.7,1.7
			C381.9,187.7,381.1,188.4,380.2,188.4z M387.5,188.4c-0.9,0-1.7-0.7-1.7-1.7c0-0.9,0.7-1.7,1.7-1.7s1.7,0.7,1.7,1.7
			C389.1,187.7,388.4,188.4,387.5,188.4z"/>
	</g>
</g>
<g id="number">
	<g>
		<g>
			<circle id="bgnumber" class="st1" cx="205.4" cy="247.4" r="4.2"/>
			<text transform="matrix(1 0 0 1 202.5048 249.4533)" class="st2 st3 st4 button" data-number="0">01</text>
		</g>
		<g>
			<circle id="bgnumber_8_" class="st1" cx="214.9" cy="247.4" r="4.2"/>
			<text transform="matrix(1 0 0 1 211.4384 249.4533)" class="st2 st3 st4 button" data-number="8">09</text>
		</g>
		<g>
			<circle id="bgnumber_16_" class="st1" cx="224.3" cy="247.4" r="4.2"/>
			<text transform="matrix(1 0 0 1 221.7812 249.4533)" class="st2 st3 st4 button" data-number="16">17</text>
		</g>
		<g>
			<circle id="bgnumber_24_" class="st1" cx="233.8" cy="247.4" r="4.2"/>
			<text transform="matrix(1 0 0 1 230.6874 249.4533)" class="st2 st3 st4 button" data-number="24">25</text>
		</g>
	</g>
	<path class="st5" d="M237.5,257.2h-35.7c-2,0-3.7-1.7-3.7-3.7v-12.2c0-2,1.7-3.7,3.7-3.7h35.7c2,0,3.7,1.7,3.7,3.7v12.2
		C241.2,255.5,239.5,257.2,237.5,257.2z"/>
	<g>
		<g>
			<circle id="bgnumber_1_" class="st1" cx="250.9" cy="247.6" r="4.2"/>
			<text transform="matrix(1 0 0 1 247.5666 249.6533)" class="st2 st3 st4 button" data-number="1">02</text>
		</g>
		<g>
			<circle id="bgnumber_9_" class="st1" cx="260.3" cy="247.6" r="4.2"/>
			<text transform="matrix(1 0 0 1 257.4133 249.6533)" class="st2 st3 st4 button" data-number="9">10</text>
		</g>
		<g>
			<circle id="bgnumber_17_" class="st1" cx="269.8" cy="247.6" r="4.2"/>
			<text transform="matrix(1 0 0 1 266.9358 249.6533)" class="st2 st3 st4 button" data-number="17">18</text>
		</g>
		<g>
			<circle id="bgnumber_25_" class="st1" cx="279.2" cy="247.6" r="4.2"/>
			<text transform="matrix(1 0 0 1 276.0305 249.6533)" class="st2 st3 st4 button" data-number="25">26</text>
		</g>
	</g>
	<path class="st5" d="M282.9,257.4h-35.7c-2,0-3.7-1.7-3.7-3.7v-12.2c0-2,1.7-3.7,3.7-3.7h35.7c2,0,3.7,1.7,3.7,3.7v12.2
		C286.6,255.7,284.9,257.4,282.9,257.4z"/>
	<g>
		<g>
			<circle id="bgnumber_2_" class="st1" cx="298.2" cy="247.6" r="4.2"/>
			<text transform="matrix(1 0 0 1 294.8025 249.6533)" class="st2 st3 st4 button" data-number="2">03</text>
		</g>
		<g>
			<circle id="bgnumber_10_" class="st1" cx="307.6" cy="247.6" r="4.2"/>
			<text transform="matrix(1 0 0 1 305.3465 249.6533)" class="st2 st3 st4 button" data-number="10">11</text>
		</g>
		<g>
			<circle id="bgnumber_18_" class="st1" cx="317.1" cy="247.6" r="4.2"/>
			<text transform="matrix(1 0 0 1 314.2801 249.6533)" class="st2 st3 st4 button" data-number="18">19</text>
		</g>
		<g>
			<circle id="bgnumber_26_" class="st1" cx="326.6" cy="247.6" r="4.2"/>
			<text transform="matrix(1 0 0 1 323.6228 249.6533)" class="st2 st3 st4 button" data-number="26">27</text>
		</g>
	</g>
	<path class="st5" d="M330.2,257.4h-35.7c-2,0-3.7-1.7-3.7-3.7v-12.2c0-2,1.7-3.7,3.7-3.7h35.7c2,0,3.7,1.7,3.7,3.7v12.2
		C333.9,255.7,332.3,257.4,330.2,257.4z"/>
	<g>
		<g>
			<circle id="bgnumber_3_" class="st1" cx="344.4" cy="247.6" r="4.2"/>
			<text transform="matrix(1 0 0 1 340.9342 249.6533)" class="st2 st3 st4 button" data-number="3">04</text>
		</g>
		<g>
			<circle id="bgnumber_11_" class="st1" cx="353.9" cy="247.6" r="4.2"/>
			<text transform="matrix(1 0 0 1 351.1705 249.6533)" class="st2 st3 st4 button" data-number="11">12</text>
		</g>
		<g>
			<circle id="bgnumber_19_" class="st1" cx="363.3" cy="247.6" r="4.2"/>
			<text transform="matrix(1 0 0 1 360.0162 249.6533)" class="st2 st3 st4 button" data-number="19">20</text>
		</g>
		<g>
			<circle id="bgnumber_27_" class="st1" cx="372.8" cy="247.6" r="4.2"/>
			<text transform="matrix(1 0 0 1 369.5387 249.6533)" class="st2 st3 st4 button" data-number="27">28</text>
		</g>
	</g>
	<path class="st5" d="M376.4,257.4h-35.7c-2,0-3.7-1.7-3.7-3.7v-12.2c0-2,1.7-3.7,3.7-3.7h35.7c2,0,3.7,1.7,3.7,3.7v12.2
		C380.1,255.7,378.5,257.4,376.4,257.4z"/>
	<g>
		<g>
			<circle id="bgnumber_4_" class="st1" cx="205.6" cy="270" r="4.2"/>
			<text transform="matrix(1 0 0 1 202.2868 272.1191)" class="st2 st3 st4 button" data-number="4">05</text>
		</g>
		<g>
			<circle id="bgnumber_12_" class="st1" cx="215.1" cy="270" r="4.2"/>
			<text transform="matrix(1 0 0 1 212.3015 272.1191)" class="st2 st3 st4 button" data-number="12">13</text>
		</g>
		<g>
			<circle id="bgnumber_20_" class="st1" cx="224.5" cy="270" r="4.2"/>
			<text transform="matrix(1 0 0 1 221.8454 272.1191)" class="st2 st3 st4 button" data-number="20">21</text>
		</g>
		<g>
			<circle id="bgnumber_28_" class="st1" cx="234" cy="270" r="4.2"/>
			<text transform="matrix(1 0 0 1 230.781 272.1191)" class="st2 st3 st4 button" data-number="28">29</text>
		</g>
	</g>
	<path class="st5" d="M237.7,279.9H202c-2,0-3.7-1.7-3.7-3.7v-12.2c0-2,1.7-3.7,3.7-3.7h35.7c2,0,3.7,1.7,3.7,3.7v12.2
		C241.4,278.2,239.7,279.9,237.7,279.9z"/>
	<g>
		<g>
			<circle id="bgnumber_5_" class="st1" cx="251.9" cy="270" r="4.2"/>
			<text transform="matrix(1 0 0 1 248.4409 272.1191)" class="st2 st3 st4 button" data-number="5">06</text>
		</g>
		<g>
			<circle id="bgnumber_13_" class="st1" cx="261.3" cy="270" r="4.2"/>
			<text transform="matrix(1 0 0 1 258.4828 272.1191)" class="st2 st3 st4 button" data-number="13">14</text>
		</g>
		<g>
			<circle id="bgnumber_21_" class="st1" cx="270.8" cy="270" r="4.2"/>
			<text transform="matrix(1 0 0 1 267.7192 272.1191)" class="st2 st3 st4 button" data-number="21">22</text>
		</g>
		<g>
			<circle id="bgnumber_29_" class="st1" cx="280.3" cy="270" r="4.2"/>
			<text transform="matrix(1 0 0 1 276.8666 272.1191)" class="st2 st3 st4 button" data-number="29">30</text>
		</g>
	</g>
	<path class="st5" d="M283.9,279.9h-35.7c-2,0-3.7-1.7-3.7-3.7v-12.2c0-2,1.7-3.7,3.7-3.7h35.7c2,0,3.7,1.7,3.7,3.7v12.2
		C287.6,278.2,286,279.9,283.9,279.9z"/>
	<g>
		<g>
			<circle id="bgnumber_6_" class="st1" cx="298.1" cy="270" r="4.2"/>
			<text transform="matrix(1 0 0 1 294.9749 272.1191)" class="st2 st3 st4 button" data-number="6">07</text>
		</g>
		<g>
			<circle id="bgnumber_14_" class="st1" cx="307.6" cy="270" r="4.2"/>
			<text transform="matrix(1 0 0 1 304.8802 272.1191)" class="st2 st3 st4 button" data-number="14">15</text>
		</g>
		<g>
			<circle id="bgnumber_22_" class="st1" cx="317.1" cy="270" r="4.2"/>
			<text transform="matrix(1 0 0 1 313.8939 272.1191)" class="st2 st3 st4 button" data-number="22">23</text>
		</g>
		<g>
			<circle id="bgnumber_30_" class="st1" cx="326.5" cy="270" r="4.2"/>
			<text transform="matrix(1 0 0 1 323.7396 272.1191)" class="st2 st3 st4 button" data-number="30">31</text>
		</g>
	</g>
	<path class="st5" d="M330.2,279.9h-35.7c-2,0-3.7-1.7-3.7-3.7v-12.2c0-2,1.7-3.7,3.7-3.7h35.7c2,0,3.7,1.7,3.7,3.7v12.2
		C333.9,278.2,332.2,279.9,330.2,279.9z"/>
	<g>
		<g>
			<circle id="bgnumber_7_" class="st1" cx="344.4" cy="270" r="4.2"/>
			<text transform="matrix(1 0 0 1 340.94 272.1191)" class="st2 st3 st4 button" data-number="7">08</text>
		</g>
		<g>
			<circle id="bgnumber_15_" class="st1" cx="353.9" cy="270" r="4.2"/>
			<text transform="matrix(1 0 0 1 351.0338 272.1191)" class="st2 st3 st4 button" data-number="15">16</text>
		</g>
		<g>
			<circle id="bgnumber_23_" class="st1" cx="363.3" cy="270" r="4.2"/>
			<text transform="matrix(1 0 0 1 360.0748 272.1191)" class="st2 st3 st4 button" data-number="23">24</text>
		</g>
		<g>
			<circle id="bgnumber_31_" class="st1" cx="372.8" cy="270" r="4.2"/>
			<text transform="matrix(1 0 0 1 369.6129 272.1191)" class="st2 st3 st4 button" data-number="31">32</text>
		</g>
	</g>
	<path class="st5" d="M376.4,279.9h-35.7c-2,0-3.7-1.7-3.7-3.7v-12.2c0-2,1.7-3.7,3.7-3.7h35.7c2,0,3.7,1.7,3.7,3.7v12.2
		C380.1,278.2,378.5,279.9,376.4,279.9z"/>
</g>
</svg>
