<?xml version="1.0" encoding="utf-8"?>
<!-- Generator: Adobe Illustrator 21.0.1, SVG Export Plug-In . SVG Version: 6.00 Build 0)  -->
<!DOCTYPE svg PUBLIC "-//W3C//DTD SVG 1.1//EN" "http://www.w3.org/Graphics/SVG/1.1/DTD/svg11.dtd">
<svg version="1.1" xmlns="http://www.w3.org/2000/svg" xmlns:xlink="http://www.w3.org/1999/xlink" x="0px" y="0px"
	 viewBox="0 0 360 406.7" style="enable-background:new 0 0 360 406.7;" xml:space="preserve">
<style type="text/css">
	.button{cursor: pointer}
	.st0{fill:#9E9D9C;}
	.st1{display:none;fill:none;stroke:#12100D;stroke-width:7.600000e-02;stroke-linecap:round;stroke-linejoin:round;}
	.st2{display:none;}
	.st3{display:inline;}

		.st4{display:inline;clip-path:url(#SVGID_2_);fill:none;stroke:#12100D;stroke-width:7.600000e-02;stroke-linecap:round;stroke-linejoin:round;}

		.st5{display:inline;clip-path:url(#SVGID_2_);fill:none;stroke:#12100D;stroke-width:1.066;stroke-linecap:round;stroke-linejoin:round;}
	.st6{display:none;fill:none;stroke:#12100D;stroke-width:1.066;stroke-linecap:round;stroke-linejoin:round;}

		.st7{display:inline;clip-path:url(#SVGID_4_);fill:none;stroke:#12100D;stroke-width:1.066;stroke-linecap:round;stroke-linejoin:round;}

		.st8{display:inline;clip-path:url(#SVGID_6_);fill:none;stroke:#12100D;stroke-width:1.066;stroke-linecap:round;stroke-linejoin:round;}
	.st9{fill:#FFFFFF;}
	.st10{fill:#29AEE4;}
	.st11{font-family:'BrixSansRegular';}
	.st12{font-size:10px;}
</style>
<g id="Ebene_2">
	<g>
		<path class="st0" d="M353.3,39.1C353.3,39.1,353.2,39.1,353.3,39.1l0-3.9c0,0,0,0,0-0.1c0,0,0,0,0-0.1c0-1.1,0-2.2,0-3.3
			c0-0.8-0.1-1.6-0.1-2.5c-0.1-0.8-0.2-1.5-0.3-2.3c-0.1-0.8-0.3-1.5-0.5-2.2c-0.4-1.5-1-2.9-1.7-4.2c-0.7-1.3-1.6-2.4-2.6-3.5
			c-0.5-0.5-1-1-1.6-1.5c-0.6-0.5-1.2-0.9-1.9-1.3c-1.3-0.8-2.7-1.5-4.2-2c-0.7-0.2-1.4-0.5-2.2-0.6c-0.7-0.2-1.5-0.3-2.3-0.4
			c-0.8-0.1-1.6-0.2-2.5-0.3c-1.1-0.1-2.2-0.1-3.3-0.2v0c0,0,0,0,0,0c-2-0.1-4.1-0.2-6.1-0.3c0,0,0,0-0.1-0.1
			c-0.3-0.3-0.8-0.2-1.1,0c-12.5-0.5-25-1-37.4-1.4c0,0,0,0,0,0c0,0,0,0,0,0c-8.5-0.3-17-0.6-25.6-0.8c-7.9-0.2-16-0.4-24.1-0.5
			c-9-0.1-18-0.2-27.1-0.3c-19.1-0.1-38.1-0.1-57.2,0c-9,0.1-18.1,0.2-27.1,0.3c-8.1,0.1-16.2,0.3-24.1,0.5
			c-8.5,0.2-17,0.5-25.6,0.8C59.9,9.6,44.9,10.2,30,10.8c0,0,0,0,0,0c-1.1,0-2.2,0.1-3.3,0.2c-0.8,0.1-1.6,0.1-2.5,0.3
			c-0.8,0.1-1.5,0.3-2.3,0.4c-0.7,0.2-1.5,0.4-2.2,0.6c-1.5,0.5-2.9,1.2-4.2,2c-0.7,0.4-1.3,0.9-1.9,1.3c-0.6,0.5-1.1,1-1.6,1.5
			c-1,1-1.8,2.2-2.6,3.5c-0.7,1.3-1.3,2.7-1.7,4.2c-0.2,0.7-0.4,1.4-0.5,2.2C7.1,27.7,7,28.5,7,29.2c-0.1,0.8-0.1,1.6-0.1,2.5
			c0,1,0,2.1,0,3.1c0,0.1-0.1,0.2-0.1,0.3c0,0.1,0,0.2,0.1,0.2v336.1c0,0,0,0,0,0s0,0,0,0v0.2c0,1.1,0,2.2,0,3.3c0,0.1,0,0.3,0,0.4
			c0.1,4.3,0.8,8.2,3.6,12c0.5,0.7,1.1,1.5,1.7,2.1c0.5,0.5,1,1,1.6,1.5c0.6,0.5,1.2,0.9,1.9,1.3c1.3,0.8,2.7,1.5,4.2,2
			c0.7,0.2,1.4,0.5,2.2,0.6c0.7,0.2,1.5,0.3,2.3,0.4c0.8,0.1,1.6,0.2,2.5,0.3c1.1,0.1,2.1,0.1,3.2,0.2l0,0c0,0,0.1,0,0.1,0
			c1.9,0.1,3.9,0.2,5.9,0.2c0,0,0,0,0,0c0.2,0.1,0.4,0.2,0.6,0.2c0.2,0,0.4-0.1,0.5-0.2c12.6,0.5,25.2,1,37.7,1.4c0,0,0,0,0,0
			c0,0,0,0,0,0c8.5,0.3,17,0.6,25.5,0.8c7.7,0.2,15.6,0.4,24.1,0.5c9,0.1,18.1,0.2,27.1,0.3c9.5,0.1,19.1,0.1,28.6,0.1
			c9.5,0,19.1,0,28.6-0.1c9-0.1,18-0.2,27.1-0.3c8.5-0.1,16.4-0.3,24.1-0.5c8.5-0.2,17-0.5,25.5-0.8c0,0,0,0,0,0c0,0,0,0,0,0
			c12.4-0.4,25-0.9,37.5-1.4c0.2,0.1,0.3,0.2,0.5,0.2c0.2,0,0.4-0.1,0.6-0.2c0,0,0,0,0,0c2-0.1,4.1-0.2,6.1-0.3c0,0,0,0,0.1,0
			c0,0,0,0,0,0c0,0,0,0,0,0c1.1,0,2.1-0.1,3.2-0.2c0.8-0.1,1.6-0.1,2.5-0.3c0.8-0.1,1.5-0.3,2.3-0.4c0.7-0.2,1.5-0.4,2.2-0.6
			c1.5-0.5,2.9-1.2,4.2-2c0.7-0.4,1.3-0.9,1.9-1.3c0.6-0.5,1.1-0.9,1.6-1.5c1-1,1.8-2.2,2.6-3.4c0.7-1.3,1.3-2.7,1.8-4.2
			c0.2-0.7,0.4-1.4,0.5-2.2c0.1-0.8,0.2-1.5,0.3-2.3c0.1-0.8,0.1-1.6,0.1-2.5c0-1.1,0-2.2,0-3.5h0c0,0,0,0,0,0V39.9
			C353.4,39.7,353.4,39.4,353.3,39.1z M8.6,31.8c0-0.8,0.1-1.6,0.1-2.4c0.1-0.7,0.2-1.4,0.3-2.1c0.1-0.7,0.3-1.4,0.5-2
			c0.4-1.3,0.9-2.6,1.6-3.8c0.6-1.1,1.4-2.2,2.3-3.1c0.4-0.5,0.9-0.9,1.4-1.3c0.5-0.4,1.1-0.8,1.7-1.2c1.2-0.7,2.5-1.3,3.8-1.8
			c0.7-0.2,1.3-0.4,2-0.6c0.7-0.2,1.4-0.3,2.1-0.4c0.8-0.1,1.6-0.2,2.3-0.3c1.1-0.1,2.2-0.1,3.3-0.2c0,0,0,0,0,0
			C44.9,12,60,11.4,74.8,10.9c8.5-0.3,17-0.6,25.5-0.8c7.9-0.2,16-0.4,24-0.5c9-0.1,18-0.2,27.1-0.3c19-0.1,38.1-0.1,57.1,0
			c9,0.1,18,0.2,27.1,0.3c8.1,0.1,16.2,0.3,24,0.5c8.5,0.2,17,0.5,25.5,0.8c0,0,0,0,0,0c14.8,0.5,29.8,1.1,44.7,1.7c0,0,0,0,0,0
			c1.1,0,2.2,0.1,3.3,0.2c0.8,0.1,1.6,0.1,2.4,0.3c0.7,0.1,1.4,0.2,2.1,0.4c0.7,0.2,1.3,0.4,2,0.6c1.4,0.5,2.7,1.1,3.8,1.8
			c0.6,0.4,1.2,0.8,1.7,1.2c0.5,0.4,1,0.8,1.4,1.3c0.9,0.9,1.6,2,2.3,3.1c0.7,1.2,1.2,2.4,1.6,3.8c0.2,0.7,0.3,1.3,0.5,2
			c0.1,0.7,0.2,1.4,0.3,2.1c0.1,0.8,0.1,1.6,0.1,2.4c0,0.9,0,1.8,0,2.7c-0.2,0.2-0.3,0.4-0.3,0.6v336.3c0,6.3,0,11.7-4.8,16.8
			c-2.1,2.1-4.4,3.5-7.5,4.5c-3,0.9-6,1-9,1.2c-14.6,0.6-29.6,1.2-44.7,1.7c-0.2,0-0.4,0.1-0.5,0.2c-8.3,0.3-16.6,0.5-24.9,0.8
			c-7.7,0.2-15.6,0.4-24,0.5c-9,0.1-18,0.2-27.1,0.3c-19,0.1-38.1,0.1-57.1,0c-9-0.1-18-0.2-27.1-0.3c-8.5-0.1-16.4-0.3-24-0.5
			c-8.4-0.2-16.8-0.5-25.2-0.8c-0.1-0.1-0.3-0.2-0.5-0.2c-15.1-0.5-30.1-1.1-44.7-1.7c-2.9-0.1-6-0.3-9-1.2c-3.2-1-5.5-2.3-7.5-4.5
			c-0.7-0.7-1.2-1.4-1.7-2.1c-0.2-0.3-0.4-0.6-0.6-0.9c0,0,0,0,0,0c-0.7-1.2-1.2-2.4-1.6-3.7c-0.2-0.7-0.4-1.3-0.5-2
			c-0.1-0.7-0.2-1.4-0.3-2.1c0,0,0-0.1,0-0.1c-0.1-0.6-0.1-1.1-0.1-1.7c-0.1-1.3-0.1-2.7-0.1-4.1c0,0,0,0,0,0V35.1c0,0,0,0,0-0.1V35
			C8.6,33.9,8.6,32.8,8.6,31.8z"/>
		<path class="st0" d="M48.8,119.5C48.8,119.5,48.8,119.5,48.8,119.5l13.9,0c0,0,0,0,0,0c0.8,0,1.4-0.3,1.9-0.8
			c0.5-0.5,0.8-1.1,0.8-1.9c0-1.2-0.9-2.3-2.1-2.5c-0.2-0.1-0.4-0.1-0.6-0.1H48.8c-1.5,0-2.6,1.2-2.6,2.6
			C46.1,118.3,47.3,119.5,48.8,119.5z M47,115.1c-0.4,0.5-0.7,1.1-0.7,1.8c0,1.1,0.6,2,1.6,2.4c-0.9-0.4-1.6-1.3-1.6-2.3
			C46.3,116.2,46.6,115.5,47,115.1z"/>
		<path class="st0" d="M48.8,145.5h13.9c0.2,0,0.4,0,0.6-0.1c1.2-0.2,2.1-1.3,2.1-2.5c0-0.6-0.2-1.1-0.5-1.5
			c-0.5-0.7-1.3-1.2-2.2-1.2H48.8c-1.5,0-2.6,1.2-2.6,2.6C46.1,144.3,47.3,145.5,48.8,145.5z M48.4,140.4c-1.2,0.2-2,1.3-2,2.5
			c0,0.5,0.2,1,0.4,1.4c-0.3-0.4-0.5-0.9-0.5-1.5C46.3,141.6,47.2,140.6,48.4,140.4z"/>
		<path class="st0" d="M48.8,171.5h13.9c0.2,0,0.4,0,0.5-0.1c1.2-0.2,2.2-1.3,2.2-2.5c0-0.6-0.2-1.1-0.5-1.5
			c-0.5-0.7-1.3-1.2-2.2-1.2H48.8c-1.5,0-2.6,1.2-2.6,2.6C46.1,170.3,47.3,171.5,48.8,171.5z M48.3,166.4c-1.2,0.3-2,1.3-2,2.5
			c0,0.5,0.2,1,0.4,1.4c-0.3-0.4-0.5-0.9-0.5-1.5C46.3,167.6,47.2,166.6,48.3,166.4z"/>
		<path class="st0" d="M48.8,197.5h13.9c0.8,0,1.4-0.3,1.9-0.8c0.5-0.5,0.8-1.1,0.8-1.9c0-1.2-0.9-2.3-2.1-2.5
			c-0.2-0.1-0.4-0.1-0.6-0.1H48.8c-1.5,0-2.6,1.2-2.6,2.6C46.1,196.3,47.3,197.5,48.8,197.5z M47,193.1c-0.4,0.5-0.7,1.1-0.7,1.8
			c0,1.1,0.6,2,1.6,2.4c-0.9-0.4-1.6-1.3-1.6-2.3C46.3,194.2,46.6,193.5,47,193.1z"/>
		<path class="st0" d="M48.8,223.5h13.9c0.7,0,1.4-0.3,1.9-0.8c0.5-0.5,0.8-1.1,0.8-1.9c0-1.2-0.9-2.3-2.1-2.5
			c-0.2-0.1-0.4-0.1-0.6-0.1H48.8c-1.5,0-2.6,1.2-2.6,2.6C46.1,222.3,47.3,223.5,48.8,223.5z M47,219.1c-0.4,0.5-0.7,1.1-0.7,1.8
			c0,1.1,0.6,2,1.6,2.4c-0.9-0.4-1.6-1.3-1.6-2.3C46.3,220.2,46.6,219.5,47,219.1z"/>
		<path class="st0" d="M48.8,249.5h13.9c0.8,0,1.4-0.3,1.9-0.8c0.5-0.5,0.8-1.1,0.8-1.9c0-1.1-0.7-2-1.7-2.4c-0.3-0.1-0.7-0.2-1-0.2
			H48.8c-1.5,0-2.6,1.2-2.6,2.6C46.1,248.3,47.3,249.5,48.8,249.5z M47,245.1c-0.4,0.5-0.7,1.1-0.7,1.8c0,1.1,0.6,2,1.6,2.4
			c-0.9-0.4-1.6-1.3-1.6-2.3C46.3,246.2,46.6,245.5,47,245.1z"/>
		<path class="st0" d="M48.8,275.5h13.9c0.2,0,0.4,0,0.5-0.1c1.2-0.2,2.2-1.3,2.2-2.5c0-0.6-0.2-1.1-0.5-1.5
			c-0.5-0.7-1.3-1.2-2.2-1.2H48.8c-1.5,0-2.6,1.2-2.6,2.6C46.1,274.3,47.3,275.5,48.8,275.5z M48.3,270.4c-1.2,0.3-2,1.3-2,2.5
			c0,0.5,0.2,1,0.4,1.4c-0.3-0.4-0.5-0.9-0.5-1.5C46.3,271.7,47.2,270.6,48.3,270.4z"/>
		<path class="st0" d="M48.8,301.5h13.9c0.2,0,0.4,0,0.6-0.1c1.2-0.2,2.1-1.3,2.1-2.5c0-0.6-0.2-1.1-0.5-1.5
			c-0.5-0.7-1.3-1.2-2.2-1.2H48.8c-1.5,0-2.6,1.2-2.6,2.6C46.1,300.4,47.3,301.5,48.8,301.5z M48.3,296.4c-1.2,0.3-2,1.3-2,2.5
			c0,0.5,0.2,1,0.4,1.4c-0.3-0.4-0.5-0.9-0.5-1.5C46.3,297.7,47.2,296.6,48.3,296.4z"/>
		<path class="st0" d="M48.8,93.5C48.8,93.5,48.8,93.5,48.8,93.5l13.9,0c0,0,0,0,0,0c0.4,0,0.8-0.1,1.1-0.3c0.9-0.4,1.6-1.3,1.6-2.4
			c0-0.9-0.5-1.7-1.2-2.1c-0.4-0.3-1-0.5-1.5-0.5c0,0,0,0,0,0H48.8c-1.5,0-2.6,1.2-2.6,2.6C46.1,92.3,47.3,93.5,48.8,93.5z
			 M47.5,88.7c-0.7,0.5-1.1,1.2-1.1,2.1c0,0.9,0.4,1.6,1.1,2.1c-0.7-0.5-1.1-1.2-1.1-2.1C46.3,90,46.7,89.2,47.5,88.7z"/>
		<path class="st0" d="M46.3,98h19.1c3.9,0,7.1-3.2,7.1-7.1c0-3.9-3.2-7.1-7.1-7.1H46.3c-3.9,0-7.1,3.2-7.1,7.1
			C39.2,94.8,42.4,98,46.3,98z M46.3,85.1h19.1c3.2,0,5.8,2.6,5.8,5.8s-2.6,5.8-5.8,5.8H46.3c-3.2,0-5.8-2.6-5.8-5.8
			S43.1,85.1,46.3,85.1z"/>
		<path class="st0" d="M46.3,123.8h19.1c3.9,0,7.1-3.2,7.1-7.1c0-3.9-3.2-7.1-7.1-7.1H46.3c-3.9,0-7.1,3.2-7.1,7.1
			C39.2,120.6,42.4,123.8,46.3,123.8z M46.3,110.9h19.1c3.2,0,5.8,2.6,5.8,5.8s-2.6,5.8-5.8,5.8H46.3c-3.2,0-5.8-2.6-5.8-5.8
			S43.1,110.9,46.3,110.9z"/>
		<path class="st0" d="M46.3,149.9h19.1c3.9,0,7.1-3.2,7.1-7.1c0-3.9-3.2-7.1-7.1-7.1H46.3c-3.9,0-7.1,3.2-7.1,7.1
			C39.2,146.7,42.4,149.9,46.3,149.9z M46.3,137h19.1c3.2,0,5.8,2.6,5.8,5.8c0,3.2-2.6,5.8-5.8,5.8H46.3c-3.2,0-5.8-2.6-5.8-5.8
			C40.6,139.6,43.1,137,46.3,137z"/>
		<path class="st0" d="M46.3,175.9h19.1c3.9,0,7.1-3.2,7.1-7.1s-3.2-7.1-7.1-7.1H46.3c-3.9,0-7.1,3.2-7.1,7.1S42.4,175.9,46.3,175.9
			z M46.3,163.1h19.1c3.2,0,5.8,2.6,5.8,5.8s-2.6,5.8-5.8,5.8H46.3c-3.2,0-5.8-2.6-5.8-5.8S43.1,163.1,46.3,163.1z"/>
		<path class="st0" d="M46.3,202h19.1c3.9,0,7.1-3.2,7.1-7.1s-3.2-7.1-7.1-7.1H46.3c-3.9,0-7.1,3.2-7.1,7.1S42.4,202,46.3,202z
			 M46.3,189.1h19.1c3.2,0,5.8,2.6,5.8,5.8s-2.6,5.8-5.8,5.8H46.3c-3.2,0-5.8-2.6-5.8-5.8S43.1,189.1,46.3,189.1z"/>
		<path class="st0" d="M46.3,228.1h19.1c3.9,0,7.1-3.2,7.1-7.1c0-3.9-3.2-7.1-7.1-7.1H46.3c-3.9,0-7.1,3.2-7.1,7.1
			C39.2,224.9,42.4,228.1,46.3,228.1z M46.3,215.2h19.1c3.2,0,5.8,2.6,5.8,5.8s-2.6,5.8-5.8,5.8H46.3c-3.2,0-5.8-2.6-5.8-5.8
			S43.1,215.2,46.3,215.2z"/>
		<path class="st0" d="M46.3,254.1h19.1c3.9,0,7.1-3.2,7.1-7.1c0-3.9-3.2-7.1-7.1-7.1H46.3c-3.9,0-7.1,3.2-7.1,7.1
			C39.2,250.9,42.4,254.1,46.3,254.1z M46.3,241.2h19.1c3.2,0,5.8,2.6,5.8,5.8c0,3.2-2.6,5.8-5.8,5.8H46.3c-3.2,0-5.8-2.6-5.8-5.8
			C40.6,243.8,43.1,241.2,46.3,241.2z"/>
		<path class="st0" d="M46.3,280.2h19.1c3.9,0,7.1-3.2,7.1-7.1c0-3.9-3.2-7.1-7.1-7.1H46.3c-3.9,0-7.1,3.2-7.1,7.1
			C39.2,277,42.4,280.2,46.3,280.2z M46.3,267.3h19.1c3.2,0,5.8,2.6,5.8,5.8c0,3.2-2.6,5.8-5.8,5.8H46.3c-3.2,0-5.8-2.6-5.8-5.8
			C40.6,269.9,43.1,267.3,46.3,267.3z"/>
		<path class="st0" d="M46.3,306h19.1c3.9,0,7.1-3.2,7.1-7.1c0-3.9-3.2-7.1-7.1-7.1H46.3c-3.9,0-7.1,3.2-7.1,7.1
			C39.2,302.8,42.4,306,46.3,306z M46.3,293.1h19.1c3.2,0,5.8,2.6,5.8,5.8c0,3.2-2.6,5.8-5.8,5.8H46.3c-3.2,0-5.8-2.6-5.8-5.8
			C40.6,295.6,43.1,293.1,46.3,293.1z"/>
		<path class="st0" d="M296.9,131.8C296.9,131.8,296.9,131.8,296.9,131.8l13.9,0c0,0,0,0,0,0c0.8,0,1.4-0.3,1.9-0.8
			c0.5-0.5,0.8-1.1,0.8-1.9c0-1.1-0.7-2-1.7-2.4c-0.3-0.1-0.7-0.2-1-0.2h-13.9c-1.5,0-2.6,1.2-2.6,2.6
			C294.3,130.6,295.5,131.8,296.9,131.8z M295.2,127.4c-0.4,0.5-0.7,1.1-0.7,1.8c0,1.1,0.6,2,1.6,2.4c-1-0.4-1.6-1.3-1.6-2.3
			C294.4,128.5,294.7,127.8,295.2,127.4z"/>
		<path class="st0" d="M296.9,157.8C296.9,157.8,296.9,157.8,296.9,157.8l13.9,0c0,0,0,0,0,0c0.2,0,0.4,0,0.5-0.1
			c1.2-0.2,2.2-1.3,2.2-2.5c0-0.6-0.2-1.1-0.5-1.5c-0.5-0.7-1.3-1.2-2.2-1.2h-13.9c-1.5,0-2.6,1.2-2.6,2.6
			C294.3,156.6,295.5,157.8,296.9,157.8z M296.5,152.7c-1.2,0.3-2,1.3-2,2.5c0,0.5,0.2,1,0.4,1.4c-0.3-0.4-0.5-0.9-0.5-1.5
			C294.4,153.9,295.3,152.9,296.5,152.7z"/>
		<path class="st0" d="M296.9,183.8h13.9c0.2,0,0.4,0,0.5-0.1c1.2-0.2,2.2-1.3,2.2-2.5c0-0.6-0.2-1.1-0.5-1.5
			c-0.5-0.7-1.3-1.2-2.2-1.2h-13.9c-1.5,0-2.6,1.2-2.6,2.6C294.3,182.6,295.5,183.8,296.9,183.8z M296.5,178.7c-1.2,0.3-2,1.3-2,2.5
			c0,0.5,0.2,1,0.4,1.4c-0.3-0.4-0.5-0.9-0.5-1.5C294.4,179.9,295.3,178.9,296.5,178.7z"/>
		<path class="st0" d="M296.9,209.8h13.9c0.7,0,1.4-0.3,1.9-0.8c0.5-0.5,0.8-1.1,0.8-1.9c0-1.2-0.9-2.3-2.1-2.5
			c-0.2-0.1-0.4-0.1-0.6-0.1h-13.9c-1.5,0-2.6,1.2-2.6,2.6C294.3,208.6,295.5,209.8,296.9,209.8z M295.2,205.4
			c-0.4,0.5-0.7,1.1-0.7,1.8c0,1.1,0.6,2,1.6,2.4c-0.9-0.4-1.6-1.3-1.6-2.3C294.4,206.5,294.7,205.8,295.2,205.4z"/>
		<path class="st0" d="M296.9,235.8h13.9c0.7,0,1.4-0.3,1.9-0.8c0.5-0.5,0.8-1.1,0.8-1.9c0-1.2-0.9-2.3-2.1-2.5
			c-0.2-0.1-0.4-0.1-0.6-0.1h-13.9c-1.5,0-2.6,1.2-2.6,2.6S295.5,235.8,296.9,235.8z M295.2,231.4c-0.4,0.5-0.7,1.1-0.7,1.8
			c0,1.1,0.6,2,1.6,2.4c-0.9-0.4-1.6-1.3-1.6-2.3C294.4,232.5,294.7,231.8,295.2,231.4z"/>
		<path class="st0" d="M296.9,261.8C296.9,261.8,296.9,261.8,296.9,261.8l13.9,0c0,0,0,0,0,0c0.8,0,1.4-0.3,1.9-0.8
			c0.5-0.5,0.8-1.1,0.8-1.9c0-1.1-0.7-2-1.7-2.4c-0.3-0.1-0.7-0.2-1-0.2h-13.9c-1.5,0-2.6,1.2-2.6,2.6
			C294.3,260.6,295.5,261.8,296.9,261.8z M295.2,257.4c-0.4,0.5-0.7,1.1-0.7,1.8c0,1.1,0.6,2,1.6,2.4c-0.9-0.4-1.6-1.3-1.6-2.3
			C294.4,258.5,294.7,257.8,295.2,257.4z"/>
		<path class="st0" d="M296.9,287.8h13.9c0.2,0,0.4,0,0.5-0.1c1.2-0.2,2.2-1.3,2.2-2.5c0-0.6-0.2-1.1-0.5-1.5
			c-0.5-0.7-1.3-1.2-2.2-1.2h-13.9c-1.5,0-2.6,1.2-2.6,2.6C294.3,286.7,295.5,287.8,296.9,287.8z M296.5,282.7c-1.2,0.3-2,1.3-2,2.5
			c0,0.5,0.2,1,0.4,1.4c-0.3-0.4-0.5-0.9-0.5-1.5C294.4,284,295.3,282.9,296.5,282.7z"/>
		<path class="st0" d="M296.9,313.8C296.9,313.8,296.9,313.8,296.9,313.8l13.9,0c0,0,0,0,0,0c0.2,0,0.4,0,0.6-0.1
			c1.2-0.2,2.1-1.3,2.1-2.5c0-0.6-0.2-1.1-0.5-1.5c-0.5-0.7-1.3-1.2-2.2-1.2h-13.9c-1.5,0-2.6,1.2-2.6,2.6
			C294.3,312.7,295.5,313.8,296.9,313.8z M296.5,308.7c-1.2,0.3-2,1.3-2,2.5c0,0.5,0.2,1,0.4,1.4c-0.3-0.4-0.5-0.9-0.5-1.5
			C294.4,310,295.3,308.9,296.5,308.7z"/>
		<path class="st0" d="M296.9,105.8C296.9,105.8,296.9,105.8,296.9,105.8l13.9,0c0,0,0,0,0,0c0.5,0,1.1-0.2,1.5-0.5
			c0.7-0.5,1.2-1.3,1.2-2.2c0-0.9-0.5-1.7-1.2-2.2c-0.4-0.3-1-0.5-1.5-0.5c0,0,0,0,0,0h-13.9c-1.5,0-2.6,1.2-2.6,2.6
			C294.3,104.6,295.5,105.8,296.9,105.8z M295.6,101.1c-0.7,0.5-1.1,1.2-1.1,2.1c0,0.9,0.4,1.6,1.1,2.1c-0.7-0.5-1.1-1.2-1.1-2.1
			C294.4,102.3,294.9,101.5,295.6,101.1z"/>
		<path class="st0" d="M294.5,110.3h19.1c3.9,0,7.1-3.2,7.1-7.1s-3.2-7.1-7.1-7.1h-19.1c-3.9,0-7.1,3.2-7.1,7.1
			S290.5,110.3,294.5,110.3z M294.5,97.4h19.1c3.2,0,5.8,2.6,5.8,5.8s-2.6,5.8-5.8,5.8h-19.1c-3.2,0-5.8-2.6-5.8-5.8
			S291.3,97.4,294.5,97.4z"/>
		<path class="st0" d="M294.5,136.1h19.1c0,0,0,0,0,0c3.9,0,7.1-3.2,7.1-7.1c0-3.9-3.2-7.1-7.1-7.1c0,0,0,0,0,0h-19.1
			c-3.9,0-7.1,3.2-7.1,7.1C287.3,132.9,290.5,136.1,294.5,136.1z M294.5,123.2h19.1c3.2,0,5.8,2.6,5.8,5.8s-2.6,5.8-5.8,5.8h-19.1
			c-3.2,0-5.8-2.6-5.8-5.8S291.3,123.2,294.5,123.2z"/>
		<path class="st0" d="M294.5,162.2h19.1c0,0,0,0,0,0c3.9,0,7.1-3.2,7.1-7.1c0-3.9-3.2-7.1-7.1-7.1c0,0,0,0,0,0h-19.1
			c-3.9,0-7.1,3.2-7.1,7.1C287.3,159,290.5,162.2,294.5,162.2z M294.5,149.3h19.1c3.2,0,5.8,2.6,5.8,5.8c0,3.2-2.6,5.8-5.8,5.8
			h-19.1c-3.2,0-5.8-2.6-5.8-5.8C288.7,151.9,291.3,149.3,294.5,149.3z"/>
		<path class="st0" d="M294.5,188.3h19.1c0,0,0,0,0,0c3.9,0,7.1-3.2,7.1-7.1c0-3.9-3.2-7.1-7.1-7.1c0,0,0,0,0,0h-19.1
			c-3.9,0-7.1,3.2-7.1,7.1C287.3,185.1,290.5,188.3,294.5,188.3z M294.5,175.4h19.1c3.2,0,5.8,2.6,5.8,5.8s-2.6,5.8-5.8,5.8h-19.1
			c-3.2,0-5.8-2.6-5.8-5.8S291.3,175.4,294.5,175.4z"/>
		<path class="st0" d="M294.5,214.3h19.1c0,0,0,0,0,0c3.9,0,7.1-3.2,7.1-7.1c0-3.9-3.2-7.1-7.1-7.1c0,0,0,0,0,0h-19.1
			c-3.9,0-7.1,3.2-7.1,7.1C287.3,211.1,290.5,214.3,294.5,214.3z M294.5,201.4h19.1c3.2,0,5.8,2.6,5.8,5.8c0,3.2-2.6,5.8-5.8,5.8
			h-19.1c-3.2,0-5.8-2.6-5.8-5.8C288.7,204,291.3,201.4,294.5,201.4z"/>
		<path class="st0" d="M294.5,240.4h19.1c0,0,0,0,0,0c3.9,0,7.1-3.2,7.1-7.1c0-3.9-3.2-7.1-7.1-7.1c0,0,0,0,0,0h-19.1
			c-3.9,0-7.1,3.2-7.1,7.1C287.3,237.2,290.5,240.4,294.5,240.4z M294.5,227.5h19.1c3.2,0,5.8,2.6,5.8,5.8c0,3.2-2.6,5.8-5.8,5.8
			h-19.1c-3.2,0-5.8-2.6-5.8-5.8C288.7,230,291.3,227.5,294.5,227.5z"/>
		<path class="st0" d="M294.5,266.4h19.1c0,0,0,0,0,0c3.9,0,7.1-3.2,7.1-7.1c0-3.9-3.2-7.1-7.1-7.1c0,0,0,0,0,0h-19.1
			c-3.9,0-7.1,3.2-7.1,7.1S290.5,266.4,294.5,266.4z M294.5,253.5h19.1c3.2,0,5.8,2.6,5.8,5.8s-2.6,5.8-5.8,5.8h-19.1
			c-3.2,0-5.8-2.6-5.8-5.8S291.3,253.5,294.5,253.5z"/>
		<path class="st0" d="M294.5,292.5C294.5,292.5,294.5,292.5,294.5,292.5l19.1,0c0,0,0,0,0,0c3.9,0,7.1-3.2,7.1-7.1
			c0-3.9-3.2-7.1-7.1-7.1c0,0,0,0,0,0h-19.1c-3.9,0-7.1,3.2-7.1,7.1C287.3,289.3,290.5,292.5,294.5,292.5z M294.5,279.6h19.1
			c3.2,0,5.8,2.6,5.8,5.8c0,3.2-2.6,5.8-5.8,5.8c0,0,0,0,0,0h-19.1c0,0,0,0,0,0c-3.2,0-5.8-2.6-5.8-5.8
			C288.7,282.2,291.3,279.6,294.5,279.6z"/>
		<path class="st0" d="M294.5,318.3h19.1c0,0,0,0,0,0c3.9,0,7.1-3.2,7.1-7.1c0-3.9-3.2-7.1-7.1-7.1c0,0,0,0,0,0h-19.1
			c-3.9,0-7.1,3.2-7.1,7.1C287.3,315.1,290.5,318.3,294.5,318.3z M294.5,305.4h19.1c3.2,0,5.8,2.6,5.8,5.8c0,3.2-2.6,5.8-5.8,5.8
			h-19.1c-3.2,0-5.8-2.6-5.8-5.8C288.7,308,291.3,305.4,294.5,305.4z"/>
		<path class="st0" d="M352.4,12.3c-3-3.2-6.5-5.5-10.9-7.1c-4.4-1.6-8.7-1.9-12.8-2c0,0,0,0,0,0c0,0,0,0,0,0
			c-14-0.6-28.7-1.2-43.6-1.7c-0.1,0-0.2,0-0.3,0.1c-64.9-2.2-145.4-2.2-210.2,0c0,0,0,0,0,0c-14.6,0.5-29.2,1-43.4,1.7
			c-0.1,0-0.1-0.1-0.2-0.1c-4.1,0.2-8.4,0.5-12.8,2C14,6.8,10.6,9.1,7.6,12.3C0.6,19.9,0,27.8,0,36.5c0,0,0,0,0,0v333.6c0,0,0,0,0,0
			c0,8.8,0.6,16.7,7.6,24.2c3,3.3,6.5,5.5,10.9,7.1c4.4,1.6,8.7,1.9,12.8,2h0c14.1,0.6,28.8,1.2,43.6,1.7c0,0,0,0,0,0c0,0,0,0,0,0
			c32.5,1.1,68.9,1.7,105.2,1.7c36.4,0,72.8-0.6,105.2-1.7c0,0,0,0,0,0c0,0,0,0,0,0c14.8-0.5,29.4-1.1,43.6-1.7c0,0,0,0,0,0
			c4.1-0.2,8.4-0.5,12.8-2c4.4-1.6,7.8-3.8,10.9-7.1c7-7.5,7.6-15.4,7.6-24.2l0,0V36.5C360,27.8,359.4,19.9,352.4,12.3z
			 M351.8,393.7c-2.9,3.1-6.2,5.3-10.5,6.8c-4.2,1.5-8.5,1.8-12.5,2c0,0,0,0,0,0s0,0,0,0c-14.1,0.6-28.7,1.2-43.5,1.7c0,0,0,0,0,0
			c-64.9,2.2-145.6,2.2-210.5,0c0,0,0,0,0,0c-14.8-0.5-29.4-1.1-43.5-1.7c0,0,0,0,0,0c0,0,0,0,0,0c-4-0.2-8.3-0.5-12.5-2
			c-4.2-1.5-7.6-3.7-10.5-6.8c-6.8-7.3-7.3-15-7.3-23.6c0,0,0,0,0,0V36.5c0,0,0,0,0,0C0.9,28,1.5,20.2,8.2,13
			c2.9-3.1,6.3-5.3,10.5-6.8c4.3-1.5,8.5-1.8,12.5-2c0.1,0,0.1,0,0.2-0.1c14.2-0.6,28.7-1.2,43.4-1.7c0,0,0,0,0,0c0,0,0,0,0,0
			c64.9-2.2,145.4-2.2,210.3,0c0.1,0,0.1,0.1,0.2,0.1c14.8,0.5,29.5,1.1,43.5,1.7c0,0,0,0,0,0c4,0.2,8.3,0.5,12.5,2
			c4.2,1.5,7.6,3.7,10.5,6.8c6.8,7.3,7.3,15,7.3,23.6v333.6C359.1,378.7,358.5,386.4,351.8,393.7z"/>
		<path class="st0" d="M115,297.9h-0.1c0,0,0,0,0,0c0,0,0,0,0,0s0,0,0,0H85.2c-0.7,0-1,0.4-1,1c0,0.7,0.4,1,1,1c0,0,0,0,0,0s0,0,0,0
			h29.7c0,0,0,0,0,0c0,0,0,0,0,0l0.3,0c0,0,0,0,0,0v22.7c0,0,0,0,0,0c0,1.9,1.6,3.5,3.5,3.5h122.6c1.9,0,3.5-1.6,3.5-3.5V313
			c0,0,0.1,0,0.1,0s0.1,0,0.1,0l0.1,0h29.7c0.7,0,1-0.4,1-1c0-0.7-0.4-1-1-1c0,0,0,0,0,0h-29.7c0,0,0,0,0,0c0,0,0,0,0,0l-0.4,0V287
			c0.1,0,0.2,0,0.2,0c0,0,0,0,0.1,0l0,0c0,0,0,0,0.1,0h29.7c0.7,0,1-0.4,1-1c0-0.7-0.4-1-1-1h-29.7c0,0,0,0,0,0c0,0,0,0,0,0l-0.3,0
			V261c0.1,0,0.1,0,0.2,0c0,0,0.1,0,0.1,0l0,0c0,0,0,0,0.1,0h29.7c0.7,0,1-0.4,1-1c0-0.7-0.4-1-1-1h-29.7c0,0,0,0,0,0c0,0,0,0,0,0
			l-0.4,0v-23.9c0.1,0,0.3,0,0.4,0h29.7c0.7,0,1-0.4,1-1c0-0.7-0.4-1-1-1h-29.7c0,0,0,0,0,0c0,0,0,0,0,0l-0.3,0v-23.9l0.3,0l0,0
			c0,0,0.1,0,0.1,0h29.7c0.7,0,1-0.4,1-1c0-0.7-0.4-1-1-1h-29.7c0,0,0,0,0,0c0,0,0,0,0,0c-0.1,0-0.2,0-0.4,0v-23.9
			c0.1,0,0.2,0,0.2,0c0,0,0,0,0.1,0l0,0c0,0,0,0,0.1,0h29.7c0.7,0,1-0.4,1-1c0-0.7-0.4-1-1-1h-29.7c0,0,0,0,0,0c0,0,0,0,0,0l-0.3,0
			v-23.9l0.3,0l0,0c0,0,0.1,0,0.1,0h29.7c0.7,0,1-0.4,1-1c0-0.7-0.4-1-1-1h-29.7c0,0,0,0,0,0c0,0,0,0,0,0c-0.1,0-0.2,0-0.3,0v-23.9
			c0.1,0,0.2,0,0.2,0c0,0,0,0,0.1,0l0,0c0,0,0,0,0.1,0h29.7c0.7,0,1-0.4,1-1c0-0.7-0.4-1-1-1h-29.7c0,0,0,0,0,0c0,0,0,0,0,0
			c-0.1,0-0.2,0-0.3,0v-23.9c0.1,0,0.3,0,0.4,0h29.7c0.7,0,1-0.4,1-1c0-0.7-0.4-1-1-1h-29.7c0,0,0,0,0,0c0,0,0,0,0,0l-0.3,0V80.1
			c0-1.9-1.6-3.5-3.5-3.5H118.7c-1.9,0-3.5,1.6-3.5,3.5c0,0,0,0,0,0v9.8c-0.1,0-0.2,0-0.3,0h-0.1c0,0,0,0,0,0s0,0,0,0H85.2
			c-0.7,0-1,0.4-1,1c0,0.7,0.4,1,1,1c0,0,0,0,0,0s0,0,0,0h29.7c0,0,0,0,0,0c0,0,0,0,0,0l0.3,0v23.9c0,0,0,0,0,0l-0.4,0c0,0,0,0,0,0
			s0,0,0,0H85.2c-0.7,0-1,0.4-1,1c0,0.7,0.4,1,1,1c0,0,0,0,0,0s0,0,0,0h29.7c0.1,0,0.3,0,0.4,0c0,0,0,0,0,0v23.9c-0.1,0-0.2,0-0.3,0
			h-0.1c0,0,0,0,0,0H85.2c0,0,0,0,0,0c-0.7,0-1,0.4-1,1c0,0.7,0.4,1,1,1c0,0,0,0,0,0s0,0,0,0h29.7c0,0,0,0,0,0c0,0,0,0,0,0l0.3,0
			c0,0,0,0,0,0v23.9c-0.1,0-0.3,0-0.4,0c0,0,0,0,0,0H85.2c0,0,0,0,0,0c-0.7,0-1,0.4-1,1c0,0.7,0.4,1,1,1c0,0,0,0,0,0s0,0,0,0h29.7
			c0.1,0,0.3,0,0.4,0c0,0,0,0,0,0v23.9c-0.1,0-0.2,0-0.2,0l-0.1,0c0,0,0,0,0,0c0,0,0,0,0,0s0,0,0,0H85.2c-0.7,0-1,0.4-1,1s0.4,1,1,1
			c0,0,0,0,0,0s0,0,0,0h29.7c0,0,0,0,0,0c0,0,0.1,0,0.1,0c0.1,0,0.1,0,0.2,0c0,0,0,0,0,0v23.9c-0.1,0-0.3,0-0.4,0c0,0,0,0,0,0
			s0,0,0,0H85.2c-0.7,0-1,0.4-1,1s0.4,1,1,1c0,0,0,0,0,0s0,0,0,0h29.7c0.1,0,0.3,0,0.4,0c0,0,0,0,0,0v23.9c-0.1,0-0.2,0-0.4,0v0
			c0,0,0,0,0,0H85.2c-0.7,0-1,0.4-1,1c0,0.7,0.4,1,1,1c0,0,0,0,0,0s0,0,0,0h29.7l0.1,0l0.3,0v23.9c-0.1,0-0.3,0-0.4,0c0,0,0,0,0,0
			H85.2c0,0,0,0,0,0c-0.7,0-1,0.4-1,1s0.4,1,1,1c0,0,0,0,0,0s0,0,0,0h29.7c0.1,0,0.3,0,0.4,0c0,0,0,0,0,0v23.9
			C115.2,297.9,115.1,297.9,115,297.9z M115.2,273.2c-0.1,0-0.2,0-0.3,0c0,0,0,0,0,0c0,0,0,0,0,0H85.2c0,0,0,0,0,0s0,0,0,0
			c-0.2,0-0.3,0-0.3-0.3c0-0.2,0-0.3,0.3-0.3c0,0,0,0,0,0h29.7c0,0,0,0,0,0l0.4,0c0,0,0,0,0,0L115.2,273.2
			C115.2,273.2,115.2,273.2,115.2,273.2z M115.2,221.2c-0.1,0-0.2,0-0.3,0c0,0,0,0,0,0c0,0,0,0,0,0H85.2c0,0,0,0,0,0s0,0,0,0
			c-0.2,0-0.3,0-0.3-0.3c0-0.2,0-0.3,0.3-0.3h29.7c0,0,0,0,0,0s0,0,0,0l0.4,0c0,0,0,0,0,0L115.2,221.2
			C115.2,221.2,115.2,221.2,115.2,221.2z M115.2,195.2c-0.1,0-0.2,0-0.3,0h-0.1H85.2c0,0,0,0,0,0s0,0,0,0c-0.2,0-0.3,0-0.3-0.3
			c0-0.2,0-0.3,0.3-0.3h29.7l0.4,0c0,0,0,0,0,0L115.2,195.2C115.2,195.2,115.2,195.2,115.2,195.2z M115.2,169.2c-0.1,0-0.2,0-0.3,0
			c0,0,0,0,0,0c0,0,0,0,0,0H85.2c0,0,0,0,0,0s0,0,0,0c-0.2,0-0.3,0-0.3-0.3c0-0.2,0-0.3,0.3-0.3c0,0,0,0,0,0h29.7c0,0,0,0,0,0l0.4,0
			c0,0,0,0,0,0L115.2,169.2C115.2,169.2,115.2,169.2,115.2,169.2z M115.2,143.2l-0.3,0c0,0-0.1,0-0.1,0H85.2c0,0,0,0,0,0s0,0,0,0
			c-0.2,0-0.3,0-0.3-0.3c0-0.2,0-0.3,0.3-0.3c0,0,0,0,0,0h29.7c0,0,0,0,0,0l0.1,0c0.1,0,0.2,0,0.3,0c0,0,0,0,0,0L115.2,143.2
			C115.2,143.2,115.2,143.2,115.2,143.2z M115.2,117.2c-0.1,0-0.2,0-0.3,0c0,0,0,0,0,0c0,0,0,0,0,0H85.2c0,0,0,0,0,0s0,0,0,0
			c-0.2,0-0.3,0-0.3-0.3c0-0.2,0-0.3,0.3-0.3h29.7c0,0,0,0,0,0s0,0,0,0l0.4,0c0,0,0,0,0,0L115.2,117.2
			C115.2,117.2,115.2,117.2,115.2,117.2z M85.2,91.2C85.2,91.2,85.2,91.2,85.2,91.2C85.2,91.2,85.2,91.2,85.2,91.2
			c-0.2,0-0.3,0-0.3-0.3c0-0.2,0-0.3,0.3-0.3h29.7c0,0,0,0,0,0s0,0,0,0l0.1,0c0.1,0,0.2,0,0.3,0c0,0,0,0,0,0v0.5c0,0,0,0,0,0l-0.3,0
			c0,0-0.1,0-0.1,0H85.2z M115.2,299.2C115.2,299.2,115.2,299.2,115.2,299.2l-0.3,0c0,0-0.1,0-0.1,0H85.2c0,0,0,0,0,0s0,0,0,0
			c-0.2,0-0.3,0-0.3-0.3c0-0.2,0-0.3,0.3-0.3h29.7l0.4,0c0,0,0,0,0,0V299.2z M245.1,103.7C245.1,103.7,245.1,103.7,245.1,103.7
			C245.1,103.7,245.1,103.7,245.1,103.7h29.7c0.2,0,0.3,0,0.3,0.3c0,0.2,0,0.3-0.3,0.3h-29.7c-0.1,0-0.2,0-0.4,0c0,0,0,0,0,0v-0.5
			L245.1,103.7z M244.8,233.7l0.4,0c0,0,0,0,0,0c0,0,0,0,0,0h29.7c0.2,0,0.3,0,0.3,0.3c0,0.2,0,0.3-0.3,0.3h-29.7
			c-0.1,0-0.2,0-0.4,0c0,0,0,0,0,0L244.8,233.7C244.8,233.7,244.8,233.7,244.8,233.7z M245.1,311.7h29.7c0,0,0,0,0,0
			c0.2,0,0.3,0,0.3,0.3c0,0.2,0,0.3-0.3,0.3h-29.7l-0.1,0c0,0-0.1,0-0.1,0c0,0-0.1,0-0.1,0v-0.5c0,0,0,0,0,0L245.1,311.7
			C245.1,311.7,245.1,311.7,245.1,311.7z M245.1,286.2L245.1,286.2c-0.1,0-0.2,0-0.3,0c0,0,0,0,0,0v-0.5c0,0,0,0,0,0l0.4,0
			c0,0,0,0,0,0c0,0,0,0,0,0h29.7c0.2,0,0.3,0,0.3,0.3c0,0.2,0,0.3-0.3,0.3L245.1,286.2C245.1,286.2,245.1,286.2,245.1,286.2z
			 M245.1,260.2L245.1,260.2c-0.1,0-0.2,0-0.3,0c0,0,0,0,0,0v-0.5c0,0,0,0,0,0l0.4,0h29.7c0.2,0,0.3,0,0.3,0.3c0,0.2,0,0.3-0.3,0.3
			L245.1,260.2C245.1,260.2,245.1,260.2,245.1,260.2z M245.1,208.2L245.1,208.2l-0.3,0c0,0,0,0,0,0v-0.5c0,0,0,0,0,0l0.4,0
			c0,0,0,0,0,0c0,0,0,0,0,0h29.7c0.2,0,0.3,0,0.3,0.3c0,0.2,0,0.3-0.3,0.3L245.1,208.2C245.1,208.2,245.1,208.2,245.1,208.2z
			 M245.1,182.2L245.1,182.2c-0.1,0-0.2,0-0.3,0c0,0,0,0,0,0v-0.5c0,0,0,0,0,0l0.4,0c0,0,0,0,0,0c0,0,0,0,0,0h29.7
			c0.2,0,0.3,0,0.3,0.3c0,0.2,0,0.3-0.3,0.3L245.1,182.2C245.1,182.2,245.1,182.2,245.1,182.2z M245.1,156.2L245.1,156.2l-0.3,0
			c0,0,0,0,0,0v-0.5c0,0,0,0,0,0c0.1,0,0.2,0,0.4,0c0,0,0,0,0,0c0,0,0,0,0,0h29.7c0.2,0,0.3,0,0.3,0.3c0,0.2,0,0.3-0.3,0.3
			L245.1,156.2C245.1,156.2,245.1,156.2,245.1,156.2z M245.1,130.2L245.1,130.2c-0.1,0-0.2,0-0.3,0c0,0,0,0,0,0v-0.5c0,0,0,0,0,0
			c0.1,0,0.2,0,0.4,0c0,0,0,0,0,0c0,0,0,0,0,0h29.7c0.2,0,0.3,0,0.3,0.3c0,0.2,0,0.3-0.3,0.3L245.1,130.2
			C245.1,130.2,245.1,130.2,245.1,130.2z M118.7,78.4h122.6c0.9,0,1.7,0.7,1.7,1.7v242.6c0,0.9-0.7,1.7-1.7,1.7H118.7
			c-0.9,0-1.7-0.7-1.7-1.7c0,0,0,0,0,0V80.1c0,0,0,0,0,0C117.1,79.2,117.8,78.4,118.7,78.4z M114.9,246.6L114.9,246.6
			c0.1,0,0.2,0,0.3,0c0,0,0,0,0,0v0.5c0,0,0,0,0,0l-0.2,0l-0.1,0H85.2c0,0,0,0,0,0s0,0,0,0c-0.2,0-0.3,0-0.3-0.3
			c0-0.2,0-0.3,0.3-0.3L114.9,246.6C114.9,246.7,114.9,246.6,114.9,246.6z"/>
		<path class="st0" d="M181.8,50v-2.4c-1.3-0.3-1.9-1.5-2-3.1c0-1.6,0.6-2.8,2-3.1v-2.4c-2.9,0.2-5,2.2-5,5.5
			C176.8,47.7,178.9,49.7,181.8,50z"/>
		<path class="st0" d="M191.6,42.6c0-1,0.4-1.8,1.6-1.8c1.2,0,1.5,0.7,1.5,1.7v6.6h3.1v-6.4c0-1,0.5-1.8,1.6-1.8
			c1.1,0,1.6,0.7,1.6,2.2v6.1h3.1c0.1-2.8,0.1-5.5,0-8.3c-0.1-1.7-1.3-2.3-2.8-2.5c-1.6-0.2-2.7,0.1-3.8,1.4
			c-0.7-1.1-1.5-1.5-2.8-1.4c-1.3-0.1-2.1,0.2-3,1.2v-0.9h-3.1v10.5h3.1V42.6z"/>
		<path class="st0" d="M169.7,42.6c0-0.9,0.4-1.8,1.6-1.8c1.2,0,1.5,0.7,1.5,1.8v6.6h3.1v-7.7c0-1.6-0.7-3.1-3.1-3.1
			c-1.3-0.1-2.2,0.3-3.1,1.2v-0.9h-3.1v10.5h3.1V42.6z"/>
		<path class="st0" d="M161.7,47.1c-0.3,0.1-0.7,0.1-1,0c-1.2-0.1-2-0.5-2.8-1.5c-0.7,0.6-1.3,1.1-2,1.7c1.6,1.4,2.9,2,5.2,2
			c2.3,0,4.7-1,4.7-3.7c0-3.9-6.2-2.4-6.2-4.3c0-0.5,0.6-0.8,1.3-0.8c1,0,2.4,0.4,2.9,1.1c0.6-0.6,1.3-1.2,1.9-1.8
			c-1.9-1.5-3.7-1.9-6.1-1.4c-2.2,0.3-3.8,2.7-2.7,4.8c0.6,1.1,1.6,1.3,2.7,1.6c0.6,0.2,2.5,0.3,3.1,0.9c0.4,0.4,0.3,0.7-0.1,1.1
			C162.3,47,162,47.1,161.7,47.1z"/>
		<path class="st0" d="M187.7,43.4c0-3.3-2-5.3-5-5.5v2.4c1.3,0.3,1.9,1.5,1.9,2.9c0,1.7-0.6,2.9-1.9,3.2v2.4
			C185.7,48.7,187.7,46.8,187.7,43.4z"/>
		<rect x="117.1" y="95.6" class="st0" width="125.6" height="0.7"/>
		<rect x="117.1" y="108.6" class="st0" width="125.6" height="0.7"/>
		<rect x="117.1" y="121.5" class="st0" width="125.6" height="0.7"/>
		<rect x="117.1" y="134.5" class="st0" width="125.6" height="0.7"/>
		<rect x="117.1" y="147.5" class="st0" width="125.6" height="0.7"/>
		<rect x="117.1" y="160.4" class="st0" width="125.6" height="0.7"/>
		<rect x="117.1" y="173.4" class="st0" width="125.6" height="0.7"/>
		<rect x="117.1" y="186.4" class="st0" width="125.6" height="0.7"/>
		<rect x="117.1" y="199.3" class="st0" width="125.6" height="0.7"/>
		<rect x="117.1" y="212.3" class="st0" width="125.6" height="0.7"/>
		<rect x="117.1" y="225.2" class="st0" width="125.6" height="0.7"/>
		<rect x="117.1" y="238.2" class="st0" width="125.6" height="0.7"/>
		<rect x="117.1" y="251.2" class="st0" width="125.6" height="0.7"/>
		<rect x="117.1" y="264.1" class="st0" width="125.6" height="0.7"/>
		<rect x="117.1" y="277.1" class="st0" width="125.6" height="0.7"/>
		<rect x="117.1" y="290" class="st0" width="125.6" height="0.7"/>
		<rect x="117.1" y="303" class="st0" width="125.6" height="0.7"/>
	</g>
</g>
<g id="Ebene_1">
	<line class="st1" x1="248.5" y1="183.7" x2="256.6" y2="183.7"/>
	<g class="st2">
		<defs>
			<rect id="SVGID_1_" x="72.4" y="-2.8" width="213.7" height="243"/>
		</defs>
		<clipPath id="SVGID_2_" class="st3">
			<use xlink:href="#SVGID_1_"  style="overflow:visible;"/>
		</clipPath>
		<path class="st4" d="M248.5,180.7c-0.8,0-1.5,0.7-1.5,1.5c0,0.8,0.7,1.5,1.5,1.5"/>
		<path class="st5" d="M241.5,5.9c-5-0.2-10-0.3-15-0.5c-4.7-0.1-9.4-0.2-14.1-0.3C207.2,5.1,201.9,5,196.7,5
			c-5.6,0-11.2-0.1-16.7-0.1c-5.6,0-11.2,0-16.7,0.1c-5.3,0-10.6,0.1-15.8,0.2c-4.7,0.1-9.4,0.2-14.1,0.3c-5,0.1-10,0.3-15,0.5"/>
	</g>
	<line class="st6" x1="267.7" y1="6.8" x2="267.7" y2="6.9"/>
	<g class="st2">
		<defs>
			<rect id="SVGID_3_" x="72.4" y="-2.8" width="213.7" height="243"/>
		</defs>
		<clipPath id="SVGID_4_" class="st3">
			<use xlink:href="#SVGID_3_"  style="overflow:visible;"/>
		</clipPath>
		<path class="st7" d="M241.5,5.9c8.7,0.3,17.5,0.6,26.2,1"/>
		<path class="st7" d="M267.7,6.9c1.8,0.1,3.6,0.2,5.4,0.7c1.8,0.6,3.3,1.4,4.6,2.8c3,3.1,3,6.4,3,10.2"/>
	</g>
	<line class="st6" x1="280.8" y1="20.6" x2="280.7" y2="20.6"/>
	<line class="st6" x1="92.1" y1="6.8" x2="92.1" y2="6.9"/>
	<g class="st2">
		<defs>
			<rect id="SVGID_5_" x="72.4" y="-2.8" width="213.7" height="243"/>
		</defs>
		<clipPath id="SVGID_6_" class="st3">
			<use xlink:href="#SVGID_5_"  style="overflow:visible;"/>
		</clipPath>
		<path class="st8" d="M118.3,5.9c-8.7,0.3-17.5,0.6-26.2,1"/>
		<path class="st8" d="M92.1,6.9c-1.8,0.1-3.6,0.2-5.4,0.7c-1.8,0.6-3.3,1.4-4.6,2.8c-3,3.1-3,6.4-3,10.2"/>
	</g>
	<g>
		<circle id="bgnumber_8_" class="st9" cx="85.3" cy="299.4" r="7.1"/>
		<text transform="matrix(1 0 0 1 79.4459 302.9049)" class="st10 st11 st12 button" data-number="16">17</text>
	</g>
	<g>
		<circle id="bgnumber_7_" class="st9" cx="85.3" cy="273.5" r="7.1"/>
		<text transform="matrix(1 0 0 1 79.4059 277.0538)" class="st10 st11 st12 button" data-number="14">15</text>
	</g>
	<g>
		<circle id="bgnumber_6_" class="st9" cx="85.3" cy="247.5" r="7.1"/>
		<text transform="matrix(1 0 0 1 79.9053 251.1023)" class="st10 st11 st12 button" data-number="12">13</text>
	</g>
	<g>
		<circle id="bgnumber_5_" class="st9" cx="85.3" cy="221.6" r="7.1"/>
		<text transform="matrix(1 0 0 1 79.446 225.0723)" class="st10 st11 st12 button" data-number="10">11</text>
	</g>
	<g>
		<circle id="bgnumber_4_" class="st9" cx="85.3" cy="195.7" r="7.1"/>
		<text transform="matrix(1 0 0 1 79.626 199.1212)" class="st10 st11 st12 button" data-number="8">09</text>
	</g>
	<g>
		<circle id="bgnumber_3_" class="st9" cx="85.3" cy="169.8" r="7.1"/>
		<text transform="matrix(1 0 0 1 79.3959 173.27)" class="st10 st11 st12 button" data-number="6">07</text>
	</g>
	<g>
		<circle id="bgnumber_2_" class="st9" cx="85.3" cy="143.8" r="7.1"/>
		<text transform="matrix(1 0 0 1 79.5309 147.3188)" class="st10 st11 st12 button" data-number="4">05</text>
	</g>
	<g>
		<circle id="bgnumber_1_" class="st9" cx="85.3" cy="117.9" r="7.1"/>
		<text transform="matrix(1 0 0 1 79.6761 121.3676)" class="st10 st11 st12 button" data-number="2">03</text>
	</g>
	<g>
		<circle id="bgnumber" class="st9" cx="85.3" cy="92" r="7.1"/>
		<text transform="matrix(1 0 0 1 80.3308 95.4164)" class="st10 st11 st12 button" data-number="0">01</text>
	</g>
	<g>
		<circle id="bgnumber_19_" class="st9" cx="273.2" cy="313.5" r="7.1"/>
		<text transform="matrix(1 0 0 1 267.3225 317.0301)" class="st10 st11 st12 button" data-number="17">18</text>
	</g>
	<g>
		<circle id="bgnumber_18_" class="st9" cx="273.2" cy="287.2" r="7.1"/>
		<text transform="matrix(1 0 0 1 267.2825 290.7927)" class="st10 st11 st12 button" data-number="15">16</text>
	</g>
	<g>
		<circle id="bgnumber_17_" class="st9" cx="273.2" cy="260.9" r="7.1"/>
		<text transform="matrix(1 0 0 1 267.782 264.455)" class="st10 st11 st12 button" data-number="13">14</text>
	</g>
	<g>
		<circle id="bgnumber_16_" class="st9" cx="273.2" cy="234.6" r="7.1"/>
		<text transform="matrix(1 0 0 1 267.3226 238.0388)" class="st10 st11 st12 button" data-number="11">12</text>
	</g>
	<g>
		<circle id="bgnumber_15_" class="st9" cx="273.2" cy="208.3" r="7.1"/>
		<text transform="matrix(1 0 0 1 267.5026 211.7014)" class="st10 st11 st12 button" data-number="9">10</text>
	</g>
	<g>
		<circle id="bgnumber_14_" class="st9" cx="273.2" cy="182" r="7.1"/>
		<text transform="matrix(1 0 0 1 267.2726 185.4639)" class="st10 st11 st12 button" data-number="7">08</text>
	</g>
	<g>
		<circle id="bgnumber_13_" class="st9" cx="273.2" cy="155.6" r="7.1"/>
		<text transform="matrix(1 0 0 1 267.4076 159.1264)" class="st10 st11 st12 button" data-number="5">06</text>
	</g>
	<g>
		<circle id="bgnumber_12_" class="st9" cx="273.2" cy="129.3" r="7.1"/>
		<text transform="matrix(1 0 0 1 267.5527 132.789)" class="st10 st11 st12 button" data-number="3">04</text>
	</g>
	<g>
		<circle id="bgnumber_11_" class="st9" cx="273.2" cy="103" r="7.1"/>
		<text transform="matrix(1 0 0 1 268.2074 106.4514)" class="st10 st11 st12 button" data-number="1">02</text>
	</g>
</g>
</svg>
