<?xml version="1.0" encoding="utf-8"?>
<!-- Generator: Adobe Illustrator 21.0.1, SVG Export Plug-In . SVG Version: 6.00 Build 0)  -->
<!DOCTYPE svg PUBLIC "-//W3C//DTD SVG 1.1//EN" "http://www.w3.org/Graphics/SVG/1.1/DTD/svg11.dtd">
<svg version="1.1" xmlns="http://www.w3.org/2000/svg" xmlns:xlink="http://www.w3.org/1999/xlink" x="0px" y="0px"
	 viewBox="0 0 240 306" style="enable-background:new 0 0 240 306;" xml:space="preserve">
<style type="text/css">
	.button{cursor: pointer}
	.st0{fill:#B3B2B2;}
	.st1{fill:#FFFFFF;}
	.st2{fill:#29AEE4;}
	.st3{font-family:'BrixSansRegular';}
	.st4{font-size:10px;}
</style>
<g id="Ebene_2">
	<g>
		<path class="st0" d="M99.8,30.6H84V18.4H42.6v0H26.4c-3.3,0-5.9,2.6-5.9,5.9v0.7c0,3.3,2.6,5.9,5.9,5.9h15.7v3.4l0.2,0
			c1.6,0,3,1.3,3,3c0,1.6-1.3,3-3,3l-0.2,0v3H26.4c-3.3,0-5.9,2.6-5.9,5.9v0.7c0,3.3,2.6,5.9,5.9,5.9h15.7V68H26.4
			c-3.3,0-5.9,2.6-5.9,5.9v0.7c0,3.3,2.6,5.9,5.9,5.9h15.7v12.4H26.4c-3.3,0-5.9,2.6-5.9,5.9v0.7c0,3.3,2.6,5.9,5.9,5.9h15.7v12.4
			H26.4c-3.3,0-5.9,2.6-5.9,5.9v0.7c0,3.3,2.6,5.9,5.9,5.9h15.7v12.4H26.4c-3.3,0-5.9,2.6-5.9,5.9v0.7c0,3.3,2.6,5.9,5.9,5.9h15.7
			v3.4l0.2,0c1.6,0,3,1.3,3,3s-1.3,3-3,3l-0.2,0v3.1H26.4c-3.3,0-5.9,2.6-5.9,5.9v0.7c0,3.3,2.6,5.9,5.9,5.9h15.7v12.4H26.4
			c-3.3,0-5.9,2.6-5.9,5.9v0.7c0,3.3,2.6,5.9,5.9,5.9h15.7v12.4H26.4c-3.3,0-5.9,2.6-5.9,5.9v0.7c0,3.3,2.6,5.9,5.9,5.9h15.7v12.4
			H26.4c-3.3,0-5.9,2.6-5.9,5.9v0.7c0,3.3,2.6,5.9,5.9,5.9h15.7v3.2l0.2,0c1.6,0,3,1.3,3,3s-1.3,3-3,3l-0.2,0v3.2H26.4
			c-3.3,0-5.9,2.6-5.9,5.9v0.7c0,3.3,2.6,5.9,5.9,5.9h15.7v0H84v-12.6h15.8c3.3,0,5.9-2.6,5.9-5.9v-0.7c0-3.3-2.6-5.9-5.9-5.9H84
			v-2.7l0-0.3l-0.3,0c-1.6,0-3-1.3-3-3c0-1.6,1.3-3,3-3l0.4,0v-3.5h15.8c3.3,0,5.9-2.6,5.9-5.9V235c0-3.3-2.6-5.9-5.9-5.9H84v-12.4
			h15.8c3.3,0,5.9-2.6,5.9-5.9v-0.7c0-3.3-2.6-5.9-5.9-5.9H84V192h15.8c3.3,0,5.9-2.6,5.9-5.9v-0.7c0-3.3-2.6-5.9-5.9-5.9H84v-12.4
			h15.8c3.3,0,5.9-2.6,5.9-5.9v-0.7c0-3.3-2.6-5.9-5.9-5.9H84v-2.6l0-0.3l-0.3,0c-1.6,0-3-1.3-3-3s1.3-3,3-3l0.4,0v-3.6h15.8
			c3.3,0,5.9-2.6,5.9-5.9v-0.7c0-3.3-2.6-5.9-5.9-5.9H84v-12.4h15.8c3.3,0,5.9-2.6,5.9-5.9V111c0-3.3-2.6-5.9-5.9-5.9H84V92.7h15.8
			c3.3,0,5.9-2.6,5.9-5.9v-0.7c0-3.3-2.6-5.9-5.9-5.9H84V67.9h15.8c3.3,0,5.9-2.6,5.9-5.9v-0.7c0-3.3-2.6-5.9-5.9-5.9H84v-2.9
			l-0.4,0c-1.6,0-3-1.3-3-3c0-1.6,1.3-3,3-3l0.4,0v-3.5h15.8c3.3,0,5.9-2.6,5.9-5.9v-0.7C105.7,33.3,103.1,30.6,99.8,30.6z
			 M105.2,259.9v0.7c0,3-2.4,5.4-5.4,5.4h-12v-11.5h12C102.8,254.5,105.2,256.9,105.2,259.9z M84.1,254.5h3.3v11.5h-3.3V254.5z
			 M105.2,235v0.7c0,3-2.4,5.4-5.4,5.4h-12v-11.5h12C102.8,229.6,105.2,232.1,105.2,235z M84.1,229.6h3.3v11.5h-3.3V229.6z
			 M105.2,210.2v0.7c0,3-2.4,5.4-5.4,5.4h-12v-11.5h12C102.8,204.8,105.2,207.3,105.2,210.2z M84.1,204.8h3.3v11.5h-3.3V204.8z
			 M105.2,185.4v0.7c0,3-2.4,5.4-5.4,5.4h-12V180h12C102.8,180,105.2,182.4,105.2,185.4z M84.1,180h3.3v11.5h-3.3V180z M105.2,160.6
			v0.7c0,3-2.4,5.4-5.4,5.4h-12v-11.5h12C102.8,155.2,105.2,157.6,105.2,160.6z M84.1,155.2h3.3v11.5h-3.3V155.2z M105.2,135.8v0.7
			c0,3-2.4,5.4-5.4,5.4h-12v-11.5h12C102.8,130.4,105.2,132.8,105.2,135.8z M84.1,130.4h3.3v11.5h-3.3V130.4z M105.2,111v0.7
			c0,3-2.4,5.4-5.4,5.4h-12v-11.5h12C102.8,105.6,105.2,108,105.2,111z M84.1,105.6h3.3V117h-3.3V105.6z M105.2,86.2v0.7
			c0,3-2.4,5.4-5.4,5.4h-12V80.8h12C102.8,80.8,105.2,83.2,105.2,86.2z M84.1,80.8h3.3v11.5h-3.3V80.8z M105.2,61.3V62
			c0,3-2.4,5.4-5.4,5.4h-12V56h12C102.8,56,105.2,58.4,105.2,61.3z M84.1,56h3.3v11.5h-3.3V56z M83.6,18.9v11.5H42.6V18.9H83.6z
			 M21,24.9v-0.7c0-3,2.4-5.4,5.4-5.4h12v11.5h-12C23.4,30.3,21,27.9,21,24.9z M38.8,30.3V18.9h3.3v11.5H38.8z M42.6,40.7
			c1.8-0.1,3.2-1.6,3.2-3.5c0-1.8-1.4-3.3-3.2-3.5v-3h0v-0.2h40.9v12.6H42.6v0h0V40.7z M21,49.8v-0.7c0-3,2.4-5.4,5.4-5.4h12v11.5
			h-12C23.4,55.2,21,52.7,21,49.8z M38.8,55.2V43.7h3.3v11.5H38.8z M42.6,55.7L42.6,55.7l0-0.2h40.9v12.6H42.6V68h0V55.7z
			 M83.6,80.1H42.6V68.4h40.9V80.1z M21,74.6v-0.7c0-3,2.4-5.4,5.4-5.4h12V80h-12C23.4,80,21,77.5,21,74.6z M38.8,80V68.5h3.3V80
			H38.8z M42.6,80.5L42.6,80.5l0-0.1h40.9V93H42.6v-0.2h0V80.5z M83.6,104.9H42.6V93.3h40.9V104.9z M21,99.4v-0.7
			c0-3,2.4-5.4,5.4-5.4h12v11.5h-12C23.4,104.8,21,102.4,21,99.4z M38.8,104.8V93.3h3.3v11.5H38.8z M42.6,105.3L42.6,105.3l0-0.1
			h40.9v12.6H42.6v-0.1h0V105.3z M83.6,129.8H42.6V118h40.9V129.8z M21,124.2v-0.7c0-3,2.4-5.4,5.4-5.4h12v11.5h-12
			C23.4,129.6,21,127.2,21,124.2z M38.8,129.6v-11.5h3.3v11.5H38.8z M42.6,130.1L42.6,130.1L42.6,130.1l40.9-0.1v12.6H42.6v-0.1h0
			V130.1z M21,149v-0.7c0-3,2.4-5.4,5.4-5.4h12v11.5h-12C23.4,154.4,21,152,21,149z M38.8,154.4V143h3.3v11.5H38.8z M42.6,164.7
			c1.8-0.1,3.2-1.6,3.2-3.5c0-1.8-1.4-3.3-3.2-3.5v-2.9h0v-0.1h40.9v12.6H42.6v-0.1h0V164.7z M83.6,179.3H42.6v-11.7h40.9V179.3z
			 M21,173.8v-0.7c0-3,2.4-5.4,5.4-5.4h12v11.5h-12C23.4,179.2,21,176.8,21,173.8z M38.8,179.2v-11.5h3.3v11.5H38.8z M42.6,179.7
			L42.6,179.7l0-0.1h40.9v12.6H42.6v-0.1h0V179.7z M83.6,204.1H42.6v-11.7h40.9V204.1z M21,198.6V198c0-3,2.4-5.4,5.4-5.4h12V204
			h-12C23.4,204,21,201.6,21,198.6z M38.8,204v-11.5h3.3V204H38.8z M42.6,204.5L42.6,204.5l0-0.2h40.9V217H42.6v-0.1h0V204.5z
			 M83.6,229H42.6v-11.7h40.9V229z M21,223.5v-0.7c0-3,2.4-5.4,5.4-5.4h12v11.5h-12C23.4,228.8,21,226.4,21,223.5z M38.8,228.8
			v-11.5h3.3v11.5H38.8z M42.6,229.3L42.6,229.3l0-0.1h40.9v12.6H42.6v-0.1h0V229.3z M21,248.3v-0.7c0-3,2.4-5.4,5.4-5.4h12v11.5
			h-12C23.4,253.7,21,251.2,21,248.3z M38.8,253.7v-11.5h3.3v11.5H38.8z M42.6,263.8c1.8-0.1,3.2-1.6,3.2-3.5c0-1.8-1.4-3.3-3.2-3.5
			v-2.7h0V254h40.9v12.6H42.6v-0.1h0V263.8z M21,273.1v-0.7c0-3,2.4-5.4,5.4-5.4h12v11.5h-12C23.4,278.5,21,276.1,21,273.1z
			 M38.8,278.5V267h3.3v11.5H38.8z M42.6,278.5v-11.6h40.9v11.6H42.6z M80.2,248c0,1.9,1.5,3.4,3.3,3.5v2.3H42.6v-11.7h40.9v2.5
			C81.7,244.6,80.2,246.1,80.2,248z M80.2,148.9c0,1.9,1.5,3.4,3.3,3.5v2.1H42.6v-11.7h40.9v2.6C81.7,145.5,80.2,147,80.2,148.9z
			 M80.2,49.6c0,1.9,1.5,3.4,3.3,3.5v2.2H42.6V43.5h40.9v2.6C81.7,46.2,80.2,47.7,80.2,49.6z M84.1,31.1h3.3v11.5h-3.3V31.1z
			 M105.2,37.2c0,3-2.4,5.4-5.4,5.4h-12V31.1h12c3,0,5.4,2.4,5.4,5.4V37.2z"/>
		<path class="st0" d="M215.8,30.6h-15.8V18.4h-41.4v0h-16.2c-3.3,0-5.9,2.6-5.9,5.9v0.7c0,3.3,2.6,5.9,5.9,5.9h15.7v3.4l0.2,0
			c1.6,0,3,1.3,3,3c0,1.6-1.3,3-3,3l-0.2,0v3h-15.7c-3.3,0-5.9,2.6-5.9,5.9v0.7c0,3.3,2.6,5.9,5.9,5.9h15.7V68h-15.7
			c-3.3,0-5.9,2.6-5.9,5.9v0.7c0,3.3,2.6,5.9,5.9,5.9h15.7v12.4h-15.7c-3.3,0-5.9,2.6-5.9,5.9v0.7c0,3.3,2.6,5.9,5.9,5.9h15.7v12.4
			h-15.7c-3.3,0-5.9,2.6-5.9,5.9v0.7c0,3.3,2.6,5.9,5.9,5.9h15.7v12.4h-15.7c-3.3,0-5.9,2.6-5.9,5.9v0.7c0,3.3,2.6,5.9,5.9,5.9h15.7
			v3.4l0.2,0c1.6,0,3,1.3,3,3s-1.3,3-3,3l-0.2,0v3.1h-15.7c-3.3,0-5.9,2.6-5.9,5.9v0.7c0,3.3,2.6,5.9,5.9,5.9h15.7v12.4h-15.7
			c-3.3,0-5.9,2.6-5.9,5.9v0.7c0,3.3,2.6,5.9,5.9,5.9h15.7v12.4h-15.7c-3.3,0-5.9,2.6-5.9,5.9v0.7c0,3.3,2.6,5.9,5.9,5.9h15.7v12.4
			h-15.7c-3.3,0-5.9,2.6-5.9,5.9v0.7c0,3.3,2.6,5.9,5.9,5.9h15.7v3.2l0.2,0c1.6,0,3,1.3,3,3s-1.3,3-3,3l-0.2,0v3.2h-15.7
			c-3.3,0-5.9,2.6-5.9,5.9v0.7c0,3.3,2.6,5.9,5.9,5.9h15.7v0h41.9v-12.6h15.8c3.3,0,5.9-2.6,5.9-5.9v-0.7c0-3.3-2.6-5.9-5.9-5.9
			h-15.8v-2.7l0-0.3l-0.3,0c-1.6,0-3-1.3-3-3c0-1.6,1.3-3,3-3l0.4,0v-3.5h15.8c3.3,0,5.9-2.6,5.9-5.9V235c0-3.3-2.6-5.9-5.9-5.9
			h-15.8v-12.4h15.8c3.3,0,5.9-2.6,5.9-5.9v-0.7c0-3.3-2.6-5.9-5.9-5.9h-15.8V192h15.8c3.3,0,5.9-2.6,5.9-5.9v-0.7
			c0-3.3-2.6-5.9-5.9-5.9h-15.8v-12.4h15.8c3.3,0,5.9-2.6,5.9-5.9v-0.7c0-3.3-2.6-5.9-5.9-5.9h-15.8v-2.6l0-0.3l-0.3,0
			c-1.6,0-3-1.3-3-3s1.3-3,3-3l0.4,0v-3.6h15.8c3.3,0,5.9-2.6,5.9-5.9v-0.7c0-3.3-2.6-5.9-5.9-5.9h-15.8v-12.4h15.8
			c3.3,0,5.9-2.6,5.9-5.9V111c0-3.3-2.6-5.9-5.9-5.9h-15.8V92.7h15.8c3.3,0,5.9-2.6,5.9-5.9v-0.7c0-3.3-2.6-5.9-5.9-5.9h-15.8V67.9
			h15.8c3.3,0,5.9-2.6,5.9-5.9v-0.7c0-3.3-2.6-5.9-5.9-5.9h-15.8v-2.9l-0.4,0c-1.6,0-3-1.3-3-3c0-1.6,1.3-3,3-3l0.4,0v-3.5h15.8
			c3.3,0,5.9-2.6,5.9-5.9v-0.7C221.7,33.3,219.1,30.6,215.8,30.6z M221.2,259.9v0.7c0,3-2.4,5.4-5.4,5.4h-12v-11.5h12
			C218.8,254.5,221.2,256.9,221.2,259.9z M200.1,254.5h3.3v11.5h-3.3V254.5z M221.2,235v0.7c0,3-2.4,5.4-5.4,5.4h-12v-11.5h12
			C218.8,229.6,221.2,232.1,221.2,235z M200.1,229.6h3.3v11.5h-3.3V229.6z M221.2,210.2v0.7c0,3-2.4,5.4-5.4,5.4h-12v-11.5h12
			C218.8,204.8,221.2,207.3,221.2,210.2z M200.1,204.8h3.3v11.5h-3.3V204.8z M221.2,185.4v0.7c0,3-2.4,5.4-5.4,5.4h-12V180h12
			C218.8,180,221.2,182.4,221.2,185.4z M200.1,180h3.3v11.5h-3.3V180z M221.2,160.6v0.7c0,3-2.4,5.4-5.4,5.4h-12v-11.5h12
			C218.8,155.2,221.2,157.6,221.2,160.6z M200.1,155.2h3.3v11.5h-3.3V155.2z M221.2,135.8v0.7c0,3-2.4,5.4-5.4,5.4h-12v-11.5h12
			C218.8,130.4,221.2,132.8,221.2,135.8z M200.1,130.4h3.3v11.5h-3.3V130.4z M221.2,111v0.7c0,3-2.4,5.4-5.4,5.4h-12v-11.5h12
			C218.8,105.6,221.2,108,221.2,111z M200.1,105.6h3.3V117h-3.3V105.6z M221.2,86.2v0.7c0,3-2.4,5.4-5.4,5.4h-12V80.8h12
			C218.8,80.8,221.2,83.2,221.2,86.2z M200.1,80.8h3.3v11.5h-3.3V80.8z M221.2,61.3V62c0,3-2.4,5.4-5.4,5.4h-12V56h12
			C218.8,56,221.2,58.4,221.2,61.3z M200.1,56h3.3v11.5h-3.3V56z M199.6,18.9v11.5h-40.9V18.9H199.6z M137,24.9v-0.7
			c0-3,2.4-5.4,5.4-5.4h12v11.5h-12C139.4,30.3,137,27.9,137,24.9z M154.9,30.3V18.9h3.3v11.5H154.9z M158.6,40.7
			c1.8-0.1,3.2-1.6,3.2-3.5c0-1.8-1.4-3.3-3.2-3.5v-3h0v-0.2h40.9v12.6h-40.9v0h0V40.7z M137,49.8v-0.7c0-3,2.4-5.4,5.4-5.4h12v11.5
			h-12C139.4,55.2,137,52.7,137,49.8z M154.9,55.2V43.7h3.3v11.5H154.9z M158.6,55.7L158.6,55.7l0-0.2h40.9v12.6h-40.9V68h0V55.7z
			 M199.6,80.1h-40.9V68.4h40.9V80.1z M137,74.6v-0.7c0-3,2.4-5.4,5.4-5.4h12V80h-12C139.4,80,137,77.5,137,74.6z M154.9,80V68.5
			h3.3V80H154.9z M158.6,80.5L158.6,80.5l0-0.1h40.9V93h-40.9v-0.2h0V80.5z M199.6,104.9h-40.9V93.3h40.9V104.9z M137,99.4v-0.7
			c0-3,2.4-5.4,5.4-5.4h12v11.5h-12C139.4,104.8,137,102.4,137,99.4z M154.9,104.8V93.3h3.3v11.5H154.9z M158.6,105.3L158.6,105.3
			l0-0.1h40.9v12.6h-40.9v-0.1h0V105.3z M199.6,129.8h-40.9V118h40.9V129.8z M137,124.2v-0.7c0-3,2.4-5.4,5.4-5.4h12v11.5h-12
			C139.4,129.6,137,127.2,137,124.2z M154.9,129.6v-11.5h3.3v11.5H154.9z M158.6,130.1L158.6,130.1L158.6,130.1l40.9-0.1v12.6h-40.9
			v-0.1h0V130.1z M137,149v-0.7c0-3,2.4-5.4,5.4-5.4h12v11.5h-12C139.4,154.4,137,152,137,149z M154.9,154.4V143h3.3v11.5H154.9z
			 M158.6,164.7c1.8-0.1,3.2-1.6,3.2-3.5c0-1.8-1.4-3.3-3.2-3.5v-2.9h0v-0.1h40.9v12.6h-40.9v-0.1h0V164.7z M199.6,179.3h-40.9
			v-11.7h40.9V179.3z M137,173.8v-0.7c0-3,2.4-5.4,5.4-5.4h12v11.5h-12C139.4,179.2,137,176.8,137,173.8z M154.9,179.2v-11.5h3.3
			v11.5H154.9z M158.6,179.7L158.6,179.7l0-0.1h40.9v12.6h-40.9v-0.1h0V179.7z M199.6,204.1h-40.9v-11.7h40.9V204.1z M137,198.6V198
			c0-3,2.4-5.4,5.4-5.4h12V204h-12C139.4,204,137,201.6,137,198.6z M154.9,204v-11.5h3.3V204H154.9z M158.6,204.5L158.6,204.5l0-0.2
			h40.9V217h-40.9v-0.1h0V204.5z M199.6,229h-40.9v-11.7h40.9V229z M137,223.5v-0.7c0-3,2.4-5.4,5.4-5.4h12v11.5h-12
			C139.4,228.8,137,226.4,137,223.5z M154.9,228.8v-11.5h3.3v11.5H154.9z M158.6,229.3L158.6,229.3l0-0.1h40.9v12.6h-40.9v-0.1h0
			V229.3z M137,248.3v-0.7c0-3,2.4-5.4,5.4-5.4h12v11.5h-12C139.4,253.7,137,251.2,137,248.3z M154.9,253.7v-11.5h3.3v11.5H154.9z
			 M158.6,263.8c1.8-0.1,3.2-1.6,3.2-3.5c0-1.8-1.4-3.3-3.2-3.5v-2.7h0V254h40.9v12.6h-40.9v-0.1h0V263.8z M137,273.1v-0.7
			c0-3,2.4-5.4,5.4-5.4h12v11.5h-12C139.4,278.5,137,276.1,137,273.1z M154.9,278.5V267h3.3v11.5H154.9z M158.6,278.5v-11.6h40.9
			v11.6H158.6z M196.2,248c0,1.9,1.5,3.4,3.3,3.5v2.3h-40.9v-11.7h40.9v2.5C197.7,244.6,196.2,246.1,196.2,248z M196.2,148.9
			c0,1.9,1.5,3.4,3.3,3.5v2.1h-40.9v-11.7h40.9v2.6C197.7,145.5,196.2,147,196.2,148.9z M196.2,49.6c0,1.9,1.5,3.4,3.3,3.5v2.2
			h-40.9V43.5h40.9v2.6C197.7,46.2,196.2,47.7,196.2,49.6z M200.1,31.1h3.3v11.5h-3.3V31.1z M221.2,37.2c0,3-2.4,5.4-5.4,5.4h-12
			V31.1h12c3,0,5.4,2.4,5.4,5.4V37.2z"/>
		<path class="st0" d="M235.3,0H4.7C2.1,0,0,2.1,0,4.7v296.7c0,2.6,2.1,4.7,4.7,4.7h230.7c2.6,0,4.7-2.1,4.7-4.7V4.7
			C240,2.1,237.9,0,235.3,0z M239,301.3c0,2-1.6,3.7-3.7,3.7H4.7c-2,0-3.7-1.6-3.7-3.7V4.7C1,2.6,2.6,1,4.7,1h230.7
			c2,0,3.7,1.6,3.7,3.7V301.3z"/>
	</g>
</g>
<g id="Ebene_3">
	<g>
		<circle id="bgnumber_10_" class="st1" cx="48.6" cy="272.6" r="7.1"/>
		<text transform="matrix(1 0 0 1 44.6932 276.0967)" class="st2 st3 st4 button" data-number="20">21</text>
	</g>
	<g>
		<circle id="bgnumber_9_" class="st1" cx="48.6" cy="247.8" r="7.1"/>
		<text transform="matrix(1 0 0 1 43.6021 251.3424)" class="st2 st3 st4 button" data-number="18">19</text>
	</g>
	<g>
		<circle id="bgnumber_8_" class="st1" cx="48.6" cy="223" r="7.1"/>
		<text transform="matrix(1 0 0 1 42.7172 226.5497)" class="st2 st3 st4 button" data-number="16">17</text>
	</g>
	<g>
		<circle id="bgnumber_7_" class="st1" cx="48.6" cy="198.3" r="7.1"/>
		<text transform="matrix(1 0 0 1 42.6772 201.8571)" class="st2 st3 st4 button" data-number="14">15</text>
	</g>
	<g>
		<circle id="bgnumber_6_" class="st1" cx="48.6" cy="173.5" r="7.1"/>
		<text transform="matrix(1 0 0 1 43.1767 177.0642)" class="st2 st3 st4 button" data-number="12">13</text>
	</g>
	<g>
		<circle id="bgnumber_5_" class="st1" cx="48.6" cy="148.7" r="7.1"/>
		<text transform="matrix(1 0 0 1 42.7173 152.1927)" class="st2 st3 st4 button" data-number="10">11</text>
	</g>
	<g>
		<circle id="bgnumber_4_" class="st1" cx="48.6" cy="124" r="7.1"/>
		<text transform="matrix(1 0 0 1 42.8973 127.4001)" class="st2 st3 st4 button" data-number="8">09</text>
	</g>
	<g>
		<circle id="bgnumber_3_" class="st1" cx="48.6" cy="99.2" r="7.1"/>
		<text transform="matrix(1 0 0 1 42.6673 102.7075)" class="st2 st3 st4 button" data-number="6">07</text>
	</g>
	<g>
		<circle id="bgnumber_2_" class="st1" cx="48.6" cy="74.4" r="7.1"/>
		<text transform="matrix(1 0 0 1 42.8023 77.9148)" class="st2 st3 st4 button" data-number="4">05</text>
	</g>
	<g>
		<circle id="bgnumber_1_" class="st1" cx="48.6" cy="49.7" r="7.1"/>
		<text transform="matrix(1 0 0 1 42.9474 53.1222)" class="st2 st3 st4 button" data-number="2">03</text>
	</g>
	<g>
		<circle id="bgnumber" class="st1" cx="48.6" cy="24.9" r="7.1"/>
		<text transform="matrix(1 0 0 1 43.6021 28.3295)" class="st2 st3 st4 button" data-number="0">01</text>
	</g>
	<g>
		<circle id="bgnumber_20_" class="st1" cx="77.7" cy="259.9" r="7.1"/>
		<text transform="matrix(1 0 0 1 72.7521 263.4723)" class="st2 st3 st4 button" data-number="19">20</text>
	</g>
	<g>
		<circle id="bgnumber_19_" class="st1" cx="77.7" cy="235.1" r="7.1"/>
		<text transform="matrix(1 0 0 1 71.8672 238.6152)" class="st2 st3 st4 button" data-number="17">18</text>
	</g>
	<g>
		<circle id="bgnumber_18_" class="st1" cx="77.7" cy="210.3" r="7.1"/>
		<text transform="matrix(1 0 0 1 71.8272 213.8582)" class="st2 st3 st4 button" data-number="15">16</text>
	</g>
	<g>
		<circle id="bgnumber_17_" class="st1" cx="77.7" cy="185.4" r="7.1"/>
		<text transform="matrix(1 0 0 1 72.3267 189.0009)" class="st2 st3 st4 button" data-number="13">14</text>
	</g>
	<g>
		<circle id="bgnumber_16_" class="st1" cx="77.7" cy="160.6" r="7.1"/>
		<text transform="matrix(1 0 0 1 71.8673 164.0649)" class="st2 st3 st4 button" data-number="11">12</text>
	</g>
	<g>
		<circle id="bgnumber_15_" class="st1" cx="77.7" cy="135.8" r="7.1"/>
		<text transform="matrix(1 0 0 1 72.0473 139.2079)" class="st2 st3 st4 button" data-number="9">10</text>
	</g>
	<g>
		<circle id="bgnumber_14_" class="st1" cx="77.7" cy="110.9" r="7.1"/>
		<text transform="matrix(1 0 0 1 71.8173 114.4508)" class="st2 st3 st4 button" data-number="7">08</text>
	</g>
	<g>
		<circle id="bgnumber_13_" class="st1" cx="77.7" cy="86.1" r="7.1"/>
		<text transform="matrix(1 0 0 1 71.9523 89.5937)" class="st2 st3 st4 button" data-number="6">06</text>
	</g>
	<g>
		<circle id="bgnumber_12_" class="st1" cx="77.7" cy="61.3" r="7.1"/>
		<text transform="matrix(1 0 0 1 72.0974 64.7366)" class="st2 st3 st4 button" data-number="3">04</text>
	</g>
	<g>
		<circle id="bgnumber_11_" class="st1" cx="77.7" cy="36.4" r="7.1"/>
		<text transform="matrix(1 0 0 1 72.7521 39.8794)" class="st2 st3 st4 button" data-number="1">02</text>
	</g>
	<g>
		<circle id="bgnumber_41_" class="st1" cx="163.9" cy="272.6" r="7.1"/>
		<text transform="matrix(1 0 0 1 160.043 276.0967)" class="st2 st3 st4 button" data-number="41">42</text>
	</g>
	<g>
		<circle id="bgnumber_40_" class="st1" cx="163.9" cy="247.8" r="7.1"/>
		<text transform="matrix(1 0 0 1 158.952 251.3424)" class="st2 st3 st4 button" data-number="39">40</text>
	</g>
	<g>
		<circle id="bgnumber_39_" class="st1" cx="163.9" cy="223" r="7.1"/>
		<text transform="matrix(1 0 0 1 158.0671 226.5497)" class="st2 st3 st4 button" data-number="37">38</text>
	</g>
	<g>
		<circle id="bgnumber_38_" class="st1" cx="163.9" cy="198.3" r="7.1"/>
		<text transform="matrix(1 0 0 1 158.0271 201.8571)" class="st2 st3 st4 button" data-number="35">36</text>
	</g>
	<g>
		<circle id="bgnumber_37_" class="st1" cx="163.9" cy="173.5" r="7.1"/>
		<text transform="matrix(1 0 0 1 158.5266 177.0642)" class="st2 st3 st4 button" data-number="33">34</text>
	</g>
	<g>
		<circle id="bgnumber_36_" class="st1" cx="163.9" cy="148.7" r="7.1"/>
		<text transform="matrix(1 0 0 1 158.0672 152.1927)" class="st2 st3 st4 button" data-number="31">32</text>
	</g>
	<g>
		<circle id="bgnumber_35_" class="st1" cx="163.9" cy="124" r="7.1"/>
		<text transform="matrix(1 0 0 1 158.2472 127.4001)" class="st2 st3 st4 button" data-number="29">30</text>
	</g>
	<g>
		<circle id="bgnumber_34_" class="st1" cx="163.9" cy="99.2" r="7.1"/>
		<text transform="matrix(1 0 0 1 158.0172 102.7075)" class="st2 st3 st4 button" data-number="27">28</text>
	</g>
	<g>
		<circle id="bgnumber_33_" class="st1" cx="163.9" cy="74.4" r="7.1"/>
		<text transform="matrix(1 0 0 1 158.1522 77.9148)" class="st2 st3 st4 button" data-number="25">26</text>
	</g>
	<g>
		<circle id="bgnumber_32_" class="st1" cx="163.9" cy="49.7" r="7.1"/>
		<text transform="matrix(1 0 0 1 158.2973 53.1222)" class="st2 st3 st4 button" data-number="23">24</text>
	</g>
	<g>
		<circle id="bgnumber_31_" class="st1" cx="163.9" cy="24.9" r="7.1"/>
		<text transform="matrix(1 0 0 1 158.952 28.3295)" class="st2 st3 st4 button" data-number="21">22</text>
	</g>
	<g>
		<circle id="bgnumber_30_" class="st1" cx="194.9" cy="259.9" r="7.1"/>
		<text transform="matrix(1 0 0 1 189.9519 263.4723)" class="st2 st3 st4 button" data-number="40">41</text>
	</g>
	<g>
		<circle id="bgnumber_29_" class="st1" cx="194.9" cy="235.1" r="7.1"/>
		<text transform="matrix(1 0 0 1 189.067 238.6152)" class="st2 st3 st4 button" data-number="38">39</text>
	</g>
	<g>
		<circle id="bgnumber_28_" class="st1" cx="194.9" cy="210.3" r="7.1"/>
		<text transform="matrix(1 0 0 1 189.0271 213.8582)" class="st2 st3 st4 button" data-number="36">37</text>
	</g>
	<g>
		<circle id="bgnumber_27_" class="st1" cx="194.9" cy="185.4" r="7.1"/>
		<text transform="matrix(1 0 0 1 189.5265 189.0009)" class="st2 st3 st4 button" data-number="34">35</text>
	</g>
	<g>
		<circle id="bgnumber_26_" class="st1" cx="194.9" cy="160.6" r="7.1"/>
		<text transform="matrix(1 0 0 1 189.0672 164.0649)" class="st2 st3 st4 button" data-number="32">33</text>
	</g>
	<g>
		<circle id="bgnumber_25_" class="st1" cx="194.9" cy="135.8" r="7.1"/>
		<text transform="matrix(1 0 0 1 189.2472 139.2079)" class="st2 st3 st4 button" data-number="30">31</text>
	</g>
	<g>
		<circle id="bgnumber_24_" class="st1" cx="194.9" cy="110.9" r="7.1"/>
		<text transform="matrix(1 0 0 1 189.0171 114.4508)" class="st2 st3 st4 button" data-number="28">29</text>
	</g>
	<g>
		<circle id="bgnumber_23_" class="st1" cx="194.9" cy="86.1" r="7.1"/>
		<text transform="matrix(1 0 0 1 189.1521 89.5937)" class="st2 st3 st4 button" data-number="26">27</text>
	</g>
	<g>
		<circle id="bgnumber_22_" class="st1" cx="194.9" cy="61.3" r="7.1"/>
		<text transform="matrix(1 0 0 1 189.2973 64.7366)" class="st2 st3 st4 button" data-number="24">25</text>
	</g>
	<g>
		<circle id="bgnumber_21_" class="st1" cx="194.9" cy="36.4" r="7.1"/>
		<text transform="matrix(1 0 0 1 189.952 39.8794)" class="st2 st3 st4 button" data-number="22">23</text>
	</g>
</g>
</svg>
