<?xml version="1.0" encoding="utf-8"?>
<!-- Generator: Adobe Illustrator 21.0.1, SVG Export Plug-In . SVG Version: 6.00 Build 0)  -->
<!DOCTYPE svg PUBLIC "-//W3C//DTD SVG 1.1//EN" "http://www.w3.org/Graphics/SVG/1.1/DTD/svg11.dtd">
<svg version="1.1" xmlns="http://www.w3.org/2000/svg" xmlns:xlink="http://www.w3.org/1999/xlink" x="0px" y="0px"
	 viewBox="0 0 240 281.3" style="enable-background:new 0 0 240 281.3;" xml:space="preserve">
<style type="text/css">
	.button{cursor: pointer}
	.st0{fill:#B3B2B2;}
	.st1{fill:#FFFFFF;}
	.st2{fill:#29AEE4;}
	.st3{font-family:'BrixSansRegular';}
	.st4{font-size:10px;}
</style>
<g id="Ebene_4">
	<g>
		<path class="st0" d="M53.3,204.9H39.9c-3.5,0-6.3,2.8-6.3,6.3c0,3.5,2.8,6.3,6.3,6.3c0,0,0,0,0,0h13.4c0,0,0,0,0,0
			c0.4,0,0.7-0.3,0.7-0.7v-11.3C54,205.2,53.7,204.9,53.3,204.9z M34.9,211.2c0-2.7,2.2-5,5-5h12.8v9.9H39.9c0,0,0,0,0,0
			C37.1,216.2,34.9,213.9,34.9,211.2z"/>
		<path class="st0" d="M53.3,186H39.9c-3.5,0-6.3,2.8-6.3,6.3c0,3.5,2.8,6.3,6.3,6.3c0,0,0,0,0,0h13.4c0,0,0,0,0,0
			c0.4,0,0.7-0.3,0.7-0.7v-11.3C54,186.2,53.7,186,53.3,186z M34.9,192.3c0-2.7,2.2-5,5-5h12.8v9.9H39.9c0,0,0,0,0,0
			C37.1,197.2,34.9,195,34.9,192.3z"/>
		<path class="st0" d="M53.3,167H39.9c-3.5,0-6.3,2.8-6.3,6.3s2.8,6.3,6.3,6.3c0,0,0,0,0,0h13.4c0,0,0,0,0,0c0.4,0,0.7-0.3,0.7-0.7
			v-11.3C54,167.3,53.7,167,53.3,167z M34.9,173.3c0-2.7,2.2-5,5-5h12.8v9.9H39.9c0,0,0,0,0,0C37.1,178.3,34.9,176.1,34.9,173.3z"/>
		<path class="st0" d="M53.3,148.1H39.9c-3.5,0-6.3,2.8-6.3,6.3c0,3.5,2.8,6.3,6.3,6.3c0,0,0,0,0,0h13.4c0,0,0,0,0,0
			c0.4,0,0.7-0.3,0.7-0.7v-11.3C54,148.4,53.7,148.1,53.3,148.1z M34.9,154.4c0-2.7,2.2-5,5-5h12.8v9.9H39.9c0,0,0,0,0,0
			C37.1,159.3,34.9,157.1,34.9,154.4z"/>
		<path class="st0" d="M53.3,129.1H39.9c-3.5,0-6.3,2.8-6.3,6.3s2.8,6.3,6.3,6.3c0,0,0,0,0,0h13.4c0,0,0,0,0,0
			c0.4,0,0.7-0.3,0.7-0.7v-11.3C54,129.4,53.7,129.1,53.3,129.1z M34.9,135.4c0-2.7,2.2-5,5-5h12.8v9.9H39.9c0,0,0,0,0,0
			C37.1,140.4,34.9,138.2,34.9,135.4z"/>
		<path class="st0" d="M53.3,110.2H39.9c-3.5,0-6.3,2.8-6.3,6.3s2.8,6.3,6.3,6.3c0,0,0,0,0,0h13.4c0,0,0,0,0,0
			c0.4,0,0.7-0.3,0.7-0.7v-11.3C54,110.5,53.7,110.2,53.3,110.2z M34.9,116.5c0-2.7,2.2-5,5-5h12.8v9.9H39.9c0,0,0,0,0,0
			C37.1,121.5,34.9,119.2,34.9,116.5z"/>
		<path class="st0" d="M53.3,91.2H39.9c-3.5,0-6.3,2.8-6.3,6.3s2.8,6.3,6.3,6.3h13.4c0.4,0,0.7-0.3,0.7-0.7V91.9
			C54,91.5,53.7,91.2,53.3,91.2z M34.9,97.5c0-2.7,2.2-5,5-5h12.8v9.9H39.9C37.1,102.5,34.9,100.3,34.9,97.5z"/>
		<path class="st0" d="M53.3,72.3H39.9c-3.5,0-6.3,2.8-6.3,6.3c0,3.5,2.8,6.3,6.3,6.3h13.4c0.4,0,0.7-0.3,0.7-0.7V73
			C54,72.6,53.7,72.3,53.3,72.3z M34.9,78.6c0-2.7,2.2-5,5-5h12.8v9.9H39.9C37.1,83.6,34.9,81.3,34.9,78.6z"/>
		<path class="st0" d="M53.3,53.4H39.9c-3.5,0-6.3,2.8-6.3,6.3s2.8,6.3,6.3,6.3c0,0,0,0,0,0h13.4c0,0,0,0,0,0c0.4,0,0.7-0.3,0.7-0.7
			V54C54,53.6,53.7,53.4,53.3,53.4z M34.9,59.7c0-2.7,2.2-5,5-5h12.8v9.9H39.9c0,0,0,0,0,0C37.1,64.6,34.9,62.4,34.9,59.7z"/>
		<path class="st0" d="M240,268.2l0-163c0-11,0-22.1,0-33.1V38.7c0-5.5,0-11.1,0-16.6c0-2.8,0-5.5,0-8.3c0-2.8,0-5.5,0-8.3
			c0,0,0,0,0,0c0-0.3,0-0.7-0.1-1.1c0-0.4-0.1-0.7-0.3-1.1c-0.1-0.3-0.3-0.7-0.5-1c-0.2-0.3-0.5-0.6-0.7-0.9
			c-0.2-0.3-0.5-0.5-0.8-0.7c-0.3-0.2-0.6-0.4-0.9-0.5c-0.3-0.1-0.7-0.2-1.1-0.3c-0.3,0-0.7,0-1,0c0,0,0,0,0,0s0,0,0,0H21.8
			c-0.3,0-0.6,0-0.9,0c-0.4,0-0.7,0.1-1,0.2c-0.4,0.1-0.7,0.3-1,0.5c-0.3,0.2-0.6,0.5-0.9,0.8c-0.3,0.3-0.5,0.6-0.7,0.9
			c-0.2,0.3-0.4,0.7-0.5,1c-0.1,0.3-0.2,0.7-0.2,1c0,0.3,0,0.6,0,0.9c0,0,0,0,0,0c0,2.7,0,5.4,0,8.1c0,2.7,0,5.4,0,8.2
			c0,5.4,0,10.9,0,16.3c0,10.9,0,21.9,0,32.8v16.9h-0.7c-0.1,0-0.2,0-0.4,0l0,0H0.7c-0.4,0-0.7,0.3-0.7,0.7v149
			c0,0.4,0.3,0.7,0.7,0.7c0,0,0,0,0,0h14.7c0.1,0,0.2,0.1,0.3,0.1c0.1,0,0.1,0,0.2-0.1h0.6c0,10,0,19.9,0,29.9c0,0,0,0,0,0v8
			c0,0.3,0,0.6,0,0.9c0,0.3,0.1,0.7,0.2,1c0.1,0.3,0.3,0.7,0.5,1c0.2,0.3,0.4,0.6,0.7,0.9c0.3,0.3,0.6,0.5,0.9,0.7
			c0.3,0.2,0.6,0.4,1,0.5c0.3,0.1,0.6,0.2,1,0.2c0.3,0,0.6,0,0.9,0c0,0,0,0,0,0h213.1c0,0,0,0,0,0c0.3,0,0.7,0,1,0
			c0.4,0,0.7-0.1,1-0.2c0.3-0.1,0.6-0.3,0.9-0.5c0.3-0.2,0.5-0.4,0.8-0.6c0.3-0.2,0.5-0.5,0.7-0.8c0.2-0.3,0.4-0.6,0.5-0.9
			c0.1-0.3,0.2-0.7,0.3-1c0-0.4,0.1-0.7,0.1-1c0,0,0,0,0,0V268.2z M1.3,237V89.3h14.1c0,0,0,0,0,0s0,0,0,0h0.9v14.6
			c0,11,0,22,0,32.9v65.8c0,11.4,0,22.9,0,34.3H1.3z M238.4,277.7c-0.1,0.2-0.2,0.4-0.4,0.7c-0.1,0.2-0.3,0.4-0.5,0.6
			c-0.2,0.2-0.4,0.3-0.6,0.5c-0.2,0.1-0.4,0.2-0.7,0.3c-0.2,0.1-0.5,0.1-0.7,0.2c-0.2,0-0.5,0-0.7,0c0,0,0,0,0,0c0,0,0,0,0,0H21.6
			c0,0,0,0,0,0c-0.3,0-0.5,0-0.7,0c-0.3,0-0.5-0.1-0.7-0.2c-0.2-0.1-0.5-0.2-0.7-0.3c-0.2-0.1-0.4-0.3-0.7-0.5
			c-0.2-0.2-0.4-0.4-0.5-0.7c-0.1-0.2-0.3-0.5-0.3-0.7c-0.1-0.2-0.1-0.5-0.2-0.7c0-0.2,0-0.5,0-0.7v-8c0,0,0,0,0,0
			c0-21.8,0-43.7,0-65.5v-65.8c0-11,0-22,0-32.9V71c0-10.9,0-21.9,0-32.8c0-5.4,0-10.9,0-16.3c0-2.7,0-5.4,0-8.2c0-2.7,0-5.4,0-8.2
			c0,0,0,0,0,0c0-0.3,0-0.5,0-0.8c0-0.3,0.1-0.5,0.2-0.8c0.1-0.3,0.2-0.5,0.4-0.8c0.2-0.2,0.3-0.5,0.6-0.7c0.2-0.2,0.4-0.4,0.7-0.6
			c0.2-0.2,0.5-0.3,0.7-0.4c0.2-0.1,0.5-0.1,0.7-0.2c0.3,0,0.5,0,0.8,0h212.8c0,0,0,0,0,0s0,0,0,0c0.3,0,0.6,0,0.8,0
			c0.3,0,0.5,0.1,0.7,0.2c0.2,0.1,0.5,0.2,0.7,0.4c0.2,0.2,0.4,0.3,0.6,0.5c0.2,0.2,0.4,0.4,0.5,0.7c0.2,0.2,0.3,0.5,0.4,0.7
			c0.1,0.3,0.2,0.5,0.2,0.8c0,0.3,0,0.6,0,0.9c0,2.8,0,5.5,0,8.3c0,2.8,0,5.5,0,8.3c0,5.5,0,11.1,0,16.6v33.3c0,11,0,22.1,0,33.1
			l0,163v8c0,0,0,0,0,0c0,0.3,0,0.6,0,0.8C238.6,277.2,238.5,277.5,238.4,277.7z"/>
		<path class="st0" d="M216.5,215C216.5,215,216.5,215,216.5,215C216.5,215,216.5,215,216.5,215h-13.4c-0.4,0-0.7,0.3-0.7,0.7V227
			c0,0.4,0.3,0.7,0.7,0.7h13.4c0,0,0,0,0,0s0,0,0,0c3.5,0,6.3-2.8,6.3-6.3C222.8,217.9,220,215,216.5,215z M216.5,226.3
			C216.5,226.3,216.5,226.3,216.5,226.3C216.5,226.3,216.5,226.3,216.5,226.3h-12.8v-9.9h12.8c0,0,0,0,0,0s0,0,0,0c2.7,0,5,2.2,5,5
			C221.5,224.1,219.3,226.3,216.5,226.3z"/>
		<path class="st0" d="M216.5,196.1C216.5,196.1,216.5,196.1,216.5,196.1l-13.4,0c-0.4,0-0.7,0.3-0.7,0.7V208c0,0.4,0.3,0.7,0.7,0.7
			c0,0,0,0,0,0h13.4c0,0,0,0,0,0s0,0,0,0c3.5,0,6.3-2.8,6.3-6.3C222.8,198.9,220,196.1,216.5,196.1z M216.5,207.4
			C216.5,207.4,216.5,207.4,216.5,207.4C216.5,207.4,216.5,207.4,216.5,207.4h-12.8v-9.9h12.8c0,0,0,0,0,0c2.7,0,5,2.2,5,5
			C221.5,205.1,219.3,207.4,216.5,207.4z"/>
		<path class="st0" d="M216.5,177.2C216.5,177.2,216.5,177.2,216.5,177.2C216.5,177.2,216.5,177.2,216.5,177.2h-13.4
			c-0.4,0-0.7,0.3-0.7,0.7v11.3c0,0.4,0.3,0.7,0.7,0.7c0,0,0,0,0,0h13.4c0,0,0,0,0,0s0,0,0,0c3.5,0,6.3-2.8,6.3-6.3
			S220,177.2,216.5,177.2z M216.5,188.4C216.5,188.4,216.5,188.4,216.5,188.4C216.5,188.4,216.5,188.4,216.5,188.4h-12.8v-9.9h12.8
			c0,0,0,0,0,0s0,0,0,0c2.7,0,5,2.2,5,5C221.5,186.2,219.3,188.4,216.5,188.4z"/>
		<path class="st0" d="M216.5,158.2C216.5,158.2,216.5,158.2,216.5,158.2C216.5,158.2,216.5,158.2,216.5,158.2h-13.4
			c-0.4,0-0.7,0.3-0.7,0.7v11.3c0,0.4,0.3,0.7,0.7,0.7h13.4c0,0,0,0,0,0s0,0,0,0c3.5,0,6.3-2.8,6.3-6.3
			C222.8,161,220,158.2,216.5,158.2z M216.5,169.5C216.5,169.5,216.5,169.5,216.5,169.5C216.5,169.5,216.5,169.5,216.5,169.5h-12.8
			v-9.9h12.8c0,0,0,0,0,0s0,0,0,0c2.7,0,5,2.2,5,5C221.5,167.3,219.3,169.5,216.5,169.5z"/>
		<path class="st0" d="M216.5,139.3C216.5,139.3,216.5,139.3,216.5,139.3l-13.4,0c-0.4,0-0.7,0.3-0.7,0.7v11.3c0,0,0,0,0,0s0,0,0,0
			c0,0.4,0.3,0.7,0.7,0.7h13.4c0,0,0,0,0,0s0,0,0,0c3.5,0,6.3-2.8,6.3-6.3C222.8,142.1,220,139.3,216.5,139.3z M216.5,150.5
			C216.5,150.5,216.5,150.5,216.5,150.5C216.5,150.5,216.5,150.5,216.5,150.5h-12.8v-9.9h12.8c0,0,0,0,0,0c2.7,0,5,2.2,5,5
			C221.5,148.3,219.3,150.5,216.5,150.5z"/>
		<path class="st0" d="M200.9,145.3c-0.1-0.3-0.4-0.4-0.7-0.4h0c0,0,0,0,0,0c0,0,0,0,0,0c0,0,0,0,0,0h-15c0,0,0,0,0,0h0
			c-0.3,0-0.6,0.2-0.7,0.5c0,0.1-0.1,0.2-0.1,0.3c0,0.4,0.3,0.8,0.8,0.8c0,0,0,0,0,0h15c0.4,0,0.8-0.3,0.8-0.8
			C200.9,145.5,200.9,145.4,200.9,145.3z"/>
		<path class="st0" d="M200.2,182.7C200.2,182.7,200.2,182.7,200.2,182.7l-15,0c0,0,0,0,0,0c-0.4,0-0.8,0.3-0.8,0.7
			c0,0.1,0,0.2,0.1,0.3c0.1,0.3,0.4,0.5,0.7,0.5h0c0,0,0,0,0,0c0,0,0,0,0,0h15c0,0,0,0,0,0h0c0.3,0,0.6-0.2,0.7-0.4
			c0-0.1,0.1-0.2,0.1-0.3C200.9,183.1,200.6,182.7,200.2,182.7z"/>
		<path class="st0" d="M200.2,201.7C200.2,201.7,200.2,201.7,200.2,201.7C200.2,201.7,200.2,201.7,200.2,201.7l-15,0c0,0,0,0,0,0
			c-0.4,0-0.7,0.3-0.8,0.7c0,0.1,0,0.2,0.1,0.3c0.1,0.3,0.4,0.5,0.7,0.5h15.1c0.3,0,0.6-0.2,0.7-0.5c0-0.1,0.1-0.2,0.1-0.3
			C200.9,202,200.6,201.7,200.2,201.7z"/>
		<path class="st0" d="M216.5,120.3C216.5,120.3,216.5,120.3,216.5,120.3C216.5,120.3,216.5,120.3,216.5,120.3h-13.4
			c-0.4,0-0.7,0.3-0.7,0.7v11.3c0,0.4,0.3,0.7,0.7,0.7c0,0,0,0,0,0h13.4c0,0,0,0,0,0s0,0,0,0c3.5,0,6.3-2.8,6.3-6.3
			S220,120.3,216.5,120.3z M216.5,131.6C216.5,131.6,216.5,131.6,216.5,131.6C216.5,131.6,216.5,131.6,216.5,131.6h-12.8v-9.9h12.8
			c0,0,0,0,0,0s0,0,0,0c2.7,0,5,2.2,5,5S219.3,131.6,216.5,131.6z"/>
		<path class="st0" d="M216.5,101.4C216.5,101.4,216.5,101.4,216.5,101.4C216.5,101.4,216.5,101.4,216.5,101.4h-13.4
			c-0.4,0-0.7,0.3-0.7,0.7v11.3c0,0.4,0.3,0.7,0.7,0.7h13.4c0,0,0,0,0,0s0,0,0,0c3.5,0,6.3-2.8,6.3-6.3S220,101.4,216.5,101.4z
			 M216.5,112.7C216.5,112.7,216.5,112.7,216.5,112.7C216.5,112.7,216.5,112.7,216.5,112.7h-12.8v-9.9h12.8c0,0,0,0,0,0s0,0,0,0
			c2.7,0,5,2.2,5,5S219.3,112.7,216.5,112.7z"/>
		<path class="st0" d="M216.5,82.4C216.5,82.4,216.5,82.4,216.5,82.4C216.5,82.4,216.5,82.4,216.5,82.4h-13.4
			c-0.4,0-0.7,0.3-0.7,0.7v11.3c0,0.4,0.3,0.7,0.7,0.7h13.4c0,0,0,0,0,0s0,0,0,0c3.5,0,6.3-2.8,6.3-6.3S220,82.4,216.5,82.4z
			 M216.5,93.7C216.5,93.7,216.5,93.7,216.5,93.7C216.5,93.7,216.5,93.7,216.5,93.7h-12.8v-9.9h12.8c0,0,0,0,0,0s0,0,0,0
			c2.7,0,5,2.2,5,5S219.3,93.7,216.5,93.7z"/>
		<path class="st0" d="M216.5,63.5C216.5,63.5,216.5,63.5,216.5,63.5l-13.4,0c-0.4,0-0.7,0.3-0.7,0.7v11.3c0,0.4,0.3,0.7,0.7,0.7
			h13.4c0,0,0,0,0,0s0,0,0,0c3.5,0,6.3-2.8,6.3-6.3C222.8,66.3,220,63.5,216.5,63.5z M216.5,74.8C216.5,74.8,216.5,74.8,216.5,74.8
			C216.5,74.8,216.5,74.8,216.5,74.8h-12.8v-9.9h12.8c0,0,0,0,0,0c2.7,0,5,2.2,5,5S219.3,74.8,216.5,74.8z"/>
		<path class="st0" d="M200.9,107.4c-0.1-0.3-0.4-0.5-0.7-0.5h-15.1c-0.4,0-0.7,0.3-0.7,0.7v0c0,0,0,0,0,0c0,0.4,0.3,0.8,0.8,0.8
			c0,0,0,0,0,0s0,0,0,0h15c0.4,0,0.8-0.3,0.8-0.8C200.9,107.6,200.9,107.5,200.9,107.4z"/>
		<path class="st0" d="M200.9,126.3c-0.1-0.3-0.4-0.5-0.7-0.5h-15.1c-0.4,0-0.7,0.3-0.7,0.7v0c0,0,0,0,0,0c0,0.4,0.3,0.8,0.8,0.8
			c0,0,0,0,0,0h15c0.4,0,0.7-0.3,0.7-0.8C200.9,126.5,200.9,126.4,200.9,126.3z"/>
		<path class="st0" d="M200.9,88.4c-0.1-0.3-0.4-0.5-0.7-0.5h-15.1c-0.4,0-0.7,0.3-0.7,0.7v0c0,0,0,0,0,0c0,0.4,0.3,0.8,0.8,0.8
			c0,0,0,0,0,0h15c0.4,0,0.7-0.3,0.7-0.8C200.9,88.6,200.9,88.5,200.9,88.4z"/>
		<path class="st0" d="M185.1,70.5C185.1,70.5,185.2,70.5,185.1,70.5l15,0c0,0,0,0,0,0c0.2,0,0.4-0.1,0.5-0.2
			c0.1-0.1,0.2-0.3,0.2-0.5c0,0,0,0,0,0v0c0-0.4-0.3-0.7-0.7-0.7h-15.1c-0.4,0-0.7,0.3-0.7,0.7v0c0,0,0,0,0,0
			C184.4,70.2,184.7,70.5,185.1,70.5z"/>
		<path class="st0" d="M237.6,4.4c-0.1-0.4-0.4-0.7-0.6-1c-0.3-0.3-0.7-0.6-1.1-0.7c-0.4-0.2-0.8-0.3-1.3-0.3c0,0,0,0,0,0
			c0,0,0,0,0,0c0,0,0,0,0,0H21.8c0,0,0,0,0,0c0,0,0,0,0,0c-0.2,0-0.4,0-0.6,0.1c-0.2,0-0.4,0.1-0.6,0.2c-0.4,0.2-0.7,0.4-1,0.7
			c-0.3,0.3-0.5,0.7-0.7,1c-0.2,0.4-0.2,0.8-0.2,1.2c0,0,0,0,0,0v270.3c0,0,0,0,0,0c0,0,0,0,0,0c0,0.2,0,0.4,0,0.6
			c0,0.2,0.1,0.4,0.1,0.6c0.1,0.4,0.3,0.7,0.6,1c0.3,0.3,0.6,0.6,1,0.8c0.4,0.2,0.8,0.3,1.2,0.3c0,0,0,0,0,0h0h213.1c0,0,0,0,0,0
			c0.4,0,0.9-0.1,1.2-0.3c0.4-0.2,0.7-0.4,1-0.8c0.2-0.3,0.4-0.6,0.6-1c0.1-0.2,0.1-0.4,0.1-0.6c0-0.2,0-0.4,0-0.6c0,0,0,0,0,0
			c0,0,0,0,0,0V5.6c0,0,0,0,0,0C237.8,5.2,237.7,4.8,237.6,4.4z M237,276.8c-0.1,0.3-0.3,0.6-0.5,0.8c-0.2,0.3-0.5,0.5-0.8,0.6
			c-0.3,0.1-0.6,0.2-1,0.2c0,0,0,0,0,0H21.6c-0.3,0-0.7-0.1-1-0.2c-0.3-0.1-0.6-0.4-0.8-0.6c-0.2-0.2-0.3-0.5-0.5-0.8
			c-0.1-0.2-0.1-0.3-0.1-0.5c0-0.2,0-0.3,0-0.5c0,0,0,0,0,0V5.6c0,0,0,0,0,0c0-0.3,0.1-0.7,0.2-1C19.6,4.3,19.8,4,20,3.8
			c0.2-0.2,0.5-0.4,0.8-0.6c0.1-0.1,0.3-0.1,0.5-0.1c0.2,0,0.3,0,0.5-0.1h212.8c0,0,0,0,0,0s0,0,0,0c0.4,0,0.7,0.1,1,0.2
			c0.3,0.1,0.6,0.3,0.8,0.6c0.2,0.2,0.4,0.5,0.5,0.8c0.1,0.3,0.2,0.6,0.2,0.9c0,0,0,0,0,0v270.3c0,0.2,0,0.3,0,0.5
			C237.1,276.5,237,276.7,237,276.8z"/>
		<path class="st0" d="M175.4,228.5V52.4c0.1-0.2,0.1-0.5,0-0.7c-0.2-0.9-0.9-1.7-1.7-1.9c-0.1-0.2-0.3-0.4-0.5-0.4
			c-0.2,0-0.4,0.1-0.6,0.3H83.9c-0.1-0.2-0.3-0.3-0.6-0.2c-0.2,0-0.4,0.2-0.5,0.4c-0.8,0.2-1.4,0.8-1.7,1.6
			c-0.2,0.1-0.4,0.3-0.4,0.6c0,0.2,0.1,0.4,0.3,0.5v175.9c-0.1,0.1-0.2,0.3-0.2,0.5c0,0.2,0.1,0.4,0.3,0.6c0.2,0.9,0.9,1.6,1.8,1.8
			c0.1,0.2,0.3,0.3,0.6,0.3c0,0,0.1,0,0.1,0c0.2,0,0.3-0.1,0.4-0.2h88.5c0.1,0.1,0.3,0.2,0.5,0.2c0.2,0,0.4-0.1,0.5-0.3
			c0.9-0.2,1.6-0.9,1.9-1.8c0.2-0.1,0.3-0.3,0.3-0.5C175.6,228.8,175.5,228.6,175.4,228.5z M172.8,230
			C172.8,230,172.8,230,172.8,230C172.8,230,172.8,230,172.8,230H83.6c0,0,0,0,0,0c-0.7,0-1.2-0.5-1.2-1.2c0,0,0,0,0,0V52.2
			c0,0,0,0,0,0c0-0.7,0.5-1.2,1.2-1.2c0,0,0,0,0,0c0,0,0,0,0,0h89.3c0,0,0,0,0,0c0,0,0,0,0,0c0.7,0,1.2,0.5,1.2,1.2v176.7
			c0,0,0,0,0,0C174.1,229.5,173.5,230,172.8,230z"/>
		<path class="st0" d="M200.7,220.8c-0.1-0.1-0.3-0.2-0.5-0.2c0,0,0,0,0,0h0c0,0,0,0,0,0c0,0,0,0,0,0h-15c0,0,0,0,0,0
			c-0.2,0-0.4,0.1-0.5,0.2c0,0-0.1,0.1-0.1,0.1c0,0,0,0.1-0.1,0.1c0,0.1-0.1,0.2-0.1,0.3c0,0,0,0,0,0s0,0,0,0c0,0,0,0,0,0v0
			c0,0.4,0.3,0.7,0.7,0.7h15.1c0.3,0,0.6-0.2,0.7-0.5c0-0.1,0.1-0.2,0.1-0.3C200.9,221.2,200.9,221,200.7,220.8z"/>
		<path class="st0" d="M182.2,45.9c-0.3-0.7-0.7-1.4-1.2-1.9c-0.5-0.5-1.2-0.9-1.9-1.2c-0.7-0.3-1.4-0.4-2.2-0.4c0,0,0,0,0,0
			s0,0,0,0H79.5c0,0,0,0,0,0c-0.8,0-1.5,0.1-2.2,0.4c-0.7,0.3-1.4,0.7-1.9,1.2c-0.5,0.5-0.9,1.2-1.2,1.9c-0.3,0.7-0.4,1.4-0.4,2.2
			c0,0,0,0,0,0c0,0,0,0,0,0v184.8c0,0,0,0,0,0c0,0.8,0.1,1.5,0.4,2.2c0.3,0.7,0.7,1.3,1.2,1.9c0.5,0.5,1.2,0.9,1.9,1.2
			c0.7,0.3,1.4,0.4,2.2,0.4h97.4c0,0,0,0,0,0c0.8,0,1.5-0.1,2.2-0.4c0.7-0.3,1.3-0.7,1.9-1.2c0.5-0.5,0.9-1.2,1.2-1.9
			c0.3-0.7,0.4-1.4,0.4-2.2c0,0,0,0,0,0c0,0,0,0,0,0V48.1c0,0,0,0,0,0C182.6,47.3,182.4,46.6,182.2,45.9z M181.6,234.8
			c-0.2,0.6-0.6,1.2-1,1.6c-0.5,0.5-1,0.8-1.6,1.1c-0.6,0.2-1.3,0.4-1.9,0.4c0,0,0,0,0,0H79.5c-0.7,0-1.3-0.1-1.9-0.4
			c-0.6-0.2-1.2-0.6-1.6-1.1c-0.5-0.5-0.8-1-1.1-1.6c-0.2-0.6-0.3-1.2-0.3-1.9c0,0,0,0,0,0V48.1c0,0,0,0,0,0c0,0,0,0,0,0
			c0-0.7,0.1-1.3,0.3-1.9c0.2-0.6,0.6-1.2,1.1-1.6c0.5-0.5,1-0.8,1.6-1.1c0.6-0.2,1.3-0.4,1.9-0.4c0,0,0,0,0,0h97.4c0,0,0,0,0,0
			s0,0,0,0c0.7,0,1.3,0.1,2,0.3c0.6,0.2,1.2,0.6,1.6,1.1c0.5,0.4,0.8,1,1.1,1.6c0.2,0.6,0.3,1.2,0.3,1.9c0,0,0,0,0,0v184.8
			c0,0,0,0,0,0c0,0,0,0,0,0C181.9,233.6,181.8,234.2,181.6,234.8z"/>
		<path class="st0" d="M200.2,163.8h-15.1c-0.4,0-0.7,0.3-0.7,0.7v0c0,0.4,0.3,0.7,0.7,0.7h15.1c0.4,0,0.7-0.3,0.7-0.7v0
			C200.9,164.1,200.6,163.8,200.2,163.8z"/>
		<path class="st0" d="M70.9,210.4h-15c-0.4,0-0.7,0.3-0.7,0.7c0,0.4,0.3,0.7,0.7,0.7h15c0.4,0,0.7-0.3,0.7-0.7
			C71.6,210.7,71.3,210.4,70.9,210.4z"/>
		<path class="st0" d="M70.9,191.4h-15c-0.4,0-0.7,0.3-0.7,0.7c0,0.4,0.3,0.7,0.7,0.7h15c0.4,0,0.7-0.3,0.7-0.7
			C71.6,191.8,71.3,191.4,70.9,191.4z"/>
		<path class="st0" d="M70.9,172.5h-15c-0.4,0-0.7,0.3-0.7,0.7s0.3,0.7,0.7,0.7h15c0.4,0,0.7-0.3,0.7-0.7S71.3,172.5,70.9,172.5z"/>
		<path class="st0" d="M70.9,153.5h-15c-0.4,0-0.7,0.3-0.7,0.7c0,0.4,0.3,0.7,0.7,0.7h15c0.4,0,0.7-0.3,0.7-0.7
			C71.6,153.9,71.3,153.5,70.9,153.5z"/>
		<path class="st0" d="M70.9,134.6h-15c-0.4,0-0.7,0.3-0.7,0.7s0.3,0.7,0.7,0.7h15c0.4,0,0.7-0.3,0.7-0.7S71.3,134.6,70.9,134.6z"/>
		<path class="st0" d="M70.9,115.6h-15c-0.4,0-0.7,0.3-0.7,0.7s0.3,0.7,0.7,0.7h15c0.4,0,0.7-0.3,0.7-0.7S71.3,115.6,70.9,115.6z"/>
		<path class="st0" d="M70.9,96.7h-15c-0.4,0-0.7,0.3-0.7,0.7s0.3,0.7,0.7,0.7h15c0.4,0,0.7-0.3,0.7-0.7S71.3,96.7,70.9,96.7z"/>
		<path class="st0" d="M70.9,77.7h-15c-0.4,0-0.7,0.3-0.7,0.7c0,0.4,0.3,0.7,0.7,0.7h15c0.4,0,0.7-0.3,0.7-0.7
			C71.6,78.1,71.3,77.7,70.9,77.7z"/>
		<path class="st0" d="M70.9,58.8h-15c-0.4,0-0.7,0.3-0.7,0.7c0,0.4,0.3,0.7,0.7,0.7h15c0.4,0,0.7-0.3,0.7-0.7
			C71.6,59.1,71.3,58.8,70.9,58.8z"/>
	</g>
</g>
<g id="Ebene_3">
	<g>
		<circle id="bgnumber_8_" class="st1" cx="87.7" cy="212.2" r="7.1"/>
		<text transform="matrix(1 0 0 1 83.4182 215.7496)" class="st2 st3 st4 button" data-number="16">17</text>
	</g>
	<g>
		<circle id="bgnumber_7_" class="st1" cx="87.7" cy="193.4" r="7.1"/>
		<text transform="matrix(1 0 0 1 83.1382 196.9488)" class="st2 st3 st4 button" data-number="14">15</text>
	</g>
	<g>
		<circle id="bgnumber_6_" class="st1" cx="87.7" cy="174.5" r="7.1"/>
		<text transform="matrix(1 0 0 1 83.0432 178.0475)" class="st2 st3 st4 button" data-number="13">13</text>
	</g>
	<g>
		<circle id="bgnumber_5_" class="st1" cx="87.7" cy="155.6" r="7.1"/>
		<text transform="matrix(1 0 0 1 83.8433 159.0677)" class="st2 st3 st4 button" data-number="10">11</text>
	</g>
	<g>
		<circle id="bgnumber_4_" class="st1" cx="87.7" cy="136.7" r="7.1"/>
		<text transform="matrix(1 0 0 1 81.9236 140.1667)" class="st2 st3 st4 button" data-number="8">09</text>
	</g>
	<g>
		<circle id="bgnumber_3_" class="st1" cx="87.7" cy="117.9" r="7.1"/>
		<text transform="matrix(1 0 0 1 82.3828 121.3658)" class="st2 st3 st4 button" data-number="6">07</text>
	</g>
	<g>
		<circle id="bgnumber_2_" class="st1" cx="87.7" cy="99" r="7.1"/>
		<text transform="matrix(1 0 0 1 82.1034 102.4648)" class="st2 st3 st4 button" data-number="4">05</text>
	</g>
	<g>
		<circle id="bgnumber_1_" class="st1" cx="87.7" cy="80.1" r="7.1"/>
		<text transform="matrix(1 0 0 1 82.0085 83.5638)" class="st2 st3 st4 button" data-number="2">03</text>
	</g>
	<g>
		<circle id="bgnumber" class="st1" cx="87.7" cy="61.2" r="7.1"/>
		<text transform="matrix(1 0 0 1 82.8085 64.6628)" class="st2 st3 st4 button" data-number="0">01</text>
	</g>
	<g>
		<circle id="bgnumber_19_" class="st1" cx="169.7" cy="222.3" r="7.1"/>
		<text transform="matrix(1 0 0 1 164.9353 225.8151)" class="st2 st3 st4 button" data-number="17">18</text>
	</g>
	<g>
		<circle id="bgnumber_18_" class="st1" cx="169.7" cy="203.1" r="7.1"/>
		<text transform="matrix(1 0 0 1 164.9754 206.7247)" class="st2 st3 st4 button" data-number="15">16</text>
	</g>
	<g>
		<circle id="bgnumber_17_" class="st1" cx="169.7" cy="184.6" r="7.1"/>
		<text transform="matrix(1 0 0 1 164.925 188.2007)" class="st2 st3 st4 button" data-number="13">14</text>
	</g>
	<g>
		<circle id="bgnumber_16_" class="st1" cx="169.7" cy="166.8" r="7.1"/>
		<text transform="matrix(1 0 0 1 165.2049 170.2648)" class="st2 st3 st4 button" data-number="11">12</text>
	</g>
	<g>
		<circle id="bgnumber_15_" class="st1" cx="169.7" cy="146.6" r="7.1"/>
		<text transform="matrix(1 0 0 1 164.8253 150.0745)" class="st2 st3 st4 button" data-number="9">10</text>
	</g>
	<g>
		<circle id="bgnumber_14_" class="st1" cx="169.7" cy="129.1" r="7.1"/>
		<text transform="matrix(1 0 0 1 163.9 132.6507)" class="st2 st3 st4 button" data-number="7">08</text>
	</g>
	<g>
		<circle id="bgnumber_13_" class="st1" cx="169.7" cy="108" r="7.1"/>
		<text transform="matrix(1 0 0 1 163.9403 111.4602)" class="st2 st3 st4 button" data-number="5">06</text>
	</g>
	<g>
		<circle id="bgnumber_12_" class="st1" cx="169.7" cy="89.8" r="7.1"/>
		<text transform="matrix(1 0 0 1 163.8901 93.2698)" class="st2 st3 st4 button" data-number="3">04</text>
	</g>
	<g>
		<circle id="bgnumber_11_" class="st1" cx="169.7" cy="71" r="7.1"/>
		<text transform="matrix(1 0 0 1 164.1703 74.4126)" class="st2 st3 st4 button" data-number="1">02</text>
	</g>
</g>
</svg>
