<?xml version="1.0" encoding="utf-8"?>
<!-- Generator: Adobe Illustrator 21.0.1, SVG Export Plug-In . SVG Version: 6.00 Build 0)  -->
<!DOCTYPE svg PUBLIC "-//W3C//DTD SVG 1.1//EN" "http://www.w3.org/Graphics/SVG/1.1/DTD/svg11.dtd">
<svg version="1.1" xmlns="http://www.w3.org/2000/svg" xmlns:xlink="http://www.w3.org/1999/xlink" x="0px" y="0px"
	 viewBox="0 0 420 351.3" style="enable-background:new 0 0 420 351.3;" xml:space="preserve">
<style type="text/css">
	.button{cursor: pointer}
	.st0{fill:#B3B2B2;}
	.st1{fill:#FFFFFF;}
	.st2{fill:#29AEE4;}
	.st3{font-family:'BrixSansRegular';}
	.st4{font-size:10px;}
</style>
<g id="Ebene_4">
	<g>
		<path class="st0" d="M373.9,188.5h-38.8v123.2h38.8V188.5z M372.8,310.6h-36.6v-121h36.6V310.6z"/>
		<path class="st0" d="M371.2,192.4h-33.4v115.5h33.4V192.4z M370.2,306.9h-31.4V193.3h31.4V306.9z"/>
		<path class="st0" d="M34.8,157.9c0,0.2,0,0.4,0,0.5h0c0,0.2,0,0.4,0,0.6h0l0,0.6l0,0c0,0.2,0,0.4,0.1,0.5l0,0
			c0.2,0.6,0.6,0.9,1.2,1.1l0,0c0.1,0,0.3,0,0.4,0v0l0,0c0,0,0,0,0,0v0l0.1,0l0,0l0.2,0c1.6-0.1,3.2-0.2,4.9-0.3l5.1-0.3
			c1.7-0.1,3.4-0.2,5.1-0.3l0,0c0.2,0,0.3,0,0.5-0.1l0,0c0,0,0,0,0,0c0,0,0,0,0,0l0,0c0.6-0.2,0.9-0.6,1-1.2l-0.1,0l0.1,0
			c0-0.1,0-0.2,0-0.4l-0.3,0l0.3,0c0-0.3-0.1-0.5-0.2-0.7c-0.1-0.2-0.2-0.4-0.4-0.5c-0.1-0.1-0.3-0.2-0.5-0.3
			c-0.2-0.1-0.4-0.1-0.5-0.1l0,0l-10.1-0.5c-1.7-0.1-3.4-0.2-5.1-0.3l0,0.3l0,0l0-0.3l0,0.3l0,0l0-0.3l-0.3,0l0,0.3l-0.1-0.3
			c-0.6,0.1-1,0.4-1.2,1l0,0C34.8,157.5,34.8,157.7,34.8,157.9l0.3-0.1l0,0L34.8,157.9l0.3,0l0,0L34.8,157.9z M36.5,157.1
			L36.5,157.1L36.5,157.1L36.5,157.1z M36.1,157.6c0.1-0.1,0.2-0.1,0.4-0.1l15.2,0.8l0,0c0.4,0,0.5,0.3,0.5,0.5
			c0,0.2-0.1,0.5-0.5,0.5v0L36.5,160l0,0c-0.1,0-0.3,0-0.4-0.1c-0.1-0.1-0.2-0.2-0.2-0.4l-0.4,0l0,0l0.4,0c0-0.5,0-1.1,0-1.6l-0.4,0
			l0,0l0.4,0C36,157.8,36,157.7,36.1,157.6z M35.3,158.5C35.3,158.5,35.3,158.5,35.3,158.5h-0.2H35.3z M35.2,160l0.1-0.1
			c0,0,0,0,0,0L35.2,160z M36.2,160.7L36.2,160.7l0,0.1L36.2,160.7z M52.1,159.8C52.1,159.8,52.1,159.8,52.1,159.8l0.1,0.2
			L52.1,159.8z M35.4,157.5C35.4,157.5,35.4,157.5,35.4,157.5l-0.2-0.1L35.4,157.5z"/>
		<path class="st0" d="M72,191.7L72,191.7L72,191.7c-0.3-5.1-0.5-10.2-0.8-15.2l-0.3,0l0,0l0.3,0l0-0.1l0,0
			c-0.1-0.8-0.5-1.3-1.3-1.4l0,0.1l0-0.1c-0.2-0.1-0.5-0.1-0.7,0l0,0c-0.7,0.1-1.1,0.5-1.3,1.2l0,0c0,0.1-0.1,0.2-0.1,0.4l0.3,0
			l-0.3,0l0,1.1l0.3,0l-0.3,0l0,0.4c0,0.3,0,0.5,0,0.8c0,0.3,0,0.6,0,0.9l-0.3,5.7c0,0.4,0,0.9-0.1,1.4l-0.2,4l0.5,0v0l-0.5,0l0,0.9
			l0.3,0l0,0l-0.3,0c0,0.1,0,0.2,0,0.4l0.3,0v0L67,192c0.1,0.6,0.4,1,0.9,1.3l0.1-0.3l-0.1,0.3l0.1,0.1l0.1-0.3l-0.1,0.3
			c0.2,0.1,0.3,0.1,0.5,0.1v0c0.1,0,0.3,0,0.4,0V193c0,0,0,0,0,0v0.5h0.2V193l0,0.5l0.2,0v0h0.2v-0.4l0,0.4l0.2,0l0-0.3l0,0.3l0.4,0
			l0-0.3l0,0l0.1,0.3l0.1,0l-0.1-0.3l0,0l0,0.3c0.2,0,0.3-0.1,0.5-0.1l0,0c0.5-0.2,0.8-0.6,0.9-1.1l0,0C72,192.1,72,191.9,72,191.7
			L72,191.7L72,191.7C72,191.7,72,191.7,72,191.7L72,191.7z M71.9,191.7l-0.2,0l0,0L71.9,191.7L71.9,191.7z M70.3,192.6l0-0.4
			c-0.5,0-1.1,0-1.6,0v0c-0.1,0-0.3-0.1-0.4-0.2c-0.1-0.1-0.1-0.2-0.1-0.4l0.8-15.2l0,0c0-0.4,0.3-0.5,0.5-0.5
			c0.2,0,0.5,0.1,0.5,0.5l0.8,15.2l0,0c0,0.1,0,0.3-0.1,0.4c-0.1,0.1-0.2,0.2-0.4,0.2L70.3,192.6L70.3,192.6z M67.8,191.7
			L67.8,191.7L67.8,191.7L67.8,191.7z M69.5,193C69.5,193,69.5,193,69.5,193L69.5,193L69.5,193z M71.4,192.1
			C71.4,192.1,71.4,192.1,71.4,192.1l0.2,0.1L71.4,192.1z"/>
		<path class="st0" d="M103.3,166.6c0-0.6-0.2-1.1-0.7-1.4l-0.2,0.3l0.2-0.3l-0.2-0.1l-0.1,0.3l0,0l0.1-0.3l-0.3-0.1l-0.1,0.3
			l0.1-0.3l-5.1-1.1c-1.7-0.4-3.3-0.7-5-1.1l-1.2-0.3c-1.2-0.3-2.4-0.5-3.6-0.8L87,162l0,0l0-0.3l-0.3,0l0,0.3l0,0v-0.3
			c-0.6,0-1,0.2-1.4,0.7l0.3,0.2l-0.3-0.2l-0.1,0.3l0.3,0.2l-0.3-0.1c-0.3,0.7-0.1,1.5,0.6,2l0,0c0.2,0.1,0.3,0.2,0.5,0.3l0,0
			l14.5,4.7l0.1-0.3l-0.1,0.3l0.2,0.1l0,0l0.2,0l0-0.3l0,0l0.1-0.2l0,0.5l0-0.3l0,0.3l0.2,0l0-0.3l0.1,0.3c0.4-0.1,0.7-0.2,1-0.5
			l0,0c0.2-0.2,0.3-0.4,0.4-0.7l-0.3-0.1l0.3,0.1l0.1-0.5l-0.3-0.1l0.3,0.1l0.2-0.8l-0.3-0.1l0.3,0c0-0.1,0-0.2,0.1-0.2l-0.3-0.1
			l0,0l0.3,0.1l0-0.1l-0.3,0l0,0l0.3,0L103.3,166.6l-0.3,0l0,0L103.3,166.6z M102,168.3l-0.1,0L102,168.3L102,168.3z M101.7,168.2
			L101.7,168.2c0,0.1-0.1,0.2-0.3,0.3c-0.1,0.1-0.3,0.1-0.4,0l-0.1,0.3h0l0.1-0.3l-14.5-4.7l0,0c-0.4-0.1-0.4-0.4-0.4-0.6
			c0.1-0.2,0.3-0.4,0.6-0.4l0.1-0.3l0,0l-0.1,0.3l14.9,3.2l0,0c0.1,0,0.3,0.1,0.3,0.2c0.1,0.1,0.1,0.3,0.1,0.4l0,0
			C102,167.2,101.8,167.7,101.7,168.2z M101.8,165.7L101.8,165.7l0,0.2L101.8,165.7z M86.3,164.7L86.3,164.7L86.3,164.7L86.3,164.7z
			 M100.9,169.7l0-0.3l0,0L100.9,169.7z M102,168.9C102,168.9,102,168.9,102,168.9l0.1,0.1L102,168.9z"/>
		<path class="st0" d="M104.2,159.2l0-0.7h0l0-0.2l0,0l0-0.3h0c0-0.2,0-0.4-0.1-0.5l0,0c-0.2-0.6-0.6-0.9-1.2-1.1l0,0l0,0
			c-0.1,0-0.2,0-0.4,0l0,0.3l0,0l0-0.3l0,0l0,0l-15.2,0.8v0c0,0,0,0,0,0l0,0l0,0c-0.2,0-0.3,0-0.5,0.1l0,0l0,0c0,0,0,0,0,0l0,0
			c-0.6,0.2-0.9,0.6-1,1.2l0,0l0,0c0,0.1,0,0.2,0,0.4l0.3,0l-0.3,0c0,0.3,0.1,0.5,0.2,0.7c0.1,0.2,0.2,0.4,0.4,0.5
			c0.1,0.1,0.3,0.2,0.5,0.3c0.2,0.1,0.4,0.1,0.5,0.1l0,0l10.2,0.5c1.7,0.1,3.4,0.2,5.1,0.3l0,0c0,0,0.1,0,0.1,0c0.2,0,0.4,0,0.6-0.1
			l0,0c0.5-0.2,0.8-0.4,1-0.9l-0.3-0.2l0.3,0.1l0.1-0.3l-0.3-0.1l0,0l0.3,0l0-0.2l0,0l0-0.2l0-0.1L104.2,159.2l-0.5,0c0,0,0,0,0,0
			L104.2,159.2z M103.7,158.5C103.7,158.5,103.7,158.5,103.7,158.5l0.2,0L103.7,158.5z M103,159.6c0,0.1-0.1,0.3-0.2,0.4
			c-0.1,0.1-0.2,0.1-0.4,0.1l0,0l-15.2-0.8l0,0c-0.4,0-0.5-0.3-0.5-0.5s0.1-0.5,0.5-0.5l15.2-0.8c0.1,0,0.3,0,0.4,0.1
			c0.1,0.1,0.2,0.2,0.2,0.4l0.3,0l0,0l-0.3,0C103,158.5,103,159,103,159.6l0.3,0l0,0L103,159.6z M103.7,158.3L103.7,158.3
			L103.7,158.3C103.7,158.3,103.7,158.3,103.7,158.3z M103.9,157.5l-0.2,0.1c0,0,0,0,0,0L103.9,157.5z M86.8,157.6
			C86.8,157.6,86.8,157.6,86.8,157.6L86.8,157.6L86.8,157.6z M102.9,160.7C102.9,160.7,102.9,160.7,102.9,160.7L102.9,160.7
			L102.9,160.7z M103.9,159.3L103.9,159.3L103.9,159.3L103.9,159.3z"/>
		<path class="st0" d="M86.1,152.6L86.1,152.6c-0.9,0.3-1.4,1.2-1.1,2.1l0.5-0.1l-0.5,0.1c0.1,0.2,0.2,0.4,0.3,0.6l0,0
			c0.2,0.3,0.5,0.5,0.9,0.6l0.1-0.3l-0.1,0.4c0.1,0,0.3,0,0.4,0.1l0-0.3l0,0l0,0.3l0.3,0l0-0.3l0.1,0.3l5-1.1
			c1.2-0.3,2.5-0.5,3.7-0.8l6.2-1.3l0,0c0.2,0,0.4-0.1,0.5-0.2l-0.2-0.4l0.3,0.4l0.2-0.1l-0.2-0.3l0.2,0.3c0.4-0.3,0.6-0.6,0.6-1.1
			l-0.3,0l0.3,0l0-0.2l-0.3,0l0,0l0.3,0l0-0.3l-0.3,0l0,0l0.3-0.1l0-0.2l-0.3,0.1l0,0l0.3-0.1l0-0.2l-0.3,0.1l0.3-0.1l-0.2-0.8l0,0
			l0-0.1c0-0.1-0.1-0.2-0.1-0.3l0,0c0,0,0,0,0,0c0,0,0,0,0,0l0,0c0-0.2-0.1-0.3-0.2-0.4l-0.2,0.1l0.2-0.2l-0.1-0.2l-0.3,0.2l0.3-0.2
			c-0.3-0.3-0.6-0.5-1-0.6l-0.1,0.3l0-0.3l-0.2,0l0,0.3v-0.3c-0.2,0-0.3,0-0.5,0.1l0.1,0.3l-0.1-0.3L86.1,152.6z M102.1,150.8
			L102.1,150.8c0,0.1,0,0.3-0.1,0.4c-0.1,0.1-0.2,0.2-0.3,0.2l0,0l-14.9,3.2l0.1,0.4l0,0l-0.1-0.4c-0.4,0.1-0.6-0.1-0.6-0.4
			c-0.1-0.2,0-0.5,0.4-0.6l0,0l14.5-4.7l0,0c0.1,0,0.3,0,0.4,0c0.1,0.1,0.2,0.2,0.2,0.3l0,0C101.8,149.8,102,150.3,102.1,150.8z
			 M102.4,150.8L102.4,150.8l-0.3,0.1L102.4,150.8z M101.9,152.3L101.9,152.3L101.9,152.3L101.9,152.3z M102.4,149.6
			C102.4,149.6,102.4,149.6,102.4,149.6l0.4-0.1L102.4,149.6z M102.5,149.1L102.5,149.1L102.5,149.1L102.5,149.1z"/>
		<path class="st0" d="M96.8,140.2c-1.4,0.9-2.9,1.9-4.3,2.8l-8.5,5.5l0,0c-0.2,0.1-0.3,0.2-0.5,0.4c-0.1,0.2-0.2,0.4-0.3,0.7
			c0,0.3,0,0.5,0,0.7l0.5-0.1c0,0,0,0,0,0l-0.5,0.1c0.1,0.4,0.3,0.6,0.6,0.9l0.2-0.3l-0.2,0.3c0.3,0.2,0.6,0.3,1,0.4l0-0.3v0.3
			c0.3,0,0.5-0.1,0.8-0.2l0,0l6.4-3.3c0.9-0.4,1.7-0.9,2.6-1.3l4.6-2.3l0,0c0.2-0.1,0.4-0.2,0.5-0.4l-0.4-0.3c0,0,0,0,0,0l0.4,0.3
			c0.4-0.5,0.5-1,0.3-1.6l-0.3,0.1l0,0l0.3-0.1l-0.1-0.3l-0.3,0.1l0.3-0.2l-0.1-0.2l-0.3,0.2l0,0l0.3-0.2l-0.2-0.4
			c-0.1-0.1-0.1-0.2-0.2-0.3l0,0c-0.1-0.2-0.2-0.3-0.3-0.5l-0.2,0.1l0.2-0.1c-0.1-0.1-0.2-0.3-0.3-0.4l-0.2,0.2l0.2-0.2l-0.1-0.1
			l-0.3,0.3l0.2-0.3c-0.3-0.2-0.5-0.3-0.9-0.3l0,0.4l0-0.4l-0.1,0l0,0.3v-0.3C97.3,139.9,97.1,140,96.8,140.2l0.2,0.3l0,0
			L96.8,140.2z M98.1,141.3c0.3,0.5,0.5,0.9,0.8,1.4l0,0c0.1,0.1,0.1,0.3,0,0.4c0,0.1-0.1,0.2-0.3,0.3l-13.6,6.9l0.2,0.3l0,0
			l-0.2-0.3c-0.3,0.2-0.6,0-0.7-0.2c-0.1-0.2-0.1-0.5,0.2-0.7l-0.1-0.2l0.1,0.2l12.8-8.3l-0.2-0.2l0.2,0.2c0.1-0.1,0.2-0.1,0.4-0.1
			C97.9,141.1,98.1,141.2,98.1,141.3L98.1,141.3z M99,142.7l0.3-0.1l0,0L99,142.7z M84.2,148.7L84.2,148.7L84.2,148.7L84.2,148.7z
			 M99,141.4C99,141.4,99,141.4,99,141.4L99,141.4L99,141.4z"/>
		<path class="st0" d="M91,133.7L91,133.7l-3.6,4c-1.1,1.3-2.3,2.5-3.4,3.8l-3.2,3.6l0,0c0,0,0,0,0,0l0,0l0,0
			c-0.6,0.6-0.6,1.2-0.2,2l0.4-0.2c0,0,0,0,0,0l-0.4,0.2c0.3,0.6,0.8,0.8,1.5,0.8v-0.5c0,0,0,0,0,0l0,0.5c0.4,0,0.8-0.1,1.1-0.4
			l-0.2-0.2l0,0l0.2,0.2l3.8-3.4c1.3-1.1,2.5-2.3,3.8-3.4l3.8-3.4l-0.2-0.2l0.2,0.2l0.1-0.1l-0.3-0.2l0,0l0.2,0.2
			c0.1-0.2,0.2-0.3,0.3-0.5l0,0c0.3-0.6,0.3-1.1-0.1-1.6l-0.3,0.2l0.3-0.2l-0.2-0.2l-0.3,0.2l0.2-0.2l-0.2-0.2l-0.2,0.2l0,0l0.2-0.2
			l-0.2-0.2l-0.3,0.3l0.3-0.3l-0.6-0.6l-0.2,0.2l0,0l0.2-0.3l-0.2-0.2l0,0c-0.1-0.1-0.2-0.2-0.4-0.3l-0.2,0.3l0,0l0.2-0.3
			c-0.2-0.1-0.4-0.2-0.7-0.2l0,0.4l0-0.4l-0.1,0l0,0.3v-0.3C91.8,133.2,91.4,133.3,91,133.7z M81.7,146.6c-0.2-0.2-0.2-0.4,0-0.7
			l-0.3-0.2l0.3,0.2l10.2-11.3l-0.3-0.2l0,0l0.3,0.2c0.1-0.1,0.2-0.2,0.4-0.2c0.1,0,0.3,0,0.4,0.1c0.4,0.4,0.8,0.8,1.1,1.1l0.2-0.2
			l0,0l-0.2,0.2c0.1,0.1,0.1,0.2,0.1,0.4c0,0.1-0.1,0.3-0.2,0.4l0.2,0.3l-0.2-0.3l-11.3,10.2l0.2,0.2l0,0l0,0l-0.2-0.3
			C82.1,146.8,81.8,146.7,81.7,146.6z M91.3,134L91.3,134l-0.2-0.2L91.3,134z M94.5,136.5C94.5,136.5,94.5,136.5,94.5,136.5l0.3,0.1
			L94.5,136.5z"/>
		<path class="st0" d="M83.9,129L83.9,129c-0.8,1.5-1.6,3-2.3,4.4c-0.8,1.5-1.5,3-2.3,4.5l-2.4,4.6l0.3,0.2l0,0l-0.3-0.2
			c-0.3,0.7-0.3,1.2,0.2,1.8l0,0c0.2,0.2,0.4,0.4,0.7,0.5l0,0c0.3,0.1,0.5,0.2,0.8,0.2c0.4,0,0.8-0.2,1.1-0.5l-0.2-0.2l0,0l0.2,0.2
			l0.2-0.2l-0.3-0.2l0.3,0.2c0.6-1,1.3-1.9,1.9-2.9l2.1-3.3c0.5-0.8,1-1.6,1.6-2.4l0.1-0.1c0.9-1.4,1.8-2.7,2.7-4.1l-0.2-0.1
			l0.2,0.1l0-0.1l-0.3-0.1l0,0l0.3,0.1l0.1-0.2l-0.3-0.1l0,0l0.3,0.1c0.2-0.6,0.2-1.1-0.2-1.6l-0.3,0.2l0.3-0.2l-0.2-0.2l-0.2,0.2
			l0,0l0.2-0.2l-0.2-0.2l-0.2,0.3l0.2-0.3l-0.2-0.1l0,0l-0.2-0.1L87,129l0.1-0.1l-0.7-0.4l-0.2,0.3l0,0l0.2-0.3l-0.2-0.1l-0.2,0.3
			l0,0l0.2-0.3c-0.2-0.1-0.3-0.1-0.5-0.2l-0.1,0.3l0-0.3l-0.2,0l0,0.4l0-0.4l-0.1,0l0,0.3v-0.3c-0.4,0-0.8,0.1-1.1,0.4l0.3,0.4
			c0,0,0,0,0,0l-0.3-0.4C84,128.6,83.9,128.8,83.9,129l0.3,0.1l0,0L83.9,129z M85.6,129.3l0.1-0.3L85.6,129.3
			c0.5,0.3,0.9,0.5,1.4,0.8l0.2-0.3l0,0l-0.2,0.3c0.1,0.1,0.2,0.2,0.2,0.3c0,0.1,0,0.3-0.1,0.4l-8.3,12.8l0,0
			c-0.2,0.3-0.5,0.3-0.7,0.2c-0.2-0.1-0.4-0.4-0.2-0.7l-0.3-0.2l0.3,0.2l6.9-13.6l-0.2-0.1l0.2,0.1c0.1-0.1,0.2-0.2,0.3-0.3
			C85.3,129.2,85.4,129.2,85.6,129.3z M77.3,144.2l0.1-0.1c0,0,0,0,0,0L77.3,144.2z"/>
		<path class="st0" d="M72.4,141.2L72.4,141.2c-0.2,0.7,0,1.2,0.6,1.7l0,0c0,0,0,0,0,0c0,0,0,0,0,0l0,0c0.1,0.1,0.3,0.2,0.5,0.3l0,0
			c0.2,0.1,0.4,0.1,0.6,0.1c0.6,0,1.1-0.3,1.5-0.8l-0.3-0.2l0,0l0.3,0.1l0.1-0.3l-0.3-0.1l0.3,0.1l4.7-14.5l-0.3-0.1l0,0l0.3,0.1
			l0-0.1l-0.3-0.1l0,0l0.3,0.1l0-0.2l-0.3,0l0,0l0.3,0c0.1-0.7-0.1-1.1-0.6-1.5l-0.2,0.3l0.2-0.3l-0.2-0.1l-0.2,0.3l0,0l0.1-0.3
			l-0.2-0.1l-0.1,0.3l0.1-0.3l-0.3-0.1l0,0l-0.3-0.1l-0.1,0.3l0.1-0.3l-0.8-0.2l0,0l-0.3-0.1l-0.1,0.3l0,0l0.1-0.3
			c-0.1,0-0.3,0-0.4,0v0.3l0,0l0-0.3l-0.2,0l0,0.3l0-0.3c-0.5,0.1-0.8,0.3-1.1,0.6l0.1,0.1l-0.1-0.1c-0.2,0.2-0.3,0.4-0.3,0.6
			l0.3,0.1l0,0l-0.3-0.1l0.3,0.1l-0.3-0.1L72.4,141.2z M76.8,126.5c0-0.1,0.1-0.3,0.2-0.3c0.1-0.1,0.3-0.1,0.4-0.1l0,0
			c0.5,0.1,1,0.3,1.6,0.4l0,0c0.1,0,0.2,0.1,0.3,0.3c0.1,0.1,0.1,0.3,0,0.4l-4.7,14.5c-0.1,0.4-0.4,0.4-0.6,0.4
			c-0.2-0.1-0.4-0.3-0.4-0.6L76.8,126.5L76.8,126.5z M79,126.2L79,126.2L79,126.2L79,126.2z M73.3,142.5
			C73.3,142.5,73.3,142.5,73.3,142.5l-0.1,0.1L73.3,142.5z M73.7,142.7C73.7,142.7,73.7,142.7,73.7,142.7l-0.1,0.2L73.7,142.7z
			 M77.9,125.4L77.9,125.4L77.9,125.4L77.9,125.4z"/>
		<path class="st0" d="M72,125.8c0-0.2,0-0.3-0.1-0.5l0,0c-0.2-0.6-0.5-0.9-1.1-1.1l0,0.1l0-0.1c-0.2-0.1-0.3-0.1-0.5-0.1l0,0.2
			l0-0.2c-0.1,0-0.3,0-0.4,0v0l-0.2,0l0,0.4l0-0.4l-0.2,0v0h-0.2v0.3l0-0.3l-0.2,0v0c-0.1,0-0.3,0-0.4,0v0c-0.2,0-0.4,0-0.5,0.1
			l0.1,0.4l-0.2-0.4c-0.6,0.2-0.9,0.5-1.1,1.1l0,0c0,0.2-0.1,0.3-0.1,0.5h0.3l-0.3,0l0,0l0,0c0.1,1.6,0.2,3.3,0.3,4.9
			c0.1,1.7,0.2,3.4,0.3,5.1l0.3,5.3l0,0c0,0.2,0,0.4,0.1,0.5l0,0c0,0,0,0,0,0c0,0,0,0,0,0l0,0c0.2,0.6,0.6,0.9,1.2,1l0.1-0.3
			l-0.1,0.3c0.1,0,0.2,0,0.4,0l0-0.3l0,0.3c0.1,0,0.2,0,0.4,0l0-0.1l0,0.1c0.7-0.2,1.3-0.8,1.3-1.6l-0.3,0l0,0l0.3,0l0.5-10.4
			C71.8,129.1,71.9,127.4,72,125.8L72,125.8z M70.3,125.2l0-0.3l0,0L70.3,125.2c0.1,0,0.3,0.1,0.4,0.2c0.1,0.1,0.1,0.2,0.1,0.4
			L70,141l0,0c0,0.4-0.3,0.5-0.5,0.5c-0.2,0-0.5-0.1-0.5-0.5l-0.8-15.2c0-0.1,0-0.3,0.1-0.4c0.1-0.1,0.2-0.2,0.4-0.2l0-0.4l0,0
			l0,0.4C69.2,125.2,69.8,125.2,70.3,125.2z M71.4,125.4L71.4,125.4L71.4,125.4L71.4,125.4z M69.9,124.5
			C69.9,124.5,69.9,124.5,69.9,124.5L69.9,124.5L69.9,124.5z M69.5,124.5C69.5,124.5,69.5,124.5,69.5,124.5l0-0.2L69.5,124.5z
			 M69.1,124.5C69.1,124.5,69.1,124.5,69.1,124.5l0-0.1L69.1,124.5z M67.6,125.4C67.6,125.4,67.6,125.4,67.6,125.4l-0.3-0.1
			L67.6,125.4z M68.3,141.5l0.1-0.1c0,0,0,0,0,0L68.3,141.5z"/>
		<path class="st0" d="M66.5,141.2l-0.3,0.1L66.5,141.2c-0.4-1.7-0.7-3.4-1.1-5.1l-2.1-9.8l-0.3,0.1l0,0l0.3-0.1
			c0-0.2-0.1-0.4-0.3-0.6l-0.2,0.2l0.2-0.2l-0.1-0.1l-0.3,0.2l0.3-0.2c-0.3-0.4-0.6-0.5-1.1-0.6l0,0.3l0-0.4l-0.2,0l0,0.3l0,0V125
			c-0.2,0-0.3,0-0.4,0l0,0l-0.3,0.1l0,0l-0.3,0.1c-0.1,0-0.3,0.1-0.4,0.1l-0.1,0l0,0c-0.1,0-0.3,0.1-0.4,0.1l-0.2,0l0.1,0.3l0,0
			l-0.1-0.3c-0.2,0.1-0.4,0.1-0.5,0.3l0.3,0.4c0,0,0,0,0,0l-0.3-0.4c-0.4,0.3-0.6,0.7-0.6,1.2L59,127c0,0,0,0,0,0l-0.5,0
			c0,0.2,0,0.5,0.1,0.7l0.3-0.1l-0.3,0.1c0.5,1.6,1,3.1,1.5,4.7l3.2,9.8l0,0c0,0.1,0.1,0.3,0.2,0.4l0,0c0.3,0.4,0.6,0.6,1.1,0.7
			l0.1-0.4l0,0.4l0.3,0l0-0.4v0.4c0.4,0,0.7-0.1,1.1-0.4l-0.3-0.4l0.3,0.4c0.3-0.3,0.5-0.6,0.6-1l-0.4-0.1l0.4,0.1
			C66.6,141.7,66.6,141.5,66.5,141.2z M65,142.1c-0.2,0.1-0.5,0-0.6-0.4l-4.7-14.5l0,0c0-0.1,0-0.3,0-0.4c0.1-0.1,0.2-0.2,0.3-0.2
			l0,0c0.5-0.2,1-0.3,1.6-0.4l0,0c0.1,0,0.3,0,0.4,0.1c0.1,0.1,0.2,0.2,0.2,0.3l3.2,14.9l0.3-0.1l0,0l-0.3,0.1
			C65.5,141.8,65.2,142,65,142.1z M61.6,126l-0.1-0.2l0,0L61.6,126z M60.4,125.8C60.4,125.8,60.4,125.8,60.4,125.8l0-0.1L60.4,125.8
			z M63.8,142.3L63.8,142.3L63.8,142.3L63.8,142.3z"/>
		<path class="st0" d="M50.7,131l0.3-0.1L50.7,131l0.1,0.2l0.3-0.1l0,0l-0.3,0.2l0.1,0.2l0.3-0.2l-0.3,0.2l8.3,12.8l0.3-0.2
			l-0.3,0.2l0.1,0.2l0.3-0.2l0,0l-0.2,0.2c0.3,0.3,0.6,0.5,0.9,0.5l0.1-0.3l0,0.4l0.3,0l0-0.3v0.3c0.5,0,0.9-0.2,1.3-0.6l0,0
			c0.4-0.5,0.5-1,0.3-1.7l-0.3,0.1l0.3-0.1l-0.1-0.2l-0.3,0.1l0.3-0.2L55.2,129l0,0c-0.1-0.1-0.2-0.3-0.3-0.4l-0.2,0.2l0.2-0.2
			l-0.1-0.1l-0.3,0.3l0.2-0.3c-0.3-0.2-0.5-0.4-0.9-0.4l0,0.4l0-0.4l-0.2,0l0,0.3v-0.3c-0.3,0-0.5,0.1-0.8,0.2l0.2,0.3l0,0l-0.2-0.3
			l-0.2,0.1l0.2,0.3l0,0l-0.2-0.3l-0.2,0.1c-0.2,0.1-0.3,0.2-0.5,0.3l0,0c-0.2,0.1-0.3,0.2-0.5,0.3l0.1,0.1l-0.1-0.1
			c-0.2,0.1-0.3,0.2-0.4,0.4l0.4,0.3l-0.4-0.3C50.6,130,50.5,130.5,50.7,131z M51.8,130.4c0-0.1,0.1-0.3,0.2-0.3
			c0.5-0.3,0.9-0.5,1.4-0.8l-0.2-0.3l0,0l0.2,0.3c0.1-0.1,0.3-0.1,0.4,0s0.2,0.1,0.3,0.3l0,0l6.9,13.6l0.3-0.2l0,0l-0.3,0.2
			c0.2,0.3,0,0.6-0.2,0.7c-0.2,0.1-0.5,0.1-0.7-0.2l-8.3-12.8l-0.1,0.1l0.1-0.1C51.8,130.7,51.8,130.6,51.8,130.4z M61.5,144.2
			C61.5,144.2,61.5,144.2,61.5,144.2l0.2,0.2L61.5,144.2z M55,129.1L55,129.1L55,129.1L55,129.1z"/>
		<path class="st0" d="M44.1,135.1c-0.3,0.6-0.4,1-0.1,1.6l0.3-0.1l-0.3,0.2l0.1,0.2l0.3-0.2l0,0l-0.2,0.2l0.2,0.2l0.2-0.2l-0.2,0.3
			l3.8,3.4c1.3,1.1,2.5,2.3,3.8,3.4c1.2,1.1,2.5,2.2,3.7,3.4l0.2-0.2l-0.2,0.2l0.1,0.1l0.2-0.3l0,0l-0.2,0.3
			c0.2,0.2,0.5,0.3,0.8,0.3l0-0.3l0,0.3l0.2,0l0-0.4v0.4c0.7,0,1.1-0.2,1.5-0.8l0,0c0.4-0.7,0.4-1.2-0.1-1.8l-0.3,0.2l0,0l0.3-0.2
			l-0.1-0.1l-0.3,0.2l0.3-0.2l-3.3-3.7c-1.1-1.2-2.3-2.5-3.4-3.7l-3.5-3.9l-0.2,0.2l0.2-0.2l-0.2-0.2l-0.2,0.2l0,0l0.2-0.2
			c-0.3-0.2-0.5-0.3-0.8-0.3l0,0.3l0-0.3l-0.1,0l0,0.3v-0.3c-0.5,0-0.8,0.1-1.2,0.5l0,0l-0.2,0.2l0.2,0.2l-0.2-0.2l-0.2,0.2
			c-0.1,0.1-0.3,0.3-0.4,0.4l0.3,0.3l-0.3-0.3l-0.4,0.4l0.2,0.2l-0.3-0.2L44.1,135.1l0.3,0.2l0,0L44.1,135.1z M46.1,134.2
			L46.1,134.2l0.2,0.2c0.1-0.1,0.2-0.1,0.4-0.1c0.1,0,0.3,0.1,0.4,0.2l10.2,11.3l0.2-0.2l0,0l-0.3,0.2c0.3,0.3,0.2,0.6,0,0.7
			s-0.4,0.2-0.7,0l-0.2,0.3l0.2-0.3l-11.3-10.2l-0.2,0.3l0,0l0.2-0.3c-0.1-0.1-0.2-0.2-0.2-0.4c0-0.1,0-0.3,0.1-0.4l0,0
			c0.4-0.4,0.8-0.8,1.1-1.1L46.1,134.2z M58.3,147l-0.4-0.2c0,0,0,0,0,0L58.3,147z"/>
		<path class="st0" d="M38.9,142.5c-0.2,0.6-0.1,1.1,0.3,1.5l0.3-0.2l-0.2,0.2l0.2,0.2l0.2-0.2l0,0l-0.2,0.3l0.2,0.2l0.2-0.3
			l-0.2,0.3l1.1,0.6c1.2,0.6,2.3,1.2,3.5,1.8l9,4.6l0.2-0.3l0,0l-0.2,0.3c0.3,0.1,0.6,0.2,0.8,0.2c0.3,0,0.7-0.1,1-0.4l0,0
			c0.3-0.2,0.5-0.5,0.6-0.9l-0.4-0.1l0.4,0.1c0.1-0.6,0-1.1-0.5-1.6l-0.2,0.2l0,0l0.2-0.2l-0.2-0.2l-0.2,0.3l0,0l0.2-0.3
			c-1.4-0.9-2.8-1.8-4.2-2.8c-1.4-0.9-2.8-1.8-4.3-2.8c-1.1-0.7-2.3-1.5-3.4-2.2l-0.9-0.6l-0.1,0.2l0.1-0.2
			c-0.1-0.1-0.3-0.1-0.4-0.2l-0.1,0.4l0,0l0.1-0.4c-0.1,0-0.2-0.1-0.4-0.1l0,0l-0.1,0l0,0.4v-0.4c-0.4,0-0.7,0.1-1,0.4l0.1,0.1
			l-0.1-0.1c-0.2,0.1-0.3,0.3-0.4,0.4l0,0l-0.3,0.5l0.2,0.1l-0.2-0.1l-0.1,0.1c-0.1,0.1-0.2,0.3-0.2,0.4l-0.1,0.2l0.2,0.1l-0.2-0.1
			l-0.1,0.2l0.3,0.2l0,0l-0.3-0.1L38.9,142.5l0.3,0.1l0,0L38.9,142.5z M40.6,141.1L40.6,141.1l0.3,0.2c0.1-0.1,0.2-0.2,0.3-0.2
			c0.1,0,0.3,0,0.4,0.1l0,0l12.8,8.3l0.1-0.1l-0.1,0.1c0.3,0.2,0.3,0.5,0.2,0.7c-0.1,0.2-0.4,0.4-0.7,0.2l-0.2,0.3l0.2-0.3
			l-13.6-6.9l-0.2,0.3l0,0l0.2-0.3c-0.1-0.1-0.2-0.2-0.3-0.3s0-0.3,0-0.4l-0.3-0.1l0.3,0.1c0.3-0.5,0.5-0.9,0.8-1.4L40.6,141.1z
			 M41.4,140.4C41.4,140.4,41.4,140.4,41.4,140.4L41.4,140.4L41.4,140.4z"/>
		<path class="st0" d="M35.7,150.9c0,0.5,0.1,0.9,0.4,1.2l0,0c0,0,0,0,0,0c0,0,0,0,0,0l0,0c0.2,0.2,0.3,0.3,0.6,0.4l0.1-0.3l0,0
			l-0.1,0.3l0.3,0.1l0.1-0.3l0,0l-0.1,0.3l10.8,2.3c1.4,0.3,2.8,0.6,4.2,0.9l0.1-0.3l0,0.3l0.2,0l0-0.3l0,0.3l0.1,0l0-0.3l0,0v0.3
			c0.6,0,1-0.2,1.4-0.7l0,0c0.1-0.1,0.2-0.3,0.2-0.5l-0.5-0.1l0.5,0.1c0.2-0.8,0-1.3-0.6-1.8l0,0c0,0,0,0,0,0c0,0,0,0,0,0l0,0
			c-0.2-0.1-0.3-0.2-0.5-0.3l-0.1,0.3l0,0l0.1-0.3l-9.8-3.2c-1.6-0.5-3.2-1-4.8-1.5l0,0c-0.1,0-0.3-0.1-0.4-0.1l0,0.4l0,0.1l0-0.5
			l0,0.4l0-0.3l-0.2,0l0,0.3l-0.1-0.3c-0.4,0.1-0.7,0.2-0.9,0.5l0,0c0,0,0,0,0,0c0,0,0,0,0,0l0,0c-0.2,0.2-0.3,0.3-0.4,0.6l0.3,0.1
			l0,0l-0.3-0.1l0.3,0.1l-0.3-0.1l-0.1,0.5l0.3,0.1l-0.3-0.1l-0.2,0.8l0.3,0.1l-0.3-0.1l-0.1,0.3l0.3,0.1l0,0l-0.3,0L35.7,150.9
			l0.3,0l0,0L35.7,150.9z M37.1,149.2L37.1,149.2L37.1,149.2L37.1,149.2z M37.3,149.3L37.3,149.3c0-0.1,0.1-0.2,0.3-0.3
			c0.1-0.1,0.3-0.1,0.4,0l14.5,4.7l0,0c0.4,0.1,0.4,0.4,0.4,0.6c-0.1,0.2-0.3,0.4-0.6,0.4l-0.1,0.3l0.1-0.3l-14.9-3.2l-0.1,0.3l0,0
			h0l0.1-0.3c-0.1,0-0.2-0.1-0.3-0.2c-0.1-0.1-0.1-0.3-0.1-0.4l0,0C37,150.3,37.2,149.8,37.3,149.3z M36.5,151.8
			C36.5,151.8,36.5,151.8,36.5,151.8l-0.2,0.1L36.5,151.8z M53.3,154.8C53.3,154.8,53.3,154.8,53.3,154.8l0.2,0.1L53.3,154.8z
			 M36.9,148.6C36.9,148.6,36.9,148.6,36.9,148.6L36.9,148.6L36.9,148.6z"/>
		<path class="st0" d="M52.8,165L52.8,165C52.8,165,52.8,165,52.8,165L52.8,165L52.8,165c0.9-0.3,1.4-1.2,1.1-2.1l-0.4,0.1l0.4-0.1
			c-0.1-0.2-0.2-0.4-0.3-0.6l0,0c-0.2-0.3-0.5-0.5-0.9-0.6l0,0c0,0,0,0,0,0c0,0,0,0,0,0l0,0c-0.1,0-0.3,0-0.4-0.1l0,0.3l0,0l0-0.3
			l-0.3,0l0,0.3l-0.1-0.3c-1.6,0.3-3.2,0.7-4.9,1L37,164.9v0c0,0,0,0,0,0l0,0l0,0c-0.2,0-0.4,0.1-0.5,0.2l0.2,0.3l-0.2-0.3l-0.1,0.1
			l0.2,0.3l-0.2-0.3c-0.4,0.3-0.6,0.7-0.7,1.2l0.3,0l-0.3,0l0,0.2l0.3,0l0,0l-0.3,0l0,0.3l0.3-0.1l0,0l-0.3,0.1l0,0.2l0.3-0.1l0,0
			l-0.3,0.1l0,0.2l0.4-0.1l-0.4,0.1c0,0.1,0.1,0.3,0.1,0.4l0,0.1c0,0.1,0.1,0.2,0.1,0.3l0,0l0,0.1c0,0.1,0.1,0.2,0.1,0.3l0,0
			c0,0,0,0,0,0c0,0,0,0,0,0l0,0c0,0.2,0.1,0.3,0.2,0.4l0.3-0.2l-0.3,0.2l0.1,0.2l0.3-0.2l-0.2,0.2c0.3,0.3,0.6,0.5,1,0.6l0.1-0.3
			l0,0.3l0.3,0l0-0.3v0.3c0.2,0,0.3,0,0.5-0.1l-0.1-0.3l0.1,0.3L52.8,165z M37.2,165.7L37.2,165.7L37.2,165.7L37.2,165.7z
			 M37.3,168.2c-0.2-0.5-0.3-1-0.4-1.6c0-0.1,0-0.3,0.1-0.4c0.1-0.1,0.2-0.2,0.3-0.2v0l14.9-3.2l-0.1-0.3l0,0l0.1,0.3
			c0.4-0.1,0.6,0.1,0.6,0.4c0.1,0.2,0,0.5-0.4,0.6L38,168.5l0,0c-0.1,0-0.3,0-0.4,0C37.4,168.4,37.3,168.3,37.3,168.2z M52.6,162.2
			C52.6,162.2,52.6,162.2,52.6,162.2l0-0.1L52.6,162.2z M37.1,165.2L37.1,165.2L37.1,165.2L37.1,165.2z M36.5,168
			C36.5,168,36.5,168,36.5,168l-0.3,0.1L36.5,168z M36.5,168.5L36.5,168.5L36.5,168.5L36.5,168.5z"/>
		<path class="st0" d="M42.2,177.4L52,171c1-0.6,2-1.3,3-1.9l0,0c0.2-0.1,0.3-0.2,0.5-0.4c0.1-0.2,0.2-0.5,0.3-0.7
			c0-0.3,0-0.5,0-0.7l0,0c-0.1-0.4-0.3-0.6-0.6-0.9l-0.1,0.1l0.1-0.1c-0.3-0.2-0.6-0.3-1-0.4l0,0.3V166c-0.3,0-0.5,0.1-0.8,0.2l0,0
			l-9.1,4.6c-1.5,0.8-3,1.5-4.5,2.3l0.2,0.3l0,0l-0.2-0.3l-0.2,0.1l0.2,0.3l-0.2-0.3c-0.2,0.1-0.3,0.2-0.4,0.4l0,0c0,0,0,0,0,0
			c0,0,0,0,0,0l0,0c-0.1,0.2-0.2,0.4-0.3,0.6l0,0c0,0.1,0,0.2,0,0.3l0.3,0l-0.3,0c0,0.2,0.1,0.5,0.2,0.7l0.3-0.1l0,0l-0.3,0.2
			l0.3-0.1l-0.3,0.2l0.1,0.2l0.3-0.2l0,0l-0.3,0.2l0.1,0.2c0.1,0.1,0.1,0.2,0.2,0.4l0.1,0.1l0.3-0.2l-0.3,0.2l0.3,0.5l0.3-0.2
			l-0.3,0.2L40,177l0.3-0.2l0,0L40,177c0.1,0.1,0.2,0.2,0.4,0.3l0,0c0,0,0,0,0,0c0,0,0,0,0,0l0,0c0.2,0.1,0.4,0.2,0.6,0.2l0.1-0.3
			l0,0.3l0.3,0l0-0.3v0.3C41.6,177.7,41.9,177.6,42.2,177.4l-0.2-0.3l0,0L42.2,177.4z M40.8,176.2L40.8,176.2
			c-0.3-0.5-0.5-0.9-0.8-1.4l0,0c-0.1-0.1-0.1-0.3,0-0.4c0-0.1,0.1-0.2,0.3-0.3l0,0l13.6-6.9l-0.2-0.3l0,0l0.2,0.3
			c0.3-0.2,0.6,0,0.7,0.2c0.1,0.2,0.1,0.5-0.2,0.7l-12.8,8.3l0.1,0.2l-0.1-0.2c-0.1,0.1-0.3,0.1-0.4,0.1
			C41,176.4,40.9,176.3,40.8,176.2z M40.1,173.8L40.1,173.8L40.1,173.8L40.1,173.8z M54.8,168.8L54.8,168.8L54.8,168.8L54.8,168.8z
			 M55.3,167.3C55.3,167.3,55.3,167.3,55.3,167.3l0.2-0.1L55.3,167.3z M39.5,173.9C39.5,173.9,39.5,173.9,39.5,173.9l-0.1-0.1
			L39.5,173.9z M39.3,174.3C39.3,174.3,39.3,174.3,39.3,174.3l-0.5-0.1L39.3,174.3z"/>
		<path class="st0" d="M58.2,172.5c0.6-0.6,0.6-1.2,0.2-2l0,0c-0.3-0.6-0.8-0.8-1.5-0.8c-0.5,0-0.8,0.1-1.1,0.4l0,0l-3.7,3.3
			c-0.8,0.7-1.6,1.5-2.4,2.2l-2.7,2.5c-0.8,0.8-1.7,1.5-2.5,2.3l0.1,0.1l-0.1-0.1c-0.2,0.2-0.3,0.3-0.4,0.5l0,0
			c-0.2,0.5-0.2,0.9-0.1,1.3l0.3-0.1l-0.3,0.2l0.1,0.2l0.3-0.1l0,0l-0.2,0.2l0.2,0.2l0.3-0.2l-0.2,0.2l0.1,0.1
			c0.1,0.1,0.2,0.2,0.3,0.3l0.4-0.4c0,0,0,0,0,0l-0.4,0.4c0.1,0.1,0.3,0.3,0.4,0.4l0.4-0.4c0,0,0,0,0,0l-0.4,0.4l0.4,0.4l0.2-0.2
			l0,0l-0.2,0.3l0.1,0.1l0.2-0.2l-0.2,0.3c0.2,0.2,0.5,0.3,0.8,0.3l0-0.3l0,0.3l0.2,0l0-0.4v0.4c0.5,0,0.9-0.2,1.3-0.6l0,0
			L58.2,172.5L58.2,172.5z M45.2,181.9l-0.3,0.2l0,0L45.2,181.9c-0.1-0.1-0.1-0.2-0.1-0.4c0-0.1,0.1-0.3,0.2-0.4l-0.2-0.3l0.2,0.3
			l11.3-10.2l0,0c0.3-0.3,0.6-0.2,0.7,0c0.2,0.2,0.2,0.4,0,0.7l0.2,0.2l0,0l-0.2-0.2L47.1,183l0.2,0.2l0,0l-0.2-0.2
			c-0.1,0.1-0.2,0.2-0.4,0.2c-0.1,0-0.3,0-0.4-0.1l0,0C46,182.7,45.6,182.3,45.2,181.9z M58.1,170.6l-0.2,0.1c0,0,0,0,0,0
			L58.1,170.6z M56,170.3L56,170.3l-0.2-0.2L56,170.3z M44.5,181C44.5,181,44.5,181,44.5,181l-0.2-0.1L44.5,181z"/>
		<path class="st0" d="M56.7,185.5l2.9-5.6c0.2-0.3,0.3-0.6,0.5-0.9l1.7-3.2l-0.3-0.2l0.3,0.1c0-0.1,0.1-0.1,0.1-0.2l0.1-0.3
			c0.1-0.1,0.1-0.3,0.2-0.4l-0.3-0.2l0,0l0.3,0.1c0-0.1,0.1-0.2,0.1-0.4l0,0l0-0.2l-0.3-0.1l0.3,0l0-0.2l-0.3,0l0.3,0
			c0-0.4-0.1-0.7-0.3-0.9l0,0c-0.4-0.5-0.8-0.7-1.4-0.8v0c-0.6,0-1.1,0.2-1.4,0.8l0.3,0.2l0,0l-0.3-0.2L50.9,186l0.3,0.2l0,0
			l-0.3-0.2l-0.1,0.2l0.3,0.1l0,0l-0.3-0.1c-0.1,0.1-0.1,0.3-0.1,0.5l0.3,0l-0.3,0l0,0.1l0.3,0l-0.3,0c0,0.3,0.1,0.6,0.2,0.8
			l0.3-0.2l-0.3,0.2c0.1,0.2,0.3,0.4,0.5,0.5l0.2-0.3l0,0l-0.2,0.3l0.2-0.3l-0.2,0.3l0.1,0.1l0.2-0.3l0,0l-0.2,0.3l0.2,0.1l0.2-0.3
			l0,0l-0.1,0.3l0.1,0l0.2-0.5c0,0,0,0,0,0l-0.2,0.5c0.1,0.1,0.2,0.1,0.4,0.2c0.1,0.1,0.3,0.2,0.4,0.2l0,0l0.3,0.2L53,189l-0.1,0.3
			l0.2,0.1l0.1-0.3l0,0l-0.1,0.3l0.1,0l0.1-0.3l0,0l-0.1,0.3l0.1,0l0.1-0.3l0,0.4l0.2,0l0-0.4v0.4c0.5,0,0.8-0.1,1.1-0.4l0,0
			c0.1-0.1,0.3-0.3,0.4-0.5l-0.3-0.2l0,0l0.3,0.2L56,187l0,0l0,0C56.2,186.5,56.4,186,56.7,185.5z M60.9,173.7
			c0.2,0.1,0.4,0.4,0.2,0.7l0.3,0.2l0,0l-0.3-0.2L54.1,188l0.3,0.2l0,0l-0.3-0.2c-0.1,0.1-0.2,0.2-0.3,0.3c-0.1,0-0.3,0-0.4,0
			l-0.1,0.2l0.1-0.2c-0.5-0.3-0.9-0.5-1.4-0.8l-0.2,0.3l0,0l0.2-0.3c-0.1-0.1-0.2-0.2-0.2-0.3c0-0.1,0-0.3,0.1-0.4l8.3-12.8l0,0
			C60.4,173.5,60.7,173.6,60.9,173.7z M51.6,186.5L51.6,186.5L51.6,186.5L51.6,186.5z M61.9,174.5L61.9,174.5L61.9,174.5L61.9,174.5
			z M61.6,173.5L61.6,173.5L61.6,173.5L61.6,173.5z M60.6,172.9C60.6,172.9,60.6,172.9,60.6,172.9l0-0.2L60.6,172.9z M52.8,188.6
			C52.8,188.6,52.8,188.6,52.8,188.6l-0.1,0.3L52.8,188.6z M54.5,188.6C54.5,188.6,54.5,188.6,54.5,188.6l0.2,0.2L54.5,188.6z"/>
		<path class="st0" d="M66.6,175.9c0-0.6-0.2-1.1-0.8-1.4l-0.2,0.3l0.2-0.3l-0.2-0.1l-0.2,0.3l0.1-0.3c-0.8-0.3-1.7,0-2.1,0.7
			l0.3,0.1l0,0l-0.3-0.1l-0.1,0.3l0.3,0.1l-0.3-0.1l-0.2,0.7c-0.1,0.2-0.2,0.5-0.2,0.7l0.3,0.1l-0.3-0.1c-0.1,0.3-0.2,0.5-0.3,0.8
			l-0.1,0.3c-0.1,0.2-0.1,0.3-0.2,0.5l-1.3,4.1c-0.1,0.4-0.3,0.8-0.4,1.2l-0.4,1.3c-0.2,0.5-0.3,1-0.5,1.4l-0.8,2.4l0,0
			c-0.1,0.3-0.2,0.6-0.3,0.9l0.3,0.1l-0.3-0.1l-0.1,0.3l0.3,0.1l0,0l-0.3,0c-0.1,0.6,0.1,1,0.6,1.5l0.2-0.3l-0.2,0.3l0.2,0.2
			l0.2-0.2l0,0l-0.1,0.3l0.3,0.1l0.1-0.3l-0.1,0.3c0.2,0.1,0.3,0.1,0.5,0.2l0.1-0.3l-0.1,0.3l0.8,0.2l0,0l0.3,0.1l0.1-0.3l-0.1,0.3
			c0.1,0,0.3,0,0.4,0v-0.3l0,0l0,0.3l0.2,0l0-0.3l0.1,0.3c0.4-0.1,0.7-0.3,1-0.6l0,0c0.2-0.2,0.3-0.5,0.4-0.7l-0.3-0.1l0,0l0.3,0.1
			l0.2-1.1c0-0.1,0-0.2,0.1-0.3l-0.3-0.1l0.3,0.1l0-0.1c0-0.1,0-0.1,0-0.2c0-0.2,0.1-0.3,0.1-0.5l0-0.2c0.1-0.2,0.1-0.5,0.2-0.7
			l0.2-1.1c0-0.2,0.1-0.4,0.1-0.5c0.1-0.3,0.1-0.6,0.2-0.9c0.1-0.3,0.1-0.7,0.2-1l0.5-2.2c0.1-0.4,0.2-0.8,0.2-1.2
			c0.1-0.4,0.2-0.7,0.2-1.1c0.1-0.3,0.1-0.6,0.2-0.9l0.2-0.8c0.1-0.2,0.1-0.5,0.2-0.7l0.1-0.3l0,0c0.1-0.3,0.1-0.6,0.2-1l0,0l0-0.2
			l-0.3,0l0-0.1L66.6,175.9l-0.3,0l0,0H66.6z M62.2,191l0.3,0.1l0,0L62.2,191c0,0.1-0.1,0.2-0.2,0.3c-0.1,0.1-0.3,0.1-0.4,0.1l0,0
			c-0.5-0.1-1-0.3-1.6-0.4l0,0c-0.1,0-0.2-0.1-0.3-0.3c-0.1-0.1-0.1-0.3,0-0.4l4.7-14.5l0,0c0.1-0.4,0.4-0.4,0.6-0.4
			c0.2,0.1,0.4,0.3,0.4,0.6L62.2,191z M59.9,191.3L59.9,191.3L59.9,191.3L59.9,191.3z M63.3,177L63.3,177l-0.2,0L63.3,177z
			 M59.3,189.2L59.3,189.2l-0.3-0.1L59.3,189.2z M61.1,192.1L61.1,192.1L61.1,192.1L61.1,192.1z M62.6,191.6
			C62.6,191.6,62.6,191.6,62.6,191.6l0.2,0.2L62.6,191.6z M65.8,177.1L65.8,177.1L65.8,177.1L65.8,177.1z"/>
		<path class="st0" d="M80.4,189.9l-0.3,0.1L80.4,189.9l-0.3-0.9l-0.4,0.1l0.4-0.1l-0.5-1.4c-0.1-0.3-0.2-0.7-0.3-1l-2-6.3
			c-0.1-0.3-0.2-0.7-0.3-1c-0.1-0.3-0.2-0.6-0.3-0.9l-0.5-1.7l-0.5,0.2l0,0l0.5-0.2l-0.5-1.4l-0.3,0.1l0,0l0.3-0.1l0-0.1l0,0
			c-0.2-0.4-0.5-0.8-0.9-0.9c-0.4-0.2-0.9-0.2-1.3,0l0.1,0.3l-0.2-0.3l-0.2,0.1l0.2,0.3l-0.2-0.3c-0.4,0.3-0.6,0.6-0.7,1.1l0.3,0.1
			l-0.3,0l0,0.3l0.3,0l0,0l-0.3,0l0,0.3l0.3,0l-0.3,0.1l0.1,0.3l0.3-0.1l0,0l-0.3,0.1c0,0.1,0,0.2,0.1,0.3c0,0.1,0,0.2,0.1,0.3h0
			l0,0c0,0,0,0,0,0h0l0.1,0.3c0,0.2,0.1,0.4,0.1,0.7c0.1,0.2,0.1,0.5,0.2,0.7l0.1,0.4c0,0.1,0.1,0.3,0.1,0.4
			c0.1,0.3,0.1,0.6,0.2,0.8l0.2,0.9c0.1,0.3,0.1,0.6,0.2,1c0.1,0.3,0.1,0.7,0.2,1c0.1,0.4,0.2,0.7,0.2,1.1c0.1,0.4,0.2,0.8,0.2,1.2
			c0.1,0.4,0.2,0.8,0.3,1.3l0.8,3.6h0c0.1,0.3,0.1,0.5,0.2,0.8l0,0c0,0.2,0.1,0.4,0.2,0.5l0.3-0.2l-0.3,0.2l0.1,0.1l0.3-0.2
			l-0.3,0.2c0.3,0.4,0.7,0.6,1.2,0.7l0-0.3l0,0.3l0.2,0l0-0.3l0,0l0,0l0,0.3l0.3,0l-0.1-0.3l0,0l0.1,0.3l0.2,0l-0.1-0.3l0,0l0.1,0.3
			l0.2,0l-0.1-0.3l0.1,0.3c0.1,0,0.3-0.1,0.4-0.1c0.1,0,0.3-0.1,0.4-0.1l0,0l0.1,0c0.1,0,0.2-0.1,0.3-0.1l0,0
			c0.2-0.1,0.4-0.2,0.6-0.3l-0.3-0.3l0.3,0.3c0.3-0.3,0.5-0.7,0.6-1.1l-0.3,0l0.3,0C80.5,190.4,80.5,190.2,80.4,189.9z M79.3,190.3
			L79.3,190.3c0,0.1,0,0.3,0,0.4c-0.1,0.1-0.2,0.2-0.3,0.2c-0.5,0.2-1,0.3-1.6,0.4l0.1,0.4l0,0l-0.1-0.4c-0.1,0-0.3,0-0.4-0.1
			c-0.1-0.1-0.2-0.2-0.2-0.3h0L73.6,176l-0.3,0.1l0,0l0.3-0.1c-0.1-0.4,0.1-0.6,0.4-0.6c0.2-0.1,0.5,0,0.6,0.4L79.3,190.3z
			 M76.4,191L76.4,191L76.4,191L76.4,191z M75.4,175.5L75.4,175.5l0.2-0.1L75.4,175.5z M75.9,190.3L75.9,190.3l-0.4,0.1L75.9,190.3z
			 M79.2,191.7L79.2,191.7l0,0.1L79.2,191.7z"/>
		<path class="st0" d="M88.2,186.2l-0.3,0.1l0,0L88.2,186.2l-0.1-0.2l-0.3,0.2l0.3-0.2c-0.8-1.2-1.5-2.4-2.3-3.6l-3.2-4.9
			c-0.9-1.5-1.9-2.9-2.8-4.4l-0.3,0.2l0,0l0.3-0.2l-0.1-0.2l-0.3,0.2l0.2-0.2c-0.3-0.3-0.6-0.5-0.9-0.5l-0.1,0.3l0-0.3l-0.3,0l0,0.3
			v-0.3c-0.6,0-1.1,0.2-1.4,0.7l0.3,0.2l-0.3-0.2c-0.2,0.3-0.3,0.6-0.3,0.9H77l-0.3,0c0,0.2,0.1,0.4,0.1,0.6l0.3-0.1l0,0l-0.3,0.1
			l0,0.1l0.3-0.1l-0.3,0.1l0.1,0.3l0,0l0.2,0.3c0.1,0.1,0.1,0.2,0.1,0.3l0.3-0.1l-0.3,0.2c0.1,0.1,0.1,0.2,0.2,0.3l0.3,0.7
			c0.1,0.2,0.2,0.3,0.2,0.5l0.1,0.3c0.1,0.2,0.2,0.3,0.3,0.5L79,179c0.2,0.3,0.3,0.6,0.5,0.9c0.2,0.3,0.3,0.6,0.4,0.9L83,187l0,0
			l0.8,1.5l0.2-0.1l-0.2,0.1c0.1,0.2,0.3,0.4,0.4,0.5l0.3-0.4c0,0,0,0,0,0l-0.3,0.4c0.3,0.3,0.6,0.4,1,0.4c0,0,0,0,0,0l0,0
			c0,0,0,0,0,0c0,0,0,0,0,0l0,0c0.3,0,0.5-0.1,0.7-0.2L86,189l0.1,0.2l0.2-0.1l0,0l0.2-0.1c0.2-0.1,0.3-0.2,0.5-0.3l-0.2-0.3
			l0.2,0.3l0.5-0.3l-0.2-0.3l0.2,0.3c0.2-0.1,0.3-0.2,0.4-0.4l-0.2-0.2L88,188C88.5,187.4,88.5,186.9,88.2,186.2z M85.7,188.5
			L85.7,188.5l-0.2-0.3c-0.1,0.1-0.3,0.1-0.4,0c-0.1,0-0.2-0.1-0.3-0.3l-6.9-13.6l-0.3,0.2l0,0l0.3-0.2c-0.2-0.3,0-0.6,0.2-0.7
			c0.2-0.1,0.5-0.1,0.7,0.2l8.3,12.8l0.1-0.1l-0.1,0.1c0.1,0.1,0.1,0.2,0.1,0.4c0,0.1-0.1,0.3-0.2,0.3c-0.5,0.3-0.9,0.5-1.4,0.8
			L85.7,188.5z M77.3,175.1L77.3,175.1L77.3,175.1L77.3,175.1z M83.5,186.7L83.5,186.7l-0.1,0.1L83.5,186.7z M86.2,188.8L86.2,188.8
			L86.2,188.8L86.2,188.8z"/>
		<path class="st0" d="M94.9,180.8l-0.3,0.1L94.9,180.8l-0.2-0.3l-0.3,0.2l0,0l0.2-0.2l-0.2-0.2l-0.3,0.2l0.2-0.2
			c-0.9-0.8-1.8-1.6-2.7-2.4l-8.7-7.8l-0.2,0.2l0.2-0.3l-0.2-0.2l-0.2,0.2l0,0l0.1-0.3c-0.2-0.1-0.4-0.2-0.6-0.2l0,0.4l0-0.4l-0.2,0
			l0,0.3v-0.3c-0.6,0-1.1,0.2-1.4,0.7l0,0c-0.4,0.6-0.4,1.2,0,1.8l0.3-0.2l0,0l-0.2,0.2l0.2,0.2l0.3-0.2l0,0l-0.3,0.2l3.3,3.7
			c0.7,0.7,1.3,1.5,2,2.2l2.6,2.9c0.8,0.9,1.5,1.7,2.3,2.6l0,0c0.2,0.2,0.3,0.3,0.5,0.4l0,0c0.2,0.1,0.5,0.2,0.7,0.2
			c0.2,0,0.4,0,0.6-0.1l-0.1-0.3l0.2,0.3l0.2-0.1l-0.1-0.3l0,0l0.2,0.2l0.2-0.2l-0.2-0.3l0.2,0.2l0.2-0.2l-0.2-0.2l0,0l0.2,0.2
			l0.2-0.2l0,0c0.1-0.1,0.3-0.3,0.4-0.4l-0.4-0.4c0,0,0,0,0,0l0.4,0.4c0.1-0.1,0.3-0.3,0.4-0.4l-0.2-0.2l0,0l0.3,0.2
			c0.2-0.2,0.3-0.4,0.4-0.6l-0.1,0l0.1,0C95.2,181.7,95.1,181.3,94.9,180.8z M92.6,183l0.2,0.2l0,0l0,0L92.6,183
			c-0.1,0.1-0.2,0.1-0.4,0.1c-0.1,0-0.3-0.1-0.4-0.2l-0.3,0.2l0.3-0.2l-10.2-11.3l0,0c-0.3-0.3-0.2-0.6,0-0.7s0.4-0.2,0.7,0
			l11.3,10.2l0.2-0.3l0,0l-0.2,0.3c0.1,0.1,0.2,0.2,0.2,0.4c0,0.1,0,0.3-0.1,0.4l0,0C93.4,182.3,93,182.7,92.6,183z M81,170.6
			C81,170.6,81,170.6,81,170.6l-0.1-0.1L81,170.6z"/>
		<path class="st0" d="M99.7,173.4L99.7,173.4c-0.1-0.2-0.3-0.3-0.5-0.4l-0.2,0.3l0,0l0.2-0.3l-10.5-5.3c-1-0.5-2.1-1.1-3.1-1.6
			l-0.2,0.3l0,0l0.2-0.3c-0.1-0.1-0.2-0.1-0.4-0.1l-0.1,0.3l0,0l0.1-0.3l-0.2,0l-0.1,0.3l0-0.3l-0.1,0l0,0.4V166
			c-0.4,0-0.7,0.1-1,0.3l0.2,0.3l-0.2-0.3c-0.3,0.2-0.5,0.5-0.6,0.9l0.4,0.1l-0.4-0.1c-0.2,0.7,0,1.2,0.5,1.7l0.2-0.2l0,0l-0.2,0.3
			l0.2,0.1l0.2-0.3l-0.2,0.3l4.2,2.7c1.4,0.9,2.8,1.8,4.3,2.8l1.4,0.9c1,0.6,1.9,1.2,2.9,1.9l0.2-0.3l-0.2,0.3l0.2,0.1l0.1-0.3l0,0
			l-0.1,0.3c0.2,0.1,0.5,0.1,0.7,0.1c0.3,0,0.6-0.1,0.9-0.3l-0.2-0.3l0.2,0.3l0.2-0.2l-0.2-0.2l0,0l0.2,0.2l0.2-0.2l-0.3-0.2l0,0
			l0.3,0.2l0.3-0.5l-0.4-0.3c0,0,0,0,0,0l0.5,0.2c0.1-0.1,0.2-0.3,0.2-0.4l0.1-0.2l-0.3-0.2l0,0l0.3,0.2l0.1-0.2l-0.3-0.2l0,0
			l0.3,0.2c0.1-0.3,0.2-0.5,0.2-0.8l-0.3,0h0.3C100.2,174.1,100,173.8,99.7,173.4z M98.9,174.8c-0.3,0.5-0.5,0.9-0.8,1.4l0.3,0.2
			l0,0l-0.3-0.2c-0.1,0.1-0.2,0.2-0.3,0.2c-0.1,0-0.3,0-0.4-0.1l0,0l-12.8-8.3l0,0c-0.3-0.2-0.3-0.5-0.2-0.7
			c0.1-0.2,0.4-0.4,0.7-0.2l0.2-0.3l0,0l-0.2,0.3l13.6,6.9l0,0c0.1,0.1,0.2,0.2,0.3,0.3C99,174.5,99,174.7,98.9,174.8l0.3,0.2l0,0
			L98.9,174.8z M97.2,176.7L97.2,176.7L97.2,176.7L97.2,176.7z"/>
		<path class="st0" d="M17.8,10.3L17.8,10.3l4.7-1.2c0.5-0.1,1.1-0.2,1.6-0.4c0.5-0.1,1.1-0.2,1.6-0.4l3.7-0.8
			c0.3-0.1,0.7-0.1,1-0.2c1.1-0.2,2.1-0.4,3.2-0.6c1.1-0.2,2.1-0.4,3.2-0.5c1.1-0.2,2.1-0.3,3.2-0.5c1.1-0.2,2.1-0.3,3.2-0.4
			c2.3-0.3,4.4-0.5,6.5-0.7C52,4.4,54.2,4.2,56.4,4C65.2,3.5,74,3.5,82.5,4c2.1,0.1,4.3,0.3,6.5,0.5c1.1,0.1,2.2,0.2,3.3,0.3
			c1.1,0.1,2.2,0.3,3.2,0.4c1.1,0.1,2.2,0.3,3.2,0.4c1.1,0.2,2.2,0.3,3.2,0.5c1.1,0.2,2.1,0.4,3.2,0.5c1.1,0.2,2.1,0.4,3.2,0.6
			l0.5,0.1c0.4,0.1,0.7,0.1,1.1,0.2c0.5,0.1,1.1,0.2,1.6,0.3c0.5,0.1,1.1,0.2,1.6,0.3c0.5,0.1,1.1,0.2,1.6,0.4
			c1.1,0.2,2.1,0.5,3.2,0.8l0.3-1.2c-1.1-0.3-2.1-0.5-3.2-0.8c-0.5-0.1-1.1-0.2-1.6-0.4c-0.5-0.1-1.1-0.2-1.6-0.3
			c-0.5-0.1-1.1-0.2-1.6-0.3c-0.4-0.1-0.7-0.1-1.1-0.2l-0.5-0.1c-1.1-0.2-2.2-0.4-3.2-0.6c-1.1-0.2-2.2-0.4-3.2-0.5
			c-1.1-0.2-2.2-0.3-3.2-0.5c-1.1-0.2-2.2-0.3-3.3-0.5c-1.1-0.1-2.2-0.3-3.3-0.4c-1.1-0.1-2.2-0.2-3.3-0.3c-2.2-0.2-4.4-0.4-6.6-0.5
			c-8.6-0.6-17.4-0.6-26.3,0c-2.2,0.1-4.4,0.3-6.5,0.5c-2.1,0.2-4.2,0.4-6.5,0.7c-1.1,0.1-2.2,0.3-3.3,0.4c-1.1,0.2-2.2,0.3-3.2,0.5
			c-1.1,0.2-2.2,0.4-3.2,0.6c-1.1,0.2-2.2,0.4-3.2,0.6c-0.4,0.1-0.7,0.1-1.1,0.2l-3.8,0.8c-0.5,0.1-1.1,0.2-1.6,0.4
			c-0.5,0.1-1.1,0.2-1.6,0.4l-4.8,1.2l0.2,0.6l-0.2-0.6l-0.3,0.1l0.5,1.1L17.8,10.3z"/>
		<polygon class="st0" points="121.5,9.1 121.5,9.1 121.5,9.1 121.2,10.3 121.3,9.8 121.2,10.3 121.3,10.3 121.5,9.8 121.6,9.2
			"/>
		<path class="st0" d="M120.6,10.2l0.3-1.2c-0.9-0.2-1.8-0.5-2.7-0.7L118,9.5C118.8,9.7,119.7,9.9,120.6,10.2z"/>

			<rect x="120.4" y="9.4" transform="matrix(0.2558 -0.9667 0.9667 0.2558 80.7445 124.161)" class="st0" width="1.2" height="0.5"/>
		<path class="st0" d="M420.6,81.3L420.6,81.3L420.6,81.3c0-0.4,0-0.6-0.1-0.9l-0.6,0.1l0.6-0.1c-0.1-0.3-0.1-0.6-0.2-0.9l0,0
			c-0.6-1.7-1.9-3-3.7-3.6l-0.2,0.6l0.2-0.6c-0.3-0.1-0.6-0.2-0.9-0.2l-0.2,1.2c0.2,0,0.5,0.1,0.7,0.2l0,0c1.3,0.4,2.4,1.5,2.9,2.8
			l0,0c0.1,0.2,0.1,0.4,0.2,0.7c0,0.2,0.1,0.4,0.1,0.7h0.4l0.1,0.1l-0.5,0h0v253.2v0v0.2l0,0.3l0.4,0l-0.4,0c0,0.4-0.1,0.8-0.3,1.3
			c-0.1,0.2-0.2,0.4-0.3,0.6l0.5,0.3l-0.5-0.3c-0.2,0.4-0.5,0.7-0.8,1l0.3,0.4L418,338c-0.5,0.5-1,0.8-1.7,1l0.3,1.1l-0.4-1.1
			c-0.4,0.1-0.7,0.2-1.1,0.2l0,0.7l0-0.7l-0.1,0v0c-23.8,1-47.9,1.7-71.6,2.1v0c-7.1,0.1-14.9,0.3-23.8,0.4l0,0
			c-10.4,0.1-21,0.2-31.4,0.2v0c-14.2,0-28.5,0-42.8-0.1l0,0l-0.1,0l0,0.7l0-0.7l-6.1-0.1v0c-17.8-0.2-36.1-0.5-54.5-1l0,1.2
			c18.4,0.5,36.7,0.8,54.5,1v0l6.1,0.1v0l0.2,0l0-0.8l0,0.7c10.5,0.1,21.1,0.1,31.6,0.1c3.8,0,7.5,0,11.2,0v0
			c10.4,0,21-0.1,31.4-0.2l0,0c8.9-0.1,16.7-0.2,23.8-0.4v0c23.7-0.5,47.8-1.2,71.6-2.1l0-0.8l0,0.8l0.1,0l0,0c0.5,0,1-0.1,1.4-0.2
			l0,0c0.8-0.3,1.5-0.7,2.2-1.3l0,0c0,0,0,0,0,0c0,0,0,0,0,0l0,0c0.4-0.4,0.7-0.8,1-1.3l0,0c0.1-0.2,0.3-0.5,0.4-0.8l-0.3-0.1
			l0.3,0.1c0.2-0.6,0.3-1.1,0.4-1.7l-0.6,0l0.6,0l0-0.3l-0.8,0l0.8,0v-0.2v0V81.3l-0.5,0l0,0L420.6,81.3z M415.1,339.2l0,0.3
			L415.1,339.2L415.1,339.2z M420.6,81.3l-0.5,0l-0.1,0H420.6z M419.9,81.3L419.9,81.3l0.2,0L419.9,81.3L419.9,81.3z M420,81.3
			L420,81.3l-0.5,0L420,81.3z M420.1,81.4L420.1,81.4L420.1,81.4L420.1,81.4L420.1,81.4z"/>
		<path class="st0" d="M414.9,75.7h-39.5V37.7c0-3.6-2.6-5.4-5-5.6c-51.7-2.4-129.2-3.8-191.6-0.3c-6.8,0-6.9,5.6-6.9,5.7v42h-37.4
			v-2.7h37.4v-1.2h-38v0h-0.6v0.5H133v-0.5h-4.2v0.6l0-0.6c-0.7,0-1.5-0.3-2-0.8c-0.5-0.5-0.8-1.2-0.8-2l-0.4,0h0.4l0-57.9h-0.6
			l0.6,0c0-0.2,0-0.3,0-0.5c0-0.2,0-0.3-0.1-0.5c0-0.2-0.1-0.3-0.1-0.5l-0.3-1c-0.1-0.1-0.1-0.3-0.2-0.4c-0.1-0.1-0.2-0.3-0.2-0.4
			c-0.1-0.1-0.2-0.3-0.3-0.4c-0.1-0.1-0.2-0.2-0.3-0.3l-0.1-0.1c-0.1-0.1-0.2-0.2-0.3-0.4c-0.2-0.2-0.3-0.3-0.5-0.4l-0.3-0.2
			c-0.1-0.1-0.3-0.2-0.4-0.3l-1.1-0.4l-0.2,0.5l0.2-0.5l-0.2,0.6l-0.1,0.5l0,0.1l0.9,0.3c0.1,0.1,0.2,0.1,0.3,0.2l0.3,0.2
			c0.1,0.1,0.3,0.2,0.4,0.3c0.1,0.1,0.2,0.2,0.3,0.3c0.1,0.1,0.1,0.2,0.2,0.3c0.1,0.1,0.2,0.2,0.2,0.3c0.1,0.1,0.1,0.2,0.2,0.3
			c0.1,0.1,0.1,0.2,0.2,0.3l0.3,0.8c0,0.1,0.1,0.2,0.1,0.4c0,0.1,0,0.2,0,0.4c0,0.1,0,0.3,0,0.4l0,0l0,57.9h0c0,1.1,0.4,2.1,1.2,2.9
			c0.8,0.8,1.8,1.2,2.8,1.2c0,0,0,0,0,0c0,0,0,0,0,0h4.2v0.5h0.2v0.7H133v1.2h0.2v1.2H133v-0.9h-5.6v0c-0.2,0-0.5,0-0.7-0.1
			c-0.2,0-0.5-0.1-0.7-0.2c-0.2-0.1-0.5-0.2-0.7-0.3c-0.2-0.1-0.4-0.2-0.6-0.4c-0.2-0.1-0.4-0.3-0.5-0.5c-0.1-0.1-0.2-0.3-0.4-0.4
			c-0.1-0.1-0.2-0.3-0.3-0.4c-0.1-0.1-0.2-0.3-0.2-0.5c-0.1-0.1-0.1-0.3-0.2-0.5c-0.1-0.2-0.1-0.3-0.1-0.5c0-0.2-0.1-0.3-0.1-0.5
			c0-0.2,0-0.3,0-0.5h-1.2c0,0.2,0,0.4,0,0.6c0,0.2,0,0.4,0.1,0.6c0,0.2,0.1,0.4,0.1,0.6c0.1,0.2,0.1,0.4,0.2,0.6
			c0.1,0.2,0.2,0.4,0.3,0.6c0.1,0.2,0.2,0.4,0.4,0.5c0.1,0.2,0.3,0.3,0.4,0.5c0.2,0.2,0.4,0.4,0.7,0.6c0.2,0.2,0.5,0.3,0.8,0.5
			c0.3,0.1,0.6,0.3,0.8,0.4c0.3,0.1,0.6,0.2,0.9,0.2c0.3,0,0.6,0.1,0.9,0.1l0-0.6v0.6h5.6v0.9h0.2V328H133v0.5h-10.1
			c-0.1-1.1-0.3-2.3-0.4-3.4c-0.1-1.3-0.3-2.7-0.4-4l-0.5-5.1c-0.2-1.7-0.3-3.5-0.5-5.2c-0.2-2-0.4-3.9-0.6-5.6
			c-0.2-1.8-0.5-3.7-0.8-5.6c-0.3-1.8-0.6-3.4-0.9-4.9c-0.3-1.7-0.7-3.3-1-4.9c-0.3-1.3-0.6-2.7-1-4c-0.3-1.3-0.7-2.6-1.1-4
			c-0.4-1.3-0.8-2.7-1.3-4c-0.4-1.3-0.9-2.6-1.5-3.9c-0.7-1.7-1.3-3.1-1.9-4.3c-0.7-1.4-1.4-2.8-2.2-4.2c-0.9-1.6-1.6-2.9-2.4-4.1
			c-0.8-1.3-1.7-2.5-2.8-3.8c-0.9-1.1-1.9-2.2-2.8-3.2c-1-1-2-2-3.1-2.9c-1.1-0.9-2.2-1.8-3.3-2.7c-1.1-0.8-2.3-1.6-3.6-2.3
			c-1.3-0.7-2.5-1.4-3.8-2c-1.3-0.6-2.6-1.1-3.9-1.6c-1.3-0.4-2.6-0.8-4-1.2c-1.4-0.3-2.7-0.6-4.1-0.8c-1.4-0.2-2.8-0.3-4.2-0.4
			c-1.4,0-2.9,0-4.2,0.1c-1.3,0.1-2.8,0.3-4.2,0.5c-1.5,0.2-2.9,0.5-4.1,0.9c-1.4,0.4-2.9,0.9-4.4,1.5c-1.5,0.6-2.9,1.2-4.2,1.9
			c-1.3,0.7-2.6,1.4-3.9,2.3c-1.3,0.8-2.5,1.7-3.6,2.7c-1.1,0.9-2.2,1.9-3.2,2.9c-1,1-2,2-2.9,3.2c-1,1.2-2,2.4-2.9,3.7
			c-0.8,1.2-1.6,2.4-2.5,3.9c-0.8,1.4-1.5,2.6-2.1,3.9c-0.6,1.2-1.2,2.5-1.9,4c-0.5,1.2-1,2.4-1.5,3.7c-0.5,1.2-0.9,2.5-1.4,3.8
			c-0.5,1.4-0.9,2.7-1.2,4c-0.4,1.3-0.7,2.6-1.1,4c-0.4,1.6-0.8,3.4-1.2,5.1c-0.3,1.7-0.7,3.4-1,5.2c-0.3,2-0.7,4.1-0.9,6.1
			c-0.3,2-0.5,4-0.7,6.1c-0.2,1.9-0.4,3.8-0.5,5.6l-0.5,5.6c-0.1,1.3-0.2,2.7-0.4,4c-0.1,1.1-0.3,2.3-0.4,3.4H5.5v0
			c-0.1,0-0.3,0-0.4,0c-0.1,0-0.2-0.1-0.3-0.1c-0.1-0.1-0.2-0.1-0.3-0.2c-0.1-0.1-0.2-0.2-0.3-0.3c-0.1-0.1-0.1-0.1-0.2-0.2
			c-0.1-0.1-0.1-0.2-0.2-0.3c0-0.1-0.1-0.2-0.1-0.3c0-0.1,0-0.2-0.1-0.3c0-0.1,0-0.2,0-0.3h0l0-243.7c0-0.5,0.2-1,0.6-1.4
			c0.4-0.4,0.9-0.6,1.4-0.6c0,0,0,0,0,0l0-0.6v0.6h5.9c0,0,0,0,0,0c0,0,0,0,0,0c1.5,0,2.9-0.6,4-1.6c1.1-1.1,1.7-2.5,1.7-4l-0.6,0
			h0.6l0-55.6c0.3,2.8,0.6,5.6,1,8.5c0.6,4.1,1.4,7.8,2.3,11.3c0.9,3.5,2,6.9,3.2,10c1.2,3.1,2.6,6,4.2,8.6c1.5,2.5,3.1,4.9,4.9,7
			c1.8,2.1,3.7,4,5.9,5.7c2.1,1.7,4.4,3.2,6.8,4.5c2.4,1.3,4.9,2.4,7.5,3.2c2.4,0.8,4.8,1.3,7.3,1.6v25.7c0,0.8,0.4,1.3,1.2,1.4
			l0.1-0.6h0l-0.1,0.6c2.6,0.5,5.2,0.7,7.9,0.7l0,0c0,0,0,0,0,0s0,0,0,0l0,0c2.7,0,5.3-0.2,7.9-0.7l0,0c0.8-0.1,1.2-0.6,1.2-1.4h0
			l0-0.3c0,0,0,0,0,0h0l0-25.3c2.4-0.3,4.9-0.9,7.3-1.7c2.6-0.8,5.2-2,7.7-3.3c2.5-1.4,4.9-3,7.1-4.8c2.1-1.8,4.1-3.7,5.9-5.8
			c1.8-2.1,3.4-4.5,4.9-7.1c1.5-2.6,2.9-5.6,4.1-8.7c1.2-3,2.2-6.3,3.1-9.8c0.8-3.3,1.5-6.7,2.1-10.4c0.5-2.9,0.8-6,1.1-9.3V75h1.2
			V18.7h0c0-1.1-0.4-1.9-1.2-2.6l-0.4,0.5h0l0.3-0.5c-0.4-0.2-0.7-0.4-1.1-0.5l-0.2,0.6l0.2-0.6c-0.3-0.1-0.6-0.2-0.9-0.3l-0.1,0
			c-0.4-0.1-0.7-0.2-1.1-0.4c-0.4-0.1-0.7-0.3-1.1-0.4c-0.3-0.1-0.7-0.3-1-0.5c-0.3-0.1-0.6-0.3-0.9-0.5c-0.2-0.1-0.4-0.3-0.6-0.4
			c-0.1-0.1-0.1-0.1-0.1-0.1c0-0.1,0-0.3,0-0.4c0-0.2,0-0.3-0.1-0.4l-0.1-0.4l0,0c0-0.3-0.2-0.7-0.4-1c-0.2-0.3-0.5-0.6-0.9-0.9
			c-0.3-0.2-0.7-0.5-1.2-0.7c-0.4-0.2-0.8-0.3-1.2-0.5l-0.2,0.6l0.1-0.6C104,7.4,97.2,6.3,90.4,5.6c-13.7-1.4-27.9-1.4-41.8,0
			C41.8,6.3,35,7.4,28.3,8.7l0.1,0.6l-0.2-0.6c-0.4,0.1-0.8,0.3-1.2,0.5c-0.4,0.2-0.8,0.4-1.2,0.7c-0.4,0.3-0.7,0.5-0.9,0.9
			c-0.3,0.3-0.4,0.7-0.4,1l0,0l-0.2,1.2c0,0,0,0-0.1,0.1c-0.2,0.1-0.4,0.3-0.6,0.4c-0.3,0.2-0.6,0.3-0.9,0.5c-0.3,0.2-0.7,0.3-1,0.5
			c-0.4,0.1-0.7,0.3-1.1,0.4c-0.3,0.1-0.7,0.2-1,0.3l0.2,0.6l-0.3-0.5c-0.3,0.1-0.7,0.2-1,0.3l0.2,0.6l-0.2-0.6
			c-0.4,0.1-0.7,0.3-1.1,0.5l0.3,0.5l-0.4-0.5c-0.9,0.7-1.2,1.5-1.2,2.6l0,0l0,56.5h0c0,1.2-0.5,2.3-1.3,3.1c-0.8,0.8-2,1.3-3.1,1.3
			c0,0,0,0,0,0l0,1v-1H5.7v0c0,0,0,0,0,0c-0.9,0-1.7,0.3-2.3,0.9c-0.6,0.6-0.9,1.4-0.9,2.3l0,243.7h0.7l-0.7,0.1c0,0.1,0,0.3,0,0.4
			c0,0.2,0.1,0.3,0.1,0.5c0,0.2,0.1,0.3,0.2,0.4c0.1,0.1,0.1,0.3,0.2,0.4c0.1,0.1,0.2,0.3,0.3,0.4c0.1,0.2,0.3,0.3,0.5,0.4
			c0.2,0.1,0.3,0.2,0.5,0.3c0.2,0.1,0.4,0.2,0.6,0.2c0.2,0,0.4,0.1,0.6,0.1v0h11.1c0.7,0,1.4,0.1,2.1,0.2c0.7,0.1,1.3,0.3,1.9,0.5
			c0.6,0.2,1.1,0.5,1.5,0.8c0.4,0.3,0.7,0.6,1,0.9c0.2,0.3,0.3,0.5,0.3,0.8l0,0c0,0.3,0.1,0.7,0.2,1c0.1,0.3,0.4,0.5,0.6,0.8
			c0.3,0.2,0.6,0.4,0.9,0.5c0.3,0.1,0.6,0.2,1,0.2c0.2,0,0.5,0,0.7,0c0.1,0,0.3,0,0.4,0l0,0h1.5c13.4,3.3,27.1,4.9,40.9,4.9
			s27.5-1.6,40.9-4.9h1.5c0.1,0,0.2,0,0.4,0c0.2,0,0.5,0,0.7,0c0.4,0,0.7-0.1,1-0.2c0.3-0.1,0.6-0.3,0.9-0.5
			c0.3-0.2,0.5-0.5,0.6-0.8c0.2-0.3,0.2-0.6,0.2-1l0,0c0-0.2,0.1-0.5,0.3-0.8c0.2-0.3,0.5-0.6,1-0.9c0.4-0.3,0.9-0.5,1.5-0.8
			c0.6-0.2,1.2-0.4,1.9-0.5c0.7-0.1,1.4-0.2,2.1-0.2v0H133v-0.5h0.2v9.8H133v0h-22.1v0c-0.3,0-0.6,0-0.9,0.1l0.2,0.6l0-0.1l-0.1-0.6
			l-0.1,0l0.1,0.4l-0.1-0.1l-0.1-0.2c-26.4,6.3-54.3,6.3-80.7,0l0,0.1l-0.2,0.5l0.1-0.6c-0.1,0-0.3-0.1-0.4-0.1l0,0
			c-0.2,0-0.4,0-0.5,0v0h-23v0c-0.2,0-0.5,0-0.7,0l0,0c-0.2,0-0.4-0.1-0.7-0.1l0,0c-1.3-0.4-2.3-1.4-2.8-2.6l-0.8,0.3l0.8-0.3
			c-0.1-0.2-0.1-0.4-0.2-0.6l-0.1,0l0.1,0c0-0.2-0.1-0.4-0.1-0.7l0,0c0-0.1,0-0.1,0-0.2l0-0.1h0l0-32.3h0l0-188.9h0l0-32l-0.7,0
			l0.1,0l0.5,0l0.1,0c0-1.2,0.5-2.3,1.3-3.1c0.8-0.8,1.9-1.3,3.1-1.3l0-0.7v0.7h5.1v0c0,0,0,0,0,0c1.1,0,2.1-0.4,2.8-1.2
			c0.8-0.8,1.2-1.8,1.2-2.9h0V14.9h0c0-0.5,0.1-1,0.2-1.5c0.2-0.5,0.4-0.9,0.7-1.4c0.2-0.2,0.3-0.4,0.5-0.6c0.1-0.1,0.2-0.2,0.3-0.3
			c0.1-0.1,0.2-0.2,0.4-0.3l0.2-0.2c0.1-0.1,0.2-0.1,0.3-0.2c0.2-0.1,0.5-0.2,0.7-0.3l-0.4-1.2c-0.3,0.1-0.6,0.2-0.9,0.3
			c-0.1,0.1-0.3,0.1-0.5,0.2l-0.3,0.2c-0.2,0.1-0.3,0.2-0.5,0.4c-0.1,0.1-0.2,0.2-0.4,0.3c-0.2,0.2-0.4,0.5-0.6,0.7
			c-0.4,0.5-0.7,1.1-0.9,1.7c-0.2,0.6-0.3,1.2-0.3,1.9l0.2,0H13v57.9h0.6l-0.6,0c0,0.8-0.3,1.5-0.8,2c-0.5,0.5-1.2,0.8-2,0.8
			c0,0,0,0,0,0l0,1v-1H5.1v0c-1.5,0-2.9,0.6-4,1.6c-1.1,1.1-1.7,2.5-1.7,4l0.6,0l0,0l-0.6,0v0.1h0l0,32h0l0,188.9h0l0,32.3l0.7,0
			l-0.7,0l0,0.1c0,0.1,0,0.2,0,0.3l1-0.1l-1.1,0.1c0,0.3,0.1,0.6,0.1,0.8l0,0c0.1,0.3,0.1,0.5,0.2,0.8l0,0c0.6,1.6,1.9,2.8,3.6,3.4
			l0.3-1.1l-0.3,1.1c0.3,0.1,0.5,0.1,0.8,0.2l0.1-0.6l-0.1,0.6c0.3,0,0.6,0.1,0.9,0.1v0h23v0c0.1,0,0.2,0,0.3,0l0.1-0.6l-0.1,0.6
			c0.1,0,0.2,0,0.3,0.1l0,0l0.1,0l0.1-0.3l-0.1,0.3c13.3,3.2,27,4.8,40.7,4.8c13.7,0,27.4-1.6,40.7-4.8l-0.2-0.9l0.1,0.2l0.2,0.8
			l0,0l0,0c0.2-0.1,0.4-0.1,0.6-0.1v0H133v0h0.8v0c17.1,0.7,34.2,1.3,50.9,1.7l0-1.2c-16.6-0.4-33.5-1-50.4-1.7v-9.2
			c30.9,1.3,62,2.2,92.3,2.6c16.4,0.2,33,0.4,49.5,0.4c14.9,0,29.9-0.1,44.7-0.3c30.6-0.4,62.2-1.3,93.7-2.5l0,0
			c0.2,0,0.3,0,0.5-0.1c0.2,0,0.3-0.1,0.5-0.2c0.2-0.1,0.3-0.2,0.4-0.2c0.2-0.1,0.3-0.2,0.4-0.3c0.1-0.1,0.3-0.2,0.4-0.4
			c0.1-0.1,0.2-0.3,0.3-0.4c0.1-0.1,0.1-0.3,0.2-0.4c0.1-0.1,0.1-0.3,0.1-0.5c0-0.1,0.1-0.3,0.1-0.4c0-0.2,0-0.3,0-0.5h0v0l0,0l0,0
			l0-243.7h-1.2l0,243.7h0.6l-0.6,0c0,0.1,0,0.2,0,0.3c0,0.1,0,0.2,0,0.3c0,0.1-0.1,0.2-0.1,0.3c0,0.1-0.1,0.2-0.1,0.3
			c0,0.1-0.1,0.2-0.2,0.3c-0.1,0.1-0.1,0.1-0.2,0.2c-0.1,0.1-0.1,0.1-0.2,0.2c-0.1,0.1-0.2,0.1-0.2,0.1c-0.1,0-0.2,0.1-0.3,0.1
			c-0.1,0-0.2,0-0.3,0l0,0.5l0-0.5c-31.5,1.3-63.1,2.1-93.7,2.5c-31.1,0.4-62.8,0.4-94.1-0.1c-30.4-0.4-61.5-1.3-92.4-2.6V80.9h37.4
			v33.9c0.1,1.8,0.6,3.1,1.5,3.9c0.9,0.8,2,0.9,2.4,0.9c0.1,0,0.1,0,0.1,0c1.9,0,189.8,0,194.8,0c0,0,0,0,0,0c1.8,0,3.1-0.5,3.9-1.5
			c1-1.2,0.9-2.7,0.8-3V80.9h38.9v-0.3l0,0.3c0,0,0,0,0,0c0.5,0,1,0.2,1.4,0.6c0.4,0.4,0.6,0.9,0.6,1.4h1.2c0-0.9-0.3-1.7-0.9-2.3
			c-0.6-0.6-1.4-0.9-2.3-0.9c0,0,0,0,0,0c0,0,0,0,0,0h-38.9v-0.5l0.2-0.4l-0.2-0.1l-0.1,0.1v-1.8h39.5v-0.3l0,0l0,0.3
			c0.2,0,0.5,0,0.7,0l0.2-1.2C415.5,75.7,415.2,75.7,414.9,75.7L414.9,75.7z M61.8,106.2l0.1-0.3c0,0,0,0-0.1,0l0.1-0.3
			c-0.2,0-0.2,0-0.2-0.2l0,0V75.2h-0.4l0.1-0.2c1.8,0.5,3.7,0.8,5.5,0.9c0.9,0.1,1.9,0.1,2.8,0.1c0.9,0,1.8,0,2.7-0.1
			c1.8-0.1,3.6-0.4,5.4-0.9l0.1,0.2h-0.3l0,30.2c0,0-0.1,0.1-0.1,0.1l-0.1,0.1l-0.1,0l0.1,0.3c0,0,0,0,0,0l0,0
			c-2.6,0.5-5.1,0.7-7.7,0.7c-2.6,0-5.1-0.2-7.7-0.7L61.8,106.2L61.8,106.2z M121.7,18.7C121.7,18.7,121.7,18.7,121.7,18.7h0.4
			H121.7z M114.7,14.5c0.3,0.2,0.6,0.4,1,0.5c0.4,0.2,0.7,0.3,1.1,0.5c0.4,0.2,0.8,0.3,1.2,0.5c0.4,0.1,0.8,0.3,1.1,0.4l0.1,0
			c0.3,0.1,0.6,0.2,1,0.3l0,0c0.2,0.1,0.3,0.1,0.5,0.2c-0.3,4.1-0.7,7.8-1.3,11.4c-0.6,3.7-1.2,7-2,10.3c-0.9,3.4-1.9,6.7-3,9.7
			c-1.2,3.1-2.5,6-4,8.6c-1.4,2.5-3,4.9-4.7,6.9c-1.7,2-3.6,3.9-5.7,5.7c-2.1,1.8-4.5,3.3-6.9,4.6c-2.4,1.3-4.9,2.4-7.5,3.2
			c-2.3,0.7-4.6,1.3-6.9,1.6l0-3.1c0.7-0.2,1.4-0.3,2.1-0.5l-0.1-0.4c0,0,0,0,0.1,0l-0.1-0.4l0.2,0.6l0.1,0l0,0
			c1.3-0.4,2.6-0.9,3.7-1.4c1.3-0.5,2.5-1.1,3.8-1.8c1.2-0.7,2.4-1.4,3.6-2.2c1.2-0.8,2.3-1.6,3.4-2.5c1.1-0.9,2.1-1.8,3-2.8
			c0.9-1,1.9-2,2.7-3c0.9-1.1,1.7-2.3,2.5-3.4c0.8-1.2,1.6-2.6,2.3-3.9c0.8-1.4,1.4-2.9,2.1-4.6c0.7-1.7,1.3-3.5,2-5.4
			c0.6-2,1.2-4.1,1.7-6.3c0.5-2.3,1-4.7,1.4-7.2c0.4-2.6,0.8-5.3,1-8.2c0.2-2.5,0.4-5.2,0.5-7.9C114.6,14.5,114.6,14.5,114.7,14.5z
			 M25.9,11.5c0.2-0.2,0.4-0.4,0.7-0.6c0.3-0.2,0.6-0.4,1-0.6c0.3-0.1,0.7-0.3,1-0.4C35.2,8.6,42,7.5,48.7,6.8
			c13.8-1.4,27.9-1.4,41.5,0c6.8,0.7,13.5,1.7,20.1,3.1c0.4,0.1,0.7,0.2,1,0.4c0.4,0.2,0.7,0.4,1,0.6c0.3,0.2,0.5,0.4,0.6,0.6
			c0.1,0.2,0.2,0.3,0.2,0.4c-0.1,3.3-0.3,6.4-0.6,9.3c-0.2,2.8-0.6,5.6-1,8.2c-0.4,2.5-0.8,4.9-1.4,7.2c-0.5,2.1-1,4.2-1.6,6.2
			c-0.5,1.8-1.2,3.6-1.8,5.3c-0.6,1.6-1.3,3.1-2,4.5c-0.7,1.4-1.4,2.7-2.2,3.9c-0.8,1.2-1.6,2.3-2.4,3.4C99.4,61,98.5,62,97.6,63
			c-0.9,1-1.9,1.9-3,2.8c-1.1,0.9-2.2,1.8-3.3,2.5c-1.2,0.8-2.3,1.5-3.6,2.2c-1.2,0.6-2.4,1.2-3.7,1.8c-1.2,0.5-2.4,1-3.7,1.4
			l0.2,0.6l-0.1-0.3l-0.1-0.4c-0.9,0.3-1.8,0.5-2.7,0.7l-0.1-0.5c-1.8,0.4-3.6,0.7-5.3,0.9c-1.7,0.1-3.5,0.1-5.2,0
			c-1.8-0.2-3.6-0.5-5.5-0.9l-0.1,0.5c-0.9-0.2-1.8-0.5-2.7-0.7l0,0.1c-2.5-0.8-4.9-1.8-7.2-3c-2.3-1.2-4.5-2.7-6.5-4.3
			c-2-1.6-3.9-3.5-5.5-5.4c-1.6-2-3.1-4.2-4.5-6.6c-1.4-2.5-2.6-5.2-3.7-8.3c-1.1-3-2-6.4-2.8-9.9c-0.8-3.6-1.4-7.3-1.9-11.4
			c-0.5-4-0.8-8.2-0.9-12.8C25.8,11.8,25.8,11.7,25.9,11.5z M25.2,11.8L25.2,11.8L25.2,11.8L25.2,11.8z M18.8,16.7L18.8,16.7
			c0.4-0.1,0.7-0.2,1-0.3l0.1,0c0.4-0.1,0.7-0.2,1.1-0.4c0.4-0.1,0.8-0.3,1.2-0.4c0.4-0.2,0.7-0.3,1.1-0.5c0.3-0.2,0.7-0.3,1-0.5
			c0.1,0,0.1-0.1,0.1-0.1c0.1,2.8,0.3,5.5,0.6,8c0.3,2.8,0.6,5.6,1.1,8.3c0.4,2.4,0.9,4.9,1.4,7.2c0.5,2.2,1.1,4.3,1.7,6.2
			c0.6,1.9,1.3,3.7,2,5.4c0.6,1.6,1.4,3.1,2.1,4.5c0.7,1.4,1.5,2.7,2.3,3.9c0.8,1.2,1.6,2.3,2.5,3.4c0.9,1.1,1.8,2.1,2.7,3
			c1,1,2,1.9,3,2.7c1.1,0.9,2.2,1.7,3.3,2.5c1.2,0.8,2.4,1.5,3.6,2.1c1.2,0.7,2.5,1.3,3.8,1.8c1.2,0.5,2.5,1,3.8,1.4l0-0.1
			c0,0,0,0,0,0l0,0.1l0.1,0l0.1-0.2c0,0,0.1,0,0.1,0l-0.1,0.5c0.7,0.2,1.4,0.4,2.1,0.5v3.1c-2.3-0.3-4.7-0.9-6.9-1.6
			c-2.5-0.8-4.9-1.8-7.3-3.1c-2.3-1.3-4.6-2.7-6.7-4.4c-2.1-1.7-4-3.5-5.7-5.5c-1.7-2-3.4-4.3-4.8-6.8c-1.5-2.6-2.9-5.4-4.1-8.4
			c-1.2-3-2.3-6.3-3.2-9.8c-0.9-3.5-1.6-7.1-2.3-11.2c-0.6-3.7-1-7.4-1.2-10.9C18.5,16.9,18.7,16.8,18.8,16.7z M17.2,18.7
			C17.2,18.7,17.2,18.7,17.2,18.7l-0.5,0L17.2,18.7z M23.9,332.8L23.9,332.8L23.9,332.8L23.9,332.8z M114,333.7
			c-0.1,0.1-0.3,0.2-0.5,0.3c-0.2,0.1-0.5,0.1-0.7,0.2c-0.3,0-0.6,0-0.9,0l0,0.6v-0.6h-1.6v0.6l-0.1-0.6c-26.6,6.6-54.7,6.6-81.3,0
			l-0.1,0.6v-0.6h-1.6v0.6l0-0.6c-0.3,0-0.6,0-0.9,0c-0.3,0-0.5-0.1-0.7-0.2c-0.2-0.1-0.4-0.2-0.5-0.3c-0.1-0.1-0.2-0.2-0.3-0.4
			c-0.1-0.1-0.1-0.3-0.1-0.4c0.2-1.5,0.3-3,0.5-4.6c0.1-1.6,0.3-3.2,0.4-4.9c0.1-1.6,0.2-3.1,0.3-4.7c0.1,0.1,0.1,0.3,0.2,0.4
			l0.5-0.3l-0.5,0.3c0.3,0.5,0.6,1,1,1.4l0,0c0,0,0,0,0,0c0,0,0,0,0,0l0,0c0.2,0.2,0.3,0.3,0.5,0.5c0.2,0.2,0.3,0.3,0.5,0.5l0.4-0.4
			l-0.3,0.6c13.2,6.3,27.3,9.4,41.4,9.4c14.1,0,28.3-3.1,41.4-9.4l-0.3-0.6l0.4,0.4c0.3-0.3,0.7-0.7,1-1l-0.4-0.4l0.4,0.4
			c0.1-0.1,0.2-0.2,0.4-0.4c0.4-0.4,0.6-0.6,0.9-0.9c0.1,1.5,0.2,2.9,0.2,4.4c0.1,1.6,0.2,3.1,0.4,4.7c0.1,1.5,0.3,3,0.5,4.5
			c0,0.2,0,0.3-0.1,0.4C114.3,333.4,114.2,333.5,114,333.7z M25.3,313.2L25.3,313.2L25.3,313.2L25.3,313.2z M111.2,319.6
			L111.2,319.6C111.2,319.7,111.2,319.7,111.2,319.6C111.2,319.7,111.2,319.7,111.2,319.6L111.2,319.6c-0.3,0.3-0.6,0.6-1,1
			c-25.9,12.3-55.7,12.3-81.6,0c-0.1-0.1-0.3-0.3-0.4-0.5c-0.2-0.2-0.3-0.3-0.5-0.5l-0.4,0.4l0.4-0.4c-0.3-0.3-0.6-0.7-0.8-1.1l0,0
			c-0.2-0.5-0.4-1-0.6-1.5c0-0.2-0.1-0.3-0.1-0.5c0,0,0,0,0,0.1l0.1-0.1c0.1,0.1,0.2,0.2,0.3,0.3c0.4,0.4,0.7,0.6,0.9,0.8l0,0
			l0.7,0.3c0.3,0.1,0.5,0.2,0.8,0.4c0.3,0.1,0.5,0.3,0.8,0.4l0,0c12.6,6,26.1,9,39.6,9c13.5,0,27-3,39.6-9l0,0l0.8-0.4
			c0.3-0.1,0.5-0.2,0.7-0.4c0.2-0.1,0.4-0.2,0.6-0.3l0.1-0.1l-0.3-0.5l0.3,0.5l0.3-0.2c0.6-0.4,1-0.7,1.1-0.8
			c0.1-0.1,0.2-0.2,0.3-0.4l0.1,2.1l-0.3-0.2c-0.1,0.2-1,1-1.3,1.3C111.4,319.4,111.3,319.6,111.2,319.6z M49.7,323.5l0.6-3.9
			l2.6,0.4l-0.6,3.9L49.7,323.5z M91.2,323.5l-1.3-3.7l2.5-0.8l1.3,3.7L91.2,323.5z M113,313.9c0,0.2-0.1,0.4-0.2,0.6
			c-0.1,0.2-0.2,0.4-0.3,0.6c-0.1,0.2-0.3,0.4-0.4,0.5c-0.1,0.1-0.5,0.3-0.7,0.5l-0.1-0.1l-1,0.7l0,0c0,0-0.1,0-0.1,0
			c-0.2,0.1-0.5,0.2-0.7,0.4l-0.8,0.4l0.1,0.2l-0.1-0.2c-4.5,2.1-9,3.9-13.7,5.2l-1.8-5.3l-4.8,1.6l1.7,4.9
			c-12.1,2.8-24.5,3.1-36.7,0.9l0.9-5.8l-5-0.8l-0.9,5.6c-6.1-1.5-12.2-3.6-18-6.4l-0.2,0.5l0.2-0.5c-0.3-0.1-0.5-0.2-0.8-0.4
			c-0.3-0.1-0.5-0.2-0.8-0.4l-0.1,0l0,0l-1-0.7l0,0.1c-0.1-0.1-0.2-0.1-0.2-0.2c-0.5-0.5-0.9-0.8-1.3-0.5c-0.1,0-0.1,0.1-0.1,0.1
			c0-0.1,0-0.2,0-0.2c-0.1-0.6-0.1-1.3-0.1-2l0,0h0c0,0,0,0,0,0l0,0c1-23.1,7.1-39.5,7.1-39.7c1.2-3.1,2.5-6.1,4.1-8.9
			c1.5-2.6,3.1-5,4.9-7.2c1.6-2,3.4-3.8,5.3-5.4c1.8-1.6,3.7-3,5.7-4.1c1.9-1.1,3.9-2,5.9-2.7c2.1-0.7,4.3-1.3,6.6-1.6
			c2.5-0.3,4.1-0.4,6.5-0.2c2.1,0.2,4.2,0.5,6.2,1.1c2,0.6,3.9,1.3,5.9,2.3c2.2,1.1,4.4,2.6,6.5,4.3c2.1,1.7,4.1,3.6,5.9,5.7
			c1.9,2.2,3.7,4.7,5.2,7.4c1.6,2.8,3,5.8,4.2,9.1c1.3,3.4,2.3,7,3.2,10.9c0.8,3.8,1.5,7.9,2,12.6l0.2,1.6c0.5,4.4,1.1,9.4,1.4,13.6
			l0.3,1.2C113,313.5,113,313.7,113,313.9z M115.1,332.8L115.1,332.8L115.1,332.8L115.1,332.8z M120.1,328.8
			c-0.7,0.1-1.4,0.3-2.1,0.6c-0.6,0.2-1.2,0.5-1.7,0.9c-0.3,0.2-0.6,0.5-0.9,0.7c-0.1-0.9-0.2-1.8-0.3-2.6c-0.1-1.6-0.3-3.1-0.4-4.7
			c-0.1-1.6-0.2-3.2-0.3-4.8l-0.6,0l0.6,0l-0.2-4.4c0-0.3,0-0.7-0.1-1c0,0,0,0,0,0h0c0,0,0,0,0-0.1l-0.6,0l0.6-0.2l-0.3-1.1
			c-0.3-4.2-0.9-9.2-1.4-13.6l-0.2-1.5c-0.6-4.8-1.2-8.9-2.1-12.7c-0.9-4-1.9-7.7-3.2-11.1c-1.2-3.3-2.7-6.5-4.3-9.3
			c-1.6-2.7-3.3-5.3-5.3-7.5c-1.8-2.1-3.9-4.1-6.1-5.9c-2.2-1.7-4.4-3.2-6.7-4.4c-2-1-4-1.8-6.1-2.4c-2.1-0.6-4.2-1-6.4-1.2
			c-2.6-0.2-4.2-0.1-6.8,0.2c-2.3,0.3-4.6,0.8-6.8,1.6c-2.1,0.7-4.2,1.7-6.1,2.8c-2.1,1.2-4.1,2.6-5.9,4.2c-1.9,1.7-3.7,3.5-5.4,5.6
			c-1.8,2.2-3.5,4.7-5,7.3c-1.6,2.8-3,5.9-4.2,9c-0.1,0.2-6.2,16.8-7.2,40.1l0,0l0,0l0,0c0,0,0,0,0,0l-0.2,3.3
			c0,0.6-0.1,1.1-0.1,1.7l0.1,0l-0.1,0c-0.1,1.7-0.2,3.3-0.3,5c-0.1,1.6-0.2,3.2-0.4,4.8c-0.1,1-0.2,1.9-0.3,2.8
			c-0.2-0.2-0.5-0.5-0.8-0.7c-0.5-0.3-1.1-0.6-1.8-0.9c-0.6-0.2-1.3-0.4-2.1-0.6c-0.5-0.1-1.1-0.2-1.6-0.2c0.1-1.1,0.3-2.2,0.4-3.4
			c0.1-1.3,0.3-2.7,0.4-4l0.5-5.6c0.2-1.9,0.3-3.7,0.5-5.6c0.2-2.1,0.5-4.1,0.7-6.1c0.3-2,0.6-4.1,0.9-6.1c0.3-1.8,0.6-3.5,1-5.1
			c0.4-1.7,0.8-3.5,1.2-5.1c0.3-1.4,0.7-2.7,1.1-4c0.4-1.2,0.8-2.5,1.2-4c0.4-1.3,0.9-2.5,1.3-3.7c0.5-1.3,1-2.5,1.5-3.7
			c0.6-1.5,1.2-2.8,1.8-3.9c0.6-1.2,1.3-2.5,2.1-3.8c0.9-1.4,1.7-2.7,2.4-3.8c0.9-1.2,1.8-2.4,2.8-3.6c0.9-1.1,1.9-2.2,2.9-3.1
			c1-1,2.1-2,3.1-2.8c1.1-0.9,2.3-1.8,3.5-2.6c1.3-0.8,2.5-1.6,3.8-2.2c1.3-0.7,2.7-1.3,4.1-1.9c1.5-0.6,2.9-1,4.3-1.4
			c1.2-0.3,2.5-0.6,4-0.8c1.4-0.2,2.8-0.4,4.1-0.5c1.4-0.1,2.7-0.1,4.1-0.1c1.4,0,2.7,0.2,4.1,0.4c1.3,0.2,2.6,0.4,3.9,0.7
			c1.3,0.3,2.6,0.7,3.9,1.1c1.3,0.4,2.6,1,3.8,1.6c1.2,0.6,2.4,1.2,3.7,1.9c1.2,0.7,2.3,1.5,3.5,2.3c1.1,0.8,2.2,1.7,3.2,2.6
			c1.1,0.9,2.1,1.9,3,2.9c0.9,0.9,1.8,2,2.7,3.1c1,1.3,1.9,2.5,2.7,3.8c0.8,1.2,1.5,2.4,2.4,4c0.7,1.3,1.5,2.7,2.1,4.1
			c0.6,1.2,1.2,2.6,1.8,4.2c0.5,1.4,1,2.6,1.5,3.9c0.5,1.3,0.9,2.7,1.3,4c0.4,1.4,0.8,2.7,1.1,3.9c0.3,1.3,0.7,2.6,1,4
			c0.4,1.5,0.7,3.1,1,4.8c0.3,1.5,0.6,3.1,0.9,4.9c0.3,1.9,0.6,3.7,0.8,5.6c0.2,1.7,0.4,3.6,0.6,5.6c0.2,1.7,0.3,3.5,0.5,5.2
			l0.5,5.1c0.1,1.3,0.2,2.7,0.4,4c0.1,1.1,0.3,2.2,0.4,3.3C121.2,328.6,120.7,328.7,120.1,328.8z M122.4,329.1L122.4,329.1
			L122.4,329.1L122.4,329.1z M0.1,81.3l0.4,0L0.1,81.3L0.1,81.3z M0,81.3L0,81.3l-0.5,0L0,81.3z M256.7,31.6h30.7V35
			c0,2.1-1.2,3.8-2.6,3.8h-25.5c-1.4,0-2.6-1.8-2.6-3.8V31.6z M373.7,117.4c-0.6,0.7-1.6,1-2.9,1c0,0,0,0,0,0
			c-4.9,0-192.9,0-194.8,0c0,0-0.9,0.1-1.7-0.6c-0.7-0.6-1-1.6-1.1-3V80.9h0.6v-1.2h-0.6v-42c0-0.2,0.1-4.5,5.6-4.5l0,0
			c24.1-1.4,50.4-2,76.6-2.1v4c0,2.8,1.7,5.1,3.9,5.1h25.5c2.1,0,3.9-2.3,3.9-5.1v-3.9c30,0.3,58.4,1.2,81.7,2.3
			c1.9,0.1,3.8,1.5,3.8,4.3v77.5l0,0.1C374.2,115.3,374.4,116.5,373.7,117.4z M414.9,76.3L414.9,76.3L414.9,76.3L414.9,76.3z"/>
		<path class="st0" d="M177.6,217.9c0-5-4.4-9.1-9.7-9.1h-13.1c-5.4,0-9.7,4.1-9.7,9.1v1.8c0,5,4.4,9.1,9.7,9.1h13.1
			c5.4,0,9.7-4.1,9.7-9.1V217.9z M176.4,219.7c0,4.4-3.8,7.9-8.5,7.9h-13.1c-4.7,0-8.5-3.5-8.5-7.9v-1.8c0-4.4,3.8-7.9,8.5-7.9h13.1
			c4.7,0,8.5,3.5,8.5,7.9V219.7z"/>
		<path class="st0" d="M151.1,189.3h7.8c3.3,0,6-2.4,6-5.3v-1c0-2.9-2.7-5.3-6-5.3h-7.8c-3.3,0-6,2.4-6,5.3v1
			C145.1,187,147.8,189.3,151.1,189.3z M146.3,183.1c0-2.2,2.2-4,4.8-4h7.8c2.6,0,4.8,1.8,4.8,4v1c0,2.2-2.1,4-4.8,4h-7.8
			c-2.6,0-4.8-1.8-4.8-4V183.1z"/>
		<path class="st0" d="M190.3,184.1v-1c0-2.9-2.7-5.3-6-5.3h-7.8c-3.3,0-6,2.4-6,5.3v1c0,2.9,2.7,5.3,6,5.3h7.8
			C187.6,189.3,190.3,187,190.3,184.1z M171.7,184.1v-1c0-2.2,2.2-4,4.8-4h7.8c2.6,0,4.8,1.8,4.8,4v1c0,2.2-2.1,4-4.8,4h-7.8
			C173.9,188.1,171.7,186.3,171.7,184.1z"/>
		<path class="st0" d="M215.8,183.1c0-2.9-2.7-5.3-6-5.3H202c-3.3,0-6,2.4-6,5.3v1c0,2.9,2.7,5.3,6,5.3h7.8c3.3,0,6-2.4,6-5.3V183.1
			z M214.6,184.1c0,2.2-2.1,4-4.8,4H202c-2.6,0-4.8-1.8-4.8-4v-1c0-2.2,2.2-4,4.8-4h7.8c2.6,0,4.8,1.8,4.8,4V184.1z"/>
		<path class="st0" d="M344.5,169c3.3,0,6-2.4,6-5.3v-1c0-2.9-2.7-5.3-6-5.3h-7.8c-3.3,0-6,2.4-6,5.3v1c0,2.9,2.7,5.3,6,5.3H344.5z
			 M332,163.7v-1c0-2.2,2.1-4,4.8-4h7.8c2.6,0,4.8,1.8,4.8,4v1c0,2.2-2.1,4-4.8,4h-7.8C334.1,167.8,332,166,332,163.7z"/>
		<path class="st0" d="M377.9,163.7v-1c0-2.9-2.7-5.3-6-5.3h-7.8c-3.3,0-6,2.4-6,5.3v1c0,2.9,2.7,5.3,6,5.3h7.8
			C375.2,169,377.9,166.6,377.9,163.7z M371.9,167.8h-7.8c-2.6,0-4.8-1.8-4.8-4v-1c0-2.2,2.1-4,4.8-4h7.8c2.6,0,4.8,1.8,4.8,4v1
			C376.7,166,374.6,167.8,371.9,167.8z"/>
		<path class="st0" d="M287.8,234.4c0-2.9-2.7-5.3-6-5.3H274c-3.3,0-6,2.4-6,5.3v1c0,2.9,2.7,5.3,6,5.3h7.8c3.3,0,6-2.4,6-5.3V234.4
			z M286.5,235.3c0,2.2-2.1,4-4.8,4H274c-2.6,0-4.8-1.8-4.8-4v-1c0-2.2,2.1-4,4.8-4h7.8c2.6,0,4.8,1.8,4.8,4V235.3z"/>
		<path class="st0" d="M287.8,214.1c0-2.9-2.7-5.3-6-5.3H274c-3.3,0-6,2.4-6,5.3v1c0,2.9,2.7,5.3,6,5.3h7.8c3.3,0,6-2.4,6-5.3V214.1
			z M286.5,215.1c0,2.2-2.1,4-4.8,4H274c-2.6,0-4.8-1.8-4.8-4v-1c0-2.2,2.1-4,4.8-4h7.8c2.6,0,4.8,1.8,4.8,4V215.1z"/>
		<path class="st0" d="M233,131.1h-7.8c-3.3,0-6,2.4-6,5.3v1c0,2.9,2.7,5.3,6,5.3h7.8c3.3,0,6-2.4,6-5.3v-1
			C239.1,133.5,236.4,131.1,233,131.1z M237.8,137.4c0,2.2-2.1,4-4.8,4h-7.8c-2.6,0-4.8-1.8-4.8-4v-1c0-2.2,2.1-4,4.8-4h7.8
			c2.6,0,4.8,1.8,4.8,4V137.4z"/>
		<path class="st0" d="M254.9,142.6h7.8c3.3,0,6-2.4,6-5.3v-1c0-2.9-2.7-5.3-6-5.3h-7.8c-3.3,0-6,2.4-6,5.3v1
			C248.9,140.3,251.6,142.6,254.9,142.6z M250.1,136.4c0-2.2,2.1-4,4.8-4h7.8c2.6,0,4.8,1.8,4.8,4v1c0,2.2-2.1,4-4.8,4h-7.8
			c-2.6,0-4.8-1.8-4.8-4V136.4z"/>
		<path class="st0" d="M298.4,137.4v-1c0-2.9-2.7-5.3-6-5.3h-7.8c-3.3,0-6,2.4-6,5.3v1c0,2.9,2.7,5.3,6,5.3h7.8
			C295.7,142.6,298.4,140.3,298.4,137.4z M292.4,141.4h-7.8c-2.6,0-4.8-1.8-4.8-4v-1c0-2.2,2.1-4,4.8-4h7.8c2.6,0,4.8,1.8,4.8,4v1
			C297.2,139.6,295,141.4,292.4,141.4z"/>
		<path class="st0" d="M328,137.4v-1c0-2.9-2.7-5.3-6-5.3h-7.8c-3.3,0-6,2.4-6,5.3v1c0,2.9,2.7,5.3,6,5.3h7.8
			C325.3,142.6,328,140.3,328,137.4z M309.4,137.4v-1c0-2.2,2.1-4,4.8-4h7.8c2.6,0,4.8,1.8,4.8,4v1c0,2.2-2.1,4-4.8,4h-7.8
			C311.6,141.4,309.4,139.6,309.4,137.4z"/>
		<path class="st0" d="M287.8,254.8c0-2.9-2.7-5.3-6-5.3H274c-3.3,0-6,2.4-6,5.3v1c0,2.9,2.7,5.3,6,5.3h7.8c3.3,0,6-2.4,6-5.3V254.8
			z M286.5,255.7c0,2.2-2.1,4-4.8,4H274c-2.6,0-4.8-1.8-4.8-4v-1c0-2.2,2.1-4,4.8-4h7.8c2.6,0,4.8,1.8,4.8,4V255.7z"/>
		<path class="st0" d="M287.8,285.2c0-2.9-2.7-5.3-6-5.3H274c-3.3,0-6,2.4-6,5.3v1c0,2.9,2.7,5.3,6,5.3h7.8c3.3,0,6-2.4,6-5.3V285.2
			z M286.5,286.2c0,2.2-2.1,4-4.8,4H274c-2.6,0-4.8-1.8-4.8-4v-1c0-2.2,2.1-4,4.8-4h7.8c2.6,0,4.8,1.8,4.8,4V286.2z"/>
		<path class="st0" d="M281.8,300.3H274c-3.3,0-6,2.4-6,5.3v1c0,2.9,2.7,5.3,6,5.3h7.8c3.3,0,6-2.4,6-5.3v-1
			C287.8,302.6,285.1,300.3,281.8,300.3z M286.5,306.5c0,2.2-2.1,4-4.8,4H274c-2.6,0-4.8-1.8-4.8-4v-1c0-2.2,2.1-4,4.8-4h7.8
			c2.6,0,4.8,1.8,4.8,4V306.5z"/>
		<path class="st0" d="M215.3,217.9c0-5-4.4-9.1-9.7-9.1h-13.1c-5.4,0-9.7,4.1-9.7,9.1v1.8c0,5,4.4,9.1,9.7,9.1h13.1
			c5.4,0,9.7-4.1,9.7-9.1V217.9z M214.1,219.7c0,4.4-3.8,7.9-8.5,7.9h-13.1c-4.7,0-8.5-3.5-8.5-7.9v-1.8c0-4.4,3.8-7.9,8.5-7.9h13.1
			c4.7,0,8.5,3.5,8.5,7.9V219.7z"/>
		<path class="st0" d="M253.1,217.9c0-5-4.4-9.1-9.7-9.1h-13.1c-5.4,0-9.7,4.1-9.7,9.1v1.8c0,5,4.4,9.1,9.7,9.1h13.1
			c5.4,0,9.7-4.1,9.7-9.1V217.9z M251.9,219.7c0,4.4-3.8,7.9-8.5,7.9h-13.1c-4.7,0-8.5-3.5-8.5-7.9v-1.8c0-4.4,3.8-7.9,8.5-7.9h13.1
			c4.7,0,8.5,3.5,8.5,7.9V219.7z"/>
		<path class="st0" d="M177.6,246.1c0-5-4.4-9.1-9.7-9.1h-13.1c-5.4,0-9.7,4.1-9.7,9.1v1.8c0,5,4.4,9.1,9.7,9.1h13.1
			c5.4,0,9.7-4.1,9.7-9.1V246.1z M176.4,247.8c0,4.4-3.8,7.9-8.5,7.9h-13.1c-4.7,0-8.5-3.5-8.5-7.9v-1.8c0-4.4,3.8-7.9,8.5-7.9h13.1
			c4.7,0,8.5,3.5,8.5,7.9V247.8z"/>
		<path class="st0" d="M215.3,246.1c0-5-4.4-9.1-9.7-9.1h-13.1c-5.4,0-9.7,4.1-9.7,9.1v1.8c0,5,4.4,9.1,9.7,9.1h13.1
			c5.4,0,9.7-4.1,9.7-9.1V246.1z M214.1,247.8c0,4.4-3.8,7.9-8.5,7.9h-13.1c-4.7,0-8.5-3.5-8.5-7.9v-1.8c0-4.4,3.8-7.9,8.5-7.9h13.1
			c4.7,0,8.5,3.5,8.5,7.9V247.8z"/>
		<path class="st0" d="M253.1,246.1c0-5-4.4-9.1-9.7-9.1h-13.1c-5.4,0-9.7,4.1-9.7,9.1v1.8c0,5,4.4,9.1,9.7,9.1h13.1
			c5.4,0,9.7-4.1,9.7-9.1V246.1z M251.9,247.8c0,4.4-3.8,7.9-8.5,7.9h-13.1c-4.7,0-8.5-3.5-8.5-7.9v-1.8c0-4.4,3.8-7.9,8.5-7.9h13.1
			c4.7,0,8.5,3.5,8.5,7.9V247.8z"/>
		<path class="st0" d="M177.6,274.2c0-5-4.4-9.1-9.7-9.1h-13.1c-5.4,0-9.7,4.1-9.7,9.1v1.8c0,5,4.4,9.1,9.7,9.1h13.1
			c5.4,0,9.7-4.1,9.7-9.1V274.2z M176.4,275.9c0,4.4-3.8,7.9-8.5,7.9h-13.1c-4.7,0-8.5-3.5-8.5-7.9v-1.8c0-4.4,3.8-7.9,8.5-7.9h13.1
			c4.7,0,8.5,3.5,8.5,7.9V275.9z"/>
		<path class="st0" d="M215.3,274.2c0-5-4.4-9.1-9.7-9.1h-13.1c-5.4,0-9.7,4.1-9.7,9.1v1.8c0,5,4.4,9.1,9.7,9.1h13.1
			c5.4,0,9.7-4.1,9.7-9.1V274.2z M214.1,275.9c0,4.4-3.8,7.9-8.5,7.9h-13.1c-4.7,0-8.5-3.5-8.5-7.9v-1.8c0-4.4,3.8-7.9,8.5-7.9h13.1
			c4.7,0,8.5,3.5,8.5,7.9V275.9z"/>
		<path class="st0" d="M253.1,274.2c0-5-4.4-9.1-9.7-9.1h-13.1c-5.4,0-9.7,4.1-9.7,9.1v1.8c0,5,4.4,9.1,9.7,9.1h13.1
			c5.4,0,9.7-4.1,9.7-9.1V274.2z M251.9,275.9c0,4.4-3.8,7.9-8.5,7.9h-13.1c-4.7,0-8.5-3.5-8.5-7.9v-1.8c0-4.4,3.8-7.9,8.5-7.9h13.1
			c4.7,0,8.5,3.5,8.5,7.9V275.9z"/>
		<path class="st0" d="M154.8,313.2h13.1c5.4,0,9.7-4.1,9.7-9.1v-1.8c0-5-4.4-9.1-9.7-9.1h-13.1c-5.4,0-9.7,4.1-9.7,9.1v1.8
			C145.1,309.1,149.5,313.2,154.8,313.2z M146.3,302.3c0-4.4,3.8-7.9,8.5-7.9h13.1c4.7,0,8.5,3.5,8.5,7.9v1.8c0,4.4-3.8,7.9-8.5,7.9
			h-13.1c-4.7,0-8.5-3.5-8.5-7.9V302.3z"/>
		<path class="st0" d="M192.5,313.2h13.1c5.4,0,9.7-4.1,9.7-9.1v-1.8c0-5-4.4-9.1-9.7-9.1h-13.1c-5.4,0-9.7,4.1-9.7,9.1v1.8
			C182.8,309.1,187.1,313.2,192.5,313.2z M184,302.3c0-4.4,3.8-7.9,8.5-7.9h13.1c4.7,0,8.5,3.5,8.5,7.9v1.8c0,4.4-3.8,7.9-8.5,7.9
			h-13.1c-4.7,0-8.5-3.5-8.5-7.9V302.3z"/>
		<path class="st0" d="M230.3,313.2h13.1c5.4,0,9.7-4.1,9.7-9.1v-1.8c0-5-4.4-9.1-9.7-9.1h-13.1c-5.4,0-9.7,4.1-9.7,9.1v1.8
			C220.6,309.1,224.9,313.2,230.3,313.2z M221.8,302.3c0-4.4,3.8-7.9,8.5-7.9h13.1c4.7,0,8.5,3.5,8.5,7.9v1.8c0,4.4-3.8,7.9-8.5,7.9
			h-13.1c-4.7,0-8.5-3.5-8.5-7.9V302.3z"/>
		<path class="st0" d="M150.8,168.9h33.9c3.1,0,5.7-2.6,5.7-5.7s-2.6-5.7-5.7-5.7h-33.9c-3.1,0-5.7,2.6-5.7,5.7
			S147.7,168.9,150.8,168.9z M150.8,158.7h33.9c2.5,0,4.5,2,4.5,4.5s-2,4.5-4.5,4.5h-33.9c-2.5,0-4.5-2-4.5-4.5
			S148.3,158.7,150.8,158.7z"/>
		<path class="st0" d="M390.1,166.9h6.6c2,0,3.7-1.6,3.7-3.6s-1.7-3.6-3.7-3.6h-6.6c-2,0-3.7,1.6-3.7,3.6S388.1,166.9,390.1,166.9z
			 M390.1,160.9h6.6c1.4,0,2.5,1.1,2.5,2.4c0,1.3-1.1,2.4-2.5,2.4h-6.6c-1.4,0-2.5-1.1-2.5-2.4C387.6,161.9,388.7,160.9,390.1,160.9
			z"/>
		<path class="st0" d="M296.5,173.4c0-12.6-10.3-22.9-22.9-22.9s-22.9,10.3-22.9,22.9s10.3,22.9,22.9,22.9S296.5,186,296.5,173.4z
			 M273.6,195c-11.9,0-21.6-9.7-21.6-21.6s9.7-21.6,21.6-21.6s21.6,9.7,21.6,21.6S285.6,195,273.6,195z"/>
		<path class="st0" d="M306.2,220.3h12.9v-11.5h-12.9c-3.3,0-6,2.4-6,5.3v1C300.2,217.9,302.9,220.3,306.2,220.3z M317.9,219.1h-3.4
			V210h3.4V219.1z M301.4,214.1c0-2.2,2.1-4,4.8-4h7v9.1h-7c-2.6,0-4.8-1.8-4.8-4V214.1z"/>
		<path class="st0" d="M319.1,227.1h-12.9c-3.3,0-6,2.4-6,5.3v1c0,2.9,2.7,5.3,6,5.3h12.9V227.1z M301.4,233.3v-1c0-2.2,2.1-4,4.8-4
			h7v9.1h-7C303.6,237.4,301.4,235.6,301.4,233.3z M317.9,237.4h-3.4v-9.1h3.4V237.4z"/>
		<path class="st0" d="M319.1,245.4h-12.9c-3.3,0-6,2.4-6,5.3v1c0,2.9,2.7,5.3,6,5.3h12.9V245.4z M301.4,251.6v-1c0-2.2,2.1-4,4.8-4
			h7v9.1h-7C303.6,255.7,301.4,253.9,301.4,251.6z M317.9,255.7h-3.4v-9.1h3.4V255.7z"/>
		<path class="st0" d="M319.1,263.7h-12.9c-3.3,0-6,2.4-6,5.3v1c0,2.9,2.7,5.3,6,5.3h12.9V263.7z M301.4,269.9v-1c0-2.2,2.1-4,4.8-4
			h7v9.1h-7C303.6,274,301.4,272.1,301.4,269.9z M317.9,274h-3.4v-9.1h3.4V274z"/>
		<path class="st0" d="M319.1,282h-12.9c-3.3,0-6,2.4-6,5.3v1c0,2.9,2.7,5.3,6,5.3h12.9V282z M301.4,288.2v-1c0-2.2,2.1-4,4.8-4h7
			v9.1h-7C303.6,292.3,301.4,290.5,301.4,288.2z M317.9,292.3h-3.4v-9.1h3.4V292.3z"/>
		<path class="st0" d="M306.2,311.8h12.9v-11.5h-12.9c-3.3,0-6,2.4-6,5.3v1C300.2,309.4,302.9,311.8,306.2,311.8z M317.9,310.6h-3.4
			v-9h3.4V310.6z M301.4,305.6c0-2.2,2.1-4,4.8-4h7v9h-7c-2.6,0-4.8-1.8-4.8-4V305.6z"/>
		<path class="st0" d="M310.1,163.5L310.1,163.5l-8.7,0v0c-0.7,0-1.4,0.3-1.8,0.9c-0.4,0.6-0.6,1.3-0.4,2l0,0
			c1.3,4.8,1.3,9.3,0,14.1l0,0c-0.2,0.7,0,1.4,0.4,2c0.4,0.6,1.1,0.9,1.8,0.9v0h8.7v0c5.5,0,9.9-4.5,9.9-10
			C320,167.9,315.6,163.5,310.1,163.5z M310.1,182.1L310.1,182.1l-8.7,0v0c-0.3,0-0.7-0.2-0.9-0.4c-0.2-0.3-0.3-0.6-0.2-1l0,0
			c1.4-5,1.4-9.7,0-14.7l0,0c-0.1-0.3,0-0.7,0.2-1c0.2-0.3,0.5-0.4,0.9-0.4v0h8.7v0c4.8,0,8.7,3.9,8.7,8.7S314.9,182.1,310.1,182.1z
			"/>
		<path class="st0" d="M237.2,163.4L237.2,163.4c-5.5,0-10,4.5-10,10s4.5,10,10,10v0h8.7v0c0.7,0,1.4-0.3,1.8-0.9
			c0.4-0.6,0.6-1.3,0.4-2l0,0c-1.3-4.8-1.3-9.2,0-14l-1.2-0.3c-1.4,5.1-1.4,9.6,0,14.7l0.6-0.2l-0.6,0.2c0.1,0.3,0,0.7-0.2,1
			c-0.2,0.3-0.5,0.4-0.9,0.4v0h-8.7v0c-4.8,0-8.7-3.9-8.7-8.7s3.9-8.7,8.7-8.7v0h8.7v0c0.3,0,0.7,0.2,0.9,0.4c0.2,0.3,0.3,0.6,0.2,1
			l1.2,0.3c0.2-0.7,0.1-1.4-0.4-2c-0.4-0.6-1.1-0.9-1.8-0.9v0H237.2z"/>
		<path class="st0" d="M186.7,105.6h175.4V45.4H186.7V105.6z M187.9,46.6h173v57.8h-173V46.6z"/>
		<rect x="322.4" y="214.2" class="st0" width="10.8" height="0.7"/>
		<rect x="322.4" y="232.5" class="st0" width="10.8" height="0.7"/>
		<rect x="322.4" y="250.8" class="st0" width="10.8" height="0.7"/>
		<rect x="322.4" y="269.1" class="st0" width="10.8" height="0.7"/>
		<rect x="322.4" y="287.4" class="st0" width="10.8" height="0.7"/>
		<rect x="322.4" y="305.6" class="st0" width="10.8" height="0.7"/>
		<path class="st0" d="M408.8,202c0-2.9-2.7-5.3-6-5.3h-12.9v11.5h12.9c3.3,0,6-2.4,6-5.3V202z M391.2,197.9h3.4v9.1h-3.4V197.9z
			 M407.6,203c0,2.2-2.1,4-4.8,4h-7v-9.1h7c2.6,0,4.8,1.8,4.8,4V203z"/>
		<path class="st0" d="M408.8,220.3c0-2.9-2.7-5.3-6-5.3h-12.9v11.5h12.9c3.3,0,6-2.4,6-5.3V220.3z M391.2,216.3h3.4v9h-3.4V216.3z
			 M407.6,221.3c0,2.2-2.1,4-4.8,4h-7v-9h7c2.6,0,4.8,1.8,4.8,4V221.3z"/>
		<path class="st0" d="M408.8,238.6c0-2.9-2.7-5.3-6-5.3h-12.9v11.5h12.9c3.3,0,6-2.4,6-5.3V238.6z M391.2,234.6h3.4v9.1h-3.4V234.6
			z M407.6,239.6c0,2.2-2.1,4-4.8,4h-7v-9.1h7c2.6,0,4.8,1.8,4.8,4V239.6z"/>
		<path class="st0" d="M408.8,256.9c0-2.9-2.7-5.3-6-5.3h-12.9v11.5h12.9c3.3,0,6-2.4,6-5.3V256.9z M391.2,252.8h3.4v9.1h-3.4V252.8
			z M407.6,257.9c0,2.2-2.1,4-4.8,4h-7v-9.1h7c2.6,0,4.8,1.8,4.8,4V257.9z"/>
		<path class="st0" d="M408.8,275.2c0-2.9-2.7-5.3-6-5.3h-12.9v11.5h12.9c3.3,0,6-2.4,6-5.3V275.2z M391.2,271.2h3.4v9.1h-3.4V271.2
			z M407.6,276.2c0,2.2-2.1,4-4.8,4h-7v-9.1h7c2.6,0,4.8,1.8,4.8,4V276.2z"/>
		<path class="st0" d="M408.8,294.5v-1c0-2.9-2.7-5.3-6-5.3h-12.9v11.5h12.9C406.1,299.7,408.8,297.4,408.8,294.5z M407.6,293.5v1
			c0,2.2-2.1,4-4.8,4h-7v-9.1h7C405.5,289.5,407.6,291.3,407.6,293.5z M391.2,289.5h3.4v9.1h-3.4V289.5z"/>
		<rect x="375.9" y="202.1" class="st0" width="10.8" height="0.7"/>
		<rect x="375.9" y="220.4" class="st0" width="10.8" height="0.7"/>
		<rect x="375.9" y="238.7" class="st0" width="10.8" height="0.7"/>
		<rect x="375.9" y="257.1" class="st0" width="10.8" height="0.7"/>
		<rect x="375.9" y="275.4" class="st0" width="10.8" height="0.7"/>
		<rect x="375.9" y="293.6" class="st0" width="10.8" height="0.7"/>
	</g>
</g>
<g id="Ebene_3">
	<g>
		<circle id="bgnumber_11_" class="st1" cx="336" cy="306.3" r="7.1"/>
		<text transform="matrix(1 0 0 1 331.4702 309.8477)" class="st2 st3 st4 button" data-number="11">12</text>
	</g>
	<g>
		<circle id="bgnumber_10_" class="st1" cx="372.6" cy="293.4" r="7.1"/>
		<text transform="matrix(1 0 0 1 368.7452 296.888)" class="st2 st3 st4 button" data-number="10">11</text>
	</g>
	<g>
		<circle id="bgnumber_9_" class="st1" cx="336" cy="288" r="7.1"/>
		<text transform="matrix(1 0 0 1 331.0336 291.5192)" class="st2 st3 st4 button" data-number="9">10</text>
	</g>
	<g>
		<circle id="bgnumber_8_" class="st1" cx="372.6" cy="275.2" r="7.1"/>
		<text transform="matrix(1 0 0 1 366.7692 278.6986)" class="st2 st3 st4 button" data-number="8">09</text>
	</g>
	<g>
		<circle id="bgnumber_7_" class="st1" cx="336" cy="269.7" r="7.1"/>
		<text transform="matrix(1 0 0 1 330.1087 273.2526)" class="st2 st3 st4 button" data-number="7">08</text>
	</g>
	<g>
		<circle id="bgnumber_6_" class="st1" cx="372.6" cy="257" r="7.1"/>
		<text transform="matrix(1 0 0 1 367.2287 260.5709)" class="st2 st3 st4 button" data-number="6">07</text>
	</g>
	<g>
		<circle id="bgnumber_5_" class="st1" cx="336" cy="251.4" r="7.1"/>
		<text transform="matrix(1 0 0 1 330.1488 254.8069)" class="st2 st3 st4 button" data-number="5">06</text>
	</g>
	<g>
		<circle id="bgnumber_4_" class="st1" cx="372.6" cy="238.8" r="7.1"/>
		<text transform="matrix(1 0 0 1 366.9493 242.2644)" class="st2 st3 st4 button" data-number="4">05</text>
	</g>
	<g>
		<circle id="bgnumber_3_" class="st1" cx="336" cy="233" r="7.1"/>
		<text transform="matrix(1 0 0 1 330.0988 236.5403)" class="st2 st3 st4 button" data-number="3">04</text>
	</g>
	<g>
		<circle id="bgnumber_2_" class="st1" cx="372.6" cy="220.7" r="7.1"/>
		<text transform="matrix(1 0 0 1 366.8543 224.1368)" class="st2 st3 st4 button" data-number="2">03</text>
	</g>
	<g>
		<circle id="bgnumber_1_" class="st1" cx="336" cy="214.7" r="7.1"/>
		<text transform="matrix(1 0 0 1 330.3789 218.1734)" class="st2 st3 st4 button" data-number="1">02</text>
	</g>
	<g>
		<circle id="bgnumber" class="st1" cx="372.6" cy="202.5" r="7.1"/>
		<text transform="matrix(1 0 0 1 367.6541 205.909)" class="st2 st3 st4 button" data-number="0">01</text>
	</g>
</g>
</svg>
