<?xml version="1.0" encoding="utf-8"?>
<!-- Generator: Adobe Illustrator 21.0.1, SVG Export Plug-In . SVG Version: 6.00 Build 0)  -->
<!DOCTYPE svg PUBLIC "-//W3C//DTD SVG 1.1//EN" "http://www.w3.org/Graphics/SVG/1.1/DTD/svg11.dtd">
<svg version="1.1" xmlns="http://www.w3.org/2000/svg" xmlns:xlink="http://www.w3.org/1999/xlink" x="0px" y="0px"
	 viewBox="0 0 420 351.3" style="enable-background:new 0 0 420 351.3;" xml:space="preserve">
<style type="text/css">
	.button{cursor: pointer}
	.st0{fill:#B3B2B2;}
	.st1{fill:#FFFFFF;}
	.st2{fill:#29AEE4;}
	.st3{font-family:'BrixSansRegular';}
	.st4{font-size:10px;}
</style>
<g id="Ebene_2">
	<g>
		<path class="st0" d="M419.4,88.3l0.6,0c0-0.3,0-0.6-0.1-0.9l-0.5,0.1l0.5-0.1c-0.1-0.3-0.1-0.6-0.2-0.8l0,0
			c-0.6-1.7-1.9-3-3.6-3.6l-0.2,0.6l0.2-0.6c-0.3-0.1-0.6-0.2-0.9-0.2L415,84c0.2,0,0.5,0.1,0.7,0.2l0,0c1.3,0.4,2.4,1.5,2.8,2.8
			l0.4-0.1l-0.4,0.1c0.1,0.2,0.1,0.4,0.2,0.7l0,0c0,0.2,0.1,0.5,0.1,0.7l0.5,0L419.4,88.3l-0.6,0.1L419.4,88.3L419.4,88.3l-0.6,0.1
			v252.4h1.2V88.4h-0.5l0,0l0.5,0v-0.1L419.4,88.3L419.4,88.3z M419.3,88.3L419.3,88.3l0.1,0L419.3,88.3L419.3,88.3z M419.5,88.4
			L419.5,88.4L419.5,88.4L419.5,88.4L419.5,88.4z"/>
		<path class="st0" d="M388.2,83.9c0.1,0,0.1,0,0.2,0v0h26c0.2,0,0.5,0,0.7,0.1l0.2-1.2c-0.3,0-0.6-0.1-0.9-0.1v0h-26v1l0-1
			c-0.7,0-1.4,0-2.1-0.1l-0.1,1.2C386.8,83.9,387.5,83.9,388.2,83.9z"/>
		<path class="st0" d="M414.6,345.4l0,0.8L414.6,345.4L414.6,345.4L414.6,345.4c-23.8,1-47.8,1.7-71.4,2.1v0
			c-7.9,0.2-15.8,0.3-23.8,0.4v0c-10.3,0.1-20.8,0.2-31.3,0.2l0,1.2c10.5,0,21-0.1,31.3-0.2v0c7.9-0.1,15.8-0.2,23.8-0.4v0
			c23.7-0.5,47.7-1.2,71.4-2.1l0-0.7l0,0.7l0.1,0l0,0c0.5,0,1-0.1,1.4-0.3l-0.4-1.2C415.3,345.3,415,345.4,414.6,345.4z"/>
		<path class="st0" d="M418.2,343.2c-0.2,0.4-0.5,0.7-0.8,1c-0.5,0.5-1,0.8-1.7,1l0.4,1.2c0.8-0.3,1.5-0.7,2.1-1.3l0,0
			c0.4-0.4,0.8-0.8,1-1.3l-0.7-0.4l0.7,0.4c0.1-0.2,0.3-0.5,0.4-0.8l-1.1-0.4C418.4,342.8,418.3,343,418.2,343.2L418.2,343.2z"/>
		<path class="st0" d="M418.8,341l0,0.3l0.6,0l-0.6,0c0,0.4-0.1,0.9-0.3,1.3l1.1,0.4c0.2-0.5,0.3-1.1,0.4-1.6l-0.6,0l0.6,0l0-0.3
			l-0.8,0l0.8,0v-0.2h-1.2V341z"/>
		<path class="st0" d="M14.8,79.9L14.8,79.9l0-57.7h0c0-0.5,0.1-1,0.2-1.5c0.2-0.5,0.4-0.9,0.7-1.4c0.1-0.2,0.3-0.4,0.5-0.6
			c0.1-0.1,0.2-0.2,0.3-0.3c0.1-0.1,0.3-0.2,0.4-0.3l0.3-0.2c0.1-0.1,0.2-0.1,0.3-0.2c0.2-0.1,0.5-0.2,0.7-0.3l-0.4-1.2
			c-0.3,0.1-0.6,0.2-0.9,0.3c-0.1,0.1-0.3,0.1-0.5,0.2l-0.3,0.2c-0.2,0.1-0.3,0.2-0.5,0.4c-0.1,0.1-0.2,0.2-0.4,0.3
			c-0.2,0.2-0.4,0.5-0.6,0.7c-0.4,0.5-0.7,1.1-0.9,1.7c-0.2,0.6-0.3,1.2-0.3,1.9h0v57.7h0.6l-0.6,0c0,0.7-0.3,1.4-0.8,2
			c-0.5,0.5-1.2,0.8-2,0.8v1.2c1.1,0,2.1-0.4,2.8-1.2C14.4,82,14.8,81,14.8,79.9z"/>
		<path class="st0" d="M4.8,346.4c0.3,0,0.6,0.1,0.9,0.1v-1.2c-0.2,0-0.5,0-0.7,0L4.8,346.4z"/>
		<path class="st0" d="M1.6,342.4c-0.1-0.2-0.1-0.4-0.2-0.6l-0.8,0.2l0.8-0.2c0-0.2-0.1-0.4-0.1-0.7l-0.6,0.1l0.6-0.1
			c0-0.1,0-0.2,0-0.3H0c0,0.1,0,0.3,0,0.4l0,0c0,0.3,0.1,0.5,0.1,0.8l0,0c0.1,0.3,0.1,0.5,0.2,0.8l0,0l0,0c0.6,1.6,1.9,2.8,3.6,3.3
			l0.1-0.4L4,346.2c0.3,0.1,0.6,0.1,0.8,0.2l0.2-1.2c-0.2,0-0.4-0.1-0.6-0.1C3.1,344.6,2,343.7,1.6,342.4z"/>
		<path class="st0" d="M245.4,348l0,0.9L245.4,348l-0.2,0v0l-6-0.1v0c-17.8-0.2-36.1-0.5-54.3-1l0,1.2c18.2,0.5,36.5,0.8,54.3,1v0
			l6,0.1l0-0.6v0.6h0.2v0c14.2,0.1,28.4,0.2,42.7,0.1l0-1.2C274,348.2,259.7,348.2,245.4,348z"/>
		<path class="st0" d="M184.9,347c-16.6-0.4-33.5-1-50.2-1.7v-9.2c31,1.3,62,2.2,92.1,2.6c24.4,0.4,48.9,0.4,73.3,0.3
			c6.8,0,13.7-0.1,20.5-0.2c30.6-0.4,62-1.3,93.4-2.5l0,0c0.2,0,0.3,0,0.5-0.1c0.2,0,0.3-0.1,0.5-0.2c0.2-0.1,0.3-0.1,0.4-0.2
			c0.1-0.1,0.3-0.2,0.4-0.3c0.1-0.1,0.2-0.2,0.4-0.4c0.1-0.1,0.2-0.3,0.3-0.4c0.1-0.1,0.2-0.3,0.2-0.4c0.1-0.2,0.1-0.3,0.1-0.5
			c0-0.1,0.1-0.3,0.1-0.5c0-0.2,0-0.3,0-0.5l0-243h-1.2l0,243c0,0.1,0,0.2,0,0.3c0,0.1,0,0.2,0,0.3c0,0.1-0.1,0.2-0.1,0.3
			c0,0.1-0.1,0.2-0.1,0.3c0,0.1-0.1,0.2-0.2,0.2c-0.1,0.1-0.1,0.2-0.2,0.2c-0.1,0.1-0.2,0.1-0.2,0.2c-0.1,0.1-0.2,0.1-0.3,0.1
			c-0.1,0-0.2,0.1-0.3,0.1c-0.1,0-0.2,0-0.3,0l0,0.6l0-0.6c-31.4,1.3-62.8,2.1-93.4,2.5c-31.1,0.4-62.7,0.4-93.8-0.1
			c-30.1-0.4-61-1.3-92.1-2.6v-247H172l0,39.2c0,1.4,0.5,2.5,1.3,3.3c1.7,1.5,5.3,0.9,7.4,0.9c4.5,0,9,0,13.5,0c6.8,0,13.6,0,20.4,0
			c8.3,0,16.6,0,25,0c9.2,0,18.4,0,27.6,0c9.4,0,18.7,0,28.1,0c8.8,0,17.5,0,26.3,0c7.5,0,15.1,0,22.6,0c5.6,0,11.1,0,16.7,0
			c2.9,0,5.8,0,8.7,0c0.2,0,0.4,0,0.7,0c1.4,0,3.1-0.3,4-1.4c0.8-1,0.7-2.2,0.7-2.5V87.9h38.8c1.1,0,2,0.9,2,2h1.2
			c0-1.8-1.4-3.2-3.2-3.2H375V86l0.2-0.3l-0.1-0.1l0,0.1V82c0.9,0,2.2,0,2.5,0.1v0c0.4,0,0.7,0,1.1,0l0-0.5l0,0.5
			c0.3,0,0.6,0,0.8,0.1c0.1,0,0.3,0,0.4,0.1l0.3-1l-0.3,1c0.2,0.1,0.5,0.1,0.7,0.2l0.1-0.5l-0.1,0.5l0.7,0.2l0,0
			c0.2,0.1,0.4,0.1,0.6,0.2l0.2-0.6l-0.2,0.6c0.6,0.2,1.3,0.4,1.9,0.7l0.2-0.6l-0.2,0.6l0.4,0.1c0.1,0,0.2,0,0.3,0.1
			c0.2,0,0.3,0,0.5,0.1l0-0.3l0,0.3l0.2,0l0.1-0.6l-0.1,0.6l0.3,0l0,0c0.2,0,0.4,0,0.7,0l0-1.2c-0.2,0-0.4,0-0.6,0l0,0l-0.3,0l0,0
			l-0.2,0l0,0c-0.1,0-0.2,0-0.4-0.1c-0.1,0-0.2,0-0.2,0l-0.3-0.1l0,0c-0.6-0.3-1.3-0.5-1.9-0.7l0,0c-0.2-0.1-0.5-0.2-0.7-0.2
			l-0.2,0.8l0.2-0.8l-0.4-0.1c-0.1,0-0.2-0.1-0.3-0.1l0,0c-0.2-0.1-0.5-0.1-0.7-0.2l0,0c-0.2-0.1-0.4-0.1-0.6-0.1
			c-0.3,0-0.6-0.1-0.9-0.1l0,0c-0.4,0-0.8,0-1.1,0v0c-0.3,0-1.6,0-2.6-0.1V60.9c0-3.2-2.6-4.7-5-4.8c-51.6-2.1-128.9-3.3-191.1-0.2
			c-6.8,0-6.8,4.9-6.8,5l0,20c-1.3,0-3.2,0-3.8,0l0,0.7l0-0.7c-0.3,0-0.6,0-0.9,0.1c-0.2,0-0.4,0-0.6,0.1l0,0c0,0,0,0,0,0
			c0,0,0,0,0,0l0,0c-0.2,0.1-0.5,0.1-0.7,0.2l0,0c0,0,0,0,0,0c0,0,0,0,0,0v0c-0.5,0.1-0.9,0.3-1.4,0.4l0,0c-0.7,0.2-1.3,0.5-1.9,0.7
			l0,0l-0.2,0.1c-0.2,0-0.5,0.1-0.7,0.1l0.1,0.6l-0.1-0.6c-0.2,0-0.3,0-0.5,0.1l0,0.5l0-0.5l-0.6,0l0,0c-0.7,0-1.4,0.1-2.1,0.1
			h-24.5v0h-0.6v0h-0.2v0H129v0.6l0-0.6c-0.7,0-1.4-0.3-2-0.8c-0.5-0.5-0.8-1.2-0.8-2l-0.5,0h0.5V22.2h-0.7l0.7,0c0-0.2,0-0.3,0-0.5
			c0-0.2,0-0.3,0-0.5c0-0.2-0.1-0.3-0.1-0.5l-0.3-1c-0.1-0.1-0.1-0.3-0.2-0.4c-0.1-0.1-0.2-0.3-0.3-0.4c-0.1-0.1-0.2-0.3-0.3-0.4
			c-0.1-0.1-0.2-0.3-0.3-0.4c-0.1-0.1-0.2-0.2-0.3-0.4c-0.2-0.2-0.3-0.3-0.5-0.4l-0.3-0.2c-0.1-0.1-0.3-0.2-0.4-0.3l-1.1-0.4
			l-0.1,0.4l0.1-0.4l-0.2-0.1l-0.2,0.6l-0.1,0.6l0.2-0.6l-0.1,0.5l0,0.1l0,0l0,0l0,0l0.9,0.3c0.1,0.1,0.2,0.1,0.3,0.2l0.2,0.2
			c0.1,0.1,0.3,0.2,0.4,0.3c0.1,0.1,0.2,0.2,0.3,0.3c0.1,0.1,0.2,0.2,0.2,0.3c0.1,0.1,0.2,0.2,0.2,0.3c0.1,0.1,0.1,0.2,0.2,0.3
			c0.1,0.1,0.1,0.2,0.2,0.3l0.3,0.8c0,0.1,0.1,0.2,0.1,0.4c0,0.1,0,0.3,0,0.4c0,0.1,0,0.3,0,0.4h0v57.7h0c0,1.1,0.4,2.1,1.2,2.9
			c0.8,0.8,1.8,1.2,2.9,1.2h3.6v2.7h-5v0c-0.2,0-0.5,0-0.7-0.1c-0.2,0-0.5-0.1-0.7-0.2c-0.2-0.1-0.5-0.2-0.7-0.3
			c-0.2-0.1-0.4-0.2-0.6-0.4c-0.2-0.1-0.4-0.3-0.5-0.5c-0.1-0.1-0.2-0.3-0.3-0.4c-0.1-0.1-0.2-0.3-0.3-0.4c-0.1-0.1-0.2-0.3-0.2-0.5
			c-0.1-0.2-0.1-0.3-0.2-0.5c0-0.2-0.1-0.3-0.1-0.5c0-0.2-0.1-0.3-0.1-0.5c0-0.2,0-0.3,0-0.5h-1.2c0,0.2,0,0.4,0,0.6
			c0,0.2,0,0.4,0.1,0.6c0,0.2,0.1,0.4,0.1,0.6c0.1,0.2,0.1,0.4,0.2,0.6c0.1,0.2,0.2,0.4,0.3,0.6c0.1,0.2,0.2,0.3,0.4,0.5
			c0.1,0.2,0.3,0.3,0.4,0.5c0.2,0.2,0.4,0.4,0.7,0.6c0.2,0.2,0.5,0.3,0.8,0.5c0.3,0.1,0.5,0.3,0.8,0.4c0.3,0.1,0.6,0.2,0.9,0.2
			c0.3,0,0.6,0.1,0.9,0.1l0-0.7v0.7h5v246.9h-10v0.6l0-0.6c-0.7,0-1.5,0.1-2.3,0.2c-0.7,0.1-1.4,0.3-2.1,0.6
			c-0.7,0.3-1.2,0.5-1.7,0.9c-0.3,0.2-0.6,0.4-0.8,0.7c-0.1-0.9-0.2-1.7-0.3-2.6c-0.1-1.6-0.3-3.1-0.4-4.7c-0.1-1.6-0.2-3.2-0.3-4.8
			l-0.6,0l0.6,0c0-0.6-0.1-1.2-0.1-1.8l-0.2-3.7l0,0c-0.1-1.2-0.8-1.8-1-2c-0.1-0.2-0.3-0.3-0.5-0.5c-0.2-0.1-0.4-0.2-0.6-0.4
			c-0.2-0.1-0.4-0.2-0.6-0.3c-0.2-0.1-0.4-0.2-0.7-0.3l-1.2-0.4c-0.1,0-0.2,0-0.3-0.1c0.1-1,0.2-2.1,0.2-3.2c0.1-0.7,0.2-1.3,0.2-2
			l-0.1,0c0.3-7.3,0-14.6-0.3-21.9c-0.3-8.9-0.7-17.9-1-26.8c-3.9-61.3,0.2-107.9,0.2-108.3c10-68.3,6.5-119.7,4.2-135
			c0.1,0.1,0.2,0.2,0.2,0.2c0.1,0.1,0.2,0.3,0.2,0.4l0.6,0l-0.6,0.1l0.1,0.4c0,0.1,0,0.3,0.1,0.4l0.1,0.4l0.6-0.1l-0.6,0.1
			c0.1,0.4,0.3,0.6,0.5,0.8c0.3,0.3,0.6,0.4,0.8,0.6c0.3,0.2,0.6,0.4,1,0.5c0.4,0.2,0.7,0.3,1.1,0.5c0.4,0.2,0.8,0.3,1.1,0.4
			c0.4,0.1,0.8,0.3,1.1,0.4c0.4,0.1,0.7,0.2,1.1,0.3l0,0c0.3,0.1,0.6,0.2,0.8,0.4c0.6,0.5,0.7,0.9,0.7,1.6l0.6,0h-0.6V82h1.2V25.9h0
			c0,0,0,0,0,0v0h0c0-1.1-0.4-1.9-1.2-2.6l-0.4,0.5l0.3-0.5c-0.3-0.2-0.7-0.3-1.1-0.5l-0.2,0.8l0.2-0.8c-0.4-0.1-0.7-0.2-1.1-0.3
			c-0.4-0.1-0.7-0.2-1.1-0.4c-0.4-0.1-0.7-0.3-1.1-0.4c-0.3-0.1-0.7-0.3-1-0.5c-0.3-0.1-0.6-0.3-0.9-0.5c-0.2-0.1-0.4-0.3-0.6-0.4
			c-0.1-0.1-0.1-0.1-0.1-0.1l0-0.4c0-0.2,0-0.3-0.1-0.4l-0.1-0.4l0,0c0-0.3-0.2-0.7-0.4-1c-0.2-0.3-0.5-0.6-0.9-0.9
			c-0.2-0.1-0.4-0.2-0.6-0.3c-0.1-0.5-0.2-1-0.3-1.4c0.3,0.1,0.6,0.1,1,0.2l1.6,0.4c1.1,0.2,2.1,0.5,3.2,0.8l0,0
			c0.9,0.2,1.8,0.4,2.6,0.7l0,0l0.5,0.1l0.3-1.1l-0.2,1.1l0.3-1.2l-0.1,0v0l-0.5-0.1l-0.2,0.6l0.2-0.6c-0.9-0.2-1.8-0.5-2.6-0.7
			l-0.1,0.3l0.1-0.3c-1.1-0.3-2.1-0.5-3.2-0.8l-1.6-0.4c-0.4-0.1-0.7-0.2-1.1-0.2l-0.5-0.1c0,0,0,0,0-0.1
			C110.3,9.3,89.4-1.1,66.6,0.1C45.3,1.2,29.5,6.8,26.4,14.3L26,14.4c-0.5,0.1-1.1,0.2-1.6,0.4c-0.5,0.1-1.1,0.2-1.6,0.4L19.3,16
			c-0.1,0-0.2,0.1-0.4,0.1l-0.8,0.2l0.1,0.5l-0.1-0.5l-0.3,0.1l0.5,1.1l0.1,0l0,0l0.8-0.2c0.1,0,0.3-0.1,0.4-0.1l0.5-0.1
			c0.1,0,0.2,0,0.2-0.1l2.8-0.7c0.5-0.1,1.1-0.2,1.6-0.4c0.4-0.1,0.9-0.2,1.3-0.3c-0.1,0.7-0.2,1.3-0.3,2c-0.1,0.1-0.2,0.2-0.2,0.2
			c-0.3,0.3-0.4,0.7-0.4,1l0,0L25,19.4c0,0.1,0,0.3-0.1,0.4l0,0.4c0,0,0,0-0.1,0.1c-0.2,0.2-0.4,0.3-0.6,0.4
			c-0.3,0.2-0.6,0.3-0.9,0.5c-0.3,0.2-0.7,0.3-1,0.5c-0.4,0.1-0.7,0.3-1.1,0.4c-0.4,0.1-0.7,0.3-1.1,0.4c-0.4,0.1-0.7,0.2-1.1,0.3
			l0.2,0.6L19,22.8c-0.4,0.1-0.7,0.3-1.1,0.5l0.3,0.6l-0.4-0.5c-0.9,0.7-1.2,1.5-1.2,2.6l0,0l0,56.3h0h1.2l0-56.3h-0.6l0.6,0
			c0-0.7,0.2-1.2,0.7-1.6c0.3-0.1,0.6-0.3,0.8-0.4l0,0c0.4-0.1,0.7-0.2,1.1-0.3c0.4-0.1,0.8-0.2,1.1-0.4c0.4-0.1,0.8-0.3,1.1-0.4
			c0.4-0.2,0.7-0.3,1.1-0.5c0.3-0.2,0.7-0.3,1-0.5c0.2-0.1,0.3-0.2,0.4-0.3c-6.4,54.6,4.7,131,4.9,132.4c1.8,17.3,2.7,34.8,2.6,52.2
			c-0.1,13.4-0.7,26.7-1.6,40c-0.6,8.4-1.3,16.9-1.5,25.3c-0.1,4-0.3,8.1-0.5,12.1c-0.5,12.3-1,24.2-0.1,32.2
			c-0.2,0.1-0.4,0.1-0.6,0.2c-0.4,0.2-0.8,0.3-1.2,0.6c-0.2,0.1-0.4,0.3-0.6,0.4l-0.2,0.1c-0.6,0.4-1.1,1.5-1.2,2.4l0.6,0.1l-0.1,0
			l-0.5,0c0,0,0,0,0,0h0c0,0,0,0,0,0c0,0.5-0.1,1.1-0.1,1.6l-0.1,1.7c0,0.4,0,0.8-0.1,1.2l0,0.5l0.7,0l-0.7,0
			c-0.1,1.7-0.2,3.3-0.3,5c-0.1,1.6-0.2,3.2-0.4,4.8c-0.1,1-0.2,1.9-0.3,2.8c-0.2-0.2-0.5-0.5-0.8-0.7c-0.5-0.3-1.1-0.6-1.7-0.9
			c-0.6-0.2-1.3-0.4-2.1-0.6c-0.7-0.1-1.5-0.2-2.3-0.2l0,0.6v-0.6h-11v0c-0.1,0-0.3,0-0.4,0c-0.1,0-0.2-0.1-0.3-0.1
			c-0.1,0-0.2-0.1-0.3-0.2c-0.1-0.1-0.2-0.1-0.3-0.3c-0.1-0.1-0.1-0.1-0.2-0.2c-0.1-0.1-0.1-0.2-0.1-0.3c0-0.1-0.1-0.2-0.1-0.3
			c0-0.1,0-0.2-0.1-0.3c0-0.1,0-0.2,0-0.3h0l0-243c0-0.5,0.2-1,0.6-1.4c0.4-0.4,0.9-0.6,1.4-0.6l0-0.4v0.4h5.9c1.5,0,3-0.6,4-1.6
			c1.1-1.1,1.7-2.5,1.7-4l-1.2,0c0,1.2-0.5,2.3-1.3,3.1c-0.8,0.8-2,1.3-3.2,1.3l0,0.3v-0.3H6.3v0c-1.7,0.1-3.2,1.4-3.2,3.2l0,243
			h0.6l-0.6,0c0,0.2,0,0.3,0,0.5c0,0.2,0.1,0.3,0.1,0.5c0,0.2,0.1,0.3,0.2,0.5c0.1,0.1,0.1,0.3,0.2,0.4c0.1,0.1,0.2,0.3,0.3,0.4
			c0.2,0.2,0.3,0.3,0.4,0.4c0.2,0.1,0.4,0.2,0.5,0.3c0.2,0.1,0.4,0.2,0.6,0.2c0.2,0,0.4,0.1,0.6,0.1v0h11c0.7,0,1.4,0.1,2.1,0.2
			c0.7,0.1,1.3,0.3,1.9,0.5c0.6,0.2,1.1,0.5,1.5,0.8c0.4,0.3,0.7,0.6,1,0.9c0.2,0.3,0.3,0.6,0.3,0.8l0,0c0,0.3,0.1,0.7,0.2,1
			c0.1,0.3,0.4,0.6,0.6,0.8c0.3,0.2,0.5,0.4,0.9,0.5c0.3,0.1,0.7,0.2,1,0.2c0.4,0,0.7,0.1,1.1,0l0,0h1c0,0.4,0.1,0.9,0.1,1.3l0,0
			v2.3c-0.1,0-0.1,0-0.2,0v0H5.7v1.2h22.9c0.1,0,0.2,0,0.4,0l0.1-0.5h0l-0.1,0.5c0.1,0,0.2,0,0.3,0.1l0.1-0.5l-0.1,0.5l0.1,0
			l0.1-0.6l0,0h0l0,0l-0.1,0.6c20.6,5,42.2,6.1,63.3,3.3c6-0.8,11.9-1.9,17.8-3.3l-0.1-0.6l0,0l0.2,0.6l-0.1-0.6l0,0l0.1,0.6
			c0.2,0,0.4-0.1,0.6-0.1v0h22.1v-0.1h0v0.1h0.8v0c16.9,0.7,34,1.3,50.8,1.7L184.9,347z M178.9,57.1L178.9,57.1
			c25.6-1.2,51.2-1.7,76.8-1.8c25.6-0.1,51.1,0.2,76.7,0.8c12.5,0.3,25,0.7,37.5,1.2c1.9,0.1,3.8,1.2,3.8,3.6v66.4l0,0.1
			c0,0,0.2,0.9-0.4,1.5c-0.7,0.9-2,1-3.1,1c-4.9,0-192.3,0-194.2,0c0,0-1.1,0.1-1.8-0.6c-0.6-0.5-0.9-1.3-0.9-2.4V87.9h0.6v-1.2
			h-0.6V60.8C173.3,60.7,173.4,57.1,178.9,57.1z M160.7,83.9l0-0.5L160.7,83.9l0.2,0c0.1,0,0.3,0,0.4,0l0,0c0.2,0,0.4,0,0.6-0.1l0,0
			c0.3,0,0.6-0.1,0.9-0.1l-0.1-0.6l0.2,0.6l0.3-0.1l-0.2-0.6l0.2,0.6c0.6-0.2,1.2-0.5,1.9-0.7l-0.1-0.4l0.1,0.4
			c0.4-0.1,0.9-0.3,1.3-0.4l-0.1-0.2l0.1,0.2c0.2-0.1,0.4-0.1,0.7-0.2l-0.1-0.4l0.1,0.4c0.1,0,0.3,0,0.4-0.1c0.3,0,0.6,0,0.8-0.1
			l0,0c0.6,0,2.4,0,3.7,0v4.6h-37.3v-2.7h23.9C159.3,83.9,160,83.9,160.7,83.9z M115.4,339.1L115.4,339.1L115.4,339.1L115.4,339.1z
			 M113.9,330c0.1,1.6,0.2,3.1,0.4,4.7c0.1,1.5,0.3,3,0.5,4.5c0,0.2,0,0.3-0.1,0.4c-0.1,0.1-0.2,0.3-0.3,0.4
			c-0.1,0.1-0.3,0.2-0.5,0.3c-0.2,0.1-0.4,0.1-0.7,0.2c-0.1,0-0.2,0-0.4,0c-0.2-1.2-0.3-2.5-0.5-3.8c-0.1-1.5-0.3-3-0.4-4.5
			c-0.1-1.5-0.2-2.9-0.3-4.4c0.3-0.3,0.5-0.5,0.8-0.8l-0.4-0.5l0.4,0.4c0.3-0.3,0.5-0.5,0.7-0.9l-0.4-0.3l0.4,0.3
			c0.2-0.3,0.4-0.6,0.5-1c0,0,0,0.1,0,0.1h0C113.7,326.7,113.8,328.4,113.9,330z M110.6,340.4v0.6h0l-0.1-0.6
			c-26.5,6.5-54.5,6.5-81.1,0l-0.1,0.6v-0.6h-0.9c0.2-1.2,0.3-2.5,0.4-3.7c0.2-1.5,0.3-3,0.4-4.6c0.1-1.3,0.2-2.5,0.2-3.8
			c19.7,9.2,42.3,11.4,63.5,6.2c6-1.5,11.9-3.6,17.5-6.2c0.1,1.3,0.1,2.5,0.2,3.8c0.1,1.5,0.2,3,0.4,4.5c0.1,1.3,0.3,2.5,0.4,3.7
			H110.6z M26.9,323.3c0-0.2-0.1-0.3-0.1-0.5c0,0,0.1,0.1,0.1,0.1l0,0c0,0,0,0,0,0c0,0,0,0,0,0l0,0c0.4,0.3,0.8,0.6,1.2,0.8l0,0
			l1.5,0.7c0,0,0.1,0,0.1,0c0,0-0.1,0.1-0.1,0.1l-0.1,0.2c-0.2,0.3-0.4,0.7-0.6,1l-0.1,0.3c0,0.1-0.1,0.1-0.1,0.2l-0.4-0.4l-0.4,0.4
			l0.4-0.4c-0.3-0.3-0.6-0.7-0.8-1.1l0,0C27.2,324.4,27,323.9,26.9,323.3z M109.3,319.7c0.3,0.5,0.5,1,0.7,1.4
			c0.2,0.4,0.3,0.7,0.5,1.1c0.1,0.2,0.1,0.4,0.2,0.6l-0.2,0.1l-0.9,0.4c-0.2,0.1-0.5,0.2-0.8,0.4l0.2,0.5l-0.2-0.5
			c-0.4,0.2-0.8,0.4-1.2,0.5c0.6-1.3,1.1-3,1.4-5C109.2,319.5,109.3,319.6,109.3,319.7z M111.9,322.5l0.1,0.1L111.9,322.5
			C111.9,322.5,111.9,322.5,111.9,322.5z M112,325.3c-0.2,0.2-0.3,0.5-0.5,0.7c-0.1,0.1-0.3,0.3-0.4,0.4c0,0,0,0,0-0.1l-0.2-0.4
			c-0.2-0.3-0.4-0.7-0.6-1l-0.2-0.3c0,0-0.1-0.1-0.1-0.1c0,0,0.1,0,0.1,0l1.5-0.7l-0.3-0.6l0,0l0.3,0.6c0.3-0.1,0.6-0.3,0.8-0.5l0,0
			c0.2-0.1,0.4-0.3,0.5-0.4c-0.1,0.4-0.2,0.8-0.3,1.1C112.5,324.5,112.3,324.9,112,325.3z M30,326.5c0.2-0.3,0.3-0.6,0.5-0.9
			l0.1-0.2c0.1-0.1,0.1-0.2,0.2-0.3c1.6,0.7,3.2,1.4,4.8,2.1c6.7,3.7,15.3,6,24.5,7.1l0,0l0.2,0c6,0.9,12.3,1.2,18.3,0.3l0.5-0.1v0
			c9.5-0.8,18.5-3,25.6-6.7c0.8-0.4,1.4-1,2-1.8c0.8-0.3,1.6-0.7,2.3-1.1c0.1,0.1,0.1,0.2,0.2,0.3l0.1,0.2c0.2,0.3,0.3,0.6,0.5,0.9
			l0.2,0.4c0,0.1,0.1,0.2,0.1,0.2c-25.6,12-54.8,12-80.4,0c0.1-0.1,0.1-0.3,0.2-0.4L30,326.5z M60.9,327.2c2.1,0.2,9.8,0.7,17.1,0.2
			v4.8c-5.7,0.5-11.5,0.5-17.2-0.1C60.8,330.9,60.8,329,60.9,327.2z M78,333.6c-2.5,0.2-5,0.3-7.6,0.2c2.5,0,5-0.1,7.6-0.4V333.6z
			 M79,333.4c7.6-0.8,15.2-2.5,22.5-5.2c-6.5,2.9-14.3,4.6-22.5,5.3V333.4z M108.3,317.9c-0.5,3.1-1.2,5.5-2.2,7.1
			c-8.7,3.8-17.8,6.2-27,7.1v-5.9l-0.6,0c-8.5,0.7-17.9-0.2-18-0.2l-0.6,0l0,0.6c-0.1,2.6-0.2,4.3-0.1,5.4c-8.4-1-16.8-3.1-24.8-6.5
			c-0.5-0.3-1-0.6-1.5-0.9c-1.4-0.8-2.3-2.9-2.9-6c0.2-0.4,0.4-0.9,0.7-1.3c0.8,0.9,1.9,1.8,3.2,2.2c8.8,3.6,18.9,4.4,28.4,4.8
			c10.4,0.5,21,0.2,31.2-1.3c3.3-0.5,7.2-0.9,10.1-2.6c1.6-0.5,2.8-1.7,3.8-3.1C108.1,317.6,108.2,317.8,108.3,317.9z M30.3,316.6
			C30.3,316.6,30.3,316.6,30.3,316.6C30.3,316.7,30.3,316.7,30.3,316.6C30.2,316.7,30.2,316.7,30.3,316.6
			C30.2,316.6,30.2,316.6,30.3,316.6z M29.6,321.1c0.1-0.2,0.2-0.5,0.2-0.7c0.4,1.5,0.9,2.7,1.5,3.6c-0.2-0.1-0.3-0.1-0.5-0.2l0,0
			c-0.3-0.1-0.5-0.2-0.8-0.4l-0.9-0.4l-0.1-0.1l0.1,0c0-0.1,0-0.2,0.1-0.4l0.1,0l0-0.4l0,0C29.5,321.7,29.6,321.3,29.6,321.1
			L29.6,321.1z M109.6,317l1.2,0.4c0.2,0.1,0.4,0.2,0.6,0.2c0.2,0.1,0.4,0.2,0.5,0.3c0.2,0.1,0.3,0.2,0.5,0.3
			c0.1,0.1,0.2,0.2,0.3,0.3l0.2,0.1c0.2,0.1,0.5,0.4,0.6,1.1c0,0.2,0,0.4-0.1,0.6c0,0.2-0.1,0.4-0.2,0.6c-0.1,0.2-0.2,0.4-0.3,0.6
			c-0.1,0.2-0.3,0.3-0.4,0.5c-0.1,0.1-0.3,0.3-0.5,0.4c0-0.2-0.1-0.3-0.1-0.4c-0.1-0.4-0.3-0.8-0.5-1.2c-0.2-0.5-0.5-1-0.8-1.5
			c-0.3-0.6-0.6-1.1-1-1.6C109.4,317.3,109.5,317.1,109.6,317C109.5,317,109.5,317,109.6,317z M66.7,1.2C75,0.7,83.3,1.8,91.3,4.1
			c5.7,1.6,11.4,3.8,16.3,7c1.2,0.8,2.9,1.9,3.5,3.3c0.5,1.3,1.4,6.5,2.1,15.1c-4.5-3.7-21.8-9.3-45.3-8.6
			c-30.3,1.1-39.7,6.2-42.4,8.4c0.4-4.8,0.9-9.4,1.6-13.9C29,8.2,45.3,2.3,66.7,1.2z M30.2,283.6c0.2-4.1,0.3-8.2,0.5-12.2
			c0.2-5.4,0.6-11.6,1.1-18.8c1.6-23.7,3.9-56.1-0.6-98.9l0,0C31.1,153,21.1,84.5,25.4,31l0,0c0-0.1,4.7-7.6,42.5-9
			c27.4-0.9,44.8,6.9,45.3,9.2l0.1,0c1.1,14.3,1.3,28.7,1,43.1c-0.3,15.7-1.2,31.3-2.7,46.9c-1,10.7-2.3,21.5-3.9,32.2
			c0,0.5-4.2,47.1-0.2,108.5c0.2,6.4,0.4,12.5,0.7,18.1c0.5,13.4,1,24.4,0.5,32.5c-0.2,1-0.5,2-0.9,2.9c0,0,0,0-0.1,0l-0.1,0.3
			c-0.1,0.1-0.1,0.3-0.2,0.4l-0.4,0.3c0,0.1,0.1,0.1,0.1,0.2c-0.9,1.4-2,2.6-3.5,3.1c-7.5,4.5-50.3,6.7-68.9-0.9
			c-1.3-0.5-2.3-1.3-3-2.3c0.1-0.1,0.2-0.3,0.2-0.4l-0.5-0.3l-0.1-0.6c-0.1,0-0.2,0.1-0.4,0.1c-0.9-1.7-1.1-3.2-1.2-3.3l-0.1,0
			C29.3,304.1,29.8,293.8,30.2,283.6z M27.2,318.1l0.2-0.1c0.2-0.1,0.3-0.2,0.5-0.3c0.3-0.2,0.7-0.3,1-0.5c0.1,0,0.2-0.1,0.3-0.1
			c0.1,0.4,0.1,0.9,0.2,1.3c-0.2,0.4-0.4,0.8-0.5,1.2c-0.2,0.4-0.3,0.8-0.4,1.3l1,0.3l-1-0.3c-0.1,0.4-0.3,1.1-0.4,1.6
			c-0.1-0.1-0.3-0.2-0.4-0.3l-0.4,0.5l0.4-0.5c-0.2-0.2-0.4-0.3-0.5-0.5c-0.2-0.2-0.3-0.4-0.4-0.6c-0.1-0.2-0.2-0.4-0.2-0.7
			c-0.1-0.2-0.1-0.4-0.1-0.7C26.5,319,27,318.3,27.2,318.1z M24.4,339.1L24.4,339.1L24.4,339.1L24.4,339.1z M26,340.2
			c-0.2-0.1-0.4-0.2-0.5-0.3c-0.1-0.1-0.2-0.2-0.3-0.4c-0.1-0.1-0.1-0.3-0.1-0.4c0.2-1.5,0.3-3,0.5-4.6c0.1-1.6,0.3-3.2,0.4-4.8
			c0.1-1.6,0.2-3.1,0.3-4.7c0.1,0.1,0.1,0.3,0.2,0.4l0.5-0.3l-0.5,0.3c0.3,0.5,0.6,1,1,1.4l0,0l0,0c0,0,0,0,0,0l0,0l0.8,0.8
			c-0.1,1.5-0.2,2.9-0.3,4.4c-0.1,1.5-0.2,3-0.4,4.5c-0.1,1.3-0.3,2.6-0.4,3.8c-0.1,0-0.2,0-0.4,0C26.5,340.4,26.2,340.3,26,340.2z
			 M27.6,341L27.6,341L27.6,341L27.6,341z M30,345.4v-2.5h-0.6l0.6-0.1c0-0.3-0.1-0.7-0.1-1c20.4,4.9,41.7,6,62.4,3.3
			c5.9-0.8,11.7-1.9,17.5-3.3c0,0.3-0.1,0.7-0.1,1l0.6,0l-0.6,0l0,2.5C83.7,351.6,56.1,351.6,30,345.4z M111,345.2l0-2.3
			c0-0.4,0.1-0.9,0.1-1.3h1c0.4,0,0.7,0,1.1,0c0.4,0,0.7-0.1,1-0.2c0.3-0.1,0.6-0.3,0.9-0.5c0.3-0.2,0.5-0.5,0.6-0.8
			c0.2-0.3,0.2-0.6,0.2-1l0,0c0-0.2,0.1-0.5,0.3-0.8c0.2-0.3,0.5-0.6,1-0.9c0.4-0.3,0.9-0.5,1.5-0.7c0.6-0.2,1.2-0.4,1.9-0.5
			c0.7-0.1,1.4-0.2,2.1-0.2v0h10v9.2h-21.5v0C111.1,345.2,111.1,345.2,111,345.2z"/>
		<path class="st0" d="M1.3,88.4l-0.7,0l0.1,0L1.3,88.4L1.3,88.4c0-1.3,0.5-2.4,1.3-3.2c0.8-0.8,2-1.2,3.1-1.3l0-0.6v0.6h5.1v-1.2
			H5.7v0c-1.5,0-2.9,0.6-4,1.6c-1.1,1.1-1.7,2.5-1.7,4l0.6,0l0,0l-0.6,0v0.1h0l0,31.9l1.2,0L1.3,88.4z M0.7,88.3l0.4,0L0.7,88.3
			L0.7,88.3z M0.6,88.3L0.6,88.3l-0.5,0L0.6,88.3z"/>
		<polygon class="st0" points="1.2,308.6 1.2,308.6 1.2,120.3 0,120.3 0,308.6 0,308.6 0,340.8 1.3,340.8 		"/>
		<path class="st0" d="M308.1,181.8c-0.8-0.6-1.6-0.9-2.6-1c1.1,0.8,2,1.8,2.8,2.9c1.1-2.8,2.4-4.4,4.8-7.6
			C311.2,177.7,309.5,179.6,308.1,181.8z"/>
		<path class="st0" d="M238.4,179.2c-1-1.1-2.1-2.2-3-3c-0.3,0.4-0.6,0.7-0.8,1.2c0.7,0.5,1.7,1.2,3.2,2.4c-1.2,1.1-2.4,2.3-3.2,3.3
			c0.4,0.3,0.8,0.6,1.3,0.7c0.5-0.8,1.2-1.8,2.6-3.4c1,0.9,2.2,2,3.7,3.4c-0.4-0.8-1.7-2.4-3.2-4c0.8-1,1.9-2.1,3.2-3.6
			C241.4,176.6,240,177.8,238.4,179.2z"/>
		<rect x="149" y="169.5" class="st0" width="4" height="0.5"/>
		<polygon class="st0" points="186.5,169.6 184.6,169.6 184.6,167.6 184.1,167.6 184.1,169.6 182.2,169.6 182.2,170.1 184.1,170.1
			184.1,172.1 184.6,172.1 184.6,170.1 186.5,170.1 		"/>
		<polygon class="st0" points="180.3,171 180.3,168.7 170.2,171 		"/>
		<polygon class="st0" points="155.1,171 165.2,171 155.1,168.7 		"/>
		<path class="st0" d="M178.7,188.8v2.6h1.6l2,1.6v-5.7l-2,1.6H178.7z M180.6,189l1.3-1v4l-1.3-1V189z"/>
		<path class="st0" d="M340.2,167.3c-3.3,0-3.3,5.1,0,5.1C343.4,172.4,343.5,167.3,340.2,167.3z"/>
		<path class="st0" d="M205.9,251.8c-0.6,0-1.1,0.2-1.6,0.5l0.5-2.3h3.4v-1h-4.3l-0.8,4.4l1,0.1c0.2-0.3,0.4-0.5,0.6-0.6
			c0.7-0.4,1.7-0.3,2.3,0.3c0.7,0.8,0.7,2.2,0,3c-0.6,0.7-1.7,0.8-2.4,0.2c-0.3-0.3-0.5-0.7-0.6-1.2l-1.1,0.1
			c0.1,0.7,0.4,1.3,0.8,1.7c1.2,1,3.2,0.8,4.2-0.4c0.9-1.1,1-3-0.1-4C207.3,252.1,206.7,251.8,205.9,251.8z"/>
		<path class="st0" d="M192.7,256.8c0,0.2,0,0.3-0.1,0.4l-0.1,0.1l-0.2,0.1c-0.1,0-0.2,0-0.3-0.1c-0.1-0.1-0.1-0.2-0.1-0.4l-0.4,0
			c0,0.3,0.1,0.5,0.2,0.6c0.3,0.3,0.9,0.3,1.2,0c0.1-0.1,0.2-0.4,0.2-0.7v-1.9h-0.4V256.8z"/>
		<polygon class="st0" points="196.6,254.9 196.1,254.9 194.6,256.2 194.6,254.9 194.2,254.9 194.2,257.6 194.6,257.6 194.6,256.7
			195.1,256.2 196.1,257.6 196.7,257.6 195.4,256 		"/>
		<polygon class="st0" points="197.9,254.9 197.5,254.9 197.5,257.6 199.3,257.6 199.3,257.3 197.9,257.3 		"/>
		<path class="st0" d="M169.9,249.1h-0.9l-3.9,5.6v1h3.7v2.1h1.1v-2.1h1.2v-1h-1.2V249.1z M168.9,254.7h-2.7l2.7-3.8V254.7z"/>
		<path class="st0" d="M155.4,256.5h0.9v0.5c-0.1,0.1-0.2,0.1-0.4,0.2c-1,0.4-2-0.6-1.4-1.6c0.1-0.2,0.2-0.3,0.4-0.4
			c0.3-0.1,0.7-0.2,1-0.1c0.1,0,0.2,0.1,0.3,0.2c0.1,0.1,0.1,0.2,0.2,0.3l0.4-0.1c-0.1-0.2-0.1-0.4-0.2-0.5
			c-0.1-0.1-0.2-0.2-0.4-0.3c-0.4-0.1-0.9-0.1-1.3,0.1c-0.2,0.1-0.4,0.3-0.5,0.5c-0.3,0.4-0.3,1.1,0,1.6c0.1,0.2,0.3,0.4,0.5,0.5
			c0.4,0.2,1,0.2,1.4,0.1c0.2-0.1,0.4-0.2,0.6-0.3v-1h-1.3V256.5z"/>
		<polygon class="st0" points="159.6,256 158.1,256 158.1,254.9 157.7,254.9 157.7,257.6 158.1,257.6 158.1,256.3 159.6,256.3
			159.6,257.6 160,257.6 160,254.9 159.6,254.9 		"/>
		<rect x="161.2" y="254.8" class="st0" width="0.4" height="2.8"/>
		<path class="st0" d="M243.8,252c-0.4,0-0.8,0.1-1.2,0.3c-0.4,0.2-0.7,0.5-0.9,0.9c0-0.9,0.1-1.5,0.3-2c0.2-0.5,0.5-0.8,0.8-1.1
			c0.6-0.4,1.5-0.4,2,0.2c0.2,0.2,0.3,0.5,0.4,0.9l1-0.1c-0.1-0.7-0.3-1.2-0.8-1.6c-1.1-1-2.9-0.7-3.8,0.4c-1.3,1.6-1.4,5.3-0.1,6.8
			c0.9,1,2.4,1.3,3.5,0.6c0.4-0.2,0.7-0.6,1-1.1c0.5-1.1,0.5-2.6-0.4-3.5C245.1,252.3,244.5,252,243.8,252z M244.7,256.3
			c-0.5,0.6-1.4,0.7-2,0.3c-0.3-0.2-0.5-0.4-0.6-0.8c-0.4-0.8-0.3-1.8,0.3-2.4c0.7-0.7,1.8-0.7,2.4,0
			C245.4,254.2,245.4,255.6,244.7,256.3z"/>
		<path class="st0" d="M229.2,256.8c-0.1,0.2-0.1,0.3-0.2,0.4l-0.1-0.4l-0.7-2h-0.6v2.8h0.4v-2.4l0.9,2.4h0.3l0.9-2.3v2.3h0.4v-2.8
			h-0.5L229.2,256.8z"/>
		<polygon class="st0" points="233.5,257 231.9,254.8 231.5,254.8 231.5,257.6 231.9,257.6 231.9,255.4 233.4,257.6 233.8,257.6
			233.8,254.8 233.5,254.8 		"/>
		<path class="st0" d="M236.9,255c-0.5-0.3-1.3-0.2-1.7,0.2c-0.5,0.5-0.5,1.5,0,2.1c0.5,0.6,1.6,0.6,2.1,0c0.4-0.5,0.5-1.3,0.2-1.8
			C237.3,255.2,237.2,255.1,236.9,255z M236.9,257.1c-0.4,0.4-1,0.4-1.4,0c-0.4-0.4-0.4-1.3,0-1.7c0.3-0.3,0.9-0.4,1.2-0.2
			c0.2,0.1,0.3,0.2,0.3,0.3C237.3,256,237.3,256.7,236.9,257.1z"/>
		<path class="st0" d="M306.4,258.4v1.4c1.5,0.3,1.4,3.1,0,3.4v1.3C310,264.3,310,258.7,306.4,258.4z"/>
		<path class="st0" d="M303,262c0,1.9,1.2,3,2.8,3.1v-1.3c-0.7-0.1-1.1-0.8-1.1-1.8c0-0.9,0.3-1.6,1.1-1.7V259
			C304.2,259.1,303,260.2,303,262z"/>
		<rect x="277" y="263.7" class="st0" width="3.9" height="0.6"/>
		<rect x="277" y="262.5" class="st0" width="3.9" height="0.6"/>
		<rect x="277" y="261.4" class="st0" width="3.9" height="0.6"/>
		<rect x="277" y="260.3" class="st0" width="3.9" height="0.6"/>
		<rect x="277" y="259.2" class="st0" width="3.9" height="0.6"/>
		<polygon class="st0" points="274.4,259.5 274.4,261.7 276.4,260.6 		"/>
		<path class="st0" d="M280.2,218.8c-0.9-0.3-1.8,0-2.5,0.6c-1.5-1.5-4.2-0.4-4.2,1.7c0,2.1,2.7,3.2,4.2,1.7
			c0.6,0.7,1.6,0.9,2.5,0.6C282.5,222.8,282.5,219.5,280.2,218.8z M280.1,222.9c-0.6,0.2-1.4,0.1-1.9-0.6c0.4-0.7,0.4-1.6,0-2.4
			c0.5-0.6,1.2-0.8,1.9-0.6C281.7,219.9,281.7,222.3,280.1,222.9z"/>
		<path class="st0" d="M306.2,309.4c-4,0-4,6.2,0,6.2C310.2,315.6,310.2,309.4,306.2,309.4z M308.7,313.2h-5.1v-1.3h5.1V313.2z"/>
		<polygon class="st0" points="157.2,313.5 158,312.7 157.2,311.8 157.2,312.5 155.1,312.5 155.1,312.9 157.2,312.9 		"/>
		<path class="st0" d="M240.7,313.9h0.9l0.5-2.4h1.8l-0.5,2.4h0.9l0.5-2.4h1.8v-0.9h-1.6l0.4-2.1h1.2v-0.9h-1l0.5-2.4h-0.9l-0.5,2.4
			h-1.8l0.5-2.4h-0.9l-0.5,2.4h-1.7v0.9h1.6l-0.4,2.1h-1.1v0.9h1L240.7,313.9z M242.7,308.5h1.8l-0.4,2.1h-1.8L242.7,308.5z"/>
		<path class="st0" d="M205.8,314c0.6,0,1.1-0.2,1.6-0.5c0.4-0.3,0.7-0.8,0.9-1.4c0.4-1.4,0.5-3.1,0.1-4.5c-0.1-0.5-0.3-0.9-0.5-1.3
			c-0.2-0.3-0.5-0.6-0.9-0.8c-0.8-0.5-2-0.4-2.8,0.2c-0.4,0.3-0.7,0.8-0.9,1.4c-0.6,1.7-0.6,4.5,0.5,6
			C204.3,313.7,205,314,205.8,314z M204.6,306.7c0.6-0.9,1.8-0.8,2.4,0.1c0.5,0.8,0.5,2,0.5,2.8c0,0.9,0,2.1-0.5,2.8
			c-0.6,0.9-1.8,0.9-2.4,0C203.7,311.1,203.8,307.9,204.6,306.7z"/>
		<polygon class="st0" points="194.6,312.8 194.2,312.8 194.2,313.4 191.7,313.4 191.7,312.8 191.2,312.8 191.2,313.8 194.6,313.8
					"/>
		<rect x="197.2" y="313.4" class="st0" width="3.4" height="0.4"/>
		<polygon class="st0" points="166,312.3 166.8,312.7 168.1,310.4 169.4,312.7 170.2,312.3 168.9,310 171.5,310 171.5,309.1
			168.9,309.1 170.2,306.8 169.4,306.3 168.1,308.6 166.8,306.3 166,306.8 167.3,309.1 164.6,309.1 164.6,310 167.3,310 		"/>
		<path class="st0" d="M152.3,312.7c-0.2,0-0.4,0.1-0.5,0.1c-0.1,0.1-0.2,0.1-0.3,0.2c-0.2,0.2-0.1,0.5,0.1,0.7
			c0.3,0.2,0.7,0.2,0.9,0.1c0.1,0,0.3-0.1,0.4-0.2l0.1,0.2h0.4l-0.1-0.2c0-0.1,0-0.3,0-0.6v-0.5c0-0.2,0-0.3-0.1-0.4
			c0-0.1-0.1-0.2-0.2-0.2c-0.3-0.2-0.9-0.1-1.2,0c-0.2,0.1-0.3,0.3-0.3,0.5l0.4,0c0-0.1,0.1-0.2,0.2-0.3c0.2-0.1,0.6-0.1,0.8,0
			c0.1,0.1,0.1,0.1,0.1,0.3l0,0.1C152.8,312.6,152.6,312.6,152.3,312.7z M152.9,312.9c0,0.2,0,0.3-0.1,0.4c-0.1,0.1-0.1,0.2-0.2,0.2
			c-0.2,0.1-0.5,0.1-0.7,0l-0.1-0.2l0-0.2l0.1-0.1c0.1,0,0.2,0,0.3-0.1c0.3,0,0.5-0.1,0.6-0.1V312.9z"/>
		<path class="st0" d="M159.8,313h1.3l0.3,0.8h0.4l-1.2-2.8h-0.4l-1.1,2.8h0.4L159.8,313z M160.2,311.9c0.1-0.2,0.1-0.4,0.2-0.5
			c0,0.1,0.1,0.3,0.2,0.6l0.3,0.8h-1L160.2,311.9z"/>
		<rect x="307.4" y="221.3" class="st0" width="3.4" height="0.2"/>
		<rect x="307.4" y="220.8" class="st0" width="3.4" height="0.2"/>
		<path class="st0" d="M311,220.3h-3.7l-0.4,0.1l-0.4-0.1h-0.4v0.6h-4.3l-0.8-0.1l-0.7,0.1v0.4l0.7,0.1l0.8-0.1h4.3v0.6h0.4l0.4-0.1
			l0.4,0.1h3.7C311.9,222,311.9,220.3,311,220.3z M311,221.7h-3.7l-0.4-0.1l-0.4,0.1h-0.1v-1.1h0.1l0.4,0.1l0.4-0.1h3.7
			C311.5,220.6,311.5,221.7,311,221.7z"/>
		<path class="st0" d="M276.3,243.6c0.5,0,0.9,0.2,1.3,0.6l0.2,0.2l0.2-0.2c0.3-0.3,0.7-0.5,1.1-0.5c0.5,0,0.9,0.2,1.3,0.6l0.5,0.5
			v-5.6l-0.1-0.1c-0.5-0.5-1.1-0.8-1.7-0.7c-0.5,0-0.9,0.2-1.3,0.5c-0.4-0.4-1-0.6-1.5-0.6c-0.6,0-1.1,0.3-1.5,0.7l-0.1,0.1v5.6
			l0.5-0.6C275.5,243.8,275.9,243.6,276.3,243.6z M278.1,239.4c0.3-0.3,0.6-0.4,1-0.4c0.4,0,0.8,0.2,1.2,0.5v4
			c-0.4-0.2-0.8-0.4-1.2-0.4c-0.4,0-0.7,0.1-1,0.3V239.4z M275.3,239.3c0.3-0.3,0.6-0.4,1-0.4c0.4,0,0.8,0.2,1.2,0.5v4
			c-0.4-0.2-0.8-0.4-1.2-0.4c-0.4,0-0.7,0.1-1,0.3V239.3z"/>
		<path class="st0" d="M280.5,310c-1.2-1.3-2.2-1.2-4.6,1c-2.3,2.1-2.5,3.3-1.3,4.5l1-1.6c-0.9-1,0-1.2,0.9-2.1
			c1-0.9,1.3-1.7,2.2-0.8L280.5,310z"/>
		<path class="st0" d="M276.8,314.4c-0.8,0-0.8,1.3,0,1.3C277.6,315.7,277.6,314.4,276.8,314.4z"/>
		<path class="st0" d="M278.8,314.4c-0.8,0-0.8,1.3,0,1.3C279.6,315.7,279.6,314.4,278.8,314.4z"/>
		<path class="st0" d="M280.8,314.4c-0.8,0-0.8,1.3,0,1.3C281.6,315.7,281.6,314.4,280.8,314.4z"/>
		<path class="st0" d="M207,281.1c0.4-0.2,0.7-0.4,1-0.7c0.6-0.8,0.3-2-0.4-2.6c-0.9-0.9-2.7-0.9-3.6,0c-0.7,0.7-0.9,1.8-0.4,2.7
			c0.2,0.3,0.5,0.5,1,0.7c-0.5,0.1-0.9,0.4-1.2,0.8c-0.7,1-0.5,2.5,0.3,3.3c1.1,1,3.1,1,4.1,0c0.8-0.8,1.1-2.2,0.4-3.2
			C207.9,281.5,207.5,281.2,207,281.1z M204.3,279.2c0-0.4,0.1-0.7,0.4-0.9c0.5-0.5,1.5-0.5,2,0c0.5,0.5,0.5,1.4,0,1.9
			c-0.5,0.5-1.5,0.5-2,0C204.5,280,204.3,279.7,204.3,279.2z M207,284.5c-0.6,0.6-1.5,0.6-2.2,0.3c-0.3-0.2-0.5-0.4-0.6-0.7
			c-0.9-1.8,1.3-3.5,2.8-2.1C207.6,282.7,207.7,283.8,207,284.5z"/>
		<polygon class="st0" points="190.4,283.3 191.3,283.3 191.3,285.7 191.7,285.7 191.7,283.3 192.7,283.3 192.7,283 190.4,283 		"/>
		<path class="st0" d="M195.5,284.6c0,0.4-0.1,0.6-0.2,0.7c-0.2,0.2-0.7,0.2-1,0.1c-0.1-0.1-0.2-0.1-0.2-0.3
			c-0.1-0.1-0.1-0.3-0.1-0.5V283h-0.4v1.6c0,0.4,0.1,0.8,0.3,0.9c0.4,0.3,1.1,0.4,1.6,0.1c0.2-0.1,0.3-0.2,0.4-0.4
			c0.1-0.2,0.1-0.4,0.1-0.7V283h-0.4V284.6z"/>
		<path class="st0" d="M198.3,285c-0.1,0.2-0.1,0.3-0.2,0.5c0-0.1-0.1-0.3-0.2-0.5l-0.8-2h-0.4l1.1,2.8h0.4l1.1-2.8h-0.4L198.3,285z
			"/>
		<path class="st0" d="M165.4,278.2h4.2c-0.5,0.6-1,1.4-1.5,2.3c-0.5,0.9-0.8,1.8-1.1,2.8c-0.3,1-0.4,1.8-0.4,2.5h1.1
			c0.1-0.9,0.2-1.6,0.4-2.4c0.3-1,0.7-2,1.2-3c0.5-1,1.1-1.7,1.6-2.3v-0.8h-5.6V278.2z"/>
		<path class="st0" d="M154,283c-0.1,0-0.3-0.1-0.6-0.1h-1.1v2.8h0.4v-1.1h0.8c0.4,0,0.7-0.1,0.9-0.2c0.3-0.3,0.3-0.8,0.1-1.1
			C154.3,283.1,154.1,283,154,283z M154,284.2c-0.1,0.1-0.3,0.1-0.5,0.1h-0.8v-1h0.8c0.2,0,0.3,0,0.4,0l0.2,0.2
			C154.2,283.7,154.2,284,154,284.2z"/>
		<path class="st0" d="M157.8,285c0.2-0.4,0.2-1-0.1-1.4c-0.1-0.2-0.3-0.4-0.5-0.5c-0.4-0.2-1-0.2-1.4,0c-0.2,0.1-0.4,0.3-0.5,0.5
			c-0.3,0.5-0.3,1.3,0.2,1.8c0.4,0.5,1.2,0.6,1.8,0.3c0.2,0.2,0.4,0.3,0.6,0.3l0.1-0.3c-0.2-0.1-0.3-0.1-0.5-0.3
			C157.7,285.3,157.8,285.2,157.8,285z M157.2,285.2c-0.1-0.1-0.3-0.2-0.6-0.3l-0.1,0.3c0.1,0,0.3,0.1,0.4,0.2
			c-0.4,0.1-0.8,0.1-1.1-0.2c-0.4-0.4-0.4-1.3,0-1.7c0.3-0.3,0.9-0.4,1.2-0.2c0.2,0.1,0.3,0.2,0.4,0.4
			C157.7,284.2,157.6,284.9,157.2,285.2z"/>
		<path class="st0" d="M160.4,284.6c-0.1-0.1-0.1-0.1-0.2-0.2c0.3,0,0.5-0.1,0.6-0.2c0.2-0.2,0.3-0.7,0.1-0.9
			c-0.1-0.1-0.2-0.2-0.3-0.3c-0.1-0.1-0.3-0.1-0.6-0.1h-1.3v2.8h0.4v-1.2h0.4c0.1,0,0.2,0,0.3,0l0.2,0.2c0.1,0.1,0.2,0.2,0.3,0.5
			l0.4,0.6h0.5l-0.5-0.8C160.7,284.9,160.6,284.7,160.4,284.6z M159.9,284.2h-0.8v-0.9h0.9c0.2,0,0.4,0,0.5,0.1
			c0.1,0.1,0.2,0.2,0.2,0.3l-0.1,0.3l-0.2,0.2C160.2,284.2,160.1,284.2,159.9,284.2z"/>
		<path class="st0" d="M163.5,284.2c-0.1,0-0.3-0.1-0.6-0.2c-0.3-0.1-0.5-0.1-0.6-0.2c-0.2-0.2-0.1-0.4,0-0.6c0.3-0.2,0.8-0.2,1,0
			c0.1,0.1,0.2,0.2,0.2,0.4l0.4,0c0-0.2-0.1-0.3-0.1-0.4c-0.1-0.1-0.2-0.2-0.4-0.3c-0.4-0.2-1-0.2-1.3,0.1c-0.3,0.2-0.4,0.6-0.2,0.9
			c0.1,0.1,0.2,0.2,0.3,0.2c0.1,0.1,0.3,0.1,0.6,0.2c0.3,0.1,0.5,0.1,0.6,0.2l0.2,0.2l0.1,0.2c0,0.1-0.1,0.3-0.2,0.3
			c-0.3,0.2-0.7,0.2-1,0.1c-0.1-0.1-0.2-0.1-0.3-0.2c-0.1-0.1-0.1-0.2-0.1-0.4l-0.4,0c0,0.3,0.1,0.5,0.3,0.7c0.4,0.3,1,0.3,1.5,0.2
			c0.2-0.1,0.3-0.2,0.4-0.3c0.2-0.2,0.2-0.6,0-0.9C163.8,284.4,163.7,284.3,163.5,284.2z"/>
		<path class="st0" d="M244.9,277.4c-1.1-0.7-2.6-0.6-3.5,0.3c-1,1.1-1.1,3.1,0,4.2c0.8,0.8,2,1,3,0.5c0.4-0.2,0.7-0.5,0.9-0.8
			l0,0.2c0,0.4-0.1,0.9-0.2,1.3c-0.1,0.4-0.2,0.8-0.4,1c-0.2,0.3-0.4,0.4-0.6,0.6c-0.5,0.3-1.3,0.3-1.8-0.1c-0.2-0.2-0.4-0.6-0.5-1
			l-1,0.1c0.1,0.7,0.3,1.2,0.8,1.6c0.9,0.8,2.4,0.7,3.3,0c0.5-0.3,0.8-0.8,1.1-1.5c0.5-1.4,0.6-3.6,0-5
			C245.7,278.2,245.4,277.7,244.9,277.4z M244.7,281.3c-0.6,0.7-1.8,0.7-2.4,0c-0.7-0.7-0.6-2.1,0-2.8c0.6-0.7,1.7-0.8,2.4,0
			C245.3,279.1,245.3,280.5,244.7,281.3z"/>
		<path class="st0" d="M233,283h-0.4l-0.6,0.7c-0.1,0.1-0.2,0.2-0.2,0.3c0-0.1-0.1-0.2-0.2-0.3L231,283h-0.5l1,1.3l-1.1,1.4h0.5
			l0.7-1c0,0,0.1-0.1,0.1-0.2l0.1,0.2l0.7,1h0.5l-1.1-1.5L233,283z"/>
		<path class="st0" d="M235.3,283.8c-0.1,0.2-0.2,0.3-0.3,0.5c-0.1-0.1-0.2-0.3-0.3-0.5L234,283h-0.5l1.1,1.6v1.2h0.4v-1.2l1.2-1.6
			h-0.4L235.3,283.8z"/>
		<path class="st0" d="M237.4,285.2l1.6-1.9V283h-2.1v0.3h1.6c-0.1,0.1-0.2,0.2-0.3,0.3l-1.5,1.8v0.3h2.3v-0.3h-1.9L237.4,285.2z"/>
		<path class="st0" d="M229.2,284.7c-0.1,0.2-0.1,0.4-0.1,0.6c0-0.3-0.1-0.6-0.2-1l-0.4-1.4H228l-0.5,1.9c0,0-0.1,0.2-0.1,0.5
			c0-0.2-0.1-0.4-0.1-0.6l-0.4-1.8h-0.4l0.7,2.8h0.4l0.6-2.1c0-0.1,0.1-0.2,0.1-0.3c0,0,0,0.2,0.1,0.3l0.6,2.1h0.4l0.8-2.8h-0.4
			L229.2,284.7z"/>
		<path class="st0" d="M168.1,222.1c-0.4,0.4-1,0.7-1.5,1v1c0.3-0.1,0.7-0.3,1.1-0.5c0.4-0.2,0.7-0.5,1-0.7v6.7h1.1V221H169
			C168.8,221.3,168.5,221.7,168.1,222.1z"/>
		<path class="st0" d="M204.9,228c0.2-0.2,0.6-0.5,1.2-1.1c0.8-0.6,1.3-1.1,1.6-1.5c0.3-0.4,0.6-0.7,0.7-1.1c0.4-0.9,0.2-2-0.5-2.7
			c-1-0.9-2.9-0.9-3.9-0.1c-0.5,0.4-0.8,1-0.8,1.8l1.1,0.1c0-0.5,0.2-1,0.5-1.3c0.6-0.6,1.8-0.6,2.4,0c0.7,0.7,0.5,1.6,0,2.3
			c-0.3,0.4-1,1.1-1.9,1.8c-0.6,0.5-1.1,0.9-1.4,1.3c-0.3,0.4-0.6,0.8-0.7,1.1c-0.1,0.2-0.1,0.5-0.1,0.7h5.7v-1h-4.2
			C204.5,228.4,204.7,228.2,204.9,228z"/>
		<path class="st0" d="M191.3,226.8l-1.1,2.8h0.4l0.3-0.8h1.3l0.3,0.8h0.4l-1.2-2.8H191.3z M191,228.4l0.3-0.8
			c0.1-0.2,0.1-0.4,0.2-0.5c0,0.1,0.1,0.3,0.2,0.6l0.3,0.8H191z"/>
		<path class="st0" d="M195.4,228.1c0.1-0.1,0.2-0.1,0.3-0.2c0.1-0.2,0.1-0.5,0-0.7c-0.1-0.1-0.2-0.2-0.3-0.2
			c-0.1-0.1-0.3-0.1-0.5-0.1h-1.1v2.8h1.1c0.3,0,0.5,0,0.6-0.1c0.2-0.1,0.3-0.1,0.4-0.3c0.2-0.3,0.2-0.6,0-0.9
			C195.7,228.2,195.6,228.1,195.4,228.1z M194.1,227.1h0.6c0.2,0,0.4,0,0.4,0l0.2,0.1c0.1,0.2,0.1,0.3,0,0.5
			c-0.1,0.1-0.1,0.1-0.2,0.1c-0.1,0-0.2,0-0.4,0h-0.6V227.1z M195.4,229c-0.1,0.1-0.1,0.1-0.3,0.2c-0.1,0-0.2,0-0.4,0h-0.7v-1h0.7
			c0.2,0,0.3,0,0.4,0l0.2,0.2C195.6,228.7,195.6,228.9,195.4,229z"/>
		<path class="st0" d="M198.8,229.1c-0.4,0.3-0.9,0.2-1.2-0.1c-0.3-0.4-0.3-1.1-0.1-1.5c0.1-0.2,0.2-0.3,0.3-0.4
			c0.5-0.3,1.1-0.1,1.3,0.5l0.4-0.1c-0.1-0.3-0.2-0.5-0.4-0.6c-0.4-0.3-1-0.3-1.4,0c-0.2,0.1-0.4,0.3-0.5,0.5
			c-0.3,0.5-0.2,1.1,0,1.6c0.1,0.2,0.3,0.4,0.5,0.5c0.4,0.2,1.1,0.2,1.5-0.1c0.2-0.2,0.4-0.4,0.5-0.7l-0.4-0.1
			C199,228.8,198.9,229,198.8,229.1z"/>
		<path class="st0" d="M244.7,224.8c0.4-0.2,0.7-0.4,0.9-0.7c0.4-0.6,0.4-1.5,0-2.1c-0.2-0.3-0.5-0.6-0.9-0.8
			c-0.9-0.5-2.2-0.4-3,0.3c-0.5,0.4-0.8,0.9-0.9,1.6l1.1,0.2c0.1-0.5,0.3-0.9,0.5-1.2c0.5-0.5,1.5-0.5,2.1,0c0.6,0.5,0.5,1.6-0.1,2
			c-0.4,0.2-0.8,0.4-1.2,0.4l-0.2,0l-0.1,0.9c0.7-0.2,1.4-0.2,2,0.4c0.7,0.7,0.6,1.8,0,2.5c-0.6,0.6-1.7,0.7-2.3,0.1
			c-0.3-0.3-0.5-0.7-0.6-1.3l-1.1,0.2c0.1,0.7,0.4,1.3,0.9,1.7c1.1,1,2.9,0.9,4-0.1c0.9-0.8,1.2-2.3,0.4-3.3
			C245.6,225.2,245.2,225,244.7,224.8z"/>
		<path class="st0" d="M230.6,227.1c-0.1-0.1-0.3-0.2-0.4-0.2c-0.1,0-0.3-0.1-0.6-0.1h-1v2.8h1.1c0.3,0,0.5,0,0.7-0.1
			c0.2-0.1,0.3-0.2,0.5-0.5c0.2-0.4,0.2-1,0.1-1.4C230.8,227.3,230.7,227.2,230.6,227.1z M230.4,228.8c-0.1,0.1-0.2,0.2-0.3,0.3
			c-0.1,0.1-0.3,0.1-0.6,0.1h-0.6v-2.1h0.6c0.2,0,0.4,0,0.5,0.1c0.2,0.1,0.3,0.2,0.4,0.3C230.6,227.9,230.6,228.4,230.4,228.8z"/>
		<polygon class="st0" points="232.4,228.3 234,228.3 234,227.9 232.4,227.9 232.4,227.1 234.1,227.1 234.1,226.8 232,226.8
			232,229.6 234.2,229.6 234.2,229.2 232.4,229.2 		"/>
		<polygon class="st0" points="235.3,229.6 235.7,229.6 235.7,228.3 237,228.3 237,228 235.7,228 235.7,227.1 237.3,227.1
			237.3,226.8 235.3,226.8 		"/>
		<path class="st0" d="M208.9,189.4c-0.6-3.4-5.6-3.4-6.2,0l-0.4,0c-0.1,0.7,0,1.4,0.3,2l0.4-0.1c0.4,0.9,1.3,1.5,2.3,1.7
			c0.2,0.6,1,0.5,1.1,0c0.2-0.6-0.7-1-1.1-0.4c-0.8-0.2-1.5-0.6-1.9-1.3l0.2,0l-0.3-2l-0.2,0c0.6-2.7,4.7-2.8,5.3,0l-0.2,0l-0.3,2
			l1,0.1c0.3-0.6,0.4-1.4,0.3-2L208.9,189.4z"/>
		<path class="st0" d="M275.2,295.4c0.5,0,0.9-0.3,1-0.8h3.2c0.2,0.8,1.3,1.1,1.8,0.4c0.6-0.8-0.2-1.9-1.1-1.6l-1.6-2.6
			c0.7-0.6,0.2-1.8-0.7-1.8c-0.9,0-1.3,1.1-0.7,1.8l-1.6,2.6C274,293,273.6,295.4,275.2,295.4z M277.4,291.1c0.2,0.1,0.4,0.1,0.7,0
			c0.4,0.7,1.1,1.9,1.6,2.6c-0.2,0.1-0.3,0.3-0.3,0.5h-3.2c0-0.2-0.1-0.4-0.3-0.5C276.3,293,277,291.8,277.4,291.1z"/>
		<path class="st0" d="M310.7,291.2c-0.5,0-0.9,0.3-1,0.8h-3.2l-0.8-0.6v0.6h-3.2c-0.2-1.1-2-1-2,0.2c0,1.2,1.8,1.4,2,0.2h3.2v0.7
			l0.8-0.7h3.2c0.2,0.8,1.1,1.1,1.7,0.5C312,292.3,311.6,291.2,310.7,291.2z M310.7,292.9c-0.8,0-0.8-1.3,0-1.3
			C311.5,291.6,311.5,292.9,310.7,292.9z"/>
		<path class="st0" d="M371.3,167.2h-7.1v5.4h7.1V167.2z M370.6,167.6l-2.1,1.7c-0.5,0.4-0.9,0.5-1.4,0l-2.1-1.7H370.6z
			 M370.9,172.1h-6.2v-4.3l2.1,1.8c0.7,0.5,1.3,0.6,1.9,0l2.2-1.8V172.1z"/>
		<rect x="305.6" y="243.6" class="st0" width="0.8" height="0.8"/>
		<path class="st0" d="M306.1,238.5c-0.5,0-1,0.1-1.3,0.4c-0.3,0.3-0.5,0.7-0.6,1.2l0.7,0.1c0.1-0.4,0.2-0.7,0.4-0.9
			c0.4-0.4,1.1-0.4,1.5,0c0.3,0.3,0.4,0.8,0.2,1.2c-0.1,0.1-0.2,0.3-0.5,0.5c-0.2,0.2-0.4,0.4-0.5,0.5c-0.1,0.2-0.2,0.3-0.3,0.5
			c-0.1,0.2-0.1,0.4-0.1,0.7l0,0.2h0.7c0-0.3,0-0.5,0.1-0.6c0-0.1,0.1-0.2,0.2-0.3c0.1-0.1,0.2-0.2,0.4-0.4c0.3-0.3,0.6-0.6,0.7-0.8
			c0.3-0.6,0.2-1.4-0.3-1.8C307.1,238.7,306.6,238.5,306.1,238.5z"/>
		<path class="st0" d="M155,187.6c-0.4,0-0.7,0.1-1.1,0.2l-0.3-0.6l-0.4,0.2l0.3,0.6c-0.3,0.2-0.5,0.4-0.7,0.7v-0.8h-0.4v2.2
			c0,0,0,0,0,0v2.2h0.4v-0.8c0.7,1,2.1,1.4,3.2,0.9l0.3,0.6l0.4-0.2l-0.3-0.6C158.5,190.8,157.5,187.6,155,187.6z M155,192.3
			c-1.1,0-2.1-0.9-2.1-2.1v-0.1c0-0.7,0.4-1.3,0.9-1.7l2.1,3.6C155.6,192.2,155.3,192.3,155,192.3z M156.3,191.9l-2.1-3.6
			C156.4,187.2,158.3,190.4,156.3,191.9z"/>
		<path class="st0" d="M181.5,115.5c0,0.1-0.2,1.9,1.1,3.4c0.9,1,2.3,1.6,4.1,1.6l172.9,0c0.2,0,0.5,0,0.7-0.1l0.1,0.1l0.1-0.1
			c1.8-0.2,3.2-0.7,4.1-1.7c1.2-1.4,1-3.1,1-3.1c0-1.7,0-40.8,0-41.4c0-1.7-0.6-3-1.6-3.9c-1.4-1.2-3.2-1.2-3.5-1.1
			c-37.3-1.7-121.5-2.5-173.9,0.1c-1.6,0.1-2.8,0.6-3.6,1.5c-1.4,1.5-1.3,3.5-1.3,3.6L181.5,115.5z M195.4,105.8c0,0.2,0,0.3,0,0.5
			l-12.6,8.3l0-39.5l12.6,8c0,0.1,0,0.1,0,0.2L195.4,105.8z M182.8,116l12.9-8.4c0.1,0.2,0.2,0.4,0.3,0.5c0.1,0.2,0.3,0.3,0.5,0.4
			l-10.1,10.8c-1.2-0.1-2.2-0.5-2.8-1.1C182.9,117.4,182.8,116.5,182.8,116z M198.5,81.7c0.1,0,0.3,0,0.5,0l149.1,0.1
			c2.4,0,2.4,0.7,2.4,1v23.4c0,0.5-0.2,1.3-2.4,1.3H198.9l-0.3,0c-0.8,0-1.5,0-1.8-0.3c-0.2-0.2-0.3-0.7-0.2-1.4l-0.1-22.6
			C196.6,82,197.1,81.7,198.5,81.7z M188,119.3l9.8-10.6c0.3,0,0.5,0,0.8,0l149.5,0c0.4,0,0.7,0,1-0.1l10.1,10.6L188,119.3z
			 M360.8,119.1l-10.4-10.9c0.3-0.1,0.5-0.3,0.7-0.6l13.1,8.4c0,0.4-0.1,1.2-0.7,1.8C363,118.5,362.1,119,360.8,119.1z M364.3,75.5
			c0,6.3,0,33.4,0,39.1l-12.6-8c0-0.1,0-0.2,0-0.2l0-22.9L364.3,75.5z M360.7,70.3c0.5,0,1.6,0.1,2.4,0.8c0.7,0.6,1.1,1.6,1.1,2.9
			l-12.7,8c-0.2-0.5-0.7-0.9-1.2-1.1L360.7,70.3z M271.2,68.8c34.4,0,67.6,0.6,87.9,1.5l-10.1,10.4c-0.3,0-0.6,0-0.9,0L199,80.5
			c-0.4,0-0.9,0-1.4,0.1l-10-10.2C211.5,69.3,241.7,68.8,271.2,68.8z M183.7,71.5c0.5-0.6,1.3-0.9,2.2-1L196.3,81
			c-0.3,0.2-0.5,0.4-0.6,0.7l-12.9-8.2C182.9,73,183.1,72.2,183.7,71.5z"/>
		<path class="st0" d="M348.9,83.9H198.3v20.4h150.5V83.9z M347.8,103.3H199.4V85h148.4V103.3z"/>
		<path class="st0" d="M177.7,224.5c0-5-4.3-9.1-9.7-9.1H155c-5.3,0-9.7,4.1-9.7,9.1v1.8c0,5,4.3,9.1,9.7,9.1h13.1
			c5.3,0,9.7-4.1,9.7-9.1V224.5z M176.5,226.3c0,4.3-3.8,7.9-8.5,7.9H155c-4.7,0-8.5-3.5-8.5-7.9v-1.8c0-4.3,3.8-7.9,8.5-7.9h13.1
			c4.7,0,8.5,3.5,8.5,7.9V226.3z"/>
		<path class="st0" d="M165.1,190.8v-1c0-2.9-2.7-5.3-6-5.3h-7.8c-3.3,0-6,2.4-6,5.3v1c0,2.9,2.7,5.3,6,5.3h7.8
			C162.4,196,165.1,193.7,165.1,190.8z M159.1,194.8h-7.8c-2.6,0-4.8-1.8-4.8-4v-1c0-2.2,2.1-4,4.8-4h7.8c2.6,0,4.8,1.8,4.8,4v1
			C163.8,193,161.7,194.8,159.1,194.8z"/>
		<path class="st0" d="M190.4,190.8v-1c0-2.9-2.7-5.3-6-5.3h-7.8c-3.3,0-6,2.4-6,5.3v1c0,2.9,2.7,5.3,6,5.3h7.8
			C187.7,196,190.4,193.7,190.4,190.8z M171.8,190.8v-1c0-2.2,2.1-4,4.8-4h7.8c2.6,0,4.8,1.8,4.8,4v1c0,2.2-2.1,4-4.8,4h-7.8
			C174,194.8,171.8,193,171.8,190.8z"/>
		<path class="st0" d="M215.8,189.8c0-2.9-2.7-5.3-6-5.3H202c-3.3,0-6,2.4-6,5.3v1c0,2.9,2.7,5.3,6,5.3h7.8c3.3,0,6-2.4,6-5.3V189.8
			z M214.5,190.8c0,2.2-2.1,4-4.8,4H202c-2.6,0-4.8-1.8-4.8-4v-1c0-2.2,2.1-4,4.8-4h7.8c2.6,0,4.8,1.8,4.8,4V190.8z"/>
		<path class="st0" d="M350.2,170.5v-1c0-2.9-2.7-5.3-6-5.3h-7.8c-3.3,0-6,2.4-6,5.3v1c0,2.9,2.7,5.3,6,5.3h7.8
			C347.5,175.8,350.2,173.4,350.2,170.5z M344.2,174.6h-7.8c-2.6,0-4.8-1.8-4.8-4v-1c0-2.2,2.1-4,4.8-4h7.8c2.6,0,4.8,1.8,4.8,4v1
			C348.9,172.7,346.8,174.6,344.2,174.6z"/>
		<path class="st0" d="M357.7,169.6v1c0,2.9,2.7,5.3,6,5.3h7.8c3.3,0,6-2.4,6-5.3v-1c0-2.9-2.7-5.3-6-5.3h-7.8
			C360.4,164.3,357.7,166.7,357.7,169.6z M363.7,165.5h7.8c2.6,0,4.8,1.8,4.8,4v1c0,2.2-2.1,4-4.8,4h-7.8c-2.6,0-4.8-1.8-4.8-4v-1
			C358.9,167.3,361,165.5,363.7,165.5z"/>
		<path class="st0" d="M267.8,241.9c0,2.9,2.7,5.3,6,5.3h7.8c3.3,0,6-2.4,6-5.3v-1c0-2.9-2.7-5.3-6-5.3h-7.8c-3.3,0-6,2.4-6,5.3
			V241.9z M269,240.9c0-2.2,2.1-4,4.8-4h7.8c2.6,0,4.8,1.8,4.8,4v1c0,2.2-2.1,4-4.8,4h-7.8c-2.6,0-4.8-1.8-4.8-4V240.9z"/>
		<path class="st0" d="M315.9,240.9c0-2.9-2.7-5.3-6-5.3h-7.8c-3.3,0-6,2.4-6,5.3v1c0,2.9,2.7,5.3,6,5.3h7.8c3.3,0,6-2.4,6-5.3
			V240.9z M314.6,241.9c0,2.2-2.1,4-4.8,4h-7.8c-2.6,0-4.8-1.8-4.8-4v-1c0-2.2,2.1-4,4.8-4h7.8c2.6,0,4.8,1.8,4.8,4V241.9z"/>
		<path class="st0" d="M287.5,221.7v-1c0-2.9-2.7-5.3-6-5.3h-7.8c-3.3,0-6,2.4-6,5.3v1c0,2.9,2.7,5.3,6,5.3h7.8
			C284.9,226.9,287.5,224.6,287.5,221.7z M281.5,225.7h-7.8c-2.6,0-4.8-1.8-4.8-4v-1c0-2.2,2.1-4,4.8-4h7.8c2.6,0,4.8,1.8,4.8,4v1
			C286.3,223.9,284.2,225.7,281.5,225.7z"/>
		<path class="st0" d="M315.9,220.7c0-2.9-2.7-5.3-6-5.3h-7.8c-3.3,0-6,2.4-6,5.3v1c0,2.9,2.7,5.3,6,5.3h7.8c3.3,0,6-2.4,6-5.3
			V220.7z M314.6,221.7c0,2.2-2.1,4-4.8,4h-7.8c-2.6,0-4.8-1.8-4.8-4v-1c0-2.2,2.1-4,4.8-4h7.8c2.6,0,4.8,1.8,4.8,4V221.7z"/>
		<path class="st0" d="M233,138h-7.8c-3.3,0-6,2.4-6,5.3v1c0,2.9,2.7,5.3,6,5.3h7.8c3.3,0,6-2.4,6-5.3v-1
			C239,140.3,236.3,138,233,138z M237.8,144.2c0,2.2-2.1,4-4.8,4h-7.8c-2.6,0-4.8-1.8-4.8-4v-1c0-2.2,2.1-4,4.8-4h7.8
			c2.6,0,4.8,1.8,4.8,4V144.2z"/>
		<path class="st0" d="M254.8,149.5h7.8c3.3,0,6-2.4,6-5.3v-1c0-2.9-2.7-5.3-6-5.3h-7.8c-3.3,0-6,2.4-6,5.3v1
			C248.8,147.1,251.5,149.5,254.8,149.5z M250,143.2c0-2.2,2.1-4,4.8-4h7.8c2.6,0,4.8,1.8,4.8,4v1c0,2.2-2.1,4-4.8,4h-7.8
			c-2.6,0-4.8-1.8-4.8-4V143.2z"/>
		<path class="st0" d="M292.1,149.5c3.3,0,6-2.4,6-5.3v-1c0-2.9-2.7-5.3-6-5.3h-7.8c-3.3,0-6,2.4-6,5.3v1c0,2.9,2.7,5.3,6,5.3H292.1
			z M279.6,144.2v-1c0-2.2,2.1-4,4.8-4h7.8c2.6,0,4.8,1.8,4.8,4v1c0,2.2-2.1,4-4.8,4h-7.8C281.7,148.2,279.6,146.4,279.6,144.2z"/>
		<path class="st0" d="M327.7,144.2v-1c0-2.9-2.7-5.3-6-5.3h-7.8c-3.3,0-6,2.4-6,5.3v1c0,2.9,2.7,5.3,6,5.3h7.8
			C325,149.5,327.7,147.1,327.7,144.2z M309.1,144.2v-1c0-2.2,2.1-4,4.8-4h7.8c2.6,0,4.8,1.8,4.8,4v1c0,2.2-2.1,4-4.8,4h-7.8
			C311.3,148.2,309.1,146.4,309.1,144.2z"/>
		<path class="st0" d="M267.8,262.2c0,2.9,2.7,5.3,6,5.3h7.8c3.3,0,6-2.4,6-5.3v-1c0-2.9-2.7-5.3-6-5.3h-7.8c-3.3,0-6,2.4-6,5.3
			V262.2z M269,261.3c0-2.2,2.1-4,4.8-4h7.8c2.6,0,4.8,1.8,4.8,4v1c0,2.2-2.1,4-4.8,4h-7.8c-2.6,0-4.8-1.8-4.8-4V261.3z"/>
		<path class="st0" d="M315.9,261.3c0-2.9-2.7-5.3-6-5.3h-7.8c-3.3,0-6,2.4-6,5.3v1c0,2.9,2.7,5.3,6,5.3h7.8c3.3,0,6-2.4,6-5.3
			V261.3z M314.6,262.2c0,2.2-2.1,4-4.8,4h-7.8c-2.6,0-4.8-1.8-4.8-4v-1c0-2.2,2.1-4,4.8-4h7.8c2.6,0,4.8,1.8,4.8,4V262.2z"/>
		<path class="st0" d="M267.8,292.6c0,2.9,2.7,5.3,6,5.3h7.8c3.3,0,6-2.4,6-5.3v-1c0-2.9-2.7-5.3-6-5.3h-7.8c-3.3,0-6,2.4-6,5.3
			V292.6z M269,291.6c0-2.2,2.1-4,4.8-4h7.8c2.6,0,4.8,1.8,4.8,4v1c0,2.2-2.1,4-4.8,4h-7.8c-2.6,0-4.8-1.8-4.8-4V291.6z"/>
		<path class="st0" d="M315.9,291.6c0-2.9-2.7-5.3-6-5.3h-7.8c-3.3,0-6,2.4-6,5.3v1c0,2.9,2.7,5.3,6,5.3h7.8c3.3,0,6-2.4,6-5.3
			V291.6z M314.6,292.6c0,2.2-2.1,4-4.8,4h-7.8c-2.6,0-4.8-1.8-4.8-4v-1c0-2.2,2.1-4,4.8-4h7.8c2.6,0,4.8,1.8,4.8,4V292.6z"/>
		<path class="st0" d="M287.5,312.9v-1c0-2.9-2.7-5.3-6-5.3h-7.8c-3.3,0-6,2.4-6,5.3v1c0,2.9,2.7,5.3,6,5.3h7.8
			C284.9,318.1,287.5,315.8,287.5,312.9z M269,312.9v-1c0-2.2,2.1-4,4.8-4h7.8c2.6,0,4.8,1.8,4.8,4v1c0,2.2-2.1,4-4.8,4h-7.8
			C271.1,316.9,269,315.1,269,312.9z"/>
		<path class="st0" d="M315.9,312.9v-1c0-2.9-2.7-5.3-6-5.3h-7.8c-3.3,0-6,2.4-6,5.3v1c0,2.9,2.7,5.3,6,5.3h7.8
			C313.2,318.1,315.9,315.8,315.9,312.9z M309.9,316.9h-7.8c-2.6,0-4.8-1.8-4.8-4v-1c0-2.2,2.1-4,4.8-4h7.8c2.6,0,4.8,1.8,4.8,4v1
			C314.6,315.1,312.5,316.9,309.9,316.9z"/>
		<path class="st0" d="M215.3,224.5c0-5-4.3-9.1-9.7-9.1h-13.1c-5.3,0-9.7,4.1-9.7,9.1v1.8c0,5,4.3,9.1,9.7,9.1h13.1
			c5.3,0,9.7-4.1,9.7-9.1V224.5z M214,226.3c0,4.3-3.8,7.9-8.5,7.9h-13.1c-4.7,0-8.5-3.5-8.5-7.9v-1.8c0-4.3,3.8-7.9,8.5-7.9h13.1
			c4.7,0,8.5,3.5,8.5,7.9V226.3z"/>
		<path class="st0" d="M253,224.5c0-5-4.3-9.1-9.7-9.1h-13.1c-5.3,0-9.7,4.1-9.7,9.1v1.8c0,5,4.3,9.1,9.7,9.1h13.1
			c5.3,0,9.7-4.1,9.7-9.1V224.5z M251.8,226.3c0,4.3-3.8,7.9-8.5,7.9h-13.1c-4.7,0-8.5-3.5-8.5-7.9v-1.8c0-4.3,3.8-7.9,8.5-7.9h13.1
			c4.7,0,8.5,3.5,8.5,7.9V226.3z"/>
		<path class="st0" d="M177.7,252.6c0-5-4.3-9.1-9.7-9.1H155c-5.3,0-9.7,4.1-9.7,9.1v1.8c0,5,4.3,9.1,9.7,9.1h13.1
			c5.3,0,9.7-4.1,9.7-9.1V252.6z M176.5,254.4c0,4.3-3.8,7.9-8.5,7.9H155c-4.7,0-8.5-3.5-8.5-7.9v-1.8c0-4.3,3.8-7.9,8.5-7.9h13.1
			c4.7,0,8.5,3.5,8.5,7.9V254.4z"/>
		<path class="st0" d="M215.3,252.6c0-5-4.3-9.1-9.7-9.1h-13.1c-5.3,0-9.7,4.1-9.7,9.1v1.8c0,5,4.3,9.1,9.7,9.1h13.1
			c5.3,0,9.7-4.1,9.7-9.1V252.6z M214,254.4c0,4.3-3.8,7.9-8.5,7.9h-13.1c-4.7,0-8.5-3.5-8.5-7.9v-1.8c0-4.3,3.8-7.9,8.5-7.9h13.1
			c4.7,0,8.5,3.5,8.5,7.9V254.4z"/>
		<path class="st0" d="M253,252.6c0-5-4.3-9.1-9.7-9.1h-13.1c-5.3,0-9.7,4.1-9.7,9.1v1.8c0,5,4.3,9.1,9.7,9.1h13.1
			c5.3,0,9.7-4.1,9.7-9.1V252.6z M251.8,254.4c0,4.3-3.8,7.9-8.5,7.9h-13.1c-4.7,0-8.5-3.5-8.5-7.9v-1.8c0-4.3,3.8-7.9,8.5-7.9h13.1
			c4.7,0,8.5,3.5,8.5,7.9V254.4z"/>
		<path class="st0" d="M177.7,280.6c0-5-4.3-9.1-9.7-9.1H155c-5.3,0-9.7,4.1-9.7,9.1v1.8c0,5,4.3,9.1,9.7,9.1h13.1
			c5.3,0,9.7-4.1,9.7-9.1V280.6z M176.5,282.4c0,4.3-3.8,7.9-8.5,7.9H155c-4.7,0-8.5-3.5-8.5-7.9v-1.8c0-4.3,3.8-7.9,8.5-7.9h13.1
			c4.7,0,8.5,3.5,8.5,7.9V282.4z"/>
		<path class="st0" d="M215.3,280.6c0-5-4.3-9.1-9.7-9.1h-13.1c-5.3,0-9.7,4.1-9.7,9.1v1.8c0,5,4.3,9.1,9.7,9.1h13.1
			c5.3,0,9.7-4.1,9.7-9.1V280.6z M214,282.4c0,4.3-3.8,7.9-8.5,7.9h-13.1c-4.7,0-8.5-3.5-8.5-7.9v-1.8c0-4.3,3.8-7.9,8.5-7.9h13.1
			c4.7,0,8.5,3.5,8.5,7.9V282.4z"/>
		<path class="st0" d="M253,280.6c0-5-4.3-9.1-9.7-9.1h-13.1c-5.3,0-9.7,4.1-9.7,9.1v1.8c0,5,4.3,9.1,9.7,9.1h13.1
			c5.3,0,9.7-4.1,9.7-9.1V280.6z M251.8,282.4c0,4.3-3.8,7.9-8.5,7.9h-13.1c-4.7,0-8.5-3.5-8.5-7.9v-1.8c0-4.3,3.8-7.9,8.5-7.9h13.1
			c4.7,0,8.5,3.5,8.5,7.9V282.4z"/>
		<path class="st0" d="M155,319.6h13.1c5.3,0,9.7-4.1,9.7-9.1v-1.8c0-5-4.3-9.1-9.7-9.1H155c-5.3,0-9.7,4.1-9.7,9.1v1.8
			C145.3,315.5,149.6,319.6,155,319.6z M146.5,308.7c0-4.3,3.8-7.9,8.5-7.9h13.1c4.7,0,8.5,3.5,8.5,7.9v1.8c0,4.3-3.8,7.9-8.5,7.9
			H155c-4.7,0-8.5-3.5-8.5-7.9V308.7z"/>
		<path class="st0" d="M192.5,319.6h13.1c5.3,0,9.7-4.1,9.7-9.1v-1.8c0-5-4.3-9.1-9.7-9.1h-13.1c-5.3,0-9.7,4.1-9.7,9.1v1.8
			C182.8,315.5,187.2,319.6,192.5,319.6z M184.1,308.7c0-4.3,3.8-7.9,8.5-7.9h13.1c4.7,0,8.5,3.5,8.5,7.9v1.8c0,4.3-3.8,7.9-8.5,7.9
			h-13.1c-4.7,0-8.5-3.5-8.5-7.9V308.7z"/>
		<path class="st0" d="M230.2,319.6h13.1c5.3,0,9.7-4.1,9.7-9.1v-1.8c0-5-4.3-9.1-9.7-9.1h-13.1c-5.3,0-9.7,4.1-9.7,9.1v1.8
			C220.5,315.5,224.9,319.6,230.2,319.6z M221.8,308.7c0-4.3,3.8-7.9,8.5-7.9h13.1c4.7,0,8.5,3.5,8.5,7.9v1.8c0,4.3-3.8,7.9-8.5,7.9
			h-13.1c-4.7,0-8.5-3.5-8.5-7.9V308.7z"/>
		<path class="st0" d="M190.5,170c0-3.1-2.5-5.7-5.7-5.7H151c-3.1,0-5.7,2.6-5.7,5.7c0,3.1,2.6,5.7,5.7,5.7h33.8
			C187.9,175.7,190.5,173.2,190.5,170z M146.5,170c0-2.5,2-4.5,4.5-4.5h33.8c2.4,0,4.5,2,4.5,4.5c0,2.4-2,4.5-4.5,4.5H151
			C148.5,174.5,146.5,172.5,146.5,170z"/>
		<path class="st0" d="M385.9,170c0,2,1.7,3.6,3.7,3.6h6.6c2,0,3.7-1.6,3.7-3.6c0-2-1.7-3.6-3.7-3.6h-6.6
			C387.5,166.4,385.9,168,385.9,170z M398.6,170c0,1.3-1.1,2.4-2.5,2.4h-6.6c-3.2,0-3.2-4.8,0-4.8h6.6
			C397.5,167.6,398.6,168.7,398.6,170z"/>
		<path class="st0" d="M296.2,180.1c0-9.5-6.1-18.2-15.1-21.4c-9-3.3-19.3-0.4-25.3,7c-6.1,7.4-6.9,18.1-1.9,26.2
			c4.9,8.1,14.6,12.5,24,10.6C288.4,200.4,296.2,190.9,296.2,180.1z M273.4,201.7c-8.9,0-17.2-5.8-20.3-14.2
			c-3.1-8.5-0.4-18.3,6.5-24c7-5.8,17.1-6.5,24.9-1.8c7.7,4.7,11.8,13.9,10,22.8C292.6,194.4,283.6,201.7,273.4,201.7z"/>
		<path class="st0" d="M394.6,206.6c3.3,0,6-2.4,6-5.3v-1c0-2.9-2.7-5.2-6-5.2h-12.8v0H348v10.2h-11.6c-3.3,0-6,2.4-6,5.2v1
			c0,2.9,2.7,5.3,6,5.3H348v8.8h-11.6c-3.3,0-6,2.4-6,5.2v1c0,2.9,2.7,5.3,6,5.3H348v8.8h-11.6c-3.3,0-6,2.4-6,5.3v1
			c0,2.9,2.7,5.3,6,5.3H348v8.8h-11.6c-3.3,0-6,2.4-6,5.3v1c0,2.9,2.7,5.3,6,5.3H348v8.7h-11.6c-3.3,0-6,2.4-6,5.3v1
			c0,2.9,2.7,5.3,6,5.3H348v1.6h0v5.9h0v1.3h-11.6c-3.3,0-6,2.4-6,5.3v1c0,2.9,2.7,5.3,6,5.3h12.8v0H383V308h11.6c3.3,0,6-2.4,6-5.3
			v-1c0-2.9-2.7-5.2-6-5.2H383v-8.8h11.6c3.3,0,6-2.4,6-5.3v-1c0-2.9-2.7-5.3-6-5.3H383v-8.7h11.6c3.3,0,6-2.4,6-5.3v-1
			c0-2.9-2.7-5.3-6-5.3H383v-8.8h11.6c3.3,0,6-2.4,6-5.3v-1c0-2.9-2.7-5.3-6-5.3H383v-8.8h11.6c3.3,0,6-2.4,6-5.3v-1
			c0-2.9-2.7-5.2-6-5.2H383v-8.8H394.6z M331.6,211.6v-1c0-2.2,2.1-4,4.8-4h7v9h-7C333.7,215.6,331.6,213.8,331.6,211.6z M348,215.6
			h-3.4v-9h3.4V215.6z M331.6,231.8v-1c0-2.2,2.1-4,4.8-4h7v9h-7C333.7,235.9,331.6,234.1,331.6,231.8z M348,235.9h-3.4v-9h3.4
			V235.9z M331.6,252.1v-1c0-2.2,2.1-4,4.8-4h7v9h-7C333.7,256.2,331.6,254.4,331.6,252.1z M348,256.2h-3.4v-9h3.4V256.2z
			 M331.6,272.4v-1c0-2.2,2.1-4,4.8-4h7v9h-7C333.7,276.5,331.6,274.6,331.6,272.4z M348,276.5h-3.4v-9h3.4V276.5z M331.6,292.6v-1
			c0-2.2,2.1-4,4.8-4h7v9h-7C333.7,296.7,331.6,294.8,331.6,292.6z M348,296.7h-3.4v-9h3.4V296.7z M399.4,301.8v1c0,2.2-2.1,4-4.8,4
			h-7v-9h7C397.3,297.7,399.4,299.5,399.4,301.8z M383,297.7h3.4v9H383V297.7z M399.4,281.5v1c0,2.2-2.1,4-4.8,4h-7v-9h7
			C397.3,277.4,399.4,279.2,399.4,281.5z M383,277.4h3.4v9H383V277.4z M399.4,261.3v1c0,2.2-2.1,4-4.8,4h-7v-9h7
			C397.3,257.2,399.4,259,399.4,261.3z M383,257.2h3.4v9H383V257.2z M399.4,241v1c0,2.2-2.1,4-4.8,4h-7v-9h7
			C397.3,236.9,399.4,238.8,399.4,241z M383,236.9h3.4v9H383V236.9z M399.4,220.7v1c0,2.2-2.1,4-4.8,4h-7v-9h7
			C397.3,216.7,399.4,218.5,399.4,220.7z M383,216.7h3.4v9H383V216.7z M399.4,200.4v1c0,2.2-2.1,4-4.8,4h-7v-9h7
			C397.3,196.4,399.4,198.2,399.4,200.4z M383,196.4h3.4v9H383V196.4z M349.2,300.7c2.1,0.2,2.1,3.3,0,3.5V300.7z M331.6,312.9v-1
			c0-2.2,2.1-4,4.8-4h7v9h-7C333.7,316.9,331.6,315.1,331.6,312.9z M348,316.9h-3.4v-9h3.4V316.9z M349.2,316.9v-11.5
			c3.7-0.2,3.7-5.7,0-5.9v-75.3c3.8-0.1,3.9-5.8,0-5.9v-21.9h32.5v11.7c-3.9,0-3.9,5.9,0,5.9v75.3c-3.8,0.1-3.8,5.8,0,5.9v21.7
			H349.2z M349.2,222.9v-3.5C351.5,219.5,351.5,222.9,349.2,222.9z M381.7,209.3v3.5C379.4,212.7,379.4,209.4,381.7,209.3z
			 M381.7,290.5v3.5C379.6,293.8,379.6,290.7,381.7,290.5z"/>
		<path class="st0" d="M319.7,180.2c0-5.5-4.4-9.9-9.9-9.9v0h-8.7v0c-0.7,0-1.4,0.3-1.8,0.9c-0.4,0.6-0.6,1.3-0.4,2l0,0
			c1.3,4.8,1.3,9.3,0,14.1l0,0c-0.2,0.7,0,1.4,0.4,2c0.4,0.6,1.1,0.9,1.8,0.9v0h8.7v0C315.3,190.1,319.7,185.6,319.7,180.2z
			 M309.8,188.9h-8.6v0c-0.3,0-0.7-0.2-0.9-0.4c-0.2-0.3-0.3-0.6-0.2-1l0,0c1.4-5,1.4-9.6,0-14.6l0,0c-0.2-0.7,0.3-1.4,1.1-1.4v0
			h8.6v0c4.7,0,8.7,4,8.7,8.7C318.5,184.9,314.5,188.9,309.8,188.9z"/>
		<path class="st0" d="M237.1,170.2v1.2h8.6v0c0.3,0,0.7,0.2,0.9,0.4c0.2,0.3,0.3,0.6,0.2,1l0,0c-1.4,5.1-1.4,9.6,0,14.6h0
			c0.1,0.3,0,0.7-0.2,1c-0.2,0.3-0.5,0.4-0.9,0.4v0h-8.6v0c-4.7,0-8.7-4-8.7-8.7c0-4.7,4-8.7,8.7-8.7L237.1,170.2
			c-5.4,0-9.9,4.5-9.9,9.9c0,5.4,4.5,9.9,9.9,9.9v0h8.7v0c0.7,0,1.3-0.3,1.8-0.9c0.4-0.6,0.6-1.3,0.4-2l-0.6,0.2l0.6-0.2
			c-1.3-4.8-1.3-9.1,0-14l-0.9-0.2l0.9,0.2c0.2-0.7,0-1.4-0.4-2c-0.4-0.6-1.1-0.9-1.8-0.9v0H237.1z"/>
		<path class="st0" d="M268.6,166.9h9.3l-4.7-8.1L268.6,166.9z M270.7,165.7l2.6-4.4l2.6,4.4H270.7z"/>
		<path class="st0" d="M273.3,201.5l4.7-8.1h-9.3L273.3,201.5z M273.3,199l-2.6-4.4h5.1L273.3,199z"/>
		<path class="st0" d="M286.6,175.5v9.3l8.1-4.7L286.6,175.5z M287.8,177.6l4.4,2.6l-4.4,2.6V177.6z"/>
		<path class="st0" d="M260.1,184.8v-9.3l-8.1,4.7L260.1,184.8z M258.9,182.7l-4.4-2.6l4.4-2.6V182.7z"/>
		<polygon class="st0" points="198.8,197.7 198.8,200.5 199.2,200.5 199.2,199.2 200.6,199.2 200.6,200.5 201,200.5 201,197.7
			200.6,197.7 200.6,198.9 199.2,198.9 199.2,197.7 		"/>
		<path class="st0" d="M203.3,199.5c0-0.3-0.1-0.6-0.3-0.8c-0.3-0.4-1-0.3-1.3,0c-0.3,0.4-0.4,1.1,0,1.5c0.3,0.3,0.9,0.4,1.3,0.1
			c0.1-0.1,0.2-0.3,0.3-0.5l-0.3,0c0,0.1-0.1,0.2-0.2,0.3c-0.2,0.2-0.6,0.1-0.7-0.1c-0.1-0.1-0.2-0.3-0.2-0.5L203.3,199.5
			L203.3,199.5z M201.8,199.3c0-0.2,0.1-0.3,0.2-0.4c0.2-0.2,0.6-0.2,0.8,0c0.1,0.1,0.1,0.2,0.1,0.4H201.8z"/>
		<path class="st0" d="M204.3,199.3c-0.1,0-0.2,0-0.3,0l-0.2,0.1l-0.2,0.2l-0.1,0.3c0,0.2,0.1,0.3,0.2,0.4c0.2,0.2,0.6,0.2,0.9,0.1
			c0.1,0,0.2-0.1,0.4-0.2l0.1,0.2h0.3l-0.1-0.2c0-0.1,0-0.3,0-0.6v-0.4c0-0.1,0-0.2,0-0.3l-0.1-0.2c0-0.1-0.1-0.1-0.2-0.2
			c-0.3-0.1-0.6-0.1-0.9,0c-0.1,0-0.2,0.1-0.3,0.2c-0.1,0.1-0.1,0.2-0.1,0.3l0.3,0c0-0.1,0.1-0.2,0.2-0.3c0.2-0.1,0.6-0.1,0.7,0
			c0.1,0.1,0.1,0.2,0.1,0.3v0.1C204.8,199.3,204.6,199.3,204.3,199.3z M204.9,199.9c0,0.1-0.1,0.2-0.2,0.2c-0.2,0.1-0.4,0.1-0.6,0
			l-0.1-0.2l0-0.2l0.1-0.1c0.1,0,0.2,0,0.3-0.1c0.2,0,0.4-0.1,0.5-0.1l0,0.1C204.9,199.8,204.9,199.9,204.9,199.9z"/>
		<path class="st0" d="M207.4,200.5v-2.7H207v1l-0.2-0.2c-0.2-0.1-0.5-0.1-0.8,0.1c-0.1,0.1-0.2,0.2-0.3,0.4c-0.1,0.3-0.1,0.7,0,1.1
			c0.1,0.2,0.2,0.3,0.3,0.4c0.3,0.2,0.8,0.2,1-0.2v0.3H207.4z M206.9,200.1c-0.2,0.2-0.5,0.2-0.8,0c-0.2-0.3-0.2-0.9,0-1.1
			c0.2-0.2,0.6-0.2,0.8,0C207.1,199.2,207.2,199.8,206.9,200.1z"/>
		<path class="st0" d="M208.6,200.2c-0.2,0-0.3,0-0.4-0.1c-0.1-0.1-0.1-0.2-0.2-0.3l-0.3,0.1c0,0.2,0.1,0.4,0.3,0.5
			c0.3,0.2,0.7,0.2,1,0.1c0.1-0.1,0.2-0.1,0.3-0.2c0.1-0.2,0.1-0.4,0-0.6l-0.2-0.2c-0.1,0-0.3-0.1-0.5-0.2c-0.2,0-0.3-0.1-0.3-0.1
			l-0.1-0.1l0-0.1l0.1-0.2c0.2-0.1,0.5-0.1,0.6,0c0.1,0.1,0.1,0.1,0.1,0.2l0.3,0c0-0.1-0.1-0.2-0.1-0.3c-0.1-0.1-0.1-0.1-0.3-0.2
			c-0.2-0.1-0.5-0.1-0.7,0l-0.2,0.1l-0.2,0.2l-0.1,0.2l0.1,0.3l0.2,0.2c0.1,0,0.3,0.1,0.5,0.2c0.2,0,0.3,0.1,0.3,0.1l0.1,0.2
			l-0.1,0.2C208.9,200.2,208.8,200.2,208.6,200.2z"/>
		<path class="st0" d="M211.5,199.5c0-0.3-0.1-0.6-0.3-0.8c-0.3-0.4-1-0.4-1.3,0c-0.3,0.4-0.4,1.2,0,1.5c0.3,0.3,0.9,0.4,1.3,0.1
			c0.1-0.1,0.2-0.3,0.3-0.5l-0.3,0c-0.1,0.1-0.1,0.2-0.2,0.3c-0.2,0.2-0.6,0.1-0.7-0.1c-0.1-0.1-0.2-0.3-0.2-0.5L211.5,199.5
			L211.5,199.5z M210.1,199.3c0-0.2,0.1-0.3,0.2-0.4c0.2-0.2,0.6-0.2,0.8,0c0.1,0.1,0.1,0.2,0.1,0.4H210.1z"/>
		<path class="st0" d="M212,198v0.5h-0.2v0.3h0.2v1.1c0,0.2,0,0.3,0,0.4l0.1,0.2c0.1,0,0.2,0.1,0.3,0.1l0.3,0l0-0.3l-0.1,0l-0.1,0
			l-0.1-0.1l0-0.2v-1.2h0.3v-0.3h-0.3v-0.7L212,198z"/>
		<path class="st0" d="M153.9,200.4v-2.7h-0.5l-0.7,1.9c-0.1,0.2-0.1,0.3-0.1,0.4c0-0.1-0.1-0.2-0.1-0.4l-0.7-1.9h-0.5v2.7h0.3v-2.3
			l0.8,2.3h0.3l0.8-2.3v2.3H153.9z"/>
		<path class="st0" d="M156,200.4v-2h-0.3v1.1c0,0.2,0,0.3-0.1,0.4l-0.2,0.2c-0.2,0.1-0.4,0.1-0.5,0l-0.1-0.2c0-0.1,0-0.2,0-0.4
			v-1.1h-0.3v1.2c0,0.1,0,0.2,0,0.3c0,0.1,0.1,0.2,0.1,0.2c0.1,0.1,0.1,0.1,0.2,0.2c0.3,0.1,0.7,0,1-0.3v0.3H156z"/>
		<path class="st0" d="M156.6,200.2l0.1,0.2c0.1,0,0.2,0.1,0.3,0.1l0.3,0l0-0.3l-0.1,0l-0.1,0l-0.1-0.1l0-0.2v-1.2h0.3v-0.3h-0.3
			v-0.7l-0.3,0.2v0.5h-0.2v0.3h0.2v1.1C156.6,200,156.6,200.2,156.6,200.2z"/>
		<path class="st0" d="M159.3,199.4c0-0.3-0.1-0.6-0.3-0.8c-0.3-0.4-1-0.4-1.3,0c-0.4,0.4-0.4,1.2,0,1.5c0.3,0.3,0.9,0.4,1.3,0.1
			c0.1-0.1,0.2-0.3,0.3-0.5l-0.3,0c-0.1,0.1-0.1,0.2-0.2,0.3c-0.2,0.2-0.6,0.1-0.7-0.1c-0.1-0.1-0.2-0.3-0.2-0.5L159.3,199.4
			L159.3,199.4z M157.8,199.2c0-0.2,0.1-0.3,0.2-0.4c0.2-0.2,0.6-0.2,0.8,0c0.1,0.1,0.1,0.2,0.1,0.4H157.8z"/>
		<path class="st0" d="M175.1,200.1c-0.2,0.1-0.5,0.1-0.8,0c-0.1-0.1-0.2-0.1-0.3-0.2c-0.1-0.1-0.1-0.2-0.1-0.3l-0.3,0
			c0,0.2,0.1,0.3,0.1,0.5c0.1,0.1,0.2,0.3,0.4,0.3c0.3,0.1,0.8,0.2,1.1,0c0.2-0.1,0.3-0.2,0.4-0.3c0.2-0.2,0.2-0.6,0-0.8
			c-0.1-0.1-0.2-0.2-0.3-0.3c-0.3-0.1-0.9-0.1-1.1-0.4c-0.2-0.2-0.1-0.4,0-0.5c0.2-0.2,0.7-0.2,0.9,0c0.1,0.1,0.2,0.2,0.2,0.4l0.3,0
			c0-0.2,0-0.3-0.1-0.4c-0.1-0.1-0.2-0.2-0.4-0.3c-0.3-0.1-0.7-0.1-1,0c-0.1,0.1-0.3,0.2-0.3,0.3c-0.2,0.2-0.2,0.5,0,0.7
			c0.1,0.1,0.2,0.2,0.3,0.3c0.1,0.1,0.3,0.1,0.5,0.2c0.2,0.1,0.4,0.1,0.5,0.1c0.1,0,0.2,0.1,0.2,0.2l0.1,0.2l-0.1,0.2
			C175.3,200,175.2,200.1,175.1,200.1z"/>
		<path class="st0" d="M177.9,199.4c0-0.2,0-0.4-0.1-0.5c-0.2-0.4-0.7-0.6-1.1-0.4c-0.1,0.1-0.2,0.1-0.2,0.2v-0.3h-0.3v2.7h0.3v-1
			l0.2,0.2c0.2,0.1,0.5,0.1,0.7-0.1c0.1-0.1,0.2-0.2,0.3-0.4C177.9,199.8,177.9,199.6,177.9,199.4z M177.4,200
			c-0.2,0.2-0.6,0.3-0.8,0c-0.2-0.3-0.2-0.9,0-1.1c0.2-0.2,0.5-0.3,0.8,0C177.7,199.1,177.7,199.7,177.4,200z"/>
		<path class="st0" d="M180,199.4c0-0.3-0.1-0.6-0.3-0.8c-0.3-0.4-1-0.3-1.3,0c-0.3,0.4-0.4,1.1,0,1.5c0.3,0.3,0.9,0.4,1.3,0.1
			c0.1-0.1,0.2-0.3,0.3-0.5l-0.3,0c-0.1,0.1-0.1,0.2-0.2,0.3c-0.2,0.2-0.6,0.1-0.7-0.1c-0.1-0.1-0.2-0.3-0.2-0.5L180,199.4
			L180,199.4z M178.6,199.3c0-0.2,0.1-0.3,0.2-0.4c0.2-0.2,0.6-0.2,0.8,0c0.1,0.1,0.1,0.2,0.1,0.4H178.6z"/>
		<path class="st0" d="M181.1,199.3c-0.1,0-0.2,0-0.3,0l-0.2,0.1l-0.2,0.2l-0.1,0.3c0,0.2,0.1,0.3,0.2,0.4c0.2,0.2,0.6,0.2,0.9,0.1
			c0.1,0,0.2-0.1,0.4-0.2l0.1,0.2h0.3l-0.1-0.2c0-0.1,0-0.3,0-0.6v-0.4c0-0.1,0-0.3,0-0.3l-0.1-0.2c0-0.1-0.1-0.1-0.2-0.2
			c-0.3-0.1-0.6-0.1-0.9,0c-0.1,0-0.2,0.1-0.3,0.2c-0.1,0.1-0.1,0.2-0.1,0.3l0.3,0c0-0.1,0.1-0.2,0.2-0.3c0.2-0.1,0.6-0.1,0.7,0
			c0.1,0.1,0.1,0.2,0.1,0.3v0.1C181.6,199.2,181.4,199.3,181.1,199.3z M181.7,199.9c0,0.1-0.1,0.2-0.2,0.2c-0.2,0.1-0.4,0.1-0.6,0
			l-0.1-0.2l0-0.2l0.1-0.1c0.1,0,0.2,0,0.3-0.1c0.2,0,0.4-0.1,0.5-0.1l0,0.1C181.7,199.7,181.7,199.8,181.7,199.9z"/>
		<polygon class="st0" points="182.9,199.7 183.1,199.4 183.8,200.4 184.2,200.4 183.4,199.2 184.1,198.5 183.7,198.5 182.9,199.3
			182.9,197.7 182.6,197.7 182.6,200.4 182.9,200.4 		"/>
		<path class="st0" d="M186.2,199.4c0-0.3-0.1-0.6-0.2-0.8c-0.3-0.4-1-0.4-1.3,0c-0.3,0.4-0.4,1.1,0,1.5c0.3,0.3,0.9,0.4,1.3,0.1
			c0.1-0.1,0.2-0.3,0.3-0.5l-0.3,0c0,0.1-0.1,0.2-0.2,0.3c-0.2,0.2-0.6,0.1-0.7-0.1c-0.1-0.1-0.2-0.3-0.2-0.5L186.2,199.4
			L186.2,199.4z M184.7,199.3c0-0.2,0.1-0.3,0.2-0.4c0.2-0.2,0.6-0.2,0.8,0c0.1,0.1,0.1,0.2,0.1,0.4H184.7z"/>
		<path class="st0" d="M186.6,198.5v2h0.3v-1c0-0.1,0-0.3,0.1-0.4l0.1-0.2l0.2-0.1l0.2,0.1l0.1-0.3c-0.1-0.1-0.2-0.1-0.3-0.1
			l-0.2,0.1c-0.1,0-0.1,0.1-0.2,0.3v-0.3H186.6z"/>
		<path class="st0" d="M363,178.1c0-0.2,0-0.3-0.1-0.4c-0.1-0.1-0.2-0.2-0.3-0.3c-0.1,0-0.3-0.1-0.6-0.1h-1.2v2.7h0.4v-1.2h0.4
			l0.2,0l0.2,0.1l0.2,0.2c0.1,0.1,0.2,0.2,0.3,0.4l0.4,0.6h0.4l-0.5-0.7c-0.1-0.1-0.2-0.3-0.3-0.4l-0.2-0.1c0.3,0,0.5-0.1,0.6-0.3
			C363,178.5,363,178.3,363,178.1z M362.6,178.4l-0.2,0.2c-0.1,0-0.2,0.1-0.4,0.1h-0.8v-0.9h0.9c0.2,0,0.4,0,0.4,0.1
			c0.1,0.1,0.1,0.2,0.1,0.3L362.6,178.4z"/>
		<path class="st0" d="M365.3,179.1c0-0.3-0.1-0.6-0.3-0.8c-0.3-0.4-1-0.3-1.3,0c-0.3,0.4-0.4,1.2,0,1.5c0.3,0.3,0.9,0.4,1.3,0.1
			c0.1-0.1,0.2-0.3,0.3-0.5l-0.3,0c0,0.1-0.1,0.2-0.2,0.3c-0.2,0.2-0.6,0.1-0.7-0.1c-0.1-0.1-0.2-0.3-0.2-0.5L365.3,179.1
			L365.3,179.1z M363.8,178.9c0-0.2,0.1-0.3,0.2-0.4c0.2-0.2,0.6-0.2,0.8,0c0.1,0.1,0.1,0.2,0.1,0.4H363.8z"/>
		<path class="st0" d="M365.8,179.9l0.1,0.2c0.1,0,0.2,0.1,0.3,0.1l0.3,0l0-0.3l-0.1,0l-0.1,0l-0.1-0.1l0-0.2v-1.2h0.3v-0.3h-0.3
			v-0.7l-0.3,0.2v0.5h-0.2v0.3h0.2v1.1C365.7,179.8,365.8,179.9,365.8,179.9z"/>
		<path class="st0" d="M366.7,178.1v2h0.3v-1c0-0.1,0-0.3,0.1-0.4l0.1-0.2l0.2-0.1l0.2,0.1l0.1-0.3c-0.1-0.1-0.2-0.1-0.3-0.1
			l-0.2,0.1c-0.1,0-0.1,0.1-0.2,0.3v-0.3H366.7z"/>
		<rect x="368" y="177.4" class="st0" width="0.3" height="0.4"/>
		<rect x="368" y="178.1" class="st0" width="0.3" height="2"/>
		<path class="st0" d="M370.6,179.1c0-0.3-0.1-0.6-0.3-0.8c-0.3-0.4-1-0.3-1.3,0c-0.3,0.4-0.4,1.2,0,1.5c0.3,0.3,0.9,0.4,1.3,0.1
			c0.1-0.1,0.2-0.3,0.3-0.5l-0.3,0c0,0.1-0.1,0.2-0.2,0.3c-0.2,0.2-0.6,0.1-0.7-0.1c-0.1-0.1-0.2-0.3-0.2-0.5L370.6,179.1
			L370.6,179.1z M369.1,178.9c0-0.2,0.1-0.3,0.2-0.4c0.2-0.2,0.6-0.2,0.8,0c0.1,0.1,0.1,0.2,0.1,0.4H369.1z"/>
		<path class="st0" d="M371.7,179.7c0-0.1-0.1-0.3-0.1-0.4l-0.4-1.2h-0.4l0.7,2h0.3l0.7-2h-0.3l-0.4,1.2
			C371.8,179.5,371.7,179.6,371.7,179.7z"/>
		<path class="st0" d="M374.6,179.1c0-0.3-0.1-0.6-0.2-0.8c-0.3-0.4-1-0.4-1.3,0c-0.4,0.4-0.4,1.1,0,1.5c0.3,0.3,0.9,0.4,1.3,0.1
			c0.1-0.1,0.2-0.3,0.3-0.5l-0.3,0c-0.1,0.4-0.6,0.6-0.9,0.2c-0.1-0.1-0.2-0.3-0.2-0.5L374.6,179.1L374.6,179.1z M373.1,178.9
			c0-0.2,0.1-0.3,0.2-0.4c0.2-0.2,0.6-0.2,0.8,0c0.1,0.1,0.1,0.2,0.1,0.4H373.1z"/>
		<path class="st0" d="M388,180.1v-2.7h-0.5l-0.7,1.9c-0.1,0.2-0.1,0.3-0.1,0.4c0-0.1-0.1-0.2-0.1-0.4l-0.6-1.9h-0.5v2.7h0.3v-2.3
			l0.8,2.3h0.3l0.8-2.3v2.3H388z"/>
		<path class="st0" d="M390.2,179.1c0-0.3-0.1-0.6-0.3-0.8c-0.3-0.4-1-0.3-1.3,0c-0.3,0.4-0.4,1.2,0,1.5c0.3,0.3,0.9,0.4,1.3,0.1
			c0.1-0.1,0.2-0.3,0.3-0.5l-0.3,0c-0.1,0.4-0.6,0.6-0.9,0.2c-0.1-0.1-0.2-0.3-0.2-0.5L390.2,179.1L390.2,179.1z M388.8,178.9
			c0-0.2,0.1-0.3,0.2-0.4c0.2-0.2,0.6-0.2,0.8,0c0.1,0.1,0.1,0.2,0.1,0.4H388.8z"/>
		<path class="st0" d="M391.4,179.9c-0.2,0-0.3,0-0.4-0.1c-0.1-0.1-0.1-0.2-0.2-0.3l-0.3,0.1c0,0.2,0.1,0.4,0.3,0.5
			c0.3,0.2,0.7,0.2,1,0.1c0.1-0.1,0.2-0.1,0.3-0.2c0.1-0.2,0.1-0.4,0-0.6l-0.2-0.2c-0.1,0-0.3-0.1-0.5-0.2c-0.2,0-0.3-0.1-0.3-0.1
			l-0.1-0.1l0-0.1l0.1-0.2c0.2-0.1,0.4-0.1,0.6,0c0.1,0.1,0.1,0.1,0.1,0.2l0.3,0c0-0.1-0.1-0.2-0.1-0.3c-0.1-0.1-0.1-0.1-0.3-0.2
			c-0.2-0.1-0.5-0.1-0.7,0l-0.2,0.1l-0.2,0.2l-0.1,0.2l0.1,0.3l0.2,0.2c0.1,0,0.3,0.1,0.5,0.2c0.2,0,0.3,0.1,0.3,0.1l0.1,0.2
			l-0.1,0.2C391.6,179.9,391.5,179.9,391.4,179.9z"/>
		<path class="st0" d="M393.3,179.9c-0.2,0-0.3,0-0.4-0.1c-0.1-0.1-0.1-0.2-0.2-0.3l-0.3,0.1c0,0.2,0.1,0.4,0.3,0.5
			c0.3,0.2,0.7,0.2,1,0.1c0.1-0.1,0.2-0.1,0.3-0.2c0.1-0.2,0.1-0.4,0-0.6l-0.2-0.2c-0.1,0-0.3-0.1-0.5-0.2c-0.2,0-0.3-0.1-0.3-0.1
			l-0.1-0.1l0-0.1l0.1-0.2c0.2-0.1,0.4-0.1,0.6,0c0.1,0.1,0.1,0.1,0.1,0.2l0.3,0c0-0.1-0.1-0.2-0.1-0.3c-0.2-0.3-0.7-0.3-1-0.2
			l-0.2,0.1l-0.2,0.2l-0.1,0.2l0.1,0.3l0.2,0.2c0.1,0,0.3,0.1,0.5,0.2c0.2,0,0.3,0.1,0.3,0.1l0.1,0.2l-0.1,0.2
			C393.5,179.9,393.4,179.9,393.3,179.9z"/>
		<path class="st0" d="M395.1,179c-0.1,0-0.2,0-0.3,0l-0.2,0.1l-0.2,0.2l-0.1,0.3c0,0.2,0.1,0.3,0.2,0.4c0.2,0.2,0.6,0.2,0.9,0.1
			c0.1,0,0.2-0.1,0.4-0.2l0.1,0.2h0.3l-0.1-0.2c0-0.1,0-0.3,0-0.6v-0.4c0-0.1,0-0.3,0-0.3l-0.1-0.2c-0.1-0.1-0.1-0.1-0.2-0.2
			c-0.3-0.1-0.6-0.1-0.9,0c-0.1,0-0.2,0.1-0.3,0.2c-0.1,0.1-0.1,0.2-0.1,0.3l0.3,0c0-0.1,0.1-0.2,0.2-0.3c0.2-0.1,0.6-0.1,0.7,0
			c0.1,0.1,0.1,0.2,0.1,0.3l0,0.1C395.6,178.9,395.4,179,395.1,179z M395.7,179.6c0,0.1-0.1,0.2-0.2,0.2c-0.2,0.1-0.4,0.1-0.6,0
			l-0.1-0.2l0-0.2l0.1-0.1c0.1,0,0.2,0,0.3-0.1c0.2,0,0.4-0.1,0.5-0.1l0,0.1C395.7,179.4,395.7,179.5,395.7,179.6z"/>
		<path class="st0" d="M397.7,180.6c-0.2,0.1-0.5,0.1-0.7,0c-0.1,0-0.1-0.1-0.1-0.2l-0.3,0c0,0.2,0.1,0.4,0.2,0.5
			c0.3,0.2,0.8,0.2,1.1,0c0.1-0.1,0.2-0.2,0.3-0.3c0.1-0.1,0.1-0.3,0.1-0.7v-1.7h-0.3v0.2c-0.2-0.3-0.7-0.4-1-0.2
			c-0.1,0.1-0.2,0.2-0.3,0.4c-0.3,0.8,0.5,2.2,1.3,1.3c0,0.2,0,0.4,0,0.4C397.8,180.4,397.8,180.5,397.7,180.6z M397.7,179.7
			c-0.2,0.2-0.6,0.2-0.8,0c-0.2-0.3-0.2-0.8,0-1.1c0.2-0.2,0.6-0.2,0.8,0C398,178.8,398,179.4,397.7,179.7z"/>
		<path class="st0" d="M400.4,179.1c0-0.3-0.1-0.6-0.3-0.8c-0.3-0.4-1-0.4-1.3,0c-0.3,0.4-0.4,1.2,0,1.5c0.3,0.3,0.9,0.4,1.3,0.1
			c0.1-0.1,0.2-0.3,0.3-0.5l-0.3,0c-0.1,0.4-0.6,0.6-0.9,0.2c-0.1-0.1-0.2-0.3-0.2-0.5L400.4,179.1L400.4,179.1z M399,178.9
			c0-0.2,0.1-0.3,0.2-0.4c0.2-0.2,0.6-0.2,0.8,0c0.1,0.1,0.1,0.2,0.1,0.4H399z"/>
		<polygon class="st0" points="302.3,248.9 302.3,251.7 302.7,251.7 302.7,250.4 304.1,250.4 304.1,251.7 304.4,251.7 304.4,248.9
			304.1,248.9 304.1,250.1 302.7,250.1 302.7,248.9 		"/>
		<path class="st0" d="M306.7,250.7c0-0.3-0.1-0.6-0.3-0.8c-0.3-0.4-1-0.3-1.3,0c-0.3,0.4-0.4,1.2,0,1.5c0.3,0.3,0.9,0.4,1.3,0.1
			c0.1-0.1,0.2-0.3,0.3-0.5l-0.3,0c0,0.1-0.1,0.2-0.2,0.3c-0.2,0.2-0.6,0.1-0.7-0.1c-0.1-0.1-0.2-0.3-0.2-0.5L306.7,250.7
			L306.7,250.7z M305.3,250.5c0-0.2,0.1-0.3,0.2-0.4c0.2-0.2,0.6-0.2,0.8,0c0.1,0.1,0.1,0.2,0.1,0.4H305.3z"/>
		<rect x="307.1" y="248.9" class="st0" width="0.3" height="2.7"/>
		<path class="st0" d="M308,249.7v2.7h0.3v-1l0.2,0.2c0.2,0.1,0.5,0.1,0.7-0.1c0.1-0.1,0.2-0.2,0.3-0.4c0.2-0.3,0.1-0.7,0-1.1
			c-0.1-0.2-0.2-0.3-0.3-0.4c-0.2-0.1-0.6-0.2-0.8-0.1c-0.1,0.1-0.2,0.1-0.2,0.2v-0.3H308z M308.4,250.1c0.2-0.2,0.5-0.3,0.8,0
			c0.2,0.3,0.2,0.9,0,1.2c-0.2,0.2-0.6,0.3-0.8,0C308.2,251,308.2,250.4,308.4,250.1z"/>
		<path class="st0" d="M300.8,231c-0.2,0.1-0.5,0.1-0.8,0c-0.1-0.1-0.2-0.1-0.3-0.2c-0.1-0.1-0.1-0.2-0.1-0.3l-0.3,0
			c0,0.2,0.1,0.3,0.2,0.5c0.1,0.1,0.2,0.3,0.4,0.3c0.3,0.2,0.8,0.2,1.1,0c0.2-0.1,0.3-0.2,0.4-0.3c0.2-0.2,0.2-0.6,0-0.8
			c-0.1-0.1-0.2-0.2-0.4-0.3c-0.3-0.2-0.9-0.1-1.1-0.4c-0.2-0.2-0.1-0.4,0-0.5c0.2-0.2,0.7-0.2,0.9,0c0.1,0.1,0.2,0.2,0.2,0.4l0.3,0
			c0-0.2-0.1-0.3-0.1-0.4c-0.1-0.1-0.2-0.2-0.4-0.3c-0.3-0.1-0.7-0.1-1,0c-0.1,0.1-0.3,0.2-0.3,0.3c-0.1,0.2-0.2,0.5,0,0.7
			c0.1,0.1,0.2,0.2,0.3,0.3c0.1,0.1,0.3,0.1,0.5,0.2c0.3,0.1,0.4,0.1,0.5,0.1c0.1,0,0.2,0.1,0.2,0.2l0.1,0.2l-0.1,0.2
			C301,230.9,300.9,231,300.8,231z"/>
		<path class="st0" d="M303.6,230.3c0-0.3-0.1-0.6-0.3-0.8c-0.3-0.4-1-0.3-1.3,0c-0.3,0.4-0.4,1.1,0,1.5c0.3,0.3,0.9,0.4,1.3,0.1
			c0.1-0.1,0.2-0.3,0.3-0.5l-0.3,0c-0.1,0.1-0.1,0.2-0.2,0.3c-0.2,0.2-0.6,0.1-0.7-0.1c-0.1-0.1-0.2-0.3-0.2-0.5L303.6,230.3
			L303.6,230.3z M302.1,230.2c0-0.2,0.1-0.3,0.2-0.4c0.2-0.2,0.6-0.2,0.8,0c0.1,0.1,0.1,0.2,0.1,0.4H302.1z"/>
		<path class="st0" d="M304.1,228.9v0.5h-0.2v0.3h0.2v1.1c0,0.2,0,0.3,0,0.4l0.1,0.2c0.1,0,0.2,0.1,0.3,0.1l0.3,0l0-0.3l-0.1,0
			l-0.1,0l-0.1-0.1l0-0.2v-1.2h0.3v-0.3h-0.3v-0.7L304.1,228.9z"/>
		<path class="st0" d="M305.1,228.9v0.5h-0.2v0.3h0.2v1.1c0,0.2,0,0.3,0,0.4l0.1,0.2c0.1,0,0.2,0.1,0.3,0.1l0.3,0l0-0.3l-0.1,0
			l-0.1,0l-0.1-0.1l0-0.2v-1.2h0.3v-0.3h-0.3v-0.7L305.1,228.9z"/>
		<rect x="306.1" y="229.4" class="st0" width="0.3" height="2"/>
		<rect x="306.1" y="228.6" class="st0" width="0.3" height="0.4"/>
		<path class="st0" d="M307,229.4v2h0.3v-1.1c0-0.3,0-0.4,0.2-0.5c0.1-0.1,0.2-0.1,0.4-0.1l0.2,0.1l0.1,0.2c0,0.1,0,0.2,0,0.3v1.2
			h0.3v-1.2c0-0.2,0-0.3,0-0.3l-0.1-0.2c0-0.1-0.1-0.1-0.2-0.2c-0.3-0.1-0.7-0.1-1,0.3v-0.3H307z"/>
		<path class="st0" d="M310.2,231.8c-0.2,0.1-0.5,0.1-0.7,0c-0.1,0-0.1-0.1-0.1-0.2l-0.3,0c0,0.2,0.1,0.4,0.2,0.5
			c0.3,0.2,0.8,0.2,1.1,0c0.1-0.1,0.2-0.2,0.3-0.3c0.1-0.1,0.1-0.3,0.1-0.7v-1.7h-0.3v0.2c-0.2-0.3-0.7-0.4-1-0.2
			c-0.1,0.1-0.2,0.2-0.3,0.4c-0.2,0.4-0.1,0.9,0.1,1.2c0.3,0.4,0.9,0.4,1.2,0c0,0.2,0,0.4,0,0.4
			C310.3,231.6,310.3,231.7,310.2,231.8z M310.3,230.9c-0.2,0.2-0.6,0.2-0.8,0c-0.2-0.3-0.2-0.8,0-1.1c0.2-0.2,0.6-0.2,0.8,0
			C310.5,230,310.5,230.6,310.3,230.9z"/>
		<path class="st0" d="M311.9,231.1c-0.2,0-0.3,0-0.4-0.1c-0.1-0.1-0.1-0.2-0.2-0.3l-0.3,0.1c0,0.2,0.1,0.4,0.3,0.5
			c0.3,0.2,0.7,0.2,1,0.1c0.1-0.1,0.2-0.1,0.3-0.2c0.1-0.2,0.1-0.4,0-0.6l-0.2-0.2c-0.1,0-0.3-0.1-0.5-0.2c-0.2,0-0.3-0.1-0.3-0.1
			l-0.1-0.1l0-0.1l0.1-0.2c0.1-0.1,0.5-0.1,0.6,0c0.1,0.1,0.1,0.1,0.1,0.2l0.3,0c0-0.1-0.1-0.2-0.1-0.3c-0.1-0.1-0.1-0.1-0.3-0.2
			c-0.2-0.1-0.5-0.1-0.7,0l-0.2,0.1l-0.2,0.2l-0.1,0.2l0.1,0.3l0.2,0.2c0.1,0,0.3,0.1,0.5,0.2c0.2,0,0.3,0.1,0.3,0.1l0.1,0.2
			l-0.1,0.2C312.2,231.1,312.1,231.1,311.9,231.1z"/>
		<path class="st0" d="M275.8,271.9v-2.7h-0.5l-0.7,1.9c-0.1,0.2-0.1,0.3-0.1,0.4c0-0.1-0.1-0.2-0.1-0.4l-0.6-1.9h-0.5v2.7h0.3v-2.3
			l0.8,2.3h0.3l0.8-2.3v2.3H275.8z"/>
		<path class="st0" d="M278.1,270.9c0-0.3-0.1-0.6-0.3-0.8c-0.3-0.4-1-0.4-1.3,0c-0.3,0.4-0.4,1.2,0,1.5c0.3,0.3,0.9,0.4,1.3,0.1
			c0.1-0.1,0.2-0.3,0.3-0.5l-0.3,0c-0.1,0.1-0.1,0.2-0.2,0.3c-0.2,0.2-0.6,0.1-0.7-0.1c-0.1-0.1-0.2-0.3-0.2-0.5L278.1,270.9
			L278.1,270.9z M276.6,270.7c0-0.2,0.1-0.3,0.2-0.4c0.2-0.2,0.6-0.2,0.8,0c0.1,0.1,0.1,0.2,0.1,0.4H276.6z"/>
		<path class="st0" d="M280.1,271.9v-1.2c0-0.2,0-0.3,0-0.3l-0.1-0.2c0-0.1-0.1-0.1-0.2-0.2c-0.3-0.1-0.7-0.1-1,0.3v-0.3h-0.3v2h0.3
			v-1.1c0-0.3,0.1-0.4,0.2-0.5c0.1-0.1,0.2-0.1,0.4-0.1l0.2,0.1l0.1,0.2c0,0.1,0,0.2,0,0.3v1.2H280.1z"/>
		<path class="st0" d="M282.2,271.9v-2h-0.3v1.1c0,0.2,0,0.3-0.1,0.4l-0.2,0.2c-0.2,0.1-0.4,0.1-0.5,0l-0.1-0.2c0-0.1,0-0.2,0-0.4
			v-1.1h-0.3v1.2c0,0.1,0,0.2,0,0.3c0,0.1,0.1,0.2,0.1,0.2c0.3,0.4,0.9,0.2,1.2-0.1v0.3H282.2z"/>
		<path class="st0" d="M271.7,249c-0.1,0-0.3,0-0.5,0h-0.9v2.7h1c0.2,0,0.3,0,0.4,0c0.1,0,0.2-0.1,0.3-0.1c0.1-0.1,0.2-0.1,0.2-0.2
			c0.1-0.1,0.1-0.2,0.2-0.4c0.1-0.4,0.1-0.8,0-1.2c-0.1-0.2-0.2-0.3-0.3-0.5C272,249.1,271.9,249,271.7,249z M272.1,250.8
			c0,0.1-0.1,0.3-0.2,0.3c-0.1,0.1-0.1,0.1-0.2,0.1c-0.1,0-0.2,0-0.4,0h-0.6v-2.1h0.6c0.2,0,0.4,0,0.5,0.1c0.1,0,0.2,0.2,0.3,0.3
			C272.2,249.9,272.2,250.5,272.1,250.8z"/>
		<rect x="273" y="249.7" class="st0" width="0.3" height="2"/>
		<rect x="273" y="248.9" class="st0" width="0.3" height="0.4"/>
		<path class="st0" d="M273.8,249.7v2h0.3v-1c0-0.1,0-0.3,0.1-0.4l0.1-0.2l0.2-0.1l0.2,0.1l0.1-0.3c-0.1-0.1-0.2-0.1-0.3-0.1
			l-0.2,0.1c-0.1,0-0.1,0.1-0.2,0.3v-0.3H273.8z"/>
		<path class="st0" d="M276.8,250.7c0-0.3-0.1-0.6-0.3-0.8c-0.3-0.4-1-0.4-1.3,0c-0.4,0.4-0.4,1.2,0,1.5c0.3,0.3,0.9,0.4,1.3,0.1
			c0.1-0.1,0.2-0.3,0.3-0.5l-0.3,0c-0.1,0.1-0.1,0.2-0.2,0.3c-0.2,0.2-0.6,0.1-0.7-0.1c-0.1-0.1-0.2-0.3-0.2-0.5L276.8,250.7
			L276.8,250.7z M275.4,250.5c0-0.2,0.1-0.3,0.2-0.4c0.2-0.2,0.6-0.2,0.8,0c0.1,0.1,0.1,0.2,0.1,0.4H275.4z"/>
		<path class="st0" d="M278.1,249.9c0.1,0,0.2,0,0.3,0.1c0.1,0.1,0.1,0.2,0.2,0.3l0.3,0c0-0.2-0.1-0.4-0.3-0.5c-0.3-0.2-0.7-0.2-1,0
			c-0.1,0.1-0.2,0.2-0.3,0.4c-0.2,0.4-0.2,1,0.1,1.3c0.3,0.3,0.9,0.4,1.2,0.1c0.1-0.1,0.2-0.3,0.3-0.5l-0.3,0c0,0.2-0.1,0.3-0.2,0.4
			c-0.2,0.2-0.6,0.1-0.7-0.1c-0.2-0.3-0.2-0.9,0-1.2C277.8,250,277.9,249.9,278.1,249.9z"/>
		<path class="st0" d="M279.2,251.5l0.1,0.2c0.1,0,0.2,0.1,0.3,0.1l0.3,0l0-0.3l-0.1,0l-0.1,0l-0.1-0.1l0-0.2V250h0.3v-0.3h-0.3V249
			l-0.3,0.2v0.5H279v0.3h0.2v1.1C279.2,251.3,279.2,251.4,279.2,251.5z"/>
		<path class="st0" d="M280.4,249.9c-0.4,0.4-0.4,1.2,0,1.6c0.3,0.3,0.8,0.4,1.1,0.1c0.1-0.1,0.3-0.2,0.3-0.3c0.2-0.4,0.2-1-0.1-1.3
			C281.3,249.6,280.7,249.6,280.4,249.9z M281.6,250.7c0,0.3-0.1,0.4-0.2,0.6c-0.2,0.3-0.6,0.2-0.8,0c-0.2-0.3-0.2-0.9,0-1.1
			c0.2-0.2,0.6-0.2,0.8,0C281.5,250.2,281.6,250.4,281.6,250.7z"/>
		<path class="st0" d="M282.3,249.7v2h0.3v-1c0-0.1,0-0.3,0.1-0.4l0.1-0.2l0.2-0.1l0.2,0.1l0.1-0.3c-0.1-0.1-0.2-0.1-0.3-0.1
			l-0.2,0.1c-0.1,0-0.1,0.1-0.2,0.3v-0.3H282.3z"/>
		<path class="st0" d="M284,252l-0.1,0.1l-0.2,0l-0.2,0l0,0.3l0.2,0c0.1,0,0.2,0,0.3-0.1c0.1,0,0.1-0.1,0.2-0.2
			c0-0.1,0.1-0.2,0.2-0.4l0.8-2h-0.3l-0.4,1.2c-0.1,0.1-0.1,0.3-0.1,0.4c0-0.2-0.1-0.3-0.1-0.5l-0.4-1.1h-0.4l0.8,2l0,0.1
			C284.1,251.9,284.1,252,284,252z"/>
		<path class="st0" d="M274.9,229.4c0-0.2,0-0.3-0.1-0.4c-0.1-0.1-0.2-0.2-0.3-0.3c-0.1,0-0.3-0.1-0.6-0.1h-1.2v2.7h0.4v-1.2h0.4
			l0.2,0l0.2,0.1l0.2,0.2c0.1,0.1,0.2,0.2,0.3,0.4l0.4,0.6h0.5l-0.5-0.7c-0.1-0.1-0.2-0.3-0.3-0.4l-0.2-0.1c0.3,0,0.5-0.1,0.6-0.3
			C274.8,229.7,274.9,229.6,274.9,229.4z M274.4,229.6l-0.2,0.2c-0.1,0-0.2,0.1-0.4,0.1H273v-0.9h0.9c0.2,0,0.3,0,0.4,0.1
			c0.1,0.1,0.1,0.2,0.1,0.3L274.4,229.6z"/>
		<path class="st0" d="M277.1,230.4c0-0.3-0.1-0.6-0.3-0.8c-0.3-0.4-1-0.3-1.3,0c-0.3,0.4-0.4,1.1,0,1.5c0.3,0.3,0.9,0.4,1.3,0.1
			c0.1-0.1,0.2-0.3,0.3-0.5l-0.3,0c-0.1,0.1-0.1,0.2-0.2,0.3c-0.2,0.2-0.6,0.1-0.7-0.1c-0.1-0.1-0.2-0.3-0.2-0.5L277.1,230.4
			L277.1,230.4z M275.6,230.2c0-0.2,0.1-0.3,0.2-0.4c0.2-0.2,0.6-0.2,0.8,0c0.1,0.1,0.1,0.2,0.1,0.4H275.6z"/>
		<path class="st0" d="M279.1,231.4v-2.7h-0.3v1l-0.2-0.2c-0.2-0.1-0.5-0.1-0.8,0.1c-0.1,0.1-0.2,0.2-0.3,0.4
			c-0.1,0.3-0.1,0.8,0,1.1c0.1,0.2,0.2,0.3,0.3,0.4c0.3,0.2,0.8,0.2,1-0.2v0.3H279.1z M278.6,231c-0.2,0.2-0.5,0.2-0.8,0
			c-0.2-0.3-0.2-0.9,0-1.1c0.2-0.2,0.6-0.2,0.8,0C278.9,230.1,278.9,230.7,278.6,231z"/>
		<rect x="279.6" y="228.6" class="st0" width="0.3" height="0.4"/>
		<rect x="279.6" y="229.4" class="st0" width="0.3" height="2"/>
		<path class="st0" d="M281.1,230.2c-0.1,0-0.2,0-0.3,0l-0.2,0.1l-0.2,0.2l-0.1,0.3c0,0.2,0.1,0.3,0.2,0.4c0.2,0.2,0.6,0.2,0.9,0.1
			c0.1,0,0.2-0.1,0.4-0.2l0.1,0.2h0.3l-0.1-0.2c0-0.1,0-0.3,0-0.6v-0.4c0-0.1,0-0.2,0-0.3l-0.1-0.2c-0.1-0.1-0.1-0.1-0.2-0.2
			c-0.3-0.1-0.6-0.1-0.9,0c-0.1,0-0.2,0.1-0.3,0.2c-0.1,0.1-0.1,0.2-0.1,0.3l0.3,0c0-0.1,0.1-0.2,0.2-0.3c0.2-0.1,0.6-0.1,0.7,0
			c0.1,0.1,0.1,0.2,0.1,0.3l0,0.1C281.6,230.1,281.4,230.2,281.1,230.2z M281.7,230.8c0,0.1-0.1,0.2-0.2,0.2c-0.2,0.1-0.4,0.1-0.6,0
			l-0.1-0.2l0-0.2l0.1-0.1c0.1,0,0.2,0,0.3-0.1c0.2,0,0.4-0.1,0.5-0.1l0,0.1C281.7,230.6,281.7,230.7,281.7,230.8z"/>
		<rect x="282.6" y="228.6" class="st0" width="0.3" height="2.7"/>
		<polygon class="st0" points="300.2,302.3 300.2,299.9 301.1,299.9 301.1,299.6 298.9,299.6 298.9,299.9 299.8,299.9 299.8,302.3
					"/>
		<path class="st0" d="M301.4,300.3v2h0.3v-1c0-0.1,0-0.3,0.1-0.4l0.1-0.2l0.2-0.1l0.2,0.1l0.1-0.3c-0.1-0.1-0.2-0.1-0.3-0.1
			l-0.2,0.1c-0.1,0-0.1,0.1-0.2,0.3v-0.3H301.4z"/>
		<path class="st0" d="M303.4,301.1c-0.1,0-0.2,0-0.3,0l-0.2,0.1l-0.2,0.2l-0.1,0.3c0,0.2,0.1,0.3,0.2,0.4c0.2,0.2,0.6,0.2,0.9,0.1
			c0.1,0,0.2-0.1,0.4-0.2l0.1,0.2h0.3l-0.1-0.2c0-0.1,0-0.3,0-0.6V301c0-0.1,0-0.3,0-0.3l-0.1-0.2c0-0.1-0.1-0.1-0.2-0.1
			c-0.3-0.1-0.6-0.1-0.9,0c-0.1,0-0.2,0.1-0.3,0.2c-0.1,0.1-0.1,0.2-0.1,0.3l0.3,0c0-0.1,0.1-0.2,0.2-0.3c0.2-0.1,0.6-0.1,0.7,0
			c0.1,0.1,0.1,0.2,0.1,0.3v0.1C303.8,301.1,303.6,301.1,303.4,301.1z M303.9,301.8c0,0.1-0.1,0.2-0.2,0.2c-0.2,0.1-0.4,0.1-0.6,0
			l-0.1-0.2l0-0.2l0.1-0.1c0.1,0,0.2,0,0.3-0.1c0.2,0,0.4-0.1,0.5-0.1l0,0.1C304,301.6,304,301.7,303.9,301.8z"/>
		<path class="st0" d="M304.8,300.3v2h0.3v-1.1c0-0.3,0-0.4,0.2-0.5c0.1-0.1,0.2-0.1,0.4-0.1l0.2,0.1l0.1,0.2c0,0.1,0,0.2,0,0.3v1.2
			h0.3v-1.2c0-0.2,0-0.3,0-0.3l-0.1-0.2c0-0.1-0.1-0.1-0.2-0.2c-0.3-0.1-0.7-0.1-1,0.3v-0.3H304.8z"/>
		<path class="st0" d="M307.7,302.1c-0.2,0-0.3,0-0.4-0.1c-0.1-0.1-0.1-0.2-0.2-0.3l-0.3,0.1c0,0.2,0.1,0.4,0.3,0.5
			c0.3,0.2,0.7,0.2,1,0.1c0.1-0.1,0.2-0.1,0.3-0.2c0.1-0.2,0.1-0.4,0-0.6l-0.2-0.2c-0.1,0-0.3-0.1-0.5-0.2c-0.2,0-0.3-0.1-0.3-0.1
			l-0.1-0.1l0-0.1l0.1-0.2c0.1-0.1,0.5-0.1,0.6,0c0.1,0.1,0.1,0.1,0.1,0.2l0.3,0c0-0.1-0.1-0.2-0.1-0.3c-0.1-0.1-0.1-0.1-0.3-0.2
			c-0.2-0.1-0.5-0.1-0.7,0l-0.2,0.1l-0.2,0.2l-0.1,0.2l0.1,0.3l0.2,0.2c0.1,0,0.3,0.1,0.5,0.2c0.2,0,0.3,0.1,0.3,0.1l0.1,0.2
			L308,302C307.9,302,307.8,302.1,307.7,302.1z"/>
		<path class="st0" d="M309.3,299.9c0,0,0.1-0.1,0.2-0.1l0.2,0l0.1-0.3c-0.2-0.1-0.4,0-0.7,0l-0.2,0.2c0,0.1,0,0.2,0,0.3v0.2h-0.3
			v0.3h0.3v1.7h0.3v-1.7h0.4v-0.3h-0.4v-0.2C309.3,300,309.3,299.9,309.3,299.9z"/>
		<path class="st0" d="M311.6,301.3c0-0.3-0.1-0.6-0.3-0.8c-0.3-0.4-1-0.3-1.3,0c-0.3,0.4-0.4,1.1,0,1.5c0.3,0.3,0.9,0.4,1.3,0.1
			c0.1-0.1,0.2-0.3,0.3-0.5l-0.3,0c-0.1,0.4-0.6,0.5-0.9,0.2c-0.1-0.1-0.2-0.3-0.2-0.5L311.6,301.3L311.6,301.3z M310.2,301.1
			c0-0.2,0.1-0.3,0.2-0.4c0.2-0.2,0.6-0.2,0.8,0c0.1,0.1,0.1,0.2,0.1,0.4H310.2z"/>
		<path class="st0" d="M312,300.3v2h0.3v-1c0-0.1,0-0.3,0.1-0.4l0.1-0.2l0.2-0.1l0.2,0.1l0.1-0.3c-0.1-0.1-0.2-0.1-0.3-0.1l-0.2,0.1
			c-0.1,0-0.1,0.1-0.2,0.3v-0.3H312z"/>
		<path class="st0" d="M303.5,319.9c-0.1,0-0.3,0-0.5,0h-0.9v2.7h1c0.2,0,0.3,0,0.4,0c0.1,0,0.2-0.1,0.3-0.1
			c0.1-0.1,0.2-0.1,0.2-0.2c0.1-0.1,0.1-0.2,0.2-0.4c0.1-0.4,0.1-0.8,0-1.2c-0.1-0.2-0.2-0.3-0.3-0.5
			C303.8,320,303.7,320,303.5,319.9z M303.9,321.8c0,0.1-0.1,0.3-0.2,0.3c-0.1,0.1-0.1,0.1-0.2,0.1c-0.1,0-0.2,0.1-0.4,0.1h-0.6
			v-2.1h0.6c0.2,0,0.4,0,0.5,0.1c0.1,0.1,0.2,0.2,0.3,0.3C304.1,320.9,304.1,321.4,303.9,321.8z"/>
		<polygon class="st0" points="305.2,319.9 304.9,319.9 304.9,322.6 305.2,322.6 305.2,320.5 306.7,322.6 307,322.6 307,319.9
			306.7,319.9 306.7,322 		"/>
		<path class="st0" d="M309.5,320.1c-0.1-0.1-0.2-0.2-0.4-0.2c-0.1,0-0.3,0-0.5,0h-0.9v2.7h1c0.2,0,0.3,0,0.4,0
			c0.1,0,0.2-0.1,0.3-0.1c0.1-0.1,0.2-0.1,0.2-0.2c0.1-0.1,0.1-0.2,0.2-0.4c0.1-0.4,0.1-0.8,0-1.2
			C309.7,320.4,309.6,320.2,309.5,320.1z M309.4,321.8c0,0.1-0.1,0.3-0.2,0.3c-0.1,0.1-0.1,0.1-0.2,0.1c-0.1,0-0.2,0.1-0.4,0.1H308
			v-2.1h0.6c0.2,0,0.4,0,0.5,0.1c0.1,0.1,0.2,0.2,0.3,0.3C309.6,320.9,309.6,321.4,309.4,321.8z"/>
		<polygon class="st0" points="276.2,322.6 276.2,319.9 275.8,319.9 275.8,321 274.4,321 274.4,319.9 274,319.9 274,322.6
			274.4,322.6 274.4,321.3 275.8,321.3 275.8,322.6 		"/>
		<path class="st0" d="M276.9,320.8c-0.4,0.4-0.4,1.2,0,1.6c0.3,0.3,0.8,0.3,1.1,0.1c0.1-0.1,0.3-0.2,0.3-0.3c0.2-0.4,0.2-1-0.1-1.3
			C277.9,320.5,277.3,320.5,276.9,320.8z M278.1,321.6c0,0.3-0.1,0.5-0.2,0.6c-0.2,0.2-0.6,0.2-0.8,0c-0.2-0.3-0.2-0.9,0-1.1
			c0.2-0.3,0.6-0.2,0.8,0C278.1,321.2,278.1,321.3,278.1,321.6z"/>
		<rect x="278.9" y="319.9" class="st0" width="0.3" height="2.7"/>
		<path class="st0" d="M281.3,322.6v-2.7H281v1l-0.2-0.2c-0.2-0.1-0.5-0.1-0.8,0.1c-0.1,0.1-0.2,0.2-0.3,0.4c-0.1,0.3-0.1,0.7,0,1.1
			c0.1,0.2,0.2,0.3,0.3,0.4c0.3,0.2,0.8,0.2,1-0.2v0.3H281.3z M280.8,322.2c-0.2,0.2-0.5,0.2-0.8,0c-0.2-0.3-0.2-0.9,0-1.1
			c0.2-0.2,0.6-0.2,0.8,0C281.1,321.3,281.1,321.9,280.8,322.2z"/>
		<path class="st0" d="M165.8,179.7c0.2-0.4,0.2-1-0.1-1.3c-0.3-0.3-0.9-0.3-1.3,0c-0.4,0.4-0.4,1.2,0,1.6c0.3,0.3,0.8,0.3,1.1,0.1
			C165.6,180,165.7,179.9,165.8,179.7z M164.9,179.9c-0.2,0-0.3-0.1-0.4-0.2c-0.2-0.3-0.2-0.9,0-1.1c0.2-0.2,0.6-0.2,0.8,0
			c0.2,0.3,0.2,0.9,0,1.1C165.2,179.8,165.1,179.9,164.9,179.9z"/>
		<rect x="166.2" y="177.4" class="st0" width="0.3" height="2.7"/>
		<path class="st0" d="M168.7,180.1v-2h-0.3v1.1c0,0.2,0,0.3-0.1,0.4l-0.2,0.2c-0.2,0.1-0.4,0.1-0.5,0l-0.1-0.2c0-0.1,0-0.2,0-0.4
			v-1.1h-0.3v1.2c0,0.1,0,0.2,0,0.3c0,0.1,0.1,0.2,0.1,0.2c0.1,0.1,0.1,0.1,0.2,0.2c0.3,0.1,0.7,0,1-0.3v0.3H168.7z"/>
		<path class="st0" d="M171.9,180.1v-1.4c0-0.2-0.1-0.4-0.2-0.5c-0.3-0.3-0.8-0.1-1.1,0.2c0-0.1-0.1-0.2-0.2-0.3
			c-0.2-0.1-0.5-0.1-0.7,0c-0.1,0.1-0.2,0.1-0.2,0.2v-0.3h-0.3v2h0.3v-1c0-0.2,0-0.3,0-0.4l0.2-0.2l0.3-0.1c0.1,0,0.2,0,0.3,0.1
			c0.1,0.1,0.1,0.2,0.1,0.3v1.3h0.3V179c0-0.2,0-0.4,0.1-0.4c0.1-0.1,0.2-0.1,0.3-0.1l0.2,0.1l0.1,0.1c0,0.1,0,0.2,0,0.3v1.2H171.9z
			"/>
		<path class="st0" d="M174.1,179.1c0-0.3-0.1-0.6-0.3-0.8c-0.3-0.4-1-0.4-1.3,0c-0.3,0.4-0.4,1.2,0,1.5c0.3,0.3,0.9,0.4,1.3,0.1
			c0.1-0.1,0.2-0.3,0.3-0.5l-0.3,0c-0.1,0.1-0.1,0.2-0.2,0.3c-0.2,0.2-0.6,0.1-0.7-0.1c-0.1-0.1-0.2-0.3-0.2-0.5L174.1,179.1
			L174.1,179.1z M172.7,178.9c0-0.2,0.1-0.3,0.2-0.4c0.2-0.2,0.6-0.2,0.8,0c0.1,0.1,0.1,0.2,0.1,0.4H172.7z"/>
		<path class="st0" d="M164.1,177.4h-0.4l-0.7,2c-0.1,0.1-0.1,0.3-0.1,0.4c0-0.1-0.1-0.3-0.1-0.4l-0.7-2h-0.4l1.1,2.7h0.4
			L164.1,177.4z"/>
		<path class="st0" d="M268.7,299.9c0.3-0.2,0.7-0.2,1,0c0.1,0.1,0.2,0.2,0.3,0.4l0.4-0.1c-0.1-0.3-0.2-0.5-0.4-0.6
			c-0.4-0.3-1-0.3-1.4,0c-0.2,0.1-0.4,0.3-0.5,0.5c-0.2,0.4-0.2,1,0,1.5c0.1,0.2,0.2,0.4,0.4,0.5c0.4,0.3,1.1,0.3,1.5-0.1
			c0.2-0.2,0.3-0.4,0.4-0.7l-0.4-0.1c-0.1,0.2-0.1,0.4-0.3,0.5c-0.3,0.2-0.7,0.2-1,0c-0.1-0.1-0.3-0.2-0.3-0.4
			C268.2,301,268.2,300.2,268.7,299.9z"/>
		<path class="st0" d="M270.9,300.4c-0.4,0.4-0.4,1.2,0,1.6c0.3,0.3,0.8,0.3,1.2,0.1c0.2-0.1,0.3-0.2,0.3-0.3c0.2-0.4,0.2-1-0.1-1.4
			C271.9,300.2,271.3,300.1,270.9,300.4z M272.2,301.3c0,0.3-0.1,0.5-0.2,0.6c-0.2,0.3-0.6,0.3-0.8,0c-0.2-0.3-0.2-0.9,0-1.2
			c0.2-0.3,0.6-0.3,0.8,0C272.1,300.8,272.2,301,272.2,301.3z"/>
		<path class="st0" d="M274.5,302.3V301c0-0.2,0-0.3,0-0.3c0-0.1-0.1-0.2-0.1-0.3c-0.3-0.4-1-0.3-1.2,0.1v-0.3h-0.3v2h0.3v-1.1
			c0-0.3,0.1-0.4,0.2-0.5c0.1-0.1,0.2-0.1,0.4-0.1l0.2,0.1l0.1,0.2c0,0.1,0,0.2,0,0.3v1.2H274.5z"/>
		<path class="st0" d="M275.6,299.8c0,0,0.1-0.1,0.2-0.1l0.2,0l0.1-0.3c-0.2,0-0.5-0.1-0.7,0l-0.2,0.2c0,0.1,0,0.2,0,0.3v0.2h-0.3
			v0.3h0.3v1.7h0.3v-1.7h0.4v-0.3h-0.4v-0.2C275.5,300,275.5,299.9,275.6,299.8z"/>
		<path class="st0" d="M277.9,301.3c0-0.3-0.1-0.6-0.3-0.8c-0.3-0.4-1-0.4-1.3,0c-0.4,0.4-0.4,1.2,0,1.5c0.3,0.3,0.9,0.4,1.3,0.1
			c0.1-0.1,0.3-0.3,0.3-0.5l-0.3,0c-0.1,0.1-0.1,0.2-0.2,0.3c-0.2,0.2-0.6,0.1-0.7-0.1c-0.1-0.1-0.2-0.3-0.2-0.5L277.9,301.3
			L277.9,301.3z M276.4,301.1c0-0.2,0.1-0.3,0.2-0.4c0.2-0.2,0.6-0.2,0.8,0c0.1,0.1,0.1,0.2,0.1,0.4H276.4z"/>
		<path class="st0" d="M278.3,300.3v2h0.3v-1.1c0-0.1,0-0.3,0.1-0.4l0.1-0.2l0.2-0.1l0.2,0.1l0.1-0.3c-0.1-0.1-0.2-0.1-0.3-0.1
			l-0.2,0.1c-0.1,0-0.1,0.1-0.2,0.3v-0.3H278.3z"/>
		<path class="st0" d="M281.3,301.3c0-0.3-0.1-0.6-0.3-0.8c-0.3-0.4-1-0.4-1.3,0c-0.4,0.4-0.4,1.2,0,1.5c0.3,0.3,0.9,0.4,1.3,0.1
			c0.1-0.1,0.3-0.3,0.3-0.5l-0.3,0c-0.1,0.1-0.1,0.2-0.2,0.3c-0.2,0.2-0.6,0.1-0.7-0.1c-0.1-0.1-0.2-0.3-0.2-0.5L281.3,301.3
			L281.3,301.3z M279.8,301.1c0-0.5,0.6-0.8,1-0.4c0.1,0.1,0.1,0.2,0.1,0.4H279.8z"/>
		<path class="st0" d="M283.4,302.3V301c0-0.2,0-0.3,0-0.3c0-0.1-0.1-0.2-0.1-0.3c-0.3-0.4-1-0.3-1.2,0.1v-0.3h-0.3v2h0.3v-1.1
			c0-0.3,0.1-0.4,0.2-0.5c0.1-0.1,0.2-0.1,0.4-0.1l0.2,0.1l0.1,0.2c0,0.1,0,0.2,0,0.3v1.2H283.4z"/>
		<path class="st0" d="M284.7,300.5c0.1,0,0.2,0,0.3,0.1c0.1,0.1,0.1,0.2,0.2,0.3l0.3,0c0-0.2-0.1-0.4-0.3-0.5c-0.3-0.2-0.7-0.2-1,0
			c-0.1,0.1-0.3,0.2-0.3,0.4c-0.2,0.4-0.2,1,0.1,1.3c0.3,0.3,0.9,0.4,1.2,0.1c0.2-0.1,0.2-0.3,0.3-0.5l-0.3,0c0,0.2-0.1,0.3-0.2,0.4
			c-0.2,0.2-0.6,0.1-0.7-0.1c-0.2-0.3-0.2-0.9,0-1.2C284.4,300.6,284.6,300.5,284.7,300.5z"/>
		<path class="st0" d="M287.6,301.3c0-0.3-0.1-0.6-0.3-0.8c-0.3-0.4-1-0.4-1.3,0c-0.4,0.4-0.4,1.2,0,1.5c0.3,0.3,0.9,0.4,1.3,0.1
			c0.1-0.1,0.3-0.3,0.3-0.5l-0.4,0c-0.1,0.1-0.1,0.2-0.2,0.3c-0.2,0.2-0.6,0.1-0.7-0.1c-0.1-0.1-0.2-0.3-0.2-0.5L287.6,301.3
			L287.6,301.3z M286.1,301.1c0-0.2,0.1-0.3,0.2-0.4c0.2-0.2,0.6-0.2,0.8,0c0.1,0.1,0.1,0.2,0.1,0.4H286.1z"/>
		<path class="st0" d="M302.3,271.7c-0.2,0-0.3,0-0.4-0.1c-0.1-0.1-0.1-0.2-0.2-0.3l-0.3,0.1c0,0.2,0.1,0.4,0.3,0.5
			c0.3,0.2,0.7,0.2,1,0.1c0.1-0.1,0.2-0.1,0.3-0.2c0.1-0.2,0.1-0.4,0-0.6l-0.2-0.2c-0.1,0-0.3-0.1-0.5-0.2c-0.2,0-0.3-0.1-0.3-0.1
			l-0.1-0.1l0-0.1l0.1-0.2c0.1-0.1,0.5-0.1,0.6,0c0.1,0.1,0.1,0.1,0.1,0.2l0.3,0c0-0.1-0.1-0.2-0.1-0.3c-0.1-0.1-0.1-0.1-0.3-0.2
			c-0.2-0.1-0.5-0.1-0.7,0l-0.2,0.1l-0.2,0.2l-0.1,0.3c0,0.1,0,0.2,0.1,0.3l0.2,0.2c0.1,0,0.3,0.1,0.5,0.2c0.2,0,0.3,0.1,0.3,0.1
			l0.1,0.2l-0.1,0.2C302.6,271.7,302.4,271.7,302.3,271.7z"/>
		<path class="st0" d="M303.5,269.9v2h0.3v-1.1c0-0.3,0.1-0.4,0.2-0.5c0.1-0.1,0.2-0.1,0.4-0.1l0.2,0.1l0.1,0.2c0,0.1,0,0.2,0,0.3
			v1.2h0.3v-1.2c0-0.2,0-0.3,0-0.3l-0.1-0.3c0-0.1-0.1-0.1-0.2-0.2c-0.3-0.1-0.8,0-1,0.3v-0.3H303.5z"/>
		<path class="st0" d="M307,271.9c0.1-0.1,0.3-0.2,0.3-0.3c0.2-0.4,0.2-1-0.1-1.4c-0.3-0.3-1-0.4-1.3-0.1c-0.4,0.4-0.4,1.2-0.1,1.6
			C306.1,272,306.6,272.1,307,271.9z M305.9,270.9c0-0.3,0.1-0.4,0.2-0.6c0.2-0.3,0.6-0.3,0.8,0c0.2,0.3,0.2,0.9,0,1.2
			c-0.2,0.3-0.6,0.3-0.8,0C305.9,271.4,305.9,271.2,305.9,270.9z"/>
		<path class="st0" d="M307.8,269.9v2h0.3v-1c0-0.2,0-0.3,0.1-0.4c0-0.1,0.1-0.2,0.2-0.2l0.3-0.1c0.1,0,0.2,0,0.3,0.1
			c0.1,0.1,0.1,0.2,0.1,0.3v1.3h0.3v-1.2c0-0.2,0-0.4,0.1-0.5c0.1-0.1,0.2-0.1,0.4-0.1l0.2,0.1l0.1,0.1c0,0.1,0,0.2,0,0.3v1.3h0.3
			v-1.4c0-0.2-0.1-0.4-0.2-0.5c-0.3-0.3-0.9-0.1-1.1,0.2c0-0.1-0.1-0.2-0.2-0.3c-0.2-0.1-0.5-0.1-0.7,0c-0.1,0.1-0.2,0.1-0.3,0.2
			v-0.3H307.8z"/>
		<path class="st0" d="M336.4,178.1c0-0.2,0-0.3-0.1-0.4c-0.1-0.1-0.2-0.2-0.3-0.3c-0.1-0.1-0.3-0.1-0.6-0.1h-1.2v2.8h0.4v-1.2h0.4
			l0.2,0l0.2,0.1l0.2,0.2c0.1,0.1,0.2,0.2,0.3,0.4l0.4,0.6h0.5l-0.5-0.8c-0.1-0.1-0.2-0.3-0.3-0.4l-0.2-0.1c0.3,0,0.5-0.1,0.6-0.3
			C336.4,178.5,336.4,178.3,336.4,178.1z M336,178.4l-0.2,0.2c-0.1,0-0.2,0.1-0.4,0.1h-0.8v-0.9h0.9c0.2,0,0.4,0,0.5,0.1
			c0.1,0.1,0.1,0.2,0.1,0.3L336,178.4z"/>
		<path class="st0" d="M338.7,179.1c0-0.3-0.1-0.6-0.3-0.8c-0.3-0.4-1-0.4-1.3,0c-0.4,0.4-0.4,1.2,0,1.5c0.3,0.3,0.9,0.4,1.3,0.1
			c0.2-0.1,0.3-0.3,0.3-0.5l-0.3,0c-0.1,0.1-0.1,0.2-0.2,0.3c-0.2,0.2-0.6,0.1-0.7-0.1c-0.1-0.1-0.2-0.3-0.2-0.5L338.7,179.1
			L338.7,179.1z M337.2,179c0-0.2,0.1-0.3,0.2-0.4c0.2-0.2,0.6-0.2,0.8,0c0.1,0.1,0.1,0.2,0.1,0.4H337.2z"/>
		<path class="st0" d="M339.9,178.4c0.1,0,0.2,0,0.3,0.1c0.1,0.1,0.1,0.2,0.2,0.3l0.3,0c0-0.2-0.1-0.4-0.3-0.5c-0.3-0.2-0.7-0.2-1,0
			c-0.1,0.1-0.3,0.2-0.3,0.4c-0.2,0.4-0.2,1,0.1,1.3c0.3,0.3,0.9,0.4,1.2,0.1c0.2-0.1,0.2-0.3,0.3-0.5l-0.3,0c0,0.2-0.1,0.3-0.2,0.4
			c-0.2,0.2-0.6,0.1-0.7-0.1c-0.2-0.3-0.2-0.9,0-1.2C339.6,178.4,339.8,178.4,339.9,178.4z"/>
		<path class="st0" d="M341.2,178.3c-0.4,0.4-0.4,1.2,0,1.6c0.3,0.3,0.8,0.3,1.2,0.1c0.2-0.1,0.3-0.2,0.3-0.3c0.2-0.4,0.2-1-0.1-1.4
			C342.2,178,341.6,178,341.2,178.3z M342.4,179.1c0,0.3-0.1,0.5-0.2,0.6c-0.2,0.2-0.6,0.3-0.8,0c-0.2-0.3-0.2-0.9,0-1.2
			c0.2-0.3,0.6-0.2,0.8,0C342.4,178.7,342.4,178.9,342.4,179.1z"/>
		<path class="st0" d="M343.2,178.1v2h0.3v-1.1c0-0.1,0-0.3,0.1-0.4l0.1-0.2l0.2-0.1l0.2,0.1l0.1-0.3c-0.1-0.1-0.2-0.1-0.3-0.1
			l-0.2,0.1c-0.1,0-0.1,0.1-0.2,0.3v-0.3H343.2z"/>
		<path class="st0" d="M346.1,180.1v-2.8h-0.3v1l-0.2-0.2c-0.2-0.1-0.6-0.1-0.8,0.1c-0.1,0.1-0.2,0.2-0.3,0.4
			c-0.1,0.3-0.1,0.8,0,1.1c0.1,0.2,0.2,0.3,0.3,0.4c0.3,0.2,0.8,0.2,1-0.2v0.3H346.1z M345.6,179.7c-0.2,0.2-0.6,0.2-0.8,0
			c-0.2-0.3-0.2-0.9,0-1.2c0.2-0.2,0.6-0.2,0.8,0C345.9,178.8,345.9,179.5,345.6,179.7z"/>
		<path class="st0" d="M360,145.8c-0.2,0-0.5,0-0.7,0c-0.8-0.1-1.3-0.4-1.8-1l-1.3,1.1c1.3,1.2,3.3,1.8,5,1c1.3-0.5,2.2-2.5,0.8-3.5
			c-0.9-0.7-2.1-0.4-3-0.9c-0.4-0.2-0.6-0.5-0.2-0.9c0.6-0.5,2.1,0.1,2.5,0.6l1.2-1.2c-1.1-0.8-2.6-1.2-4-0.9
			c-0.7,0.2-1.3,0.4-1.7,1.1c-0.3,0.6-0.4,1.4-0.1,2c0.4,0.7,1,0.9,1.8,1c0.4,0.1,3,0.4,1.9,1.3C360.4,145.8,360.2,145.8,360,145.8z
			"/>
		<path class="st0" d="M363.3,140.3v6.9h2v-4.3c0-1.5,2.1-1.5,2.1,0v4.3h2v-5.1c0-1.1-0.4-2-2.1-2c-0.8,0-1.4,0.2-2,0.8v-0.6H363.3z
			"/>
		<path class="st0" d="M377.6,140.4v6.9h2V143c0-1.5,2.1-1.6,2.1,0v4.3h2V143c0-1.7,2.1-1.5,2.1,0.2v4h2c0-1.8,0.1-3.6,0-5.4
			c-0.1-1.1-0.9-1.5-1.9-1.6c-1-0.1-1.7,0.1-2.5,0.9c-0.5-0.7-1-0.9-1.8-0.9c-0.8,0-1.4,0.2-2,0.8v-0.6H377.6z"/>
		<path class="st0" d="M373.2,142.1v-1.6c-4.4,0.3-4.3,6.9,0,7.3v-1.6c-0.9-0.2-1.2-1-1.3-2.1C371.9,143,372.3,142.2,373.2,142.1z"
			/>
		<path class="st0" d="M373.8,145.4v1.6c4.3-0.3,4.3-6.9,0-7.2v1.6C375.5,141.8,375.5,145.1,373.8,145.4z"/>
		<path class="st0" d="M392.1,143.7c-0.2,0-0.3-0.1-0.5-0.2c-0.1-0.1-0.2-0.3-0.3-0.6l-0.5,0.1c0,0.3,0.2,0.6,0.4,0.8
			c0.5,0.4,1.3,0.4,1.8,0c0.4-0.4,0.5-1,0.2-1.5c-0.1-0.2-0.3-0.3-0.5-0.3c0.2-0.1,0.3-0.2,0.4-0.3c0.2-0.3,0.2-0.7,0-1
			c-0.1-0.2-0.2-0.3-0.4-0.4c-0.4-0.2-1-0.2-1.3,0.1c-0.2,0.2-0.3,0.4-0.4,0.7l0.5,0.1c0-0.2,0.1-0.4,0.2-0.5c0.2-0.2,0.7-0.2,0.9,0
			c0.3,0.2,0.2,0.7-0.1,0.9c-0.2,0.1-0.3,0.2-0.5,0.2l-0.1,0l-0.1,0.4c0.3-0.1,0.6-0.1,0.9,0.2c0.3,0.3,0.3,0.8,0,1.1
			C392.5,143.7,392.3,143.7,392.1,143.7z"/>
		<path class="st0" d="M394.8,142.6c-0.3,0.2-0.5,0.4-0.6,0.6c-0.1,0.2-0.2,0.3-0.3,0.5c0,0.1-0.1,0.2-0.1,0.3h2.5v-0.5h-1.9
			l0.2-0.3c0.1-0.1,0.3-0.2,0.5-0.5c0.3-0.3,0.6-0.5,0.7-0.7c0.1-0.2,0.3-0.3,0.3-0.5c0.2-0.4,0.1-0.9-0.2-1.2
			c-0.4-0.4-1.3-0.4-1.8,0c-0.2,0.2-0.3,0.5-0.4,0.8l0.5,0.1c0-0.2,0.1-0.4,0.2-0.6c0.3-0.3,0.8-0.3,1.1,0c0.3,0.3,0.2,0.7,0,1
			C395.5,142,395.2,142.3,394.8,142.6z"/>
		<path class="st0" d="M398.8,143.9c0.2-0.2,0.3-0.4,0.4-0.6c0.2-0.6,0.2-1.4,0.1-2c-0.1-0.2-0.1-0.4-0.2-0.6
			c-0.1-0.2-0.2-0.3-0.4-0.4c-0.4-0.2-0.9-0.2-1.2,0.1c-0.2,0.2-0.3,0.4-0.4,0.6c-0.2,0.8-0.3,2,0.2,2.7
			C397.6,144.2,398.4,144.3,398.8,143.9z M397.4,142.2c0-0.6,0.1-1.1,0.2-1.3c0.3-0.4,0.8-0.3,1.1,0c0.4,0.5,0.4,2,0,2.5
			c-0.3,0.4-0.8,0.4-1.1,0C397.4,143.2,397.4,142.8,397.4,142.2z"/>
	</g>
</g>
<g id="Ebene_3">
	<g>
		<circle id="bgnumber_11_" class="st1" cx="354.2" cy="312.2" r="7.1"/>
		<text transform="matrix(1 0 0 1 349.67 315.7459)" class="st2 st3 st4 button" data-number="11">12</text>
	</g>
	<g>
		<circle id="bgnumber_10_" class="st1" cx="378" cy="302.8" r="7.1"/>
		<text transform="matrix(1 0 0 1 374.1452 306.288)" class="st2 st3 st4 button" data-number="10">11</text>
	</g>
	<g>
		<circle id="bgnumber_9_" class="st1" cx="354.2" cy="291.8" r="7.1"/>
		<text transform="matrix(1 0 0 1 349.2335 295.3578)" class="st2 st3 st4 button" data-number="9">10</text>
	</g>
	<g>
		<circle id="bgnumber_8_" class="st1" cx="378" cy="282.4" r="7.1"/>
		<text transform="matrix(1 0 0 1 372.1692 285.8586)" class="st2 st3 st4 button" data-number="8">09</text>
	</g>
	<g>
		<circle id="bgnumber_7_" class="st1" cx="354.2" cy="271.5" r="7.1"/>
		<text transform="matrix(1 0 0 1 348.3086 275.0315)" class="st2 st3 st4 button" data-number="7">08</text>
	</g>
	<g>
		<circle id="bgnumber_6_" class="st1" cx="378" cy="261.9" r="7.1"/>
		<text transform="matrix(1 0 0 1 372.6287 265.4908)" class="st2 st3 st4 button" data-number="6">07</text>
	</g>
	<g>
		<circle id="bgnumber_5_" class="st1" cx="354.2" cy="251.1" r="7.1"/>
		<text transform="matrix(1 0 0 1 348.3487 254.5261)" class="st2 st3 st4 button" data-number="5">06</text>
	</g>
	<g>
		<circle id="bgnumber_4_" class="st1" cx="378" cy="241.5" r="7.1"/>
		<text transform="matrix(1 0 0 1 372.3493 244.9444)" class="st2 st3 st4 button" data-number="4">05</text>
	</g>
	<g>
		<circle id="bgnumber_3_" class="st1" cx="354.2" cy="230.7" r="7.1"/>
		<text transform="matrix(1 0 0 1 348.2986 234.2)" class="st2 st3 st4 button" data-number="3">04</text>
	</g>
	<g>
		<circle id="bgnumber_2_" class="st1" cx="378" cy="221.1" r="7.1"/>
		<text transform="matrix(1 0 0 1 372.2543 224.5768)" class="st2 st3 st4 button" data-number="2">03</text>
	</g>
	<g>
		<circle id="bgnumber_1_" class="st1" cx="354.2" cy="210.3" r="7.1"/>
		<text transform="matrix(1 0 0 1 348.5788 213.7735)" class="st2 st3 st4 button" data-number="1">02</text>
	</g>
	<g>
		<circle id="bgnumber" class="st1" cx="378" cy="200.7" r="7.1"/>
		<text transform="matrix(1 0 0 1 373.0541 204.1091)" class="st2 st3 st4 button" data-number="0">01</text>
	</g>
</g>
</svg>
