<?xml version="1.0" encoding="utf-8"?>
<!-- Generator: Adobe Illustrator 21.0.1, SVG Export Plug-In . SVG Version: 6.00 Build 0)  -->
<!DOCTYPE svg PUBLIC "-//W3C//DTD SVG 1.1//EN" "http://www.w3.org/Graphics/SVG/1.1/DTD/svg11.dtd">
<svg version="1.1" xmlns="http://www.w3.org/2000/svg" xmlns:xlink="http://www.w3.org/1999/xlink" x="0px" y="0px"
	 viewBox="0 0 421.2 353.1" style="enable-background:new 0 0 421.2 353.1;" xml:space="preserve">
<style type="text/css">
	.button{cursor: pointer}
	.st0{fill:#B3B2B2;}
	.st1{fill:#FFFFFF;}
	.st2{fill:#29AEE4;}
	.st3{font-family:'BrixSansRegular';}
	.st4{font-size:10px;}
</style>
<g id="Ebene_4">
	<g>
		<path class="st0" d="M35.4,166c0,0.2,0,0.4,0,0.5h0c0,0.2,0,0.4,0,0.6h0l0,0.6l0,0c0,0.2,0,0.4,0.1,0.5l0,0
			c0.2,0.6,0.6,0.9,1.2,1.1l0,0c0.1,0,0.3,0,0.4,0v0l0,0l0,0v0l0.1,0l0,0l0.2,0c1.6-0.1,3.2-0.2,4.9-0.3l5.1-0.3
			c1.7-0.1,3.4-0.2,5.1-0.3l0,0c0.2,0,0.3,0,0.5-0.1l0,0c0,0,0,0,0,0c0,0,0,0,0,0l0,0c0.6-0.2,0.9-0.6,1-1.2l-0.1,0l0.1,0
			c0-0.1,0-0.2,0-0.4l-0.3,0l0.3,0c0-0.3-0.1-0.5-0.2-0.7c-0.1-0.2-0.2-0.4-0.4-0.5c-0.1-0.1-0.3-0.2-0.5-0.3
			c-0.2-0.1-0.4-0.1-0.5-0.1l0,0l-10.1-0.5c-1.7-0.1-3.4-0.2-5.1-0.3l0,0.3l0,0l0-0.3l0,0.3l0,0l0-0.3l-0.3,0l0,0.3l-0.1-0.3
			c-0.6,0.1-1,0.4-1.2,1l0,0C35.4,165.5,35.4,165.7,35.4,166l0.3-0.1l0,0L35.4,166l0.3,0l0,0L35.4,166z M36.8,168.9l0-0.1l0,0
			L36.8,168.9z M52.7,167.9C52.7,167.9,52.7,167.9,52.7,167.9l0.1,0.2L52.7,167.9z M37.1,165.1L37.1,165.1L37.1,165.1L37.1,165.1z
			 M36.6,166c0-0.1,0.1-0.3,0.2-0.4c0.1-0.1,0.2-0.1,0.4-0.1l15.2,0.8l0,0c0.4,0,0.5,0.3,0.5,0.5c0,0.2-0.1,0.5-0.5,0.5v0l-15.2,0.8
			l0,0c-0.1,0-0.3,0-0.4-0.1c-0.1-0.1-0.2-0.2-0.2-0.4l-0.4,0l0,0l0.4,0C36.6,167,36.6,166.5,36.6,166l-0.4,0l0,0L36.6,166z
			 M35.8,168L36,168c0,0,0,0,0,0L35.8,168z M36,165.5L36,165.5l-0.2-0.1L36,165.5z M35.9,166.5C35.9,166.5,35.9,166.5,35.9,166.5
			h-0.2H35.9z"/>
		<path class="st0" d="M72.6,199.7L72.6,199.7L72.6,199.7c-0.3-5.1-0.5-10.2-0.8-15.2l-0.3,0l0,0l0.3,0l0-0.1l0,0
			c-0.1-0.8-0.5-1.3-1.3-1.4l0,0.1l0-0.1c-0.2-0.1-0.5-0.1-0.7,0l0,0c-0.7,0.1-1.1,0.5-1.3,1.2l0,0c0,0.1-0.1,0.2-0.1,0.4l0.3,0
			l-0.3,0l0,1.1l0.3,0l-0.3,0l0,0.4c0,0.3,0,0.5,0,0.8c0,0.3,0,0.6,0,0.9l-0.3,5.7c0,0.4,0,0.9-0.1,1.4l-0.2,4l0.5,0v0l-0.5,0l0,0.9
			l0.3,0l0,0l-0.3,0c0,0.1,0,0.2,0,0.4l0.3,0v0l-0.3,0.1c0.1,0.6,0.4,1,0.9,1.3l0.1-0.3l-0.1,0.3l0.1,0.1l0.1-0.3l-0.1,0.3
			c0.2,0.1,0.3,0.1,0.5,0.1v0c0.1,0,0.3,0,0.4,0V201c0,0,0,0,0,0v0.5h0.2V201l0,0.5l0.2,0v0h0.2v-0.4l0,0.4l0.2,0l0-0.3l0,0.3l0.4,0
			l0-0.3l0,0l0.1,0.3l0.1,0l-0.1-0.3l0,0l0,0.3c0.2,0,0.3-0.1,0.5-0.1l0,0c0.5-0.2,0.8-0.6,0.9-1.1l0,0
			C72.6,200.1,72.6,200,72.6,199.7L72.6,199.7L72.6,199.7C72.6,199.7,72.6,199.7,72.6,199.7L72.6,199.7z M68.4,199.8L68.4,199.8
			L68.4,199.8L68.4,199.8z M70.1,201L70.1,201L70.1,201L70.1,201z M71.4,199.8c0,0.1,0,0.3-0.1,0.4c-0.1,0.1-0.2,0.2-0.4,0.2l0,0.4
			l0,0l0-0.4c-0.5,0-1.1,0-1.6,0v0c-0.1,0-0.3-0.1-0.4-0.2c-0.1-0.1-0.1-0.2-0.1-0.4l0.8-15.2l0,0c0-0.4,0.3-0.5,0.5-0.5
			c0.2,0,0.5,0.1,0.5,0.5L71.4,199.8L71.4,199.8z M72,200.1L72,200.1l0.2,0.1L72,200.1z M72.5,199.7l-0.2,0l0,0L72.5,199.7
			L72.5,199.7z"/>
		<path class="st0" d="M103.9,174.6c0-0.6-0.2-1.1-0.7-1.4l-0.2,0.3l0.2-0.3l-0.2-0.1l-0.1,0.3l0,0l0.1-0.3l-0.3-0.1l-0.1,0.3
			l0.1-0.3l-5.1-1.1c-1.7-0.4-3.3-0.7-5-1.1l-1.2-0.3c-1.2-0.3-2.4-0.5-3.6-0.8l-0.1,0.3l0,0l0-0.3l-0.3,0l0,0.3l0,0v-0.3
			c-0.6,0-1,0.2-1.4,0.7l0.3,0.2l-0.3-0.2l-0.1,0.3l0.3,0.2l-0.3-0.1c-0.3,0.7-0.1,1.5,0.6,2l0,0c0.2,0.1,0.3,0.2,0.5,0.3l0,0
			l14.5,4.7l0.1-0.3l-0.1,0.3l0.2,0.1l0,0l0.2,0l0-0.3l0,0l0.1-0.2l0,0.5l0-0.3l0,0.3l0.2,0l0-0.3l0.1,0.3c0.4-0.1,0.7-0.2,1-0.5
			l0,0c0.2-0.2,0.3-0.4,0.4-0.7l-0.3-0.1l0.3,0.1l0.1-0.5l-0.3-0.1l0.3,0.1l0.2-0.8l-0.3-0.1l0.3,0c0-0.1,0-0.2,0.1-0.2l-0.3-0.1
			l0,0l0.3,0.1l0-0.1l-0.3,0l0,0l0.3,0L103.9,174.6l-0.3,0l0,0L103.9,174.6z M102.4,173.7L102.4,173.7l0,0.2L102.4,173.7z
			 M101.5,177.7l0-0.3l0,0L101.5,177.7z M102,176.5c-0.1,0.1-0.3,0.1-0.4,0l-0.1,0.3h0l0.1-0.3l-14.5-4.7l0,0
			c-0.4-0.1-0.4-0.4-0.4-0.6c0.1-0.2,0.3-0.4,0.6-0.4l0.1-0.3l-0.1,0.3l14.9,3.2l0,0c0.1,0,0.3,0.1,0.3,0.2c0.1,0.1,0.1,0.3,0.1,0.4
			l0,0c-0.1,0.5-0.3,1-0.4,1.6l0,0C102.2,176.4,102.2,176.5,102,176.5z M102.6,176.3L102.6,176.3l-0.1,0L102.6,176.3z M102.6,176.9
			C102.6,176.9,102.6,176.9,102.6,176.9l0.1,0.1L102.6,176.9z"/>
		<path class="st0" d="M104.8,167.2l0-0.7h0l0-0.2l0,0l0-0.3h0c0-0.2,0-0.4-0.1-0.5l0,0c-0.2-0.6-0.6-0.9-1.2-1.1l0,0l0,0
			c-0.1,0-0.2,0-0.4,0l0,0.3l0,0l0-0.3l0,0l0,0l-15.2,0.8v0c0,0,0,0,0,0l0,0l0,0c-0.2,0-0.3,0-0.5,0.1c0,0,0,0,0,0l0,0
			c-0.6,0.2-0.9,0.6-1,1.2l0,0l0,0c0,0.1,0,0.2,0,0.4l0.3,0l-0.3,0c0,0.3,0.1,0.5,0.2,0.7c0.1,0.2,0.2,0.4,0.4,0.5
			c0.1,0.1,0.3,0.2,0.5,0.3c0.2,0.1,0.4,0.1,0.5,0.1l0,0L98,169c1.7,0.1,3.4,0.2,5.1,0.3l0,0c0,0,0.1,0,0.1,0c0.2,0,0.4,0,0.6-0.1
			l0,0c0.5-0.2,0.8-0.4,1-0.9l-0.3-0.2l0.3,0.1l0.1-0.3l-0.3-0.1l0,0l0.3,0l0-0.2l0,0l0-0.2l0-0.1L104.8,167.2l-0.5,0c0,0,0,0,0,0
			L104.8,167.2z M104.5,167.4L104.5,167.4L104.5,167.4L104.5,167.4z M104.3,166.5C104.3,166.5,104.3,166.5,104.3,166.5l0.2,0
			L104.3,166.5z M104.3,166.3C104.3,166.3,104.3,166.3,104.3,166.3L104.3,166.3L104.3,166.3z M87.5,165.7
			C87.5,165.7,87.5,165.7,87.5,165.7L87.5,165.7L87.5,165.7z M103.5,168.7C103.5,168.7,103.5,168.7,103.5,168.7L103.5,168.7
			L103.5,168.7z M104,167.6L104,167.6l-0.3,0c0,0.1-0.1,0.3-0.2,0.4c-0.1,0.1-0.2,0.1-0.4,0.1l0,0l-15.2-0.8l0,0
			c-0.4,0-0.5-0.3-0.5-0.5s0.1-0.5,0.5-0.5l15.2-0.8c0.1,0,0.3,0,0.4,0.1c0.1,0.1,0.2,0.2,0.2,0.4l0.3,0l0,0l-0.3,0
			c0,0.5,0,1.1,0,1.6L104,167.6z M104.2,165.6C104.2,165.6,104.2,165.6,104.2,165.6l0.2-0.1L104.2,165.6z"/>
		<path class="st0" d="M86.8,160.6L86.8,160.6c-0.9,0.3-1.4,1.2-1.1,2.1l0.5-0.1l-0.5,0.1c0.1,0.2,0.2,0.4,0.3,0.6l0,0
			c0.2,0.3,0.5,0.5,0.9,0.6l0.1-0.3l-0.1,0.4c0.1,0,0.3,0,0.4,0.1l0-0.3l0,0l0,0.3l0.3,0l0-0.3l0.1,0.3l5-1.1
			c1.2-0.3,2.5-0.5,3.7-0.8l6.2-1.3l0,0c0.2,0,0.4-0.1,0.5-0.2l-0.2-0.4l0.3,0.4l0.2-0.1l-0.2-0.3l0.2,0.3c0.4-0.3,0.6-0.6,0.6-1.1
			l-0.3,0l0.3,0l0-0.2l-0.3,0l0,0l0.3,0l0-0.3l-0.3,0l0,0l0.3-0.1l0-0.2l-0.3,0.1l0,0l0.3-0.1l0-0.2l-0.3,0.1l0.3-0.1l-0.2-0.8l0,0
			l0-0.1c0-0.1-0.1-0.2-0.1-0.3l0,0c0,0,0,0,0,0c0,0,0,0,0,0l0,0c0-0.2-0.1-0.3-0.2-0.4l-0.2,0.1l0.2-0.2l-0.1-0.2l-0.3,0.2l0.3-0.2
			c-0.3-0.3-0.6-0.5-1-0.6l-0.1,0.3l0-0.3l-0.2,0l0,0.3v-0.3c-0.2,0-0.3,0-0.5,0.1l0.1,0.3l-0.1-0.3L86.8,160.6z M102.5,160.3
			L102.5,160.3L102.5,160.3L102.5,160.3z M103.1,157.1L103.1,157.1L103.1,157.1L103.1,157.1z M103.5,157.5l-0.4,0.1c0,0,0,0,0,0
			L103.5,157.5z M103,158.8L103,158.8l-0.3,0.1L103,158.8z M101.6,157L101.6,157c0.1,0,0.3,0,0.4,0c0.1,0.1,0.2,0.2,0.2,0.3l0,0
			c0.2,0.5,0.3,1,0.4,1.6l0,0c0,0.1,0,0.3-0.1,0.4c-0.1,0.1-0.2,0.2-0.3,0.2l0,0l-14.9,3.2l0.1,0.4l0,0l-0.1-0.4
			c-0.4,0.1-0.6-0.1-0.6-0.4c-0.1-0.2,0-0.5,0.4-0.6l0,0L101.6,157z"/>
		<path class="st0" d="M97.4,148.2c-1.4,0.9-2.9,1.9-4.3,2.8l-8.5,5.5l0,0c-0.2,0.1-0.3,0.2-0.5,0.4c-0.1,0.2-0.2,0.4-0.3,0.7
			c0,0.3,0,0.5,0,0.7l0.5-0.1c0,0,0,0,0,0l-0.5,0.1c0.1,0.4,0.3,0.6,0.6,0.9l0.2-0.3l-0.2,0.3c0.3,0.2,0.6,0.3,1,0.4l0-0.3v0.3
			c0.3,0,0.5-0.1,0.8-0.2l0,0l6.4-3.3c0.9-0.4,1.7-0.9,2.6-1.3l4.6-2.3l0,0c0.2-0.1,0.4-0.2,0.5-0.4l-0.4-0.3l0,0l0.4,0.3
			c0.4-0.5,0.5-1,0.3-1.6l-0.3,0.1l0,0l0.3-0.1l-0.1-0.3l-0.3,0.1l0.3-0.2l-0.1-0.2l-0.3,0.2l0,0l0.3-0.2l-0.2-0.4
			c-0.1-0.1-0.1-0.2-0.2-0.3l0,0c-0.1-0.2-0.2-0.3-0.3-0.5l-0.2,0.1l0.2-0.1c-0.1-0.1-0.2-0.3-0.3-0.4l-0.2,0.2l0.2-0.2l-0.1-0.1
			l-0.3,0.3l0.2-0.3c-0.3-0.2-0.5-0.3-0.9-0.3l0,0.4l0-0.4l-0.1,0l0,0.3v-0.3C98,147.9,97.7,148,97.4,148.2l0.2,0.3l0,0L97.4,148.2z
			 M84.8,156.8L84.8,156.8L84.8,156.8L84.8,156.8z M99.7,149.4L99.7,149.4C99.6,149.5,99.6,149.5,99.7,149.4L99.7,149.4z
			 M99.8,150.5L99.8,150.5l-0.3,0.1L99.8,150.5z M97.9,148.9l0.2,0.2c0.1-0.1,0.2-0.1,0.4-0.1c0.1,0,0.3,0.1,0.3,0.2l0,0
			c0.3,0.5,0.5,0.9,0.8,1.4l0,0c0.1,0.1,0.1,0.3,0,0.4c0,0.1-0.1,0.2-0.3,0.3l-13.6,6.9l0.2,0.3l0,0l-0.2-0.3
			c-0.3,0.2-0.6,0-0.7-0.2c-0.1-0.2-0.1-0.5,0.2-0.7l-0.1-0.2l0.1,0.2l12.8-8.3L97.9,148.9z"/>
		<path class="st0" d="M91.6,141.8L91.6,141.8l-3.6,4c-1.1,1.3-2.3,2.5-3.4,3.8l-3.2,3.6l0,0c0,0,0,0,0,0l0,0l0,0
			c-0.6,0.6-0.6,1.2-0.2,2l0.4-0.2c0,0,0,0,0,0l-0.4,0.2c0.3,0.6,0.8,0.8,1.5,0.8v-0.5c0,0,0,0,0,0l0,0.5c0.4,0,0.8-0.1,1.1-0.4
			l-0.2-0.2l0,0l0.2,0.2l3.8-3.4c1.3-1.1,2.5-2.3,3.8-3.4l3.8-3.4l-0.2-0.2l0.2,0.2l0.1-0.1L95,145l0,0l0.2,0.2
			c0.1-0.2,0.2-0.3,0.3-0.5l0,0c0.3-0.6,0.3-1.1-0.1-1.6l-0.3,0.2l0.3-0.2l-0.2-0.2l-0.3,0.2l0.2-0.2l-0.2-0.2l-0.2,0.2l0,0l0.2-0.2
			l-0.2-0.2l-0.3,0.3l0.3-0.3l-0.6-0.6l-0.2,0.2l0,0l0.2-0.3l-0.2-0.2l0,0c-0.1-0.1-0.2-0.2-0.4-0.3l-0.2,0.3l0,0l0.2-0.3
			c-0.2-0.1-0.4-0.2-0.7-0.2l0,0.4l0-0.4l-0.1,0l0,0.3v-0.3C92.4,141.2,92,141.4,91.6,141.8z M95.1,144.5l0.3,0.1L95.1,144.5
			C95.1,144.5,95.1,144.5,95.1,144.5z M91.9,142L91.9,142l-0.2-0.2L91.9,142z M93.2,142.5c0.4,0.4,0.8,0.8,1.1,1.1l0.2-0.2l0,0
			l-0.2,0.2c0.1,0.1,0.1,0.2,0.1,0.4c0,0.1-0.1,0.3-0.2,0.4l0.2,0.3l-0.2-0.3L83,154.6l0.2,0.2l0,0l0,0l-0.2-0.3
			c-0.3,0.3-0.6,0.2-0.7,0c-0.2-0.2-0.2-0.4,0-0.7l-0.3-0.2l0.3,0.2l10.2-11.3l-0.3-0.2l0,0l0.3,0.2c0.1-0.1,0.2-0.2,0.4-0.2
			C93,142.4,93.1,142.4,93.2,142.5z"/>
		<path class="st0" d="M84.5,137.1L84.5,137.1c-0.8,1.5-1.6,3-2.3,4.4c-0.8,1.5-1.5,3-2.3,4.5l-2.4,4.6l0.3,0.2l0,0l-0.3-0.2
			c-0.3,0.7-0.3,1.2,0.2,1.8l0,0c0.2,0.2,0.4,0.4,0.7,0.5l0,0c0.3,0.1,0.5,0.2,0.8,0.2c0.4,0,0.8-0.2,1.1-0.5l-0.2-0.2l0,0l0.2,0.2
			l0.2-0.2l-0.3-0.2l0.3,0.2c0.6-1,1.3-1.9,1.9-2.9l2.1-3.3c0.5-0.8,1-1.6,1.6-2.4l0.1-0.1c0.9-1.4,1.8-2.7,2.7-4.1l-0.2-0.1
			l0.2,0.1l0-0.1l-0.3-0.1l0,0l0.3,0.1l0.1-0.2l-0.3-0.1l0,0l0.3,0.1c0.2-0.6,0.2-1.1-0.2-1.6l-0.3,0.2l0.3-0.2l-0.2-0.2l-0.2,0.2
			l0,0l0.2-0.2l-0.2-0.2l-0.2,0.3l0.2-0.3l-0.2-0.1l0,0l-0.2-0.1l-0.1,0.1l0.1-0.1l-0.7-0.4l-0.2,0.3l0,0l0.2-0.3l-0.2-0.1l-0.2,0.3
			l0,0l0.2-0.3c-0.2-0.1-0.3-0.1-0.5-0.2l-0.1,0.3l0-0.3l-0.2,0l0,0.4l0-0.4l-0.1,0l0,0.3v-0.3c-0.4,0-0.8,0.1-1.1,0.4l0.3,0.4l0,0
			l-0.3-0.4C84.7,136.7,84.5,136.8,84.5,137.1l0.3,0.1l0,0L84.5,137.1z M77.9,152.2l0.1-0.1c0,0,0,0,0,0L77.9,152.2z M85.5,137.5
			l-0.2-0.1L85.5,137.5c0.1-0.1,0.2-0.2,0.3-0.3c0.1,0,0.3,0,0.4,0l0.1-0.3l-0.1,0.3c0.5,0.3,0.9,0.5,1.4,0.8l0.2-0.3l0,0l-0.2,0.3
			c0.1,0.1,0.2,0.2,0.2,0.3c0,0.1,0,0.3-0.1,0.4l-8.3,12.8l0,0c-0.2,0.3-0.5,0.3-0.7,0.2c-0.2-0.1-0.4-0.4-0.2-0.7l-0.3-0.2l0.3,0.2
			L85.5,137.5z"/>
		<path class="st0" d="M73,149.3L73,149.3c-0.2,0.7,0,1.2,0.6,1.7l0,0c0,0,0,0,0,0l0,0l0,0c0.1,0.1,0.3,0.2,0.5,0.3l0,0
			c0.2,0.1,0.4,0.1,0.6,0.1c0.6,0,1.1-0.3,1.5-0.8l-0.3-0.2l0,0l0.3,0.1l0.1-0.3L76,150l0.3,0.1l4.7-14.5l-0.3-0.1l0,0l0.3,0.1
			l0-0.1l-0.3-0.1l0,0l0.3,0.1l0-0.2l-0.3,0l0,0l0.3,0c0.1-0.7-0.1-1.1-0.6-1.5l-0.2,0.3l0.2-0.3l-0.2-0.1l-0.2,0.3l0,0l0.1-0.3
			l-0.2-0.1l-0.1,0.3l0.1-0.3l-0.3-0.1l0,0l-0.3-0.1l-0.1,0.3l0.1-0.3l-0.8-0.2l0,0l-0.3-0.1l-0.1,0.3l0,0l0.1-0.3
			c-0.1,0-0.3,0-0.4,0v0.3l0,0l0-0.3l-0.2,0l0,0.3l0-0.3c-0.5,0.1-0.8,0.3-1.1,0.6l0.1,0.1l-0.1-0.1c-0.2,0.2-0.3,0.4-0.3,0.6
			l0.3,0.1l0,0l-0.3-0.1l0.3,0.1l-0.3-0.1L73,149.3z M73.9,150.7l0.1-0.1l0,0L73.9,150.7z M74.2,150.9l0.1-0.2c0,0,0,0,0,0
			L74.2,150.9z M79.7,134.3L79.7,134.3L79.7,134.3L79.7,134.3z M78.5,133.4L78.5,133.4L78.5,133.4L78.5,133.4z M77.4,134.6
			L77.4,134.6c0-0.1,0.1-0.3,0.2-0.3c0.1-0.1,0.3-0.1,0.4-0.1l0,0c0.5,0.1,1,0.3,1.6,0.4l0,0c0.1,0,0.2,0.1,0.3,0.3
			c0.1,0.1,0.1,0.3,0,0.4l-4.7,14.5c-0.1,0.4-0.4,0.4-0.6,0.4c-0.2-0.1-0.4-0.3-0.4-0.6L77.4,134.6z"/>
		<path class="st0" d="M72.6,133.8c0-0.2,0-0.3-0.1-0.5l0,0c-0.2-0.6-0.5-0.9-1.1-1.1l0,0.1l0-0.1c-0.2-0.1-0.3-0.1-0.5-0.1l0,0.2
			l0-0.2c-0.1,0-0.3,0-0.4,0v0l-0.2,0l0,0.4l0-0.4l-0.2,0v0h-0.2v0.3l0-0.3l-0.2,0v0c-0.1,0-0.3,0-0.4,0v0c-0.2,0-0.4,0-0.5,0.1
			l0.1,0.4l-0.2-0.4c-0.6,0.2-0.9,0.5-1.1,1.1l0,0c0,0.2-0.1,0.3-0.1,0.5h0.3l-0.3,0l0,0l0,0c0.1,1.6,0.2,3.3,0.3,4.9
			c0.1,1.7,0.2,3.4,0.3,5.1l0.3,5.3l0,0c0,0.2,0,0.4,0.1,0.5l0,0c0,0,0,0,0,0c0,0,0,0,0,0l0,0c0.2,0.6,0.6,0.9,1.2,1l0.1-0.3
			l-0.1,0.3c0.1,0,0.2,0,0.4,0l0-0.3l0,0.3c0.1,0,0.2,0,0.4,0l0-0.1l0,0.1c0.7-0.2,1.3-0.8,1.3-1.6l-0.3,0l0,0l0.3,0l0.5-10.4
			C72.4,137.1,72.5,135.4,72.6,133.8L72.6,133.8z M68.2,133.5l-0.3-0.1L68.2,133.5C68.2,133.5,68.2,133.5,68.2,133.5z M70.5,132.5
			L70.5,132.5C70.5,132.6,70.5,132.6,70.5,132.5L70.5,132.5z M70.1,132.4l0,0.2c0,0,0,0,0,0V132.4z M69.7,132.5l0,0.1c0,0,0,0,0,0
			V132.5z M68.9,149.5l0.1-0.1c0,0,0,0,0,0L68.9,149.5z M70.6,149L70.6,149c0,0.4-0.3,0.5-0.5,0.5c-0.2,0-0.5-0.1-0.5-0.5l-0.8-15.2
			c0-0.1,0-0.3,0.1-0.4c0.1-0.1,0.2-0.2,0.4-0.2l0-0.4l0,0l0,0.4c0.5,0,1.1,0,1.6,0l0-0.3l0,0l0,0.3c0.1,0,0.3,0.1,0.4,0.2
			c0.1,0.1,0.1,0.2,0.1,0.4L70.6,149z M72,133.5L72,133.5L72,133.5L72,133.5z"/>
		<path class="st0" d="M67.2,149.3l-0.3,0.1L67.2,149.3c-0.4-1.7-0.7-3.4-1.1-5.1l-2.1-9.8l-0.3,0.1l0,0l0.3-0.1
			c0-0.2-0.1-0.4-0.3-0.6l-0.2,0.2l0.2-0.2l-0.1-0.1l-0.3,0.2l0.3-0.2c-0.3-0.4-0.6-0.5-1.1-0.6l0,0.3l0-0.4l-0.2,0l0,0.3l0,0V133
			c-0.2,0-0.3,0-0.4,0l0,0l-0.3,0.1l0,0l-0.3,0.1c-0.1,0-0.3,0.1-0.4,0.1l-0.1,0l0,0c-0.1,0-0.3,0.1-0.4,0.1l-0.2,0l0.1,0.3l0,0
			l-0.1-0.3c-0.2,0.1-0.4,0.1-0.5,0.3l0.3,0.4l0,0l-0.3-0.4c-0.4,0.3-0.6,0.7-0.6,1.2l0.5,0.1c0,0,0,0,0,0l-0.5,0
			c0,0.2,0,0.5,0.1,0.7l0.3-0.1l-0.3,0.1c0.5,1.6,1,3.1,1.5,4.7l3.2,9.8l0,0c0,0.1,0.1,0.3,0.2,0.4l0,0c0.3,0.4,0.6,0.6,1.1,0.7
			l0.1-0.4l0,0.4l0.3,0l0-0.4v0.4c0.4,0,0.7-0.1,1.1-0.4l-0.3-0.4l0.3,0.4c0.3-0.3,0.5-0.6,0.6-1l-0.4-0.1l0.4,0.1
			C67.2,149.7,67.2,149.5,67.2,149.3z M62.1,133.8l0.1,0.2L62.1,133.8L62.1,133.8z M61,133.8L61,133.8l0-0.1L61,133.8z M64.4,150.4
			L64.4,150.4L64.4,150.4L64.4,150.4z M66.3,149.4l-0.3,0.1c0.1,0.4-0.1,0.6-0.4,0.6s-0.5,0-0.6-0.4l-4.7-14.5l0,0
			c0-0.1,0-0.3,0-0.4c0.1-0.1,0.2-0.2,0.3-0.2l0,0c0.5-0.2,1-0.3,1.6-0.4l0,0c0.1,0,0.3,0,0.4,0.1c0.1,0.1,0.2,0.2,0.2,0.3l3.2,14.9
			L66.3,149.4L66.3,149.4z"/>
		<path class="st0" d="M51.3,139.1l0.3-0.1L51.3,139.1l0.1,0.2l0.3-0.1l0,0l-0.3,0.2l0.1,0.2l0.3-0.2l-0.3,0.2l8.3,12.8l0.3-0.2
			l-0.3,0.2l0.1,0.2l0.3-0.2l0,0l-0.2,0.2c0.3,0.3,0.6,0.5,0.9,0.5l0.1-0.3l0,0.4l0.3,0l0-0.3v0.3c0.5,0,0.9-0.2,1.3-0.6l0,0
			c0.4-0.5,0.5-1,0.3-1.7l-0.3,0.1l0.3-0.1l-0.1-0.2l-0.3,0.1l0.3-0.2l-6.9-13.6l0,0c-0.1-0.1-0.2-0.3-0.3-0.4l-0.2,0.2l0.2-0.2
			l-0.1-0.1l-0.3,0.3l0.2-0.3c-0.3-0.2-0.5-0.4-0.9-0.4l0,0.4l0-0.4l-0.2,0l0,0.3v-0.3c-0.3,0-0.5,0.1-0.8,0.2l0.2,0.3l0,0l-0.2-0.3
			l-0.2,0.1l0.2,0.3l0,0l-0.2-0.3l-0.2,0.1c-0.2,0.1-0.3,0.2-0.5,0.3l0,0c-0.2,0.1-0.3,0.2-0.5,0.3l0.1,0.1l-0.1-0.1
			c-0.2,0.1-0.3,0.2-0.4,0.4l0.4,0.3l-0.4-0.3C51.2,138,51.1,138.5,51.3,139.1z M62.1,152.2l0.2,0.2L62.1,152.2
			C62.1,152.2,62.1,152.2,62.1,152.2z M55.6,137.2L55.6,137.2L55.6,137.2L55.6,137.2z M52.4,138.5c0-0.1,0.1-0.3,0.2-0.3
			c0.5-0.3,0.9-0.5,1.4-0.8l-0.2-0.3l0,0l0.2,0.3c0.1-0.1,0.3-0.1,0.4,0s0.2,0.1,0.3,0.3l6.9,13.6L62,151l0,0l-0.3,0.2
			c0.2,0.3,0,0.6-0.2,0.7c-0.2,0.1-0.5,0.1-0.7-0.2l-8.3-12.8l-0.1,0.1l0.1-0.1C52.4,138.7,52.4,138.6,52.4,138.5z"/>
		<path class="st0" d="M44.7,143.1c-0.3,0.6-0.4,1-0.1,1.6l0.3-0.1l-0.3,0.2l0.1,0.2l0.3-0.2l0,0l-0.2,0.2l0.2,0.2l0.2-0.2l-0.2,0.3
			l3.8,3.4c1.3,1.1,2.5,2.3,3.8,3.4c1.2,1.1,2.5,2.2,3.7,3.4l0.2-0.2l-0.2,0.2l0.1,0.1l0.2-0.3l0,0l-0.2,0.3
			c0.2,0.2,0.5,0.3,0.8,0.3l0-0.3l0,0.3l0.2,0l0-0.4v0.4c0.7,0,1.1-0.2,1.5-0.8l0,0c0.4-0.7,0.4-1.2-0.1-1.8l-0.3,0.2l0,0l0.3-0.2
			l-0.1-0.1l-0.3,0.2l0.3-0.2l-3.3-3.7c-1.1-1.2-2.3-2.5-3.4-3.7l-3.5-3.9l-0.2,0.2l0.2-0.2l-0.2-0.2l-0.2,0.2l0,0l0.2-0.2
			c-0.3-0.2-0.5-0.3-0.8-0.3l0,0.3l0-0.3l-0.1,0l0,0.3v-0.3c-0.5,0-0.8,0.1-1.2,0.5l0,0l-0.2,0.2l0.2,0.2l-0.2-0.2l-0.2,0.2
			c-0.1,0.1-0.3,0.3-0.4,0.4l0.3,0.3l-0.3-0.3l-0.4,0.4l0.2,0.2l-0.3-0.2L44.7,143.1l0.3,0.2l0,0L44.7,143.1z M58.6,154.8l0.4,0.2
			L58.6,154.8C58.6,154.8,58.6,154.8,58.6,154.8z M45.8,144.4c-0.1-0.1-0.2-0.2-0.2-0.4c0-0.1,0-0.3,0.1-0.4l0,0
			c0.4-0.4,0.8-0.8,1.1-1.1l-0.2-0.2l0,0l0.2,0.2c0.1-0.1,0.2-0.1,0.4-0.1c0.1,0,0.3,0.1,0.4,0.2l10.2,11.3l0.2-0.2l0,0l-0.3,0.2
			c0.3,0.3,0.2,0.6,0,0.7s-0.4,0.2-0.7,0l-0.2,0.3l0.2-0.3L45.8,144.4l-0.2,0.3l0,0L45.8,144.4z"/>
		<path class="st0" d="M39.5,150.5c-0.2,0.6-0.1,1.1,0.3,1.5l0.3-0.2l-0.2,0.2l0.2,0.2l0.2-0.2l0,0l-0.2,0.3l0.2,0.2l0.2-0.3
			l-0.2,0.3l1.1,0.6c1.2,0.6,2.3,1.2,3.5,1.8l9,4.6l0.2-0.3l0,0l-0.2,0.3c0.3,0.1,0.6,0.2,0.8,0.2c0.3,0,0.7-0.1,1-0.4l0,0
			c0.3-0.2,0.5-0.5,0.6-0.9l-0.4-0.1l0.4,0.1c0.1-0.6,0-1.1-0.5-1.6l-0.2,0.2l0,0l0.2-0.2l-0.2-0.2l-0.2,0.3l0,0l0.2-0.3
			c-1.4-0.9-2.8-1.8-4.2-2.8c-1.4-0.9-2.8-1.8-4.3-2.8c-1.1-0.7-2.3-1.5-3.4-2.2l-0.9-0.6l-0.1,0.2l0.1-0.2
			c-0.1-0.1-0.3-0.1-0.4-0.2l-0.1,0.4l0,0l0.1-0.4c-0.1,0-0.2-0.1-0.4-0.1l0,0l-0.1,0l0,0.4v-0.4c-0.4,0-0.7,0.1-1,0.4l0.1,0.1
			l-0.1-0.1c-0.2,0.1-0.3,0.3-0.4,0.4l0,0l-0.3,0.5l0.2,0.1l-0.2-0.1l-0.1,0.1c-0.1,0.1-0.2,0.3-0.2,0.4l-0.1,0.2l0.2,0.1l-0.2-0.1
			l-0.1,0.2l0.3,0.2l0,0l-0.3-0.1L39.5,150.5l0.3,0.1l0,0L39.5,150.5z M42,148.4L42,148.4L42,148.4L42,148.4z M40.7,150.7
			c0.3-0.5,0.5-0.9,0.8-1.4l-0.3-0.2l0,0l0.3,0.2c0.1-0.1,0.2-0.2,0.3-0.2c0.1,0,0.3,0,0.4,0.1l0,0l12.8,8.3l0.1-0.1l-0.1,0.1
			c0.3,0.2,0.3,0.5,0.2,0.7c-0.1,0.2-0.4,0.4-0.7,0.2l-0.2,0.3l0.2-0.3l-13.6-6.9l-0.2,0.3l0,0l0.2-0.3c-0.1-0.1-0.2-0.2-0.3-0.3
			S40.6,150.8,40.7,150.7l-0.3-0.1L40.7,150.7z"/>
		<path class="st0" d="M36.3,159c0,0.5,0.1,0.9,0.4,1.2l0,0l0,0c0,0,0,0,0,0l0,0c0.2,0.2,0.3,0.3,0.6,0.4l0.1-0.3l0,0l-0.1,0.3
			l0.3,0.1l0.1-0.3l0,0l-0.1,0.3l10.8,2.3c1.4,0.3,2.8,0.6,4.2,0.9l0.1-0.3l0,0.3l0.2,0l0-0.3l0,0.3l0.1,0l0-0.3l0,0v0.3
			c0.6,0,1-0.2,1.4-0.7l0,0c0.1-0.1,0.2-0.3,0.2-0.5l-0.5-0.1l0.5,0.1c0.2-0.8,0-1.3-0.6-1.8l0,0c0,0,0,0,0,0l0,0l0,0
			c-0.2-0.1-0.3-0.2-0.5-0.3l-0.1,0.3l0.1-0.3l-9.8-3.2c-1.6-0.5-3.2-1-4.8-1.5l0,0c-0.1,0-0.3-0.1-0.4-0.1l0,0.4l0,0.1l0-0.5l0,0.4
			l0-0.3l-0.2,0l0,0.3l-0.1-0.3c-0.4,0.1-0.7,0.2-0.9,0.5l0,0c0,0,0,0,0,0c0,0,0,0,0,0l0,0c-0.2,0.2-0.3,0.3-0.4,0.6l0.3,0.1l0,0
			l-0.3-0.1l0.3,0.1l-0.3-0.1l-0.1,0.5l0.3,0.1l-0.3-0.1l-0.2,0.8l0.3,0.1l-0.3-0.1l-0.1,0.3l0.3,0.1l0,0l-0.3,0L36.3,159l0.3,0l0,0
			L36.3,159z M53.9,162.9l0.2,0.1L53.9,162.9C53.9,162.9,53.9,162.9,53.9,162.9z M38.2,157c0.1-0.1,0.3-0.1,0.4,0l14.5,4.7l0,0
			c0.4,0.1,0.4,0.4,0.4,0.6c-0.1,0.2-0.3,0.4-0.6,0.4l-0.1,0.3l0.1-0.3l-14.9-3.2l-0.1,0.3l0,0h0l0.1-0.3c-0.1,0-0.2-0.1-0.3-0.2
			c-0.1-0.1-0.1-0.3-0.1-0.4l0,0c0.1-0.5,0.3-1,0.4-1.6l0,0C38,157.2,38,157.1,38.2,157z M37.6,157.2L37.6,157.2L37.6,157.2
			L37.6,157.2z M37.5,156.7C37.5,156.7,37.5,156.7,37.5,156.7L37.5,156.7L37.5,156.7z M37.2,159.8C37.2,159.8,37.2,159.8,37.2,159.8
			l-0.2,0.1L37.2,159.8z"/>
		<path class="st0" d="M53.4,173L53.4,173C53.4,173,53.4,173,53.4,173L53.4,173L53.4,173c0.9-0.3,1.4-1.2,1.1-2.1l-0.4,0.1l0.4-0.1
			c-0.1-0.2-0.2-0.4-0.3-0.6l0,0c-0.2-0.3-0.5-0.5-0.9-0.6l0,0c0,0,0,0,0,0c0,0,0,0,0,0l0,0c-0.1,0-0.3,0-0.4-0.1l0,0.3l0,0l0-0.3
			l-0.3,0l0,0.3l-0.1-0.3c-1.6,0.3-3.2,0.7-4.9,1l-10.1,2.1v0l0,0l0,0l0,0c-0.2,0-0.4,0.1-0.5,0.2l0.2,0.3l-0.2-0.3l-0.1,0.1
			l0.2,0.3l-0.2-0.3c-0.4,0.3-0.6,0.7-0.7,1.2l0.3,0l-0.3,0l0,0.2l0.3,0l0,0l-0.3,0l0,0.3l0.3-0.1l0,0l-0.3,0.1l0,0.2l0.3-0.1l0,0
			l-0.3,0.1l0,0.2l0.4-0.1l-0.4,0.1c0,0.1,0.1,0.3,0.1,0.4l0,0.1c0,0.1,0.1,0.2,0.1,0.3l0,0l0,0.1c0,0.1,0.1,0.2,0.1,0.3l0,0
			c0,0,0,0,0,0c0,0,0,0,0,0l0,0c0,0.2,0.1,0.3,0.2,0.4l0.3-0.2L37,177l0.1,0.2l0.3-0.2l-0.2,0.2c0.3,0.3,0.6,0.5,1,0.6l0.1-0.3
			l0,0.3l0.3,0l0-0.3v0.3c0.2,0,0.3,0,0.5-0.1l-0.1-0.3l0.1,0.3L53.4,173z M37.1,176.5L37.1,176.5L37.1,176.5L37.1,176.5z
			 M36.9,176.1l0.3-0.1c0,0,0,0,0,0L36.9,176.1z M53.3,170.1l0,0.1c0,0,0,0,0,0L53.3,170.1z M37.8,173.7L37.8,173.7L37.8,173.7
			L37.8,173.7z M37.7,173.2L37.7,173.2L37.7,173.2L37.7,173.2z M38.6,176.6L38.6,176.6c-0.1,0-0.3,0-0.4,0c-0.1-0.1-0.2-0.2-0.2-0.3
			c-0.2-0.5-0.3-1-0.4-1.6c0-0.1,0-0.3,0.1-0.4c0.1-0.1,0.2-0.2,0.3-0.2v0l14.9-3.2l-0.1-0.3l0,0l0.1,0.3c0.4-0.1,0.6,0.1,0.6,0.4
			c0.1,0.2,0,0.5-0.4,0.6L38.6,176.6z"/>
		<path class="st0" d="M42.8,185.4l9.8-6.4c1-0.6,2-1.3,3-1.9l0,0c0.2-0.1,0.3-0.2,0.5-0.4c0.1-0.2,0.2-0.5,0.3-0.7
			c0-0.3,0-0.5,0-0.7l0,0c-0.1-0.4-0.3-0.6-0.6-0.9l-0.1,0.1l0.1-0.1c-0.3-0.2-0.6-0.3-1-0.4l0,0.3V174c-0.3,0-0.5,0.1-0.8,0.2l0,0
			l-9.1,4.6c-1.5,0.8-3,1.5-4.5,2.3l0.2,0.3l0,0l-0.2-0.3l-0.2,0.1l0.2,0.3l-0.2-0.3c-0.2,0.1-0.3,0.2-0.4,0.4l0,0c0,0,0,0,0,0
			c0,0,0,0,0,0l0,0c-0.1,0.2-0.2,0.4-0.3,0.6l0,0c0,0.1,0,0.2,0,0.3l0.3,0l-0.3,0c0,0.2,0.1,0.5,0.2,0.7l0.3-0.1l0,0l-0.3,0.2
			l0.3-0.1l-0.3,0.2l0.1,0.2l0.3-0.2l0,0l-0.3,0.2l0.1,0.2c0.1,0.1,0.1,0.2,0.2,0.4l0.1,0.1l0.3-0.2l-0.3,0.2l0.3,0.5l0.3-0.2
			l-0.3,0.2l0.1,0.2l0.3-0.2l0,0l-0.3,0.2c0.1,0.1,0.2,0.2,0.4,0.3l0,0c0,0,0,0,0,0c0,0,0,0,0,0l0,0c0.2,0.1,0.4,0.2,0.6,0.2
			l0.1-0.3l0,0.3l0.3,0l0-0.3v0.3C42.2,185.7,42.5,185.6,42.8,185.4l-0.2-0.3l0,0L42.8,185.4z M56.1,175.3l-0.2,0.1c0,0,0,0,0,0
			L56.1,175.3z M40,182.4l-0.5-0.1L40,182.4C40,182.4,40,182.4,40,182.4z M40.1,182l-0.1-0.1L40.1,182
			C40.1,181.9,40.1,181.9,40.1,182z M55.4,176.8L55.4,176.8L55.4,176.8L55.4,176.8z M40.7,181.8L40.7,181.8L40.7,181.8L40.7,181.8z
			 M42.3,184.6l-0.1-0.2c-0.1,0.1-0.3,0.1-0.4,0.1c-0.1,0-0.3-0.1-0.3-0.2l0,0c-0.3-0.5-0.5-0.9-0.8-1.4l0,0c-0.1-0.1-0.1-0.3,0-0.4
			c0-0.1,0.1-0.2,0.3-0.3l0,0l13.6-6.9l-0.2-0.3l0,0l0.2,0.3c0.3-0.2,0.6,0,0.7,0.2c0.1,0.2,0.1,0.5-0.2,0.7l-12.8,8.3L42.3,184.6z"
			/>
		<path class="st0" d="M58.8,180.5c0.6-0.6,0.6-1.2,0.2-2l0,0c-0.3-0.6-0.8-0.8-1.5-0.8c-0.5,0-0.8,0.1-1.1,0.4l0,0l-3.7,3.3
			c-0.8,0.7-1.6,1.5-2.4,2.2l-2.7,2.5c-0.8,0.8-1.7,1.5-2.5,2.3l0.1,0.1l-0.1-0.1c-0.2,0.2-0.3,0.3-0.4,0.5l0,0
			c-0.2,0.5-0.2,0.9-0.1,1.3l0.3-0.1l-0.3,0.2l0.1,0.2l0.3-0.1l0,0l-0.2,0.2l0.2,0.2l0.3-0.2l-0.2,0.2l0.1,0.1
			c0.1,0.1,0.2,0.2,0.3,0.3l0.4-0.4c0,0,0,0,0,0l-0.4,0.4c0.1,0.1,0.3,0.3,0.4,0.4l0.4-0.4c0,0,0,0,0,0l-0.4,0.4l0.4,0.4l0.2-0.2
			l0,0l-0.2,0.3l0.1,0.1l0.2-0.2l-0.2,0.3c0.2,0.2,0.5,0.3,0.8,0.3l0-0.3l0,0.3l0.2,0l0-0.4v0.4c0.5,0,0.9-0.2,1.3-0.6l0,0
			L58.8,180.5L58.8,180.5z M45.1,189.1l-0.2-0.1L45.1,189.1C45.1,189.1,45.1,189.1,45.1,189.1z M56.6,178.4L56.6,178.4l-0.2-0.2
			L56.6,178.4z M58.1,179.9l-0.2-0.2L47.7,191l0.2,0.2l0,0l-0.2-0.2c-0.1,0.1-0.2,0.2-0.4,0.2c-0.1,0-0.3,0-0.4-0.1l0,0
			c-0.4-0.4-0.8-0.8-1.1-1.1l-0.3,0.2l0,0l0.3-0.3c-0.1-0.1-0.1-0.2-0.1-0.4c0-0.1,0.1-0.3,0.2-0.4l-0.2-0.3l0.2,0.3L57.2,179l0,0
			c0.3-0.3,0.6-0.2,0.7,0c0.2,0.2,0.2,0.4,0,0.7L58.1,179.9L58.1,179.9z M58.6,178.7C58.6,178.7,58.6,178.7,58.6,178.7l0.2-0.1
			L58.6,178.7z"/>
		<path class="st0" d="M55.8,196.6l0.8-1.6l0,0c0.2-0.5,0.5-1,0.7-1.4l2.9-5.6c0.2-0.3,0.3-0.6,0.5-0.9l1.7-3.2l-0.3-0.2l0.3,0.1
			c0-0.1,0.1-0.1,0.1-0.2l0.1-0.3c0.1-0.1,0.1-0.3,0.2-0.4l-0.3-0.2l0,0l0.3,0.1c0-0.1,0.1-0.2,0.1-0.4l0,0l0-0.2l-0.3-0.1l0.3,0
			l0-0.2l-0.3,0l0.3,0c0-0.4-0.1-0.7-0.3-0.9l0,0c-0.4-0.5-0.8-0.7-1.4-0.8v0c-0.6,0-1.1,0.2-1.4,0.8l0.3,0.2l0,0l-0.3-0.2
			l-8.3,12.8l0.3,0.2l0,0l-0.3-0.2l-0.1,0.2l0.3,0.1l0,0l-0.3-0.1c-0.1,0.1-0.1,0.3-0.1,0.5l0.3,0l-0.3,0l0,0.1l0.3,0l-0.3,0
			c0,0.3,0.1,0.6,0.2,0.8l0.3-0.2l-0.3,0.2c0.1,0.2,0.3,0.4,0.5,0.5l0.2-0.3l0,0l-0.2,0.3l0.2-0.3l-0.2,0.3l0.1,0.1l0.2-0.3l0,0
			l-0.2,0.3l0.2,0.1l0.2-0.3l0,0l-0.1,0.3l0.1,0l0.2-0.5c0,0,0,0,0,0l-0.2,0.5c0.1,0.1,0.2,0.1,0.4,0.2c0.1,0.1,0.3,0.2,0.4,0.2l0,0
			l0.3,0.2l0.2-0.3l-0.1,0.3l0.2,0.1l0.1-0.3l0,0l-0.1,0.3l0.1,0l0.1-0.3l0,0l-0.1,0.3l0.1,0l0.1-0.3l0,0.4l0.2,0l0-0.4v0.4
			c0.5,0,0.8-0.1,1.1-0.4l0,0C55.6,196.9,55.7,196.7,55.8,196.6l-0.3-0.2l0,0L55.8,196.6z M62.6,182.5L62.6,182.5L62.6,182.5
			L62.6,182.5z M62.2,181.5L62.2,181.5L62.2,181.5L62.2,181.5z M52.2,194.5L52.2,194.5L52.2,194.5L52.2,194.5z M61.2,180.7l0,0.2
			c0,0,0,0,0,0V180.7z M53.3,196.9l0.1-0.3c0,0,0,0,0,0L53.3,196.9z M55.1,196.6C55.1,196.6,55.1,196.6,55.1,196.6l0.2,0.2
			L55.1,196.6z M54.7,196l0.3,0.2l0,0L54.7,196c-0.1,0.1-0.2,0.2-0.3,0.3c-0.1,0-0.3,0-0.4,0l-0.1,0.2l0.1-0.2
			c-0.5-0.3-0.9-0.5-1.4-0.8l-0.2,0.3l0,0l0.2-0.3c-0.1-0.1-0.2-0.2-0.2-0.3c0-0.1,0-0.3,0.1-0.4l8.3-12.8l0,0
			c0.2-0.3,0.5-0.3,0.7-0.2c0.2,0.1,0.4,0.4,0.2,0.7l0.3,0.2l-0.3-0.2L54.7,196z"/>
		<path class="st0" d="M67.2,184c0-0.6-0.2-1.1-0.8-1.4l-0.2,0.3l0.2-0.3l-0.2-0.1l-0.2,0.3l0.1-0.3c-0.8-0.3-1.7,0-2.1,0.7l0.3,0.1
			l0,0l-0.3-0.1l-0.1,0.3l0.3,0.1l-0.3-0.1l-0.2,0.7c-0.1,0.2-0.2,0.5-0.2,0.7l0.3,0.1l-0.3-0.1c-0.1,0.3-0.2,0.5-0.3,0.8l-0.1,0.3
			c-0.1,0.2-0.1,0.3-0.2,0.5l-1.3,4.1c-0.1,0.4-0.3,0.8-0.4,1.2l-0.4,1.3c-0.2,0.5-0.3,1-0.5,1.4l-0.8,2.4l0,0
			c-0.1,0.3-0.2,0.6-0.3,0.9l0.3,0.1l-0.3-0.1l-0.1,0.3l0.3,0.1l0,0l-0.3,0c-0.1,0.6,0.1,1,0.6,1.5l0.2-0.3l-0.2,0.3l0.2,0.2
			l0.2-0.2l0,0L60,200l0.3,0.1l0.1-0.3l-0.1,0.3c0.2,0.1,0.3,0.1,0.5,0.2l0.1-0.3l-0.1,0.3l0.8,0.2l0,0l0.3,0.1l0.1-0.3l-0.1,0.3
			c0.1,0,0.3,0,0.4,0v-0.3l0,0l0,0.3l0.2,0l0-0.3l0.1,0.3c0.4-0.1,0.7-0.3,1-0.6l0,0c0.2-0.2,0.3-0.5,0.4-0.7l-0.3-0.1l0,0l0.3,0.1
			l0.2-1.1c0-0.1,0-0.2,0.1-0.3l-0.3-0.1l0.3,0.1l0-0.1c0-0.1,0-0.1,0-0.2c0-0.2,0.1-0.3,0.1-0.5l0-0.2c0.1-0.2,0.1-0.5,0.2-0.7
			l0.2-1.1c0-0.2,0.1-0.4,0.1-0.5c0.1-0.3,0.1-0.6,0.2-0.9c0.1-0.3,0.1-0.7,0.2-1l0.5-2.2c0.1-0.4,0.2-0.8,0.2-1.2
			c0.1-0.4,0.2-0.7,0.2-1.1c0.1-0.3,0.1-0.6,0.2-0.9l0.2-0.8c0.1-0.2,0.1-0.5,0.2-0.7l0.1-0.3l0,0c0.1-0.3,0.1-0.6,0.2-1l0,0l0-0.2
			l-0.3,0l0-0.1L67.2,184l-0.3,0l0,0H67.2z M59.9,197.2l-0.3-0.1L59.9,197.2L59.9,197.2z M63.9,185L63.9,185l-0.2,0L63.9,185z
			 M60.5,199.3L60.5,199.3L60.5,199.3L60.5,199.3z M61.7,200.2L61.7,200.2L61.7,200.2L61.7,200.2z M63.2,199.6
			C63.2,199.6,63.2,199.6,63.2,199.6l0.2,0.2L63.2,199.6z M66,184.1L62.8,199l0.3,0.1l0,0l-0.3-0.1c0,0.1-0.1,0.2-0.2,0.3
			c-0.1,0.1-0.3,0.1-0.4,0.1l0,0c-0.5-0.1-1-0.3-1.6-0.4l0,0c-0.1,0-0.2-0.1-0.3-0.3c-0.1-0.1-0.1-0.3,0-0.4l4.7-14.5l0,0
			c0.1-0.4,0.4-0.4,0.6-0.4C65.9,183.5,66.1,183.7,66,184.1z M66.5,185.2L66.5,185.2L66.5,185.2L66.5,185.2z"/>
		<path class="st0" d="M81,198l-0.3,0.1L81,198l-0.3-0.9l-0.4,0.1l0.4-0.1l-0.5-1.4c-0.1-0.3-0.2-0.7-0.3-1l-2-6.3
			c-0.1-0.3-0.2-0.7-0.3-1c-0.1-0.3-0.2-0.6-0.3-0.9l-0.5-1.7l-0.5,0.2l0,0l0.5-0.2l-0.5-1.4l-0.3,0.1l0,0l0.3-0.1l0-0.1l0,0
			c-0.2-0.4-0.5-0.8-0.9-0.9c-0.4-0.2-0.9-0.2-1.3,0l0.1,0.3l-0.2-0.3l-0.2,0.1l0.2,0.3l-0.2-0.3c-0.4,0.3-0.6,0.6-0.7,1.1l0.3,0.1
			l-0.3,0l0,0.3l0.3,0l0,0l-0.3,0l0,0.3l0.3,0l-0.3,0.1l0.1,0.3l0.3-0.1l0,0l-0.3,0.1c0,0.1,0,0.2,0.1,0.3c0,0.1,0,0.2,0.1,0.3h0
			l0,0c0,0,0,0,0,0h0l0.1,0.3c0,0.2,0.1,0.4,0.1,0.7c0.1,0.2,0.1,0.5,0.2,0.7l0.1,0.4c0,0.1,0.1,0.3,0.1,0.4
			c0.1,0.3,0.1,0.6,0.2,0.8l0.2,0.9c0.1,0.3,0.1,0.6,0.2,1c0.1,0.3,0.1,0.7,0.2,1c0.1,0.4,0.2,0.7,0.2,1.1c0.1,0.4,0.2,0.8,0.2,1.2
			c0.1,0.4,0.2,0.8,0.3,1.3l0.8,3.6h0c0.1,0.3,0.1,0.5,0.2,0.8l0,0c0,0.2,0.1,0.4,0.2,0.5l0.3-0.2l-0.3,0.2l0.1,0.1l0.3-0.2
			l-0.3,0.2c0.3,0.4,0.7,0.6,1.2,0.7l0-0.3l0,0.3l0.2,0l0-0.3l0,0l0,0l0,0.3l0.3,0l-0.1-0.3l0,0l0.1,0.3l0.2,0l-0.1-0.3l0,0l0.1,0.3
			l0.2,0l-0.1-0.3l0.1,0.3c0.1,0,0.3-0.1,0.4-0.1c0.1,0,0.3-0.1,0.4-0.1l0,0l0.1,0c0.1,0,0.2-0.1,0.3-0.1l0,0
			c0.2-0.1,0.4-0.2,0.6-0.3l-0.3-0.3l0.3,0.3c0.3-0.3,0.5-0.7,0.6-1.1l-0.3,0l0.3,0C81.1,198.4,81.1,198.2,81,198z M76.2,183.4
			l-0.2,0.1l0,0L76.2,183.4z M76.2,198.4l0.4-0.1l0,0L76.2,198.4z M77,199.1L77,199.1L77,199.1L77,199.1z M79.8,199.8L79.8,199.8
			l0,0.1L79.8,199.8z M79.9,198.7c-0.1,0.1-0.2,0.2-0.3,0.2c-0.5,0.2-1,0.3-1.6,0.4l0.1,0.4l0,0l-0.1-0.4c-0.1,0-0.3,0-0.4-0.1
			c-0.1-0.1-0.2-0.2-0.2-0.3h0l-3.2-14.9l-0.3,0.1l0,0l0.3-0.1c-0.1-0.4,0.1-0.6,0.4-0.6c0.2-0.1,0.5,0,0.6,0.4l4.7,14.5h0
			C79.9,198.4,79.9,198.6,79.9,198.7z"/>
		<path class="st0" d="M88.8,194.3l-0.3,0.1l0,0L88.8,194.3l-0.1-0.2l-0.3,0.2l0.3-0.2c-0.8-1.2-1.5-2.4-2.3-3.6l-3.2-4.9
			c-0.9-1.5-1.9-2.9-2.8-4.4l-0.3,0.2l0,0l0.3-0.2l-0.1-0.2l-0.3,0.2l0.2-0.2c-0.3-0.3-0.6-0.5-0.9-0.5l-0.1,0.3l0-0.3l-0.3,0l0,0.3
			v-0.3c-0.6,0-1.1,0.2-1.4,0.7l0.3,0.2l-0.3-0.2c-0.2,0.3-0.3,0.6-0.3,0.9h0.3l-0.3,0c0,0.2,0.1,0.4,0.1,0.6l0.3-0.1l0,0l-0.3,0.1
			l0,0.1l0.3-0.1l-0.3,0.1l0.1,0.3l0,0l0.2,0.3c0.1,0.1,0.1,0.2,0.1,0.3l0.3-0.1l-0.3,0.2c0.1,0.1,0.1,0.2,0.2,0.3l0.3,0.7
			c0.1,0.2,0.2,0.3,0.2,0.5l0.1,0.3c0.1,0.2,0.2,0.3,0.3,0.5l0.5,1.1c0.2,0.3,0.3,0.6,0.5,0.9c0.2,0.3,0.3,0.6,0.4,0.9l3.1,6.2l0,0
			l0.8,1.5l0.2-0.1l-0.2,0.1c0.1,0.2,0.3,0.4,0.4,0.5l0.3-0.4l0,0l-0.3,0.4c0.3,0.3,0.6,0.4,1,0.4c0,0,0,0,0,0l0,0c0,0,0,0,0,0
			c0,0,0,0,0,0l0,0c0.3,0,0.5-0.1,0.7-0.2l-0.1-0.2l0.1,0.2l0.2-0.1l0,0l0.2-0.1c0.2-0.1,0.3-0.2,0.5-0.3l-0.2-0.3l0.2,0.3l0.5-0.3
			l-0.2-0.3l0.2,0.3c0.2-0.1,0.3-0.2,0.4-0.4l-0.2-0.2l0.3,0.2C89.1,195.5,89.1,194.9,88.8,194.3z M77.9,183.1L77.9,183.1
			L77.9,183.1L77.9,183.1z M83.9,194.8l0.1-0.1l0,0L83.9,194.8z M86.8,196.8L86.8,196.8L86.8,196.8L86.8,196.8z M87.8,195.1
			c0,0.1-0.1,0.3-0.2,0.3c-0.5,0.3-0.9,0.5-1.4,0.8l0.2,0.3l0,0l-0.2-0.3c-0.1,0.1-0.3,0.1-0.4,0c-0.1,0-0.2-0.1-0.3-0.3l-6.9-13.6
			l-0.3,0.2l0,0l0.3-0.2c-0.2-0.3,0-0.6,0.2-0.7c0.2-0.1,0.5-0.1,0.7,0.2l8.3,12.8l0.1-0.1l-0.1,0.1C87.8,194.8,87.8,195,87.8,195.1
			z"/>
		<path class="st0" d="M95.6,188.9l-0.3,0.1L95.6,188.9l-0.2-0.3l-0.3,0.2l0,0l0.2-0.2l-0.2-0.2l-0.3,0.2l0.2-0.2
			c-0.9-0.8-1.8-1.6-2.7-2.4l-8.7-7.8l-0.2,0.2l0.2-0.3l-0.2-0.2l-0.2,0.2l0,0l0.1-0.3c-0.2-0.1-0.4-0.2-0.6-0.2l0,0.4l0-0.4l-0.2,0
			l0,0.3v-0.3c-0.6,0-1.1,0.2-1.4,0.7l0,0c-0.4,0.6-0.4,1.2,0,1.8l0.3-0.2l0,0l-0.2,0.2l0.2,0.2l0.3-0.2l0,0l-0.3,0.2l3.3,3.7
			c0.7,0.7,1.3,1.5,2,2.2l2.6,2.9c0.8,0.9,1.5,1.7,2.3,2.6l0,0c0.2,0.2,0.3,0.3,0.5,0.4l0,0c0.2,0.1,0.5,0.2,0.7,0.2
			c0.2,0,0.4,0,0.6-0.1l-0.1-0.3l0.2,0.3l0.2-0.1l-0.1-0.3l0,0l0.2,0.2L94,192l-0.2-0.3l0.2,0.2l0.2-0.2l-0.2-0.2l0,0l0.2,0.2
			l0.2-0.2l0,0c0.1-0.1,0.3-0.3,0.4-0.4l-0.4-0.4c0,0,0,0,0,0l0.4,0.4c0.1-0.1,0.3-0.3,0.4-0.4l-0.2-0.2l0,0l0.3,0.2
			c0.2-0.2,0.3-0.4,0.4-0.6l-0.1,0l0.1,0C95.8,189.7,95.8,189.3,95.6,188.9z M81.7,178.7L81.7,178.7L81.7,178.7
			C81.7,178.7,81.7,178.7,81.7,178.7z M94.5,189.5c0,0.1,0,0.3-0.1,0.4l0,0c-0.4,0.4-0.8,0.8-1.1,1.1l0.2,0.2l0,0l-0.2-0.2
			c-0.1,0.1-0.2,0.1-0.4,0.1c-0.1,0-0.3-0.1-0.4-0.2l-0.3,0.2l0.3-0.2l-10.2-11.3l0,0c-0.3-0.3-0.2-0.6,0-0.7s0.4-0.2,0.7,0
			l11.3,10.2l0.2-0.3l0,0l-0.2,0.3C94.5,189.3,94.5,189.4,94.5,189.5z"/>
		<path class="st0" d="M100.4,181.5L100.4,181.5c-0.1-0.2-0.3-0.3-0.5-0.4l-0.2,0.3l0,0l0.2-0.3l-10.5-5.3c-1-0.5-2.1-1.1-3.1-1.6
			l-0.2,0.3l0,0l0.2-0.3c-0.1-0.1-0.2-0.1-0.4-0.1l-0.1,0.3l0,0l0.1-0.3l-0.2,0l-0.1,0.3l0-0.3l-0.1,0l0,0.4V174
			c-0.4,0-0.7,0.1-1,0.3l0.2,0.3l-0.2-0.3c-0.3,0.2-0.5,0.5-0.6,0.9l0.4,0.1l-0.4-0.1c-0.2,0.7,0,1.2,0.5,1.7l0.2-0.2l0,0l-0.2,0.3
			l0.2,0.1l0.2-0.3l-0.2,0.3l4.2,2.7c1.4,0.9,2.8,1.8,4.3,2.8l1.4,0.9c1,0.6,1.9,1.2,2.9,1.9l0.2-0.3l-0.2,0.3l0.2,0.1l0.1-0.3l0,0
			l-0.1,0.3c0.2,0.1,0.5,0.1,0.7,0.1c0.3,0,0.6-0.1,0.9-0.3l-0.2-0.3l0.2,0.3l0.2-0.2l-0.2-0.2l0,0l0.2,0.2l0.2-0.2l-0.3-0.2l0,0
			l0.3,0.2l0.3-0.5l-0.4-0.3c0,0,0,0,0,0l0.5,0.2c0.1-0.1,0.2-0.3,0.2-0.4l0.1-0.2l-0.3-0.2l0,0l0.3,0.2l0.1-0.2l-0.3-0.2l0,0
			l0.3,0.2c0.1-0.3,0.2-0.5,0.2-0.8l-0.3,0h0.3C100.8,182.2,100.7,181.8,100.4,181.5z M97.8,184.7L97.8,184.7L97.8,184.7L97.8,184.7
			z M99.8,183l-0.3-0.2c-0.3,0.5-0.5,0.9-0.8,1.4l0.3,0.2l0,0l-0.3-0.2c-0.1,0.1-0.2,0.2-0.3,0.2c-0.1,0-0.3,0-0.4-0.1l0,0
			l-12.8-8.3l0,0c-0.3-0.2-0.3-0.5-0.2-0.7c0.1-0.2,0.4-0.4,0.7-0.2l0.2-0.3l-0.2,0.3l13.6,6.9l0,0c0.1,0.1,0.2,0.2,0.3,0.3
			c0,0.1,0,0.3,0,0.4L99.8,183L99.8,183z"/>
		<path class="st0" d="M18.5,18.3L18.5,18.3l4.7-1.2c0.5-0.1,1.1-0.2,1.6-0.4c0.5-0.1,1.1-0.2,1.6-0.4l3.7-0.8
			c0.3-0.1,0.7-0.1,1-0.2c1.1-0.2,2.1-0.4,3.2-0.6c1.1-0.2,2.1-0.4,3.2-0.5c1.1-0.2,2.1-0.3,3.2-0.5c1.1-0.2,2.1-0.3,3.2-0.4
			c2.3-0.3,4.4-0.5,6.5-0.7c2.1-0.2,4.3-0.4,6.5-0.5c8.8-0.6,17.6-0.6,26.1,0c2.1,0.1,4.3,0.3,6.5,0.5c1.1,0.1,2.2,0.2,3.3,0.3
			c1.1,0.1,2.2,0.3,3.2,0.4c1.1,0.1,2.2,0.3,3.2,0.4c1.1,0.2,2.2,0.3,3.2,0.5c1.1,0.2,2.1,0.4,3.2,0.5c1.1,0.2,2.1,0.4,3.2,0.6
			l0.5,0.1c0.4,0.1,0.7,0.1,1.1,0.2c0.5,0.1,1.1,0.2,1.6,0.3c0.5,0.1,1.1,0.2,1.6,0.3c0.5,0.1,1.1,0.2,1.6,0.4
			c1.1,0.2,2.1,0.5,3.2,0.8l0.3-1.2c-1.1-0.3-2.1-0.5-3.2-0.8c-0.5-0.1-1.1-0.2-1.6-0.4c-0.5-0.1-1.1-0.2-1.6-0.3
			c-0.5-0.1-1.1-0.2-1.6-0.3c-0.4-0.1-0.7-0.1-1.1-0.2l-0.5-0.1c-1.1-0.2-2.2-0.4-3.2-0.6c-1.1-0.2-2.2-0.4-3.2-0.5
			c-1.1-0.2-2.2-0.3-3.2-0.5c-1.1-0.2-2.2-0.3-3.3-0.5c-1.1-0.1-2.2-0.3-3.3-0.4c-1.1-0.1-2.2-0.2-3.3-0.3c-2.2-0.2-4.4-0.4-6.6-0.5
			c-8.6-0.6-17.4-0.6-26.3,0c-2.2,0.1-4.4,0.3-6.5,0.5c-2.1,0.2-4.2,0.4-6.5,0.7c-1.1,0.1-2.2,0.3-3.3,0.4c-1.1,0.2-2.2,0.3-3.2,0.5
			c-1.1,0.2-2.2,0.4-3.2,0.6c-1.1,0.2-2.2,0.4-3.2,0.6c-0.4,0.1-0.7,0.1-1.1,0.2l-3.8,0.8c-0.5,0.1-1.1,0.2-1.6,0.4
			c-0.5,0.1-1.1,0.2-1.6,0.4l-4.8,1.2l0.2,0.6l-0.2-0.6l-0.3,0.1l0.5,1.1L18.5,18.3z"/>
		<polygon class="st0" points="122.1,17.2 122.1,17.2 122.1,17.2 121.8,18.3 121.9,17.9 121.8,18.3 121.9,18.4 122.1,17.8
			122.2,17.2 		"/>
		<path class="st0" d="M121.2,18.2l0.3-1.2c-0.9-0.2-1.8-0.5-2.7-0.7l-0.3,1.2C119.5,17.7,120.3,18,121.2,18.2z"/>

			<rect x="121" y="17.4" transform="matrix(0.2558 -0.9667 0.9667 0.2558 73.4358 130.7299)" class="st0" width="1.2" height="0.5"/>
		<path class="st0" d="M421.2,89.3L421.2,89.3c0-0.3,0-0.6-0.1-0.9l-0.6,0.1l0.6-0.1c-0.1-0.3-0.1-0.6-0.2-0.9l0,0
			c-0.6-1.7-1.9-3-3.7-3.6l-0.2,0.6l0.2-0.6c-0.3-0.1-0.6-0.2-0.9-0.2l-0.2,1.2c0.2,0,0.5,0.1,0.7,0.2l0,0c1.3,0.4,2.4,1.5,2.9,2.8
			l0,0c0.1,0.2,0.1,0.4,0.2,0.7c0,0.2,0.1,0.4,0.1,0.7h0.4l0.1,0.1l-0.5,0h0v253.2v0v0.2l0,0.3l0.4,0l-0.4,0c0,0.4-0.1,0.8-0.3,1.3
			c-0.1,0.2-0.2,0.4-0.3,0.6l0.5,0.3l-0.5-0.3c-0.2,0.4-0.5,0.7-0.8,1l0.3,0.4l-0.3-0.4c-0.5,0.5-1,0.8-1.7,1l0.3,1.1l-0.4-1.1
			c-0.4,0.1-0.7,0.2-1.1,0.2l0,0.7l0-0.7l-0.1,0v0c-23.8,1-47.9,1.7-71.6,2.1v0c-7.1,0.1-14.9,0.3-23.8,0.4l0,0
			c-10.4,0.1-21,0.2-31.4,0.2v0c-14.2,0-28.5,0-42.8-0.1l0,0l-0.1,0l0,0.7l0-0.7l-6.1-0.1v0c-17.8-0.2-36.1-0.5-54.5-1l0,1.2
			c18.4,0.5,36.7,0.8,54.5,1v0l6.1,0.1v0l0.2,0l0-0.8l0,0.7c10.5,0.1,21.1,0.1,31.6,0.1c3.8,0,7.5,0,11.2,0v0
			c10.4,0,21-0.1,31.4-0.2l0,0c8.9-0.1,16.7-0.2,23.8-0.4v0c23.7-0.5,47.8-1.2,71.6-2.1l0-0.8l0,0.8l0.1,0l0,0c0.5,0,1-0.1,1.4-0.2
			l0,0c0.8-0.3,1.5-0.7,2.2-1.3l0,0c0,0,0,0,0,0c0,0,0,0,0,0l0,0c0.4-0.4,0.7-0.8,1-1.3l0,0c0.1-0.2,0.3-0.5,0.4-0.8l-0.3-0.1
			l0.3,0.1c0.2-0.6,0.3-1.1,0.4-1.7l-0.6,0l0.6,0l0-0.3l-0.8,0l0.8,0v-0.2v0V89.3l-0.5,0.1l0,0L421.2,89.3L421.2,89.3z M415.7,347.2
			L415.7,347.2l0,0.3L415.7,347.2z M420.5,89.3L420.5,89.3l0.2,0L420.5,89.3L420.5,89.3z M420,89.4l0.5,0l0,0H420z M420.6,89.4
			L420.6,89.4L420.6,89.4L420.6,89.4L420.6,89.4z M420.7,89.3L420.7,89.3l0.5,0L420.7,89.3z"/>
		<path class="st0" d="M415.5,83.7H376V8c0-3.6-2.6-5.4-5-5.6C319.3,0,241.8-1.4,179.4,2.1c-6.8,0-6.9,5.6-6.9,5.7v79.8h-37.4v-2.7
			h37.4v-1.2h-38v0h-0.6v0.5h-0.2v-0.5h-4.2v0.6l0-0.6c-0.7,0-1.5-0.3-2-0.8c-0.5-0.5-0.8-1.2-0.8-2l-0.4,0h0.4l0-57.9H126l0.6,0
			c0-0.2,0-0.3,0-0.5c0-0.2,0-0.3-0.1-0.5c0-0.2-0.1-0.3-0.1-0.5l-0.3-1c-0.1-0.1-0.1-0.3-0.2-0.4c-0.1-0.1-0.2-0.3-0.2-0.4
			c-0.1-0.1-0.2-0.3-0.3-0.4c-0.1-0.1-0.2-0.2-0.3-0.3l-0.1-0.1c-0.1-0.1-0.2-0.2-0.3-0.4c-0.2-0.2-0.3-0.3-0.5-0.4l-0.3-0.2
			c-0.1-0.1-0.3-0.2-0.4-0.3l-1.1-0.4l-0.2,0.5l0.2-0.5l-0.2,0.6l-0.1,0.5l0,0.1l0.9,0.3c0.1,0.1,0.2,0.1,0.3,0.2l0.3,0.2
			c0.1,0.1,0.3,0.2,0.4,0.3c0.1,0.1,0.2,0.2,0.3,0.3c0.1,0.1,0.1,0.2,0.2,0.3c0.1,0.1,0.2,0.2,0.2,0.3c0.1,0.1,0.1,0.2,0.2,0.3
			c0.1,0.1,0.1,0.2,0.2,0.3l0.3,0.8c0,0.1,0.1,0.2,0.1,0.4c0,0.1,0,0.2,0,0.4c0,0.1,0,0.3,0,0.4l0,0l0,57.9h0c0,1.1,0.4,2.1,1.2,2.9
			c0.8,0.8,1.8,1.2,2.8,1.2c0,0,0,0,0,0c0,0,0,0,0,0h4.2v0.5h0.2v0.7h-0.2v1.2h0.2v1.2h-0.2v-0.9H128v0c-0.2,0-0.5,0-0.7-0.1
			c-0.2,0-0.5-0.1-0.7-0.2c-0.2-0.1-0.5-0.2-0.7-0.3c-0.2-0.1-0.4-0.2-0.6-0.4c-0.2-0.1-0.4-0.3-0.5-0.5c-0.1-0.1-0.2-0.3-0.4-0.4
			c-0.1-0.1-0.2-0.3-0.3-0.4c-0.1-0.1-0.2-0.3-0.2-0.5c-0.1-0.1-0.1-0.3-0.2-0.5c-0.1-0.2-0.1-0.3-0.1-0.5c0-0.2-0.1-0.3-0.1-0.5
			c0-0.2,0-0.3,0-0.5h-1.2c0,0.2,0,0.4,0,0.6c0,0.2,0,0.4,0.1,0.6c0,0.2,0.1,0.4,0.1,0.6c0.1,0.2,0.1,0.4,0.2,0.6
			c0.1,0.2,0.2,0.4,0.3,0.6c0.1,0.2,0.2,0.4,0.4,0.5c0.1,0.2,0.3,0.3,0.4,0.5c0.2,0.2,0.4,0.4,0.7,0.6c0.2,0.2,0.5,0.3,0.8,0.5
			c0.3,0.1,0.6,0.3,0.8,0.4c0.3,0.1,0.6,0.2,0.9,0.2c0.3,0,0.6,0.1,0.9,0.1l0-0.6v0.6h5.6v0.9h0.2V336h-0.2v0.5h-10.1
			c-0.1-1.1-0.3-2.3-0.4-3.4c-0.1-1.3-0.3-2.7-0.4-4l-0.5-5.1c-0.2-1.7-0.3-3.5-0.5-5.2c-0.2-2-0.4-3.9-0.6-5.6
			c-0.2-1.8-0.5-3.7-0.8-5.6c-0.3-1.8-0.6-3.4-0.9-4.9c-0.3-1.7-0.7-3.3-1-4.9c-0.3-1.3-0.6-2.7-1-4c-0.3-1.3-0.7-2.6-1.1-4
			c-0.4-1.3-0.8-2.7-1.3-4c-0.4-1.3-0.9-2.6-1.5-3.9c-0.7-1.7-1.3-3.1-1.9-4.3c-0.7-1.4-1.4-2.8-2.2-4.2c-0.9-1.6-1.6-2.9-2.4-4.1
			c-0.8-1.3-1.7-2.5-2.8-3.8c-0.9-1.1-1.9-2.2-2.8-3.2c-1-1-2-2-3.1-2.9c-1.1-0.9-2.2-1.8-3.3-2.7c-1.1-0.8-2.3-1.6-3.6-2.3
			c-1.3-0.7-2.5-1.4-3.8-2c-1.3-0.6-2.6-1.1-3.9-1.6c-1.3-0.4-2.6-0.8-4-1.2c-1.4-0.3-2.7-0.6-4.1-0.8c-1.4-0.2-2.8-0.3-4.2-0.4
			c-1.4,0-2.9,0-4.2,0.1c-1.3,0.1-2.8,0.3-4.2,0.5c-1.5,0.2-2.9,0.5-4.1,0.9c-1.4,0.4-2.9,0.9-4.4,1.5c-1.5,0.6-2.9,1.2-4.2,1.9
			c-1.3,0.7-2.6,1.4-3.9,2.3c-1.3,0.8-2.5,1.7-3.6,2.7c-1.1,0.9-2.2,1.9-3.2,2.9c-1,1-2,2-2.9,3.2c-1,1.2-2,2.4-2.9,3.7
			c-0.8,1.2-1.6,2.4-2.5,3.9c-0.8,1.4-1.5,2.6-2.1,3.9c-0.6,1.2-1.2,2.5-1.9,4c-0.5,1.2-1,2.4-1.5,3.7c-0.5,1.2-0.9,2.5-1.4,3.8
			c-0.5,1.4-0.9,2.7-1.2,4c-0.4,1.3-0.7,2.6-1.1,4c-0.4,1.6-0.8,3.4-1.2,5.1c-0.3,1.7-0.7,3.4-1,5.2c-0.3,2-0.7,4.1-0.9,6.1
			c-0.3,2-0.5,4-0.7,6.1c-0.2,1.9-0.4,3.8-0.5,5.6l-0.5,5.6c-0.1,1.3-0.2,2.7-0.4,4c-0.1,1.1-0.3,2.3-0.4,3.4H6.1v0
			c-0.1,0-0.3,0-0.4,0c-0.1,0-0.2-0.1-0.3-0.1c-0.1-0.1-0.2-0.1-0.3-0.2c-0.1-0.1-0.2-0.2-0.3-0.3c-0.1-0.1-0.1-0.1-0.2-0.2
			c-0.1-0.1-0.1-0.2-0.2-0.3c0-0.1-0.1-0.2-0.1-0.3c0-0.1,0-0.2-0.1-0.3c0-0.1,0-0.2,0-0.3h0l0-243.7c0-0.5,0.2-1,0.6-1.4
			c0.4-0.4,0.9-0.6,1.4-0.6c0,0,0,0,0,0l0-0.6v0.6h5.9c0,0,0,0,0,0c0,0,0,0,0,0c1.5,0,2.9-0.6,4-1.6c1.1-1.1,1.7-2.5,1.7-4l-0.6,0
			h0.6l0-55.6c0.3,2.8,0.6,5.6,1,8.5c0.6,4.1,1.4,7.8,2.3,11.3c0.9,3.5,2,6.9,3.2,10c1.2,3.1,2.6,6,4.2,8.6c1.5,2.5,3.1,4.9,4.9,7
			c1.8,2.1,3.7,4,5.9,5.7c2.1,1.7,4.4,3.2,6.8,4.5c2.4,1.3,4.9,2.4,7.5,3.2c2.4,0.8,4.8,1.3,7.3,1.6v25.7c0,0.8,0.4,1.3,1.2,1.4
			l0.1-0.6h0l-0.1,0.6c2.6,0.5,5.2,0.7,7.9,0.7h0h0c2.7,0,5.3-0.2,7.9-0.7l0,0c0.8-0.1,1.2-0.6,1.2-1.4h0l0-0.3c0,0,0,0,0,0h0
			l0-25.3c2.4-0.3,4.9-0.9,7.3-1.7c2.6-0.8,5.2-2,7.7-3.3c2.5-1.4,4.9-3,7.1-4.8c2.1-1.8,4.1-3.7,5.9-5.8c1.8-2.1,3.4-4.5,4.9-7.1
			c1.5-2.6,2.9-5.6,4.1-8.7c1.2-3,2.2-6.3,3.1-9.8c0.8-3.3,1.5-6.7,2.1-10.4c0.5-2.9,0.8-6,1.1-9.3V83h1.2V26.8h0
			c0-1.1-0.4-1.9-1.2-2.6l-0.4,0.5h0l0.3-0.5c-0.4-0.2-0.7-0.4-1.1-0.5l-0.2,0.6l0.2-0.6c-0.3-0.1-0.6-0.2-0.9-0.3l-0.1,0
			c-0.4-0.1-0.7-0.2-1.1-0.4c-0.4-0.1-0.7-0.3-1.1-0.4c-0.3-0.1-0.7-0.3-1-0.5c-0.3-0.1-0.6-0.3-0.9-0.5c-0.2-0.1-0.4-0.3-0.6-0.4
			c-0.1-0.1-0.1-0.1-0.1-0.1c0-0.1,0-0.3,0-0.4c0-0.2,0-0.3-0.1-0.4l-0.1-0.4l0,0c0-0.3-0.2-0.7-0.4-1c-0.2-0.3-0.5-0.6-0.9-0.9
			c-0.3-0.2-0.7-0.5-1.2-0.7c-0.4-0.2-0.8-0.3-1.2-0.5l-0.2,0.6l0.1-0.6c-6.6-1.4-13.4-2.4-20.3-3.1c-13.7-1.4-27.9-1.4-41.8,0
			c-6.8,0.7-13.6,1.7-20.3,3.1l0.1,0.6l-0.2-0.6c-0.4,0.1-0.8,0.3-1.2,0.5c-0.4,0.2-0.8,0.4-1.2,0.7c-0.4,0.3-0.7,0.5-0.9,0.9
			c-0.3,0.3-0.4,0.7-0.4,1l0,0L25,21c0,0,0,0-0.1,0.1c-0.2,0.1-0.4,0.3-0.6,0.4c-0.3,0.2-0.6,0.3-0.9,0.5c-0.3,0.2-0.7,0.3-1,0.5
			c-0.4,0.1-0.7,0.3-1.1,0.4c-0.3,0.1-0.7,0.2-1,0.3l0.2,0.6l-0.3-0.5c-0.3,0.1-0.7,0.2-1,0.3l0.2,0.6l-0.2-0.6
			c-0.4,0.1-0.7,0.3-1.1,0.5l0.3,0.5l-0.4-0.5c-0.9,0.7-1.2,1.5-1.2,2.6l0,0l0,56.5h0c0,1.2-0.5,2.3-1.3,3.1c-0.8,0.8-2,1.3-3.1,1.3
			c0,0,0,0,0,0l0,1v-1H6.3v0c0,0,0,0,0,0c-0.9,0-1.7,0.3-2.3,0.9c-0.6,0.6-0.9,1.4-0.9,2.3l0,243.7h0.7l-0.7,0.1c0,0.1,0,0.3,0,0.4
			c0,0.2,0.1,0.3,0.1,0.5c0,0.2,0.1,0.3,0.2,0.4c0.1,0.1,0.1,0.3,0.2,0.4c0.1,0.1,0.2,0.3,0.3,0.4c0.1,0.2,0.3,0.3,0.5,0.4
			c0.2,0.1,0.3,0.2,0.5,0.3c0.2,0.1,0.4,0.2,0.6,0.2c0.2,0,0.4,0.1,0.6,0.1v0h11.1c0.7,0,1.4,0.1,2.1,0.2c0.7,0.1,1.3,0.3,1.9,0.5
			c0.6,0.2,1.1,0.5,1.5,0.8c0.4,0.3,0.7,0.6,1,0.9c0.2,0.3,0.3,0.5,0.3,0.8l0,0c0,0.3,0.1,0.7,0.2,1c0.1,0.3,0.4,0.5,0.6,0.8
			c0.3,0.2,0.6,0.4,0.9,0.5c0.3,0.1,0.6,0.2,1,0.2c0.2,0,0.5,0,0.7,0c0.1,0,0.3,0,0.4,0l0,0h1.5c13.4,3.3,27.1,4.9,40.9,4.9
			s27.5-1.6,40.9-4.9h1.5c0.1,0,0.2,0,0.4,0c0.2,0,0.5,0,0.7,0c0.4,0,0.7-0.1,1-0.2c0.3-0.1,0.6-0.3,0.9-0.5
			c0.3-0.2,0.5-0.5,0.6-0.8c0.2-0.3,0.2-0.6,0.2-1l0,0c0-0.2,0.1-0.5,0.3-0.8c0.2-0.3,0.5-0.6,1-0.9c0.4-0.3,0.9-0.5,1.5-0.8
			c0.6-0.2,1.2-0.4,1.9-0.5c0.7-0.1,1.4-0.2,2.1-0.2v0h10.6v-0.5h0.2v9.8h-0.2v0h-22.1v0c-0.3,0-0.6,0-0.9,0.1l0.2,0.6l0-0.1
			l-0.1-0.6l-0.1,0l0.1,0.4l-0.1-0.1l-0.1-0.2c-26.4,6.3-54.3,6.3-80.7,0l0,0.1l-0.2,0.5l0.1-0.6c-0.1,0-0.3-0.1-0.4-0.1l0,0
			c-0.2,0-0.4,0-0.5,0v0h-23v0c-0.2,0-0.5,0-0.7,0l0,0c-0.2,0-0.4-0.1-0.7-0.1l0,0c-1.3-0.4-2.3-1.4-2.8-2.6l-0.8,0.3l0.8-0.3
			c-0.1-0.2-0.1-0.4-0.2-0.6l-0.1,0l0.1,0c0-0.2-0.1-0.4-0.1-0.7l0,0c0-0.1,0-0.1,0-0.2l0-0.1h0l0-32.3h0l0-188.9h0l0-32l-0.7,0
			l0.1,0l0.5,0l0.1,0c0-1.2,0.5-2.3,1.3-3.1c0.8-0.8,1.9-1.3,3.1-1.3l0-0.7v0.7h5.1v0c0,0,0,0,0,0c1.1,0,2.1-0.4,2.8-1.2
			c0.8-0.8,1.2-1.8,1.2-2.9h0V23h0c0-0.5,0.1-1,0.2-1.5c0.2-0.5,0.4-0.9,0.7-1.4c0.2-0.2,0.3-0.4,0.5-0.6c0.1-0.1,0.2-0.2,0.3-0.3
			c0.1-0.1,0.2-0.2,0.4-0.3l0.2-0.2c0.1-0.1,0.2-0.1,0.3-0.2c0.2-0.1,0.5-0.2,0.7-0.3l-0.4-1.2c-0.3,0.1-0.6,0.2-0.9,0.3
			c-0.1,0.1-0.3,0.1-0.5,0.2L16.2,18c-0.2,0.1-0.3,0.2-0.5,0.4c-0.1,0.1-0.2,0.2-0.4,0.3c-0.2,0.2-0.4,0.5-0.6,0.7
			c-0.4,0.5-0.7,1.1-0.9,1.7c-0.2,0.6-0.3,1.2-0.3,1.9l0.2,0h-0.2v57.9h0.6l-0.6,0c0,0.8-0.3,1.5-0.8,2c-0.5,0.5-1.2,0.8-2,0.8
			c0,0,0,0,0,0l0,1v-1H5.7v0c-1.5,0-2.9,0.6-4,1.6c-1.1,1.1-1.7,2.5-1.7,4l0.6,0l0,0l-0.6,0v0.1h0l0,32h0l0,188.9h0l0,32.3l0.7,0
			l-0.7,0l0,0.1c0,0.1,0,0.2,0,0.3l1-0.1L0.1,343c0,0.3,0.1,0.6,0.1,0.8l0,0c0.1,0.3,0.1,0.5,0.2,0.8l0,0c0.6,1.6,1.9,2.8,3.6,3.4
			l0.3-1.1L4,348c0.3,0.1,0.5,0.1,0.8,0.2l0.1-0.6l-0.1,0.6c0.3,0,0.6,0.1,0.9,0.1v0h23v0c0.1,0,0.2,0,0.3,0l0.1-0.6l-0.1,0.6
			c0.1,0,0.2,0,0.3,0.1l0,0l0.1,0l0.1-0.3l-0.1,0.3c13.3,3.2,27,4.8,40.7,4.8c13.7,0,27.4-1.6,40.7-4.8l-0.2-0.9l0.1,0.2l0.2,0.8
			l0,0l0,0c0.2-0.1,0.4-0.1,0.6-0.1v0h22.1v0h0.8v0c17.1,0.7,34.2,1.3,50.9,1.7l0-1.2c-16.6-0.4-33.5-1-50.4-1.7v-9.2
			c30.9,1.3,62,2.2,92.3,2.6c16.4,0.2,33,0.4,49.5,0.4c14.9,0,29.9-0.1,44.7-0.3c30.6-0.4,62.2-1.3,93.7-2.5l0,0
			c0.2,0,0.3,0,0.5-0.1c0.2,0,0.3-0.1,0.5-0.2c0.2-0.1,0.3-0.2,0.4-0.2c0.2-0.1,0.3-0.2,0.4-0.3c0.1-0.1,0.3-0.2,0.4-0.4
			c0.1-0.1,0.2-0.3,0.3-0.4c0.1-0.1,0.1-0.3,0.2-0.4c0.1-0.1,0.1-0.3,0.1-0.5c0-0.1,0.1-0.3,0.1-0.4c0-0.2,0-0.3,0-0.5h0v0l0-243.7
			H417l0,243.7h0.6l-0.6,0c0,0.1,0,0.2,0,0.3c0,0.1,0,0.2,0,0.3c0,0.1-0.1,0.2-0.1,0.3c0,0.1-0.1,0.2-0.1,0.3c0,0.1-0.1,0.2-0.2,0.3
			c-0.1,0.1-0.1,0.1-0.2,0.2c-0.1,0.1-0.1,0.1-0.2,0.2c-0.1,0.1-0.2,0.1-0.2,0.1c-0.1,0-0.2,0.1-0.3,0.1c-0.1,0-0.2,0-0.3,0l0,0.5
			l0-0.5c-31.5,1.3-63.1,2.1-93.7,2.5c-31.1,0.4-62.8,0.4-94.1-0.1c-30.4-0.4-61.5-1.3-92.4-2.6V88.9h37.4v33.9
			c0.1,1.8,0.6,3.1,1.5,3.9c0.9,0.8,2,0.9,2.4,0.9c0.1,0,0.1,0,0.1,0c1.9,0,189.8,0,194.8,0c0,0,0,0,0,0c1.8,0,3.1-0.5,3.9-1.5
			c1-1.2,0.9-2.7,0.8-3V88.9H415v-0.3l0,0.3c0,0,0,0,0,0c0.5,0,1,0.2,1.4,0.6c0.4,0.4,0.6,0.9,0.6,1.4h1.2c0-0.9-0.3-1.7-0.9-2.3
			c-0.6-0.6-1.4-0.9-2.3-0.9c0,0,0,0,0,0c0,0,0,0,0,0H376v-0.5l0.2-0.4l-0.2-0.1l-0.1,0.1v-1.8h39.5v-0.3l0,0l0,0.3
			c0.2,0,0.5,0,0.7,0l0.2-1.2C416.1,83.7,415.8,83.7,415.5,83.7L415.5,83.7z M122.3,26.8l0.4,0L122.3,26.8
			C122.3,26.8,122.3,26.8,122.3,26.8z M78,83.2l0,30.2c0,0-0.1,0.1-0.1,0.1l-0.1,0.1l-0.1,0l0.1,0.3c0,0,0,0,0,0l0,0
			c-2.6,0.5-5.1,0.7-7.7,0.7c-2.6,0-5.1-0.2-7.7-0.7l-0.1,0.3h0l0.1-0.3c0,0,0,0-0.1,0l0.1-0.3c-0.2,0-0.2,0-0.2-0.2l0,0V83.2h-0.4
			l0.1-0.2c1.8,0.5,3.7,0.8,5.5,0.9c0.9,0.1,1.9,0.1,2.8,0.1c0.9,0,1.8,0,2.7-0.1c1.8-0.1,3.6-0.4,5.4-0.9l0.1,0.2H78z M114.6,30.4
			c0.2-2.5,0.4-5.2,0.5-7.9c0.1,0,0.1,0.1,0.2,0.1c0.3,0.2,0.6,0.4,1,0.5c0.4,0.2,0.7,0.3,1.1,0.5c0.4,0.2,0.8,0.3,1.2,0.5
			c0.4,0.1,0.8,0.3,1.1,0.4l0.1,0c0.3,0.1,0.6,0.2,1,0.3l0,0c0.2,0.1,0.3,0.1,0.5,0.2c-0.3,4.1-0.7,7.8-1.3,11.4
			c-0.6,3.7-1.2,7-2,10.3c-0.9,3.4-1.9,6.7-3,9.7c-1.2,3.1-2.5,6-4,8.6c-1.4,2.5-3,4.9-4.7,6.9c-1.7,2-3.6,3.9-5.7,5.7
			c-2.1,1.8-4.5,3.3-6.9,4.6c-2.4,1.3-4.9,2.4-7.5,3.2c-2.3,0.7-4.6,1.3-6.9,1.6l0-3.1c0.7-0.2,1.4-0.3,2.1-0.5l-0.1-0.4
			c0,0,0,0,0.1,0l-0.1-0.4l0.2,0.6l0.1,0l0,0c1.3-0.4,2.6-0.9,3.7-1.4c1.3-0.5,2.5-1.1,3.8-1.8c1.2-0.7,2.4-1.4,3.6-2.2
			c1.2-0.8,2.3-1.6,3.4-2.5c1.1-0.9,2.1-1.8,3-2.8c0.9-1,1.9-2,2.7-3c0.9-1.1,1.7-2.3,2.5-3.4c0.8-1.2,1.6-2.6,2.3-3.9
			c0.8-1.4,1.4-2.9,2.1-4.6c0.7-1.7,1.3-3.5,2-5.4c0.6-2,1.2-4.1,1.7-6.3c0.5-2.3,1-4.7,1.4-7.2C114,36,114.3,33.2,114.6,30.4z
			 M26.6,19.5c0.2-0.2,0.4-0.4,0.7-0.6c0.3-0.2,0.6-0.4,1-0.6c0.3-0.1,0.7-0.3,1-0.4c6.6-1.4,13.4-2.4,20.1-3.1
			c13.8-1.4,27.9-1.4,41.5,0c6.8,0.7,13.5,1.7,20.1,3.1c0.4,0.1,0.7,0.2,1,0.4c0.4,0.2,0.7,0.4,1,0.6c0.3,0.2,0.5,0.4,0.6,0.6
			c0.1,0.2,0.2,0.3,0.2,0.4c-0.1,3.3-0.3,6.4-0.6,9.3c-0.2,2.8-0.6,5.6-1,8.2c-0.4,2.5-0.8,4.9-1.4,7.2c-0.5,2.1-1,4.2-1.6,6.2
			c-0.5,1.8-1.2,3.6-1.8,5.3c-0.6,1.6-1.3,3.1-2,4.5c-0.7,1.4-1.4,2.7-2.2,3.9c-0.8,1.2-1.6,2.3-2.4,3.4c-0.8,1.1-1.7,2.1-2.7,3.1
			c-0.9,1-1.9,1.9-3,2.8c-1.1,0.9-2.2,1.8-3.3,2.5c-1.2,0.8-2.3,1.5-3.6,2.2c-1.2,0.6-2.4,1.2-3.7,1.8c-1.2,0.5-2.4,1-3.7,1.4
			l0.2,0.6L81,82l-0.1-0.4c-0.9,0.3-1.8,0.5-2.7,0.7l-0.1-0.5c-1.8,0.4-3.6,0.7-5.3,0.9c-1.7,0.1-3.5,0.1-5.2,0
			c-1.8-0.2-3.6-0.5-5.5-0.9L62,82.2c-0.9-0.2-1.8-0.5-2.7-0.7l0,0.1c-2.5-0.8-4.9-1.8-7.2-3c-2.3-1.2-4.5-2.7-6.5-4.3
			c-2-1.6-3.9-3.5-5.5-5.4c-1.6-2-3.1-4.2-4.5-6.6C34.2,59.7,33,57,31.9,54c-1.1-3-2-6.4-2.8-9.9c-0.8-3.6-1.4-7.3-1.9-11.4
			c-0.5-4-0.8-8.2-0.9-12.8C26.4,19.8,26.4,19.7,26.6,19.5z M25.8,19.8L25.8,19.8L25.8,19.8L25.8,19.8z M19.5,24.8L19.5,24.8
			c0.4-0.1,0.7-0.2,1-0.3l0.1,0c0.4-0.1,0.7-0.2,1.1-0.4c0.4-0.1,0.8-0.3,1.2-0.4c0.4-0.2,0.7-0.3,1.1-0.5c0.3-0.2,0.7-0.3,1-0.5
			c0.1,0,0.1-0.1,0.1-0.1c0.1,2.8,0.3,5.5,0.6,8c0.3,2.8,0.6,5.6,1.1,8.3c0.4,2.4,0.9,4.9,1.4,7.2c0.5,2.2,1.1,4.3,1.7,6.2
			c0.6,1.9,1.3,3.7,2,5.4c0.6,1.6,1.4,3.1,2.1,4.5c0.7,1.4,1.5,2.7,2.3,3.9c0.8,1.2,1.6,2.3,2.5,3.4c0.9,1.1,1.8,2.1,2.7,3
			c1,1,2,1.9,3,2.7c1.1,0.9,2.2,1.7,3.3,2.5c1.2,0.8,2.4,1.5,3.6,2.1c1.2,0.7,2.5,1.3,3.8,1.8c1.2,0.5,2.5,1,3.8,1.4l0-0.1
			c0,0,0,0,0,0l0,0.1l0.1,0l0.1-0.2c0,0,0.1,0,0.1,0l-0.1,0.5c0.7,0.2,1.4,0.4,2.1,0.5v3.1c-2.3-0.3-4.7-0.9-6.9-1.6
			c-2.5-0.8-4.9-1.8-7.3-3.1c-2.3-1.3-4.6-2.7-6.7-4.4c-2.1-1.7-4-3.5-5.7-5.5c-1.7-2-3.4-4.3-4.8-6.8c-1.5-2.6-2.9-5.4-4.1-8.4
			c-1.2-3-2.3-6.3-3.2-9.8c-0.9-3.5-1.6-7.1-2.3-11.2c-0.6-3.7-1-7.4-1.2-10.9C19.1,24.9,19.3,24.8,19.5,24.8z M17.8,26.8
			C17.8,26.8,17.8,26.8,17.8,26.8l-0.5,0L17.8,26.8z M24.5,340.9L24.5,340.9L24.5,340.9L24.5,340.9z M114.9,341.3
			c-0.1,0.1-0.2,0.2-0.3,0.4c-0.1,0.1-0.3,0.2-0.5,0.3c-0.2,0.1-0.5,0.1-0.7,0.2c-0.3,0-0.6,0-0.9,0l0,0.6v-0.6h-1.6v0.6l-0.1-0.6
			c-26.6,6.6-54.7,6.6-81.3,0l-0.1,0.6v-0.6h-1.6v0.6l0-0.6c-0.3,0-0.6,0-0.9,0c-0.3,0-0.5-0.1-0.7-0.2c-0.2-0.1-0.4-0.2-0.5-0.3
			c-0.1-0.1-0.2-0.2-0.3-0.4c-0.1-0.1-0.1-0.3-0.1-0.4c0.2-1.5,0.3-3,0.5-4.6c0.1-1.6,0.3-3.2,0.4-4.9c0.1-1.6,0.2-3.1,0.3-4.7
			c0.1,0.1,0.1,0.3,0.2,0.4l0.5-0.3l-0.5,0.3c0.3,0.5,0.6,1,1,1.4l0,0c0,0,0,0,0,0c0,0,0,0,0,0l0,0c0.2,0.2,0.3,0.3,0.5,0.5
			c0.2,0.2,0.3,0.3,0.5,0.5l0.4-0.4l-0.3,0.6c13.2,6.3,27.3,9.4,41.4,9.4c14.1,0,28.3-3.1,41.4-9.4l-0.3-0.6l0.4,0.4
			c0.3-0.3,0.7-0.7,1-1l-0.4-0.4l0.4,0.4c0.1-0.1,0.2-0.2,0.4-0.4c0.4-0.4,0.6-0.6,0.9-0.9c0.1,1.5,0.2,2.9,0.2,4.4
			c0.1,1.6,0.2,3.1,0.4,4.7c0.1,1.5,0.3,3,0.5,4.5C115.1,341,115,341.2,114.9,341.3z M25.9,321.3L25.9,321.3L25.9,321.3L25.9,321.3z
			 M26.5,321.3C26.5,321.3,26.5,321.3,26.5,321.3L26.5,321.3c1-23.1,7.1-39.6,7.1-39.7c1.2-3.1,2.5-6.1,4.1-8.9
			c1.5-2.6,3.1-5,4.9-7.2c1.6-2,3.4-3.8,5.3-5.4c1.8-1.6,3.7-3,5.7-4.1c1.9-1.1,3.9-2,5.9-2.7c2.1-0.7,4.3-1.3,6.6-1.6
			c2.5-0.3,4.1-0.4,6.5-0.2c2.1,0.2,4.2,0.5,6.2,1.1c2,0.6,3.9,1.3,5.9,2.3c2.2,1.1,4.4,2.6,6.5,4.3c2.1,1.7,4.1,3.6,5.9,5.7
			c1.9,2.2,3.7,4.7,5.2,7.4c1.6,2.8,3,5.8,4.2,9.1c1.3,3.4,2.3,7,3.2,10.9c0.8,3.8,1.5,7.9,2,12.6l0.2,1.6c0.5,4.4,1.1,9.4,1.4,13.6
			l0.3,1.2c0,0.2,0,0.4-0.1,0.6c0,0.2-0.1,0.4-0.2,0.6c-0.1,0.2-0.2,0.4-0.3,0.6c-0.1,0.2-0.3,0.4-0.4,0.5c-0.1,0.1-0.5,0.3-0.7,0.5
			l-0.1-0.1l-1,0.7l0,0c0,0-0.1,0-0.1,0c-0.2,0.1-0.5,0.2-0.7,0.4l-0.8,0.4l0.1,0.2l-0.1-0.2c-4.5,2.1-9,3.9-13.7,5.2l-1.8-5.3
			L89,327l1.7,4.9c-12.1,2.8-24.5,3.1-36.7,0.9l0.9-5.8l-5-0.8l-0.9,5.6c-6.1-1.5-12.2-3.6-18-6.4l-0.2,0.5l0.2-0.5
			c-0.3-0.1-0.5-0.2-0.8-0.4c-0.3-0.1-0.5-0.2-0.8-0.4l-0.1,0l0,0l-1-0.7l0,0.1c-0.1-0.1-0.2-0.1-0.2-0.2c-0.5-0.5-0.9-0.8-1.3-0.5
			c-0.1,0-0.1,0.1-0.1,0.1c0-0.1,0-0.2,0-0.2C26.5,322.6,26.5,322,26.5,321.3L26.5,321.3L26.5,321.3z M27.5,326.5L27.5,326.5
			c-0.2-0.5-0.4-1-0.6-1.5c0-0.2-0.1-0.3-0.1-0.5c0,0,0,0,0,0.1l0.1-0.1c0.1,0.1,0.2,0.2,0.3,0.3c0.4,0.4,0.7,0.6,0.9,0.8l0,0
			l0.7,0.3c0.3,0.1,0.5,0.2,0.8,0.4c0.3,0.1,0.5,0.3,0.8,0.4l0,0c12.6,6,26.1,9,39.6,9c13.5,0,27-3,39.6-9l0,0l0.8-0.4
			c0.3-0.1,0.5-0.2,0.7-0.4c0.2-0.1,0.4-0.2,0.6-0.3l0.1-0.1l-0.3-0.5l0.3,0.5l0.3-0.2c0.6-0.4,1-0.7,1.1-0.8
			c0.1-0.1,0.2-0.2,0.3-0.4l0.1,2.1l-0.3-0.2c-0.1,0.2-1,1-1.3,1.3c-0.2,0.2-0.3,0.3-0.4,0.4l0,0c0,0,0,0,0,0c0,0,0,0,0,0
			c-0.3,0.3-0.6,0.6-0.9,0.9c-25.9,12.3-55.7,12.3-81.6,0c-0.1-0.1-0.3-0.3-0.4-0.5c-0.2-0.2-0.3-0.3-0.5-0.5l-0.4,0.4l0.4-0.4
			C28,327.3,27.7,327,27.5,326.5z M50.3,331.5l0.6-3.9l2.6,0.4l-0.6,3.9L50.3,331.5z M91.8,331.5l-1.3-3.7L93,327l1.3,3.7
			L91.8,331.5z M115.7,340.9L115.7,340.9L115.7,340.9L115.7,340.9z M120.7,336.8c-0.7,0.1-1.4,0.3-2.1,0.6c-0.6,0.2-1.2,0.5-1.7,0.9
			c-0.3,0.2-0.6,0.5-0.9,0.7c-0.1-0.9-0.2-1.8-0.3-2.6c-0.1-1.6-0.3-3.1-0.4-4.7c-0.1-1.6-0.2-3.2-0.3-4.8l-0.6,0l0.6,0l-0.2-4.4
			c0-0.3,0-0.7-0.1-1c0,0,0,0,0,0h0c0,0,0,0,0-0.1l-0.6,0l0.6-0.2l-0.3-1.1c-0.3-4.2-0.9-9.2-1.4-13.6l-0.2-1.5
			c-0.6-4.8-1.2-8.9-2.1-12.7c-0.9-4-1.9-7.7-3.2-11.1c-1.2-3.3-2.7-6.5-4.3-9.3c-1.6-2.7-3.3-5.3-5.3-7.5c-1.8-2.1-3.9-4.1-6.1-5.9
			c-2.2-1.7-4.4-3.2-6.7-4.4c-2-1-4-1.8-6.1-2.4c-2.1-0.6-4.2-1-6.4-1.2c-2.6-0.2-4.2-0.1-6.8,0.2c-2.3,0.3-4.6,0.8-6.8,1.6
			c-2.1,0.7-4.2,1.7-6.1,2.8c-2.1,1.2-4.1,2.6-5.9,4.2c-1.9,1.7-3.7,3.5-5.4,5.6c-1.8,2.2-3.5,4.7-5,7.3c-1.6,2.8-3,5.9-4.2,9
			c-0.1,0.2-6.2,16.8-7.2,40.1l0,0l0,0l0,0c0,0,0,0,0,0l-0.2,3.3c0,0.6-0.1,1.1-0.1,1.7l0.1,0l-0.1,0c-0.1,1.7-0.2,3.3-0.3,5
			c-0.1,1.6-0.2,3.2-0.4,4.8c-0.1,1-0.2,1.9-0.3,2.8c-0.2-0.2-0.5-0.5-0.8-0.7c-0.5-0.3-1.1-0.6-1.8-0.9c-0.6-0.2-1.3-0.4-2.1-0.6
			c-0.5-0.1-1.1-0.2-1.6-0.2c0.1-1.1,0.3-2.2,0.4-3.4c0.1-1.3,0.3-2.7,0.4-4l0.5-5.6c0.2-1.9,0.3-3.7,0.5-5.6
			c0.2-2.1,0.5-4.1,0.7-6.1c0.3-2,0.6-4.1,0.9-6.1c0.3-1.8,0.6-3.5,1-5.1c0.4-1.7,0.8-3.5,1.2-5.1c0.3-1.4,0.7-2.7,1.1-4
			c0.4-1.2,0.8-2.5,1.2-4c0.4-1.3,0.9-2.5,1.3-3.7c0.5-1.3,1-2.5,1.5-3.7c0.6-1.5,1.2-2.8,1.8-3.9c0.6-1.2,1.3-2.5,2.1-3.8
			c0.9-1.4,1.7-2.7,2.4-3.8c0.9-1.2,1.8-2.4,2.8-3.6c0.9-1.1,1.9-2.2,2.9-3.1c1-1,2.1-2,3.1-2.8c1.1-0.9,2.3-1.8,3.5-2.6
			c1.3-0.8,2.5-1.6,3.8-2.2c1.3-0.7,2.7-1.3,4.1-1.9c1.5-0.6,2.9-1,4.3-1.4c1.2-0.3,2.5-0.6,4-0.8c1.4-0.2,2.8-0.4,4.1-0.5
			c1.4-0.1,2.7-0.1,4.1-0.1c1.4,0,2.7,0.2,4.1,0.4c1.3,0.2,2.6,0.4,3.9,0.7c1.3,0.3,2.6,0.7,3.9,1.1c1.3,0.4,2.6,1,3.8,1.6
			c1.2,0.6,2.4,1.2,3.7,1.9c1.2,0.7,2.3,1.5,3.5,2.3c1.1,0.8,2.2,1.7,3.2,2.6c1.1,0.9,2.1,1.9,3,2.9c0.9,0.9,1.8,2,2.7,3.1
			c1,1.3,1.9,2.5,2.7,3.8c0.8,1.2,1.5,2.4,2.4,4c0.7,1.3,1.5,2.7,2.1,4.1c0.6,1.2,1.2,2.6,1.8,4.2c0.5,1.4,1,2.6,1.5,3.9
			c0.5,1.3,0.9,2.7,1.3,4c0.4,1.4,0.8,2.7,1.1,3.9c0.3,1.3,0.7,2.6,1,4c0.4,1.5,0.7,3.1,1,4.8c0.3,1.5,0.6,3.1,0.9,4.9
			c0.3,1.9,0.6,3.7,0.8,5.6c0.2,1.7,0.4,3.6,0.6,5.6c0.2,1.7,0.3,3.5,0.5,5.2l0.5,5.1c0.1,1.3,0.2,2.7,0.4,4
			c0.1,1.1,0.3,2.2,0.4,3.3C121.8,336.6,121.3,336.7,120.7,336.8z M123,337.2L123,337.2L123,337.2L123,337.2z M0.7,89.3l0.4,0
			L0.7,89.3L0.7,89.3z M0.5,89.4l-0.5,0L0.5,89.4L0.5,89.4z M257.3,1.9H288v3.3c0,2.1-1.2,3.8-2.6,3.8H260c-1.4,0-2.6-1.8-2.6-3.8
			V1.9z M374.3,125.4c-0.6,0.7-1.6,1-2.9,1c0,0,0,0,0,0c-4.9,0-192.9,0-194.8,0c0,0-0.9,0.1-1.7-0.6c-0.7-0.6-1-1.6-1.1-3V88.9h0.6
			v-1.2h-0.6V7.8c0-0.2,0.1-4.5,5.6-4.5l0,0c24.1-1.4,50.4-2,76.6-2.1v4c0,2.8,1.7,5.1,3.9,5.1h25.5c2.1,0,3.9-2.3,3.9-5.1V1.4
			c30,0.3,58.4,1.2,81.7,2.3c1.9,0.1,3.8,1.5,3.8,4.3v115.3l0,0.1C374.8,123.3,375,124.5,374.3,125.4z M415.5,84.3L415.5,84.3
			L415.5,84.3L415.5,84.3z"/>
		<path class="st0" d="M178.3,225.9c0-5-4.4-9.1-9.7-9.1h-13.1c-5.4,0-9.7,4.1-9.7,9.1v1.8c0,5,4.4,9.1,9.7,9.1h13.1
			c5.4,0,9.7-4.1,9.7-9.1V225.9z M177,227.7c0,4.4-3.8,7.9-8.5,7.9h-13.1c-4.7,0-8.5-3.5-8.5-7.9v-1.8c0-4.4,3.8-7.9,8.5-7.9h13.1
			c4.7,0,8.5,3.5,8.5,7.9V227.7z"/>
		<path class="st0" d="M151.7,197.4h7.8c3.3,0,6-2.4,6-5.3v-1c0-2.9-2.7-5.3-6-5.3h-7.8c-3.3,0-6,2.4-6,5.3v1
			C145.7,195,148.4,197.4,151.7,197.4z M147,191.1c0-2.2,2.2-4,4.8-4h7.8c2.6,0,4.8,1.8,4.8,4v1c0,2.2-2.1,4-4.8,4h-7.8
			c-2.6,0-4.8-1.8-4.8-4V191.1z"/>
		<path class="st0" d="M190.9,192.1v-1c0-2.9-2.7-5.3-6-5.3h-7.8c-3.3,0-6,2.4-6,5.3v1c0,2.9,2.7,5.3,6,5.3h7.8
			C188.2,197.4,190.9,195,190.9,192.1z M172.3,192.1v-1c0-2.2,2.2-4,4.8-4h7.8c2.6,0,4.8,1.8,4.8,4v1c0,2.2-2.1,4-4.8,4h-7.8
			C174.5,196.1,172.3,194.3,172.3,192.1z"/>
		<path class="st0" d="M216.4,191.1c0-2.9-2.7-5.3-6-5.3h-7.8c-3.3,0-6,2.4-6,5.3v1c0,2.9,2.7,5.3,6,5.3h7.8c3.3,0,6-2.4,6-5.3
			V191.1z M215.2,192.1c0,2.2-2.1,4-4.8,4h-7.8c-2.6,0-4.8-1.8-4.8-4v-1c0-2.2,2.2-4,4.8-4h7.8c2.6,0,4.8,1.8,4.8,4V192.1z"/>
		<path class="st0" d="M337.4,177h7.8c3.3,0,6-2.4,6-5.3v-1c0-2.9-2.7-5.3-6-5.3h-7.8c-3.3,0-6,2.4-6,5.3v1
			C331.4,174.7,334.1,177,337.4,177z M332.6,170.8c0-2.2,2.1-4,4.8-4h7.8c2.6,0,4.8,1.8,4.8,4v1c0,2.2-2.1,4-4.8,4h-7.8
			c-2.6,0-4.8-1.8-4.8-4V170.8z"/>
		<path class="st0" d="M372.5,177c3.3,0,6-2.4,6-5.3v-1c0-2.9-2.7-5.3-6-5.3h-7.8c-3.3,0-6,2.4-6,5.3v1c0,2.9,2.7,5.3,6,5.3H372.5z
			 M359.9,171.8v-1c0-2.2,2.1-4,4.8-4h7.8c2.6,0,4.8,1.8,4.8,4v1c0,2.2-2.1,4-4.8,4h-7.8C362.1,175.8,359.9,174,359.9,171.8z"/>
		<path class="st0" d="M288.4,242.4c0-2.9-2.7-5.3-6-5.3h-7.8c-3.3,0-6,2.4-6,5.3v1c0,2.9,2.7,5.3,6,5.3h7.8c3.3,0,6-2.4,6-5.3
			V242.4z M287.2,243.4c0,2.2-2.1,4-4.8,4h-7.8c-2.6,0-4.8-1.8-4.8-4v-1c0-2.2,2.1-4,4.8-4h7.8c2.6,0,4.8,1.8,4.8,4V243.4z"/>
		<path class="st0" d="M288.4,222.1c0-2.9-2.7-5.3-6-5.3h-7.8c-3.3,0-6,2.4-6,5.3v1c0,2.9,2.7,5.3,6,5.3h7.8c3.3,0,6-2.4,6-5.3
			V222.1z M287.2,223.1c0,2.2-2.1,4-4.8,4h-7.8c-2.6,0-4.8-1.8-4.8-4v-1c0-2.2,2.1-4,4.8-4h7.8c2.6,0,4.8,1.8,4.8,4V223.1z"/>
		<path class="st0" d="M233.7,139.1h-7.8c-3.3,0-6,2.4-6,5.3v1c0,2.9,2.7,5.3,6,5.3h7.8c3.3,0,6-2.4,6-5.3v-1
			C239.7,141.5,237,139.1,233.7,139.1z M238.4,145.4c0,2.2-2.1,4-4.8,4h-7.8c-2.6,0-4.8-1.8-4.8-4v-1c0-2.2,2.1-4,4.8-4h7.8
			c2.6,0,4.8,1.8,4.8,4V145.4z"/>
		<path class="st0" d="M255.5,150.6h7.8c3.3,0,6-2.4,6-5.3v-1c0-2.9-2.7-5.3-6-5.3h-7.8c-3.3,0-6,2.4-6,5.3v1
			C249.5,148.3,252.2,150.6,255.5,150.6z M250.7,144.4c0-2.2,2.1-4,4.8-4h7.8c2.6,0,4.8,1.8,4.8,4v1c0,2.2-2.1,4-4.8,4h-7.8
			c-2.6,0-4.8-1.8-4.8-4V144.4z"/>
		<path class="st0" d="M293,150.6c3.3,0,6-2.4,6-5.3v-1c0-2.9-2.7-5.3-6-5.3h-7.8c-3.3,0-6,2.4-6,5.3v1c0,2.9,2.7,5.3,6,5.3H293z
			 M280.4,145.4v-1c0-2.2,2.1-4,4.8-4h7.8c2.6,0,4.8,1.8,4.8,4v1c0,2.2-2.1,4-4.8,4h-7.8C282.5,149.4,280.4,147.6,280.4,145.4z"/>
		<path class="st0" d="M328.6,145.4v-1c0-2.9-2.7-5.3-6-5.3h-7.8c-3.3,0-6,2.4-6,5.3v1c0,2.9,2.7,5.3,6,5.3h7.8
			C326,150.6,328.6,148.3,328.6,145.4z M310.1,145.4v-1c0-2.2,2.1-4,4.8-4h7.8c2.6,0,4.8,1.8,4.8,4v1c0,2.2-2.1,4-4.8,4h-7.8
			C312.2,149.4,310.1,147.6,310.1,145.4z"/>
		<path class="st0" d="M288.4,262.8c0-2.9-2.7-5.3-6-5.3h-7.8c-3.3,0-6,2.4-6,5.3v1c0,2.9,2.7,5.3,6,5.3h7.8c3.3,0,6-2.4,6-5.3
			V262.8z M287.2,263.8c0,2.2-2.1,4-4.8,4h-7.8c-2.6,0-4.8-1.8-4.8-4v-1c0-2.2,2.1-4,4.8-4h7.8c2.6,0,4.8,1.8,4.8,4V263.8z"/>
		<path class="st0" d="M288.4,293.3c0-2.9-2.7-5.3-6-5.3h-7.8c-3.3,0-6,2.4-6,5.3v1c0,2.9,2.7,5.3,6,5.3h7.8c3.3,0,6-2.4,6-5.3
			V293.3z M287.2,294.2c0,2.2-2.1,4-4.8,4h-7.8c-2.6,0-4.8-1.8-4.8-4v-1c0-2.2,2.1-4,4.8-4h7.8c2.6,0,4.8,1.8,4.8,4V294.2z"/>
		<path class="st0" d="M282.4,308.3h-7.8c-3.3,0-6,2.4-6,5.3v1c0,2.9,2.7,5.3,6,5.3h7.8c3.3,0,6-2.4,6-5.3v-1
			C288.4,310.7,285.7,308.3,282.4,308.3z M287.2,314.5c0,2.2-2.1,4-4.8,4h-7.8c-2.6,0-4.8-1.8-4.8-4v-1c0-2.2,2.1-4,4.8-4h7.8
			c2.6,0,4.8,1.8,4.8,4V314.5z"/>
		<path class="st0" d="M315.3,242.4c0-2.9-2.7-5.3-6-5.3h-7.8c-3.3,0-6,2.4-6,5.3v1c0,2.9,2.7,5.3,6,5.3h7.8c3.3,0,6-2.4,6-5.3
			V242.4z M314.1,243.4c0,2.2-2.1,4-4.8,4h-7.8c-2.6,0-4.8-1.8-4.8-4v-1c0-2.2,2.1-4,4.8-4h7.8c2.6,0,4.8,1.8,4.8,4V243.4z"/>
		<path class="st0" d="M315.3,222.1c0-2.9-2.7-5.3-6-5.3h-7.8c-3.3,0-6,2.4-6,5.3v1c0,2.9,2.7,5.3,6,5.3h7.8c3.3,0,6-2.4,6-5.3
			V222.1z M314.1,223.1c0,2.2-2.1,4-4.8,4h-7.8c-2.6,0-4.8-1.8-4.8-4v-1c0-2.2,2.1-4,4.8-4h7.8c2.6,0,4.8,1.8,4.8,4V223.1z"/>
		<path class="st0" d="M315.3,262.8c0-2.9-2.7-5.3-6-5.3h-7.8c-3.3,0-6,2.4-6,5.3v1c0,2.9,2.7,5.3,6,5.3h7.8c3.3,0,6-2.4,6-5.3
			V262.8z M314.1,263.8c0,2.2-2.1,4-4.8,4h-7.8c-2.6,0-4.8-1.8-4.8-4v-1c0-2.2,2.1-4,4.8-4h7.8c2.6,0,4.8,1.8,4.8,4V263.8z"/>
		<path class="st0" d="M315.3,293.3c0-2.9-2.7-5.3-6-5.3h-7.8c-3.3,0-6,2.4-6,5.3v1c0,2.9,2.7,5.3,6,5.3h7.8c3.3,0,6-2.4,6-5.3
			V293.3z M314.1,294.2c0,2.2-2.1,4-4.8,4h-7.8c-2.6,0-4.8-1.8-4.8-4v-1c0-2.2,2.1-4,4.8-4h7.8c2.6,0,4.8,1.8,4.8,4V294.2z"/>
		<path class="st0" d="M301.5,319.8h7.8c3.3,0,6-2.4,6-5.3v-1c0-2.9-2.7-5.3-6-5.3h-7.8c-3.3,0-6,2.4-6,5.3v1
			C295.5,317.4,298.2,319.8,301.5,319.8z M296.7,313.6c0-2.2,2.1-4,4.8-4h7.8c2.6,0,4.8,1.8,4.8,4v1c0,2.2-2.1,4-4.8,4h-7.8
			c-2.6,0-4.8-1.8-4.8-4V313.6z"/>
		<path class="st0" d="M215.9,225.9c0-5-4.4-9.1-9.7-9.1h-13.1c-5.4,0-9.7,4.1-9.7,9.1v1.8c0,5,4.4,9.1,9.7,9.1h13.1
			c5.4,0,9.7-4.1,9.7-9.1V225.9z M214.7,227.7c0,4.4-3.8,7.9-8.5,7.9h-13.1c-4.7,0-8.5-3.5-8.5-7.9v-1.8c0-4.4,3.8-7.9,8.5-7.9h13.1
			c4.7,0,8.5,3.5,8.5,7.9V227.7z"/>
		<path class="st0" d="M253.7,225.9c0-5-4.4-9.1-9.7-9.1h-13.1c-5.4,0-9.7,4.1-9.7,9.1v1.8c0,5,4.4,9.1,9.7,9.1H244
			c5.4,0,9.7-4.1,9.7-9.1V225.9z M252.5,227.7c0,4.4-3.8,7.9-8.5,7.9h-13.1c-4.7,0-8.5-3.5-8.5-7.9v-1.8c0-4.4,3.8-7.9,8.5-7.9H244
			c4.7,0,8.5,3.5,8.5,7.9V227.7z"/>
		<path class="st0" d="M178.3,254.1c0-5-4.4-9.1-9.7-9.1h-13.1c-5.4,0-9.7,4.1-9.7,9.1v1.8c0,5,4.4,9.1,9.7,9.1h13.1
			c5.4,0,9.7-4.1,9.7-9.1V254.1z M177,255.9c0,4.4-3.8,7.9-8.5,7.9h-13.1c-4.7,0-8.5-3.5-8.5-7.9v-1.8c0-4.4,3.8-7.9,8.5-7.9h13.1
			c4.7,0,8.5,3.5,8.5,7.9V255.9z"/>
		<path class="st0" d="M215.9,254.1c0-5-4.4-9.1-9.7-9.1h-13.1c-5.4,0-9.7,4.1-9.7,9.1v1.8c0,5,4.4,9.1,9.7,9.1h13.1
			c5.4,0,9.7-4.1,9.7-9.1V254.1z M214.7,255.9c0,4.4-3.8,7.9-8.5,7.9h-13.1c-4.7,0-8.5-3.5-8.5-7.9v-1.8c0-4.4,3.8-7.9,8.5-7.9h13.1
			c4.7,0,8.5,3.5,8.5,7.9V255.9z"/>
		<path class="st0" d="M253.7,254.1c0-5-4.4-9.1-9.7-9.1h-13.1c-5.4,0-9.7,4.1-9.7,9.1v1.8c0,5,4.4,9.1,9.7,9.1H244
			c5.4,0,9.7-4.1,9.7-9.1V254.1z M252.5,255.9c0,4.4-3.8,7.9-8.5,7.9h-13.1c-4.7,0-8.5-3.5-8.5-7.9v-1.8c0-4.4,3.8-7.9,8.5-7.9H244
			c4.7,0,8.5,3.5,8.5,7.9V255.9z"/>
		<path class="st0" d="M178.3,282.2c0-5-4.4-9.1-9.7-9.1h-13.1c-5.4,0-9.7,4.1-9.7,9.1v1.8c0,5,4.4,9.1,9.7,9.1h13.1
			c5.4,0,9.7-4.1,9.7-9.1V282.2z M177,284c0,4.4-3.8,7.9-8.5,7.9h-13.1c-4.7,0-8.5-3.5-8.5-7.9v-1.8c0-4.4,3.8-7.9,8.5-7.9h13.1
			c4.7,0,8.5,3.5,8.5,7.9V284z"/>
		<path class="st0" d="M215.9,282.2c0-5-4.4-9.1-9.7-9.1h-13.1c-5.4,0-9.7,4.1-9.7,9.1v1.8c0,5,4.4,9.1,9.7,9.1h13.1
			c5.4,0,9.7-4.1,9.7-9.1V282.2z M214.7,284c0,4.4-3.8,7.9-8.5,7.9h-13.1c-4.7,0-8.5-3.5-8.5-7.9v-1.8c0-4.4,3.8-7.9,8.5-7.9h13.1
			c4.7,0,8.5,3.5,8.5,7.9V284z"/>
		<path class="st0" d="M253.7,282.2c0-5-4.4-9.1-9.7-9.1h-13.1c-5.4,0-9.7,4.1-9.7,9.1v1.8c0,5,4.4,9.1,9.7,9.1H244
			c5.4,0,9.7-4.1,9.7-9.1V282.2z M252.5,284c0,4.4-3.8,7.9-8.5,7.9h-13.1c-4.7,0-8.5-3.5-8.5-7.9v-1.8c0-4.4,3.8-7.9,8.5-7.9H244
			c4.7,0,8.5,3.5,8.5,7.9V284z"/>
		<path class="st0" d="M155.4,321.3h13.1c5.4,0,9.7-4.1,9.7-9.1v-1.8c0-5-4.4-9.1-9.7-9.1h-13.1c-5.4,0-9.7,4.1-9.7,9.1v1.8
			C145.7,317.2,150.1,321.3,155.4,321.3z M147,310.4c0-4.4,3.8-7.9,8.5-7.9h13.1c4.7,0,8.5,3.5,8.5,7.9v1.8c0,4.4-3.8,7.9-8.5,7.9
			h-13.1c-4.7,0-8.5-3.5-8.5-7.9V310.4z"/>
		<path class="st0" d="M193.1,321.3h13.1c5.4,0,9.7-4.1,9.7-9.1v-1.8c0-5-4.4-9.1-9.7-9.1h-13.1c-5.4,0-9.7,4.1-9.7,9.1v1.8
			C183.4,317.2,187.7,321.3,193.1,321.3z M184.6,310.4c0-4.4,3.8-7.9,8.5-7.9h13.1c4.7,0,8.5,3.5,8.5,7.9v1.8c0,4.4-3.8,7.9-8.5,7.9
			h-13.1c-4.7,0-8.5-3.5-8.5-7.9V310.4z"/>
		<path class="st0" d="M230.9,321.3H244c5.4,0,9.7-4.1,9.7-9.1v-1.8c0-5-4.4-9.1-9.7-9.1h-13.1c-5.4,0-9.7,4.1-9.7,9.1v1.8
			C221.2,317.2,225.5,321.3,230.9,321.3z M222.4,310.4c0-4.4,3.8-7.9,8.5-7.9H244c4.7,0,8.5,3.5,8.5,7.9v1.8c0,4.4-3.8,7.9-8.5,7.9
			h-13.1c-4.7,0-8.5-3.5-8.5-7.9V310.4z"/>
		<path class="st0" d="M151.4,177h33.9c3.1,0,5.7-2.6,5.7-5.7s-2.6-5.7-5.7-5.7h-33.9c-3.1,0-5.7,2.6-5.7,5.7S148.3,177,151.4,177z
			 M151.4,166.8h33.9c2.5,0,4.5,2,4.5,4.5s-2,4.5-4.5,4.5h-33.9c-2.5,0-4.5-2-4.5-4.5S149,166.8,151.4,166.8z"/>
		<path class="st0" d="M397.3,174.9c2,0,3.7-1.6,3.7-3.6s-1.7-3.6-3.7-3.6h-6.6c-2,0-3.7,1.6-3.7,3.6s1.7,3.6,3.7,3.6H397.3z
			 M388.2,171.3c0-1.3,1.1-2.4,2.5-2.4h6.6c1.4,0,2.5,1.1,2.5,2.4c0,1.3-1.1,2.4-2.5,2.4h-6.6C389.4,173.7,388.2,172.6,388.2,171.3z
			"/>
		<path class="st0" d="M297.1,181.4c0-12.6-10.3-22.9-22.9-22.9s-22.9,10.3-22.9,22.9s10.3,22.9,22.9,22.9S297.1,194,297.1,181.4z
			 M274.2,203.1c-11.9,0-21.6-9.7-21.6-21.6s9.7-21.6,21.6-21.6s21.6,9.7,21.6,21.6S286.2,203.1,274.2,203.1z"/>
		<path class="st0" d="M320.6,181.4c0-5.5-4.5-9.9-9.9-10v0H302v0c-0.7,0-1.4,0.3-1.8,0.9c-0.4,0.6-0.6,1.3-0.4,2l0,0
			c1.3,4.8,1.3,9.3,0,14.1l0,0c-0.2,0.7,0,1.4,0.4,2c0.4,0.6,1.1,0.9,1.8,0.9v0h8.7v0C316.2,191.4,320.6,186.9,320.6,181.4z
			 M310.7,190.2L310.7,190.2l-8.7,0v0c-0.3,0-0.7-0.2-0.9-0.4c-0.2-0.3-0.3-0.6-0.2-1l0,0c1.4-5,1.4-9.7,0-14.7l0,0
			c-0.1-0.3,0-0.7,0.2-1c0.2-0.3,0.5-0.4,0.9-0.4v0h8.7v0c4.8,0,8.7,3.9,8.7,8.7S315.5,190.2,310.7,190.2z"/>
		<path class="st0" d="M237.8,171.5L237.8,171.5c-5.5,0-10,4.5-10,10s4.5,10,10,10v0h8.7v0c0.7,0,1.4-0.3,1.8-0.9
			c0.4-0.6,0.6-1.3,0.4-2l0,0c-1.3-4.8-1.3-9.2,0-14l-1.2-0.3c-1.4,5.1-1.4,9.6,0,14.7l0.6-0.2l-0.6,0.2c0.1,0.3,0,0.7-0.2,1
			c-0.2,0.3-0.5,0.4-0.9,0.4v0h-8.7v0c-4.8,0-8.7-3.9-8.7-8.7s3.9-8.7,8.7-8.7v0h8.7v0c0.3,0,0.7,0.2,0.9,0.4c0.2,0.3,0.3,0.6,0.2,1
			l1.2,0.3c0.2-0.7,0.1-1.4-0.4-2c-0.4-0.6-1.1-0.9-1.8-0.9v0H237.8z"/>
		<path class="st0" d="M187.3,113.7h175.4v-98H187.3V113.7z M188.5,16.9h173v95.6h-173V16.9z"/>
		<path class="st0" d="M383.1,319.7v-0.2h0.2v-10h12.5v0c1.9,0,3.7-1,4.6-2.7c1-1.7,1-3.7,0-5.4c-0.9-1.7-2.7-2.7-4.6-2.7v0h-12.5
			v-9.7h12.5v-0.5h-9.4v-0.1h-3.3v-9.7h3.3v-0.1h9.4v-0.5h-12.5v-9.7h12.5v-0.5h-9.4v-0.1h-3.3v-9.7h3.3v-0.1h9.4v-0.5h-12.5v-9.7
			h12.5v-0.5h-9.4v-0.1h-3.3v-9.7h3.3v-0.1h9.4v-0.5h-12.5v-9.7h12.5v-0.5h-9.4v-0.1h-3.3v-9.7h3.3v-0.1h9.4V217h-12.5v-9.7h12.5
			v-0.5h-9.4v-0.1h-3.3v-9.7h3.3V197h9.4v-0.5h-46.8v0.2h-0.2v10h-12.5v0c-3,0-5.4,2.4-5.4,5.4c0,3,2.4,5.4,5.4,5.4v0h12.5v9.7
			h-12.5v0c-3,0-5.4,2.4-5.4,5.4c0,3,2.4,5.4,5.4,5.4v0h12.5v9.7h-12.5v0c-1.9,0-3.7,1-4.6,2.7c-1,1.6-1,3.7,0,5.4
			c1,1.7,2.7,2.7,4.6,2.7v0h12.5v9.7h-12.5v0c-3,0-5.4,2.4-5.4,5.4c0,3,2.4,5.4,5.4,5.4v0h12.5v9.7h-12.5v0c-3,0-5.4,2.4-5.4,5.4
			c0,3,2.4,5.4,5.4,5.4v0h12.5v9.7h-12.5v0c-3,0-5.4,2.4-5.4,5.4c0,3,2.4,5.4,5.4,5.4v0H383.1z M383.3,299.2h3.3v-0.1h9.4v0
			c1.8,0,3.4,0.9,4.3,2.5c0.9,1.5,0.9,3.4,0,4.9c-0.9,1.5-2.5,2.5-4.3,2.5v0h-9.4V309h-3.3V299.2z M349.1,207h0.2v-10h33.5v10.1h0.3
			v0h-0.2v2.5h-0.3c-0.9,0-1.8,0.5-2.3,1.3c-0.5,0.8-0.5,1.8,0,2.6c0.5,0.8,1.3,1.3,2.3,1.3v0h0.3v2.5h0.1v0h-0.2v10.3h0.3v0h-0.2
			v10.1h0.1v0h-0.2v10.3h0.3v0h-0.2v10.1h0.1v0h-0.2v10.3h0.3v0h-0.2v10.1h0.1v0h-0.2v10.3h0.3v0h-0.2v2.4h-0.3
			c-1.4,0-2.6,1.2-2.6,2.6c0,1.4,1.2,2.6,2.6,2.6h0.3v2.5h0.1v0h-0.2v10.2h0.3v0h-0.2v10h-33.5v-10.1h-0.3v0h0.2v-2.5h0.3v-0.2h0
			v0.2c0.9,0,1.8-0.5,2.3-1.3c0.5-0.8,0.5-1.8,0-2.6c-0.5-0.8-1.3-1.3-2.3-1.3h-0.3V299h-0.1v0h0.2v-10.3h-0.3v0h0.2v-10.1h-0.1v0
			h0.2v-10.3h-0.3v0h0.2v-10.1h-0.1v0h0.2v-10.3h-0.3v0h0.2v-10.1h-0.1v0h0.2v-10.3h-0.3v0h0.2V225h0.3v-0.2h0v0.2
			c0.9,0,1.8-0.5,2.3-1.3c0.5-0.8,0.5-1.8,0-2.6c-0.5-0.8-1.3-1.3-2.3-1.3h-0.3v-2.5h-0.1v0h0.2V207L349.1,207L349.1,207z
			 M382.9,210.2v4h-0.3c-1.1,0-2-0.9-2-2s0.9-2,2-2H382.9z M380.6,293.9c0-1.1,0.9-2,2-2h0.3v4h-0.3v0
			C381.5,295.9,380.6,295,380.6,293.9z M349.3,306.1v-4h0.3v0c0.7,0,1.4,0.4,1.7,1c0.4,0.6,0.4,1.4,0,2c-0.4,0.6-1,1-1.7,1H349.3z
			 M349.3,224.3v-4h0.3c0.7,0,1.4,0.4,1.7,1s0.4,1.4,0,2c-0.4,0.6-1,1-1.7,1H349.3z M349.1,217.3L349.1,217.3L349.1,217.3
			L349.1,217.3L349.1,217.3z M349.1,237.7L349.1,237.7L349.1,237.7L349.1,237.7L349.1,237.7z M349.1,258.1L349.1,258.1L349.1,258.1
			L349.1,258.1L349.1,258.1z M349.1,278.6L349.1,278.6L349.1,278.6L349.1,278.6L349.1,278.6z M349.1,299L349.1,299L349.1,299
			L349.1,299L349.1,299z M345.7,217L345.7,217l-9.4,0.1v0c-2.7,0-4.9-2.2-4.9-4.9c0-2.7,2.2-4.9,4.9-4.9v0h9.4v0.1h3.3v9.7H345.7z
			 M345.7,237.4L345.7,237.4l-9.4,0.1v0c-2.7,0-4.9-2.2-4.9-4.9c0-2.7,2.2-4.9,4.9-4.9v0h9.4v0.1h3.3v9.7H345.7z M345.7,257.9
			L345.7,257.9l-9.4,0.1v0c-1.7,0-3.4-0.9-4.2-2.4c-0.9-1.5-0.9-3.4,0-4.9c0.9-1.5,2.5-2.5,4.2-2.5v0h9.4v0.1h3.3v9.7H345.7z
			 M345.7,278.3L345.7,278.3l-9.4,0.1v0c-2.7,0-4.9-2.2-4.9-4.9c0-2.7,2.2-4.9,4.9-4.9v0h9.4v0.1h3.3v9.7H345.7z M345.7,298.8
			L345.7,298.8l-9.4,0.1v0c-2.7,0-4.9-2.2-4.9-4.9c0-2.7,2.2-4.9,4.9-4.9v0h9.4v0.1h3.3v9.7H345.7z M331.4,314.3
			c0-2.7,2.2-4.9,4.9-4.9v0h9.4v0.1h3.3v9.7h-3.3v0.1h-9.4v0C333.6,319.2,331.4,317,331.4,314.3z"/>
		<path class="st0" d="M400.5,281c-1-1.7-2.7-2.7-4.6-2.7v0.5c1.7,0,3.4,0.9,4.2,2.5c0.9,1.5,0.9,3.4,0,4.9
			c-0.9,1.5-2.5,2.5-4.2,2.5v0.5c1.9,0,3.7-1,4.6-2.7C401.5,284.7,401.5,282.6,400.5,281z"/>
		<path class="st0" d="M400.5,260.6c-1-1.7-2.7-2.7-4.6-2.7v0.5c1.7,0,3.4,0.9,4.2,2.5c0.9,1.5,0.9,3.4,0,4.9
			c-0.9,1.5-2.5,2.4-4.2,2.4v0.5c1.9,0,3.7-1,4.6-2.7C401.5,264.3,401.5,262.2,400.5,260.6z"/>
		<path class="st0" d="M400.5,240.1c-1-1.7-2.7-2.7-4.6-2.7v0.5c1.7,0,3.4,0.9,4.2,2.4c0.9,1.5,0.9,3.4,0,4.9
			c-0.9,1.5-2.5,2.5-4.2,2.5v0.5c1.9,0,3.7-1,4.6-2.7C401.5,243.8,401.5,241.8,400.5,240.1z"/>
		<path class="st0" d="M400.5,219.7c-1-1.7-2.7-2.7-4.6-2.7v0.5c1.7,0,3.4,0.9,4.2,2.5c0.9,1.5,0.9,3.4,0,4.9
			c-0.9,1.5-2.5,2.4-4.2,2.4v0.5c1.9,0,3.7-1,4.6-2.7C401.5,223.4,401.5,221.3,400.5,219.7z"/>
		<path class="st0" d="M400.5,199.2c-1-1.7-2.7-2.7-4.6-2.7v0.5c1.7,0,3.4,0.9,4.2,2.5c0.9,1.5,0.9,3.4,0,4.9
			c-0.9,1.5-2.5,2.4-4.2,2.4v0.5c1.9,0,3.7-1,4.6-2.7C401.5,203,401.5,200.9,400.5,199.2z"/>
	</g>
</g>
<g id="Ebene_3">
	<g>
		<circle id="bgnumber_11_" class="st1" cx="356" cy="314.5" r="7.1"/>
		<text transform="matrix(1 0 0 1 351.4824 318.0246)" class="st2 st3 st4 button" data-number="11">12</text>
	</g>
	<g>
		<circle id="bgnumber_10_" class="st1" cx="376.4" cy="304.2" r="7.1"/>
		<text transform="matrix(1 0 0 1 372.5575 307.7196)" class="st2 st3 st4 button" data-number="10">11</text>
	</g>
	<g>
		<circle id="bgnumber_9_" class="st1" cx="356" cy="293.9" r="7.1"/>
		<text transform="matrix(1 0 0 1 351.0458 297.467)" class="st2 st3 st4 button" data-number="9">10</text>
	</g>
	<g>
		<circle id="bgnumber_8_" class="st1" cx="376.4" cy="283.7" r="7.1"/>
		<text transform="matrix(1 0 0 1 370.5815 287.2502)" class="st2 st3 st4 button" data-number="8">09</text>
	</g>
	<g>
		<circle id="bgnumber_7_" class="st1" cx="356" cy="273.4" r="7.1"/>
		<text transform="matrix(1 0 0 1 350.121 276.9713)" class="st2 st3 st4 button" data-number="7">08</text>
	</g>
	<g>
		<circle id="bgnumber_6_" class="st1" cx="376.4" cy="263.3" r="7.1"/>
		<text transform="matrix(1 0 0 1 371.041 266.8425)" class="st2 st3 st4 button" data-number="6">07</text>
	</g>
	<g>
		<circle id="bgnumber_5_" class="st1" cx="356" cy="252.8" r="7.1"/>
		<text transform="matrix(1 0 0 1 350.1611 256.2965)" class="st2 st3 st4 button" data-number="5">06</text>
	</g>
	<g>
		<circle id="bgnumber_4_" class="st1" cx="376.4" cy="242.8" r="7.1"/>
		<text transform="matrix(1 0 0 1 370.7616 246.256)" class="st2 st3 st4 button" data-number="4">05</text>
	</g>
	<g>
		<circle id="bgnumber_3_" class="st1" cx="356" cy="232.3" r="7.1"/>
		<text transform="matrix(1 0 0 1 350.111 235.801)" class="st2 st3 st4 button" data-number="3">04</text>
	</g>
	<g>
		<circle id="bgnumber_2_" class="st1" cx="376.4" cy="222.4" r="7.1"/>
		<text transform="matrix(1 0 0 1 370.6666 225.8484)" class="st2 st3 st4 button" data-number="2">03</text>
	</g>
	<g>
		<circle id="bgnumber_1_" class="st1" cx="356" cy="211.7" r="7.1"/>
		<text transform="matrix(1 0 0 1 350.3912 215.2051)" class="st2 st3 st4 button" data-number="1">02</text>
	</g>
	<g>
		<circle id="bgnumber" class="st1" cx="376.4" cy="201.9" r="7.1"/>
		<text transform="matrix(1 0 0 1 371.4664 205.3405)" class="st2 st3 st4 button" data-number="0">01</text>
	</g>
</g>
</svg>
