<?xml version="1.0" encoding="utf-8"?>
<!-- Generator: Adobe Illustrator 21.0.1, SVG Export Plug-In . SVG Version: 6.00 Build 0)  -->
<!DOCTYPE svg PUBLIC "-//W3C//DTD SVG 1.1//EN" "http://www.w3.org/Graphics/SVG/1.1/DTD/svg11.dtd">
<svg version="1.1" xmlns="http://www.w3.org/2000/svg" xmlns:xlink="http://www.w3.org/1999/xlink" x="0px" y="0px"
	 viewBox="0 0 430.1 377.1" style="enable-background:new 0 0 430.1 377.1;" xml:space="preserve">
<style type="text/css">
	.button{cursor: pointer}
	.st0{display:none;}
	.st1{display:inline;}
	.st2{fill:#B3B2B2;}
	.st3{fill:#F2F2F2;}
	.st4{fill:#29AEE4;}
	.st5{font-family:'BrixSansRegular';}
	.st6{font-size:10px;}
</style>
<g id="Ebene_1" class="st0">
	<g class="st1">
		<defs>
			<rect id="SVGID_1_" x="-1.7" y="-0.5" width="433.3" height="377.2"/>
		</defs>
		<clipPath id="SVGID_2_">
			<use xlink:href="#SVGID_1_"  style="overflow:visible;"/>
		</clipPath>

	</g>
</g>
<g id="Ebene_2">
	<g>
		<path class="st2" d="M298.4,235.5c1.1,0,1.9-0.9,1.9-2c0-1.1-0.9-1.9-1.9-1.9c-1.1,0-2,0.9-2,2
			C296.4,234.6,297.3,235.5,298.4,235.5z M298.4,232.2c0.7,0,1.2,0.6,1.2,1.3c0,0.7-0.5,1.3-1.2,1.3c-0.7,0-1.3-0.6-1.3-1.3
			C297.1,232.8,297.7,232.2,298.4,232.2z"/>
		<polygon class="st2" points="301.6,233.7 302.8,235.4 303.6,235.4 302.2,233.5 303.6,231.6 302.8,231.6 301.6,233.2 301.6,231.6
			300.9,231.6 300.9,235.4 301.6,235.4 		"/>
		<polygon class="st2" points="282,14.8 279.7,14.8 279.6,16.6 281.9,16.6 		"/>
		<polygon class="st2" points="281.9,17.7 279.5,17.7 279.1,25 281.5,25 		"/>
		<polygon class="st2" points="252.1,25.1 254.4,25.1 254.6,21 254.6,21 258.8,15.3 256.3,15.3 253.6,19.2 253.6,19.2 251,15.3
			248.6,15.3 252.3,21 		"/>
		<polygon class="st2" points="277.8,14.8 275.4,14.8 274.9,25 277.2,25 		"/>
		<path class="st2" d="M286,19.8c2.7-1.3,2.6,0.6,2.6,0.6l-0.2,4.6h2.3l0.3-4.8c0,0,0.3-2.5-1.9-2.7c-2.1-0.2-3.1,1-3.1,1l0-0.8
			h-2.3l-0.4,7.3h2.3L286,19.8z"/>
		<path class="st2" d="M269.5,25.4c1.3-0.1,1.9-0.4,2.3-1.1l-0.1,0.8h1.7l0.6-7.5l-1.8,0l-0.1,0.9c-0.5-0.6-1.4-1.3-3-1.1
			c-3,0.4-4,3.7-3.4,5.5C266.4,24.9,268.2,25.5,269.5,25.4z M269.8,19.2c1.2,0,2.1,1,2.1,2.2c-0.1,1.2-1.1,2.2-2.3,2.2
			s-2.1-1-2.1-2.2C267.5,20.2,268.6,19.2,269.8,19.2z"/>
		<path class="st2" d="M256.5,21.3c0,2.3,1.9,4.2,4.2,4.2c1.6,0,3-0.9,3.8-2.3h-2c-0.5,0.4-1,0.6-1.7,0.6c-1.1,0-2.1-0.7-2.4-1.8
			h4.9l0,0h1.7c0.1-0.3,0.1-0.6,0.1-0.9c0-2.3-1.9-4.2-4.2-4.2C258.4,17,256.5,18.9,256.5,21.3z M260.8,18.8c1.2,0,2.3,0.9,2.5,2h-5
			C258.5,19.6,259.5,18.8,260.8,18.8z"/>
		<polygon class="st2" points="294.1,22.4 294.9,21.5 296.5,25 298.6,25 296.2,20.4 299.4,17.3 297.2,17.3 294.2,20.2 294.4,15
			292.4,15 291.9,25 294,25 		"/>
		<path class="st2" d="M150.3,53.6h16.9c1.8,0,3.2-1.5,3.2-3.2v-0.1v-1.6v-0.1c0-1.8-1.5-3.2-3.2-3.2h-16.9c-1.8,0-3.2,1.5-3.2,3.2
			v1.8C147.1,52.1,148.5,53.6,150.3,53.6z M170.2,50.1c-0.1,0.1-0.3,0.1-0.4,0.1h-4.4c-0.5,0-0.8-0.4-0.8-0.8v0
			c0-0.5,0.4-0.8,0.8-0.8h4.4c0.1,0,0.3,0,0.4,0.1V50.1z M147.3,48.5c0-1.6,1.3-3,3-3h16.9c1.6,0,2.9,1.3,3,2.9
			c-0.1-0.1-0.3-0.1-0.4-0.1h-4.4c-0.6,0-1.1,0.5-1.1,1.1v0c0,0.6,0.5,1.1,1.1,1.1h4.4c0.1,0,0.3,0,0.4-0.1c-0.1,1.6-1.4,2.9-3,2.9
			h-16.9c-1.6,0-3-1.3-3-3V48.5z"/>
		<path class="st2" d="M150.3,70.2h16.9c1.8,0,3.2-1.5,3.2-3.2v-0.1v-1.6v-0.1c0-1.8-1.5-3.2-3.2-3.2h-16.9c-1.8,0-3.2,1.5-3.2,3.2
			v1.8C147.1,68.7,148.5,70.2,150.3,70.2z M170.2,66.7c-0.1,0.1-0.3,0.1-0.4,0.1h-4.4c-0.5,0-0.8-0.4-0.8-0.8v0
			c0-0.5,0.4-0.8,0.8-0.8h4.4c0.1,0,0.3,0,0.4,0.1V66.7z M147.3,65.1c0-1.6,1.3-3,3-3h16.9c1.6,0,2.9,1.3,3,2.9
			c-0.1-0.1-0.3-0.1-0.4-0.1h-4.4c-0.6,0-1.1,0.5-1.1,1.1v0c0,0.6,0.5,1.1,1.1,1.1h4.4c0.1,0,0.3,0,0.4-0.1c-0.1,1.6-1.4,2.9-3,2.9
			h-16.9c-1.6,0-3-1.3-3-3V65.1z"/>
		<path class="st2" d="M150.3,86.7h16.9c1.8,0,3.2-1.5,3.2-3.2v-0.1v-1.6v-0.1c0-1.8-1.5-3.2-3.2-3.2h-16.9c-1.8,0-3.2,1.5-3.2,3.2
			v1.8C147.1,85.3,148.5,86.7,150.3,86.7z M170.2,83.3c-0.1,0.1-0.3,0.1-0.4,0.1h-4.4c-0.5,0-0.8-0.4-0.8-0.8v0
			c0-0.5,0.4-0.8,0.8-0.8h4.4c0.1,0,0.3,0,0.4,0.1V83.3z M147.3,81.7c0-1.6,1.3-3,3-3h16.9c1.6,0,2.9,1.3,3,2.9
			c-0.1-0.1-0.3-0.1-0.4-0.1h-4.4c-0.6,0-1.1,0.5-1.1,1.1v0c0,0.6,0.5,1.1,1.1,1.1h4.4c0.1,0,0.3,0,0.4-0.1c-0.1,1.6-1.4,2.9-3,2.9
			h-16.9c-1.6,0-3-1.3-3-3V81.7z"/>
		<path class="st2" d="M150.3,103.3h16.9c1.8,0,3.2-1.5,3.2-3.2V100v-1.6v-0.1c0-1.8-1.5-3.2-3.2-3.2h-16.9c-1.8,0-3.2,1.5-3.2,3.2
			v1.8C147.1,101.9,148.5,103.3,150.3,103.3z M170.2,99.9c-0.1,0.1-0.3,0.1-0.4,0.1h-4.4c-0.5,0-0.8-0.4-0.8-0.8v0
			c0-0.5,0.4-0.8,0.8-0.8h4.4c0.1,0,0.3,0,0.4,0.1V99.9z M147.3,98.3c0-1.6,1.3-3,3-3h16.9c1.6,0,2.9,1.3,3,2.9
			c-0.1-0.1-0.3-0.1-0.4-0.1h-4.4c-0.6,0-1.1,0.5-1.1,1.1v0c0,0.6,0.5,1.1,1.1,1.1h4.4c0.1,0,0.3,0,0.4-0.1c-0.1,1.6-1.4,2.9-3,2.9
			h-16.9c-1.6,0-3-1.3-3-3V98.3z"/>
		<path class="st2" d="M150.3,119.9h16.9c1.8,0,3.2-1.5,3.2-3.2v-0.1v-1.6v-0.1c0-1.8-1.5-3.2-3.2-3.2h-16.9c-1.8,0-3.2,1.5-3.2,3.2
			v1.8C147.1,118.5,148.5,119.9,150.3,119.9z M170.2,116.5c-0.1,0.1-0.3,0.1-0.4,0.1h-4.4c-0.5,0-0.8-0.4-0.8-0.8v0
			c0-0.5,0.4-0.8,0.8-0.8h4.4c0.1,0,0.3,0,0.4,0.1V116.5z M147.3,114.9c0-1.6,1.3-3,3-3h16.9c1.6,0,2.9,1.3,3,2.9
			c-0.1-0.1-0.3-0.1-0.4-0.1h-4.4c-0.6,0-1.1,0.5-1.1,1.1v0c0,0.6,0.5,1.1,1.1,1.1h4.4c0.1,0,0.3,0,0.4-0.1c-0.1,1.6-1.4,2.9-3,2.9
			h-16.9c-1.6,0-3-1.3-3-3V114.9z"/>
		<path class="st2" d="M376.2,119.9h16.9c1.8,0,3.2-1.5,3.2-3.2v-1.8c0-1.8-1.5-3.2-3.2-3.2h-16.9c-1.8,0-3.2,1.5-3.2,3.2v0.1v1.6
			v0.1C372.9,118.5,374.4,119.9,376.2,119.9z M373.2,115c0.1-0.1,0.3-0.1,0.4-0.1h4.4c0.5,0,0.8,0.4,0.8,0.8v0
			c0,0.5-0.4,0.8-0.8,0.8h-4.4c-0.1,0-0.3,0-0.4-0.1V115z M373.6,116.9h4.4c0.6,0,1.1-0.5,1.1-1.1v0c0-0.6-0.5-1.1-1.1-1.1h-4.4
			c-0.1,0-0.3,0-0.4,0.1c0.1-1.6,1.4-2.9,3-2.9h16.9c1.6,0,3,1.3,3,3v1.8c0,1.6-1.3,3-3,3h-16.9c-1.6,0-2.9-1.3-3-2.9
			C373.3,116.9,373.4,116.9,373.6,116.9z"/>
		<path class="st2" d="M376.2,103.3h16.9c1.8,0,3.2-1.5,3.2-3.2v-1.8c0-1.8-1.5-3.2-3.2-3.2h-16.9c-1.8,0-3.2,1.5-3.2,3.2v0.1v1.6
			v0.1C372.9,101.9,374.4,103.3,376.2,103.3z M373.2,98.4c0.1-0.1,0.3-0.1,0.4-0.1h4.4c0.5,0,0.8,0.4,0.8,0.8v0
			c0,0.5-0.4,0.8-0.8,0.8h-4.4c-0.1,0-0.3,0-0.4-0.1V98.4z M373.6,100.3h4.4c0.6,0,1.1-0.5,1.1-1.1v0c0-0.6-0.5-1.1-1.1-1.1h-4.4
			c-0.1,0-0.3,0-0.4,0.1c0.1-1.6,1.4-2.9,3-2.9h16.9c1.6,0,3,1.3,3,3v1.8c0,1.6-1.3,3-3,3h-16.9c-1.6,0-2.9-1.3-3-2.9
			C373.3,100.3,373.4,100.3,373.6,100.3z"/>
		<path class="st2" d="M376.2,86.7h16.9c1.8,0,3.2-1.5,3.2-3.2v-1.8c0-1.8-1.5-3.2-3.2-3.2h-16.9c-1.8,0-3.2,1.5-3.2,3.2v0.1v1.6
			v0.1C372.9,85.3,374.4,86.7,376.2,86.7z M373.2,81.9c0.1-0.1,0.3-0.1,0.4-0.1h4.4c0.5,0,0.8,0.4,0.8,0.8v0c0,0.5-0.4,0.8-0.8,0.8
			h-4.4c-0.1,0-0.3,0-0.4-0.1V81.9z M373.6,83.7h4.4c0.6,0,1.1-0.5,1.1-1.1v0c0-0.6-0.5-1.1-1.1-1.1h-4.4c-0.1,0-0.3,0-0.4,0.1
			c0.1-1.6,1.4-2.9,3-2.9h16.9c1.6,0,3,1.3,3,3v1.8c0,1.6-1.3,3-3,3h-16.9c-1.6,0-2.9-1.3-3-2.9C373.3,83.7,373.4,83.7,373.6,83.7z"
			/>
		<path class="st2" d="M376.2,70.2h16.9c1.8,0,3.2-1.5,3.2-3.2v-1.8c0-1.8-1.5-3.2-3.2-3.2h-16.9c-1.8,0-3.2,1.5-3.2,3.2v0.1v1.6
			v0.1C372.9,68.7,374.4,70.2,376.2,70.2z M373.2,65.3c0.1-0.1,0.3-0.1,0.4-0.1h4.4c0.5,0,0.8,0.4,0.8,0.8v0c0,0.5-0.4,0.8-0.8,0.8
			h-4.4c-0.1,0-0.3,0-0.4-0.1V65.3z M373.6,67.1h4.4c0.6,0,1.1-0.5,1.1-1.1v0c0-0.6-0.5-1.1-1.1-1.1h-4.4c-0.1,0-0.3,0-0.4,0.1
			c0.1-1.6,1.4-2.9,3-2.9h16.9c1.6,0,3,1.3,3,3v1.8c0,1.6-1.3,3-3,3h-16.9c-1.6,0-2.9-1.3-3-2.9C373.3,67.1,373.4,67.1,373.6,67.1z"
			/>
		<path class="st2" d="M376.2,53.6h16.9c1.8,0,3.2-1.5,3.2-3.2v-1.8c0-1.8-1.5-3.2-3.2-3.2h-16.9c-1.8,0-3.2,1.5-3.2,3.2v0.1v1.6
			v0.1C372.9,52.1,374.4,53.6,376.2,53.6z M373.2,48.7c0.1-0.1,0.3-0.1,0.4-0.1h4.4c0.5,0,0.8,0.4,0.8,0.8v0c0,0.5-0.4,0.8-0.8,0.8
			h-4.4c-0.1,0-0.3,0-0.4-0.1V48.7z M373.6,50.5h4.4c0.6,0,1.1-0.5,1.1-1.1v0c0-0.6-0.5-1.1-1.1-1.1h-4.4c-0.1,0-0.3,0-0.4,0.1
			c0.1-1.6,1.4-2.9,3-2.9h16.9c1.6,0,3,1.3,3,3v1.8c0,1.6-1.3,3-3,3h-16.9c-1.6,0-2.9-1.3-3-2.9C373.3,50.5,373.4,50.5,373.6,50.5z"
			/>
		<path class="st2" d="M215.8,149.5h-18.9c-2,0-3.6,1.6-3.6,3.6v2c0,2,1.6,3.6,3.6,3.6h18.9c2,0,3.6-1.6,3.6-3.6v-2
			C219.4,151.1,217.7,149.5,215.8,149.5z M219.1,155.1c0,1.8-1.5,3.3-3.3,3.3h-18.9c-1.8,0-3.3-1.5-3.3-3.3v-2
			c0-1.8,1.5-3.3,3.3-3.3h18.9c1.8,0,3.3,1.5,3.3,3.3V155.1z"/>
		<path class="st2" d="M259.1,149.5h-18.9c-2,0-3.6,1.6-3.6,3.6v2c0,2,1.6,3.6,3.6,3.6h18.9c2,0,3.6-1.6,3.6-3.6v-2
			C262.8,151.1,261.1,149.5,259.1,149.5z M262.5,155.1c0,1.8-1.5,3.3-3.3,3.3h-18.9c-1.8,0-3.3-1.5-3.3-3.3v-2
			c0-1.8,1.5-3.3,3.3-3.3h18.9c1.8,0,3.3,1.5,3.3,3.3V155.1z"/>
		<path class="st2" d="M302.5,149.5h-18.9c-2,0-3.6,1.6-3.6,3.6v2c0,2,1.6,3.6,3.6,3.6h18.9c2,0,3.6-1.6,3.6-3.6v-2
			C306.1,151.1,304.5,149.5,302.5,149.5z M305.9,155.1c0,1.8-1.5,3.3-3.3,3.3h-18.9c-1.8,0-3.3-1.5-3.3-3.3v-2
			c0-1.8,1.5-3.3,3.3-3.3h18.9c1.8,0,3.3,1.5,3.3,3.3V155.1z"/>
		<path class="st2" d="M345.9,149.5H327c-2,0-3.6,1.6-3.6,3.6v2c0,2,1.6,3.6,3.6,3.6h18.9c2,0,3.6-1.6,3.6-3.6v-2
			C349.5,151.1,347.9,149.5,345.9,149.5z M349.2,155.1c0,1.8-1.5,3.3-3.3,3.3H327c-1.8,0-3.3-1.5-3.3-3.3v-2c0-1.8,1.5-3.3,3.3-3.3
			h18.9c1.8,0,3.3,1.5,3.3,3.3V155.1z"/>
		<path class="st2" d="M29.4,66.1l0,5.9c0,0.1-0.4,5.1,7,7.9c2,0.8,7.1,2.6,12.7,3.5c6.9,1.1,13.6,1.2,14.9,1.2h0.5
			c1.3,0,8-0.1,14.9-1.2c5.6-0.9,10.8-2.8,12.7-3.5C99.6,77,99,72,99,71.9v-5.9c0-1.4-1.2-2-2-2H64.7h-0.1H31.4
			C30.6,64,29.4,64.7,29.4,66.1z M64.7,64.3H97c0.5,0,1.7,0.4,1.7,1.7l0,5.9c0,0,0.5,4.9-6.6,7.6c-2,0.8-7.1,2.6-12.7,3.5
			c-6.8,1.1-13.6,1.2-14.9,1.2H64c-1.3,0-8-0.1-14.9-1.2c-5.6-0.9-10.7-2.8-12.7-3.5c-7.2-2.7-6.8-7.6-6.8-7.6v-5.9
			c0-1.3,1.2-1.7,1.7-1.7H64.7L64.7,64.3z"/>
		<path class="st2" d="M36.9,71c2.4,1,5.9,2.1,9.4,2.8c6.8,1.5,15.1,1.9,17.7,1.9h0.6c2.6,0,10.9-0.3,17.7-1.9
			c3.5-0.8,7-1.8,9.4-2.8c2.8-1.1,3.8-2.1,4-2.2c0.7-0.6,0.7-1.1,0.5-1.5c-0.2-0.6-1.1-1.1-1.8-1.1H33.9c-0.6,0-1.5,0.4-1.8,1.1
			c-0.1,0.3-0.1,0.9,0.5,1.5C32.8,68.9,34.1,69.8,36.9,71z M32.4,67.4c0.2-0.5,1-0.9,1.5-0.9h60.5c0.5,0,1.3,0.4,1.5,0.9
			c0.1,0.4,0,0.8-0.5,1.2c-0.1,0.1-1.2,1-3.9,2.1c-2.4,1-5.9,2-9.4,2.8c-6.8,1.5-15.1,1.8-17.7,1.8H64c-2.6,0-10.9-0.3-17.7-1.8
			c-3.4-0.8-6.9-1.8-9.4-2.8c-2.7-1.1-4-2-4.1-2.1C32.4,68.2,32.3,67.8,32.4,67.4z"/>
		<polygon class="st2" points="143.3,215.9 144.3,215.9 144.3,222.8 145.8,222.8 145.8,214.5 143.3,214.5 		"/>
		<path class="st2" d="M186.5,217c0-1.5-1.2-2.7-2.7-2.7c-1.6,0-2.8,1.1-2.8,3h1.5c0-1,0.5-1.7,1.3-1.7c0.7,0,1.2,0.6,1.2,1.3
			c0,0.5-0.3,1-1,1.7l-3,2.8v1.3h5.4v-1.4h-3.3l1.7-1.6C186.2,218.7,186.5,218.1,186.5,217z"/>
		<path class="st2" d="M222.6,218c0.5-0.4,0.7-0.8,0.7-1.4c0-1.3-1-2.3-2.3-2.3c-1.2,0-2.1,0.7-2.2,2.1h1.5c0.1-0.5,0.3-0.8,0.7-0.8
			c0.4,0,0.7,0.3,0.7,0.8c0,0.6-0.3,0.8-1.3,0.9v1.5h0.2c1,0,1.6,0.6,1.6,1.4c0,0.8-0.6,1.4-1.3,1.4c-0.7,0-1.3-0.5-1.4-1.3h-1.5
			c0.1,1.6,1.3,2.7,2.9,2.7c1.6,0,2.8-1.2,2.8-2.8C223.9,219.1,223.4,218.4,222.6,218z"/>
		<path class="st2" d="M146.7,246.3h-1.3l-3.9,5.9v1.2h3.6v1.3h1.5v-1.3h0.9v-1.4h-0.9V246.3z M145.1,252.1h-2.1l2.1-3.2V252.1z"/>
		<path class="st2" d="M183.9,249c-0.4,0-0.6,0.1-1.1,0.2l0.3-1.5h2.7v-1.4h-3.8l-0.8,4.4l1.3,0.4c0.4-0.5,0.7-0.6,1.2-0.6
			c0.8,0,1.4,0.6,1.4,1.5c0,0.9-0.6,1.5-1.4,1.5c-0.7,0-1.2-0.5-1.4-1.3h-1.5c0.1,1.5,1.4,2.7,2.9,2.7c1.6,0,2.8-1.3,2.8-3
			C186.5,250.2,185.4,249,183.9,249z"/>
		<path class="st2" d="M221.7,249.2c-0.3,0-0.4,0-0.7,0.1l2-3h-1.8l-2.2,3.3c-0.6,0.9-0.8,1.5-0.8,2.3c0,1.7,1.2,2.9,2.9,2.9
			c1.7,0,2.9-1.3,2.9-3C224,250.3,223.1,249.2,221.7,249.2z M221.2,253.4c-0.8,0-1.4-0.6-1.4-1.5c0-0.9,0.6-1.5,1.4-1.5
			c0.8,0,1.4,0.6,1.4,1.5C222.5,252.8,222,253.4,221.2,253.4z"/>
		<polygon class="st2" points="142.3,279.2 145.6,279.2 142.4,286.2 144.1,286.2 147.2,279.2 147.2,277.8 142.3,277.8 		"/>
		<path class="st2" d="M185.4,281.5c0.5-0.4,0.7-0.9,0.7-1.6c0-1.3-1-2.3-2.3-2.3c-1.3,0-2.3,1-2.3,2.3c0,0.6,0.2,1,0.7,1.6
			c-0.9,0.5-1.2,1.2-1.2,2c0,1.6,1.2,2.8,2.8,2.8c1.6,0,2.8-1.2,2.8-2.8C186.5,282.6,186.2,282,185.4,281.5z M183.8,279
			c0.5,0,0.8,0.4,0.8,0.9c0,0.5-0.4,0.9-0.9,0.9c-0.5,0-0.9-0.4-0.9-0.9C182.9,279.4,183.3,279,183.8,279z M183.8,284.9
			c-0.7,0-1.3-0.6-1.3-1.3c0-0.7,0.6-1.3,1.3-1.3c0.7,0,1.3,0.6,1.3,1.3C185,284.4,184.5,284.9,183.8,284.9z"/>
		<path class="st2" d="M183.8,309.4c-1.7,0-2.8,1.1-2.8,2.9v2.8c0,1.9,1.2,3,2.9,3c1.6,0,2.7-1.1,2.7-3v-2.9
			C186.6,310.5,185.5,309.4,183.8,309.4z M185.1,315.1c0,1.1-0.5,1.6-1.3,1.6c-0.9,0-1.3-0.6-1.3-1.6v-2.8c0-0.9,0.5-1.5,1.3-1.5
			c0.8,0,1.3,0.5,1.3,1.5V315.1z"/>
		<path class="st2" d="M223.3,309.5h-1l-0.3,2.5h-1l0.3-2.5h-1l-0.3,2.5h-1.2v1.1h1.1l-0.1,1h-1.2v1.1h1.1l-0.4,2.6h1l0.4-2.6h1
			l-0.4,2.6h1l0.4-2.6h1.2v-1.1h-1l0.1-1h1.2V312h-1L223.3,309.5z M221.6,314.1h-1l0.1-1h1L221.6,314.1z"/>
		<rect x="152.6" y="316.4" class="st2" width="1.5" height="1.5"/>
		<path class="st2" d="M221.1,277.6c-1.7,0-2.8,1.3-2.8,3c0,1.5,1,2.7,2.3,2.7c0.2,0,0.4,0,0.7-0.1l-2,3h1.8l2.2-3.3
			c0.6-0.9,0.8-1.5,0.8-2.3C224,278.9,222.8,277.6,221.1,277.6z M221.1,282c-0.8,0-1.4-0.6-1.4-1.5c0-0.9,0.5-1.5,1.3-1.5
			c0.8,0,1.4,0.6,1.4,1.5C222.5,281.4,222,282,221.1,282z"/>
		<path class="st2" d="M189.3,220l-1.2,2.9h0.6l0.3-0.7h1l0.3,0.7h0.6l-1.2-2.9H189.3z M189.2,221.6l0.3-0.9l0.3,0.9H189.2z"/>
		<path class="st2" d="M192.6,221.3c0.2-0.1,0.3-0.3,0.3-0.5c0-0.3-0.1-0.5-0.3-0.6c-0.2-0.1-0.3-0.1-0.8-0.1h-0.6v2.9h0.8
			c0.7,0,1.1-0.3,1.1-0.9C193.1,221.7,193,221.5,192.6,221.3z M191.7,220.5h0.2c0.3,0,0.4,0.1,0.4,0.3c0,0.2-0.1,0.3-0.5,0.3h-0.2
			V220.5z M192,222.4h-0.3v-0.7h0.3c0.4,0,0.5,0.1,0.5,0.4C192.5,222.3,192.4,222.4,192,222.4z"/>
		<path class="st2" d="M194.8,220.5c0.3,0,0.6,0.1,0.8,0.4h0.6c-0.3-0.6-0.8-0.9-1.4-0.9c-0.8,0-1.5,0.7-1.5,1.5
			c0,0.8,0.7,1.5,1.5,1.5c0.6,0,1.1-0.3,1.3-0.9h-0.6c-0.2,0.2-0.4,0.3-0.7,0.3c-0.5,0-1-0.4-1-1
			C193.9,220.9,194.3,220.5,194.8,220.5z"/>
		<path class="st2" d="M228.6,220.2c-0.2-0.1-0.6-0.2-1-0.2H227v2.9h0.7c0.4,0,0.7,0,0.9-0.2c0.4-0.2,0.7-0.7,0.7-1.3
			C229.3,220.9,229,220.5,228.6,220.2z M228.3,222.2c-0.2,0.1-0.4,0.1-0.7,0.1h-0.1v-1.9h0.1c0.3,0,0.5,0,0.7,0.1
			c0.3,0.1,0.4,0.4,0.4,0.8C228.7,221.8,228.6,222.1,228.3,222.2z"/>
		<polygon class="st2" points="229.7,222.9 231.2,222.9 231.2,222.4 230.2,222.4 230.2,221.7 231.2,221.7 231.2,221.2 230.2,221.2
			230.2,220.5 231.2,220.5 231.2,220 229.7,220 		"/>
		<polygon class="st2" points="231.7,222.9 232.3,222.9 232.3,221.7 233.1,221.7 233.1,221.2 232.3,221.2 232.3,220.5 233.2,220.5
			233.2,220 231.7,220 		"/>
		<path class="st2" d="M190,253.9c0,0.3-0.1,0.4-0.3,0.4c-0.1,0-0.2-0.1-0.3-0.2h-0.5c0.1,0.5,0.4,0.7,0.8,0.7
			c0.5,0,0.8-0.3,0.8-0.9v-2H190V253.9z"/>
		<polygon class="st2" points="192.5,251.9 191.6,253.1 191.6,251.9 191,251.9 191,254.7 191.6,254.7 191.6,253.5 192.5,254.7
			193.1,254.7 192,253.3 193.1,251.9 		"/>
		<polygon class="st2" points="194,251.9 193.5,251.9 193.5,254.7 194.9,254.7 194.9,254.2 194,254.2 		"/>
		<polygon class="st2" points="227.4,254 226.7,251.9 225.9,251.9 225.9,254.7 226.5,254.7 226.5,252.6 227.2,254.7 227.6,254.7
			228.4,252.6 228.4,254.7 228.9,254.7 228.9,251.9 228.2,251.9 		"/>
		<polygon class="st2" points="231.2,254 230,251.9 229.4,251.9 229.4,254.7 230,254.7 230,252.7 231.2,254.7 231.8,254.7
			231.8,251.9 231.2,251.9 		"/>
		<path class="st2" d="M233.7,251.8c-0.9,0-1.5,0.6-1.5,1.5c0,0.8,0.7,1.5,1.5,1.5c0.8,0,1.5-0.6,1.5-1.5
			C235.2,252.5,234.5,251.8,233.7,251.8z M233.7,254.3c-0.5,0-1-0.4-1-1c0-0.6,0.4-1,1-1c0.5,0,0.9,0.4,0.9,1
			C234.6,253.9,234.2,254.3,233.7,254.3z"/>
		<path class="st2" d="M151.2,253.8h1.2c-0.2,0.3-0.5,0.5-0.8,0.5c-0.6,0-1-0.4-1-1c0-0.5,0.4-1,1-1c0.3,0,0.6,0.1,0.8,0.4h0.6
			c-0.2-0.5-0.8-0.9-1.4-0.9c-0.8,0-1.5,0.7-1.5,1.5c0,0.8,0.7,1.5,1.6,1.5c0.8,0,1.5-0.7,1.5-1.4v-0.1h-1.9V253.8z"/>
		<polygon class="st2" points="155,253 154,253 154,251.9 153.4,251.9 153.4,254.7 154,254.7 154,253.5 155,253.5 155,254.7
			155.5,254.7 155.5,251.9 155,251.9 		"/>
		<rect x="156.1" y="251.9" class="st2" width="0.5" height="2.9"/>
		<polygon class="st2" points="188.7,284 189.3,284 189.3,286.4 189.8,286.4 189.8,284 190.3,284 190.3,283.5 188.7,283.5 		"/>
		<path class="st2" d="M192,285.3c0,0.5-0.2,0.6-0.4,0.6c-0.3,0-0.4-0.1-0.4-0.6v-1.8h-0.5v1.8c0,0.7,0.4,1.1,1,1.1
			c0.6,0,1-0.4,1-1.1v-1.8H192V285.3z"/>
		<polygon class="st2" points="194.2,285.7 193.4,283.5 192.9,283.5 194,286.4 194.4,286.4 195.5,283.5 195,283.5 		"/>
		<path class="st2" d="M149.2,283.5h-0.7v2.9h0.5v-1.1h0.2c0.4,0,0.6,0,0.8-0.1c0.2-0.1,0.4-0.4,0.4-0.8c0-0.3-0.1-0.6-0.4-0.8
			C149.8,283.5,149.6,283.5,149.2,283.5z M149.2,284.8H149V284h0.2c0.4,0,0.6,0.1,0.6,0.4C149.8,284.6,149.6,284.8,149.2,284.8z"/>
		<path class="st2" d="M153.2,285.9c0.2-0.2,0.3-0.5,0.3-0.9c0-0.9-0.6-1.5-1.5-1.5c-0.9,0-1.5,0.6-1.5,1.5c0,0.8,0.7,1.5,1.6,1.5
			c0.3,0,0.6-0.1,0.8-0.2c0.2,0.2,0.4,0.2,0.6,0.2c0,0,0.1,0,0.1,0v-0.5c-0.1,0-0.1,0-0.1,0C153.4,285.9,153.3,285.9,153.2,285.9z
			 M152.1,285.9c-0.4,0-0.6-0.1-0.9-0.4c0.1,0,0.2,0,0.3,0c0.3,0,0.6,0.1,0.9,0.4C152.3,285.9,152.2,285.9,152.1,285.9z
			 M152.8,285.6c-0.3-0.3-0.8-0.6-1.3-0.6c-0.2,0-0.3,0-0.4,0.1c0-0.1,0-0.1,0-0.1c0-0.6,0.4-1,1-1c0.6,0,1,0.4,1,1
			C153,285.2,152.9,285.4,152.8,285.6z"/>
		<path class="st2" d="M155.8,284.4c0-0.3-0.1-0.5-0.3-0.7c-0.2-0.2-0.4-0.2-0.8-0.2h-0.8v2.9h0.5v-1.1l0.8,1.1h0.7l-0.8-1.1
			C155.6,285.2,155.8,284.9,155.8,284.4z M154.5,284.9V284h0.2c0.5,0,0.6,0.2,0.6,0.4c0,0.3-0.2,0.4-0.6,0.4H154.5z"/>
		<path class="st2" d="M157.1,284.6c-0.3-0.1-0.3-0.1-0.3-0.1c-0.1-0.1-0.2-0.2-0.2-0.3c0-0.2,0.1-0.3,0.3-0.3
			c0.2,0,0.3,0.1,0.3,0.3h0.6c0-0.5-0.4-0.8-0.9-0.8c-0.5,0-0.8,0.4-0.8,0.8c0,0.4,0.2,0.6,0.6,0.8c0.4,0.1,0.4,0.2,0.5,0.2
			c0.1,0.1,0.1,0.2,0.1,0.3c0,0.2-0.2,0.3-0.4,0.3c-0.2,0-0.4-0.1-0.4-0.4H156c0,0.5,0.4,0.9,0.9,0.9c0.5,0,0.9-0.4,0.9-0.9
			C157.8,285.1,157.7,284.8,157.1,284.6z"/>
		<polygon class="st2" points="227.5,285.5 227,283.5 226.6,283.5 226.1,285.5 225.6,283.5 225.1,283.5 225.9,286.4 226.3,286.4
			226.8,284.5 227.3,286.4 227.7,286.4 228.5,283.5 228,283.5 		"/>
		<polygon class="st2" points="230.6,283.5 229.9,284.5 229.2,283.5 228.6,283.5 229.5,284.9 228.6,286.4 229.2,286.4 229.9,285.4
			230.6,286.4 231.2,286.4 230.2,284.9 231.2,283.5 		"/>
		<polygon class="st2" points="232.4,284.8 231.8,283.5 231.2,283.5 232.1,285.3 232.1,286.4 232.7,286.4 232.7,285.3 233.6,283.5
			233,283.5 		"/>
		<polygon class="st2" points="235.4,284 235.4,283.5 233.7,283.5 233.7,284 234.8,284 233.7,285.9 233.7,286.4 235.5,286.4
			235.5,285.8 234.3,285.8 		"/>
		<path class="st2" d="M226.6,315.9c-0.3-0.1-0.3-0.1-0.3-0.1c-0.1-0.1-0.2-0.2-0.2-0.3c0-0.2,0.1-0.3,0.3-0.3
			c0.2,0,0.3,0.1,0.3,0.3h0.6c0-0.5-0.4-0.8-0.9-0.8c-0.5,0-0.8,0.4-0.8,0.8c0,0.4,0.2,0.6,0.6,0.8c0.4,0.1,0.4,0.2,0.5,0.2
			c0.1,0.1,0.1,0.2,0.1,0.3c0,0.2-0.2,0.3-0.4,0.3c-0.2,0-0.4-0.1-0.4-0.4h-0.6c0,0.5,0.4,0.9,0.9,0.9c0.5,0,0.9-0.4,0.9-0.9
			C227.4,316.4,227.2,316.1,226.6,315.9z"/>
		<polygon class="st2" points="227.7,317.7 229.3,317.7 229.3,317.1 228.3,317.1 228.3,316.5 229.2,316.5 229.2,316 228.3,316
			228.3,315.3 229.3,315.3 229.3,314.8 227.7,314.8 		"/>
		<polygon class="st2" points="231.6,316.9 230.4,314.8 229.8,314.8 229.8,317.7 230.3,317.7 230.3,315.6 231.5,317.7 232.1,317.7
			232.1,314.8 231.6,314.8 		"/>
		<path class="st2" d="M234.3,315c-0.2-0.1-0.6-0.2-1-0.2h-0.7v2.9h0.7c0.4,0,0.7,0,0.9-0.2c0.4-0.2,0.7-0.7,0.7-1.3
			C234.9,315.7,234.7,315.2,234.3,315z M234,317c-0.2,0.1-0.4,0.1-0.7,0.1h-0.1v-1.9h0.1c0.3,0,0.5,0,0.7,0.1
			c0.3,0.1,0.4,0.4,0.4,0.8C234.4,316.6,234.3,316.9,234,317z"/>
		<polygon class="st2" points="148.8,310.5 147.1,309.4 145.8,312 144.5,309.5 142.6,310.4 144.2,312.9 141.3,312.8 141.3,314.9
			144.2,314.7 142.6,317.3 144.5,318.2 145.8,315.6 147.1,318.2 148.8,317.1 147.3,314.7 150.1,314.9 150.1,312.8 147.3,312.9 		"/>
		<path class="st2" d="M158.4,209.6h-17.8c-1.5,0-2.7,1.2-2.7,2.7v11.9c0,1.5,1.2,2.7,2.7,2.7h17.8c1.5,0,2.7-1.2,2.7-2.7v-11.9
			C161.1,210.8,159.9,209.6,158.4,209.6z M160.8,224.2c0,1.4-1.1,2.5-2.5,2.5h-17.8c-1.4,0-2.5-1.1-2.5-2.5v-11.9
			c0-1.4,1.1-2.5,2.5-2.5h17.8c1.4,0,2.5,1.1,2.5,2.5V224.2z"/>
		<path class="st2" d="M159.1,207.8h-19.2c-2.4,0-4.3,1.9-4.3,4.3v12.1c0,2.4,1.9,4.3,4.3,4.3h19.2c2.4,0,4.3-1.9,4.3-4.3v-12.1
			C163.4,209.8,161.5,207.8,159.1,207.8z M163.1,224.3c0,2.2-1.8,4-4,4h-19.2c-2.2,0-4-1.8-4-4v-12.1c0-2.2,1.8-4,4-4h19.2
			c2.2,0,4,1.8,4,4V224.3z"/>
		<path class="st2" d="M196.5,209.6h-17.8c-1.5,0-2.7,1.2-2.7,2.7v11.9c0,1.5,1.2,2.7,2.7,2.7h17.8c1.5,0,2.7-1.2,2.7-2.7v-11.9
			C199.2,210.8,198,209.6,196.5,209.6z M199,224.2c0,1.4-1.1,2.5-2.5,2.5h-17.8c-1.4,0-2.5-1.1-2.5-2.5v-11.9c0-1.4,1.1-2.5,2.5-2.5
			h17.8c1.4,0,2.5,1.1,2.5,2.5V224.2z"/>
		<path class="st2" d="M197.2,207.8H178c-2.4,0-4.3,1.9-4.3,4.3v12.1c0,2.4,1.9,4.3,4.3,4.3h19.2c2.4,0,4.3-1.9,4.3-4.3v-12.1
			C201.5,209.8,199.6,207.8,197.2,207.8z M201.2,224.3c0,2.2-1.8,4-4,4H178c-2.2,0-4-1.8-4-4v-12.1c0-2.2,1.8-4,4-4h19.2
			c2.2,0,4,1.8,4,4V224.3z"/>
		<path class="st2" d="M234.6,209.6h-17.8c-1.5,0-2.7,1.2-2.7,2.7v11.9c0,1.5,1.2,2.7,2.7,2.7h17.8c1.5,0,2.7-1.2,2.7-2.7v-11.9
			C237.4,210.8,236.1,209.6,234.6,209.6z M237.1,224.2c0,1.4-1.1,2.5-2.5,2.5h-17.8c-1.4,0-2.5-1.1-2.5-2.5v-11.9
			c0-1.4,1.1-2.5,2.5-2.5h17.8c1.4,0,2.5,1.1,2.5,2.5V224.2z"/>
		<path class="st2" d="M235.3,207.8h-19.2c-2.4,0-4.3,1.9-4.3,4.3v12.1c0,2.4,1.9,4.3,4.3,4.3h19.2c2.4,0,4.3-1.9,4.3-4.3v-12.1
			C239.7,209.8,237.7,207.8,235.3,207.8z M239.3,224.3c0,2.2-1.8,4-4,4h-19.2c-2.2,0-4-1.8-4-4v-12.1c0-2.2,1.8-4,4-4h19.2
			c2.2,0,4,1.8,4,4V224.3z"/>
		<path class="st2" d="M158.4,241.4h-17.8c-1.5,0-2.7,1.2-2.7,2.7V256c0,1.5,1.2,2.7,2.7,2.7h17.8c1.5,0,2.7-1.2,2.7-2.7v-11.9
			C161.1,242.6,159.9,241.4,158.4,241.4z M160.8,256c0,1.4-1.1,2.5-2.5,2.5h-17.8c-1.4,0-2.5-1.1-2.5-2.5v-11.9
			c0-1.4,1.1-2.5,2.5-2.5h17.8c1.4,0,2.5,1.1,2.5,2.5V256z"/>
		<path class="st2" d="M159.1,239.7h-19.2c-2.4,0-4.3,1.9-4.3,4.3v12.1c0,2.4,1.9,4.3,4.3,4.3h19.2c2.4,0,4.3-1.9,4.3-4.3V244
			C163.4,241.6,161.5,239.7,159.1,239.7z M163.1,256.1c0,2.2-1.8,4-4,4h-19.2c-2.2,0-4-1.8-4-4V244c0-2.2,1.8-4,4-4h19.2
			c2.2,0,4,1.8,4,4V256.1z"/>
		<path class="st2" d="M196.5,241.4h-17.8c-1.5,0-2.7,1.2-2.7,2.7V256c0,1.5,1.2,2.7,2.7,2.7h17.8c1.5,0,2.7-1.2,2.7-2.7v-11.9
			C199.2,242.6,198,241.4,196.5,241.4z M199,256c0,1.4-1.1,2.5-2.5,2.5h-17.8c-1.4,0-2.5-1.1-2.5-2.5v-11.9c0-1.4,1.1-2.5,2.5-2.5
			h17.8c1.4,0,2.5,1.1,2.5,2.5V256z"/>
		<path class="st2" d="M197.2,239.7H178c-2.4,0-4.3,1.9-4.3,4.3v12.1c0,2.4,1.9,4.3,4.3,4.3h19.2c2.4,0,4.3-1.9,4.3-4.3V244
			C201.5,241.6,199.6,239.7,197.2,239.7z M201.2,256.1c0,2.2-1.8,4-4,4H178c-2.2,0-4-1.8-4-4V244c0-2.2,1.8-4,4-4h19.2
			c2.2,0,4,1.8,4,4V256.1z"/>
		<path class="st2" d="M234.6,241.4h-17.8c-1.5,0-2.7,1.2-2.7,2.7V256c0,1.5,1.2,2.7,2.7,2.7h17.8c1.5,0,2.7-1.2,2.7-2.7v-11.9
			C237.4,242.6,236.1,241.4,234.6,241.4z M237.1,256c0,1.4-1.1,2.5-2.5,2.5h-17.8c-1.4,0-2.5-1.1-2.5-2.5v-11.9
			c0-1.4,1.1-2.5,2.5-2.5h17.8c1.4,0,2.5,1.1,2.5,2.5V256z"/>
		<path class="st2" d="M235.3,239.7h-19.2c-2.4,0-4.3,1.9-4.3,4.3v12.1c0,2.4,1.9,4.3,4.3,4.3h19.2c2.4,0,4.3-1.9,4.3-4.3V244
			C239.7,241.6,237.7,239.7,235.3,239.7z M239.3,256.1c0,2.2-1.8,4-4,4h-19.2c-2.2,0-4-1.8-4-4V244c0-2.2,1.8-4,4-4h19.2
			c2.2,0,4,1.8,4,4V256.1z"/>
		<path class="st2" d="M158.4,273.2h-17.8c-1.5,0-2.7,1.2-2.7,2.7v11.9c0,1.5,1.2,2.7,2.7,2.7h17.8c1.5,0,2.7-1.2,2.7-2.7v-11.9
			C161.1,274.4,159.9,273.2,158.4,273.2z M160.8,287.9c0,1.4-1.1,2.5-2.5,2.5h-17.8c-1.4,0-2.5-1.1-2.5-2.5v-11.9
			c0-1.4,1.1-2.5,2.5-2.5h17.8c1.4,0,2.5,1.1,2.5,2.5V287.9z"/>
		<path class="st2" d="M159.1,271.5h-19.2c-2.4,0-4.3,1.9-4.3,4.3V288c0,2.4,1.9,4.3,4.3,4.3h19.2c2.4,0,4.3-1.9,4.3-4.3v-12.1
			C163.4,273.4,161.5,271.5,159.1,271.5z M163.1,288c0,2.2-1.8,4-4,4h-19.2c-2.2,0-4-1.8-4-4v-12.1c0-2.2,1.8-4,4-4h19.2
			c2.2,0,4,1.8,4,4V288z"/>
		<path class="st2" d="M196.5,273.2h-17.8c-1.5,0-2.7,1.2-2.7,2.7v11.9c0,1.5,1.2,2.7,2.7,2.7h17.8c1.5,0,2.7-1.2,2.7-2.7v-11.9
			C199.2,274.4,198,273.2,196.5,273.2z M199,287.9c0,1.4-1.1,2.5-2.5,2.5h-17.8c-1.4,0-2.5-1.1-2.5-2.5v-11.9c0-1.4,1.1-2.5,2.5-2.5
			h17.8c1.4,0,2.5,1.1,2.5,2.5V287.9z"/>
		<path class="st2" d="M197.2,271.5H178c-2.4,0-4.3,1.9-4.3,4.3V288c0,2.4,1.9,4.3,4.3,4.3h19.2c2.4,0,4.3-1.9,4.3-4.3v-12.1
			C201.5,273.4,199.6,271.5,197.2,271.5z M201.2,288c0,2.2-1.8,4-4,4H178c-2.2,0-4-1.8-4-4v-12.1c0-2.2,1.8-4,4-4h19.2
			c2.2,0,4,1.8,4,4V288z"/>
		<path class="st2" d="M234.6,273.2h-17.8c-1.5,0-2.7,1.2-2.7,2.7v11.9c0,1.5,1.2,2.7,2.7,2.7h17.8c1.5,0,2.7-1.2,2.7-2.7v-11.9
			C237.4,274.4,236.1,273.2,234.6,273.2z M237.1,287.9c0,1.4-1.1,2.5-2.5,2.5h-17.8c-1.4,0-2.5-1.1-2.5-2.5v-11.9
			c0-1.4,1.1-2.5,2.5-2.5h17.8c1.4,0,2.5,1.1,2.5,2.5V287.9z"/>
		<path class="st2" d="M235.3,271.5h-19.2c-2.4,0-4.3,1.9-4.3,4.3V288c0,2.4,1.9,4.3,4.3,4.3h19.2c2.4,0,4.3-1.9,4.3-4.3v-12.1
			C239.7,273.4,237.7,271.5,235.3,271.5z M239.3,288c0,2.2-1.8,4-4,4h-19.2c-2.2,0-4-1.8-4-4v-12.1c0-2.2,1.8-4,4-4h19.2
			c2.2,0,4,1.8,4,4V288z"/>
		<path class="st2" d="M158.4,305h-17.8c-1.5,0-2.7,1.2-2.7,2.7v11.9c0,1.5,1.2,2.7,2.7,2.7h17.8c1.5,0,2.7-1.2,2.7-2.7v-11.9
			C161.1,306.3,159.9,305,158.4,305z M160.8,319.7c0,1.4-1.1,2.5-2.5,2.5h-17.8c-1.4,0-2.5-1.1-2.5-2.5v-11.9c0-1.4,1.1-2.5,2.5-2.5
			h17.8c1.4,0,2.5,1.1,2.5,2.5V319.7z"/>
		<path class="st2" d="M159.1,303.3h-19.2c-2.4,0-4.3,1.9-4.3,4.3v12.1c0,2.4,1.9,4.3,4.3,4.3h19.2c2.4,0,4.3-1.9,4.3-4.3v-12.1
			C163.4,305.3,161.5,303.3,159.1,303.3z M163.1,319.8c0,2.2-1.8,4-4,4h-19.2c-2.2,0-4-1.8-4-4v-12.1c0-2.2,1.8-4,4-4h19.2
			c2.2,0,4,1.8,4,4V319.8z"/>
		<path class="st2" d="M196.5,305h-17.8c-1.5,0-2.7,1.2-2.7,2.7v11.9c0,1.5,1.2,2.7,2.7,2.7h17.8c1.5,0,2.7-1.2,2.7-2.7v-11.9
			C199.2,306.3,198,305,196.5,305z M199,319.7c0,1.4-1.1,2.5-2.5,2.5h-17.8c-1.4,0-2.5-1.1-2.5-2.5v-11.9c0-1.4,1.1-2.5,2.5-2.5
			h17.8c1.4,0,2.5,1.1,2.5,2.5V319.7z"/>
		<path class="st2" d="M197.2,303.3H178c-2.4,0-4.3,1.9-4.3,4.3v12.1c0,2.4,1.9,4.3,4.3,4.3h19.2c2.4,0,4.3-1.9,4.3-4.3v-12.1
			C201.5,305.3,199.6,303.3,197.2,303.3z M201.2,319.8c0,2.2-1.8,4-4,4H178c-2.2,0-4-1.8-4-4v-12.1c0-2.2,1.8-4,4-4h19.2
			c2.2,0,4,1.8,4,4V319.8z"/>
		<path class="st2" d="M234.6,305h-17.8c-1.5,0-2.7,1.2-2.7,2.7v11.9c0,1.5,1.2,2.7,2.7,2.7h17.8c1.5,0,2.7-1.2,2.7-2.7v-11.9
			C237.4,306.3,236.1,305,234.6,305z M237.1,319.7c0,1.4-1.1,2.5-2.5,2.5h-17.8c-1.4,0-2.5-1.1-2.5-2.5v-11.9c0-1.4,1.1-2.5,2.5-2.5
			h17.8c1.4,0,2.5,1.1,2.5,2.5V319.7z"/>
		<path class="st2" d="M235.3,303.3h-19.2c-2.4,0-4.3,1.9-4.3,4.3v12.1c0,2.4,1.9,4.3,4.3,4.3h19.2c2.4,0,4.3-1.9,4.3-4.3v-12.1
			C239.7,305.3,237.7,303.3,235.3,303.3z M239.3,319.8c0,2.2-1.8,4-4,4h-19.2c-2.2,0-4-1.8-4-4v-12.1c0-2.2,1.8-4,4-4h19.2
			c2.2,0,4,1.8,4,4V319.8z"/>
		<path class="st2" d="M300.2,239.6c3.4,0,6.2-2.8,6.2-6.2c0-3.4-2.8-6.2-6.2-6.2c-3.4,0-6.2,2.8-6.2,6.2
			C294,236.8,296.8,239.6,300.2,239.6z M300.2,227.5c3.3,0,5.9,2.6,5.9,5.9c0,3.3-2.6,5.9-5.9,5.9c-3.3,0-5.9-2.6-5.9-5.9
			C294.3,230.1,296.9,227.5,300.2,227.5z"/>
		<path class="st2" d="M318.4,233.4c0,3.4,2.8,6.2,6.2,6.2c3.4,0,6.2-2.8,6.2-6.2c0-3.4-2.8-6.2-6.2-6.2
			C321.2,227.2,318.4,230,318.4,233.4z M324.6,227.5c3.3,0,5.9,2.6,5.9,5.9c0,3.3-2.6,5.9-5.9,5.9c-3.3,0-5.9-2.6-5.9-5.9
			C318.7,230.1,321.3,227.5,324.6,227.5z"/>
		<path class="st2" d="M275.6,239.6c3.4,0,6.2-2.8,6.2-6.2c0-3.4-2.8-6.2-6.2-6.2s-6.2,2.8-6.2,6.2
			C269.4,236.8,272.2,239.6,275.6,239.6z M275.6,227.5c3.3,0,5.9,2.6,5.9,5.9c0,3.3-2.6,5.9-5.9,5.9s-5.9-2.6-5.9-5.9
			C269.7,230.1,272.3,227.5,275.6,227.5z"/>
		<path class="st2" d="M300.2,215.2c3.4,0,6.2-2.8,6.2-6.2c0-3.4-2.8-6.2-6.2-6.2c-3.4,0-6.2,2.8-6.2,6.2
			C294,212.4,296.8,215.2,300.2,215.2z M300.2,203.1c3.3,0,5.9,2.6,5.9,5.9s-2.6,5.9-5.9,5.9c-3.3,0-5.9-2.6-5.9-5.9
			S296.9,203.1,300.2,203.1z"/>
		<path class="st2" d="M300.2,251.7c-3.4,0-6.2,2.8-6.2,6.2s2.8,6.2,6.2,6.2c3.4,0,6.2-2.8,6.2-6.2S303.6,251.7,300.2,251.7z
			 M300.2,263.7c-3.3,0-5.9-2.6-5.9-5.9s2.6-5.9,5.9-5.9c3.3,0,5.9,2.6,5.9,5.9S303.5,263.7,300.2,263.7z"/>
		<path class="st2" d="M300.2,241.1c4.3,0,7.8-3.5,7.8-7.7c0-4.3-3.5-7.7-7.8-7.7c-4.3,0-7.7,3.5-7.7,7.7
			C292.4,237.7,295.9,241.1,300.2,241.1z M300.2,225.9c4.1,0,7.5,3.4,7.5,7.5c0,4.1-3.4,7.5-7.5,7.5c-4.1,0-7.5-3.4-7.5-7.5
			C292.7,229.3,296.1,225.9,300.2,225.9z"/>
		<path class="st2" d="M300.2,278.5c-3.4,0-6.2,2.8-6.2,6.2c0,3.4,2.8,6.2,6.2,6.2c3.4,0,6.2-2.8,6.2-6.2
			C306.4,281.2,303.6,278.5,300.2,278.5z M300.2,290.5c-3.3,0-5.9-2.6-5.9-5.9s2.6-5.9,5.9-5.9c3.3,0,5.9,2.6,5.9,5.9
			S303.5,290.5,300.2,290.5z"/>
		<path class="st2" d="M300.2,245.3c6.6,0,12-5.4,12-12c0-6.6-5.4-12-12-12c-6.6,0-12,5.4-12,12C288.2,240,293.6,245.3,300.2,245.3z
			 M300.2,221.7c6.4,0,11.7,5.2,11.7,11.7c0,6.4-5.2,11.7-11.7,11.7c-6.4,0-11.7-5.2-11.7-11.7C288.5,227,293.8,221.7,300.2,221.7z"
			/>
		<path class="st2" d="M275.6,241.1c0.2,0,0.5,0,0.8,0c2.5,7.6,8.5,13.7,16.1,16.1c0,0.2,0,0.4,0,0.6c0,1.9,0.7,3.7,1.9,5.1
			l-0.1,0.1c1.5,2.3,2.5,5.6,2.4,8.5c-0.1,2.9-1.1,5.3-3.2,9.1l0.1,0c-0.7,1.2-1.1,2.5-1.1,4c0,4.3,3.5,7.7,7.7,7.7
			c4.3,0,7.8-3.5,7.8-7.7c0-1.8-0.7-3.5-1.7-4.9l0.1-0.1c-1.9-2.3-2.7-4.7-2.8-8.2c-0.1-2.7,0.9-6,2.7-8.8l-0.1,0
			c1.1-1.3,1.7-3,1.7-4.9c0-0.2,0-0.4,0-0.6c7.6-2.5,13.6-8.5,16.1-16.1c0.2,0,0.4,0,0.6,0c4.3,0,7.7-3.5,7.7-7.7
			c0-4.3-3.5-7.7-7.7-7.7c-0.2,0-0.4,0-0.6,0c-2.5-7.6-8.5-13.6-16.1-16.1c0-0.2,0-0.4,0-0.5c0-4.3-3.5-7.7-7.8-7.7
			c-4.3,0-7.7,3.5-7.7,7.7c0,0.2,0,0.4,0,0.5c-7.6,2.5-13.6,8.5-16.1,16.1c-0.3,0-0.5,0-0.8,0c-4.3,0-7.7,3.5-7.7,7.7
			C267.8,237.7,271.3,241.1,275.6,241.1z M307.7,284.6c0,4.1-3.4,7.5-7.5,7.5c-4.1,0-7.5-3.4-7.5-7.5s3.4-7.5,7.5-7.5
			C304.3,277.1,307.7,280.5,307.7,284.6z M303.3,271.5c0.1,3.2,0.8,5.4,2.3,7.6c-1.4-1.4-3.3-2.2-5.4-2.2c-2.4,0-4.5,1.1-5.9,2.8
			c1.7-3.2,2.6-5.5,2.7-8.2c0.1-2.7-0.7-5.8-2.1-8.1c1.4,1.3,3.3,2.2,5.4,2.2c2.1,0,4-0.8,5.4-2.2C304,266,303.2,269,303.3,271.5z
			 M275.6,225.9c0.3,0,0.6,0,0.9,0.1l0-0.1l0.1,0c2.4-7.6,8.4-13.6,16.1-16.1l0-0.1l0.1,0c0-0.2,0-0.4,0-0.6c0-4.1,3.4-7.5,7.5-7.5
			c4.1,0,7.5,3.4,7.5,7.5c0,0.2,0,0.4,0,0.6l0.1,0l0,0.1c7.6,2.4,13.6,8.4,16.1,16.1l0.1,0l0,0.1c0.2,0,0.4,0,0.6,0
			c4.1,0,7.5,3.4,7.5,7.5c0,4.1-3.4,7.5-7.5,7.5c-0.2,0-0.5,0-0.6,0l0,0.1l-0.1,0c-2.4,7.6-8.4,13.6-16.1,16.1l0,0.1l-0.1,0
			c0,0.3,0,0.5,0,0.7c0,4.1-3.4,7.5-7.5,7.5c-4.1,0-7.5-3.4-7.5-7.5c0-0.2,0-0.4,0-0.7l-0.1,0l0-0.1c-7.6-2.4-13.6-8.5-16.1-16.1
			l-0.1,0l0-0.1c-0.3,0-0.6,0.1-0.9,0.1c-4.1,0-7.5-3.4-7.5-7.5C268.1,229.3,271.5,225.9,275.6,225.9z"/>
		<path class="st2" d="M277.4,226.1c3.3,0.8,5.7,3.8,5.7,7.3c0,3.4-2.3,6.4-5.7,7.3l0,0.1l-0.1,0c2.4,7.3,8.1,13.1,15.4,15.5l0-0.1
			l0.1,0c0.8-3.4,3.8-5.9,7.3-5.9c3.5,0,6.5,2.5,7.3,5.9l0.1,0l0,0.1c7.3-2.4,13-8.1,15.4-15.4l-0.1,0l0-0.1
			c-3.4-0.7-5.9-3.8-5.9-7.3c0-3.5,2.5-6.6,5.9-7.3l0-0.1l0.1,0c-2.4-7.3-8.1-13-15.4-15.4l0,0.1l-0.1,0c-0.7,3.4-3.8,5.9-7.3,5.9
			c-3.5,0-6.6-2.5-7.3-5.9l-0.1,0l0-0.1c-7.3,2.4-13,8.2-15.4,15.4l0.1,0L277.4,226.1z M292.7,210.8c0.8,3.5,4,6,7.5,6
			c3.6,0,6.7-2.5,7.5-6c7.1,2.4,12.7,8,15,15c-3.5,0.8-5.9,4-5.9,7.5s2.5,6.7,5.9,7.5c-2.4,7.1-8,12.7-15.1,15.1
			c-0.8-3.4-4-5.9-7.5-5.9c-3.5,0-6.7,2.5-7.5,5.9c-7.1-2.4-12.7-8-15.1-15.1c3.4-0.9,5.7-4,5.7-7.5c0-3.5-2.4-6.6-5.7-7.5
			C279.9,218.8,285.6,213.2,292.7,210.8z"/>
		<polygon class="st2" points="300.3,207.8 298.1,210.4 302.5,210.4 		"/>
		<polygon class="st2" points="277.1,231.4 274.5,233.6 277.1,235.7 		"/>
		<polygon class="st2" points="323.1,231.4 323.1,235.7 325.7,233.6 		"/>
		<polygon class="st2" points="300.3,259.2 302.5,256.6 298.1,256.6 		"/>
		<path class="st2" d="M327.9,314.4h-55.5c-1.2,0-2.2,1-2.2,2.2v4.1c0,1.2,1,2.2,2.2,2.2h55.5c1.2,0,2.2-1,2.2-2.2v-4.1
			C330.1,315.4,329.1,314.4,327.9,314.4z M329.9,320.7c0,1.1-0.9,2-2,2h-55.5c-1.1,0-2-0.9-2-2v-4.1c0-1.1,0.9-2,2-2h55.5
			c1.1,0,2,0.9,2,2V320.7z"/>
		<path class="st2" d="M328.6,311.9h-56.8c-2.4,0-4.4,2-4.4,4.4v4.8c0,2.4,2,4.4,4.4,4.4h56.8c2.4,0,4.4-2,4.4-4.4v-4.8
			C332.9,313.9,331,311.9,328.6,311.9z M332.6,321.1c0,2.2-1.8,4-4,4h-56.8c-2.2,0-4-1.8-4-4v-4.8c0-2.2,1.8-4,4-4h56.8
			c2.2,0,4,1.8,4,4V321.1z"/>
		<circle class="st2" cx="367.1" cy="218.6" r="8.3"/>
		<path class="st2" d="M367.1,228.8c5.6,0,10.2-4.6,10.2-10.2s-4.6-10.2-10.2-10.2c-5.6,0-10.2,4.6-10.2,10.2
			S361.4,228.8,367.1,228.8z M367.1,208.8c5.4,0,9.8,4.4,9.8,9.8s-4.4,9.8-9.8,9.8s-9.8-4.4-9.8-9.8S361.7,208.8,367.1,208.8z"/>
		<circle class="st2" cx="397.4" cy="218.6" r="8.3"/>
		<path class="st2" d="M397.4,228.8c5.6,0,10.2-4.6,10.2-10.2c0-5.6-4.6-10.2-10.2-10.2c-5.6,0-10.2,4.6-10.2,10.2
			C387.1,224.2,391.7,228.8,397.4,228.8z M397.4,208.8c5.4,0,9.8,4.4,9.8,9.8s-4.4,9.8-9.8,9.8s-9.8-4.4-9.8-9.8
			S392,208.8,397.4,208.8z"/>
		<path class="st2" d="M362.1,255.9h10.2c1.8,0,3.3-1.5,3.3-3.3v-7.4c0-1.8-1.5-3.3-3.3-3.3h-10.2c-1.8,0-3.3,1.5-3.3,3.3v7.4
			C358.7,254.4,360.2,255.9,362.1,255.9z M359,245.2c0-1.7,1.4-3.1,3.1-3.1h10.2c1.7,0,3.1,1.4,3.1,3.1v7.4c0,1.7-1.4,3.1-3.1,3.1
			h-10.2c-1.7,0-3.1-1.4-3.1-3.1V245.2z"/>
		<path class="st2" d="M360.9,257.6h12.6c2.3,0,4.1-1.9,4.1-4.1v-9.1c0-2.3-1.9-4.1-4.1-4.1h-12.6c-2.3,0-4.1,1.9-4.1,4.1v9.1
			C356.7,255.7,358.6,257.6,360.9,257.6z M357.1,244.3c0-2.1,1.7-3.8,3.8-3.8h12.6c2.1,0,3.8,1.7,3.8,3.8v9.1c0,2.1-1.7,3.8-3.8,3.8
			h-12.6c-2.1,0-3.8-1.7-3.8-3.8V244.3z"/>
		<path class="st2" d="M402.4,241.8h-10.2c-1.8,0-3.3,1.5-3.3,3.3v7.4c0,1.8,1.5,3.3,3.3,3.3h10.2c1.8,0,3.3-1.5,3.3-3.3v-7.4
			C405.7,243.3,404.2,241.8,402.4,241.8z M405.5,252.6c0,1.7-1.4,3.1-3.1,3.1h-10.2c-1.7,0-3.1-1.4-3.1-3.1v-7.4
			c0-1.7,1.4-3.1,3.1-3.1h10.2c1.7,0,3.1,1.4,3.1,3.1V252.6z"/>
		<path class="st2" d="M403.6,240.1H391c-2.3,0-4.1,1.9-4.1,4.1v9.1c0,2.3,1.9,4.1,4.1,4.1h12.6c2.3,0,4.1-1.9,4.1-4.1v-9.1
			C407.7,242,405.9,240.1,403.6,240.1z M407.4,253.4c0,2.1-1.7,3.8-3.8,3.8H391c-2.1,0-3.8-1.7-3.8-3.8v-9.1c0-2.1,1.7-3.8,3.8-3.8
			h12.6c2.1,0,3.8,1.7,3.8,3.8V253.4z"/>
		<path class="st2" d="M362.1,288.7h10.2c1.8,0,3.3-1.5,3.3-3.3v-7.4c0-1.8-1.5-3.3-3.3-3.3h-10.2c-1.8,0-3.3,1.5-3.3,3.3v7.4
			C358.7,287.2,360.2,288.7,362.1,288.7z M359,277.9c0-1.7,1.4-3.1,3.1-3.1h10.2c1.7,0,3.1,1.4,3.1,3.1v7.4c0,1.7-1.4,3.1-3.1,3.1
			h-10.2c-1.7,0-3.1-1.4-3.1-3.1V277.9z"/>
		<path class="st2" d="M360.9,290.3h12.6c2.3,0,4.1-1.9,4.1-4.1V277c0-2.3-1.9-4.1-4.1-4.1h-12.6c-2.3,0-4.1,1.9-4.1,4.1v9.1
			C356.7,288.5,358.6,290.3,360.9,290.3z M357.1,277c0-2.1,1.7-3.8,3.8-3.8h12.6c2.1,0,3.8,1.7,3.8,3.8v9.1c0,2.1-1.7,3.8-3.8,3.8
			h-12.6c-2.1,0-3.8-1.7-3.8-3.8V277z"/>
		<path class="st2" d="M401.8,308.4h-39.8c-1.8,0-3.3,1.5-3.3,3.3v7.4c0,1.8,1.5,3.3,3.3,3.3h39.8c1.8,0,3.3-1.5,3.3-3.3v-7.4
			C405.2,309.9,403.7,308.4,401.8,308.4z M404.9,319.1c0,1.7-1.4,3.1-3.1,3.1h-39.8c-1.7,0-3.1-1.4-3.1-3.1v-7.4
			c0-1.7,1.4-3.1,3.1-3.1h39.8c1.7,0,3.1,1.4,3.1,3.1V319.1z"/>
		<path class="st2" d="M403,306.7h-42.2c-2.3,0-4.1,1.9-4.1,4.1v9.1c0,2.3,1.9,4.1,4.1,4.1H403c2.3,0,4.1-1.9,4.1-4.1v-9.1
			C407.2,308.6,405.3,306.7,403,306.7z M406.8,320c0,2.1-1.7,3.8-3.8,3.8h-42.2c-2.1,0-3.8-1.7-3.8-3.8v-9.1c0-2.1,1.7-3.8,3.8-3.8
			H403c2.1,0,3.8,1.7,3.8,3.8V320z"/>
		<path class="st2" d="M402.4,274.6h-10.2c-1.8,0-3.3,1.5-3.3,3.3v7.4c0,1.8,1.5,3.3,3.3,3.3h10.2c1.8,0,3.3-1.5,3.3-3.3v-7.4
			C405.7,276.1,404.2,274.6,402.4,274.6z M405.5,285.3c0,1.7-1.4,3.1-3.1,3.1h-10.2c-1.7,0-3.1-1.4-3.1-3.1v-7.4
			c0-1.7,1.4-3.1,3.1-3.1h10.2c1.7,0,3.1,1.4,3.1,3.1V285.3z"/>
		<path class="st2" d="M403.6,272.9H391c-2.3,0-4.1,1.9-4.1,4.1v9.1c0,2.3,1.9,4.1,4.1,4.1h12.6c2.3,0,4.1-1.9,4.1-4.1V277
			C407.7,274.8,405.9,272.9,403.6,272.9z M407.4,286.2c0,2.1-1.7,3.8-3.8,3.8H391c-2.1,0-3.8-1.7-3.8-3.8V277c0-2.1,1.7-3.8,3.8-3.8
			h12.6c2.1,0,3.8,1.7,3.8,3.8V286.2z"/>
		<path class="st2" d="M59.1,219.1c-0.6-0.3-1.4-0.2-2.1,0.3c-0.7,0.4-1.3,1.2-1.8,2.1v0c-0.4,0.9-0.6,1.8-0.5,2.7
			c0.1,0.9,0.5,1.5,1.1,1.8c0.2,0.1,0.5,0.2,0.8,0.2c0.4,0,0.9-0.1,1.3-0.4c0.7-0.4,1.3-1.2,1.8-2.1
			C60.7,221.7,60.4,219.7,59.1,219.1z M59.5,223.5c-0.4,0.8-1,1.5-1.7,2c-0.7,0.4-1.3,0.5-1.8,0.2c-0.5-0.2-0.9-0.8-1-1.6
			c-0.1-0.8,0-1.7,0.4-2.5v0c0.4-0.8,1-1.5,1.7-2c0.4-0.3,0.8-0.4,1.2-0.4c0.2,0,0.4,0,0.6,0.1C60.1,219.9,60.4,221.7,59.5,223.5z"
			/>
		<path class="st2" d="M69.9,196.2c0.2,0.1,0.5,0.2,0.8,0.2c0.4,0,0.9-0.1,1.3-0.4c0.7-0.4,1.3-1.2,1.8-2.1c0.4-0.9,0.6-1.8,0.5-2.7
			c-0.1-0.9-0.5-1.5-1.1-1.8c-0.6-0.3-1.4-0.2-2.1,0.3c-0.7,0.4-1.3,1.2-1.8,2.1C68.4,193.6,68.7,195.6,69.9,196.2z M69.5,191.8
			c0.4-0.8,1-1.5,1.7-2c0.7-0.4,1.3-0.5,1.8-0.2c0.5,0.2,0.9,0.8,1,1.6c0.1,0.8,0,1.7-0.4,2.5c-0.4,0.8-1,1.5-1.7,2
			c-0.7,0.4-1.3,0.5-1.8,0.2C68.9,195.4,68.7,193.6,69.5,191.8z"/>
		<path class="st2" d="M50.5,221c0.9,0,1.9-0.4,2.8-1.1c1.6-1.3,2.2-3.2,1.3-4.3c-0.4-0.5-1.1-0.8-2-0.7c-0.8,0.1-1.7,0.5-2.5,1.1
			c-0.8,0.6-1.3,1.4-1.6,2.2c-0.3,0.8-0.2,1.6,0.3,2.1C49.2,220.8,49.8,221,50.5,221z M48.8,218.3c0.2-0.8,0.8-1.5,1.5-2.1
			c0.7-0.6,1.6-1,2.3-1c0.1,0,0.2,0,0.3,0c0.6,0,1.1,0.2,1.4,0.6c0.8,1,0.2,2.7-1.3,3.9c-1.5,1.2-3.3,1.4-4.1,0.5
			C48.7,219.7,48.6,219.1,48.8,218.3z"/>
		<path class="st2" d="M80.2,195c-0.9-1.1-2.9-0.9-4.5,0.4c-1.6,1.3-2.2,3.2-1.3,4.3c0.4,0.5,1,0.7,1.7,0.7c0.9,0,1.9-0.4,2.8-1.1
			C80.4,198,81,196,80.2,195z M74.6,199.5c-0.8-1-0.2-2.7,1.3-3.9c0.9-0.7,1.8-1.1,2.6-1.1c0.6,0,1.1,0.2,1.5,0.6
			c0.8,1,0.2,2.7-1.3,3.9C77.2,200.2,75.4,200.5,74.6,199.5z"/>
		<path class="st2" d="M49.1,213.8c2-0.5,3.4-1.9,3.1-3.3c-0.2-0.7-0.7-1.2-1.5-1.5c-0.8-0.3-1.8-0.3-2.7-0.1
			c-1,0.2-1.8,0.7-2.4,1.3c-0.6,0.6-0.8,1.3-0.7,2c0.2,0.7,0.7,1.2,1.5,1.5c0.4,0.2,0.9,0.2,1.5,0.2C48.3,214,48.7,213.9,49.1,213.8
			z M46.5,213.5c-0.7-0.3-1.2-0.7-1.3-1.3c-0.1-0.6,0.1-1.2,0.6-1.7c0.5-0.6,1.3-1,2.3-1.2c0.4-0.1,0.8-0.1,1.2-0.1
			c0.5,0,1,0.1,1.4,0.2c0.7,0.3,1.2,0.7,1.3,1.3c0.3,1.2-1,2.5-2.9,3C48.1,213.8,47.2,213.8,46.5,213.5z"/>
		<path class="st2" d="M78.4,206.2c0.4,0.2,0.9,0.2,1.5,0.2c0.4,0,0.8,0,1.2-0.1c2-0.5,3.4-1.9,3.1-3.3c-0.2-0.7-0.7-1.2-1.5-1.5
			c-0.8-0.3-1.8-0.3-2.7-0.1c-2,0.5-3.4,1.9-3.1,3.3C77,205.4,77.6,205.9,78.4,206.2z M80,201.7c0.9-0.2,1.8-0.2,2.6,0.1
			c0.7,0.3,1.2,0.7,1.3,1.3c0.3,1.2-1,2.5-2.9,3c-0.9,0.2-1.8,0.2-2.6-0.1c-0.7-0.3-1.2-0.7-1.3-1.3C76.8,203.5,78.1,202.2,80,201.7
			z"/>
		<path class="st2" d="M47.9,206.5c0.4,0.1,0.8,0.1,1.2,0.1c1.5,0,2.8-0.7,3-1.7c0.3-1.3-1.1-2.8-3.1-3.2c-2-0.4-3.9,0.3-4.2,1.6
			S45.9,206,47.9,206.5z M45.1,203.3c0.2-0.9,1.3-1.5,2.7-1.5c0.4,0,0.7,0,1.1,0.1c1.9,0.4,3.2,1.7,2.9,2.9c-0.3,1.2-2,1.8-3.9,1.4
			C46.1,205.8,44.8,204.5,45.1,203.3z"/>
		<path class="st2" d="M77.6,212.4c0.6,0.6,1.4,1.1,2.4,1.3c0.4,0.1,0.8,0.1,1.2,0.1c0.5,0,1.1-0.1,1.5-0.3c0.8-0.3,1.3-0.8,1.5-1.5
			c0.3-1.3-1.1-2.8-3.1-3.2c-1-0.2-1.9-0.2-2.7,0.1c-0.8,0.3-1.3,0.8-1.5,1.5C76.8,211.1,77,211.8,77.6,212.4z M77.2,210.5
			c0.1-0.6,0.6-1,1.3-1.3c0.4-0.2,0.9-0.2,1.4-0.2c0.4,0,0.8,0,1.1,0.1c1.9,0.4,3.2,1.7,2.9,2.9c-0.1,0.6-0.6,1-1.3,1.3
			c-0.7,0.3-1.6,0.3-2.6,0.1c-0.9-0.2-1.7-0.6-2.3-1.2C77.3,211.7,77,211,77.2,210.5z"/>
		<path class="st2" d="M48.7,195.1c-0.4,0.5-0.5,1.3-0.2,2.1c0.3,0.8,0.8,1.6,1.6,2.2c0.8,0.6,1.7,1,2.5,1.1c0.1,0,0.2,0,0.3,0
			c0.7,0,1.3-0.2,1.7-0.7c0.9-1.1,0.2-3-1.4-4.3C51.6,194.2,49.6,194.1,48.7,195.1z M54.4,199.6c-0.4,0.5-1,0.7-1.7,0.6
			c-0.8-0.1-1.6-0.4-2.4-1c-0.7-0.6-1.3-1.3-1.5-2.1c-0.2-0.7-0.2-1.4,0.2-1.8c0.3-0.4,0.9-0.6,1.5-0.6c0.8,0,1.8,0.4,2.6,1
			C54.5,196.9,55.1,198.6,54.4,199.6z"/>
		<path class="st2" d="M80.3,220.2c0.9-1.1,0.2-3-1.4-4.3c-0.8-0.6-1.7-1-2.5-1.1c-0.9-0.1-1.6,0.2-2,0.7c-0.9,1.1-0.2,3,1.4,4.3
			c0.9,0.7,1.9,1.1,2.8,1.1C79.3,220.9,79.9,220.6,80.3,220.2z M74.7,215.7c0.3-0.4,0.8-0.6,1.5-0.6c0.1,0,0.2,0,0.3,0
			c0.8,0.1,1.6,0.4,2.4,1c1.5,1.2,2.1,2.9,1.3,3.9c-0.8,1-2.6,0.8-4.1-0.4C74.5,218.4,73.9,216.7,74.7,215.7z"/>
		<path class="st2" d="M55.7,189.5c-1.2,0.6-1.5,2.6-0.6,4.4c0.4,0.9,1.1,1.6,1.8,2c0.4,0.3,0.9,0.4,1.3,0.4c0.3,0,0.5-0.1,0.8-0.2
			c1.2-0.6,1.5-2.6,0.6-4.4C58.7,189.9,57,188.9,55.7,189.5z M58.9,196c-0.5,0.3-1.2,0.2-1.8-0.2c-0.7-0.4-1.3-1.1-1.7-1.9
			c-0.8-1.7-0.6-3.6,0.5-4.1c0.2-0.1,0.4-0.1,0.7-0.1c1,0,2.2,0.9,2.9,2.3C60.2,193.6,60,195.5,58.9,196z"/>
		<path class="st2" d="M72.5,226c0.3,0,0.5-0.1,0.8-0.2c1.2-0.6,1.5-2.6,0.6-4.4c-0.9-1.9-2.6-2.9-3.9-2.3c-1.2,0.6-1.5,2.6-0.6,4.4
			C70.1,225,71.4,226,72.5,226z M69.7,223.4c-0.8-1.7-0.6-3.6,0.5-4.1c0.2-0.1,0.4-0.1,0.7-0.1c1,0,2.2,0.9,2.9,2.3
			c0.8,1.7,0.6,3.6-0.5,4.1C72.1,226.1,70.5,225.1,69.7,223.4z"/>
		<path class="st2" d="M67,191.2c0-2.1-1.1-3.7-2.5-3.7c-1.4,0-2.5,1.7-2.5,3.7c0,2,1.1,3.7,2.4,3.7c-7,0-12.6,5.7-12.6,12.7
			c0,7,5.7,12.7,12.7,12.7c7,0,12.7-5.7,12.7-12.7c0-7-5.6-12.6-12.6-12.7C65.9,194.9,67,193.3,67,191.2z M76.9,207.6
			c0,6.8-5.6,12.4-12.4,12.4s-12.4-5.6-12.4-12.4c0-6.8,5.6-12.4,12.4-12.4S76.9,200.8,76.9,207.6z M64.5,194.7
			c-1.2,0-2.2-1.6-2.2-3.5c0-1.9,1-3.5,2.2-3.5c1.2,0,2.2,1.6,2.2,3.5C66.7,193.1,65.7,194.7,64.5,194.7z"/>
		<path class="st2" d="M64.5,220.3c-1.4,0-2.5,1.7-2.5,3.7c0,2.1,1.1,3.7,2.5,3.7c1.4,0,2.5-1.7,2.5-3.7
			C67,222,65.9,220.3,64.5,220.3z M64.5,227.5c-1.2,0-2.2-1.6-2.2-3.5c0-1.9,1-3.5,2.2-3.5c1.2,0,2.2,1.6,2.2,3.5
			C66.7,226,65.7,227.5,64.5,227.5z"/>
		<path class="st2" d="M57.5,229c-0.6-0.2-1.4,0-2,0.5c-0.7,0.5-1.2,1.3-1.5,2.3c-0.6,2-0.1,3.9,1.2,4.3c0.2,0.1,0.3,0.1,0.5,0.1
			c1.2,0,2.4-1.2,3-2.9C59.4,231.4,58.8,229.5,57.5,229z M58.5,233.3c-0.6,1.8-2,3-3.2,2.6c-1.2-0.4-1.6-2.2-1-4
			c0.3-0.9,0.8-1.7,1.4-2.1c0.4-0.4,0.9-0.5,1.3-0.5c0.2,0,0.3,0,0.5,0.1C58.6,229.7,59.1,231.4,58.5,233.3z"/>
		<path class="st2" d="M71.5,186.2c0.2,0.1,0.3,0.1,0.5,0.1c1.2,0,2.4-1.2,3-2.9c0.6-2,0.1-3.9-1.2-4.3c-0.6-0.2-1.4,0-2,0.5
			c-0.7,0.5-1.2,1.3-1.5,2.3C69.6,183.8,70.2,185.8,71.5,186.2z M70.5,182c0.3-0.9,0.8-1.7,1.4-2.1c0.6-0.5,1.2-0.6,1.8-0.5
			c1.2,0.4,1.6,2.2,1,4c-0.6,1.8-2,3-3.2,2.6C70.4,185.6,69.9,183.8,70.5,182z"/>
		<path class="st2" d="M51.3,225.8c-1.1-0.8-3-0.1-4.2,1.6c-0.6,0.8-0.9,1.7-1,2.5c0,0.9,0.2,1.5,0.8,1.9c0.3,0.2,0.7,0.3,1.1,0.3
			c1,0,2.2-0.7,3.1-1.9C52.3,228.6,52.4,226.6,51.3,225.8z M50.9,230.2c-1.1,1.5-2.8,2.2-3.8,1.5c-0.5-0.3-0.7-1-0.7-1.7
			c0-0.8,0.4-1.6,0.9-2.4c1.1-1.5,2.8-2.2,3.8-1.5C52.1,226.8,52,228.6,50.9,230.2z"/>
		<path class="st2" d="M77.7,189.4c0.3,0.2,0.7,0.3,1.1,0.3c0.3,0,0.6-0.1,1-0.2c0.8-0.3,1.5-0.9,2.1-1.7c0.6-0.8,0.9-1.7,1-2.5
			c0-0.9-0.2-1.5-0.8-1.9c-1.1-0.8-3-0.1-4.2,1.6v0C76.7,186.6,76.6,188.6,77.7,189.4z M78.1,185.1L78.1,185.1
			c1.1-1.5,2.8-2.2,3.8-1.5c0.5,0.3,0.7,1,0.7,1.7c0,0.8-0.4,1.6-0.9,2.4c-0.6,0.8-1.3,1.3-2,1.6c-0.7,0.3-1.4,0.2-1.8-0.1
			C76.9,188.5,77,186.6,78.1,185.1z"/>
		<path class="st2" d="M42,226c0.8,0,1.8-0.3,2.7-1c0.8-0.6,1.4-1.3,1.7-2.1c0.3-0.8,0.3-1.5-0.1-2.1c-0.4-0.5-1.1-0.8-1.9-0.8
			c-0.8,0-1.7,0.4-2.5,1c-1.7,1.2-2.4,3.1-1.6,4.2C40.6,225.8,41.3,226,42,226z M42,221.2c0.8-0.6,1.6-0.9,2.4-0.9
			c0.1,0,0.1,0,0.2,0c0.7,0,1.2,0.2,1.6,0.7c0.3,0.5,0.4,1.1,0.1,1.8c-0.3,0.7-0.9,1.4-1.6,2c-1.5,1.1-3.4,1.2-4.1,0.2
			C39.7,224.1,40.4,222.4,42,221.2z"/>
		<path class="st2" d="M87.2,194.2c1.7-1.2,2.4-3.1,1.6-4.2c-0.4-0.5-1.1-0.8-1.9-0.8c-0.8,0-1.7,0.4-2.5,1
			c-0.8,0.6-1.4,1.3-1.7,2.1c-0.3,0.8-0.3,1.5,0.1,2.1c0.4,0.5,1,0.8,1.8,0.8C85.3,195.2,86.3,194.8,87.2,194.2z M82.9,194.2
			c-0.3-0.5-0.4-1.1-0.1-1.8c0.3-0.7,0.9-1.4,1.6-2h0c0.8-0.6,1.6-0.9,2.4-0.9c0.1,0,0.1,0,0.2,0c0.7,0,1.2,0.2,1.6,0.7
			c0.7,1,0,2.7-1.5,3.8C85.5,195.1,83.7,195.2,82.9,194.2z"/>
		<path class="st2" d="M38.7,218.4c0.5,0,1.1-0.1,1.6-0.3c2-0.6,3.2-2.2,2.8-3.5c-0.2-0.6-0.8-1.1-1.6-1.3c-0.8-0.2-1.8-0.2-2.7,0.1
			c-0.9,0.3-1.7,0.8-2.3,1.5c-0.5,0.7-0.7,1.4-0.5,2C36.3,217.8,37.4,218.4,38.7,218.4z M36.7,215c0.5-0.6,1.3-1.1,2.1-1.4
			c0.5-0.2,1.1-0.3,1.6-0.3c0.4,0,0.7,0,1,0.1c0.7,0.2,1.2,0.6,1.4,1.2c0.4,1.2-0.8,2.6-2.6,3.2c-1.8,0.6-3.6,0.1-4-1
			C36,216.2,36.2,215.6,36.7,215z"/>
		<path class="st2" d="M88.7,197.1c-2,0.6-3.2,2.2-2.8,3.5c0.3,0.9,1.4,1.5,2.7,1.5c0.5,0,1.1-0.1,1.6-0.3c0.9-0.3,1.7-0.8,2.3-1.5
			c0.5-0.7,0.7-1.4,0.5-2C92.6,197,90.7,196.5,88.7,197.1z M92.3,200.2c-0.5,0.6-1.3,1.1-2.1,1.4c-1.8,0.6-3.6,0.1-4-1
			c-0.4-1.2,0.8-2.6,2.6-3.2c1.8-0.6,3.6-0.1,4,1C92.9,199,92.8,199.6,92.3,200.2z"/>
		<path class="st2" d="M34.5,207.6c0,1.4,1.7,2.5,3.7,2.5s3.7-1.1,3.7-2.5s-1.7-2.5-3.7-2.5S34.5,206.2,34.5,207.6z M38.2,205.4
			c1.9,0,3.5,1,3.5,2.2s-1.6,2.2-3.5,2.2s-3.5-1-3.5-2.2S36.3,205.4,38.2,205.4z"/>
		<path class="st2" d="M94.5,207.6c0-1.4-1.7-2.5-3.7-2.5c-2.1,0-3.7,1.1-3.7,2.5s1.7,2.5,3.7,2.5C92.8,210.1,94.5,209,94.5,207.6z
			 M90.8,209.8c-1.9,0-3.5-1-3.5-2.2s1.6-2.2,3.5-2.2s3.5,1,3.5,2.2S92.7,209.8,90.8,209.8z"/>
		<path class="st2" d="M38.8,201.9c0.6,0.2,1.1,0.3,1.6,0.3c1.3,0,2.4-0.5,2.7-1.5c0.4-1.3-0.8-2.9-2.8-3.5c-2-0.6-3.9-0.1-4.3,1.2
			c-0.2,0.6,0,1.4,0.5,2C37,201,37.8,201.6,38.8,201.9z M36.2,198.4c0.3-0.8,1.2-1.3,2.4-1.3c0.5,0,1,0.1,1.6,0.3
			c1.8,0.6,3,2,2.6,3.2c-0.4,1.2-2.2,1.6-4,1c-0.9-0.3-1.7-0.8-2.1-1.4C36.2,199.6,36,199,36.2,198.4z"/>
		<path class="st2" d="M90.2,213.4c-0.9-0.3-1.9-0.4-2.7-0.1c-0.8,0.2-1.4,0.7-1.6,1.3c-0.4,1.3,0.8,2.9,2.8,3.5
			c0.6,0.2,1.1,0.3,1.6,0.3c1.3,0,2.4-0.5,2.7-1.5c0.2-0.6,0-1.4-0.5-2C92,214.2,91.2,213.7,90.2,213.4z M92.8,216.8
			c-0.4,1.2-2.2,1.6-4,1c-1.8-0.6-3-2-2.6-3.2c0.2-0.6,0.7-1,1.4-1.2c0.3-0.1,0.7-0.1,1-0.1c0.5,0,1,0.1,1.6,0.3
			c0.9,0.3,1.7,0.8,2.1,1.4C92.8,215.6,92.9,216.2,92.8,216.8z"/>
		<path class="st2" d="M42.2,189.2c-0.9,0-1.5,0.2-1.9,0.8c-0.8,1.1-0.1,3,1.6,4.2c0.9,0.6,1.9,1,2.7,1c0.8,0,1.4-0.3,1.8-0.8
			c0.4-0.5,0.4-1.3,0.1-2.1c-0.3-0.8-0.9-1.5-1.7-2.1h0C43.9,189.6,43,189.2,42.2,189.2z M46.2,192.4c0.3,0.7,0.2,1.4-0.1,1.8
			c-0.7,1-2.6,0.9-4.1-0.2c-1.5-1.1-2.2-2.9-1.5-3.8c0.3-0.4,0.9-0.7,1.6-0.7c0.1,0,0.1,0,0.2,0c0.8,0,1.6,0.4,2.4,0.9h0
			C45.3,190.9,45.9,191.6,46.2,192.4z"/>
		<path class="st2" d="M88.8,225.2c0.8-1.1,0.1-3-1.6-4.2c-0.8-0.6-1.7-0.9-2.5-1c-0.9-0.1-1.5,0.2-1.9,0.8
			c-0.4,0.5-0.4,1.3-0.1,2.1c0.3,0.8,0.9,1.5,1.7,2.1c0.9,0.6,1.9,1,2.7,1C87.7,226,88.4,225.8,88.8,225.2z M84.4,224.8
			c-0.8-0.6-1.3-1.3-1.6-2c-0.3-0.7-0.2-1.4,0.1-1.8c0.3-0.4,0.9-0.7,1.6-0.7c0.1,0,0.1,0,0.2,0c0.8,0,1.6,0.4,2.4,0.9
			c1.5,1.1,2.2,2.8,1.5,3.8C87.8,226.1,86,226,84.4,224.8z"/>
		<path class="st2" d="M46.9,183.4c-0.5,0.4-0.8,1.1-0.8,1.9c0,0.8,0.4,1.7,1,2.5c0.6,0.8,1.3,1.4,2.1,1.7c0.3,0.1,0.7,0.2,1,0.2
			c0.4,0,0.8-0.1,1.1-0.3c1.1-0.8,1-2.8-0.2-4.5v0C49.9,183.2,48,182.5,46.9,183.4z M50.9,185.1c1.1,1.5,1.2,3.4,0.2,4.1
			c-0.5,0.3-1.1,0.4-1.8,0.1c-0.7-0.3-1.4-0.9-2-1.6c-0.6-0.8-0.9-1.6-0.9-2.4c0-0.8,0.2-1.4,0.7-1.7c0.3-0.2,0.6-0.3,0.9-0.3
			C48.9,183.3,50.1,183.9,50.9,185.1z"/>
		<path class="st2" d="M81,232.2c0.4,0,0.8-0.1,1.1-0.3c0.5-0.4,0.8-1.1,0.8-1.9c0-0.8-0.4-1.7-1-2.5c-1.2-1.7-3.1-2.4-4.2-1.6
			c-1.1,0.8-1,2.8,0.2,4.5C78.8,231.5,80,232.2,81,232.2z M78.1,230.2c-1.1-1.5-1.2-3.4-0.2-4.1c0.3-0.2,0.6-0.3,0.9-0.3
			c0.9,0,2.1,0.7,2.9,1.8c0.6,0.8,0.9,1.6,0.9,2.4c0,0.8-0.2,1.4-0.7,1.7C81,232.4,79.3,231.7,78.1,230.2z"/>
		<path class="st2" d="M57.3,179.6c-0.7-0.5-1.4-0.7-2-0.5c-0.6,0.2-1.1,0.8-1.3,1.6c-0.2,0.8-0.2,1.8,0.1,2.7
			c0.3,0.9,0.8,1.7,1.5,2.3c0.5,0.4,1,0.6,1.5,0.6c0.2,0,0.4,0,0.5-0.1c1.3-0.4,1.8-2.4,1.2-4.3C58.4,180.9,57.9,180.1,57.3,179.6z
			 M57.5,185.9c-0.6,0.2-1.2,0-1.8-0.5c-0.6-0.5-1.1-1.3-1.4-2.1c-0.3-0.9-0.3-1.8-0.1-2.6c0.2-0.7,0.6-1.2,1.2-1.4
			c0.1,0,0.3-0.1,0.5-0.1c0.4,0,0.9,0.2,1.3,0.5c0.6,0.5,1.1,1.3,1.4,2.1C59.1,183.8,58.6,185.6,57.5,185.9z"/>
		<path class="st2" d="M73.2,236.2c0.2,0,0.4,0,0.5-0.1c1.3-0.4,1.8-2.4,1.2-4.3c-0.6-2-2.2-3.2-3.5-2.8c-1.3,0.4-1.8,2.4-1.2,4.3
			C70.8,235.1,72.1,236.2,73.2,236.2z M70.5,233.3c-0.6-1.8-0.1-3.6,1-4c0.1,0,0.3-0.1,0.5-0.1c1.1,0,2.2,1.1,2.7,2.7
			c0.6,1.8,0.1,3.6-1,4C72.5,236.3,71.1,235.1,70.5,233.3z"/>
		<path class="st2" d="M64.5,185.1c1.4,0,2.5-1.7,2.5-3.7s-1.1-3.7-2.5-3.7s-2.5,1.7-2.5,3.7S63.1,185.1,64.5,185.1z M64.5,177.9
			c1.2,0,2.2,1.6,2.2,3.5s-1,3.5-2.2,3.5s-2.2-1.6-2.2-3.5S63.3,177.9,64.5,177.9z"/>
		<path class="st2" d="M64.5,230.1c-1.4,0-2.5,1.7-2.5,3.7c0,2.1,1.1,3.7,2.5,3.7s2.5-1.7,2.5-3.7C67,231.8,65.9,230.1,64.5,230.1z
			 M64.5,237.3c-1.2,0-2.2-1.6-2.2-3.5s1-3.5,2.2-3.5s2.2,1.6,2.2,3.5S65.7,237.3,64.5,237.3z"/>
		<path class="st2" d="M56.5,238.9c-1.3-0.3-2.8,1-3.3,3c-0.2,1-0.2,1.9,0,2.7c0.3,0.8,0.8,1.4,1.4,1.5c0.1,0,0.3,0.1,0.4,0.1
			c0.5,0,1.1-0.2,1.6-0.7c0.6-0.6,1.1-1.4,1.3-2.4C58.5,241.2,57.8,239.3,56.5,238.9z M57.7,243.1c-0.2,0.9-0.7,1.7-1.3,2.2
			c-0.6,0.5-1.2,0.7-1.8,0.6c-0.6-0.1-1-0.6-1.3-1.4c-0.3-0.7-0.3-1.7,0-2.6c0.4-1.7,1.6-2.9,2.7-2.9c0.1,0,0.2,0,0.4,0
			C57.6,239.5,58.2,241.3,57.7,243.1z"/>
		<path class="st2" d="M72.5,176.3c0.1,0,0.3,0.1,0.4,0.1c0.5,0,1.1-0.2,1.6-0.7c0.6-0.6,1.1-1.4,1.3-2.4c0.5-2-0.2-3.9-1.5-4.2
			c-0.7-0.2-1.4,0.1-2,0.6c-0.6,0.6-1.1,1.4-1.3,2.4c-0.2,1-0.2,1.9,0,2.7C71.4,175.6,71.9,176.1,72.5,176.3z M71.3,172.1
			c0.2-0.9,0.7-1.7,1.3-2.2c0.4-0.4,0.9-0.6,1.4-0.6c0.1,0,0.2,0,0.4,0c1.2,0.3,1.8,2.1,1.3,3.9c-0.2,0.9-0.7,1.7-1.3,2.2
			c-0.6,0.5-1.2,0.7-1.8,0.6c-0.6-0.1-1-0.6-1.3-1.4C71.1,173.9,71.1,173,71.3,172.1z"/>
		<path class="st2" d="M49.2,236.1c-0.6-0.3-1.3-0.3-2.1,0.1c-0.7,0.4-1.4,1.1-1.9,2c-0.5,0.9-0.7,1.8-0.6,2.6
			c0.1,0.9,0.4,1.5,1,1.8c0.3,0.1,0.5,0.2,0.8,0.2c1.1,0,2.4-0.9,3.1-2.3C50.6,238.8,50.4,236.8,49.2,236.1z M49.4,240.5
			c-0.9,1.7-2.5,2.6-3.6,2c-0.5-0.3-0.8-0.8-0.9-1.6c-0.1-0.8,0.1-1.7,0.6-2.5v0c0.4-0.8,1.1-1.5,1.8-1.9c0.4-0.2,0.8-0.3,1.1-0.3
			c0.3,0,0.5,0.1,0.7,0.2C50.2,236.9,50.3,238.8,49.4,240.5z"/>
		<path class="st2" d="M79.8,179.1c0.3,0.1,0.5,0.2,0.8,0.2c0.4,0,0.8-0.1,1.2-0.3c0.7-0.4,1.4-1.1,1.9-2c1-1.8,0.8-3.8-0.4-4.5
			c-1.2-0.6-3,0.3-4,2.1C78.4,176.5,78.6,178.5,79.8,179.1z M79.6,174.8c0.9-1.7,2.5-2.6,3.6-2c1.1,0.6,1.2,2.4,0.3,4.1
			c-0.4,0.8-1.1,1.5-1.8,1.9c-0.7,0.4-1.3,0.4-1.8,0.1C78.8,178.3,78.7,176.5,79.6,174.8z"/>
		<path class="st2" d="M40.8,231.3c-0.8,0.2-1.6,0.7-2.3,1.5c-1.4,1.5-1.7,3.5-0.6,4.4c0.3,0.3,0.8,0.5,1.3,0.5c1,0,2.1-0.6,3-1.6
			c0.7-0.7,1.1-1.6,1.2-2.4c0.1-0.8-0.1-1.6-0.6-2C42.4,231.2,41.6,231.1,40.8,231.3z M43.2,233.6c-0.1,0.8-0.5,1.6-1.2,2.3
			c-1.3,1.4-3.1,1.9-4,1.1c-0.9-0.8-0.6-2.6,0.7-4.1c0.6-0.7,1.4-1.2,2.2-1.4c0.7-0.2,1.4-0.1,1.8,0.3
			C43.1,232.2,43.3,232.9,43.2,233.6z"/>
		<path class="st2" d="M87.4,184c1,0,2.1-0.6,3-1.6c1.4-1.5,1.7-3.5,0.6-4.4c-1-0.9-3-0.4-4.3,1.1c-0.7,0.7-1.1,1.6-1.2,2.4
			c-0.1,0.8,0.1,1.6,0.6,2C86.5,183.9,86.9,184,87.4,184z M85.8,181.6c0.1-0.8,0.5-1.6,1.2-2.3c1.3-1.4,3.1-1.9,4-1.1
			c0.9,0.8,0.6,2.6-0.7,4.1c-1.3,1.4-3.1,1.9-4,1.1C85.9,183,85.7,182.4,85.8,181.6z"/>
		<path class="st2" d="M37.7,225.8c-0.4-0.6-1.1-0.9-1.9-0.8c-0.8,0-1.8,0.3-2.6,0.9c-0.8,0.6-1.4,1.3-1.8,2.1
			c-0.3,0.8-0.3,1.5,0.1,2.1c0.4,0.5,1,0.8,1.9,0.8c0,0,0,0,0.1,0c0.8,0,1.8-0.3,2.6-0.9c0.8-0.6,1.4-1.3,1.8-2.1
			C38.2,227.1,38.1,226.4,37.7,225.8z M37.6,227.8c-0.3,0.7-0.9,1.4-1.7,1.9c-0.8,0.5-1.6,0.8-2.4,0.8c0,0,0,0-0.1,0
			c-0.7,0-1.3-0.3-1.6-0.7c-0.3-0.5-0.3-1.1-0.1-1.8c0.3-0.7,0.9-1.4,1.7-1.9s1.6-0.8,2.4-0.8c0,0,0,0,0.1,0c0.7,0,1.3,0.3,1.6,0.7
			C37.9,226.4,37.9,227.1,37.6,227.8z"/>
		<path class="st2" d="M91.2,187.3c-0.3,0.8-0.3,1.5,0.1,2.1c0.4,0.5,1,0.8,1.9,0.8c0,0,0,0,0.1,0c0.8,0,1.8-0.3,2.6-0.9
			s1.4-1.3,1.8-2.1c0.3-0.8,0.3-1.5-0.1-2.1c-0.4-0.6-1.1-0.9-1.9-0.8c-0.8,0-1.8,0.3-2.6,0.9C92.1,185.8,91.5,186.6,91.2,187.3z
			 M95.5,184.7c0.8,0,1.4,0.2,1.7,0.7c0.3,0.5,0.3,1.1,0.1,1.8c-0.3,0.7-0.9,1.4-1.7,1.9c-0.8,0.5-1.6,0.8-2.4,0.8c0,0,0,0-0.1,0
			c-0.7,0-1.3-0.3-1.6-0.7c-0.3-0.5-0.3-1.1-0.1-1.8c0.3-0.7,0.9-1.4,1.7-1.9C93.9,185,94.7,184.7,95.5,184.7z"/>
		<path class="st2" d="M33.8,220.9c0.5-0.7,0.7-1.4,0.4-2.1c-0.5-1.3-2.4-1.7-4.4-1s-3.1,2.3-2.6,3.6c0.2,0.6,0.8,1.1,1.7,1.3
			c0.3,0.1,0.6,0.1,0.9,0.1c0.6,0,1.2-0.1,1.8-0.3C32.5,222.2,33.3,221.6,33.8,220.9z M28.9,222.5c-0.7-0.2-1.3-0.6-1.5-1.1
			c-0.4-1.2,0.7-2.6,2.5-3.3c1.8-0.7,3.6-0.3,4,0.9c0.2,0.5,0.1,1.2-0.4,1.8c-0.5,0.6-1.2,1.2-2.1,1.5
			C30.6,222.6,29.7,222.7,28.9,222.5z"/>
		<path class="st2" d="M94.8,196.3c0.2,0.6,0.8,1.1,1.7,1.3c0.3,0.1,0.6,0.1,0.9,0.1c0.6,0,1.2-0.1,1.8-0.3c0.9-0.3,1.7-0.9,2.2-1.6
			c0.5-0.7,0.7-1.4,0.4-2.1c-0.5-1.3-2.4-1.8-4.4-1C95.5,193.4,94.3,195.1,94.8,196.3z M101.6,193.8c0.2,0.5,0.1,1.2-0.4,1.8
			c-0.5,0.6-1.2,1.2-2.1,1.5s-1.8,0.4-2.6,0.2c-0.7-0.2-1.3-0.6-1.5-1.1c-0.4-1.2,0.7-2.6,2.5-3.3
			C99.3,192.3,101.1,192.7,101.6,193.8z"/>
		<path class="st2" d="M28.9,214.2c2-0.2,3.6-1.5,3.4-2.9c-0.2-1.4-2-2.3-4-2c-2,0.2-3.6,1.5-3.4,2.9c0.1,1.2,1.6,2.1,3.4,2.1
			C28.5,214.3,28.7,214.3,28.9,214.2z M25.2,212.2c-0.1-1.2,1.3-2.4,3.2-2.6c1.9-0.2,3.6,0.6,3.7,1.8c0.1,1.2-1.3,2.4-3.2,2.6
			C27,214.2,25.4,213.4,25.2,212.2z"/>
		<path class="st2" d="M100.1,201c-1,0.1-1.9,0.5-2.5,1c-0.7,0.5-1,1.2-0.9,1.9c0.1,0.7,0.5,1.3,1.3,1.6c0.6,0.3,1.3,0.4,2,0.4
			c0.2,0,0.4,0,0.7,0c1-0.1,1.9-0.5,2.5-1c0.7-0.5,1-1.2,0.9-1.9c-0.1-0.7-0.5-1.3-1.3-1.6C102,201,101,200.9,100.1,201z
			 M103.8,203.1c0.1,0.6-0.2,1.2-0.8,1.7c-0.6,0.5-1.5,0.8-2.4,0.9c-0.9,0.1-1.8,0-2.5-0.4c-0.7-0.3-1.1-0.9-1.2-1.4
			c-0.1-0.6,0.2-1.2,0.8-1.7c0.6-0.5,1.5-0.8,2.4-0.9c0.9-0.1,1.8,0,2.5,0.4C103.3,202,103.7,202.5,103.8,203.1z"/>
		<path class="st2" d="M28.4,205.6c0.2,0,0.5,0,0.7,0c0.7,0,1.4-0.1,2-0.4c0.8-0.4,1.2-1,1.3-1.6c0.2-1.4-1.3-2.7-3.4-2.9
			c-2-0.3-3.8,0.6-4,2C24.8,204,26.3,205.3,28.4,205.6z M28.3,200.8c0.2,0,0.4,0,0.7,0c1.9,0.2,3.3,1.4,3.2,2.6
			c-0.1,0.6-0.5,1.1-1.2,1.4c-0.7,0.3-1.6,0.5-2.5,0.4c-1.9-0.2-3.3-1.4-3.2-2.6C25.4,201.6,26.7,200.8,28.3,200.8z"/>
		<path class="st2" d="M100.6,209.7c-1-0.1-1.9,0-2.7,0.4c-0.8,0.4-1.2,1-1.3,1.6c-0.1,0.7,0.2,1.3,0.9,1.9c0.6,0.5,1.5,0.9,2.5,1
			c0.2,0,0.5,0,0.7,0c0.7,0,1.4-0.1,2-0.4c0.8-0.4,1.2-1,1.3-1.6c0.1-0.7-0.2-1.3-0.9-1.9C102.5,210.2,101.6,209.8,100.6,209.7z
			 M102.6,214c-0.7,0.3-1.6,0.5-2.5,0.4c-0.9-0.1-1.8-0.5-2.4-1c-0.6-0.5-0.9-1.1-0.8-1.7c0.1-0.6,0.5-1.1,1.2-1.4
			c0.5-0.3,1.2-0.4,1.9-0.4c0.2,0,0.4,0,0.7,0c0.9,0.1,1.8,0.5,2.4,1c0.6,0.5,0.9,1.1,0.8,1.7C103.7,213.2,103.2,213.7,102.6,214z"
			/>
		<path class="st2" d="M29.9,197c0.6,0.2,1.3,0.4,1.9,0.4c1.2,0,2.2-0.5,2.5-1.3c0.2-0.6,0.1-1.4-0.4-2.1c-0.5-0.7-1.3-1.2-2.2-1.6
			c-1.9-0.7-3.9-0.3-4.4,1C26.8,194.6,28,196.3,29.9,197z M27.6,193.4c0.3-0.8,1.2-1.2,2.3-1.2c0.6,0,1.2,0.1,1.8,0.3
			c0.9,0.3,1.6,0.9,2.1,1.5c0.4,0.6,0.6,1.3,0.4,1.8c-0.4,1.1-2.3,1.5-4,0.8C28.2,196.1,27.1,194.6,27.6,193.4z"/>
		<path class="st2" d="M99.1,218.2c-0.9-0.4-1.9-0.5-2.7-0.3c-0.8,0.2-1.4,0.6-1.7,1.3c-0.5,1.3,0.7,2.9,2.6,3.7
			c0.6,0.2,1.3,0.4,1.9,0.4c0.3,0,0.6,0,0.8-0.1c0.8-0.2,1.4-0.6,1.7-1.3C102.2,220.6,101,219,99.1,218.2z M101.4,221.8
			c-0.2,0.5-0.7,0.9-1.5,1.1c-0.8,0.2-1.7,0.1-2.6-0.3c-1.8-0.7-2.9-2.2-2.4-3.3c0.2-0.5,0.7-0.9,1.5-1.1c0.2-0.1,0.5-0.1,0.8-0.1
			c0.6,0,1.2,0.1,1.8,0.3C100.8,219.2,101.9,220.6,101.4,221.8z"/>
		<path class="st2" d="M33.5,189.1c0.8,0.6,1.7,0.9,2.6,0.9c0,0,0.1,0,0.1,0c0.8,0,1.5-0.3,1.8-0.8c0.4-0.6,0.4-1.3,0.1-2.1
			c-0.3-0.8-0.9-1.5-1.7-2.1c-0.8-0.6-1.7-0.9-2.6-0.9c-0.9,0-1.5,0.3-1.9,0.8c-0.4,0.6-0.4,1.3-0.1,2.1
			C32,187.8,32.6,188.5,33.5,189.1z M32,185c0.3-0.5,0.9-0.7,1.6-0.7c0,0,0.1,0,0.1,0c0.8,0,1.6,0.3,2.4,0.9c0.8,0.5,1.4,1.2,1.7,2
			c0.3,0.7,0.3,1.4-0.1,1.8c-0.3,0.5-0.9,0.7-1.7,0.7c-0.8,0-1.6-0.3-2.4-0.9c-0.8-0.5-1.4-1.2-1.7-2C31.7,186.2,31.7,185.5,32,185z
			"/>
		<path class="st2" d="M95.5,226.2c-0.8-0.6-1.7-0.9-2.6-0.9c0,0-0.1,0-0.1,0c-0.8,0-1.5,0.3-1.8,0.8c-0.8,1.1,0,3,1.6,4.2
			c0.8,0.6,1.7,0.9,2.6,0.9c0,0,0.1,0,0.1,0c0.8,0,1.5-0.3,1.8-0.8c0.4-0.6,0.4-1.3,0.1-2.1C97,227.5,96.4,226.7,95.5,226.2z
			 M97,230.2c-0.3,0.5-1,0.7-1.7,0.7c-0.8,0-1.6-0.3-2.4-0.9c-1.6-1.1-2.3-2.8-1.6-3.8c0.3-0.5,0.9-0.7,1.6-0.7c0,0,0.1,0,0.1,0
			c0.8,0,1.6,0.3,2.4,0.9c0.8,0.5,1.4,1.2,1.7,2C97.3,229.1,97.3,229.7,97,230.2z"/>
		<path class="st2" d="M38.8,182.2c0.7,0.7,1.5,1.3,2.3,1.5c0.3,0.1,0.5,0.1,0.8,0.1c0.5,0,0.9-0.2,1.3-0.5c1-0.9,0.8-2.9-0.6-4.4
			c-1.4-1.5-3.3-2.1-4.3-1.2c-0.5,0.4-0.7,1.2-0.6,2C37.7,180.6,38.1,181.5,38.8,182.2z M38.3,177.9c0.3-0.3,0.7-0.4,1.1-0.4
			c0.9,0,2,0.5,2.9,1.5c1.3,1.4,1.5,3.3,0.6,4.1c-0.4,0.4-1.1,0.5-1.8,0.3c-0.8-0.2-1.5-0.7-2.1-1.4c-0.6-0.7-1-1.5-1.1-2.3
			C37.7,179,37.9,178.3,38.3,177.9z"/>
		<path class="st2" d="M88,231.5c-0.8-0.2-1.6-0.1-2.1,0.3c-0.5,0.4-0.7,1.2-0.6,2c0.1,0.8,0.5,1.7,1.2,2.4c0.9,1,2.1,1.6,3.1,1.6
			c0.5,0,0.9-0.1,1.3-0.4c1-0.9,0.8-2.9-0.6-4.4C89.6,232.3,88.8,231.8,88,231.5z M90.7,237.3c-0.9,0.8-2.7,0.3-4-1.1
			c-0.6-0.7-1-1.5-1.1-2.3c-0.1-0.8,0.1-1.4,0.5-1.8c0.3-0.3,0.7-0.4,1.1-0.4c0.2,0,0.5,0,0.7,0.1c0.8,0.2,1.5,0.7,2.1,1.4
			C91.3,234.6,91.6,236.5,90.7,237.3z"/>
		<path class="st2" d="M48.7,179.1c0.3,0,0.6-0.1,0.8-0.2c0.6-0.3,1-1,1.1-1.8c0.1-0.8-0.1-1.8-0.6-2.7c-1-1.8-2.7-2.8-3.9-2.2
			c-1.2,0.6-1.4,2.6-0.5,4.5C46.3,178.2,47.6,179.1,48.7,179.1z M46.2,172.6c0.2-0.1,0.5-0.2,0.7-0.2c1,0,2.2,0.9,2.9,2.2
			c0.4,0.8,0.6,1.7,0.6,2.5c-0.1,0.8-0.4,1.3-0.9,1.6c-1.1,0.6-2.7-0.3-3.6-2C44.9,175,45.1,173.1,46.2,172.6z"/>
		<path class="st2" d="M81.6,236.4c-0.7-0.4-1.5-0.5-2.1-0.2c-1.2,0.6-1.4,2.6-0.5,4.5c0.8,1.4,2,2.4,3.1,2.4c0.3,0,0.6-0.1,0.8-0.2
			c1.2-0.6,1.4-2.6,0.5-4.5C83,237.6,82.3,236.9,81.6,236.4z M82.8,242.7c-1.1,0.6-2.7-0.3-3.6-2c-0.9-1.7-0.7-3.5,0.4-4.1
			c0.2-0.1,0.5-0.2,0.7-0.2c0.4,0,0.7,0.1,1.1,0.3c0.7,0.4,1.3,1.1,1.7,1.9C84.1,240.3,83.9,242.1,82.8,242.7z"/>
		<path class="st2" d="M56.4,176.3c0.1,0,0.3,0,0.4,0c0.7-0.2,1.2-0.7,1.5-1.5c0.3-0.8,0.3-1.8,0.1-2.7c-0.2-1-0.7-1.8-1.3-2.4
			c-0.6-0.6-1.3-0.8-2-0.7c-1.3,0.3-2,2.2-1.5,4.2C53.9,175,55.2,176.3,56.4,176.3z M55.1,169.2c0.1,0,0.2,0,0.3,0
			c0.5,0,1,0.2,1.4,0.6c0.6,0.5,1,1.3,1.2,2.2c0.2,0.9,0.2,1.8-0.1,2.6c-0.3,0.7-0.7,1.2-1.3,1.3c-1.2,0.3-2.5-1-3-2.8
			C53.3,171.2,53.9,169.5,55.1,169.2z"/>
		<path class="st2" d="M72.2,239c-1.3,0.3-2,2.2-1.5,4.2c0.2,1,0.7,1.8,1.3,2.4c0.5,0.5,1,0.7,1.6,0.7c0.1,0,0.3,0,0.4-0.1
			c1.3-0.3,2-2.2,1.5-4.2C75,240.1,73.5,238.7,72.2,239z M73.9,246c-0.6,0.1-1.2-0.1-1.8-0.6c-0.6-0.5-1-1.3-1.2-2.2
			c-0.5-1.9,0.1-3.6,1.3-3.9c0.1,0,0.2,0,0.3,0c1.1,0,2.2,1.2,2.6,2.9C75.7,244,75.1,245.7,73.9,246z"/>
		<path class="st2" d="M64.5,175.3c1.4,0,2.5-1.7,2.5-3.7s-1.1-3.7-2.5-3.7s-2.5,1.7-2.5,3.7S63.1,175.3,64.5,175.3z M64.5,168.1
			c1.2,0,2.2,1.6,2.2,3.5s-1,3.5-2.2,3.5s-2.2-1.6-2.2-3.5S63.3,168.1,64.5,168.1z"/>
		<path class="st2" d="M64.5,240c-1.4,0-2.5,1.7-2.5,3.7c0,2.1,1.1,3.7,2.5,3.7s2.5-1.7,2.5-3.7C67,241.6,65.9,240,64.5,240z
			 M64.5,247.2c-1.2,0-2.2-1.6-2.2-3.5s1-3.5,2.2-3.5s2.2,1.6,2.2,3.5S65.7,247.2,64.5,247.2z"/>
		<path class="st2" d="M64.5,210.7c1.6,0,3-1.3,3-3c0-1.6-1.3-3-3-3c-1.6,0-3,1.3-3,3C61.5,209.3,62.8,210.7,64.5,210.7z M64.5,205
			c1.5,0,2.7,1.2,2.7,2.7c0,1.5-1.2,2.7-2.7,2.7c-1.5,0-2.7-1.2-2.7-2.7C61.8,206.2,63,205,64.5,205z"/>
		<path class="st2" d="M59.1,208.3c-0.8-0.2-1.6-0.1-2.3,0.3c-1.4,0.8-1.9,2.6-1.1,4.1c0.4,0.7,1,1.2,1.8,1.4
			c0.3,0.1,0.5,0.1,0.8,0.1c0.5,0,1-0.1,1.5-0.4c0.7-0.4,1.2-1,1.4-1.8c0.2-0.8,0.1-1.6-0.3-2.3C60.5,209,59.8,208.5,59.1,208.3z
			 M60.9,211.9c-0.2,0.7-0.6,1.3-1.3,1.7c-0.6,0.4-1.4,0.5-2.1,0.3c-0.7-0.2-1.3-0.6-1.7-1.3c-0.7-1.3-0.3-3,1-3.7
			c0.4-0.2,0.9-0.4,1.4-0.4c0.2,0,0.5,0,0.7,0.1c0.7,0.2,1.3,0.6,1.7,1.3C61,210.5,61.1,211.2,60.9,211.9z"/>
		<path class="st2" d="M69.9,206.9c0.3,0.1,0.5,0.1,0.8,0.1c0.5,0,1-0.1,1.5-0.4c0.7-0.4,1.2-1,1.4-1.8c0.2-0.8,0.1-1.6-0.3-2.3
			c-0.8-1.4-2.6-1.9-4.1-1.1c-0.7,0.4-1.2,1-1.4,1.8c-0.2,0.8-0.1,1.6,0.3,2.3C68.5,206.2,69.2,206.7,69.9,206.9z M68.1,203.3
			c0.2-0.7,0.6-1.3,1.3-1.7c0.4-0.2,0.9-0.4,1.4-0.4c0.9,0,1.9,0.5,2.4,1.4c0.4,0.6,0.5,1.4,0.3,2.1c-0.2,0.7-0.6,1.3-1.3,1.7
			c-0.6,0.4-1.4,0.5-2.1,0.3c-0.7-0.2-1.3-0.6-1.7-1.3C68,204.8,67.9,204,68.1,203.3z"/>
		<path class="st2" d="M59.8,201.4c-1.4-0.8-3.2-0.3-4.1,1.1c-0.4,0.7-0.5,1.5-0.3,2.3c0.2,0.8,0.7,1.4,1.4,1.8
			c0.5,0.3,1,0.4,1.5,0.4c0.3,0,0.5,0,0.8-0.1c0.8-0.2,1.4-0.7,1.8-1.4c0.4-0.7,0.5-1.5,0.3-2.3C61,202.5,60.5,201.8,59.8,201.4z
			 M60.6,205.4c-0.4,0.6-0.9,1.1-1.7,1.3c-0.7,0.2-1.4,0.1-2.1-0.3c-0.6-0.4-1.1-0.9-1.3-1.7c-0.2-0.7-0.1-1.4,0.3-2.1
			c0.5-0.9,1.4-1.4,2.4-1.4c0.5,0,0.9,0.1,1.4,0.4c0.6,0.4,1.1,1,1.3,1.7C61.1,204,61,204.8,60.6,205.4z"/>
		<path class="st2" d="M69.2,213.8c0.5,0.3,1,0.4,1.5,0.4c0.3,0,0.5,0,0.8-0.1c0.8-0.2,1.4-0.7,1.8-1.4c0.8-1.4,0.3-3.3-1.1-4.1
			c-0.7-0.4-1.5-0.5-2.3-0.3c-0.8,0.2-1.4,0.7-1.8,1.4c-0.4,0.7-0.5,1.5-0.3,2.3C68,212.7,68.5,213.4,69.2,213.8z M68.4,209.8
			c0.4-0.6,0.9-1.1,1.7-1.3c0.2-0.1,0.5-0.1,0.7-0.1c0.5,0,0.9,0.1,1.4,0.4c1.3,0.7,1.7,2.4,1,3.7c-0.4,0.6-0.9,1.1-1.7,1.3
			c-0.7,0.2-1.4,0.1-2.1-0.3c-0.6-0.4-1.1-0.9-1.3-1.7C67.9,211.2,68,210.5,68.4,209.8z"/>
		<path class="st2" d="M61.5,200.4c0,1.6,1.3,3,3,3s3-1.3,3-3c0-1.6-1.3-3-3-3S61.5,198.8,61.5,200.4z M67.2,200.4
			c0,1.5-1.2,2.7-2.7,2.7s-2.7-1.2-2.7-2.7c0-1.5,1.2-2.7,2.7-2.7S67.2,198.9,67.2,200.4z"/>
		<path class="st2" d="M64.5,211.8c-1.6,0-3,1.3-3,3c0,1.6,1.3,3,3,3s3-1.3,3-3C67.5,213.1,66.1,211.8,64.5,211.8z M64.5,217.5
			c-1.5,0-2.7-1.2-2.7-2.7c0-1.5,1.2-2.7,2.7-2.7s2.7,1.2,2.7,2.7C67.2,216.3,66,217.5,64.5,217.5z"/>
		<path class="st2" d="M64.5,165.8c-23.1,0-41.8,18.8-41.8,41.8c0,23.1,18.8,41.8,41.8,41.8s41.8-18.8,41.8-41.8
			C106.3,184.5,87.6,165.8,64.5,165.8z M64.5,249.2c-22.9,0-41.6-18.7-41.6-41.6c0-22.9,18.7-41.6,41.6-41.6
			c22.9,0,41.6,18.7,41.6,41.6C106.1,230.5,87.4,249.2,64.5,249.2z"/>
		<path class="st2" d="M64.5,154.3c-29.4,0-53.3,23.9-53.3,53.3s23.9,53.3,53.3,53.3c29.4,0,53.3-23.9,53.3-53.3
			S93.9,154.3,64.5,154.3z M64.5,260.5c-29.2,0-52.9-23.7-52.9-52.9s23.7-52.9,52.9-52.9c29.2,0,52.9,23.7,52.9,52.9
			S93.7,260.5,64.5,260.5z"/>
		<path class="st2" d="M356.2,33.6H186v97.5h170.2V33.6z M355.7,130.6H186.5V34.1h169.2V130.6z"/>
		<path class="st2" d="M421.6,72.5h-11V8.5c0-4.7-3.8-8.5-8.5-8.5H140.2c-4.7,0-8.5,3.8-8.5,8.5v63.9h-22l-1.4-25.8
			c-0.2-5.5-4.3-10-10-10H29.6c-5.7,0-9.4,4.5-9.6,10l-1,25.8H8.5C3.8,72.5,0,76.3,0,81v282.5c0,7.5,6.1,13.6,13.6,13.6h403
			c7.5,0,13.6-6.1,13.6-13.6V81C430.1,76.3,426.3,72.5,421.6,72.5z M386.5,1h5.9v2.4h-5.9V1z M401.6,3.7c2.7,0,4.9,2.2,4.9,4.9v162
			c0,2.7-2.2,4.9-4.9,4.9H139.9c-2.7,0-4.9-2.2-4.9-4.9V8.6c0-2.7,2.2-4.9,4.9-4.9H401.6z M132.6,73V8.5c0-4.2,3.4-7.5,7.5-7.5h246
			v2.4H139.9c-2.8,0-5.2,2.3-5.2,5.2v162c0,2.8,2.3,5.2,5.2,5.2h261.7c2.8,0,5.2-2.3,5.2-5.2V8.6c0-2.8-2.3-5.2-5.2-5.2h-8.9V1h9.4
			c4.2,0,7.5,3.4,7.5,7.5V73v98.1c0,4.2-3.4,7.5-7.5,7.5H140.2c-4.2,0-7.5-3.4-7.5-7.5V73z M119.3,73.5h1.5v274.4
			c0,0.3-0.3,0.6-0.6,0.6h0c-0.5,0-0.9-0.4-0.9-0.9V73.5z M429.1,363.6c0,6.9-5.6,12.6-12.6,12.6h-403c-6.9,0-12.6-5.6-12.6-12.6
			v-9.5h428.1V363.6z M429.1,353.8H1v-0.7h428.1V353.8z M429.1,352.9H1V81c0-4.2,3.4-7.5,7.5-7.5h10.9l0.5,0l0-0.5l0.9-22.4l0-0.1
			l0-0.1l0.2-3.7c0.2-5,3.4-9,8.6-9h68.6c5.2,0,8.8,4.1,9,9l0.2,3.7l0,0.3l1.2,21.2l0,0.3l0,0.9l0,0.5l0-0.1
			c-0.9,0.1-1.2,0.2-1.4,0.7c-0.1,0.2-0.1,1.1-0.1,2.8c0,1.6-0.1,3.6-0.2,3.9c0,0.1,0,0.1-0.1,0.3c-1.1,6.1-6.2,9.6-10.2,11.5
			c-8.5,3.9-16.8,4.8-17.9,4.8v0.2c1.2,0,9.6-0.9,18.1-4.8c4.1-1.9,9.2-5.5,10.3-11.7c0-0.1,0-0.2,0.1-0.3c0.1-0.4,0.1-2.2,0.2-4
			c0-1.2,0-2.6,0.1-2.8c0.1-0.3,0.2-0.5,1.1-0.5l0-0.1l0.5,0h9.9v274.1c0,0.6,0.5,1.1,1.1,1.1h0c0.5,0,0.9-0.4,0.9-0.9V73.5h10.6
			v97.6c0,4.7,3.8,8.5,8.5,8.5H402c4.7,0,8.5-3.8,8.5-8.5V73.5h11c4.2,0,7.5,3.4,7.5,7.5V352.9z"/>
		<path class="st2" d="M28.8,48.9c1.5,0,2.8-1.2,2.8-2.8s-1.2-2.8-2.8-2.8s-2.8,1.2-2.8,2.8S27.3,48.9,28.8,48.9z M28.8,43.9
			c1.2,0,2.2,1,2.2,2.2s-1,2.2-2.2,2.2s-2.2-1-2.2-2.2S27.6,43.9,28.8,43.9z"/>
		<path class="st2" d="M99.8,48.9c1.5,0,2.8-1.2,2.8-2.8s-1.2-2.8-2.8-2.8s-2.8,1.2-2.8,2.8S98.3,48.9,99.8,48.9z M99.8,43.9
			c1.2,0,2.2,1,2.2,2.2s-1,2.2-2.2,2.2s-2.2-1-2.2-2.2S98.6,43.9,99.8,43.9z"/>
		<path class="st2" d="M26.7,344.8c-3.5-3.9-3-11.4-3-11.4c0.1-1.5,5.3-42.4,9.3-52.2c1.4-3.5,5.9-9.7,20-12.4l0.3,0
			c1.5-0.3,8.2-0.4,11.4-0.4v-0.2c-3.2,0-9.9,0.1-11.5,0.4l-0.2,0c-14.2,2.7-18.8,9-20.2,12.5c-4,9.8-9.2,50.8-9.3,52.3
			c0,0.1-0.5,7.7,3.1,11.6c1.3,1.4,2.9,2.2,4.8,2.3c7.8,0.4,33.1,0.4,33.4,0.4v-0.2c-0.3,0-25.6,0-33.4-0.4
			C29.5,346.9,27.9,346.2,26.7,344.8z"/>
		<path class="st2" d="M64.7,275.1l0-0.2c-0.4,0-1,0-1.8,0c-4,0.1-12.5,0.3-14.4,1c-1.8,0.7-7.9,3.5-8.4,8.5
			c-0.2,2-0.4,6.4-0.3,16.6c0,0.3,0,0.4,0,0.5H40c0-0.1,0-0.2,0-0.5c-0.1-10.2,0.1-14.6,0.3-16.6c0.5-4.9,6.4-7.6,8.3-8.3
			c1.9-0.8,10.3-0.9,14.4-1C63.7,275.1,64.3,275.1,64.7,275.1z"/>
		<path class="st2" d="M39.7,316.7c1.2,5.5,4.4,6.4,6.2,6.4h4.8v-0.2h-4.8c-4,0-5.4-3.9-5.9-6.2l0-0.1c-0.1-0.5,0-4.9,0.1-7.8
			c0-1.3,0.1-2.4,0.1-2.8h-0.2c0,0.4,0,1.4-0.1,2.8C39.7,311.9,39.6,316.1,39.7,316.7L39.7,316.7z"/>
		<path class="st2" d="M55.5,323.2c0.8,0,9.2,0.1,9.3,0.1l0-0.2c-0.1,0-8.5-0.1-9.3-0.1V323.2z"/>
		<path class="st2" d="M47.1,303.9v-0.1c0-1.2-1-2.1-2.1-2.1h-8.9c-1.2,0-2.1,1-2.1,2.1v0.1c0,1.2,1,2.1,2.1,2.1H45
			C46.2,306,47.1,305,47.1,303.9z M34.2,303.9v-0.1c0-1,0.8-1.9,1.9-1.9H45c1,0,1.9,0.8,1.9,1.9v0.1c0,1-0.8,1.9-1.9,1.9h-8.9
			C35.1,305.7,34.2,304.9,34.2,303.9z"/>
		<path class="st2" d="M51,317.1V331c0,1.2,1,2.1,2.1,2.1s2.1-1,2.1-2.1v-13.9c0-1.2-1-2.1-2.1-2.1S51,315.9,51,317.1z M55,317.1
			V331c0,1-0.8,1.9-1.9,1.9s-1.9-0.8-1.9-1.9v-13.9c0-1,0.8-1.9,1.9-1.9S55,316.1,55,317.1z"/>
		<path class="st2" d="M22.2,74.2c0.1,0.2,0.1,1.5,0.1,2.8c0,1.8,0.1,3.6,0.2,4c0,0.1,0,0.1,0.1,0.3c1.1,6.2,6.2,9.8,10.3,11.7
			c8.5,3.9,16.9,4.8,18.1,4.8v-0.2c-1.2,0-9.5-0.9-17.9-4.8c-4-1.9-9.1-5.4-10.2-11.5c0-0.1,0-0.2-0.1-0.3c-0.1-0.4-0.1-2.3-0.2-3.9
			c0-1.7,0-2.7-0.1-2.8c-0.2-0.5-0.5-0.6-1.4-0.7l0,0.2C21.9,73.7,22.1,73.9,22.2,74.2z"/>
		<path class="st2" d="M22.9,71.6c0.4,0,0.8,0,1.2,0c0.1,0,0.2,0.1,0.3,0.2c0.2,0.2,0.3,0.4,0.3,0.5c0,0.1-0.2,6.8,0.5,9.7
			c0.6,2.8,6.2,7.4,7.9,8.3c0.6,0.3,1.5,0.7,2.7,1.1c0.2,0.2,0.3,0.4,0.6,0.5c0.3,0.2,0.6,0.3,0.9,0.3c0.2,0,0.4,0,0.6-0.1
			c1.2,0.4,2.6,0.7,4.2,1.1c1.9,0.5,8.2,1,13.9,1.3l-6.2-0.1l0,0.1c0,0-0.1,0.6,0.3,1c0.2,0.3,0.6,0.4,1,0.4
			c0,1.8,0.1,21.4,0.1,21.6l0,0.3l0.2-0.2c0.1,0,2-1.2,13.6-1.1l0,0c11.6-0.1,13.3,1,13.3,1.1l0.2,0.2l0-0.3
			c0-0.2,0.1-19.7,0.1-21.6c0.4,0,0.8-0.2,1-0.4c0.4-0.4,0.3-1,0.3-1l0-0.1l-6.2,0.1c5.7-0.3,12-0.9,13.9-1.3c1.6-0.4,3-0.8,4.2-1.1
			c0.2,0.1,0.4,0.1,0.6,0.1c0.3,0,0.6-0.1,0.9-0.3c0.2-0.1,0.4-0.3,0.6-0.5c1.1-0.4,2-0.7,2.7-1.1c0.9-0.5,2.7-1.8,4.4-3.5
			c1.1-1.1,3.1-3.2,3.5-4.8c0.6-2.8,0.5-9.6,0.5-9.7c0-0.1,0.1-0.3,0.3-0.5c0.1-0.1,0.2-0.2,0.3-0.2c0.4,0,0.8,0,1.2,0
			c0.6,0,1.1,0,1.7,0l0-0.2c-0.6,0-1.1,0-1.7,0c-0.4,0-0.8,0-1.2,0c-0.2,0-0.3,0.1-0.5,0.2c-0.2,0.2-0.3,0.5-0.3,0.7
			c0,0.1,0.2,6.8-0.5,9.6c-0.6,2.8-6.1,7.2-7.8,8.2c-0.6,0.3-1.3,0.6-2.4,1c0-0.1,0.1-0.2,0.1-0.3c0.1-0.5,0.1-1-0.2-1.4l-1.8-3.2
			c-0.3-0.4-0.7-0.7-1.1-0.9c-0.5-0.1-1-0.1-1.4,0.2c-0.4,0.3-0.7,0.7-0.9,1.1s-0.1,1,0.2,1.4l1.8,3.2c0.2,0.3,0.4,0.5,0.7,0.7
			c-1.2,0.3-2.5,0.7-3.9,1.1c-2.8,0.7-16,1.5-21.5,1.7l-1.2,0v0l-1.3,0c-5.5-0.1-18.7-1-21.5-1.7c-1.5-0.4-2.8-0.7-3.9-1.1
			c0.3-0.2,0.5-0.4,0.7-0.7l1.8-3.2c0.3-0.4,0.3-0.9,0.2-1.4s-0.4-0.9-0.9-1.1c-0.4-0.3-0.9-0.3-1.4-0.2c-0.5,0.1-0.9,0.4-1.1,0.9
			l-1.8,3.2c-0.3,0.4-0.3,0.9-0.2,1.4c0,0.1,0.1,0.2,0.1,0.3c-1-0.4-1.8-0.7-2.4-1c-1.7-0.9-7.2-5.4-7.8-8.2
			c-0.6-2.8-0.5-9.5-0.5-9.6c0-0.2-0.1-0.5-0.3-0.7c-0.2-0.2-0.3-0.2-0.5-0.2c-0.4,0-0.8,0-1.2,0c-0.6,0-1.1,0-1.7,0l0,0.2
			C21.7,71.6,22.3,71.6,22.9,71.6z M93.3,91.7C93,91.9,92.7,92,92.4,92c0.4-0.1,0.8-0.2,1.1-0.3C93.4,91.7,93.4,91.7,93.3,91.7z
			 M91.1,91.1L89.2,88c-0.2-0.4-0.3-0.8-0.2-1.2c0.1-0.4,0.4-0.8,0.8-1c0.2-0.1,0.5-0.2,0.8-0.2c0.1,0,0.3,0,0.4,0.1
			c0.4,0.1,0.8,0.4,1,0.8l1.8,3.2c0.3,0.5,0.3,1.2-0.1,1.7c-0.6,0.2-1.2,0.4-1.9,0.6C91.6,91.7,91.3,91.5,91.1,91.1z M63.6,94.9
			c0.4,0,1,0,1.3,0v0c0.3,0,0.7,0,1.1,0l13.7-0.2c0,0.2-0.1,0.5-0.3,0.7c-0.2,0.2-0.5,0.3-1,0.3l-0.1,0v0.1c0,0.6-0.1,19.3-0.1,21.5
			c-0.7-0.3-3.5-1.1-13.3-1l0,0c-9.8-0.1-12.9,0.7-13.6,1c0-2.2-0.1-20.9-0.1-21.5v-0.1l-0.1,0c0,0,0,0,0,0c-0.4,0-0.7-0.1-0.9-0.3
			C50,95.2,50,94.9,50,94.7L63.6,94.9z M36.4,91.7c-0.1,0-0.1-0.1-0.2-0.1c0.4,0.1,0.7,0.2,1.1,0.3C37,92,36.7,91.9,36.4,91.7z
			 M35.8,89.5l1.8-3.2c0.2-0.4,0.6-0.6,1-0.8c0.1,0,0.3-0.1,0.4-0.1c0.3,0,0.6,0.1,0.8,0.2c0.4,0.2,0.6,0.6,0.8,1
			c0.1,0.4,0.1,0.9-0.2,1.2l-1.8,3.2c-0.2,0.3-0.5,0.6-0.8,0.7c-0.7-0.2-1.4-0.4-1.9-0.6C35.6,90.7,35.5,90.1,35.8,89.5z"/>
		<path class="st2" d="M53.4,98.3c1.7,0.8,11.1,0.9,11.5,0.9l0,0c0.6,0,9.7-0.1,11.3-0.9l-0.1-0.2c-1.6,0.7-11.2,0.9-11.3,0.9l0,0
			c-0.4,0-9.8-0.2-11.4-0.9L53.4,98.3z"/>
		<path class="st2" d="M96.9,281.1c-1.4-3.5-6-9.8-20.2-12.5l-0.2,0c-1.6-0.3-8.2-0.4-11.5-0.4v0.2c3.2,0,9.9,0.1,11.4,0.4l0.3,0
			c14.1,2.7,18.6,8.9,20,12.4c4,9.8,9.2,50.7,9.3,52.2c0,0.1,0.5,7.6-3,11.4c-1.2,1.4-2.8,2.1-4.6,2.2c-7.8,0.4-33.1,0.4-33.4,0.4
			v0.2c0.3,0,25.6,0,33.4-0.4c1.9-0.1,3.5-0.9,4.8-2.3c3.5-4,3.1-11.5,3.1-11.6C106.1,331.8,100.9,290.9,96.9,281.1z"/>
		<path class="st2" d="M81.2,275.9c-2-0.8-10.4-1-14.4-1c-0.8,0-1.4,0-1.8,0l0,0.2c0.4,0,1,0,1.8,0c4,0.1,12.4,0.3,14.4,1
			c1.8,0.7,7.7,3.4,8.3,8.3c0.2,2,0.4,6.4,0.3,16.6c0,0.3,0,0.4,0,0.5h0.2c0-0.1,0-0.2,0-0.5c0.1-10.2-0.1-14.7-0.3-16.6
			C89.1,279.4,83,276.6,81.2,275.9z"/>
		<path class="st2" d="M89.8,316.7c-0.5,2.3-1.9,6.2-5.9,6.2H79v0.2h4.8c1.8,0,5-0.8,6.2-6.4l0-0.1c0.1-0.5,0-4.8-0.1-7.9
			c0-1.3-0.1-2.4-0.1-2.8h-0.2c0,0.4,0,1.4,0.1,2.8C89.8,311.7,89.9,316.1,89.8,316.7L89.8,316.7z"/>
		<path class="st2" d="M74.2,322.9c-0.8,0-9.2,0.1-9.3,0.1l0,0.2c0.1,0,8.5-0.1,9.3-0.1V322.9z"/>
		<path class="st2" d="M95.7,303.9v-0.1c0-1.2-1-2.1-2.1-2.1h-8.9c-1.2,0-2.1,1-2.1,2.1v0.1c0,1.2,1,2.1,2.1,2.1h8.9
			C94.8,306,95.7,305,95.7,303.9z M82.9,303.9v-0.1c0-1,0.8-1.9,1.9-1.9h8.9c1,0,1.9,0.8,1.9,1.9v0.1c0,1-0.8,1.9-1.9,1.9h-8.9
			C83.7,305.7,82.9,304.9,82.9,303.9z"/>
		<path class="st2" d="M74.5,317.1V331c0,1.2,1,2.1,2.1,2.1s2.1-1,2.1-2.1v-13.9c0-1.2-1-2.1-2.1-2.1S74.5,315.9,74.5,317.1z
			 M78.5,317.1V331c0,1-0.8,1.9-1.9,1.9s-1.9-0.8-1.9-1.9v-13.9c0-1,0.8-1.9,1.9-1.9S78.5,316.1,78.5,317.1z"/>
		<path class="st2" d="M77,115v-14.6H64.9H52.7V115h12.1H77z M53,100.6h11.9h11.9v14.1H64.9H53V100.6z"/>
		<polygon class="st2" points="64.9,96.5 76.7,96.4 76.7,96.1 64.9,96.2 64.9,96.2 53,96.1 53,96.4 64.9,96.5 		"/>
	</g>
</g>
<g id="Ebene_3">
	<g>
		<circle id="bgnumber_6_" class="st3" cx="225.7" cy="83.1" r="7.1"/>
		<text transform="matrix(1 0 0 1 221.144 86.6172)" class="st4 st5 st6 button" data-number="20">21</text>
	</g>
	<g>
		<circle id="bgnumber_5_" class="st3" cx="225.7" cy="47.3" r="7.1"/>
		<text transform="matrix(1 0 0 1 220.9139 50.7512)" class="st4 st5 st6 button" data-number="18">19</text>
	</g>
	<g>
		<circle id="bgnumber_3_" class="st3" cx="209.9" cy="65.2" r="7.1"/>
		<text transform="matrix(1 0 0 1 206.0161 68.6854)" class="st4 st5 st6 button" data-number="10">11</text>
	</g>
	<g>
		<circle id="bgnumber_1_" class="st3" cx="194.2" cy="83.1" r="7.1"/>
		<text transform="matrix(1 0 0 1 188.5078 86.5196)" class="st4 st5 st6 button" data-number="2">03</text>
	</g>
	<g>
		<circle id="bgnumber" class="st3" cx="194.2" cy="47.3" r="7.1"/>
		<text transform="matrix(1 0 0 1 189.2799 50.7322)" class="st4 st5 st6 button" data-number="0">01</text>
	</g>
	<g>
		<circle id="bgnumber_16_" class="st3" cx="225.7" cy="65.2" r="7.1"/>
		<text transform="matrix(1 0 0 1 220.1083 68.6331)" class="st4 st5 st6 button" data-number="19">20</text>
	</g>
	<g>
		<circle id="bgnumber_14_" class="st3" cx="209.9" cy="83.1" r="7.1"/>
		<text transform="matrix(1 0 0 1 205.3617 86.5671)" class="st4 st5 st6 button" data-number="11">12</text>
	</g>
	<g>
		<circle id="bgnumber_10_" class="st3" cx="225.7" cy="100.9" r="7.1"/>
		<text transform="matrix(1 0 0 1 220.4892 104.4989)" class="st4 st5 st6 button" data-number="21">22</text>
	</g>
	<g>
		<circle id="bgnumber_9_" class="st3" cx="194.2" cy="100.9" r="7.1"/>
		<text transform="matrix(1 0 0 1 188.373 104.4012)" class="st4 st5 st6 button" data-number="3">04</text>
	</g>
	<g>
		<circle id="bgnumber_8_" class="st3" cx="209.9" cy="100.9" r="7.1"/>
		<text transform="matrix(1 0 0 1 205.2167 104.4488)" class="st4 st5 st6 button" data-number="12">13</text>
	</g>
	<g>
		<circle id="bgnumber_20_" class="st3" cx="225.7" cy="118.8" r="7.1"/>
		<text transform="matrix(1 0 0 1 220.3441 122.3806)" class="st4 st5 st6 button" data-number="22">23</text>
	</g>
	<g>
		<circle id="bgnumber_19_" class="st3" cx="194.2" cy="118.8" r="7.1"/>
		<text transform="matrix(1 0 0 1 188.603 122.283)" class="st4 st5 st6 button" data-number="4">05</text>
	</g>
	<g>
		<circle id="bgnumber_18_" class="st3" cx="209.9" cy="118.8" r="7.1"/>
		<text transform="matrix(1 0 0 1 205.0819 122.3305)" class="st4 st5 st6 button" data-number="13">14</text>
	</g>
	<g>
		<circle id="bgnumber_13_" class="st3" cx="209.9" cy="47.3" r="7.1"/>
		<text transform="matrix(1 0 0 1 204.9821 50.7799)" class="st4 st5 st6 button" data-number="9">10</text>
	</g>
	<g>
		<circle id="bgnumber_11_" class="st3" cx="194.2" cy="65.2" r="7.1"/>
		<text transform="matrix(1 0 0 1 188.6527 68.2409)" class="st4 st5 st6 button" data-number="1">02</text>
	</g>
	<g>
		<circle id="bgnumber_26_" class="st3" cx="347.3" cy="83.1" r="7.1"/>
		<text transform="matrix(1 0 0 1 341.8356 86.6172)" class="st4 st5 st6 button" data-number="25">26</text>
	</g>
	<g>
		<circle id="bgnumber_25_" class="st3" cx="347.3" cy="47.3" r="7.1"/>
		<text transform="matrix(1 0 0 1 341.7853 50.7512)" class="st4 st5 st6 button" data-number="23">24</text>
	</g>
	<g>
		<circle id="bgnumber_24_" class="st3" cx="331.5" cy="65.2" r="7.1"/>
		<text transform="matrix(1 0 0 1 326.7077 68.6854)" class="st4 st5 st6 button" data-number="15">16</text>
	</g>
	<g>
		<circle id="bgnumber_23_" class="st3" cx="315.8" cy="83.1" r="7.1"/>
		<text transform="matrix(1 0 0 1 309.9592 86.5196)" class="st4 st5 st6 button" data-number="7">08</text>
	</g>
	<g>
		<circle id="bgnumber_22_" class="st3" cx="315.8" cy="47.3" r="7.1"/>
		<text transform="matrix(1 0 0 1 310.8563 50.7322)" class="st4 st5 st6 button" data-number="5">06</text>
	</g>
	<g>
		<circle id="bgnumber_21_" class="st3" cx="347.3" cy="65.2" r="7.1"/>
		<text transform="matrix(1 0 0 1 342.0148 68.6331)" class="st4 st5 st6 button" data-number="24">25</text>
	</g>
	<g>
		<circle id="bgnumber_17_" class="st3" cx="331.5" cy="83.1" r="7.1"/>
		<text transform="matrix(1 0 0 1 327.1681 86.5671)" class="st4 st5 st6 button" data-number="16">17</text>
	</g>
	<g>
		<circle id="bgnumber_15_" class="st3" cx="347.3" cy="100.9" r="7.1"/>
		<text transform="matrix(1 0 0 1 342.2956 104.4989)" class="st4 st5 st6 button" data-number="26">27</text>
	</g>
	<g>
		<circle id="bgnumber_12_" class="st3" cx="315.8" cy="100.9" r="7.1"/>
		<text transform="matrix(1 0 0 1 309.9992 104.4012)" class="st4 st5 st6 button" data-number="8">09</text>
	</g>
	<g>
		<circle id="bgnumber_7_" class="st3" cx="331.5" cy="100.9" r="7.1"/>
		<text transform="matrix(1 0 0 1 326.6681 104.4488)" class="st4 st5 st6 button" data-number="17">18</text>
	</g>
	<g>
		<circle id="bgnumber_4_" class="st3" cx="331.5" cy="47.3" r="7.1"/>
		<text transform="matrix(1 0 0 1 326.8885 50.7799)" class="st4 st5 st6 button" data-number="14">15</text>
	</g>
	<g>
		<circle id="bgnumber_2_" class="st3" cx="315.8" cy="65.2" r="7.1"/>
		<text transform="matrix(1 0 0 1 310.4591 68.2409)" class="st4 st5 st6 button" data-number="6">07</text>
	</g>
</g>
</svg>
