<?xml version="1.0" encoding="utf-8"?>
<!-- Generator: Adobe Illustrator 21.0.1, SVG Export Plug-In . SVG Version: 6.00 Build 0)  -->
<!DOCTYPE svg PUBLIC "-//W3C//DTD SVG 1.1//EN" "http://www.w3.org/Graphics/SVG/1.1/DTD/svg11.dtd">
<svg version="1.1" xmlns="http://www.w3.org/2000/svg" xmlns:xlink="http://www.w3.org/1999/xlink" x="0px" y="0px"
	 viewBox="0 0 420 356.8" style="enable-background:new 0 0 420 356.8;" xml:space="preserve">
<style type="text/css">
	.button{cursor: pointer}
	.st0{display:none;}
	.st1{display:inline;opacity:0.4;}
	.st2{opacity:0.4;}
	.st3{fill:#B8B8B8;}
	.st4{fill:#F2F2F2;}
	.st5{fill:#29AEE4;}
	.st6{font-family:'BrixSansRegular';}
	.st7{font-size:10px;}
</style>
<g id="Ebene_4" class="st0">
	<g class="st1">
		<g class="st2">
			<g>
				<defs>
					<rect id="SVGID_1_" x="1" y="-0.1" width="461.7" height="394.4"/>
				</defs>
				<clipPath id="SVGID_2_">
					<use xlink:href="#SVGID_1_"  style="overflow:visible;"/>
				</clipPath>
			</g>
		</g>
	</g>
</g>
<g id="Ebene_2">
	<g>
		<path class="st3" d="M135.9,33.8V164c0,1.6,1.3,3,3,3h237.7c1.6,0,3-1.3,3-3V33.8c0-1.6-1.3-3-3-3H138.8
			C137.2,30.8,135.9,32.2,135.9,33.8z M138.8,31.3h237.7c1.4,0,2.5,1.1,2.5,2.5V164c0,1.4-1.1,2.5-2.5,2.5H138.8
			c-1.4,0-2.5-1.1-2.5-2.5V33.8C136.3,32.4,137.4,31.3,138.8,31.3z"/>
		<path class="st3" d="M131.9,32.1v133.2c0,2.8,2.2,5,5,5h241.6c2.8,0,5-2.2,5-5V32.1c0-2.8-2.2-5-5-5H136.9
			C134.1,27.1,131.9,29.3,131.9,32.1z M382.5,32.1v133.2c0,2.3-1.8,4.1-4.1,4.1H136.9c-2.3,0-4.1-1.8-4.1-4.1V32.1
			c0-2.3,1.8-4.1,4.1-4.1h241.6C380.7,28,382.5,29.8,382.5,32.1z"/>
		<path class="st3" d="M280.3,234.7c1,0,1.8-0.8,1.8-1.8c0-1-0.8-1.8-1.8-1.8c-1,0-1.8,0.8-1.8,1.8
			C278.5,233.9,279.3,234.7,280.3,234.7z M280.3,231.8c0.6,0,1.1,0.5,1.1,1.2c0,0.7-0.5,1.2-1.1,1.2c-0.6,0-1.2-0.5-1.2-1.2
			C279.2,232.3,279.7,231.8,280.3,231.8z"/>
		<polygon class="st3" points="283.2,233.2 284.3,234.7 285,234.7 283.8,232.9 285,231.2 284.3,231.2 283.2,232.7 283.2,231.2
			282.6,231.2 282.6,234.7 283.2,234.7 		"/>
		<polygon class="st3" points="265.8,10.4 263.4,10.4 263.3,12.2 265.7,12.2 		"/>
		<polygon class="st3" points="265.7,13.3 263.3,13.3 262.9,20.7 265.2,20.7 		"/>
		<polygon class="st3" points="235.7,20.8 238,20.8 238.2,16.6 238.2,16.6 242.4,10.9 240,10.9 237.2,14.9 237.1,14.9 234.6,10.9
			232.1,10.9 235.9,16.7 		"/>
		<polygon class="st3" points="261.6,10.4 259.2,10.4 258.6,20.7 261,20.7 		"/>
		<path class="st3" d="M269.8,15.5c2.7-1.3,2.7,0.6,2.7,0.6l-0.2,4.6h2.3l0.3-4.8c0,0,0.3-2.5-1.9-2.7c-2.1-0.2-3.1,1-3.1,1l0-0.8
			h-2.3l-0.4,7.4h2.4L269.8,15.5z"/>
		<path class="st3" d="M253.2,21.1c1.3-0.1,1.9-0.4,2.4-1.1l-0.1,0.8h1.7l0.6-7.5l-1.8,0l-0.1,0.9c-0.5-0.6-1.4-1.3-3.1-1.1
			c-3,0.5-4,3.7-3.4,5.6C250.1,20.5,251.9,21.2,253.2,21.1z M253.5,14.8c1.2,0,2.1,1,2.1,2.3c-0.1,1.2-1.1,2.3-2.3,2.3
			c-1.2,0-2.1-1-2.1-2.3C251.2,15.8,252.2,14.8,253.5,14.8z"/>
		<path class="st3" d="M240.1,16.9c0,2.4,1.9,4.3,4.3,4.3c1.6,0,3.1-0.9,3.8-2.3h-2c-0.5,0.4-1.1,0.7-1.7,0.7
			c-1.1,0-2.1-0.7-2.4-1.8h4.9l0,0h1.7c0.1-0.3,0.1-0.6,0.1-0.9c0-2.4-1.9-4.3-4.3-4.3C242,12.6,240.1,14.5,240.1,16.9z M244.4,14.4
			c1.2,0,2.3,0.9,2.5,2h-5C242.1,15.3,243.2,14.4,244.4,14.4z"/>
		<polygon class="st3" points="277.9,18 278.7,17.2 280.3,20.6 282.5,20.6 280.1,16 283.2,12.9 281,12.9 278,15.8 278.3,10.6
			276.2,10.6 275.8,20.6 277.8,20.6 		"/>
		<path class="st3" d="M26.7,78.9l0,5.3c0,0-0.3,4.6,6.4,7.2c1.8,0.7,6.5,2.4,11.6,3.2c6.2,1,12.4,1.1,13.5,1.1h0.5
			c1.2,0,7.3-0.1,13.5-1.1c5.1-0.8,9.8-2.5,11.6-3.2c6.7-2.6,6.2-7.1,6.2-7.2v-5.3c0-1.2-1.1-1.8-1.8-1.8H58.8h-0.1H28.5
			C27.8,77.1,26.7,77.7,26.7,78.9z M58.8,77.4h29.4c0.5,0,1.6,0.4,1.6,1.6l0,5.4c0,0,0.5,4.4-6,6.9c-1.8,0.7-6.5,2.4-11.5,3.2
			c-6.2,1-12.3,1.1-13.5,1.1h-0.5c-1.2,0-7.3-0.1-13.5-1.1c-5.1-0.8-9.8-2.5-11.5-3.2c-6.5-2.5-6.2-6.9-6.2-6.9v-5.3
			c0-1.2,1.1-1.6,1.6-1.6H58.8L58.8,77.4z"/>
		<path class="st3" d="M33.5,83.4c2.2,0.9,5.4,1.9,8.5,2.6c6.2,1.4,13.7,1.7,16.1,1.7h0.6c2.4,0,9.9-0.3,16.1-1.7
			c3.1-0.7,6.3-1.7,8.5-2.6c2.5-1,3.5-1.9,3.6-2c0.6-0.6,0.6-1,0.5-1.3c-0.2-0.6-1-1-1.6-1h-55c-0.6,0-1.4,0.4-1.6,1
			c-0.1,0.3-0.1,0.8,0.5,1.3C29.8,81.5,31,82.4,33.5,83.4z M29.5,80.2c0.2-0.5,0.9-0.8,1.4-0.8h55c0.5,0,1.2,0.4,1.4,0.8
			c0.1,0.3,0,0.7-0.4,1.1c-0.1,0.1-1.1,0.9-3.5,1.9c-2.2,0.9-5.4,1.9-8.5,2.6c-6.2,1.4-13.7,1.7-16.1,1.7h-0.6
			c-2.4,0-9.9-0.3-16.1-1.7c-3.1-0.7-6.3-1.7-8.5-2.6c-2.5-1-3.6-1.8-3.7-1.9C29.5,80.9,29.3,80.5,29.5,80.2z"/>
		<polygon class="st3" points="135.7,218.6 136.6,218.6 136.6,224.9 138,224.9 138,217.3 135.7,217.3 		"/>
		<path class="st3" d="M175,219.6c0-1.4-1.1-2.5-2.5-2.5c-1.5,0-2.5,1-2.5,2.8h1.4c0-0.9,0.5-1.5,1.2-1.5c0.6,0,1.1,0.5,1.1,1.2
			c0,0.5-0.3,0.9-0.9,1.5l-2.7,2.6v1.2h4.9v-1.3h-3l1.6-1.4C174.7,221.2,175,220.6,175,219.6z"/>
		<path class="st3" d="M207.7,220.5c0.4-0.3,0.6-0.7,0.6-1.3c0-1.2-0.9-2.1-2.1-2.1c-1.1,0-1.9,0.7-2,2h1.4c0.1-0.5,0.3-0.7,0.6-0.7
			c0.4,0,0.7,0.3,0.7,0.7c0,0.5-0.3,0.8-1.2,0.8v1.3h0.2c0.9,0,1.5,0.5,1.5,1.3c0,0.7-0.5,1.3-1.2,1.3c-0.7,0-1.1-0.5-1.2-1.2h-1.4
			c0.1,1.4,1.2,2.4,2.6,2.4c1.5,0,2.6-1.1,2.6-2.6C208.9,221.5,208.5,220.9,207.7,220.5z"/>
		<path class="st3" d="M138.7,246.2h-1.2l-3.5,5.4v1.1h3.3v1.1h1.4v-1.1h0.8v-1.2h-0.8V246.2z M137.4,251.4h-1.9l1.9-2.9V251.4z"/>
		<path class="st3" d="M172.6,248.7c-0.4,0-0.6,0.1-1,0.2l0.2-1.4h2.4v-1.3h-3.4l-0.7,4l1.2,0.3c0.3-0.4,0.6-0.6,1.1-0.6
			c0.7,0,1.2,0.6,1.2,1.4c0,0.8-0.5,1.4-1.3,1.4c-0.7,0-1.1-0.4-1.2-1.2h-1.4c0.1,1.4,1.3,2.4,2.7,2.4c1.5,0,2.6-1.2,2.6-2.7
			C175,249.8,174,248.7,172.6,248.7z"/>
		<path class="st3" d="M207,248.8c-0.2,0-0.4,0-0.6,0.1l1.8-2.7h-1.6l-2,3c-0.5,0.8-0.8,1.4-0.8,2.1c0,1.5,1.1,2.6,2.7,2.6
			c1.5,0,2.6-1.1,2.6-2.7C209.1,249.8,208.2,248.8,207,248.8z M206.5,252.7c-0.8,0-1.3-0.6-1.3-1.3c0-0.8,0.5-1.4,1.3-1.4
			c0.7,0,1.3,0.6,1.3,1.4C207.7,252.1,207.2,252.7,206.5,252.7z"/>
		<polygon class="st3" points="134.8,276.1 137.8,276.1 134.9,282.5 136.5,282.5 139.2,276.1 139.2,274.8 134.8,274.8 		"/>
		<path class="st3" d="M173.9,278.2c0.4-0.4,0.6-0.8,0.6-1.4c0-1.2-0.9-2.1-2.1-2.1c-1.2,0-2.1,0.9-2.1,2.1c0,0.6,0.2,0.9,0.6,1.4
			c-0.8,0.4-1.1,1.1-1.1,1.9c0,1.4,1.1,2.5,2.5,2.5c1.4,0,2.5-1.1,2.5-2.5C175,279.2,174.7,278.7,173.9,278.2z M172.5,276
			c0.4,0,0.8,0.4,0.8,0.8c0,0.5-0.4,0.8-0.8,0.8c-0.4,0-0.8-0.4-0.8-0.8C171.7,276.3,172,276,172.5,276z M172.5,281.3
			c-0.7,0-1.2-0.5-1.2-1.2c0-0.7,0.5-1.2,1.2-1.2c0.6,0,1.1,0.5,1.1,1.2C173.6,280.8,173.1,281.3,172.5,281.3z"/>
		<path class="st3" d="M172.5,303.5c-1.6,0-2.6,1-2.6,2.6v2.6c0,1.7,1.1,2.7,2.6,2.7c1.5,0,2.5-1,2.5-2.7v-2.7
			C175,304.5,174,303.5,172.5,303.5z M173.7,308.7c0,1-0.4,1.4-1.2,1.4c-0.8,0-1.2-0.5-1.2-1.5v-2.5c0-0.8,0.5-1.4,1.2-1.4
			c0.7,0,1.2,0.5,1.2,1.4V308.7z"/>
		<path class="st3" d="M208.4,303.7h-0.9l-0.3,2.2h-0.9l0.3-2.2h-0.9l-0.3,2.2h-1.1v1h1l-0.1,0.9h-1.1v1h1l-0.3,2.4h0.9l0.3-2.4h0.9
			l-0.3,2.4h0.9l0.3-2.4h1.1v-1h-0.9l0.1-0.9h1.1v-1h-0.9L208.4,303.7z M206.9,307.8H206l0.1-0.9h0.9L206.9,307.8z"/>
		<rect x="144.1" y="310" class="st3" width="1.4" height="1.3"/>
		<path class="st3" d="M206.4,274.7c-1.5,0-2.6,1.1-2.6,2.7c0,1.4,0.9,2.4,2.1,2.4c0.2,0,0.4,0,0.6-0.1l-1.8,2.7h1.6l2-3
			c0.5-0.8,0.8-1.4,0.8-2.1C209.1,275.8,207.9,274.7,206.4,274.7z M206.4,278.7c-0.7,0-1.2-0.6-1.2-1.4c0-0.8,0.5-1.3,1.2-1.3
			c0.8,0,1.3,0.6,1.3,1.3C207.7,278.1,207.2,278.7,206.4,278.7z"/>
		<path class="st3" d="M177.5,222.3l-1.1,2.6h0.5l0.3-0.7h0.9l0.3,0.7h0.5l-1.1-2.6H177.5z M177.4,223.8l0.3-0.8l0.3,0.8H177.4z"/>
		<path class="st3" d="M180.5,223.5c0.2-0.1,0.3-0.2,0.3-0.5c0-0.2-0.1-0.4-0.3-0.6c-0.2-0.1-0.3-0.1-0.7-0.1h-0.5v2.6h0.7
			c0.7,0,1-0.3,1-0.8C180.9,223.8,180.8,223.6,180.5,223.5z M179.7,222.8h0.2c0.3,0,0.4,0.1,0.4,0.3c0,0.2-0.1,0.3-0.4,0.3h-0.2
			V222.8z M180,224.5h-0.2v-0.7h0.2c0.3,0,0.5,0.1,0.5,0.3C180.5,224.4,180.3,224.5,180,224.5z"/>
		<path class="st3" d="M182.5,222.7c0.3,0,0.5,0.1,0.7,0.3h0.5c-0.2-0.5-0.7-0.8-1.2-0.8c-0.7,0-1.3,0.6-1.3,1.3
			c0,0.8,0.6,1.4,1.4,1.4c0.5,0,1-0.3,1.2-0.8h-0.6c-0.2,0.2-0.4,0.3-0.6,0.3c-0.5,0-0.9-0.4-0.9-0.9
			C181.6,223.1,182,222.7,182.5,222.7z"/>
		<path class="st3" d="M213.3,222.5c-0.2-0.1-0.5-0.2-0.9-0.2h-0.6v2.6h0.6c0.4,0,0.6,0,0.8-0.1c0.4-0.2,0.6-0.6,0.6-1.2
			C213.8,223.1,213.6,222.7,213.3,222.5z M213,224.4c-0.1,0.1-0.3,0.1-0.6,0.1h-0.1v-1.7h0.1c0.3,0,0.5,0,0.6,0.1
			c0.2,0.1,0.4,0.4,0.4,0.7C213.3,223.9,213.2,224.2,213,224.4z"/>
		<polygon class="st3" points="214.2,224.9 215.6,224.9 215.6,224.5 214.7,224.5 214.7,223.9 215.6,223.9 215.6,223.4 214.7,223.4
			214.7,222.8 215.6,222.8 215.6,222.3 214.2,222.3 		"/>
		<polygon class="st3" points="216.1,224.9 216.5,224.9 216.5,223.9 217.3,223.9 217.3,223.4 216.5,223.4 216.5,222.8 217.4,222.8
			217.4,222.3 216.1,222.3 		"/>
		<path class="st3" d="M178.1,253.1c0,0.2-0.1,0.3-0.2,0.3c-0.1,0-0.2-0.1-0.2-0.2h-0.5c0,0.4,0.3,0.7,0.7,0.7
			c0.4,0,0.7-0.3,0.7-0.8v-1.9h-0.5V253.1z"/>
		<polygon class="st3" points="180.4,251.3 179.6,252.4 179.6,251.3 179.1,251.3 179.1,253.9 179.6,253.9 179.6,252.7 180.4,253.9
			181,253.9 180,252.6 181,251.3 		"/>
		<polygon class="st3" points="181.8,251.3 181.3,251.3 181.3,253.9 182.6,253.9 182.6,253.4 181.8,253.4 		"/>
		<polygon class="st3" points="212.2,253.3 211.5,251.3 210.8,251.3 210.8,253.9 211.3,253.9 211.3,251.9 212,253.9 212.4,253.9
			213,251.9 213,253.9 213.5,253.9 213.5,251.3 212.9,251.3 		"/>
		<polygon class="st3" points="215.6,253.2 214.5,251.3 214,251.3 214,253.9 214.5,253.9 214.5,252 215.6,253.9 216.1,253.9
			216.1,251.3 215.6,251.3 		"/>
		<path class="st3" d="M217.8,251.2c-0.8,0-1.4,0.6-1.4,1.4c0,0.8,0.6,1.3,1.4,1.3c0.8,0,1.3-0.6,1.3-1.4
			C219.2,251.8,218.6,251.2,217.8,251.2z M217.8,253.5c-0.5,0-0.9-0.4-0.9-0.9c0-0.5,0.4-0.9,0.9-0.9c0.5,0,0.9,0.4,0.9,0.9
			C218.7,253.1,218.3,253.5,217.8,253.5z"/>
		<path class="st3" d="M142.9,253h1.1c-0.1,0.3-0.4,0.5-0.8,0.5c-0.5,0-0.9-0.4-0.9-0.9c0-0.5,0.4-0.9,0.9-0.9
			c0.3,0,0.6,0.1,0.7,0.3h0.6c-0.2-0.5-0.7-0.8-1.3-0.8c-0.8,0-1.4,0.6-1.4,1.3c0,0.8,0.6,1.4,1.4,1.4c0.8,0,1.4-0.6,1.4-1.3v-0.1
			h-1.7V253z"/>
		<polygon class="st3" points="146.3,252.3 145.4,252.3 145.4,251.3 144.9,251.3 144.9,253.9 145.4,253.9 145.4,252.8 146.3,252.8
			146.3,253.9 146.8,253.9 146.8,251.3 146.3,251.3 		"/>
		<rect x="147.3" y="251.3" class="st3" width="0.5" height="2.6"/>
		<polygon class="st3" points="177,280.5 177.5,280.5 177.5,282.6 177.9,282.6 177.9,280.5 178.4,280.5 178.4,280 177,280 		"/>
		<path class="st3" d="M180,281.7c0,0.4-0.2,0.5-0.4,0.5c-0.2,0-0.4-0.1-0.4-0.5V280h-0.5v1.7c0,0.7,0.4,1,0.9,1
			c0.5,0,0.9-0.3,0.9-1V280H180V281.7z"/>
		<polygon class="st3" points="181.9,282 181.2,280 180.7,280 181.8,282.6 182.1,282.6 183.2,280 182.6,280 		"/>
		<path class="st3" d="M141,280h-0.6v2.6h0.5v-1h0.2c0.4,0,0.5,0,0.7-0.1c0.2-0.1,0.3-0.4,0.3-0.7c0-0.3-0.1-0.5-0.4-0.7
			C141.6,280,141.4,280,141,280z M141,281.2h-0.1v-0.7h0.2c0.4,0,0.5,0.1,0.5,0.3C141.6,281,141.5,281.2,141,281.2z"/>
		<path class="st3" d="M144.7,282.2c0.2-0.2,0.3-0.5,0.3-0.8c0-0.8-0.6-1.4-1.4-1.4c-0.8,0-1.4,0.6-1.4,1.3c0,0.8,0.6,1.4,1.4,1.4
			c0.3,0,0.5-0.1,0.7-0.2c0.2,0.2,0.4,0.2,0.6,0.2c0,0,0.1,0,0.1,0v-0.4c0,0-0.1,0-0.1,0C144.9,282.2,144.8,282.2,144.7,282.2z
			 M143.7,282.2c-0.3,0-0.6-0.1-0.8-0.4c0.1,0,0.2,0,0.3,0c0.3,0,0.5,0.1,0.8,0.3C143.9,282.2,143.8,282.2,143.7,282.2z
			 M144.3,281.9c-0.3-0.3-0.8-0.5-1.2-0.5c-0.2,0-0.3,0-0.4,0c0-0.1,0-0.1,0-0.1c0-0.5,0.4-0.9,0.9-0.9c0.5,0,0.9,0.4,0.9,0.9
			C144.5,281.6,144.5,281.8,144.3,281.9z"/>
		<path class="st3" d="M147.1,280.8c0-0.3-0.1-0.5-0.3-0.6c-0.2-0.1-0.4-0.2-0.7-0.2h-0.8v2.6h0.5v-1l0.7,1h0.6l-0.7-1
			C146.9,281.5,147.1,281.3,147.1,280.8z M145.8,281.3v-0.8h0.2c0.5,0,0.6,0.2,0.6,0.4c0,0.3-0.2,0.4-0.5,0.4H145.8z"/>
		<path class="st3" d="M148.2,281c-0.2-0.1-0.3-0.1-0.3-0.1c-0.1-0.1-0.1-0.1-0.1-0.2c0-0.2,0.1-0.3,0.3-0.3c0.2,0,0.3,0.1,0.3,0.3
			h0.5c0-0.5-0.4-0.7-0.8-0.7c-0.4,0-0.8,0.3-0.8,0.7c0,0.3,0.2,0.6,0.5,0.7c0.3,0.1,0.4,0.1,0.5,0.2c0.1,0.1,0.1,0.2,0.1,0.3
			c0,0.2-0.1,0.3-0.4,0.3c-0.2,0-0.3-0.1-0.4-0.3h-0.5c0,0.5,0.4,0.8,0.9,0.8c0.5,0,0.8-0.4,0.8-0.8
			C148.9,281.5,148.8,281.2,148.2,281z"/>
		<polygon class="st3" points="212.2,281.8 211.8,280 211.4,280 211,281.8 210.5,280 210,280 210.8,282.6 211.2,282.6 211.6,280.9
			212,282.6 212.4,282.6 213.2,280 212.7,280 		"/>
		<polygon class="st3" points="215,280 214.4,280.9 213.8,280 213.2,280 214.1,281.3 213.2,282.6 213.8,282.6 214.4,281.7
			215,282.6 215.6,282.6 214.7,281.3 215.6,280 		"/>
		<polygon class="st3" points="216.7,281.2 216.1,280 215.6,280 216.4,281.7 216.4,282.6 216.9,282.6 216.9,281.7 217.8,280
			217.3,280 		"/>
		<polygon class="st3" points="219.4,280.4 219.4,280 217.9,280 217.9,280.5 218.8,280.5 217.8,282.2 217.8,282.6 219.5,282.6
			219.5,282.2 218.4,282.2 		"/>
		<path class="st3" d="M211.4,309.5c-0.2-0.1-0.3-0.1-0.3-0.1c-0.1-0.1-0.1-0.1-0.1-0.2c0-0.2,0.1-0.3,0.3-0.3
			c0.2,0,0.3,0.1,0.3,0.3h0.5c0-0.5-0.4-0.7-0.8-0.7c-0.4,0-0.8,0.3-0.8,0.7c0,0.3,0.2,0.6,0.5,0.7c0.3,0.1,0.4,0.1,0.5,0.2
			c0.1,0.1,0.1,0.2,0.1,0.3c0,0.2-0.1,0.3-0.4,0.3c-0.2,0-0.3-0.1-0.4-0.3h-0.5c0,0.5,0.4,0.8,0.9,0.8c0.5,0,0.8-0.4,0.8-0.8
			C212.1,309.9,212,309.7,211.4,309.5z"/>
		<polygon class="st3" points="212.4,311.1 213.8,311.1 213.8,310.6 212.9,310.6 212.9,310 213.8,310 213.8,309.5 212.9,309.5
			212.9,308.9 213.8,308.9 213.8,308.5 212.4,308.5 		"/>
		<polygon class="st3" points="215.9,310.4 214.8,308.5 214.3,308.5 214.3,311.1 214.8,311.1 214.8,309.2 215.9,311.1 216.4,311.1
			216.4,308.5 215.9,308.5 		"/>
		<path class="st3" d="M218.4,308.6c-0.2-0.1-0.5-0.2-0.9-0.2h-0.6v2.6h0.6c0.4,0,0.6,0,0.8-0.1c0.4-0.2,0.6-0.6,0.6-1.2
			C219,309.3,218.8,308.9,218.4,308.6z M218.1,310.5c-0.1,0.1-0.3,0.1-0.6,0.1h-0.1v-1.7h0.1c0.3,0,0.5,0,0.6,0.1
			c0.2,0.1,0.4,0.4,0.4,0.7C218.5,310.1,218.4,310.4,218.1,310.5z"/>
		<polygon class="st3" points="140.7,304.6 139.2,303.6 137.9,305.9 136.8,303.6 135.1,304.5 136.5,306.8 133.9,306.6 133.9,308.5
			136.5,308.3 135.1,310.7 136.8,311.6 137.9,309.2 139.2,311.6 140.7,310.5 139.3,308.4 141.9,308.5 141.9,306.6 139.3,306.8 		"/>
		<path class="st3" d="M149.4,212.8h-16.2c-1.4,0-2.5,1.1-2.5,2.5v10.8c0,1.4,1.1,2.5,2.5,2.5h16.2c1.4,0,2.5-1.1,2.5-2.5v-10.8
			C151.9,213.9,150.8,212.8,149.4,212.8z M151.6,226.1c0,1.2-1,2.3-2.3,2.3h-16.2c-1.2,0-2.3-1-2.3-2.3v-10.8c0-1.2,1-2.3,2.3-2.3
			h16.2c1.2,0,2.3,1,2.3,2.3V226.1z"/>
		<path class="st3" d="M150,211.3h-17.5c-2.2,0-3.9,1.8-3.9,3.9v11c0,2.2,1.8,3.9,3.9,3.9H150c2.2,0,3.9-1.8,3.9-3.9v-11
			C154,213,152.2,211.3,150,211.3z M153.7,226.2c0,2-1.6,3.7-3.7,3.7h-17.5c-2,0-3.7-1.6-3.7-3.7v-11c0-2,1.6-3.7,3.7-3.7H150
			c2,0,3.7,1.6,3.7,3.7V226.2z"/>
		<path class="st3" d="M184,212.8h-16.2c-1.4,0-2.5,1.1-2.5,2.5v10.8c0,1.4,1.1,2.5,2.5,2.5H184c1.4,0,2.5-1.1,2.5-2.5v-10.8
			C186.5,213.9,185.4,212.8,184,212.8z M186.3,226.1c0,1.2-1,2.3-2.3,2.3h-16.2c-1.2,0-2.3-1-2.3-2.3v-10.8c0-1.2,1-2.3,2.3-2.3H184
			c1.2,0,2.3,1,2.3,2.3V226.1z"/>
		<path class="st3" d="M184.7,211.3h-17.5c-2.2,0-3.9,1.8-3.9,3.9v11c0,2.2,1.8,3.9,3.9,3.9h17.5c2.2,0,3.9-1.8,3.9-3.9v-11
			C188.6,213,186.9,211.3,184.7,211.3z M188.3,226.2c0,2-1.6,3.7-3.7,3.7h-17.5c-2,0-3.7-1.6-3.7-3.7v-11c0-2,1.6-3.7,3.7-3.7h17.5
			c2,0,3.7,1.6,3.7,3.7V226.2z"/>
		<path class="st3" d="M218.7,212.8h-16.2c-1.4,0-2.5,1.1-2.5,2.5v10.8c0,1.4,1.1,2.5,2.5,2.5h16.2c1.4,0,2.5-1.1,2.5-2.5v-10.8
			C221.2,213.9,220.1,212.8,218.7,212.8z M220.9,226.1c0,1.2-1,2.3-2.3,2.3h-16.2c-1.2,0-2.3-1-2.3-2.3v-10.8c0-1.2,1-2.3,2.3-2.3
			h16.2c1.2,0,2.3,1,2.3,2.3V226.1z"/>
		<path class="st3" d="M219.3,211.3h-17.5c-2.2,0-3.9,1.8-3.9,3.9v11c0,2.2,1.8,3.9,3.9,3.9h17.5c2.2,0,3.9-1.8,3.9-3.9v-11
			C223.3,213,221.5,211.3,219.3,211.3z M223,226.2c0,2-1.6,3.7-3.7,3.7h-17.5c-2,0-3.7-1.6-3.7-3.7v-11c0-2,1.6-3.7,3.7-3.7h17.5
			c2,0,3.7,1.6,3.7,3.7V226.2z"/>
		<path class="st3" d="M149.4,241.7h-16.2c-1.4,0-2.5,1.1-2.5,2.5v10.8c0,1.4,1.1,2.5,2.5,2.5h16.2c1.4,0,2.5-1.1,2.5-2.5v-10.8
			C151.9,242.9,150.8,241.7,149.4,241.7z M151.6,255.1c0,1.2-1,2.3-2.3,2.3h-16.2c-1.2,0-2.3-1-2.3-2.3v-10.8c0-1.2,1-2.3,2.3-2.3
			h16.2c1.2,0,2.3,1,2.3,2.3V255.1z"/>
		<path class="st3" d="M150,240.2h-17.5c-2.2,0-3.9,1.8-3.9,3.9v11c0,2.2,1.8,3.9,3.9,3.9H150c2.2,0,3.9-1.8,3.9-3.9v-11
			C154,242,152.2,240.2,150,240.2z M153.7,255.2c0,2-1.6,3.7-3.7,3.7h-17.5c-2,0-3.7-1.6-3.7-3.7v-11c0-2,1.6-3.7,3.7-3.7H150
			c2,0,3.7,1.6,3.7,3.7V255.2z"/>
		<path class="st3" d="M184,241.7h-16.2c-1.4,0-2.5,1.1-2.5,2.5v10.8c0,1.4,1.1,2.5,2.5,2.5H184c1.4,0,2.5-1.1,2.5-2.5v-10.8
			C186.5,242.9,185.4,241.7,184,241.7z M186.3,255.1c0,1.2-1,2.3-2.3,2.3h-16.2c-1.2,0-2.3-1-2.3-2.3v-10.8c0-1.2,1-2.3,2.3-2.3H184
			c1.2,0,2.3,1,2.3,2.3V255.1z"/>
		<path class="st3" d="M184.7,240.2h-17.5c-2.2,0-3.9,1.8-3.9,3.9v11c0,2.2,1.8,3.9,3.9,3.9h17.5c2.2,0,3.9-1.8,3.9-3.9v-11
			C188.6,242,186.9,240.2,184.7,240.2z M188.3,255.2c0,2-1.6,3.7-3.7,3.7h-17.5c-2,0-3.7-1.6-3.7-3.7v-11c0-2,1.6-3.7,3.7-3.7h17.5
			c2,0,3.7,1.6,3.7,3.7V255.2z"/>
		<path class="st3" d="M218.7,241.7h-16.2c-1.4,0-2.5,1.1-2.5,2.5v10.8c0,1.4,1.1,2.5,2.5,2.5h16.2c1.4,0,2.5-1.1,2.5-2.5v-10.8
			C221.2,242.9,220.1,241.7,218.7,241.7z M220.9,255.1c0,1.2-1,2.3-2.3,2.3h-16.2c-1.2,0-2.3-1-2.3-2.3v-10.8c0-1.2,1-2.3,2.3-2.3
			h16.2c1.2,0,2.3,1,2.3,2.3V255.1z"/>
		<path class="st3" d="M219.3,240.2h-17.5c-2.2,0-3.9,1.8-3.9,3.9v11c0,2.2,1.8,3.9,3.9,3.9h17.5c2.2,0,3.9-1.8,3.9-3.9v-11
			C223.3,242,221.5,240.2,219.3,240.2z M223,255.2c0,2-1.6,3.7-3.7,3.7h-17.5c-2,0-3.7-1.6-3.7-3.7v-11c0-2,1.6-3.7,3.7-3.7h17.5
			c2,0,3.7,1.6,3.7,3.7V255.2z"/>
		<path class="st3" d="M149.4,270.7h-16.2c-1.4,0-2.5,1.1-2.5,2.5V284c0,1.4,1.1,2.5,2.5,2.5h16.2c1.4,0,2.5-1.1,2.5-2.5v-10.8
			C151.9,271.8,150.8,270.7,149.4,270.7z M151.6,284c0,1.2-1,2.3-2.3,2.3h-16.2c-1.2,0-2.3-1-2.3-2.3v-10.8c0-1.2,1-2.3,2.3-2.3
			h16.2c1.2,0,2.3,1,2.3,2.3V284z"/>
		<path class="st3" d="M150,269.1h-17.5c-2.2,0-3.9,1.8-3.9,3.9v11c0,2.2,1.8,3.9,3.9,3.9H150c2.2,0,3.9-1.8,3.9-3.9v-11
			C154,270.9,152.2,269.1,150,269.1z M153.7,284.1c0,2-1.6,3.7-3.7,3.7h-17.5c-2,0-3.7-1.6-3.7-3.7v-11c0-2,1.6-3.7,3.7-3.7H150
			c2,0,3.7,1.6,3.7,3.7V284.1z"/>
		<path class="st3" d="M184,270.7h-16.2c-1.4,0-2.5,1.1-2.5,2.5V284c0,1.4,1.1,2.5,2.5,2.5H184c1.4,0,2.5-1.1,2.5-2.5v-10.8
			C186.5,271.8,185.4,270.7,184,270.7z M186.3,284c0,1.2-1,2.3-2.3,2.3h-16.2c-1.2,0-2.3-1-2.3-2.3v-10.8c0-1.2,1-2.3,2.3-2.3H184
			c1.2,0,2.3,1,2.3,2.3V284z"/>
		<path class="st3" d="M184.7,269.1h-17.5c-2.2,0-3.9,1.8-3.9,3.9v11c0,2.2,1.8,3.9,3.9,3.9h17.5c2.2,0,3.9-1.8,3.9-3.9v-11
			C188.6,270.9,186.9,269.1,184.7,269.1z M188.3,284.1c0,2-1.6,3.7-3.7,3.7h-17.5c-2,0-3.7-1.6-3.7-3.7v-11c0-2,1.6-3.7,3.7-3.7
			h17.5c2,0,3.7,1.6,3.7,3.7V284.1z"/>
		<path class="st3" d="M218.7,270.7h-16.2c-1.4,0-2.5,1.1-2.5,2.5V284c0,1.4,1.1,2.5,2.5,2.5h16.2c1.4,0,2.5-1.1,2.5-2.5v-10.8
			C221.2,271.8,220.1,270.7,218.7,270.7z M220.9,284c0,1.2-1,2.3-2.3,2.3h-16.2c-1.2,0-2.3-1-2.3-2.3v-10.8c0-1.2,1-2.3,2.3-2.3
			h16.2c1.2,0,2.3,1,2.3,2.3V284z"/>
		<path class="st3" d="M219.3,269.1h-17.5c-2.2,0-3.9,1.8-3.9,3.9v11c0,2.2,1.8,3.9,3.9,3.9h17.5c2.2,0,3.9-1.8,3.9-3.9v-11
			C223.3,270.9,221.5,269.1,219.3,269.1z M223,284.1c0,2-1.6,3.7-3.7,3.7h-17.5c-2,0-3.7-1.6-3.7-3.7v-11c0-2,1.6-3.7,3.7-3.7h17.5
			c2,0,3.7,1.6,3.7,3.7V284.1z"/>
		<path class="st3" d="M149.4,299.6h-16.2c-1.4,0-2.5,1.1-2.5,2.5v10.8c0,1.4,1.1,2.5,2.5,2.5h16.2c1.4,0,2.5-1.1,2.5-2.5v-10.8
			C151.9,300.7,150.8,299.6,149.4,299.6z M151.6,312.9c0,1.2-1,2.3-2.3,2.3h-16.2c-1.2,0-2.3-1-2.3-2.3v-10.8c0-1.2,1-2.3,2.3-2.3
			h16.2c1.2,0,2.3,1,2.3,2.3V312.9z"/>
		<path class="st3" d="M150,298h-17.5c-2.2,0-3.9,1.8-3.9,3.9v11c0,2.2,1.8,3.9,3.9,3.9H150c2.2,0,3.9-1.8,3.9-3.9v-11
			C154,299.8,152.2,298,150,298z M153.7,313c0,2-1.6,3.7-3.7,3.7h-17.5c-2,0-3.7-1.6-3.7-3.7v-11c0-2,1.6-3.7,3.7-3.7H150
			c2,0,3.7,1.6,3.7,3.7V313z"/>
		<path class="st3" d="M184,299.6h-16.2c-1.4,0-2.5,1.1-2.5,2.5v10.8c0,1.4,1.1,2.5,2.5,2.5H184c1.4,0,2.5-1.1,2.5-2.5v-10.8
			C186.5,300.7,185.4,299.6,184,299.6z M186.3,312.9c0,1.2-1,2.3-2.3,2.3h-16.2c-1.2,0-2.3-1-2.3-2.3v-10.8c0-1.2,1-2.3,2.3-2.3H184
			c1.2,0,2.3,1,2.3,2.3V312.9z"/>
		<path class="st3" d="M184.7,298h-17.5c-2.2,0-3.9,1.8-3.9,3.9v11c0,2.2,1.8,3.9,3.9,3.9h17.5c2.2,0,3.9-1.8,3.9-3.9v-11
			C188.6,299.8,186.9,298,184.7,298z M188.3,313c0,2-1.6,3.7-3.7,3.7h-17.5c-2,0-3.7-1.6-3.7-3.7v-11c0-2,1.6-3.7,3.7-3.7h17.5
			c2,0,3.7,1.6,3.7,3.7V313z"/>
		<path class="st3" d="M218.7,299.6h-16.2c-1.4,0-2.5,1.1-2.5,2.5v10.8c0,1.4,1.1,2.5,2.5,2.5h16.2c1.4,0,2.5-1.1,2.5-2.5v-10.8
			C221.2,300.7,220.1,299.6,218.7,299.6z M220.9,312.9c0,1.2-1,2.3-2.3,2.3h-16.2c-1.2,0-2.3-1-2.3-2.3v-10.8c0-1.2,1-2.3,2.3-2.3
			h16.2c1.2,0,2.3,1,2.3,2.3V312.9z"/>
		<path class="st3" d="M219.3,298h-17.5c-2.2,0-3.9,1.8-3.9,3.9v11c0,2.2,1.8,3.9,3.9,3.9h17.5c2.2,0,3.9-1.8,3.9-3.9v-11
			C223.3,299.8,221.5,298,219.3,298z M223,313c0,2-1.6,3.7-3.7,3.7h-17.5c-2,0-3.7-1.6-3.7-3.7v-11c0-2,1.6-3.7,3.7-3.7h17.5
			c2,0,3.7,1.6,3.7,3.7V313z"/>
		<path class="st3" d="M281.9,238.5c3.1,0,5.6-2.5,5.6-5.6c0-3.1-2.5-5.6-5.6-5.6c-3.1,0-5.6,2.5-5.6,5.6
			C276.3,235.9,278.8,238.5,281.9,238.5z M281.9,227.5c3,0,5.4,2.4,5.4,5.4c0,3-2.4,5.4-5.4,5.4c-3,0-5.4-2.4-5.4-5.4
			C276.6,229.9,279,227.5,281.9,227.5z"/>
		<path class="st3" d="M298.5,232.9c0,3.1,2.5,5.6,5.6,5.6c3.1,0,5.6-2.5,5.6-5.6c0-3.1-2.5-5.6-5.6-5.6
			C301,227.3,298.5,229.8,298.5,232.9z M304.1,227.5c3,0,5.4,2.4,5.4,5.4c0,3-2.4,5.4-5.4,5.4c-3,0-5.4-2.4-5.4-5.4
			C298.7,229.9,301.1,227.5,304.1,227.5z"/>
		<path class="st3" d="M259.6,238.5c3.1,0,5.6-2.5,5.6-5.6c0-3.1-2.5-5.6-5.6-5.6s-5.6,2.5-5.6,5.6
			C254,235.9,256.5,238.5,259.6,238.5z M259.6,227.5c3,0,5.4,2.4,5.4,5.4c0,3-2.4,5.4-5.4,5.4s-5.4-2.4-5.4-5.4
			C254.2,229.9,256.6,227.5,259.6,227.5z"/>
		<path class="st3" d="M281.9,216.3c3.1,0,5.6-2.5,5.6-5.6c0-3.1-2.5-5.6-5.6-5.6c-3.1,0-5.6,2.5-5.6,5.6
			C276.3,213.8,278.8,216.3,281.9,216.3z M281.9,205.3c3,0,5.4,2.4,5.4,5.4c0,3-2.4,5.4-5.4,5.4c-3,0-5.4-2.4-5.4-5.4
			C276.6,207.7,279,205.3,281.9,205.3z"/>
		<path class="st3" d="M281.9,249.4c-3.1,0-5.6,2.5-5.6,5.6c0,3.1,2.5,5.6,5.6,5.6c3.1,0,5.6-2.5,5.6-5.6
			C287.5,252,285,249.4,281.9,249.4z M281.9,260.4c-3,0-5.4-2.4-5.4-5.4c0-3,2.4-5.4,5.4-5.4c3,0,5.4,2.4,5.4,5.4
			C287.3,258,284.9,260.4,281.9,260.4z"/>
		<path class="st3" d="M281.9,239.9c3.9,0,7-3.2,7-7s-3.2-7-7-7c-3.9,0-7,3.2-7,7S278,239.9,281.9,239.9z M281.9,226
			c3.8,0,6.8,3.1,6.8,6.8c0,3.8-3.1,6.8-6.8,6.8c-3.8,0-6.8-3.1-6.8-6.8C275.1,229.1,278.2,226,281.9,226z"/>
		<path class="st3" d="M281.9,273.8c-3.1,0-5.6,2.5-5.6,5.6c0,3.1,2.5,5.6,5.6,5.6c3.1,0,5.6-2.5,5.6-5.6
			C287.5,276.3,285,273.8,281.9,273.8z M281.9,284.8c-3,0-5.4-2.4-5.4-5.4c0-3,2.4-5.4,5.4-5.4c3,0,5.4,2.4,5.4,5.4
			C287.3,282.4,284.9,284.8,281.9,284.8z"/>
		<path class="st3" d="M281.9,243.7c6,0,10.9-4.9,10.9-10.9c0-6-4.9-10.9-10.9-10.9c-6,0-10.9,4.9-10.9,10.9
			C271.1,238.8,275.9,243.7,281.9,243.7z M281.9,222.2c5.9,0,10.6,4.8,10.6,10.6s-4.8,10.6-10.6,10.6s-10.6-4.8-10.6-10.6
			S276.1,222.2,281.9,222.2z"/>
		<path class="st3" d="M259.6,239.9c0.2,0,0.5,0,0.7,0c2.2,6.9,7.7,12.4,14.6,14.7c0,0.2,0,0.4,0,0.5c0,1.8,0.7,3.4,1.7,4.6
			l-0.1,0.1c1.4,2.1,2.2,5.1,2.2,7.7c-0.1,2.6-1,4.9-2.9,8.3l0.1,0c-0.6,1.1-1,2.3-1,3.6c0,3.9,3.2,7,7,7c3.9,0,7-3.2,7-7
			c0-1.7-0.6-3.2-1.6-4.4l0.1-0.1c-1.7-2.1-2.4-4.3-2.5-7.4c-0.1-2.5,0.8-5.4,2.5-8l0,0c1-1.2,1.6-2.7,1.6-4.4c0-0.2,0-0.3,0-0.5
			c6.9-2.2,12.4-7.7,14.6-14.6c0.2,0,0.3,0,0.5,0c3.9,0,7-3.2,7-7s-3.2-7-7-7c-0.2,0-0.4,0-0.5,0c-2.2-6.9-7.7-12.4-14.6-14.6
			c0-0.2,0-0.3,0-0.5c0-3.9-3.2-7-7-7c-3.9,0-7,3.2-7,7c0,0.2,0,0.3,0,0.5c-6.9,2.2-12.4,7.7-14.6,14.7c-0.2,0-0.5,0-0.7,0
			c-3.9,0-7,3.2-7,7S255.7,239.9,259.6,239.9z M288.7,279.4c0,3.8-3.1,6.8-6.8,6.8c-3.8,0-6.8-3.1-6.8-6.8c0-3.8,3.1-6.8,6.8-6.8
			C285.7,272.6,288.7,275.7,288.7,279.4z M284.7,267.5c0.1,2.9,0.7,4.9,2.1,6.9c-1.3-1.2-3-2-4.9-2c-2.2,0-4.1,1-5.4,2.5
			c1.6-2.9,2.4-5,2.4-7.4c0.1-2.5-0.7-5.2-1.9-7.3c1.3,1.2,3,2,4.9,2c1.9,0,3.6-0.8,4.9-2C285.4,262.5,284.7,265.2,284.7,267.5z
			 M259.6,226c0.2,0,0.5,0,0.8,0l0-0.1l0.1,0c2.2-6.9,7.7-12.4,14.6-14.6l0-0.1l0.1,0c0-0.2,0-0.4,0-0.6c0-3.8,3.1-6.8,6.8-6.8
			c3.8,0,6.8,3.1,6.8,6.8c0,0.2,0,0.4,0,0.6l0.1,0l0,0.1c6.9,2.2,12.4,7.7,14.6,14.6l0.1,0l0,0.1c0.2,0,0.4,0,0.6,0
			c3.8,0,6.8,3.1,6.8,6.8c0,3.8-3.1,6.8-6.8,6.8c-0.2,0-0.4,0-0.6,0l0,0.1l-0.1,0c-2.2,6.9-7.7,12.4-14.6,14.6l0,0.1l-0.1,0
			c0,0.2,0,0.4,0,0.6c0,3.8-3.1,6.8-6.8,6.8c-3.8,0-6.8-3.1-6.8-6.8c0-0.2,0-0.4,0-0.6l-0.1,0l0-0.1c-6.9-2.2-12.4-7.7-14.6-14.6
			l-0.1,0l0-0.1c-0.3,0-0.5,0-0.8,0c-3.8,0-6.8-3.1-6.8-6.8C252.8,229.1,255.8,226,259.6,226z"/>
		<path class="st3" d="M261.2,226.3c3,0.8,5.2,3.5,5.2,6.6c0,3.1-2.1,5.8-5.2,6.6l0,0.1l-0.1,0c2.2,6.6,7.4,11.9,14,14l0-0.1l0.1,0
			c0.7-3.1,3.5-5.3,6.6-5.3c3.2,0,6,2.2,6.6,5.3l0.1,0l0,0.1c6.6-2.2,11.8-7.4,14-14l-0.1,0l0-0.1c-3.1-0.7-5.3-3.5-5.3-6.6
			c0-3.2,2.2-6,5.3-6.6l0-0.1l0.1,0c-2.2-6.6-7.4-11.8-14-14l0,0.1l-0.1,0c-0.7,3.1-3.5,5.4-6.6,5.4s-6-2.3-6.6-5.4l-0.1,0l0-0.1
			c-6.6,2.2-11.9,7.4-14,14l0.1,0L261.2,226.3z M275.1,212.3c0.7,3.1,3.6,5.4,6.8,5.4c3.2,0,6.1-2.3,6.8-5.4
			c6.4,2.1,11.5,7.2,13.7,13.7c-3.1,0.8-5.4,3.6-5.4,6.8c0,3.2,2.3,6.1,5.4,6.8c-2.1,6.4-7.2,11.5-13.7,13.7
			c-0.8-3.1-3.6-5.4-6.8-5.4c-3.2,0-6.1,2.3-6.8,5.4c-6.5-2.2-11.6-7.3-13.7-13.7c3.1-0.8,5.2-3.6,5.2-6.8c0-3.2-2.1-6-5.2-6.8
			C263.5,219.6,268.6,214.5,275.1,212.3z"/>
		<polygon class="st3" points="282,209.6 280,212 284,212 		"/>
		<polygon class="st3" points="260.9,231 258.6,233 260.9,235 		"/>
		<polygon class="st3" points="302.8,231 302.8,235 305.1,233 		"/>
		<polygon class="st3" points="282,256.3 284,253.9 280,253.9 		"/>
		<path class="st3" d="M307.1,306.5h-50.4c-1.1,0-2,0.9-2,2v3.7c0,1.1,0.9,2,2,2h50.4c1.1,0,2-0.9,2-2v-3.7
			C309.1,307.4,308.2,306.5,307.1,306.5z M308.9,312.2c0,1-0.8,1.8-1.8,1.8h-50.4c-1,0-1.8-0.8-1.8-1.8v-3.7c0-1,0.8-1.8,1.8-1.8
			h50.4c1,0,1.8,0.8,1.8,1.8V312.2z"/>
		<path class="st3" d="M307.7,304.2h-51.7c-2.2,0-4,1.8-4,4v4.3c0,2.2,1.8,4,4,4h51.7c2.2,0,4-1.8,4-4v-4.3
			C311.7,306,309.9,304.2,307.7,304.2z M311.4,312.5c0,2-1.6,3.7-3.7,3.7h-51.7c-2,0-3.7-1.6-3.7-3.7v-4.3c0-2,1.6-3.7,3.7-3.7h51.7
			c2,0,3.7,1.6,3.7,3.7V312.5z"/>
		<circle class="st3" cx="350" cy="220.3" r="7.5"/>
		<path class="st3" d="M350,229.6c5.1,0,9.3-4.2,9.3-9.3c0-5.1-4.2-9.3-9.3-9.3c-5.1,0-9.3,4.2-9.3,9.3
			C340.7,225.4,344.9,229.6,350,229.6z M350,211.4c4.9,0,8.9,4,8.9,8.9c0,4.9-4,8.9-8.9,8.9c-4.9,0-8.9-4-8.9-8.9
			C341.1,215.4,345.1,211.4,350,211.4z"/>
		<circle class="st3" cx="377.5" cy="220.3" r="7.5"/>
		<path class="st3" d="M377.5,229.6c5.1,0,9.3-4.2,9.3-9.3c0-5.1-4.2-9.3-9.3-9.3s-9.3,4.2-9.3,9.3
			C368.2,225.4,372.4,229.6,377.5,229.6z M377.5,211.4c4.9,0,8.9,4,8.9,8.9s-4,8.9-8.9,8.9c-4.9,0-8.9-4-8.9-8.9
			S372.6,211.4,377.5,211.4z"/>
		<path class="st3" d="M345.4,253.3h9.2c1.7,0,3-1.4,3-3v-6.7c0-1.7-1.4-3-3-3h-9.2c-1.7,0-3,1.4-3,3v6.7
			C342.4,251.9,343.8,253.3,345.4,253.3z M342.6,243.5c0-1.5,1.3-2.8,2.8-2.8h9.2c1.5,0,2.8,1.3,2.8,2.8v6.7c0,1.5-1.3,2.8-2.8,2.8
			h-9.2c-1.5,0-2.8-1.3-2.8-2.8V243.5z"/>
		<path class="st3" d="M344.3,254.8h11.4c2.1,0,3.8-1.7,3.8-3.8v-8.3c0-2.1-1.7-3.8-3.8-3.8h-11.4c-2.1,0-3.8,1.7-3.8,3.8v8.3
			C340.6,253.1,342.3,254.8,344.3,254.8z M340.9,242.7c0-1.9,1.5-3.5,3.5-3.5h11.4c1.9,0,3.5,1.5,3.5,3.5v8.3c0,1.9-1.6,3.5-3.5,3.5
			h-11.4c-1.9,0-3.5-1.5-3.5-3.5V242.7z"/>
		<path class="st3" d="M382.1,240.5h-9.2c-1.7,0-3,1.4-3,3v6.7c0,1.7,1.4,3,3,3h9.2c1.7,0,3-1.4,3-3v-6.7
			C385.1,241.9,383.7,240.5,382.1,240.5z M384.9,250.3c0,1.5-1.3,2.8-2.8,2.8h-9.2c-1.5,0-2.8-1.3-2.8-2.8v-6.7
			c0-1.5,1.3-2.8,2.8-2.8h9.2c1.5,0,2.8,1.3,2.8,2.8V250.3z"/>
		<path class="st3" d="M383.2,239h-11.4c-2.1,0-3.8,1.7-3.8,3.8v8.3c0,2.1,1.7,3.8,3.8,3.8h11.4c2.1,0,3.8-1.7,3.8-3.8v-8.3
			C386.9,240.7,385.2,239,383.2,239z M386.6,251.1c0,1.9-1.6,3.5-3.5,3.5h-11.4c-1.9,0-3.5-1.5-3.5-3.5v-8.3c0-1.9,1.5-3.5,3.5-3.5
			h11.4c1.9,0,3.5,1.5,3.5,3.5V251.1z"/>
		<path class="st3" d="M345.4,282.9h9.2c1.7,0,3-1.4,3-3v-6.7c0-1.7-1.4-3-3-3h-9.2c-1.7,0-3,1.4-3,3v6.7
			C342.4,281.5,343.8,282.9,345.4,282.9z M342.6,273.1c0-1.5,1.3-2.8,2.8-2.8h9.2c1.5,0,2.8,1.3,2.8,2.8v6.7c0,1.5-1.3,2.8-2.8,2.8
			h-9.2c-1.5,0-2.8-1.3-2.8-2.8V273.1z"/>
		<path class="st3" d="M344.3,284.4h11.4c2.1,0,3.8-1.7,3.8-3.8v-8.3c0-2.1-1.7-3.8-3.8-3.8h-11.4c-2.1,0-3.8,1.7-3.8,3.8v8.3
			C340.6,282.7,342.3,284.4,344.3,284.4z M340.9,272.3c0-1.9,1.5-3.5,3.5-3.5h11.4c1.9,0,3.5,1.5,3.5,3.5v8.3c0,1.9-1.6,3.5-3.5,3.5
			h-11.4c-1.9,0-3.5-1.5-3.5-3.5V272.3z"/>
		<path class="st3" d="M381.6,299.8h-36.1c-1.7,0-3,1.4-3,3v6.7c0,1.7,1.4,3,3,3h36.1c1.7,0,3-1.4,3-3v-6.7
			C384.6,301.1,383.3,299.8,381.6,299.8z M384.4,309.5c0,1.5-1.3,2.8-2.8,2.8h-36.1c-1.5,0-2.8-1.3-2.8-2.8v-6.7
			c0-1.5,1.3-2.8,2.8-2.8h36.1c1.5,0,2.8,1.3,2.8,2.8V309.5z"/>
		<path class="st3" d="M382.7,298.2h-38.3c-2.1,0-3.8,1.7-3.8,3.8v8.3c0,2.1,1.7,3.8,3.8,3.8h38.3c2.1,0,3.8-1.7,3.8-3.8V302
			C386.4,299.9,384.7,298.2,382.7,298.2z M386.1,310.3c0,1.9-1.6,3.5-3.5,3.5h-38.3c-1.9,0-3.5-1.5-3.5-3.5V302
			c0-1.9,1.5-3.5,3.5-3.5h38.3c1.9,0,3.5,1.5,3.5,3.5V310.3z"/>
		<path class="st3" d="M382.1,270.1h-9.2c-1.7,0-3,1.4-3,3v6.7c0,1.7,1.4,3,3,3h9.2c1.7,0,3-1.4,3-3v-6.7
			C385.1,271.5,383.7,270.1,382.1,270.1z M384.9,279.9c0,1.5-1.3,2.8-2.8,2.8h-9.2c-1.5,0-2.8-1.3-2.8-2.8v-6.7
			c0-1.5,1.3-2.8,2.8-2.8h9.2c1.5,0,2.8,1.3,2.8,2.8V279.9z"/>
		<path class="st3" d="M383.2,268.6h-11.4c-2.1,0-3.8,1.7-3.8,3.8v8.3c0,2.1,1.7,3.8,3.8,3.8h11.4c2.1,0,3.8-1.7,3.8-3.8v-8.3
			C386.9,270.3,385.2,268.6,383.2,268.6z M386.6,280.7c0,1.9-1.6,3.5-3.5,3.5h-11.4c-1.9,0-3.5-1.5-3.5-3.5v-8.3
			c0-1.9,1.5-3.5,3.5-3.5h11.4c1.9,0,3.5,1.5,3.5,3.5V280.7z"/>
		<path class="st3" d="M54.6,216.1c-0.6-0.3-1.2-0.2-1.9,0.2c-0.7,0.4-1.2,1.1-1.6,1.9v0c-0.4,0.8-0.5,1.7-0.4,2.4
			c0.1,0.8,0.5,1.3,1,1.6c0.2,0.1,0.4,0.2,0.7,0.2c0.4,0,0.8-0.1,1.2-0.4c0.7-0.4,1.2-1.1,1.6-1.9C56,218.4,55.7,216.6,54.6,216.1z
			 M55,220c-0.4,0.8-0.9,1.4-1.5,1.8c-0.6,0.4-1.2,0.4-1.7,0.2c-0.5-0.2-0.8-0.7-0.9-1.4c-0.1-0.7,0-1.5,0.4-2.3v0
			c0.4-0.8,0.9-1.4,1.5-1.8c0.4-0.2,0.7-0.3,1.1-0.3c0.2,0,0.4,0,0.6,0.1C55.5,216.8,55.7,218.5,55,220z"/>
		<path class="st3" d="M64.5,195.2c0.2,0.1,0.4,0.2,0.7,0.2c0.4,0,0.8-0.1,1.2-0.4c0.7-0.4,1.2-1.1,1.6-1.9c0.4-0.8,0.5-1.7,0.4-2.4
			c-0.1-0.8-0.5-1.3-1-1.6c-0.6-0.3-1.2-0.2-1.9,0.2c-0.7,0.4-1.2,1.1-1.6,1.9C63.1,192.8,63.3,194.6,64.5,195.2z M64.1,191.2
			c0.4-0.8,0.9-1.4,1.5-1.8c0.6-0.4,1.2-0.4,1.7-0.2c0.5,0.2,0.8,0.7,0.9,1.4c0.1,0.7,0,1.5-0.4,2.3c-0.4,0.8-0.9,1.4-1.5,1.8
			c-0.6,0.4-1.2,0.4-1.7,0.2C63.6,194.5,63.3,192.8,64.1,191.2z"/>
		<path class="st3" d="M46.8,217.8c0.8,0,1.7-0.3,2.6-1c1.5-1.2,2-2.9,1.2-3.9c-0.4-0.5-1-0.7-1.8-0.6c-0.8,0.1-1.6,0.4-2.3,1
			c-0.7,0.6-1.2,1.3-1.4,2c-0.2,0.7-0.2,1.4,0.2,1.9C45.6,217.6,46.1,217.8,46.8,217.8z M45.2,215.4c0.2-0.7,0.7-1.4,1.4-1.9
			c0.7-0.5,1.4-0.9,2.1-0.9c0.1,0,0.2,0,0.3,0c0.6,0,1,0.2,1.3,0.5c0.7,0.9,0.2,2.5-1.2,3.6c-1.4,1.1-3,1.3-3.7,0.4
			C45.1,216.6,45,216,45.2,215.4z"/>
		<path class="st3" d="M73.8,194.1c-0.8-1-2.6-0.8-4.1,0.4c-1.5,1.2-2,2.9-1.2,3.9c0.3,0.4,0.9,0.6,1.5,0.6c0.8,0,1.7-0.3,2.6-1
			C74.1,196.8,74.6,195,73.8,194.1z M68.7,198.2c-0.7-0.9-0.2-2.5,1.2-3.6c0.8-0.6,1.7-1,2.4-1c0.6,0,1,0.2,1.3,0.5
			c0.7,0.9,0.2,2.5-1.2,3.6C71.1,198.9,69.4,199.1,68.7,198.2z"/>
		<path class="st3" d="M45.5,211.3c1.8-0.4,3.1-1.8,2.8-3c-0.1-0.6-0.6-1.1-1.4-1.3c-0.7-0.3-1.6-0.3-2.5-0.1
			c-0.9,0.2-1.7,0.6-2.2,1.2c-0.5,0.6-0.8,1.2-0.6,1.8c0.1,0.6,0.6,1.1,1.4,1.3c0.4,0.1,0.9,0.2,1.3,0.2
			C44.7,211.4,45.1,211.3,45.5,211.3z M43.1,210.9c-0.7-0.2-1.1-0.7-1.2-1.2c-0.1-0.5,0.1-1.1,0.6-1.6c0.5-0.5,1.2-0.9,2.1-1.1
			c0.4-0.1,0.7-0.1,1.1-0.1c0.4,0,0.9,0.1,1.3,0.2c0.7,0.2,1.1,0.7,1.2,1.2c0.3,1.1-0.9,2.3-2.6,2.7
			C44.6,211.2,43.8,211.2,43.1,210.9z"/>
		<path class="st3" d="M72.2,204.3c0.4,0.1,0.9,0.2,1.3,0.2c0.4,0,0.8,0,1.1-0.1c1.8-0.4,3.1-1.8,2.8-3c-0.1-0.6-0.6-1.1-1.4-1.3
			c-0.7-0.3-1.6-0.3-2.5-0.1c-1.8,0.4-3.1,1.8-2.8,3C70.9,203.6,71.4,204.1,72.2,204.3z M73.7,200.2c0.8-0.2,1.7-0.2,2.3,0.1
			c0.7,0.2,1.1,0.7,1.2,1.2c0.3,1.1-0.9,2.3-2.6,2.7c-0.8,0.2-1.7,0.2-2.3-0.1c-0.7-0.2-1.1-0.7-1.2-1.2
			C70.8,201.8,72,200.6,73.7,200.2z"/>
		<path class="st3" d="M44.4,204.6c0.4,0.1,0.7,0.1,1.1,0.1c1.4,0,2.5-0.6,2.7-1.6c0.3-1.2-1-2.5-2.8-3c-1.8-0.4-3.5,0.3-3.8,1.5
			C41.3,202.8,42.6,204.2,44.4,204.6z M41.8,201.7c0.2-0.9,1.2-1.4,2.5-1.4c0.3,0,0.7,0,1,0.1c1.7,0.4,2.9,1.6,2.6,2.7
			c-0.2,1.1-1.8,1.7-3.5,1.3C42.8,204,41.6,202.8,41.8,201.7z"/>
		<path class="st3" d="M71.5,210c0.5,0.5,1.3,1,2.2,1.2c0.4,0.1,0.7,0.1,1.1,0.1c0.5,0,1-0.1,1.4-0.2c0.7-0.3,1.2-0.8,1.3-1.4
			c0.3-1.2-1-2.5-2.8-3c-0.9-0.2-1.8-0.2-2.5,0.1c-0.7,0.3-1.2,0.8-1.3,1.4C70.7,208.8,70.9,209.4,71.5,210z M71.1,208.2
			c0.1-0.5,0.5-0.9,1.2-1.2c0.4-0.1,0.8-0.2,1.3-0.2c0.3,0,0.7,0,1,0.1c1.7,0.4,2.9,1.6,2.6,2.7c-0.1,0.5-0.5,0.9-1.2,1.2
			c-0.7,0.3-1.5,0.3-2.3,0.1c-0.8-0.2-1.6-0.6-2.1-1.1C71.2,209.3,70.9,208.7,71.1,208.2z"/>
		<path class="st3" d="M45.1,194.2c-0.4,0.5-0.5,1.2-0.2,1.9c0.2,0.7,0.8,1.4,1.5,2c0.7,0.6,1.5,0.9,2.3,1c0.1,0,0.2,0,0.3,0
			c0.7,0,1.2-0.2,1.5-0.7c0.8-1,0.2-2.7-1.3-3.9C47.7,193.4,45.9,193.2,45.1,194.2z M50.3,198.3c-0.3,0.4-0.9,0.6-1.6,0.5
			c-0.7-0.1-1.5-0.4-2.1-0.9c-0.7-0.5-1.2-1.2-1.4-1.9c-0.2-0.7-0.2-1.3,0.2-1.7c0.3-0.4,0.8-0.6,1.3-0.6c0.7,0,1.6,0.3,2.4,0.9
			C50.4,195.8,51,197.4,50.3,198.3z"/>
		<path class="st3" d="M73.9,217c0.8-1,0.2-2.7-1.3-3.9c-0.7-0.6-1.5-0.9-2.3-1c-0.8-0.1-1.4,0.2-1.8,0.6c-0.8,1-0.2,2.7,1.3,3.9
			c0.8,0.6,1.7,1,2.5,1C73.1,217.7,73.6,217.5,73.9,217z M68.8,213c0.3-0.4,0.8-0.6,1.3-0.6c0.1,0,0.2,0,0.3,0
			c0.7,0.1,1.5,0.4,2.1,0.9c1.4,1.1,1.9,2.7,1.2,3.6c-0.7,0.9-2.4,0.7-3.7-0.4C68.6,215.4,68.1,213.8,68.8,213z"/>
		<path class="st3" d="M51.5,189.1c-1.1,0.5-1.4,2.4-0.6,4.1c0.4,0.8,1,1.5,1.6,1.9c0.4,0.2,0.8,0.4,1.2,0.4c0.2,0,0.5-0.1,0.7-0.2
			c1.1-0.5,1.4-2.4,0.6-4.1C54.2,189.5,52.7,188.5,51.5,189.1z M54.4,195c-0.5,0.2-1.1,0.2-1.7-0.2c-0.6-0.4-1.2-1-1.5-1.8
			c-0.8-1.6-0.6-3.2,0.5-3.7c0.2-0.1,0.4-0.1,0.6-0.1c0.9,0,2,0.8,2.6,2.1C55.6,192.8,55.4,194.5,54.4,195z"/>
		<path class="st3" d="M66.8,222.3c0.2,0,0.5-0.1,0.7-0.2c1.1-0.5,1.4-2.4,0.6-4.1c-0.8-1.7-2.4-2.6-3.5-2.1
			c-1.1,0.5-1.4,2.4-0.6,4.1C64.7,221.5,65.8,222.3,66.8,222.3z M64.2,220c-0.8-1.6-0.6-3.2,0.5-3.7c0.2-0.1,0.4-0.1,0.6-0.1
			c0.9,0,2,0.8,2.6,2.1c0.8,1.6,0.6,3.2-0.5,3.7C66.4,222.4,65,221.6,64.2,220z"/>
		<path class="st3" d="M61.8,190.6c0-1.9-1-3.4-2.3-3.4s-2.3,1.5-2.3,3.4c0,1.8,1,3.4,2.2,3.4c-6.4,0-11.5,5.2-11.5,11.6
			c0,6.4,5.2,11.6,11.6,11.6c6.4,0,11.6-5.2,11.6-11.6c0-6.3-5.1-11.5-11.5-11.5C60.8,194,61.8,192.5,61.8,190.6z M70.8,205.6
			c0,6.2-5.1,11.3-11.3,11.3s-11.3-5.1-11.3-11.3c0-6.2,5.1-11.3,11.3-11.3S70.8,199.4,70.8,205.6z M59.5,193.8c-1.1,0-2-1.4-2-3.2
			c0-1.7,0.9-3.2,2-3.2c1.1,0,2,1.4,2,3.2C61.6,192.4,60.7,193.8,59.5,193.8z"/>
		<path class="st3" d="M59.5,217.2c-1.3,0-2.3,1.5-2.3,3.4c0,1.9,1,3.4,2.3,3.4s2.3-1.5,2.3-3.4C61.8,218.7,60.8,217.2,59.5,217.2z
			 M59.5,223.8c-1.1,0-2-1.4-2-3.2s0.9-3.2,2-3.2c1.1,0,2,1.4,2,3.2S60.7,223.8,59.5,223.8z"/>
		<path class="st3" d="M53.2,225.1c-0.6-0.2-1.2,0-1.9,0.5c-0.6,0.5-1.1,1.2-1.4,2.1c-0.6,1.8-0.1,3.6,1.1,3.9
			c0.2,0.1,0.3,0.1,0.5,0.1c1.1,0,2.2-1.1,2.7-2.6C54.9,227.3,54.4,225.5,53.2,225.1z M54.1,229c-0.5,1.7-1.8,2.7-2.9,2.4
			c-1.1-0.3-1.5-2-1-3.6c0.3-0.8,0.7-1.5,1.3-2c0.4-0.3,0.8-0.5,1.2-0.5c0.1,0,0.3,0,0.4,0.1C54.2,225.7,54.6,227.3,54.1,229z"/>
		<path class="st3" d="M65.9,186.1c0.2,0.1,0.3,0.1,0.5,0.1c1.1,0,2.2-1.1,2.7-2.6c0.6-1.8,0.1-3.6-1.1-3.9c-0.6-0.2-1.2,0-1.9,0.5
			c-0.6,0.5-1.1,1.2-1.4,2.1C64.2,183.9,64.7,185.7,65.9,186.1z M65,182.2c0.3-0.8,0.7-1.5,1.3-2c0.5-0.4,1.1-0.6,1.6-0.4
			c1.1,0.3,1.5,2,1,3.6c-0.5,1.7-1.8,2.7-2.9,2.4C64.9,185.5,64.5,183.9,65,182.2z"/>
		<path class="st3" d="M47.5,222.2c-1-0.7-2.7-0.1-3.8,1.4c-0.5,0.7-0.8,1.6-0.9,2.3c0,0.8,0.2,1.4,0.7,1.8c0.3,0.2,0.6,0.3,1,0.3
			c0.9,0,2-0.6,2.8-1.7C48.4,224.8,48.5,222.9,47.5,222.2z M47.1,226.2c-1,1.4-2.6,2-3.5,1.4c-0.4-0.3-0.6-0.9-0.6-1.6
			c0-0.7,0.3-1.5,0.8-2.2c1-1.4,2.6-2,3.5-1.4C48.2,223.1,48.1,224.7,47.1,226.2z"/>
		<path class="st3" d="M71.6,189c0.3,0.2,0.6,0.3,1,0.3c0.3,0,0.6-0.1,0.9-0.2c0.7-0.3,1.4-0.8,1.9-1.6c0.5-0.7,0.8-1.6,0.9-2.3
			c0-0.8-0.2-1.4-0.7-1.8c-1-0.7-2.7-0.1-3.8,1.4v0C70.7,186.4,70.6,188.2,71.6,189z M72,185L72,185c1-1.4,2.6-2,3.5-1.4
			c0.4,0.3,0.6,0.9,0.6,1.6c0,0.7-0.3,1.5-0.8,2.2c-0.5,0.7-1.1,1.2-1.8,1.5c-0.7,0.2-1.3,0.2-1.7-0.1C70.8,188.1,70.9,186.4,72,185
			z"/>
		<path class="st3" d="M39,222.4c0.8,0,1.7-0.3,2.5-0.9c0.7-0.5,1.3-1.2,1.6-1.9c0.3-0.7,0.2-1.4-0.1-1.9c-0.4-0.5-1-0.8-1.8-0.7
			c-0.8,0-1.6,0.3-2.3,0.9c-1.5,1.1-2.2,2.8-1.4,3.8C37.7,222.1,38.3,222.4,39,222.4z M39,218c0.7-0.5,1.5-0.8,2.2-0.8
			c0,0,0.1,0,0.1,0c0.6,0,1.1,0.2,1.4,0.6c0.3,0.4,0.3,1,0.1,1.7c-0.3,0.7-0.8,1.3-1.5,1.8c-1.4,1-3.1,1.1-3.8,0.2
			C36.9,220.6,37.5,219,39,218z"/>
		<path class="st3" d="M80.2,193.4c1.5-1.1,2.2-2.8,1.4-3.8c-0.4-0.5-1-0.7-1.8-0.7c-0.8,0-1.6,0.3-2.3,0.9
			c-0.7,0.5-1.3,1.2-1.6,1.9c-0.3,0.7-0.2,1.4,0.1,1.9c0.3,0.5,0.9,0.7,1.6,0.7C78.5,194.2,79.4,193.9,80.2,193.4z M76.3,193.4
			c-0.3-0.4-0.3-1-0.1-1.7c0.3-0.7,0.8-1.3,1.5-1.8h0c0.7-0.5,1.5-0.8,2.2-0.8c0,0,0.1,0,0.1,0c0.6,0,1.1,0.2,1.4,0.6
			c0.7,0.9,0,2.5-1.4,3.5C78.7,194.2,77,194.3,76.3,193.4z"/>
		<path class="st3" d="M36,215.4c0.5,0,1-0.1,1.5-0.2c1.8-0.6,2.9-2,2.5-3.2c-0.2-0.6-0.7-1-1.5-1.2c-0.7-0.2-1.6-0.2-2.5,0.1
			c-0.9,0.3-1.6,0.8-2.1,1.4c-0.5,0.6-0.7,1.3-0.5,1.9C33.8,214.9,34.8,215.4,36,215.4z M34.2,212.3c0.5-0.6,1.1-1,2-1.3
			c0.5-0.2,1-0.2,1.4-0.2c0.3,0,0.6,0,0.9,0.1c0.7,0.2,1.1,0.6,1.3,1.1c0.3,1.1-0.7,2.4-2.4,2.9c-1.7,0.5-3.3,0.1-3.6-1
			C33.6,213.5,33.7,212.9,34.2,212.3z"/>
		<path class="st3" d="M81.6,196c-1.8,0.6-2.9,2-2.5,3.2c0.3,0.9,1.3,1.3,2.5,1.3c0.5,0,1-0.1,1.5-0.2c0.9-0.3,1.6-0.8,2.1-1.4
			c0.5-0.6,0.7-1.3,0.5-1.9C85.1,196,83.4,195.5,81.6,196z M84.9,198.8c-0.5,0.6-1.1,1-2,1.3c-1.7,0.5-3.3,0.1-3.6-1
			c-0.3-1.1,0.7-2.4,2.4-2.9c1.7-0.5,3.3-0.1,3.6,1C85.5,197.7,85.3,198.3,84.9,198.8z"/>
		<path class="st3" d="M32.2,205.6c0,1.3,1.5,2.3,3.4,2.3c1.9,0,3.4-1,3.4-2.3c0-1.3-1.5-2.3-3.4-2.3
			C33.7,203.3,32.2,204.3,32.2,205.6z M35.6,203.6c1.7,0,3.2,0.9,3.2,2c0,1.1-1.4,2-3.2,2s-3.2-0.9-3.2-2
			C32.4,204.5,33.8,203.6,35.6,203.6z"/>
		<path class="st3" d="M86.9,205.6c0-1.3-1.5-2.3-3.4-2.3s-3.4,1-3.4,2.3c0,1.3,1.5,2.3,3.4,2.3S86.9,206.8,86.9,205.6z M83.5,207.6
			c-1.7,0-3.2-0.9-3.2-2c0-1.1,1.4-2,3.2-2s3.2,0.9,3.2,2C86.6,206.7,85.2,207.6,83.5,207.6z"/>
		<path class="st3" d="M36.1,200.4c0.5,0.2,1,0.2,1.5,0.2c1.2,0,2.2-0.5,2.5-1.3c0.4-1.2-0.8-2.6-2.5-3.2c-1.8-0.6-3.6-0.1-3.9,1.1
			c-0.2,0.6,0,1.2,0.5,1.9C34.5,199.6,35.2,200.1,36.1,200.4z M33.7,197.2c0.2-0.8,1.1-1.2,2.2-1.2c0.5,0,0.9,0.1,1.4,0.2
			c1.7,0.5,2.7,1.8,2.4,2.9c-0.3,1.1-2,1.5-3.6,1c-0.8-0.3-1.5-0.7-2-1.3C33.7,198.3,33.6,197.7,33.7,197.2z"/>
		<path class="st3" d="M83,210.8c-0.9-0.3-1.7-0.3-2.5-0.1c-0.8,0.2-1.3,0.6-1.5,1.2c-0.4,1.2,0.8,2.6,2.5,3.2
			c0.5,0.2,1,0.2,1.5,0.2c1.2,0,2.2-0.5,2.5-1.3c0.2-0.6,0-1.2-0.5-1.9C84.6,211.6,83.9,211.1,83,210.8z M85.3,214
			c-0.3,1.1-2,1.5-3.6,1c-1.7-0.5-2.7-1.8-2.4-2.9c0.2-0.5,0.6-0.9,1.3-1.1c0.3-0.1,0.6-0.1,0.9-0.1c0.5,0,0.9,0.1,1.4,0.2
			c0.8,0.3,1.5,0.7,2,1.3C85.3,212.9,85.5,213.5,85.3,214z"/>
		<path class="st3" d="M39.2,188.8c-0.8,0-1.4,0.2-1.8,0.7c-0.7,1-0.1,2.7,1.4,3.8c0.8,0.6,1.7,0.9,2.5,0.9c0.7,0,1.3-0.2,1.6-0.7
			c0.4-0.5,0.4-1.2,0.1-1.9c-0.3-0.7-0.8-1.4-1.6-1.9h0C40.8,189.2,39.9,188.8,39.2,188.8z M42.8,191.7c0.2,0.7,0.2,1.3-0.1,1.7
			c-0.7,0.9-2.3,0.8-3.8-0.2c-1.4-1-2-2.6-1.4-3.5c0.3-0.4,0.8-0.6,1.4-0.6c0,0,0.1,0,0.1,0c0.7,0,1.5,0.3,2.2,0.8h0
			C42,190.4,42.6,191,42.8,191.7z"/>
		<path class="st3" d="M81.6,221.7c0.7-1,0.1-2.7-1.4-3.8c-0.7-0.5-1.6-0.8-2.3-0.9c-0.8,0-1.4,0.2-1.8,0.7
			c-0.4,0.5-0.4,1.2-0.1,1.9c0.3,0.7,0.8,1.4,1.6,1.9c0.8,0.6,1.7,0.9,2.5,0.9C80.7,222.4,81.3,222.1,81.6,221.7z M77.7,221.3
			c-0.7-0.5-1.2-1.1-1.5-1.8c-0.2-0.7-0.2-1.3,0.1-1.7c0.3-0.4,0.8-0.6,1.4-0.6c0,0,0.1,0,0.1,0c0.7,0,1.5,0.3,2.2,0.8
			c1.4,1,2,2.6,1.4,3.5C80.8,222.4,79.1,222.3,77.7,221.3z"/>
		<path class="st3" d="M43.5,183.5c-0.5,0.4-0.8,1-0.7,1.8c0,0.8,0.3,1.6,0.9,2.3c0.5,0.7,1.2,1.3,1.9,1.6c0.3,0.1,0.6,0.2,0.9,0.2
			c0.4,0,0.7-0.1,1-0.3c1-0.7,0.9-2.6-0.2-4.1v0C46.2,183.4,44.5,182.7,43.5,183.5z M47.1,185c1,1.4,1.1,3.1,0.2,3.8
			c-0.4,0.3-1,0.3-1.7,0.1c-0.7-0.3-1.3-0.8-1.8-1.5c-0.5-0.7-0.8-1.5-0.8-2.2c0-0.7,0.2-1.3,0.6-1.6c0.2-0.2,0.5-0.3,0.9-0.3
			C45.3,183.4,46.3,184,47.1,185z"/>
		<path class="st3" d="M74.6,228c0.4,0,0.7-0.1,1-0.3c0.5-0.4,0.8-1,0.7-1.8c0-0.8-0.3-1.6-0.9-2.3c-1.1-1.5-2.8-2.2-3.8-1.4
			c-1,0.7-0.9,2.6,0.2,4.1C72.6,227.4,73.7,228,74.6,228z M72,226.2c-1-1.4-1.1-3.1-0.2-3.8c0.2-0.2,0.5-0.3,0.9-0.3
			c0.9,0,1.9,0.6,2.6,1.6c0.5,0.7,0.8,1.5,0.8,2.2c0,0.7-0.2,1.3-0.6,1.6C74.6,228.2,73,227.6,72,226.2z"/>
		<path class="st3" d="M52.9,180.1c-0.6-0.5-1.3-0.7-1.9-0.5c-0.6,0.2-1,0.7-1.2,1.5c-0.2,0.7-0.2,1.6,0.1,2.5
			c0.3,0.9,0.8,1.6,1.4,2.1c0.4,0.4,0.9,0.5,1.4,0.5c0.2,0,0.3,0,0.5-0.1c1.2-0.4,1.7-2.2,1.1-3.9C54,181.3,53.5,180.5,52.9,180.1z
			 M53.1,185.8c-0.5,0.2-1.1,0-1.6-0.4c-0.6-0.5-1-1.1-1.3-2c-0.3-0.8-0.3-1.6-0.1-2.3c0.2-0.7,0.6-1.1,1.1-1.3
			c0.1,0,0.3-0.1,0.4-0.1c0.4,0,0.8,0.2,1.2,0.5c0.6,0.4,1,1.1,1.3,2C54.6,183.9,54.2,185.5,53.1,185.8z"/>
		<path class="st3" d="M67.5,231.7c0.2,0,0.3,0,0.5-0.1c1.2-0.4,1.7-2.2,1.1-3.9c-0.6-1.8-2-2.9-3.2-2.5c-1.2,0.4-1.7,2.2-1.1,3.9
			C65.3,230.6,66.4,231.7,67.5,231.7z M65,229c-0.5-1.7-0.1-3.3,1-3.6c0.1,0,0.3-0.1,0.4-0.1c1,0,2,1,2.5,2.4c0.5,1.7,0.1,3.3-1,3.6
			C66.8,231.7,65.5,230.7,65,229z"/>
		<path class="st3" d="M59.5,185.1c1.3,0,2.3-1.5,2.3-3.4c0-1.9-1-3.4-2.3-3.4s-2.3,1.5-2.3,3.4C57.3,183.5,58.3,185.1,59.5,185.1z
			 M59.5,178.5c1.1,0,2,1.4,2,3.2c0,1.7-0.9,3.2-2,3.2s-2-1.4-2-3.2C57.5,179.9,58.4,178.5,59.5,178.5z"/>
		<path class="st3" d="M59.5,226.1c-1.3,0-2.3,1.5-2.3,3.4c0,1.9,1,3.4,2.3,3.4s2.3-1.5,2.3-3.4C61.8,227.7,60.8,226.1,59.5,226.1z
			 M59.5,232.7c-1.1,0-2-1.4-2-3.2c0-1.7,0.9-3.2,2-3.2s2,1.4,2,3.2C61.6,231.3,60.6,232.7,59.5,232.7z"/>
		<path class="st3" d="M52.2,234.2c-1.2-0.3-2.6,0.9-3,2.7c-0.2,0.9-0.2,1.8,0,2.5c0.3,0.7,0.7,1.2,1.3,1.4c0.1,0,0.3,0,0.4,0
			c0.5,0,1-0.2,1.4-0.6c0.6-0.5,1-1.3,1.2-2.2C54,236.2,53.4,234.5,52.2,234.2z M53.3,238c-0.2,0.8-0.6,1.6-1.2,2
			c-0.5,0.5-1.1,0.7-1.6,0.5c-0.5-0.1-0.9-0.6-1.2-1.2c-0.2-0.7-0.2-1.5,0-2.3c0.4-1.5,1.4-2.6,2.4-2.6c0.1,0,0.2,0,0.3,0
			C53.2,234.7,53.7,236.3,53.3,238z"/>
		<path class="st3" d="M66.9,177c0.1,0,0.3,0,0.4,0c0.5,0,1-0.2,1.4-0.6c0.6-0.5,1-1.3,1.2-2.2c0.5-1.8-0.1-3.6-1.4-3.9
			c-0.6-0.2-1.2,0.1-1.8,0.6c-0.6,0.5-1,1.3-1.2,2.2c-0.2,0.9-0.2,1.8,0,2.5C65.8,176.4,66.3,176.9,66.9,177z M65.7,173.2
			c0.2-0.8,0.6-1.6,1.2-2c0.4-0.4,0.8-0.6,1.3-0.6c0.1,0,0.2,0,0.3,0c1.1,0.3,1.6,1.9,1.2,3.6c-0.2,0.8-0.6,1.6-1.2,2
			c-0.5,0.5-1.1,0.7-1.6,0.5c-0.5-0.1-0.9-0.6-1.2-1.2C65.5,174.9,65.5,174,65.7,173.2z"/>
		<path class="st3" d="M45.6,231.6c-0.5-0.3-1.2-0.2-1.9,0.1c-0.7,0.4-1.3,1-1.7,1.8c-0.4,0.8-0.6,1.7-0.6,2.4
			c0.1,0.8,0.4,1.4,0.9,1.7c0.2,0.1,0.5,0.2,0.8,0.2c1,0,2.1-0.8,2.8-2.1C46.9,234,46.7,232.2,45.6,231.6z M45.8,235.6
			c-0.8,1.5-2.3,2.4-3.3,1.8c-0.5-0.3-0.8-0.8-0.8-1.5c-0.1-0.7,0.1-1.5,0.5-2.3v0c0.4-0.8,1-1.4,1.6-1.7c0.4-0.2,0.7-0.3,1-0.3
			c0.2,0,0.5,0.1,0.7,0.2C46.5,232.3,46.6,234,45.8,235.6z"/>
		<path class="st3" d="M73.5,179.6c0.2,0.1,0.5,0.2,0.8,0.2c0.4,0,0.7-0.1,1.1-0.3c0.7-0.4,1.3-1,1.7-1.8c0.9-1.7,0.7-3.5-0.4-4.1
			c-1.1-0.6-2.7,0.3-3.6,1.9C72.2,177.2,72.4,179,73.5,179.6z M73.3,175.6c0.8-1.5,2.3-2.4,3.3-1.8c1,0.5,1.1,2.2,0.3,3.8
			c-0.4,0.8-1,1.4-1.6,1.7c-0.6,0.3-1.2,0.4-1.7,0.1C72.6,178.9,72.5,177.2,73.3,175.6z"/>
		<path class="st3" d="M37.9,227.2c-0.7,0.2-1.5,0.7-2.1,1.3c-1.3,1.4-1.5,3.2-0.6,4.1c0.3,0.3,0.7,0.4,1.2,0.4
			c0.9,0,1.9-0.5,2.8-1.4c0.6-0.7,1-1.5,1.1-2.2c0.1-0.8-0.1-1.4-0.5-1.8C39.3,227.1,38.7,227,37.9,227.2z M40.1,229.3
			c-0.1,0.7-0.5,1.5-1.1,2.1c-1.2,1.3-2.8,1.7-3.6,1c-0.8-0.7-0.6-2.4,0.6-3.7c0.6-0.6,1.3-1.1,2-1.3c0.7-0.2,1.3-0.1,1.7,0.3
			C40,228.1,40.2,228.6,40.1,229.3z"/>
		<path class="st3" d="M80.5,184.1c0.9,0,1.9-0.5,2.8-1.4c1.3-1.4,1.5-3.2,0.6-4.1c-0.9-0.8-2.7-0.4-4,1c-0.6,0.7-1,1.5-1.1,2.2
			c-0.1,0.8,0.1,1.4,0.5,1.8C79.6,184,80,184.1,80.5,184.1z M79,181.9c0.1-0.7,0.5-1.5,1.1-2.1c1.2-1.3,2.8-1.7,3.6-1
			c0.8,0.7,0.6,2.4-0.6,3.7c-1.2,1.3-2.8,1.7-3.6,1C79,183.1,78.9,182.6,79,181.9z"/>
		<path class="st3" d="M35.1,222.2c-0.3-0.5-1-0.8-1.8-0.8c-0.8,0-1.6,0.3-2.3,0.8c-0.7,0.5-1.3,1.2-1.6,1.9
			c-0.3,0.7-0.3,1.4,0.1,1.9c0.3,0.5,0.9,0.8,1.7,0.8c0,0,0,0,0.1,0c0.8,0,1.6-0.3,2.3-0.8c0.7-0.5,1.3-1.2,1.6-1.9
			C35.5,223.4,35.5,222.7,35.1,222.2z M35,224c-0.3,0.7-0.8,1.3-1.5,1.8c-0.7,0.5-1.5,0.8-2.2,0.8c0,0,0,0-0.1,0
			c-0.7,0-1.2-0.2-1.5-0.7c-0.3-0.4-0.3-1,0-1.7c0.3-0.7,0.8-1.3,1.5-1.8c0.7-0.5,1.5-0.8,2.2-0.8c0,0,0,0,0.1,0
			c0.7,0,1.2,0.2,1.5,0.7C35.2,222.8,35.2,223.3,35,224z"/>
		<path class="st3" d="M83.9,187.1c-0.3,0.7-0.3,1.4,0.1,1.9c0.3,0.5,0.9,0.8,1.7,0.8c0,0,0,0,0.1,0c0.8,0,1.6-0.3,2.3-0.8
			c0.7-0.5,1.3-1.2,1.6-1.9c0.3-0.7,0.3-1.4-0.1-1.9c-0.3-0.5-1-0.8-1.8-0.8c-0.8,0-1.6,0.3-2.3,0.8
			C84.7,185.7,84.1,186.4,83.9,187.1z M87.8,184.7c0.7,0,1.3,0.2,1.5,0.7c0.3,0.4,0.3,1,0,1.7c-0.3,0.7-0.8,1.3-1.5,1.8
			c-0.7,0.5-1.5,0.8-2.2,0.8c0,0,0,0-0.1,0c-0.7,0-1.2-0.2-1.5-0.7c-0.3-0.4-0.3-1,0-1.7c0.3-0.7,0.8-1.3,1.5-1.8
			C86.3,184.9,87.1,184.7,87.8,184.7z"/>
		<path class="st3" d="M31.5,217.8c0.5-0.6,0.6-1.3,0.4-1.9c-0.4-1.2-2.2-1.6-4-0.9c-1.8,0.7-2.8,2.1-2.4,3.3c0.2,0.6,0.8,1,1.5,1.2
			c0.3,0.1,0.5,0.1,0.8,0.1c0.5,0,1.1-0.1,1.7-0.3C30.3,218.9,31,218.4,31.5,217.8z M27.1,219.2c-0.7-0.2-1.2-0.5-1.3-1
			c-0.4-1,0.6-2.4,2.3-3c1.6-0.6,3.3-0.2,3.7,0.8c0.2,0.5,0.1,1.1-0.4,1.6c-0.4,0.6-1.1,1.1-1.9,1.4
			C28.6,219.3,27.8,219.3,27.1,219.2z"/>
		<path class="st3" d="M87.2,195.3c0.2,0.6,0.8,1,1.5,1.2c0.3,0.1,0.5,0.1,0.8,0.1c0.5,0,1.1-0.1,1.7-0.3c0.8-0.3,1.6-0.8,2-1.4
			c0.5-0.6,0.6-1.3,0.4-1.9c-0.4-1.2-2.2-1.6-4-0.9C87.8,192.7,86.7,194.1,87.2,195.3z M93.3,193c0.2,0.5,0.1,1.1-0.4,1.6
			c-0.4,0.6-1.1,1.1-1.9,1.4c-0.8,0.3-1.6,0.4-2.3,0.2c-0.7-0.2-1.2-0.5-1.3-1c-0.4-1,0.6-2.4,2.3-3C91.3,191.6,92.9,192,93.3,193z"
			/>
		<path class="st3" d="M27.1,211.6c1.9-0.2,3.3-1.4,3.1-2.6c-0.1-1.2-1.8-2.1-3.6-1.9c-1.9,0.2-3.3,1.4-3.1,2.6
			c0.1,1.1,1.4,1.9,3.1,1.9C26.7,211.7,26.9,211.7,27.1,211.6z M23.7,209.7c-0.1-1.1,1.2-2.2,2.9-2.4c1.7-0.2,3.3,0.5,3.4,1.7
			c0.1,1.1-1.2,2.2-2.9,2.4C25.3,211.6,23.8,210.9,23.7,209.7z"/>
		<path class="st3" d="M92,199.6c-0.9,0.1-1.7,0.4-2.3,0.9c-0.6,0.5-0.9,1.1-0.8,1.7c0.1,0.6,0.5,1.1,1.2,1.5
			c0.5,0.3,1.2,0.4,1.9,0.4c0.2,0,0.4,0,0.6,0c0.9-0.1,1.7-0.4,2.3-0.9c0.6-0.5,0.9-1.1,0.8-1.7c-0.1-0.6-0.5-1.1-1.2-1.5
			C93.7,199.6,92.8,199.5,92,199.6z M95.4,201.4c0.1,0.5-0.2,1.1-0.7,1.5c-0.6,0.5-1.3,0.8-2.2,0.9c-0.9,0.1-1.7,0-2.3-0.3
			c-0.6-0.3-1-0.8-1.1-1.3c-0.1-0.5,0.2-1.1,0.7-1.5c0.6-0.5,1.3-0.8,2.2-0.9c0.8-0.1,1.7,0,2.3,0.3
			C94.9,200.5,95.3,200.9,95.4,201.4z"/>
		<path class="st3" d="M26.6,203.7c0.2,0,0.4,0,0.6,0c0.7,0,1.3-0.1,1.8-0.4c0.7-0.3,1.1-0.9,1.2-1.5c0.2-1.2-1.2-2.4-3.1-2.7
			c-1.9-0.2-3.5,0.6-3.7,1.8C23.3,202.3,24.7,203.5,26.6,203.7z M26.5,199.4c0.2,0,0.4,0,0.6,0c1.7,0.2,3,1.3,2.9,2.4
			c-0.1,0.5-0.5,1-1.1,1.3c-0.6,0.3-1.5,0.4-2.3,0.3c-1.7-0.2-3-1.3-2.9-2.4C23.9,200.1,25.1,199.4,26.5,199.4z"/>
		<path class="st3" d="M92.5,207.5c-0.9-0.1-1.8,0-2.5,0.3c-0.7,0.3-1.1,0.9-1.2,1.5c-0.1,0.6,0.2,1.2,0.8,1.7
			c0.6,0.5,1.4,0.8,2.3,0.9c0.2,0,0.4,0,0.6,0c0.7,0,1.3-0.1,1.8-0.4c0.7-0.3,1.1-0.9,1.2-1.5c0.1-0.6-0.2-1.2-0.8-1.7
			C94.2,207.9,93.3,207.6,92.5,207.5z M94.2,211.4c-0.6,0.3-1.5,0.4-2.3,0.3c-0.8-0.1-1.6-0.4-2.2-0.9c-0.5-0.5-0.8-1-0.7-1.5
			c0.1-0.5,0.5-1,1.1-1.3c0.5-0.2,1.1-0.4,1.7-0.4c0.2,0,0.4,0,0.6,0c0.8,0.1,1.6,0.4,2.2,0.9c0.5,0.5,0.8,1,0.7,1.5
			C95.2,210.6,94.9,211.1,94.2,211.4z"/>
		<path class="st3" d="M28,195.9c0.6,0.2,1.2,0.3,1.7,0.3c1.1,0,2-0.4,2.3-1.2c0.2-0.6,0.1-1.2-0.4-1.9c-0.4-0.6-1.2-1.1-2-1.5
			c-1.8-0.7-3.5-0.3-4,0.9C25.2,193.7,26.2,195.2,28,195.9z M25.8,192.7c0.3-0.7,1.1-1.1,2.1-1.1c0.5,0,1.1,0.1,1.6,0.3
			c0.8,0.3,1.5,0.8,1.9,1.4c0.4,0.6,0.5,1.2,0.3,1.7c-0.4,1-2.1,1.4-3.7,0.8C26.4,195.1,25.4,193.7,25.8,192.7z"/>
		<path class="st3" d="M91.1,215.3c-0.8-0.3-1.7-0.4-2.5-0.3c-0.8,0.2-1.3,0.6-1.5,1.1c-0.4,1.2,0.6,2.7,2.4,3.3
			c0.6,0.2,1.1,0.3,1.7,0.3c0.3,0,0.5,0,0.8-0.1c0.8-0.2,1.3-0.6,1.5-1.1C93.9,217.4,92.8,215.9,91.1,215.3z M93.2,218.5
			c-0.2,0.5-0.7,0.9-1.4,1c-0.7,0.2-1.5,0.1-2.3-0.2c-1.6-0.6-2.6-2-2.2-3c0.2-0.5,0.7-0.9,1.4-1c0.2,0,0.5-0.1,0.7-0.1
			c0.5,0,1.1,0.1,1.6,0.3C92.6,216.1,93.6,217.5,93.2,218.5z"/>
		<path class="st3" d="M31.2,188.7c0.7,0.5,1.6,0.8,2.3,0.8c0,0,0.1,0,0.1,0c0.7,0,1.3-0.3,1.7-0.8c0.4-0.5,0.4-1.2,0.1-1.9
			c-0.3-0.7-0.9-1.4-1.6-1.9c-0.7-0.5-1.6-0.8-2.3-0.8c-0.8,0-1.4,0.2-1.8,0.8c-0.4,0.5-0.4,1.2-0.1,1.9
			C29.9,187.5,30.5,188.2,31.2,188.7z M29.9,185c0.3-0.4,0.8-0.6,1.5-0.6c0,0,0.1,0,0.1,0c0.7,0,1.5,0.3,2.2,0.8
			c0.7,0.5,1.2,1.1,1.5,1.8c0.3,0.6,0.2,1.2-0.1,1.7c-0.3,0.4-0.9,0.7-1.6,0.6c-0.7,0-1.5-0.3-2.2-0.8c-0.7-0.5-1.2-1.1-1.5-1.8
			C29.6,186,29.6,185.4,29.9,185z"/>
		<path class="st3" d="M87.8,222.5c-0.7-0.5-1.6-0.8-2.3-0.8c0,0-0.1,0-0.1,0c-0.7,0-1.3,0.3-1.7,0.8c-0.7,1,0,2.7,1.5,3.8
			c0.7,0.5,1.6,0.8,2.3,0.8c0,0,0.1,0,0.1,0c0.7,0,1.3-0.3,1.7-0.8c0.4-0.5,0.4-1.2,0.1-1.9C89.1,223.7,88.6,223,87.8,222.5z
			 M89.1,226.2c-0.3,0.4-0.9,0.7-1.6,0.6c-0.7,0-1.5-0.3-2.2-0.8c-1.4-1-2.1-2.6-1.4-3.5c0.3-0.4,0.8-0.6,1.5-0.6c0,0,0.1,0,0.1,0
			c0.7,0,1.5,0.3,2.2,0.8c0.7,0.5,1.2,1.1,1.5,1.8C89.5,225.1,89.4,225.7,89.1,226.2z"/>
		<path class="st3" d="M36.1,182.4c0.6,0.7,1.3,1.2,2.1,1.4c0.2,0.1,0.5,0.1,0.7,0.1c0.5,0,0.9-0.1,1.2-0.4c0.9-0.8,0.7-2.6-0.5-4.1
			c-1.2-1.4-3-1.9-4-1.1c-0.5,0.4-0.7,1.1-0.5,1.8C35.1,180.9,35.5,181.7,36.1,182.4z M35.7,178.5c0.3-0.2,0.6-0.4,1-0.4
			c0.8,0,1.8,0.5,2.6,1.4c1.2,1.3,1.4,3,0.6,3.7c-0.4,0.4-1,0.4-1.7,0.3c-0.7-0.2-1.4-0.6-2-1.3c-0.6-0.6-0.9-1.4-1-2.1
			C35.1,179.5,35.3,178.9,35.7,178.5z"/>
		<path class="st3" d="M80.9,227.4c-0.8-0.2-1.4-0.1-1.9,0.3c-0.5,0.4-0.7,1.1-0.5,1.8c0.1,0.8,0.5,1.5,1.1,2.2
			c0.8,0.9,1.9,1.5,2.8,1.5c0.4,0,0.9-0.1,1.2-0.4c0.9-0.8,0.7-2.6-0.5-4.1C82.4,228.1,81.7,227.6,80.9,227.4z M83.4,232.7
			c-0.8,0.7-2.5,0.3-3.6-1c-0.6-0.6-0.9-1.4-1-2.1c-0.1-0.7,0.1-1.3,0.5-1.6c0.3-0.2,0.6-0.4,1-0.4c0.2,0,0.4,0,0.7,0.1
			c0.7,0.2,1.4,0.6,2,1.3C84,230.2,84.2,231.9,83.4,232.7z"/>
		<path class="st3" d="M45.1,179.6c0.3,0,0.5-0.1,0.7-0.2c0.5-0.3,0.9-0.9,1-1.7c0.1-0.8-0.1-1.6-0.5-2.4c-0.9-1.7-2.5-2.5-3.6-2
			c-1.1,0.6-1.3,2.4-0.4,4.1C43,178.8,44.1,179.6,45.1,179.6z M42.8,173.6c0.2-0.1,0.4-0.2,0.6-0.2c0.9,0,2,0.8,2.6,2
			c0.4,0.8,0.6,1.6,0.5,2.3c-0.1,0.7-0.4,1.2-0.8,1.5c-1,0.5-2.5-0.3-3.3-1.9C41.7,175.8,41.8,174.1,42.8,173.6z"/>
		<path class="st3" d="M75.1,231.9c-0.7-0.4-1.4-0.4-1.9-0.1c-1.1,0.6-1.3,2.4-0.4,4.1c0.7,1.3,1.8,2.1,2.8,2.1
			c0.3,0,0.5-0.1,0.7-0.2c1.1-0.6,1.3-2.4,0.4-4.1C76.4,232.9,75.8,232.3,75.1,231.9z M76.2,237.6c-1,0.5-2.5-0.3-3.3-1.9
			c-0.8-1.5-0.7-3.2,0.3-3.7c0.2-0.1,0.4-0.2,0.6-0.2c0.3,0,0.7,0.1,1,0.3c0.6,0.4,1.2,1,1.6,1.7C77.4,235.4,77.2,237,76.2,237.6z"
			/>
		<path class="st3" d="M52.1,177c0.1,0,0.2,0,0.4,0c0.6-0.1,1.1-0.6,1.3-1.4c0.3-0.7,0.3-1.6,0.1-2.5c-0.2-0.9-0.6-1.6-1.2-2.2
			c-0.6-0.5-1.2-0.7-1.8-0.6c-1.2,0.3-1.8,2-1.4,3.8C49.9,175.8,51,177,52.1,177z M50.9,170.6c0.1,0,0.2,0,0.3,0
			c0.4,0,0.9,0.2,1.3,0.6c0.5,0.5,0.9,1.2,1.1,2c0.2,0.8,0.2,1.7-0.1,2.3c-0.2,0.7-0.6,1.1-1.2,1.2c-1.1,0.3-2.3-0.9-2.7-2.6
			C49.3,172.4,49.8,170.8,50.9,170.6z"/>
		<path class="st3" d="M66.6,234.2c-1.2,0.3-1.8,2-1.4,3.8c0.2,0.9,0.6,1.6,1.2,2.2c0.5,0.4,1,0.6,1.4,0.6c0.1,0,0.3,0,0.4,0
			c1.2-0.3,1.8-2,1.4-3.8C69.1,235.2,67.8,233.9,66.6,234.2z M68.1,240.6c-0.5,0.1-1.1-0.1-1.6-0.5c-0.5-0.5-0.9-1.2-1.1-2
			c-0.4-1.7,0.1-3.3,1.2-3.6c0.1,0,0.2,0,0.3,0c1,0,2,1.1,2.4,2.6C69.8,238.8,69.2,240.4,68.1,240.6z"/>
		<path class="st3" d="M59.5,176.1c1.3,0,2.3-1.5,2.3-3.4c0-1.9-1-3.4-2.3-3.4s-2.3,1.5-2.3,3.4C57.3,174.6,58.3,176.1,59.5,176.1z
			 M59.5,169.5c1.1,0,2,1.4,2,3.2c0,1.7-0.9,3.2-2,3.2s-2-1.4-2-3.2C57.5,170.9,58.4,169.5,59.5,169.5z"/>
		<path class="st3" d="M59.5,235.1c-1.3,0-2.3,1.5-2.3,3.4c0,1.9,1,3.4,2.3,3.4s2.3-1.5,2.3-3.4C61.8,236.6,60.8,235.1,59.5,235.1z
			 M59.5,241.7c-1.1,0-2-1.4-2-3.2c0-1.7,0.9-3.2,2-3.2s2,1.4,2,3.2C61.6,240.2,60.6,241.7,59.5,241.7z"/>
		<path class="st3" d="M59.5,208.4c1.5,0,2.7-1.2,2.7-2.7c0-1.5-1.2-2.7-2.7-2.7s-2.7,1.2-2.7,2.7C56.8,207.2,58,208.4,59.5,208.4z
			 M59.5,203.2c1.4,0,2.5,1.1,2.5,2.5s-1.1,2.5-2.5,2.5S57,207,57,205.7S58.1,203.2,59.5,203.2z"/>
		<path class="st3" d="M54.6,206.2c-0.7-0.2-1.4-0.1-2.1,0.3c-1.3,0.7-1.7,2.4-1,3.7c0.4,0.6,0.9,1.1,1.7,1.3
			c0.2,0.1,0.5,0.1,0.7,0.1c0.5,0,0.9-0.1,1.4-0.4c0.6-0.4,1.1-0.9,1.3-1.7c0.2-0.7,0.1-1.4-0.3-2.1
			C55.8,206.9,55.3,206.4,54.6,206.2z M56.3,209.5c-0.2,0.6-0.6,1.2-1.2,1.5c-0.6,0.3-1.2,0.4-1.9,0.2c-0.6-0.2-1.2-0.6-1.5-1.2
			c-0.7-1.2-0.3-2.7,0.9-3.4c0.4-0.2,0.8-0.3,1.2-0.3c0.2,0,0.4,0,0.6,0.1c0.6,0.2,1.2,0.6,1.5,1.2
			C56.3,208.2,56.4,208.9,56.3,209.5z"/>
		<path class="st3" d="M64.5,204.9c0.2,0.1,0.5,0.1,0.7,0.1c0.5,0,0.9-0.1,1.4-0.4c0.6-0.4,1.1-0.9,1.3-1.7c0.2-0.7,0.1-1.4-0.3-2.1
			c-0.7-1.3-2.4-1.7-3.7-1c-0.6,0.4-1.1,0.9-1.3,1.7c-0.2,0.7-0.1,1.4,0.3,2.1C63.2,204.3,63.8,204.8,64.5,204.9z M62.8,201.7
			c0.2-0.6,0.6-1.2,1.2-1.5c0.4-0.2,0.8-0.3,1.2-0.3c0.9,0,1.7,0.4,2.2,1.2c0.3,0.6,0.4,1.2,0.2,1.9c-0.2,0.6-0.6,1.2-1.2,1.5
			c-0.6,0.3-1.2,0.4-1.9,0.2c-0.6-0.2-1.2-0.6-1.5-1.2C62.7,203,62.6,202.3,62.8,201.7z"/>
		<path class="st3" d="M55.2,200c-1.3-0.7-3-0.3-3.7,1c-0.4,0.6-0.5,1.4-0.3,2.1c0.2,0.7,0.6,1.3,1.3,1.7c0.4,0.2,0.9,0.4,1.4,0.4
			c0.2,0,0.5,0,0.7-0.1c0.7-0.2,1.3-0.6,1.7-1.3c0.4-0.6,0.5-1.4,0.3-2.1C56.3,200.9,55.8,200.3,55.2,200z M56,203.6
			c-0.3,0.6-0.9,1-1.5,1.2c-0.6,0.2-1.3,0.1-1.9-0.2c-0.6-0.3-1-0.9-1.2-1.5c-0.2-0.6-0.1-1.3,0.2-1.9c0.5-0.8,1.3-1.2,2.2-1.2
			c0.4,0,0.8,0.1,1.2,0.3c0.6,0.3,1,0.9,1.2,1.5C56.4,202.3,56.3,203,56,203.6z"/>
		<path class="st3" d="M63.8,211.2c0.4,0.2,0.9,0.4,1.4,0.4c0.2,0,0.5,0,0.7-0.1c0.7-0.2,1.3-0.6,1.7-1.3c0.7-1.3,0.3-3-1-3.7
			c-0.6-0.4-1.4-0.5-2.1-0.3c-0.7,0.2-1.3,0.6-1.7,1.3c-0.4,0.6-0.5,1.4-0.3,2.1C62.8,210.3,63.2,210.9,63.8,211.2z M63,207.6
			c0.3-0.6,0.9-1,1.5-1.2c0.2-0.1,0.4-0.1,0.6-0.1c0.4,0,0.9,0.1,1.2,0.3c1.2,0.7,1.6,2.2,0.9,3.4c-0.3,0.6-0.9,1-1.5,1.2
			c-0.6,0.2-1.3,0.1-1.9-0.2c-0.6-0.3-1-0.9-1.2-1.5C62.6,208.9,62.7,208.2,63,207.6z"/>
		<path class="st3" d="M56.8,199.1c0,1.5,1.2,2.7,2.7,2.7s2.7-1.2,2.7-2.7c0-1.5-1.2-2.7-2.7-2.7S56.8,197.6,56.8,199.1z M62,199.1
			c0,1.4-1.1,2.5-2.5,2.5s-2.5-1.1-2.5-2.5c0-1.4,1.1-2.5,2.5-2.5S62,197.7,62,199.1z"/>
		<path class="st3" d="M59.5,209.4c-1.5,0-2.7,1.2-2.7,2.7c0,1.5,1.2,2.7,2.7,2.7s2.7-1.2,2.7-2.7C62.2,210.6,61,209.4,59.5,209.4z
			 M59.5,214.6c-1.4,0-2.5-1.1-2.5-2.5s1.1-2.5,2.5-2.5s2.5,1.1,2.5,2.5S60.9,214.6,59.5,214.6z"/>
		<path class="st3" d="M59.5,167.4c-21,0-38.2,17.1-38.2,38.2c0,21,17.1,38.2,38.2,38.2s38.2-17.1,38.2-38.2
			C97.7,184.6,80.6,167.4,59.5,167.4z M59.5,243.5c-20.9,0-37.9-17-37.9-37.9c0-20.9,17-37.9,37.9-37.9c20.9,0,37.9,17,37.9,37.9
			C97.4,226.5,80.4,243.5,59.5,243.5z"/>
		<path class="st3" d="M59.5,158.1c-26.2,0-47.5,21.3-47.5,47.5c0,26.2,21.3,47.5,47.5,47.5c26.2,0,47.5-21.3,47.5-47.5
			C107,179.4,85.7,158.1,59.5,158.1z M59.5,252.8c-26,0-47.2-21.2-47.2-47.2c0-26,21.2-47.2,47.2-47.2c26,0,47.2,21.2,47.2,47.2
			C106.7,231.6,85.6,252.8,59.5,252.8z"/>
		<path class="st3" d="M412.2,84.6h-10V7.8c0-4.3-3.5-7.8-7.8-7.8H122.3c-4.3,0-7.8,3.5-7.8,7.8v76.8H99.6l-1.3-23.5
			c-0.2-5-3.9-9.1-9.1-9.1H26.9c-5.2,0-8.5,4.1-8.8,9.1l-0.9,23.5H7.8c-4.3,0-7.8,3.5-7.8,7.8v252.1c0,6.8,5.5,12.3,12.3,12.3h395.3
			c6.8,0,12.3-5.5,12.3-12.3V92.4C420,88.1,416.5,84.6,412.2,84.6z M378.8,3.3H394c2.5,0,4.5,2,4.5,4.5v173.5c0,2.5-2,4.5-4.5,4.5
			H122c-2.5,0-4.5-2-4.5-4.5V7.8c0-2.5,2-4.5,4.5-4.5h250.3v9.4c0,1.8,1.4,3.2,3.2,3.2h0.1c1.8,0,3.2-1.4,3.2-3.2V3.3z M373.2,0.9
			h4.7v11.8c0,1.3-1,2.3-2.3,2.3h-0.1c-1.3,0-2.3-1-2.3-2.3V0.9z M115.5,85.1V7.8c0-3.8,3.1-6.9,6.9-6.9h250v2.2H122
			c-2.6,0-4.7,2.1-4.7,4.7v173.5c0,2.6,2.1,4.7,4.7,4.7h272c2.6,0,4.7-2.1,4.7-4.7V7.8c0-2.6-2.1-4.7-4.7-4.7h-8.1h-0.2h-5.4h-0.2
			h-1.3V0.9h1.3h0.2h5.4h0.2h8.5c3.8,0,6.9,3.1,6.9,6.9v77.3v96.6c0,3.8-3.1,6.9-6.9,6.9H122.3c-3.8,0-6.9-3.1-6.9-6.9V85.1z
			 M419.1,344.4c0,6.3-5.1,11.4-11.4,11.4H12.3c-6.3,0-11.4-5.1-11.4-11.4v-8.6h418.2V344.4z M419.1,335.6H0.9v-0.7h418.2V335.6z
			 M419.1,334.7H0.9V92.4c0-3.8,3.1-6.9,6.9-6.9h9.9l0.4,0l0-0.4l0.8-20.3l0-0.1l0-0.1l0.2-3.3c0.2-4.5,3.1-8.2,7.8-8.2h62.3
			c4.7,0,8,3.7,8.2,8.2l0.1,3.3l0,0.2L98.7,84l0,0.2l0,0.8l0,0.4l0-0.1c-0.8,0.1-1.1,0.2-1.2,0.6c-0.1,0.2-0.1,1-0.1,2.6
			c0,1.4,0,3.2-0.1,3.6c0,0.1,0,0.1-0.1,0.3c-1,5.6-5.6,8.8-9.3,10.5c-7.7,3.6-15.2,4.4-16.3,4.4v0.2c1.1,0,8.7-0.8,16.4-4.4
			c3.7-1.7,8.4-5,9.4-10.6c0-0.1,0-0.2,0-0.2c0.1-0.4,0.1-2,0.1-3.6c0-1.1,0-2.4,0.1-2.5c0.1-0.2,0.2-0.4,1-0.5l0-0.1l0.4,0h4.1h1.4
			h9.9v96.1c0,4.3,3.5,7.8,7.8,7.8h272.1c4.3,0,7.8-3.5,7.8-7.8V85.5h10c3.8,0,6.9,3.1,6.9,6.9V334.7z"/>
		<path class="st3" d="M26.2,63.3c1.4,0,2.5-1.1,2.5-2.5c0-1.4-1.1-2.5-2.5-2.5s-2.5,1.1-2.5,2.5C23.7,62.2,24.8,63.3,26.2,63.3z
			 M26.2,58.8c1.1,0,2,0.9,2,2c0,1.1-0.9,2-2,2s-2-0.9-2-2C24.1,59.7,25.1,58.8,26.2,58.8z"/>
		<path class="st3" d="M90.7,63.3c1.4,0,2.5-1.1,2.5-2.5c0-1.4-1.1-2.5-2.5-2.5c-1.4,0-2.5,1.1-2.5,2.5
			C88.2,62.2,89.3,63.3,90.7,63.3z M90.7,58.8c1.1,0,2,0.9,2,2c0,1.1-0.9,2-2,2c-1.1,0-2-0.9-2-2C88.7,59.7,89.6,58.8,90.7,58.8z"/>
		<path class="st3" d="M24.3,328.7c-3.1-3.5-2.7-10.3-2.7-10.4c0.1-1.4,4.8-38.6,8.5-47.5c1.3-3.2,5.4-8.8,18.2-11.2l0.2,0
			c1.4-0.3,7.4-0.4,10.4-0.4v-0.2c-2.9,0-9,0.1-10.4,0.4l-0.2,0c-12.9,2.5-17.1,8.2-18.4,11.4c-3.7,8.9-8.4,46.1-8.5,47.5
			c0,0.1-0.4,7,2.8,10.6c1.1,1.3,2.6,2,4.4,2.1c7.1,0.3,30.1,0.3,30.3,0.3V331c-0.2,0-23.3,0-30.3-0.3
			C26.8,330.6,25.4,329.9,24.3,328.7z"/>
		<path class="st3" d="M58.8,265.3l0-0.2c-0.4,0-0.9,0-1.6,0c-3.7,0.1-11.3,0.2-13.1,1c-1.7,0.7-7.2,3.2-7.6,7.7
			c-0.2,1.8-0.4,5.8-0.3,15.1c0,0.2,0,0.4,0,0.4h0.2c0-0.1,0-0.2,0-0.4c-0.1-9.2,0.1-13.3,0.3-15.1c0.5-4.5,5.9-6.9,7.5-7.6
			c1.8-0.7,9.4-0.9,13.1-0.9C57.9,265.3,58.5,265.3,58.8,265.3z"/>
		<path class="st3" d="M36.1,303.1c1.1,5,4,5.8,5.6,5.8h4.4v-0.2h-4.4c-3.6,0-4.9-3.5-5.4-5.6l0-0.1c-0.1-0.5,0-4.4,0.1-7.1
			c0-1.2,0.1-2.2,0.1-2.5h-0.2c0,0.3,0,1.3-0.1,2.5C36.1,298.7,36,302.6,36.1,303.1L36.1,303.1z"/>
		<path class="st3" d="M50.4,309c0.7,0,8.4,0.1,8.5,0.1l0-0.2c-0.1,0-7.7-0.1-8.5-0.1V309z"/>
		<path class="st3" d="M42.8,291.4v-0.1c0-1.1-0.9-1.9-1.9-1.9h-8.1c-1.1,0-1.9,0.9-1.9,1.9v0.1c0,1.1,0.9,1.9,1.9,1.9h8.1
			C41.9,293.4,42.8,292.5,42.8,291.4z M31.1,291.4v-0.1c0-0.9,0.8-1.7,1.7-1.7h8.1c0.9,0,1.7,0.8,1.7,1.7v0.1c0,0.9-0.8,1.7-1.7,1.7
			h-8.1C31.9,293.2,31.1,292.4,31.1,291.4z"/>
		<path class="st3" d="M46.3,303.5v12.6c0,1.1,0.9,1.9,1.9,1.9c1.1,0,1.9-0.9,1.9-1.9v-12.6c0-1.1-0.9-1.9-1.9-1.9
			C47.2,301.6,46.3,302.4,46.3,303.5z M50,303.5v12.6c0,0.9-0.8,1.7-1.7,1.7s-1.7-0.8-1.7-1.7v-12.6c0-0.9,0.8-1.7,1.7-1.7
			S50,302.5,50,303.5z"/>
		<path class="st3" d="M20.2,86.3c0,0.1,0.1,1.4,0.1,2.5c0,1.6,0,3.3,0.1,3.6c0,0,0,0.1,0,0.2c1,5.7,5.7,8.9,9.4,10.6
			c7.7,3.6,15.3,4.4,16.4,4.4v-0.2c-1.1,0-8.6-0.8-16.3-4.4c-3.7-1.7-8.3-4.9-9.3-10.5c0-0.1,0-0.2-0.1-0.3
			c-0.1-0.3-0.1-2.1-0.1-3.6c0-1.5,0-2.4-0.1-2.6c-0.1-0.4-0.5-0.6-1.2-0.6l0,0.2C19.9,85.9,20.1,86.1,20.2,86.3z"/>
		<path class="st3" d="M20.8,84c0.4,0,0.7,0,1.1,0c0.1,0,0.2,0.1,0.3,0.1c0.1,0.1,0.2,0.4,0.2,0.5c0,0.1-0.1,6.2,0.4,8.8
			c0.6,2.6,5.6,6.7,7.2,7.6c0.6,0.3,1.4,0.6,2.4,1c0.1,0.2,0.3,0.4,0.5,0.5c0.3,0.2,0.6,0.2,0.9,0.2c0.2,0,0.4,0,0.6-0.1
			c1.1,0.3,2.4,0.7,3.8,1c1.7,0.4,7.4,0.9,12.6,1.2l-5.6-0.1l0,0.1c0,0,0,0.6,0.3,0.9c0.2,0.2,0.5,0.4,0.9,0.4
			c0,1.7,0.1,19.4,0.1,19.6l0,0.2l0.2-0.1c0.1,0,1.8-1.1,12.4-1l0,0c10.6-0.1,12.1,1,12.1,1l0.2,0.2l0-0.2c0-0.2,0.1-17.9,0.1-19.6
			c0.4,0,0.7-0.1,0.9-0.4c0.4-0.4,0.3-0.9,0.3-0.9l0-0.1l-5.6,0.1c5.2-0.3,10.9-0.8,12.6-1.2c1.5-0.4,2.7-0.7,3.8-1
			c0.2,0.1,0.4,0.1,0.6,0.1c0.3,0,0.6-0.1,0.9-0.2c0.2-0.1,0.4-0.3,0.5-0.5c1-0.4,1.9-0.7,2.4-1c0.8-0.4,2.5-1.7,4-3.2
			c1-1,2.8-2.9,3.2-4.4c0.6-2.6,0.5-8.7,0.4-8.8c0-0.1,0.1-0.3,0.2-0.5C95.9,84.1,96,84,96,84c0.3,0,0.7,0,1.1,0c0.5,0,1,0,1.5,0
			l0-0.2c-0.5,0-1,0-1.6,0c-0.4,0-0.7,0-1.1,0c-0.1,0-0.3,0.1-0.4,0.2c-0.2,0.2-0.3,0.4-0.3,0.6c0,0.1,0.1,6.2-0.4,8.7
			c-0.6,2.5-5.5,6.6-7.1,7.4c-0.5,0.3-1.2,0.6-2.1,0.9c0-0.1,0.1-0.2,0.1-0.3c0.1-0.4,0.1-0.9-0.2-1.3l-1.7-2.9
			c-0.2-0.4-0.6-0.7-1-0.8c-0.4-0.1-0.9-0.1-1.3,0.2c-0.4,0.2-0.7,0.6-0.8,1c-0.1,0.4-0.1,0.9,0.2,1.3l1.7,2.9
			c0.1,0.3,0.4,0.5,0.6,0.6c-1.1,0.3-2.2,0.6-3.6,1c-2.6,0.6-14.5,1.4-19.5,1.5l-1.1,0v0l-1.2,0c-5-0.1-17-0.9-19.5-1.5
			c-1.3-0.3-2.5-0.7-3.6-1c0.2-0.1,0.5-0.3,0.6-0.6L37,99c0.2-0.4,0.3-0.9,0.2-1.3c-0.1-0.4-0.4-0.8-0.8-1c-0.4-0.2-0.9-0.3-1.3-0.2
			c-0.4,0.1-0.8,0.4-1,0.8l-1.7,2.9c-0.2,0.4-0.3,0.9-0.2,1.3c0,0.1,0.1,0.2,0.1,0.3c-0.9-0.3-1.6-0.6-2.1-0.9
			c-1.6-0.8-6.5-4.9-7.1-7.4c-0.6-2.6-0.4-8.7-0.4-8.7c0-0.2-0.1-0.4-0.3-0.6c-0.1-0.1-0.3-0.2-0.4-0.2c-0.3,0-0.7,0-1.1,0
			c-0.5,0-1,0-1.6,0l0,0.2C19.7,84,20.3,84,20.8,84z M84.8,102.3c-0.3,0.2-0.6,0.2-0.8,0.2c0.4-0.1,0.7-0.2,1-0.3
			C84.9,102.2,84.9,102.2,84.8,102.3z M82.8,101.7l-1.7-2.9c-0.2-0.3-0.2-0.7-0.1-1.1c0.1-0.4,0.3-0.7,0.7-0.9
			c0.2-0.1,0.5-0.2,0.7-0.2c0.1,0,0.3,0,0.4,0.1c0.4,0.1,0.7,0.3,0.9,0.7l1.7,2.9c0.3,0.5,0.2,1.1-0.1,1.5c-0.5,0.2-1.1,0.4-1.8,0.6
			C83.2,102.3,83,102,82.8,101.7z M57.8,105.2c0.4,0,0.9,0,1.2,0v0c0.3,0,0.6,0,1,0l12.4-0.2c0,0.2,0,0.4-0.3,0.7
			c-0.2,0.2-0.5,0.3-0.9,0.3l-0.1,0v0.1c0,0.6-0.1,17.5-0.1,19.5c-0.6-0.3-3.1-1-12.1-0.9l0,0c-9-0.1-11.7,0.7-12.3,0.9
			c0-2-0.1-19-0.1-19.5V106l-0.1,0c0,0,0,0,0,0c-0.4,0-0.7-0.1-0.9-0.3c-0.2-0.2-0.2-0.5-0.3-0.7L57.8,105.2z M33.1,102.3
			c-0.1,0-0.1-0.1-0.2-0.1c0.3,0.1,0.7,0.2,1,0.3C33.7,102.5,33.4,102.4,33.1,102.3z M32.6,100.3l1.7-2.9c0.2-0.3,0.5-0.6,0.9-0.7
			c0.1,0,0.3-0.1,0.4-0.1c0.3,0,0.5,0.1,0.7,0.2c0.3,0.2,0.6,0.5,0.7,0.9c0.1,0.4,0,0.8-0.1,1.1l-1.7,2.9c-0.2,0.3-0.4,0.5-0.7,0.6
			c-0.7-0.2-1.2-0.4-1.8-0.6C32.3,101.4,32.3,100.8,32.6,100.3z"/>
		<path class="st3" d="M48.6,108.2c1.5,0.7,10.1,0.8,10.5,0.8l0,0c0.5,0,8.8-0.1,10.3-0.8l-0.1-0.2c-1.5,0.7-10.1,0.8-10.2,0.8l0,0
			c-0.4,0-8.9-0.1-10.3-0.8L48.6,108.2z"/>
		<path class="st3" d="M88.1,270.7c-1.3-3.2-5.4-8.9-18.4-11.4l-0.2,0c-1.4-0.3-7.5-0.4-10.4-0.4v0.2c2.9,0,9,0.1,10.4,0.4l0.2,0
			c12.8,2.4,16.9,8.1,18.2,11.2c3.6,8.9,8.4,46.1,8.5,47.5c0,0.1,0.4,6.9-2.7,10.4c-1.1,1.2-2.5,1.9-4.2,2
			c-7.1,0.3-30.1,0.3-30.3,0.3v0.2c0.2,0,23.3,0,30.3-0.3c1.8-0.1,3.2-0.8,4.4-2.1c3.2-3.6,2.8-10.5,2.8-10.6
			C96.5,316.9,91.7,279.6,88.1,270.7z"/>
		<path class="st3" d="M73.8,266c-1.8-0.7-9.5-0.9-13.1-1c-0.7,0-1.2,0-1.6,0l0,0.2c0.4,0,0.9,0,1.6,0c3.7,0.1,11.3,0.2,13.1,0.9
			c1.6,0.6,7,3.1,7.5,7.6c0.2,1.8,0.4,5.8,0.3,15.1c0,0.2,0,0.4,0,0.4h0.2c0-0.1,0-0.2,0-0.4c0.1-9.3-0.1-13.3-0.3-15.1
			C81,269.2,75.5,266.7,73.8,266z"/>
		<path class="st3" d="M81.6,303.1c-0.5,2.1-1.8,5.6-5.4,5.6h-4.4v0.2h4.4c1.6,0,4.5-0.8,5.6-5.8l0-0.1c0.1-0.5,0-4.3-0.1-7.1
			c0-1.2-0.1-2.2-0.1-2.5h-0.2c0,0.3,0,1.3,0.1,2.5C81.6,298.6,81.7,302.6,81.6,303.1L81.6,303.1z"/>
		<path class="st3" d="M67.5,308.8c-0.7,0-8.4,0.1-8.5,0.1l0,0.2c0.1,0,7.7-0.1,8.5-0.1V308.8z"/>
		<path class="st3" d="M87,291.4v-0.1c0-1.1-0.9-1.9-1.9-1.9H77c-1.1,0-1.9,0.9-1.9,1.9v0.1c0,1.1,0.9,1.9,1.9,1.9h8.1
			C86.1,293.4,87,292.5,87,291.4z M75.3,291.4v-0.1c0-0.9,0.8-1.7,1.7-1.7h8.1c0.9,0,1.7,0.8,1.7,1.7v0.1c0,0.9-0.8,1.7-1.7,1.7H77
			C76.1,293.2,75.3,292.4,75.3,291.4z"/>
		<path class="st3" d="M67.7,303.5v12.6c0,1.1,0.9,1.9,1.9,1.9c1.1,0,1.9-0.9,1.9-1.9v-12.6c0-1.1-0.9-1.9-1.9-1.9
			C68.6,301.6,67.7,302.4,67.7,303.5z M71.3,303.5v12.6c0,0.9-0.8,1.7-1.7,1.7s-1.7-0.8-1.7-1.7v-12.6c0-0.9,0.8-1.7,1.7-1.7
			S71.3,302.5,71.3,303.5z"/>
		<path class="st3" d="M70,123.4v-13.3h-11h-11v13.3h11H70z M48.2,110.4h10.8h10.8v12.8H58.9H48.2V110.4z"/>
		<polygon class="st3" points="59,106.6 69.7,106.5 69.7,106.3 59,106.4 59,106.4 48.2,106.3 48.2,106.5 59,106.6 		"/>
		<path class="st3" d="M141.4,51h41.3c1.3,0,2.3-1,2.3-2.3V36.3c0-1.3-1-2.3-2.3-2.3h-41.3c-1.3,0-2.3,1-2.3,2.3v12.4
			C139,50,140.1,51,141.4,51z M139.3,36.3c0-1.1,0.9-2.1,2.1-2.1h41.3c1.1,0,2.1,0.9,2.1,2.1v12.4c0,1.1-0.9,2.1-2.1,2.1h-41.3
			c-1.1,0-2.1-0.9-2.1-2.1V36.3z"/>
		<path class="st3" d="M189.2,51h41.3c1.3,0,2.3-1,2.3-2.3V36.3c0-1.3-1-2.3-2.3-2.3h-41.3c-1.3,0-2.3,1-2.3,2.3v12.4
			C186.8,50,187.9,51,189.2,51z M187.1,36.3c0-1.1,0.9-2.1,2.1-2.1h41.3c1.1,0,2.1,0.9,2.1,2.1v12.4c0,1.1-0.9,2.1-2.1,2.1h-41.3
			c-1.1,0-2.1-0.9-2.1-2.1V36.3z"/>
		<path class="st3" d="M237,51h41.3c1.3,0,2.3-1,2.3-2.3V36.3c0-1.3-1-2.3-2.3-2.3H237c-1.3,0-2.3,1-2.3,2.3v12.4
			C234.6,50,235.7,51,237,51z M234.9,36.3c0-1.1,0.9-2.1,2.1-2.1h41.3c1.1,0,2.1,0.9,2.1,2.1v12.4c0,1.1-0.9,2.1-2.1,2.1H237
			c-1.1,0-2.1-0.9-2.1-2.1V36.3z"/>
		<path class="st3" d="M284.8,51H326c1.3,0,2.3-1,2.3-2.3V36.3c0-1.3-1-2.3-2.3-2.3h-41.3c-1.3,0-2.3,1-2.3,2.3v12.4
			C282.4,50,283.5,51,284.8,51z M282.7,36.3c0-1.1,0.9-2.1,2.1-2.1H326c1.1,0,2.1,0.9,2.1,2.1v12.4c0,1.1-0.9,2.1-2.1,2.1h-41.3
			c-1.1,0-2.1-0.9-2.1-2.1V36.3z"/>
		<path class="st3" d="M332.5,51h41.3c1.3,0,2.3-1,2.3-2.3V36.3c0-1.3-1-2.3-2.3-2.3h-41.3c-1.3,0-2.3,1-2.3,2.3v12.4
			C330.2,50,331.3,51,332.5,51z M330.5,36.3c0-1.1,0.9-2.1,2.1-2.1h41.3c1.1,0,2.1,0.9,2.1,2.1v12.4c0,1.1-0.9,2.1-2.1,2.1h-41.3
			c-1.1,0-2.1-0.9-2.1-2.1V36.3z"/>
		<path class="st3" d="M141.4,69.8h41.3c1.3,0,2.3-1,2.3-2.3V55c0-1.3-1-2.3-2.3-2.3h-41.3c-1.3,0-2.3,1-2.3,2.3v12.4
			C139,68.7,140.1,69.8,141.4,69.8z M139.3,55c0-1.1,0.9-2.1,2.1-2.1h41.3c1.1,0,2.1,0.9,2.1,2.1v12.4c0,1.1-0.9,2.1-2.1,2.1h-41.3
			c-1.1,0-2.1-0.9-2.1-2.1V55z"/>
		<path class="st3" d="M189.2,69.8h41.3c1.3,0,2.3-1,2.3-2.3V55c0-1.3-1-2.3-2.3-2.3h-41.3c-1.3,0-2.3,1-2.3,2.3v12.4
			C186.8,68.7,187.9,69.8,189.2,69.8z M187.1,55c0-1.1,0.9-2.1,2.1-2.1h41.3c1.1,0,2.1,0.9,2.1,2.1v12.4c0,1.1-0.9,2.1-2.1,2.1
			h-41.3c-1.1,0-2.1-0.9-2.1-2.1V55z"/>
		<path class="st3" d="M237,69.8h41.3c1.3,0,2.3-1,2.3-2.3V55c0-1.3-1-2.3-2.3-2.3H237c-1.3,0-2.3,1-2.3,2.3v12.4
			C234.6,68.7,235.7,69.8,237,69.8z M234.9,55c0-1.1,0.9-2.1,2.1-2.1h41.3c1.1,0,2.1,0.9,2.1,2.1v12.4c0,1.1-0.9,2.1-2.1,2.1H237
			c-1.1,0-2.1-0.9-2.1-2.1V55z"/>
		<path class="st3" d="M284.8,69.8H326c1.3,0,2.3-1,2.3-2.3V55c0-1.3-1-2.3-2.3-2.3h-41.3c-1.3,0-2.3,1-2.3,2.3v12.4
			C282.4,68.7,283.5,69.8,284.8,69.8z M282.7,55c0-1.1,0.9-2.1,2.1-2.1H326c1.1,0,2.1,0.9,2.1,2.1v12.4c0,1.1-0.9,2.1-2.1,2.1h-41.3
			c-1.1,0-2.1-0.9-2.1-2.1V55z"/>
		<path class="st3" d="M332.5,69.8h41.3c1.3,0,2.3-1,2.3-2.3V55c0-1.3-1-2.3-2.3-2.3h-41.3c-1.3,0-2.3,1-2.3,2.3v12.4
			C330.2,68.7,331.3,69.8,332.5,69.8z M330.5,55c0-1.1,0.9-2.1,2.1-2.1h41.3c1.1,0,2.1,0.9,2.1,2.1v12.4c0,1.1-0.9,2.1-2.1,2.1
			h-41.3c-1.1,0-2.1-0.9-2.1-2.1V55z"/>
		<path class="st3" d="M141.4,88.5h41.3c1.3,0,2.3-1,2.3-2.3V73.8c0-1.3-1-2.3-2.3-2.3h-41.3c-1.3,0-2.3,1-2.3,2.3v12.4
			C139,87.5,140.1,88.5,141.4,88.5z M139.3,73.8c0-1.1,0.9-2.1,2.1-2.1h41.3c1.1,0,2.1,0.9,2.1,2.1v12.4c0,1.1-0.9,2.1-2.1,2.1
			h-41.3c-1.1,0-2.1-0.9-2.1-2.1V73.8z"/>
		<path class="st3" d="M189.2,88.5h41.3c1.3,0,2.3-1,2.3-2.3V73.8c0-1.3-1-2.3-2.3-2.3h-41.3c-1.3,0-2.3,1-2.3,2.3v12.4
			C186.8,87.5,187.9,88.5,189.2,88.5z M187.1,73.8c0-1.1,0.9-2.1,2.1-2.1h41.3c1.1,0,2.1,0.9,2.1,2.1v12.4c0,1.1-0.9,2.1-2.1,2.1
			h-41.3c-1.1,0-2.1-0.9-2.1-2.1V73.8z"/>
		<path class="st3" d="M237,88.5h41.3c1.3,0,2.3-1,2.3-2.3V73.8c0-1.3-1-2.3-2.3-2.3H237c-1.3,0-2.3,1-2.3,2.3v12.4
			C234.6,87.5,235.7,88.5,237,88.5z M234.9,73.8c0-1.1,0.9-2.1,2.1-2.1h41.3c1.1,0,2.1,0.9,2.1,2.1v12.4c0,1.1-0.9,2.1-2.1,2.1H237
			c-1.1,0-2.1-0.9-2.1-2.1V73.8z"/>
		<path class="st3" d="M284.8,88.5H326c1.3,0,2.3-1,2.3-2.3V73.8c0-1.3-1-2.3-2.3-2.3h-41.3c-1.3,0-2.3,1-2.3,2.3v12.4
			C282.4,87.5,283.5,88.5,284.8,88.5z M282.7,73.8c0-1.1,0.9-2.1,2.1-2.1H326c1.1,0,2.1,0.9,2.1,2.1v12.4c0,1.1-0.9,2.1-2.1,2.1
			h-41.3c-1.1,0-2.1-0.9-2.1-2.1V73.8z"/>
		<path class="st3" d="M332.5,88.5h41.3c1.3,0,2.3-1,2.3-2.3V73.8c0-1.3-1-2.3-2.3-2.3h-41.3c-1.3,0-2.3,1-2.3,2.3v12.4
			C330.2,87.5,331.3,88.5,332.5,88.5z M330.5,73.8c0-1.1,0.9-2.1,2.1-2.1h41.3c1.1,0,2.1,0.9,2.1,2.1v12.4c0,1.1-0.9,2.1-2.1,2.1
			h-41.3c-1.1,0-2.1-0.9-2.1-2.1V73.8z"/>
		<path class="st3" d="M141.4,107.3h41.3c1.3,0,2.3-1,2.3-2.3V92.5c0-1.3-1-2.3-2.3-2.3h-41.3c-1.3,0-2.3,1-2.3,2.3V105
			C139,106.2,140.1,107.3,141.4,107.3z M139.3,92.5c0-1.1,0.9-2.1,2.1-2.1h41.3c1.1,0,2.1,0.9,2.1,2.1V105c0,1.1-0.9,2.1-2.1,2.1
			h-41.3c-1.1,0-2.1-0.9-2.1-2.1V92.5z"/>
		<path class="st3" d="M189.2,107.3h41.3c1.3,0,2.3-1,2.3-2.3V92.5c0-1.3-1-2.3-2.3-2.3h-41.3c-1.3,0-2.3,1-2.3,2.3V105
			C186.8,106.2,187.9,107.3,189.2,107.3z M187.1,92.5c0-1.1,0.9-2.1,2.1-2.1h41.3c1.1,0,2.1,0.9,2.1,2.1V105c0,1.1-0.9,2.1-2.1,2.1
			h-41.3c-1.1,0-2.1-0.9-2.1-2.1V92.5z"/>
		<path class="st3" d="M237,107.3h41.3c1.3,0,2.3-1,2.3-2.3V92.5c0-1.3-1-2.3-2.3-2.3H237c-1.3,0-2.3,1-2.3,2.3V105
			C234.6,106.2,235.7,107.3,237,107.3z M234.9,92.5c0-1.1,0.9-2.1,2.1-2.1h41.3c1.1,0,2.1,0.9,2.1,2.1V105c0,1.1-0.9,2.1-2.1,2.1
			H237c-1.1,0-2.1-0.9-2.1-2.1V92.5z"/>
		<path class="st3" d="M284.8,107.3H326c1.3,0,2.3-1,2.3-2.3V92.5c0-1.3-1-2.3-2.3-2.3h-41.3c-1.3,0-2.3,1-2.3,2.3V105
			C282.4,106.2,283.5,107.3,284.8,107.3z M282.7,92.5c0-1.1,0.9-2.1,2.1-2.1H326c1.1,0,2.1,0.9,2.1,2.1V105c0,1.1-0.9,2.1-2.1,2.1
			h-41.3c-1.1,0-2.1-0.9-2.1-2.1V92.5z"/>
		<path class="st3" d="M332.5,107.3h41.3c1.3,0,2.3-1,2.3-2.3V92.5c0-1.3-1-2.3-2.3-2.3h-41.3c-1.3,0-2.3,1-2.3,2.3V105
			C330.2,106.2,331.3,107.3,332.5,107.3z M330.5,92.5c0-1.1,0.9-2.1,2.1-2.1h41.3c1.1,0,2.1,0.9,2.1,2.1V105c0,1.1-0.9,2.1-2.1,2.1
			h-41.3c-1.1,0-2.1-0.9-2.1-2.1V92.5z"/>
		<path class="st3" d="M141.4,126h41.3c1.3,0,2.3-1,2.3-2.3v-12.4c0-1.3-1-2.3-2.3-2.3h-41.3c-1.3,0-2.3,1-2.3,2.3v12.4
			C139,125,140.1,126,141.4,126z M139.3,111.3c0-1.1,0.9-2.1,2.1-2.1h41.3c1.1,0,2.1,0.9,2.1,2.1v12.4c0,1.1-0.9,2.1-2.1,2.1h-41.3
			c-1.1,0-2.1-0.9-2.1-2.1V111.3z"/>
		<path class="st3" d="M189.2,126h41.3c1.3,0,2.3-1,2.3-2.3v-12.4c0-1.3-1-2.3-2.3-2.3h-41.3c-1.3,0-2.3,1-2.3,2.3v12.4
			C186.8,125,187.9,126,189.2,126z M187.1,111.3c0-1.1,0.9-2.1,2.1-2.1h41.3c1.1,0,2.1,0.9,2.1,2.1v12.4c0,1.1-0.9,2.1-2.1,2.1
			h-41.3c-1.1,0-2.1-0.9-2.1-2.1V111.3z"/>
		<path class="st3" d="M237,126h41.3c1.3,0,2.3-1,2.3-2.3v-12.4c0-1.3-1-2.3-2.3-2.3H237c-1.3,0-2.3,1-2.3,2.3v12.4
			C234.6,125,235.7,126,237,126z M234.9,111.3c0-1.1,0.9-2.1,2.1-2.1h41.3c1.1,0,2.1,0.9,2.1,2.1v12.4c0,1.1-0.9,2.1-2.1,2.1H237
			c-1.1,0-2.1-0.9-2.1-2.1V111.3z"/>
		<path class="st3" d="M284.8,126H326c1.3,0,2.3-1,2.3-2.3v-12.4c0-1.3-1-2.3-2.3-2.3h-41.3c-1.3,0-2.3,1-2.3,2.3v12.4
			C282.4,125,283.5,126,284.8,126z M282.7,111.3c0-1.1,0.9-2.1,2.1-2.1H326c1.1,0,2.1,0.9,2.1,2.1v12.4c0,1.1-0.9,2.1-2.1,2.1h-41.3
			c-1.1,0-2.1-0.9-2.1-2.1V111.3z"/>
		<path class="st3" d="M332.5,126h41.3c1.3,0,2.3-1,2.3-2.3v-12.4c0-1.3-1-2.3-2.3-2.3h-41.3c-1.3,0-2.3,1-2.3,2.3v12.4
			C330.2,125,331.3,126,332.5,126z M330.5,111.3c0-1.1,0.9-2.1,2.1-2.1h41.3c1.1,0,2.1,0.9,2.1,2.1v12.4c0,1.1-0.9,2.1-2.1,2.1
			h-41.3c-1.1,0-2.1-0.9-2.1-2.1V111.3z"/>
		<path class="st3" d="M141.4,144.6h41.3c1.3,0,2.3-1,2.3-2.3v-12.4c0-1.3-1-2.3-2.3-2.3h-41.3c-1.3,0-2.3,1-2.3,2.3v12.4
			C139,143.6,140.1,144.6,141.4,144.6z M139.3,129.9c0-1.1,0.9-2.1,2.1-2.1h41.3c1.1,0,2.1,0.9,2.1,2.1v12.4c0,1.1-0.9,2.1-2.1,2.1
			h-41.3c-1.1,0-2.1-0.9-2.1-2.1V129.9z"/>
		<path class="st3" d="M189.2,144.6h41.3c1.3,0,2.3-1,2.3-2.3v-12.4c0-1.3-1-2.3-2.3-2.3h-41.3c-1.3,0-2.3,1-2.3,2.3v12.4
			C186.8,143.6,187.9,144.6,189.2,144.6z M187.1,129.9c0-1.1,0.9-2.1,2.1-2.1h41.3c1.1,0,2.1,0.9,2.1,2.1v12.4
			c0,1.1-0.9,2.1-2.1,2.1h-41.3c-1.1,0-2.1-0.9-2.1-2.1V129.9z"/>
		<path class="st3" d="M237,144.6h41.3c1.3,0,2.3-1,2.3-2.3v-12.4c0-1.3-1-2.3-2.3-2.3H237c-1.3,0-2.3,1-2.3,2.3v12.4
			C234.6,143.6,235.7,144.6,237,144.6z M234.9,129.9c0-1.1,0.9-2.1,2.1-2.1h41.3c1.1,0,2.1,0.9,2.1,2.1v12.4c0,1.1-0.9,2.1-2.1,2.1
			H237c-1.1,0-2.1-0.9-2.1-2.1V129.9z"/>
		<path class="st3" d="M284.8,144.6H326c1.3,0,2.3-1,2.3-2.3v-12.4c0-1.3-1-2.3-2.3-2.3h-41.3c-1.3,0-2.3,1-2.3,2.3v12.4
			C282.4,143.6,283.5,144.6,284.8,144.6z M282.7,129.9c0-1.1,0.9-2.1,2.1-2.1H326c1.1,0,2.1,0.9,2.1,2.1v12.4c0,1.1-0.9,2.1-2.1,2.1
			h-41.3c-1.1,0-2.1-0.9-2.1-2.1V129.9z"/>
		<path class="st3" d="M332.5,144.6h41.3c1.3,0,2.3-1,2.3-2.3v-12.4c0-1.3-1-2.3-2.3-2.3h-41.3c-1.3,0-2.3,1-2.3,2.3v12.4
			C330.2,143.6,331.3,144.6,332.5,144.6z M330.5,129.9c0-1.1,0.9-2.1,2.1-2.1h41.3c1.1,0,2.1,0.9,2.1,2.1v12.4
			c0,1.1-0.9,2.1-2.1,2.1h-41.3c-1.1,0-2.1-0.9-2.1-2.1V129.9z"/>
	</g>
</g>
<g id="Ebene_3">
	<g>
		<circle id="bgnumber_5_" class="st4" cx="353.1" cy="117.4" r="7.1"/>
		<text transform="matrix(1 0 0 1 349.2209 120.8451)" class="st5 st6 st7 button" data-number="10">11</text>
	</g>
	<g>
		<circle id="bgnumber_4_" class="st4" cx="353.1" cy="80.1" r="7.1"/>
		<text transform="matrix(1 0 0 1 347.3006 83.4813)" class="st5 st6 st7 button" data-number="8">09</text>
	</g>
	<g>
		<circle id="bgnumber_3_" class="st4" cx="353.1" cy="42.7" r="7.1"/>
		<text transform="matrix(1 0 0 1 347.7602 46.2175)" class="st5 st6 st7 button" data-number="7">07</text>
	</g>
	<g>
		<circle id="bgnumber_2_" class="st4" cx="161.6" cy="117.4" r="7.1"/>
		<text transform="matrix(1 0 0 1 155.9771 120.8738)" class="st5 st6 st7 button" data-number="5">05</text>
	</g>
	<g>
		<circle id="bgnumber_1_" class="st4" cx="161.6" cy="80.1" r="7.1"/>
		<text transform="matrix(1 0 0 1 155.8821 83.51)" class="st5 st6 st7 button" data-number="2">03</text>
	</g>
	<g>
		<circle id="bgnumber" class="st4" cx="161.6" cy="42.7" r="7.1"/>
		<text transform="matrix(1 0 0 1 156.6542 46.1461)" class="st5 st6 st7 button" data-number="0">01</text>
	</g>
	<g>
		<circle id="bgnumber_15_" class="st4" cx="353.1" cy="98.7" r="7.1"/>
		<text transform="matrix(1 0 0 1 348.1862 102.1514)" class="st5 st6 st7 button" data-number="9">10</text>
	</g>
	<g>
		<circle id="bgnumber_14_" class="st4" cx="353.1" cy="61.4" r="7.1"/>
		<text transform="matrix(1 0 0 1 347.2606 64.8876)" class="st5 st6 st7 button" data-number="7">08</text>
	</g>
	<g>
		<circle id="bgnumber_17_" class="st4" cx="210.2" cy="117.4" r="7.1"/>
		<text transform="matrix(1 0 0 1 205.4027 120.8451)" class="st5 st6 st7 button" data-number="15">16</text>
	</g>
	<g>
		<circle id="bgnumber_10_" class="st4" cx="210.2" cy="80.1" r="7.1"/>
		<text transform="matrix(1 0 0 1 205.3526 83.4813)" class="st5 st6 st7 button" data-number="13">14</text>
	</g>
	<g>
		<circle id="bgnumber_9_" class="st4" cx="210.2" cy="42.7" r="7.1"/>
		<text transform="matrix(1 0 0 1 205.632 46.2175)" class="st5 st6 st7 button" data-number="11">12</text>
	</g>
	<g>
		<circle id="bgnumber_8_" class="st4" cx="210.2" cy="136.1" r="7.1"/>
		<text transform="matrix(1 0 0 1 205.8622 139.5152)" class="st5 st6 st7 button" data-number="16">17</text>
	</g>
	<g>
		<circle id="bgnumber_7_" class="st4" cx="210.2" cy="98.7" r="7.1"/>
		<text transform="matrix(1 0 0 1 205.5829 102.1514)" class="st5 st6 st7 button" data-number="14">15</text>
	</g>
	<g>
		<circle id="bgnumber_6_" class="st4" cx="210.2" cy="61.4" r="7.1"/>
		<text transform="matrix(1 0 0 1 205.4874 64.8876)" class="st5 st6 st7 button" data-number="12">13</text>
	</g>
	<g>
		<circle id="bgnumber_23_" class="st4" cx="258.4" cy="117.4" r="7.1"/>
		<text transform="matrix(1 0 0 1 253.1779 120.8451)" class="st5 st6 st7 button" data-number="21">22</text>
	</g>
	<g>
		<circle id="bgnumber_22_" class="st4" cx="258.4" cy="80.1" r="7.1"/>
		<text transform="matrix(1 0 0 1 252.7972 83.4813)" class="st5 st6 st7 button" data-number="19">20</text>
	</g>
	<g>
		<circle id="bgnumber_21_" class="st4" cx="258.4" cy="42.7" r="7.1"/>
		<text transform="matrix(1 0 0 1 253.562 46.2175)" class="st5 st6 st7 button" data-number="17">18</text>
	</g>
	<g>
		<circle id="bgnumber_20_" class="st4" cx="258.4" cy="136.1" r="7.1"/>
		<text transform="matrix(1 0 0 1 253.0324 139.5152)" class="st5 st6 st7 button" data-number="22">23</text>
	</g>
	<g>
		<circle id="bgnumber_19_" class="st4" cx="258.4" cy="98.7" r="7.1"/>
		<text transform="matrix(1 0 0 1 253.8328 102.1514)" class="st5 st6 st7 button" data-number="20">21</text>
	</g>
	<g>
		<circle id="bgnumber_18_" class="st4" cx="258.4" cy="61.4" r="7.1"/>
		<text transform="matrix(1 0 0 1 253.6024 64.8876)" class="st5 st6 st7 button" data-number="18">19</text>
	</g>
	<g>
		<circle id="bgnumber_29_" class="st4" cx="305.8" cy="117.4" r="7.1"/>
		<text transform="matrix(1 0 0 1 300.3746 120.8451)" class="st5 st6 st7 button" data-number="27">28</text>
	</g>
	<g>
		<circle id="bgnumber_28_" class="st4" cx="305.8" cy="80.1" r="7.1"/>
		<text transform="matrix(1 0 0 1 300.4143 83.4813)" class="st5 st6 st7 button" data-number="25">26</text>
	</g>
	<g>
		<circle id="bgnumber_27_" class="st4" cx="305.8" cy="42.7" r="7.1"/>
		<text transform="matrix(1 0 0 1 300.3636 46.2175)" class="st5 st6 st7 button" data-number="23">24</text>
	</g>
	<g>
		<circle id="bgnumber_26_" class="st4" cx="305.8" cy="136.1" r="7.1"/>
		<text transform="matrix(1 0 0 1 300.4142 139.5152)" class="st5 st6 st7 button" data-number="28">29</text>
	</g>
	<g>
		<circle id="bgnumber_25_" class="st4" cx="305.8" cy="98.7" r="7.1"/>
		<text transform="matrix(1 0 0 1 300.8747 102.1514)" class="st5 st6 st7 button" data-number="26">27</text>
	</g>
	<g>
		<circle id="bgnumber_24_" class="st4" cx="305.8" cy="61.4" r="7.1"/>
		<text transform="matrix(1 0 0 1 300.5941 64.8876)" class="st5 st6 st7 button" data-number="24">25</text>
	</g>
	<g>
		<circle id="bgnumber_13_" class="st4" cx="161.6" cy="136.1" r="7.1"/>
		<text transform="matrix(1 0 0 1 155.7973 139.5438)" class="st5 st6 st7 button" data-number="5">06</text>
	</g>
	<g>
		<circle id="bgnumber_12_" class="st4" cx="161.6" cy="98.7" r="7.1"/>
		<text transform="matrix(1 0 0 1 155.7471 102.18)" class="st5 st6 st7 button" data-number="3">04</text>
	</g>
	<g>
		<circle id="bgnumber_11_" class="st4" cx="161.6" cy="61.4" r="7.1"/>
		<text transform="matrix(1 0 0 1 156.027 64.4431)" class="st5 st6 st7 button" data-number="1">02</text>
	</g>
</g>
</svg>
