<?xml version="1.0" encoding="utf-8"?>
<!-- Generator: Adobe Illustrator 21.0.1, SVG Export Plug-In . SVG Version: 6.00 Build 0)  -->
<!DOCTYPE svg PUBLIC "-//W3C//DTD SVG 1.1//EN" "http://www.w3.org/Graphics/SVG/1.1/DTD/svg11.dtd">
<svg version="1.1" xmlns="http://www.w3.org/2000/svg" xmlns:xlink="http://www.w3.org/1999/xlink" x="0px" y="0px"
	 viewBox="0 0 420 374.8" style="enable-background:new 0 0 420 374.8;" xml:space="preserve">
<style type="text/css">
	.button{cursor: pointer}
	.st0{display:none;}
	.st1{display:inline;}
	.st2{fill:none;stroke:#E30613;stroke-miterlimit:10;}
	.st3{fill-rule:evenodd;clip-rule:evenodd;fill:#E52421;}
	.st4{fill-rule:evenodd;clip-rule:evenodd;fill:none;stroke:#E52421;stroke-width:0.25;stroke-miterlimit:10;}
	.st5{fill:none;stroke:#E52421;stroke-width:0.25;stroke-miterlimit:10;}
	.st6{fill:none;stroke:#E30613;stroke-width:0.25;stroke-miterlimit:10;}
	.st7{fill:none;stroke:#E30613;stroke-width:0.2676;stroke-miterlimit:10;}
	.st8{fill:none;stroke:#E30613;stroke-width:0.2673;stroke-miterlimit:10;}
	.st9{fill:#E30613;}
	.st10{font-family:'TeXGyreAdventor-Bold';}
	.st11{font-size:10.8792px;}
	.st12{font-size:3.7302px;}
	.st13{font-size:4.8654px;}
	.st14{fill:none;stroke:#E30613;stroke-width:0.2992;stroke-miterlimit:10;}
	.st15{fill:none;stroke:#E30613;stroke-width:0.329;stroke-miterlimit:10;}
	.st16{fill:none;stroke:#E30613;stroke-width:0.3975;stroke-miterlimit:10;}
	.st17{fill:none;stroke:#E30613;stroke-width:0.3091;stroke-miterlimit:10;}
	.st18{fill:none;stroke:#E30613;stroke-width:0.282;stroke-miterlimit:10;}
	.st19{fill:none;stroke:#E30613;stroke-width:0.3488;stroke-miterlimit:10;}
	.st20{fill:#B3B2B2;}
	.st21{fill:#F2F2F2;}
	.st22{fill:#29AEE4;}
	.st23{font-family:'BrixSansRegular';}
	.st24{font-size:10px;}
</style>
<g id="Ebene_1" class="st0">
	<g class="st1">
		<defs>
			<rect id="SVGID_1_" x="30.1" y="-0.4" width="360" height="321.9"/>
		</defs>
		<clipPath id="SVGID_2_">
			<use xlink:href="#SVGID_1_"  style="overflow:visible;"/>
		</clipPath>
	</g>
</g>
<g id="Ebene_2" class="st0">
	<g class="st1">
		<line class="st2" x1="139.2" y1="56.7" x2="161.3" y2="56.7"/>
		<path class="st2" d="M47.8,56.7h-9.4c-4.4,0-8,3.6-8,8V308c0,7.2,5.8,13,13,13h333.3c7.2,0,13-5.8,13-13V64.7c0-4.4-3.6-8-8-8
			h-11.5"/>
		<path class="st2" d="M47.8,56.7l1.5-32.5c0.2-5.3,4.8-9.5,10.3-9.5l68,0c5.4,0,10,4.2,10.3,9.5l1.5,32.5"/>
		<path class="st2" d="M370.2,56.7V8.5c0-4.4-3.6-8-8-8H169.3c-4.4,0-8,3.6-8,8v48.2"/>
		<path class="st2" d="M370.2,56.7v72.5c0,4.4-3.6,8-8,8H169.3c-4.4,0-8-3.6-8-8V56.7"/>
		<g>
			<path class="st3" d="M244.1,19.8h-2.3l3.5,5.4l-0.2,3.9h2.2l0.2-3.9l0,0l3.9-5.4h-2.3l-2.6,3.7l0,0L244.1,19.8L244.1,19.8z
				 M277.2,22H275l-0.4,6.9h2.2l0.3-4.9c2.6-1.3,2.5,0.6,2.5,0.6l-0.2,4.3h2.2l0.3-4.5c0,0,0.2-2.4-1.8-2.5s-2.9,1-2.9,1L277.2,22
				L277.2,22z M271.1,19.3h2.2l-0.1,1.7H271L271.1,19.3L271.1,19.3z M273.2,22l-0.4,7h-2.2l0.4-7H273.2L273.2,22z M283.2,19.5h1.9
				l-0.2,4.9l2.8-2.7h2.1l-3,2.9l2.2,4.3h-2l-1.5-3.3l-0.7,0.8l-0.1,2.5h-1.9L283.2,19.5L283.2,19.5z M267.1,19.3h2.2l-0.5,9.7h-2.2
				L267.1,19.3L267.1,19.3z M264.2,21.9l-0.1,0.9c-0.4-0.6-1.3-1.2-2.9-1c-2.8,0.4-3.8,3.5-3.2,5.2c0.6,1.8,2.2,2.4,3.5,2.3
				c1.2-0.1,1.8-0.4,2.2-1.1l0,0.7h1.6l0.5-7.1L264.2,21.9L264.2,21.9z M261.8,23.4c1.1,0,2,0.9,1.9,2.1c-0.1,1.2-1,2.1-2.2,2.1
				c-1.1,0-2-0.9-1.9-2.1C259.7,24.4,260.6,23.4,261.8,23.4L261.8,23.4z M253.3,21.4c2.2,0,4,1.8,4,4c0,0.3,0,0.5-0.1,0.8h-1.6l0,0
				H251c0.3,1,1.2,1.7,2.3,1.7c0.6,0,1.2-0.2,1.6-0.6h1.9c-0.7,1.3-2,2.1-3.5,2.1c-2.2,0-4-1.8-4-4S251.1,21.4,253.3,21.4
				L253.3,21.4z M250.9,25h4.7c-0.2-1.1-1.2-1.9-2.4-1.9S251.1,23.9,250.9,25L250.9,25z"/>
		</g>
		<path class="st4" d="M361.7,133.8H169c-2.8,0-5-2.2-5-5V8.5c0-2.8,2.2-5,5-5h192.8c2.8,0,5,2.2,5,5v120.2
			C366.7,131.5,364.5,133.8,361.7,133.8z"/>
		<rect x="211.7" y="41.2" class="st4" width="107.2" height="50.8"/>
		<line class="st5" x1="346.6" y1="1" x2="346.6" y2="3.4"/>
		<line class="st5" x1="352.7" y1="0.8" x2="352.7" y2="3.6"/>
		<g>
			<line class="st5" x1="195.3" y1="49.6" x2="195.3" y2="51.2"/>
			<path class="st5" d="M195.3,49.6L195.3,49.6c0-1.7-1.3-3.1-3-3.1h-16.2c-1.6,0-3,1.3-3,3v1.7c0,1.6,1.3,3,3,3h16.2
				c1.6,0,3-1.3,3-3v-0.1"/>
			<path class="st5" d="M195.3,49.6c-0.1-0.1-0.3-0.2-0.5-0.2h-4.3c-0.5,0-0.9,0.4-0.9,0.9v0c0,0.5,0.4,0.9,0.9,0.9h4.3
				c0.2,0,0.4-0.1,0.5-0.2"/>
		</g>
		<g>
			<line class="st5" x1="195.3" y1="65.4" x2="195.3" y2="67"/>
			<path class="st5" d="M195.3,65.4L195.3,65.4c0-1.7-1.3-3.1-3-3.1h-16.2c-1.6,0-3,1.3-3,3v1.7c0,1.6,1.3,3,3,3h16.2
				c1.6,0,3-1.3,3-3V67"/>
			<path class="st5" d="M195.3,65.4c-0.1-0.1-0.3-0.2-0.5-0.2h-4.3c-0.5,0-0.9,0.4-0.9,0.9v0c0,0.5,0.4,0.9,0.9,0.9h4.3
				c0.2,0,0.4-0.1,0.5-0.2"/>
		</g>
		<g>
			<line class="st5" x1="195.3" y1="81.6" x2="195.3" y2="83.2"/>
			<path class="st5" d="M195.3,81.6L195.3,81.6c0-1.7-1.3-3.1-3-3.1h-16.2c-1.6,0-3,1.3-3,3v1.7c0,1.6,1.3,3,3,3h16.2
				c1.6,0,3-1.3,3-3v-0.1"/>
			<path class="st5" d="M195.3,81.6c-0.1-0.1-0.3-0.2-0.5-0.2h-4.3c-0.5,0-0.9,0.4-0.9,0.9v0c0,0.5,0.4,0.9,0.9,0.9h4.3
				c0.2,0,0.4-0.1,0.5-0.2"/>
		</g>
		<path class="st5" d="M235.3,113.3L235.3,113.3c0,1.7-1.3,3.1-3,3.1h-16.2c-1.6,0-3-1.3-3-3v-1.7c0-1.6,1.3-3,3-3h16.2
			c1.6,0,3,1.3,3,3v0.1V113.3z"/>
		<path class="st5" d="M262.8,113.3L262.8,113.3c0,1.7-1.3,3.1-3,3.1h-16.2c-1.6,0-3-1.3-3-3v-1.7c0-1.6,1.3-3,3-3h16.2
			c1.6,0,3,1.3,3,3v0.1V113.3z"/>
		<path class="st5" d="M290.4,113.3L290.4,113.3c0,1.7-1.3,3.1-3,3.1h-16.2c-1.6,0-3-1.3-3-3v-1.7c0-1.6,1.3-3,3-3h16.2
			c1.6,0,3,1.3,3,3v0.1V113.3z"/>
		<path class="st5" d="M317.9,113.3L317.9,113.3c0,1.7-1.3,3.1-3,3.1h-16.2c-1.6,0-3-1.3-3-3v-1.7c0-1.6,1.3-3,3-3h16.2
			c1.6,0,3,1.3,3,3v0.1V113.3z"/>
		<g>
			<line class="st5" x1="335.6" y1="83.2" x2="335.6" y2="81.6"/>
			<path class="st5" d="M335.6,83.2L335.6,83.2c0,1.7,1.3,3.1,3,3.1h16.2c1.6,0,3-1.3,3-3v-1.7c0-1.6-1.3-3-3-3h-16.2
				c-1.6,0-3,1.3-3,3v0.1"/>
			<path class="st5" d="M335.6,83.2c0.1,0.1,0.3,0.2,0.5,0.2h4.3c0.5,0,0.9-0.4,0.9-0.9v0c0-0.5-0.4-0.9-0.9-0.9h-4.3
				c-0.2,0-0.4,0.1-0.5,0.2"/>
		</g>
		<g>
			<line class="st5" x1="335.6" y1="67.4" x2="335.6" y2="65.8"/>
			<path class="st5" d="M335.6,67.4L335.6,67.4c0,1.7,1.3,3.1,3,3.1h16.2c1.6,0,3-1.3,3-3v-1.7c0-1.6-1.3-3-3-3h-16.2
				c-1.6,0-3,1.3-3,3v0.1"/>
			<path class="st5" d="M335.6,67.4c0.1,0.1,0.3,0.2,0.5,0.2h4.3c0.5,0,0.9-0.4,0.9-0.9v0c0-0.5-0.4-0.9-0.9-0.9h-4.3
				c-0.2,0-0.4,0.1-0.5,0.2"/>
		</g>
		<g>
			<line class="st5" x1="335.6" y1="51.2" x2="335.6" y2="49.6"/>
			<path class="st5" d="M335.6,51.2L335.6,51.2c0,1.7,1.3,3.1,3,3.1h16.2c1.6,0,3-1.3,3-3v-1.7c0-1.6-1.3-3-3-3h-16.2
				c-1.6,0-3,1.3-3,3v0.1"/>
			<path class="st5" d="M335.6,51.2c0.1,0.1,0.3,0.2,0.5,0.2h4.3c0.5,0,0.9-0.4,0.9-0.9v0c0-0.5-0.4-0.9-0.9-0.9h-4.3
				c-0.2,0-0.4,0.1-0.5,0.2"/>
		</g>
		<path class="st6" d="M49,28l3.6,0c0,0,1.8,1.2,1.8,2.6s0.6,20.7,0.8,21.8s-0.5,6.9,6.2,10.9c2.3,1.4,5.8,2.3,8.8,2.9
			c6,1.1,12.1,1.5,12.8,1.5"/>
		<path class="st6" d="M52.6,28c0,0-0.1,24.6-0.2,26.3c-0.2,3.2,1.4,10.2,7.3,12.9s18.5,4.2,20.5,4.3"/>
		<path class="st6" d="M65,238.4c0.9,2.1,3.1,8.8,3.5,11.8c0.2,1.1,0.6,4.2,0.6,7.9c0,6.1-0.4,13.8-0.2,15.7c0.2,3,0.2,3.9,2,3.9
			c1.8,0,6-0.1,6-0.1"/>
		<path class="st6" d="M76.8,280.7c-0.7,0-5.8,0.2-6.2,0.1c-0.4-0.1-4.5-1.2-4.5-4.5s0.1-18.8-0.1-20.7c-0.1-1-0.4-4.3-1.3-7.4
			c-0.8-2.5-2.1-5-2.8-5.8"/>
		<path class="st6" d="M78,286.1L78,286.1c0.5,0,0.9-0.4,0.9-0.9v-14.1c0-0.5-0.4-0.9-0.9-0.9l0,0c-0.5,0-0.9,0.4-0.9,0.9v14.1
			C77.1,285.7,77.5,286.1,78,286.1z"/>
		<path class="st6" d="M93.5,40.5c0,0,30,0,30.7,0s1.8,0.5,1.8,1.8c0,1.3,0,5.6,0,5.6s0.6,4.7-6.4,7.3c-3,1.1-7.5,2.6-12,3.3
			c-6,1-12.1,1.1-14.1,1.1H93c-2,0-8-0.1-14.1-1.1c-4.5-0.7-9.1-2.2-12-3.3c-7-2.7-6.4-7.3-6.4-7.3s0-4.3,0-5.6
			c0-1.3,1.1-1.8,1.8-1.8s30.7,0,30.7,0"/>
		<path class="st6" d="M93.5,42.5c0,0,27.5,0,28.3,0s2.4,1,1.1,2.2c-0.3,0.3-1.5,1.1-3.7,2c-2.2,0.9-5.5,1.9-8.9,2.7
			c-6.4,1.4-14.2,1.8-16.8,1.8H93c-2.6,0-10.3-0.3-16.8-1.8c-3.3-0.7-6.6-1.8-8.9-2.7c-2.2-0.9-3.4-1.7-3.7-2
			c-1.3-1.2,0.2-2.2,1.1-2.2c0.9,0,28.3,0,28.3,0H93.5z"/>
		<path class="st6" d="M137.5,28l-3.6,0c0,0-1.8,1.2-1.8,2.6s-0.6,20.7-0.8,21.8s0.5,6.9-6.2,10.9c-2.3,1.4-5.8,2.3-8.8,2.9
			c-6,1.1-12.1,1.5-12.8,1.5"/>
		<path class="st6" d="M133.9,28c0,0,0.1,24.6,0.2,26.3c0.2,3.2-1.4,10.2-7.3,12.9s-18.5,4.2-20.5,4.3"/>
		<polygon class="st6" points="93.5,71.8 103.5,71.8 103.5,67.5 93.5,67.5 93,67.5 83,67.5 83,71.8 93,71.8 		"/>
		<path class="st6" d="M105.4,84.8l0-11.9c-3.8,0.8-11.4,0.8-11.9,0.8H93c-0.5,0-8.1,0-11.9-0.8l0,11.9"/>
		<path class="st6" d="M103.6,69.5l1.5,0l0.2-0.6l2.9-0.2l0.1,1.2l-1.8,0.1c0,0,0,16.6,0,17s-0.1,1.2-0.9,1.2s-1.4,0.2-1.4,1.1
			s0,1.5,0,2s0,1.5-1.2,1.5s-9,0-9.4,0H93c-0.4,0-8.2,0-9.4,0s-1.2-1-1.2-1.5s0-1.1,0-2s-0.6-1.1-1.4-1.1s-0.9-0.7-0.9-1.2
			s0-17,0-17L78.3,70l0.1-1.2l2.9,0.2l0.2,0.6l1.5,0"/>
		<path class="st6" d="M102.1,87.1c0.8-0.1,3.4-0.3,3.4-0.3c0.2-0.6,0-1.1-0.1-1.9c-1-0.5-12-0.7-12-0.7h-0.3c0,0-11,0.2-12,0.7
			c0,0.8-0.2,1.3-0.1,1.9c0,0,2.6,0.2,3.4,0.3"/>
		<path class="st6" d="M102.4,91.8c0.7,0,0.6-0.6,0.7-0.8c0-0.2,0-2.5,0-2.9c0-0.4,0.2-0.5-0.3-0.7s-9.2-0.1-9.2-0.1H93
			c0,0-8.7-0.1-9.2,0.1s-0.3,0.3-0.3,0.7c0,0.4-0.1,2.7,0,2.9c0,0.2,0,0.8,0.7,0.8"/>
		<path class="st6" d="M102,91.5c-0.5,0-8.5,0-8.5,0H93c0,0-8,0-8.5,0"/>
		<path class="st6" d="M93.2,234.6c1.6,0,8.6,0,16,0.7c4.5,0.4,10.4,1.4,11.6,1.7c1.5,0.5,3.6,0.3,5.2,5.5
			c0.6,2.1,1.5,11.9,2.7,21.2c1.3,10.3,3.1,20,3.3,21.2c0,0,1.7,9.9-5.8,10.5c-3,0.2-8.5-0.2-14.1-0.2c-8.3-0.1-16.9,0-18.6,0h-0.7
			c-1.6,0-10.3-0.1-18.6,0c-5.6,0.1-11.1,0.5-14.1,0.2c-7.5-0.6-5.8-10.5-5.8-10.5c0.3-1.2,2-11,3.3-21.2c1.2-9.3,2-19.1,2.7-21.2
			c1.6-5.3,3.7-5.1,5.2-5.5c1.2-0.4,7.1-1.3,11.6-1.7C84.6,234.6,91.7,234.6,93.2,234.6"/>
		<path class="st6" d="M121.5,238.4c-0.9,2.1-3.1,8.8-3.5,11.8c-0.2,1.1-0.6,4.2-0.6,7.9c0,6.1,0.4,13.8,0.2,15.7
			c-0.2,3-0.2,3.9-2,3.9c-1.8,0-6-0.1-6-0.1"/>
		<path class="st6" d="M107.4,277.5c0,0-13.4-0.1-14-0.1h-0.3c-0.6,0-14,0.1-14,0.1"/>
		<path class="st6" d="M107.4,280.6c-0.2-0.1-14,0-14,0h-0.3c0,0-13.8-0.1-14,0"/>
		<path class="st6" d="M109.7,280.7c0.7,0,5.8,0.2,6.2,0.1c0.4-0.1,4.5-1.2,4.5-4.5s-0.1-18.8,0.1-20.7c0.1-1,0.4-4.3,1.3-7.4
			c0.8-2.5,2.1-5,2.8-5.8"/>
		<path class="st6" d="M108.5,286.1L108.5,286.1c-0.5,0-0.9-0.4-0.9-0.9v-14.1c0-0.5,0.4-0.9,0.9-0.9l0,0c0.5,0,0.9,0.4,0.9,0.9
			v14.1C109.4,285.7,109,286.1,108.5,286.1z"/>
		<g>
			<g>
				<g>

						<ellipse transform="matrix(0.4258 -0.9048 0.9048 0.4258 -110.0951 180.0504)" class="st6" cx="86.8" cy="176.8" rx="3.4" ry="2.2"/>

						<ellipse transform="matrix(0.4258 -0.9048 0.9048 0.4258 -76.7814 175.8419)" class="st6" cx="100.2" cy="148.4" rx="3.4" ry="2.2"/>
				</g>
				<g>

						<ellipse transform="matrix(0.7771 -0.6293 0.6293 0.7771 -90.4072 89.5979)" class="st6" cx="81.3" cy="172.5" rx="3.4" ry="2.2"/>

						<ellipse transform="matrix(0.7771 -0.6293 0.6293 0.7771 -72.5712 100.5278)" class="st6" cx="105.7" cy="152.7" rx="3.4" ry="2.2"/>
				</g>
				<g>

						<ellipse transform="matrix(0.9736 -0.2284 0.2284 0.9736 -35.8778 22.2536)" class="st6" cx="78.2" cy="166.2" rx="3.4" ry="2.2"/>

						<ellipse transform="matrix(0.9736 -0.2284 0.2284 0.9736 -33.438 29.0305)" class="st6" cx="108.7" cy="159" rx="3.4" ry="2.2"/>
				</g>
				<g>

						<ellipse transform="matrix(0.2181 -0.9759 0.9759 0.2181 -94.2058 200.7581)" class="st6" cx="78.2" cy="159.2" rx="2.2" ry="3.4"/>

						<ellipse transform="matrix(0.2181 -0.9759 0.9759 0.2181 -76.9682 235.9445)" class="st6" cx="108.8" cy="166" rx="2.2" ry="3.4"/>
				</g>
				<g>

						<ellipse transform="matrix(0.6211 -0.7837 0.7837 0.6211 -89.0313 121.5487)" class="st6" cx="81.2" cy="152.9" rx="2.2" ry="3.4"/>

						<ellipse transform="matrix(0.6211 -0.7837 0.7837 0.6211 -94.981 148.1663)" class="st6" cx="105.8" cy="172.3" rx="2.2" ry="3.4"/>
				</g>
				<g>

						<ellipse transform="matrix(0.9003 -0.4352 0.4352 0.9003 -55.9871 52.5189)" class="st6" cx="86.7" cy="148.5" rx="2.2" ry="3.4"/>

						<ellipse transform="matrix(0.9003 -0.4352 0.4352 0.9003 -66.9056 61.2663)" class="st6" cx="100.3" cy="176.7" rx="2.2" ry="3.4"/>
				</g>
				<g>
					<ellipse class="st6" cx="93.5" cy="146.9" rx="2.2" ry="3.4"/>
					<ellipse class="st6" cx="93.5" cy="178.3" rx="2.2" ry="3.4"/>
				</g>
			</g>
			<g>
				<g>

						<ellipse transform="matrix(0.309 -0.9511 0.9511 0.309 -118.0174 210.3119)" class="st6" cx="85.7" cy="186.4" rx="3.4" ry="2.2"/>

						<ellipse transform="matrix(0.309 -0.9511 0.9511 0.309 -62.0225 192.118)" class="st6" cx="101.2" cy="138.7" rx="3.4" ry="2.2"/>
				</g>
				<g>

						<ellipse transform="matrix(0.5878 -0.809 0.809 0.5878 -115.4425 139.0663)" class="st6" cx="78.7" cy="182.8" rx="3.4" ry="2.2"/>

						<ellipse transform="matrix(0.5878 -0.809 0.809 0.5878 -70.5277 146.1801)" class="st6" cx="108.2" cy="142.3" rx="3.4" ry="2.2"/>
				</g>
				<g>

						<ellipse transform="matrix(0.809 -0.5878 0.5878 0.809 -90.2201 76.8859)" class="st6" cx="73.2" cy="177.3" rx="3.4" ry="2.2"/>

						<ellipse transform="matrix(0.809 -0.5878 0.5878 0.809 -65.1785 95.0798)" class="st6" cx="113.7" cy="147.8" rx="3.4" ry="2.2"/>
				</g>
				<g>

						<ellipse transform="matrix(0.9511 -0.309 0.309 0.9511 -49.2157 29.8574)" class="st6" cx="69.6" cy="170.3" rx="3.4" ry="2.2"/>

						<ellipse transform="matrix(0.9511 -0.309 0.309 0.9511 -42.1019 43.8191)" class="st6" cx="117.3" cy="154.8" rx="3.4" ry="2.2"/>
				</g>
				<g>
					<ellipse class="st6" cx="68.4" cy="162.6" rx="3.4" ry="2.2"/>
					<ellipse class="st6" cx="118.5" cy="162.6" rx="3.4" ry="2.2"/>
				</g>
				<g>

						<ellipse transform="matrix(0.309 -0.9511 0.9511 0.309 -99.1168 173.2175)" class="st6" cx="69.6" cy="154.8" rx="2.2" ry="3.4"/>

						<ellipse transform="matrix(0.309 -0.9511 0.9511 0.309 -80.923 229.2124)" class="st6" cx="117.3" cy="170.3" rx="2.2" ry="3.4"/>
				</g>
				<g>

						<ellipse transform="matrix(0.5878 -0.809 0.809 0.5878 -89.4282 120.1658)" class="st6" cx="73.2" cy="147.8" rx="2.2" ry="3.4"/>

						<ellipse transform="matrix(0.5878 -0.809 0.809 0.5878 -96.542 165.0806)" class="st6" cx="113.7" cy="177.3" rx="2.2" ry="3.4"/>
				</g>
				<g>

						<ellipse transform="matrix(0.809 -0.5878 0.5878 0.809 -68.6024 73.462)" class="st6" cx="78.7" cy="142.3" rx="2.2" ry="3.4"/>

						<ellipse transform="matrix(0.809 -0.5878 0.5878 0.809 -86.7962 98.5037)" class="st6" cx="108.2" cy="182.8" rx="2.2" ry="3.4"/>
				</g>
				<g>

						<ellipse transform="matrix(0.9511 -0.309 0.309 0.9511 -38.678 33.2813)" class="st6" cx="85.7" cy="138.7" rx="2.2" ry="3.4"/>

						<ellipse transform="matrix(0.9511 -0.309 0.309 0.9511 -52.6396 40.3951)" class="st6" cx="101.2" cy="186.4" rx="2.2" ry="3.4"/>
				</g>
				<g>
					<ellipse class="st6" cx="93.5" cy="137.5" rx="2.2" ry="3.4"/>
					<ellipse class="st6" cx="93.5" cy="187.6" rx="2.2" ry="3.4"/>
				</g>
			</g>
			<g>
				<g>

						<ellipse transform="matrix(0.2487 -0.9686 0.9686 0.2487 -125.9492 229.4148)" class="st6" cx="84.9" cy="195.9" rx="3.4" ry="2.2"/>

						<ellipse transform="matrix(0.2487 -0.9686 0.9686 0.2487 -48.512 195.9047)" class="st6" cx="102" cy="129.2" rx="3.4" ry="2.2"/>
				</g>
				<g>

						<ellipse transform="matrix(0.4726 -0.8813 0.8813 0.4726 -129.2751 169.7769)" class="st6" cx="77.2" cy="192.9" rx="3.4" ry="2.2"/>

						<ellipse transform="matrix(0.4726 -0.8813 0.8813 0.4726 -58.656 166.4466)" class="st6" cx="109.7" cy="132.2" rx="3.4" ry="2.2"/>
				</g>
				<g>

						<ellipse transform="matrix(0.6691 -0.7431 0.7431 0.6691 -116.5067 114.5916)" class="st6" cx="70.4" cy="188.1" rx="3.4" ry="2.2"/>

						<ellipse transform="matrix(0.6691 -0.7431 0.7431 0.6691 -63.2532 131.8947)" class="st6" cx="116.5" cy="137" rx="3.4" ry="2.2"/>
				</g>
				<g>

						<ellipse transform="matrix(0.8271 -0.5621 0.5621 0.8271 -91.0053 67.9895)" class="st6" cx="65" cy="181.9" rx="3.4" ry="2.2"/>

						<ellipse transform="matrix(0.8271 -0.5621 0.5621 0.8271 -59.4138 93.299)" class="st6" cx="121.9" cy="143.2" rx="3.4" ry="2.2"/>
				</g>
				<g>

						<ellipse transform="matrix(0.9373 -0.3486 0.3486 0.9373 -57.0063 32.2825)" class="st6" cx="61.2" cy="174.6" rx="3.4" ry="2.2"/>

						<ellipse transform="matrix(0.9373 -0.3486 0.3486 0.9373 -44.5965 53.2663)" class="st6" cx="125.7" cy="150.6" rx="3.4" ry="2.2"/>
				</g>
				<g>

						<ellipse transform="matrix(0.9934 -0.1149 0.1149 0.9934 -18.7458 7.9165)" class="st6" cx="59.3" cy="166.5" rx="3.4" ry="2.2"/>

						<ellipse transform="matrix(0.9934 -0.1149 0.1149 0.9934 -17.3833 15.7232)" class="st6" cx="127.7" cy="158.6" rx="3.4" ry="2.2"/>
				</g>
				<g>

						<ellipse transform="matrix(0.1253 -0.9921 0.9921 0.1253 -105.1126 197.2628)" class="st6" cx="59.3" cy="158.2" rx="2.2" ry="3.4"/>

						<ellipse transform="matrix(0.1253 -0.9921 0.9921 0.1253 -53.9402 272.5607)" class="st6" cx="127.6" cy="166.9" rx="2.2" ry="3.4"/>
				</g>
				<g>

						<ellipse transform="matrix(0.3584 -0.9336 0.9336 0.3584 -100.8931 153.6487)" class="st6" cx="61.3" cy="150.2" rx="2.2" ry="3.4"/>

						<ellipse transform="matrix(0.3584 -0.9336 0.9336 0.3584 -82.6901 229.4695)" class="st6" cx="125.6" cy="174.9" rx="2.2" ry="3.4"/>
				</g>
				<g>

						<ellipse transform="matrix(0.5707 -0.8211 0.8211 0.5707 -89.3648 114.8935)" class="st6" cx="65.2" cy="142.9" rx="2.2" ry="3.4"/>

						<ellipse transform="matrix(0.5707 -0.8211 0.8211 0.5707 -97.3586 178.171)" class="st6" cx="121.7" cy="182.2" rx="2.2" ry="3.4"/>
				</g>
				<g>

						<ellipse transform="matrix(0.7501 -0.6613 0.6613 0.7501 -72.7609 80.9278)" class="st6" cx="70.7" cy="136.7" rx="2.2" ry="3.4"/>

						<ellipse transform="matrix(0.7501 -0.6613 0.6613 0.7501 -95.5312 123.9334)" class="st6" cx="116.2" cy="188.4" rx="2.2" ry="3.4"/>
				</g>
				<g>

						<ellipse transform="matrix(0.8862 -0.4633 0.4633 0.8862 -52.3606 50.9421)" class="st6" cx="77.5" cy="132.1" rx="2.2" ry="3.4"/>

						<ellipse transform="matrix(0.8862 -0.4633 0.4633 0.8862 -76.9929 72.6583)" class="st6" cx="109.4" cy="193.1" rx="2.2" ry="3.4"/>
				</g>
				<g>

						<ellipse transform="matrix(0.9711 -0.2385 0.2385 0.9711 -28.3421 24.0637)" class="st6" cx="85.3" cy="129.1" rx="2.2" ry="3.4"/>

						<ellipse transform="matrix(0.9711 -0.2385 0.2385 0.9711 -43.8133 29.9098)" class="st6" cx="101.7" cy="196" rx="2.2" ry="3.4"/>
				</g>
				<g>
					<ellipse class="st6" cx="93.5" cy="128.1" rx="2.2" ry="3.4"/>
					<ellipse class="st6" cx="93.5" cy="197" rx="2.2" ry="3.4"/>
				</g>
			</g>
		</g>
		<g>
			<circle class="st6" cx="93.4" cy="162.6" r="2.7"/>
			<g>
				<g>
					<ellipse transform="matrix(0.866 -0.5 0.5 0.866 -71.2623 66.0059)" class="st6" cx="87.5" cy="166" rx="2.7" ry="2.7"/>
					<ellipse transform="matrix(0.866 -0.5 0.5 0.866 -66.2523 71.0158)" class="st6" cx="99.4" cy="159.1" rx="2.7" ry="2.7"/>
				</g>
				<g>
					<ellipse transform="matrix(0.5 -0.866 0.866 0.5 -94.0475 155.3779)" class="st6" cx="87.5" cy="159.1" rx="2.7" ry="2.7"/>
					<ellipse transform="matrix(0.5 -0.866 0.866 0.5 -94.0475 169.0654)" class="st6" cx="99.4" cy="166" rx="2.7" ry="2.7"/>
				</g>
				<g>
					<circle class="st6" cx="93.5" cy="155.7" r="2.7"/>
					<circle class="st6" cx="93.5" cy="169.4" r="2.7"/>
				</g>
			</g>
		</g>
		<circle class="st6" cx="93.5" cy="162.6" r="12"/>
		<circle class="st6" cx="93.5" cy="162.6" r="39.8"/>
		<circle class="st7" cx="93.5" cy="162.6" r="42.6"/>
		<path class="st8" d="M146.2,293.2L146.2,293.2c-0.6,0-1-0.4-1-1V56.5h1.8v235.9C147,292.9,146.7,293.2,146.2,293.2z"/>
		<line class="st8" x1="134.2" y1="55.7" x2="138.9" y2="55.7"/>
		<line class="st8" x1="133.8" y1="57.3" x2="137" y2="57.3"/>
		<text transform="matrix(1 0 0 1 163.1004 175.3927)" class="st9 st10 st11">1</text>
		<text transform="matrix(1 0 0 1 200.5671 175.3927)" class="st9 st10 st11">2</text>
		<text transform="matrix(1 0 0 1 236.4004 175.3927)" class="st9 st10 st11">3</text>
		<text transform="matrix(1 0 0 1 163.1004 205.8927)" class="st9 st10 st11">4</text>
		<text transform="matrix(1 0 0 1 200.5671 205.8927)" class="st9 st10 st11">5</text>
		<text transform="matrix(1 0 0 1 236.4004 205.8927)" class="st9 st10 st11">6</text>
		<text transform="matrix(1 0 0 1 163.1004 236.0927)" class="st9 st10 st11">7</text>
		<g>
			<path class="st9" d="M168.6,263.5l1.5,2.3l-1.6,1.1l-1.3-2.5l-1.2,2.5l-1.8-0.9l1.5-2.5l-2.8,0.2v-2l2.8,0.1l-1.5-2.4l1.8-0.9
				l1.2,2.4l1.3-2.4l1.7,1l-1.5,2.3l2.7-0.2v2L168.6,263.5z"/>
		</g>
		<text transform="matrix(1 0 0 1 200.5671 236.0927)" class="st9 st10 st11">8</text>
		<text transform="matrix(1 0 0 1 200.5671 266.4927)" class="st9 st10 st11">0</text>
		<text transform="matrix(1 0 0 1 236.4004 266.4927)" class="st9 st10 st11">#</text>
		<text transform="matrix(1 0 0 1 172.9337 266.4927)" class="st9 st10 st11">.</text>
		<text transform="matrix(1 0 0 1 236.4004 236.0927)" class="st9 st10 st11">9</text>
		<text transform="matrix(1 0 0 1 207.7163 175.4304)" class="st9 st10 st12">ABC</text>
		<text transform="matrix(1 0 0 1 244.7496 175.4304)" class="st9 st10 st12">DEF</text>
		<text transform="matrix(1 0 0 1 208.5163 205.9637)" class="st9 st10 st12">JKL</text>
		<text transform="matrix(1 0 0 1 243.7496 205.9637)" class="st9 st10 st12">MNO</text>
		<text transform="matrix(1 0 0 1 171.1163 205.9637)" class="st9 st10 st12">GHI</text>
		<text transform="matrix(1 0 0 1 299.6874 190.0132)" class="st9 st10 st13">OK</text>
		<text transform="matrix(1 0 0 1 208.3163 236.2637)" class="st9 st10 st12">TUV</text>
		<text transform="matrix(1 0 0 1 169.5163 236.2637)" class="st9 st10 st12">PQRS</text>
		<text transform="matrix(1 0 0 1 243.1496 236.2637)" class="st9 st10 st12">WXYZ</text>
		<text transform="matrix(1 0 0 1 243.5496 266.2637)" class="st9 st10 st12">SEND</text>
		<path class="st6" d="M179.2,179.2h-17.1c-1.4,0-2.5-1.1-2.5-2.5v-11.4c0-1.4,1.1-2.5,2.5-2.5h17.1c1.4,0,2.5,1.1,2.5,2.5v11.4
			C181.7,178.1,180.6,179.2,179.2,179.2z"/>
		<path class="st14" d="M179.9,180.8h-18.4c-2.2,0-4-1.8-4-4v-11.6c0-2.2,1.8-4,4-4h18.4c2.2,0,4,1.8,4,4v11.6
			C183.9,179,182.1,180.8,179.9,180.8z"/>
		<path class="st6" d="M215.8,179.2h-17.1c-1.4,0-2.5-1.1-2.5-2.5v-11.4c0-1.4,1.1-2.5,2.5-2.5h17.1c1.4,0,2.5,1.1,2.5,2.5v11.4
			C218.3,178.1,217.2,179.2,215.8,179.2z"/>
		<path class="st14" d="M216.5,180.8H198c-2.2,0-4-1.8-4-4v-11.6c0-2.2,1.8-4,4-4h18.4c2.2,0,4,1.8,4,4v11.6
			C220.5,179,218.7,180.8,216.5,180.8z"/>
		<path class="st6" d="M252.3,179.2h-17.1c-1.4,0-2.5-1.1-2.5-2.5v-11.4c0-1.4,1.1-2.5,2.5-2.5h17.1c1.4,0,2.5,1.1,2.5,2.5v11.4
			C254.8,178.1,253.7,179.2,252.3,179.2z"/>
		<path class="st14" d="M253,180.8h-18.4c-2.2,0-4-1.8-4-4v-11.6c0-2.2,1.8-4,4-4H253c2.2,0,4,1.8,4,4v11.6
			C257,179,255.2,180.8,253,180.8z"/>
		<path class="st6" d="M179.2,209.7h-17.1c-1.4,0-2.5-1.1-2.5-2.5v-11.4c0-1.4,1.1-2.5,2.5-2.5h17.1c1.4,0,2.5,1.1,2.5,2.5v11.4
			C181.7,208.6,180.6,209.7,179.2,209.7z"/>
		<path class="st14" d="M179.9,211.3h-18.4c-2.2,0-4-1.8-4-4v-11.6c0-2.2,1.8-4,4-4h18.4c2.2,0,4,1.8,4,4v11.6
			C183.9,209.5,182.1,211.3,179.9,211.3z"/>
		<path class="st6" d="M215.8,209.7h-17.1c-1.4,0-2.5-1.1-2.5-2.5v-11.4c0-1.4,1.1-2.5,2.5-2.5h17.1c1.4,0,2.5,1.1,2.5,2.5v11.4
			C218.3,208.6,217.2,209.7,215.8,209.7z"/>
		<path class="st14" d="M216.5,211.3H198c-2.2,0-4-1.8-4-4v-11.6c0-2.2,1.8-4,4-4h18.4c2.2,0,4,1.8,4,4v11.6
			C220.5,209.5,218.7,211.3,216.5,211.3z"/>
		<path class="st6" d="M252.3,209.7h-17.1c-1.4,0-2.5-1.1-2.5-2.5v-11.4c0-1.4,1.1-2.5,2.5-2.5h17.1c1.4,0,2.5,1.1,2.5,2.5v11.4
			C254.8,208.6,253.7,209.7,252.3,209.7z"/>
		<path class="st14" d="M253,211.3h-18.4c-2.2,0-4-1.8-4-4v-11.6c0-2.2,1.8-4,4-4H253c2.2,0,4,1.8,4,4v11.6
			C257,209.5,255.2,211.3,253,211.3z"/>
		<path class="st6" d="M179.2,240.2h-17.1c-1.4,0-2.5-1.1-2.5-2.5v-11.4c0-1.4,1.1-2.5,2.5-2.5h17.1c1.4,0,2.5,1.1,2.5,2.5v11.4
			C181.7,239.1,180.6,240.2,179.2,240.2z"/>
		<path class="st14" d="M179.9,241.8h-18.4c-2.2,0-4-1.8-4-4v-11.6c0-2.2,1.8-4,4-4h18.4c2.2,0,4,1.8,4,4v11.6
			C183.9,240,182.1,241.8,179.9,241.8z"/>
		<path class="st6" d="M215.8,240.2h-17.1c-1.4,0-2.5-1.1-2.5-2.5v-11.4c0-1.4,1.1-2.5,2.5-2.5h17.1c1.4,0,2.5,1.1,2.5,2.5v11.4
			C218.3,239.1,217.2,240.2,215.8,240.2z"/>
		<path class="st14" d="M216.5,241.8H198c-2.2,0-4-1.8-4-4v-11.6c0-2.2,1.8-4,4-4h18.4c2.2,0,4,1.8,4,4v11.6
			C220.5,240,218.7,241.8,216.5,241.8z"/>
		<path class="st6" d="M252.3,240.2h-17.1c-1.4,0-2.5-1.1-2.5-2.5v-11.4c0-1.4,1.1-2.5,2.5-2.5h17.1c1.4,0,2.5,1.1,2.5,2.5v11.4
			C254.8,239.1,253.7,240.2,252.3,240.2z"/>
		<path class="st14" d="M253,241.8h-18.4c-2.2,0-4-1.8-4-4v-11.6c0-2.2,1.8-4,4-4H253c2.2,0,4,1.8,4,4v11.6
			C257,240,255.2,241.8,253,241.8z"/>
		<path class="st6" d="M179.2,270.7h-17.1c-1.4,0-2.5-1.1-2.5-2.5v-11.4c0-1.4,1.1-2.5,2.5-2.5h17.1c1.4,0,2.5,1.1,2.5,2.5v11.4
			C181.7,269.6,180.6,270.7,179.2,270.7z"/>
		<path class="st14" d="M179.9,272.3h-18.4c-2.2,0-4-1.8-4-4v-11.6c0-2.2,1.8-4,4-4h18.4c2.2,0,4,1.8,4,4v11.6
			C183.9,270.5,182.1,272.3,179.9,272.3z"/>
		<path class="st6" d="M215.8,270.7h-17.1c-1.4,0-2.5-1.1-2.5-2.5v-11.4c0-1.4,1.1-2.5,2.5-2.5h17.1c1.4,0,2.5,1.1,2.5,2.5v11.4
			C218.3,269.6,217.2,270.7,215.8,270.7z"/>
		<path class="st14" d="M216.5,272.3H198c-2.2,0-4-1.8-4-4v-11.6c0-2.2,1.8-4,4-4h18.4c2.2,0,4,1.8,4,4v11.6
			C220.5,270.5,218.7,272.3,216.5,272.3z"/>
		<path class="st6" d="M252.3,270.7h-17.1c-1.4,0-2.5-1.1-2.5-2.5v-11.4c0-1.4,1.1-2.5,2.5-2.5h17.1c1.4,0,2.5,1.1,2.5,2.5v11.4
			C254.8,269.6,253.7,270.7,252.3,270.7z"/>
		<path class="st14" d="M253,272.3h-18.4c-2.2,0-4-1.8-4-4v-11.6c0-2.2,1.8-4,4-4H253c2.2,0,4,1.8,4,4v11.6
			C257,270.5,255.2,272.3,253,272.3z"/>
		<line class="st6" x1="30.2" y1="297.5" x2="389.2" y2="297.5"/>
		<line class="st6" x1="30.2" y1="298.5" x2="389.2" y2="298.5"/>
		<circle class="st6" cx="303.4" cy="188.1" r="5.8"/>
		<circle class="st6" cx="326.7" cy="188.1" r="5.8"/>
		<circle class="st6" cx="280" cy="188.1" r="5.8"/>
		<circle class="st6" cx="303.4" cy="164.9" r="5.8"/>
		<circle class="st6" cx="303.4" cy="211.4" r="5.8"/>
		<circle class="st6" cx="303.4" cy="188.1" r="7.3"/>
		<circle class="st6" cx="303.4" cy="237" r="5.8"/>
		<circle class="st6" cx="303.4" cy="237" r="7.3"/>
		<circle class="st6" cx="303.4" cy="188.1" r="11.3"/>
		<path class="st6" d="M296.3,209.8c0.7-3.3,3.6-5.7,7.1-5.7c3.5,0,6.4,2.4,7.1,5.7"/>
		<path class="st6" d="M296.2,210.8c0,0.2,0,0.4,0,0.6c0,4,3.3,7.3,7.3,7.3c4,0,7.3-3.3,7.3-7.3c0-0.2,0-0.4,0-0.6"/>
		<path class="st6" d="M280.8,180.9c-0.3,0-0.5-0.1-0.8-0.1c-4,0-7.3,3.3-7.3,7.3c0,4,3.3,7.3,7.3,7.3c0.3,0,0.6,0,0.8-0.1"/>
		<path class="st6" d="M281.7,181.1c3.2,0.8,5.5,3.6,5.5,7c0,3.4-2.3,6.3-5.5,7"/>
		<path class="st6" d="M326.1,180.9c0.2,0,0.4,0,0.6,0c4,0,7.3,3.3,7.3,7.3c0,4-3.3,7.3-7.3,7.3c-0.2,0-0.4,0-0.6,0"/>
		<path class="st6" d="M325.1,181c-3.3,0.7-5.7,3.6-5.7,7.1c0,3.5,2.4,6.4,5.7,7.1"/>
		<path class="st6" d="M296.2,165.5c0-0.2,0-0.4,0-0.6c0-4,3.3-7.3,7.3-7.3c4,0,7.3,3.3,7.3,7.3c0,0.2,0,0.4,0,0.6"/>
		<path class="st6" d="M296.3,166.4c0.7,3.3,3.6,5.7,7.1,5.7c3.5,0,6.4-2.4,7.1-5.7"/>
		<path class="st6" d="M325.1,195.2c-2.3,6.9-7.7,12.4-14.6,14.6"/>
		<path class="st6" d="M296.3,209.8c-6.9-2.3-12.4-7.7-14.6-14.7"/>
		<path class="st6" d="M281.7,181.1c2.2-6.9,7.7-12.4,14.6-14.7"/>
		<path class="st6" d="M325.1,181c-2.3-6.9-7.7-12.3-14.6-14.6"/>
		<path class="st6" d="M296.2,210.8c-7.3-2.3-13.1-8.1-15.4-15.4"/>
		<path class="st6" d="M326.1,180.9c-2.3-7.3-8.1-13.1-15.4-15.4"/>
		<path class="st6" d="M326.1,195.4c-2.3,7.3-8.1,13.1-15.4,15.4"/>
		<path class="st6" d="M296.2,165.5c-7.3,2.3-13.1,8.1-15.4,15.4"/>
		<polygon class="st9" points="301.4,166.2 303.5,163.7 305.6,166.2 		"/>
		<polygon class="st9" points="281.4,190.3 278.9,188.3 281.4,186.2 		"/>
		<polygon class="st9" points="325.3,186.2 327.8,188.3 325.3,190.3 		"/>
		<polygon class="st9" points="305.6,210.2 303.5,212.7 301.4,210.2 		"/>
		<path class="st6" d="M297.9,216.2c1.5,2.2,2.4,5.4,2.3,8.2s-1.1,5.2-3.1,8.8"/>
		<path class="st6" d="M309.1,216c-1.6,2.5-2.7,5.7-2.6,8.4c0.1,3.5,1,5.8,2.7,7.9"/>
		<path class="st6" d="M329.8,271.1h-52.9c-1.1,0-2-0.9-2-2v-3.9c0-1.1,0.9-2,2-2h52.9c1.1,0,2,0.9,2,2v3.9
			C331.8,270.2,330.9,271.1,329.8,271.1z"/>
		<path class="st15" d="M330.5,273.4h-54.2c-2.2,0-4-1.8-4-4v-4.5c0-2.2,1.8-4,4-4h54.2c2.2,0,4,1.8,4,4v4.5
			C334.5,271.6,332.7,273.4,330.5,273.4z"/>
		<circle class="st9" cx="360.2" cy="166.6" r="7.8"/>
		<circle class="st16" cx="360.2" cy="166.6" r="9.4"/>
		<circle class="st9" cx="360.2" cy="190.5" r="7.8"/>
		<circle class="st16" cx="360.2" cy="190.5" r="9.4"/>
		<g>
			<path class="st6" d="M364.9,219.9h-9.5c-1.7,0-3-1.3-3-3V210c0-1.7,1.3-3,3-3h9.5c1.7,0,3,1.3,3,3v6.9
				C367.9,218.5,366.6,219.9,364.9,219.9z"/>
			<path class="st17" d="M366,221.4h-11.7c-2,0-3.7-1.7-3.7-3.7v-8.6c0-2,1.7-3.7,3.7-3.7H366c2,0,3.7,1.7,3.7,3.7v8.6
				C369.7,219.7,368.1,221.4,366,221.4z"/>
		</g>
		<g>
			<path class="st6" d="M364.9,243.6h-9.5c-1.7,0-3-1.3-3-3v-6.9c0-1.7,1.3-3,3-3h9.5c1.7,0,3,1.3,3,3v6.9
				C367.9,242.2,366.6,243.6,364.9,243.6z"/>
			<path class="st17" d="M366,245.1h-11.7c-2,0-3.7-1.7-3.7-3.7v-8.6c0-2,1.7-3.7,3.7-3.7H366c2,0,3.7,1.7,3.7,3.7v8.6
				C369.7,243.4,368.1,245.1,366,245.1z"/>
		</g>
		<g>
			<path class="st18" d="M364.5,270.8h-8.7c-1.9,0-3.4-1.5-3.4-3.4v-9.7c0-1.9,1.5-3.4,3.4-3.4h8.7c1.9,0,3.4,1.5,3.4,3.4v9.7
				C367.9,269.3,366.4,270.8,364.5,270.8z"/>
			<path class="st19" d="M365.6,272.8h-10.8c-2.3,0-4.2-1.9-4.2-4.2v-12c0-2.3,1.9-4.2,4.2-4.2h10.8c2.3,0,4.2,1.9,4.2,4.2v12
				C369.7,270.9,367.9,272.8,365.6,272.8z"/>
		</g>
	</g>
</g>
<g id="Ebene_3">
	<g>
		<polygon class="st20" points="157.3,196.7 158.5,196.7 158.5,204.4 160.1,204.4 160.1,195.1 157.3,195.1 		"/>
		<path class="st20" d="M205.6,197.9c0-1.7-1.3-3-3.1-3c-1.8,0-3.1,1.2-3.1,3.4h1.7c0-1.1,0.6-1.9,1.5-1.9c0.8,0,1.4,0.6,1.4,1.5
			c0,0.6-0.3,1.2-1.1,1.9l-3.3,3.2v1.5h6.1v-1.6h-3.7l1.9-1.7C205.2,199.8,205.6,199.1,205.6,197.9z"/>
		<path class="st20" d="M245.9,199c0.5-0.4,0.8-0.9,0.8-1.6c0-1.4-1.1-2.5-2.5-2.5c-1.3,0-2.4,0.8-2.5,2.4h1.7
			c0.1-0.6,0.3-0.9,0.8-0.9c0.5,0,0.8,0.4,0.8,0.9c0,0.6-0.4,0.9-1.4,1v1.6h0.3c1.1,0,1.8,0.6,1.8,1.6c0,0.9-0.6,1.6-1.5,1.6
			c-0.8,0-1.4-0.6-1.5-1.5H241c0.1,1.8,1.4,3,3.2,3c1.8,0,3.1-1.3,3.1-3.1C247.3,200.3,246.8,199.5,245.9,199z"/>
		<path class="st20" d="M161.1,230.6h-1.4l-4.3,6.6v1.4h4v1.4h1.7v-1.4h1v-1.5h-1V230.6z M159.4,237.1H157l2.3-3.6V237.1z"/>
		<path class="st20" d="M202.6,233.7c-0.4,0-0.7,0.1-1.2,0.3l0.3-1.7h3v-1.6h-4.2l-0.9,4.9l1.5,0.4c0.4-0.5,0.8-0.7,1.3-0.7
			c0.9,0,1.5,0.7,1.5,1.7c0,1-0.6,1.7-1.5,1.7c-0.8,0-1.4-0.5-1.5-1.4h-1.7c0.1,1.7,1.6,3,3.3,3c1.8,0,3.2-1.4,3.2-3.3
			C205.6,235,204.3,233.7,202.6,233.7z"/>
		<path class="st20" d="M244.9,233.8c-0.3,0-0.5,0-0.8,0.1l2.2-3.3h-2l-2.4,3.7c-0.7,1-0.9,1.7-0.9,2.6c0,1.9,1.4,3.2,3.3,3.2
			c1.9,0,3.2-1.4,3.2-3.4C247.5,235.1,246.4,233.8,244.9,233.8z M244.3,238.6c-0.9,0-1.6-0.7-1.6-1.6c0-1,0.6-1.7,1.6-1.7
			c0.9,0,1.5,0.7,1.5,1.7C245.8,237.9,245.2,238.6,244.3,238.6z"/>
		<polygon class="st20" points="156.2,267.4 159.9,267.4 156.3,275.2 158.3,275.2 161.7,267.4 161.7,265.8 156.2,265.8 		"/>
		<path class="st20" d="M204.3,270c0.5-0.4,0.8-1,0.8-1.8c0-1.5-1.1-2.5-2.6-2.5c-1.4,0-2.6,1.1-2.6,2.6c0,0.7,0.2,1.1,0.8,1.7
			c-1,0.5-1.3,1.3-1.3,2.3c0,1.7,1.4,3.1,3.1,3.1c1.8,0,3.1-1.3,3.1-3.1C205.6,271.2,205.2,270.5,204.3,270z M202.6,267.2
			c0.5,0,0.9,0.4,0.9,1c0,0.6-0.4,1-1,1c-0.5,0-1-0.5-1-1C201.6,267.6,202,267.2,202.6,267.2z M202.5,273.8c-0.8,0-1.5-0.6-1.5-1.5
			c0-0.8,0.6-1.5,1.5-1.5c0.8,0,1.4,0.7,1.4,1.5C204,273.2,203.3,273.8,202.5,273.8z"/>
		<path class="st20" d="M202.5,301.1c-1.9,0-3.1,1.2-3.1,3.2v3.2c0,2.1,1.3,3.3,3.2,3.3c1.8,0,3.1-1.2,3.1-3.3v-3.3
			C205.7,302.3,204.4,301.1,202.5,301.1z M204,307.5c0,1.2-0.5,1.8-1.4,1.8c-1,0-1.5-0.6-1.5-1.8v-3.1c0-1,0.6-1.7,1.5-1.7
			c0.9,0,1.4,0.6,1.4,1.7V307.5z"/>
		<path class="st20" d="M246.7,301.2h-1.1l-0.4,2.8h-1.1l0.4-2.8h-1.1l-0.4,2.8h-1.4v1.3h1.2l-0.2,1.1h-1.4v1.3h1.2l-0.4,3h1.2
			l0.4-3h1.1l-0.4,3h1.1l0.4-3h1.3v-1.3H246l0.2-1.1h1.3V304h-1.1L246.7,301.2z M244.8,306.4h-1.1l0.2-1.1h1.1L244.8,306.4z"/>
		<rect x="167.7" y="309" class="st20" width="1.7" height="1.6"/>
		<path class="st20" d="M244.2,265.6c-1.9,0-3.2,1.4-3.2,3.4c0,1.7,1.1,3,2.6,3c0.3,0,0.5,0,0.8-0.2l-2.3,3.3h2l2.4-3.7
			c0.7-1,0.9-1.7,0.9-2.6C247.5,267,246.1,265.6,244.2,265.6z M244.3,270.5c-0.9,0-1.5-0.7-1.5-1.7c0-1,0.6-1.6,1.5-1.6
			c0.9,0,1.6,0.7,1.6,1.6C245.8,269.8,245.2,270.5,244.3,270.5z"/>
		<path class="st20" d="M208.7,201.3l-1.3,3.2h0.7l0.4-0.8h1.1l0.3,0.8h0.7l-1.3-3.2H208.7z M208.6,203.1l0.3-1l0.3,1H208.6z"/>
		<path class="st20" d="M212.4,202.7c0.3-0.1,0.4-0.3,0.4-0.6c0-0.3-0.1-0.6-0.4-0.7c-0.2-0.1-0.4-0.2-0.9-0.2h-0.7v3.2h0.9
			c0.8,0,1.2-0.4,1.2-1C212.9,203.1,212.8,202.9,212.4,202.7z M211.4,201.9h0.2c0.3,0,0.5,0.1,0.5,0.3c0,0.2-0.2,0.3-0.5,0.3h-0.2
			V201.9z M211.7,203.9h-0.3v-0.8h0.3c0.4,0,0.6,0.1,0.6,0.4C212.3,203.8,212.2,203.9,211.7,203.9z"/>
		<path class="st20" d="M214.9,201.8c0.4,0,0.6,0.1,0.8,0.4h0.7c-0.3-0.6-0.9-1-1.5-1c-0.9,0-1.6,0.7-1.6,1.6c0,0.9,0.8,1.7,1.7,1.7
			c0.7,0,1.2-0.4,1.5-1h-0.7c-0.3,0.3-0.5,0.4-0.8,0.4c-0.6,0-1.1-0.5-1.1-1.1C213.8,202.3,214.3,201.8,214.9,201.8z"/>
		<path class="st20" d="M252.7,201.5c-0.3-0.2-0.6-0.2-1.1-0.2h-0.7v3.2h0.7c0.5,0,0.8,0,1-0.2c0.5-0.2,0.8-0.8,0.8-1.4
			C253.4,202.3,253.1,201.8,252.7,201.5z M252.3,203.8c-0.2,0.1-0.4,0.1-0.8,0.1h-0.1v-2.1h0.1c0.4,0,0.6,0,0.8,0.1
			c0.3,0.2,0.5,0.5,0.5,0.9C252.8,203.3,252.6,203.6,252.3,203.8z"/>
		<polygon class="st20" points="253.8,204.5 255.6,204.5 255.6,203.9 254.4,203.9 254.4,203.2 255.5,203.2 255.5,202.6 254.4,202.6
			254.4,201.8 255.6,201.8 255.6,201.3 253.8,201.3 		"/>
		<polygon class="st20" points="256.1,204.5 256.7,204.5 256.7,203.2 257.7,203.2 257.7,202.6 256.7,202.6 256.7,201.8 257.7,201.8
			257.7,201.3 256.1,201.3 		"/>
		<path class="st20" d="M209.5,239.1c0,0.3-0.1,0.4-0.3,0.4c-0.1,0-0.2-0.1-0.3-0.2h-0.6c0.1,0.5,0.4,0.8,0.9,0.8
			c0.5,0,0.9-0.4,0.9-1v-2.3h-0.6V239.1z"/>
		<polygon class="st20" points="212.2,236.9 211.2,238.2 211.2,236.9 210.7,236.9 210.7,240.1 211.2,240.1 211.2,238.7 212.2,240.1
			213,240.1 211.8,238.4 213,236.9 		"/>
		<polygon class="st20" points="213.9,236.9 213.3,236.9 213.3,240.1 214.9,240.1 214.9,239.5 213.9,239.5 		"/>
		<polygon class="st20" points="251.3,239.3 250.4,236.9 249.6,236.9 249.6,240.1 250.2,240.1 250.2,237.7 251.1,240.1 251.6,240.1
			252.4,237.7 252.4,240.1 253,240.1 253,236.9 252.2,236.9 		"/>
		<polygon class="st20" points="255.6,239.2 254.2,236.9 253.5,236.9 253.5,240.1 254.1,240.1 254.1,237.7 255.5,240.1 256.1,240.1
			256.1,236.9 255.6,236.9 		"/>
		<path class="st20" d="M258.3,236.8c-1,0-1.7,0.7-1.7,1.7c0,0.9,0.7,1.7,1.7,1.7c0.9,0,1.7-0.7,1.7-1.7
			C259.9,237.5,259.2,236.8,258.3,236.8z M258.3,239.6c-0.6,0-1.1-0.5-1.1-1.1c0-0.6,0.5-1.1,1.1-1.1c0.6,0,1.1,0.5,1.1,1.1
			S258.9,239.6,258.3,239.6z"/>
		<path class="st20" d="M166.1,239h1.3c-0.2,0.4-0.5,0.6-0.9,0.6c-0.6,0-1.1-0.5-1.1-1.1c0-0.6,0.4-1.1,1.1-1.1
			c0.4,0,0.7,0.1,0.9,0.4h0.7c-0.2-0.6-0.9-1-1.6-1c-0.9,0-1.7,0.7-1.7,1.7c0,0.9,0.8,1.7,1.7,1.7c0.9,0,1.7-0.7,1.7-1.6v-0.1h-2.1
			V239z"/>
		<polygon class="st20" points="170.4,238.2 169.2,238.2 169.2,236.9 168.6,236.9 168.6,240.1 169.2,240.1 169.2,238.7 170.4,238.7
			170.4,240.1 171,240.1 171,236.9 170.4,236.9 		"/>
		<rect x="171.6" y="236.9" class="st20" width="0.6" height="3.2"/>
		<path class="st20" d="M316.9,221.6c1.2,0,2.2-0.9,2.2-2.2c0-1.2-1-2.2-2.2-2.2c-1.2,0-2.2,0.9-2.2,2.2
			C314.7,220.6,315.7,221.6,316.9,221.6z M316.9,218c0.8,0,1.4,0.6,1.4,1.4s-0.6,1.4-1.4,1.4c-0.8,0-1.4-0.6-1.4-1.4
			C315.5,218.6,316.1,218,316.9,218z"/>
		<polygon class="st20" points="320.5,219.6 321.8,221.5 322.7,221.5 321.1,219.3 322.7,217.3 321.8,217.3 320.5,219.1 320.5,217.3
			319.7,217.3 319.7,221.5 320.5,221.5 		"/>
		<polygon class="st20" points="208.1,272.7 208.7,272.7 208.7,275.4 209.3,275.4 209.3,272.7 209.9,272.7 209.9,272.2 208.1,272.2
					"/>
		<path class="st20" d="M211.7,274.2c0,0.5-0.2,0.7-0.5,0.7c-0.3,0-0.5-0.2-0.5-0.7v-2h-0.6v2c0,0.8,0.5,1.2,1.1,1.2
			c0.6,0,1.1-0.4,1.1-1.2v-2h-0.6V274.2z"/>
		<polygon class="st20" points="214.2,274.6 213.3,272.2 212.7,272.2 213.9,275.4 214.4,275.4 215.7,272.2 215,272.2 		"/>
		<path class="st20" d="M163.9,272.2h-0.8v3.2h0.6v-1.2h0.2c0.5,0,0.7,0,0.8-0.1c0.3-0.2,0.4-0.5,0.4-0.9s-0.2-0.7-0.4-0.8
			C164.5,272.2,164.3,272.2,163.9,272.2z M163.9,273.6h-0.2v-0.9h0.2c0.5,0,0.7,0.1,0.7,0.4C164.6,273.5,164.4,273.6,163.9,273.6z"
			/>
		<path class="st20" d="M168.4,274.8c0.3-0.3,0.4-0.6,0.4-1c0-1-0.7-1.7-1.7-1.7c-1,0-1.7,0.7-1.7,1.7c0,0.9,0.8,1.7,1.7,1.7
			c0.3,0,0.7-0.1,0.9-0.3c0.3,0.2,0.4,0.3,0.7,0.3c0,0,0.1,0,0.1,0v-0.5c-0.1,0-0.1,0-0.1,0C168.6,274.9,168.5,274.9,168.4,274.8z
			 M167.1,274.9c-0.4,0-0.7-0.1-1-0.5c0.1,0,0.2,0,0.3,0c0.4,0,0.7,0.1,1,0.4C167.4,274.8,167.3,274.9,167.1,274.9z M167.9,274.5
			c-0.4-0.4-0.9-0.6-1.4-0.6c-0.2,0-0.3,0-0.5,0.1c0-0.1,0-0.1,0-0.2c0-0.6,0.5-1.1,1.1-1.1c0.6,0,1.1,0.5,1.1,1.1
			C168.2,274.1,168.1,274.3,167.9,274.5z"/>
		<path class="st20" d="M171.3,273.2c0-0.3-0.1-0.6-0.3-0.8c-0.2-0.2-0.4-0.2-0.9-0.2h-0.9v3.2h0.6v-1.2l0.8,1.2h0.7l-0.9-1.2
			C171.1,274.1,171.3,273.7,171.3,273.2z M169.8,273.7v-1h0.3c0.6,0,0.7,0.2,0.7,0.5c0,0.3-0.2,0.5-0.7,0.5H169.8z"/>
		<path class="st20" d="M172.7,273.5c-0.3-0.1-0.3-0.1-0.4-0.1c-0.1-0.1-0.2-0.2-0.2-0.3c0-0.2,0.1-0.3,0.3-0.3
			c0.2,0,0.3,0.1,0.3,0.3h0.6c0-0.6-0.4-0.9-1-0.9s-0.9,0.4-0.9,0.9c0,0.4,0.2,0.7,0.7,0.9c0.4,0.2,0.5,0.2,0.6,0.2
			c0.1,0.1,0.1,0.2,0.1,0.3c0,0.2-0.2,0.4-0.4,0.4c-0.3,0-0.4-0.1-0.4-0.4h-0.6c0.1,0.6,0.5,1,1.1,1c0.6,0,1-0.4,1-1
			C173.6,274,173.4,273.7,172.7,273.5z"/>
		<polygon class="st20" points="251.4,274.4 250.8,272.2 250.4,272.2 249.8,274.4 249.3,272.2 248.7,272.2 249.6,275.4 250.1,275.4
			250.6,273.3 251.1,275.4 251.6,275.4 252.5,272.2 251.9,272.2 		"/>
		<polygon class="st20" points="254.8,272.2 254,273.3 253.3,272.2 252.6,272.2 253.7,273.8 252.6,275.4 253.3,275.4 254,274.3
			254.8,275.4 255.5,275.4 254.4,273.8 255.5,272.2 		"/>
		<polygon class="st20" points="256.9,273.7 256.2,272.2 255.5,272.2 256.6,274.2 256.6,275.4 257.2,275.4 257.2,274.2 258.2,272.2
			257.6,272.2 		"/>
		<polygon class="st20" points="260.2,272.7 260.2,272.2 258.3,272.2 258.3,272.7 259.5,272.7 258.3,274.9 258.3,275.4 260.3,275.4
			260.3,274.8 259,274.8 		"/>
		<path class="st20" d="M250.4,308.4c-0.3-0.1-0.3-0.1-0.4-0.1c-0.1-0.1-0.2-0.2-0.2-0.3c0-0.2,0.1-0.3,0.3-0.3
			c0.2,0,0.3,0.1,0.3,0.3h0.6c0-0.6-0.4-0.9-1-0.9c-0.5,0-0.9,0.4-0.9,0.9c0,0.4,0.2,0.7,0.7,0.9c0.4,0.2,0.5,0.2,0.6,0.2
			c0.1,0.1,0.1,0.2,0.1,0.3c0,0.2-0.2,0.4-0.4,0.4c-0.3,0-0.4-0.1-0.4-0.4h-0.6c0.1,0.6,0.5,1,1.1,1c0.6,0,1-0.4,1-1
			C251.2,308.9,251.1,308.7,250.4,308.4z"/>
		<polygon class="st20" points="251.7,310.4 253.4,310.4 253.4,309.8 252.3,309.8 252.3,309 253.3,309 253.3,308.5 252.3,308.5
			252.3,307.7 253.4,307.7 253.4,307.1 251.7,307.1 		"/>
		<polygon class="st20" points="255.9,309.5 254.6,307.1 253.9,307.1 253.9,310.4 254.5,310.4 254.5,308 255.9,310.4 256.5,310.4
			256.5,307.1 255.9,307.1 		"/>
		<path class="st20" d="M259,307.4c-0.3-0.2-0.6-0.2-1.1-0.2h-0.7v3.2h0.7c0.5,0,0.8,0,1-0.2c0.5-0.2,0.8-0.8,0.8-1.4
			C259.7,308.1,259.5,307.6,259,307.4z M258.6,309.6c-0.2,0.1-0.4,0.1-0.8,0.1h-0.1v-2.1h0.1c0.4,0,0.6,0,0.8,0.1
			c0.3,0.2,0.5,0.5,0.5,0.9C259.1,309.1,258.9,309.5,258.6,309.6z"/>
		<path class="st20" d="M410.1,65.5h-12.8V9.9c0-5.5-4.4-9.9-9.9-9.9H162.6c-5.5,0-9.9,4.4-9.9,9.9v55.6h-24.6l-1.7-37.4
			c-0.3-6.4-5.9-11.6-12.6-11.6H34.6c-6.6,0-12.3,5.2-12.6,11.6l-1.7,37.4H9.9C4.4,65.5,0,70,0,75.4V359c0,8.7,7.1,15.7,15.7,15.7
			h388.5c8.7,0,15.7-7.1,15.7-15.7V75.4C420,70,415.6,65.5,410.1,65.5z M369.4,1.2h6.8V4h-6.8V1.2z M386.9,4.2
			c3.1,0,5.7,2.5,5.7,5.7v140.2c0,3.1-2.5,5.7-5.7,5.7H162.2c-3.1,0-5.7-2.5-5.7-5.7V9.9c0-3.1,2.5-5.7,5.7-5.7H386.9z M153.9,66.1
			V9.9c0-4.8,3.9-8.7,8.7-8.7h206.5V4H162.2c-3.3,0-6,2.7-6,6v140.2c0,3.3,2.7,6,6,6h224.7c3.3,0,6-2.7,6-6V9.9c0-3.3-2.7-6-6-6
			h-10.4V1.2h10.9c4.8,0,8.7,3.9,8.7,8.7v56.2v84.5c0,4.8-3.9,8.7-8.7,8.7H162.6c-4.8,0-8.7-3.9-8.7-8.7V66.1z M134.7,66.7h1.7
			v274.2c0,0.4-0.3,0.7-0.7,0.7h0c-0.6,0-1-0.5-1-1V66.7z M126.9,64.8h-5.2c0-0.5,0-1.1,0-1.5c-0.1-1.9-0.2-28.4-0.2-30.5l4,0
			L126.9,64.8z M23.2,28.2c0.3-5.8,5.4-10.5,11.4-10.5h79.3c6,0,11.1,4.7,11.4,10.5l0.2,4.3l-4.1,0l0,0c-0.1,0.1-2.2,1.4-2.1,3.1
			c0.1,1.4-0.7,23.9-0.9,25.4c0,0.1,0,0.3,0,0.6c-0.1,2.1-0.2,7.8-7.2,12c-2.8,1.7-7.1,2.7-10.2,3.3c-7,1.3-14,1.7-14.9,1.7v-0.3
			H61.8v0.3C61,78.7,54,78.3,47,77c-3.1-0.6-7.4-1.7-10.2-3.3c-7-4.2-7.1-9.9-7.2-12c0-0.3,0-0.5,0-0.6c-0.2-1.5-0.9-24-0.9-25.4
			c0.1-1.7-2-3.1-2.1-3.1l0,0l-3.6,0L23.2,28.2z M89.1,83.5v18.1c0,0.8-0.3,1.2-0.9,1.2c-1.2,0-1.7,0.5-1.7,1.5v2.4
			c0,0.8-0.2,1.6-1.3,1.6H62.7c-1.2,0-1.3-0.8-1.3-1.6v-2.4c0-1-0.6-1.5-1.7-1.5c-0.6,0-0.9-0.4-0.9-1.2V83.5l0-0.3c0,0,0,0,0,0
			v-1.7l-2.1-0.1l0.1-1.1l3.1,0.2l0.2,0.7l1.8-0.1v2.6H86v-2.6l1.8,0.1l0.2-0.7l3.1-0.2l0.1,1.1l-2.1,0.1v1.7c0,0,0,0,0,0L89.1,83.5
			z M29.3,61.1c0,0.1,0,0.3,0,0.6c0.1,2.2,0.2,8,7.3,12.3c2.8,1.7,7.2,2.8,10.3,3.4c6.7,1.3,13.7,1.7,14.9,1.8v1.9l-1.6,0l-0.2-0.7
			l-3.6-0.2l-0.2,1.7l2.1,0.1v1.4c-2.7-0.2-16.7-1.9-23.5-5c-6.6-3-8.7-10.7-8.4-14.9c0.1-1.9,0.2-27.5,0.2-30.3
			c0.5,0.4,1.8,1.5,1.8,2.7C28.3,37,29.1,59.6,29.3,61.1z M62.1,83.5v-4.8h23.6v4.8H62.1z M89.4,81.8l2.1-0.1l-0.2-1.7l-3.6,0.2
			l-0.2,0.7l-1.6,0V79c1.2,0,8.2-0.5,14.9-1.8c3.2-0.6,7.5-1.7,10.3-3.4c7.1-4.3,7.3-10.1,7.3-12.3c0-0.2,0-0.4,0-0.6
			c0.2-1.5,0.9-24,0.9-25.4c-0.1-1.2,1.2-2.3,1.8-2.7c0,2.9,0.1,28.5,0.2,30.3c0.2,4.2-1.8,12-8.4,14.9c-6.8,3.1-20.8,4.8-23.5,5
			V81.8z M418.8,359c0,8-6.5,14.6-14.6,14.6H15.7c-8,0-14.6-6.5-14.6-14.6v-11h417.7V359z M418.8,347.8H1.2v-0.8h417.7V347.8z
			 M418.8,346.6H1.2V75.4c0-4.8,3.9-8.7,8.7-8.7h11v-0.6l0.6,0L23,32.8l3.4,0c0,2.1-0.1,28.6-0.2,30.5c-0.2,4.3,1.9,12.2,8.6,15.2
			c6.9,3.1,21,4.8,23.7,5v18.1c0,1,0.4,1.5,1.2,1.5c1,0,1.5,0.4,1.5,1.2v2.4c0,0.5,0,1.9,1.6,1.9h22.4c1.6,0,1.6-1.4,1.6-1.9v-2.4
			c0-0.8,0.4-1.2,1.5-1.2c0.8,0,1.2-0.5,1.2-1.5V83.5c2.7-0.2,16.8-1.9,23.7-5c5.1-2.3,7.5-7.4,8.3-11.5h3.6v-0.3h-3.5
			c0.1-0.5,0.2-1,0.2-1.5h5.3l0,1l0.6,0v0.6h6.8v273.9c0,0.7,0.6,1.3,1.3,1.3h0c0.6,0,1-0.5,1-1V66.7h16v83.9c0,5.5,4.4,9.9,9.9,9.9
			h224.8c5.5,0,9.9-4.4,9.9-9.9V66.7h12.8c4.8,0,8.7,3.9,8.7,8.7V346.6z"/>
		<polygon class="st20" points="283.9,22.5 281.3,22.5 281.2,24.5 283.8,24.5 		"/>
		<polygon class="st20" points="283.7,25.7 281.1,25.7 280.7,33.8 283.2,33.8 		"/>
		<polygon class="st20" points="250.9,33.8 253.4,33.8 253.7,29.3 253.7,29.3 258.3,23 255.6,23 252.5,27.4 252.5,27.4 249.7,23.1
			247,23.1 251.2,29.3 		"/>
		<polygon class="st20" points="279.2,22.5 276.6,22.5 276,33.8 278.6,33.8 		"/>
		<path class="st20" d="M288.2,28c3-1.5,2.9,0.7,2.9,0.7l-0.2,5h2.5l0.4-5.3c0,0,0.3-2.7-2.1-3c-2.3-0.2-3.4,1.1-3.4,1.1l0-0.9h-2.6
			l-0.4,8.1h2.6L288.2,28z"/>
		<path class="st20" d="M270.1,34.2c1.4-0.1,2.1-0.5,2.6-1.2l-0.1,0.8h1.9l0.6-8.2l-2,0l-0.1,1c-0.5-0.7-1.5-1.4-3.3-1.2
			c-3.3,0.5-4.4,4-3.7,6.1S268.6,34.3,270.1,34.2z M270.3,27.3c1.3,0,2.3,1.1,2.3,2.5c-0.1,1.4-1.2,2.5-2.6,2.5s-2.3-1.1-2.3-2.5
			C267.9,28.4,269,27.3,270.3,27.3z"/>
		<path class="st20" d="M255.8,29.6c0,2.6,2.1,4.7,4.7,4.7c1.8,0,3.4-1,4.1-2.5h-2.2c-0.5,0.4-1.2,0.7-1.9,0.7
			c-1.2,0-2.3-0.8-2.7-1.9h5.3l0,0h1.9c0.1-0.3,0.1-0.6,0.1-0.9c0-2.6-2.1-4.7-4.7-4.7S255.8,27,255.8,29.6z M260.4,26.9
			c1.4,0,2.5,1,2.7,2.2h-5.5C258,27.8,259.1,26.9,260.4,26.9z"/>
		<polygon class="st20" points="297.1,30.8 298,29.9 299.8,33.7 302.1,33.7 299.5,28.6 302.9,25.2 300.5,25.2 297.2,28.4
			297.5,22.7 295.3,22.7 294.8,33.7 297,33.7 		"/>
		<path class="st20" d="M337,47.9H211.8v59.5H337V47.9z M336.7,107.1H212.1v-59h124.6V107.1z"/>
		<path class="st20" d="M170.5,63.4h18.9c2,0,3.6-1.6,3.6-3.6v-0.1v-1.8v-0.1c0-2-1.6-3.6-3.6-3.6h-18.9c-2,0-3.6,1.6-3.6,3.6v2
			C166.9,61.8,168.5,63.4,170.5,63.4z M192.8,59.6c-0.1,0.1-0.3,0.1-0.4,0.1h-5c-0.5,0-0.9-0.4-0.9-0.9v0c0-0.5,0.4-0.9,0.9-0.9h5
			c0.1,0,0.3,0.1,0.4,0.1V59.6z M167.2,57.7c0-1.8,1.5-3.3,3.3-3.3h18.9c1.8,0,3.2,1.4,3.3,3.2c-0.1-0.1-0.3-0.1-0.4-0.1h-5
			c-0.7,0-1.2,0.6-1.2,1.2v0c0,0.7,0.6,1.2,1.2,1.2h5c0.1,0,0.3,0,0.4-0.1c-0.1,1.8-1.5,3.2-3.3,3.2h-18.9c-1.8,0-3.3-1.5-3.3-3.3
			V57.7z"/>
		<path class="st20" d="M170.5,81.8h18.9c2,0,3.6-1.6,3.6-3.6v-0.1v-1.8v-0.1c0-2-1.6-3.6-3.6-3.6h-18.9c-2,0-3.6,1.6-3.6,3.6v2
			C166.9,80.2,168.5,81.8,170.5,81.8z M192.8,78c-0.1,0.1-0.3,0.1-0.4,0.1h-5c-0.5,0-0.9-0.4-0.9-0.9v0c0-0.5,0.4-0.9,0.9-0.9h5
			c0.1,0,0.3,0.1,0.4,0.1V78z M167.2,76.1c0-1.8,1.5-3.3,3.3-3.3h18.9c1.8,0,3.2,1.4,3.3,3.2c-0.1-0.1-0.3-0.1-0.4-0.1h-5
			c-0.7,0-1.2,0.6-1.2,1.2v0c0,0.7,0.6,1.2,1.2,1.2h5c0.1,0,0.3,0,0.4-0.1c-0.1,1.8-1.5,3.2-3.3,3.2h-18.9c-1.8,0-3.3-1.5-3.3-3.3
			V76.1z"/>
		<path class="st20" d="M170.5,100.7h18.9c2,0,3.6-1.6,3.6-3.6v-0.1v-1.8V95c0-2-1.6-3.6-3.6-3.6h-18.9c-2,0-3.6,1.6-3.6,3.6v2
			C166.9,99,168.5,100.7,170.5,100.7z M192.8,96.9c-0.1,0.1-0.3,0.1-0.4,0.1h-5c-0.5,0-0.9-0.4-0.9-0.9v0c0-0.5,0.4-0.9,0.9-0.9h5
			c0.1,0,0.3,0.1,0.4,0.1V96.9z M167.2,95c0-1.8,1.5-3.3,3.3-3.3h18.9c1.8,0,3.2,1.4,3.3,3.2c-0.1-0.1-0.3-0.1-0.4-0.1h-5
			c-0.7,0-1.2,0.6-1.2,1.2v0c0,0.7,0.6,1.2,1.2,1.2h5c0.1,0,0.3,0,0.4-0.1c-0.1,1.8-1.5,3.2-3.3,3.2h-18.9c-1.8,0-3.3-1.5-3.3-3.3
			V95z"/>
		<path class="st20" d="M236,126.5h-18.9c-2,0-3.6,1.6-3.6,3.6v2c0,2,1.6,3.6,3.6,3.6H236c2,0,3.6-1.6,3.6-3.6v-2
			C239.6,128.1,238,126.5,236,126.5z M239.3,132.2c0,1.8-1.5,3.3-3.3,3.3h-18.9c-1.8,0-3.3-1.5-3.3-3.3v-2c0-1.8,1.5-3.3,3.3-3.3
			H236c1.8,0,3.3,1.5,3.3,3.3V132.2z"/>
		<path class="st20" d="M268.1,126.5h-18.9c-2,0-3.6,1.6-3.6,3.6v2c0,2,1.6,3.6,3.6,3.6h18.9c2,0,3.6-1.6,3.6-3.6v-2
			C271.7,128.1,270.1,126.5,268.1,126.5z M271.5,132.2c0,1.8-1.5,3.3-3.3,3.3h-18.9c-1.8,0-3.3-1.5-3.3-3.3v-2
			c0-1.8,1.5-3.3,3.3-3.3h18.9c1.8,0,3.3,1.5,3.3,3.3V132.2z"/>
		<path class="st20" d="M300.2,126.5h-18.9c-2,0-3.6,1.6-3.6,3.6v2c0,2,1.6,3.6,3.6,3.6h18.9c2,0,3.6-1.6,3.6-3.6v-2
			C303.8,128.1,302.2,126.5,300.2,126.5z M303.6,132.2c0,1.8-1.5,3.3-3.3,3.3h-18.9c-1.8,0-3.3-1.5-3.3-3.3v-2
			c0-1.8,1.5-3.3,3.3-3.3h18.9c1.8,0,3.3,1.5,3.3,3.3V132.2z"/>
		<path class="st20" d="M332.3,126.5h-18.9c-2,0-3.6,1.6-3.6,3.6v2c0,2,1.6,3.6,3.6,3.6h18.9c2,0,3.6-1.6,3.6-3.6v-2
			C335.9,128.1,334.3,126.5,332.3,126.5z M335.7,132.2c0,1.8-1.5,3.3-3.3,3.3h-18.9c-1.8,0-3.3-1.5-3.3-3.3v-2
			c0-1.8,1.5-3.3,3.3-3.3h18.9c1.8,0,3.3,1.5,3.3,3.3V132.2z"/>
		<path class="st20" d="M359.8,100.7h18.9c2,0,3.6-1.6,3.6-3.6v-2c0-2-1.6-3.6-3.6-3.6h-18.9c-2,0-3.6,1.6-3.6,3.6v0.1v1.8V97
			C356.2,99,357.9,100.7,359.8,100.7z M356.5,95.2c0.2-0.1,0.3-0.1,0.4-0.1h5c0.5,0,0.9,0.4,0.9,0.9v0c0,0.5-0.4,0.9-0.9,0.9h-5
			c-0.1,0-0.3-0.1-0.4-0.1V95.2z M357,97.3h5c0.7,0,1.2-0.6,1.2-1.2v0c0-0.7-0.6-1.2-1.2-1.2h-5c-0.1,0-0.3,0-0.4,0.1
			c0.1-1.8,1.5-3.2,3.3-3.2h18.9c1.8,0,3.3,1.5,3.3,3.3v2c0,1.8-1.5,3.3-3.3,3.3h-18.9c-1.8,0-3.2-1.4-3.3-3.2
			C356.7,97.2,356.8,97.3,357,97.3z"/>
		<path class="st20" d="M359.8,82.3h18.9c2,0,3.6-1.6,3.6-3.6v-2c0-2-1.6-3.6-3.6-3.6h-18.9c-2,0-3.6,1.6-3.6,3.6v0.1v1.8v0.1
			C356.2,80.6,357.9,82.3,359.8,82.3z M356.5,76.8c0.2-0.1,0.3-0.1,0.4-0.1h5c0.5,0,0.9,0.4,0.9,0.9v0c0,0.5-0.4,0.9-0.9,0.9h-5
			c-0.1,0-0.3-0.1-0.4-0.1V76.8z M357,78.9h5c0.7,0,1.2-0.6,1.2-1.2v0c0-0.7-0.6-1.2-1.2-1.2h-5c-0.1,0-0.3,0-0.4,0.1
			c0.1-1.8,1.5-3.2,3.3-3.2h18.9c1.8,0,3.3,1.5,3.3,3.3v2c0,1.8-1.5,3.3-3.3,3.3h-18.9c-1.8,0-3.2-1.4-3.3-3.2
			C356.7,78.8,356.8,78.9,357,78.9z"/>
		<path class="st20" d="M359.8,63.4h18.9c2,0,3.6-1.6,3.6-3.6v-2c0-2-1.6-3.6-3.6-3.6h-18.9c-2,0-3.6,1.6-3.6,3.6v0.1v1.8v0.1
			C356.2,61.8,357.9,63.4,359.8,63.4z M356.5,57.9c0.2-0.1,0.3-0.1,0.4-0.1h5c0.5,0,0.9,0.4,0.9,0.9v0c0,0.5-0.4,0.9-0.9,0.9h-5
			c-0.1,0-0.3-0.1-0.4-0.1V57.9z M357,60h5c0.7,0,1.2-0.6,1.2-1.2v0c0-0.7-0.6-1.2-1.2-1.2h-5c-0.1,0-0.3,0-0.4,0.1
			c0.1-1.8,1.5-3.2,3.3-3.2h18.9c1.8,0,3.3,1.5,3.3,3.3v2c0,1.8-1.5,3.3-3.3,3.3h-18.9c-1.8,0-3.2-1.4-3.3-3.2
			C356.7,60,356.8,60,357,60z"/>
		<path class="st20" d="M47.8,323.4c-1.9,0-2-0.9-2.2-4.2l0-0.3c-0.1-1,0-3.4,0.1-6.5c0.1-3.5,0.2-7.9,0.2-11.8
			c0-4.2-0.5-7.9-0.7-9.2c-0.5-3.5-3.1-11.4-4.1-13.7l-0.3,0.1c1,2.3,3.6,10.2,4.1,13.7c0.2,1.4,0.6,5,0.7,9.2
			c0,3.9-0.1,8.3-0.2,11.8c-0.1,3.1-0.2,5.5-0.1,6.5l0,0.3c0.2,3.3,0.2,4.4,2.5,4.4c2.1,0,6.9-0.1,7-0.1l0-0.3
			C54.7,323.3,49.9,323.4,47.8,323.4z"/>
		<path class="st20" d="M47.5,327.1c-0.1,0-5.1-1.3-5.1-5.1c0-0.7,0-1.9,0-3.4c0-6.6,0.1-18.9-0.1-20.7l0-0.1
			c-0.1-1.2-0.5-5-1.6-8.6c-0.9-2.8-2.4-5.8-3.3-6.8l-0.2,0.2c0.8,0.8,2.4,3.7,3.3,6.6c1.1,3.6,1.4,7.3,1.5,8.5l0,0.1
			c0.2,1.7,0.1,14,0.1,20.6c0,1.5,0,2.7,0,3.4c0,3.6,4.2,5.2,5.4,5.4c0.1,0,0.4,0,0.9,0c1,0,2.8,0,4.6-0.1c0.9,0,1.6,0,1.8,0V327
			c-0.2,0-0.9,0-1.8,0C51.1,327.1,47.8,327.2,47.5,327.1z"/>
		<path class="st20" d="M56.1,314.8c-0.7,0-1.2,0.5-1.2,1.2v16.4c0,0.7,0.5,1.2,1.2,1.2c0.7,0,1.2-0.5,1.2-1.2V316
			C57.3,315.4,56.8,314.8,56.1,314.8z M57,332.4c0,0.5-0.4,0.9-0.9,0.9s-0.9-0.4-0.9-0.9V316c0-0.5,0.4-0.9,0.9-0.9s0.9,0.4,0.9,0.9
			V332.4z"/>
		<path class="st20" d="M43.1,64.4c2.2,0.8,7.9,2.9,14.1,3.9c7.6,1.2,15,1.3,16.4,1.3h0.6c1.4,0,8.9-0.1,16.4-1.3
			c6.2-1,11.9-3.1,14.1-3.9c8.1-3.1,7.5-8.6,7.5-8.7v-6.5c0-1.5-1.3-2.2-2.2-2.2H74.3v0.3H110c0.6,0,1.9,0.5,1.9,1.9l0,6.5
			c0,0.1,0.6,5.4-7.3,8.4c-2.2,0.8-7.8,2.9-14,3.9c-7.6,1.2-15,1.3-16.4,1.3h-0.6c-1.4,0-8.8-0.1-16.4-1.3c-6.2-1-11.8-3-14-3.9
			c-7.9-3-7.3-8.3-7.3-8.4v-6.5c0-1.4,1.3-1.9,1.9-1.9h35.7V47H37.8c-0.9,0-2.2,0.7-2.2,2.2l0,6.5C35.6,55.7,35,61.3,43.1,64.4z"/>
		<path class="st20" d="M38.7,50.6c-0.1,0.4-0.2,1,0.6,1.6c0.1,0.1,1.3,1.2,4.4,2.4c2.7,1.1,6.6,2.3,10.4,3.1c7.5,1.7,16.7,2,19.6,2
			h0.7c2.9,0,12-0.4,19.6-2c3.8-0.8,7.7-2,10.4-3.1c3-1.2,4.2-2.3,4.4-2.4c0.7-0.7,0.7-1.3,0.6-1.6c-0.3-0.7-1.2-1.2-1.9-1.2H40.6
			C40,49.4,39,49.9,38.7,50.6z M108.9,50.7c0.2,0.4,0,0.9-0.5,1.3c-0.1,0.1-1.3,1.1-4.3,2.4c-2.7,1.1-6.5,2.3-10.3,3.1
			c-7.5,1.7-16.6,2-19.5,2h-0.7c-2.9,0-12-0.4-19.5-2c-3.8-0.8-7.7-2-10.3-3.1c-3-1.2-4.2-2.2-4.3-2.4c-0.5-0.4-0.7-0.9-0.5-1.3
			c0.2-0.6,1.1-1,1.7-1h66.5C107.8,49.7,108.6,50.1,108.9,50.7z"/>
		<path class="st20" d="M88.2,98.9L88.2,98.9l0-0.1l0.1,0l0-14l-0.2,0c-3.9,0.8-11.3,0.9-13.7,0.9c0,0-0.1,0-0.1,0h-0.6
			c-2.2,0-9.8-0.1-13.8-0.9l-0.2,0l0,14l0.1,0l0,0l0,0.1c0,0.3-0.1,0.6-0.1,0.8c-0.1,0.5-0.1,0.9,0,1.4l0,0.1l0.1,0
			c0,0,2.8,0.2,3.8,0.3c-0.3,0-0.6,0-0.6,0.1c-0.5,0.2-0.5,0.3-0.5,0.6c0,0.1,0,0.2,0,0.3c-0.1,0.4-0.1,3.2,0,3.4c0,0,0,0.1,0,0.1
			c0,0.3,0.1,1,0.9,1v-0.3c-0.5,0-0.6-0.3-0.6-0.7c0-0.1,0-0.1,0-0.1c0-0.2,0-2.9,0.1-3.4c0-0.1,0-0.2,0-0.3c0-0.2,0-0.2,0.3-0.3
			c0.4-0.2,6.6-0.1,10.7-0.1h0.6c4.1-0.1,10.3-0.1,10.7,0.1c0.3,0.1,0.3,0.2,0.3,0.3c0,0.1,0,0.2,0,0.3c0.1,0.5,0.1,3.2,0.1,3.4
			c0,0,0,0.1,0,0.1c0,0.4-0.1,0.7-0.6,0.7v0.3c0.8,0,0.9-0.7,0.9-1c0,0,0-0.1,0-0.1c0.1-0.3,0-3,0-3.4c0-0.1,0-0.2,0-0.3
			c0-0.3,0-0.4-0.5-0.6c-0.1,0-0.3-0.1-0.6-0.1c1.1-0.1,3.8-0.3,3.8-0.3l0.1,0l0-0.1c0.1-0.5,0.1-0.9,0-1.4
			C88.3,99.5,88.3,99.2,88.2,98.9z M59.9,85.1C64,86,71.4,86,73.6,86h0.6c2.2,0,9.6-0.1,13.7-0.9l0,13.6C86.1,98.2,74.6,98,74.1,98
			h-0.4c-0.5,0-12,0.2-13.9,0.7L59.9,85.1z M88.1,101c-0.6,0-3,0.2-3.9,0.3l0,0.3c-2.3-0.1-9.1,0-10,0h-0.6c-0.9,0-7.7-0.1-10,0
			l0-0.3c-0.9-0.1-3.3-0.3-3.9-0.3c-0.1-0.4,0-0.8,0-1.2c0-0.2,0.1-0.5,0.1-0.8c1.2-0.4,9.5-0.7,13.8-0.7h0.4
			c4.3,0.1,12.6,0.3,13.8,0.7c0,0.3,0.1,0.5,0.1,0.8C88.1,100.2,88.2,100.6,88.1,101z"/>
		<rect x="63.7" y="106.4" class="st20" width="20.4" height="0.3"/>
		<path class="st20" d="M115.4,307.3c-0.6-4.3-1.1-8.8-1.5-12.7c-0.7-5.9-1.2-10.6-1.6-12c-1.7-5.5-3.8-6-5.5-6.4
			c-0.2-0.1-0.5-0.1-0.7-0.2c-1.5-0.4-8.4-1.5-13.6-2c-8.1-0.7-15.7-0.8-18.7-0.8c-2.9,0-10.6,0.1-18.7,0.8
			c-5.2,0.4-12.1,1.6-13.6,2c-0.2,0.1-0.4,0.1-0.7,0.2c-1.7,0.4-3.8,0.9-5.5,6.4c-0.4,1.4-1,6.1-1.6,12c-0.4,3.9-0.9,8.4-1.5,12.7
			c-1.5,11.8-3.5,23.2-3.9,24.8c0,0.1-1,6.2,1.8,9.8c1.2,1.5,2.9,2.4,5.1,2.6c2.2,0.2,5.5,0.1,9.3-0.1c2.3-0.1,4.7-0.2,7.2-0.2
			c7.7-0.1,15.6,0,19.4,0c1,0,1.8,0,2.2,0h0.8c0.4,0,1.2,0,2.2,0c3.8,0,11.8-0.1,19.4,0c2.4,0,4.8,0.1,7.2,0.2
			c2.5,0.1,4.7,0.2,6.6,0.2c1,0,1.9,0,2.7-0.1c2.2-0.2,3.9-1,5.1-2.6c2.8-3.6,1.8-9.8,1.8-9.8C119,330.5,117,319.1,115.4,307.3z
			 M117.3,341.8c-1.2,1.5-2.8,2.3-4.9,2.5c-2.2,0.2-5.5,0.1-9.2-0.1c-2.3-0.1-4.7-0.2-7.2-0.2c-3.2,0-6.5-0.1-9.5-0.1
			c-4.1,0-7.7,0-9.9,0c-1,0-1.8,0-2.2,0h-0.8c-0.4,0-1.2,0-2.2,0c-3.8,0-11.8-0.1-19.4,0c-2.5,0-4.8,0.1-7.2,0.2
			c-3.8,0.1-7.1,0.3-9.2,0.1c-2.1-0.2-3.8-1-4.9-2.5c-2.7-3.5-1.8-9.5-1.8-9.6c0.3-1.6,2.3-13,3.9-24.8c0.6-4.3,1.1-8.8,1.5-12.7
			c0.7-5.9,1.2-10.5,1.6-12c1.7-5.3,3.6-5.8,5.3-6.2c0.2-0.1,0.5-0.1,0.7-0.2c1.4-0.4,8.4-1.5,13.5-2c8-0.7,15.7-0.8,18.6-0.8
			c2.9,0,10.6,0.1,18.6,0.8c5.2,0.4,12.1,1.6,13.5,2c0.2,0.1,0.4,0.1,0.7,0.2c1.7,0.4,3.6,0.9,5.3,6.2c0.4,1.4,1,6.1,1.6,12
			c0.4,3.9,0.9,8.4,1.5,12.7c1.5,11.8,3.5,23.2,3.9,24.8C119,332.2,120,338.3,117.3,341.8z"/>
		<path class="st20" d="M102.5,319.3l0-0.3c0.1-1,0-3.4-0.1-6.5c-0.1-3.5-0.2-7.9-0.2-11.8c0-4.2,0.5-7.8,0.7-9.2
			c0.5-3.4,3.1-11.4,4.1-13.7l-0.3-0.1c-1,2.4-3.6,10.2-4.1,13.7c-0.2,1.4-0.7,5-0.7,9.2c0,3.9,0.1,8.3,0.2,11.8
			c0.1,3.1,0.2,5.5,0.1,6.5l0,0.3c-0.2,3.3-0.2,4.2-2.2,4.2c-2.1,0-6.9-0.1-7-0.1l0,0.3c0,0,4.9,0.1,7,0.1
			C102.3,323.7,102.3,322.6,102.5,319.3z"/>
		<path class="st20" d="M73.7,323.4h0.4c0.7,0,16.2,0.1,16.3,0.1l0-0.3c-0.2,0-15.6-0.1-16.3-0.1h-0.4c-0.7,0-16.2,0.1-16.3,0.1
			l0,0.3C57.6,323.5,73.1,323.4,73.7,323.4z"/>
		<path class="st20" d="M74.1,326.9h-0.4c-2.7,0-16.1-0.1-16.4,0l0.1,0.3c0.4-0.1,11.9,0,16.3,0h0.4c4.4,0,15.9-0.1,16.3,0l0-0.1
			l0-0.1C90.2,326.8,76.8,326.9,74.1,326.9z"/>
		<path class="st20" d="M107.1,289.3c-1.1,3.6-1.4,7.4-1.6,8.6l0,0.1c-0.2,1.7-0.1,14.1-0.1,20.7c0,1.5,0,2.7,0,3.4
			c0,3.8-5.1,5.1-5.1,5.1c-0.3,0.1-3.5,0-5.5-0.1c-0.9,0-1.6,0-1.8,0v0.3c0.2,0,0.9,0,1.8,0c1.9,0,3.6,0.1,4.6,0.1
			c0.5,0,0.8,0,0.9,0c0.3-0.1,1.6-0.4,2.9-1.3c1.6-1.1,2.5-2.5,2.5-4.1c0-0.7,0-1.9,0-3.4c0-6.6-0.1-18.9,0.1-20.6l0-0.1
			c0.1-1.2,0.4-4.9,1.5-8.5c0.9-2.9,2.5-5.8,3.3-6.6l-0.2-0.2C109.5,283.4,108,286.4,107.1,289.3z"/>
		<path class="st20" d="M91.7,314.8c-0.7,0-1.2,0.5-1.2,1.2v16.4c0,0.7,0.5,1.2,1.2,1.2s1.2-0.5,1.2-1.2V316
			C92.9,315.4,92.4,314.8,91.7,314.8z M92.6,332.4c0,0.5-0.4,0.9-0.9,0.9s-0.9-0.4-0.9-0.9V316c0-0.5,0.4-0.9,0.9-0.9
			s0.9,0.4,0.9,0.9V332.4z"/>
		<path class="st20" d="M68.2,202.3c-0.7-0.3-1.5-0.2-2.3,0.3c-0.8,0.5-1.5,1.3-2,2.3v0c-0.5,1-0.7,2.1-0.5,3c0.1,0.9,0.6,1.6,1.3,2
			c0.3,0.1,0.5,0.2,0.8,0.2c0.5,0,1-0.2,1.5-0.5c0.8-0.5,1.5-1.3,2-2.3C69.9,205.1,69.6,202.9,68.2,202.3z M68.7,207.1
			c-0.4,0.9-1.1,1.7-1.8,2.2c-0.7,0.4-1.5,0.5-2,0.3c-0.6-0.3-1-0.9-1.1-1.7c-0.1-0.9,0.1-1.9,0.5-2.8v0c0.4-0.9,1.1-1.7,1.8-2.2
			c0.5-0.3,0.9-0.4,1.3-0.4c0.3,0,0.5,0.1,0.7,0.2C69.3,203.1,69.6,205.2,68.7,207.1z"/>
		<path class="st20" d="M80.2,176.7c0.3,0.1,0.5,0.2,0.8,0.2c0.5,0,1-0.2,1.5-0.5c0.8-0.5,1.5-1.3,2-2.3c0.5-1,0.7-2,0.5-3
			c-0.1-0.9-0.6-1.6-1.3-2c-0.7-0.3-1.5-0.2-2.3,0.3c-0.8,0.5-1.5,1.3-2,2.3C78.5,173.9,78.8,176.1,80.2,176.7z M79.7,171.9
			c0.4-0.9,1.1-1.7,1.8-2.2c0.7-0.4,1.5-0.5,2-0.3c0.6,0.3,1,0.9,1.1,1.7c0.1,0.9-0.1,1.9-0.5,2.8c-0.4,0.9-1.1,1.7-1.8,2.2
			c-0.7,0.4-1.5,0.5-2,0.3C79.1,175.9,78.8,173.9,79.7,171.9z"/>
		<path class="st20" d="M58.6,204.4c1,0,2.1-0.4,3.1-1.2c1.8-1.4,2.4-3.6,1.5-4.8c-0.5-0.6-1.3-0.9-2.2-0.8
			c-0.9,0.1-1.9,0.5-2.8,1.2c-0.9,0.7-1.5,1.6-1.8,2.4c-0.3,0.9-0.2,1.7,0.3,2.3C57.2,204.1,57.8,204.4,58.6,204.4z M56.8,201.4
			c0.3-0.8,0.9-1.7,1.7-2.3c0.8-0.7,1.7-1.1,2.6-1.2c0.1,0,0.2,0,0.3,0c0.7,0,1.3,0.2,1.6,0.7c0.9,1.1,0.2,3-1.4,4.4
			c-1.7,1.3-3.7,1.6-4.6,0.5C56.6,202.9,56.5,202.2,56.8,201.4z"/>
		<path class="st20" d="M91.6,175.4c-1-1.2-3.2-1-5,0.5c-1.8,1.4-2.4,3.6-1.5,4.8c0.4,0.5,1.1,0.8,1.8,0.8c1,0,2.1-0.4,3.1-1.2
			C91.9,178.7,92.6,176.6,91.6,175.4z M85.4,180.5c-0.9-1.1-0.2-3,1.4-4.4c1-0.8,2-1.2,2.9-1.2c0.7,0,1.2,0.2,1.6,0.7
			c0.9,1.1,0.2,3-1.4,4.4C88.3,181.3,86.2,181.5,85.4,180.5z"/>
		<path class="st20" d="M57,196.4c2.2-0.5,3.8-2.2,3.4-3.6c-0.2-0.7-0.8-1.3-1.7-1.6c-0.9-0.3-1.9-0.4-3-0.1c-1.1,0.3-2,0.8-2.7,1.4
			c-0.7,0.7-0.9,1.5-0.8,2.2c0.2,0.7,0.8,1.3,1.7,1.6c0.5,0.2,1,0.3,1.6,0.3C56.1,196.5,56.6,196.5,57,196.4z M54.1,196
			c-0.8-0.3-1.3-0.8-1.5-1.4c-0.1-0.6,0.1-1.3,0.7-1.9c0.6-0.6,1.5-1.1,2.5-1.4c0.4-0.1,0.9-0.2,1.3-0.2c0.5,0,1.1,0.1,1.5,0.3
			c0.8,0.3,1.3,0.8,1.5,1.4c0.3,1.3-1.1,2.8-3.2,3.3C56,196.3,54.9,196.3,54.1,196z"/>
		<path class="st20" d="M89.6,187.9c0.5,0.2,1,0.3,1.6,0.3c0.5,0,0.9-0.1,1.4-0.2c2.2-0.5,3.8-2.2,3.4-3.6c-0.2-0.7-0.8-1.3-1.7-1.6
			c-0.9-0.3-1.9-0.4-3-0.1c-2.2,0.5-3.8,2.2-3.4,3.6C88.1,187,88.7,187.6,89.6,187.9z M91.4,182.9c1-0.2,2-0.2,2.9,0.1
			c0.8,0.3,1.3,0.8,1.5,1.4c0.3,1.3-1.1,2.8-3.2,3.3c-1,0.2-2,0.2-2.9-0.1c-0.8-0.3-1.3-0.8-1.5-1.4
			C87.9,184.9,89.3,183.4,91.4,182.9z"/>
		<path class="st20" d="M55.8,188.2c0.4,0.1,0.9,0.1,1.3,0.1c1.7,0,3.1-0.8,3.3-1.9c0.3-1.5-1.2-3.1-3.4-3.6
			c-2.2-0.5-4.3,0.3-4.7,1.8S53.5,187.7,55.8,188.2z M52.6,184.7c0.2-1.1,1.5-1.7,3-1.7c0.4,0,0.8,0,1.3,0.1
			c2.1,0.5,3.5,1.9,3.2,3.3s-2.2,2-4.3,1.6C53.7,187.5,52.3,186,52.6,184.7z"/>
		<path class="st20" d="M88.7,194.8c0.6,0.7,1.6,1.2,2.7,1.4c0.4,0.1,0.9,0.2,1.3,0.2c0.6,0,1.2-0.1,1.7-0.3
			c0.9-0.3,1.5-0.9,1.6-1.7c0.3-1.5-1.2-3.1-3.4-3.6c-1.1-0.2-2.1-0.2-3,0.1c-0.9,0.3-1.5,0.9-1.6,1.7S88.1,194.1,88.7,194.8z
			 M88.2,192.7c0.1-0.6,0.7-1.1,1.5-1.4c0.5-0.2,1-0.3,1.6-0.3c0.4,0,0.8,0,1.3,0.1c2.1,0.5,3.5,1.9,3.2,3.3
			c-0.1,0.6-0.7,1.1-1.5,1.4c-0.8,0.3-1.8,0.4-2.8,0.1c-1-0.2-1.9-0.7-2.5-1.3C88.3,194,88.1,193.3,88.2,192.7z"/>
		<path class="st20" d="M56.6,175.6c-0.5,0.6-0.6,1.4-0.3,2.3c0.3,0.9,0.9,1.7,1.8,2.4c0.9,0.7,1.8,1.1,2.8,1.2c0.1,0,0.2,0,0.3,0
			c0.8,0,1.5-0.3,1.9-0.8c0.9-1.2,0.3-3.3-1.5-4.7C59.8,174.6,57.6,174.4,56.6,175.6z M62.9,180.6c-0.4,0.5-1.1,0.7-1.9,0.7
			c-0.9-0.1-1.8-0.5-2.6-1.1s-1.4-1.5-1.7-2.3c-0.3-0.8-0.2-1.5,0.2-2c0.4-0.5,1-0.7,1.6-0.7c0.9,0,2,0.4,2.9,1.1
			C63.1,177.6,63.7,179.5,62.9,180.6z"/>
		<path class="st20" d="M91.8,203.4c0.9-1.2,0.3-3.3-1.5-4.7c-0.9-0.7-1.8-1.1-2.8-1.2c-0.9-0.1-1.7,0.2-2.2,0.8
			c-0.9,1.2-0.3,3.3,1.5,4.7c1,0.8,2.1,1.2,3.1,1.2C90.7,204.2,91.3,204,91.8,203.4z M85.5,198.5c0.4-0.4,0.9-0.7,1.6-0.7
			c0.1,0,0.2,0,0.3,0c0.9,0.1,1.8,0.5,2.6,1.1c1.7,1.3,2.3,3.3,1.5,4.3c-0.8,1.1-2.9,0.9-4.6-0.5C85.3,201.5,84.6,199.5,85.5,198.5z
			"/>
		<path class="st20" d="M64.4,169.3c-1.4,0.7-1.7,2.9-0.7,4.9c0.5,1,1.2,1.8,2,2.3c0.5,0.3,1,0.4,1.5,0.4c0.3,0,0.6-0.1,0.9-0.2
			c1.4-0.7,1.7-2.9,0.7-4.9C67.7,169.8,65.8,168.7,64.4,169.3z M67.9,176.5c-0.6,0.3-1.3,0.2-2-0.2c-0.8-0.5-1.4-1.2-1.9-2.2
			c-0.9-1.9-0.7-4,0.5-4.6c0.2-0.1,0.5-0.2,0.7-0.2c1.1,0,2.4,1,3.2,2.6C69.4,173.9,69.1,176,67.9,176.5z"/>
		<path class="st20" d="M83.1,209.9c0.3,0,0.6-0.1,0.8-0.2c1.4-0.7,1.7-2.9,0.7-4.9c-1-2.1-2.9-3.2-4.3-2.5
			c-1.4,0.7-1.7,2.9-0.7,4.9C80.4,208.8,81.9,209.9,83.1,209.9z M79.9,207c-0.9-1.9-0.7-4,0.5-4.6c0.2-0.1,0.5-0.2,0.7-0.2
			c1.1,0,2.4,1,3.2,2.6c0.9,1.9,0.7,4-0.5,4.6C82.6,210,80.8,208.9,79.9,207z"/>
		<path class="st20" d="M77,171.3c0-2.3-1.2-4.2-2.8-4.2s-2.8,1.9-2.8,4.2c0,2.3,1.2,4.1,2.7,4.1c-7.7,0-14,6.3-14,14.1
			c0,7.8,6.3,14.1,14.1,14.1c7.8,0,14.1-6.3,14.1-14.1c0-7.7-6.3-14-14-14.1C75.7,175.3,77,173.5,77,171.3z M88,189.5
			c0,7.6-6.2,13.8-13.8,13.8s-13.8-6.2-13.8-13.8c0-7.6,6.2-13.8,13.8-13.8S88,181.9,88,189.5z M74.2,175.1c-1.4,0-2.5-1.7-2.5-3.9
			s1.1-3.9,2.5-3.9s2.5,1.7,2.5,3.9S75.6,175.1,74.2,175.1z"/>
		<path class="st20" d="M74.2,203.6c-1.5,0-2.8,1.9-2.8,4.2s1.2,4.2,2.8,4.2s2.8-1.9,2.8-4.2S75.7,203.6,74.2,203.6z M74.2,211.6
			c-1.4,0-2.5-1.7-2.5-3.9c0-2.1,1.1-3.9,2.5-3.9s2.5,1.7,2.5,3.9C76.7,209.9,75.6,211.6,74.2,211.6z"/>
		<path class="st20" d="M66.4,213.3c-0.7-0.2-1.5,0-2.3,0.6c-0.7,0.6-1.3,1.5-1.7,2.5c-0.7,2.2-0.1,4.3,1.3,4.8
			c0.2,0.1,0.4,0.1,0.6,0.1c1.3,0,2.7-1.3,3.3-3.2C68.5,215.9,67.9,213.8,66.4,213.3z M67.5,218c-0.7,2-2.2,3.3-3.5,2.9
			c-1.3-0.4-1.8-2.4-1.2-4.4c0.3-1,0.9-1.8,1.6-2.4c0.5-0.4,1-0.6,1.5-0.6c0.2,0,0.3,0,0.5,0.1C67.6,214,68.2,216,67.5,218z"/>
		<path class="st20" d="M81.9,165.7c0.2,0.1,0.4,0.1,0.6,0.1c1.3,0,2.7-1.3,3.3-3.2c0.7-2.2,0.1-4.3-1.3-4.8c-0.7-0.2-1.5,0-2.3,0.6
			c-0.7,0.6-1.3,1.5-1.7,2.5C79.8,163,80.5,165.2,81.9,165.7z M80.8,161c0.3-1,0.9-1.8,1.6-2.4c0.7-0.5,1.4-0.7,2-0.5
			c1.3,0.4,1.8,2.4,1.2,4.4c-0.7,2-2.2,3.3-3.5,2.9C80.7,165,80.2,163,80.8,161z"/>
		<path class="st20" d="M59.5,209.7c-1.2-0.9-3.3-0.1-4.7,1.7c-0.6,0.9-1,1.9-1.1,2.8c0,1,0.3,1.7,0.9,2.2c0.3,0.3,0.8,0.4,1.2,0.4
			c1.1,0,2.5-0.8,3.5-2.1C60.6,212.9,60.7,210.6,59.5,209.7z M59,214.5c-1.3,1.7-3.2,2.5-4.3,1.7c-0.5-0.4-0.8-1.1-0.8-1.9
			c0-0.9,0.4-1.8,1-2.7c1.3-1.7,3.2-2.5,4.3-1.7C60.4,210.8,60.3,212.8,59,214.5z"/>
		<path class="st20" d="M88.9,169.2c0.3,0.3,0.8,0.4,1.2,0.4c0.3,0,0.7-0.1,1.1-0.2c0.9-0.3,1.7-1,2.4-1.9c0.6-0.9,1-1.9,1.1-2.8
			c0-1-0.3-1.7-0.9-2.2c-1.2-0.9-3.3-0.1-4.7,1.7v0C87.7,166.1,87.6,168.3,88.9,169.2z M89.3,164.4L89.3,164.4
			c1.3-1.7,3.2-2.5,4.3-1.7c0.5,0.4,0.8,1.1,0.8,1.9c0,0.9-0.4,1.8-1,2.7c-0.6,0.8-1.4,1.5-2.2,1.8c-0.8,0.3-1.5,0.3-2.1-0.1
			C88,168.2,88.1,166.1,89.3,164.4z"/>
		<path class="st20" d="M49.2,209.9c0.9,0,2-0.4,3-1.1c0.9-0.6,1.6-1.5,1.9-2.4c0.3-0.9,0.3-1.7-0.2-2.3c-0.4-0.6-1.2-0.9-2.2-0.9
			c-0.9,0-1.9,0.4-2.8,1.1c-1.9,1.3-2.6,3.4-1.7,4.7C47.6,209.7,48.3,209.9,49.2,209.9z M49.1,204.6c0.8-0.6,1.8-1,2.7-1
			c0.1,0,0.1,0,0.2,0c0.8,0,1.4,0.3,1.7,0.8c0.4,0.5,0.4,1.3,0.1,2.1c-0.3,0.8-0.9,1.6-1.8,2.2c-1.7,1.3-3.8,1.4-4.6,0.3
			C46.6,207.8,47.4,205.9,49.1,204.6z"/>
		<path class="st20" d="M99.4,174.6c1.9-1.3,2.6-3.4,1.7-4.7c-0.4-0.6-1.2-0.9-2.2-0.9c-0.9,0-1.9,0.4-2.8,1.1
			c-0.9,0.6-1.6,1.5-1.9,2.4c-0.3,0.9-0.3,1.7,0.2,2.3c0.4,0.6,1.1,0.9,2,0.9C97.3,175.6,98.4,175.3,99.4,174.6z M94.7,174.6
			c-0.4-0.5-0.4-1.3-0.1-2.1c0.3-0.8,0.9-1.6,1.8-2.2h0c0.8-0.6,1.8-1,2.7-1c0.1,0,0.1,0,0.2,0c0.8,0,1.4,0.3,1.7,0.8
			c0.8,1.1,0.1,3-1.7,4.3C97.5,175.6,95.5,175.7,94.7,174.6z"/>
		<path class="st20" d="M45.5,201.4c0.6,0,1.2-0.1,1.8-0.3c2.2-0.7,3.6-2.5,3.1-3.9c-0.2-0.7-0.9-1.2-1.8-1.5c-0.9-0.2-2-0.2-3,0.1
			c-1,0.3-1.9,0.9-2.5,1.7c-0.6,0.7-0.8,1.5-0.6,2.3C42.8,200.8,44,201.4,45.5,201.4z M43.3,197.7c0.5-0.7,1.4-1.2,2.4-1.6
			c0.6-0.2,1.2-0.3,1.7-0.3c0.4,0,0.8,0,1.1,0.1c0.8,0.2,1.4,0.7,1.6,1.3c0.4,1.3-0.9,2.9-2.9,3.5c-2,0.7-4,0.1-4.4-1.2
			C42.5,199.1,42.7,198.4,43.3,197.7z"/>
		<path class="st20" d="M101.1,177.8c-2.2,0.7-3.6,2.5-3.1,3.9c0.3,1,1.5,1.6,3,1.6c0.6,0,1.2-0.1,1.8-0.3c1-0.3,1.9-0.9,2.5-1.7
			c0.6-0.7,0.8-1.5,0.6-2.3C105.4,177.7,103.3,177.1,101.1,177.8z M105.1,181.3c-0.5,0.7-1.4,1.2-2.4,1.6c-2,0.7-4,0.1-4.4-1.2
			c-0.4-1.3,0.9-2.9,2.9-3.5c2-0.7,4-0.1,4.4,1.2C105.8,179.9,105.6,180.6,105.1,181.3z"/>
		<path class="st20" d="M40.8,189.5c0,1.5,1.9,2.8,4.2,2.8s4.2-1.2,4.2-2.8c0-1.5-1.9-2.8-4.2-2.8S40.8,187.9,40.8,189.5z M45,187
			c2.1,0,3.9,1.1,3.9,2.5S47.1,192,45,192s-3.9-1.1-3.9-2.5S42.9,187,45,187z"/>
		<path class="st20" d="M107.5,189.5c0-1.5-1.9-2.8-4.2-2.8s-4.2,1.2-4.2,2.8c0,1.5,1.9,2.8,4.2,2.8S107.5,191,107.5,189.5z
			 M103.4,192c-2.1,0-3.9-1.1-3.9-2.5s1.7-2.5,3.9-2.5c2.1,0,3.9,1.1,3.9,2.5S105.5,192,103.4,192z"/>
		<path class="st20" d="M45.6,183.1c0.6,0.2,1.2,0.3,1.8,0.3c1.5,0,2.7-0.6,3-1.6c0.5-1.5-0.9-3.2-3.1-3.9c-2.2-0.7-4.3-0.1-4.8,1.3
			c-0.2,0.7,0,1.5,0.6,2.3C43.6,182.2,44.5,182.7,45.6,183.1z M42.7,179.3c0.3-0.9,1.4-1.4,2.7-1.4c0.5,0,1.1,0.1,1.7,0.3
			c2,0.7,3.3,2.3,2.9,3.5c-0.4,1.3-2.4,1.8-4.4,1.2c-1-0.3-1.8-0.9-2.4-1.6C42.7,180.6,42.5,179.9,42.7,179.3z"/>
		<path class="st20" d="M102.8,195.9c-1-0.3-2.1-0.4-3-0.1c-0.9,0.3-1.6,0.8-1.8,1.5c-0.5,1.5,0.9,3.2,3.1,3.9
			c0.6,0.2,1.2,0.3,1.8,0.3c1.5,0,2.7-0.6,3-1.6c0.2-0.7,0-1.5-0.6-2.3C104.7,196.8,103.8,196.2,102.8,195.9z M105.6,199.7
			c-0.4,1.3-2.4,1.8-4.4,1.2c-2-0.7-3.3-2.3-2.9-3.5c0.2-0.6,0.8-1.1,1.6-1.3c0.3-0.1,0.7-0.1,1.1-0.1c0.6,0,1.1,0.1,1.7,0.3
			c1,0.3,1.8,0.9,2.4,1.6C105.6,198.4,105.8,199.1,105.6,199.7z"/>
		<path class="st20" d="M49.4,169c-1,0-1.7,0.3-2.2,0.9c-0.9,1.2-0.1,3.3,1.7,4.7c1,0.7,2.1,1.1,3,1.1c0.8,0,1.6-0.3,2-0.9
			c0.4-0.6,0.5-1.4,0.2-2.3c-0.3-0.9-1-1.7-1.9-2.4h0C51.3,169.4,50.3,169.1,49.4,169z M53.8,172.5c0.3,0.8,0.3,1.5-0.1,2.1
			c-0.8,1.1-2.9,1-4.6-0.3c-1.7-1.3-2.5-3.2-1.7-4.3c0.4-0.5,1-0.8,1.7-0.8c0.1,0,0.1,0,0.2,0c0.9,0,1.8,0.4,2.7,1h0
			C52.9,170.9,53.5,171.7,53.8,172.5z"/>
		<path class="st20" d="M101.1,209.1c0.9-1.2,0.1-3.3-1.7-4.7c-0.9-0.6-1.9-1-2.8-1.1c-1-0.1-1.7,0.3-2.2,0.9
			c-0.4,0.6-0.5,1.4-0.2,2.3c0.3,0.9,1,1.7,1.9,2.4c1,0.7,2.1,1.1,3,1.1C100,209.9,100.7,209.7,101.1,209.1z M96.3,208.6
			c-0.8-0.6-1.5-1.4-1.8-2.2c-0.3-0.8-0.3-1.5,0.1-2.1c0.4-0.5,1-0.8,1.7-0.8c0.1,0,0.1,0,0.2,0c0.9,0,1.8,0.4,2.7,1
			c1.7,1.2,2.5,3.2,1.7,4.3C100.1,210,98,209.9,96.3,208.6z"/>
		<path class="st20" d="M54.6,162.5c-0.6,0.4-0.9,1.2-0.9,2.2c0,0.9,0.4,1.9,1.1,2.8c0.6,0.9,1.5,1.6,2.4,1.9
			c0.4,0.1,0.8,0.2,1.1,0.2c0.5,0,0.9-0.1,1.2-0.4c1.2-0.9,1.1-3.1-0.2-5v0C57.9,162.4,55.8,161.6,54.6,162.5z M59,164.4
			c1.3,1.7,1.4,3.8,0.3,4.6c-0.5,0.4-1.3,0.4-2.1,0.1c-0.8-0.3-1.6-0.9-2.2-1.8c-0.6-0.8-1-1.8-1-2.7c0-0.9,0.2-1.5,0.8-1.9
			c0.3-0.2,0.7-0.3,1.1-0.3C56.8,162.4,58.1,163.2,59,164.4z"/>
		<path class="st20" d="M92.5,216.8c0.5,0,0.9-0.1,1.2-0.4c0.6-0.4,0.9-1.2,0.9-2.2c0-0.9-0.4-1.9-1.1-2.8c-1.3-1.9-3.4-2.6-4.7-1.7
			c-1.2,0.9-1.1,3.1,0.2,5C90.1,216,91.4,216.8,92.5,216.8z M89.3,214.5c-1.3-1.7-1.4-3.8-0.3-4.6c0.3-0.2,0.7-0.3,1.1-0.3
			c1,0,2.3,0.7,3.2,2c0.6,0.8,1,1.8,1,2.7c0,0.9-0.2,1.5-0.8,1.9C92.5,217,90.6,216.3,89.3,214.5z"/>
		<path class="st20" d="M66.1,158.3c-0.7-0.6-1.5-0.8-2.3-0.6c-0.7,0.2-1.2,0.9-1.5,1.8c-0.2,0.9-0.2,2,0.1,3c0.3,1,0.9,1.9,1.7,2.5
			c0.5,0.4,1.1,0.7,1.7,0.7c0.2,0,0.4,0,0.6-0.1c1.5-0.5,2.1-2.6,1.3-4.8C67.4,159.8,66.9,158.9,66.1,158.3z M66.3,165.4
			c-0.6,0.2-1.3,0-2-0.5c-0.7-0.5-1.2-1.4-1.6-2.4c-0.3-1-0.4-2-0.1-2.8c0.2-0.8,0.7-1.4,1.3-1.6c0.2-0.1,0.3-0.1,0.5-0.1
			c0.5,0,1,0.2,1.5,0.6c0.7,0.5,1.2,1.4,1.6,2.4C68.2,163,67.6,165,66.3,165.4z"/>
		<path class="st20" d="M83.9,221.3c0.2,0,0.4,0,0.6-0.1c1.5-0.5,2.1-2.6,1.3-4.8c-0.7-2.2-2.5-3.6-3.9-3.1
			c-1.5,0.5-2.1,2.6-1.3,4.8C81.2,220,82.6,221.3,83.9,221.3z M80.8,218c-0.7-2-0.1-4,1.2-4.4c0.2-0.1,0.3-0.1,0.5-0.1
			c1.2,0,2.5,1.2,3,3c0.7,2,0.1,4-1.2,4.4C83.1,221.3,81.5,220,80.8,218z"/>
		<path class="st20" d="M74.2,164.4c1.5,0,2.8-1.9,2.8-4.2s-1.2-4.2-2.8-4.2c-1.5,0-2.8,1.9-2.8,4.2S72.6,164.4,74.2,164.4z
			 M74.2,156.4c1.4,0,2.5,1.7,2.5,3.9s-1.1,3.9-2.5,3.9s-2.5-1.7-2.5-3.9S72.8,156.4,74.2,156.4z"/>
		<path class="st20" d="M74.2,214.5c-1.5,0-2.8,1.9-2.8,4.2s1.2,4.2,2.8,4.2c1.5,0,2.8-1.9,2.8-4.2S75.7,214.5,74.2,214.5z
			 M74.2,222.5c-1.4,0-2.5-1.7-2.5-3.9s1.1-3.9,2.5-3.9s2.5,1.7,2.5,3.9S75.5,222.5,74.2,222.5z"/>
		<path class="st20" d="M65.2,224.3c-1.5-0.4-3.1,1.1-3.7,3.3c-0.3,1.1-0.3,2.1,0,3c0.3,0.9,0.9,1.5,1.6,1.7c0.2,0,0.3,0.1,0.5,0.1
			c0.6,0,1.2-0.3,1.7-0.8c0.7-0.6,1.2-1.6,1.5-2.6C67.4,226.8,66.7,224.7,65.2,224.3z M66.6,228.9c-0.3,1-0.8,1.9-1.4,2.5
			c-0.6,0.6-1.3,0.8-2,0.6c-0.6-0.2-1.1-0.7-1.4-1.5c-0.3-0.8-0.3-1.8,0-2.9c0.5-1.9,1.7-3.2,3-3.2c0.1,0,0.3,0,0.4,0.1
			C66.5,224.9,67.1,226.9,66.6,228.9z"/>
		<path class="st20" d="M83.1,154.6c0.2,0,0.3,0.1,0.5,0.1c0.6,0,1.2-0.3,1.7-0.8c0.7-0.6,1.2-1.6,1.5-2.6c0.6-2.2-0.2-4.3-1.6-4.7
			c-0.7-0.2-1.5,0.1-2.2,0.7c-0.7,0.6-1.2,1.6-1.5,2.6c-0.3,1.1-0.3,2.1,0,3C81.8,153.9,82.4,154.5,83.1,154.6z M81.7,150
			c0.3-1,0.8-1.9,1.4-2.5c0.5-0.5,1-0.7,1.6-0.7c0.1,0,0.3,0,0.4,0.1c1.3,0.3,2,2.3,1.4,4.4c-0.3,1-0.8,1.9-1.4,2.5
			c-0.6,0.6-1.3,0.8-2,0.6c-0.6-0.2-1.1-0.7-1.4-1.5C81.5,152,81.5,151,81.7,150z"/>
		<path class="st20" d="M57.2,221.2c-0.7-0.4-1.5-0.3-2.3,0.2c-0.8,0.4-1.6,1.2-2.1,2.2c-0.5,1-0.8,2-0.7,2.9c0.1,1,0.5,1.7,1.2,2
			c0.3,0.2,0.6,0.2,0.9,0.2c1.2,0,2.6-1,3.5-2.6C58.7,224.1,58.5,221.9,57.2,221.2z M57.4,226c-1,1.9-2.8,2.9-4,2.2
			c-0.6-0.3-0.9-0.9-1-1.8c-0.1-0.9,0.2-1.9,0.6-2.8v0c0.5-0.9,1.2-1.7,2-2.1c0.4-0.2,0.9-0.4,1.2-0.4c0.3,0,0.6,0.1,0.8,0.2
			C58.2,222.1,58.4,224.1,57.4,226z"/>
		<path class="st20" d="M91.2,157.8c0.3,0.2,0.6,0.2,0.9,0.2c0.4,0,0.9-0.1,1.4-0.4c0.8-0.4,1.6-1.2,2.1-2.2c1.1-2,0.9-4.2-0.5-5
			c-1.3-0.7-3.3,0.3-4.4,2.4C89.6,154.8,89.8,157.1,91.2,157.8z M90.9,153c1-1.9,2.8-2.9,4-2.2c1.2,0.6,1.4,2.7,0.4,4.6
			c-0.5,0.9-1.2,1.7-2,2.1c-0.8,0.4-1.5,0.5-2.1,0.2C90.1,156.9,89.9,154.8,90.9,153z"/>
		<path class="st20" d="M47.8,215.8c-0.9,0.2-1.8,0.8-2.5,1.6c-1.5,1.7-1.9,3.9-0.7,4.9c0.4,0.3,0.9,0.5,1.4,0.5
			c1.1,0,2.4-0.6,3.4-1.7c0.7-0.8,1.2-1.8,1.4-2.7c0.1-0.9-0.1-1.7-0.6-2.2C49.5,215.7,48.7,215.6,47.8,215.8z M50.5,218.4
			c-0.1,0.9-0.6,1.8-1.3,2.5c-1.4,1.6-3.4,2.1-4.4,1.2c-1-0.9-0.7-2.9,0.7-4.5c0.7-0.8,1.5-1.3,2.4-1.5c0.8-0.2,1.5-0.1,2,0.3
			C50.4,216.9,50.6,217.6,50.5,218.4z"/>
		<path class="st20" d="M99.7,163.3c1.1,0,2.4-0.6,3.4-1.7c1.5-1.7,1.9-3.9,0.7-4.9c-1.1-1-3.3-0.5-4.8,1.2
			c-0.7,0.8-1.2,1.8-1.4,2.7c-0.1,0.9,0.1,1.7,0.6,2.2C98.6,163.1,99.1,163.3,99.7,163.3z M97.9,160.6c0.1-0.9,0.6-1.8,1.3-2.5
			c1.4-1.6,3.4-2.1,4.4-1.2c1,0.9,0.7,2.9-0.7,4.5c-1.4,1.6-3.4,2.1-4.4,1.2C97.9,162.1,97.7,161.4,97.9,160.6z"/>
		<path class="st20" d="M44.4,209.7c-0.4-0.6-1.2-1-2.1-0.9c-0.9,0-1.9,0.4-2.9,1c-0.9,0.6-1.6,1.4-2,2.3c-0.4,0.9-0.3,1.7,0.1,2.3
			c0.4,0.6,1.1,0.9,2.1,0.9c0,0,0,0,0.1,0c0.9,0,1.9-0.4,2.9-1c0.9-0.6,1.6-1.4,2-2.3C44.9,211.1,44.8,210.3,44.4,209.7z
			 M44.2,211.9c-0.3,0.8-1,1.6-1.9,2.2c-0.9,0.6-1.8,0.9-2.7,0.9c0,0,0,0-0.1,0c-0.8,0-1.5-0.3-1.8-0.8c-0.4-0.5-0.4-1.3-0.1-2.1
			c0.3-0.8,1-1.6,1.9-2.2c0.9-0.6,1.8-0.9,2.7-0.9c0,0,0,0,0.1,0c0.8,0,1.5,0.3,1.8,0.8C44.5,210.4,44.6,211.1,44.2,211.9z"/>
		<path class="st20" d="M103.8,166.9c-0.4,0.9-0.3,1.7,0.1,2.3c0.4,0.6,1.1,0.9,2.1,0.9c0,0,0,0,0.1,0c0.9,0,1.9-0.4,2.9-1
			c0.9-0.6,1.6-1.4,2-2.3c0.4-0.9,0.3-1.7-0.1-2.3c-0.4-0.6-1.2-1-2.1-0.9c-0.9,0-1.9,0.4-2.9,1
			C104.9,165.3,104.2,166.1,103.8,166.9z M108.7,163.9c0.9,0,1.5,0.3,1.9,0.8c0.4,0.5,0.4,1.3,0.1,2.1c-0.3,0.8-1,1.6-1.9,2.2
			c-0.9,0.6-1.8,0.9-2.7,0.9c0,0,0,0-0.1,0c-0.8,0-1.5-0.3-1.8-0.8c-0.4-0.5-0.4-1.3-0.1-2.1c0.3-0.8,1-1.6,1.9-2.2
			C106.8,164.3,107.8,164,108.7,163.9z"/>
		<path class="st20" d="M40,204.3c0.6-0.8,0.7-1.6,0.5-2.3c-0.5-1.4-2.7-1.9-4.9-1.1s-3.5,2.6-2.9,4c0.3,0.7,0.9,1.2,1.9,1.4
			c0.3,0.1,0.6,0.1,1,0.1c0.7,0,1.3-0.1,2-0.4C38.6,205.7,39.4,205,40,204.3z M34.6,206c-0.8-0.2-1.4-0.6-1.6-1.2
			c-0.5-1.3,0.8-2.9,2.8-3.7c2-0.7,4-0.3,4.5,1c0.2,0.6,0.1,1.3-0.4,2c-0.5,0.7-1.3,1.3-2.3,1.7C36.5,206.1,35.4,206.2,34.6,206z"/>
		<path class="st20" d="M107.9,176.9c0.3,0.7,0.9,1.2,1.9,1.4c0.3,0.1,0.6,0.1,1,0.1c0.7,0,1.3-0.1,2-0.4c1-0.4,1.9-1,2.5-1.8
			c0.6-0.8,0.7-1.6,0.5-2.3c-0.5-1.4-2.7-1.9-4.9-1.1C108.7,173.7,107.3,175.5,107.9,176.9z M115.4,174.1c0.2,0.6,0.1,1.3-0.4,2
			c-0.5,0.7-1.3,1.3-2.3,1.7c-1,0.4-2,0.5-2.8,0.3c-0.8-0.2-1.4-0.6-1.6-1.2c-0.5-1.3,0.8-2.9,2.8-3.7
			C112.9,172.4,114.9,172.9,115.4,174.1z"/>
		<path class="st20" d="M34.6,196.8c2.3-0.3,4-1.7,3.8-3.2c-0.2-1.5-2.2-2.5-4.4-2.3c-2.3,0.3-4,1.7-3.8,3.2
			c0.2,1.4,1.8,2.3,3.7,2.3C34.2,196.9,34.4,196.9,34.6,196.8z M30.5,194.5c-0.2-1.4,1.4-2.7,3.6-2.9c2.1-0.2,4,0.7,4.1,2
			c0.2,1.4-1.4,2.7-3.6,2.9C32.5,196.8,30.6,195.9,30.5,194.5z"/>
		<path class="st20" d="M113.7,182.1c-1.1,0.1-2.1,0.5-2.8,1.1c-0.7,0.6-1.1,1.4-1,2.1c0.1,0.7,0.6,1.4,1.5,1.8
			c0.6,0.3,1.4,0.5,2.3,0.5c0.2,0,0.5,0,0.7,0c1.1-0.1,2.1-0.5,2.8-1.1c0.7-0.6,1.1-1.4,1-2.1c-0.1-0.7-0.6-1.4-1.5-1.8
			C115.9,182.1,114.8,182,113.7,182.1z M117.9,184.4c0.1,0.6-0.2,1.3-0.9,1.8c-0.7,0.6-1.6,0.9-2.6,1.1c-1,0.1-2,0-2.8-0.4
			c-0.8-0.4-1.2-0.9-1.3-1.6c-0.1-0.6,0.2-1.3,0.9-1.8c0.7-0.6,1.6-0.9,2.6-1.1c1-0.1,2,0,2.8,0.4
			C117.3,183.2,117.8,183.8,117.9,184.4z"/>
		<path class="st20" d="M34,187.2c0.3,0,0.5,0.1,0.8,0.1c0.8,0,1.6-0.2,2.2-0.5c0.9-0.4,1.4-1.1,1.5-1.8c0.2-1.5-1.5-3-3.8-3.3
			c-2.3-0.3-4.3,0.7-4.5,2.2S31.7,186.9,34,187.2z M33.9,181.9c0.2,0,0.5,0,0.7,0c2.1,0.3,3.7,1.6,3.5,2.9c-0.1,0.6-0.5,1.2-1.3,1.6
			c-0.8,0.4-1.8,0.5-2.8,0.4c-2.1-0.3-3.7-1.6-3.5-2.9C30.7,182.8,32.1,181.9,33.9,181.9z"/>
		<path class="st20" d="M114.3,191.8c-1.1-0.1-2.2,0-3,0.4c-0.9,0.4-1.4,1.1-1.5,1.8s0.3,1.5,1,2.1c0.7,0.6,1.7,1,2.8,1.2
			c0.3,0,0.5,0.1,0.8,0.1c0.8,0,1.6-0.2,2.2-0.5c0.9-0.4,1.4-1.1,1.5-1.8c0.1-0.7-0.3-1.5-1-2.1
			C116.4,192.3,115.4,191.9,114.3,191.8z M116.5,196.6c-0.8,0.4-1.8,0.5-2.8,0.4c-1-0.1-2-0.5-2.6-1.1c-0.6-0.6-1-1.2-0.9-1.9
			c0.1-0.6,0.5-1.2,1.3-1.6c0.6-0.3,1.3-0.4,2.1-0.4c0.2,0,0.5,0,0.8,0c1,0.1,2,0.5,2.6,1.1c0.6,0.6,1,1.2,0.9,1.9
			C117.7,195.6,117.2,196.2,116.5,196.6z"/>
		<path class="st20" d="M35.7,177.7c0.7,0.3,1.4,0.4,2.1,0.4c1.3,0,2.4-0.5,2.8-1.5c0.3-0.7,0.1-1.5-0.4-2.3
			c-0.5-0.8-1.4-1.4-2.4-1.8c-2.1-0.8-4.3-0.3-4.9,1.1C32.3,175,33.6,176.9,35.7,177.7z M33.1,173.7c0.3-0.8,1.3-1.3,2.5-1.3
			c0.6,0,1.3,0.1,2,0.4c1,0.4,1.8,1,2.3,1.7c0.5,0.7,0.6,1.4,0.4,2c-0.5,1.3-2.5,1.7-4.5,0.9C33.8,176.6,32.6,175,33.1,173.7z"/>
		<path class="st20" d="M112.6,201.3c-1-0.4-2.1-0.5-3-0.3c-0.9,0.2-1.6,0.7-1.9,1.4c-0.5,1.4,0.7,3.3,2.9,4.1
			c0.7,0.3,1.4,0.4,2.1,0.4c0.3,0,0.6,0,0.9-0.1c0.9-0.2,1.6-0.7,1.9-1.4C116,203.9,114.7,202.1,112.6,201.3z M115.2,205.2
			c-0.2,0.6-0.8,1-1.7,1.2c-0.9,0.2-1.9,0.1-2.8-0.3c-2-0.8-3.2-2.4-2.7-3.7c0.2-0.6,0.8-1,1.7-1.2c0.3-0.1,0.6-0.1,0.9-0.1
			c0.6,0,1.3,0.1,2,0.4C114.5,202.3,115.7,204,115.2,205.2z"/>
		<path class="st20" d="M39.6,168.9c0.9,0.6,1.9,1,2.8,1c0,0,0.1,0,0.1,0c0.9,0,1.6-0.3,2-0.9c0.4-0.6,0.5-1.4,0.1-2.3
			c-0.3-0.9-1-1.7-1.9-2.3c-0.9-0.6-1.9-1-2.8-1c-1,0-1.7,0.3-2.1,0.9c-0.4,0.6-0.5,1.4-0.1,2.3C38.1,167.4,38.7,168.2,39.6,168.9z
			 M38.1,164.4c0.4-0.5,1-0.8,1.8-0.8c0,0,0.1,0,0.1,0c0.9,0,1.8,0.4,2.7,1c0.9,0.6,1.5,1.4,1.8,2.2c0.3,0.8,0.3,1.5-0.1,2.1
			c-0.4,0.5-1,0.8-1.9,0.8c-0.9,0-1.8-0.4-2.7-1c-0.9-0.6-1.5-1.4-1.8-2.2C37.7,165.6,37.7,164.9,38.1,164.4z"/>
		<path class="st20" d="M108.7,210.1c-0.9-0.6-1.9-1-2.8-1c0,0-0.1,0-0.1,0c-0.9,0-1.6,0.3-2,0.9c-0.9,1.3-0.1,3.3,1.8,4.6
			c0.9,0.6,1.9,1,2.8,1c0,0,0.1,0,0.1,0c0.9,0,1.6-0.3,2-0.9c0.4-0.6,0.5-1.4,0.1-2.3C110.3,211.5,109.6,210.7,108.7,210.1z
			 M110.3,214.6c-0.4,0.5-1.1,0.8-1.9,0.8c-0.9,0-1.8-0.4-2.7-1c-1.7-1.2-2.5-3.1-1.8-4.2c0.4-0.5,1-0.8,1.8-0.8c0,0,0.1,0,0.1,0
			c0.9,0,1.8,0.4,2.7,1c0.9,0.6,1.5,1.4,1.8,2.2C110.7,213.3,110.6,214,110.3,214.6z"/>
		<path class="st20" d="M45.6,161.2c0.7,0.8,1.6,1.4,2.5,1.7c0.3,0.1,0.6,0.1,0.9,0.1c0.6,0,1.1-0.2,1.4-0.5c1.1-1,0.8-3.2-0.7-4.9
			c-1.5-1.7-3.7-2.3-4.8-1.3c-0.6,0.5-0.8,1.3-0.7,2.2C44.4,159.4,44.8,160.4,45.6,161.2z M45.1,156.5c0.3-0.3,0.8-0.4,1.2-0.4
			c1,0,2.2,0.6,3.2,1.7c1.4,1.6,1.7,3.6,0.7,4.5c-0.5,0.4-1.2,0.5-2,0.3c-0.8-0.2-1.7-0.8-2.4-1.6c-0.7-0.8-1.1-1.7-1.3-2.6
			C44.4,157.6,44.6,156.9,45.1,156.5z"/>
		<path class="st20" d="M100.3,216.1c-0.9-0.3-1.7-0.1-2.3,0.4c-0.6,0.5-0.8,1.3-0.7,2.2c0.1,0.9,0.6,1.9,1.3,2.7
			c1,1.1,2.3,1.8,3.4,1.8c0.5,0,1-0.2,1.4-0.5c1.1-1,0.8-3.2-0.7-4.9C102,216.9,101.2,216.3,100.3,216.1z M103.3,222.5
			c-1,0.9-3,0.3-4.4-1.3c-0.7-0.8-1.1-1.7-1.3-2.6c-0.1-0.8,0.1-1.5,0.6-2c0.3-0.3,0.7-0.4,1.2-0.4c0.2,0,0.5,0,0.8,0.1
			c0.8,0.2,1.7,0.8,2.4,1.6C104,219.5,104.3,221.6,103.3,222.5z"/>
		<path class="st20" d="M56.6,157.8c0.3,0,0.6-0.1,0.9-0.2c0.7-0.3,1.1-1.1,1.2-2c0.1-0.9-0.1-2-0.6-2.9c-1.1-2-3-3.1-4.4-2.4
			c-1.4,0.7-1.6,2.9-0.5,5C54,156.8,55.4,157.8,56.6,157.8z M53.8,150.5c0.2-0.1,0.5-0.2,0.8-0.2c1.1,0,2.4,1,3.2,2.5
			c0.5,0.9,0.7,1.9,0.6,2.8c-0.1,0.8-0.4,1.5-1,1.8c-1.2,0.6-3-0.4-4-2.3S52.6,151.1,53.8,150.5z"/>
		<path class="st20" d="M93.2,221.5c-0.8-0.5-1.7-0.5-2.3-0.2c-1.4,0.7-1.6,2.9-0.5,5c0.8,1.6,2.2,2.6,3.5,2.6
			c0.3,0,0.6-0.1,0.9-0.2c1.4-0.7,1.6-2.9,0.5-5C94.7,222.8,94,222,93.2,221.5z M94.5,228.4c-1.2,0.6-3-0.4-4-2.3
			c-1-1.9-0.8-3.9,0.4-4.6c0.2-0.1,0.5-0.2,0.8-0.2c0.4,0,0.8,0.1,1.3,0.4c0.8,0.4,1.5,1.2,1.9,2.1
			C95.9,225.8,95.8,227.8,94.5,228.4z"/>
		<path class="st20" d="M65.1,154.6c0.2,0,0.3,0,0.4-0.1c0.7-0.2,1.3-0.8,1.6-1.7c0.3-0.9,0.3-2,0.1-3s-0.8-2-1.5-2.6
			c-0.7-0.7-1.5-0.9-2.2-0.7c-1.5,0.4-2.2,2.5-1.7,4.7C62.4,153.2,63.8,154.6,65.1,154.6z M63.7,146.8c0.1,0,0.3,0,0.4,0
			c0.5,0,1.1,0.2,1.6,0.7c0.6,0.6,1.1,1.5,1.4,2.5c0.2,1,0.2,2-0.1,2.9c-0.3,0.8-0.8,1.3-1.4,1.5c-1.3,0.3-2.8-1.1-3.3-3.2
			C61.7,149,62.4,147.1,63.7,146.8z"/>
		<path class="st20" d="M82.7,224.4c-1.5,0.4-2.2,2.5-1.7,4.7c0.3,1.1,0.8,2,1.5,2.6c0.6,0.5,1.2,0.8,1.8,0.8c0.2,0,0.3,0,0.5-0.1
			c1.5-0.4,2.2-2.5,1.7-4.7C85.9,225.6,84.2,224,82.7,224.4z M84.7,232.2c-0.6,0.2-1.3-0.1-1.9-0.7c-0.6-0.6-1.1-1.5-1.4-2.5
			c-0.5-2.1,0.2-4,1.5-4.3c0.1,0,0.3,0,0.4,0c1.2,0,2.5,1.3,2.9,3.2C86.6,229.9,86,231.9,84.7,232.2z"/>
		<path class="st20" d="M74.2,153.5c1.5,0,2.8-1.9,2.8-4.2s-1.2-4.2-2.8-4.2c-1.5,0-2.8,1.9-2.8,4.2S72.6,153.5,74.2,153.5z
			 M74.2,145.5c1.4,0,2.5,1.7,2.5,3.9s-1.1,3.9-2.5,3.9s-2.5-1.7-2.5-3.9S72.8,145.5,74.2,145.5z"/>
		<path class="st20" d="M74.2,225.4c-1.5,0-2.8,1.9-2.8,4.2c0,2.3,1.2,4.2,2.8,4.2c1.5,0,2.8-1.9,2.8-4.2
			C76.9,227.3,75.7,225.4,74.2,225.4z M74.2,233.5c-1.4,0-2.5-1.7-2.5-3.9c0-2.1,1.1-3.9,2.5-3.9s2.5,1.7,2.5,3.9
			C76.6,231.7,75.5,233.5,74.2,233.5z"/>
		<path class="st20" d="M74.1,192.9c1.8,0,3.3-1.5,3.3-3.3s-1.5-3.3-3.3-3.3c-1.8,0-3.3,1.5-3.3,3.3S72.3,192.9,74.1,192.9z
			 M74.1,186.5c1.7,0,3,1.4,3,3c0,1.7-1.4,3-3,3c-1.7,0-3-1.4-3-3C71.1,187.9,72.5,186.5,74.1,186.5z"/>
		<path class="st20" d="M68.1,190.3c-0.9-0.2-1.7-0.1-2.5,0.3c-1.6,0.9-2.1,2.9-1.2,4.5c0.4,0.8,1.2,1.3,2,1.5
			c0.3,0.1,0.6,0.1,0.9,0.1c0.6,0,1.1-0.2,1.7-0.4c0.8-0.4,1.3-1.2,1.5-2c0.2-0.9,0.1-1.7-0.3-2.5C69.7,191,69,190.5,68.1,190.3z
			 M70.2,194.2c-0.2,0.8-0.7,1.4-1.4,1.8c-0.7,0.4-1.5,0.5-2.3,0.3c-0.8-0.2-1.4-0.7-1.8-1.4c-0.8-1.4-0.3-3.3,1.1-4.1
			c0.5-0.3,1-0.4,1.5-0.4c0.3,0,0.5,0,0.8,0.1c0.8,0.2,1.4,0.7,1.8,1.4C70.3,192.7,70.4,193.5,70.2,194.2z"/>
		<path class="st20" d="M80.2,188.7c0.3,0.1,0.6,0.1,0.9,0.1c0.6,0,1.1-0.2,1.7-0.4c0.8-0.4,1.3-1.2,1.5-2c0.2-0.9,0.1-1.7-0.3-2.5
			c-0.9-1.6-2.9-2.1-4.5-1.2c-0.8,0.4-1.3,1.2-1.5,2c-0.2,0.9-0.1,1.7,0.3,2.5C78.6,187.9,79.4,188.5,80.2,188.7z M78.2,184.7
			c0.2-0.8,0.7-1.4,1.4-1.8c0.5-0.3,1-0.4,1.5-0.4c1,0,2.1,0.5,2.6,1.5c0.4,0.7,0.5,1.5,0.3,2.3c-0.2,0.8-0.7,1.4-1.4,1.8
			c-0.7,0.4-1.5,0.5-2.3,0.3c-0.8-0.2-1.4-0.7-1.8-1.4C78.1,186.3,77.9,185.5,78.2,184.7z"/>
		<path class="st20" d="M68.9,182.6c-1.6-0.9-3.6-0.4-4.5,1.2c-0.4,0.8-0.6,1.7-0.3,2.5c0.2,0.9,0.8,1.6,1.5,2
			c0.5,0.3,1.1,0.4,1.7,0.4c0.3,0,0.6,0,0.9-0.1c0.9-0.2,1.6-0.8,2-1.5c0.4-0.8,0.6-1.7,0.3-2.5C70.2,183.8,69.7,183.1,68.9,182.6z
			 M69.9,187c-0.4,0.7-1.1,1.2-1.8,1.4c-0.8,0.2-1.6,0.1-2.3-0.3c-0.7-0.4-1.2-1.1-1.4-1.8c-0.2-0.8-0.1-1.6,0.3-2.3
			c0.6-1,1.6-1.5,2.6-1.5c0.5,0,1,0.1,1.5,0.4c0.7,0.4,1.2,1.1,1.4,1.8C70.4,185.5,70.3,186.3,69.9,187z"/>
		<path class="st20" d="M79.4,196.3c0.5,0.3,1.1,0.4,1.7,0.4c0.3,0,0.6,0,0.9-0.1c0.9-0.2,1.6-0.8,2-1.5c0.9-1.6,0.4-3.6-1.2-4.5
			c-0.8-0.4-1.7-0.6-2.5-0.3c-0.9,0.2-1.6,0.8-2,1.5c-0.4,0.8-0.6,1.7-0.3,2.5C78.1,195.2,78.7,195.9,79.4,196.3z M78.5,192
			c0.4-0.7,1.1-1.2,1.8-1.4c0.3-0.1,0.5-0.1,0.8-0.1c0.5,0,1,0.1,1.5,0.4c1.4,0.8,1.9,2.7,1.1,4.1c-0.4,0.7-1.1,1.2-1.8,1.4
			c-0.8,0.2-1.6,0.1-2.3-0.3c-0.7-0.4-1.2-1.1-1.4-1.8C77.9,193.5,78.1,192.7,78.5,192z"/>
		<path class="st20" d="M70.9,181.5c0,1.8,1.5,3.3,3.3,3.3s3.3-1.5,3.3-3.3c0-1.8-1.5-3.3-3.3-3.3S70.9,179.7,70.9,181.5z
			 M77.2,181.5c0,1.7-1.4,3-3,3s-3-1.4-3-3c0-1.7,1.4-3,3-3S77.2,179.8,77.2,181.5z"/>
		<path class="st20" d="M74.2,194.1c-1.8,0-3.3,1.5-3.3,3.3c0,1.8,1.5,3.3,3.3,3.3s3.3-1.5,3.3-3.3C77.5,195.6,76,194.1,74.2,194.1z
			 M74.2,200.5c-1.7,0-3-1.4-3-3c0-1.7,1.4-3,3-3s3,1.4,3,3C77.2,199.1,75.8,200.5,74.2,200.5z"/>
		<path class="st20" d="M74.2,142.9c-25.7,0-46.5,20.9-46.5,46.5c0,25.7,20.9,46.5,46.5,46.5s46.5-20.9,46.5-46.5
			C120.7,163.8,99.8,142.9,74.2,142.9z M74.2,235.7c-25.5,0-46.2-20.7-46.2-46.2s20.7-46.2,46.2-46.2c25.5,0,46.2,20.7,46.2,46.2
			S99.7,235.7,74.2,235.7z"/>
		<path class="st20" d="M74.2,139.7c-27.5,0-49.8,22.3-49.8,49.8s22.3,49.8,49.8,49.8c27.5,0,49.8-22.3,49.8-49.8
			S101.6,139.7,74.2,139.7z M74.2,239c-27.3,0-49.5-22.2-49.5-49.5S46.9,140,74.2,140c27.3,0,49.5,22.2,49.5,49.5
			S101.5,239,74.2,239z"/>
		<polygon class="st20" points="163.5,302.4 161.6,301.2 160.1,304 158.6,301.2 156.6,302.3 158.3,305.1 155.1,304.9 155.1,307.2
			158.3,307 156.6,309.9 158.7,310.9 160.1,308.1 161.6,310.9 163.5,309.7 161.7,307.1 164.9,307.2 164.9,304.9 161.7,305.1 		"/>
		<path class="st20" d="M174.2,189.6h-19.9c-1.7,0-3.1,1.4-3.1,3.1V206c0,1.7,1.4,3.1,3.1,3.1h19.9c1.7,0,3.1-1.4,3.1-3.1v-13.3
			C177.2,191,175.8,189.6,174.2,189.6z M176.9,206c0,1.5-1.2,2.8-2.8,2.8h-19.9c-1.5,0-2.8-1.2-2.8-2.8v-13.3c0-1.5,1.2-2.8,2.8-2.8
			h19.9c1.5,0,2.8,1.2,2.8,2.8V206z"/>
		<path class="st20" d="M174.9,187.7h-21.5c-2.7,0-4.8,2.2-4.8,4.8v13.6c0,2.7,2.2,4.8,4.8,4.8h21.5c2.7,0,4.8-2.2,4.8-4.8v-13.6
			C179.8,189.9,177.6,187.7,174.9,187.7z M179.4,206.1c0,2.5-2,4.5-4.5,4.5h-21.5c-2.5,0-4.5-2-4.5-4.5v-13.6c0-2.5,2-4.5,4.5-4.5
			h21.5c2.5,0,4.5,2,4.5,4.5V206.1z"/>
		<path class="st20" d="M216.8,189.6h-19.9c-1.7,0-3.1,1.4-3.1,3.1V206c0,1.7,1.4,3.1,3.1,3.1h19.9c1.7,0,3.1-1.4,3.1-3.1v-13.3
			C219.8,191,218.4,189.6,216.8,189.6z M219.5,206c0,1.5-1.2,2.8-2.8,2.8h-19.9c-1.5,0-2.8-1.2-2.8-2.8v-13.3c0-1.5,1.2-2.8,2.8-2.8
			h19.9c1.5,0,2.8,1.2,2.8,2.8V206z"/>
		<path class="st20" d="M217.5,187.7h-21.5c-2.7,0-4.8,2.2-4.8,4.8v13.6c0,2.7,2.2,4.8,4.8,4.8h21.5c2.7,0,4.8-2.2,4.8-4.8v-13.6
			C222.4,189.9,220.2,187.7,217.5,187.7z M222,206.1c0,2.5-2,4.5-4.5,4.5h-21.5c-2.5,0-4.5-2-4.5-4.5v-13.6c0-2.5,2-4.5,4.5-4.5
			h21.5c2.5,0,4.5,2,4.5,4.5V206.1z"/>
		<path class="st20" d="M259.3,189.6h-19.9c-1.7,0-3.1,1.4-3.1,3.1V206c0,1.7,1.4,3.1,3.1,3.1h19.9c1.7,0,3.1-1.4,3.1-3.1v-13.3
			C262.4,191,261,189.6,259.3,189.6z M262.1,206c0,1.5-1.2,2.8-2.8,2.8h-19.9c-1.5,0-2.8-1.2-2.8-2.8v-13.3c0-1.5,1.2-2.8,2.8-2.8
			h19.9c1.5,0,2.8,1.2,2.8,2.8V206z"/>
		<path class="st20" d="M260.1,187.7h-21.5c-2.7,0-4.8,2.2-4.8,4.8v13.6c0,2.7,2.2,4.8,4.8,4.8h21.5c2.7,0,4.8-2.2,4.8-4.8v-13.6
			C265,189.9,262.8,187.7,260.1,187.7z M264.6,206.1c0,2.5-2,4.5-4.5,4.5h-21.5c-2.5,0-4.5-2-4.5-4.5v-13.6c0-2.5,2-4.5,4.5-4.5
			h21.5c2.5,0,4.5,2,4.5,4.5V206.1z"/>
		<path class="st20" d="M174.2,225.1h-19.9c-1.7,0-3.1,1.4-3.1,3.1v13.3c0,1.7,1.4,3.1,3.1,3.1h19.9c1.7,0,3.1-1.4,3.1-3.1v-13.3
			C177.2,226.5,175.8,225.1,174.2,225.1z M176.9,241.5c0,1.5-1.2,2.8-2.8,2.8h-19.9c-1.5,0-2.8-1.2-2.8-2.8v-13.3
			c0-1.5,1.2-2.8,2.8-2.8h19.9c1.5,0,2.8,1.2,2.8,2.8V241.5z"/>
		<path class="st20" d="M174.9,223.2h-21.5c-2.7,0-4.8,2.2-4.8,4.8v13.6c0,2.7,2.2,4.8,4.8,4.8h21.5c2.7,0,4.8-2.2,4.8-4.8v-13.6
			C179.8,225.4,177.6,223.2,174.9,223.2z M179.4,241.6c0,2.5-2,4.5-4.5,4.5h-21.5c-2.5,0-4.5-2-4.5-4.5v-13.6c0-2.5,2-4.5,4.5-4.5
			h21.5c2.5,0,4.5,2,4.5,4.5V241.6z"/>
		<path class="st20" d="M216.8,225.1h-19.9c-1.7,0-3.1,1.4-3.1,3.1v13.3c0,1.7,1.4,3.1,3.1,3.1h19.9c1.7,0,3.1-1.4,3.1-3.1v-13.3
			C219.8,226.5,218.4,225.1,216.8,225.1z M219.5,241.5c0,1.5-1.2,2.8-2.8,2.8h-19.9c-1.5,0-2.8-1.2-2.8-2.8v-13.3
			c0-1.5,1.2-2.8,2.8-2.8h19.9c1.5,0,2.8,1.2,2.8,2.8V241.5z"/>
		<path class="st20" d="M217.5,223.2h-21.5c-2.7,0-4.8,2.2-4.8,4.8v13.6c0,2.7,2.2,4.8,4.8,4.8h21.5c2.7,0,4.8-2.2,4.8-4.8v-13.6
			C222.4,225.4,220.2,223.2,217.5,223.2z M222,241.6c0,2.5-2,4.5-4.5,4.5h-21.5c-2.5,0-4.5-2-4.5-4.5v-13.6c0-2.5,2-4.5,4.5-4.5
			h21.5c2.5,0,4.5,2,4.5,4.5V241.6z"/>
		<path class="st20" d="M259.3,225.1h-19.9c-1.7,0-3.1,1.4-3.1,3.1v13.3c0,1.7,1.4,3.1,3.1,3.1h19.9c1.7,0,3.1-1.4,3.1-3.1v-13.3
			C262.4,226.5,261,225.1,259.3,225.1z M262.1,241.5c0,1.5-1.2,2.8-2.8,2.8h-19.9c-1.5,0-2.8-1.2-2.8-2.8v-13.3
			c0-1.5,1.2-2.8,2.8-2.8h19.9c1.5,0,2.8,1.2,2.8,2.8V241.5z"/>
		<path class="st20" d="M260.1,223.2h-21.5c-2.7,0-4.8,2.2-4.8,4.8v13.6c0,2.7,2.2,4.8,4.8,4.8h21.5c2.7,0,4.8-2.2,4.8-4.8v-13.6
			C265,225.4,262.8,223.2,260.1,223.2z M264.6,241.6c0,2.5-2,4.5-4.5,4.5h-21.5c-2.5,0-4.5-2-4.5-4.5v-13.6c0-2.5,2-4.5,4.5-4.5
			h21.5c2.5,0,4.5,2,4.5,4.5V241.6z"/>
		<path class="st20" d="M174.2,260.7h-19.9c-1.7,0-3.1,1.4-3.1,3.1v13.3c0,1.7,1.4,3.1,3.1,3.1h19.9c1.7,0,3.1-1.4,3.1-3.1v-13.3
			C177.2,262.1,175.8,260.7,174.2,260.7z M176.9,277.1c0,1.5-1.2,2.8-2.8,2.8h-19.9c-1.5,0-2.8-1.2-2.8-2.8v-13.3
			c0-1.5,1.2-2.8,2.8-2.8h19.9c1.5,0,2.8,1.2,2.8,2.8V277.1z"/>
		<path class="st20" d="M174.9,258.8h-21.5c-2.7,0-4.8,2.2-4.8,4.8v13.6c0,2.7,2.2,4.8,4.8,4.8h21.5c2.7,0,4.8-2.2,4.8-4.8v-13.6
			C179.8,261,177.6,258.8,174.9,258.8z M179.4,277.2c0,2.5-2,4.5-4.5,4.5h-21.5c-2.5,0-4.5-2-4.5-4.5v-13.6c0-2.5,2-4.5,4.5-4.5
			h21.5c2.5,0,4.5,2,4.5,4.5V277.2z"/>
		<path class="st20" d="M216.8,260.7h-19.9c-1.7,0-3.1,1.4-3.1,3.1v13.3c0,1.7,1.4,3.1,3.1,3.1h19.9c1.7,0,3.1-1.4,3.1-3.1v-13.3
			C219.8,262.1,218.4,260.7,216.8,260.7z M219.5,277.1c0,1.5-1.2,2.8-2.8,2.8h-19.9c-1.5,0-2.8-1.2-2.8-2.8v-13.3
			c0-1.5,1.2-2.8,2.8-2.8h19.9c1.5,0,2.8,1.2,2.8,2.8V277.1z"/>
		<path class="st20" d="M217.5,258.8h-21.5c-2.7,0-4.8,2.2-4.8,4.8v13.6c0,2.7,2.2,4.8,4.8,4.8h21.5c2.7,0,4.8-2.2,4.8-4.8v-13.6
			C222.4,261,220.2,258.8,217.5,258.8z M222,277.2c0,2.5-2,4.5-4.5,4.5h-21.5c-2.5,0-4.5-2-4.5-4.5v-13.6c0-2.5,2-4.5,4.5-4.5h21.5
			c2.5,0,4.5,2,4.5,4.5V277.2z"/>
		<path class="st20" d="M259.3,260.7h-19.9c-1.7,0-3.1,1.4-3.1,3.1v13.3c0,1.7,1.4,3.1,3.1,3.1h19.9c1.7,0,3.1-1.4,3.1-3.1v-13.3
			C262.4,262.1,261,260.7,259.3,260.7z M262.1,277.1c0,1.5-1.2,2.8-2.8,2.8h-19.9c-1.5,0-2.8-1.2-2.8-2.8v-13.3
			c0-1.5,1.2-2.8,2.8-2.8h19.9c1.5,0,2.8,1.2,2.8,2.8V277.1z"/>
		<path class="st20" d="M260.1,258.8h-21.5c-2.7,0-4.8,2.2-4.8,4.8v13.6c0,2.7,2.2,4.8,4.8,4.8h21.5c2.7,0,4.8-2.2,4.8-4.8v-13.6
			C265,261,262.8,258.8,260.1,258.8z M264.6,277.2c0,2.5-2,4.5-4.5,4.5h-21.5c-2.5,0-4.5-2-4.5-4.5v-13.6c0-2.5,2-4.5,4.5-4.5h21.5
			c2.5,0,4.5,2,4.5,4.5V277.2z"/>
		<path class="st20" d="M174.2,296.2h-19.9c-1.7,0-3.1,1.4-3.1,3.1v13.3c0,1.7,1.4,3.1,3.1,3.1h19.9c1.7,0,3.1-1.4,3.1-3.1v-13.3
			C177.2,297.6,175.8,296.2,174.2,296.2z M176.9,312.6c0,1.5-1.2,2.8-2.8,2.8h-19.9c-1.5,0-2.8-1.2-2.8-2.8v-13.3
			c0-1.5,1.2-2.8,2.8-2.8h19.9c1.5,0,2.8,1.2,2.8,2.8V312.6z"/>
		<path class="st20" d="M174.9,294.3h-21.5c-2.7,0-4.8,2.2-4.8,4.8v13.6c0,2.7,2.2,4.8,4.8,4.8h21.5c2.7,0,4.8-2.2,4.8-4.8v-13.6
			C179.8,296.5,177.6,294.3,174.9,294.3z M179.4,312.7c0,2.5-2,4.5-4.5,4.5h-21.5c-2.5,0-4.5-2-4.5-4.5v-13.6c0-2.5,2-4.5,4.5-4.5
			h21.5c2.5,0,4.5,2,4.5,4.5V312.7z"/>
		<path class="st20" d="M216.8,296.2h-19.9c-1.7,0-3.1,1.4-3.1,3.1v13.3c0,1.7,1.4,3.1,3.1,3.1h19.9c1.7,0,3.1-1.4,3.1-3.1v-13.3
			C219.8,297.6,218.4,296.2,216.8,296.2z M219.5,312.6c0,1.5-1.2,2.8-2.8,2.8h-19.9c-1.5,0-2.8-1.2-2.8-2.8v-13.3
			c0-1.5,1.2-2.8,2.8-2.8h19.9c1.5,0,2.8,1.2,2.8,2.8V312.6z"/>
		<path class="st20" d="M217.5,294.3h-21.5c-2.7,0-4.8,2.2-4.8,4.8v13.6c0,2.7,2.2,4.8,4.8,4.8h21.5c2.7,0,4.8-2.2,4.8-4.8v-13.6
			C222.4,296.5,220.2,294.3,217.5,294.3z M222,312.7c0,2.5-2,4.5-4.5,4.5h-21.5c-2.5,0-4.5-2-4.5-4.5v-13.6c0-2.5,2-4.5,4.5-4.5
			h21.5c2.5,0,4.5,2,4.5,4.5V312.7z"/>
		<path class="st20" d="M259.3,296.2h-19.9c-1.7,0-3.1,1.4-3.1,3.1v13.3c0,1.7,1.4,3.1,3.1,3.1h19.9c1.7,0,3.1-1.4,3.1-3.1v-13.3
			C262.4,297.6,261,296.2,259.3,296.2z M262.1,312.6c0,1.5-1.2,2.8-2.8,2.8h-19.9c-1.5,0-2.8-1.2-2.8-2.8v-13.3
			c0-1.5,1.2-2.8,2.8-2.8h19.9c1.5,0,2.8,1.2,2.8,2.8V312.6z"/>
		<path class="st20" d="M260.1,294.3h-21.5c-2.7,0-4.8,2.2-4.8,4.8v13.6c0,2.7,2.2,4.8,4.8,4.8h21.5c2.7,0,4.8-2.2,4.8-4.8v-13.6
			C265,296.5,262.8,294.3,260.1,294.3z M264.6,312.7c0,2.5-2,4.5-4.5,4.5h-21.5c-2.5,0-4.5-2-4.5-4.5v-13.6c0-2.5,2-4.5,4.5-4.5
			h21.5c2.5,0,4.5,2,4.5,4.5V312.7z"/>
		<path class="st20" d="M318.9,226.1c3.8,0,6.8-3.1,6.8-6.8s-3.1-6.8-6.8-6.8s-6.8,3.1-6.8,6.8S315.1,226.1,318.9,226.1z
			 M318.9,212.7c3.6,0,6.6,2.9,6.6,6.6s-2.9,6.6-6.6,6.6s-6.6-2.9-6.6-6.6S315.3,212.7,318.9,212.7z"/>
		<path class="st20" d="M339.2,219.3c0,3.8,3.1,6.8,6.8,6.8s6.8-3.1,6.8-6.8s-3.1-6.8-6.8-6.8S339.2,215.5,339.2,219.3z M346,212.7
			c3.6,0,6.6,2.9,6.6,6.6s-2.9,6.6-6.6,6.6s-6.6-2.9-6.6-6.6S342.4,212.7,346,212.7z"/>
		<path class="st20" d="M291.5,226.1c3.8,0,6.8-3.1,6.8-6.8s-3.1-6.8-6.8-6.8s-6.8,3.1-6.8,6.8S287.8,226.1,291.5,226.1z
			 M291.5,212.7c3.6,0,6.6,2.9,6.6,6.6s-2.9,6.6-6.6,6.6s-6.6-2.9-6.6-6.6S287.9,212.7,291.5,212.7z"/>
		<path class="st20" d="M318.9,199c3.8,0,6.8-3.1,6.8-6.8s-3.1-6.8-6.8-6.8s-6.8,3.1-6.8,6.8S315.1,199,318.9,199z M318.9,185.6
			c3.6,0,6.6,2.9,6.6,6.6s-2.9,6.6-6.6,6.6s-6.6-2.9-6.6-6.6S315.3,185.6,318.9,185.6z"/>
		<path class="st20" d="M318.9,239.6c-3.8,0-6.8,3.1-6.8,6.8s3.1,6.8,6.8,6.8s6.8-3.1,6.8-6.8S322.7,239.6,318.9,239.6z M318.9,253
			c-3.6,0-6.6-2.9-6.6-6.6s2.9-6.6,6.6-6.6s6.6,2.9,6.6,6.6S322.5,253,318.9,253z"/>
		<path class="st20" d="M318.9,227.9c4.8,0,8.6-3.9,8.6-8.6s-3.9-8.6-8.6-8.6c-4.8,0-8.6,3.9-8.6,8.6S314.1,227.9,318.9,227.9z
			 M318.9,210.9c4.6,0,8.3,3.7,8.3,8.3s-3.7,8.3-8.3,8.3s-8.3-3.7-8.3-8.3S314.3,210.9,318.9,210.9z"/>
		<path class="st20" d="M318.9,269.4c-3.8,0-6.8,3.1-6.8,6.8s3.1,6.8,6.8,6.8s6.8-3.1,6.8-6.8S322.7,269.4,318.9,269.4z
			 M318.9,282.8c-3.6,0-6.6-2.9-6.6-6.6s2.9-6.6,6.6-6.6s6.6,2.9,6.6,6.6S322.5,282.8,318.9,282.8z"/>
		<path class="st20" d="M318.9,232.5c7.3,0,13.3-6,13.3-13.3s-6-13.3-13.3-13.3s-13.3,6-13.3,13.3S311.6,232.5,318.9,232.5z
			 M318.9,206.3c7.2,0,13,5.8,13,13s-5.8,13-13,13c-7.2,0-13-5.8-13-13S311.7,206.3,318.9,206.3z"/>
		<path class="st20" d="M291.5,227.9c0.3,0,0.6,0,0.9-0.1c2.7,8.5,9.4,15.2,17.9,17.9c0,0.2,0,0.5,0,0.6c0,2.2,0.8,4.1,2.1,5.7
			l-0.1,0.1c1.7,2.6,2.7,6.2,2.7,9.4c-0.1,3.2-1.3,5.9-3.6,10.2l0.1,0.1c-0.8,1.3-1.2,2.8-1.2,4.4c0,4.8,3.9,8.6,8.6,8.6
			c4.8,0,8.6-3.9,8.6-8.6c0-2.1-0.7-3.9-1.9-5.4l0.1-0.1c-2.1-2.6-3-5.2-3.1-9.1c-0.1-3,1-6.7,3-9.7l-0.1,0c1.2-1.5,1.9-3.4,1.9-5.4
			c0-0.2,0-0.4,0-0.6c8.5-2.7,15.2-9.4,17.9-17.9c0.2,0,0.4,0,0.6,0c4.7,0,8.6-3.9,8.6-8.6s-3.9-8.6-8.6-8.6c-0.2,0-0.4,0-0.6,0
			c-2.7-8.5-9.4-15.2-17.9-17.9c0-0.2,0-0.4,0-0.6c0-4.8-3.9-8.6-8.6-8.6c-4.8,0-8.6,3.9-8.6,8.6c0,0.2,0,0.4,0,0.6
			c-8.5,2.7-15.2,9.4-17.9,17.9c-0.3,0-0.6-0.1-0.9-0.1c-4.8,0-8.6,3.9-8.6,8.6S286.8,227.9,291.5,227.9z M327.2,276.2
			c0,4.6-3.7,8.3-8.3,8.3s-8.3-3.7-8.3-8.3c0-4.6,3.7-8.3,8.3-8.3S327.2,271.6,327.2,276.2z M322.3,261.6c0.1,3.5,0.9,6,2.6,8.4
			c-1.6-1.5-3.7-2.4-6-2.4c-2.6,0-5,1.2-6.6,3.1c1.9-3.6,2.9-6.2,2.9-9.1c0.1-3-0.8-6.4-2.3-9c1.5,1.5,3.6,2.4,6,2.4
			c2.3,0,4.4-0.9,6-2.4C323.2,255.5,322.2,258.8,322.3,261.6z M291.5,210.9c0.3,0,0.6,0,0.9,0.1l0-0.1l0.1,0
			c2.7-8.5,9.4-15.2,17.9-17.9l0-0.1l0.1,0c0-0.2,0-0.5,0-0.7c0-4.6,3.7-8.3,8.3-8.3s8.3,3.7,8.3,8.3c0,0.2,0,0.5,0,0.7l0.1,0l0,0.1
			c8.5,2.7,15.2,9.4,17.9,17.9l0.1,0l0,0.1c0.2,0,0.5,0,0.7,0c4.6,0,8.3,3.7,8.3,8.3s-3.7,8.3-8.3,8.3c-0.3,0-0.5,0-0.7,0l0,0.1
			l-0.1,0c-2.7,8.5-9.4,15.2-17.9,17.9l0,0.1l-0.1,0c0,0.3,0,0.5,0,0.7c0,4.6-3.7,8.3-8.3,8.3s-8.3-3.7-8.3-8.3c0-0.2,0-0.4,0-0.7
			l-0.1,0l0-0.1c-8.5-2.7-15.2-9.4-17.9-17.9l-0.1,0l0-0.1c-0.3,0-0.6,0.1-0.9,0.1c-4.6,0-8.3-3.7-8.3-8.3S287,210.9,291.5,210.9z"
			/>
		<path class="st20" d="M293.6,211.2c3.7,0.9,6.3,4.2,6.3,8.1c0,3.8-2.6,7.1-6.3,8.1l0,0.1l-0.1,0c2.6,8.1,9,14.5,17.1,17.2l0-0.1
			l0.1,0c0.8-3.8,4.3-6.5,8.1-6.5c3.9,0,7.3,2.7,8.1,6.5l0.1,0l0,0.1c8.1-2.6,14.5-9,17.1-17.1l-0.1,0l0-0.1
			c-3.8-0.8-6.5-4.2-6.5-8.1s2.7-7.3,6.5-8.1l0-0.1l0.1,0c-2.6-8.1-9-14.5-17.1-17.1l0,0.1l-0.1,0c-0.8,3.8-4.2,6.5-8.1,6.5
			s-7.3-2.8-8.1-6.5l-0.1,0l0-0.1c-8.1,2.6-14.5,9.1-17.1,17.2l0.1,0L293.6,211.2z M310.5,194.2c0.9,3.8,4.4,6.6,8.4,6.6
			s7.5-2.8,8.4-6.6c7.9,2.6,14.1,8.9,16.7,16.7c-3.8,0.9-6.6,4.4-6.6,8.4s2.8,7.4,6.6,8.4c-2.6,7.9-8.9,14.1-16.7,16.7
			c-0.9-3.8-4.4-6.6-8.4-6.6c-3.9,0-7.4,2.8-8.4,6.6c-7.9-2.6-14.1-8.9-16.8-16.8c3.8-1,6.4-4.4,6.4-8.3c0-3.9-2.6-7.3-6.4-8.3
			C296.4,203.1,302.6,196.8,310.5,194.2z"/>
		<polygon class="st20" points="319,190.9 316.6,193.7 321.4,193.7 		"/>
		<polygon class="st20" points="293.2,217 290.3,219.4 293.2,221.9 		"/>
		<polygon class="st20" points="344.4,217 344.4,221.9 347.3,219.4 		"/>
		<polygon class="st20" points="319,247.9 321.4,245 316.6,245 		"/>
		<path class="st20" d="M349.7,306.6H288c-1.4,0-2.5,1.1-2.5,2.5v4.6c0,1.4,1.1,2.5,2.5,2.5h61.7c1.4,0,2.5-1.1,2.5-2.5v-4.6
			C352.2,307.7,351,306.6,349.7,306.6z M351.9,313.7c0,1.2-1,2.2-2.2,2.2H288c-1.2,0-2.2-1-2.2-2.2v-4.6c0-1.2,1-2.2,2.2-2.2h61.7
			c1.2,0,2.2,1,2.2,2.2V313.7z"/>
		<path class="st20" d="M350.4,303.9h-63.2c-2.7,0-4.9,2.2-4.9,4.9v5.3c0,2.7,2.2,4.9,4.9,4.9h63.2c2.7,0,4.9-2.2,4.9-4.9v-5.3
			C355.3,306.1,353.1,303.9,350.4,303.9z M354.9,314c0,2.5-2,4.5-4.5,4.5h-63.2c-2.5,0-4.5-2-4.5-4.5v-5.3c0-2.5,2-4.5,4.5-4.5h63.2
			c2.5,0,4.5,2,4.5,4.5V314z"/>
		<circle class="st20" cx="385.1" cy="194.2" r="9"/>
		<path class="st20" d="M385.1,205.4c6.1,0,11.1-5,11.1-11.1s-5-11.1-11.1-11.1c-6.1,0-11.1,5-11.1,11.1S379,205.4,385.1,205.4z
			 M385.1,183.5c5.9,0,10.7,4.8,10.7,10.7s-4.8,10.7-10.7,10.7c-5.9,0-10.7-4.8-10.7-10.7S379.2,183.5,385.1,183.5z"/>
		<circle class="st20" cx="385.1" cy="222.1" r="9"/>
		<path class="st20" d="M385.1,233.2c6.1,0,11.1-5,11.1-11.1c0-6.1-5-11.1-11.1-11.1c-6.1,0-11.1,5-11.1,11.1
			C374,228.2,379,233.2,385.1,233.2z M385.1,211.4c5.9,0,10.7,4.8,10.7,10.7s-4.8,10.7-10.7,10.7c-5.9,0-10.7-4.8-10.7-10.7
			S379.2,211.4,385.1,211.4z"/>
		<path class="st20" d="M379.5,256.4h11.1c2,0,3.6-1.6,3.6-3.6v-8.1c0-2-1.6-3.6-3.6-3.6h-11.1c-2,0-3.6,1.6-3.6,3.6v8.1
			C375.9,254.8,377.5,256.4,379.5,256.4z M376.1,244.7c0-1.8,1.5-3.4,3.4-3.4h11.1c1.8,0,3.4,1.5,3.4,3.4v8.1c0,1.8-1.5,3.4-3.4,3.4
			h-11.1c-1.8,0-3.4-1.5-3.4-3.4V244.7z"/>
		<path class="st20" d="M378.2,258.2h13.7c2.5,0,4.5-2,4.5-4.5v-10c0-2.5-2-4.5-4.5-4.5h-13.7c-2.5,0-4.5,2-4.5,4.5v10
			C373.7,256.2,375.7,258.2,378.2,258.2z M374,243.8c0-2.3,1.9-4.1,4.1-4.1h13.7c2.3,0,4.1,1.9,4.1,4.1v10c0,2.3-1.9,4.1-4.1,4.1
			h-13.7c-2.3,0-4.1-1.9-4.1-4.1V243.8z"/>
		<path class="st20" d="M379.5,284h11.1c2,0,3.6-1.6,3.6-3.6v-8.1c0-2-1.6-3.6-3.6-3.6h-11.1c-2,0-3.6,1.6-3.6,3.6v8.1
			C375.9,282.4,377.5,284,379.5,284z M376.1,272.3c0-1.8,1.5-3.4,3.4-3.4h11.1c1.8,0,3.4,1.5,3.4,3.4v8.1c0,1.8-1.5,3.4-3.4,3.4
			h-11.1c-1.8,0-3.4-1.5-3.4-3.4V272.3z"/>
		<path class="st20" d="M378.2,285.9h13.7c2.5,0,4.5-2,4.5-4.5v-10c0-2.5-2-4.5-4.5-4.5h-13.7c-2.5,0-4.5,2-4.5,4.5v10
			C373.7,283.8,375.7,285.9,378.2,285.9z M374,271.4c0-2.3,1.9-4.1,4.1-4.1h13.7c2.3,0,4.1,1.9,4.1,4.1v10c0,2.3-1.9,4.1-4.1,4.1
			h-13.7c-2.3,0-4.1-1.9-4.1-4.1V271.4z"/>
		<path class="st20" d="M390.1,296.4h-10.2c-2.3,0-4.1,1.8-4.1,4.1v11.3c0,2.3,1.8,4.1,4.1,4.1h10.2c2.3,0,4.1-1.8,4.1-4.1v-11.3
			C394.2,298.2,392.4,296.4,390.1,296.4z M393.9,311.7c0,2.1-1.7,3.8-3.8,3.8h-10.2c-2.1,0-3.8-1.7-3.8-3.8v-11.3
			c0-2.1,1.7-3.8,3.8-3.8h10.2c2.1,0,3.8,1.7,3.8,3.8V311.7z"/>
		<path class="st20" d="M391.3,294.1h-12.6c-2.8,0-5.1,2.3-5.1,5.1v13.9c0,2.8,2.3,5.1,5.1,5.1h12.6c2.8,0,5.1-2.3,5.1-5.1v-13.9
			C396.4,296.3,394.1,294.1,391.3,294.1z M396,313.1c0,2.6-2.1,4.7-4.7,4.7h-12.6c-2.6,0-4.7-2.1-4.7-4.7v-13.9
			c0-2.6,2.1-4.7,4.7-4.7h12.6c2.6,0,4.7,2.1,4.7,4.7V313.1z"/>
	</g>
</g>
<g id="buttons">
	<g>
		<circle id="bgnumber_7_" class="st21" cx="327.9" cy="77" r="7.1"/>
		<text transform="matrix(1 0 0 1 323.2928 80.9072)" class="st22 st23 st24 button" data-number="14">15</text>
	</g>
	<g>
		<circle id="bgnumber_6_" class="st21" cx="252.9" cy="97.1" r="7.1"/>
		<text transform="matrix(1 0 0 1 248.2031 100.6199)" class="st22 st23 st24 button" data-number="13">13</text>
	</g>
	<g>
		<circle id="bgnumber_5_" class="st21" cx="252.9" cy="57" r="7.1"/>
		<text transform="matrix(1 0 0 1 249.0029 60.4818)" class="st22 st23 st24 button" data-number="10">11</text>
	</g>
	<g>
		<circle id="bgnumber_4_" class="st21" cx="312" cy="57" r="7.1"/>
		<text transform="matrix(1 0 0 1 306.2373 60.458)" class="st22 st23 st24 button" data-number="8">09</text>
	</g>
	<g>
		<circle id="bgnumber_3_" class="st21" cx="237.1" cy="77" r="7.1"/>
		<text transform="matrix(1 0 0 1 231.7603 80.5519)" class="st22 st23 st24 button" data-number="6">07</text>
	</g>
	<g>
		<circle id="bgnumber_2_" class="st21" cx="296.2" cy="77" r="7.1"/>
		<text transform="matrix(1 0 0 1 290.5771 80.5282)" class="st22 st23 st24 button" data-number="4">05</text>
	</g>
	<g>
		<circle id="bgnumber_1_" class="st21" cx="221.4" cy="97.1" r="7.1"/>
		<text transform="matrix(1 0 0 1 215.7119 100.5222)" class="st22 st23 st24 button" data-number="2">03</text>
	</g>
	<g>
		<circle id="bgnumber" class="st21" cx="221.4" cy="57" r="7.1"/>
		<text transform="matrix(1 0 0 1 216.484 60.4628)" class="st22 st23 st24 button" data-number="0">01</text>
	</g>
	<g>
		<circle id="bgnumber_17_" class="st21" cx="327.9" cy="57" r="7.1"/>
		<text transform="matrix(1 0 0 1 323.0627 60.5844)" class="st22 st23 st24 button" data-number="13">14</text>
	</g>
	<g>
		<circle id="bgnumber_16_" class="st21" cx="252.9" cy="77" r="7.1"/>
		<text transform="matrix(1 0 0 1 248.3476 80.4996)" class="st22 st23 st24 button" data-number="11">12</text>
	</g>
	<g>
		<circle id="bgnumber_15_" class="st21" cx="312" cy="77" r="7.1"/>
		<text transform="matrix(1 0 0 1 307.123 80.4758)" class="st22 st23 st24 button" data-number="9">10</text>
	</g>
	<g>
		<circle id="bgnumber_14_" class="st21" cx="237.1" cy="97.1" r="7.1"/>
		<text transform="matrix(1 0 0 1 231.2607 100.5698)" class="st22 st23 st24 button" data-number="7">08</text>
	</g>
	<g>
		<circle id="bgnumber_13_" class="st21" cx="237.1" cy="57" r="7.1"/>
		<text transform="matrix(1 0 0 1 231.301 60.5104)" class="st22 st23 st24 button" data-number="5">06</text>
	</g>
	<g>
		<circle id="bgnumber_12_" class="st21" cx="296.2" cy="57" r="7.1"/>
		<text transform="matrix(1 0 0 1 290.3471 60.4866)" class="st22 st23 st24 button" data-number="3">04</text>
	</g>
	<g>
		<circle id="bgnumber_11_" class="st21" cx="221.4" cy="77.2" r="7.1"/>
		<text transform="matrix(1 0 0 1 215.8569 80.2939)" class="st22 st23 st24 button" data-number="1">02</text>
	</g>
</g>
</svg>
