<?xml version="1.0" encoding="utf-8"?>
<!-- Generator: Adobe Illustrator 21.0.1, SVG Export Plug-In . SVG Version: 6.00 Build 0)  -->
<!DOCTYPE svg PUBLIC "-//W3C//DTD SVG 1.1//EN" "http://www.w3.org/Graphics/SVG/1.1/DTD/svg11.dtd">
<svg version="1.1" xmlns="http://www.w3.org/2000/svg" xmlns:xlink="http://www.w3.org/1999/xlink" x="0px" y="0px"
	 viewBox="0 0 320 531" style="enable-background:new 0 0 320 531;" xml:space="preserve">
<style type="text/css">
	.button{cursor: pointer}
	.st0{fill:#B3B2B2;}
	.st1{fill:#FFFFFF;}
	.st2{fill:#29AEE4;}
	.st3{font-family:'BrixSansRegular';}
	.st4{font-size:10px;}
</style>
<g id="Ebene_3">
	<g>
		<path class="st0" d="M177.1,47.8c3.8-1.8,3.6,0.8,3.6,0.8l-0.3,6.3h3.2l0.4-6.7c0,0,0.4-3.4-2.6-3.7c-2.9-0.3-4.3,1.4-4.3,1.4
			l0.1-1.2H174l-0.6,10.2h3.2L177.1,47.8z"/>
		<polygon class="st0" points="188.3,51.3 189.4,50.1 191.6,54.9 194.5,54.9 191.3,48.6 195.6,44.3 192.6,44.3 188.5,48.3
			188.8,41.1 186,41.1 185.3,54.9 188.1,54.9 		"/>
		<path class="st0" d="M154.3,55.5c1.7-0.1,2.6-0.6,3.3-1.5l-0.1,1.1h2.4l0.8-10.4l-2.5,0l-0.1,1.3c-0.7-0.9-1.9-1.8-4.2-1.5
			c-4.1,0.6-5.6,5.1-4.7,7.7C150.1,54.7,152.5,55.7,154.3,55.5z M154.6,46.9c1.7,0,2.9,1.4,2.8,3.1c-0.1,1.7-1.5,3.1-3.2,3.1
			c-1.7,0-2.9-1.4-2.8-3.1C151.5,48.3,153,46.9,154.6,46.9z"/>
		<path class="st0" d="M136.3,49.7c0,3.2,2.6,5.9,5.9,5.9c2.3,0,4.2-1.3,5.2-3.1h-2.8c-0.6,0.6-1.4,0.9-2.4,0.9
			c-1.6,0-2.9-1-3.4-2.4h6.7l0,0h2.4c0.1-0.4,0.1-0.8,0.1-1.2c0-3.2-2.6-5.9-5.9-5.9S136.3,46.5,136.3,49.7z M142.2,46.3
			c1.7,0,3.1,1.2,3.5,2.8h-6.9C139.1,47.5,140.5,46.3,142.2,46.3z"/>
		<polygon class="st0" points="165.8,40.8 162.5,40.8 161.7,55 165,55 		"/>
		<polygon class="st0" points="171.6,40.8 168.4,40.8 168.2,43.3 171.5,43.3 		"/>
		<polygon class="st0" points="130.2,55.1 133.4,55.1 133.7,49.4 133.7,49.4 139.5,41.5 136.1,41.5 132.2,47 132.2,46.9 128.7,41.5
			125.3,41.5 130.5,49.4 		"/>
		<polygon class="st0" points="171.4,44.8 168.2,44.8 167.6,55 170.9,55 		"/>
		<path class="st0" d="M307.9,102.3h-2.6V12.1c0-6.6-5.4-12.1-12.1-12.1H27c-6.6,0-12.1,5.4-12.1,12.1v90.2h-2.9
			c-6.6,0-12.1,5.4-12.1,12.1V519c0,6.6,5.4,12.1,12.1,12.1h295.9c6.6,0,12.1-5.4,12.1-12.1V114.3
			C320,107.7,314.6,102.3,307.9,102.3z M14.9,151.4H2.5v-12.2h12.4V151.4z M14.9,151.7v212c0,6.6,5.4,12.1,12.1,12.1h266.3
			c6.6,0,12.1-5.4,12.1-12.1v-212h12.1v346.5H2.5V151.7H14.9z M317.5,151.4h-12.1v-12.2h12.1V151.4z M307.9,104.8
			c5.2,0,9.5,4.3,9.5,9.5v24.6h-12.1v-34.1H307.9z M17.5,12.1c0-5.2,4.3-9.5,9.5-9.5h266.3c5.2,0,9.5,4.3,9.5,9.5v351.7
			c0,5.2-4.3,9.5-9.5,9.5H27c-5.2,0-9.5-4.3-9.5-9.5V12.1z M12.1,104.8h2.9v34.1H2.5v-24.5C2.5,109.1,6.8,104.8,12.1,104.8z
			 M307.9,528.5H12.1c-5.2,0-9.5-4.3-9.5-9.5v-20.5h314.9V519C317.5,524.2,313.2,528.5,307.9,528.5z"/>
		<path class="st0" d="M219,68.3H101.2v261.5H219V68.3z M218.7,329.5H101.5V68.6h117.2V329.5z"/>
		<path class="st0" d="M40.3,88.5h17.5c3.7,0,6.8-3,6.8-6.8c0-3.7-3-6.8-6.8-6.8H40.3c-3.7,0-6.8,3-6.8,6.8
			C33.5,85.4,36.5,88.5,40.3,88.5z M40.3,76.2h17.5c2.5,0,4.7,1.7,5.3,4.1c-0.4-0.6-1.2-1-2-1h-3.8c-1.3,0-2.4,1.1-2.4,2.4
			c0,1.3,1.1,2.4,2.4,2.4h3.8c0.8,0,1.5-0.4,2-1c-0.6,2.3-2.7,4.1-5.3,4.1H40.3c-3,0-5.5-2.5-5.5-5.5S37.2,76.2,40.3,76.2z
			 M62.2,81.7c0,0.6-0.5,1.2-1.2,1.2h-3.8c-0.6,0-1.2-0.5-1.2-1.2c0-0.6,0.5-1.2,1.2-1.2h3.8C61.7,80.5,62.2,81.1,62.2,81.7z"/>
		<rect x="72.7" y="81.1" class="st0" width="22.8" height="1.3"/>
		<path class="st0" d="M40.3,113.3h17.5c3.7,0,6.8-3,6.8-6.8c0-3.7-3-6.8-6.8-6.8H40.3c-3.7,0-6.8,3-6.8,6.8
			C33.5,110.3,36.5,113.3,40.3,113.3z M40.3,101.1h17.5c2.5,0,4.7,1.7,5.3,4.1c-0.4-0.6-1.2-1-2-1h-3.8c-1.3,0-2.4,1.1-2.4,2.4
			c0,1.3,1.1,2.4,2.4,2.4h3.8c0.8,0,1.5-0.4,2-1c-0.6,2.3-2.7,4.1-5.3,4.1H40.3c-3,0-5.5-2.5-5.5-5.5S37.2,101.1,40.3,101.1z
			 M62.2,106.5c0,0.6-0.5,1.2-1.2,1.2h-3.8c-0.6,0-1.2-0.5-1.2-1.2c0-0.6,0.5-1.2,1.2-1.2h3.8C61.7,105.4,62.2,105.9,62.2,106.5z"/>
		<rect x="72.7" y="105.9" class="st0" width="22.8" height="1.3"/>
		<path class="st0" d="M40.3,138.1h17.5c3.7,0,6.8-3,6.8-6.8s-3-6.8-6.8-6.8H40.3c-3.7,0-6.8,3-6.8,6.8S36.5,138.1,40.3,138.1z
			 M40.3,125.9h17.5c2.5,0,4.7,1.7,5.3,4.1c-0.4-0.6-1.2-1-2-1h-3.8c-1.3,0-2.4,1.1-2.4,2.4c0,1.3,1.1,2.4,2.4,2.4h3.8
			c0.8,0,1.5-0.4,2-1c-0.6,2.3-2.7,4.1-5.3,4.1H40.3c-3,0-5.5-2.5-5.5-5.5S37.2,125.9,40.3,125.9z M62.2,131.4
			c0,0.6-0.5,1.2-1.2,1.2h-3.8c-0.6,0-1.2-0.5-1.2-1.2s0.5-1.2,1.2-1.2h3.8C61.7,130.2,62.2,130.7,62.2,131.4z"/>
		<rect x="72.7" y="130.8" class="st0" width="22.8" height="1.3"/>
		<path class="st0" d="M40.3,163h17.5c3.7,0,6.8-3,6.8-6.8c0-3.7-3-6.8-6.8-6.8H40.3c-3.7,0-6.8,3-6.8,6.8
			C33.5,160,36.5,163,40.3,163z M40.3,150.7h17.5c2.5,0,4.7,1.7,5.3,4.1c-0.4-0.6-1.2-1-2-1h-3.8c-1.3,0-2.4,1.1-2.4,2.4
			c0,1.3,1.1,2.4,2.4,2.4h3.8c0.8,0,1.5-0.4,2-1c-0.6,2.3-2.7,4.1-5.3,4.1H40.3c-3,0-5.5-2.5-5.5-5.5S37.2,150.7,40.3,150.7z
			 M62.2,156.2c0,0.6-0.5,1.2-1.2,1.2h-3.8c-0.6,0-1.2-0.5-1.2-1.2c0-0.6,0.5-1.2,1.2-1.2h3.8C61.7,155.1,62.2,155.6,62.2,156.2z"/>
		<rect x="72.7" y="155.6" class="st0" width="22.8" height="1.3"/>
		<path class="st0" d="M40.3,187.8h17.5c3.7,0,6.8-3,6.8-6.8c0-3.7-3-6.8-6.8-6.8H40.3c-3.7,0-6.8,3-6.8,6.8
			C33.5,184.8,36.5,187.8,40.3,187.8z M40.3,175.6h17.5c2.5,0,4.7,1.7,5.3,4.1c-0.4-0.6-1.2-1-2-1h-3.8c-1.3,0-2.4,1.1-2.4,2.4
			c0,1.3,1.1,2.4,2.4,2.4h3.8c0.8,0,1.5-0.4,2-1c-0.6,2.3-2.7,4.1-5.3,4.1H40.3c-3,0-5.5-2.5-5.5-5.5S37.2,175.6,40.3,175.6z
			 M62.2,181.1c0,0.6-0.5,1.2-1.2,1.2h-3.8c-0.6,0-1.2-0.5-1.2-1.2c0-0.6,0.5-1.2,1.2-1.2h3.8C61.7,179.9,62.2,180.4,62.2,181.1z"/>
		<rect x="72.7" y="180.4" class="st0" width="22.8" height="1.3"/>
		<path class="st0" d="M40.3,212.7h17.5c3.7,0,6.8-3,6.8-6.8s-3-6.8-6.8-6.8H40.3c-3.7,0-6.8,3-6.8,6.8S36.5,212.7,40.3,212.7z
			 M40.3,200.4h17.5c2.5,0,4.7,1.7,5.3,4.1c-0.4-0.6-1.2-1-2-1h-3.8c-1.3,0-2.4,1.1-2.4,2.4s1.1,2.4,2.4,2.4h3.8c0.8,0,1.5-0.4,2-1
			c-0.6,2.3-2.7,4.1-5.3,4.1H40.3c-3,0-5.5-2.5-5.5-5.5S37.2,200.4,40.3,200.4z M62.2,205.9c0,0.6-0.5,1.2-1.2,1.2h-3.8
			c-0.6,0-1.2-0.5-1.2-1.2s0.5-1.2,1.2-1.2h3.8C61.7,204.7,62.2,205.3,62.2,205.9z"/>
		<rect x="72.7" y="205.3" class="st0" width="22.8" height="1.3"/>
		<path class="st0" d="M40.3,237.5h17.5c3.7,0,6.8-3,6.8-6.8s-3-6.8-6.8-6.8H40.3c-3.7,0-6.8,3-6.8,6.8S36.5,237.5,40.3,237.5z
			 M40.3,225.3h17.5c2.5,0,4.7,1.7,5.3,4.1c-0.4-0.6-1.2-1-2-1h-3.8c-1.3,0-2.4,1.1-2.4,2.4c0,1.3,1.1,2.4,2.4,2.4h3.8
			c0.8,0,1.5-0.4,2-1c-0.6,2.3-2.7,4.1-5.3,4.1H40.3c-3,0-5.5-2.5-5.5-5.5S37.2,225.3,40.3,225.3z M62.2,230.7
			c0,0.6-0.5,1.2-1.2,1.2h-3.8c-0.6,0-1.2-0.5-1.2-1.2s0.5-1.2,1.2-1.2h3.8C61.7,229.6,62.2,230.1,62.2,230.7z"/>
		<rect x="72.7" y="230.1" class="st0" width="22.8" height="1.3"/>
		<path class="st0" d="M40.3,262.3h17.5c3.7,0,6.8-3,6.8-6.8s-3-6.8-6.8-6.8H40.3c-3.7,0-6.8,3-6.8,6.8S36.5,262.3,40.3,262.3z
			 M40.3,250.1h17.5c2.5,0,4.7,1.7,5.3,4.1c-0.4-0.6-1.2-1-2-1h-3.8c-1.3,0-2.4,1.1-2.4,2.4c0,1.3,1.1,2.4,2.4,2.4h3.8
			c0.8,0,1.5-0.4,2-1c-0.6,2.3-2.7,4.1-5.3,4.1H40.3c-3,0-5.5-2.5-5.5-5.5C34.8,252.6,37.2,250.1,40.3,250.1z M62.2,255.6
			c0,0.6-0.5,1.2-1.2,1.2h-3.8c-0.6,0-1.2-0.5-1.2-1.2c0-0.6,0.5-1.2,1.2-1.2h3.8C61.7,254.4,62.2,254.9,62.2,255.6z"/>
		<rect x="72.7" y="255" class="st0" width="22.8" height="1.3"/>
		<path class="st0" d="M40.3,287.2h17.5c3.7,0,6.8-3,6.8-6.8c0-3.7-3-6.8-6.8-6.8H40.3c-3.7,0-6.8,3-6.8,6.8
			C33.5,284.2,36.5,287.2,40.3,287.2z M40.3,274.9h17.5c2.5,0,4.7,1.7,5.3,4.1c-0.4-0.6-1.2-1-2-1h-3.8c-1.3,0-2.4,1.1-2.4,2.4
			c0,1.3,1.1,2.4,2.4,2.4h3.8c0.8,0,1.5-0.4,2-1c-0.6,2.3-2.7,4.1-5.3,4.1H40.3c-3,0-5.5-2.5-5.5-5.5S37.2,274.9,40.3,274.9z
			 M62.2,280.4c0,0.6-0.5,1.2-1.2,1.2h-3.8c-0.6,0-1.2-0.5-1.2-1.2s0.5-1.2,1.2-1.2h3.8C61.7,279.3,62.2,279.8,62.2,280.4z"/>
		<rect x="72.7" y="279.8" class="st0" width="22.8" height="1.3"/>
		<path class="st0" d="M40.3,312h17.5c3.7,0,6.8-3,6.8-6.8c0-3.7-3-6.8-6.8-6.8H40.3c-3.7,0-6.8,3-6.8,6.8
			C33.5,309,36.5,312,40.3,312z M40.3,299.8h17.5c2.5,0,4.7,1.7,5.3,4.1c-0.4-0.6-1.2-1-2-1h-3.8c-1.3,0-2.4,1.1-2.4,2.4
			c0,1.3,1.1,2.4,2.4,2.4h3.8c0.8,0,1.5-0.4,2-1c-0.6,2.3-2.7,4.1-5.3,4.1H40.3c-3,0-5.5-2.5-5.5-5.5S37.2,299.8,40.3,299.8z
			 M62.2,305.3c0,0.6-0.5,1.2-1.2,1.2h-3.8c-0.6,0-1.2-0.5-1.2-1.2s0.5-1.2,1.2-1.2h3.8C61.7,304.1,62.2,304.6,62.2,305.3z"/>
		<rect x="72.7" y="304.6" class="st0" width="22.8" height="1.3"/>
		<path class="st0" d="M262.9,324.4h17.5c3.7,0,6.8-3,6.8-6.8c0-3.7-3-6.8-6.8-6.8h-17.5c-3.7,0-6.8,3-6.8,6.8
			C256.1,321.4,259.1,324.4,262.9,324.4z M262.9,312.2h17.5c3,0,5.5,2.5,5.5,5.5s-2.5,5.5-5.5,5.5h-17.5c-2.5,0-4.7-1.7-5.3-4.1
			c0.4,0.6,1.2,1,2,1h3.8c1.3,0,2.4-1.1,2.4-2.4c0-1.3-1.1-2.4-2.4-2.4h-3.8c-0.8,0-1.5,0.4-2,1C258.2,314,260.3,312.2,262.9,312.2z
			 M258.4,317.7c0-0.6,0.5-1.2,1.2-1.2h3.8c0.6,0,1.2,0.5,1.2,1.2s-0.5,1.2-1.2,1.2h-3.8C258.9,318.9,258.4,318.3,258.4,317.7z"/>
		<rect x="225.2" y="317.1" class="st0" width="22.8" height="1.3"/>
		<path class="st0" d="M262.9,299.6h17.5c3.7,0,6.8-3,6.8-6.8c0-3.7-3-6.8-6.8-6.8h-17.5c-3.7,0-6.8,3-6.8,6.8
			C256.1,296.6,259.1,299.6,262.9,299.6z M262.9,287.4h17.5c3,0,5.5,2.5,5.5,5.5s-2.5,5.5-5.5,5.5h-17.5c-2.5,0-4.7-1.7-5.3-4.1
			c0.4,0.6,1.2,1,2,1h3.8c1.3,0,2.4-1.1,2.4-2.4c0-1.3-1.1-2.4-2.4-2.4h-3.8c-0.8,0-1.5,0.4-2,1
			C258.2,289.1,260.3,287.4,262.9,287.4z M258.4,292.9c0-0.6,0.5-1.2,1.2-1.2h3.8c0.6,0,1.2,0.5,1.2,1.2s-0.5,1.2-1.2,1.2h-3.8
			C258.9,294,258.4,293.5,258.4,292.9z"/>
		<rect x="225.2" y="292.2" class="st0" width="22.8" height="1.3"/>
		<path class="st0" d="M262.9,274.8h17.5c3.7,0,6.8-3,6.8-6.8c0-3.7-3-6.8-6.8-6.8h-17.5c-3.7,0-6.8,3-6.8,6.8
			C256.1,271.7,259.1,274.8,262.9,274.8z M262.9,262.5h17.5c3,0,5.5,2.5,5.5,5.5s-2.5,5.5-5.5,5.5h-17.5c-2.5,0-4.7-1.7-5.3-4.1
			c0.4,0.6,1.2,1,2,1h3.8c1.3,0,2.4-1.1,2.4-2.4c0-1.3-1.1-2.4-2.4-2.4h-3.8c-0.8,0-1.5,0.4-2,1
			C258.2,264.3,260.3,262.5,262.9,262.5z M258.4,268c0-0.6,0.5-1.2,1.2-1.2h3.8c0.6,0,1.2,0.5,1.2,1.2s-0.5,1.2-1.2,1.2h-3.8
			C258.9,269.2,258.4,268.7,258.4,268z"/>
		<rect x="225.2" y="267.4" class="st0" width="22.8" height="1.3"/>
		<path class="st0" d="M262.9,249.9h17.5c3.7,0,6.8-3,6.8-6.8s-3-6.8-6.8-6.8h-17.5c-3.7,0-6.8,3-6.8,6.8S259.1,249.9,262.9,249.9z
			 M262.9,237.7h17.5c3,0,5.5,2.5,5.5,5.5s-2.5,5.5-5.5,5.5h-17.5c-2.5,0-4.7-1.7-5.3-4.1c0.4,0.6,1.2,1,2,1h3.8
			c1.3,0,2.4-1.1,2.4-2.4c0-1.3-1.1-2.4-2.4-2.4h-3.8c-0.8,0-1.5,0.4-2,1C258.2,239.4,260.3,237.7,262.9,237.7z M258.4,243.2
			c0-0.6,0.5-1.2,1.2-1.2h3.8c0.6,0,1.2,0.5,1.2,1.2s-0.5,1.2-1.2,1.2h-3.8C258.9,244.3,258.4,243.8,258.4,243.2z"/>
		<rect x="225.2" y="242.5" class="st0" width="22.8" height="1.3"/>
		<path class="st0" d="M262.9,225.1h17.5c3.7,0,6.8-3,6.8-6.8s-3-6.8-6.8-6.8h-17.5c-3.7,0-6.8,3-6.8,6.8S259.1,225.1,262.9,225.1z
			 M262.9,212.9h17.5c3,0,5.5,2.5,5.5,5.5s-2.5,5.5-5.5,5.5h-17.5c-2.5,0-4.7-1.7-5.3-4.1c0.4,0.6,1.2,1,2,1h3.8
			c1.3,0,2.4-1.1,2.4-2.4c0-1.3-1.1-2.4-2.4-2.4h-3.8c-0.8,0-1.5,0.4-2,1C258.2,214.6,260.3,212.9,262.9,212.9z M258.4,218.3
			c0-0.6,0.5-1.2,1.2-1.2h3.8c0.6,0,1.2,0.5,1.2,1.2s-0.5,1.2-1.2,1.2h-3.8C258.9,219.5,258.4,219,258.4,218.3z"/>
		<rect x="225.2" y="217.7" class="st0" width="22.8" height="1.3"/>
		<path class="st0" d="M262.9,200.2h17.5c3.7,0,6.8-3,6.8-6.8c0-3.7-3-6.8-6.8-6.8h-17.5c-3.7,0-6.8,3-6.8,6.8
			C256.1,197.2,259.1,200.2,262.9,200.2z M262.9,188h17.5c3,0,5.5,2.5,5.5,5.5s-2.5,5.5-5.5,5.5h-17.5c-2.5,0-4.7-1.7-5.3-4.1
			c0.4,0.6,1.2,1,2,1h3.8c1.3,0,2.4-1.1,2.4-2.4c0-1.3-1.1-2.4-2.4-2.4h-3.8c-0.8,0-1.5,0.4-2,1C258.2,189.8,260.3,188,262.9,188z
			 M258.4,193.5c0-0.6,0.5-1.2,1.2-1.2h3.8c0.6,0,1.2,0.5,1.2,1.2c0,0.6-0.5,1.2-1.2,1.2h-3.8C258.9,194.7,258.4,194.1,258.4,193.5z
			"/>
		<rect x="225.2" y="192.9" class="st0" width="22.8" height="1.3"/>
		<path class="st0" d="M262.9,175.4h17.5c3.7,0,6.8-3,6.8-6.8c0-3.7-3-6.8-6.8-6.8h-17.5c-3.7,0-6.8,3-6.8,6.8
			C256.1,172.4,259.1,175.4,262.9,175.4z M262.9,163.2h17.5c3,0,5.5,2.5,5.5,5.5s-2.5,5.5-5.5,5.5h-17.5c-2.5,0-4.7-1.7-5.3-4.1
			c0.4,0.6,1.2,1,2,1h3.8c1.3,0,2.4-1.1,2.4-2.4c0-1.3-1.1-2.4-2.4-2.4h-3.8c-0.8,0-1.5,0.4-2,1
			C258.2,164.9,260.3,163.2,262.9,163.2z M258.4,168.7c0-0.6,0.5-1.2,1.2-1.2h3.8c0.6,0,1.2,0.5,1.2,1.2c0,0.6-0.5,1.2-1.2,1.2h-3.8
			C258.9,169.8,258.4,169.3,258.4,168.7z"/>
		<rect x="225.2" y="168" class="st0" width="22.8" height="1.3"/>
		<path class="st0" d="M262.9,150.6h17.5c3.7,0,6.8-3,6.8-6.8s-3-6.8-6.8-6.8h-17.5c-3.7,0-6.8,3-6.8,6.8S259.1,150.6,262.9,150.6z
			 M262.9,138.3h17.5c3,0,5.5,2.5,5.5,5.5s-2.5,5.5-5.5,5.5h-17.5c-2.5,0-4.7-1.7-5.3-4.1c0.4,0.6,1.2,1,2,1h3.8
			c1.3,0,2.4-1.1,2.4-2.4c0-1.3-1.1-2.4-2.4-2.4h-3.8c-0.8,0-1.5,0.4-2,1C258.2,140.1,260.3,138.3,262.9,138.3z M258.4,143.8
			c0-0.6,0.5-1.2,1.2-1.2h3.8c0.6,0,1.2,0.5,1.2,1.2s-0.5,1.2-1.2,1.2h-3.8C258.9,145,258.4,144.5,258.4,143.8z"/>
		<rect x="225.2" y="143.2" class="st0" width="22.8" height="1.3"/>
		<path class="st0" d="M262.9,125.7h17.5c3.7,0,6.8-3,6.8-6.8c0-3.7-3-6.8-6.8-6.8h-17.5c-3.7,0-6.8,3-6.8,6.8
			C256.1,122.7,259.1,125.7,262.9,125.7z M262.9,113.5h17.5c3,0,5.5,2.5,5.5,5.5s-2.5,5.5-5.5,5.5h-17.5c-2.5,0-4.7-1.7-5.3-4.1
			c0.4,0.6,1.2,1,2,1h3.8c1.3,0,2.4-1.1,2.4-2.4s-1.1-2.4-2.4-2.4h-3.8c-0.8,0-1.5,0.4-2,1C258.2,115.2,260.3,113.5,262.9,113.5z
			 M258.4,119c0-0.6,0.5-1.2,1.2-1.2h3.8c0.6,0,1.2,0.5,1.2,1.2c0,0.6-0.5,1.2-1.2,1.2h-3.8C258.9,120.1,258.4,119.6,258.4,119z"/>
		<rect x="225.2" y="118.3" class="st0" width="22.8" height="1.3"/>
		<path class="st0" d="M262.9,100.9h17.5c3.7,0,6.8-3,6.8-6.8c0-3.7-3-6.8-6.8-6.8h-17.5c-3.7,0-6.8,3-6.8,6.8
			C256.1,97.9,259.1,100.9,262.9,100.9z M262.9,88.6h17.5c3,0,5.5,2.5,5.5,5.5s-2.5,5.5-5.5,5.5h-17.5c-2.5,0-4.7-1.7-5.3-4.1
			c0.4,0.6,1.2,1,2,1h3.8c1.3,0,2.4-1.1,2.4-2.4s-1.1-2.4-2.4-2.4h-3.8c-0.8,0-1.5,0.4-2,1C258.2,90.4,260.3,88.6,262.9,88.6z
			 M258.4,94.1c0-0.6,0.5-1.2,1.2-1.2h3.8c0.6,0,1.2,0.5,1.2,1.2c0,0.6-0.5,1.2-1.2,1.2h-3.8C258.9,95.3,258.4,94.8,258.4,94.1z"/>
		<rect x="225.2" y="93.5" class="st0" width="22.8" height="1.3"/>
		<path class="st0" d="M104.4,458.4h111.3c6,0,10.9-4.9,10.9-10.9v-23.1c0-6-4.9-10.9-10.9-10.9H104.4c-6,0-10.9,4.9-10.9,10.9v23.1
			C93.4,453.4,98.3,458.4,104.4,458.4z M93.7,424.3c0-5.9,4.8-10.6,10.6-10.6h111.3c5.9,0,10.6,4.8,10.6,10.6v23.1
			c0,5.9-4.8,10.6-10.6,10.6H104.4c-5.9,0-10.6-4.8-10.6-10.6V424.3z"/>
		<path class="st0" d="M108.2,446.3h29c2.3,0,4.2-1.9,4.2-4.2v-12.5c0-2.3-1.9-4.2-4.2-4.2h-29c-2.3,0-4.2,1.9-4.2,4.2v12.5
			C104,444.4,105.9,446.3,108.2,446.3z M105.3,429.6c0-1.6,1.3-3,3-3h29c1.6,0,3,1.3,3,3v12.5c0,1.6-1.3,3-3,3h-29c-1.6,0-3-1.3-3-3
			V429.6z"/>
		<path class="st0" d="M182.7,446.3h29c2.3,0,4.2-1.9,4.2-4.2v-12.5c0-2.3-1.9-4.2-4.2-4.2h-29c-2.3,0-4.2,1.9-4.2,4.2v12.5
			C178.5,444.4,180.4,446.3,182.7,446.3z M179.8,429.6c0-1.6,1.3-3,3-3h29c1.6,0,3,1.3,3,3v12.5c0,1.6-1.3,3-3,3h-29
			c-1.6,0-3-1.3-3-3V429.6z"/>
	</g>
</g>
<g id="Ebene_2">
	<g>
		<circle id="bgnumber_9_" class="st1" cx="101.4" cy="305" r="7.1"/>
		<text transform="matrix(1 0 0 1 96.4508 308.5424)" class="st2 st3 st4 button" data-number="18">19</text>
	</g>
	<g>
		<circle id="bgnumber_8_" class="st1" cx="101.4" cy="280.2" r="7.1"/>
		<text transform="matrix(1 0 0 1 95.5659 283.7496)" class="st2 st3 st4 button" data-number="16">17</text>
	</g>
	<g>
		<circle id="bgnumber_7_" class="st1" cx="101.4" cy="255.5" r="7.1"/>
		<text transform="matrix(1 0 0 1 95.5259 259.057)" class="st2 st3 st4 button" data-number="14">15</text>
	</g>
	<g>
		<circle id="bgnumber_6_" class="st1" cx="101.4" cy="230.7" r="7.1"/>
		<text transform="matrix(1 0 0 1 96.0253 234.2641)" class="st2 st3 st4 button" data-number="12">13</text>
	</g>
	<g>
		<circle id="bgnumber_5_" class="st1" cx="101.4" cy="205.9" r="7.1"/>
		<text transform="matrix(1 0 0 1 95.566 209.3926)" class="st2 st3 st4 button" data-number="11">11</text>
	</g>
	<g>
		<circle id="bgnumber_4_" class="st1" cx="101.4" cy="181.2" r="7.1"/>
		<text transform="matrix(1 0 0 1 95.746 184.6001)" class="st2 st3 st4 button" data-number="8">09</text>
	</g>
	<g>
		<circle id="bgnumber_3_" class="st1" cx="101.4" cy="156.4" r="7.1"/>
		<text transform="matrix(1 0 0 1 95.5159 159.9074)" class="st2 st3 st4 button" data-number="6">07</text>
	</g>
	<g>
		<circle id="bgnumber_2_" class="st1" cx="101.4" cy="131.6" r="7.1"/>
		<text transform="matrix(1 0 0 1 95.651 135.1147)" class="st2 st3 st4 button" data-number="4">05</text>
	</g>
	<g>
		<circle id="bgnumber_1_" class="st1" cx="101.4" cy="106.9" r="7.1"/>
		<text transform="matrix(1 0 0 1 95.7961 110.3221)" class="st2 st3 st4 button" data-number="2">03</text>
	</g>
	<g>
		<circle id="bgnumber" class="st1" cx="101.4" cy="82.1" r="7.1"/>
		<text transform="matrix(1 0 0 1 96.4508 85.5294)" class="st2 st3 st4 button" data-number="0">01</text>
	</g>
	<g>
		<circle id="bgnumber_20_" class="st1" cx="220.4" cy="316.9" r="7.1"/>
		<text transform="matrix(1 0 0 1 215.4007 320.4722)" class="st2 st3 st4 button" data-number="19">20</text>
	</g>
	<g>
		<circle id="bgnumber_19_" class="st1" cx="220.4" cy="292.2" r="7.1"/>
		<text transform="matrix(1 0 0 1 214.5158 295.7263)" class="st2 st3 st4 button" data-number="17">18</text>
	</g>
	<g>
		<circle id="bgnumber_18_" class="st1" cx="220.4" cy="267.5" r="7.1"/>
		<text transform="matrix(1 0 0 1 214.4759 271.0804)" class="st2 st3 st4 button" data-number="15">16</text>
	</g>
	<g>
		<circle id="bgnumber_17_" class="st1" cx="220.4" cy="242.8" r="7.1"/>
		<text transform="matrix(1 0 0 1 214.9753 246.3341)" class="st2 st3 st4 button" data-number="13">14</text>
	</g>
	<g>
		<circle id="bgnumber_16_" class="st1" cx="220.4" cy="218.1" r="7.1"/>
		<text transform="matrix(1 0 0 1 214.516 221.5093)" class="st2 st3 st4 button" data-number="11">12</text>
	</g>
	<g>
		<circle id="bgnumber_15_" class="st1" cx="220.4" cy="193.3" r="7.1"/>
		<text transform="matrix(1 0 0 1 214.696 196.7635)" class="st2 st3 st4 button" data-number="9">10</text>
	</g>
	<g>
		<circle id="bgnumber_14_" class="st1" cx="220.4" cy="168.6" r="7.1"/>
		<text transform="matrix(1 0 0 1 214.4659 172.1174)" class="st2 st3 st4 button" data-number="7">08</text>
	</g>
	<g>
		<circle id="bgnumber_13_" class="st1" cx="220.4" cy="143.9" r="7.1"/>
		<text transform="matrix(1 0 0 1 214.6009 147.3714)" class="st2 st3 st4 button" data-number="5">06</text>
	</g>
	<g>
		<circle id="bgnumber_12_" class="st1" cx="220.4" cy="119.2" r="7.1"/>
		<text transform="matrix(1 0 0 1 214.7461 122.6255)" class="st2 st3 st4 button" data-number="3">04</text>
	</g>
	<g>
		<circle id="bgnumber_11_" class="st1" cx="220.4" cy="94.4" r="7.1"/>
		<text transform="matrix(1 0 0 1 215.4008 97.8793)" class="st2 st3 st4 button" data-number="1">02</text>
	</g>
</g>
</svg>
