<svg id="icon" xmlns="http://www.w3.org/2000/svg" width="192" height="192" viewBox="0 0 192 192">
  <rect width="192" height="192" style="fill: none"/>
  <g>
    <path d="M132,16H60A36.1,36.1,0,0,0,24,52h0A36.1,36.1,0,0,0,60,88h72a36.1,36.1,0,0,0,36-36h0A36.1,36.1,0,0,0,132,16Zm0,56a20,20,0,1,1,20-20A20.1,20.1,0,0,1,132,72Z"/>
    <path d="M132,96H60a36.1,36.1,0,0,0-36,36h0a36.1,36.1,0,0,0,36,36h72a36.1,36.1,0,0,0,36-36h0A36.1,36.1,0,0,0,132,96ZM60,152a20,20,0,1,1,20-20A20.1,20.1,0,0,1,60,152Z"/>
  </g>
</svg>
