<svg version="1.1" id="Ebene_1" xmlns="http://www.w3.org/2000/svg" x="0" y="0" viewBox="0 0 192 192" xml:space="preserve"><path d="M96 63.6c-17.4 0-31.5 14.1-31.5 31.5s14.1 31.5 31.5 31.5 31.5-14.1 31.5-31.5S113.4 63.6 96 63.6zm0 55c-13 0-23.5-10.5-23.5-23.5S83 71.6 96 71.6s23.5 10.5 23.5 23.5S109 118.6 96 118.6z"/><path d="M168.6 108.4l-6.7-6c.3-2.7.5-5.1.5-7.3 0-2.6-.1-5-.4-7.3l6.8-6c4.7-3.3 6.2-9.7 3.3-14.7l-13.8-23.9c-2.9-5.1-9.3-6.9-14.5-4.2l-8.6 2.9c-3.9-2.9-8.2-5.4-12.7-7.4l-1.8-8.5c-.2-5.7-4.9-10-10.9-10H82.2c-6 0-10.7 4.4-10.9 10l-1.8 8.7c-4.5 1.9-8.8 4.4-12.7 7.3l-8.6-2.9c-2.4-1.3-5.2-1.6-7.9-.9-2.8.7-5.2 2.5-6.6 5.1L20 67.1c-1.5 2.5-1.8 5.4-1.1 8.2.7 2.7 2.4 4.9 4.7 6.4l6.8 6c-.2 2.3-.4 4.8-.4 7.4 0 2.6.1 5 .4 7.3l-6.7 5.9c-4.9 3.1-6.5 9.6-3.6 14.6l13.8 23.9c1.5 2.5 3.8 4.3 6.6 5.1 2.7.7 5.4.4 7.9-.9l8.6-2.9c3.9 2.9 8.2 5.3 12.7 7.4l1.8 9.5c.2 6 5.1 11.1 10.9 11.1h27.5c5.8 0 10.7-5 10.9-11.1l1.8-9.2c4.3-1.9 8.6-4.4 12.7-7.5l8.6 2.8c5.1 2.7 11.5.8 14.5-4.3l13.8-23.9c2.9-5 1.3-11.4-3.6-14.5zm-3.4 10.6l-13.8 23.9c-.8 1.4-2.6 1.9-3.9 1.1l-.4-.2-13.3-4.4-1.7 1.3c-4.8 3.7-9.6 6.6-14.5 8.5l-2 .8-2.8 14.1v.4c0 1.7-1.5 3.5-2.9 3.5H82.4c-1.4 0-2.9-1.8-2.9-3.5v-.4l-2.8-14.4-2-.8c-5.3-2.2-10.2-5-14.5-8.4l-1.7-1.3-13.3 4.5-.3.2c-.7.4-1.5.5-2.2.3-.7-.2-1.4-.7-1.7-1.3L27.1 119c-.8-1.4-.3-3.2 1-3.9l.4-.2 10.6-9.3-.4-2.2c-.4-2.5-.6-5.2-.6-8.2 0-2.8.3-5.4.6-8.6l.2-2-10.4-9.2-.5-.4c-1.4-.8-1.8-2.6-1-3.9l13.7-23.8c.4-.7 1-1.1 1.7-1.3.7-.2 1.5-.1 2.2.3l.3.2L58.3 51l1.7-1.3c4.4-3.5 9.3-6.3 14.5-8.3l2-.8L79.3 27v-.4c0-1.7 1.5-2.5 2.9-2.5h27.5c1.4 0 2.9.8 2.9 2.5v.4l2.8 13.4 2 .8c5.3 2.2 10.2 5 14.5 8.4l1.7 1.3 13.3-4.5.3-.2c1.4-.8 3.2-.3 3.9 1L165 71.1c.9 1.5.2 3.4-1.1 4.2l-10.7 9.4.4 2.2c.4 2.5.6 5.2.6 8.2 0 2.4-.2 5.1-.7 8.4l-.3 2.1 10.5 9.3.3.2c1.6.8 2 2.5 1.2 3.9z"/><path fill="none" d="M0 0h192v192H0z"/></svg>