<svg id="Component_407_3" data-name="Component 407 3" xmlns="http://www.w3.org/2000/svg" viewBox="0 0 16 14.65"><defs><style>.cls-1{fill:#fff;fill-opacity:0;}</style></defs><rect id="frame" class="cls-1" x="0.01" y="-1.35" width="15.99" height="15.99"/><path id="group" d="M12,7.33V5.5a1.29,1.29,0,0,0-.19-.63h0a.94.94,0,0,0-.16-.23l0,0-.14-.16h0l-.15-.15.16-.06A4.61,4.61,0,0,1,13,4a4.49,4.49,0,0,1,2,.43l.17.09a2.25,2.25,0,0,1,.52.4l.1.12,0,0,.1.12a.76.76,0,0,1,.11.33V7.33Zm-6.66,0V5.52a1,1,0,0,1,.12-.33l.1-.12,0,0,.1-.12a2,2,0,0,1,.52-.39l.17-.1a3.25,3.25,0,0,1,.43-.18A4.67,4.67,0,0,1,8.34,4a4.53,4.53,0,0,1,1.95.42l.17.1a2.2,2.2,0,0,1,.53.39l.1.12,0,0,.12.12a.81.81,0,0,1,.11.33V7.33ZM0,7.33V5.52a.7.7,0,0,1,.12-.33l.1-.12,0,0,.1-.12a2,2,0,0,1,.53-.39L1,4.43a3.38,3.38,0,0,1,.44-.18A4.61,4.61,0,0,1,3,4a4.56,4.56,0,0,1,2,.43l.18.1h0l-.09.11,0,0a.89.89,0,0,0-.16.22h0a1.29,1.29,0,0,0-.19.63V7.33ZM11.34,1.67A1.67,1.67,0,1,1,13,3.33a1.66,1.66,0,0,1-1.66-1.66Zm-4.67,0a1.67,1.67,0,1,1,3.33,0,1.67,1.67,0,0,1-3.33,0Zm-5.33,0A1.66,1.66,0,0,1,3,0H3A1.67,1.67,0,1,1,3,3.33,1.66,1.66,0,0,1,1.34,1.67Z"/><path id="call_end" data-name="call end" d="M9.8,11.59v1.35a12.84,12.84,0,0,1-3.61,0V11.59a.32.32,0,0,0-.26-.32,10.76,10.76,0,0,1-4-1.65.32.32,0,0,0-.4,0L.1,11.05a.32.32,0,0,0,0,.45h0a11.52,11.52,0,0,0,15.8,0,.31.31,0,0,0,0-.44v0L14.52,9.66a.33.33,0,0,0-.4,0,10.9,10.9,0,0,1-4,1.65A.32.32,0,0,0,9.8,11.59Z"/></svg>