<svg xmlns="http://www.w3.org/2000/svg" viewBox="0 0 192 192"><defs><style>.cls-1{fill:#fff;stroke:#000;stroke-miterlimit:10;opacity:0;}</style></defs><g id="Layer_3" data-name="Layer 3"><rect class="cls-1" width="192" height="192"/><path d="M188.37,3.94h0a7.91,7.91,0,0,0-11.16,0l-38,38c.28-1.64.51-3.2.65-4.63.7-7.13-1.67-9.35-3.78-10-4.07-1.18-9.58,2.7-10.79,5.09-2,4-6.48,20.1-10,33.45l-8.57,8.57c-.4-14.36-.77-40.25-.87-46.79a11.22,11.22,0,0,0-2-6.48,7.56,7.56,0,0,0-8.07-3.29c-3.53.78-6.86,3.8-7.43,6.73-.9,4.7.23,48.44.46,57.16A2.55,2.55,0,0,1,85.14,84a.51.51,0,0,1-.25-.33c-2.67-8.79-5.3-15.76-7.61-21.92-1-2.57-1.88-5-2.67-7.22C65.86,29.79,63.27,29.35,57.76,30.7c-6.58,1.61-6.34,6.55-6.16,10.16,0,.3,0,.58,0,.86C51.76,45,62.25,78.15,65.46,88.23A18.32,18.32,0,0,1,66.22,92c1.37,13.54-1.71,20-3.1,22.21a.26.26,0,0,1-.24.11.21.21,0,0,1-.2-.14c-2.66-6.27-17-17-28.36-21.24-5.53-2.07-9.94-2.43-12.75-1.06s-4.59,3-5.16,4.93a5.62,5.62,0,0,0,.69,4.54A9,9,0,0,0,21.37,105c9.51,4.2,19.52,18.44,22.36,22.71a8.8,8.8,0,0,1,1.15,2.56,46.85,46.85,0,0,0,1.54,4.56L3.67,177.54a7.93,7.93,0,0,0,0,11.16h0a7.91,7.91,0,0,0,11.16,0l39.78-39.79,76.94-77L135.47,68l52.9-52.91A7.91,7.91,0,0,0,188.37,3.94Z"/><path d="M142.5,77.78l-1.95,2-12,12h0l-.56.57h0l-53.4,53.53-9.32,9.34a1.07,1.07,0,0,0,.13,1.62c2.28,1.63,4.6,3.17,6.9,4.69q2.2,1.46,4.37,2.92c6,4.11,18.08,3.85,26.87,3.66,1.82,0,3.49-.06,5.07-.07a73.21,73.21,0,0,0,13.19-.87,8.48,8.48,0,0,0,3.53-1.77c13.85-12.86,17.23-44.88,18.5-56.93a42.91,42.91,0,0,1,.56-4.44c.35-1.2,2.54-4.77,5.56-9.72,2.22-3.64,4.74-7.77,7.25-12.11A75.56,75.56,0,0,0,165,64.05c1-3.66,1.13-6.49.48-8.31a.51.51,0,0,0-.84-.18L143.91,76.37,142.32,78"/></g></svg>