<svg id="icon" xmlns="http://www.w3.org/2000/svg" width="192" height="192"><path fill="none" d="M0 0h192v192H0z"/><path d="M192 7.9v-.7a.4.4 0 0 1-.1-.3.9.9 0 0 0-.1-.5.8.8 0 0 0-.1-.4v-.3l-.2-.4c0-.1-.1-.2-.1-.4l-.2-.3v-.4c-.1-.1-.2-.2-.2-.3s-.2-.2-.2-.3l-.3-.4-.2-.3-.5-.5h-.1l-.5-.5-.3-.2-.4-.3-.3-.2-.3-.2h-.4l-.3-.2h-.4l-.4-.2H128a8 8 0 0 0 0 16h36.7L96 84.7 13.7 2.3a8.1 8.1 0 0 0-11.4 0 8.1 8.1 0 0 0 0 11.4l88 87.9a8 8 0 0 0 11.4 0L176 27.3V64a8 8 0 0 0 16 0V8zM1.2 157.6a3.8 3.8 0 0 0-.1 5.5l16.8 16.8a3.8 3.8 0 0 0 4.8.5 130.4 130.4 0 0 1 48.5-19.8 3.9 3.9 0 0 0 3.1-3.8v-16.2a150.3 150.3 0 0 1 43.4 0v16.2a3.9 3.9 0 0 0 3.1 3.8 130.4 130.4 0 0 1 48.5 19.8 3.8 3.8 0 0 0 4.8-.5l16.8-16.8a3.8 3.8 0 0 0-.1-5.5c-53.1-50.1-136.5-50.1-189.6 0z"/></svg>