<svg id="icon" xmlns="http://www.w3.org/2000/svg" viewBox="0 0 192 192"><path fill="none" d="M0 0h192v192H0z"/><path d="M190.4 119.8c-.3-.5-1-1-1.4-1.6l-.3-.4a18.3 18.3 0 0 0-1.3-1.6h-.1a27.9 27.9 0 0 0-6.9-5.3l-2.3-1.2A60.2 60.2 0 0 0 152 104a63.3 63.3 0 0 0-19.1 2.9 31.3 31.3 0 0 1 4.2 3.8h.1a20 20 0 0 1 1.9 2.2l.2.3a11.8 11.8 0 0 1 2.2 2.8v.2a16.8 16.8 0 0 1 2.4 8V144h48v-19.7a10.2 10.2 0 0 0-1.5-4.5z"/><circle cx="96" cy="72" r="24"/><circle cx="152" cy="72" r="24"/><circle cx="40" cy="72" r="24"/><path d="M133 118.2l-.3-.4a18.3 18.3 0 0 0-1.3-1.6h-.1a27.9 27.9 0 0 0-6.9-5.3l-2.3-1.2A60.2 60.2 0 0 0 96 104a64 64 0 0 0-20.3 3.3 43.9 43.9 0 0 0-5.8 2.4l-2.3 1.2a27.9 27.9 0 0 0-6.9 5.3h-.1a18.3 18.3 0 0 0-1.3 1.6l-.3.4c-.4.6-1.1 1.1-1.4 1.6a10.2 10.2 0 0 0-1.6 4.5V144h80v-19.7a10.2 10.2 0 0 0-1.6-4.5c-.3-.5-1-1-1.4-1.6zm-85 6.1a16.8 16.8 0 0 1 2.4-8v-.2a11.8 11.8 0 0 1 2.2-2.8l.2-.3a11.8 11.8 0 0 1 1.8-2.1h.1a40.2 40.2 0 0 1 4.3-3.8 63.3 63.3 0 0 0-19-3.1 64 64 0 0 0-20.3 3.3 43.9 43.9 0 0 0-5.8 2.4l-2.3 1.2a27.9 27.9 0 0 0-6.9 5.3h-.1a18.3 18.3 0 0 0-1.3 1.6l-.3.4c-.4.6-1.1 1.1-1.4 1.6a10.2 10.2 0 0 0-1.6 4.5V144h48z"/></svg>