<svg id="call_incoming_solid" xmlns="http://www.w3.org/2000/svg" viewBox="0 0 192 192"><path fill="none" d="M0 0h192v192H0z"/><path d="M140.8 159.4a139.4 139.4 0 0 1-50.4-21.2 3.9 3.9 0 0 0-5 .4l-12 12a161.7 161.7 0 0 1-32-32l11.9-12a3.8 3.8 0 0 0 .5-5 139.4 139.4 0 0 1-21.2-50.4 3.9 3.9 0 0 0-3.9-3.2H4a4 4 0 0 0-4 4.1A144.3 144.3 0 0 0 139.9 192a4 4 0 0 0 4.1-4v-24.7a3.9 3.9 0 0 0-3.2-3.9zM184 48H99.3l26.4-26.3a8.1 8.1 0 0 0-11.4-11.4l-40 40a7.9 7.9 0 0 0-2.3 5.6 8.1 8.1 0 0 0 2.3 5.7l40 40.1a8.2 8.2 0 0 0 11.4 0 8.1 8.1 0 0 0 0-11.4L99.4 64H184a8 8 0 0 0 0-16z" fill="#333"/></svg>