<svg id="icon" xmlns="http://www.w3.org/2000/svg" viewBox="0 0 192 192"><path fill="none" d="M0 0h192v192H0z"/><circle cx="100" cy="116" r="20"/><circle cx="36" cy="116" r="20"/><circle cx="156" cy="116" r="20"/><path d="M59.5 149.2A53.6 53.6 0 0 0 36 144a54.8 54.8 0 0 0-18.3 3 35.3 35.3 0 0 0-5.2 2.2l-2.1 1a28.9 28.9 0 0 0-6.2 4.8l-1.3 1.4-.2.4a17.4 17.4 0 0 0-1.3 1.5 9.2 9.2 0 0 0-1.4 4V184h56v-21.7a15.9 15.9 0 0 1 2.3-7.6 11.4 11.4 0 0 1 2.1-2.7l.2-.3 1-1.3zm131.1 9.1a17.4 17.4 0 0 0-1.3-1.5c-.1-.1-.1-.2-.2-.4l-1.3-1.4a28.9 28.9 0 0 0-6.2-4.8l-2.1-1A53.6 53.6 0 0 0 156 144a54.8 54.8 0 0 0-18.3 3l-1.9.7 1.8 1.8h.2a15.6 15.6 0 0 1 1.6 2l.2.3a11.4 11.4 0 0 1 2.1 2.7 15.9 15.9 0 0 1 2.3 7.6V184h48v-21.7a9.2 9.2 0 0 0-1.4-4zm-57.3-1.5c-.1-.1-.1-.2-.2-.4l-1.3-1.4a28.9 28.9 0 0 0-6.2-4.8l-2.1-1.1a57 57 0 0 0-41.8-2.1 35.2 35.2 0 0 0-5.2 2.1l-2.1 1.1a28.9 28.9 0 0 0-6.2 4.8l-1.3 1.4-.2.4a17.4 17.4 0 0 0-1.3 1.5 8.8 8.8 0 0 0-1.4 4V184h72v-21.7a8.8 8.8 0 0 0-1.4-4 17.4 17.4 0 0 0-1.3-1.5zM17.9 67.9a3.8 3.8 0 0 0 4.8.5 130.4 130.4 0 0 1 48.5-19.8 3.9 3.9 0 0 0 3.1-3.8V28.6a150.3 150.3 0 0 1 43.4 0v16.2a3.9 3.9 0 0 0 3.1 3.8 130.4 130.4 0 0 1 48.5 19.8 3.8 3.8 0 0 0 4.8-.5l16.8-16.8a3.8 3.8 0 0 0-.1-5.5C137.7-4.5 54.3-4.5 1.2 45.6a3.8 3.8 0 0 0-.1 5.5z"/></svg>