<svg id="icon" xmlns="http://www.w3.org/2000/svg" viewBox="0 0 192 192"><path fill="none" d="M0 0h192v192H0z"/><path d="M104 136a8 8 0 1 0 8 8 8 8 0 0 0-8-8zm24 0a8 8 0 1 0 8 8 8 8 0 0 0-8-8zm24 0a8 8 0 1 0 8 8 8 8 0 0 0-8-8zm-48 24a8 8 0 1 0 8 8 8 8 0 0 0-8-8zm24 0a8 8 0 1 0 8 8 8 8 0 0 0-8-8zm24 0a8 8 0 1 0 8 8 8 8 0 0 0-8-8zm-48-48a8 8 0 1 0 8 8 8 8 0 0 0-8-8zm24 0a8 8 0 1 0 8 8 8 8 0 0 0-8-8zm24 0a8 8 0 1 0 8 8 8 8 0 0 0-8-8zm-48-24a8 8 0 1 0 8 8 8 8 0 0 0-8-8zm24 0a8 8 0 1 0 8 8 8 8 0 0 0-8-8zm24 0a8 8 0 1 0 8 8 8 8 0 0 0-8-8z"/><rect x="32" y="16" width="48" height="160" rx="8" ry="8"/><rect x="96" y="16" width="64" height="56" rx="8" ry="8"/></svg>