<svg id="icon" xmlns="http://www.w3.org/2000/svg" viewBox="0 0 192 192"><defs><style>.cls-1{fill:none;opacity:0;}</style></defs><path d="M126.09,114c6.41-5.5,24.41-30.5,13-36.77a5.83,5.83,0,0,0-2.71-1H102.84s3.48-58-6.76-58-7.64,58-7.64,58H56.53a3.91,3.91,0,0,0-1.51.3C51.39,78,38.19,85.92,65.62,114a3.93,3.93,0,0,1,1.14,2.94c-.38,9.77-1.92,57.29,8.08,57.29,0,0,35.08.08,42.38.06a3.93,3.93,0,0,0,3.17-1.59A11.25,11.25,0,0,0,122,169c2.58-9.4,3.53-31.35,2.93-52A3.78,3.78,0,0,1,126.09,114Z"/><path d="M96.08,16.18a5,5,0,0,0-3.69,1.7c-7.28,7.61-6.41,46-6,56.3H56.53a5.94,5.94,0,0,0-2.28.45h0a12.06,12.06,0,0,0-7.33,8.66c-1.62,7.91,4.2,18.7,17.27,32.06a1.91,1.91,0,0,1,.57,1.45c-.71,18.39-.87,50.31,6.1,57.56a5.44,5.44,0,0,0,4,1.82c.35,0,35.16.08,42.39.06a6,6,0,0,0,4.78-2.42,13.27,13.27,0,0,0,1.87-4.25c2.84-10.35,3.55-33.89,3-52.65a1.79,1.79,0,0,1,.5-1.4c5.53-4.75,18.44-22.1,17.33-32.78A9,9,0,0,0,140,75.47l-.37-.21a6.58,6.58,0,0,0-3.3-1.08H105c.54-10.37,2-48.68-5.19-56.3A5,5,0,0,0,96.08,16.18ZM55.79,78.32a2,2,0,0,1,.74-.14h34l-.09-2.09C89.6,57.48,90.18,26,95.28,20.64c.44-.46.71-.46.8-.46s.35,0,.77.45c5,5.32,5.11,36.82,4,55.43l-.12,2.12h35.65a3.5,3.5,0,0,1,1.33.57l.42.23a4.94,4.94,0,0,1,2.62,4.18c.9,8.63-10.92,25-16,29.32a5.69,5.69,0,0,0-1.9,4.55c.65,22.19-.5,42.86-2.86,51.44a9.52,9.52,0,0,1-1.26,3,1.94,1.94,0,0,1-1.57.77c-7.2,0-42-.06-42.36-.06-.14,0-.53,0-1.1-.6-4.21-4.38-6.12-25.3-5-54.62A6,6,0,0,0,67,112.54C52,97.16,49.92,88.58,50.83,84.09a8,8,0,0,1,5-5.77Z"/><rect class="cls-1" x="-0.16" y="0.24" width="192" height="192"/></svg>