<svg id="icon" xmlns="http://www.w3.org/2000/svg" viewBox="0 0 192 192"><path fill="none" d="M0 0h192v192H0z"/><circle cx="108" cy="116" r="4"/><circle cx="124" cy="116" r="4"/><circle cx="140" cy="116" r="4"/><circle cx="108" cy="100" r="4"/><circle cx="124" cy="100" r="4"/><circle cx="140" cy="100" r="4"/><circle cx="108" cy="132" r="4"/><circle cx="124" cy="132" r="4"/><circle cx="140" cy="132" r="4"/><path d="M160.9 80h-.9V24a8 8 0 0 0-8-8H40a8 8 0 0 0-8 8v40a8 8 0 0 0-8 8v72a8 8 0 0 0 8 8v16a8 8 0 0 0 8 8h112a8 8 0 0 0 8-8v-16h.9c4 0 7.1-3.5 7.1-8V88c0-4.5-3.1-8-7.1-8zM32 72h24v72H32zm120 96H40v-16h16a8 8 0 0 0 8-8V72a8 8 0 0 0-8-8H40V24h112v56H87.1c-4 0-7.1 3.5-7.1 8v56c0 4.5 3.1 8 7.1 8H152zm8-24H88V88h72z"/></svg>