<svg version="1.1" id="Ebene_1" xmlns="http://www.w3.org/2000/svg" x="0" y="0" viewBox="0 0 192 192" xml:space="preserve"><g id="voicemail_solid"><path fill="none" d="M0 0h192v192H0z"/><path d="M176 100c0-19.9-16.1-36-36-36s-36 16.1-36 36c0 7.4 2.2 14.3 6.1 20H81.9c3.8-5.7 6.1-12.6 6.1-20 0-19.9-16.1-36-36-36s-36 16.1-36 36c0 18.5 14 33.8 32 35.8v.2h96v-.2c18-2 32-17.3 32-35.8zm-142 0c0-9.9 8.1-18 18-18s18 8.1 18 18-8.1 18-18 18-18-8.1-18-18zm106 18c-9.9 0-18-8.1-18-18s8.1-18 18-18 18 8.1 18 18-8.1 18-18 18z"/></g></svg>