<svg id="icon" xmlns="http://www.w3.org/2000/svg" viewBox="0 0 192 192"><path fill="none" d="M0 0h192v192H0z"/><path d="M176 140a36 36 0 0 0-72 0 35.3 35.3 0 0 0 6.1 20H81.9a35.3 35.3 0 0 0 6.1-20 36 36 0 1 0-40 35.8v.2h96v-.2a36.1 36.1 0 0 0 32-35.8zm-144 0a20 20 0 1 1 20 20 20.1 20.1 0 0 1-20-20zm108 20a20 20 0 1 1 20-20 20.1 20.1 0 0 1-20 20zM32 56h108.7l-18.4 18.3a8.1 8.1 0 0 0 0 11.4 8.2 8.2 0 0 0 11.4 0l32-32.1a8.1 8.1 0 0 0 0-11.3l-32.1-32a8 8 0 0 0-11.2 11.4L140.7 40H32a8 8 0 0 0 0 16z"/></svg>