<svg id="icon" xmlns="http://www.w3.org/2000/svg" width="192" height="192" viewBox="0 0 192 192">
  <rect width="192" height="192" style="fill: none"/>
  <g>
    <path d="M128.3,48h-37l6.4-6.4A8,8,0,1,0,86.4,30.3l-20,20a8,8,0,0,0,0,11.3l20,20a7.9,7.9,0,0,0,11.3,0,8,8,0,0,0,0-11.3L91.4,64h36.9a32.1,32.1,0,0,1,12.6,61.7,8,8,0,0,0,3.2,15.3,7.4,7.4,0,0,0,3.2-.7,48.1,48.1,0,0,0-19-92.3Z"/>
    <path d="M105.7,110.3a8,8,0,0,0-11.3,11.3l6.4,6.4H64.1A32.1,32.1,0,0,1,51.2,66.5,8,8,0,0,0,55.3,56a7.9,7.9,0,0,0-10.5-4.2A48.1,48.1,0,0,0,64.1,144h37.3l-6.2,6.4a8.2,8.2,0,0,0,.3,11.4A8.5,8.5,0,0,0,101,164a7.9,7.9,0,0,0,5.8-2.5l19-20a8,8,0,0,0-.1-11.2Z"/>
  </g>
</svg>
