<svg version="1.1" id="Ebene_1" xmlns="http://www.w3.org/2000/svg" x="0" y="0" viewBox="0 0 192 192" xml:space="preserve"><g id="conference_call_outline"><path d="M28.9 83.7c1.3 1.2 2.9 1.9 4.6 1.9.9 0 1.9-.2 2.8-.6 12.5-5.7 25.6-9.8 39.2-12 3.3-.6 5.7-3.4 5.8-6.8l.1-9.2c9.7-1.7 19.5-1.7 29.2 0l-.1 9c0 3.4 2.5 6.2 5.9 6.8 13.6 2.1 26.7 6.2 39.1 12.1 2.4 1.2 5.4.8 7.5-1l11.2-11.2.1-.1c2.4-2.7 2.3-6.9-.4-9.4-43.7-41.6-112.2-41.6-155.9.1l-.1.1c-2.6 2.5-2.6 6.7 0 9.3l11 11zm138.5-15.6l-9.2 9.2c-12.6-6-26-10.1-39.7-12.4l.1-14.6-3.2-.7c-12.9-2.7-25.9-2.7-38.8 0l-3.1.7-.1 14.8c-13.6 2.4-26.9 6.4-39.5 12.1L24.7 68c40.2-37.4 102.4-37.4 142.7.1zM96 96c-8.8 0-16 7.2-16 16s7.2 16 16 16 16-7.2 16-16-7.2-16-16-16zm0 24c-4.4 0-8-3.6-8-8s3.6-8 8-8 8 3.6 8 8-3.6 8-8 8zm48-24c-8.8 0-16 7.2-16 16s7.2 16 16 16 16-7.2 16-16-7.2-16-16-16zm0 24c-4.4 0-8-3.6-8-8s3.6-8 8-8 8 3.6 8 8-3.6 8-8 8zm-112-8c0 8.8 7.2 16 16 16s16-7.2 16-16-7.2-16-16-16-16 7.2-16 16zm24 0c0 4.4-3.6 8-8 8s-8-3.6-8-8 3.6-8 8-8 8 3.6 8 8zm69.6 35l-.2-.3c-.3-.4-.7-.8-1.1-1.2-1.7-1.6-3.5-2.9-5.6-4l-1.8-.9c-6.6-2.9-13.7-4.4-20.9-4.3-5.5 0-11 .8-16.3 2.5-1.6.5-3.1 1.1-4.6 1.8l-1.8.9c-2 1-3.9 2.4-5.6 4-.4.4-.7.8-1.1 1.2l-.2.3c-.4.4-.8.8-1.1 1.2-.7 1-1.1 2.1-1.3 3.3v8.4h64v-8.4c-.1-1.2-.6-2.3-1.3-3.3-.3-.4-.7-.8-1.1-1.2zm-53 5l.1-.2.1-.1c.1-.1.2-.3.4-.4l.1-.1.1-.1c1.1-1 2.3-1.8 3.6-2.4.5-.2.9-.5 1.4-.7 1.2-.6 2.5-1 3.8-1.5 4.5-1.4 9.1-2.1 13.8-2.1 6-.1 12 1.1 17.6 3.6.5.2.9.4 1.4.7 1.3.7 2.6 1.5 3.6 2.5l.1.1.5.5.1.1.1.2H72.6zm102.4-3.8c-.3-.4-.5-.8-.8-1.2l-.3-.3-1.2-1.2c-1.8-1.6-3.8-2.9-5.9-4-.6-.3-1.2-.6-1.9-.9-5.9-2.6-17.6-4.3-26.1-4.3-3.6 0-7.2.3-10.8.9.3.3.7.6 1 .8l.2.1c.6.6 1.2 1.2 1.8 1.9l.5.6c.7.7 1.4 1.5 2 2.4 1.6 2.5 2.6 5.4 2.7 8.4v8.4H176v-8.4c0-1-.4-2.2-1-3.2zm-30.9 3.8v-.4c0-2.4-.4-4.8-1.3-7.1 7.1.4 15.1 1.9 18.8 3.5.5.2 1 .5 1.5.7 1.4.7 2.8 1.6 4 2.6l.1.1.5.5.1.1h-23.7zm-90.9-15.7l-.1.1c-6.3 0-16.1.9-21.2 2.5-1.7.5-3.3 1.1-4.9 1.8-.7.3-1.3.6-1.9.9-2.1 1-4.1 2.4-5.9 4l-1.2 1.2-.3.3c-.3.4-.6.8-.8 1.2-.6 1-1 2.2-1 3.3v8.4h40v-8.4c.1-3 1.1-5.9 2.7-8.4l1.8-2.4c.1-.2.4-.4.5-.6.6-.6 1.2-1.3 1.8-1.8l.1-.1.2-.2c.3-.3.6-.6.9-.8-3.5-.7-7.1-1-10.7-1zm-5.3 15.3v.4H24.1l.1-.1.5-.5.2-.1c1.2-1 2.5-1.9 3.9-2.5.5-.3 1-.5 1.5-.7 1.3-.6 2.7-1.1 4.1-1.5 3-.9 9.2-1.7 14.8-2v-.1c-.9 2.2-1.3 4.6-1.3 7.1z"/><path fill="none" d="M0 0h192v192H0z"/></g></svg>