<svg version="1.1" id="Ebene_1" xmlns="http://www.w3.org/2000/svg" x="0" y="0" viewBox="0 0 192 192" xml:space="preserve"><g id="search_solid"><path d="M164.7 70.6c1.8 3.1.6 7.1-2.5 8.9l-8.2 7.2c.8 5.6.8 11.4 0 17l8.2 7.2c3.1 1.8 4.2 5.8 2.4 8.9l-13 22.6c-1.8 3.1-5.8 4.2-8.9 2.4l-10.3-3.4c-4.4 3.6-9.4 6.5-14.7 8.6l-2.1 11c0 3.6-2.9 7.1-6.5 7.1H83c-3.6 0-6.5-3.5-6.5-7.1l-2.1-11.3c-5.3-2.1-10.2-5-14.7-8.5l-10.3 3.5c-3.1 1.8-7.1.7-8.9-2.4l-13-22.6c-1.8-3.1-.7-7.1 2.4-8.9l8.2-7.2c-.8-5.6-.8-11.3 0-16.9l-8.2-7.2c-3.1-1.8-4.2-5.8-2.4-8.9l13-22.6c1.8-3.1 5.8-4.2 8.9-2.4l10.3 3.5c4.5-3.5 9.4-6.3 14.7-8.4l2.2-10.5V30c.1-3.5 3.1-6.1 6.5-6h26.3c3.5 0 6.3 2.8 6.3 6.2l2.1 10.3c5.3 2.1 10.2 5 14.7 8.5l10.4-3.5c3.1-1.8 7.1-.7 8.9 2.4l12.9 22.7c0-.1 0 0 0 0zm-42.6 24.5C122.1 80.7 110.4 69 96 69S69.9 80.7 69.9 95.1s11.7 26.1 26.1 26.1 26.1-11.7 26.1-26.1z"/><path fill="none" d="M0 0h192v192H0z"/></g></svg>