<svg id="icon" xmlns="http://www.w3.org/2000/svg" width="192" height="192" viewBox="0 0 192 192">
  <rect width="192" height="192" style="fill: none"/>
  <g>
    <path d="M96,32A64,64,0,1,1,32,96,64.1,64.1,0,0,1,96,32m0-16a80,80,0,1,0,80,80A80,80,0,0,0,96,16Z"/>
    <path d="M131.9,86.2c-1.3,2.4-3.4,3.3-5.7,4.4l-26,12.3c-3.2,1.5-6.9,1.5-9.7-1.1C89.2,100.6,72.2,70,69.6,65.3a8,8,0,1,1,13.9-8c2.7,4.8,15.6,28.2,15.8,28.3s19.7-9.3,22-10.4a8.2,8.2,0,0,1,10.9,3.7h0c.9,2,.5,1,0,0A7.8,7.8,0,0,1,131.9,86.2Z"/>
  </g>
</svg>
