<svg version="1.1" id="Ebene_1" xmlns="http://www.w3.org/2000/svg" x="0" y="0" viewBox="0 0 192 192" xml:space="preserve"><g id="mic_off_solid"><path fill="none" d="M0 0h192v192H0z"/><path d="M120 38.7l-48 48V39.9C72 26.7 82.7 16 95.9 16h.3c12.7 0 23.2 10 23.8 22.7zm-34.4 79l-11.7 11.7c6.5 4.3 14 6.6 21.8 6.6 22.1.2 40.1-17.6 40.3-39.7V80c0-4.4 3.6-8 8-8s8 3.6 8 8v16.3c-.1 27.7-20.5 51.2-48 55.1V168c0 4.4-3.6 8-8 8s-8-3.6-8-8v-16.6c-9.3-1.3-18-5-25.5-10.6l-32.8 32.8c-3.1 2.9-7.9 2.9-11 0-3.2-3-3.3-8.1-.3-11.3l144-144c3.1-2.9 7.9-2.9 11 0 3.2 3 3.3 8.1.3 11.3L120 83.3v12.8c0 13.2-10.7 23.9-23.9 23.8h-.3c-3.5.1-7-.7-10.2-2.2zm-42.2-2.4c-2.2-6.1-3.4-12.5-3.4-19V80c0-4.4 3.6-8 8-8s8 3.6 8 8v16.3c0 2 .2 4 .5 5.9l-13.1 13.1z"/></g></svg>