<svg version="1.1" id="Ebene_1" xmlns="http://www.w3.org/2000/svg" x="0" y="0" viewBox="0 0 192 192" xml:space="preserve"><g id="world_solid"><path d="M168 130.9c5.1-10.5 8-22.4 8-34.9s-2.9-24.4-8-34.9V60h-.6C154.3 33.9 127.2 16 96 16S37.7 33.9 24.6 60H24v1.1c-5.1 10.5-8 22.4-8 34.9s2.9 24.4 8 34.9v1.1h.6c13.2 26.1 40.2 44 71.4 44s58.3-17.9 71.4-44h.6v-1.1zM77.8 116c-1.2-6.6-1.8-13.3-1.8-20 0-6.7.6-13.4 1.8-20h36.4c1.1 6.2 1.8 12.9 1.8 20 0 6.7-.6 13.4-1.8 20H77.8zm32.2 16c-3.3 9.7-8.1 18.9-14 27.3-6-8.4-10.7-17.6-14-27.3h28zM32 96c0-7 1.1-13.7 3.2-20h26.3c-1 6.6-1.6 13.3-1.5 20 0 6.7.5 13.4 1.5 20H35.2c-2.1-6.3-3.2-13-3.2-20zm50-36c3.4-9.7 8.1-18.9 14-27.3 4.3 5.9 9.8 15.1 14 27.3H82zm48.4 16h26.4c2.1 6.3 3.2 13 3.2 20s-1.1 13.7-3.2 20h-26.3c1.1-6.6 1.6-13.3 1.5-20 0-7.1-.6-13.8-1.6-20zm18.5-16h-22.1c-2.8-9.6-6.5-17.9-10.2-24.6 13.3 4.5 24.6 13.2 32.3 24.6zM75.5 35.4c-4.3 7.8-7.8 16.1-10.3 24.6H43.1c7.8-11.4 19.1-20.1 32.4-24.6zM43.1 132h22.1c2.5 8.5 6 16.8 10.3 24.6-13.3-4.5-24.7-13.2-32.4-24.6zm73.4 24.6c4.3-7.8 7.8-16.1 10.3-24.6h22.1c-7.7 11.4-19.1 20.1-32.4 24.6z"/><path fill="none" d="M0 0h192v192H0z"/></g></svg>