<svg xmlns="http://www.w3.org/2000/svg" viewBox="0 0 192 192"><g id="Layer_3" data-name="Layer 3"><rect x="0.44" y="0.07" width="192" height="192" style="opacity:0"/><path d="M76.43,166.81c-12.54-8.55-26.24-15.6-31.53-34.47a9.52,9.52,0,0,0-1.23-2.74c-3-4.42-13.11-18.86-22.85-23.16a8.63,8.63,0,0,1-4.09-3.5C15.34,100.54,15,97,21,94.06,30.9,89.24,58.37,107.9,62,116.38a.76.76,0,0,0,1.33.1c1.62-2.52,4.6-9.18,3.22-22.8a18.78,18.78,0,0,0-.8-3.86c-2.63-8.28-13.84-43.65-14-46.95-.14-3.74-1-9,5.81-10.65,5.19-1.28,7.7-1,16.47,23.84,2.65,7.49,6.54,16.75,10.4,29.48a1.12,1.12,0,0,0,.47.62,2.81,2.81,0,0,0,3.65-.69,2.84,2.84,0,0,0,.8-2c-.2-7.45-1.39-53-.47-57.75.87-4.52,9.63-10.42,14.78-3.29a10.91,10.91,0,0,1,2,6.28c.15,10.78.79,53.88,1.3,57.08.59,3.67,3.89,2,4.27.74s11.58-45.85,15.07-52.77c1.93-3.82,15.36-11.23,13.81,4.65C139.56,43.92,137.76,51.2,136,59c-3.33,14.87-7.19,30.62-7.63,32.94-.68,3.54-.77,5.19,2.32,3.65s22.16-34,23.41-36.08c2.79-4.64,15.79-9.84,11.39,6.67a76.56,76.56,0,0,1-7.83,18.22c-5.92,10.25-12.19,19.75-12.77,21.72-.88,3-2.5,46.09-19.2,61.6a9.06,9.06,0,0,1-3.78,1.89c-5.39,1-10.61.78-18.34.95C94,170.77,82.44,170.91,76.43,166.81Z"/><path d="M97.33,171.15c-7.75,0-16.27-.58-21.18-3.92-1.44-1-2.9-1.95-4.36-2.91-11.13-7.36-22.64-15-27.37-31.85a9.3,9.3,0,0,0-1.17-2.59c-2.87-4.32-13-18.73-22.63-23a9.09,9.09,0,0,1-4.32-3.71,5.66,5.66,0,0,1-.71-4.59c.59-1.9,2.34-3.58,5.22-5s7.31-1,12.91,1.07c11.53,4.31,26,15.16,28.71,21.5a.25.25,0,0,0,.21.15.27.27,0,0,0,.24-.12c1.41-2.19,4.53-8.77,3.14-22.48A18.72,18.72,0,0,0,65.25,90C62,79.76,51.38,46.19,51.26,42.89c0-.29,0-.58,0-.88-.18-3.65-.43-8.65,6.23-10.28,5.58-1.37,8.2-.92,17.06,24.16.8,2.26,1.72,4.71,2.7,7.31,2.35,6.23,5,13.3,7.71,22.19a.55.55,0,0,0,.25.34,2.59,2.59,0,0,0,3.69-2.3c-.24-8.82-1.38-53.1-.47-57.85.58-3,4-6,7.52-6.82a7.64,7.64,0,0,1,8.17,3.33,11.4,11.4,0,0,1,2.07,6.56c.13,9,.78,53.8,1.3,57,.12.78.46,1.73,1.35,1.79a2.2,2.2,0,0,0,1.94-1.13c.05-.16.36-1.37.84-3.21,2.79-10.81,11.28-43.71,14.27-49.64,1.22-2.42,6.8-6.35,10.92-5.16,2.13.62,4.53,2.88,3.83,10.09a151.62,151.62,0,0,1-3.22,16.83l-.88,3.87c-1.91,8.57-4,17.39-5.52,23.84-1.11,4.71-1.91,8.11-2.1,9.09s-.62,3.25-.19,3.57c.08.06.44.21,1.8-.47.81-.41,4.65-4.62,22.59-34.87l.61-1c1.69-2.8,7-5.92,10.43-4.48,2,.86,4,3.56,1.87,11.54a76.68,76.68,0,0,1-7.88,18.34c-2.52,4.35-5,8.49-7.27,12.13-2.87,4.7-5.13,8.41-5.45,9.48-.13.45-.3,2-.53,4.26-1.28,12.16-4.68,44.45-18.81,57.57a9.54,9.54,0,0,1-4,2,73.6,73.6,0,0,1-13.37.89c-1.57,0-3.25,0-5.06.07S99.52,171.15,97.33,171.15ZM24.94,93.78a8.37,8.37,0,0,0-3.69.73c-2.62,1.28-4.2,2.75-4.7,4.38a4.73,4.73,0,0,0,.61,3.81A8.19,8.19,0,0,0,21,106c9.87,4.36,20.15,19,23.07,23.35a10.16,10.16,0,0,1,1.29,2.87c4.63,16.52,16,24,27,31.28q2.2,1.46,4.37,2.92h0c6,4.11,18.08,3.85,26.87,3.66,1.82,0,3.49-.06,5.07-.07a73.21,73.21,0,0,0,13.19-.87,8.48,8.48,0,0,0,3.53-1.77c13.85-12.86,17.23-44.88,18.5-56.93a42.91,42.91,0,0,1,.56-4.44c.35-1.2,2.54-4.77,5.56-9.72,2.22-3.64,4.74-7.77,7.25-12.11A75.56,75.56,0,0,0,165,66.05c1.51-5.68,1.05-9.36-1.3-10.36-2.92-1.23-7.71,1.63-9.18,4.07l-.6,1c-13.3,22.4-21,34.27-23,35.26-.93.46-2.11.93-2.85.37s-.63-2.23-.18-4.56c.19-1,1-4.41,2.11-9.13,1.52-6.44,3.61-15.27,5.52-23.83q.43-2,.87-3.87a148.54,148.54,0,0,0,3.2-16.71c.51-5.17-.57-8.29-3.11-9-3.47-1-8.67,2.5-9.75,4.65-2.94,5.83-11.41,38.66-14.2,49.44-.54,2.13-.79,3.08-.84,3.25a3.18,3.18,0,0,1-3,1.84c-.7,0-1.93-.46-2.28-2.64-.51-3.2-1.13-44.55-1.31-57.15a10.38,10.38,0,0,0-1.88-6,6.61,6.61,0,0,0-7.15-2.94c-3.48.77-6.3,3.75-6.74,6-.92,4.75.33,52.24.48,57.64a3.59,3.59,0,0,1-5.21,3.18,1.6,1.6,0,0,1-.69-.9c-2.69-8.87-5.34-15.92-7.68-22.14-1-2.6-1.91-5.06-2.71-7.33C64.65,31,62.32,31.56,57.69,32.7,51.83,34.14,52,38.29,52.22,42c0,.31,0,.6,0,.89.09,2.52,7.26,25.84,13.94,46.82a19.88,19.88,0,0,1,.82,4c1.36,13.52-1.48,20.29-3.3,23.12a1.25,1.25,0,0,1-1.17.57,1.23,1.23,0,0,1-1-.75c-2.32-5.47-16-16.43-28.14-20.95A24.86,24.86,0,0,0,24.94,93.78Z"/></g></svg>