<svg xmlns="http://www.w3.org/2000/svg" viewBox="0 0 192 192"><defs><style>.cls-1{opacity:0;}</style></defs><g id="Layer_3" data-name="Layer 3"><path d="M118.57,38c2.24-3.72,12.68-7.89,9.15,5.36A61.2,61.2,0,0,1,121.43,58c-4.75,8.24-9.79,15.86-10.25,17.45-.33,1.14-.8,9.32-2.56,19-9.39,12.84-24.55,20.54-35.15,32.82-6.55,0-13.37-.4-17.28-3.07-10.07-6.87-21.07-12.54-25.32-27.69a7.72,7.72,0,0,0-1-2.19c-2.37-3.55-10.53-15.14-18.35-18.6a7,7,0,0,1-3.28-2.81c-1.11-1.93-1.43-4.74,3.46-7.13,7.92-3.87,30,11.11,32.87,17.92a.6.6,0,0,0,1.06.08c1.31-2,3.7-7.37,2.59-18.3a15.36,15.36,0,0,0-.63-3.1c-2.12-6.65-11.13-35.06-11.22-37.7-.11-3-.78-7.23,4.66-8.56,4.18-1,6.19-.78,13.23,19.14,2.13,6,5.25,13.46,8.35,23.68a.81.81,0,0,0,.38.49,2.47,2.47,0,0,0,3.57-2.19c-.16-6-1.12-42.57-.38-46.37.7-3.63,7.74-8.38,11.88-2.65a8.81,8.81,0,0,1,1.58,5c.12,8.65.64,43.26,1,45.83.47,2.95,3.13,1.57,3.42.59s9.3-36.81,12.1-42.38c1.55-3.06,12.34-9,11.09,3.75-.43,4.46-1.87,10.31-3.27,16.57C101.36,49.5,98.26,62.15,97.91,64c-.54,2.83-.62,4.17,1.86,2.93S117.57,39.64,118.57,38Z"/><path d="M170.64,95c2.23-3.72,12.68-7.9,9.15,5.36a61,61,0,0,1-6.3,14.63c-4.75,8.23-9.79,15.86-10.24,17.44-.71,2.42-2,36.74-15.27,49.32a7.85,7.85,0,0,1-3.38,1.7c-4.26.78-8.42.59-14.53.72-7.74.17-17,.29-21.81-3-10.07-6.86-21.07-12.52-25.32-27.68a8.39,8.39,0,0,0-1-2.2c-.78-1.16-3.11-3.19-5.17-5.51a1.64,1.64,0,0,1,.07-2.23c5.3-5.29,7.58-7.49,11-11a1.18,1.18,0,0,1,1.58-.07c3.09,2.68,6.45,6.35,7.23,8.17a.6.6,0,0,0,1.06.08c1.31-2,3.69-7.37,2.59-18.31,0-.12-.22-1.09-.34-1.62a.69.69,0,0,1,.16-.58c3.65-4.21,7.55-7.25,11.31-11.21a.67.67,0,0,1,1.12.22c.67,2,1.36,4.1,2,6.34a1.58,1.58,0,0,0,1.07,1.06,2.36,2.36,0,0,0,2.33-.8,2.26,2.26,0,0,0,.64-1.65c0-1.81-.17-6.42-.29-12.08a.7.7,0,0,1,.2-.49c3.86-3.76,8.55-8.36,12.39-12.19a.67.67,0,0,1,1.14.45c.21,11.36.47,24.76.7,26.17.47,3,3.12,1.59,3.42.6s9.3-36.82,12.11-42.38c1.54-3.06,12.33-9,11.08,3.74-.44,4.46-1.88,10.31-3.28,16.57-2.67,11.94-5.77,24.59-6.12,26.45-.54,2.85-.62,4.17,1.86,2.93S169.63,96.66,170.64,95Z"/><path d="M189.22,3.61l-.83-.83a8,8,0,0,0-11.31,0L2.33,177.52a8,8,0,0,0,0,11.32l.83.83a8,8,0,0,0,11.32,0l67.45-67.46,27.89-27.89,79.4-79.4A8,8,0,0,0,189.22,3.61Z"/><rect class="cls-1" width="192" height="192"/></g></svg>