<svg id="icon" xmlns="http://www.w3.org/2000/svg" width="192" height="192" viewBox="0 0 192 192">
  <rect width="192" height="192" style="fill: none"/>
  <g>
    <path d="M138.1,150.8,126.8,144s-3.8-17.9-4.4-24a26.5,26.5,0,0,0-52.8,0c-.6,6.1-4.4,24-4.4,24l-11.3,6.8a4,4,0,0,0-1.9,3.3v10a4.1,4.1,0,0,0,4.3,3.9h79.4a4.1,4.1,0,0,0,4.3-3.9v-10A4,4,0,0,0,138.1,150.8ZM132,160H60v-3.5l9.3-5.7,3-1.7.7-3.4c.4-1.9,4-18.6,4.6-25a18.5,18.5,0,0,1,36.8,0c.6,6.4,4.2,23.1,4.6,25l.7,3.4,3,1.7,9.3,5.7Z"/>
    <circle cx="96" cy="80" r="8"/>
    <path d="M55.5,135.4a4,4,0,0,0,.6-5.6,29,29,0,0,1,0-35.6,4,4,0,1,0-6.2-5,36.9,36.9,0,0,0,0,45.6,3.7,3.7,0,0,0,3.1,1.5A4,4,0,0,0,55.5,135.4Z"/>
    <path d="M31.9,112a43.3,43.3,0,0,1,9.2-26.8,4,4,0,1,0-6.2-5,51.5,51.5,0,0,0,0,63.6,3.7,3.7,0,0,0,3.1,1.5,4.6,4.6,0,0,0,2.5-.8,4.1,4.1,0,0,0,.6-5.7A43.3,43.3,0,0,1,31.9,112Z"/>
    <path d="M142.1,89.2a4,4,0,1,0-6.2,5,29,29,0,0,1,0,35.6,4,4,0,0,0,.6,5.6,4,4,0,0,0,2.5.9,3.7,3.7,0,0,0,3.1-1.5,36.9,36.9,0,0,0,0-45.6Z"/>
    <path d="M157.1,80.2a4,4,0,1,0-6.2,5,43.6,43.6,0,0,1,0,53.6,4.1,4.1,0,0,0,.6,5.7,4.6,4.6,0,0,0,2.5.8,3.7,3.7,0,0,0,3.1-1.5,51.5,51.5,0,0,0,0-63.6Z"/>
    <path d="M35.1,66.4a2.3,2.3,0,0,0,2.8.5A149.7,149.7,0,0,1,76,55.3a2.9,2.9,0,0,0,2.4-2.8V34.4a84,84,0,0,1,35.3,0V52.3a2.9,2.9,0,0,0,2.4,2.8,137,137,0,0,1,38.1,11.8,2.7,2.7,0,0,0,2.8-.5L167.3,56a2.4,2.4,0,0,0-.1-3.5,103.2,103.2,0,0,0-142.4,0,2.4,2.4,0,0,0-.1,3.5Z"/>
  </g>
</svg>
