<svg version="1.1" id="Ebene_1" xmlns="http://www.w3.org/2000/svg" x="0" y="0" viewBox="0 0 192 192" xml:space="preserve"><g id="fax_in_solid"><path fill="none" d="M0 0h192v192H0z"/><path d="M24.8 160.9s-.1.1 0 0c-1 1-1 2.5-.1 3.5l10.4 10.4c.7.7 1.9.9 2.8.5 12.1-5.6 24.9-9.5 38.1-11.7 1.3-.2 2.3-1.4 2.3-2.8l.1-16.3c11.6-2.5 23.6-2.5 35.2 0l-.1 16.1c0 1.4 1 2.6 2.4 2.8 13.2 2.1 26.1 6.1 38.1 11.9 1 .5 2.1.4 2.9-.4l10.4-10.4c.9-1 .9-2.6-.1-3.6-39.9-38-102.6-38-142.4 0z"/><path d="M168 104h-8V24c0-4.4-3.6-8-8-8H40c-4.4 0-8 3.6-8 8v80h-8c-4.4 0-8 3.6-8 8v24c0 4.4 3.6 8 8 8s8-3.6 8-8v-16h128v16c0 4.4 3.6 8 8 8s8-3.6 8-8v-24c0-4.4-3.6-8-8-8zM58.3 58.3l24-24c3.1-3.1 8.2-3.1 11.3 0 3.1 3.1 3.1 8.2 0 11.3L83.3 56H128c4.4 0 8 3.6 8 8s-3.6 8-8 8H83.3l10.4 10.3c3.1 3.1 3.1 8.2 0 11.3-3.1 3.1-8.2 3.1-11.3 0l-24-24c-3.2-3.1-3.2-8.1-.1-11.3z"/></g></svg>