<svg version="1.1" id="Ebene_1" xmlns="http://www.w3.org/2000/svg" x="0" y="0" viewBox="0 0 192 192" xml:space="preserve"><path fill="none" d="M0 0h192v192H0z"/><path d="M160.3 125.7L143 114.3s-5.9-40.2-6.8-50.3c-1.5-22-17.8-40-40.2-40S57.3 42 55.5 64c-.8 10.1-6.8 50.3-6.8 50.3l-17.3 11.4c-1.8 1.2-3 3.3-3 5.4v6.3c0 3.6 3 6.5 6.6 6.5h44.6v.1c0 8.8 7.1 16 15.9 16s15.9-7.2 15.9-16v-.1h45.3c3.7 0 6.6-2.9 6.6-6.5v-6.3c0-2.2-1.1-4.2-3-5.4zm-103.2 2.2l.5-.3 6-3.9 1-7.1c.2-1.7 6-40.8 6.9-51.3C72.5 52.7 81.3 40 96 40s23.5 12.7 24.6 25.3c.9 10.5 6.6 49.6 6.9 51.3l1 7.1 6 3.9.5.3H57.1z"/></svg>