<svg version="1.1" id="Ebene_1" xmlns="http://www.w3.org/2000/svg" x="0" y="0" viewBox="0 0 192 192" xml:space="preserve"><path fill="none" d="M0 0h192v192H0z"/><path d="M128 16H64c-4.4 0-8 3.6-8 8v144c0 4.4 3.6 8 8 8h24v-16h16v16h24c4.4 0 8-3.6 8-8V24c0-4.4-3.6-8-8-8zM80 136H64v-16h16v16zm0-24H64V96h16v16zm0-24H64V72h16v16zm0-24H64V48h16v16zm0-24H64V24h16v16zm24 96H88v-16h16v16zm0-24H88V96h16v16zm0-24H88V72h16v16zm0-24H88V48h16v16zm0-24H88V24h16v16zm24 96h-16v-16h16v16zm0-24h-16V96h16v16zm0-24h-16V72h16v16zm0-24h-16V48h16v16zm0-24h-16V24h16v16z"/></svg>