<svg version="1.1" id="Ebene_1" xmlns="http://www.w3.org/2000/svg" x="0" y="0" viewBox="0 0 192 192" xml:space="preserve"><g id="time_outline"><path fill="none" d="M0 0h192v192H0z"/><path d="M96 16c-44.2 0-80 35.8-80 80s35.8 80 80 80 80-35.8 80-80-35.8-80-80-80zm0 152c-39.8 0-72-32.2-72-72 0-39.7 32.3-72 72-72 39.8 0 72 32.2 72 72s-32.2 72-72 72z"/><path d="M123.2 82.7L97.7 94.8 74.3 53.2c-1.1-1.9-3.5-2.6-5.4-1.5-1.9 1.1-2.6 3.5-1.5 5.4L92.5 102l.1.1c0 .1.1.2.1.2.1.1.1.2.2.2l.2.2.2.2.2.2c.1.1.2.1.2.2.1 0 .1.1.2.1.1.1.2.1.3.1.1 0 .1.1.2.1s.2.1.3.1c.1 0 .1 0 .2.1.1 0 .2.1.3.1h.7c.3 0 .5 0 .8-.1h.1c.2-.1.5-.1.7-.3h.1l29-13.5c2-.9 2.9-3.3 1.9-5.3-.9-2.1-3.3-2.9-5.3-2z"/></g></svg>