<svg version="1.1" id="Ebene_1" xmlns="http://www.w3.org/2000/svg" x="0" y="0" viewBox="0 0 192 192" xml:space="preserve"><g id="call_forwarding"><path fill="none" d="M0 0h192v192H0z"/><path d="M168 48H64c-26.4.1-47.9 21.6-48 48 .1 26.4 21.6 47.9 48 48h36.7l-10.3 10.3c-3.1 3.1-3.1 8.2 0 11.3 1.6 1.6 3.6 2.3 5.7 2.3 2 0 4.1-.8 5.7-2.3l24-24c3.1-3.1 3.1-8.2 0-11.3l-24-24c-3.1-3.1-8.2-3.1-11.3 0-3.1 3.1-3.1 8.2 0 11.3l10.3 10.3H64c-17.6-.1-32-14.4-32-32 .1-17.6 14.4-32 32-32h104c4.4 0 8-3.6 8-8s-3.6-7.9-8-7.9z"/></g></svg>