<svg id="icon" xmlns="http://www.w3.org/2000/svg" viewBox="0 0 192 192"><defs><style>.cls-1{fill:none;opacity:0;}</style></defs><path d="M126.09,78.42c6.41,5.5,24.41,30.5,13,36.77a5.83,5.83,0,0,1-2.71,1H102.84s3.48,58-6.76,58-7.64-58-7.64-58H56.53a3.91,3.91,0,0,1-1.51-.3c-3.63-1.51-16.83-9.44,10.6-37.47a3.93,3.93,0,0,0,1.14-2.94c-.38-9.77-1.92-57.29,8.08-57.29,0,0,35.08-.08,42.38-.06a3.93,3.93,0,0,1,3.17,1.59A11.25,11.25,0,0,1,122,23.42c2.58,9.4,3.53,31.35,2.93,52A3.78,3.78,0,0,0,126.09,78.42Z"/><path d="M96.08,176.24a5,5,0,0,1-3.69-1.7c-7.28-7.62-6.41-46-6-56.3H56.53a5.94,5.94,0,0,1-2.28-.45h0a12.06,12.06,0,0,1-7.33-8.66c-1.62-7.91,4.2-18.7,17.27-32.06a1.91,1.91,0,0,0,.57-1.45c-.71-18.39-.87-50.31,6.1-57.56a5.44,5.44,0,0,1,4-1.82c.35,0,35.16-.08,42.39-.06A6,6,0,0,1,122,18.6a13.14,13.14,0,0,1,1.87,4.24c2.84,10.36,3.55,33.9,3,52.66a1.82,1.82,0,0,0,.5,1.4c5.53,4.74,18.44,22.1,17.33,32.77a9,9,0,0,1-4.68,7.27l-.37.21a6.49,6.49,0,0,1-3.3,1.09H105c.54,10.37,2,48.68-5.19,56.29A5,5,0,0,1,96.08,176.24ZM55.79,114.09a1.85,1.85,0,0,0,.74.15h34l-.09,2.09c-.84,18.61-.26,50.12,4.84,55.45.44.46.71.46.8.46s.35,0,.77-.45c5-5.32,5.11-36.82,4-55.43l-.12-2.12h35.65a3.67,3.67,0,0,0,1.33-.57l.42-.24a4.91,4.91,0,0,0,2.62-4.17c.9-8.63-10.92-25-16-29.32a5.7,5.7,0,0,1-1.9-4.55c.65-22.19-.5-42.86-2.86-51.44a9.33,9.33,0,0,0-1.26-3,1.94,1.94,0,0,0-1.57-.77c-7.2,0-42,.06-42.36.06-.14,0-.53,0-1.1.59-4.21,4.38-6.12,25.31-5,54.62A5.92,5.92,0,0,1,67,79.87c-15.05,15.39-17.12,24-16.21,28.46a8,8,0,0,0,5,5.76Z"/><rect class="cls-1" x="-0.16" y="0.24" width="192" height="192"/></svg>