<svg id="icon" xmlns="http://www.w3.org/2000/svg" viewBox="0 0 192 192"><defs><style>.cls-1{fill:none;}</style></defs><rect class="cls-1" width="192" height="192"/><path d="M152.89,16H39.11A6.92,6.92,0,0,0,32,22.67V169.33A6.92,6.92,0,0,0,39.11,176H152.89a6.92,6.92,0,0,0,7.11-6.67V22.67A6.92,6.92,0,0,0,152.89,16ZM76,144H52a4,4,0,0,1,0-8H76a4,4,0,0,1,0,8Zm0-16H52a4,4,0,0,1,0-8H76a4,4,0,0,1,0,8Zm0-16H52a4,4,0,0,1,0-8H76a4,4,0,0,1,0,8Zm64,32H92a4,4,0,0,1,0-8h48a4,4,0,0,1,0,8Zm0-16H92a4,4,0,0,1,0-8h48a4,4,0,0,1,0,8Zm0-16H92a4,4,0,0,1,0-8h48a4,4,0,0,1,0,8Zm-8-56a12,12,0,1,1,12-12A12,12,0,0,1,132,56Z"/></svg>