<svg id="icon" xmlns="http://www.w3.org/2000/svg" viewBox="0 0 192 192"><defs><style>.cls-1{fill:none;}</style></defs><rect class="cls-1" width="192" height="192"/><circle cx="61.71" cy="64" r="22.86" transform="translate(-13.05 15.89) rotate(-13.28)"/><circle cx="130.29" cy="64" r="22.86" transform="translate(-7.1 110.87) rotate(-45)"/><path d="M104,114l-.35-.46a20.55,20.55,0,0,0-1.56-1.72l0,0a34,34,0,0,0-7.94-5.64c-.83-.45-1.68-.88-2.58-1.29a72.47,72.47,0,0,0-29.88-6.13,75.94,75.94,0,0,0-23.24,3.55,58.3,58.3,0,0,0-6.63,2.58c-.9.41-1.76.84-2.59,1.29a34,34,0,0,0-7.93,5.64l0,0a19,19,0,0,0-1.56,1.72l-.35.46a22.9,22.9,0,0,0-1.59,1.73c-.88,1.58-1.8,3.18-1.8,4.76V144h91.43V120.52c0-1.58-.92-3.18-1.81-4.76A20.81,20.81,0,0,0,104,114Z"/><path d="M174.56,115.76a14.29,14.29,0,0,0-1.21-1.73l-.37-.46a20.48,20.48,0,0,0-1.66-1.72l0,0a36.45,36.45,0,0,0-8.43-5.64c-.88-.45-1.79-.88-2.75-1.29-8.42-3.67-25.07-6.13-37.26-6.13a89.32,89.32,0,0,0-15.43,1.35c.47.4.93.8,1.38,1.22l.22.2.07.07a33.72,33.72,0,0,1,2.54,2.68c.24.27.46.55.68.82a36.76,36.76,0,0,1,2.82,3.37c2.28,3.85,3.91,7.9,3.91,12V144h57V120.52A9.41,9.41,0,0,0,174.56,115.76Z"/></svg>