<svg id="icon" xmlns="http://www.w3.org/2000/svg" viewBox="0 0 192 192"><defs><style>.cls-1{fill:none;}</style></defs><rect class="cls-1" width="192" height="192"/><path d="M178.79,114.52a85.6,85.6,0,0,1-54.51-94.63,8,8,0,0,0-5.92-9.11,91.45,91.45,0,0,0-44.56,0,8,8,0,0,0-5.94,9.11A85.71,85.71,0,0,1,57.63,77.1a85.72,85.72,0,0,1-44.39,37.47,8,8,0,0,0-4.92,9.71,91.48,91.48,0,0,0,22.26,38.49,8,8,0,0,0,10.84.58,85.11,85.11,0,0,1,18.73-11.77,39.22,39.22,0,0,0,71.71,0,85.11,85.11,0,0,1,18.7,11.76,8,8,0,0,0,10.84-.59,91.48,91.48,0,0,0,22.3-38.55A8,8,0,0,0,178.79,114.52ZM96,158.91a23.1,23.1,0,0,1-20.67-12.67,85.4,85.4,0,0,1,41.34,0A23.11,23.11,0,0,1,96,158.91Zm65.11-22.11a75.64,75.64,0,0,1-6.51,9.52,101.14,101.14,0,0,0-25.2-13h0a101.62,101.62,0,0,0-92,13A75.62,75.62,0,0,1,26,126.59,101.8,101.8,0,0,0,71.48,85.1,101.78,101.78,0,0,0,84.65,24.87a75.59,75.59,0,0,1,22.85,0A101.61,101.61,0,0,0,166,126.53,75.58,75.58,0,0,1,161.12,136.8Z"/></svg>