<svg version="1.1" id="Ebene_1" xmlns="http://www.w3.org/2000/svg" x="0" y="0" viewBox="0 0 192 192" xml:space="preserve"><path fill="none" d="M0 0h192v192H0z"/><path d="M160 24H32c-4.4 0-8 3.6-8 8v128c0 4.4 3.6 8 8 8h128c4.4 0 8-3.6 8-8V32c0-4.4-3.6-8-8-8zm-8 128H40V40h112v112z"/><path d="M74.6 129H86l2.6-16.5h9.6L95.5 129h11.2l2.5-16.5h9.9l1.5-10.3h-9.7l1.8-12.2h9.7l1.6-10.3h-9.7l2.3-15.6h-11.1l-2.4 15.6h-9.7L96 64.1H84.7l-2.3 15.6H73L71.5 90h9.3l-1.7 12.2h-9.5L68 112.5h9.4L74.6 129zm17.2-39h9.8l-1.8 12.2h-9.7L91.8 90z"/></svg>