<svg version="1.1" id="Ebene_1" xmlns="http://www.w3.org/2000/svg" x="0" y="0" viewBox="0 0 192 192" xml:space="preserve"><g id="backspace_solid"><path fill="none" d="M0 0h192v192H0z"/><path d="M176 48v96c0 4.4-3.6 8-8 8H64c-2.2 0-4.3-1-5.7-2.7l-40-46.7c-3.1-3.8-3.1-9.4 0-13.2l40-46.7C59.7 41 61.8 40 64 40h104c4.4 0 8 3.6 8 8zm-52.7 48l26.3-26.3c2.9-3.1 2.9-7.9 0-11-3-3.2-8.1-3.3-11.3-.3L112 84.7 85.7 58.3c-3.1-3.1-8.2-3.1-11.3 0-3.1 3.1-3.1 8.2 0 11.3L100.7 96l-26.3 26.4c-2.9 3.1-2.9 7.9 0 11 3 3.2 8.1 3.3 11.3.3l26.3-26.4 26.4 26.3c3.1 2.9 7.9 2.9 11 0 3.2-3 3.3-8.1.3-11.3L123.3 96z"/></g></svg>