<svg id="icon" xmlns="http://www.w3.org/2000/svg" viewBox="0 0 192 192"><path fill="none" d="M0 0h192v192H0zm64 144"/><rect x="40" y="16" width="48" height="104" rx="23.86"/><path d="M90.69 125.9A40.09 40.09 0 0 1 24 96.31V80a8 8 0 0 0-16 0v16.31a55.88 55.88 0 0 0 48 55.11V168a8 8 0 0 0 16 0v-16.58a56 56 0 0 0 29.31-13.55 8 8 0 0 0-10.62-12z"/><rect x="104" y="16" width="48" height="104" rx="23.86"/><path d="M176 72a8 8 0 0 0-8 8v16.31a39.34 39.34 0 0 1-6.65 22A40.06 40.06 0 0 1 128 136a8 8 0 0 0-8 8v24a8 8 0 0 0 16 0v-16.59a55.88 55.88 0 0 0 38.64-24.24A55.27 55.27 0 0 0 184 96.31V80a8 8 0 0 0-8-8z"/></svg>