<svg version="1.1" id="Ebene_1" xmlns="http://www.w3.org/2000/svg" x="0" y="0" viewBox="0 0 192 192" xml:space="preserve"><path fill="none" d="M0 0h192v192H0z"/><path d="M168.7 57L136 80v32l32.7 23c2.9 2.3 7.3.3 7.3-3.5v-71c0-3.8-4.3-5.8-7.3-3.5z"/><path d="M173.7 29.7c3.1-3.1 3.1-8.2 0-11.3-3.1-3.1-8.2-3.1-11.3 0l-144 144c-3.1 3.1-3.1 8.2 0 11.3 1.6 1.6 3.6 2.3 5.7 2.3s4.1-.8 5.7-2.3L67.3 136H112c8.8 0 16-7.2 16-16V75.3l45.7-45.6zM24.6 134.1L102.7 56H32c-8.8 0-16 7.2-16 16v48c0 6.1 3.5 11.5 8.6 14.1z"/></svg>