<svg id="icon" xmlns="http://www.w3.org/2000/svg" viewBox="0 0 192 192"><path fill="none" d="M0 0h192v192H0z"/><path d="M157 126.2l-.3-.4a18.3 18.3 0 0 0-1.3-1.6h-.1a27.9 27.9 0 0 0-6.9-5.3l-2.3-1.2A60.2 60.2 0 0 0 120 112a64 64 0 0 0-20.3 3.3 43.9 43.9 0 0 0-5.8 2.4l-2.3 1.2a27.9 27.9 0 0 0-6.9 5.3h-.1a18.3 18.3 0 0 0-1.3 1.6l-.3.4c-.4.6-1.1 1.1-1.4 1.6a10.2 10.2 0 0 0-1.6 4.5V152h80v-19.7a10.2 10.2 0 0 0-1.6-4.5c-.3-.5-1-1-1.4-1.6z"/><circle cx="120" cy="72" r="24"/><path d="M72 96H48V72a8 8 0 0 0-16 0v24H8a8 8 0 0 0 0 16h24v24a8 8 0 0 0 16 0v-24h24a8 8 0 0 0 0-16z"/></svg>