<svg id="icon" xmlns="http://www.w3.org/2000/svg" viewBox="0 0 192 192"><defs><style>.cls-1{fill:#fff;opacity:0;}.cls-2{fill:none;}</style></defs><g id="world"><rect class="cls-1" width="192" height="192"/><rect class="cls-2" width="192" height="192"/><path d="M168,56H24a8,8,0,0,0-8,8v80a8,8,0,0,0,8,8H168a8,8,0,0,0,8-8V64A8,8,0,0,0,168,56ZM120,68a4,4,0,0,1,4-4h8a4,4,0,0,1,4,4v8a4,4,0,0,1-4,4h-8a4,4,0,0,1-4-4ZM108,96h8a4,4,0,0,1,4,4v8a4,4,0,0,1-4,4h-8a4,4,0,0,1-4-4v-8A4,4,0,0,1,108,96ZM88,68a4,4,0,0,1,4-4h8a4,4,0,0,1,4,4v8a4,4,0,0,1-4,4H92a4,4,0,0,1-4-4ZM76,96h8a4,4,0,0,1,4,4v8a4,4,0,0,1-4,4H76a4,4,0,0,1-4-4v-8A4,4,0,0,1,76,96ZM56,68a4,4,0,0,1,4-4h8a4,4,0,0,1,4,4v8a4,4,0,0,1-4,4H60a4,4,0,0,1-4-4ZM44,96h8a4,4,0,0,1,4,4v8a4,4,0,0,1-4,4H44a4,4,0,0,1-4-4v-8A4,4,0,0,1,44,96ZM36,80H28a4,4,0,0,1-4-4V68a4,4,0,0,1,4-4h8a4,4,0,0,1,4,4v8A4,4,0,0,1,36,80Zm116,60a4,4,0,0,1-4,4H44a4,4,0,0,1-4-4v-8a4,4,0,0,1,4-4H148a4,4,0,0,1,4,4Zm0-32a4,4,0,0,1-4,4h-8a4,4,0,0,1-4-4v-8a4,4,0,0,1,4-4h8a4,4,0,0,1,4,4Zm16-32a4,4,0,0,1-4,4h-8a4,4,0,0,1-4-4V68a4,4,0,0,1,4-4h8a4,4,0,0,1,4,4Z"/></g></svg>