<svg version="1.1" id="Ebene_1" xmlns="http://www.w3.org/2000/svg" x="0" y="0" viewBox="0 0 192 192" xml:space="preserve"><g id="address_book"><path fill="none" d="M0 0h192v192H0z"/><path d="M96 96c11 0 20-9 20-20s-9-20-20-20-20 9-20 20 9 20 20 20zm0-32c6.6 0 12 5.4 12 12s-5.4 12-12 12-12-5.4-12-12 5.4-12 12-12zm37.8 53.8l-.3-.4c-.4-.6-.9-1.1-1.4-1.6-2.1-2-4.5-3.8-7.1-5.2-.7-.4-1.5-.8-2.3-1.2-8.4-3.8-17.5-5.7-26.7-5.6-7 0-14 1.1-20.7 3.2-2 .7-4 1.5-5.9 2.4-.8.4-1.6.8-2.3 1.2-2.6 1.4-5 3.1-7.1 5.2-.5.5-1 1-1.4 1.6l-.3.4c-.4.5-.7 1-1 1.6-.8 1.3-1.2 2.8-1.2 4.4V144h80v-20.2c0-1.5-.4-3-1.2-4.4-.4-.5-.7-1.1-1.1-1.6zM128 136H64v-12.2c.1-.2.1-.4.2-.6.1-.2.3-.5.5-.7l.1-.2c.2-.3.4-.5.7-.8l.2-.1.1-.2c1.5-1.4 3.2-2.6 5.1-3.6.6-.3 1.3-.7 1.9-1 1.6-.8 3.3-1.4 5-2 5.9-1.9 12.1-2.8 18.2-2.8 8-.1 15.9 1.6 23.2 4.8.6.3 1.3.6 1.9 1 1.9 1 3.6 2.2 5.1 3.7l.1.1c.3.3.5.6.8.9l.2.2c.2.2.3.4.4.7.1.2.2.4.2.6V136z"/><path d="M136 16H32v160h104c13.3 0 24-10.7 24-24V40c0-13.3-10.7-24-24-24zm16 136c0 8.8-7.2 16-16 16H40V24h96c8.8 0 16 7.2 16 16v112z"/></g></svg>