<svg version="1.1" id="Ebene_1" xmlns="http://www.w3.org/2000/svg" x="0" y="0" viewBox="0 0 192 192" xml:space="preserve"><g id="favorite_solid"><path fill="none" d="M0 0h192v192H0z"/><path d="M97.8 26.5c-2.1-1.1-4.7-.2-5.8 1.9L72.1 68.8l-44.5 6.5c-.9.1-1.8.6-2.4 1.2-1.7 1.7-1.6 4.4.1 6.1L57.4 114l-7.6 44.3c-.2.9 0 1.9.4 2.7 1.1 2.1 3.7 2.9 5.8 1.8l39.9-20.9 39.8 21c.8.4 1.8.6 2.7.4 2.3-.4 3.9-2.6 3.5-5l-7.6-44.4 32.2-31.4c.7-.7 1.1-1.5 1.2-2.4.3-2.4-1.3-4.5-3.6-4.9l-44.5-6.5-19.9-40.3c-.4-.8-1.1-1.5-1.9-1.9z"/></g></svg>