<svg id="icon" xmlns="http://www.w3.org/2000/svg" viewBox="0 0 192 192"><path fill="none" d="M0 0h192v192H0z"/><path d="M164 88h-4V24a8 8 0 0 0-8-8H40a8 8 0 0 0-8 8v48h-4a4 4 0 0 0-4 4v64a4 4 0 0 0 4 4h4v24a8 8 0 0 0 8 8h112a8 8 0 0 0 8-8v-24h4a4 4 0 0 0 4-4V92a4 4 0 0 0-4-4zm-24 32a4 4 0 1 1 4-4 4 4 0 0 1-4 4zm4 12a4 4 0 1 1-4-4 4 4 0 0 1 4 4zm-4-28a4 4 0 1 1 4-4 4 4 0 0 1-4 4zm4-16H84a4 4 0 0 0-4 4v48a4 4 0 0 0 4 4h60v16H48v-16h12a4 4 0 0 0 4-4V76a4 4 0 0 0-4-4H48V32h96zm-20 32a4 4 0 1 1 4-4 4 4 0 0 1-4 4zm4 12a4 4 0 1 1-4-4 4 4 0 0 1 4 4zm-4-28a4 4 0 1 1 4-4 4 4 0 0 1-4 4zm-16 16a4 4 0 1 1 4-4 4 4 0 0 1-4 4zm4 12a4 4 0 1 1-4-4 4 4 0 0 1 4 4zm-4-28a4 4 0 1 1 4-4 4 4 0 0 1-4 4z"/></svg>