<svg id="icon" xmlns="http://www.w3.org/2000/svg" viewBox="0 0 192 192"><defs><style>.cls-1{opacity:0;}</style></defs><rect class="cls-1" width="192" height="192"/><polygon points="40.5 132.5 31.5 84.5 37.5 79.5 64.5 102.5 90.5 51.5 103 51.5 126.5 102.5 155.5 79.5 161.5 83.5 152.25 132.5 40.5 132.5"/><circle cx="28.5" cy="73.5" r="12"/><circle cx="96.5" cy="41.5" r="12"/><circle cx="163.5" cy="72.5" r="12"/><path d="M41,146H152a0,0,0,0,1,0,0v10a8,8,0,0,1-8,8H49a8,8,0,0,1-8-8V146a0,0,0,0,1,0,0Z"/></svg>