<svg id="icon" xmlns="http://www.w3.org/2000/svg" viewBox="0 0 192 192"><defs><style>.cls-1{opacity:0;}</style></defs><rect class="cls-1" width="192" height="192"/><path d="M155.66,161.2a4,4,0,0,1-2.55-.92,89.06,89.06,0,0,0-27.65-15.59h0a89.53,89.53,0,0,0-86.58,15.58,4,4,0,0,1-5.42-.3,87.32,87.32,0,0,1-21.29-36.8,4,4,0,0,1,2.46-4.85A89.75,89.75,0,0,0,61.09,79.1,89.75,89.75,0,0,0,71.81,19.19a4,4,0,0,1,3-4.56,87.53,87.53,0,0,1,42.61,0,4,4,0,0,1,3,4.55,89.6,89.6,0,0,0,57.05,99.06,4,4,0,0,1,2.45,4.85A87.36,87.36,0,0,1,158.53,160,4,4,0,0,1,155.66,161.2Zm-27.57-24.07a96.91,96.91,0,0,1,27.16,14.63,79.65,79.65,0,0,0,15.84-27.38A97.62,97.62,0,0,1,111.89,21.6a79.63,79.63,0,0,0-31.63,0A97.8,97.8,0,0,1,68,83.1a97.78,97.78,0,0,1-47.09,41.33,79.6,79.6,0,0,0,15.79,27.32,97.62,97.62,0,0,1,91.37-14.62Z"/><path d="M96,170.91a35.09,35.09,0,0,1-34.72-29.36l7.9-1.32a27.2,27.2,0,0,0,53.64,0l7.88,1.32A35.07,35.07,0,0,1,96,170.91Z"/></svg>