<svg id="icon" xmlns="http://www.w3.org/2000/svg" viewBox="0 0 192 192"><path fill="none" d="M0 0h192v192H0z"/><circle cx="95.85" cy="32" r="24"/><path d="M144 95.7a13.72 13.72 0 0 0-1.58-5.18c-.37-.6-.75-1.27-1.2-1.87a3.18 3.18 0 0 1-.37-.52 19.66 19.66 0 0 0-1.65-1.87 38.63 38.63 0 0 0-8.48-6.15c-.9-.45-1.8-1-2.77-1.42-8.48-4-19.73-6.67-32-6.67A80.27 80.27 0 0 0 71 75.9a61.32 61.32 0 0 0-7.12 2.85c-1 .45-1.87.9-2.78 1.42a36.9 36.9 0 0 0-8.47 6.15A18.46 18.46 0 0 0 51 88.2a3.17 3.17 0 0 0-.37.52 13.09 13.09 0 0 0-1.2 1.88A10.65 10.65 0 0 0 48 95.85V120h96zm24 40.3H24a8 8 0 0 0 0 16h16v24h112v-24h16a8 8 0 0 0 0-16z"/></svg>