<svg version="1.1" id="Ebene_1" xmlns="http://www.w3.org/2000/svg" x="0" y="0" viewBox="0 0 192 192" xml:space="preserve"><g id="queues"><path fill="none" d="M0 0h192v192H0z"/><path d="M172.5 77.1c-7.6-17.7-25-29.1-44.2-29.1h-37l6.4-6.4c3.1-3.1 3.1-8.2 0-11.3-3.1-3.1-8.2-3.1-11.3 0l-20 20c-3.1 3.1-3.1 8.2 0 11.3l20 20C88 83.2 90 84 92 84s4.1-.8 5.7-2.3c3.1-3.1 3.1-8.2 0-11.3L91.4 64h36.9c12.8 0 24.4 7.6 29.5 19.4 3.4 7.9 3.5 16.6.3 24.6s-9.3 14.2-17.2 17.6c-4.1 1.7-5.9 6.4-4.2 10.5 1.3 3 4.3 4.8 7.4 4.8 1.1 0 2.1-.2 3.2-.7 11.8-5.1 20.9-14.4 25.7-26.4 4.7-11.8 4.6-24.9-.5-36.7zm-66.8 33.2c-3.1-3.1-8.2-3.1-11.3 0-3.1 3.1-3.1 8.2 0 11.3l6.4 6.4H64c-12.8 0-24.3-7.6-29.4-19.3-7-16.2.4-35.2 16.6-42.2 4.1-1.8 5.9-6.5 4.1-10.5-1.8-4.1-6.5-5.9-10.5-4.1-24.3 10.5-35.5 38.8-24.9 63.2C27.5 132.7 44.8 144 64 144h37.4l-6.1 6.4c-3 3.2-2.9 8.3.3 11.3 1.5 1.5 3.5 2.2 5.5 2.2 2.1 0 4.2-.8 5.8-2.5l19-20c3-3.1 2.9-8.1-.1-11.2l-20.1-19.9z"/></g></svg>