<svg id="icon" xmlns="http://www.w3.org/2000/svg" viewBox="0 0 192 192"><path fill="none" d="M0 0h192v192H0z"/><circle cx="96" cy="56" r="32"/><path d="M158.06 128.66a22.16 22.16 0 0 0-1.62-2.51c-.16-.22-.33-.45-.5-.67a30 30 0 0 0-2.23-2.52 49.13 49.13 0 0 0-11.33-8.24c-1.18-.65-2.41-1.28-3.69-1.88-11.32-5.35-26.27-8.94-42.67-8.94a106.63 106.63 0 0 0-33.21 5.1 83.58 83.58 0 0 0-9.48 3.77c-1.28.6-2.5 1.23-3.69 1.88a49.13 49.13 0 0 0-11.33 8.24 30 30 0 0 0-2.23 2.52c-.18.22-.34.45-.5.67a22.15 22.15 0 0 0-1.62 2.51 14.56 14.56 0 0 0-1.94 7v24.25a8 8 0 0 0 8 8H152a8 8 0 0 0 8-8v-24.22a14.56 14.56 0 0 0-1.94-6.96z"/></svg>