<svg version="1.1" id="Ebene_1" xmlns="http://www.w3.org/2000/svg" x="0" y="0" viewBox="0 0 192 192" xml:space="preserve"><g id="bfl_solid"><path fill="none" d="M0 0h192v192H0z"/><path d="M80 32v16H32V32h48m0-8H32c-4.4 0-8 3.6-8 8v16c0 4.4 3.6 8 8 8h48c4.4 0 8-3.6 8-8V32c0-4.4-3.6-8-8-8zm88 24h-64v8h64zM80 88v16H32V88h48m0-8H32c-4.4 0-8 3.6-8 8v16c0 4.4 3.6 8 8 8h48c4.4 0 8-3.6 8-8V88c0-4.4-3.6-8-8-8zm0 64v16H32v-16h48m0-8H32c-4.4 0-8 3.6-8 8v16c0 4.4 3.6 8 8 8h48c4.4 0 8-3.6 8-8v-16c0-4.4-3.6-8-8-8zm88-32h-64v8h64zm0 56h-64v8h64z"/></g></svg>