<?xml version="1.0" encoding="utf-8"?>
<!-- Generator: Adobe Illustrator 26.3.1, SVG Export Plug-In . SVG Version: 6.00 Build 0)  -->
<svg version="1.1" id="icon" xmlns="http://www.w3.org/2000/svg" xmlns:xlink="http://www.w3.org/1999/xlink" x="0px" y="0px"
	 viewBox="0 0 192 192" style="enable-background:new 0 0 192 192;" xml:space="preserve">
<style type="text/css">
	.st0{fill:none;}
</style>
<g id="gallery">
	<rect class="st0" width="192" height="192"/>
	<path d="M33.6,54.2h32.3c1.8,0,3.2,1.7,3.2,3.8v15.2c0,2.1-1.4,3.8-3.2,3.8H33.6c-1.8,0-3.2-1.7-3.2-3.8V58
		C30.4,55.9,31.8,54.2,33.6,54.2z"/>
	<path d="M78.8,54.2h32.3c1.8,0,3.2,1.7,3.2,3.8v15.2c0,2.1-1.4,3.8-3.2,3.8H78.8c-1.8,0-3.2-1.7-3.2-3.8V58
		C75.6,55.9,77.1,54.2,78.8,54.2z"/>
	<path d="M124.1,54.2h32.3c1.8,0,3.2,1.7,3.2,3.8v15.2c0,2.1-1.4,3.8-3.2,3.8h-32.3c-1.8,0-3.2-1.7-3.2-3.8V58
		C120.9,55.9,122.3,54.2,124.1,54.2z"/>
	<path d="M33.6,84.6h32.3c1.8,0,3.2,1.7,3.2,3.8v15.2c0,2.1-1.4,3.8-3.2,3.8H33.6c-1.8,0-3.2-1.7-3.2-3.8V88.4
		C30.4,86.3,31.8,84.6,33.6,84.6z"/>
	<path d="M78.8,84.6h32.3c1.8,0,3.2,1.7,3.2,3.8v15.2c0,2.1-1.4,3.8-3.2,3.8H78.8c-1.8,0-3.2-1.7-3.2-3.8V88.4
		C75.6,86.3,77.1,84.6,78.8,84.6z"/>
	<path d="M124.1,84.6h32.3c1.8,0,3.2,1.7,3.2,3.8v15.2c0,2.1-1.4,3.8-3.2,3.8h-32.3c-1.8,0-3.2-1.7-3.2-3.8V88.4
		C120.9,86.3,122.3,84.6,124.1,84.6z"/>
	<path d="M33.6,115h32.3c1.8,0,3.2,1.7,3.2,3.8V134c0,2.1-1.4,3.8-3.2,3.8H33.6c-1.8,0-3.2-1.7-3.2-3.8v-15.2
		C30.4,116.7,31.8,115,33.6,115z"/>
	<path d="M78.8,115h32.3c1.8,0,3.2,1.7,3.2,3.8V134c0,2.1-1.4,3.8-3.2,3.8H78.8c-1.8,0-3.2-1.7-3.2-3.8v-15.2
		C75.6,116.7,77.1,115,78.8,115z"/>
	<path d="M124.1,115h32.3c1.8,0,3.2,1.7,3.2,3.8V134c0,2.1-1.4,3.8-3.2,3.8h-32.3c-1.8,0-3.2-1.7-3.2-3.8v-15.2
		C120.9,116.7,122.3,115,124.1,115z"/>
</g>
</svg>
