<svg id="icon" xmlns="http://www.w3.org/2000/svg" viewBox="0 0 192 192"><defs><style>.cls-1{fill:none;}</style></defs><rect class="cls-1" width="192" height="192"/><path d="M96,24a40,40,0,0,1,17.13,76.15A16,16,0,0,0,104.21,112H87.79a16,16,0,0,0-8.92-11.85A40,40,0,0,1,94.09,24c.63,0,1.28,0,1.91,0M96,8c-.88,0-1.76,0-2.65.06A56,56,0,0,0,72,114.6V120a8,8,0,0,0,8,8h32a8,8,0,0,0,8-8v-5.4A56,56,0,0,0,96,8Z"/><path d="M112,152H80a8,8,0,0,1,0-16h32a8,8,0,0,1,0,16Z"/><path d="M104,176H88a8,8,0,0,1,0-16h16a8,8,0,0,1,0,16Z"/></svg>