<svg id="icon" xmlns="http://www.w3.org/2000/svg" viewBox="0 0 192 192"><path fill="none" d="M0 0h192v192H0z"/><path d="M127.7 69c3.1 3 2.1 7.9 1.7 10.1a36.3 36.3 0 0 1-2.5 8.4c-1.7 4-8.1 15-16.2 23.5a99.6 99.6 0 0 1-22.8 17.5 34.6 34.6 0 0 1-8.2 2.8c-2.2.6-7.1 1.8-10.2-1.2l-8.3-7.9a3.4 3.4 0 0 1-1.1-3 3.8 3.8 0 0 1 1.9-2.6L75.3 106h.1a4.1 4.1 0 0 1 2.1-.5 4.6 4.6 0 0 1 3.2 1.1l3.2 2.9c3.1 2.4 8.1-1.9 9.8-3.2s5.1-4.6 6.1-5.6l5.3-6.3c1.2-1.8 5.2-7 2.7-10l-3.1-3.1a4.5 4.5 0 0 1-1.2-3.1 4.1 4.1 0 0 1 .4-2.1l9.9-13.8a3.8 3.8 0 0 1 2.5-2 3.3 3.3 0 0 1 3 .9zm44.7 99.1a7.7 7.7 0 0 1-3.1 6.1 7.6 7.6 0 0 1-6.8 1.2l-30.2-9.6A76.7 76.7 0 0 1 94.1 176C51 176 16 140.1 16 96s35-80 78.1-80 78.1 35.9 78.1 80c0 15 .2 72.1.2 72.1zm-15.3-10.4c0-17.2-.2-50.7-.2-61.7 0-35.7-28.2-64.8-62.8-64.8S31.2 60.3 31.2 96s28.2 64.8 62.9 64.8a62 62 0 0 0 33.1-9.7 8 8 0 0 1 6.4-.9z"/></svg>