<svg version="1.1" id="Ebene_1" xmlns="http://www.w3.org/2000/svg" x="0" y="0" viewBox="0 0 192 192" xml:space="preserve"><g id="call_solid"><path d="M168 144.1v20.6c-.1 1.9-1.6 3.4-3.5 3.3-28.5-.7-56.2-9.8-79.5-26.2-13.5-9.5-25.2-21.3-34.8-34.7C33.8 83.8 24.6 56.2 24 27.7c-.1-2 1.5-3.6 3.4-3.7h20.5c1.5.1 2.8 1.1 3.2 2.5C57.3 44.1 66 60.7 77 75.8c1.1 1.6 1 3.7-.4 5.1L60.7 96.6c9 13.9 20.9 25.7 34.8 34.7l16.2-16c1.3-1.3 3.5-1.5 5-.4 15.1 10.8 31.6 19.5 49.1 26 1.3.5 2.2 1.8 2.2 3.2z"/><path fill="none" d="M0 0h192v192H0z"/></g></svg>