<svg version="1.1" id="Ebene_1" xmlns="http://www.w3.org/2000/svg" x="0" y="0" viewBox="0 0 192 192" xml:space="preserve"><path fill="none" d="M0 0h192v192H0z"/><path d="M168 136H24c-4.4 0-8 3.6-8 8s3.6 8 8 8h144c4.4 0 8-3.6 8-8s-3.6-8-8-8zM88 56h16c4.4 0 8-3.6 8-8s-3.6-8-8-8H88c-4.4 0-8 3.6-8 8s3.6 8 8 8zm-47.4 72h110.9c4.9 0 8.6-4.4 7.9-9.2C154.9 87.8 128.2 64 96 64s-58.9 23.8-63.3 54.8c-.7 4.8 3 9.2 7.9 9.2zm23.8-36.2C73.2 84.2 84.4 80 96 80s22.8 4.2 31.6 11.8c6.3 5.5 11 12.5 13.7 20.2H50.7c2.7-7.7 7.4-14.7 13.7-20.2z"/></svg>