<svg id="icon" xmlns="http://www.w3.org/2000/svg" width="192" height="192" viewBox="0 0 192 192">
  <rect width="192" height="192" style="fill: none"/>
  <g>
    <path d="M89.6,32.8,48,68H24a8,8,0,0,0-8,8v40a8,8,0,0,0,8,8H48l41.6,35.2A4,4,0,0,0,96,156V36A4,4,0,0,0,89.6,32.8Z"/>
    <path d="M112.1,32.3a8,8,0,0,0,0,16,47.7,47.7,0,1,1,0,95.4,8,8,0,1,0,0,16,63.7,63.7,0,1,0,0-127.4Z"/>
    <path d="M112.1,112.4a8,8,0,0,0,0,16,32.4,32.4,0,1,0,0-64.8,8,8,0,0,0,0,16,16.4,16.4,0,1,1,0,32.8Z"/>
  </g>
</svg>
