<svg id="icon" xmlns="http://www.w3.org/2000/svg" viewBox="0 0 192 192">
  <path d="M168,80a8,8,0,0,1-8-8V48H136a8,8,0,0,1,0-16h32a8,8,0,0,1,8,8V72A8,8,0,0,1,168,80Z" />
  <path d="M168,160H136a8,8,0,0,1,0-16h24V120a8,8,0,0,1,16,0v32A8,8,0,0,1,168,160Z" />
  <path d="M24,80a8,8,0,0,1-8-8V40a8,8,0,0,1,8-8H56a8,8,0,0,1,0,16H32V72A8,8,0,0,1,24,80Z" />
  <path d="M56,160H24a8,8,0,0,1-8-8V120a8,8,0,0,1,16,0v24H56a8,8,0,0,1,0,16Z" />
  <rect x="57.33" y="67.88" width="77.34" height="56.25" />
  <path d="M134.67,132.12H57.33a8,8,0,0,1-8-8V67.88a8,8,0,0,1,8-8h77.34a8,8,0,0,1,8,8v56.24A8,8,0,0,1,134.67,132.12Zm-69.34-16h61.34V75.88H65.33Z" />
</svg>