<svg id="icon" xmlns="http://www.w3.org/2000/svg" viewBox="0 0 192 192"><path fill="none" d="M0 0h192v192H0zm128 144"/><path d="M176 72a8 8 0 0 0-8 8v16.31a39.34 39.34 0 0 1-6.65 22A40.06 40.06 0 0 1 128 136a8 8 0 0 0-8 8v24a8 8 0 0 0 16 0v-16.59a55.88 55.88 0 0 0 38.64-24.24A55.27 55.27 0 0 0 184 96.31V80a8 8 0 0 0-8-8zm13.66-69.66a8 8 0 0 0-11.32 0l-28.22 28.23a23.87 23.87 0 0 0-22-14.57h-.28A23.86 23.86 0 0 0 104 39.86v36.83l-16 16V39.86A23.86 23.86 0 0 0 64.14 16h-.28A23.86 23.86 0 0 0 40 39.86v56.28a23.87 23.87 0 0 0 20.88 23.67L48 132.67a39.72 39.72 0 0 1-24-36.36V80a8 8 0 0 0-16 0v16.31a55.62 55.62 0 0 0 28.12 48.25L2.34 178.34a8 8 0 0 0 11.32 11.32l38.86-38.87.31.07 15.06-15.06h-.42l36.72-36.72.06.32L152 51.69v-.38l37.66-37.65a8 8 0 0 0 0-11.32z"/><path d="M128.14 120A23.86 23.86 0 0 0 152 96.14V74.31l-39.8 39.81a23.71 23.71 0 0 0 15.66 5.88z"/></svg>