<svg version="1.1" id="Ebene_1" xmlns="http://www.w3.org/2000/svg" x="0" y="0" viewBox="0 0 192 192" xml:space="preserve"><path fill="none" d="M0 0h192v192H0z"/><path d="M173.7 18.3c-3.1-3.1-8.2-3.1-11.3 0l-29.9 29.9C126 34 112.7 24 96 24c-22.4 0-38.7 18-40.5 40-.8 10.1-6.7 50.3-6.7 50.3l-17.3 11.4c-1.8 1.2-3 3.3-3 5.4v6.3c0 3.6 3 6.5 6.6 6.5h1.6l-18.3 18.3c-3.1 3.1-3.1 8.2 0 11.3 1.6 1.6 3.6 2.3 5.7 2.3s4.1-.8 5.7-2.3l144-144c3-3 3-8-.1-11.2zM64.7 116c.7-5.3 5.9-40.8 6.7-50.7C72.5 52.7 81.3 40 96 40c13 0 21.3 9.9 23.8 20.8L64.7 116zm95.8 9.7l-17.3-11.4s-2-13.6-3.8-27l-14.2 14c1.2 8.2 2.1 14.7 2.2 15.3l1 7.1 6 3.9.5.3H98.1L79.8 146c1 7.9 7.7 13.9 15.7 13.9 8.8 0 15.9-7.2 15.9-16h45.5c3.7 0 6.6-2.9 6.6-6.5v-6.3c0-2.1-1.1-4.2-3-5.4z"/></svg>