<svg id="icon" xmlns="http://www.w3.org/2000/svg" viewBox="0 0 192 192"><path fill="none" d="M0 0h192v192H0z"/><path d="M1.2 157.6a3.8 3.8 0 0 0-.1 5.5l16.8 16.8a3.8 3.8 0 0 0 4.8.5 130.4 130.4 0 0 1 48.5-19.8 3.9 3.9 0 0 0 3.1-3.8v-16.2a150.3 150.3 0 0 1 43.4 0v16.2a3.9 3.9 0 0 0 3.1 3.8 130.4 130.4 0 0 1 48.5 19.8 3.8 3.8 0 0 0 4.8-.5l16.8-16.8a3.8 3.8 0 0 0-.1-5.5c-53.1-50.1-136.5-50.1-189.6 0zM189.7 2.3a8.1 8.1 0 0 0-11.4 0L96 84.7 27.3 16H64a8 8 0 0 0 0-16H5.7l-.4.5h-.4l-.3.3h-.4l-.3.2-.3.2-.4.3-.3.2-.5.5h-.1c-.2.2-.3.4-.5.5l-.2.3-.3.4c0 .1-.1.2-.2.3S1 3.9.9 4v.4l-.2.3c0 .2-.1.3-.1.4l-.2.4V6a.8.8 0 0 0-.1.4.9.9 0 0 0-.1.5.4.4 0 0 1-.1.3v.7H0V64a8 8 0 0 0 16 0V27.3l74.3 74.3a8 8 0 0 0 11.4 0l88-87.9a8.1 8.1 0 0 0 0-11.4z"/></svg>