<svg version="1.1" id="Ebene_1" xmlns="http://www.w3.org/2000/svg" x="0" y="0" viewBox="0 0 192 192" xml:space="preserve"><g id="mic_on_solid"><path fill="none" d="M0 0h192v192H0z"/><path d="M95.9 120h.3c13.2 0 23.9-10.7 23.9-23.9V39.9C120 26.7 109.3 16 96.1 16h-.3C82.7 16 72 26.7 72 39.9v56.3c0 13.1 10.7 23.8 23.9 23.8z"/><path d="M144 72c-4.4 0-8 3.6-8 8v16.3c0 21.9-17.9 39.7-39.8 39.7h-.4C74 136 56.2 118.3 56 96.5V80c0-4.4-3.6-8-8-8s-8 3.6-8 8v16.5c.1 28 21 51.2 48 54.9V168c0 4.4 3.6 8 8 8s8-3.6 8-8v-16.6c27-3.8 47.9-27 48-55.1V80c0-4.4-3.6-8-8-8z"/></g></svg>